G04 DipTrace 3.3.1.3*
G04 Bottom.gbr*
%MOIN*%
G04 #@! TF.FileFunction,Copper,L2,Bot*
G04 #@! TF.Part,Single*
G04 #@! TA.AperFunction,Conductor*
%ADD14C,0.02*%
G04 #@! TA.AperFunction,CopperBalancing*
%ADD15C,0.012992*%
G04 #@! TA.AperFunction,Conductor*
%ADD16C,0.03*%
G04 #@! TA.AperFunction,CopperBalancing*
%ADD17C,0.025*%
G04 #@! TA.AperFunction,ComponentPad*
%ADD19C,0.08*%
%ADD22R,0.06378X0.06378*%
%ADD23C,0.06378*%
%ADD25R,0.066929X0.066929*%
%ADD26C,0.066929*%
G04 #@! TA.AperFunction,ViaPad*
%ADD31C,0.04*%
%FSLAX26Y26*%
G04*
G70*
G90*
G75*
G01*
G04 Bottom*
%LPD*%
X581500Y1969000D2*
D14*
X1162749D1*
X2737749D1*
Y1970378D1*
X4999660D1*
X2737749Y2012749D2*
D15*
Y1970378D1*
X581500Y2369000D2*
D16*
X800249D1*
X1387554D1*
X2737749D1*
X3287751D1*
Y2370378D1*
X4999660D1*
X3181500Y2706500D2*
D15*
X3381500D1*
X3381520Y2706480D1*
X3581520D1*
X3569000Y2925249D2*
X3950249D1*
X3631500Y2969000D2*
X3831500D1*
X581500Y1869000D2*
D14*
X1087946D1*
X3287751D1*
Y1870378D1*
X4999660D1*
X3181500Y2506500D2*
D15*
X3381500D1*
X3381520Y2506480D1*
X3581520D1*
X581500Y2169000D2*
D14*
X981500D1*
X2887749D1*
Y2170378D1*
X4999660D1*
X2887749Y2119000D2*
D15*
Y2169000D1*
X581500Y2269000D2*
D14*
X725446D1*
X2837749D1*
Y2270378D1*
X4999660D1*
X2837749Y2212749D2*
D15*
Y2269000D1*
X581500Y2069000D2*
D14*
X904726D1*
X2789636D1*
Y2070378D1*
X4999660D1*
D31*
X1162749Y1969000D3*
X2737749Y2012749D3*
X3287751Y2369000D3*
X2737749D3*
X800249D3*
X1387554D3*
X3569000Y2925249D3*
X3950249D3*
X3631500Y2969000D3*
X3831500D3*
X3287751Y1869000D3*
D3*
X1087946D3*
X981500Y2169000D3*
X2887749Y2119000D3*
X725446Y2269000D3*
X2837749Y2212749D3*
X904726Y2069000D3*
X2789636D3*
X427804Y3719131D2*
D17*
X477887D1*
X625060D2*
X4966101D1*
X5113239D2*
X5153991D1*
X427877Y3694262D2*
X463605D1*
X639341D2*
X4951783D1*
X5127556D2*
X5153991D1*
X427912Y3669394D2*
X457936D1*
X645012D2*
X4946114D1*
X5133226D2*
X5153991D1*
X427948Y3644525D2*
X459227D1*
X643719D2*
X4947441D1*
X5131899D2*
X5153991D1*
X428020Y3619656D2*
X467875D1*
X635108D2*
X4956054D1*
X5123286D2*
X5153991D1*
X428055Y3594787D2*
X486786D1*
X616197D2*
X4974965D1*
X5104375D2*
X5153991D1*
X428092Y3569919D2*
X5153991D1*
X428163Y3545050D2*
X966630D1*
X1054665D2*
X1116625D1*
X1204661D2*
X1454115D1*
X1542152D2*
X1604112D1*
X1692148D2*
X1943684D1*
X2031791D2*
X2093680D1*
X2181787D2*
X2429089D1*
X2517161D2*
X2579085D1*
X2667193D2*
X2916576D1*
X3004684D2*
X3066572D1*
X3154680D2*
X3404098D1*
X3492171D2*
X3554094D1*
X3642167D2*
X3891585D1*
X3979693D2*
X4041581D1*
X4129689D2*
X4379072D1*
X4467180D2*
X4529104D1*
X4617176D2*
X5153991D1*
X428199Y3520181D2*
X947395D1*
X1073864D2*
X1097391D1*
X1223860D2*
X1434917D1*
X1561350D2*
X1584913D1*
X1711382D2*
X1924486D1*
X2050990D2*
X2074482D1*
X2200986D2*
X2409891D1*
X2536360D2*
X2559887D1*
X2686391D2*
X2897378D1*
X3023882D2*
X3047374D1*
X3173878D2*
X3384900D1*
X3511369D2*
X3534896D1*
X3661365D2*
X3872387D1*
X3998891D2*
X4022383D1*
X4148887D2*
X4359874D1*
X4486378D2*
X4509906D1*
X4636374D2*
X5153991D1*
X428235Y3495312D2*
X941690D1*
X1079605D2*
X1091686D1*
X1229601D2*
X1429176D1*
X1567092D2*
X1579203D1*
X1717088D2*
X1918781D1*
X2056696D2*
X2068776D1*
X2206692D2*
X2404186D1*
X2542101D2*
X2554181D1*
X2692097D2*
X2891672D1*
X3029588D2*
X3041668D1*
X3179583D2*
X3379196D1*
X3517073D2*
X3529190D1*
X3667106D2*
X3866681D1*
X4004597D2*
X4016677D1*
X4154593D2*
X4354168D1*
X4492083D2*
X4504164D1*
X4642079D2*
X5153991D1*
X428270Y3470444D2*
X945636D1*
X1075657D2*
X1095633D1*
X1225654D2*
X1433123D1*
X1563144D2*
X1583119D1*
X1713140D2*
X1922727D1*
X2052748D2*
X2072723D1*
X2202744D2*
X2408133D1*
X2538118D2*
X2558129D1*
X2688150D2*
X2895619D1*
X3025640D2*
X3045615D1*
X3175636D2*
X3383142D1*
X3513127D2*
X3533138D1*
X3663123D2*
X3870629D1*
X4000650D2*
X4020625D1*
X4150646D2*
X4358115D1*
X4488136D2*
X4508147D1*
X4638133D2*
X5153991D1*
X428343Y3445575D2*
X961642D1*
X1059617D2*
X1111638D1*
X1209613D2*
X1449129D1*
X1547140D2*
X1599160D1*
X1697135D2*
X1938768D1*
X2036707D2*
X2088764D1*
X2186703D2*
X2424173D1*
X2522113D2*
X2574169D1*
X2672109D2*
X2911660D1*
X3009600D2*
X3061656D1*
X3159596D2*
X3399182D1*
X3497087D2*
X3549178D1*
X3647118D2*
X3886669D1*
X3984609D2*
X4036665D1*
X4134605D2*
X4374156D1*
X4472096D2*
X4524152D1*
X4622092D2*
X5153991D1*
X428379Y3420706D2*
X5153991D1*
X428415Y3395837D2*
X5153991D1*
X428487Y3370969D2*
X5153991D1*
X428522Y3346100D2*
X5153991D1*
X428558Y3321231D2*
X5153991D1*
X428594Y3296362D2*
X5153991D1*
X428665Y3271493D2*
X5153991D1*
X428702Y3246625D2*
X5153991D1*
X428738Y3221756D2*
X5153991D1*
X428810Y3196887D2*
X5153991D1*
X428845Y3172018D2*
X5153991D1*
X428881Y3147150D2*
X5153991D1*
X428953Y3122281D2*
X5153991D1*
X428988Y3097412D2*
X5153991D1*
X429025Y3072543D2*
X5153991D1*
X429060Y3047675D2*
X5153991D1*
X429133Y3022806D2*
X5153991D1*
X429168Y2997937D2*
X3592598D1*
X3870390D2*
X5153991D1*
X429203Y2973068D2*
X3582694D1*
X3880329D2*
X5153991D1*
X429276Y2948199D2*
X3526070D1*
X3993185D2*
X5153991D1*
X429311Y2923331D2*
X3520041D1*
X3999214D2*
X5153991D1*
X429348Y2898462D2*
X3528509D1*
X3990745D2*
X5153991D1*
X429383Y2873593D2*
X5153991D1*
X429455Y2848724D2*
X5153991D1*
X429491Y2823856D2*
X5153991D1*
X429528Y2798987D2*
X5153991D1*
X429598Y2774118D2*
X5153991D1*
X429635Y2749249D2*
X3139238D1*
X3223757D2*
X3339291D1*
X3423776D2*
X3539274D1*
X3623757D2*
X5153991D1*
X429671Y2724381D2*
X3123412D1*
X3639583D2*
X5153991D1*
X429743Y2699512D2*
X3121045D1*
X3641987D2*
X5153991D1*
X429778Y2674643D2*
X3130087D1*
X3632944D2*
X5153991D1*
X429814Y2649774D2*
X3139811D1*
X3223182D2*
X3339866D1*
X3423201D2*
X3539849D1*
X3623184D2*
X5153991D1*
X429850Y2624906D2*
X3123592D1*
X3239403D2*
X3323610D1*
X3439421D2*
X3523629D1*
X3639403D2*
X5153991D1*
X429921Y2600037D2*
X3120972D1*
X3242022D2*
X3320991D1*
X3442041D2*
X3521009D1*
X3642059D2*
X5153991D1*
X429958Y2575168D2*
X3129728D1*
X3233266D2*
X3329747D1*
X3433285D2*
X3529730D1*
X3633303D2*
X5153991D1*
X429993Y2550299D2*
X3120613D1*
X3242381D2*
X3320633D1*
X3442399D2*
X3520651D1*
X3642417D2*
X5153991D1*
X430066Y2525430D2*
X3120613D1*
X3242381D2*
X3320633D1*
X3442399D2*
X3520651D1*
X3642417D2*
X5153991D1*
X430101Y2500562D2*
X3120613D1*
X3242381D2*
X3320633D1*
X3442399D2*
X3520651D1*
X3642417D2*
X5153991D1*
X430136Y2475693D2*
X3120613D1*
X3242381D2*
X3320633D1*
X3442399D2*
X3520651D1*
X3642417D2*
X5153991D1*
X430209Y2450824D2*
X3120613D1*
X3242381D2*
X3320633D1*
X3442399D2*
X3520651D1*
X3642417D2*
X5153991D1*
X430244Y2425955D2*
X519046D1*
X643971D2*
X4937214D1*
X5062104D2*
X5153991D1*
X430281Y2401087D2*
X519046D1*
X5062104D2*
X5153991D1*
X430316Y2376218D2*
X519046D1*
X5062104D2*
X5153991D1*
X430388Y2351349D2*
X519046D1*
X5062104D2*
X5153991D1*
X430424Y2326480D2*
X519046D1*
X643971D2*
X778955D1*
X821562D2*
X1366236D1*
X1408843D2*
X2716450D1*
X2759056D2*
X3266446D1*
X3309054D2*
X4937214D1*
X5062104D2*
X5153991D1*
X430459Y2301612D2*
X528698D1*
X5053348D2*
X5153991D1*
X430531Y2276743D2*
X519549D1*
X5061781D2*
X5153991D1*
X430567Y2251874D2*
X521558D1*
X5059197D2*
X5153991D1*
X430604Y2227005D2*
X536198D1*
X626782D2*
X702988D1*
X747891D2*
X2790982D1*
X2884508D2*
X4955766D1*
X5043551D2*
X5153991D1*
X430639Y2202136D2*
X529022D1*
X5053025D2*
X5153991D1*
X430711Y2177268D2*
X519619D1*
X5061709D2*
X5153991D1*
X430747Y2152399D2*
X521378D1*
X5059340D2*
X5153991D1*
X430783Y2127530D2*
X535696D1*
X627285D2*
X957982D1*
X1005001D2*
X2839533D1*
X2935966D2*
X4955228D1*
X5044089D2*
X5153991D1*
X430854Y2102661D2*
X529381D1*
X5052667D2*
X5153991D1*
X430891Y2077793D2*
X519692D1*
X5061673D2*
X5153991D1*
X430927Y2052924D2*
X521235D1*
X5059520D2*
X5153991D1*
X430999Y2028055D2*
X535194D1*
X627787D2*
X880184D1*
X929251D2*
X2691331D1*
X2814175D2*
X4954690D1*
X5044629D2*
X5153991D1*
X431034Y2003186D2*
X529739D1*
X5052343D2*
X5153991D1*
X431070Y1978318D2*
X519764D1*
X5061601D2*
X5153991D1*
X431106Y1953449D2*
X521092D1*
X5059664D2*
X5153991D1*
X431177Y1928580D2*
X534727D1*
X628290D2*
X1137294D1*
X1188226D2*
X4954188D1*
X5045130D2*
X5153991D1*
X431214Y1903711D2*
X530098D1*
X632883D2*
X4947333D1*
X5051984D2*
X5153991D1*
X431249Y1878843D2*
X519871D1*
X643146D2*
X4937789D1*
X5061529D2*
X5153991D1*
X431322Y1853974D2*
X520948D1*
X642033D2*
X4939475D1*
X5059843D2*
X5153991D1*
X431357Y1829105D2*
X534261D1*
X628756D2*
X4953685D1*
X5045633D2*
X5153991D1*
X431392Y1804236D2*
X5153991D1*
X431429Y1779367D2*
X5153991D1*
X431500Y1754499D2*
X5153991D1*
X431537Y1729630D2*
X5153991D1*
X431572Y1704761D2*
X5153991D1*
X431644Y1679892D2*
X5153991D1*
X431680Y1655024D2*
X5153991D1*
X431715Y1630155D2*
X5153991D1*
X431787Y1605286D2*
X5153991D1*
X431824Y1580417D2*
X5153991D1*
X431860Y1555549D2*
X5153991D1*
X431895Y1530680D2*
X5153991D1*
X431967Y1505811D2*
X5153991D1*
X432003Y1480942D2*
X5153991D1*
X432039Y1456073D2*
X5153991D1*
X432110Y1431205D2*
X5153991D1*
X432147Y1406336D2*
X5153991D1*
X432182Y1381467D2*
X5153991D1*
X432218Y1356598D2*
X5153991D1*
X432290Y1331730D2*
X5153991D1*
X432325Y1306861D2*
X5153991D1*
X432362Y1281992D2*
X5153991D1*
X432433Y1257123D2*
X5153991D1*
X432470Y1232255D2*
X5153991D1*
X432505Y1207386D2*
X5153991D1*
X432577Y1182517D2*
X5153991D1*
X432613Y1157648D2*
X5153991D1*
X432648Y1132780D2*
X5153991D1*
X432685Y1107911D2*
X5153991D1*
X432756Y1083042D2*
X5153991D1*
X432793Y1058173D2*
X5153991D1*
X432828Y1033304D2*
X5153991D1*
X432900Y1008436D2*
X5153991D1*
X432936Y983567D2*
X5153991D1*
X432972Y958698D2*
X5153991D1*
X433043Y933829D2*
X5153991D1*
X433080Y908961D2*
X5153991D1*
X433115Y884092D2*
X5153991D1*
X433151Y859223D2*
X5153991D1*
X433223Y834354D2*
X5153991D1*
X433259Y809486D2*
X5153991D1*
X433295Y784617D2*
X5153991D1*
X433366Y759748D2*
X5153991D1*
X433403Y734879D2*
X968495D1*
X1052727D2*
X1118491D1*
X1202723D2*
X1456018D1*
X1540251D2*
X1606013D1*
X1690245D2*
X1945622D1*
X2029854D2*
X2095618D1*
X2179850D2*
X2431028D1*
X2515260D2*
X2581024D1*
X2665256D2*
X2918478D1*
X3002745D2*
X3068509D1*
X3152741D2*
X3406000D1*
X3490269D2*
X3555996D1*
X3640265D2*
X3893487D1*
X3977719D2*
X4043483D1*
X4127751D2*
X4381009D1*
X4465241D2*
X4531005D1*
X4615238D2*
X5153991D1*
X433438Y710010D2*
X948041D1*
X1073181D2*
X1098037D1*
X1223177D2*
X1435564D1*
X1560705D2*
X1585560D1*
X1710699D2*
X1925168D1*
X2050308D2*
X2075164D1*
X2200304D2*
X2410573D1*
X2535677D2*
X2560570D1*
X2685709D2*
X2898060D1*
X3023164D2*
X3048055D1*
X3173160D2*
X3385583D1*
X3510686D2*
X3535579D1*
X3660682D2*
X3873070D1*
X3998173D2*
X4023064D1*
X4148169D2*
X4360592D1*
X4485696D2*
X4510588D1*
X4635692D2*
X5153991D1*
X433474Y685142D2*
X941726D1*
X1079497D2*
X1091722D1*
X1229493D2*
X1429248D1*
X1567020D2*
X1579270D1*
X1717016D2*
X1918852D1*
X2056623D2*
X2068848D1*
X2206619D2*
X2404257D1*
X2542029D2*
X2554253D1*
X2692025D2*
X2891709D1*
X3029516D2*
X3041740D1*
X3179512D2*
X3379231D1*
X3517038D2*
X3529227D1*
X3667034D2*
X3866718D1*
X4004490D2*
X4016714D1*
X4154521D2*
X4354240D1*
X4492012D2*
X4504236D1*
X4642008D2*
X5153991D1*
X433546Y660273D2*
X945098D1*
X1076125D2*
X1095094D1*
X1226119D2*
X1432621D1*
X1563647D2*
X1582617D1*
X1713643D2*
X1922226D1*
X2053251D2*
X2072220D1*
X2203247D2*
X2407631D1*
X2538656D2*
X2557626D1*
X2688652D2*
X2895081D1*
X3026143D2*
X3045077D1*
X3176138D2*
X3382604D1*
X3513665D2*
X3532600D1*
X3663661D2*
X3870091D1*
X4001115D2*
X4020087D1*
X4151148D2*
X4357613D1*
X4488638D2*
X4507609D1*
X4638671D2*
X5153991D1*
X433581Y635404D2*
X960171D1*
X1061052D2*
X1110167D1*
X1211049D2*
X1447693D1*
X1548575D2*
X1597689D1*
X1698571D2*
X1937297D1*
X2038178D2*
X2087293D1*
X2188175D2*
X2422702D1*
X2523584D2*
X2572698D1*
X2673580D2*
X2910189D1*
X3011071D2*
X3060185D1*
X3161067D2*
X3397711D1*
X3498558D2*
X3547707D1*
X3648589D2*
X3885161D1*
X3986045D2*
X4035157D1*
X4136041D2*
X4372685D1*
X4473567D2*
X4522680D1*
X4623563D2*
X5153991D1*
X433618Y610535D2*
X5153991D1*
X433689Y585667D2*
X494789D1*
X608194D2*
X4982967D1*
X5096373D2*
X5153991D1*
X433726Y560798D2*
X471678D1*
X631303D2*
X4959857D1*
X5119483D2*
X5153991D1*
X433761Y535929D2*
X460770D1*
X642177D2*
X4948949D1*
X5130391D2*
X5153991D1*
X433833Y511060D2*
X457612D1*
X645335D2*
X4945791D1*
X5133549D2*
X5153991D1*
X433869Y486192D2*
X461381D1*
X641602D2*
X4949559D1*
X5129781D2*
X5153991D1*
X433904Y461323D2*
X473007D1*
X629940D2*
X4961220D1*
X5118119D2*
X5153991D1*
X433941Y436454D2*
X497731D1*
X605217D2*
X4985945D1*
X5093395D2*
X5153991D1*
X1564601Y3491277D2*
X1563992Y3483957D1*
X1562580Y3476748D1*
X1560382Y3469740D1*
X1557424Y3463017D1*
X1553743Y3456660D1*
X1549382Y3450749D1*
X1544396Y3445354D1*
X1538846Y3440543D1*
X1532799Y3436374D1*
X1526329Y3432896D1*
X1519516Y3430154D1*
X1512441Y3428180D1*
X1505190Y3426997D1*
X1497856Y3426622D1*
X1490522Y3427059D1*
X1483283Y3428302D1*
X1476224Y3430335D1*
X1469434Y3433135D1*
X1462993Y3436667D1*
X1456982Y3440887D1*
X1451472Y3445744D1*
X1446531Y3451181D1*
X1442222Y3457129D1*
X1438593Y3463514D1*
X1435692Y3470262D1*
X1433552Y3477290D1*
X1432201Y3484509D1*
X1431654Y3491835D1*
X1431919Y3499176D1*
X1432991Y3506442D1*
X1434858Y3513546D1*
X1437499Y3520400D1*
X1440878Y3526923D1*
X1444957Y3533031D1*
X1449684Y3538654D1*
X1455003Y3543719D1*
X1460848Y3548168D1*
X1467147Y3551945D1*
X1473825Y3555004D1*
X1480801Y3557307D1*
X1487987Y3558828D1*
X1495297Y3559546D1*
X1502642Y3559453D1*
X1509932Y3558551D1*
X1517077Y3556850D1*
X1523992Y3554373D1*
X1530591Y3551147D1*
X1536794Y3547213D1*
X1542525Y3542618D1*
X1547714Y3537420D1*
X1552299Y3531681D1*
X1556222Y3525471D1*
X1559437Y3518866D1*
X1561903Y3511948D1*
X1563592Y3504799D1*
X1564480Y3497508D1*
X1564601Y3491277D1*
X1714421Y3487898D2*
X1712789Y3477592D1*
X1709564Y3467669D1*
X1704828Y3458373D1*
X1698694Y3449930D1*
X1691318Y3442554D1*
X1682875Y3436420D1*
X1673579Y3431684D1*
X1663656Y3428459D1*
X1653350Y3426827D1*
X1642917D1*
X1632612Y3428459D1*
X1622689Y3431684D1*
X1613392Y3436420D1*
X1604950Y3442554D1*
X1597573Y3449930D1*
X1591440Y3458373D1*
X1586703Y3467669D1*
X1583479Y3477592D1*
X1581846Y3487898D1*
Y3498331D1*
X1583479Y3508636D1*
X1586703Y3518559D1*
X1591440Y3527856D1*
X1597573Y3536298D1*
X1604950Y3543675D1*
X1613392Y3549808D1*
X1622689Y3554545D1*
X1632612Y3557769D1*
X1642917Y3559402D1*
X1653350D1*
X1663656Y3557769D1*
X1673579Y3554545D1*
X1682875Y3549808D1*
X1691318Y3543675D1*
X1698694Y3536298D1*
X1704828Y3527856D1*
X1709564Y3518559D1*
X1712789Y3508636D1*
X1714421Y3498331D1*
Y3487898D1*
X2054207Y3491297D2*
X2053598Y3483976D1*
X2052186Y3476768D1*
X2049988Y3469760D1*
X2047030Y3463037D1*
X2043349Y3456680D1*
X2038988Y3450769D1*
X2034003Y3445374D1*
X2028453Y3440563D1*
X2022406Y3436394D1*
X2015936Y3432916D1*
X2009122Y3430173D1*
X2002047Y3428199D1*
X1994797Y3427017D1*
X1987462Y3426642D1*
X1980129Y3427079D1*
X1972890Y3428322D1*
X1965831Y3430354D1*
X1959041Y3433155D1*
X1952600Y3436686D1*
X1946588Y3440907D1*
X1941079Y3445764D1*
X1936138Y3451201D1*
X1931828Y3457148D1*
X1928199Y3463534D1*
X1925298Y3470282D1*
X1923159Y3477310D1*
X1921807Y3484529D1*
X1921260Y3491854D1*
X1921525Y3499196D1*
X1922597Y3506462D1*
X1924465Y3513566D1*
X1927105Y3520420D1*
X1930484Y3526942D1*
X1934563Y3533051D1*
X1939290Y3538673D1*
X1944609Y3543739D1*
X1950454Y3548188D1*
X1956753Y3551965D1*
X1963432Y3555024D1*
X1970407Y3557327D1*
X1977593Y3558848D1*
X1984903Y3559566D1*
X1992248Y3559472D1*
X1999538Y3558571D1*
X2006684Y3556870D1*
X2013598Y3554392D1*
X2020197Y3551167D1*
X2026400Y3547232D1*
X2032131Y3542638D1*
X2037320Y3537440D1*
X2041906Y3531701D1*
X2045828Y3525491D1*
X2049043Y3518886D1*
X2051509Y3511967D1*
X2053198Y3504819D1*
X2054087Y3497528D1*
X2054207Y3491297D1*
X2204028Y3487917D2*
X2202395Y3477612D1*
X2199171Y3467689D1*
X2194434Y3458392D1*
X2188301Y3449950D1*
X2180924Y3442573D1*
X2172482Y3436440D1*
X2163185Y3431703D1*
X2153262Y3428479D1*
X2142957Y3426846D1*
X2132524D1*
X2122218Y3428479D1*
X2112295Y3431703D1*
X2102999Y3436440D1*
X2094556Y3442573D1*
X2087180Y3449950D1*
X2081046Y3458392D1*
X2076310Y3467689D1*
X2073085Y3477612D1*
X2071453Y3487917D1*
Y3498350D1*
X2073085Y3508656D1*
X2076310Y3518579D1*
X2081046Y3527875D1*
X2087180Y3536318D1*
X2094556Y3543694D1*
X2102999Y3549828D1*
X2112295Y3554564D1*
X2122218Y3557789D1*
X2132524Y3559421D1*
X2142957D1*
X2153262Y3557789D1*
X2163185Y3554564D1*
X2172482Y3549828D1*
X2180924Y3543694D1*
X2188301Y3536318D1*
X2194434Y3527875D1*
X2199171Y3518579D1*
X2202395Y3508656D1*
X2204028Y3498350D1*
Y3487917D1*
X2539601Y3491297D2*
X2538992Y3483976D1*
X2537580Y3476768D1*
X2535382Y3469760D1*
X2532424Y3463037D1*
X2528743Y3456680D1*
X2524382Y3450769D1*
X2519396Y3445374D1*
X2513846Y3440563D1*
X2507799Y3436394D1*
X2501329Y3432916D1*
X2494516Y3430173D1*
X2487441Y3428199D1*
X2480190Y3427017D1*
X2472856Y3426642D1*
X2465522Y3427079D1*
X2458283Y3428322D1*
X2451224Y3430354D1*
X2444434Y3433155D1*
X2437993Y3436686D1*
X2431982Y3440907D1*
X2426472Y3445764D1*
X2421531Y3451201D1*
X2417222Y3457148D1*
X2413593Y3463534D1*
X2410692Y3470282D1*
X2408552Y3477310D1*
X2407201Y3484529D1*
X2406654Y3491854D1*
X2406919Y3499196D1*
X2407991Y3506462D1*
X2409858Y3513566D1*
X2412499Y3520420D1*
X2415878Y3526942D1*
X2419957Y3533051D1*
X2424684Y3538673D1*
X2430003Y3543739D1*
X2435848Y3548188D1*
X2442147Y3551965D1*
X2448825Y3555024D1*
X2455801Y3557327D1*
X2462987Y3558848D1*
X2470297Y3559566D1*
X2477642Y3559472D1*
X2484932Y3558571D1*
X2492077Y3556870D1*
X2498992Y3554392D1*
X2505591Y3551167D1*
X2511794Y3547232D1*
X2517525Y3542638D1*
X2522714Y3537440D1*
X2527299Y3531701D1*
X2531222Y3525491D1*
X2534437Y3518886D1*
X2536903Y3511967D1*
X2538592Y3504819D1*
X2539480Y3497528D1*
X2539601Y3491297D1*
X2689421Y3487917D2*
X2687789Y3477612D1*
X2684564Y3467689D1*
X2679828Y3458392D1*
X2673694Y3449950D1*
X2666318Y3442573D1*
X2657875Y3436440D1*
X2648579Y3431703D1*
X2638656Y3428479D1*
X2628350Y3426846D1*
X2617917D1*
X2607612Y3428479D1*
X2597689Y3431703D1*
X2588392Y3436440D1*
X2579950Y3442573D1*
X2572573Y3449950D1*
X2566440Y3458392D1*
X2561703Y3467689D1*
X2558479Y3477612D1*
X2556846Y3487917D1*
Y3498350D1*
X2558479Y3508656D1*
X2561703Y3518579D1*
X2566440Y3527875D1*
X2572573Y3536318D1*
X2579950Y3543694D1*
X2588392Y3549828D1*
X2597689Y3554564D1*
X2607612Y3557789D1*
X2617917Y3559421D1*
X2628350D1*
X2638656Y3557789D1*
X2648579Y3554564D1*
X2657875Y3549828D1*
X2666318Y3543694D1*
X2673694Y3536318D1*
X2679828Y3527875D1*
X2684564Y3518579D1*
X2687789Y3508656D1*
X2689421Y3498350D1*
Y3487917D1*
X3027101Y3491297D2*
X3026492Y3483976D1*
X3025080Y3476768D1*
X3022882Y3469760D1*
X3019924Y3463037D1*
X3016243Y3456680D1*
X3011882Y3450769D1*
X3006896Y3445374D1*
X3001346Y3440563D1*
X2995299Y3436394D1*
X2988829Y3432916D1*
X2982016Y3430173D1*
X2974941Y3428199D1*
X2967690Y3427017D1*
X2960356Y3426642D1*
X2953022Y3427079D1*
X2945783Y3428322D1*
X2938724Y3430354D1*
X2931934Y3433155D1*
X2925493Y3436686D1*
X2919482Y3440907D1*
X2913972Y3445764D1*
X2909031Y3451201D1*
X2904722Y3457148D1*
X2901093Y3463534D1*
X2898192Y3470282D1*
X2896052Y3477310D1*
X2894701Y3484529D1*
X2894154Y3491854D1*
X2894419Y3499196D1*
X2895491Y3506462D1*
X2897358Y3513566D1*
X2899999Y3520420D1*
X2903378Y3526942D1*
X2907457Y3533051D1*
X2912184Y3538673D1*
X2917503Y3543739D1*
X2923348Y3548188D1*
X2929647Y3551965D1*
X2936325Y3555024D1*
X2943301Y3557327D1*
X2950487Y3558848D1*
X2957797Y3559566D1*
X2965142Y3559472D1*
X2972432Y3558571D1*
X2979577Y3556870D1*
X2986492Y3554392D1*
X2993091Y3551167D1*
X2999294Y3547232D1*
X3005025Y3542638D1*
X3010214Y3537440D1*
X3014799Y3531701D1*
X3018722Y3525491D1*
X3021937Y3518886D1*
X3024403Y3511967D1*
X3026092Y3504819D1*
X3026980Y3497528D1*
X3027101Y3491297D1*
X3176921Y3487917D2*
X3175289Y3477612D1*
X3172064Y3467689D1*
X3167328Y3458392D1*
X3161194Y3449950D1*
X3153818Y3442573D1*
X3145375Y3436440D1*
X3136079Y3431703D1*
X3126156Y3428479D1*
X3115850Y3426846D1*
X3105417D1*
X3095112Y3428479D1*
X3085189Y3431703D1*
X3075892Y3436440D1*
X3067450Y3442573D1*
X3060073Y3449950D1*
X3053940Y3458392D1*
X3049203Y3467689D1*
X3045979Y3477612D1*
X3044346Y3487917D1*
Y3498350D1*
X3045979Y3508656D1*
X3049203Y3518579D1*
X3053940Y3527875D1*
X3060073Y3536318D1*
X3067450Y3543694D1*
X3075892Y3549828D1*
X3085189Y3554564D1*
X3095112Y3557789D1*
X3105417Y3559421D1*
X3115850D1*
X3126156Y3557789D1*
X3136079Y3554564D1*
X3145375Y3549828D1*
X3153818Y3543694D1*
X3161194Y3536318D1*
X3167328Y3527875D1*
X3172064Y3518579D1*
X3175289Y3508656D1*
X3176921Y3498350D1*
Y3487917D1*
X3514601Y3491297D2*
X3513992Y3483976D1*
X3512580Y3476768D1*
X3510382Y3469760D1*
X3507424Y3463037D1*
X3503743Y3456680D1*
X3499382Y3450769D1*
X3494396Y3445374D1*
X3488846Y3440563D1*
X3482799Y3436394D1*
X3476329Y3432916D1*
X3469516Y3430173D1*
X3462441Y3428199D1*
X3455190Y3427017D1*
X3447856Y3426642D1*
X3440522Y3427079D1*
X3433283Y3428322D1*
X3426224Y3430354D1*
X3419434Y3433155D1*
X3412993Y3436686D1*
X3406982Y3440907D1*
X3401472Y3445764D1*
X3396531Y3451201D1*
X3392222Y3457148D1*
X3388593Y3463534D1*
X3385692Y3470282D1*
X3383552Y3477310D1*
X3382201Y3484529D1*
X3381654Y3491854D1*
X3381919Y3499196D1*
X3382991Y3506462D1*
X3384858Y3513566D1*
X3387499Y3520420D1*
X3390878Y3526942D1*
X3394957Y3533051D1*
X3399684Y3538673D1*
X3405003Y3543739D1*
X3410848Y3548188D1*
X3417147Y3551965D1*
X3423825Y3555024D1*
X3430801Y3557327D1*
X3437987Y3558848D1*
X3445297Y3559566D1*
X3452642Y3559472D1*
X3459932Y3558571D1*
X3467077Y3556870D1*
X3473992Y3554392D1*
X3480591Y3551167D1*
X3486794Y3547232D1*
X3492525Y3542638D1*
X3497714Y3537440D1*
X3502299Y3531701D1*
X3506222Y3525491D1*
X3509437Y3518886D1*
X3511903Y3511967D1*
X3513592Y3504819D1*
X3514480Y3497528D1*
X3514601Y3491297D1*
X3664421Y3487917D2*
X3662789Y3477612D1*
X3659564Y3467689D1*
X3654828Y3458392D1*
X3648694Y3449950D1*
X3641318Y3442573D1*
X3632875Y3436440D1*
X3623579Y3431703D1*
X3613656Y3428479D1*
X3603350Y3426846D1*
X3592917D1*
X3582612Y3428479D1*
X3572689Y3431703D1*
X3563392Y3436440D1*
X3554950Y3442573D1*
X3547573Y3449950D1*
X3541440Y3458392D1*
X3536703Y3467689D1*
X3533479Y3477612D1*
X3531846Y3487917D1*
Y3498350D1*
X3533479Y3508656D1*
X3536703Y3518579D1*
X3541440Y3527875D1*
X3547573Y3536318D1*
X3554950Y3543694D1*
X3563392Y3549828D1*
X3572689Y3554564D1*
X3582612Y3557789D1*
X3592917Y3559421D1*
X3603350D1*
X3613656Y3557789D1*
X3623579Y3554564D1*
X3632875Y3549828D1*
X3641318Y3543694D1*
X3648694Y3536318D1*
X3654828Y3527875D1*
X3659564Y3518579D1*
X3662789Y3508656D1*
X3664421Y3498350D1*
Y3487917D1*
X4002101Y3491297D2*
X4001492Y3483976D1*
X4000080Y3476768D1*
X3997882Y3469760D1*
X3994924Y3463037D1*
X3991243Y3456680D1*
X3986882Y3450769D1*
X3981896Y3445374D1*
X3976346Y3440563D1*
X3970299Y3436394D1*
X3963829Y3432916D1*
X3957016Y3430173D1*
X3949941Y3428199D1*
X3942690Y3427017D1*
X3935356Y3426642D1*
X3928022Y3427079D1*
X3920783Y3428322D1*
X3913724Y3430354D1*
X3906934Y3433155D1*
X3900493Y3436686D1*
X3894482Y3440907D1*
X3888972Y3445764D1*
X3884031Y3451201D1*
X3879722Y3457148D1*
X3876093Y3463534D1*
X3873192Y3470282D1*
X3871052Y3477310D1*
X3869701Y3484529D1*
X3869154Y3491854D1*
X3869419Y3499196D1*
X3870491Y3506462D1*
X3872358Y3513566D1*
X3874999Y3520420D1*
X3878378Y3526942D1*
X3882457Y3533051D1*
X3887184Y3538673D1*
X3892503Y3543739D1*
X3898348Y3548188D1*
X3904647Y3551965D1*
X3911325Y3555024D1*
X3918301Y3557327D1*
X3925487Y3558848D1*
X3932797Y3559566D1*
X3940142Y3559472D1*
X3947432Y3558571D1*
X3954577Y3556870D1*
X3961492Y3554392D1*
X3968091Y3551167D1*
X3974294Y3547232D1*
X3980025Y3542638D1*
X3985214Y3537440D1*
X3989799Y3531701D1*
X3993722Y3525491D1*
X3996937Y3518886D1*
X3999403Y3511967D1*
X4001092Y3504819D1*
X4001980Y3497528D1*
X4002101Y3491297D1*
X4151921Y3487917D2*
X4150289Y3477612D1*
X4147064Y3467689D1*
X4142328Y3458392D1*
X4136194Y3449950D1*
X4128818Y3442573D1*
X4120375Y3436440D1*
X4111079Y3431703D1*
X4101156Y3428479D1*
X4090850Y3426846D1*
X4080417D1*
X4070112Y3428479D1*
X4060189Y3431703D1*
X4050892Y3436440D1*
X4042450Y3442573D1*
X4035073Y3449950D1*
X4028940Y3458392D1*
X4024203Y3467689D1*
X4020979Y3477612D1*
X4019346Y3487917D1*
Y3498350D1*
X4020979Y3508656D1*
X4024203Y3518579D1*
X4028940Y3527875D1*
X4035073Y3536318D1*
X4042450Y3543694D1*
X4050892Y3549828D1*
X4060189Y3554564D1*
X4070112Y3557789D1*
X4080417Y3559421D1*
X4090850D1*
X4101156Y3557789D1*
X4111079Y3554564D1*
X4120375Y3549828D1*
X4128818Y3543694D1*
X4136194Y3536318D1*
X4142328Y3527875D1*
X4147064Y3518579D1*
X4150289Y3508656D1*
X4151921Y3498350D1*
Y3487917D1*
X4489601Y3491297D2*
X4488992Y3483976D1*
X4487580Y3476768D1*
X4485382Y3469760D1*
X4482424Y3463037D1*
X4478743Y3456680D1*
X4474382Y3450769D1*
X4469396Y3445374D1*
X4463846Y3440563D1*
X4457799Y3436394D1*
X4451329Y3432916D1*
X4444516Y3430173D1*
X4437441Y3428199D1*
X4430190Y3427017D1*
X4422856Y3426642D1*
X4415522Y3427079D1*
X4408283Y3428322D1*
X4401224Y3430354D1*
X4394434Y3433155D1*
X4387993Y3436686D1*
X4381982Y3440907D1*
X4376472Y3445764D1*
X4371531Y3451201D1*
X4367222Y3457148D1*
X4363593Y3463534D1*
X4360692Y3470282D1*
X4358552Y3477310D1*
X4357201Y3484529D1*
X4356654Y3491854D1*
X4356919Y3499196D1*
X4357991Y3506462D1*
X4359858Y3513566D1*
X4362499Y3520420D1*
X4365878Y3526942D1*
X4369957Y3533051D1*
X4374684Y3538673D1*
X4380003Y3543739D1*
X4385848Y3548188D1*
X4392147Y3551965D1*
X4398825Y3555024D1*
X4405801Y3557327D1*
X4412987Y3558848D1*
X4420297Y3559566D1*
X4427642Y3559472D1*
X4434932Y3558571D1*
X4442077Y3556870D1*
X4448992Y3554392D1*
X4455591Y3551167D1*
X4461794Y3547232D1*
X4467525Y3542638D1*
X4472714Y3537440D1*
X4477299Y3531701D1*
X4481222Y3525491D1*
X4484437Y3518886D1*
X4486903Y3511967D1*
X4488592Y3504819D1*
X4489480Y3497528D1*
X4489601Y3491297D1*
X4639421Y3487917D2*
X4637789Y3477612D1*
X4634564Y3467689D1*
X4629828Y3458392D1*
X4623694Y3449950D1*
X4616318Y3442573D1*
X4607875Y3436440D1*
X4598579Y3431703D1*
X4588656Y3428479D1*
X4578350Y3426846D1*
X4567917D1*
X4557612Y3428479D1*
X4547689Y3431703D1*
X4538392Y3436440D1*
X4529950Y3442573D1*
X4522573Y3449950D1*
X4516440Y3458392D1*
X4511703Y3467689D1*
X4508479Y3477612D1*
X4506846Y3487917D1*
Y3498350D1*
X4508479Y3508656D1*
X4511703Y3518579D1*
X4516440Y3527875D1*
X4522573Y3536318D1*
X4529950Y3543694D1*
X4538392Y3549828D1*
X4547689Y3554564D1*
X4557612Y3557789D1*
X4567917Y3559421D1*
X4578350D1*
X4588656Y3557789D1*
X4598579Y3554564D1*
X4607875Y3549828D1*
X4616318Y3543694D1*
X4623694Y3536318D1*
X4629828Y3527875D1*
X4634564Y3518579D1*
X4637789Y3508656D1*
X4639421Y3498350D1*
Y3487917D1*
X1227081Y679643D2*
X1226472Y672323D1*
X1225060Y665114D1*
X1222862Y658106D1*
X1219904Y651383D1*
X1216223Y645026D1*
X1211862Y639115D1*
X1206877Y633720D1*
X1201327Y628909D1*
X1195280Y624740D1*
X1188810Y621262D1*
X1181996Y618520D1*
X1174921Y616546D1*
X1167671Y615364D1*
X1160336Y614988D1*
X1153003Y615425D1*
X1145764Y616668D1*
X1138705Y618701D1*
X1131915Y621501D1*
X1125474Y625033D1*
X1119462Y629253D1*
X1113953Y634110D1*
X1109012Y639547D1*
X1104702Y645495D1*
X1101073Y651881D1*
X1098172Y658629D1*
X1096033Y665656D1*
X1094681Y672875D1*
X1094134Y680201D1*
X1094399Y687542D1*
X1095471Y694808D1*
X1097339Y701912D1*
X1099979Y708766D1*
X1103358Y715289D1*
X1107437Y721398D1*
X1112164Y727020D1*
X1117483Y732085D1*
X1123328Y736534D1*
X1129627Y740311D1*
X1136306Y743370D1*
X1143281Y745673D1*
X1150467Y747194D1*
X1157777Y747912D1*
X1165122Y747819D1*
X1172412Y746917D1*
X1179558Y745217D1*
X1186472Y742739D1*
X1193071Y739513D1*
X1199274Y735579D1*
X1205005Y730984D1*
X1210194Y725786D1*
X1214780Y720047D1*
X1218702Y713837D1*
X1221917Y707232D1*
X1224383Y700314D1*
X1226072Y693165D1*
X1226961Y685874D1*
X1227081Y679643D1*
X1076902Y676264D2*
X1075269Y665958D1*
X1072045Y656035D1*
X1067308Y646739D1*
X1061175Y638297D1*
X1053798Y630920D1*
X1045356Y624786D1*
X1036059Y620050D1*
X1026136Y616825D1*
X1015831Y615193D1*
X1005398D1*
X995092Y616825D1*
X985169Y620050D1*
X975873Y624786D1*
X967430Y630920D1*
X960054Y638297D1*
X953920Y646739D1*
X949184Y656035D1*
X945959Y665958D1*
X944327Y676264D1*
Y686697D1*
X945959Y697003D1*
X949184Y706925D1*
X953920Y716222D1*
X960054Y724664D1*
X967430Y732041D1*
X975873Y738175D1*
X985169Y742911D1*
X995092Y746135D1*
X1005398Y747768D1*
X1015831D1*
X1026136Y746135D1*
X1036059Y742911D1*
X1045356Y738175D1*
X1053798Y732041D1*
X1061175Y724664D1*
X1067308Y716222D1*
X1072045Y706925D1*
X1075269Y697003D1*
X1076902Y686697D1*
Y676264D1*
X1714601Y679643D2*
X1713992Y672323D1*
X1712580Y665114D1*
X1710382Y658106D1*
X1707424Y651383D1*
X1703743Y645026D1*
X1699382Y639115D1*
X1694396Y633720D1*
X1688846Y628909D1*
X1682799Y624740D1*
X1676329Y621262D1*
X1669516Y618520D1*
X1662441Y616546D1*
X1655190Y615364D1*
X1647856Y614988D1*
X1640522Y615425D1*
X1633283Y616668D1*
X1626224Y618701D1*
X1619434Y621501D1*
X1612993Y625033D1*
X1606982Y629253D1*
X1601472Y634110D1*
X1596531Y639547D1*
X1592222Y645495D1*
X1588593Y651881D1*
X1585692Y658629D1*
X1583552Y665656D1*
X1582201Y672875D1*
X1581654Y680201D1*
X1581919Y687542D1*
X1582991Y694808D1*
X1584858Y701912D1*
X1587499Y708766D1*
X1590878Y715289D1*
X1594957Y721398D1*
X1599684Y727020D1*
X1605003Y732085D1*
X1610848Y736534D1*
X1617147Y740311D1*
X1623825Y743370D1*
X1630801Y745673D1*
X1637987Y747194D1*
X1645297Y747912D1*
X1652642Y747819D1*
X1659932Y746917D1*
X1667077Y745217D1*
X1673992Y742739D1*
X1680591Y739513D1*
X1686794Y735579D1*
X1692525Y730984D1*
X1697714Y725786D1*
X1702299Y720047D1*
X1706222Y713837D1*
X1709437Y707232D1*
X1711903Y700314D1*
X1713592Y693165D1*
X1714480Y685874D1*
X1714601Y679643D1*
X1564421Y676264D2*
X1562789Y665958D1*
X1559564Y656035D1*
X1554828Y646739D1*
X1548694Y638297D1*
X1541318Y630920D1*
X1532875Y624786D1*
X1523579Y620050D1*
X1513656Y616825D1*
X1503350Y615193D1*
X1492917D1*
X1482612Y616825D1*
X1472689Y620050D1*
X1463392Y624786D1*
X1454950Y630920D1*
X1447573Y638297D1*
X1441440Y646739D1*
X1436703Y656035D1*
X1433479Y665958D1*
X1431846Y676264D1*
Y686697D1*
X1433479Y697003D1*
X1436703Y706925D1*
X1441440Y716222D1*
X1447573Y724664D1*
X1454950Y732041D1*
X1463392Y738175D1*
X1472689Y742911D1*
X1482612Y746135D1*
X1492917Y747768D1*
X1503350D1*
X1513656Y746135D1*
X1523579Y742911D1*
X1532875Y738175D1*
X1541318Y732041D1*
X1548694Y724664D1*
X1554828Y716222D1*
X1559564Y706925D1*
X1562789Y697003D1*
X1564421Y686697D1*
Y676264D1*
X2204207Y679643D2*
X2203598Y672323D1*
X2202186Y665114D1*
X2199988Y658106D1*
X2197030Y651383D1*
X2193349Y645026D1*
X2188988Y639115D1*
X2184003Y633720D1*
X2178453Y628909D1*
X2172406Y624740D1*
X2165936Y621262D1*
X2159122Y618520D1*
X2152047Y616546D1*
X2144797Y615364D1*
X2137462Y614988D1*
X2130129Y615425D1*
X2122890Y616668D1*
X2115831Y618701D1*
X2109041Y621501D1*
X2102600Y625033D1*
X2096588Y629253D1*
X2091079Y634110D1*
X2086138Y639547D1*
X2081828Y645495D1*
X2078199Y651881D1*
X2075298Y658629D1*
X2073159Y665656D1*
X2071807Y672875D1*
X2071260Y680201D1*
X2071525Y687542D1*
X2072597Y694808D1*
X2074465Y701912D1*
X2077105Y708766D1*
X2080484Y715289D1*
X2084563Y721398D1*
X2089290Y727020D1*
X2094609Y732085D1*
X2100454Y736534D1*
X2106753Y740311D1*
X2113432Y743370D1*
X2120407Y745673D1*
X2127593Y747194D1*
X2134903Y747912D1*
X2142248Y747819D1*
X2149538Y746917D1*
X2156684Y745217D1*
X2163598Y742739D1*
X2170197Y739513D1*
X2176400Y735579D1*
X2182131Y730984D1*
X2187320Y725786D1*
X2191906Y720047D1*
X2195828Y713837D1*
X2199043Y707232D1*
X2201509Y700314D1*
X2203198Y693165D1*
X2204087Y685874D1*
X2204207Y679643D1*
X2054028Y676264D2*
X2052395Y665958D1*
X2049171Y656035D1*
X2044434Y646739D1*
X2038301Y638297D1*
X2030924Y630920D1*
X2022482Y624786D1*
X2013185Y620050D1*
X2003262Y616825D1*
X1992957Y615193D1*
X1982524D1*
X1972218Y616825D1*
X1962295Y620050D1*
X1952999Y624786D1*
X1944556Y630920D1*
X1937180Y638297D1*
X1931046Y646739D1*
X1926310Y656035D1*
X1923085Y665958D1*
X1921453Y676264D1*
Y686697D1*
X1923085Y697003D1*
X1926310Y706925D1*
X1931046Y716222D1*
X1937180Y724664D1*
X1944556Y732041D1*
X1952999Y738175D1*
X1962295Y742911D1*
X1972218Y746135D1*
X1982524Y747768D1*
X1992957D1*
X2003262Y746135D1*
X2013185Y742911D1*
X2022482Y738175D1*
X2030924Y732041D1*
X2038301Y724664D1*
X2044434Y716222D1*
X2049171Y706925D1*
X2052395Y697003D1*
X2054028Y686697D1*
Y676264D1*
X2689601Y679643D2*
X2688992Y672323D1*
X2687580Y665114D1*
X2685382Y658106D1*
X2682424Y651383D1*
X2678743Y645026D1*
X2674382Y639115D1*
X2669396Y633720D1*
X2663846Y628909D1*
X2657799Y624740D1*
X2651329Y621262D1*
X2644516Y618520D1*
X2637441Y616546D1*
X2630190Y615364D1*
X2622856Y614988D1*
X2615522Y615425D1*
X2608283Y616668D1*
X2601224Y618701D1*
X2594434Y621501D1*
X2587993Y625033D1*
X2581982Y629253D1*
X2576472Y634110D1*
X2571531Y639547D1*
X2567222Y645495D1*
X2563593Y651881D1*
X2560692Y658629D1*
X2558552Y665656D1*
X2557201Y672875D1*
X2556654Y680201D1*
X2556919Y687542D1*
X2557991Y694808D1*
X2559858Y701912D1*
X2562499Y708766D1*
X2565878Y715289D1*
X2569957Y721398D1*
X2574684Y727020D1*
X2580003Y732085D1*
X2585848Y736534D1*
X2592147Y740311D1*
X2598825Y743370D1*
X2605801Y745673D1*
X2612987Y747194D1*
X2620297Y747912D1*
X2627642Y747819D1*
X2634932Y746917D1*
X2642077Y745217D1*
X2648992Y742739D1*
X2655591Y739513D1*
X2661794Y735579D1*
X2667525Y730984D1*
X2672714Y725786D1*
X2677299Y720047D1*
X2681222Y713837D1*
X2684437Y707232D1*
X2686903Y700314D1*
X2688592Y693165D1*
X2689480Y685874D1*
X2689601Y679643D1*
X2539421Y676264D2*
X2537789Y665958D1*
X2534564Y656035D1*
X2529828Y646739D1*
X2523694Y638297D1*
X2516318Y630920D1*
X2507875Y624786D1*
X2498579Y620050D1*
X2488656Y616825D1*
X2478350Y615193D1*
X2467917D1*
X2457612Y616825D1*
X2447689Y620050D1*
X2438392Y624786D1*
X2429950Y630920D1*
X2422573Y638297D1*
X2416440Y646739D1*
X2411703Y656035D1*
X2408479Y665958D1*
X2406846Y676264D1*
Y686697D1*
X2408479Y697003D1*
X2411703Y706925D1*
X2416440Y716222D1*
X2422573Y724664D1*
X2429950Y732041D1*
X2438392Y738175D1*
X2447689Y742911D1*
X2457612Y746135D1*
X2467917Y747768D1*
X2478350D1*
X2488656Y746135D1*
X2498579Y742911D1*
X2507875Y738175D1*
X2516318Y732041D1*
X2523694Y724664D1*
X2529828Y716222D1*
X2534564Y706925D1*
X2537789Y697003D1*
X2539421Y686697D1*
Y676264D1*
X3177081Y679643D2*
X3176472Y672323D1*
X3175060Y665114D1*
X3172862Y658106D1*
X3169904Y651383D1*
X3166223Y645026D1*
X3161862Y639115D1*
X3156877Y633720D1*
X3151327Y628909D1*
X3145280Y624740D1*
X3138810Y621262D1*
X3131996Y618520D1*
X3124921Y616546D1*
X3117671Y615364D1*
X3110336Y614988D1*
X3103003Y615425D1*
X3095764Y616668D1*
X3088705Y618701D1*
X3081915Y621501D1*
X3075474Y625033D1*
X3069462Y629253D1*
X3063953Y634110D1*
X3059012Y639547D1*
X3054702Y645495D1*
X3051073Y651881D1*
X3048172Y658629D1*
X3046033Y665656D1*
X3044681Y672875D1*
X3044134Y680201D1*
X3044399Y687542D1*
X3045471Y694808D1*
X3047339Y701912D1*
X3049979Y708766D1*
X3053358Y715289D1*
X3057437Y721398D1*
X3062164Y727020D1*
X3067483Y732085D1*
X3073328Y736534D1*
X3079627Y740311D1*
X3086306Y743370D1*
X3093281Y745673D1*
X3100467Y747194D1*
X3107777Y747912D1*
X3115122Y747819D1*
X3122412Y746917D1*
X3129558Y745217D1*
X3136472Y742739D1*
X3143071Y739513D1*
X3149274Y735579D1*
X3155005Y730984D1*
X3160194Y725786D1*
X3164780Y720047D1*
X3168702Y713837D1*
X3171917Y707232D1*
X3174383Y700314D1*
X3176072Y693165D1*
X3176961Y685874D1*
X3177081Y679643D1*
X3026902Y676264D2*
X3025269Y665958D1*
X3022045Y656035D1*
X3017308Y646739D1*
X3011175Y638297D1*
X3003798Y630920D1*
X2995356Y624786D1*
X2986059Y620050D1*
X2976136Y616825D1*
X2965831Y615193D1*
X2955398D1*
X2945092Y616825D1*
X2935169Y620050D1*
X2925873Y624786D1*
X2917430Y630920D1*
X2910054Y638297D1*
X2903920Y646739D1*
X2899184Y656035D1*
X2895959Y665958D1*
X2894327Y676264D1*
Y686697D1*
X2895959Y697003D1*
X2899184Y706925D1*
X2903920Y716222D1*
X2910054Y724664D1*
X2917430Y732041D1*
X2925873Y738175D1*
X2935169Y742911D1*
X2945092Y746135D1*
X2955398Y747768D1*
X2965831D1*
X2976136Y746135D1*
X2986059Y742911D1*
X2995356Y738175D1*
X3003798Y732041D1*
X3011175Y724664D1*
X3017308Y716222D1*
X3022045Y706925D1*
X3025269Y697003D1*
X3026902Y686697D1*
Y676264D1*
X3664601Y679643D2*
X3663992Y672323D1*
X3662580Y665114D1*
X3660382Y658106D1*
X3657424Y651383D1*
X3653743Y645026D1*
X3649382Y639115D1*
X3644396Y633720D1*
X3638846Y628909D1*
X3632799Y624740D1*
X3626329Y621262D1*
X3619516Y618520D1*
X3612441Y616546D1*
X3605190Y615364D1*
X3597856Y614988D1*
X3590522Y615425D1*
X3583283Y616668D1*
X3576224Y618701D1*
X3569434Y621501D1*
X3562993Y625033D1*
X3556982Y629253D1*
X3551472Y634110D1*
X3546531Y639547D1*
X3542222Y645495D1*
X3538593Y651881D1*
X3535692Y658629D1*
X3533552Y665656D1*
X3532201Y672875D1*
X3531654Y680201D1*
X3531919Y687542D1*
X3532991Y694808D1*
X3534858Y701912D1*
X3537499Y708766D1*
X3540878Y715289D1*
X3544957Y721398D1*
X3549684Y727020D1*
X3555003Y732085D1*
X3560848Y736534D1*
X3567147Y740311D1*
X3573825Y743370D1*
X3580801Y745673D1*
X3587987Y747194D1*
X3595297Y747912D1*
X3602642Y747819D1*
X3609932Y746917D1*
X3617077Y745217D1*
X3623992Y742739D1*
X3630591Y739513D1*
X3636794Y735579D1*
X3642525Y730984D1*
X3647714Y725786D1*
X3652299Y720047D1*
X3656222Y713837D1*
X3659437Y707232D1*
X3661903Y700314D1*
X3663592Y693165D1*
X3664480Y685874D1*
X3664601Y679643D1*
X3514421Y676264D2*
X3512789Y665958D1*
X3509564Y656035D1*
X3504828Y646739D1*
X3498694Y638297D1*
X3491318Y630920D1*
X3482875Y624786D1*
X3473579Y620050D1*
X3463656Y616825D1*
X3453350Y615193D1*
X3442917D1*
X3432612Y616825D1*
X3422689Y620050D1*
X3413392Y624786D1*
X3404950Y630920D1*
X3397573Y638297D1*
X3391440Y646739D1*
X3386703Y656035D1*
X3383479Y665958D1*
X3381846Y676264D1*
Y686697D1*
X3383479Y697003D1*
X3386703Y706925D1*
X3391440Y716222D1*
X3397573Y724664D1*
X3404950Y732041D1*
X3413392Y738175D1*
X3422689Y742911D1*
X3432612Y746135D1*
X3442917Y747768D1*
X3453350D1*
X3463656Y746135D1*
X3473579Y742911D1*
X3482875Y738175D1*
X3491318Y732041D1*
X3498694Y724664D1*
X3504828Y716222D1*
X3509564Y706925D1*
X3512789Y697003D1*
X3514421Y686697D1*
Y676264D1*
X4152081Y679643D2*
X4151472Y672323D1*
X4150060Y665114D1*
X4147862Y658106D1*
X4144904Y651383D1*
X4141223Y645026D1*
X4136862Y639115D1*
X4131877Y633720D1*
X4126327Y628909D1*
X4120280Y624740D1*
X4113810Y621262D1*
X4106996Y618520D1*
X4099921Y616546D1*
X4092671Y615364D1*
X4085336Y614988D1*
X4078003Y615425D1*
X4070764Y616668D1*
X4063705Y618701D1*
X4056915Y621501D1*
X4050474Y625033D1*
X4044462Y629253D1*
X4038953Y634110D1*
X4034012Y639547D1*
X4029702Y645495D1*
X4026073Y651881D1*
X4023172Y658629D1*
X4021033Y665656D1*
X4019681Y672875D1*
X4019134Y680201D1*
X4019399Y687542D1*
X4020471Y694808D1*
X4022339Y701912D1*
X4024979Y708766D1*
X4028358Y715289D1*
X4032437Y721398D1*
X4037164Y727020D1*
X4042483Y732085D1*
X4048328Y736534D1*
X4054627Y740311D1*
X4061306Y743370D1*
X4068281Y745673D1*
X4075467Y747194D1*
X4082777Y747912D1*
X4090122Y747819D1*
X4097412Y746917D1*
X4104558Y745217D1*
X4111472Y742739D1*
X4118071Y739513D1*
X4124274Y735579D1*
X4130005Y730984D1*
X4135194Y725786D1*
X4139780Y720047D1*
X4143702Y713837D1*
X4146917Y707232D1*
X4149383Y700314D1*
X4151072Y693165D1*
X4151961Y685874D1*
X4152081Y679643D1*
X4001902Y676264D2*
X4000269Y665958D1*
X3997045Y656035D1*
X3992308Y646739D1*
X3986175Y638297D1*
X3978798Y630920D1*
X3970356Y624786D1*
X3961059Y620050D1*
X3951136Y616825D1*
X3940831Y615193D1*
X3930398D1*
X3920092Y616825D1*
X3910169Y620050D1*
X3900873Y624786D1*
X3892430Y630920D1*
X3885054Y638297D1*
X3878920Y646739D1*
X3874184Y656035D1*
X3870959Y665958D1*
X3869327Y676264D1*
Y686697D1*
X3870959Y697003D1*
X3874184Y706925D1*
X3878920Y716222D1*
X3885054Y724664D1*
X3892430Y732041D1*
X3900873Y738175D1*
X3910169Y742911D1*
X3920092Y746135D1*
X3930398Y747768D1*
X3940831D1*
X3951136Y746135D1*
X3961059Y742911D1*
X3970356Y738175D1*
X3978798Y732041D1*
X3986175Y724664D1*
X3992308Y716222D1*
X3997045Y706925D1*
X4000269Y697003D1*
X4001902Y686697D1*
Y676264D1*
X4639601Y679643D2*
X4638992Y672323D1*
X4637580Y665114D1*
X4635382Y658106D1*
X4632424Y651383D1*
X4628743Y645026D1*
X4624382Y639115D1*
X4619396Y633720D1*
X4613846Y628909D1*
X4607799Y624740D1*
X4601329Y621262D1*
X4594516Y618520D1*
X4587441Y616546D1*
X4580190Y615364D1*
X4572856Y614988D1*
X4565522Y615425D1*
X4558283Y616668D1*
X4551224Y618701D1*
X4544434Y621501D1*
X4537993Y625033D1*
X4531982Y629253D1*
X4526472Y634110D1*
X4521531Y639547D1*
X4517222Y645495D1*
X4513593Y651881D1*
X4510692Y658629D1*
X4508552Y665656D1*
X4507201Y672875D1*
X4506654Y680201D1*
X4506919Y687542D1*
X4507991Y694808D1*
X4509858Y701912D1*
X4512499Y708766D1*
X4515878Y715289D1*
X4519957Y721398D1*
X4524684Y727020D1*
X4530003Y732085D1*
X4535848Y736534D1*
X4542147Y740311D1*
X4548825Y743370D1*
X4555801Y745673D1*
X4562987Y747194D1*
X4570297Y747912D1*
X4577642Y747819D1*
X4584932Y746917D1*
X4592077Y745217D1*
X4598992Y742739D1*
X4605591Y739513D1*
X4611794Y735579D1*
X4617525Y730984D1*
X4622714Y725786D1*
X4627299Y720047D1*
X4631222Y713837D1*
X4634437Y707232D1*
X4636903Y700314D1*
X4638592Y693165D1*
X4639480Y685874D1*
X4639601Y679643D1*
X4489421Y676264D2*
X4487789Y665958D1*
X4484564Y656035D1*
X4479828Y646739D1*
X4473694Y638297D1*
X4466318Y630920D1*
X4457875Y624786D1*
X4448579Y620050D1*
X4438656Y616825D1*
X4428350Y615193D1*
X4417917D1*
X4407612Y616825D1*
X4397689Y620050D1*
X4388392Y624786D1*
X4379950Y630920D1*
X4372573Y638297D1*
X4366440Y646739D1*
X4361703Y656035D1*
X4358479Y665958D1*
X4356846Y676264D1*
Y686697D1*
X4358479Y697003D1*
X4361703Y706925D1*
X4366440Y716222D1*
X4372573Y724664D1*
X4379950Y732041D1*
X4388392Y738175D1*
X4397689Y742911D1*
X4407612Y746135D1*
X4417917Y747768D1*
X4428350D1*
X4438656Y746135D1*
X4448579Y742911D1*
X4457875Y738175D1*
X4466318Y732041D1*
X4473694Y724664D1*
X4479828Y716222D1*
X4484564Y706925D1*
X4487789Y697003D1*
X4489421Y686697D1*
Y676264D1*
X3124955Y2564882D2*
X3140551D1*
X3134268Y2572184D1*
X3129482Y2579995D1*
X3125975Y2588459D1*
X3123837Y2597367D1*
X3123118Y2606500D1*
X3123837Y2615633D1*
X3125975Y2624541D1*
X3129482Y2633005D1*
X3134268Y2640816D1*
X3140218Y2647782D1*
X3147184Y2653732D1*
X3151386Y2656497D1*
X3147184Y2659268D1*
X3140218Y2665218D1*
X3134268Y2672184D1*
X3129482Y2679995D1*
X3125975Y2688459D1*
X3123837Y2697367D1*
X3123118Y2706500D1*
X3123837Y2715633D1*
X3125975Y2724541D1*
X3129482Y2733005D1*
X3134268Y2740816D1*
X3140218Y2747782D1*
X3147184Y2753732D1*
X3154995Y2758518D1*
X3163459Y2762025D1*
X3172367Y2764163D1*
X3181500Y2764882D1*
X3190633Y2764163D1*
X3199541Y2762025D1*
X3208005Y2758518D1*
X3215816Y2753732D1*
X3222782Y2747782D1*
X3228732Y2740816D1*
X3229617Y2739491D1*
X3333398Y2739488D1*
X3337126Y2744396D1*
X3343604Y2750874D1*
X3351016Y2756259D1*
X3359178Y2760419D1*
X3367891Y2763249D1*
X3376940Y2764682D1*
X3386100D1*
X3395148Y2763249D1*
X3403861Y2760419D1*
X3412024Y2756259D1*
X3419436Y2750874D1*
X3425913Y2744396D1*
X3429636Y2739471D1*
X3533345Y2739469D1*
X3537126Y2744396D1*
X3543604Y2750874D1*
X3551016Y2756259D1*
X3559178Y2760419D1*
X3567891Y2763249D1*
X3576940Y2764682D1*
X3586100D1*
X3595148Y2763249D1*
X3603861Y2760419D1*
X3612024Y2756259D1*
X3619436Y2750874D1*
X3625913Y2744396D1*
X3631298Y2736984D1*
X3635458Y2728822D1*
X3638289Y2720109D1*
X3639722Y2711060D1*
Y2701900D1*
X3638289Y2692852D1*
X3635458Y2684139D1*
X3631298Y2675976D1*
X3625913Y2668564D1*
X3619436Y2662087D1*
X3612024Y2656702D1*
X3611634Y2656483D1*
X3615836Y2653713D1*
X3622802Y2647762D1*
X3628752Y2640797D1*
X3633538Y2632986D1*
X3637045Y2624521D1*
X3639182Y2615613D1*
X3639902Y2606480D1*
X3639182Y2597348D1*
X3637045Y2588440D1*
X3633538Y2579975D1*
X3628752Y2572164D1*
X3622802Y2565198D1*
X3622448Y2564870D1*
X3639902Y2564862D1*
Y2448098D1*
X3523138D1*
Y2564862D1*
X3540571D1*
X3534287Y2572164D1*
X3529501Y2579975D1*
X3525995Y2588440D1*
X3523857Y2597348D1*
X3523138Y2606480D1*
X3523857Y2615613D1*
X3525995Y2624521D1*
X3529501Y2632986D1*
X3534287Y2640797D1*
X3540238Y2647762D1*
X3547203Y2653713D1*
X3551406Y2656478D1*
X3547203Y2659248D1*
X3540238Y2665198D1*
X3534287Y2672164D1*
X3533403Y2673490D1*
X3429694Y2673492D1*
X3425913Y2668564D1*
X3419436Y2662087D1*
X3412024Y2656702D1*
X3411634Y2656483D1*
X3415836Y2653713D1*
X3422802Y2647762D1*
X3428752Y2640797D1*
X3433538Y2632986D1*
X3437045Y2624521D1*
X3439182Y2615613D1*
X3439902Y2606480D1*
X3439182Y2597348D1*
X3437045Y2588440D1*
X3433538Y2579975D1*
X3428752Y2572164D1*
X3422802Y2565198D1*
X3422448Y2564870D1*
X3439902Y2564862D1*
Y2448098D1*
X3323138D1*
Y2564862D1*
X3340571D1*
X3334287Y2572164D1*
X3329501Y2579975D1*
X3325995Y2588440D1*
X3323857Y2597348D1*
X3323138Y2606480D1*
X3323857Y2615613D1*
X3325995Y2624521D1*
X3329501Y2632986D1*
X3334287Y2640797D1*
X3340238Y2647762D1*
X3347203Y2653713D1*
X3351406Y2656478D1*
X3347203Y2659248D1*
X3340238Y2665198D1*
X3334287Y2672164D1*
X3333382Y2673520D1*
X3229675Y2673512D1*
X3225894Y2668584D1*
X3219416Y2662106D1*
X3212004Y2656722D1*
X3211614Y2656503D1*
X3215816Y2653732D1*
X3222782Y2647782D1*
X3228732Y2640816D1*
X3233518Y2633005D1*
X3237025Y2624541D1*
X3239163Y2615633D1*
X3239882Y2606500D1*
X3239163Y2597367D1*
X3237025Y2588459D1*
X3233518Y2579995D1*
X3228732Y2572184D1*
X3222782Y2565218D1*
X3222428Y2564890D1*
X3239882Y2564882D1*
Y2448118D1*
X3123118D1*
Y2564882D1*
X3124955D1*
X530730Y2428957D2*
X641457D1*
Y2410476D1*
X779257Y2410492D1*
X785882Y2413217D1*
X792976Y2414920D1*
X800249Y2415492D1*
X807522Y2414920D1*
X814617Y2413217D1*
X821214Y2410491D1*
X1366609Y2410492D1*
X1373186Y2413217D1*
X1380281Y2414920D1*
X1387554Y2415492D1*
X1394827Y2414920D1*
X1401921Y2413217D1*
X1408518Y2410491D1*
X2716740Y2410492D1*
X2723382Y2413217D1*
X2730476Y2414920D1*
X2737749Y2415492D1*
X2745022Y2414920D1*
X2752117Y2413217D1*
X2758714Y2410491D1*
X3266790Y2410492D1*
X3273383Y2413217D1*
X3280478Y2414920D1*
X3287751Y2415492D1*
X3295024Y2414920D1*
X3302118Y2413217D1*
X3306123Y2411870D1*
X4939680D1*
X4939703Y2430335D1*
X5059617D1*
Y2310421D1*
X5044294D1*
X5048165Y2305619D1*
X5053081Y2297597D1*
X5056681Y2288906D1*
X5058878Y2279757D1*
X5059617Y2270378D1*
X5058878Y2260999D1*
X5056681Y2251850D1*
X5053081Y2243159D1*
X5048165Y2235136D1*
X5042055Y2227982D1*
X5034902Y2221871D1*
X5032714Y2220411D1*
X5038598Y2215970D1*
X5045251Y2209316D1*
X5050781Y2201705D1*
X5055052Y2193323D1*
X5057959Y2184374D1*
X5059432Y2175083D1*
Y2165673D1*
X5057959Y2156382D1*
X5055052Y2147433D1*
X5050781Y2139051D1*
X5045251Y2131440D1*
X5038598Y2124786D1*
X5032714Y2120411D1*
X5038598Y2115970D1*
X5045251Y2109316D1*
X5050781Y2101705D1*
X5055052Y2093323D1*
X5057959Y2084374D1*
X5059432Y2075083D1*
Y2065673D1*
X5057959Y2056382D1*
X5055052Y2047433D1*
X5050781Y2039051D1*
X5045251Y2031440D1*
X5038598Y2024786D1*
X5032714Y2020411D1*
X5038598Y2015970D1*
X5045251Y2009316D1*
X5050781Y2001705D1*
X5055052Y1993323D1*
X5057959Y1984374D1*
X5059432Y1975083D1*
Y1965673D1*
X5057959Y1956382D1*
X5055052Y1947433D1*
X5050781Y1939051D1*
X5045251Y1931440D1*
X5038598Y1924786D1*
X5032714Y1920411D1*
X5038808Y1915789D1*
X5044067Y1910661D1*
X5048659Y1904930D1*
X5052516Y1898680D1*
X5055580Y1892005D1*
X5057804Y1885005D1*
X5059156Y1877786D1*
X5059617Y1870378D1*
X5059167Y1863047D1*
X5057824Y1855827D1*
X5055608Y1848824D1*
X5052552Y1842146D1*
X5048705Y1835890D1*
X5044119Y1830152D1*
X5038867Y1825018D1*
X5033028Y1820564D1*
X5026686Y1816858D1*
X5019940Y1813955D1*
X5012890Y1811899D1*
X5005640Y1810720D1*
X4998302Y1810437D1*
X4990983Y1811052D1*
X4983794Y1812559D1*
X4976844Y1814932D1*
X4970236Y1818138D1*
X4964070Y1822127D1*
X4958437Y1826840D1*
X4953423Y1832207D1*
X4949102Y1838147D1*
X4945542Y1844570D1*
X4942793Y1851381D1*
X4940896Y1858476D1*
X4939882Y1865751D1*
X4939764Y1873093D1*
X4940546Y1880396D1*
X4942214Y1887549D1*
X4944744Y1894444D1*
X4948098Y1900978D1*
X4952227Y1907052D1*
X4957067Y1912576D1*
X4962546Y1917467D1*
X4966579Y1920375D1*
X4960720Y1924786D1*
X4954068Y1931440D1*
X4952144Y1933879D1*
X2747676Y1933886D1*
X2740613Y1932621D1*
X2691818Y1932508D1*
X1191535D1*
X1187042Y1929360D1*
X1180541Y1926047D1*
X1173602Y1923793D1*
X1166398Y1922651D1*
X1159101D1*
X1151896Y1923793D1*
X1144958Y1926047D1*
X1138457Y1929360D1*
X1134000Y1932508D1*
X629043D1*
X623896Y1926604D1*
X616741Y1920493D1*
X614555Y1919033D1*
X620648Y1914411D1*
X625907Y1909283D1*
X630500Y1903552D1*
X634357Y1897302D1*
X637420Y1890627D1*
X639644Y1883627D1*
X640997Y1876408D1*
X641457Y1869000D1*
X641007Y1861669D1*
X639664Y1854449D1*
X637449Y1847446D1*
X634394Y1840768D1*
X630545Y1834512D1*
X625961Y1828774D1*
X620709Y1823640D1*
X614867Y1819186D1*
X608528Y1815480D1*
X601781Y1812577D1*
X594730Y1810521D1*
X587480Y1809343D1*
X580142Y1809059D1*
X572823Y1809675D1*
X565635Y1811181D1*
X558685Y1813554D1*
X552076Y1816760D1*
X545909Y1820749D1*
X540277Y1825462D1*
X535264Y1830829D1*
X530944Y1836769D1*
X527382Y1843192D1*
X524633Y1850003D1*
X522736Y1857098D1*
X521722Y1864373D1*
X521605Y1871715D1*
X522386Y1879018D1*
X524055Y1886171D1*
X526585Y1893066D1*
X529940Y1899600D1*
X534068Y1905675D1*
X538908Y1911198D1*
X544387Y1916089D1*
X548419Y1918997D1*
X542562Y1923408D1*
X535908Y1930062D1*
X530378Y1937673D1*
X526108Y1946055D1*
X523199Y1955004D1*
X521728Y1964295D1*
Y1973705D1*
X523199Y1982996D1*
X526108Y1991945D1*
X530378Y2000327D1*
X535908Y2007938D1*
X542562Y2014592D1*
X548445Y2018967D1*
X542562Y2023408D1*
X535908Y2030062D1*
X530378Y2037673D1*
X526108Y2046055D1*
X523199Y2055004D1*
X521728Y2064295D1*
Y2073705D1*
X523199Y2082996D1*
X526108Y2091945D1*
X530378Y2100327D1*
X535908Y2107938D1*
X542562Y2114592D1*
X548445Y2118967D1*
X542562Y2123408D1*
X535908Y2130062D1*
X530378Y2137673D1*
X526108Y2146055D1*
X523199Y2155004D1*
X521728Y2164295D1*
Y2173705D1*
X523199Y2182996D1*
X526108Y2191945D1*
X530378Y2200327D1*
X535908Y2207938D1*
X542562Y2214592D1*
X548445Y2218967D1*
X542562Y2223408D1*
X535908Y2230062D1*
X530378Y2237673D1*
X526108Y2246055D1*
X523199Y2255004D1*
X521728Y2264295D1*
Y2273705D1*
X523199Y2282996D1*
X526108Y2291945D1*
X530378Y2300327D1*
X535908Y2307938D1*
X536920Y2309033D1*
X521543Y2309043D1*
Y2428957D1*
X530730D1*
X641457Y2327512D2*
Y2309043D1*
X626134D1*
X629016Y2305499D1*
X696652Y2305492D1*
X701154Y2308640D1*
X707655Y2311953D1*
X714593Y2314207D1*
X721798Y2315349D1*
X729094D1*
X736299Y2314207D1*
X743238Y2311953D1*
X749739Y2308640D1*
X754196Y2305492D1*
X2827793D1*
X2834886Y2306757D1*
X2883681Y2306870D1*
X4952081D1*
X4955079Y2310411D1*
X4939703Y2310421D1*
Y2328902D1*
X3311273Y2328886D1*
X3305542Y2326047D1*
X3298604Y2323793D1*
X3291399Y2322651D1*
X3284102D1*
X3276898Y2323793D1*
X3269959Y2326047D1*
X3266786Y2327509D1*
X2758710Y2327508D1*
X2752117Y2324783D1*
X2745022Y2323080D1*
X2737749Y2322508D1*
X2730476Y2323080D1*
X2723382Y2324783D1*
X2716785Y2327509D1*
X1408563Y2327508D1*
X1401921Y2324783D1*
X1394827Y2323080D1*
X1387554Y2322508D1*
X1380281Y2323080D1*
X1373186Y2324783D1*
X1366589Y2327509D1*
X821194Y2327508D1*
X814617Y2324783D1*
X807522Y2323080D1*
X800249Y2322508D1*
X792976Y2323080D1*
X785882Y2324783D1*
X779285Y2327509D1*
X641462Y2327508D1*
X629016Y2232501D2*
X623896Y2226604D1*
X616741Y2220493D1*
X614555Y2219033D1*
X620438Y2214592D1*
X627092Y2207938D1*
X629016Y2205499D1*
X952722Y2205492D1*
X957207Y2208640D1*
X963709Y2211953D1*
X970647Y2214207D1*
X977852Y2215349D1*
X985148D1*
X992353Y2214207D1*
X999291Y2211953D1*
X1005793Y2208640D1*
X1010249Y2205492D1*
X2791822D1*
X2791257Y2212749D1*
X2791829Y2220022D1*
X2793533Y2227117D1*
X2795698Y2232496D1*
X754278Y2232508D1*
X749739Y2229360D1*
X743238Y2226047D1*
X736299Y2223793D1*
X729094Y2222651D1*
X721798D1*
X714593Y2223793D1*
X707655Y2226047D1*
X701154Y2229360D1*
X696697Y2232508D1*
X629097D1*
X629016Y2132501D2*
X623896Y2126604D1*
X616741Y2120493D1*
X614555Y2119033D1*
X620438Y2114592D1*
X627092Y2107938D1*
X629016Y2105499D1*
X875929Y2105492D1*
X880433Y2108640D1*
X886934Y2111953D1*
X893873Y2114207D1*
X901077Y2115349D1*
X908374D1*
X915579Y2114207D1*
X922517Y2111953D1*
X929018Y2108640D1*
X933475Y2105492D1*
X2760835D1*
X2765344Y2108640D1*
X2771845Y2111953D1*
X2778783Y2114207D1*
X2785988Y2115349D1*
X2793285D1*
X2800490Y2114207D1*
X2807428Y2111953D1*
X2813929Y2108640D1*
X2816572Y2106874D1*
X2842853Y2106870D1*
X2841829Y2111727D1*
X2841257Y2119000D1*
X2841829Y2126273D1*
X2843289Y2132503D1*
X1010324Y2132508D1*
X1005793Y2129360D1*
X999291Y2126047D1*
X992353Y2123793D1*
X985148Y2122651D1*
X977852D1*
X970647Y2123793D1*
X963709Y2126047D1*
X957207Y2129360D1*
X952751Y2132508D1*
X629081D1*
X629016Y2032501D2*
X623896Y2026604D1*
X616741Y2020493D1*
X614555Y2019033D1*
X620438Y2014592D1*
X627092Y2007938D1*
X629016Y2005499D1*
X1133937Y2005492D1*
X1138457Y2008640D1*
X1144958Y2011953D1*
X1151896Y2014207D1*
X1159101Y2015349D1*
X1166398D1*
X1173602Y2014207D1*
X1180541Y2011953D1*
X1187042Y2008640D1*
X1191499Y2005492D1*
X2691811D1*
X2691257Y2012749D1*
X2691829Y2020022D1*
X2693533Y2027117D1*
X2695698Y2032496D1*
X933528Y2032508D1*
X929018Y2029360D1*
X922517Y2026047D1*
X915579Y2023793D1*
X908374Y2022651D1*
X901077D1*
X893873Y2023793D1*
X886934Y2026047D1*
X880433Y2029360D1*
X875976Y2032508D1*
X629100D1*
X4966605Y2220411D2*
X4960720Y2224786D1*
X4954068Y2231440D1*
X4952144Y2233879D1*
X2879175Y2233857D1*
X2881966Y2227117D1*
X2883669Y2220022D1*
X2884241Y2212749D1*
X2883808Y2206652D1*
X2896936Y2206870D1*
X4952059D1*
X4957264Y2212774D1*
X4964417Y2218885D1*
X4966605Y2220345D1*
Y2120411D2*
X4960720Y2124786D1*
X4954068Y2131440D1*
X4952144Y2133879D1*
X2931761Y2133886D1*
X2933669Y2126273D1*
X2934241Y2119000D1*
X2933669Y2111727D1*
X2932597Y2106870D1*
X4952054D1*
X4957264Y2112774D1*
X4964417Y2118885D1*
X4966605Y2120345D1*
Y2020411D2*
X4960720Y2024786D1*
X4954068Y2031440D1*
X4952144Y2033879D1*
X2820089Y2033886D1*
X2813929Y2029360D1*
X2807428Y2026047D1*
X2800490Y2023793D1*
X2793285Y2022651D1*
X2785988D1*
X2783085Y2022995D1*
X2784098Y2016398D1*
Y2009101D1*
X2783835Y2006878D1*
X4952055Y2006870D1*
X4957264Y2012774D1*
X4964417Y2018885D1*
X4966605Y2020345D1*
X1077101Y3491277D2*
X1076492Y3483957D1*
X1075080Y3476748D1*
X1072882Y3469740D1*
X1069924Y3463017D1*
X1066243Y3456660D1*
X1061882Y3450749D1*
X1056896Y3445354D1*
X1051346Y3440543D1*
X1045299Y3436374D1*
X1038829Y3432896D1*
X1032016Y3430154D1*
X1024941Y3428180D1*
X1017690Y3426997D1*
X1010356Y3426622D1*
X1003022Y3427059D1*
X995783Y3428302D1*
X988724Y3430335D1*
X981934Y3433135D1*
X975493Y3436667D1*
X969482Y3440887D1*
X963972Y3445744D1*
X959031Y3451181D1*
X954722Y3457129D1*
X951093Y3463514D1*
X948192Y3470262D1*
X946052Y3477290D1*
X944701Y3484509D1*
X944154Y3491835D1*
X944419Y3499176D1*
X945491Y3506442D1*
X947358Y3513546D1*
X949999Y3520400D1*
X953378Y3526923D1*
X957457Y3533031D1*
X962184Y3538654D1*
X967503Y3543719D1*
X973348Y3548168D1*
X979647Y3551945D1*
X986325Y3555004D1*
X993301Y3557307D1*
X1000487Y3558828D1*
X1007797Y3559546D1*
X1015142Y3559453D1*
X1022432Y3558551D1*
X1029577Y3556850D1*
X1036492Y3554373D1*
X1043091Y3551147D1*
X1049294Y3547213D1*
X1055025Y3542618D1*
X1060214Y3537420D1*
X1064799Y3531681D1*
X1068722Y3525471D1*
X1071937Y3518866D1*
X1074403Y3511948D1*
X1076092Y3504799D1*
X1076980Y3497508D1*
X1077101Y3491277D1*
X1226921Y3487898D2*
X1225289Y3477592D1*
X1222064Y3467669D1*
X1217328Y3458373D1*
X1211194Y3449930D1*
X1203818Y3442554D1*
X1195375Y3436420D1*
X1186079Y3431684D1*
X1176156Y3428459D1*
X1165850Y3426827D1*
X1155417D1*
X1145112Y3428459D1*
X1135189Y3431684D1*
X1125892Y3436420D1*
X1117450Y3442554D1*
X1110073Y3449930D1*
X1103940Y3458373D1*
X1099203Y3467669D1*
X1095979Y3477592D1*
X1094346Y3487898D1*
Y3498331D1*
X1095979Y3508636D1*
X1099203Y3518559D1*
X1103940Y3527856D1*
X1110073Y3536298D1*
X1117450Y3543675D1*
X1125892Y3549808D1*
X1135189Y3554545D1*
X1145112Y3557769D1*
X1155417Y3559402D1*
X1165850D1*
X1176156Y3557769D1*
X1186079Y3554545D1*
X1195375Y3549808D1*
X1203818Y3543675D1*
X1211194Y3536298D1*
X1217328Y3527856D1*
X1222064Y3518559D1*
X1225289Y3508636D1*
X1226921Y3498331D1*
Y3487898D1*
X642570Y3654547D2*
X641727Y3647423D1*
X640327Y3640386D1*
X638379Y3633482D1*
X635896Y3626751D1*
X632892Y3620235D1*
X629387Y3613975D1*
X625402Y3608009D1*
X620959Y3602375D1*
X616089Y3597108D1*
X610822Y3592238D1*
X605188Y3587795D1*
X599222Y3583810D1*
X592962Y3580304D1*
X586446Y3577301D1*
X579715Y3574818D1*
X572811Y3572870D1*
X565774Y3571470D1*
X558650Y3570627D1*
X551480Y3570345D1*
X544311Y3570627D1*
X537186Y3571470D1*
X530150Y3572870D1*
X523245Y3574818D1*
X516514Y3577301D1*
X509999Y3580304D1*
X503739Y3583810D1*
X497773Y3587795D1*
X492139Y3592238D1*
X486871Y3597108D1*
X482001Y3602375D1*
X477559Y3608009D1*
X473573Y3613975D1*
X470068Y3620235D1*
X467064Y3626751D1*
X464581Y3633482D1*
X462634Y3640386D1*
X461234Y3647423D1*
X460391Y3654547D1*
X460109Y3661717D1*
X460391Y3668886D1*
X461234Y3676010D1*
X462634Y3683047D1*
X464581Y3689951D1*
X467064Y3696682D1*
X470068Y3703198D1*
X473573Y3709458D1*
X477559Y3715424D1*
X482001Y3721058D1*
X486871Y3726325D1*
X492139Y3731196D1*
X497773Y3735638D1*
X503739Y3739623D1*
X511907Y3744009D1*
X425290Y3744000D1*
X431476Y425220D1*
X523100Y425251D1*
X516514Y427694D1*
X509999Y430698D1*
X503739Y434203D1*
X497773Y438189D1*
X492139Y442631D1*
X486871Y447501D1*
X482001Y452769D1*
X477559Y458403D1*
X473573Y464369D1*
X470068Y470629D1*
X467064Y477144D1*
X464581Y483875D1*
X462634Y490780D1*
X461234Y497816D1*
X460391Y504941D1*
X460109Y512110D1*
X460391Y519280D1*
X461234Y526404D1*
X462634Y533441D1*
X464581Y540345D1*
X467064Y547076D1*
X470068Y553592D1*
X473573Y559852D1*
X477559Y565818D1*
X482001Y571451D1*
X486871Y576719D1*
X492139Y581589D1*
X497773Y586031D1*
X503739Y590017D1*
X509999Y593522D1*
X516514Y596526D1*
X523245Y599009D1*
X530150Y600957D1*
X537186Y602357D1*
X544311Y603199D1*
X551480Y603482D1*
X558650Y603199D1*
X565774Y602357D1*
X572811Y600957D1*
X579715Y599009D1*
X586446Y596526D1*
X592962Y593522D1*
X599222Y590017D1*
X605188Y586031D1*
X610822Y581589D1*
X616089Y576719D1*
X620959Y571451D1*
X625402Y565818D1*
X629387Y559852D1*
X632892Y553592D1*
X635896Y547076D1*
X638379Y540345D1*
X640327Y533441D1*
X641727Y526404D1*
X642570Y519280D1*
X642852Y512110D1*
X642570Y504941D1*
X641727Y497816D1*
X640327Y490780D1*
X638379Y483875D1*
X635896Y477144D1*
X632892Y470629D1*
X629387Y464369D1*
X625402Y458403D1*
X620959Y452769D1*
X616089Y447501D1*
X610822Y442631D1*
X605188Y438189D1*
X599222Y434203D1*
X592962Y430698D1*
X586446Y427694D1*
X579846Y425260D1*
X5011278Y425251D1*
X5004703Y427694D1*
X4998188Y430698D1*
X4991928Y434203D1*
X4985962Y438189D1*
X4980328Y442631D1*
X4975060Y447501D1*
X4970190Y452769D1*
X4965748Y458403D1*
X4961762Y464369D1*
X4958257Y470629D1*
X4955253Y477144D1*
X4952770Y483875D1*
X4950823Y490780D1*
X4949423Y497816D1*
X4948580Y504941D1*
X4948298Y512110D1*
X4948580Y519280D1*
X4949423Y526404D1*
X4950823Y533441D1*
X4952770Y540345D1*
X4955253Y547076D1*
X4958257Y553592D1*
X4961762Y559852D1*
X4965748Y565818D1*
X4970190Y571451D1*
X4975060Y576719D1*
X4980328Y581589D1*
X4985962Y586031D1*
X4991928Y590017D1*
X4998188Y593522D1*
X5004703Y596526D1*
X5011434Y599009D1*
X5018339Y600957D1*
X5025375Y602357D1*
X5032500Y603199D1*
X5039669Y603482D1*
X5046839Y603199D1*
X5053963Y602357D1*
X5061000Y600957D1*
X5067904Y599009D1*
X5074635Y596526D1*
X5081151Y593522D1*
X5087411Y590017D1*
X5093377Y586031D1*
X5099010Y581589D1*
X5104278Y576719D1*
X5109148Y571451D1*
X5113591Y565818D1*
X5117576Y559852D1*
X5121081Y553592D1*
X5124085Y547076D1*
X5126568Y540345D1*
X5128516Y533441D1*
X5129916Y526404D1*
X5130759Y519280D1*
X5131041Y512110D1*
X5130759Y504941D1*
X5129916Y497816D1*
X5128516Y490780D1*
X5126568Y483875D1*
X5124085Y477144D1*
X5121081Y470629D1*
X5117576Y464369D1*
X5113591Y458403D1*
X5109148Y452769D1*
X5104278Y447501D1*
X5099010Y442631D1*
X5093377Y438189D1*
X5087411Y434203D1*
X5081151Y430698D1*
X5074635Y427694D1*
X5068035Y425260D1*
X5156466Y425251D1*
X5156500Y3743987D1*
X5079398Y3744000D1*
X5087411Y3739623D1*
X5093377Y3735638D1*
X5099010Y3731196D1*
X5104278Y3726325D1*
X5109148Y3721058D1*
X5113591Y3715424D1*
X5117576Y3709458D1*
X5121081Y3703198D1*
X5124085Y3696682D1*
X5126568Y3689951D1*
X5128516Y3683047D1*
X5129916Y3676010D1*
X5130759Y3668886D1*
X5131041Y3661717D1*
X5130759Y3654547D1*
X5129916Y3647423D1*
X5128516Y3640386D1*
X5126568Y3633482D1*
X5124085Y3626751D1*
X5121081Y3620235D1*
X5117576Y3613975D1*
X5113591Y3608009D1*
X5109148Y3602375D1*
X5104278Y3597108D1*
X5099010Y3592238D1*
X5093377Y3587795D1*
X5087411Y3583810D1*
X5081151Y3580304D1*
X5074635Y3577301D1*
X5067904Y3574818D1*
X5061000Y3572870D1*
X5053963Y3571470D1*
X5046839Y3570627D1*
X5039669Y3570345D1*
X5032500Y3570627D1*
X5025375Y3571470D1*
X5018339Y3572870D1*
X5011434Y3574818D1*
X5004703Y3577301D1*
X4998188Y3580304D1*
X4991928Y3583810D1*
X4985962Y3587795D1*
X4980328Y3592238D1*
X4975060Y3597108D1*
X4970190Y3602375D1*
X4965748Y3608009D1*
X4961762Y3613975D1*
X4958257Y3620235D1*
X4955253Y3626751D1*
X4952770Y3633482D1*
X4950823Y3640386D1*
X4949423Y3647423D1*
X4948580Y3654547D1*
X4948298Y3661717D1*
X4948580Y3668886D1*
X4949423Y3676010D1*
X4950823Y3683047D1*
X4952770Y3689951D1*
X4955253Y3696682D1*
X4958257Y3703198D1*
X4961762Y3709458D1*
X4965748Y3715424D1*
X4970190Y3721058D1*
X4975060Y3726325D1*
X4980328Y3731196D1*
X4985962Y3735638D1*
X4991928Y3739623D1*
X5000096Y3744009D1*
X591218Y3744000D1*
X599222Y3739623D1*
X605188Y3735638D1*
X610822Y3731196D1*
X616089Y3726325D1*
X620959Y3721058D1*
X625402Y3715424D1*
X629387Y3709458D1*
X632892Y3703198D1*
X635896Y3696682D1*
X638379Y3689951D1*
X640327Y3683047D1*
X641727Y3676010D1*
X642570Y3668886D1*
X642852Y3661717D1*
X642570Y3654547D1*
X3876707Y2958238D2*
X3917471D1*
X3922923Y2962862D1*
X3929142Y2966675D1*
X3935882Y2969466D1*
X3942976Y2971169D1*
X3950249Y2971741D1*
X3957522Y2971169D1*
X3964617Y2969466D1*
X3971357Y2966675D1*
X3977576Y2962862D1*
X3983125Y2958125D1*
X3987862Y2952576D1*
X3991675Y2946357D1*
X3994466Y2939617D1*
X3996169Y2932522D1*
X3996741Y2925249D1*
X3996169Y2917976D1*
X3994466Y2910882D1*
X3991675Y2904142D1*
X3987862Y2897923D1*
X3983125Y2892374D1*
X3977576Y2887636D1*
X3971357Y2883824D1*
X3964617Y2881033D1*
X3957522Y2879329D1*
X3950249Y2878757D1*
X3942976Y2879329D1*
X3935882Y2881033D1*
X3929142Y2883824D1*
X3922923Y2887636D1*
X3917490Y2892268D1*
X3601778Y2892261D1*
X3596327Y2887636D1*
X3590108Y2883824D1*
X3583367Y2881033D1*
X3576273Y2879329D1*
X3569000Y2878757D1*
X3561727Y2879329D1*
X3554633Y2881033D1*
X3547892Y2883824D1*
X3541673Y2887636D1*
X3536125Y2892374D1*
X3531387Y2897923D1*
X3527575Y2904142D1*
X3524783Y2910882D1*
X3523080Y2917976D1*
X3522508Y2925249D1*
X3523080Y2932522D1*
X3524783Y2939617D1*
X3527575Y2946357D1*
X3531387Y2952576D1*
X3536125Y2958125D1*
X3541673Y2962862D1*
X3547892Y2966675D1*
X3554633Y2969466D1*
X3561727Y2971169D1*
X3569000Y2971741D1*
X3576273Y2971169D1*
X3583367Y2969466D1*
X3585008Y2969000D1*
X3585580Y2976273D1*
X3587283Y2983367D1*
X3590075Y2990108D1*
X3593887Y2996327D1*
X3598625Y3001875D1*
X3604173Y3006613D1*
X3610392Y3010425D1*
X3617133Y3013217D1*
X3624227Y3014920D1*
X3631500Y3015492D1*
X3638773Y3014920D1*
X3645867Y3013217D1*
X3652608Y3010425D1*
X3658827Y3006613D1*
X3664260Y3001982D1*
X3798756Y3001988D1*
X3804173Y3006613D1*
X3810392Y3010425D1*
X3817133Y3013217D1*
X3824227Y3014920D1*
X3831500Y3015492D1*
X3838773Y3014920D1*
X3845867Y3013217D1*
X3852608Y3010425D1*
X3858827Y3006613D1*
X3864375Y3001875D1*
X3869113Y2996327D1*
X3872925Y2990108D1*
X3875717Y2983367D1*
X3877420Y2976273D1*
X3877992Y2969000D1*
X3877420Y2961727D1*
X3876727Y2958244D1*
X1498134Y3559571D2*
D15*
Y3426657D1*
X1987740Y3559591D2*
Y3426677D1*
X2473134Y3559591D2*
Y3426677D1*
X2960634Y3559591D2*
Y3426677D1*
X3448134Y3559591D2*
Y3426677D1*
X3935634Y3559591D2*
Y3426677D1*
X4423134Y3559591D2*
Y3426677D1*
X1160614Y747937D2*
Y615024D1*
X1648134Y747937D2*
Y615024D1*
X2137740Y747937D2*
Y615024D1*
X2623134Y747937D2*
Y615024D1*
X3110614Y747937D2*
Y615024D1*
X3598134Y747937D2*
Y615024D1*
X4085614Y747937D2*
Y615024D1*
X4573134Y747937D2*
Y615024D1*
X3181500Y2506500D2*
Y2448154D1*
X3381520Y2506480D2*
Y2448134D1*
X3581520Y2506480D2*
Y2448134D1*
X581500Y1869000D2*
Y1809079D1*
X4999660Y1870378D2*
Y1810457D1*
X1010634Y3559571D2*
Y3426657D1*
D19*
X1498134Y3493114D3*
X1648134D3*
X1987740Y3493134D3*
X2137740D3*
X2473134D3*
X2623134D3*
X2960634D3*
X3110634D3*
X3448134D3*
X3598134D3*
X3935634D3*
X4085634D3*
X4423134D3*
X4573134D3*
X1160614Y681480D3*
X1010614D3*
X1648134D3*
X1498134D3*
X2137740D3*
X1987740D3*
X2623134D3*
X2473134D3*
X3110614D3*
X2960614D3*
X3598134D3*
X3448134D3*
X4085614D3*
X3935614D3*
X4573134D3*
X4423134D3*
D22*
X3181500Y2506500D3*
D23*
Y2606500D3*
Y2706500D3*
D22*
X3381520Y2506480D3*
D23*
Y2606480D3*
Y2706480D3*
D22*
X3581520Y2506480D3*
D23*
Y2606480D3*
Y2706480D3*
D25*
X581500Y2369000D3*
D26*
Y2269000D3*
Y2169000D3*
Y2069000D3*
Y1969000D3*
Y1869000D3*
D25*
X4999660Y2370378D3*
D26*
Y2270378D3*
Y2170378D3*
Y2070378D3*
Y1970378D3*
Y1870378D3*
D19*
X1010634Y3493114D3*
X1160634D3*
M02*
