M48
INCH
T01C0.0191
T02C0.038
T03C0.0402
T04C0.0433
T05C0.1181
%
T01
X+011627Y+019690
X+010879Y+018690
X+009047Y+020690
X+009815Y+021690
X+008002Y+023690
X+007254Y+022690
X+013876Y+023690
X+027377Y+023690
X+028377Y+022127
X+028877Y+021190
X+027896Y+020690
X+027377Y+020127
X+032878Y+018690
X+032878Y+023690
X+035690Y+029252
X+036315Y+029690
X+038315Y+029690
X+039502Y+029252
T02
X+014981Y+034931
X+016481Y+034931
X+019877Y+034931
X+021377Y+034931
X+024731Y+034931
X+026231Y+034931
X+029606Y+034931
X+031106Y+034931
X+034481Y+034931
X+035981Y+034931
X+039356Y+034931
X+040856Y+034931
X+044231Y+034931
X+045731Y+034931
X+045731Y+006815
X+044231Y+006815
X+040856Y+006815
X+039356Y+006815
X+035981Y+006815
X+034481Y+006815
X+031106Y+006815
X+029606Y+006815
X+026231Y+006815
X+024731Y+006815
X+021377Y+006815
X+019877Y+006815
X+016481Y+006815
X+014981Y+006815
X+011606Y+006815
X+010106Y+006815
X+010106Y+034931
X+011606Y+034931
T03
X+031815Y+025065
X+031815Y+026065
X+031815Y+027065
X+033815Y+027065
X+033815Y+026065
X+033815Y+025065
X+035815Y+025065
X+035815Y+026065
X+035815Y+027065
T04
X+005815Y+023690
X+005815Y+022690
X+005815Y+021690
X+005815Y+020690
X+005815Y+019690
X+005815Y+018690
X+049997Y+018704
X+049997Y+019704
X+049997Y+020704
X+049997Y+021704
X+049997Y+022704
X+049997Y+023704
T05
X+005515Y+036617
X+005515Y+005121
X+050397Y+005121
X+050397Y+036617
T00
M30
