G04 DipTrace 3.3.1.3*
G04 Top.gbr*
%MOIN*%
G04 #@! TF.FileFunction,Copper,L1,Top*
G04 #@! TF.Part,Single*
G04 #@! TA.AperFunction,CopperBalancing*
%ADD15C,0.012992*%
%ADD17C,0.025*%
G04 #@! TA.AperFunction,ComponentPad*
%ADD19C,0.08*%
%ADD20R,0.051181X0.059055*%
%ADD21R,0.059055X0.051181*%
G04 #@! TA.AperFunction,ComponentPad*
%ADD22R,0.06378X0.06378*%
%ADD23C,0.06378*%
%ADD24R,0.023622X0.07874*%
G04 #@! TA.AperFunction,ComponentPad*
%ADD25R,0.066929X0.066929*%
%ADD26C,0.066929*%
%ADD28R,0.055118X0.088583*%
%ADD30R,0.025591X0.041339*%
G04 #@! TA.AperFunction,ViaPad*
%ADD31C,0.04*%
%FSLAX26Y26*%
G04*
G70*
G90*
G75*
G01*
G04 Top*
%LPD*%
X1162749Y1731500D2*
D15*
Y1969000D1*
X2737749Y1937751D2*
Y2012749D1*
X2631697Y1756500D2*
Y1931698D1*
X2637749Y1937751D1*
X3287751Y2187749D2*
Y2369000D1*
X2737749Y2307829D2*
Y2369000D1*
Y2307829D2*
Y2225249D1*
X2637749Y2125249D1*
Y1937751D1*
X3287751Y2369000D2*
Y2600249D1*
X3181500Y2706500D1*
X800249Y1731500D2*
Y2369000D1*
X1387554Y1694000D2*
Y2369000D1*
X3181500Y2606500D2*
X3081500D1*
X2887749Y2412749D1*
Y2307829D1*
X2837749D2*
Y2656500D1*
X2987751Y2806500D1*
X3225251D1*
X3287751Y2744000D1*
Y2700251D1*
X3381520Y2606480D1*
X2787749Y2307829D2*
Y2681499D1*
X2944000Y2837751D1*
X3381500D1*
X3481500Y2737751D1*
Y2706500D1*
X3581520Y2606480D1*
X2587749Y2307829D2*
Y2050249D1*
X2556500Y2019000D1*
X1919000D1*
X1281500Y2656500D1*
Y3294197D1*
X1250446D1*
X1206500Y3250251D1*
X1131303D1*
X2537749Y2307829D2*
Y2087749D1*
X2531500Y2081500D1*
X2037749D1*
X1781520Y2337730D1*
Y3294197D1*
X1750446D1*
X1706500Y3250251D1*
X1606303D1*
X2487749Y2307829D2*
Y2162749D1*
X2456500Y2131500D1*
X2175249D1*
X2031500Y2275249D1*
Y2850251D1*
X2256520Y3075269D1*
Y3294197D1*
X2225446D1*
X2181500Y3250249D1*
X2093803D1*
X2437749Y2307829D2*
Y2212749D1*
X2400249Y2175249D1*
X2200251D1*
X2131500Y2244000D1*
Y2750249D1*
X2331500Y2950249D1*
X2569000D1*
X2750260Y3131509D1*
Y3294197D1*
X2706697D1*
X2662751Y3250251D1*
X2581303D1*
X2387749Y2307829D2*
Y2250249D1*
X2350249Y2212751D1*
X2219000D1*
X2175249Y2256500D1*
Y2700249D1*
X2375251Y2900249D1*
X2587751D1*
X2700251Y3012751D1*
X3212751D1*
X3250249Y3050249D1*
Y3294197D1*
X3225446D1*
X3181500Y3250251D1*
X3075054D1*
X2337749Y2307829D2*
Y2425249D1*
X2787751Y2875251D1*
X3606500D1*
X3725251Y2994000D1*
Y3294197D1*
Y3294000D1*
X3681500Y3250251D1*
X3556303D1*
X2287749Y2307829D2*
Y2456500D1*
X2756500Y2925249D1*
X3569000D1*
X3950249D2*
X4200251D1*
X4206500Y2931500D1*
Y3294197D1*
X4181697D1*
X4137749Y3250249D1*
X4031303D1*
X2237749Y2307829D2*
Y2556499D1*
X2544000Y2862751D1*
X2619000D1*
X2725251Y2969000D1*
X3631500D1*
X3831500D2*
Y2894000D1*
X3894000Y2831500D1*
X4669000D1*
X4719000Y2881500D1*
Y3294197D1*
Y3294000D1*
X4675251Y3250251D1*
X4531303D1*
X2237749Y1937751D2*
Y1837749D1*
X1837751Y1437751D1*
X1150249D1*
X937751Y1225251D1*
Y912554D1*
X1050251Y844000D2*
Y881500D1*
X1019196Y912554D1*
X937751D1*
X2287749Y1937751D2*
Y1800249D1*
X1800249Y1312751D1*
X1562751D1*
X1419000Y1169000D1*
Y912554D1*
X1525260Y844000D2*
Y862740D1*
X1475446Y912554D1*
X1419000D1*
X2337749Y1937751D2*
Y1687749D1*
X1912751Y1262751D1*
Y918803D1*
X2019000Y844000D2*
Y881500D1*
X1981697Y918803D1*
X1912751D1*
X2387749Y1937751D2*
Y1000251D1*
X2400249Y987751D1*
Y918803D1*
X2500251Y844000D2*
Y881500D1*
X2462946Y918803D1*
X2400249D1*
X2437749Y1937751D2*
Y1444000D1*
X2725251Y1156500D1*
X2750251D1*
X2887751Y1019000D1*
Y918803D1*
X2994000Y844000D2*
Y869000D1*
X2944197Y918803D1*
X2887751D1*
X2487749Y1937751D2*
Y1569000D1*
X2725251Y1331500D1*
X3181500D1*
X3362751Y1150249D1*
Y912554D1*
X3487760Y844000D2*
Y868990D1*
X3444196Y912554D1*
X3362751D1*
X2537749Y1937751D2*
Y1644000D1*
X2662751Y1519000D1*
X3581500D1*
X3869000Y1231500D1*
Y918803D1*
X3969000Y844000D2*
Y869000D1*
X3919197Y918803D1*
X3869000D1*
X2587749Y1937751D2*
Y1825249D1*
X2569000Y1806500D1*
Y1712749D1*
X2675249Y1606500D1*
X3912751D1*
X4344000Y1175249D1*
Y918803D1*
X4456520Y844000D2*
Y862731D1*
X4400446Y918803D1*
X4344000D1*
X2706500Y1756500D2*
Y1825249D1*
X2687749Y1844000D1*
Y1937751D1*
X3287751Y2053891D2*
Y1869000D1*
X2706500Y1756500D2*
X3175251D1*
X3287751Y1869000D1*
X3581520Y2506480D2*
Y2162769D1*
X3287751Y1869000D1*
X1087946Y1731500D2*
Y1869000D1*
X1387749Y1612751D2*
Y1537749D1*
X1356500Y1506500D1*
X1125348D1*
X944098D1*
X762848D1*
X666226D1*
X650249D1*
X581500Y1575249D1*
Y1869000D1*
X762848Y1640949D2*
Y1506500D1*
X944098Y1640949D2*
Y1506500D1*
X1125348Y1640949D2*
Y1506500D1*
X4573134Y681480D2*
Y660634D1*
X4500249Y587749D1*
X4181172D1*
X4085614D1*
X3680155D1*
X3598134D1*
X3231507D1*
X3110614D1*
X2728014D1*
X2623134D1*
X2258618D1*
X2137740D1*
X1749004D1*
X1648134D1*
X1264984D1*
X1160614D1*
X900251D1*
X666226Y821774D1*
Y1506500D1*
X1160614Y681480D2*
Y587749D1*
X1648134Y681480D2*
Y587749D1*
X2137740Y681480D2*
Y587749D1*
X2623134Y681480D2*
Y587749D1*
X3110614Y681480D2*
Y587749D1*
X3598134Y681480D2*
Y587749D1*
X4085614Y681480D2*
Y587749D1*
X1050251Y1006500D2*
Y1069000D1*
X1087751Y1106500D1*
X1194000D1*
X1264984Y1035516D1*
Y587749D1*
X1525251Y1006500D2*
Y1050251D1*
X1587751Y1112751D1*
X1694000D1*
X1749004Y1057747D1*
Y587749D1*
X2019000Y1006500D2*
Y1037749D1*
X2106500Y1125249D1*
X2200251D1*
X2258618Y1066882D1*
Y587749D1*
X2500231Y1006500D2*
Y1043980D1*
X2556500Y1100249D1*
X2656500D1*
X2728014Y1028735D1*
Y587749D1*
X2994000Y1006500D2*
Y1037749D1*
X3062751Y1106500D1*
X3169000D1*
X3231507Y1043993D1*
Y587749D1*
X3487751Y1006500D2*
Y1050251D1*
X3544000Y1106500D1*
X3631500D1*
X3680155Y1057845D1*
Y587749D1*
X3969000Y1006500D2*
Y1069000D1*
X4031500Y1131500D1*
X4144000D1*
X4181172Y1094328D1*
Y587749D1*
X4456500Y1006500D2*
Y1056500D1*
X4556500Y1156500D1*
X4644000D1*
X4706500Y1094000D1*
Y814846D1*
X4573134Y681480D1*
X4423134Y3493134D2*
X4419866D1*
X4312751Y3600249D1*
X3935634D1*
X3448134D1*
X2960634D1*
X2473134D1*
X1997446D1*
X1484168D1*
X1019659D1*
X843999D1*
X494000Y3250251D1*
Y1887749D1*
X519000Y1862751D1*
X575251D1*
X581500Y1869000D1*
X1010634Y3493114D2*
Y3591224D1*
X1019659Y3600249D1*
X1498134Y3493114D2*
Y3586283D1*
X1484168Y3600249D1*
X1987740Y3493134D2*
Y3590543D1*
X1997446Y3600249D1*
X2473134Y3493134D2*
Y3600249D1*
X2960634Y3493134D2*
Y3600249D1*
X3448134Y3493134D2*
Y3600249D1*
X3935634Y3493134D2*
Y3600249D1*
X4531303Y3094000D2*
Y3037554D1*
X4500249Y3006500D1*
X4400249D1*
X4350249Y3056500D1*
Y3420249D1*
X4423134Y3493134D1*
X4031303Y3094000D2*
Y3062554D1*
X3981500Y3012751D1*
X3900249D1*
X3862751Y3050249D1*
Y3420251D1*
X3935634Y3493134D1*
X3556303Y3094000D2*
Y3056303D1*
X3519000Y3019000D1*
X3412751D1*
X3362751Y3069000D1*
Y3407751D1*
X3448134Y3493134D1*
X3075054Y3094000D2*
Y3062554D1*
X3056500Y3044000D1*
X2925249D1*
X2869000Y3100249D1*
Y3401500D1*
X2960634Y3493134D1*
X2581303Y3094000D2*
Y3031303D1*
X2556500Y3006500D1*
X2462749D1*
X2369000Y3100249D1*
Y3389000D1*
X2473134Y3493134D1*
X2094000Y3094000D2*
Y3019001D1*
X2062749Y2987751D1*
X1944000D1*
X1894000Y3037751D1*
Y3399394D1*
X1987740Y3493134D1*
X1606303Y3094000D2*
Y3056303D1*
X1550249Y3000249D1*
X1456501D1*
X1412751Y3044000D1*
Y3407731D1*
X1498134Y3493114D1*
X1131303Y3094000D2*
Y3025054D1*
X1094000Y2987751D1*
X975249D1*
X919000Y3044000D1*
Y3401480D1*
X1010634Y3493114D1*
X981500Y1731500D2*
Y2169000D1*
X2887749Y1937751D2*
Y2119000D1*
X725446Y1731500D2*
Y2269000D1*
X2837749Y1937751D2*
Y2212749D1*
X1056500Y3094000D2*
Y3250251D1*
X1531500Y3094000D2*
Y3250251D1*
X2019197Y3094000D2*
Y3250052D1*
X2019000Y3250249D1*
X2506500Y3094000D2*
Y3250251D1*
X3000251Y3094000D2*
Y3250251D1*
X3481500Y3094000D2*
Y3250251D1*
X3956500Y3094000D2*
Y3250249D1*
X4456500Y3094000D2*
Y3250251D1*
X1125054Y1006500D2*
Y844000D1*
X1600063D2*
Y1006491D1*
X1600054Y1006500D1*
X2093803Y844000D2*
Y1006500D1*
X2575054Y844000D2*
Y1006480D1*
X2575034Y1006500D1*
X3068803Y844000D2*
Y1006500D1*
X3562563Y844000D2*
Y1006491D1*
X3562554Y1006500D1*
X4043803Y844000D2*
Y1006500D1*
X4531323Y844000D2*
Y1006480D1*
X4531303Y1006500D1*
X1281500Y3369000D2*
X1206500D1*
X1160634Y3414866D1*
Y3493114D1*
X1781520Y3369000D2*
X1694000D1*
X1648134Y3414866D1*
Y3493114D1*
X2256520Y3369000D2*
X2169000D1*
X2137740Y3400260D1*
Y3493134D1*
X2750260Y3369000D2*
X2675249D1*
X2623134Y3421115D1*
Y3493134D1*
X3250249Y3369000D2*
X3156500D1*
X3110634Y3414866D1*
Y3493134D1*
X3725251Y3369000D2*
X3650249D1*
X3598134Y3421117D1*
Y3493134D1*
X4206500Y3369000D2*
X4125251D1*
X4085634Y3408617D1*
Y3493134D1*
X4719000Y3369000D2*
X4619000D1*
X4573134Y3414866D1*
Y3493134D1*
X937751Y837751D2*
Y800249D1*
X1010614Y727386D1*
Y681480D1*
X1419000Y837751D2*
Y812751D1*
X1498134Y733615D1*
Y681480D1*
X1912751Y844000D2*
Y806500D1*
X1987740Y731510D1*
Y681480D1*
X2400249Y844000D2*
Y806501D1*
X2473134Y733615D1*
Y681480D1*
X2887751Y844000D2*
Y800249D1*
X2960614Y727386D1*
Y681480D1*
X3362751Y837751D2*
X3450249Y750251D1*
Y683596D1*
X3448134Y681480D1*
X3869000Y844000D2*
Y806500D1*
X3935614Y739886D1*
Y681480D1*
X4344000Y844000D2*
Y806500D1*
X4423134Y727366D1*
Y681480D1*
X906697Y1731500D2*
X904726Y2069000D1*
X2787749Y1937751D2*
X2789636Y2069000D1*
D31*
X1162749Y1969000D3*
X2737749Y2012749D3*
X3287751Y2369000D3*
X2737749D3*
X800249D3*
X1387554D3*
X3569000Y2925249D3*
X3950249D3*
X3631500Y2969000D3*
X3831500D3*
X3287751Y1869000D3*
D3*
X1087946D3*
X981500Y2169000D3*
X2887749Y2119000D3*
X725446Y2269000D3*
X2837749Y2212749D3*
X904726Y2069000D3*
X2789636D3*
X433941Y3719131D2*
D17*
X477887D1*
X625060D2*
X4966101D1*
X5113239D2*
X5153991D1*
X433869Y3694262D2*
X463605D1*
X639341D2*
X4951783D1*
X5127556D2*
X5153991D1*
X433833Y3669394D2*
X457936D1*
X645012D2*
X4946114D1*
X5133226D2*
X5153991D1*
X433797Y3644525D2*
X459227D1*
X643719D2*
X4947441D1*
X5131899D2*
X5153991D1*
X433761Y3619656D2*
X467875D1*
X635108D2*
X4956054D1*
X5123286D2*
X5153991D1*
X433689Y3594787D2*
X486786D1*
X616197D2*
X4974965D1*
X5104375D2*
X5153991D1*
X433654Y3569919D2*
X5153991D1*
X433618Y3545050D2*
X966630D1*
X1054665D2*
X1116625D1*
X1204661D2*
X1454115D1*
X1542152D2*
X1604112D1*
X1692148D2*
X1943684D1*
X2031791D2*
X2093680D1*
X2181787D2*
X2429089D1*
X2517161D2*
X2579085D1*
X2667193D2*
X2916576D1*
X3004684D2*
X3066572D1*
X3154680D2*
X3404098D1*
X3492171D2*
X3554094D1*
X3642167D2*
X3891585D1*
X3979693D2*
X4041581D1*
X4129689D2*
X4379072D1*
X4467180D2*
X4529104D1*
X4617176D2*
X5153991D1*
X433546Y3520181D2*
X947395D1*
X1073864D2*
X1097391D1*
X1223860D2*
X1434917D1*
X1561350D2*
X1584913D1*
X1711382D2*
X1924486D1*
X2050990D2*
X2074482D1*
X2200986D2*
X2409891D1*
X2536360D2*
X2559887D1*
X2686391D2*
X2897378D1*
X3023882D2*
X3047374D1*
X3173878D2*
X3384900D1*
X3511369D2*
X3534896D1*
X3661365D2*
X3872387D1*
X3998891D2*
X4022383D1*
X4148887D2*
X4359874D1*
X4486378D2*
X4509906D1*
X4636374D2*
X5153991D1*
X433510Y3495312D2*
X941690D1*
X1079605D2*
X1091686D1*
X1229601D2*
X1429176D1*
X1567092D2*
X1579203D1*
X1717088D2*
X1918781D1*
X2056696D2*
X2068776D1*
X2206692D2*
X2404186D1*
X2542101D2*
X2554181D1*
X2692097D2*
X2891672D1*
X3029588D2*
X3041668D1*
X3179583D2*
X3379196D1*
X3517073D2*
X3529190D1*
X3667106D2*
X3866681D1*
X4004597D2*
X4016677D1*
X4154593D2*
X4354168D1*
X4492083D2*
X4504164D1*
X4642079D2*
X5153991D1*
X433474Y3470444D2*
X945636D1*
X1075657D2*
X1095633D1*
X1225654D2*
X1433123D1*
X1563144D2*
X1583119D1*
X1713140D2*
X1922727D1*
X2052748D2*
X2072723D1*
X2202744D2*
X2408133D1*
X2538118D2*
X2558129D1*
X2688150D2*
X2895619D1*
X3025640D2*
X3045615D1*
X3175636D2*
X3383142D1*
X3513127D2*
X3533138D1*
X3663123D2*
X3870629D1*
X4000650D2*
X4020625D1*
X4150646D2*
X4358115D1*
X4488136D2*
X4508147D1*
X4638133D2*
X5153991D1*
X433403Y3445575D2*
X961642D1*
X1059617D2*
X1111638D1*
X1209613D2*
X1449129D1*
X1547140D2*
X1599160D1*
X1697135D2*
X1938768D1*
X2036707D2*
X2088764D1*
X2186703D2*
X2424173D1*
X2522113D2*
X2574169D1*
X2672109D2*
X2911660D1*
X3009600D2*
X3061656D1*
X3159596D2*
X3399182D1*
X3497087D2*
X3549178D1*
X3647118D2*
X3886669D1*
X3984609D2*
X4036665D1*
X4134605D2*
X4374156D1*
X4472096D2*
X4524152D1*
X4622092D2*
X5153991D1*
X433366Y3420706D2*
X1125130D1*
X1203944D2*
X1222986D1*
X1340016D2*
X1612652D1*
X1691430D2*
X1722996D1*
X1840026D2*
X2102256D1*
X2173211D2*
X2197995D1*
X2315026D2*
X2587661D1*
X2672684D2*
X2691726D1*
X2808793D2*
X3075148D1*
X3153962D2*
X3191736D1*
X3308766D2*
X3562635D1*
X3647693D2*
X3666735D1*
X3783765D2*
X4050157D1*
X4122692D2*
X4147978D1*
X4265008D2*
X4537644D1*
X4616458D2*
X4660475D1*
X4777507D2*
X5153991D1*
X433331Y3395837D2*
X1131194D1*
X1340016D2*
X1618681D1*
X1840026D2*
X2102543D1*
X2315026D2*
X2599252D1*
X2808793D2*
X3081177D1*
X3308766D2*
X3574261D1*
X3783765D2*
X4052705D1*
X4265008D2*
X4543673D1*
X4777507D2*
X5153991D1*
X433295Y3370969D2*
X1155381D1*
X1340016D2*
X1642867D1*
X1840026D2*
X2117866D1*
X2315026D2*
X2624119D1*
X2808793D2*
X3105362D1*
X3308766D2*
X3599129D1*
X3783765D2*
X4074129D1*
X4265008D2*
X4567895D1*
X4777507D2*
X5153991D1*
X433223Y3346100D2*
X1180248D1*
X1340016D2*
X1667735D1*
X1840026D2*
X2142734D1*
X2315026D2*
X2648988D1*
X2808793D2*
X3130231D1*
X3308766D2*
X3623997D1*
X3783765D2*
X4098996D1*
X4265008D2*
X4592762D1*
X4777507D2*
X5153991D1*
X433188Y3321231D2*
X1222986D1*
X1340016D2*
X1722996D1*
X1840026D2*
X2197995D1*
X2315026D2*
X2685302D1*
X2808793D2*
X3191736D1*
X3308766D2*
X3666735D1*
X3783765D2*
X4147978D1*
X4265008D2*
X4660475D1*
X4777507D2*
X5153991D1*
X433151Y3296362D2*
X1001903D1*
X1185894D2*
X1203465D1*
X1340016D2*
X1476903D1*
X1660892D2*
X1703475D1*
X1840026D2*
X1964425D1*
X2148379D2*
X2178474D1*
X2315026D2*
X2451912D1*
X2635902D2*
X2659717D1*
X2808793D2*
X2945678D1*
X3129633D2*
X3178459D1*
X3308766D2*
X3426921D1*
X3610875D2*
X3666735D1*
X3783765D2*
X3901920D1*
X4085874D2*
X4134701D1*
X4265008D2*
X4401930D1*
X4585885D2*
X4660475D1*
X4777507D2*
X5153991D1*
X433080Y3271493D2*
X1001903D1*
X1340016D2*
X1476903D1*
X1840026D2*
X1964425D1*
X2315026D2*
X2451912D1*
X2808793D2*
X2945678D1*
X3308766D2*
X3426921D1*
X3783765D2*
X3901920D1*
X4265008D2*
X4401930D1*
X4777507D2*
X5153991D1*
X433043Y3246625D2*
X1001903D1*
X1340016D2*
X1476903D1*
X1840026D2*
X1964425D1*
X2315026D2*
X2451912D1*
X2808793D2*
X2945678D1*
X3308766D2*
X3426921D1*
X3783765D2*
X3901920D1*
X4265008D2*
X4401930D1*
X4777507D2*
X5153991D1*
X433008Y3221756D2*
X1001903D1*
X1225618D2*
X1246024D1*
X1316979D2*
X1476903D1*
X1725627D2*
X1746034D1*
X1817025D2*
X1964425D1*
X2200627D2*
X2221033D1*
X2292024D2*
X2451912D1*
X2681870D2*
X2714764D1*
X2785755D2*
X2945678D1*
X3200612D2*
X3214773D1*
X3285728D2*
X3426921D1*
X3760728D2*
X3901920D1*
X4156890D2*
X4171016D1*
X4241971D2*
X4401930D1*
X4754504D2*
X5153991D1*
X432972Y3196887D2*
X1001903D1*
X1185894D2*
X1246024D1*
X1316979D2*
X1476903D1*
X1660892D2*
X1746034D1*
X1817025D2*
X1964425D1*
X2148379D2*
X2221033D1*
X2292024D2*
X2451912D1*
X2635902D2*
X2714764D1*
X2785755D2*
X2945678D1*
X3129633D2*
X3214773D1*
X3285728D2*
X3426921D1*
X3610875D2*
X3689773D1*
X3760728D2*
X3901920D1*
X4085874D2*
X4171016D1*
X4241971D2*
X4401930D1*
X4585885D2*
X4683513D1*
X4754504D2*
X5153991D1*
X432900Y3172018D2*
X1020993D1*
X1091984D2*
X1246024D1*
X1316979D2*
X1496029D1*
X1566984D2*
X1746034D1*
X1817025D2*
X1983694D1*
X2054686D2*
X2221033D1*
X2292024D2*
X2471003D1*
X2541993D2*
X2714764D1*
X2785755D2*
X2964769D1*
X3035723D2*
X3214773D1*
X3285728D2*
X3446012D1*
X3517003D2*
X3689773D1*
X3760728D2*
X3921010D1*
X3992001D2*
X4171016D1*
X4241971D2*
X4421021D1*
X4491975D2*
X4683513D1*
X4754504D2*
X5153991D1*
X432864Y3147150D2*
X1001903D1*
X1111075D2*
X1246024D1*
X1316979D2*
X1476903D1*
X1586075D2*
X1746034D1*
X1817025D2*
X1964605D1*
X2073776D2*
X2221033D1*
X2292024D2*
X2451912D1*
X2561084D2*
X2714764D1*
X2785755D2*
X2945678D1*
X3054850D2*
X3214773D1*
X3285728D2*
X3426921D1*
X3536093D2*
X3689773D1*
X3760728D2*
X3901920D1*
X4011092D2*
X4171016D1*
X4241971D2*
X4401930D1*
X4511066D2*
X4683513D1*
X4754504D2*
X5153991D1*
X432828Y3122281D2*
X1001903D1*
X1111075D2*
X1246024D1*
X1316979D2*
X1476903D1*
X1586075D2*
X1746034D1*
X1817025D2*
X1964605D1*
X2073776D2*
X2221033D1*
X2292024D2*
X2451912D1*
X2561084D2*
X2691869D1*
X2784427D2*
X2945678D1*
X3054850D2*
X3214773D1*
X3285728D2*
X3426921D1*
X3536093D2*
X3689773D1*
X3760728D2*
X3901920D1*
X4011092D2*
X4171016D1*
X4241971D2*
X4401930D1*
X4511066D2*
X4683513D1*
X4754504D2*
X5153991D1*
X432756Y3097412D2*
X1001903D1*
X1111075D2*
X1246024D1*
X1316979D2*
X1476903D1*
X1586075D2*
X1746034D1*
X1817025D2*
X1964605D1*
X2073776D2*
X2221033D1*
X2292024D2*
X2451912D1*
X2561084D2*
X2667001D1*
X2765301D2*
X2945678D1*
X3054850D2*
X3214773D1*
X3285728D2*
X3426921D1*
X3536093D2*
X3689773D1*
X3760728D2*
X3901920D1*
X4011092D2*
X4171016D1*
X4241971D2*
X4401930D1*
X4511066D2*
X4683513D1*
X4754504D2*
X5153991D1*
X432720Y3072543D2*
X1001903D1*
X1111075D2*
X1246024D1*
X1316979D2*
X1476903D1*
X1586075D2*
X1746034D1*
X1817025D2*
X1964605D1*
X2073776D2*
X2204634D1*
X2291881D2*
X2451912D1*
X2561084D2*
X2642134D1*
X2740433D2*
X2945678D1*
X3054850D2*
X3214773D1*
X3285728D2*
X3426921D1*
X3536093D2*
X3689773D1*
X3760728D2*
X3901920D1*
X4011092D2*
X4171016D1*
X4241971D2*
X4401930D1*
X4511066D2*
X4683513D1*
X4754504D2*
X5153991D1*
X432685Y3047675D2*
X1001903D1*
X1111075D2*
X1246024D1*
X1316979D2*
X1476903D1*
X1586075D2*
X1746034D1*
X1817025D2*
X1964605D1*
X2073776D2*
X2179766D1*
X2278064D2*
X2451912D1*
X2561084D2*
X2617266D1*
X2715564D2*
X2945678D1*
X3054850D2*
X3198518D1*
X3285621D2*
X3426921D1*
X3536093D2*
X3689773D1*
X3760728D2*
X3901920D1*
X4011092D2*
X4171016D1*
X4241971D2*
X4401930D1*
X4511066D2*
X4683513D1*
X4754504D2*
X5153991D1*
X432648Y3022806D2*
X1246024D1*
X1316979D2*
X1746034D1*
X1817025D2*
X2154898D1*
X2253197D2*
X2592398D1*
X3271949D2*
X3689773D1*
X3760728D2*
X4171016D1*
X4241971D2*
X4683513D1*
X4754504D2*
X5153991D1*
X432577Y2997937D2*
X1246024D1*
X1316979D2*
X1746034D1*
X1817025D2*
X2130030D1*
X2228329D2*
X2567530D1*
X3670371D2*
X3680049D1*
X3760728D2*
X3792617D1*
X3870390D2*
X4171016D1*
X4241971D2*
X4683513D1*
X4754504D2*
X5153991D1*
X432541Y2973068D2*
X1246024D1*
X1316979D2*
X1746034D1*
X1817025D2*
X2105163D1*
X2203462D2*
X2305181D1*
X3753264D2*
X3782677D1*
X3880329D2*
X4171016D1*
X4241971D2*
X4683513D1*
X4754504D2*
X5153991D1*
X432505Y2948199D2*
X1246024D1*
X1316979D2*
X1746034D1*
X1817025D2*
X2080295D1*
X2178594D2*
X2280314D1*
X3728612D2*
X3787413D1*
X3875593D2*
X3907303D1*
X4241971D2*
X4683513D1*
X4754504D2*
X5153991D1*
X432433Y2923331D2*
X1246024D1*
X1316979D2*
X1746034D1*
X1817025D2*
X2055428D1*
X2153726D2*
X2255446D1*
X3703744D2*
X3796026D1*
X3866980D2*
X3901310D1*
X4240966D2*
X4683513D1*
X4754504D2*
X5153991D1*
X432398Y2898462D2*
X1246024D1*
X1316979D2*
X1746034D1*
X1817025D2*
X2030559D1*
X2128858D2*
X2230577D1*
X3678875D2*
X3796026D1*
X3876203D2*
X3909743D1*
X4222018D2*
X4683513D1*
X4754504D2*
X5153991D1*
X432362Y2873593D2*
X1246024D1*
X1316979D2*
X1746034D1*
X1817025D2*
X2005692D1*
X2103991D2*
X2205675D1*
X3654008D2*
X3803094D1*
X3901071D2*
X4661948D1*
X4753535D2*
X5153991D1*
X432290Y2848724D2*
X1246024D1*
X1316979D2*
X1746034D1*
X1817025D2*
X1996003D1*
X2079123D2*
X2180807D1*
X2372871D2*
X2480835D1*
X3628602D2*
X3827639D1*
X4735378D2*
X5153991D1*
X432255Y2823856D2*
X1246024D1*
X1316979D2*
X1746034D1*
X1817025D2*
X1996003D1*
X2066995D2*
X2155938D1*
X2348003D2*
X2455967D1*
X2554265D2*
X2605962D1*
X2785503D2*
X2880944D1*
X3444552D2*
X3852508D1*
X4710510D2*
X5153991D1*
X432218Y2798987D2*
X1246024D1*
X1316979D2*
X1746034D1*
X1817025D2*
X1996003D1*
X2066995D2*
X2131071D1*
X2323135D2*
X2431098D1*
X2529398D2*
X2581094D1*
X2760635D2*
X2856075D1*
X3281925D2*
X3371121D1*
X3469420D2*
X3885916D1*
X4677067D2*
X5153991D1*
X432182Y2774118D2*
X1246024D1*
X1316979D2*
X1746034D1*
X1817025D2*
X1996003D1*
X2066995D2*
X2106203D1*
X2298268D2*
X2406231D1*
X2504530D2*
X2556227D1*
X2735768D2*
X2831207D1*
X3306793D2*
X3395988D1*
X3494287D2*
X5153991D1*
X432110Y2749249D2*
X1246024D1*
X1316979D2*
X1746034D1*
X1817025D2*
X1996003D1*
X2066995D2*
X2096012D1*
X2273400D2*
X2381364D1*
X2479663D2*
X2531360D1*
X2710900D2*
X2806340D1*
X2979636D2*
X3139238D1*
X3223757D2*
X3233335D1*
X3322833D2*
X3339291D1*
X3514921D2*
X3539274D1*
X3623757D2*
X5153991D1*
X432075Y2724381D2*
X1246024D1*
X1316979D2*
X1746034D1*
X1817025D2*
X1996003D1*
X2066995D2*
X2096012D1*
X2248533D2*
X2356496D1*
X2454794D2*
X2506492D1*
X2686033D2*
X2781472D1*
X2954769D2*
X3123412D1*
X3239581D2*
X3252273D1*
X3639583D2*
X5153991D1*
X432039Y2699512D2*
X1246024D1*
X1316979D2*
X1746034D1*
X1817025D2*
X1996003D1*
X2066995D2*
X2096012D1*
X2223664D2*
X2331592D1*
X2429927D2*
X2481623D1*
X2661164D2*
X2757609D1*
X2929902D2*
X3121045D1*
X3241950D2*
X3252273D1*
X3641987D2*
X5153991D1*
X431967Y2674643D2*
X1246024D1*
X1316979D2*
X1746034D1*
X1817025D2*
X1996003D1*
X2066995D2*
X2096012D1*
X2210747D2*
X2306724D1*
X2405059D2*
X2456756D1*
X2636297D2*
X2752262D1*
X2905033D2*
X3130087D1*
X3432962D2*
X3464205D1*
X3632944D2*
X5153991D1*
X431932Y2649774D2*
X1246706D1*
X1337361D2*
X1746034D1*
X1817025D2*
X1996003D1*
X2066995D2*
X2096012D1*
X2210747D2*
X2281857D1*
X2380192D2*
X2431888D1*
X2611429D2*
X2752262D1*
X2880165D2*
X3139811D1*
X3423201D2*
X3489072D1*
X3623184D2*
X5153991D1*
X431895Y2624906D2*
X1263930D1*
X1362265D2*
X1746034D1*
X1817025D2*
X1996003D1*
X2066995D2*
X2096012D1*
X2210747D2*
X2256988D1*
X2355324D2*
X2407021D1*
X2586562D2*
X2752262D1*
X2873240D2*
X3050747D1*
X3439421D2*
X3513940D1*
X3639403D2*
X5153991D1*
X431860Y2600037D2*
X1288798D1*
X1387133D2*
X1746034D1*
X1817025D2*
X1996003D1*
X2066995D2*
X2096012D1*
X2210747D2*
X2232121D1*
X2330455D2*
X2382117D1*
X2561693D2*
X2752262D1*
X2873240D2*
X3025879D1*
X3442041D2*
X3521009D1*
X3642059D2*
X5153991D1*
X431787Y2575168D2*
X1313665D1*
X1412000D2*
X1746034D1*
X1817025D2*
X1996003D1*
X2066995D2*
X2096012D1*
X2305588D2*
X2357249D1*
X2536825D2*
X2752262D1*
X2873240D2*
X3001012D1*
X3233266D2*
X3252273D1*
X3433285D2*
X3529730D1*
X3633303D2*
X5153991D1*
X431752Y2550299D2*
X1338533D1*
X1436867D2*
X1746034D1*
X1817025D2*
X1996003D1*
X2066995D2*
X2096012D1*
X2280685D2*
X2332382D1*
X2511958D2*
X2752262D1*
X2873240D2*
X2976144D1*
X3074442D2*
X3120613D1*
X3242381D2*
X3252273D1*
X3442399D2*
X3520651D1*
X3642417D2*
X5153991D1*
X431715Y2525430D2*
X1363400D1*
X1461735D2*
X1746034D1*
X1817025D2*
X1996003D1*
X2066995D2*
X2096012D1*
X2273220D2*
X2307513D1*
X2487091D2*
X2752262D1*
X2873240D2*
X2951276D1*
X3049575D2*
X3120613D1*
X3242381D2*
X3252273D1*
X3442399D2*
X3520651D1*
X3642417D2*
X5153991D1*
X431644Y2500562D2*
X1388269D1*
X1486604D2*
X1746034D1*
X1817025D2*
X1996003D1*
X2066995D2*
X2096012D1*
X2273220D2*
X2282646D1*
X2462223D2*
X2752262D1*
X2873240D2*
X2926408D1*
X3024707D2*
X3120613D1*
X3242381D2*
X3252273D1*
X3442399D2*
X3520651D1*
X3642417D2*
X5153991D1*
X431608Y2475693D2*
X1413172D1*
X1511471D2*
X1746034D1*
X1817025D2*
X1996003D1*
X2066995D2*
X2096012D1*
X2437354D2*
X2752262D1*
X2873240D2*
X2901541D1*
X2999840D2*
X3120613D1*
X3242381D2*
X3252273D1*
X3442399D2*
X3520651D1*
X3642417D2*
X5153991D1*
X431572Y2450824D2*
X1438039D1*
X1536339D2*
X1746034D1*
X1817025D2*
X1996003D1*
X2066995D2*
X2096012D1*
X2412487D2*
X2752262D1*
X2974971D2*
X3120613D1*
X3242381D2*
X3252273D1*
X3442399D2*
X3520651D1*
X3642417D2*
X5153991D1*
X431500Y2425955D2*
X519046D1*
X643971D2*
X1462908D1*
X1561206D2*
X1746034D1*
X1817025D2*
X1996003D1*
X2066995D2*
X2096012D1*
X2387619D2*
X2752262D1*
X2950104D2*
X3252273D1*
X3323228D2*
X4937214D1*
X5062104D2*
X5153991D1*
X431465Y2401087D2*
X519046D1*
X643971D2*
X764098D1*
X836382D2*
X1351416D1*
X1423698D2*
X1487776D1*
X1586075D2*
X1746034D1*
X1817025D2*
X1996003D1*
X2066995D2*
X2096012D1*
X2373230D2*
X2701594D1*
X2925236D2*
X3251591D1*
X3323909D2*
X4937214D1*
X5062104D2*
X5153991D1*
X431429Y2376218D2*
X519046D1*
X643971D2*
X751827D1*
X848690D2*
X1339143D1*
X1435971D2*
X1512643D1*
X1610942D2*
X1746034D1*
X1817025D2*
X1996003D1*
X2066995D2*
X2096012D1*
X2373230D2*
X2689322D1*
X2923227D2*
X3239319D1*
X3336182D2*
X4937214D1*
X5062104D2*
X5153991D1*
X431392Y2351349D2*
X519046D1*
X643971D2*
X754734D1*
X845748D2*
X1342050D1*
X1433064D2*
X1537510D1*
X1635810D2*
X1746034D1*
X1817060D2*
X1996003D1*
X2066995D2*
X2096012D1*
X2928538D2*
X3242224D1*
X3333276D2*
X4937214D1*
X5062104D2*
X5153991D1*
X431322Y2326480D2*
X519046D1*
X643971D2*
X764745D1*
X835736D2*
X1352062D1*
X1423052D2*
X1562378D1*
X1660677D2*
X1748008D1*
X1841929D2*
X1996003D1*
X2066995D2*
X2096012D1*
X2928538D2*
X3252273D1*
X3323228D2*
X4937214D1*
X5062104D2*
X5153991D1*
X431285Y2301612D2*
X528698D1*
X634318D2*
X689819D1*
X835736D2*
X1352062D1*
X1423052D2*
X1587247D1*
X1685545D2*
X1768497D1*
X1866797D2*
X1996003D1*
X2066995D2*
X2096012D1*
X2928538D2*
X3252273D1*
X3323228D2*
X4945970D1*
X5053348D2*
X5153991D1*
X431249Y2276743D2*
X519549D1*
X643469D2*
X677115D1*
X835736D2*
X1352062D1*
X1423052D2*
X1612114D1*
X1710413D2*
X1793365D1*
X1891664D2*
X1996003D1*
X2079159D2*
X2096012D1*
X2928538D2*
X3252273D1*
X3323228D2*
X4937538D1*
X5061781D2*
X5153991D1*
X431177Y2251874D2*
X521558D1*
X641459D2*
X679735D1*
X835736D2*
X1352062D1*
X1423052D2*
X1636982D1*
X1735281D2*
X1818232D1*
X1916531D2*
X2005728D1*
X2928538D2*
X3231209D1*
X3344291D2*
X4940121D1*
X5059197D2*
X5153991D1*
X431142Y2227005D2*
X536198D1*
X626782D2*
X689962D1*
X835736D2*
X1352062D1*
X1423052D2*
X1661849D1*
X1760148D2*
X1843101D1*
X1941399D2*
X2030596D1*
X2623235D2*
X2690362D1*
X2773231D2*
X2790982D1*
X2884508D2*
X3231209D1*
X3344291D2*
X4955766D1*
X5043551D2*
X5153991D1*
X431106Y2202136D2*
X529022D1*
X633959D2*
X689962D1*
X835736D2*
X946391D1*
X1016629D2*
X1352062D1*
X1423052D2*
X1686718D1*
X1785016D2*
X1867969D1*
X1966268D2*
X2055463D1*
X2623235D2*
X2665495D1*
X2763793D2*
X2789976D1*
X2885512D2*
X3231209D1*
X3344291D2*
X4946293D1*
X5053025D2*
X5153991D1*
X431070Y2177268D2*
X519619D1*
X643396D2*
X689962D1*
X835736D2*
X933257D1*
X1029761D2*
X1352062D1*
X1423052D2*
X1711585D1*
X1809885D2*
X1892836D1*
X1991135D2*
X2080331D1*
X2623235D2*
X2640626D1*
X2738925D2*
X2802249D1*
X2873240D2*
X3231209D1*
X3344291D2*
X4937609D1*
X5061709D2*
X5153991D1*
X430999Y2152399D2*
X521378D1*
X641602D2*
X689962D1*
X835736D2*
X935589D1*
X1027429D2*
X1352062D1*
X1423052D2*
X1736453D1*
X1834752D2*
X1917703D1*
X2016003D2*
X2105198D1*
X2714058D2*
X2802249D1*
X2922581D2*
X3231209D1*
X3344291D2*
X4939978D1*
X5059340D2*
X5153991D1*
X430962Y2127530D2*
X535696D1*
X627285D2*
X689962D1*
X835736D2*
X945996D1*
X1016987D2*
X1352062D1*
X1423052D2*
X1761320D1*
X1859619D2*
X1942572D1*
X2040870D2*
X2130067D1*
X2689190D2*
X2802249D1*
X2935966D2*
X3231209D1*
X3344291D2*
X4955228D1*
X5044089D2*
X5153991D1*
X430927Y2102661D2*
X529381D1*
X633600D2*
X689962D1*
X835736D2*
X870173D1*
X1016987D2*
X1352062D1*
X1423052D2*
X1786188D1*
X1884487D2*
X1967440D1*
X2673222D2*
X2755062D1*
X2933777D2*
X4946652D1*
X5052667D2*
X5153991D1*
X430854Y2077793D2*
X519692D1*
X643325D2*
X689962D1*
X835736D2*
X856572D1*
X1016987D2*
X1352062D1*
X1423052D2*
X1811056D1*
X1909354D2*
X1992307D1*
X2673222D2*
X2741497D1*
X2923227D2*
X4937646D1*
X5061673D2*
X5153991D1*
X430819Y2052924D2*
X521235D1*
X641745D2*
X689962D1*
X835736D2*
X858618D1*
X1016987D2*
X1352062D1*
X1423052D2*
X1835924D1*
X1934223D2*
X2018753D1*
X2673222D2*
X2711857D1*
X2923227D2*
X4939798D1*
X5059520D2*
X5153991D1*
X430783Y2028055D2*
X535194D1*
X627787D2*
X689962D1*
X835736D2*
X869491D1*
X1016987D2*
X1352062D1*
X1423052D2*
X1860791D1*
X2673222D2*
X2691331D1*
X2923227D2*
X4954690D1*
X5044629D2*
X5153991D1*
X430747Y2003186D2*
X529739D1*
X633241D2*
X689962D1*
X835736D2*
X869634D1*
X1016987D2*
X1128755D1*
X1196766D2*
X1352062D1*
X1423052D2*
X1885659D1*
X2678568D2*
X2689752D1*
X2928538D2*
X4946975D1*
X5052343D2*
X5153991D1*
X430676Y1978318D2*
X519764D1*
X643218D2*
X689962D1*
X835736D2*
X869778D1*
X1016987D2*
X1114688D1*
X1210798D2*
X1352062D1*
X1423052D2*
X2196954D1*
X2678568D2*
X2696929D1*
X2928538D2*
X4937717D1*
X5061601D2*
X5153991D1*
X430639Y1953449D2*
X521092D1*
X641890D2*
X689962D1*
X835736D2*
X869921D1*
X1016987D2*
X1116446D1*
X1209075D2*
X1352062D1*
X1423052D2*
X2196954D1*
X2678568D2*
X2696929D1*
X2928538D2*
X4939655D1*
X5059664D2*
X5153991D1*
X430604Y1928580D2*
X534727D1*
X628290D2*
X689962D1*
X835736D2*
X870066D1*
X1016987D2*
X1127247D1*
X1198238D2*
X1352062D1*
X1423052D2*
X2196954D1*
X2678568D2*
X2696929D1*
X2928538D2*
X4954188D1*
X5045130D2*
X5153991D1*
X430531Y1903711D2*
X530098D1*
X632883D2*
X689962D1*
X835736D2*
X870209D1*
X1016987D2*
X1127247D1*
X1198238D2*
X1352062D1*
X1423052D2*
X2196954D1*
X2678568D2*
X2696929D1*
X2928538D2*
X4947333D1*
X5051984D2*
X5153991D1*
X430496Y1878843D2*
X519871D1*
X643146D2*
X689962D1*
X835736D2*
X870352D1*
X1016987D2*
X1127247D1*
X1198238D2*
X1352062D1*
X1423052D2*
X2196954D1*
X2678568D2*
X2696929D1*
X2928538D2*
X4937789D1*
X5061529D2*
X5153991D1*
X430459Y1853974D2*
X520948D1*
X642033D2*
X689962D1*
X835736D2*
X870496D1*
X1016987D2*
X1127247D1*
X1198238D2*
X1352062D1*
X1423052D2*
X2202265D1*
X2667193D2*
X4939475D1*
X5059843D2*
X5153991D1*
X430388Y1829105D2*
X534261D1*
X628756D2*
X689962D1*
X835736D2*
X870639D1*
X1016987D2*
X1127247D1*
X1198238D2*
X1352062D1*
X1423052D2*
X2179945D1*
X2667193D2*
X4953685D1*
X5045633D2*
X5153991D1*
X430352Y1804236D2*
X689962D1*
X835736D2*
X870782D1*
X1016987D2*
X1127247D1*
X1198238D2*
X1352062D1*
X1423052D2*
X2155077D1*
X2686283D2*
X5153991D1*
X430316Y1779367D2*
X689962D1*
X835736D2*
X870927D1*
X1016987D2*
X1127247D1*
X1198238D2*
X1352062D1*
X1423052D2*
X2130210D1*
X2686283D2*
X5153991D1*
X430281Y1754499D2*
X683647D1*
X842051D2*
X864898D1*
X1023303D2*
X1120967D1*
X1204554D2*
X1352062D1*
X1423052D2*
X2105343D1*
X2291163D2*
X2302274D1*
X2686283D2*
X5153991D1*
X430209Y1729630D2*
X683647D1*
X842051D2*
X864898D1*
X1023303D2*
X1120967D1*
X1204554D2*
X1258152D1*
X1442143D2*
X2080475D1*
X2266295D2*
X2302274D1*
X2686283D2*
X5153991D1*
X430173Y1704761D2*
X683647D1*
X842051D2*
X864898D1*
X1023303D2*
X1120967D1*
X1204554D2*
X1258152D1*
X1442143D2*
X2055606D1*
X2241427D2*
X2302274D1*
X2686283D2*
X5153991D1*
X430136Y1679892D2*
X1258152D1*
X1442143D2*
X2030739D1*
X2216559D2*
X2280744D1*
X2651009D2*
X5153991D1*
X430066Y1655024D2*
X1258152D1*
X1442143D2*
X2005871D1*
X2191692D2*
X2255877D1*
X2675877D2*
X5153991D1*
X430029Y1630155D2*
X1258367D1*
X1367539D2*
X1981004D1*
X2166824D2*
X2231009D1*
X2329307D2*
X2352261D1*
X3938247D2*
X5153991D1*
X429993Y1605286D2*
X1258367D1*
X1367539D2*
X1956135D1*
X2141920D2*
X2206140D1*
X2304440D2*
X2352261D1*
X3963114D2*
X5153991D1*
X429958Y1580417D2*
X1258367D1*
X1367539D2*
X1931268D1*
X2117052D2*
X2181273D1*
X2279572D2*
X2352261D1*
X2525487D2*
X2552172D1*
X3987982D2*
X5153991D1*
X429886Y1555549D2*
X1906400D1*
X2092185D2*
X2156406D1*
X2254705D2*
X2352261D1*
X2550354D2*
X2577039D1*
X2675339D2*
X3914551D1*
X4012850D2*
X5153991D1*
X429850Y1530680D2*
X1881533D1*
X2067318D2*
X2131538D1*
X2229836D2*
X2352261D1*
X2575222D2*
X2601908D1*
X3618986D2*
X3939419D1*
X4037718D2*
X5153991D1*
X429814Y1505811D2*
X1856665D1*
X2042449D2*
X2106669D1*
X2204969D2*
X2352261D1*
X2473239D2*
X2501791D1*
X2600089D2*
X2626776D1*
X3643853D2*
X3964286D1*
X4062585D2*
X5153991D1*
X429743Y1480942D2*
X1831797D1*
X2017581D2*
X2081802D1*
X2180101D2*
X2352261D1*
X2473239D2*
X2526659D1*
X2624957D2*
X3570421D1*
X3668720D2*
X3989155D1*
X4087453D2*
X5153991D1*
X429706Y1456073D2*
X1119424D1*
X1992714D2*
X2056934D1*
X2155234D2*
X2352261D1*
X2474818D2*
X2551526D1*
X2649825D2*
X3595290D1*
X3693588D2*
X4014022D1*
X4112322D2*
X5153991D1*
X429671Y1431205D2*
X1094556D1*
X1967846D2*
X2032067D1*
X2130366D2*
X2352261D1*
X2499685D2*
X2576394D1*
X2674693D2*
X3620157D1*
X3718457D2*
X4038890D1*
X4137189D2*
X5153991D1*
X429598Y1406336D2*
X1069689D1*
X1942979D2*
X2007199D1*
X2105497D2*
X2352261D1*
X2524554D2*
X2601261D1*
X2699560D2*
X3645025D1*
X3743324D2*
X4063757D1*
X4162056D2*
X5153991D1*
X429563Y1381467D2*
X1044822D1*
X1143119D2*
X1819812D1*
X1918110D2*
X1982331D1*
X2080630D2*
X2352261D1*
X2423252D2*
X2451122D1*
X2549421D2*
X2626130D1*
X2724428D2*
X3669892D1*
X3768192D2*
X4088625D1*
X4186924D2*
X5153991D1*
X429528Y1356598D2*
X1019953D1*
X1118252D2*
X1794944D1*
X1893243D2*
X1957463D1*
X2055762D2*
X2352261D1*
X2423252D2*
X2475990D1*
X2574289D2*
X2650997D1*
X3205420D2*
X3694760D1*
X3793059D2*
X4113493D1*
X4211791D2*
X5153991D1*
X429491Y1331730D2*
X995085D1*
X1093385D2*
X1532594D1*
X1868375D2*
X1932560D1*
X2030895D2*
X2352261D1*
X2423252D2*
X2500858D1*
X2599156D2*
X2675865D1*
X3230432D2*
X3719629D1*
X3817927D2*
X4138361D1*
X4236660D2*
X5153991D1*
X429419Y1306861D2*
X970218D1*
X1068517D2*
X1507692D1*
X1843508D2*
X1907692D1*
X2006026D2*
X2352261D1*
X2423252D2*
X2525726D1*
X2624025D2*
X2700804D1*
X3255299D2*
X3744496D1*
X3842795D2*
X4163228D1*
X4261528D2*
X5153991D1*
X429383Y1281992D2*
X945350D1*
X1043648D2*
X1482823D1*
X1814656D2*
X1883470D1*
X1981159D2*
X2352261D1*
X2423252D2*
X2550593D1*
X2648928D2*
X3181867D1*
X3280167D2*
X3769364D1*
X3867663D2*
X4188096D1*
X4286395D2*
X5153991D1*
X429348Y1257123D2*
X920482D1*
X1018781D2*
X1457955D1*
X1556290D2*
X1877262D1*
X1956291D2*
X2352261D1*
X2423252D2*
X2575461D1*
X2673795D2*
X3206735D1*
X3305034D2*
X3794231D1*
X3892530D2*
X4212965D1*
X4311262D2*
X5153991D1*
X429276Y1232255D2*
X903007D1*
X993913D2*
X1433088D1*
X1531423D2*
X1877262D1*
X1948253D2*
X2352261D1*
X2423252D2*
X2600328D1*
X2698664D2*
X3231604D1*
X3329902D2*
X3819100D1*
X3904480D2*
X4237832D1*
X4336131D2*
X5153991D1*
X429240Y1207386D2*
X902253D1*
X973244D2*
X1408220D1*
X1506555D2*
X1877262D1*
X1948253D2*
X2352261D1*
X2423252D2*
X2625197D1*
X2723531D2*
X3256471D1*
X3354770D2*
X3833525D1*
X3904480D2*
X4262699D1*
X4360999D2*
X5153991D1*
X429203Y1182517D2*
X902253D1*
X973244D2*
X1386403D1*
X1481688D2*
X1877262D1*
X1948253D2*
X2352261D1*
X2423252D2*
X2650064D1*
X2773016D2*
X3281339D1*
X3379638D2*
X3833525D1*
X3904480D2*
X4287567D1*
X4378689D2*
X5153991D1*
X429168Y1157648D2*
X902253D1*
X973244D2*
X1383496D1*
X1456783D2*
X1877262D1*
X1948253D2*
X2352261D1*
X2423252D2*
X2674932D1*
X2798241D2*
X3306206D1*
X3397400D2*
X3833525D1*
X3904480D2*
X4308524D1*
X4379479D2*
X5153991D1*
X429096Y1132780D2*
X902253D1*
X973244D2*
X1383496D1*
X1454487D2*
X1877262D1*
X1948253D2*
X2352261D1*
X2423252D2*
X2699836D1*
X2823110D2*
X3327270D1*
X3398226D2*
X3833525D1*
X3904480D2*
X4308524D1*
X4379479D2*
X5153991D1*
X429060Y1107911D2*
X902253D1*
X973244D2*
X1383496D1*
X1454487D2*
X1877262D1*
X1948253D2*
X2352261D1*
X2423252D2*
X2749678D1*
X2847978D2*
X3327270D1*
X3398226D2*
X3833525D1*
X3904480D2*
X4308524D1*
X4379479D2*
X5153991D1*
X429025Y1083042D2*
X902253D1*
X973244D2*
X1383496D1*
X1454487D2*
X1877262D1*
X1948253D2*
X2352261D1*
X2423252D2*
X2774546D1*
X2872845D2*
X3327270D1*
X3398226D2*
X3833525D1*
X3904480D2*
X4308524D1*
X4379479D2*
X5153991D1*
X428953Y1058173D2*
X902253D1*
X973244D2*
X1070478D1*
X1179650D2*
X1383496D1*
X1454487D2*
X1545478D1*
X1654648D2*
X1877262D1*
X1948253D2*
X2039207D1*
X2148379D2*
X2352261D1*
X2423252D2*
X2520450D1*
X2629622D2*
X2799415D1*
X2897713D2*
X3014217D1*
X3123388D2*
X3327270D1*
X3398226D2*
X3507983D1*
X3617119D2*
X3833525D1*
X3904480D2*
X3989226D1*
X4098398D2*
X4308524D1*
X4379479D2*
X4476713D1*
X4585885D2*
X5153991D1*
X428917Y1033304D2*
X902253D1*
X973244D2*
X1070478D1*
X1179650D2*
X1383496D1*
X1454487D2*
X1545478D1*
X1654648D2*
X1877262D1*
X1948253D2*
X2039207D1*
X2148379D2*
X2352261D1*
X2423252D2*
X2520450D1*
X2629622D2*
X2824282D1*
X2919961D2*
X3014217D1*
X3123388D2*
X3327270D1*
X3398226D2*
X3507983D1*
X3617119D2*
X3833525D1*
X3904480D2*
X3989226D1*
X4098398D2*
X4308524D1*
X4379479D2*
X4476713D1*
X4585885D2*
X5153991D1*
X428881Y1008436D2*
X902253D1*
X973244D2*
X1070478D1*
X1179650D2*
X1383496D1*
X1454487D2*
X1545478D1*
X1654648D2*
X1877262D1*
X1948253D2*
X2039207D1*
X2148379D2*
X2352261D1*
X2428455D2*
X2520450D1*
X2629622D2*
X2849150D1*
X2923227D2*
X3014217D1*
X3123388D2*
X3327270D1*
X3398226D2*
X3507983D1*
X3617119D2*
X3833525D1*
X3904480D2*
X3989226D1*
X4098398D2*
X4308524D1*
X4379479D2*
X4476713D1*
X4585885D2*
X5153991D1*
X428845Y983567D2*
X902253D1*
X973244D2*
X1070478D1*
X1179650D2*
X1383496D1*
X1454487D2*
X1545478D1*
X1654648D2*
X1877262D1*
X1948253D2*
X2039207D1*
X2148379D2*
X2356782D1*
X2435740D2*
X2520450D1*
X2629622D2*
X2852272D1*
X2923227D2*
X3014217D1*
X3123388D2*
X3327270D1*
X3398226D2*
X3507983D1*
X3617119D2*
X3833525D1*
X3904480D2*
X3989226D1*
X4098398D2*
X4308524D1*
X4379479D2*
X4476713D1*
X4585885D2*
X5153991D1*
X428773Y958698D2*
X879215D1*
X996282D2*
X1070478D1*
X1179650D2*
X1360495D1*
X1477525D2*
X1545478D1*
X1654648D2*
X1854224D1*
X1971255D2*
X2039207D1*
X2148379D2*
X2341747D1*
X2458778D2*
X2520450D1*
X2629622D2*
X2829234D1*
X2946264D2*
X3014217D1*
X3123388D2*
X3304232D1*
X3421264D2*
X3507983D1*
X3617119D2*
X3810487D1*
X3927517D2*
X3989226D1*
X4098398D2*
X4285486D1*
X4402516D2*
X4476713D1*
X4585885D2*
X5153991D1*
X428738Y933829D2*
X879215D1*
X1047058D2*
X1089568D1*
X1160559D2*
X1360495D1*
X1503325D2*
X1564567D1*
X1635559D2*
X1854224D1*
X2015823D2*
X2058298D1*
X2129289D2*
X2341747D1*
X2497066D2*
X2539576D1*
X2610531D2*
X2829234D1*
X2978308D2*
X3033307D1*
X3104298D2*
X3304232D1*
X3472075D2*
X3527073D1*
X3598064D2*
X3810487D1*
X3953318D2*
X4008316D1*
X4079307D2*
X4285486D1*
X4434560D2*
X4495839D1*
X4566794D2*
X5153991D1*
X428702Y908961D2*
X879215D1*
X1071925D2*
X1089568D1*
X1160559D2*
X1360495D1*
X1528193D2*
X1564567D1*
X1635559D2*
X1854224D1*
X2040692D2*
X2058298D1*
X2129289D2*
X2341747D1*
X2521934D2*
X2539576D1*
X2610531D2*
X2829234D1*
X3003177D2*
X3033307D1*
X3104298D2*
X3304232D1*
X3496944D2*
X3527073D1*
X3598064D2*
X3810487D1*
X3978186D2*
X4008316D1*
X4079307D2*
X4285486D1*
X4459429D2*
X4495839D1*
X4566794D2*
X5153991D1*
X428630Y884092D2*
X879215D1*
X1179650D2*
X1360495D1*
X1654648D2*
X1854224D1*
X2148379D2*
X2341747D1*
X2629622D2*
X2829234D1*
X3123388D2*
X3304232D1*
X3617155D2*
X3810487D1*
X4098398D2*
X4285486D1*
X4585920D2*
X5153991D1*
X428594Y859223D2*
X879215D1*
X1179650D2*
X1360495D1*
X1654648D2*
X1854224D1*
X2148379D2*
X2341747D1*
X2629622D2*
X2829234D1*
X3123388D2*
X3304232D1*
X3421264D2*
X3433165D1*
X3617155D2*
X3810487D1*
X4098398D2*
X4285486D1*
X4585920D2*
X5153991D1*
X428558Y834354D2*
X879215D1*
X1179650D2*
X1360495D1*
X1654648D2*
X1854224D1*
X2148379D2*
X2341747D1*
X2629622D2*
X2829234D1*
X3123388D2*
X3304232D1*
X3421264D2*
X3433165D1*
X3617155D2*
X3810487D1*
X4098398D2*
X4285486D1*
X4585920D2*
X5153991D1*
X428487Y809486D2*
X879215D1*
X1179650D2*
X1360495D1*
X1654648D2*
X1854224D1*
X2148379D2*
X2341747D1*
X2629622D2*
X2829234D1*
X3123388D2*
X3304232D1*
X3617155D2*
X3810487D1*
X4098398D2*
X4285486D1*
X4585920D2*
X5153991D1*
X428450Y784617D2*
X906201D1*
X1002526D2*
X1397993D1*
X1496293D2*
X1885551D1*
X1983778D2*
X2373073D1*
X2471302D2*
X2856219D1*
X2952545D2*
X3366743D1*
X3465042D2*
X3841814D1*
X3940041D2*
X4316812D1*
X4415039D2*
X5153991D1*
X428415Y759748D2*
X929094D1*
X1027394D2*
X1422861D1*
X1521160D2*
X1910348D1*
X2008647D2*
X2397835D1*
X2496169D2*
X2879113D1*
X2977412D2*
X3391610D1*
X3484348D2*
X3866610D1*
X3964442D2*
X4341609D1*
X4439908D2*
X5153991D1*
X428379Y734879D2*
X953962D1*
X1052727D2*
X1118491D1*
X1202723D2*
X1447728D1*
X1540251D2*
X1606013D1*
X1690245D2*
X1935215D1*
X2029854D2*
X2095618D1*
X2179850D2*
X2422702D1*
X2515260D2*
X2581024D1*
X2665256D2*
X2903980D1*
X3002745D2*
X3068509D1*
X3152741D2*
X3406000D1*
X3490269D2*
X3555996D1*
X3640265D2*
X3891478D1*
X3977719D2*
X4043483D1*
X4127751D2*
X4366476D1*
X4465241D2*
X4531005D1*
X4615238D2*
X5153991D1*
X428307Y710010D2*
X948041D1*
X1073181D2*
X1098037D1*
X1223177D2*
X1435564D1*
X1560705D2*
X1585560D1*
X1710699D2*
X1925168D1*
X2050308D2*
X2075164D1*
X2200304D2*
X2410573D1*
X2535677D2*
X2560570D1*
X2685709D2*
X2898060D1*
X3023164D2*
X3048055D1*
X3173160D2*
X3385583D1*
X3510686D2*
X3535579D1*
X3660682D2*
X3873070D1*
X3998173D2*
X4023064D1*
X4148169D2*
X4360592D1*
X4485696D2*
X4510588D1*
X4635692D2*
X5153991D1*
X428270Y685142D2*
X941726D1*
X1079497D2*
X1091722D1*
X1229493D2*
X1429248D1*
X1567020D2*
X1579270D1*
X1717016D2*
X1918852D1*
X2056623D2*
X2068848D1*
X2206619D2*
X2404257D1*
X2542029D2*
X2554253D1*
X2692025D2*
X2891709D1*
X3029516D2*
X3041740D1*
X3179512D2*
X3379231D1*
X3517038D2*
X3529227D1*
X3667034D2*
X3866718D1*
X4004490D2*
X4016714D1*
X4154521D2*
X4354240D1*
X4492012D2*
X4504236D1*
X4642008D2*
X5153991D1*
X428235Y660273D2*
X945098D1*
X1076125D2*
X1095094D1*
X1226119D2*
X1432621D1*
X1563647D2*
X1582617D1*
X1713643D2*
X1922226D1*
X2053251D2*
X2072220D1*
X2203247D2*
X2407631D1*
X2538656D2*
X2557626D1*
X2688652D2*
X2895081D1*
X3026143D2*
X3045077D1*
X3176138D2*
X3382604D1*
X3513665D2*
X3532600D1*
X3663661D2*
X3870091D1*
X4001115D2*
X4020087D1*
X4151148D2*
X4357613D1*
X4488638D2*
X4507609D1*
X4638671D2*
X5153991D1*
X428163Y635404D2*
X960171D1*
X1061052D2*
X1110167D1*
X1211049D2*
X1447693D1*
X1548575D2*
X1597689D1*
X1698571D2*
X1937297D1*
X2038178D2*
X2087293D1*
X2188175D2*
X2422702D1*
X2523584D2*
X2572698D1*
X2673580D2*
X2910189D1*
X3011071D2*
X3060185D1*
X3161067D2*
X3397711D1*
X3498558D2*
X3547707D1*
X3648589D2*
X3885161D1*
X3986045D2*
X4035157D1*
X4136041D2*
X4372685D1*
X4473567D2*
X4522680D1*
X4623563D2*
X5153991D1*
X428127Y610535D2*
X5153991D1*
X428092Y585667D2*
X494789D1*
X608194D2*
X4982967D1*
X5096373D2*
X5153991D1*
X428055Y560798D2*
X471678D1*
X631303D2*
X4959857D1*
X5119483D2*
X5153991D1*
X427984Y535929D2*
X460770D1*
X642177D2*
X4948949D1*
X5130391D2*
X5153991D1*
X427948Y511060D2*
X457612D1*
X645335D2*
X4945791D1*
X5133549D2*
X5153991D1*
X427912Y486192D2*
X461381D1*
X641602D2*
X4949559D1*
X5129781D2*
X5153991D1*
X427840Y461323D2*
X473007D1*
X629940D2*
X4961220D1*
X5118119D2*
X5153991D1*
X427804Y436454D2*
X497731D1*
X605217D2*
X4985945D1*
X5093395D2*
X5153991D1*
X1564601Y3491277D2*
X1563992Y3483957D1*
X1562580Y3476748D1*
X1560382Y3469740D1*
X1557424Y3463017D1*
X1553743Y3456660D1*
X1549382Y3450749D1*
X1544396Y3445354D1*
X1538846Y3440543D1*
X1532799Y3436374D1*
X1526329Y3432896D1*
X1519516Y3430154D1*
X1512441Y3428180D1*
X1505190Y3426997D1*
X1497856Y3426622D1*
X1490522Y3427059D1*
X1483283Y3428302D1*
X1476224Y3430335D1*
X1469434Y3433135D1*
X1462993Y3436667D1*
X1456982Y3440887D1*
X1451472Y3445744D1*
X1446531Y3451181D1*
X1442222Y3457129D1*
X1438593Y3463514D1*
X1435692Y3470262D1*
X1433552Y3477290D1*
X1432201Y3484509D1*
X1431654Y3491835D1*
X1431919Y3499176D1*
X1432991Y3506442D1*
X1434858Y3513546D1*
X1437499Y3520400D1*
X1440878Y3526923D1*
X1444957Y3533031D1*
X1449684Y3538654D1*
X1455003Y3543719D1*
X1460848Y3548168D1*
X1467147Y3551945D1*
X1473825Y3555004D1*
X1480801Y3557307D1*
X1487987Y3558828D1*
X1495297Y3559546D1*
X1502642Y3559453D1*
X1509932Y3558551D1*
X1517077Y3556850D1*
X1523992Y3554373D1*
X1530591Y3551147D1*
X1536794Y3547213D1*
X1542525Y3542618D1*
X1547714Y3537420D1*
X1552299Y3531681D1*
X1556222Y3525471D1*
X1559437Y3518866D1*
X1561903Y3511948D1*
X1563592Y3504799D1*
X1564480Y3497508D1*
X1564601Y3491277D1*
X1714421Y3487898D2*
X1712789Y3477592D1*
X1709564Y3467669D1*
X1704828Y3458373D1*
X1698694Y3449930D1*
X1691318Y3442554D1*
X1682875Y3436420D1*
X1681114Y3435434D1*
X1681122Y3428559D1*
X1707669Y3401984D1*
X1725470Y3401988D1*
X1725500Y3421083D1*
X1837539D1*
Y3242114D1*
X1814538D1*
X1814508Y2351412D1*
X2051404Y2114497D1*
X2145428Y2114669D1*
X2006416Y2253825D1*
X2003373Y2258013D1*
X2001022Y2262625D1*
X1999424Y2267549D1*
X1998613Y2272661D1*
X1998512Y2339554D1*
X1998613Y2852839D1*
X1999424Y2857951D1*
X2001022Y2862875D1*
X2003373Y2867487D1*
X2006416Y2871675D1*
X2053644Y2919047D1*
X2223524Y3088925D1*
X2223531Y3242094D1*
X2219995Y3242114D1*
X2202924Y3225165D1*
X2198736Y3222122D1*
X2194125Y3219772D1*
X2189201Y3218172D1*
X2184088Y3217362D1*
X2145867Y3217261D1*
X2145886Y3194230D1*
X2052172D1*
X2052185Y3150043D1*
X2071280Y3150020D1*
Y3037980D1*
X1967114D1*
Y3150020D1*
X1986240D1*
X1986209Y3194224D1*
X1966917Y3194230D1*
Y3306269D1*
X2145886D1*
Y3283266D1*
X2167832Y3283238D1*
X2200508Y3315911D1*
X2200500Y3336043D1*
X2166412Y3336113D1*
X2161299Y3336923D1*
X2156375Y3338522D1*
X2151764Y3340873D1*
X2147576Y3343916D1*
X2114413Y3376933D1*
X2111052Y3380870D1*
X2108348Y3385283D1*
X2106366Y3390066D1*
X2105157Y3395100D1*
X2104752Y3400260D1*
Y3435391D1*
X2098657Y3439341D1*
X2090723Y3446117D1*
X2083948Y3454051D1*
X2078495Y3462948D1*
X2074503Y3472587D1*
X2072067Y3482732D1*
X2071248Y3493134D1*
X2072067Y3503535D1*
X2074503Y3513681D1*
X2078495Y3523320D1*
X2083948Y3532217D1*
X2090723Y3540151D1*
X2098657Y3546927D1*
X2107554Y3552379D1*
X2117193Y3556371D1*
X2127339Y3558807D1*
X2137740Y3559626D1*
X2148142Y3558807D1*
X2158287Y3556371D1*
X2167927Y3552379D1*
X2176823Y3546927D1*
X2184757Y3540151D1*
X2191533Y3532217D1*
X2196986Y3523320D1*
X2200978Y3513681D1*
X2203413Y3503535D1*
X2204232Y3493134D1*
X2203413Y3482732D1*
X2200978Y3472587D1*
X2196986Y3462948D1*
X2191533Y3454051D1*
X2184757Y3446117D1*
X2176823Y3439341D1*
X2170720Y3435454D1*
X2170728Y3413937D1*
X2182660Y3401993D1*
X2200470Y3401988D1*
X2200500Y3421083D1*
X2312539D1*
Y3242114D1*
X2289538D1*
X2289407Y3072681D1*
X2288596Y3067568D1*
X2286997Y3062644D1*
X2284647Y3058033D1*
X2281604Y3053845D1*
X2234375Y3006472D1*
X2064496Y2836594D1*
X2064488Y2288915D1*
X2098495Y2254907D1*
X2098613Y2752837D1*
X2099423Y2757950D1*
X2101022Y2762874D1*
X2103373Y2767486D1*
X2106416Y2771673D1*
X2153644Y2819046D1*
X2310076Y2975333D1*
X2314264Y2978377D1*
X2318875Y2980727D1*
X2323799Y2982327D1*
X2328912Y2983136D1*
X2395804Y2983238D1*
X2555310D1*
X2717278Y3145180D1*
X2717272Y3242140D1*
X2701247Y3242114D1*
X2684175Y3225167D1*
X2679987Y3222123D1*
X2675375Y3219773D1*
X2670451Y3218173D1*
X2665339Y3217364D1*
X2633361Y3217262D1*
X2633386Y3194231D1*
X2539457D1*
X2539488Y3150026D1*
X2558583Y3150020D1*
Y3037980D1*
X2454417D1*
Y3150020D1*
X2473543D1*
X2473512Y3194224D1*
X2454417Y3194231D1*
Y3306270D1*
X2633386D1*
Y3283269D1*
X2649088Y3283239D1*
X2685273Y3319281D1*
X2689461Y3322324D1*
X2694083Y3324677D1*
X2694240Y3336043D1*
X2672661Y3336113D1*
X2667549Y3336923D1*
X2662625Y3338522D1*
X2658013Y3340873D1*
X2653825Y3343916D1*
X2606453Y3391144D1*
X2598050Y3399692D1*
X2595007Y3403879D1*
X2592656Y3408491D1*
X2591056Y3413415D1*
X2590247Y3418528D1*
X2590146Y3435433D1*
X2584051Y3439341D1*
X2576117Y3446117D1*
X2569341Y3454051D1*
X2563888Y3462948D1*
X2559896Y3472587D1*
X2557461Y3482732D1*
X2556642Y3493134D1*
X2557461Y3503535D1*
X2559896Y3513681D1*
X2563888Y3523320D1*
X2569341Y3532217D1*
X2576117Y3540151D1*
X2584051Y3546927D1*
X2592948Y3552379D1*
X2602587Y3556371D1*
X2612732Y3558807D1*
X2623134Y3559626D1*
X2633535Y3558807D1*
X2643681Y3556371D1*
X2653320Y3552379D1*
X2662217Y3546927D1*
X2670151Y3540151D1*
X2676927Y3532217D1*
X2682379Y3523320D1*
X2686371Y3513681D1*
X2688807Y3503535D1*
X2689626Y3493134D1*
X2688807Y3482732D1*
X2686371Y3472587D1*
X2682379Y3462948D1*
X2676927Y3454051D1*
X2670151Y3446117D1*
X2662217Y3439341D1*
X2656114Y3435454D1*
X2659451Y3431450D1*
X2688911Y3401991D1*
X2694232Y3401988D1*
X2694240Y3421083D1*
X2806280D1*
Y3242114D1*
X2783278D1*
X2783147Y3128921D1*
X2782337Y3123808D1*
X2780738Y3118885D1*
X2778387Y3114273D1*
X2775344Y3110085D1*
X2728115Y3062713D1*
X2711140Y3045738D1*
X2948175Y3045739D1*
X2948168Y3150020D1*
X2967294D1*
X2967262Y3194224D1*
X2948168Y3194231D1*
Y3306270D1*
X3127136D1*
Y3283269D1*
X3167815Y3283239D1*
X3194230Y3309634D1*
Y3336043D1*
X3153912Y3336113D1*
X3148799Y3336923D1*
X3143875Y3338522D1*
X3139264Y3340873D1*
X3135076Y3343916D1*
X3087307Y3391539D1*
X3083946Y3395476D1*
X3081241Y3399890D1*
X3079260Y3404672D1*
X3078051Y3409706D1*
X3077646Y3414866D1*
Y3435428D1*
X3071551Y3439341D1*
X3063617Y3446117D1*
X3056841Y3454051D1*
X3051388Y3462948D1*
X3047396Y3472587D1*
X3044961Y3482732D1*
X3044142Y3493134D1*
X3044961Y3503535D1*
X3047396Y3513681D1*
X3051388Y3523320D1*
X3056841Y3532217D1*
X3063617Y3540151D1*
X3071551Y3546927D1*
X3080448Y3552379D1*
X3090087Y3556371D1*
X3100232Y3558807D1*
X3110634Y3559626D1*
X3121035Y3558807D1*
X3131181Y3556371D1*
X3140820Y3552379D1*
X3149717Y3546927D1*
X3157651Y3540151D1*
X3164427Y3532217D1*
X3169879Y3523320D1*
X3173871Y3513681D1*
X3176307Y3503535D1*
X3177126Y3493134D1*
X3176307Y3482732D1*
X3173871Y3472587D1*
X3169879Y3462948D1*
X3164427Y3454051D1*
X3157651Y3446117D1*
X3149717Y3439341D1*
X3143614Y3435454D1*
X3143622Y3428507D1*
X3170169Y3401984D1*
X3194214Y3401988D1*
X3194230Y3421083D1*
X3306269D1*
Y3242114D1*
X3283268D1*
X3283136Y3047661D1*
X3282327Y3042549D1*
X3280727Y3037625D1*
X3278377Y3033013D1*
X3275333Y3028825D1*
X3248633Y3001980D1*
X3598707Y3001988D1*
X3604173Y3006613D1*
X3610392Y3010425D1*
X3617133Y3013217D1*
X3624227Y3014920D1*
X3631500Y3015492D1*
X3638773Y3014920D1*
X3645867Y3013217D1*
X3652608Y3010425D1*
X3658827Y3006613D1*
X3664375Y3001875D1*
X3669113Y2996327D1*
X3672925Y2990108D1*
X3673492Y2988877D1*
X3692257Y3007659D1*
X3692262Y3219101D1*
X3686660Y3217668D1*
X3681490Y3217262D1*
X3608404D1*
X3608386Y3194231D1*
X3514457D1*
X3514488Y3150026D1*
X3533583Y3150020D1*
Y3037980D1*
X3429417D1*
Y3150020D1*
X3448543D1*
X3448512Y3194224D1*
X3429417Y3194231D1*
Y3306270D1*
X3608386D1*
Y3283269D1*
X3667867Y3283239D1*
X3669231Y3288046D1*
Y3336043D1*
X3647660Y3336113D1*
X3642549Y3336924D1*
X3637625Y3338522D1*
X3633013Y3340873D1*
X3628825Y3343916D1*
X3581453Y3391144D1*
X3573050Y3399693D1*
X3570007Y3403881D1*
X3567656Y3408492D1*
X3566056Y3413416D1*
X3565247Y3418529D1*
X3565146Y3435434D1*
X3559051Y3439341D1*
X3551117Y3446117D1*
X3544341Y3454051D1*
X3538888Y3462948D1*
X3534896Y3472587D1*
X3532461Y3482732D1*
X3531642Y3493134D1*
X3532461Y3503535D1*
X3534896Y3513681D1*
X3538888Y3523320D1*
X3544341Y3532217D1*
X3551117Y3540151D1*
X3559051Y3546927D1*
X3567948Y3552379D1*
X3577587Y3556371D1*
X3587732Y3558807D1*
X3598134Y3559626D1*
X3608535Y3558807D1*
X3618681Y3556371D1*
X3628320Y3552379D1*
X3637217Y3546927D1*
X3645151Y3540151D1*
X3651927Y3532217D1*
X3657379Y3523320D1*
X3661371Y3513681D1*
X3663807Y3503535D1*
X3664626Y3493134D1*
X3663807Y3482732D1*
X3661371Y3472587D1*
X3657379Y3462948D1*
X3651927Y3454051D1*
X3645151Y3446117D1*
X3637217Y3439341D1*
X3631114Y3435454D1*
X3634451Y3431451D1*
X3663911Y3401992D1*
X3669232Y3401988D1*
X3669231Y3421083D1*
X3781270D1*
Y3242114D1*
X3758269D1*
X3758138Y2991412D1*
X3757328Y2986299D1*
X3755728Y2981375D1*
X3753378Y2976764D1*
X3750335Y2972576D1*
X3703106Y2925203D1*
X3627924Y2850167D1*
X3623736Y2847123D1*
X3619123Y2844773D1*
X3614201Y2843173D1*
X3609088Y2842364D1*
X3542196Y2842262D1*
X3423671D1*
X3506584Y2759175D1*
X3509627Y2754987D1*
X3511978Y2750375D1*
X3513576Y2745451D1*
X3514387Y2740339D1*
X3514488Y2720131D1*
X3523324Y2711328D1*
X3524751Y2720109D1*
X3527581Y2728822D1*
X3531741Y2736984D1*
X3537126Y2744396D1*
X3543604Y2750874D1*
X3551016Y2756259D1*
X3559178Y2760419D1*
X3567891Y2763249D1*
X3576940Y2764682D1*
X3586100D1*
X3595148Y2763249D1*
X3603861Y2760419D1*
X3612024Y2756259D1*
X3619436Y2750874D1*
X3625913Y2744396D1*
X3631298Y2736984D1*
X3635458Y2728822D1*
X3638289Y2720109D1*
X3639722Y2711060D1*
Y2701900D1*
X3638289Y2692852D1*
X3635458Y2684139D1*
X3631298Y2675976D1*
X3625913Y2668564D1*
X3619436Y2662087D1*
X3612024Y2656702D1*
X3611634Y2656483D1*
X3615836Y2653713D1*
X3622802Y2647762D1*
X3628752Y2640797D1*
X3633538Y2632986D1*
X3637045Y2624521D1*
X3639182Y2615613D1*
X3639902Y2606480D1*
X3639182Y2597348D1*
X3637045Y2588440D1*
X3633538Y2579975D1*
X3628752Y2572164D1*
X3622802Y2565198D1*
X3622448Y2564870D1*
X3639902Y2564862D1*
Y2448098D1*
X3523138D1*
Y2564862D1*
X3540571D1*
X3534287Y2572164D1*
X3529501Y2579975D1*
X3525995Y2588440D1*
X3523857Y2597348D1*
X3523138Y2606480D1*
X3523857Y2615613D1*
X3524168Y2617176D1*
X3456416Y2685076D1*
X3453373Y2689264D1*
X3451022Y2693875D1*
X3449424Y2698799D1*
X3448613Y2703912D1*
X3448512Y2724119D1*
X3367818Y2804781D1*
X3273668Y2804762D1*
X3312835Y2765424D1*
X3315878Y2761236D1*
X3318228Y2756625D1*
X3319828Y2751701D1*
X3320638Y2746588D1*
X3320739Y2713894D1*
X3323857Y2715613D1*
X3325995Y2724521D1*
X3329501Y2732986D1*
X3334287Y2740797D1*
X3340238Y2747762D1*
X3347203Y2753713D1*
X3355014Y2758499D1*
X3363479Y2762005D1*
X3372387Y2764143D1*
X3381520Y2764862D1*
X3390652Y2764143D1*
X3399560Y2762005D1*
X3408025Y2758499D1*
X3415836Y2753713D1*
X3422802Y2747762D1*
X3428752Y2740797D1*
X3433538Y2732986D1*
X3437045Y2724521D1*
X3439182Y2715613D1*
X3439902Y2706480D1*
X3439182Y2697348D1*
X3437045Y2688440D1*
X3433538Y2679975D1*
X3428752Y2672164D1*
X3422802Y2665198D1*
X3415836Y2659248D1*
X3411634Y2656483D1*
X3415836Y2653713D1*
X3422802Y2647762D1*
X3428752Y2640797D1*
X3433538Y2632986D1*
X3437045Y2624521D1*
X3439182Y2615613D1*
X3439902Y2606480D1*
X3439182Y2597348D1*
X3437045Y2588440D1*
X3433538Y2579975D1*
X3428752Y2572164D1*
X3422802Y2565198D1*
X3422448Y2564870D1*
X3439902Y2564862D1*
Y2448098D1*
X3323138D1*
Y2564862D1*
X3340571D1*
X3334287Y2572164D1*
X3329501Y2579975D1*
X3325995Y2588440D1*
X3323857Y2597348D1*
X3323138Y2606480D1*
X3323857Y2615613D1*
X3324168Y2617176D1*
X3262665Y2678827D1*
X3259623Y2683014D1*
X3257273Y2687627D1*
X3255673Y2692550D1*
X3254864Y2697663D1*
X3254762Y2730357D1*
X3211571Y2773528D1*
X3001441Y2773512D1*
X2870732Y2642831D1*
X2870919Y2442571D1*
X3060076Y2631584D1*
X3064264Y2634627D1*
X3068875Y2636978D1*
X3073799Y2638577D1*
X3078912Y2639387D1*
X3133353Y2639488D1*
X3137106Y2644416D1*
X3143584Y2650894D1*
X3150996Y2656278D1*
X3151386Y2656497D1*
X3147184Y2659268D1*
X3140218Y2665218D1*
X3134268Y2672184D1*
X3129482Y2679995D1*
X3125975Y2688459D1*
X3123837Y2697367D1*
X3123118Y2706500D1*
X3123837Y2715633D1*
X3125975Y2724541D1*
X3129482Y2733005D1*
X3134268Y2740816D1*
X3140218Y2747782D1*
X3147184Y2753732D1*
X3154995Y2758518D1*
X3163459Y2762025D1*
X3172367Y2764163D1*
X3181500Y2764882D1*
X3190633Y2764163D1*
X3199541Y2762025D1*
X3208005Y2758518D1*
X3215816Y2753732D1*
X3222782Y2747782D1*
X3228732Y2740816D1*
X3233518Y2733005D1*
X3237025Y2724541D1*
X3239163Y2715633D1*
X3239882Y2706500D1*
X3239163Y2697367D1*
X3238852Y2695804D1*
X3312835Y2621673D1*
X3315878Y2617486D1*
X3318228Y2612874D1*
X3319828Y2607950D1*
X3320638Y2602837D1*
X3320739Y2535945D1*
Y2401774D1*
X3325364Y2396327D1*
X3329176Y2390108D1*
X3331967Y2383367D1*
X3333671Y2376273D1*
X3334243Y2369000D1*
X3333671Y2361727D1*
X3331967Y2354633D1*
X3329176Y2347892D1*
X3325364Y2341673D1*
X3320732Y2336240D1*
X3320739Y2258513D1*
X3341802Y2258533D1*
Y2116966D1*
X3233699D1*
Y2258533D1*
X3254764D1*
X3254762Y2336274D1*
X3250138Y2341673D1*
X3246325Y2347892D1*
X3243534Y2354633D1*
X3241831Y2361727D1*
X3241259Y2369000D1*
X3241831Y2376273D1*
X3243534Y2383367D1*
X3246325Y2390108D1*
X3250138Y2396327D1*
X3254769Y2401760D1*
X3254762Y2586566D1*
X3239685Y2601663D1*
X3238269Y2592871D1*
X3235438Y2584159D1*
X3231278Y2575996D1*
X3225894Y2568584D1*
X3222428Y2564890D1*
X3239882Y2564882D1*
Y2448118D1*
X3123118D1*
Y2564882D1*
X3140551D1*
X3134268Y2572184D1*
X3133383Y2573509D1*
X3095198Y2573512D1*
X2920739Y2399085D1*
X2920738Y2373672D1*
X2926052Y2373692D1*
Y2241967D1*
X2873936D1*
X2877390Y2237042D1*
X2880702Y2230541D1*
X2882957Y2223602D1*
X2884098Y2216398D1*
Y2209101D1*
X2882957Y2201896D1*
X2880702Y2194958D1*
X2877390Y2188457D1*
X2873102Y2182555D1*
X2870731Y2179990D1*
X2870738Y2162260D1*
X2876896Y2164207D1*
X2884101Y2165349D1*
X2891398D1*
X2898602Y2164207D1*
X2905541Y2161953D1*
X2912042Y2158640D1*
X2917944Y2154353D1*
X2923102Y2149194D1*
X2927390Y2143293D1*
X2930702Y2136791D1*
X2932957Y2129853D1*
X2934098Y2122648D1*
Y2115352D1*
X2932957Y2108147D1*
X2930702Y2101209D1*
X2927390Y2094707D1*
X2923102Y2088806D1*
X2920731Y2086240D1*
X2920738Y2003633D1*
X2926052Y2003613D1*
Y1871888D1*
X2699446D1*
Y1986395D1*
X2696324Y1991642D1*
X2693533Y1998382D1*
X2691829Y2005476D1*
X2691257Y2012749D1*
X2691829Y2020022D1*
X2693533Y2027117D1*
X2696324Y2033857D1*
X2700136Y2040076D1*
X2704874Y2045625D1*
X2710423Y2050362D1*
X2716642Y2054175D1*
X2723382Y2056966D1*
X2730476Y2058669D1*
X2737749Y2059241D1*
X2744301Y2058755D1*
X2743287Y2065352D1*
Y2072648D1*
X2744429Y2079853D1*
X2746684Y2086791D1*
X2749996Y2093293D1*
X2754283Y2099194D1*
X2759442Y2104353D1*
X2765344Y2108640D1*
X2771845Y2111953D1*
X2778783Y2114207D1*
X2785988Y2115349D1*
X2793285D1*
X2800490Y2114207D1*
X2804766Y2112936D1*
X2804761Y2180005D1*
X2800136Y2185423D1*
X2796324Y2191642D1*
X2793533Y2198382D1*
X2791829Y2205476D1*
X2791257Y2212749D1*
X2791829Y2220022D1*
X2793533Y2227117D1*
X2796324Y2233857D1*
X2800136Y2240076D1*
X2801629Y2241970D1*
X2770706Y2241967D1*
X2770636Y2222661D1*
X2769825Y2217549D1*
X2768227Y2212625D1*
X2765877Y2208013D1*
X2762833Y2203825D1*
X2715605Y2156453D1*
X2670719Y2111567D1*
X2670738Y2003638D1*
X2676052Y2003613D1*
Y1871888D1*
X2664677D1*
X2664685Y1812526D1*
X2683780Y1812520D1*
Y1700480D1*
X2627908D1*
X2688925Y1639476D1*
X3915339Y1639387D1*
X3920451Y1638577D1*
X3925375Y1636978D1*
X3929987Y1634627D1*
X3934175Y1631584D1*
X3981547Y1584356D1*
X4369084Y1196673D1*
X4372127Y1192486D1*
X4374478Y1187874D1*
X4376077Y1182950D1*
X4376887Y1177837D1*
X4376988Y1110945D1*
Y970888D1*
X4400020Y970886D1*
Y951760D1*
X4405606Y951386D1*
X4410640Y950177D1*
X4415423Y948196D1*
X4419836Y945492D1*
X4423772Y942130D1*
X4465867Y900035D1*
X4498346Y900020D1*
X4498335Y950469D1*
X4479220Y950480D1*
Y1062520D1*
X4583386D1*
Y950480D1*
X4564332D1*
X4564311Y900012D1*
X4583406Y900020D1*
Y787980D1*
X4409168D1*
X4448218Y748790D1*
X4451261Y744602D1*
X4453320Y740726D1*
X4462217Y735273D1*
X4470151Y728497D1*
X4476927Y720563D1*
X4482379Y711667D1*
X4486371Y702028D1*
X4488807Y691882D1*
X4489626Y681480D1*
X4488807Y671079D1*
X4486371Y660933D1*
X4482379Y651294D1*
X4476927Y642398D1*
X4470151Y634463D1*
X4462217Y627688D1*
X4453320Y622235D1*
X4443681Y618243D1*
X4433535Y615807D1*
X4423134Y614988D1*
X4412732Y615807D1*
X4402587Y618243D1*
X4392948Y622235D1*
X4384051Y627688D1*
X4376117Y634463D1*
X4369341Y642398D1*
X4363888Y651294D1*
X4359896Y660933D1*
X4357461Y671079D1*
X4356642Y681480D1*
X4357461Y691882D1*
X4359896Y702028D1*
X4363888Y711667D1*
X4369341Y720563D1*
X4375743Y728093D1*
X4318916Y785076D1*
X4315873Y789264D1*
X4314604Y791533D1*
X4298970Y791917D1*
X4287980D1*
Y970886D1*
X4310982D1*
X4311012Y1161559D1*
X3899087Y1573512D1*
X2672661Y1573613D1*
X2667549Y1574423D1*
X2662625Y1576022D1*
X2658013Y1578373D1*
X2653825Y1581416D1*
X2606453Y1628644D1*
X2570752Y1664345D1*
X2570738Y1657675D1*
X2676400Y1552003D1*
X3584088Y1551887D1*
X3589201Y1551077D1*
X3594125Y1549478D1*
X3598736Y1547127D1*
X3602924Y1544084D1*
X3650297Y1496856D1*
X3894084Y1252924D1*
X3897127Y1248736D1*
X3899478Y1244125D1*
X3901077Y1239201D1*
X3901887Y1234088D1*
X3901988Y1167196D1*
Y970873D1*
X3925020Y970886D1*
Y951257D1*
X3929391Y950177D1*
X3934173Y948196D1*
X3938587Y945491D1*
X3942530Y942122D1*
X3984618Y900034D1*
X4010827Y900020D1*
X4010815Y950469D1*
X3991720Y950480D1*
Y1062520D1*
X4095886D1*
Y950480D1*
X4076760D1*
X4076791Y900031D1*
X4095886Y900020D1*
Y787980D1*
X3934207D1*
X3960698Y761310D1*
X3963741Y757122D1*
X3966092Y752510D1*
X3967690Y747587D1*
X3968501Y742474D1*
X3968602Y739203D1*
X3974697Y735273D1*
X3982631Y728497D1*
X3989407Y720563D1*
X3994860Y711667D1*
X3998852Y702028D1*
X4001287Y691882D1*
X4002106Y681480D1*
X4001287Y671079D1*
X3998852Y660933D1*
X3994860Y651294D1*
X3989407Y642398D1*
X3982631Y634463D1*
X3974697Y627688D1*
X3965801Y622235D1*
X3956161Y618243D1*
X3946016Y615807D1*
X3935614Y614988D1*
X3925213Y615807D1*
X3915067Y618243D1*
X3905428Y622235D1*
X3896531Y627688D1*
X3888597Y634463D1*
X3881822Y642398D1*
X3876369Y651294D1*
X3872377Y660933D1*
X3869941Y671079D1*
X3869122Y681480D1*
X3869941Y691882D1*
X3872377Y702028D1*
X3876369Y711667D1*
X3881822Y720563D1*
X3888597Y728497D1*
X3894882Y733974D1*
X3843916Y785076D1*
X3840873Y789264D1*
X3839604Y791533D1*
X3823970Y791917D1*
X3812980D1*
Y970886D1*
X3835982D1*
X3836012Y1217825D1*
X3567854Y1485993D1*
X2660163Y1486113D1*
X2655050Y1486924D1*
X2650126Y1488522D1*
X2645514Y1490873D1*
X2641327Y1493916D1*
X2593954Y1541143D1*
X2520749Y1614346D1*
X2520738Y1582677D1*
X2738909Y1364495D1*
X3184088Y1364387D1*
X3189201Y1363577D1*
X3194125Y1361978D1*
X3198736Y1359627D1*
X3202924Y1356584D1*
X3250297Y1309356D1*
X3387835Y1171673D1*
X3390878Y1167486D1*
X3393228Y1162874D1*
X3394828Y1157950D1*
X3395638Y1152837D1*
X3395739Y1085945D1*
Y964621D1*
X3418770Y964636D1*
Y945510D1*
X3446783Y945441D1*
X3451896Y944630D1*
X3456820Y943031D1*
X3461432Y940681D1*
X3465619Y937638D1*
X3503375Y900026D1*
X3529587Y900020D1*
X3529575Y950469D1*
X3510471Y950480D1*
Y1062520D1*
X3614636D1*
Y950480D1*
X3595583D1*
X3595551Y900022D1*
X3614646Y900020D1*
Y787980D1*
X3459139D1*
X3475333Y771675D1*
X3478377Y767487D1*
X3480727Y762875D1*
X3482327Y757951D1*
X3483136Y752839D1*
X3483238Y737942D1*
X3491318Y732041D1*
X3498694Y724664D1*
X3504828Y716222D1*
X3509564Y706925D1*
X3512789Y697003D1*
X3514421Y686697D1*
Y676264D1*
X3512789Y665958D1*
X3509564Y656035D1*
X3504828Y646739D1*
X3498694Y638297D1*
X3491318Y630920D1*
X3482875Y624786D1*
X3473579Y620050D1*
X3463656Y616825D1*
X3453350Y615193D1*
X3442917D1*
X3432612Y616825D1*
X3422689Y620050D1*
X3413392Y624786D1*
X3404950Y630920D1*
X3397573Y638297D1*
X3391440Y646739D1*
X3386703Y656035D1*
X3383479Y665958D1*
X3381846Y676264D1*
Y686697D1*
X3383479Y697003D1*
X3386703Y706925D1*
X3391440Y716222D1*
X3397573Y724664D1*
X3404950Y732041D1*
X3413392Y738175D1*
X3414869Y739001D1*
X3368182Y785665D1*
X3306731Y785668D1*
Y964636D1*
X3329734D1*
X3329762Y1136579D1*
X3167820Y1298528D1*
X2722663Y1298613D1*
X2717550Y1299423D1*
X2712626Y1301022D1*
X2708014Y1303373D1*
X2703827Y1306416D1*
X2656454Y1353643D1*
X2470741Y1539356D1*
X2470738Y1457656D1*
X2738895Y1189508D1*
X2752839Y1189387D1*
X2757951Y1188577D1*
X2762875Y1186978D1*
X2767487Y1184627D1*
X2771675Y1181584D1*
X2819047Y1134356D1*
X2912835Y1040424D1*
X2915878Y1036236D1*
X2918228Y1031625D1*
X2919828Y1026701D1*
X2920638Y1021588D1*
X2920739Y970879D1*
X2943770Y970886D1*
Y951760D1*
X2949357Y951386D1*
X2954391Y950177D1*
X2959173Y948196D1*
X2963587Y945491D1*
X2967530Y942122D1*
X3009618Y900034D1*
X3035827Y900020D1*
X3035815Y950469D1*
X3016720Y950480D1*
Y1062520D1*
X3120886D1*
Y950480D1*
X3101760D1*
X3101791Y900031D1*
X3120886Y900020D1*
Y787980D1*
X2946648D1*
X2985698Y748810D1*
X2988741Y744622D1*
X2990801Y740726D1*
X2999697Y735273D1*
X3007631Y728497D1*
X3014407Y720563D1*
X3019860Y711667D1*
X3023852Y702028D1*
X3026287Y691882D1*
X3027106Y681480D1*
X3026287Y671079D1*
X3023852Y660933D1*
X3019860Y651294D1*
X3014407Y642398D1*
X3007631Y634463D1*
X2999697Y627688D1*
X2990801Y622235D1*
X2981161Y618243D1*
X2971016Y615807D1*
X2960614Y614988D1*
X2950213Y615807D1*
X2940067Y618243D1*
X2930428Y622235D1*
X2921531Y627688D1*
X2913597Y634463D1*
X2906822Y642398D1*
X2901369Y651294D1*
X2897377Y660933D1*
X2894941Y671079D1*
X2894122Y681480D1*
X2894941Y691882D1*
X2897377Y702028D1*
X2901369Y711667D1*
X2906822Y720563D1*
X2913251Y728123D1*
X2862667Y778825D1*
X2859623Y783013D1*
X2857273Y787625D1*
X2856374Y790066D1*
X2851907Y791917D1*
X2831731D1*
Y970886D1*
X2854734D1*
X2854762Y1005320D1*
X2736566Y1123533D1*
X2722663Y1123613D1*
X2717550Y1124423D1*
X2712626Y1126022D1*
X2708014Y1128373D1*
X2703827Y1131416D1*
X2656454Y1178644D1*
X2420738Y1414129D1*
Y1013912D1*
X2425333Y1009175D1*
X2428377Y1004987D1*
X2430727Y1000375D1*
X2432325Y995451D1*
X2433136Y990339D1*
X2433238Y970921D1*
X2456269Y970886D1*
Y951760D1*
X2465534Y951690D1*
X2470647Y950881D1*
X2475571Y949281D1*
X2480182Y946930D1*
X2484370Y943887D1*
X2523576Y904827D1*
X2526944Y900882D1*
X2530845Y900020D1*
X2542077D1*
X2542066Y950469D1*
X2522951Y950480D1*
Y1062520D1*
X2627117D1*
Y950480D1*
X2608063D1*
X2608042Y900012D1*
X2627136Y900020D1*
Y787980D1*
X2465458D1*
X2498218Y755039D1*
X2501261Y750852D1*
X2503612Y746240D1*
X2505213Y741307D1*
X2507875Y738175D1*
X2516318Y732041D1*
X2523694Y724664D1*
X2529828Y716222D1*
X2534564Y706925D1*
X2537789Y697003D1*
X2539421Y686697D1*
Y676264D1*
X2537789Y665958D1*
X2534564Y656035D1*
X2529828Y646739D1*
X2523694Y638297D1*
X2516318Y630920D1*
X2507875Y624786D1*
X2498579Y620050D1*
X2488656Y616825D1*
X2478350Y615193D1*
X2467917D1*
X2457612Y616825D1*
X2447689Y620050D1*
X2438392Y624786D1*
X2429950Y630920D1*
X2422573Y638297D1*
X2416440Y646739D1*
X2411703Y656035D1*
X2408479Y665958D1*
X2406846Y676264D1*
Y686697D1*
X2408479Y697003D1*
X2411703Y706925D1*
X2416440Y716222D1*
X2422573Y724664D1*
X2428978Y731142D1*
X2375164Y785077D1*
X2372122Y789265D1*
X2370852Y791534D1*
X2355219Y791917D1*
X2344230D1*
Y970886D1*
X2367232D1*
X2367261Y974101D1*
X2362665Y978827D1*
X2359622Y983014D1*
X2357272Y987626D1*
X2355673Y992550D1*
X2354862Y997663D1*
X2354761Y1064555D1*
X2354580Y1657928D1*
X1945730Y1249077D1*
X1945739Y970904D1*
X1968770Y970886D1*
Y951760D1*
X1984285Y951690D1*
X1989398Y950879D1*
X1994322Y949281D1*
X1998933Y946930D1*
X2003121Y943887D1*
X2042327Y904827D1*
X2045694Y900882D1*
X2049594Y900020D1*
X2060827D1*
X2060815Y950469D1*
X2041720Y950480D1*
Y1062520D1*
X2145886D1*
Y950480D1*
X2126760D1*
X2126791Y900031D1*
X2145886Y900020D1*
Y787980D1*
X1977891D1*
X2012824Y752934D1*
X2015867Y748747D1*
X2018218Y744135D1*
X2019117Y741694D1*
X2022482Y738175D1*
X2030924Y732041D1*
X2038301Y724664D1*
X2044434Y716222D1*
X2049171Y706925D1*
X2052395Y697003D1*
X2054028Y686697D1*
Y676264D1*
X2052395Y665958D1*
X2049171Y656035D1*
X2044434Y646739D1*
X2038301Y638297D1*
X2030924Y630920D1*
X2022482Y624786D1*
X2013185Y620050D1*
X2003262Y616825D1*
X1992957Y615193D1*
X1982524D1*
X1972218Y616825D1*
X1962295Y620050D1*
X1952999Y624786D1*
X1944556Y630920D1*
X1937180Y638297D1*
X1931046Y646739D1*
X1926310Y656035D1*
X1923085Y665958D1*
X1921453Y676264D1*
Y686697D1*
X1923085Y697003D1*
X1926310Y706925D1*
X1931046Y716222D1*
X1937180Y724664D1*
X1942475Y730117D1*
X1887667Y785076D1*
X1884623Y789264D1*
X1883353Y791533D1*
X1867720Y791917D1*
X1856731D1*
Y970886D1*
X1879732D1*
X1879864Y1265339D1*
X1880673Y1270451D1*
X1882273Y1275375D1*
X1884623Y1279987D1*
X1887667Y1284175D1*
X1934895Y1331547D1*
X2304770Y1701423D1*
X2304580Y1770428D1*
X1821673Y1287667D1*
X1817486Y1284623D1*
X1812874Y1282273D1*
X1807950Y1280673D1*
X1802837Y1279864D1*
X1735945Y1279762D1*
X1576440D1*
X1451975Y1155323D1*
X1451988Y964639D1*
X1475020Y964636D1*
Y945510D1*
X1480606Y945136D1*
X1485640Y943928D1*
X1490423Y941946D1*
X1494836Y939241D1*
X1498780Y935873D1*
X1534626Y900026D1*
X1567087Y900020D1*
X1567075Y950469D1*
X1547971Y950480D1*
Y1062520D1*
X1652136D1*
Y950480D1*
X1633083D1*
X1633051Y900022D1*
X1652146Y900020D1*
Y787980D1*
X1490395D1*
X1523218Y755039D1*
X1526261Y750852D1*
X1528612Y746240D1*
X1530213Y741307D1*
X1532875Y738175D1*
X1541318Y732041D1*
X1548694Y724664D1*
X1554828Y716222D1*
X1559564Y706925D1*
X1562789Y697003D1*
X1564421Y686697D1*
Y676264D1*
X1562789Y665958D1*
X1559564Y656035D1*
X1554828Y646739D1*
X1548694Y638297D1*
X1541318Y630920D1*
X1532875Y624786D1*
X1523579Y620050D1*
X1513656Y616825D1*
X1503350Y615193D1*
X1492917D1*
X1482612Y616825D1*
X1472689Y620050D1*
X1463392Y624786D1*
X1454950Y630920D1*
X1447573Y638297D1*
X1441440Y646739D1*
X1436703Y656035D1*
X1433479Y665958D1*
X1431846Y676264D1*
Y686697D1*
X1433479Y697003D1*
X1436703Y706925D1*
X1441440Y716222D1*
X1447573Y724664D1*
X1453978Y731142D1*
X1399423Y785676D1*
X1362980Y785668D1*
Y964636D1*
X1385982D1*
X1386113Y1171588D1*
X1386923Y1176701D1*
X1388522Y1181625D1*
X1390873Y1186236D1*
X1393916Y1190424D1*
X1441144Y1237797D1*
X1541327Y1337835D1*
X1545514Y1340878D1*
X1550126Y1343228D1*
X1555050Y1344828D1*
X1560163Y1345638D1*
X1627055Y1345739D1*
X1786560D1*
X1846879Y1406033D1*
X1840339Y1404864D1*
X1773446Y1404762D1*
X1163882D1*
X970762Y1211610D1*
X970739Y964623D1*
X993770Y964636D1*
Y945510D1*
X1021783Y945441D1*
X1026896Y944631D1*
X1031820Y943031D1*
X1036432Y940681D1*
X1040619Y937638D1*
X1073576Y904827D1*
X1076944Y900882D1*
X1080845Y900020D1*
X1092077D1*
X1092066Y950469D1*
X1072971Y950480D1*
Y1062520D1*
X1177136D1*
Y950480D1*
X1158010D1*
X1158042Y900031D1*
X1177136Y900020D1*
Y787980D1*
X998168D1*
Y879592D1*
X993770Y872773D1*
Y790900D1*
X1035698Y748810D1*
X1038741Y744622D1*
X1040801Y740726D1*
X1049697Y735273D1*
X1057631Y728497D1*
X1064407Y720563D1*
X1069860Y711667D1*
X1073852Y702028D1*
X1076287Y691882D1*
X1077106Y681480D1*
X1076287Y671079D1*
X1073852Y660933D1*
X1069860Y651294D1*
X1064407Y642398D1*
X1057631Y634463D1*
X1049697Y627688D1*
X1040801Y622235D1*
X1031161Y618243D1*
X1021016Y615807D1*
X1010614Y614988D1*
X1000213Y615807D1*
X990067Y618243D1*
X980428Y622235D1*
X971531Y627688D1*
X963597Y634463D1*
X956822Y642398D1*
X951369Y651294D1*
X947377Y660933D1*
X944941Y671079D1*
X944122Y681480D1*
X944941Y691882D1*
X947377Y702028D1*
X951369Y711667D1*
X956822Y720563D1*
X963251Y728123D1*
X912667Y778825D1*
X909623Y783013D1*
X908354Y785282D1*
X892720Y785668D1*
X881731D1*
Y964636D1*
X904732D1*
X904864Y1227839D1*
X905675Y1232951D1*
X907273Y1237875D1*
X909623Y1242487D1*
X912667Y1246675D1*
X959895Y1294047D1*
X1128825Y1462835D1*
X1133013Y1465878D1*
X1137625Y1468228D1*
X1142549Y1469827D1*
X1147661Y1470638D1*
X1214554Y1470739D1*
X1824118D1*
X2204752Y1851404D1*
X2204761Y1871875D1*
X2199446Y1871888D1*
Y1986035D1*
X1916412Y1986113D1*
X1911299Y1986923D1*
X1906375Y1988522D1*
X1901764Y1990873D1*
X1897576Y1993916D1*
X1850203Y2041144D1*
X1256416Y2635076D1*
X1253373Y2639264D1*
X1251022Y2643875D1*
X1249423Y2648799D1*
X1248613Y2653912D1*
X1248512Y2720804D1*
Y3242094D1*
X1245046Y3242114D1*
X1227924Y3225167D1*
X1223736Y3222123D1*
X1219125Y3219773D1*
X1214201Y3218173D1*
X1209088Y3217364D1*
X1183354Y3217262D1*
X1183386Y3194231D1*
X1089457D1*
X1089488Y3150026D1*
X1108583Y3150020D1*
Y3037980D1*
X1004417D1*
Y3150020D1*
X1023543D1*
X1023512Y3194224D1*
X1004417Y3194231D1*
Y3306270D1*
X1183386D1*
Y3283269D1*
X1192845Y3283239D1*
X1225470Y3315873D1*
X1225480Y3336043D1*
X1203912Y3336113D1*
X1198799Y3336924D1*
X1193875Y3338522D1*
X1189264Y3340873D1*
X1185076Y3343916D1*
X1137307Y3391539D1*
X1133946Y3395476D1*
X1131241Y3399890D1*
X1129260Y3404672D1*
X1128051Y3409706D1*
X1127646Y3414866D1*
Y3435356D1*
X1121551Y3439322D1*
X1113617Y3446097D1*
X1106841Y3454031D1*
X1101388Y3462928D1*
X1097396Y3472567D1*
X1094961Y3482713D1*
X1094142Y3493114D1*
X1094961Y3503516D1*
X1097396Y3513661D1*
X1101388Y3523301D1*
X1106841Y3532197D1*
X1113617Y3540131D1*
X1121551Y3546907D1*
X1130448Y3552360D1*
X1140087Y3556352D1*
X1150232Y3558787D1*
X1160634Y3559606D1*
X1171035Y3558787D1*
X1181181Y3556352D1*
X1190820Y3552360D1*
X1199717Y3546907D1*
X1207651Y3540131D1*
X1214427Y3532197D1*
X1219879Y3523301D1*
X1223871Y3513661D1*
X1226307Y3503516D1*
X1227126Y3493114D1*
X1226307Y3482713D1*
X1223871Y3472567D1*
X1219879Y3462928D1*
X1214427Y3454031D1*
X1207651Y3446097D1*
X1199717Y3439322D1*
X1193614Y3435434D1*
X1193622Y3428559D1*
X1220169Y3401984D1*
X1225483Y3401988D1*
X1225480Y3421083D1*
X1337520D1*
Y3242114D1*
X1314518D1*
X1314488Y2670135D1*
X1932654Y2051999D1*
X2022773Y2052108D1*
X2018360Y2054812D1*
X2014423Y2058173D1*
X1756436Y2316306D1*
X1753392Y2320493D1*
X1751042Y2325105D1*
X1749442Y2330029D1*
X1748633Y2335142D1*
X1748531Y2402034D1*
Y3242119D1*
X1744995Y3242114D1*
X1727924Y3225167D1*
X1723736Y3222123D1*
X1719125Y3219773D1*
X1714201Y3218173D1*
X1709088Y3217364D1*
X1658379Y3217262D1*
X1658386Y3194231D1*
X1564457D1*
X1564488Y3150026D1*
X1583583Y3150020D1*
Y3037980D1*
X1479417D1*
Y3150020D1*
X1498543D1*
X1498512Y3194224D1*
X1479417Y3194231D1*
Y3306270D1*
X1658386D1*
Y3283268D1*
X1692820Y3283239D1*
X1725508Y3315911D1*
X1725500Y3336043D1*
X1691412Y3336113D1*
X1686299Y3336924D1*
X1681375Y3338522D1*
X1676764Y3340873D1*
X1672576Y3343916D1*
X1624807Y3391539D1*
X1621446Y3395476D1*
X1618741Y3399890D1*
X1616760Y3404672D1*
X1615551Y3409706D1*
X1615146Y3414866D1*
Y3435356D1*
X1609051Y3439322D1*
X1601117Y3446097D1*
X1594341Y3454031D1*
X1588888Y3462928D1*
X1584896Y3472567D1*
X1582461Y3482713D1*
X1581642Y3493114D1*
X1582461Y3503516D1*
X1584896Y3513661D1*
X1588888Y3523301D1*
X1594341Y3532197D1*
X1601117Y3540131D1*
X1609051Y3546907D1*
X1617948Y3552360D1*
X1627587Y3556352D1*
X1637732Y3558787D1*
X1648134Y3559606D1*
X1658535Y3558787D1*
X1668681Y3556352D1*
X1678320Y3552360D1*
X1687217Y3546907D1*
X1695151Y3540131D1*
X1701927Y3532197D1*
X1707379Y3523301D1*
X1711371Y3513661D1*
X1713807Y3503516D1*
X1714626Y3493114D1*
X1714421Y3487898D1*
X2054207Y3491297D2*
X2053598Y3483976D1*
X2052186Y3476768D1*
X2049988Y3469760D1*
X2047030Y3463037D1*
X2043349Y3456680D1*
X2038988Y3450769D1*
X2034003Y3445374D1*
X2028453Y3440563D1*
X2022406Y3436394D1*
X2015936Y3432916D1*
X2009122Y3430173D1*
X2002047Y3428199D1*
X1994797Y3427017D1*
X1987462Y3426642D1*
X1980129Y3427079D1*
X1972890Y3428322D1*
X1965831Y3430354D1*
X1959041Y3433155D1*
X1952600Y3436686D1*
X1946588Y3440907D1*
X1941079Y3445764D1*
X1936138Y3451201D1*
X1931828Y3457148D1*
X1928199Y3463534D1*
X1925298Y3470282D1*
X1923159Y3477310D1*
X1921807Y3484529D1*
X1921260Y3491854D1*
X1921525Y3499196D1*
X1922597Y3506462D1*
X1924465Y3513566D1*
X1927105Y3520420D1*
X1930484Y3526942D1*
X1934563Y3533051D1*
X1939290Y3538673D1*
X1944609Y3543739D1*
X1950454Y3548188D1*
X1956753Y3551965D1*
X1963432Y3555024D1*
X1970407Y3557327D1*
X1977593Y3558848D1*
X1984903Y3559566D1*
X1992248Y3559472D1*
X1999538Y3558571D1*
X2006684Y3556870D1*
X2013598Y3554392D1*
X2020197Y3551167D1*
X2026400Y3547232D1*
X2032131Y3542638D1*
X2037320Y3537440D1*
X2041906Y3531701D1*
X2045828Y3525491D1*
X2049043Y3518886D1*
X2051509Y3511967D1*
X2053198Y3504819D1*
X2054087Y3497528D1*
X2054207Y3491297D1*
X2539601D2*
X2538992Y3483976D1*
X2537580Y3476768D1*
X2535382Y3469760D1*
X2532424Y3463037D1*
X2528743Y3456680D1*
X2524382Y3450769D1*
X2519396Y3445374D1*
X2513846Y3440563D1*
X2507799Y3436394D1*
X2501329Y3432916D1*
X2494516Y3430173D1*
X2487441Y3428199D1*
X2480190Y3427017D1*
X2472856Y3426642D1*
X2465522Y3427079D1*
X2458283Y3428322D1*
X2451224Y3430354D1*
X2444434Y3433155D1*
X2437993Y3436686D1*
X2431982Y3440907D1*
X2426472Y3445764D1*
X2421531Y3451201D1*
X2417222Y3457148D1*
X2413593Y3463534D1*
X2410692Y3470282D1*
X2408552Y3477310D1*
X2407201Y3484529D1*
X2406654Y3491854D1*
X2406919Y3499196D1*
X2407991Y3506462D1*
X2409858Y3513566D1*
X2412499Y3520420D1*
X2415878Y3526942D1*
X2419957Y3533051D1*
X2424684Y3538673D1*
X2430003Y3543739D1*
X2435848Y3548188D1*
X2442147Y3551965D1*
X2448825Y3555024D1*
X2455801Y3557327D1*
X2462987Y3558848D1*
X2470297Y3559566D1*
X2477642Y3559472D1*
X2484932Y3558571D1*
X2492077Y3556870D1*
X2498992Y3554392D1*
X2505591Y3551167D1*
X2511794Y3547232D1*
X2517525Y3542638D1*
X2522714Y3537440D1*
X2527299Y3531701D1*
X2531222Y3525491D1*
X2534437Y3518886D1*
X2536903Y3511967D1*
X2538592Y3504819D1*
X2539480Y3497528D1*
X2539601Y3491297D1*
X3027101D2*
X3026492Y3483976D1*
X3025080Y3476768D1*
X3022882Y3469760D1*
X3019924Y3463037D1*
X3016243Y3456680D1*
X3011882Y3450769D1*
X3006896Y3445374D1*
X3001346Y3440563D1*
X2995299Y3436394D1*
X2988829Y3432916D1*
X2982016Y3430173D1*
X2974941Y3428199D1*
X2967690Y3427017D1*
X2960356Y3426642D1*
X2953022Y3427079D1*
X2945783Y3428322D1*
X2938724Y3430354D1*
X2931934Y3433155D1*
X2925493Y3436686D1*
X2919482Y3440907D1*
X2913972Y3445764D1*
X2909031Y3451201D1*
X2904722Y3457148D1*
X2901093Y3463534D1*
X2898192Y3470282D1*
X2896052Y3477310D1*
X2894701Y3484529D1*
X2894154Y3491854D1*
X2894419Y3499196D1*
X2895491Y3506462D1*
X2897358Y3513566D1*
X2899999Y3520420D1*
X2903378Y3526942D1*
X2907457Y3533051D1*
X2912184Y3538673D1*
X2917503Y3543739D1*
X2923348Y3548188D1*
X2929647Y3551965D1*
X2936325Y3555024D1*
X2943301Y3557327D1*
X2950487Y3558848D1*
X2957797Y3559566D1*
X2965142Y3559472D1*
X2972432Y3558571D1*
X2979577Y3556870D1*
X2986492Y3554392D1*
X2993091Y3551167D1*
X2999294Y3547232D1*
X3005025Y3542638D1*
X3010214Y3537440D1*
X3014799Y3531701D1*
X3018722Y3525491D1*
X3021937Y3518886D1*
X3024403Y3511967D1*
X3026092Y3504819D1*
X3026980Y3497528D1*
X3027101Y3491297D1*
X3514601D2*
X3513992Y3483976D1*
X3512580Y3476768D1*
X3510382Y3469760D1*
X3507424Y3463037D1*
X3503743Y3456680D1*
X3499382Y3450769D1*
X3494396Y3445374D1*
X3488846Y3440563D1*
X3482799Y3436394D1*
X3476329Y3432916D1*
X3469516Y3430173D1*
X3462441Y3428199D1*
X3455190Y3427017D1*
X3447856Y3426642D1*
X3440522Y3427079D1*
X3433283Y3428322D1*
X3426224Y3430354D1*
X3419434Y3433155D1*
X3412993Y3436686D1*
X3406982Y3440907D1*
X3401472Y3445764D1*
X3396531Y3451201D1*
X3392222Y3457148D1*
X3388593Y3463534D1*
X3385692Y3470282D1*
X3383552Y3477310D1*
X3382201Y3484529D1*
X3381654Y3491854D1*
X3381919Y3499196D1*
X3382991Y3506462D1*
X3384858Y3513566D1*
X3387499Y3520420D1*
X3390878Y3526942D1*
X3394957Y3533051D1*
X3399684Y3538673D1*
X3405003Y3543739D1*
X3410848Y3548188D1*
X3417147Y3551965D1*
X3423825Y3555024D1*
X3430801Y3557327D1*
X3437987Y3558848D1*
X3445297Y3559566D1*
X3452642Y3559472D1*
X3459932Y3558571D1*
X3467077Y3556870D1*
X3473992Y3554392D1*
X3480591Y3551167D1*
X3486794Y3547232D1*
X3492525Y3542638D1*
X3497714Y3537440D1*
X3502299Y3531701D1*
X3506222Y3525491D1*
X3509437Y3518886D1*
X3511903Y3511967D1*
X3513592Y3504819D1*
X3514480Y3497528D1*
X3514601Y3491297D1*
X4002101D2*
X4001492Y3483976D1*
X4000080Y3476768D1*
X3997882Y3469760D1*
X3994924Y3463037D1*
X3991243Y3456680D1*
X3986882Y3450769D1*
X3981896Y3445374D1*
X3976346Y3440563D1*
X3970299Y3436394D1*
X3963829Y3432916D1*
X3957016Y3430173D1*
X3949941Y3428199D1*
X3942690Y3427017D1*
X3935356Y3426642D1*
X3928022Y3427079D1*
X3920783Y3428322D1*
X3913724Y3430354D1*
X3906934Y3433155D1*
X3900493Y3436686D1*
X3894482Y3440907D1*
X3888972Y3445764D1*
X3884031Y3451201D1*
X3879722Y3457148D1*
X3876093Y3463534D1*
X3873192Y3470282D1*
X3871052Y3477310D1*
X3869701Y3484529D1*
X3869154Y3491854D1*
X3869419Y3499196D1*
X3870491Y3506462D1*
X3872358Y3513566D1*
X3874999Y3520420D1*
X3878378Y3526942D1*
X3882457Y3533051D1*
X3887184Y3538673D1*
X3892503Y3543739D1*
X3898348Y3548188D1*
X3904647Y3551965D1*
X3911325Y3555024D1*
X3918301Y3557327D1*
X3925487Y3558848D1*
X3932797Y3559566D1*
X3940142Y3559472D1*
X3947432Y3558571D1*
X3954577Y3556870D1*
X3961492Y3554392D1*
X3968091Y3551167D1*
X3974294Y3547232D1*
X3980025Y3542638D1*
X3985214Y3537440D1*
X3989799Y3531701D1*
X3993722Y3525491D1*
X3996937Y3518886D1*
X3999403Y3511967D1*
X4001092Y3504819D1*
X4001980Y3497528D1*
X4002101Y3491297D1*
X4151921Y3487917D2*
X4150289Y3477612D1*
X4147064Y3467689D1*
X4142328Y3458392D1*
X4136194Y3449950D1*
X4128818Y3442573D1*
X4120375Y3436440D1*
X4118614Y3435454D1*
X4118622Y3422262D1*
X4138927Y3401976D1*
X4150478Y3401988D1*
X4150480Y3421083D1*
X4262520D1*
Y3242114D1*
X4239518D1*
X4239387Y2928912D1*
X4238576Y2923799D1*
X4236978Y2918875D1*
X4234627Y2914264D1*
X4231584Y2910076D1*
X4221677Y2900167D1*
X4217490Y2897125D1*
X4212878Y2894773D1*
X4207955Y2893173D1*
X4202843Y2892364D1*
X4135946Y2892261D1*
X3983043D1*
X3977576Y2887636D1*
X3971357Y2883824D1*
X3964617Y2881033D1*
X3957522Y2879329D1*
X3950249Y2878757D1*
X3942976Y2879329D1*
X3935882Y2881033D1*
X3929142Y2883824D1*
X3922923Y2887636D1*
X3917374Y2892374D1*
X3912636Y2897923D1*
X3908824Y2904142D1*
X3906033Y2910882D1*
X3904329Y2917976D1*
X3903757Y2925249D1*
X3904329Y2932522D1*
X3906033Y2939617D1*
X3908824Y2946357D1*
X3912636Y2952576D1*
X3917374Y2958125D1*
X3922923Y2962862D1*
X3929142Y2966675D1*
X3935882Y2969466D1*
X3942976Y2971169D1*
X3950249Y2971741D1*
X3957522Y2971169D1*
X3964617Y2969466D1*
X3971357Y2966675D1*
X3977576Y2962862D1*
X3983009Y2958231D1*
X4173484Y2958238D1*
X4173512Y3239350D1*
X4159173Y3225165D1*
X4154986Y3222122D1*
X4150374Y3219772D1*
X4145450Y3218172D1*
X4140337Y3217362D1*
X4083385Y3217261D1*
X4083386Y3194230D1*
X3989457D1*
X3989488Y3150025D1*
X4008583Y3150020D1*
Y3037980D1*
X3904417D1*
Y3150020D1*
X3923543D1*
X3923512Y3194224D1*
X3904417Y3194230D1*
Y3306269D1*
X4083386D1*
Y3283268D1*
X4124064Y3283238D1*
X4150479Y3309633D1*
X4150480Y3336043D1*
X4122663Y3336113D1*
X4117550Y3336923D1*
X4112626Y3338522D1*
X4108014Y3340873D1*
X4103827Y3343916D1*
X4062307Y3385290D1*
X4058946Y3389227D1*
X4056241Y3393640D1*
X4054260Y3398423D1*
X4053051Y3403457D1*
X4052646Y3408627D1*
Y3435423D1*
X4046551Y3439341D1*
X4038617Y3446117D1*
X4031841Y3454051D1*
X4026388Y3462948D1*
X4022396Y3472587D1*
X4019961Y3482732D1*
X4019142Y3493134D1*
X4019961Y3503535D1*
X4022396Y3513681D1*
X4026388Y3523320D1*
X4031841Y3532217D1*
X4038617Y3540151D1*
X4046551Y3546927D1*
X4055448Y3552379D1*
X4065087Y3556371D1*
X4075232Y3558807D1*
X4085634Y3559626D1*
X4096035Y3558807D1*
X4106181Y3556371D1*
X4115820Y3552379D1*
X4124717Y3546927D1*
X4132651Y3540151D1*
X4139427Y3532217D1*
X4144879Y3523320D1*
X4148871Y3513681D1*
X4151307Y3503535D1*
X4152126Y3493134D1*
X4151921Y3487917D1*
X4489601Y3491297D2*
X4488992Y3483976D1*
X4487580Y3476768D1*
X4485382Y3469760D1*
X4482424Y3463037D1*
X4478743Y3456680D1*
X4474382Y3450769D1*
X4469396Y3445374D1*
X4463846Y3440563D1*
X4457799Y3436394D1*
X4451329Y3432916D1*
X4444516Y3430173D1*
X4437441Y3428199D1*
X4430190Y3427017D1*
X4422856Y3426642D1*
X4415522Y3427079D1*
X4408283Y3428322D1*
X4401224Y3430354D1*
X4394434Y3433155D1*
X4387993Y3436686D1*
X4381982Y3440907D1*
X4376472Y3445764D1*
X4371531Y3451201D1*
X4367222Y3457148D1*
X4363593Y3463534D1*
X4360692Y3470282D1*
X4358552Y3477310D1*
X4357201Y3484529D1*
X4356654Y3491854D1*
X4356919Y3499196D1*
X4357991Y3506462D1*
X4359858Y3513566D1*
X4362499Y3520420D1*
X4365878Y3526942D1*
X4369957Y3533051D1*
X4374684Y3538673D1*
X4380003Y3543739D1*
X4385848Y3548188D1*
X4392147Y3551965D1*
X4398825Y3555024D1*
X4405801Y3557327D1*
X4412987Y3558848D1*
X4420297Y3559566D1*
X4427642Y3559472D1*
X4434932Y3558571D1*
X4442077Y3556870D1*
X4448992Y3554392D1*
X4455591Y3551167D1*
X4461794Y3547232D1*
X4467525Y3542638D1*
X4472714Y3537440D1*
X4477299Y3531701D1*
X4481222Y3525491D1*
X4484437Y3518886D1*
X4486903Y3511967D1*
X4488592Y3504819D1*
X4489480Y3497528D1*
X4489601Y3491297D1*
X4639421Y3487917D2*
X4637789Y3477612D1*
X4634564Y3467689D1*
X4629828Y3458392D1*
X4623694Y3449950D1*
X4616318Y3442573D1*
X4607875Y3436440D1*
X4606114Y3435454D1*
X4606122Y3428507D1*
X4632669Y3401984D1*
X4662958Y3401988D1*
X4662980Y3421083D1*
X4775020D1*
Y3242114D1*
X4752018D1*
X4751887Y2878912D1*
X4751077Y2873799D1*
X4749478Y2868875D1*
X4747127Y2864264D1*
X4744084Y2860076D1*
X4696856Y2812703D1*
X4690424Y2806416D1*
X4686236Y2803373D1*
X4681625Y2801022D1*
X4676701Y2799423D1*
X4671588Y2798613D1*
X4604696Y2798512D1*
X3891412Y2798613D1*
X3886299Y2799423D1*
X3881375Y2801022D1*
X3876764Y2803373D1*
X3872576Y2806416D1*
X3825203Y2853644D1*
X3806416Y2872576D1*
X3803373Y2876764D1*
X3801022Y2881375D1*
X3799423Y2886299D1*
X3798613Y2891412D1*
X3798512Y2936236D1*
X3793887Y2941673D1*
X3790075Y2947892D1*
X3787283Y2954633D1*
X3785580Y2961727D1*
X3785008Y2969000D1*
X3785580Y2976273D1*
X3787283Y2983367D1*
X3790075Y2990108D1*
X3793887Y2996327D1*
X3798625Y3001875D1*
X3804173Y3006613D1*
X3810392Y3010425D1*
X3817133Y3013217D1*
X3824227Y3014920D1*
X3831500Y3015492D1*
X3838773Y3014920D1*
X3845867Y3013217D1*
X3852608Y3010425D1*
X3858827Y3006613D1*
X3864375Y3001875D1*
X3869113Y2996327D1*
X3872925Y2990108D1*
X3875717Y2983367D1*
X3877420Y2976273D1*
X3877992Y2969000D1*
X3877420Y2961727D1*
X3875717Y2954633D1*
X3872925Y2947892D1*
X3869113Y2941673D1*
X3864482Y2936240D1*
X3864488Y2907675D1*
X3907680Y2864472D1*
X4655354Y2864488D1*
X4685993Y2895146D1*
X4686012Y3219063D1*
X4680411Y3217668D1*
X4675251Y3217262D1*
X4583352D1*
X4583386Y3194231D1*
X4489457D1*
X4489488Y3150026D1*
X4508583Y3150020D1*
Y3037980D1*
X4404417D1*
Y3150020D1*
X4423543D1*
X4423512Y3194224D1*
X4404417Y3194231D1*
Y3306270D1*
X4583386D1*
Y3283269D1*
X4661598Y3283239D1*
X4662980Y3288046D1*
Y3336043D1*
X4616412Y3336113D1*
X4611299Y3336924D1*
X4606375Y3338522D1*
X4601764Y3340873D1*
X4597576Y3343916D1*
X4549807Y3391539D1*
X4546446Y3395476D1*
X4543741Y3399890D1*
X4541760Y3404672D1*
X4540551Y3409706D1*
X4540146Y3414866D1*
Y3435428D1*
X4534051Y3439341D1*
X4526117Y3446117D1*
X4519341Y3454051D1*
X4513888Y3462948D1*
X4509896Y3472587D1*
X4507461Y3482732D1*
X4506642Y3493134D1*
X4507461Y3503535D1*
X4509896Y3513681D1*
X4513888Y3523320D1*
X4519341Y3532217D1*
X4526117Y3540151D1*
X4534051Y3546927D1*
X4542948Y3552379D1*
X4552587Y3556371D1*
X4562732Y3558807D1*
X4573134Y3559626D1*
X4583535Y3558807D1*
X4593681Y3556371D1*
X4603320Y3552379D1*
X4612217Y3546927D1*
X4620151Y3540151D1*
X4626927Y3532217D1*
X4632379Y3523320D1*
X4636371Y3513681D1*
X4638807Y3503535D1*
X4639626Y3493134D1*
X4639421Y3487917D1*
X1227081Y679643D2*
X1226472Y672323D1*
X1225060Y665114D1*
X1222862Y658106D1*
X1219904Y651383D1*
X1216223Y645026D1*
X1211862Y639115D1*
X1206877Y633720D1*
X1201327Y628909D1*
X1195280Y624740D1*
X1188810Y621262D1*
X1181996Y618520D1*
X1174921Y616546D1*
X1167671Y615364D1*
X1160336Y614988D1*
X1153003Y615425D1*
X1145764Y616668D1*
X1138705Y618701D1*
X1131915Y621501D1*
X1125474Y625033D1*
X1119462Y629253D1*
X1113953Y634110D1*
X1109012Y639547D1*
X1104702Y645495D1*
X1101073Y651881D1*
X1098172Y658629D1*
X1096033Y665656D1*
X1094681Y672875D1*
X1094134Y680201D1*
X1094399Y687542D1*
X1095471Y694808D1*
X1097339Y701912D1*
X1099979Y708766D1*
X1103358Y715289D1*
X1107437Y721398D1*
X1112164Y727020D1*
X1117483Y732085D1*
X1123328Y736534D1*
X1129627Y740311D1*
X1136306Y743370D1*
X1143281Y745673D1*
X1150467Y747194D1*
X1157777Y747912D1*
X1165122Y747819D1*
X1172412Y746917D1*
X1179558Y745217D1*
X1186472Y742739D1*
X1193071Y739513D1*
X1199274Y735579D1*
X1205005Y730984D1*
X1210194Y725786D1*
X1214780Y720047D1*
X1218702Y713837D1*
X1221917Y707232D1*
X1224383Y700314D1*
X1226072Y693165D1*
X1226961Y685874D1*
X1227081Y679643D1*
X1714601D2*
X1713992Y672323D1*
X1712580Y665114D1*
X1710382Y658106D1*
X1707424Y651383D1*
X1703743Y645026D1*
X1699382Y639115D1*
X1694396Y633720D1*
X1688846Y628909D1*
X1682799Y624740D1*
X1676329Y621262D1*
X1669516Y618520D1*
X1662441Y616546D1*
X1655190Y615364D1*
X1647856Y614988D1*
X1640522Y615425D1*
X1633283Y616668D1*
X1626224Y618701D1*
X1619434Y621501D1*
X1612993Y625033D1*
X1606982Y629253D1*
X1601472Y634110D1*
X1596531Y639547D1*
X1592222Y645495D1*
X1588593Y651881D1*
X1585692Y658629D1*
X1583552Y665656D1*
X1582201Y672875D1*
X1581654Y680201D1*
X1581919Y687542D1*
X1582991Y694808D1*
X1584858Y701912D1*
X1587499Y708766D1*
X1590878Y715289D1*
X1594957Y721398D1*
X1599684Y727020D1*
X1605003Y732085D1*
X1610848Y736534D1*
X1617147Y740311D1*
X1623825Y743370D1*
X1630801Y745673D1*
X1637987Y747194D1*
X1645297Y747912D1*
X1652642Y747819D1*
X1659932Y746917D1*
X1667077Y745217D1*
X1673992Y742739D1*
X1680591Y739513D1*
X1686794Y735579D1*
X1692525Y730984D1*
X1697714Y725786D1*
X1702299Y720047D1*
X1706222Y713837D1*
X1709437Y707232D1*
X1711903Y700314D1*
X1713592Y693165D1*
X1714480Y685874D1*
X1714601Y679643D1*
X2204207D2*
X2203598Y672323D1*
X2202186Y665114D1*
X2199988Y658106D1*
X2197030Y651383D1*
X2193349Y645026D1*
X2188988Y639115D1*
X2184003Y633720D1*
X2178453Y628909D1*
X2172406Y624740D1*
X2165936Y621262D1*
X2159122Y618520D1*
X2152047Y616546D1*
X2144797Y615364D1*
X2137462Y614988D1*
X2130129Y615425D1*
X2122890Y616668D1*
X2115831Y618701D1*
X2109041Y621501D1*
X2102600Y625033D1*
X2096588Y629253D1*
X2091079Y634110D1*
X2086138Y639547D1*
X2081828Y645495D1*
X2078199Y651881D1*
X2075298Y658629D1*
X2073159Y665656D1*
X2071807Y672875D1*
X2071260Y680201D1*
X2071525Y687542D1*
X2072597Y694808D1*
X2074465Y701912D1*
X2077105Y708766D1*
X2080484Y715289D1*
X2084563Y721398D1*
X2089290Y727020D1*
X2094609Y732085D1*
X2100454Y736534D1*
X2106753Y740311D1*
X2113432Y743370D1*
X2120407Y745673D1*
X2127593Y747194D1*
X2134903Y747912D1*
X2142248Y747819D1*
X2149538Y746917D1*
X2156684Y745217D1*
X2163598Y742739D1*
X2170197Y739513D1*
X2176400Y735579D1*
X2182131Y730984D1*
X2187320Y725786D1*
X2191906Y720047D1*
X2195828Y713837D1*
X2199043Y707232D1*
X2201509Y700314D1*
X2203198Y693165D1*
X2204087Y685874D1*
X2204207Y679643D1*
X2689601D2*
X2688992Y672323D1*
X2687580Y665114D1*
X2685382Y658106D1*
X2682424Y651383D1*
X2678743Y645026D1*
X2674382Y639115D1*
X2669396Y633720D1*
X2663846Y628909D1*
X2657799Y624740D1*
X2651329Y621262D1*
X2644516Y618520D1*
X2637441Y616546D1*
X2630190Y615364D1*
X2622856Y614988D1*
X2615522Y615425D1*
X2608283Y616668D1*
X2601224Y618701D1*
X2594434Y621501D1*
X2587993Y625033D1*
X2581982Y629253D1*
X2576472Y634110D1*
X2571531Y639547D1*
X2567222Y645495D1*
X2563593Y651881D1*
X2560692Y658629D1*
X2558552Y665656D1*
X2557201Y672875D1*
X2556654Y680201D1*
X2556919Y687542D1*
X2557991Y694808D1*
X2559858Y701912D1*
X2562499Y708766D1*
X2565878Y715289D1*
X2569957Y721398D1*
X2574684Y727020D1*
X2580003Y732085D1*
X2585848Y736534D1*
X2592147Y740311D1*
X2598825Y743370D1*
X2605801Y745673D1*
X2612987Y747194D1*
X2620297Y747912D1*
X2627642Y747819D1*
X2634932Y746917D1*
X2642077Y745217D1*
X2648992Y742739D1*
X2655591Y739513D1*
X2661794Y735579D1*
X2667525Y730984D1*
X2672714Y725786D1*
X2677299Y720047D1*
X2681222Y713837D1*
X2684437Y707232D1*
X2686903Y700314D1*
X2688592Y693165D1*
X2689480Y685874D1*
X2689601Y679643D1*
X3177081D2*
X3176472Y672323D1*
X3175060Y665114D1*
X3172862Y658106D1*
X3169904Y651383D1*
X3166223Y645026D1*
X3161862Y639115D1*
X3156877Y633720D1*
X3151327Y628909D1*
X3145280Y624740D1*
X3138810Y621262D1*
X3131996Y618520D1*
X3124921Y616546D1*
X3117671Y615364D1*
X3110336Y614988D1*
X3103003Y615425D1*
X3095764Y616668D1*
X3088705Y618701D1*
X3081915Y621501D1*
X3075474Y625033D1*
X3069462Y629253D1*
X3063953Y634110D1*
X3059012Y639547D1*
X3054702Y645495D1*
X3051073Y651881D1*
X3048172Y658629D1*
X3046033Y665656D1*
X3044681Y672875D1*
X3044134Y680201D1*
X3044399Y687542D1*
X3045471Y694808D1*
X3047339Y701912D1*
X3049979Y708766D1*
X3053358Y715289D1*
X3057437Y721398D1*
X3062164Y727020D1*
X3067483Y732085D1*
X3073328Y736534D1*
X3079627Y740311D1*
X3086306Y743370D1*
X3093281Y745673D1*
X3100467Y747194D1*
X3107777Y747912D1*
X3115122Y747819D1*
X3122412Y746917D1*
X3129558Y745217D1*
X3136472Y742739D1*
X3143071Y739513D1*
X3149274Y735579D1*
X3155005Y730984D1*
X3160194Y725786D1*
X3164780Y720047D1*
X3168702Y713837D1*
X3171917Y707232D1*
X3174383Y700314D1*
X3176072Y693165D1*
X3176961Y685874D1*
X3177081Y679643D1*
X3664601D2*
X3663992Y672323D1*
X3662580Y665114D1*
X3660382Y658106D1*
X3657424Y651383D1*
X3653743Y645026D1*
X3649382Y639115D1*
X3644396Y633720D1*
X3638846Y628909D1*
X3632799Y624740D1*
X3626329Y621262D1*
X3619516Y618520D1*
X3612441Y616546D1*
X3605190Y615364D1*
X3597856Y614988D1*
X3590522Y615425D1*
X3583283Y616668D1*
X3576224Y618701D1*
X3569434Y621501D1*
X3562993Y625033D1*
X3556982Y629253D1*
X3551472Y634110D1*
X3546531Y639547D1*
X3542222Y645495D1*
X3538593Y651881D1*
X3535692Y658629D1*
X3533552Y665656D1*
X3532201Y672875D1*
X3531654Y680201D1*
X3531919Y687542D1*
X3532991Y694808D1*
X3534858Y701912D1*
X3537499Y708766D1*
X3540878Y715289D1*
X3544957Y721398D1*
X3549684Y727020D1*
X3555003Y732085D1*
X3560848Y736534D1*
X3567147Y740311D1*
X3573825Y743370D1*
X3580801Y745673D1*
X3587987Y747194D1*
X3595297Y747912D1*
X3602642Y747819D1*
X3609932Y746917D1*
X3617077Y745217D1*
X3623992Y742739D1*
X3630591Y739513D1*
X3636794Y735579D1*
X3642525Y730984D1*
X3647714Y725786D1*
X3652299Y720047D1*
X3656222Y713837D1*
X3659437Y707232D1*
X3661903Y700314D1*
X3663592Y693165D1*
X3664480Y685874D1*
X3664601Y679643D1*
X4152081D2*
X4151472Y672323D1*
X4150060Y665114D1*
X4147862Y658106D1*
X4144904Y651383D1*
X4141223Y645026D1*
X4136862Y639115D1*
X4131877Y633720D1*
X4126327Y628909D1*
X4120280Y624740D1*
X4113810Y621262D1*
X4106996Y618520D1*
X4099921Y616546D1*
X4092671Y615364D1*
X4085336Y614988D1*
X4078003Y615425D1*
X4070764Y616668D1*
X4063705Y618701D1*
X4056915Y621501D1*
X4050474Y625033D1*
X4044462Y629253D1*
X4038953Y634110D1*
X4034012Y639547D1*
X4029702Y645495D1*
X4026073Y651881D1*
X4023172Y658629D1*
X4021033Y665656D1*
X4019681Y672875D1*
X4019134Y680201D1*
X4019399Y687542D1*
X4020471Y694808D1*
X4022339Y701912D1*
X4024979Y708766D1*
X4028358Y715289D1*
X4032437Y721398D1*
X4037164Y727020D1*
X4042483Y732085D1*
X4048328Y736534D1*
X4054627Y740311D1*
X4061306Y743370D1*
X4068281Y745673D1*
X4075467Y747194D1*
X4082777Y747912D1*
X4090122Y747819D1*
X4097412Y746917D1*
X4104558Y745217D1*
X4111472Y742739D1*
X4118071Y739513D1*
X4124274Y735579D1*
X4130005Y730984D1*
X4135194Y725786D1*
X4139780Y720047D1*
X4143702Y713837D1*
X4146917Y707232D1*
X4149383Y700314D1*
X4151072Y693165D1*
X4151961Y685874D1*
X4152081Y679643D1*
X4639601D2*
X4638992Y672323D1*
X4637580Y665114D1*
X4635382Y658106D1*
X4632424Y651383D1*
X4628743Y645026D1*
X4624382Y639115D1*
X4619396Y633720D1*
X4613846Y628909D1*
X4607799Y624740D1*
X4601329Y621262D1*
X4594516Y618520D1*
X4587441Y616546D1*
X4580190Y615364D1*
X4572856Y614988D1*
X4565522Y615425D1*
X4558283Y616668D1*
X4551224Y618701D1*
X4544434Y621501D1*
X4537993Y625033D1*
X4531982Y629253D1*
X4526472Y634110D1*
X4521531Y639547D1*
X4517222Y645495D1*
X4513593Y651881D1*
X4510692Y658629D1*
X4508552Y665656D1*
X4507201Y672875D1*
X4506654Y680201D1*
X4506919Y687542D1*
X4507991Y694808D1*
X4509858Y701912D1*
X4512499Y708766D1*
X4515878Y715289D1*
X4519957Y721398D1*
X4524684Y727020D1*
X4530003Y732085D1*
X4535848Y736534D1*
X4542147Y740311D1*
X4548825Y743370D1*
X4555801Y745673D1*
X4562987Y747194D1*
X4570297Y747912D1*
X4577642Y747819D1*
X4584932Y746917D1*
X4592077Y745217D1*
X4598992Y742739D1*
X4605591Y739513D1*
X4611794Y735579D1*
X4617525Y730984D1*
X4622714Y725786D1*
X4627299Y720047D1*
X4631222Y713837D1*
X4634437Y707232D1*
X4636903Y700314D1*
X4638592Y693165D1*
X4639480Y685874D1*
X4639601Y679643D1*
X2658633Y2373692D2*
X2691467D1*
X2692542Y2379853D1*
X2694797Y2386791D1*
X2698109Y2393293D1*
X2702396Y2399194D1*
X2707555Y2404353D1*
X2713457Y2408640D1*
X2719958Y2411953D1*
X2726896Y2414207D1*
X2734101Y2415349D1*
X2741398D1*
X2748602Y2414207D1*
X2754752Y2412244D1*
X2754862Y2684087D1*
X2755672Y2689199D1*
X2757272Y2694122D1*
X2759622Y2698735D1*
X2762665Y2702923D1*
X2809892Y2750295D1*
X2901873Y2842276D1*
X2801438Y2842262D1*
X2370762Y2411610D1*
X2370738Y2373684D1*
X2658633Y2373692D1*
X2704773Y2241967D2*
X2620706D1*
X2620738Y2154856D1*
X2704780Y2238932D1*
X530730Y2428957D2*
X641457D1*
Y2309043D1*
X626134D1*
X630007Y2304241D1*
X634921Y2296219D1*
X638522Y2287528D1*
X640719Y2278379D1*
X641457Y2269000D1*
X640719Y2259621D1*
X638522Y2250472D1*
X634921Y2241781D1*
X630007Y2233759D1*
X623896Y2226604D1*
X616741Y2220493D1*
X614555Y2219033D1*
X620438Y2214592D1*
X627092Y2207938D1*
X632622Y2200327D1*
X636892Y2191945D1*
X639801Y2182996D1*
X641272Y2173705D1*
Y2164295D1*
X639801Y2155004D1*
X636892Y2146055D1*
X632622Y2137673D1*
X627092Y2130062D1*
X620438Y2123408D1*
X614555Y2119033D1*
X620438Y2114592D1*
X627092Y2107938D1*
X632622Y2100327D1*
X636892Y2091945D1*
X639801Y2082996D1*
X641272Y2073705D1*
Y2064295D1*
X639801Y2055004D1*
X636892Y2046055D1*
X632622Y2037673D1*
X627092Y2030062D1*
X620438Y2023408D1*
X614555Y2019033D1*
X620438Y2014592D1*
X627092Y2007938D1*
X632622Y2000327D1*
X636892Y1991945D1*
X639801Y1982996D1*
X641272Y1973705D1*
Y1964295D1*
X639801Y1955004D1*
X636892Y1946055D1*
X632622Y1937673D1*
X627092Y1930062D1*
X620438Y1923408D1*
X614555Y1919033D1*
X620648Y1914411D1*
X625907Y1909283D1*
X630500Y1903552D1*
X634357Y1897302D1*
X637420Y1890627D1*
X639644Y1883627D1*
X640997Y1876408D1*
X641457Y1869000D1*
X641007Y1861669D1*
X639664Y1854449D1*
X637449Y1847446D1*
X634394Y1840768D1*
X630545Y1834512D1*
X625961Y1828774D1*
X620709Y1823640D1*
X614867Y1819186D1*
X608528Y1815480D1*
X601781Y1812577D1*
X594730Y1810521D1*
X587480Y1809343D1*
X580142Y1809059D1*
X572823Y1809675D1*
X565635Y1811181D1*
X558685Y1813554D1*
X552076Y1816760D1*
X545909Y1820749D1*
X540277Y1825462D1*
X535264Y1830829D1*
X530944Y1836769D1*
X527382Y1843192D1*
X524633Y1850003D1*
X522736Y1857098D1*
X521722Y1864373D1*
X521605Y1871715D1*
X522386Y1879018D1*
X524055Y1886171D1*
X526585Y1893066D1*
X529940Y1899600D1*
X534068Y1905675D1*
X538908Y1911198D1*
X544387Y1916089D1*
X548419Y1918997D1*
X542562Y1923408D1*
X535908Y1930062D1*
X530378Y1937673D1*
X526108Y1946055D1*
X523199Y1955004D1*
X521728Y1964295D1*
Y1973705D1*
X523199Y1982996D1*
X526108Y1991945D1*
X530378Y2000327D1*
X535908Y2007938D1*
X542562Y2014592D1*
X548445Y2018967D1*
X542562Y2023408D1*
X535908Y2030062D1*
X530378Y2037673D1*
X526108Y2046055D1*
X523199Y2055004D1*
X521728Y2064295D1*
Y2073705D1*
X523199Y2082996D1*
X526108Y2091945D1*
X530378Y2100327D1*
X535908Y2107938D1*
X542562Y2114592D1*
X548445Y2118967D1*
X542562Y2123408D1*
X535908Y2130062D1*
X530378Y2137673D1*
X526108Y2146055D1*
X523199Y2155004D1*
X521728Y2164295D1*
Y2173705D1*
X523199Y2182996D1*
X526108Y2191945D1*
X530378Y2200327D1*
X535908Y2207938D1*
X542562Y2214592D1*
X548445Y2218967D1*
X542562Y2223408D1*
X535908Y2230062D1*
X530378Y2237673D1*
X526108Y2246055D1*
X523199Y2255004D1*
X521728Y2264295D1*
Y2273705D1*
X523199Y2282996D1*
X526108Y2291945D1*
X530378Y2300327D1*
X535908Y2307938D1*
X536920Y2309033D1*
X521543Y2309043D1*
Y2428957D1*
X530730D1*
X4948890Y2430335D2*
X5059617D1*
Y2310421D1*
X5044294D1*
X5048165Y2305619D1*
X5053081Y2297597D1*
X5056681Y2288906D1*
X5058878Y2279757D1*
X5059617Y2270378D1*
X5058878Y2260999D1*
X5056681Y2251850D1*
X5053081Y2243159D1*
X5048165Y2235136D1*
X5042055Y2227982D1*
X5034902Y2221871D1*
X5032714Y2220411D1*
X5038598Y2215970D1*
X5045251Y2209316D1*
X5050781Y2201705D1*
X5055052Y2193323D1*
X5057959Y2184374D1*
X5059432Y2175083D1*
Y2165673D1*
X5057959Y2156382D1*
X5055052Y2147433D1*
X5050781Y2139051D1*
X5045251Y2131440D1*
X5038598Y2124786D1*
X5032714Y2120411D1*
X5038598Y2115970D1*
X5045251Y2109316D1*
X5050781Y2101705D1*
X5055052Y2093323D1*
X5057959Y2084374D1*
X5059432Y2075083D1*
Y2065673D1*
X5057959Y2056382D1*
X5055052Y2047433D1*
X5050781Y2039051D1*
X5045251Y2031440D1*
X5038598Y2024786D1*
X5032714Y2020411D1*
X5038598Y2015970D1*
X5045251Y2009316D1*
X5050781Y2001705D1*
X5055052Y1993323D1*
X5057959Y1984374D1*
X5059432Y1975083D1*
Y1965673D1*
X5057959Y1956382D1*
X5055052Y1947433D1*
X5050781Y1939051D1*
X5045251Y1931440D1*
X5038598Y1924786D1*
X5032714Y1920411D1*
X5038808Y1915789D1*
X5044067Y1910661D1*
X5048659Y1904930D1*
X5052516Y1898680D1*
X5055580Y1892005D1*
X5057804Y1885005D1*
X5059156Y1877786D1*
X5059617Y1870378D1*
X5059167Y1863047D1*
X5057824Y1855827D1*
X5055608Y1848824D1*
X5052552Y1842146D1*
X5048705Y1835890D1*
X5044119Y1830152D1*
X5038867Y1825018D1*
X5033028Y1820564D1*
X5026686Y1816858D1*
X5019940Y1813955D1*
X5012890Y1811899D1*
X5005640Y1810720D1*
X4998302Y1810437D1*
X4990983Y1811052D1*
X4983794Y1812559D1*
X4976844Y1814932D1*
X4970236Y1818138D1*
X4964070Y1822127D1*
X4958437Y1826840D1*
X4953423Y1832207D1*
X4949102Y1838147D1*
X4945542Y1844570D1*
X4942793Y1851381D1*
X4940896Y1858476D1*
X4939882Y1865751D1*
X4939764Y1873093D1*
X4940546Y1880396D1*
X4942214Y1887549D1*
X4944744Y1894444D1*
X4948098Y1900978D1*
X4952227Y1907052D1*
X4957067Y1912576D1*
X4962546Y1917467D1*
X4966579Y1920375D1*
X4960720Y1924786D1*
X4954068Y1931440D1*
X4948538Y1939051D1*
X4944266Y1947433D1*
X4941360Y1956382D1*
X4939887Y1965673D1*
Y1975083D1*
X4941360Y1984374D1*
X4944266Y1993323D1*
X4948538Y2001705D1*
X4954068Y2009316D1*
X4960720Y2015970D1*
X4966605Y2020345D1*
X4960720Y2024786D1*
X4954068Y2031440D1*
X4948538Y2039051D1*
X4944266Y2047433D1*
X4941360Y2056382D1*
X4939887Y2065673D1*
Y2075083D1*
X4941360Y2084374D1*
X4944266Y2093323D1*
X4948538Y2101705D1*
X4954068Y2109316D1*
X4960720Y2115970D1*
X4966605Y2120345D1*
X4960720Y2124786D1*
X4954068Y2131440D1*
X4948538Y2139051D1*
X4944266Y2147433D1*
X4941360Y2156382D1*
X4939887Y2165673D1*
Y2175083D1*
X4941360Y2184374D1*
X4944266Y2193323D1*
X4948538Y2201705D1*
X4954068Y2209316D1*
X4960720Y2215970D1*
X4966605Y2220345D1*
X4960720Y2224786D1*
X4954068Y2231440D1*
X4948538Y2239051D1*
X4944266Y2247433D1*
X4941360Y2256382D1*
X4939887Y2265673D1*
Y2275083D1*
X4941360Y2284374D1*
X4944266Y2293323D1*
X4948538Y2301705D1*
X4954068Y2309316D1*
X4955079Y2310411D1*
X4939703Y2310421D1*
Y2430335D1*
X4948890D1*
X1077101Y3491277D2*
X1076492Y3483957D1*
X1075080Y3476748D1*
X1072882Y3469740D1*
X1069924Y3463017D1*
X1066243Y3456660D1*
X1061882Y3450749D1*
X1056896Y3445354D1*
X1051346Y3440543D1*
X1045299Y3436374D1*
X1038829Y3432896D1*
X1032016Y3430154D1*
X1024941Y3428180D1*
X1017690Y3426997D1*
X1010356Y3426622D1*
X1003022Y3427059D1*
X995783Y3428302D1*
X988724Y3430335D1*
X981934Y3433135D1*
X975493Y3436667D1*
X969482Y3440887D1*
X963972Y3445744D1*
X959031Y3451181D1*
X954722Y3457129D1*
X951093Y3463514D1*
X948192Y3470262D1*
X946052Y3477290D1*
X944701Y3484509D1*
X944154Y3491835D1*
X944419Y3499176D1*
X945491Y3506442D1*
X947358Y3513546D1*
X949999Y3520400D1*
X953378Y3526923D1*
X957457Y3533031D1*
X962184Y3538654D1*
X967503Y3543719D1*
X973348Y3548168D1*
X979647Y3551945D1*
X986325Y3555004D1*
X993301Y3557307D1*
X1000487Y3558828D1*
X1007797Y3559546D1*
X1015142Y3559453D1*
X1022432Y3558551D1*
X1029577Y3556850D1*
X1036492Y3554373D1*
X1043091Y3551147D1*
X1049294Y3547213D1*
X1055025Y3542618D1*
X1060214Y3537420D1*
X1064799Y3531681D1*
X1068722Y3525471D1*
X1071937Y3518866D1*
X1074403Y3511948D1*
X1076092Y3504799D1*
X1076980Y3497508D1*
X1077101Y3491277D1*
X3418770Y860444D2*
Y828364D1*
X3435682Y811470D1*
X3435677Y874425D1*
X3430509Y879588D1*
X3418753Y879566D1*
X3418735Y860471D1*
X4400020Y866693D2*
Y797150D1*
X4404437Y797167D1*
Y868181D1*
X4400030Y872568D1*
X4399984Y866720D1*
X1014520Y1778661D2*
X1020787D1*
Y1684339D1*
X867409D1*
Y1778661D1*
X873402D1*
X871850Y2036125D1*
X867113Y2041673D1*
X863301Y2047892D1*
X860509Y2054633D1*
X858806Y2061727D1*
X858234Y2069000D1*
X858806Y2076273D1*
X860509Y2083367D1*
X863301Y2090108D1*
X867113Y2096327D1*
X871850Y2101875D1*
X877399Y2106613D1*
X883618Y2110425D1*
X890358Y2113217D1*
X897453Y2114920D1*
X904726Y2115492D1*
X911999Y2114920D1*
X919093Y2113217D1*
X925833Y2110425D1*
X932052Y2106613D1*
X937601Y2101875D1*
X942339Y2096327D1*
X946151Y2090108D1*
X948513Y2084530D1*
X948512Y2136238D1*
X943887Y2141673D1*
X940075Y2147892D1*
X937283Y2154633D1*
X935580Y2161727D1*
X935008Y2169000D1*
X935580Y2176273D1*
X937283Y2183367D1*
X940075Y2190108D1*
X943887Y2196327D1*
X948625Y2201875D1*
X954173Y2206613D1*
X960392Y2210425D1*
X967133Y2213217D1*
X974227Y2214920D1*
X981500Y2215492D1*
X988773Y2214920D1*
X995867Y2213217D1*
X1002608Y2210425D1*
X1008827Y2206613D1*
X1014375Y2201875D1*
X1019113Y2196327D1*
X1022925Y2190108D1*
X1025717Y2183367D1*
X1027420Y2176273D1*
X1027992Y2169000D1*
X1027420Y2161727D1*
X1025717Y2154633D1*
X1022925Y2147892D1*
X1019113Y2141673D1*
X1014482Y2136240D1*
X1014488Y1778688D1*
X942213Y1778652D2*
X948492Y1778661D1*
X948512Y2053345D1*
X946151Y2047892D1*
X942339Y2041673D1*
X937900Y2036450D1*
X939411Y1778643D1*
X942231Y1778661D1*
X1344657Y1750020D2*
X1354597D1*
X1354566Y2336219D1*
X1349941Y2341673D1*
X1346129Y2347892D1*
X1343337Y2354633D1*
X1341634Y2361727D1*
X1341062Y2369000D1*
X1341634Y2376273D1*
X1343337Y2383367D1*
X1346129Y2390108D1*
X1349941Y2396327D1*
X1354678Y2401875D1*
X1360227Y2406613D1*
X1366446Y2410425D1*
X1373186Y2413217D1*
X1380281Y2414920D1*
X1387554Y2415492D1*
X1394827Y2414920D1*
X1401921Y2413217D1*
X1408661Y2410425D1*
X1414881Y2406613D1*
X1420429Y2401875D1*
X1425167Y2396327D1*
X1428979Y2390108D1*
X1431770Y2383367D1*
X1433474Y2376273D1*
X1434046Y2369000D1*
X1433474Y2361727D1*
X1431770Y2354633D1*
X1428979Y2347892D1*
X1425167Y2341673D1*
X1420535Y2336240D1*
X1420542Y1750034D1*
X1439636Y1750020D1*
Y1637980D1*
X1365033D1*
X1365029Y1556731D1*
X1260864D1*
X1260668Y1647167D1*
Y1750020D1*
X1344657D1*
X833269Y1778661D2*
X839537D1*
Y1684339D1*
X686159D1*
Y1778661D1*
X692438D1*
X692458Y2236211D1*
X687833Y2241673D1*
X684021Y2247892D1*
X681230Y2254633D1*
X679526Y2261727D1*
X678954Y2269000D1*
X679526Y2276273D1*
X681230Y2283367D1*
X684021Y2290108D1*
X687833Y2296327D1*
X692571Y2301875D1*
X698119Y2306613D1*
X704339Y2310425D1*
X711079Y2313217D1*
X718173Y2314920D1*
X725446Y2315492D1*
X732719Y2314920D1*
X739814Y2313217D1*
X746554Y2310425D1*
X752773Y2306613D1*
X758322Y2301875D1*
X763059Y2296327D1*
X766871Y2290108D1*
X767259Y2289265D1*
X767261Y2336256D1*
X762636Y2341673D1*
X758824Y2347892D1*
X756033Y2354633D1*
X754329Y2361727D1*
X753757Y2369000D1*
X754329Y2376273D1*
X756033Y2383367D1*
X758824Y2390108D1*
X762636Y2396327D1*
X767374Y2401875D1*
X772923Y2406613D1*
X779142Y2410425D1*
X785882Y2413217D1*
X792976Y2414920D1*
X800249Y2415492D1*
X807522Y2414920D1*
X814617Y2413217D1*
X821357Y2410425D1*
X827576Y2406613D1*
X833125Y2401875D1*
X837862Y2396327D1*
X841675Y2390108D1*
X844466Y2383367D1*
X846169Y2376273D1*
X846741Y2369000D1*
X846169Y2361727D1*
X844466Y2354633D1*
X841675Y2347892D1*
X837862Y2341673D1*
X833231Y2336240D1*
X833238Y1778669D1*
X760962Y1778652D2*
X767241Y1778661D1*
X767261Y2248698D1*
X763059Y2241673D1*
X758428Y2236240D1*
X758434Y1778643D1*
X760980Y1778661D1*
X1195769D2*
X1202037D1*
Y1684339D1*
X1123462D1*
Y1778661D1*
X1129741D1*
X1129761Y1936219D1*
X1125136Y1941673D1*
X1121324Y1947892D1*
X1118533Y1954633D1*
X1116829Y1961727D1*
X1116257Y1969000D1*
X1116829Y1976273D1*
X1118533Y1983367D1*
X1121324Y1990108D1*
X1125136Y1996327D1*
X1129874Y2001875D1*
X1135423Y2006613D1*
X1141642Y2010425D1*
X1148382Y2013217D1*
X1155476Y2014920D1*
X1162749Y2015492D1*
X1170022Y2014920D1*
X1177117Y2013217D1*
X1183857Y2010425D1*
X1190076Y2006613D1*
X1195625Y2001875D1*
X1200362Y1996327D1*
X1204175Y1990108D1*
X1206966Y1983367D1*
X1208669Y1976273D1*
X1209241Y1969000D1*
X1208669Y1961727D1*
X1206966Y1954633D1*
X1204175Y1947892D1*
X1200362Y1941673D1*
X1195731Y1936240D1*
X1195738Y1778634D1*
X3127136Y3217241D2*
Y3194231D1*
X3033207D1*
X3033239Y3150026D1*
X3052333Y3150020D1*
Y3045705D1*
X3199076Y3045739D1*
X3217260Y3063912D1*
X3217261Y3239395D1*
X3202924Y3225167D1*
X3198736Y3222123D1*
X3194125Y3219773D1*
X3189201Y3218173D1*
X3184088Y3217364D1*
X3127135Y3217262D1*
X642570Y3654547D2*
X641727Y3647423D1*
X640327Y3640386D1*
X638379Y3633482D1*
X635896Y3626751D1*
X632892Y3620235D1*
X629387Y3613975D1*
X625402Y3608009D1*
X620959Y3602375D1*
X616089Y3597108D1*
X610822Y3592238D1*
X605188Y3587795D1*
X599222Y3583810D1*
X592962Y3580304D1*
X586446Y3577301D1*
X579715Y3574818D1*
X572811Y3572870D1*
X565774Y3571470D1*
X558650Y3570627D1*
X551480Y3570345D1*
X544311Y3570627D1*
X537186Y3571470D1*
X530150Y3572870D1*
X523245Y3574818D1*
X516514Y3577301D1*
X509999Y3580304D1*
X503739Y3583810D1*
X497773Y3587795D1*
X492139Y3592238D1*
X486871Y3597108D1*
X482001Y3602375D1*
X477559Y3608009D1*
X473573Y3613975D1*
X470068Y3620235D1*
X467064Y3626751D1*
X464581Y3633482D1*
X462634Y3640386D1*
X461234Y3647423D1*
X460391Y3654547D1*
X460109Y3661717D1*
X460391Y3668886D1*
X461234Y3676010D1*
X462634Y3683047D1*
X464581Y3689951D1*
X467064Y3696682D1*
X470068Y3703198D1*
X473573Y3709458D1*
X477559Y3715424D1*
X482001Y3721058D1*
X486871Y3726325D1*
X492139Y3731196D1*
X497773Y3735638D1*
X503739Y3739623D1*
X511907Y3744009D1*
X431462Y3744000D1*
X425274Y419003D1*
X5011971Y425045D1*
X5004703Y427694D1*
X4998188Y430698D1*
X4991928Y434203D1*
X4985962Y438189D1*
X4980328Y442631D1*
X4975060Y447501D1*
X4970190Y452769D1*
X4965748Y458403D1*
X4961762Y464369D1*
X4958257Y470629D1*
X4955253Y477144D1*
X4952770Y483875D1*
X4950823Y490780D1*
X4949423Y497816D1*
X4948580Y504941D1*
X4948298Y512110D1*
X4948580Y519280D1*
X4949423Y526404D1*
X4950823Y533441D1*
X4952770Y540345D1*
X4955253Y547076D1*
X4958257Y553592D1*
X4961762Y559852D1*
X4965748Y565818D1*
X4970190Y571451D1*
X4975060Y576719D1*
X4980328Y581589D1*
X4985962Y586031D1*
X4991928Y590017D1*
X4998188Y593522D1*
X5004703Y596526D1*
X5011434Y599009D1*
X5018339Y600957D1*
X5025375Y602357D1*
X5032500Y603199D1*
X5039669Y603482D1*
X5046839Y603199D1*
X5053963Y602357D1*
X5061000Y600957D1*
X5067904Y599009D1*
X5074635Y596526D1*
X5081151Y593522D1*
X5087411Y590017D1*
X5093377Y586031D1*
X5099010Y581589D1*
X5104278Y576719D1*
X5109148Y571451D1*
X5113591Y565818D1*
X5117576Y559852D1*
X5121081Y553592D1*
X5124085Y547076D1*
X5126568Y540345D1*
X5128516Y533441D1*
X5129916Y526404D1*
X5130759Y519280D1*
X5131041Y512110D1*
X5130759Y504941D1*
X5129916Y497816D1*
X5128516Y490780D1*
X5126568Y483875D1*
X5124085Y477144D1*
X5121081Y470629D1*
X5117576Y464369D1*
X5113591Y458403D1*
X5109148Y452769D1*
X5104278Y447501D1*
X5099010Y442631D1*
X5093377Y438189D1*
X5087411Y434203D1*
X5081151Y430698D1*
X5074635Y427694D1*
X5067554Y425112D1*
X5156512Y425235D1*
X5156500Y3743987D1*
X5079398Y3744000D1*
X5087411Y3739623D1*
X5093377Y3735638D1*
X5099010Y3731196D1*
X5104278Y3726325D1*
X5109148Y3721058D1*
X5113591Y3715424D1*
X5117576Y3709458D1*
X5121081Y3703198D1*
X5124085Y3696682D1*
X5126568Y3689951D1*
X5128516Y3683047D1*
X5129916Y3676010D1*
X5130759Y3668886D1*
X5131041Y3661717D1*
X5130759Y3654547D1*
X5129916Y3647423D1*
X5128516Y3640386D1*
X5126568Y3633482D1*
X5124085Y3626751D1*
X5121081Y3620235D1*
X5117576Y3613975D1*
X5113591Y3608009D1*
X5109148Y3602375D1*
X5104278Y3597108D1*
X5099010Y3592238D1*
X5093377Y3587795D1*
X5087411Y3583810D1*
X5081151Y3580304D1*
X5074635Y3577301D1*
X5067904Y3574818D1*
X5061000Y3572870D1*
X5053963Y3571470D1*
X5046839Y3570627D1*
X5039669Y3570345D1*
X5032500Y3570627D1*
X5025375Y3571470D1*
X5018339Y3572870D1*
X5011434Y3574818D1*
X5004703Y3577301D1*
X4998188Y3580304D1*
X4991928Y3583810D1*
X4985962Y3587795D1*
X4980328Y3592238D1*
X4975060Y3597108D1*
X4970190Y3602375D1*
X4965748Y3608009D1*
X4961762Y3613975D1*
X4958257Y3620235D1*
X4955253Y3626751D1*
X4952770Y3633482D1*
X4950823Y3640386D1*
X4949423Y3647423D1*
X4948580Y3654547D1*
X4948298Y3661717D1*
X4948580Y3668886D1*
X4949423Y3676010D1*
X4950823Y3683047D1*
X4952770Y3689951D1*
X4955253Y3696682D1*
X4958257Y3703198D1*
X4961762Y3709458D1*
X4965748Y3715424D1*
X4970190Y3721058D1*
X4975060Y3726325D1*
X4980328Y3731196D1*
X4985962Y3735638D1*
X4991928Y3739623D1*
X5000096Y3744009D1*
X591218Y3744000D1*
X599222Y3739623D1*
X605188Y3735638D1*
X610822Y3731196D1*
X616089Y3726325D1*
X620959Y3721058D1*
X625402Y3715424D1*
X629387Y3709458D1*
X632892Y3703198D1*
X635896Y3696682D1*
X638379Y3689951D1*
X640327Y3683047D1*
X641727Y3676010D1*
X642570Y3668886D1*
X642852Y3661717D1*
X642570Y3654547D1*
Y504941D2*
X641727Y497816D1*
X640327Y490780D1*
X638379Y483875D1*
X635896Y477144D1*
X632892Y470629D1*
X629387Y464369D1*
X625402Y458403D1*
X620959Y452769D1*
X616089Y447501D1*
X610822Y442631D1*
X605188Y438189D1*
X599222Y434203D1*
X592962Y430698D1*
X586446Y427694D1*
X579715Y425211D1*
X572811Y423264D1*
X565774Y421864D1*
X558650Y421021D1*
X551480Y420739D1*
X544311Y421021D1*
X537186Y421864D1*
X530150Y423264D1*
X523245Y425211D1*
X516514Y427694D1*
X509999Y430698D1*
X503739Y434203D1*
X497773Y438189D1*
X492139Y442631D1*
X486871Y447501D1*
X482001Y452769D1*
X477559Y458403D1*
X473573Y464369D1*
X470068Y470629D1*
X467064Y477144D1*
X464581Y483875D1*
X462634Y490780D1*
X461234Y497816D1*
X460391Y504941D1*
X460109Y512110D1*
X460391Y519280D1*
X461234Y526404D1*
X462634Y533441D1*
X464581Y540345D1*
X467064Y547076D1*
X470068Y553592D1*
X473573Y559852D1*
X477559Y565818D1*
X482001Y571451D1*
X486871Y576719D1*
X492139Y581589D1*
X497773Y586031D1*
X503739Y590017D1*
X509999Y593522D1*
X516514Y596526D1*
X523245Y599009D1*
X530150Y600957D1*
X537186Y602357D1*
X544311Y603199D1*
X551480Y603482D1*
X558650Y603199D1*
X565774Y602357D1*
X572811Y600957D1*
X579715Y599009D1*
X586446Y596526D1*
X592962Y593522D1*
X599222Y590017D1*
X605188Y586031D1*
X610822Y581589D1*
X616089Y576719D1*
X620959Y571451D1*
X625402Y565818D1*
X629387Y559852D1*
X632892Y553592D1*
X635896Y547076D1*
X638379Y540345D1*
X640327Y533441D1*
X641727Y526404D1*
X642570Y519280D1*
X642852Y512110D1*
X642570Y504941D1*
X2345159Y2917256D2*
X2164496Y2736593D1*
X2164915Y2736567D1*
X2345604Y2917255D1*
X2208238Y2686577D2*
X2208357Y2571475D1*
X2211062Y2575888D1*
X2214423Y2579825D1*
X2501833Y2867236D1*
X2388916Y2867261D1*
X2208247Y2686593D1*
X2270741Y2486144D2*
X2614356Y2829759D1*
X2557675Y2829762D1*
X2270731Y2542828D1*
X2270738Y2486130D1*
X1498134Y3559571D2*
D15*
Y3426657D1*
X1987740Y3559591D2*
Y3426677D1*
X2473134Y3559591D2*
Y3426677D1*
X2960634Y3559591D2*
Y3426677D1*
X3448134Y3559591D2*
Y3426677D1*
X3935634Y3559591D2*
Y3426677D1*
X4423134Y3559591D2*
Y3426677D1*
X1160614Y747937D2*
Y615024D1*
X1648134Y747937D2*
Y615024D1*
X2137740Y747937D2*
Y615024D1*
X2623134Y747937D2*
Y615024D1*
X3110614Y747937D2*
Y615024D1*
X3598134Y747937D2*
Y615024D1*
X4085614Y747937D2*
Y615024D1*
X4573134Y747937D2*
Y615024D1*
X3181500Y2506500D2*
Y2448154D1*
X3381520Y2506480D2*
Y2448134D1*
X3581520Y2506480D2*
Y2448134D1*
X581500Y1869000D2*
Y1809079D1*
X4999660Y1870378D2*
Y1810457D1*
X1010634Y3559571D2*
Y3426657D1*
D19*
X1498134Y3493114D3*
X1648134D3*
X1987740Y3493134D3*
X2137740D3*
X2473134D3*
X2623134D3*
X2960634D3*
X3110634D3*
X3448134D3*
X3598134D3*
X3935634D3*
X4085634D3*
X4423134D3*
X4573134D3*
X1160614Y681480D3*
X1010614D3*
D20*
X2706500Y1756500D3*
X2631697D3*
D19*
X1648134Y681480D3*
X1498134D3*
X2137740D3*
X1987740D3*
X2623134D3*
X2473134D3*
X3110614D3*
X2960614D3*
X3598134D3*
X3448134D3*
X4085614D3*
X3935614D3*
X4573134D3*
X4423134D3*
D21*
X1281500Y3369000D3*
Y3294197D3*
X1781520Y3369000D3*
Y3294197D3*
D22*
X3181500Y2506500D3*
D23*
Y2606500D3*
Y2706500D3*
D21*
X2256520Y3369000D3*
Y3294197D3*
D24*
X2237749Y1937751D3*
X2287749D3*
X2337749D3*
X2387749D3*
X2437749D3*
X2487749D3*
X2537749D3*
X2587749D3*
X2637749D3*
X2687749D3*
X2737749D3*
X2787749D3*
X2837749D3*
X2887749D3*
Y2307829D3*
X2837749D3*
X2787749D3*
X2737749D3*
X2687749D3*
X2637749D3*
X2587749D3*
X2537749D3*
X2487749D3*
X2437749D3*
X2387749D3*
X2337749D3*
X2287749D3*
X2237749D3*
D22*
X3381520Y2506480D3*
D23*
Y2606480D3*
Y2706480D3*
D22*
X3581520Y2506480D3*
D23*
Y2606480D3*
Y2706480D3*
D25*
X581500Y2369000D3*
D26*
Y2269000D3*
Y2169000D3*
Y2069000D3*
Y1969000D3*
Y1869000D3*
D25*
X4999660Y2370378D3*
D26*
Y2270378D3*
Y2170378D3*
Y2070378D3*
Y1970378D3*
Y1870378D3*
D21*
X2750260Y3369000D3*
Y3294197D3*
X3250249Y3369000D3*
Y3294197D3*
X3725251Y3369000D3*
Y3294197D3*
X4206500Y3369000D3*
Y3294197D3*
X4719000Y3369000D3*
Y3294197D3*
X937751Y837751D3*
Y912554D3*
X1419000Y837751D3*
Y912554D3*
D19*
X1010634Y3493114D3*
X1160634D3*
D21*
X1912751Y844000D3*
Y918803D3*
X2400249Y844000D3*
Y918803D3*
X2887751Y844000D3*
Y918803D3*
X3362751Y837751D3*
Y912554D3*
X3869000Y844000D3*
Y918803D3*
X4344000Y844000D3*
Y918803D3*
D28*
X3287751Y2187749D3*
Y2053891D3*
D30*
X981500Y1731500D3*
X906697D3*
X944098Y1640949D3*
D20*
X1387554Y1694000D3*
X1312751D3*
X1387749Y1612751D3*
X1312946D3*
D30*
X800249Y1731500D3*
X725446D3*
X762848Y1640949D3*
X1162749Y1731500D3*
X1087946D3*
X1125348Y1640949D3*
D20*
X1131303Y3250251D3*
X1056500D3*
X1131303Y3094000D3*
X1056500D3*
X1606303Y3250251D3*
X1531500D3*
X1606303Y3094000D3*
X1531500D3*
X2093803Y3250249D3*
X2019000D3*
X2094000Y3094000D3*
X2019197D3*
X2581303Y3250251D3*
X2506500D3*
X2581303Y3094000D3*
X2506500D3*
X3075054Y3250251D3*
X3000251D3*
X3075054Y3094000D3*
X3000251D3*
X3556303Y3250251D3*
X3481500D3*
X3556303Y3094000D3*
X3481500D3*
X4031303Y3250249D3*
X3956500D3*
X4031303Y3094000D3*
X3956500D3*
X4531303Y3250251D3*
X4456500D3*
X4531303Y3094000D3*
X4456500D3*
X1050251Y844000D3*
X1125054D3*
X1050251Y1006500D3*
X1125054D3*
X1525260Y844000D3*
X1600063D3*
X1525251Y1006500D3*
X1600054D3*
X2019000Y844000D3*
X2093803D3*
X2019000Y1006500D3*
X2093803D3*
X2500251Y844000D3*
X2575054D3*
X2500231Y1006500D3*
X2575034D3*
X2994000Y844000D3*
X3068803D3*
X2994000Y1006500D3*
X3068803D3*
X3487760Y844000D3*
X3562563D3*
X3487751Y1006500D3*
X3562554D3*
X3969000Y844000D3*
X4043803D3*
X3969000Y1006500D3*
X4043803D3*
X4456520Y844000D3*
X4531323D3*
X4456500Y1006500D3*
X4531303D3*
M02*
