G04 DipTrace 3.3.1.3*
G04 TopAssy.gbr*
%MOIN*%
G04 #@! TF.FileFunction,Drawing,Top*
G04 #@! TF.Part,Single*
%ADD10C,0.009843*%
%ADD18C,0.01*%
%ADD61C,0.003088*%
%FSLAX26Y26*%
G04*
G70*
G90*
G75*
G01*
G04 TopAssy*
%LPD*%
X641339Y2448134D2*
D10*
Y1789866D1*
X5059499Y2449512D2*
Y1791244D1*
X936802Y3780732D2*
D18*
Y3818236D1*
X974302Y355732D2*
Y393236D1*
X679638Y2218434D2*
D61*
X659542D1*
Y2209812D1*
X660514Y2206938D1*
X661465Y2205988D1*
X663366Y2205037D1*
X666240D1*
X668164Y2205988D1*
X669114Y2206938D1*
X670065Y2209812D1*
X671038Y2206938D1*
X671988Y2205988D1*
X673890Y2205037D1*
X675813D1*
X677714Y2205988D1*
X678687Y2206938D1*
X679638Y2209812D1*
Y2218434D1*
X670065D2*
Y2209812D1*
X679638Y2193113D2*
X678687Y2195037D1*
X676764Y2196938D1*
X674862Y2197911D1*
X671988Y2198861D1*
X667191D1*
X664339Y2197911D1*
X662416Y2196938D1*
X660514Y2195037D1*
X659542Y2193113D1*
Y2189289D1*
X660514Y2187387D1*
X662416Y2185464D1*
X664339Y2184513D1*
X667191Y2183563D1*
X671988D1*
X674862Y2184513D1*
X676764Y2185464D1*
X678687Y2187387D1*
X679638Y2189289D1*
Y2193113D1*
X659542Y2162066D2*
X679638Y2169738D1*
X659542Y2177387D1*
X666240Y2174513D2*
Y2164940D1*
X670065Y2155891D2*
Y2147291D1*
X671038Y2144417D1*
X671988Y2143444D1*
X673890Y2142493D1*
X675813D1*
X677714Y2143444D1*
X678687Y2144417D1*
X679638Y2147291D1*
Y2155891D1*
X659542D1*
X670065Y2149192D2*
X659542Y2142493D1*
X679638Y2136318D2*
X659542D1*
Y2129619D1*
X660515Y2126745D1*
X662416Y2124821D1*
X664339Y2123871D1*
X667191Y2122920D1*
X671988D1*
X674862Y2123871D1*
X676764Y2124821D1*
X678687Y2126745D1*
X679638Y2129619D1*
Y2136318D1*
Y2084880D2*
Y2097304D1*
X659542D1*
Y2084880D1*
X670065Y2097304D2*
Y2089655D1*
X679638Y2078704D2*
X659542D1*
Y2072005D1*
X660515Y2069131D1*
X662416Y2067208D1*
X664339Y2066257D1*
X667191Y2065307D1*
X671988D1*
X674862Y2066257D1*
X676764Y2067208D1*
X678687Y2069131D1*
X679638Y2072005D1*
Y2078704D1*
X674862Y2044783D2*
X676764Y2045733D1*
X678687Y2047657D1*
X679638Y2049558D1*
Y2053383D1*
X678687Y2055306D1*
X676764Y2057207D1*
X674862Y2058180D1*
X671988Y2059131D1*
X667191D1*
X664339Y2058180D1*
X662416Y2057207D1*
X660515Y2055306D1*
X659542Y2053383D1*
Y2049558D1*
X660515Y2047657D1*
X662416Y2045733D1*
X664339Y2044783D1*
X667191D1*
Y2049558D1*
X679638Y2026183D2*
Y2038607D1*
X659542D1*
Y2026183D1*
X670065Y2038607D2*
Y2030958D1*
X5097798Y2219812D2*
X5077702D1*
Y2211190D1*
X5078675Y2208316D1*
X5079625Y2207366D1*
X5081526Y2206415D1*
X5084400D1*
X5086324Y2207366D1*
X5087275Y2208316D1*
X5088225Y2211190D1*
X5089198Y2208316D1*
X5090149Y2207366D1*
X5092050Y2206415D1*
X5093973D1*
X5095874Y2207365D1*
X5096847Y2208316D1*
X5097798Y2211190D1*
Y2219812D1*
X5088225D2*
Y2211190D1*
X5097798Y2194491D2*
X5096847Y2196415D1*
X5094924Y2198316D1*
X5093023Y2199289D1*
X5090149Y2200239D1*
X5085351D1*
X5082499Y2199289D1*
X5080576Y2198316D1*
X5078675Y2196415D1*
X5077702Y2194491D1*
Y2190667D1*
X5078675Y2188765D1*
X5080576Y2186842D1*
X5082499Y2185891D1*
X5085351Y2184941D1*
X5090149D1*
X5093023Y2185891D1*
X5094924Y2186842D1*
X5096847Y2188765D1*
X5097798Y2190667D1*
Y2194491D1*
X5077702Y2163444D2*
X5097798Y2171116D1*
X5077702Y2178765D1*
X5084401Y2175891D2*
Y2166318D1*
X5088225Y2157269D2*
Y2148669D1*
X5089198Y2145795D1*
X5090149Y2144822D1*
X5092050Y2143871D1*
X5093973D1*
X5095874Y2144822D1*
X5096847Y2145795D1*
X5097798Y2148669D1*
Y2157269D1*
X5077702D1*
X5088225Y2150570D2*
X5077702Y2143871D1*
X5097798Y2137695D2*
X5077702Y2137696D1*
Y2130997D1*
X5078675Y2128123D1*
X5080576Y2126199D1*
X5082499Y2125249D1*
X5085351Y2124298D1*
X5090149D1*
X5093023Y2125249D1*
X5094924Y2126199D1*
X5096847Y2128123D1*
X5097798Y2130997D1*
Y2137695D1*
Y2086257D2*
Y2098682D1*
X5077702D1*
Y2086257D1*
X5088225Y2098682D2*
Y2091033D1*
X5097798Y2080082D2*
X5077702D1*
Y2073383D1*
X5078675Y2070509D1*
X5080576Y2068586D1*
X5082499Y2067635D1*
X5085351Y2066684D1*
X5090149D1*
X5093023Y2067635D1*
X5094924Y2068586D1*
X5096847Y2070509D1*
X5097798Y2073383D1*
Y2080082D1*
X5093023Y2046161D2*
X5094924Y2047111D1*
X5096847Y2049035D1*
X5097798Y2050936D1*
Y2054761D1*
X5096847Y2056684D1*
X5094924Y2058585D1*
X5093023Y2059558D1*
X5090149Y2060509D1*
X5085351D1*
X5082499Y2059558D1*
X5080576Y2058585D1*
X5078675Y2056684D1*
X5077702Y2054761D1*
Y2050936D1*
X5078675Y2049035D1*
X5080576Y2047111D1*
X5082499Y2046161D1*
X5085351D1*
Y2050936D1*
X5097798Y2027561D2*
Y2039985D1*
X5077702D1*
Y2027561D1*
X5088225Y2039985D2*
Y2032336D1*
M02*
