G04 DipTrace 3.3.1.3*
G04 TopPaste.gbr*
%MOIN*%
G04 #@! TF.FileFunction,Paste,Top*
G04 #@! TF.Part,Single*
%ADD41R,0.021591X0.037339*%
%ADD43R,0.051118X0.084583*%
%ADD49R,0.019622X0.07474*%
%ADD55R,0.055055X0.047181*%
%ADD57R,0.047181X0.055055*%
%FSLAX26Y26*%
G04*
G70*
G90*
G75*
G01*
G04 TopPaste*
%LPD*%
D57*
X2706500Y1756500D3*
X2631697D3*
D55*
X1281500Y3369000D3*
Y3294197D3*
X1781520Y3369000D3*
Y3294197D3*
X2256520Y3369000D3*
Y3294197D3*
D49*
X2237749Y1937751D3*
X2287749D3*
X2337749D3*
X2387749D3*
X2437749D3*
X2487749D3*
X2537749D3*
X2587749D3*
X2637749D3*
X2687749D3*
X2737749D3*
X2787749D3*
X2837749D3*
X2887749D3*
Y2307829D3*
X2837749D3*
X2787749D3*
X2737749D3*
X2687749D3*
X2637749D3*
X2587749D3*
X2537749D3*
X2487749D3*
X2437749D3*
X2387749D3*
X2337749D3*
X2287749D3*
X2237749D3*
D55*
X2750260Y3369000D3*
Y3294197D3*
X3250249Y3369000D3*
Y3294197D3*
X3725251Y3369000D3*
Y3294197D3*
X4206500Y3369000D3*
Y3294197D3*
X4719000Y3369000D3*
Y3294197D3*
X937751Y837751D3*
Y912554D3*
X1419000Y837751D3*
Y912554D3*
X1912751Y844000D3*
Y918803D3*
X2400249Y844000D3*
Y918803D3*
X2887751Y844000D3*
Y918803D3*
X3362751Y837751D3*
Y912554D3*
X3869000Y844000D3*
Y918803D3*
X4344000Y844000D3*
Y918803D3*
D43*
X3287751Y2187749D3*
Y2053891D3*
D41*
X981500Y1731500D3*
X906697D3*
X944098Y1640949D3*
D57*
X1387554Y1694000D3*
X1312751D3*
X1387749Y1612751D3*
X1312946D3*
D41*
X800249Y1731500D3*
X725446D3*
X762848Y1640949D3*
X1162749Y1731500D3*
X1087946D3*
X1125348Y1640949D3*
D57*
X1131303Y3250251D3*
X1056500D3*
X1131303Y3094000D3*
X1056500D3*
X1606303Y3250251D3*
X1531500D3*
X1606303Y3094000D3*
X1531500D3*
X2093803Y3250249D3*
X2019000D3*
X2094000Y3094000D3*
X2019197D3*
X2581303Y3250251D3*
X2506500D3*
X2581303Y3094000D3*
X2506500D3*
X3075054Y3250251D3*
X3000251D3*
X3075054Y3094000D3*
X3000251D3*
X3556303Y3250251D3*
X3481500D3*
X3556303Y3094000D3*
X3481500D3*
X4031303Y3250249D3*
X3956500D3*
X4031303Y3094000D3*
X3956500D3*
X4531303Y3250251D3*
X4456500D3*
X4531303Y3094000D3*
X4456500D3*
X1050251Y844000D3*
X1125054D3*
X1050251Y1006500D3*
X1125054D3*
X1525260Y844000D3*
X1600063D3*
X1525251Y1006500D3*
X1600054D3*
X2019000Y844000D3*
X2093803D3*
X2019000Y1006500D3*
X2093803D3*
X2500251Y844000D3*
X2575054D3*
X2500231Y1006500D3*
X2575034D3*
X2994000Y844000D3*
X3068803D3*
X2994000Y1006500D3*
X3068803D3*
X3487760Y844000D3*
X3562563D3*
X3487751Y1006500D3*
X3562554D3*
X3969000Y844000D3*
X4043803D3*
X3969000Y1006500D3*
X4043803D3*
X4456520Y844000D3*
X4531323D3*
X4456500Y1006500D3*
X4531303D3*
M02*
