G04 DipTrace 3.3.1.3*
G04 TopSilk.gbr*
%MOIN*%
G04 #@! TF.FileFunction,Legend,Top*
G04 #@! TF.Part,Single*
%ADD10C,0.009843*%
%ADD27C,0.023616*%
%ADD29C,0.015404*%
%ADD60C,0.00772*%
%FSLAX26Y26*%
G04*
G70*
G90*
G75*
G01*
G04 TopSilk*
%LPD*%
X1398134Y3820615D2*
D10*
X1748134D1*
Y3455613D1*
X1398134D1*
Y3820615D1*
X1887740Y3820635D2*
X2237740D1*
Y3455633D1*
X1887740D1*
Y3820635D1*
X2373134D2*
X2723134D1*
Y3455633D1*
X2373134D1*
Y3820635D1*
X2860634D2*
X3210634D1*
Y3455633D1*
X2860634D1*
Y3820635D1*
X3348134D2*
X3698134D1*
Y3455633D1*
X3348134D1*
Y3820635D1*
X3835634D2*
X4185634D1*
Y3455633D1*
X3835634D1*
Y3820635D1*
X4323134D2*
X4673134D1*
Y3455633D1*
X4323134D1*
Y3820635D1*
X1260614Y353979D2*
X910614D1*
Y718981D1*
X1260614D1*
Y353979D1*
X1748134D2*
X1398134D1*
Y718981D1*
X1748134D1*
Y353979D1*
X2237740D2*
X1887740D1*
Y718981D1*
X2237740D1*
Y353979D1*
X2723134D2*
X2373134D1*
Y718981D1*
X2723134D1*
Y353979D1*
X3210614D2*
X2860614D1*
Y718981D1*
X3210614D1*
Y353979D1*
X3698134D2*
X3348134D1*
Y718981D1*
X3698134D1*
Y353979D1*
X4185614D2*
X3835614D1*
Y718981D1*
X4185614D1*
Y353979D1*
X4673134D2*
X4323134D1*
Y718981D1*
X4673134D1*
Y353979D1*
X3132287Y2446657D2*
X3230713D1*
Y2766343D1*
X3132287D1*
Y2446657D1*
X2204501Y1996807D2*
X2920998D1*
X2204501Y2248773D2*
X2920998D1*
Y1996807D2*
Y2248773D1*
X2204501Y1996807D2*
Y2091283D1*
Y2154297D2*
Y2248773D1*
Y2091283D2*
G03X2204501Y2154297I-53J31507D01*
G01*
X3332307Y2446638D2*
X3430732D1*
Y2766323D1*
X3332307D1*
Y2446638D1*
X3532307D2*
X3630732D1*
Y2766323D1*
X3532307D1*
Y2446638D1*
X631502Y2418973D2*
X531500D1*
Y1819027D1*
X631502D1*
Y2418973D1*
X5049662Y2420351D2*
X4949660D1*
Y1820405D1*
X5049662D1*
Y2420351D1*
X910634Y3820615D2*
X1260634D1*
Y3455613D1*
X910634D1*
Y3820615D1*
X3372396Y2036180D2*
X3331055D1*
X3372396D2*
Y2175918D1*
X3342872Y2205457D2*
X3372396Y2175918D1*
X3342872Y2205457D2*
X3331055D1*
X3244446Y2036180D2*
X3203105D1*
Y2175918D1*
X3232629Y2205457D2*
X3203105Y2175918D1*
X3244446Y2205457D2*
X3232629D1*
D27*
X3338936Y2227118D3*
D29*
X1012349Y1746209D3*
X1003148Y1696067D2*
D10*
X885043D1*
Y1676382D1*
X1003148D1*
Y1696067D1*
D29*
X831098Y1746209D3*
X821898Y1696067D2*
D10*
X703793D1*
Y1676382D1*
X821898D1*
Y1696067D1*
D29*
X1193598Y1746209D3*
X1184398Y1696067D2*
D10*
X1066293D1*
Y1676382D1*
X1184398D1*
Y1696067D1*
X1516482Y3428970D2*
D60*
X1511728Y3433779D1*
X1504543Y3436155D1*
X1494982D1*
X1487797Y3433779D1*
X1482988Y3428970D1*
Y3424217D1*
X1485420Y3419409D1*
X1487797Y3417032D1*
X1492550Y3414656D1*
X1506920Y3409847D1*
X1511728Y3407471D1*
X1514105Y3405039D1*
X1516482Y3400286D1*
Y3393101D1*
X1511728Y3388347D1*
X1504543Y3385915D1*
X1494982D1*
X1487797Y3388347D1*
X1482988Y3393101D1*
X1565414Y3428970D2*
X1560661Y3433779D1*
X1553476Y3436155D1*
X1543914D1*
X1536729Y3433779D1*
X1531921Y3428970D1*
Y3424217D1*
X1534353Y3419409D1*
X1536729Y3417032D1*
X1541483Y3414656D1*
X1555853Y3409847D1*
X1560661Y3407471D1*
X1563038Y3405039D1*
X1565414Y3400286D1*
Y3393101D1*
X1560661Y3388347D1*
X1553476Y3385915D1*
X1543914D1*
X1536729Y3388347D1*
X1531921Y3393101D1*
X1580853Y3412224D2*
X1602353D1*
X1609538Y3414656D1*
X1611970Y3417032D1*
X1614347Y3421785D1*
Y3426594D1*
X1611970Y3431347D1*
X1609538Y3433779D1*
X1602353Y3436155D1*
X1580853D1*
Y3385915D1*
X1597600Y3412224D2*
X1614347Y3385915D1*
X1632218Y3424162D2*
Y3426539D1*
X1634595Y3431347D1*
X1636971Y3433724D1*
X1641780Y3436100D1*
X1651341D1*
X1656094Y3433724D1*
X1658471Y3431347D1*
X1660903Y3426539D1*
Y3421785D1*
X1658471Y3416977D1*
X1653718Y3409847D1*
X1629786Y3385915D1*
X1663279D1*
X2006088Y3428990D2*
X2001335Y3433799D1*
X1994150Y3436175D1*
X1984588D1*
X1977403Y3433799D1*
X1972595Y3428990D1*
Y3424237D1*
X1975026Y3419428D1*
X1977403Y3417052D1*
X1982156Y3414675D1*
X1996526Y3409867D1*
X2001335Y3407490D1*
X2003711Y3405058D1*
X2006088Y3400305D1*
Y3393120D1*
X2001335Y3388367D1*
X1994150Y3385935D1*
X1984588D1*
X1977403Y3388367D1*
X1972595Y3393120D1*
X2055021Y3428990D2*
X2050267Y3433799D1*
X2043082Y3436175D1*
X2033521D1*
X2026336Y3433799D1*
X2021527Y3428990D1*
Y3424237D1*
X2023959Y3419428D1*
X2026336Y3417052D1*
X2031089Y3414675D1*
X2045459Y3409867D1*
X2050267Y3407490D1*
X2052644Y3405058D1*
X2055021Y3400305D1*
Y3393120D1*
X2050267Y3388367D1*
X2043082Y3385935D1*
X2033521D1*
X2026336Y3388367D1*
X2021527Y3393120D1*
X2070460Y3412243D2*
X2091960D1*
X2099145Y3414675D1*
X2101577Y3417052D1*
X2103953Y3421805D1*
Y3426614D1*
X2101577Y3431367D1*
X2099145Y3433799D1*
X2091960Y3436175D1*
X2070460D1*
Y3385935D1*
X2087206Y3412243D2*
X2103953Y3385935D1*
X2124201Y3436120D2*
X2150454D1*
X2136139Y3416997D1*
X2143324D1*
X2148077Y3414620D1*
X2150454Y3412243D1*
X2152886Y3405058D1*
Y3400305D1*
X2150454Y3393120D1*
X2145701Y3388312D1*
X2138516Y3385935D1*
X2131331D1*
X2124201Y3388312D1*
X2121824Y3390744D1*
X2119392Y3395497D1*
X2490293Y3428990D2*
X2485540Y3433799D1*
X2478355Y3436175D1*
X2468794D1*
X2461608Y3433799D1*
X2456800Y3428990D1*
Y3424237D1*
X2459232Y3419428D1*
X2461608Y3417052D1*
X2466362Y3414675D1*
X2480732Y3409867D1*
X2485540Y3407490D1*
X2487917Y3405058D1*
X2490293Y3400305D1*
Y3393120D1*
X2485540Y3388367D1*
X2478355Y3385935D1*
X2468794D1*
X2461608Y3388367D1*
X2456800Y3393120D1*
X2539226Y3428990D2*
X2534473Y3433799D1*
X2527288Y3436175D1*
X2517726D1*
X2510541Y3433799D1*
X2505733Y3428990D1*
Y3424237D1*
X2508164Y3419428D1*
X2510541Y3417052D1*
X2515294Y3414675D1*
X2529664Y3409867D1*
X2534473Y3407490D1*
X2536849Y3405058D1*
X2539226Y3400305D1*
Y3393120D1*
X2534473Y3388367D1*
X2527288Y3385935D1*
X2517726D1*
X2510541Y3388367D1*
X2505733Y3393120D1*
X2554665Y3412243D2*
X2576165D1*
X2583350Y3414675D1*
X2585782Y3417052D1*
X2588159Y3421805D1*
Y3426614D1*
X2585782Y3431367D1*
X2583350Y3433799D1*
X2576165Y3436175D1*
X2554665D1*
Y3385935D1*
X2571412Y3412243D2*
X2588159Y3385935D1*
X2627529D2*
Y3436120D1*
X2603598Y3402682D1*
X2639468D1*
X2978982Y3428990D2*
X2974228Y3433799D1*
X2967043Y3436175D1*
X2957482D1*
X2950297Y3433799D1*
X2945488Y3428990D1*
Y3424237D1*
X2947920Y3419428D1*
X2950297Y3417052D1*
X2955050Y3414675D1*
X2969420Y3409867D1*
X2974228Y3407490D1*
X2976605Y3405058D1*
X2978982Y3400305D1*
Y3393120D1*
X2974228Y3388367D1*
X2967043Y3385935D1*
X2957482D1*
X2950297Y3388367D1*
X2945488Y3393120D1*
X3027914Y3428990D2*
X3023161Y3433799D1*
X3015976Y3436175D1*
X3006414D1*
X2999229Y3433799D1*
X2994421Y3428990D1*
Y3424237D1*
X2996853Y3419428D1*
X2999229Y3417052D1*
X3003983Y3414675D1*
X3018353Y3409867D1*
X3023161Y3407490D1*
X3025538Y3405058D1*
X3027914Y3400305D1*
Y3393120D1*
X3023161Y3388367D1*
X3015976Y3385935D1*
X3006414D1*
X2999229Y3388367D1*
X2994421Y3393120D1*
X3043353Y3412243D2*
X3064853D1*
X3072038Y3414675D1*
X3074470Y3417052D1*
X3076847Y3421805D1*
Y3426614D1*
X3074470Y3431367D1*
X3072038Y3433799D1*
X3064853Y3436175D1*
X3043353D1*
Y3385935D1*
X3060100Y3412243D2*
X3076847Y3385935D1*
X3120971Y3436120D2*
X3097095D1*
X3094718Y3414620D1*
X3097095Y3416997D1*
X3104280Y3419428D1*
X3111409D1*
X3118594Y3416997D1*
X3123403Y3412243D1*
X3125779Y3405058D1*
Y3400305D1*
X3123403Y3393120D1*
X3118594Y3388312D1*
X3111409Y3385935D1*
X3104280D1*
X3097095Y3388312D1*
X3094718Y3390744D1*
X3092286Y3395497D1*
X3467698Y3428990D2*
X3462944Y3433799D1*
X3455759Y3436175D1*
X3446198D1*
X3439013Y3433799D1*
X3434204Y3428990D1*
Y3424237D1*
X3436636Y3419428D1*
X3439013Y3417052D1*
X3443766Y3414675D1*
X3458136Y3409867D1*
X3462944Y3407490D1*
X3465321Y3405058D1*
X3467698Y3400305D1*
Y3393120D1*
X3462944Y3388367D1*
X3455759Y3385935D1*
X3446198D1*
X3439013Y3388367D1*
X3434204Y3393120D1*
X3516630Y3428990D2*
X3511877Y3433799D1*
X3504692Y3436175D1*
X3495130D1*
X3487945Y3433799D1*
X3483137Y3428990D1*
Y3424237D1*
X3485569Y3419428D1*
X3487945Y3417052D1*
X3492698Y3414675D1*
X3507069Y3409867D1*
X3511877Y3407490D1*
X3514254Y3405058D1*
X3516630Y3400305D1*
Y3393120D1*
X3511877Y3388367D1*
X3504692Y3385935D1*
X3495130D1*
X3487945Y3388367D1*
X3483137Y3393120D1*
X3532069Y3412243D2*
X3553569D1*
X3560754Y3414675D1*
X3563186Y3417052D1*
X3565563Y3421805D1*
Y3426614D1*
X3563186Y3431367D1*
X3560754Y3433799D1*
X3553569Y3436175D1*
X3532069D1*
Y3385935D1*
X3548816Y3412243D2*
X3565563Y3385935D1*
X3609687Y3428990D2*
X3607310Y3433743D1*
X3600125Y3436120D1*
X3595372D1*
X3588187Y3433743D1*
X3583379Y3426558D1*
X3581002Y3414620D1*
Y3402682D1*
X3583379Y3393120D1*
X3588187Y3388312D1*
X3595372Y3385935D1*
X3597749D1*
X3604878Y3388312D1*
X3609687Y3393120D1*
X3612063Y3400305D1*
Y3402682D1*
X3609687Y3409867D1*
X3604878Y3414620D1*
X3597749Y3416997D1*
X3595372D1*
X3588187Y3414620D1*
X3583379Y3409867D1*
X3581002Y3402682D1*
X3953982Y3428990D2*
X3949228Y3433799D1*
X3942043Y3436175D1*
X3932482D1*
X3925297Y3433799D1*
X3920488Y3428990D1*
Y3424237D1*
X3922920Y3419428D1*
X3925297Y3417052D1*
X3930050Y3414675D1*
X3944420Y3409867D1*
X3949228Y3407490D1*
X3951605Y3405058D1*
X3953982Y3400305D1*
Y3393120D1*
X3949228Y3388367D1*
X3942043Y3385935D1*
X3932482D1*
X3925297Y3388367D1*
X3920488Y3393120D1*
X4002914Y3428990D2*
X3998161Y3433799D1*
X3990976Y3436175D1*
X3981414D1*
X3974229Y3433799D1*
X3969421Y3428990D1*
Y3424237D1*
X3971853Y3419428D1*
X3974229Y3417052D1*
X3978983Y3414675D1*
X3993353Y3409867D1*
X3998161Y3407490D1*
X4000538Y3405058D1*
X4002914Y3400305D1*
Y3393120D1*
X3998161Y3388367D1*
X3990976Y3385935D1*
X3981414D1*
X3974229Y3388367D1*
X3969421Y3393120D1*
X4018353Y3412243D2*
X4039853D1*
X4047038Y3414675D1*
X4049470Y3417052D1*
X4051847Y3421805D1*
Y3426614D1*
X4049470Y3431367D1*
X4047038Y3433799D1*
X4039853Y3436175D1*
X4018353D1*
Y3385935D1*
X4035100Y3412243D2*
X4051847Y3385935D1*
X4076848D2*
X4100779Y3436120D1*
X4067286D1*
X4441509Y3428990D2*
X4436756Y3433799D1*
X4429571Y3436175D1*
X4420009D1*
X4412824Y3433799D1*
X4408016Y3428990D1*
Y3424237D1*
X4410448Y3419428D1*
X4412824Y3417052D1*
X4417578Y3414675D1*
X4431948Y3409867D1*
X4436756Y3407490D1*
X4439133Y3405058D1*
X4441509Y3400305D1*
Y3393120D1*
X4436756Y3388367D1*
X4429571Y3385935D1*
X4420009D1*
X4412824Y3388367D1*
X4408016Y3393120D1*
X4490442Y3428990D2*
X4485689Y3433799D1*
X4478504Y3436175D1*
X4468942D1*
X4461757Y3433799D1*
X4456949Y3428990D1*
Y3424237D1*
X4459380Y3419428D1*
X4461757Y3417052D1*
X4466510Y3414675D1*
X4480880Y3409867D1*
X4485689Y3407490D1*
X4488065Y3405058D1*
X4490442Y3400305D1*
Y3393120D1*
X4485689Y3388367D1*
X4478504Y3385935D1*
X4468942D1*
X4461757Y3388367D1*
X4456949Y3393120D1*
X4505881Y3412243D2*
X4527381D1*
X4534566Y3414675D1*
X4536998Y3417052D1*
X4539374Y3421805D1*
Y3426614D1*
X4536998Y3431367D1*
X4534566Y3433799D1*
X4527381Y3436175D1*
X4505881D1*
Y3385935D1*
X4522628Y3412243D2*
X4539374Y3385935D1*
X4566752Y3436120D2*
X4559622Y3433743D1*
X4557190Y3428990D1*
Y3424182D1*
X4559622Y3419428D1*
X4564375Y3416997D1*
X4573937Y3414620D1*
X4581122Y3412243D1*
X4585875Y3407435D1*
X4588252Y3402682D1*
Y3395497D1*
X4585875Y3390744D1*
X4583499Y3388312D1*
X4576314Y3385935D1*
X4566752D1*
X4559622Y3388312D1*
X4557190Y3390744D1*
X4554814Y3395497D1*
Y3402682D1*
X4557190Y3407435D1*
X4561999Y3412243D1*
X4569129Y3414620D1*
X4578690Y3416997D1*
X4583499Y3419428D1*
X4585875Y3424182D1*
Y3428990D1*
X4583499Y3433743D1*
X4576314Y3436120D1*
X4566752D1*
X1030150Y787518D2*
X1025397Y792327D1*
X1018212Y794703D1*
X1008650D1*
X1001465Y792327D1*
X996657Y787518D1*
Y782765D1*
X999089Y777957D1*
X1001465Y775580D1*
X1006219Y773204D1*
X1020589Y768395D1*
X1025397Y766019D1*
X1027774Y763587D1*
X1030150Y758833D1*
Y751648D1*
X1025397Y746895D1*
X1018212Y744463D1*
X1008650D1*
X1001465Y746895D1*
X996657Y751648D1*
X1079083Y787518D2*
X1074330Y792327D1*
X1067145Y794703D1*
X1057583D1*
X1050398Y792327D1*
X1045590Y787518D1*
Y782765D1*
X1048021Y777957D1*
X1050398Y775580D1*
X1055151Y773204D1*
X1069521Y768395D1*
X1074330Y766019D1*
X1076706Y763587D1*
X1079083Y758833D1*
Y751648D1*
X1074330Y746895D1*
X1067145Y744463D1*
X1057583D1*
X1050398Y746895D1*
X1045590Y751648D1*
X1094522Y770772D2*
X1116022D1*
X1123207Y773204D1*
X1125639Y775580D1*
X1128015Y780333D1*
Y785142D1*
X1125639Y789895D1*
X1123207Y792327D1*
X1116022Y794703D1*
X1094522D1*
Y744463D1*
X1111269Y770772D2*
X1128015Y744463D1*
X1174571Y777957D2*
X1172140Y770772D1*
X1167386Y765963D1*
X1160201Y763587D1*
X1157825D1*
X1150640Y765963D1*
X1145887Y770772D1*
X1143455Y777957D1*
Y780333D1*
X1145887Y787518D1*
X1150640Y792272D1*
X1157825Y794648D1*
X1160201D1*
X1167386Y792272D1*
X1172140Y787518D1*
X1174571Y777957D1*
Y765963D1*
X1172140Y754025D1*
X1167386Y746840D1*
X1160201Y744463D1*
X1155448D1*
X1148263Y746840D1*
X1145887Y751648D1*
X2673317Y1847312D2*
X2670940Y1852066D1*
X2666132Y1856874D1*
X2661379Y1859251D1*
X2651817D1*
X2647009Y1856874D1*
X2642256Y1852066D1*
X2639824Y1847312D1*
X2637447Y1840127D1*
Y1828134D1*
X2639824Y1821004D1*
X2642256Y1816196D1*
X2647009Y1811442D1*
X2651817Y1809011D1*
X2661379D1*
X2666132Y1811442D1*
X2670940Y1816196D1*
X2673317Y1821004D1*
X2688756Y1849634D2*
X2693565Y1852066D1*
X2700750Y1859195D1*
Y1809011D1*
X2598730Y1709958D2*
X2591545Y1707582D1*
X2586736Y1700397D1*
X2584360Y1688459D1*
Y1681274D1*
X2586736Y1669335D1*
X2591545Y1662150D1*
X2598730Y1659774D1*
X2603483D1*
X2610668Y1662150D1*
X2615421Y1669335D1*
X2617853Y1681274D1*
Y1688459D1*
X2615421Y1700397D1*
X2610668Y1707582D1*
X2603483Y1709958D1*
X2598730D1*
X2615421Y1700397D2*
X2586736Y1669335D1*
X2635669Y1664582D2*
X2633292Y1662150D1*
X2635669Y1659774D1*
X2638101Y1662150D1*
X2635669Y1664582D1*
X2653540Y1700397D2*
X2658349Y1702829D1*
X2665534Y1709958D1*
Y1659774D1*
X2680973Y1693267D2*
Y1669335D1*
X2683349Y1662206D1*
X2688158Y1659774D1*
X2695343D1*
X2700096Y1662206D1*
X2707281Y1669335D1*
Y1693267D2*
Y1659774D1*
X2753837Y1710014D2*
X2722720D1*
Y1659774D1*
Y1686082D2*
X2741844D1*
X1502765Y787518D2*
X1498012Y792327D1*
X1490827Y794703D1*
X1481265D1*
X1474080Y792327D1*
X1469272Y787518D1*
Y782765D1*
X1471704Y777957D1*
X1474080Y775580D1*
X1478834Y773204D1*
X1493204Y768395D1*
X1498012Y766019D1*
X1500389Y763587D1*
X1502765Y758833D1*
Y751648D1*
X1498012Y746895D1*
X1490827Y744463D1*
X1481265D1*
X1474080Y746895D1*
X1469272Y751648D1*
X1551698Y787518D2*
X1546945Y792327D1*
X1539760Y794703D1*
X1530198D1*
X1523013Y792327D1*
X1518205Y787518D1*
Y782765D1*
X1520636Y777957D1*
X1523013Y775580D1*
X1527766Y773204D1*
X1542136Y768395D1*
X1546945Y766019D1*
X1549321Y763587D1*
X1551698Y758833D1*
Y751648D1*
X1546945Y746895D1*
X1539760Y744463D1*
X1530198D1*
X1523013Y746895D1*
X1518205Y751648D1*
X1567137Y770772D2*
X1588637D1*
X1595822Y773204D1*
X1598254Y775580D1*
X1600630Y780333D1*
Y785142D1*
X1598254Y789895D1*
X1595822Y792327D1*
X1588637Y794703D1*
X1567137D1*
Y744463D1*
X1583884Y770772D2*
X1600630Y744463D1*
X1616070Y785086D2*
X1620878Y787518D1*
X1628063Y794648D1*
Y744463D1*
X1657873Y794648D2*
X1650687Y792272D1*
X1645879Y785086D1*
X1643502Y773148D1*
Y765963D1*
X1645879Y754025D1*
X1650687Y746840D1*
X1657873Y744463D1*
X1662626D1*
X1669811Y746840D1*
X1674564Y754025D1*
X1676996Y765963D1*
Y773148D1*
X1674564Y785086D1*
X1669811Y792272D1*
X1662626Y794648D1*
X1657873D1*
X1674564Y785086D2*
X1645879Y754025D1*
X2003122Y787518D2*
X1998368Y792327D1*
X1991183Y794703D1*
X1981622D1*
X1974437Y792327D1*
X1969628Y787518D1*
Y782765D1*
X1972060Y777957D1*
X1974437Y775580D1*
X1979190Y773204D1*
X1993560Y768395D1*
X1998368Y766019D1*
X2000745Y763587D1*
X2003122Y758833D1*
Y751648D1*
X1998368Y746895D1*
X1991183Y744463D1*
X1981622D1*
X1974437Y746895D1*
X1969628Y751648D1*
X2052054Y787518D2*
X2047301Y792327D1*
X2040116Y794703D1*
X2030554D1*
X2023369Y792327D1*
X2018561Y787518D1*
Y782765D1*
X2020993Y777957D1*
X2023369Y775580D1*
X2028122Y773204D1*
X2042492Y768395D1*
X2047301Y766019D1*
X2049678Y763587D1*
X2052054Y758833D1*
Y751648D1*
X2047301Y746895D1*
X2040116Y744463D1*
X2030554D1*
X2023369Y746895D1*
X2018561Y751648D1*
X2067493Y770772D2*
X2088993D1*
X2096178Y773204D1*
X2098610Y775580D1*
X2100987Y780333D1*
Y785142D1*
X2098610Y789895D1*
X2096178Y792327D1*
X2088993Y794703D1*
X2067493D1*
Y744463D1*
X2084240Y770772D2*
X2100987Y744463D1*
X2116426Y785086D2*
X2121234Y787518D1*
X2128419Y794648D1*
Y744463D1*
X2143859Y785086D2*
X2148667Y787518D1*
X2155852Y794648D1*
Y744463D1*
X2477765Y787518D2*
X2473012Y792327D1*
X2465827Y794703D1*
X2456265D1*
X2449080Y792327D1*
X2444272Y787518D1*
Y782765D1*
X2446704Y777957D1*
X2449080Y775580D1*
X2453834Y773204D1*
X2468204Y768395D1*
X2473012Y766019D1*
X2475389Y763587D1*
X2477765Y758833D1*
Y751648D1*
X2473012Y746895D1*
X2465827Y744463D1*
X2456265D1*
X2449080Y746895D1*
X2444272Y751648D1*
X2526698Y787518D2*
X2521945Y792327D1*
X2514760Y794703D1*
X2505198D1*
X2498013Y792327D1*
X2493205Y787518D1*
Y782765D1*
X2495636Y777957D1*
X2498013Y775580D1*
X2502766Y773204D1*
X2517136Y768395D1*
X2521945Y766019D1*
X2524321Y763587D1*
X2526698Y758833D1*
Y751648D1*
X2521945Y746895D1*
X2514760Y744463D1*
X2505198D1*
X2498013Y746895D1*
X2493205Y751648D1*
X2542137Y770772D2*
X2563637D1*
X2570822Y773204D1*
X2573254Y775580D1*
X2575630Y780333D1*
Y785142D1*
X2573254Y789895D1*
X2570822Y792327D1*
X2563637Y794703D1*
X2542137D1*
Y744463D1*
X2558884Y770772D2*
X2575630Y744463D1*
X2591070Y785086D2*
X2595878Y787518D1*
X2603063Y794648D1*
Y744463D1*
X2620934Y782710D2*
Y785086D1*
X2623311Y789895D1*
X2625687Y792272D1*
X2630496Y794648D1*
X2640058D1*
X2644811Y792272D1*
X2647187Y789895D1*
X2649619Y785086D1*
Y780333D1*
X2647187Y775525D1*
X2642434Y768395D1*
X2618502Y744463D1*
X2651996D1*
X2965246Y787518D2*
X2960492Y792327D1*
X2953307Y794703D1*
X2943746D1*
X2936561Y792327D1*
X2931752Y787518D1*
Y782765D1*
X2934184Y777957D1*
X2936561Y775580D1*
X2941314Y773204D1*
X2955684Y768395D1*
X2960492Y766019D1*
X2962869Y763587D1*
X2965246Y758833D1*
Y751648D1*
X2960492Y746895D1*
X2953307Y744463D1*
X2943746D1*
X2936561Y746895D1*
X2931752Y751648D1*
X3014178Y787518D2*
X3009425Y792327D1*
X3002240Y794703D1*
X2992678D1*
X2985493Y792327D1*
X2980685Y787518D1*
Y782765D1*
X2983117Y777957D1*
X2985493Y775580D1*
X2990246Y773204D1*
X3004617Y768395D1*
X3009425Y766019D1*
X3011802Y763587D1*
X3014178Y758833D1*
Y751648D1*
X3009425Y746895D1*
X3002240Y744463D1*
X2992678D1*
X2985493Y746895D1*
X2980685Y751648D1*
X3029617Y770772D2*
X3051117D1*
X3058302Y773204D1*
X3060734Y775580D1*
X3063111Y780333D1*
Y785142D1*
X3060734Y789895D1*
X3058302Y792327D1*
X3051117Y794703D1*
X3029617D1*
Y744463D1*
X3046364Y770772D2*
X3063111Y744463D1*
X3078550Y785086D2*
X3083358Y787518D1*
X3090544Y794648D1*
Y744463D1*
X3110791Y794648D2*
X3137044D1*
X3122729Y775525D1*
X3129914D1*
X3134668Y773148D1*
X3137044Y770772D1*
X3139476Y763587D1*
Y758833D1*
X3137044Y751648D1*
X3132291Y746840D1*
X3125106Y744463D1*
X3117921D1*
X3110791Y746840D1*
X3108415Y749272D1*
X3105983Y754025D1*
X3451577Y787518D2*
X3446824Y792327D1*
X3439639Y794703D1*
X3430077D1*
X3422892Y792327D1*
X3418084Y787518D1*
Y782765D1*
X3420516Y777957D1*
X3422892Y775580D1*
X3427645Y773204D1*
X3442015Y768395D1*
X3446824Y766019D1*
X3449200Y763587D1*
X3451577Y758833D1*
Y751648D1*
X3446824Y746895D1*
X3439639Y744463D1*
X3430077D1*
X3422892Y746895D1*
X3418084Y751648D1*
X3500510Y787518D2*
X3495756Y792327D1*
X3488571Y794703D1*
X3479010D1*
X3471825Y792327D1*
X3467016Y787518D1*
Y782765D1*
X3469448Y777957D1*
X3471825Y775580D1*
X3476578Y773204D1*
X3490948Y768395D1*
X3495756Y766019D1*
X3498133Y763587D1*
X3500510Y758833D1*
Y751648D1*
X3495756Y746895D1*
X3488571Y744463D1*
X3479010D1*
X3471825Y746895D1*
X3467016Y751648D1*
X3515949Y770772D2*
X3537449D1*
X3544634Y773204D1*
X3547066Y775580D1*
X3549442Y780333D1*
Y785142D1*
X3547066Y789895D1*
X3544634Y792327D1*
X3537449Y794703D1*
X3515949D1*
Y744463D1*
X3532695Y770772D2*
X3549442Y744463D1*
X3564881Y785086D2*
X3569690Y787518D1*
X3576875Y794648D1*
Y744463D1*
X3616246D2*
Y794648D1*
X3592314Y761210D1*
X3628184D1*
X3940246Y787518D2*
X3935492Y792327D1*
X3928307Y794703D1*
X3918746D1*
X3911561Y792327D1*
X3906752Y787518D1*
Y782765D1*
X3909184Y777957D1*
X3911561Y775580D1*
X3916314Y773204D1*
X3930684Y768395D1*
X3935492Y766019D1*
X3937869Y763587D1*
X3940246Y758833D1*
Y751648D1*
X3935492Y746895D1*
X3928307Y744463D1*
X3918746D1*
X3911561Y746895D1*
X3906752Y751648D1*
X3989178Y787518D2*
X3984425Y792327D1*
X3977240Y794703D1*
X3967678D1*
X3960493Y792327D1*
X3955685Y787518D1*
Y782765D1*
X3958117Y777957D1*
X3960493Y775580D1*
X3965246Y773204D1*
X3979617Y768395D1*
X3984425Y766019D1*
X3986802Y763587D1*
X3989178Y758833D1*
Y751648D1*
X3984425Y746895D1*
X3977240Y744463D1*
X3967678D1*
X3960493Y746895D1*
X3955685Y751648D1*
X4004617Y770772D2*
X4026117D1*
X4033302Y773204D1*
X4035734Y775580D1*
X4038111Y780333D1*
Y785142D1*
X4035734Y789895D1*
X4033302Y792327D1*
X4026117Y794703D1*
X4004617D1*
Y744463D1*
X4021364Y770772D2*
X4038111Y744463D1*
X4053550Y785086D2*
X4058358Y787518D1*
X4065544Y794648D1*
Y744463D1*
X4109668Y794648D2*
X4085791D1*
X4083415Y773148D1*
X4085791Y775525D1*
X4092976Y777957D1*
X4100106D1*
X4107291Y775525D1*
X4112099Y770772D1*
X4114476Y763587D1*
Y758833D1*
X4112099Y751648D1*
X4107291Y746840D1*
X4100106Y744463D1*
X4092976D1*
X4085791Y746840D1*
X4083415Y749272D1*
X4080983Y754025D1*
X4428981Y787518D2*
X4424228Y792327D1*
X4417043Y794703D1*
X4407481D1*
X4400296Y792327D1*
X4395488Y787518D1*
Y782765D1*
X4397920Y777957D1*
X4400296Y775580D1*
X4405050Y773204D1*
X4419420Y768395D1*
X4424228Y766019D1*
X4426605Y763587D1*
X4428981Y758833D1*
Y751648D1*
X4424228Y746895D1*
X4417043Y744463D1*
X4407481D1*
X4400296Y746895D1*
X4395488Y751648D1*
X4477914Y787518D2*
X4473161Y792327D1*
X4465976Y794703D1*
X4456414D1*
X4449229Y792327D1*
X4444420Y787518D1*
Y782765D1*
X4446852Y777957D1*
X4449229Y775580D1*
X4453982Y773204D1*
X4468352Y768395D1*
X4473161Y766019D1*
X4475537Y763587D1*
X4477914Y758833D1*
Y751648D1*
X4473161Y746895D1*
X4465976Y744463D1*
X4456414D1*
X4449229Y746895D1*
X4444420Y751648D1*
X4493353Y770772D2*
X4514853D1*
X4522038Y773204D1*
X4524470Y775580D1*
X4526846Y780333D1*
Y785142D1*
X4524470Y789895D1*
X4522038Y792327D1*
X4514853Y794703D1*
X4493353D1*
Y744463D1*
X4510100Y770772D2*
X4526846Y744463D1*
X4542286Y785086D2*
X4547094Y787518D1*
X4554279Y794648D1*
Y744463D1*
X4598403Y787518D2*
X4596027Y792272D1*
X4588842Y794648D1*
X4584088D1*
X4576903Y792272D1*
X4572095Y785086D1*
X4569718Y773148D1*
Y761210D1*
X4572095Y751648D1*
X4576903Y746840D1*
X4584088Y744463D1*
X4586465D1*
X4593595Y746840D1*
X4598403Y751648D1*
X4600780Y758833D1*
Y761210D1*
X4598403Y768395D1*
X4593595Y773148D1*
X4586465Y775525D1*
X4584088D1*
X4576903Y773148D1*
X4572095Y768395D1*
X4569718Y761210D1*
X1202681Y3301136D2*
Y3322635D1*
X1200249Y3329820D1*
X1197873Y3332252D1*
X1193120Y3334629D1*
X1188311D1*
X1183558Y3332252D1*
X1181126Y3329820D1*
X1178749Y3322635D1*
Y3301136D1*
X1228989D1*
X1202681Y3317882D2*
X1228989Y3334629D1*
X1188366Y3350068D2*
X1185934Y3354876D1*
X1178805Y3362062D1*
X1228989Y3362061D1*
X1702701Y3290386D2*
Y3311885D1*
X1700269Y3319070D1*
X1697892Y3321502D1*
X1693139Y3323879D1*
X1688331D1*
X1683578Y3321502D1*
X1681146Y3319070D1*
X1678769Y3311885D1*
Y3290386D1*
X1729009D1*
X1702701Y3307132D2*
X1729009Y3323879D1*
X1690763Y3341750D2*
X1688386D1*
X1683578Y3344127D1*
X1681201Y3346503D1*
X1678824Y3351312D1*
Y3360873D1*
X1681201Y3365626D1*
X1683578Y3368003D1*
X1688386Y3370435D1*
X1693139D1*
X1697948Y3368003D1*
X1705077Y3363250D1*
X1729009Y3339318D1*
Y3372811D1*
X3109304Y2601185D2*
X3059064Y2582006D1*
X3109304Y2562883D1*
X3092558Y2570068D2*
Y2594000D1*
X3059120Y2630994D2*
X3061496Y2623809D1*
X3068681Y2619001D1*
X3080620Y2616624D1*
X3087805D1*
X3099743Y2619000D1*
X3106928Y2623809D1*
X3109304Y2630994D1*
Y2635747D1*
X3106928Y2642932D1*
X3099743Y2647685D1*
X3087805Y2650117D1*
X3080619D1*
X3068681Y2647685D1*
X3061496Y2642932D1*
X3059120Y2635747D1*
Y2630994D1*
X3068681Y2647685D2*
X3099743Y2619000D1*
X2177701Y3290386D2*
Y3311885D1*
X2175269Y3319070D1*
X2172892Y3321502D1*
X2168139Y3323879D1*
X2163331D1*
X2158578Y3321502D1*
X2156146Y3319070D1*
X2153769Y3311885D1*
Y3290386D1*
X2204009D1*
X2177701Y3307132D2*
X2204009Y3323879D1*
X2153824Y3344127D2*
Y3370380D1*
X2172948Y3356065D1*
Y3363250D1*
X2175324Y3368003D1*
X2177701Y3370380D1*
X2184886Y3372811D1*
X2189639D1*
X2196824Y3370380D1*
X2201633Y3365626D1*
X2204009Y3358441D1*
Y3351256D1*
X2201633Y3344127D1*
X2199201Y3341750D1*
X2194447Y3339318D1*
X2532286Y2420423D2*
Y2384553D1*
X2534663Y2377368D1*
X2539471Y2372614D1*
X2546656Y2370183D1*
X2551410D1*
X2558595Y2372614D1*
X2563403Y2377368D1*
X2565780Y2384553D1*
Y2420423D1*
X2581219Y2410806D2*
X2586027Y2413238D1*
X2593212Y2420367D1*
Y2370183D1*
X3309324Y2611915D2*
X3259084Y2592736D1*
X3309324Y2573613D1*
X3292577Y2580798D2*
Y2604730D1*
X3268701Y2627354D2*
X3266269Y2632163D1*
X3259139Y2639348D1*
X3309324D1*
X3509324Y2601165D2*
X3459084Y2581987D1*
X3509324Y2562863D1*
X3492577Y2570048D2*
Y2593980D1*
X3471078Y2619036D2*
X3468701D1*
X3463893Y2621413D1*
X3461516Y2623789D1*
X3459139Y2628598D1*
Y2638159D1*
X3461516Y2642913D1*
X3463893Y2645289D1*
X3468701Y2647721D1*
X3473454D1*
X3478263Y2645289D1*
X3485392Y2640536D1*
X3509324Y2616604D1*
Y2650098D1*
X607210Y2521357D2*
Y2483110D1*
X604834Y2475925D1*
X602402Y2473549D1*
X597648Y2471117D1*
X592840D1*
X588087Y2473549D1*
X585710Y2475925D1*
X583278Y2483110D1*
Y2487864D1*
X622649Y2511740D2*
X627458Y2514172D1*
X634643Y2521302D1*
Y2471117D1*
X5014620Y2522735D2*
Y2484488D1*
X5012244Y2477303D1*
X5009812Y2474927D1*
X5005059Y2472495D1*
X5000250D1*
X4995497Y2474927D1*
X4993120Y2477303D1*
X4990689Y2484488D1*
Y2489242D1*
X5032491Y2510741D2*
Y2513118D1*
X5034868Y2517926D1*
X5037245Y2520303D1*
X5042053Y2522680D1*
X5051615D1*
X5056368Y2520303D1*
X5058744Y2517926D1*
X5061176Y2513118D1*
Y2508365D1*
X5058744Y2503556D1*
X5053991Y2496427D1*
X5030060Y2472495D1*
X5063553D1*
X2671441Y3289197D2*
Y3310697D1*
X2669009Y3317882D1*
X2666633Y3320314D1*
X2661879Y3322691D1*
X2657071D1*
X2652318Y3320314D1*
X2649886Y3317882D1*
X2647509Y3310697D1*
Y3289197D1*
X2697749D1*
X2671441Y3305944D2*
X2697749Y3322691D1*
Y3362061D2*
X2647565Y3362062D1*
X2681003Y3338130D1*
Y3374000D1*
X3171430Y3290386D2*
Y3311885D1*
X3168999Y3319070D1*
X3166622Y3321502D1*
X3161869Y3323879D1*
X3157060D1*
X3152307Y3321502D1*
X3149875Y3319070D1*
X3147499Y3311885D1*
Y3290386D1*
X3197739D1*
X3171430Y3307132D2*
X3197739Y3323879D1*
X3147554Y3368003D2*
Y3344127D1*
X3169054Y3341750D1*
X3166677Y3344127D1*
X3164245Y3351312D1*
Y3358441D1*
X3166677Y3365626D1*
X3171430Y3370435D1*
X3178616Y3372811D1*
X3183369D1*
X3190554Y3370435D1*
X3195362Y3365626D1*
X3197739Y3358441D1*
Y3351312D1*
X3195362Y3344127D1*
X3192930Y3341750D1*
X3188177Y3339318D1*
X3646432Y3291602D2*
Y3313101D1*
X3644000Y3320286D1*
X3641623Y3322718D1*
X3636870Y3325095D1*
X3632062D1*
X3627309Y3322718D1*
X3624877Y3320286D1*
X3622500Y3313101D1*
Y3291602D1*
X3672740D1*
X3646432Y3308348D2*
X3672740Y3325095D1*
X3629685Y3369219D2*
X3624932Y3366842D1*
X3622555Y3359657D1*
Y3354904D1*
X3624932Y3347719D1*
X3632117Y3342911D1*
X3644055Y3340534D1*
X3655993D1*
X3665555Y3342911D1*
X3670363Y3347719D1*
X3672740Y3354904D1*
Y3357281D1*
X3670363Y3364410D1*
X3665555Y3369219D1*
X3658370Y3371595D1*
X3655993D1*
X3648808Y3369219D1*
X3644055Y3364410D1*
X3641679Y3357281D1*
Y3354904D1*
X3644055Y3347719D1*
X3648808Y3342911D1*
X3655993Y3340534D1*
X4127681Y3290386D2*
Y3311885D1*
X4125249Y3319070D1*
X4122873Y3321502D1*
X4118120Y3323879D1*
X4113311D1*
X4108558Y3321502D1*
X4106126Y3319070D1*
X4103749Y3311885D1*
Y3290386D1*
X4153989D1*
X4127681Y3307132D2*
X4153989Y3323879D1*
Y3348880D2*
X4103805Y3372811D1*
Y3339318D1*
X4640181Y3290413D2*
Y3311913D1*
X4637749Y3319098D1*
X4635373Y3321530D1*
X4630620Y3323907D1*
X4625811D1*
X4621058Y3321530D1*
X4618626Y3319098D1*
X4616249Y3311913D1*
Y3290413D1*
X4666489D1*
X4640181Y3307160D2*
X4666489Y3323906D1*
X4616305Y3351284D2*
X4618681Y3344154D1*
X4623434Y3341722D1*
X4628243D1*
X4632996Y3344154D1*
X4635428Y3348907D1*
X4637805Y3358469D1*
X4640181Y3365654D1*
X4644990Y3370407D1*
X4649743Y3372784D1*
X4656928D1*
X4661681Y3370407D1*
X4664113Y3368031D1*
X4666489Y3360846D1*
Y3351284D1*
X4664113Y3344154D1*
X4661681Y3341722D1*
X4656928Y3339346D1*
X4649743D1*
X4644990Y3341722D1*
X4640181Y3346531D1*
X4637805Y3353661D1*
X4635428Y3363222D1*
X4632996Y3368031D1*
X4628243Y3370407D1*
X4623434D1*
X4618681Y3368031D1*
X4616305Y3360846D1*
Y3351284D1*
X858932Y835128D2*
Y856628D1*
X856500Y863813D1*
X854123Y866244D1*
X849370Y868621D1*
X844562D1*
X839809Y866244D1*
X837377Y863813D1*
X835000Y856628D1*
Y835128D1*
X885240D1*
X858932Y851874D2*
X885240Y868621D1*
X851747Y915177D2*
X858932Y912745D1*
X863740Y907992D1*
X866117Y900807D1*
Y898430D1*
X863740Y891245D1*
X858932Y886492D1*
X851747Y884060D1*
X849370D1*
X842185Y886492D1*
X837432Y891245D1*
X835055Y898430D1*
Y900807D1*
X837432Y907992D1*
X842185Y912745D1*
X851747Y915177D1*
X863740D1*
X875678Y912745D1*
X882863Y907992D1*
X885240Y900807D1*
Y896054D1*
X882863Y888869D1*
X878055Y886492D1*
X1340181Y820223D2*
Y841723D1*
X1337749Y848908D1*
X1335373Y851340D1*
X1330620Y853716D1*
X1325811D1*
X1321058Y851340D1*
X1318626Y848908D1*
X1316249Y841723D1*
Y820223D1*
X1366489D1*
X1340181Y836970D2*
X1366489Y853716D1*
X1325866Y869156D2*
X1323434Y873964D1*
X1316305Y881149D1*
X1366489D1*
X1316305Y910958D2*
X1318681Y903773D1*
X1325866Y898965D1*
X1337805Y896588D1*
X1344990D1*
X1356928Y898965D1*
X1364113Y903773D1*
X1366489Y910958D1*
Y915711D1*
X1364113Y922897D1*
X1356928Y927650D1*
X1344990Y930082D1*
X1337805D1*
X1325866Y927650D1*
X1318681Y922897D1*
X1316305Y915712D1*
Y910958D1*
X1325866Y927650D2*
X1356928Y898965D1*
X1039732Y3428970D2*
X1034978Y3433779D1*
X1027793Y3436155D1*
X1018232D1*
X1011047Y3433779D1*
X1006238Y3428970D1*
Y3424217D1*
X1008670Y3419409D1*
X1011047Y3417032D1*
X1015800Y3414656D1*
X1030170Y3409847D1*
X1034978Y3407471D1*
X1037355Y3405039D1*
X1039732Y3400286D1*
Y3393101D1*
X1034978Y3388347D1*
X1027793Y3385915D1*
X1018232D1*
X1011047Y3388347D1*
X1006238Y3393101D1*
X1088664Y3428970D2*
X1083911Y3433779D1*
X1076726Y3436155D1*
X1067164D1*
X1059979Y3433779D1*
X1055171Y3428970D1*
Y3424217D1*
X1057603Y3419409D1*
X1059979Y3417032D1*
X1064732Y3414656D1*
X1079103Y3409847D1*
X1083911Y3407471D1*
X1086288Y3405039D1*
X1088664Y3400286D1*
Y3393101D1*
X1083911Y3388347D1*
X1076726Y3385915D1*
X1067164D1*
X1059979Y3388347D1*
X1055171Y3393101D1*
X1104103Y3412224D2*
X1125603D1*
X1132788Y3414656D1*
X1135220Y3417032D1*
X1137597Y3421785D1*
Y3426594D1*
X1135220Y3431347D1*
X1132788Y3433779D1*
X1125603Y3436155D1*
X1104103D1*
Y3385915D1*
X1120850Y3412224D2*
X1137597Y3385915D1*
X1153036Y3426539D2*
X1157844Y3428970D1*
X1165029Y3436100D1*
Y3385915D1*
X1833932Y837222D2*
Y858722D1*
X1831500Y865907D1*
X1829123Y868339D1*
X1824370Y870716D1*
X1819562D1*
X1814809Y868339D1*
X1812377Y865907D1*
X1810000Y858722D1*
Y837222D1*
X1860240D1*
X1833932Y853969D2*
X1860240Y870716D1*
X1819617Y886155D2*
X1817185Y890963D1*
X1810055Y898148D1*
X1860240D1*
X1819617Y913588D2*
X1817185Y918396D1*
X1810055Y925581D1*
X1860240D1*
X2321430Y826472D2*
Y847972D1*
X2318999Y855157D1*
X2316622Y857589D1*
X2311869Y859966D1*
X2307060D1*
X2302307Y857589D1*
X2299875Y855157D1*
X2297499Y847972D1*
Y826472D1*
X2347739D1*
X2321430Y843219D2*
X2347739Y859966D1*
X2307116Y875405D2*
X2304684Y880213D1*
X2297554Y887398D1*
X2347739D1*
X2309492Y905269D2*
X2307116D1*
X2302307Y907646D1*
X2299931Y910023D1*
X2297554Y914831D1*
Y924393D1*
X2299931Y929146D1*
X2302307Y931522D1*
X2307116Y933954D1*
X2311869D1*
X2316677Y931522D1*
X2323807Y926769D1*
X2347739Y902838D1*
Y936331D1*
X2808932Y826472D2*
Y847972D1*
X2806500Y855157D1*
X2804123Y857589D1*
X2799370Y859966D1*
X2794562D1*
X2789809Y857589D1*
X2787377Y855157D1*
X2785000Y847972D1*
Y826472D1*
X2835240D1*
X2808932Y843219D2*
X2835240Y859966D1*
X2794617Y875405D2*
X2792185Y880213D1*
X2785055Y887398D1*
X2835240D1*
X2785055Y907646D2*
Y933899D1*
X2804179Y919584D1*
Y926769D1*
X2806555Y931522D1*
X2808932Y933899D1*
X2816117Y936331D1*
X2820870D1*
X2828055Y933899D1*
X2832863Y929146D1*
X2835240Y921961D1*
Y914776D1*
X2832863Y907646D1*
X2830432Y905269D1*
X2825678Y902838D1*
X3283932Y819035D2*
Y840535D1*
X3281500Y847720D1*
X3279123Y850151D1*
X3274370Y852528D1*
X3269562D1*
X3264809Y850151D1*
X3262377Y847720D1*
X3260000Y840535D1*
Y819035D1*
X3310240D1*
X3283932Y835781D2*
X3310240Y852528D1*
X3269617Y867967D2*
X3267185Y872776D1*
X3260055Y879961D1*
X3310240D1*
Y919332D2*
X3260055D1*
X3293493Y895400D1*
Y931270D1*
X3790181Y826472D2*
Y847972D1*
X3787749Y855157D1*
X3785373Y857589D1*
X3780620Y859966D1*
X3775811D1*
X3771058Y857589D1*
X3768626Y855157D1*
X3766249Y847972D1*
Y826472D1*
X3816489D1*
X3790181Y843219D2*
X3816489Y859966D1*
X3775866Y875405D2*
X3773434Y880213D1*
X3766305Y887398D1*
X3816489D1*
X3766305Y931522D2*
Y907646D1*
X3787805Y905269D1*
X3785428Y907646D1*
X3782996Y914831D1*
Y921961D1*
X3785428Y929146D1*
X3790181Y933954D1*
X3797366Y936331D1*
X3802119D1*
X3809304Y933954D1*
X3814113Y929146D1*
X3816489Y921961D1*
Y914831D1*
X3814113Y907646D1*
X3811681Y905269D1*
X3806928Y902838D1*
X4265181Y827688D2*
Y849188D1*
X4262749Y856373D1*
X4260373Y858805D1*
X4255620Y861182D1*
X4250811D1*
X4246058Y858805D1*
X4243626Y856373D1*
X4241249Y849188D1*
Y827688D1*
X4291489D1*
X4265181Y844435D2*
X4291489Y861182D1*
X4250866Y876621D2*
X4248434Y881429D1*
X4241305Y888614D1*
X4291489D1*
X4248434Y932738D2*
X4243681Y930362D1*
X4241305Y923177D1*
Y918424D1*
X4243681Y911239D1*
X4250866Y906430D1*
X4262805Y904054D1*
X4274743D1*
X4284304Y906430D1*
X4289113Y911239D1*
X4291489Y918424D1*
Y920800D1*
X4289113Y927930D1*
X4284304Y932738D1*
X4277119Y935115D1*
X4274743D1*
X4267558Y932738D1*
X4262805Y927930D1*
X4260428Y920800D1*
Y918424D1*
X4262805Y911239D1*
X4267558Y906430D1*
X4274743Y904054D1*
X3281219Y2300226D2*
X3278843Y2304979D1*
X3274034Y2309787D1*
X3269281Y2312164D1*
X3259719D1*
X3254911Y2309787D1*
X3250158Y2304979D1*
X3247726Y2300226D1*
X3245349Y2293041D1*
Y2281047D1*
X3247726Y2273918D1*
X3250158Y2269109D1*
X3254911Y2264356D1*
X3259719Y2261924D1*
X3269281D1*
X3274034Y2264356D1*
X3278843Y2269109D1*
X3281219Y2273918D1*
X3301467Y2312109D2*
X3327720D1*
X3313405Y2292985D1*
X3320590D1*
X3325343Y2290609D1*
X3327720Y2288232D1*
X3330152Y2281047D1*
Y2276294D1*
X3327720Y2269109D1*
X3322967Y2264301D1*
X3315782Y2261924D1*
X3308597D1*
X3301467Y2264301D1*
X3299090Y2266732D1*
X3296659Y2271486D1*
X3213136Y1983024D2*
X3217944Y1985456D1*
X3225129Y1992586D1*
Y1942401D1*
X3254939Y1992586D2*
X3247754Y1990209D1*
X3242945Y1983024D1*
X3240569Y1971086D1*
Y1963901D1*
X3242945Y1951963D1*
X3247754Y1944778D1*
X3254939Y1942401D1*
X3259692D1*
X3266877Y1944778D1*
X3271630Y1951963D1*
X3274062Y1963901D1*
Y1971086D1*
X3271630Y1983024D1*
X3266877Y1990209D1*
X3259692Y1992586D1*
X3254939D1*
X3271630Y1983024D2*
X3242945Y1951963D1*
X3289501Y1975894D2*
Y1951963D1*
X3291878Y1944833D1*
X3296686Y1942401D1*
X3303871D1*
X3308624Y1944833D1*
X3315809Y1951963D1*
Y1975894D2*
Y1942401D1*
X3362365Y1992641D2*
X3331249D1*
Y1942401D1*
Y1968709D2*
X3350372D1*
X898806Y1827143D2*
Y1776903D1*
X915553D1*
X922738Y1779335D1*
X927546Y1784088D1*
X929923Y1788897D1*
X932300Y1796026D1*
Y1808020D1*
X929923Y1815205D1*
X927546Y1819958D1*
X922738Y1824766D1*
X915553Y1827143D1*
X898806D1*
X947739Y1817526D2*
X952547Y1819958D1*
X959732Y1827088D1*
Y1776903D1*
X1006288Y1810396D2*
X1003856Y1803211D1*
X999103Y1798403D1*
X991918Y1796026D1*
X989542D1*
X982357Y1798403D1*
X977603Y1803211D1*
X975172Y1810396D1*
Y1812773D1*
X977603Y1819958D1*
X982357Y1824711D1*
X989542Y1827088D1*
X991918D1*
X999103Y1824711D1*
X1003856Y1819958D1*
X1006288Y1810396D1*
Y1798403D1*
X1003856Y1786465D1*
X999103Y1779280D1*
X991918Y1776903D1*
X987165D1*
X979980Y1779280D1*
X977603Y1784088D1*
X1295223Y1796751D2*
Y1746511D1*
X1311970D1*
X1319155Y1748942D1*
X1323963Y1753696D1*
X1326340Y1758504D1*
X1328716Y1765634D1*
Y1777627D1*
X1326340Y1784812D1*
X1323963Y1789566D1*
X1319155Y1794374D1*
X1311970Y1796751D1*
X1295223D1*
X1344155Y1787134D2*
X1348964Y1789566D1*
X1356149Y1796695D1*
Y1746511D1*
X1381150D2*
X1405082Y1796695D1*
X1371588D1*
X1295418Y1691570D2*
X1316918D1*
X1324103Y1694001D1*
X1326535Y1696378D1*
X1328912Y1701131D1*
Y1705940D1*
X1326535Y1710693D1*
X1324103Y1713125D1*
X1316918Y1715501D1*
X1295418D1*
Y1665261D1*
X1312165Y1691570D2*
X1328912Y1665261D1*
X1344351Y1705884D2*
X1349159Y1708316D1*
X1356345Y1715446D1*
Y1665261D1*
X1381345D2*
X1405277Y1715446D1*
X1371784D1*
X1319885Y1556648D2*
X1324693Y1559079D1*
X1331878Y1566209D1*
Y1516024D1*
X1347317Y1566264D2*
Y1516024D1*
X1380811Y1566264D2*
X1347317Y1532771D1*
X1359256Y1544765D2*
X1380811Y1516024D1*
X716395Y1827143D2*
Y1776903D1*
X733142D1*
X740327Y1779335D1*
X745135Y1784088D1*
X747512Y1788897D1*
X749888Y1796026D1*
Y1808020D1*
X747512Y1815205D1*
X745135Y1819958D1*
X740327Y1824766D1*
X733142Y1827143D1*
X716395D1*
X765327Y1817526D2*
X770136Y1819958D1*
X777321Y1827088D1*
Y1776903D1*
X804698Y1827088D2*
X797569Y1824711D1*
X795137Y1819958D1*
Y1815150D1*
X797569Y1810396D1*
X802322Y1807964D1*
X811883Y1805588D1*
X819069Y1803211D1*
X823822Y1798403D1*
X826198Y1793650D1*
Y1786465D1*
X823822Y1781711D1*
X821445Y1779280D1*
X814260Y1776903D1*
X804698D1*
X797569Y1779280D1*
X795137Y1781711D1*
X792760Y1786465D1*
Y1793650D1*
X795137Y1798403D1*
X799945Y1803211D1*
X807075Y1805588D1*
X816637Y1807964D1*
X821445Y1810396D1*
X823822Y1815150D1*
Y1819958D1*
X821445Y1824711D1*
X814260Y1827088D1*
X804698D1*
X1068117Y1827143D2*
Y1776903D1*
X1084864D1*
X1092049Y1779335D1*
X1096857Y1784088D1*
X1099234Y1788897D1*
X1101611Y1796026D1*
Y1808020D1*
X1099234Y1815205D1*
X1096857Y1819958D1*
X1092049Y1824766D1*
X1084864Y1827143D1*
X1068117D1*
X1119482Y1815150D2*
Y1817526D1*
X1121858Y1822335D1*
X1124235Y1824711D1*
X1129043Y1827088D1*
X1138605D1*
X1143358Y1824711D1*
X1145735Y1822335D1*
X1148167Y1817526D1*
Y1812773D1*
X1145735Y1807964D1*
X1140982Y1800835D1*
X1117050Y1776903D1*
X1150543D1*
X1180353Y1827088D2*
X1173168Y1824711D1*
X1168359Y1817526D1*
X1165983Y1805588D1*
Y1798403D1*
X1168359Y1786465D1*
X1173168Y1779280D1*
X1180353Y1776903D1*
X1185106D1*
X1192291Y1779280D1*
X1197044Y1786465D1*
X1199476Y1798403D1*
Y1805588D1*
X1197044Y1817526D1*
X1192291Y1824711D1*
X1185106Y1827088D1*
X1180353D1*
X1197044Y1817526D2*
X1168359Y1786465D1*
X1063439Y3353001D2*
Y3302761D1*
X1080185D1*
X1087370Y3305193D1*
X1092179Y3309946D1*
X1094555Y3314755D1*
X1096932Y3321885D1*
Y3333878D1*
X1094555Y3341063D1*
X1092179Y3345816D1*
X1087370Y3350625D1*
X1080185Y3353001D1*
X1063439D1*
X1112371Y3343384D2*
X1117180Y3345816D1*
X1124365Y3352946D1*
Y3302761D1*
X1041376Y3172819D2*
X1062876D1*
X1070061Y3175251D1*
X1072493Y3177627D1*
X1074870Y3182381D1*
Y3187189D1*
X1072493Y3191942D1*
X1070061Y3194374D1*
X1062876Y3196751D1*
X1041376D1*
Y3146511D1*
X1058123Y3172819D2*
X1074870Y3146511D1*
X1090309Y3196751D2*
Y3146511D1*
X1118994D1*
X1134433Y3187134D2*
X1139242Y3189566D1*
X1146427Y3196695D1*
Y3146511D1*
X1527689Y3353001D2*
Y3302761D1*
X1544435D1*
X1551620Y3305193D1*
X1556429Y3309946D1*
X1558805Y3314755D1*
X1561182Y3321885D1*
Y3333878D1*
X1558805Y3341063D1*
X1556429Y3345816D1*
X1551620Y3350625D1*
X1544435Y3353001D1*
X1527689D1*
X1579053Y3341008D2*
Y3343384D1*
X1581430Y3348193D1*
X1583806Y3350569D1*
X1588615Y3352946D1*
X1598176D1*
X1602929Y3350569D1*
X1605306Y3348193D1*
X1607738Y3343384D1*
Y3338631D1*
X1605306Y3333823D1*
X1600553Y3326693D1*
X1576621Y3302761D1*
X1610115D1*
X1505627Y3172819D2*
X1527126D1*
X1534311Y3175251D1*
X1536743Y3177627D1*
X1539120Y3182381D1*
Y3187189D1*
X1536743Y3191942D1*
X1534311Y3194374D1*
X1527126Y3196751D1*
X1505627D1*
Y3146511D1*
X1522373Y3172819D2*
X1539120Y3146511D1*
X1554559Y3196751D2*
Y3146511D1*
X1583244D1*
X1601115Y3184757D2*
Y3187134D1*
X1603492Y3191942D1*
X1605868Y3194319D1*
X1610677Y3196695D1*
X1620238D1*
X1624992Y3194319D1*
X1627368Y3191942D1*
X1629800Y3187134D1*
Y3182381D1*
X1627368Y3177572D1*
X1622615Y3170442D1*
X1598683Y3146511D1*
X1632177D1*
X2015189Y3353000D2*
Y3302760D1*
X2031935D1*
X2039120Y3305192D1*
X2043929Y3309945D1*
X2046305Y3314753D1*
X2048682Y3321883D1*
Y3333877D1*
X2046305Y3341062D1*
X2043929Y3345815D1*
X2039120Y3350623D1*
X2031935Y3353000D1*
X2015189D1*
X2068930Y3352945D2*
X2095183D1*
X2080868Y3333821D1*
X2088053D1*
X2092806Y3331445D1*
X2095183Y3329068D1*
X2097615Y3321883D1*
Y3317130D1*
X2095183Y3309945D1*
X2090429Y3305137D1*
X2083244Y3302760D1*
X2076059D1*
X2068930Y3305137D1*
X2066553Y3307568D1*
X2064121Y3312322D1*
X1993323Y3172819D2*
X2014823D1*
X2022008Y3175251D1*
X2024440Y3177627D1*
X2026817Y3182381D1*
Y3187189D1*
X2024440Y3191942D1*
X2022008Y3194374D1*
X2014823Y3196751D1*
X1993323D1*
Y3146511D1*
X2010070Y3172819D2*
X2026817Y3146511D1*
X2042256Y3196751D2*
Y3146511D1*
X2070941D1*
X2091189Y3196695D2*
X2117442D1*
X2103127Y3177572D1*
X2110312D1*
X2115065Y3175196D1*
X2117442Y3172819D1*
X2119873Y3165634D1*
Y3160881D1*
X2117442Y3153696D1*
X2112688Y3148887D1*
X2105503Y3146511D1*
X2098318D1*
X2091189Y3148887D1*
X2088812Y3151319D1*
X2086380Y3156072D1*
X2501500Y3353001D2*
Y3302761D1*
X2518247D1*
X2525432Y3305193D1*
X2530240Y3309946D1*
X2532617Y3314755D1*
X2534994Y3321885D1*
Y3333878D1*
X2532617Y3341063D1*
X2530240Y3345816D1*
X2525432Y3350625D1*
X2518247Y3353001D1*
X2501500D1*
X2574365Y3302761D2*
Y3352946D1*
X2550433Y3319508D1*
X2586303D1*
X2479438Y3172819D2*
X2500938D1*
X2508123Y3175251D1*
X2510555Y3177627D1*
X2512932Y3182381D1*
Y3187189D1*
X2510555Y3191942D1*
X2508123Y3194374D1*
X2500938Y3196751D1*
X2479438D1*
Y3146511D1*
X2496185Y3172819D2*
X2512932Y3146511D1*
X2528371Y3196751D2*
Y3146511D1*
X2557056D1*
X2596427D2*
Y3196695D1*
X2572495Y3163257D1*
X2608365D1*
X2996439Y3353001D2*
Y3302761D1*
X3013186D1*
X3020371Y3305193D1*
X3025179Y3309946D1*
X3027556Y3314755D1*
X3029933Y3321885D1*
Y3333878D1*
X3027556Y3341063D1*
X3025179Y3345816D1*
X3020371Y3350625D1*
X3013186Y3353001D1*
X2996439D1*
X3074057Y3352946D2*
X3050180D1*
X3047804Y3331446D1*
X3050180Y3333823D1*
X3057365Y3336255D1*
X3064495D1*
X3071680Y3333823D1*
X3076489Y3329070D1*
X3078865Y3321885D1*
Y3317131D1*
X3076489Y3309946D1*
X3071680Y3305138D1*
X3064495Y3302761D1*
X3057365D1*
X3050180Y3305138D1*
X3047804Y3307570D1*
X3045372Y3312323D1*
X2974377Y3172819D2*
X2995877D1*
X3003062Y3175251D1*
X3005494Y3177627D1*
X3007871Y3182381D1*
Y3187189D1*
X3005494Y3191942D1*
X3003062Y3194374D1*
X2995877Y3196751D1*
X2974377D1*
Y3146511D1*
X2991124Y3172819D2*
X3007871Y3146511D1*
X3023310Y3196751D2*
Y3146511D1*
X3051995D1*
X3096119Y3196695D2*
X3072242D1*
X3069866Y3175196D1*
X3072242Y3177572D1*
X3079427Y3180004D1*
X3086557D1*
X3093742Y3177572D1*
X3098551Y3172819D1*
X3100927Y3165634D1*
Y3160881D1*
X3098551Y3153696D1*
X3093742Y3148887D1*
X3086557Y3146511D1*
X3079427D1*
X3072242Y3148887D1*
X3069866Y3151319D1*
X3067434Y3156072D1*
X3478905Y3353001D2*
Y3302761D1*
X3495651D1*
X3502836Y3305193D1*
X3507645Y3309946D1*
X3510021Y3314755D1*
X3512398Y3321885D1*
Y3333878D1*
X3510021Y3341063D1*
X3507645Y3345816D1*
X3502836Y3350625D1*
X3495651Y3353001D1*
X3478905D1*
X3556522Y3345816D2*
X3554145Y3350569D1*
X3546960Y3352946D1*
X3542207D1*
X3535022Y3350569D1*
X3530214Y3343384D1*
X3527837Y3331446D1*
Y3319508D1*
X3530214Y3309946D1*
X3535022Y3305138D1*
X3542207Y3302761D1*
X3544584D1*
X3551714Y3305138D1*
X3556522Y3309946D1*
X3558899Y3317131D1*
Y3319508D1*
X3556522Y3326693D1*
X3551714Y3331446D1*
X3544584Y3333823D1*
X3542207D1*
X3535022Y3331446D1*
X3530214Y3326693D1*
X3527837Y3319508D1*
X3456842Y3172819D2*
X3478342D1*
X3485527Y3175251D1*
X3487959Y3177627D1*
X3490336Y3182381D1*
Y3187189D1*
X3487959Y3191942D1*
X3485527Y3194374D1*
X3478342Y3196751D1*
X3456842D1*
Y3146511D1*
X3473589Y3172819D2*
X3490336Y3146511D1*
X3505775Y3196751D2*
Y3146511D1*
X3534460D1*
X3578584Y3189566D2*
X3576207Y3194319D1*
X3569022Y3196695D1*
X3564269D1*
X3557084Y3194319D1*
X3552276Y3187134D1*
X3549899Y3175196D1*
Y3163257D1*
X3552276Y3153696D1*
X3557084Y3148887D1*
X3564269Y3146511D1*
X3566646D1*
X3573776Y3148887D1*
X3578584Y3153696D1*
X3580961Y3160881D1*
Y3163257D1*
X3578584Y3170442D1*
X3573776Y3175196D1*
X3566646Y3177572D1*
X3564269D1*
X3557084Y3175196D1*
X3552276Y3170442D1*
X3549899Y3163257D1*
X3952689Y3353000D2*
Y3302760D1*
X3969435D1*
X3976620Y3305192D1*
X3981429Y3309945D1*
X3983805Y3314753D1*
X3986182Y3321883D1*
Y3333877D1*
X3983805Y3341062D1*
X3981429Y3345815D1*
X3976620Y3350623D1*
X3969435Y3353000D1*
X3952689D1*
X4011183Y3302760D2*
X4035115Y3352945D1*
X4001621D1*
X3930627Y3172819D2*
X3952126D1*
X3959311Y3175251D1*
X3961743Y3177627D1*
X3964120Y3182381D1*
Y3187189D1*
X3961743Y3191942D1*
X3959311Y3194374D1*
X3952126Y3196751D1*
X3930627D1*
Y3146511D1*
X3947373Y3172819D2*
X3964120Y3146511D1*
X3979559Y3196751D2*
Y3146511D1*
X4008244D1*
X4033245D2*
X4057177Y3196695D1*
X4023683D1*
X4452716Y3353001D2*
Y3302761D1*
X4469463D1*
X4476648Y3305193D1*
X4481456Y3309946D1*
X4483833Y3314755D1*
X4486210Y3321885D1*
Y3333878D1*
X4483833Y3341063D1*
X4481456Y3345816D1*
X4476648Y3350625D1*
X4469463Y3353001D1*
X4452716D1*
X4513587Y3352946D2*
X4506457Y3350569D1*
X4504025Y3345816D1*
Y3341008D1*
X4506457Y3336255D1*
X4511210Y3333823D1*
X4520772Y3331446D1*
X4527957Y3329070D1*
X4532710Y3324261D1*
X4535087Y3319508D1*
Y3312323D1*
X4532710Y3307570D1*
X4530334Y3305138D1*
X4523149Y3302761D1*
X4513587D1*
X4506457Y3305138D1*
X4504025Y3307570D1*
X4501649Y3312323D1*
Y3319508D1*
X4504025Y3324261D1*
X4508834Y3329070D1*
X4515964Y3331446D1*
X4525525Y3333823D1*
X4530334Y3336255D1*
X4532710Y3341008D1*
Y3345816D1*
X4530334Y3350569D1*
X4523149Y3352946D1*
X4513587D1*
X4430654Y3172819D2*
X4452154D1*
X4459339Y3175251D1*
X4461771Y3177627D1*
X4464148Y3182381D1*
Y3187189D1*
X4461771Y3191942D1*
X4459339Y3194374D1*
X4452154Y3196751D1*
X4430654D1*
Y3146511D1*
X4447401Y3172819D2*
X4464148Y3146511D1*
X4479587Y3196751D2*
Y3146511D1*
X4508272D1*
X4535649Y3196695D2*
X4528519Y3194319D1*
X4526087Y3189566D1*
Y3184757D1*
X4528519Y3180004D1*
X4533273Y3177572D1*
X4542834Y3175196D1*
X4550019Y3172819D1*
X4554772Y3168010D1*
X4557149Y3163257D1*
Y3156072D1*
X4554772Y3151319D1*
X4552396Y3148887D1*
X4545211Y3146511D1*
X4535649D1*
X4528519Y3148887D1*
X4526087Y3151319D1*
X4523711Y3156072D1*
Y3163257D1*
X4526087Y3168010D1*
X4530896Y3172819D1*
X4538026Y3175196D1*
X4547587Y3177572D1*
X4552396Y3180004D1*
X4554772Y3184757D1*
Y3189566D1*
X4552396Y3194319D1*
X4545211Y3196695D1*
X4535649D1*
X1047628Y946751D2*
Y896511D1*
X1064374D1*
X1071559Y898942D1*
X1076368Y903696D1*
X1078744Y908504D1*
X1081121Y915634D1*
Y927627D1*
X1078744Y934812D1*
X1076368Y939566D1*
X1071559Y944374D1*
X1064374Y946751D1*
X1047628D1*
X1127677Y930004D2*
X1125245Y922819D1*
X1120492Y918010D1*
X1113307Y915634D1*
X1110930D1*
X1103745Y918010D1*
X1098992Y922819D1*
X1096560Y930004D1*
Y932381D1*
X1098992Y939566D1*
X1103745Y944319D1*
X1110930Y946695D1*
X1113307D1*
X1120492Y944319D1*
X1125245Y939566D1*
X1127677Y930004D1*
Y918010D1*
X1125245Y906072D1*
X1120492Y898887D1*
X1113307Y896511D1*
X1108554D1*
X1101369Y898887D1*
X1098992Y903696D1*
X1025565Y1085319D2*
X1047065D1*
X1054250Y1087751D1*
X1056682Y1090127D1*
X1059059Y1094881D1*
Y1099689D1*
X1056682Y1104442D1*
X1054250Y1106874D1*
X1047065Y1109251D1*
X1025565D1*
Y1059011D1*
X1042312Y1085319D2*
X1059059Y1059011D1*
X1074498Y1109251D2*
Y1059011D1*
X1103183D1*
X1149739Y1092504D2*
X1147307Y1085319D1*
X1142554Y1080510D1*
X1135369Y1078134D1*
X1132992D1*
X1125807Y1080510D1*
X1121054Y1085319D1*
X1118622Y1092504D1*
Y1094881D1*
X1121054Y1102066D1*
X1125807Y1106819D1*
X1132992Y1109195D1*
X1135369D1*
X1142554Y1106819D1*
X1147307Y1102066D1*
X1149739Y1092504D1*
Y1080510D1*
X1147307Y1068572D1*
X1142554Y1061387D1*
X1135369Y1059011D1*
X1130616D1*
X1123431Y1061387D1*
X1121054Y1066196D1*
X1507732Y946751D2*
Y896511D1*
X1524479D1*
X1531664Y898942D1*
X1536472Y903696D1*
X1538849Y908504D1*
X1541225Y915634D1*
Y927627D1*
X1538849Y934812D1*
X1536472Y939566D1*
X1531664Y944374D1*
X1524479Y946751D1*
X1507732D1*
X1556665Y937134D2*
X1561473Y939566D1*
X1568658Y946695D1*
Y896511D1*
X1598467Y946695D2*
X1591282Y944319D1*
X1586474Y937134D1*
X1584097Y925196D1*
Y918010D1*
X1586474Y906072D1*
X1591282Y898887D1*
X1598467Y896511D1*
X1603221D1*
X1610406Y898887D1*
X1615159Y906072D1*
X1617591Y918010D1*
Y925196D1*
X1615159Y937134D1*
X1610406Y944319D1*
X1603221Y946695D1*
X1598467D1*
X1615159Y937134D2*
X1586474Y906072D1*
X1485661Y1085319D2*
X1507161D1*
X1514346Y1087751D1*
X1516778Y1090127D1*
X1519154Y1094881D1*
Y1099689D1*
X1516778Y1104442D1*
X1514346Y1106874D1*
X1507161Y1109251D1*
X1485661D1*
Y1059011D1*
X1502408Y1085319D2*
X1519154Y1059011D1*
X1534593Y1109251D2*
Y1059011D1*
X1563278D1*
X1578718Y1099634D2*
X1583526Y1102066D1*
X1590711Y1109195D1*
Y1059011D1*
X1620520Y1109195D2*
X1613335Y1106819D1*
X1608527Y1099634D1*
X1606150Y1087696D1*
Y1080510D1*
X1608527Y1068572D1*
X1613335Y1061387D1*
X1620520Y1059011D1*
X1625274D1*
X1632459Y1061387D1*
X1637212Y1068572D1*
X1639644Y1080510D1*
Y1087696D1*
X1637212Y1099634D1*
X1632459Y1106819D1*
X1625274Y1109195D1*
X1620520D1*
X1637212Y1099634D2*
X1608527Y1068572D1*
X2012222Y946751D2*
Y896511D1*
X2028969D1*
X2036154Y898942D1*
X2040962Y903696D1*
X2043339Y908504D1*
X2045716Y915634D1*
Y927627D1*
X2043339Y934812D1*
X2040962Y939566D1*
X2036154Y944374D1*
X2028969Y946751D1*
X2012222D1*
X2061155Y937134D2*
X2065963Y939566D1*
X2073148Y946695D1*
Y896511D1*
X2088587Y937134D2*
X2093396Y939566D1*
X2100581Y946695D1*
Y896511D1*
X1990160Y1085319D2*
X2011660D1*
X2018845Y1087751D1*
X2021277Y1090127D1*
X2023653Y1094881D1*
Y1099689D1*
X2021277Y1104442D1*
X2018845Y1106874D1*
X2011660Y1109251D1*
X1990160D1*
Y1059011D1*
X2006907Y1085319D2*
X2023653Y1059011D1*
X2039093Y1109251D2*
Y1059011D1*
X2067778D1*
X2083217Y1099634D2*
X2088025Y1102066D1*
X2095210Y1109195D1*
Y1059011D1*
X2110650Y1099634D2*
X2115458Y1102066D1*
X2122643Y1109195D1*
Y1059011D1*
X2482723Y946751D2*
Y896511D1*
X2499470D1*
X2506655Y898942D1*
X2511463Y903696D1*
X2513840Y908504D1*
X2516216Y915634D1*
Y927627D1*
X2513840Y934812D1*
X2511463Y939566D1*
X2506655Y944374D1*
X2499470Y946751D1*
X2482723D1*
X2531655Y937134D2*
X2536464Y939566D1*
X2543649Y946695D1*
Y896511D1*
X2561520Y934757D2*
Y937134D1*
X2563897Y941942D1*
X2566273Y944319D1*
X2571082Y946695D1*
X2580643D1*
X2585397Y944319D1*
X2587773Y941942D1*
X2590205Y937134D1*
Y932381D1*
X2587773Y927572D1*
X2583020Y920442D1*
X2559088Y896511D1*
X2592582D1*
X2460641Y1085319D2*
X2482141D1*
X2489326Y1087751D1*
X2491758Y1090127D1*
X2494134Y1094881D1*
Y1099689D1*
X2491758Y1104442D1*
X2489326Y1106874D1*
X2482141Y1109251D1*
X2460641D1*
Y1059011D1*
X2477388Y1085319D2*
X2494134Y1059011D1*
X2509574Y1109251D2*
Y1059011D1*
X2538259D1*
X2553698Y1099634D2*
X2558506Y1102066D1*
X2565691Y1109195D1*
Y1059011D1*
X2583562Y1097257D2*
Y1099634D1*
X2585939Y1104442D1*
X2588316Y1106819D1*
X2593124Y1109195D1*
X2602686D1*
X2607439Y1106819D1*
X2609815Y1104442D1*
X2612247Y1099634D1*
Y1094881D1*
X2609815Y1090072D1*
X2605062Y1082942D1*
X2581131Y1059011D1*
X2614624D1*
X2976472Y946751D2*
Y896511D1*
X2993219D1*
X3000404Y898942D1*
X3005212Y903696D1*
X3007589Y908504D1*
X3009966Y915634D1*
Y927627D1*
X3007589Y934812D1*
X3005212Y939566D1*
X3000404Y944374D1*
X2993219Y946751D1*
X2976472D1*
X3025405Y937134D2*
X3030213Y939566D1*
X3037398Y946695D1*
Y896511D1*
X3057646Y946695D2*
X3083899D1*
X3069584Y927572D1*
X3076769D1*
X3081522Y925196D1*
X3083899Y922819D1*
X3086331Y915634D1*
Y910881D1*
X3083899Y903696D1*
X3079146Y898887D1*
X3071961Y896511D1*
X3064776D1*
X3057646Y898887D1*
X3055269Y901319D1*
X3052838Y906072D1*
X2954410Y1085319D2*
X2975910D1*
X2983095Y1087751D1*
X2985527Y1090127D1*
X2987904Y1094881D1*
Y1099689D1*
X2985527Y1104442D1*
X2983095Y1106874D1*
X2975910Y1109251D1*
X2954410D1*
Y1059011D1*
X2971157Y1085319D2*
X2987904Y1059011D1*
X3003343Y1109251D2*
Y1059011D1*
X3032028D1*
X3047467Y1099634D2*
X3052275Y1102066D1*
X3059460Y1109195D1*
Y1059011D1*
X3079708Y1109195D2*
X3105961D1*
X3091646Y1090072D1*
X3098831D1*
X3103585Y1087696D1*
X3105961Y1085319D1*
X3108393Y1078134D1*
Y1073381D1*
X3105961Y1066196D1*
X3101208Y1061387D1*
X3094023Y1059011D1*
X3086838D1*
X3079708Y1061387D1*
X3077331Y1063819D1*
X3074900Y1068572D1*
X3469044Y946751D2*
Y896511D1*
X3485790D1*
X3492976Y898942D1*
X3497784Y903696D1*
X3500161Y908504D1*
X3502537Y915634D1*
Y927627D1*
X3500161Y934812D1*
X3497784Y939566D1*
X3492976Y944374D1*
X3485790Y946751D1*
X3469044D1*
X3517976Y937134D2*
X3522785Y939566D1*
X3529970Y946695D1*
Y896511D1*
X3569341D2*
Y946695D1*
X3545409Y913257D1*
X3581279D1*
X3446973Y1085319D2*
X3468472D1*
X3475657Y1087751D1*
X3478089Y1090127D1*
X3480466Y1094881D1*
Y1099689D1*
X3478089Y1104442D1*
X3475657Y1106874D1*
X3468472Y1109251D1*
X3446973D1*
Y1059011D1*
X3463719Y1085319D2*
X3480466Y1059011D1*
X3495905Y1109251D2*
Y1059011D1*
X3524590D1*
X3540029Y1099634D2*
X3544838Y1102066D1*
X3552023Y1109195D1*
Y1059011D1*
X3591394D2*
Y1109195D1*
X3567462Y1075757D1*
X3603332D1*
X3951472Y946751D2*
Y896511D1*
X3968219D1*
X3975404Y898942D1*
X3980212Y903696D1*
X3982589Y908504D1*
X3984966Y915634D1*
Y927627D1*
X3982589Y934812D1*
X3980212Y939566D1*
X3975404Y944374D1*
X3968219Y946751D1*
X3951472D1*
X4000405Y937134D2*
X4005213Y939566D1*
X4012398Y946695D1*
Y896511D1*
X4056522Y946695D2*
X4032646D1*
X4030269Y925196D1*
X4032646Y927572D1*
X4039831Y930004D1*
X4046961D1*
X4054146Y927572D1*
X4058954Y922819D1*
X4061331Y915634D1*
Y910881D1*
X4058954Y903696D1*
X4054146Y898887D1*
X4046961Y896511D1*
X4039831D1*
X4032646Y898887D1*
X4030269Y901319D1*
X4027838Y906072D1*
X3929410Y1085319D2*
X3950910D1*
X3958095Y1087751D1*
X3960527Y1090127D1*
X3962904Y1094881D1*
Y1099689D1*
X3960527Y1104442D1*
X3958095Y1106874D1*
X3950910Y1109251D1*
X3929410D1*
Y1059011D1*
X3946157Y1085319D2*
X3962904Y1059011D1*
X3978343Y1109251D2*
Y1059011D1*
X4007028D1*
X4022467Y1099634D2*
X4027275Y1102066D1*
X4034460Y1109195D1*
Y1059011D1*
X4078585Y1109195D2*
X4054708D1*
X4052331Y1087696D1*
X4054708Y1090072D1*
X4061893Y1092504D1*
X4069023D1*
X4076208Y1090072D1*
X4081016Y1085319D1*
X4083393Y1078134D1*
Y1073381D1*
X4081016Y1066196D1*
X4076208Y1061387D1*
X4069023Y1059011D1*
X4061893D1*
X4054708Y1061387D1*
X4052331Y1063819D1*
X4049900Y1068572D1*
X4440208Y946751D2*
Y896511D1*
X4456955D1*
X4464140Y898942D1*
X4468948Y903696D1*
X4471325Y908504D1*
X4473701Y915634D1*
Y927627D1*
X4471325Y934812D1*
X4468948Y939566D1*
X4464140Y944374D1*
X4456955Y946751D1*
X4440208D1*
X4489140Y937134D2*
X4493949Y939566D1*
X4501134Y946695D1*
Y896511D1*
X4545258Y939566D2*
X4542881Y944319D1*
X4535696Y946695D1*
X4530943D1*
X4523758Y944319D1*
X4518950Y937134D1*
X4516573Y925196D1*
Y913257D1*
X4518950Y903696D1*
X4523758Y898887D1*
X4530943Y896511D1*
X4533320D1*
X4540450Y898887D1*
X4545258Y903696D1*
X4547635Y910881D1*
Y913257D1*
X4545258Y920442D1*
X4540450Y925196D1*
X4533320Y927572D1*
X4530943D1*
X4523758Y925196D1*
X4518950Y920442D1*
X4516573Y913257D1*
X4418126Y1085319D2*
X4439626D1*
X4446811Y1087751D1*
X4449243Y1090127D1*
X4451619Y1094881D1*
Y1099689D1*
X4449243Y1104442D1*
X4446811Y1106874D1*
X4439626Y1109251D1*
X4418126D1*
Y1059011D1*
X4434873Y1085319D2*
X4451619Y1059011D1*
X4467059Y1109251D2*
Y1059011D1*
X4495744D1*
X4511183Y1099634D2*
X4515991Y1102066D1*
X4523176Y1109195D1*
Y1059011D1*
X4567300Y1102066D2*
X4564924Y1106819D1*
X4557739Y1109195D1*
X4552986D1*
X4545801Y1106819D1*
X4540992Y1099634D1*
X4538616Y1087696D1*
Y1075757D1*
X4540992Y1066196D1*
X4545801Y1061387D1*
X4552986Y1059011D1*
X4555362D1*
X4562492Y1061387D1*
X4567300Y1066196D1*
X4569677Y1073381D1*
Y1075757D1*
X4567300Y1082942D1*
X4562492Y1087696D1*
X4555362Y1090072D1*
X4552986D1*
X4545801Y1087696D1*
X4540992Y1082942D1*
X4538616Y1075757D1*
M02*
