G04 DipTrace 3.3.1.3*
G04 Bottom.gbr*
%MOIN*%
G04 #@! TF.FileFunction,Copper,L2,Bot*
G04 #@! TF.Part,Single*
G04 #@! TA.AperFunction,CopperBalancing*
%ADD14C,0.012992*%
G04 #@! TA.AperFunction,Conductor*
%ADD15C,0.03937*%
G04 #@! TA.AperFunction,ComponentPad*
%ADD18C,0.055118*%
G04 #@! TA.AperFunction,Conductor*
%ADD20C,0.019685*%
G04 #@! TA.AperFunction,CopperBalancing*
%ADD23C,0.025*%
G04 #@! TA.AperFunction,ComponentPad*
%ADD32O,0.07874X0.177165*%
%ADD33O,0.07874X0.19685*%
%ADD34O,0.177165X0.07874*%
%ADD35C,0.08*%
%ADD38R,0.066929X0.066929*%
%ADD39C,0.066929*%
G04 #@! TA.AperFunction,ViaPad*
%ADD40C,0.04*%
%FSLAX26Y26*%
G04*
G70*
G90*
G75*
G01*
G04 Bottom*
%LPD*%
X3610551Y2029843D2*
D14*
X3342835Y1762126D1*
X1069213D1*
X945197Y1638110D1*
X4999676Y2370394D2*
D15*
X4498346D1*
X4488504D1*
X4126299D1*
X3701102Y2795591D1*
X2913701D1*
X2264094D1*
X2106614Y2638110D1*
X1732598D1*
D14*
Y2874331D1*
X1457008Y3149921D1*
X551496D1*
X2919764Y2258033D2*
D20*
X2913701Y2251970D1*
Y2417886D1*
Y2795591D1*
X3139480Y2417886D2*
X2913701D1*
X4498346Y2624331D2*
Y2370394D1*
X4488504Y2175512D2*
Y2370394D1*
X3169606Y2264094D2*
D14*
Y2106614D1*
X3100709Y2037717D1*
X2982598D1*
X2096772D1*
X1634173Y2500315D1*
Y2638110D1*
X3327087Y2264094D2*
X3169606D1*
X3533780D2*
X3327087D1*
X3750315Y2254252D2*
X3740472Y2264094D1*
X3533780D1*
X2982598Y2372362D2*
Y2037717D1*
X4999676Y1970394D2*
X4588504D1*
X4547559Y1929449D1*
Y1870394D1*
X3819213Y2264094D2*
Y2086929D1*
X4035748Y1870394D1*
X4547559D1*
X4823150Y2027874D2*
X4965669Y2170394D1*
X4999676D1*
X3366457Y1565276D2*
X4518031D1*
X4685748Y1732992D1*
Y1860551D1*
X4665669Y2027874D2*
X4901890Y2264094D1*
X4993377D1*
X4999676Y2270394D1*
X4635748Y1821575D2*
X4448346Y1634173D1*
X3957008D1*
X3681417Y1909764D1*
Y2077087D1*
X3602677Y2155827D1*
X3258189D1*
X3208976Y2205039D1*
X4585748Y1832205D2*
X4436929Y1683386D1*
X3976693D1*
X3740472Y1919606D1*
Y2096772D1*
X3622362Y2214882D1*
X3415669D1*
X4385748Y2067244D2*
X4114488D1*
X4232598Y2460945D2*
X4226912Y2466631D1*
X4221227Y2460945D1*
X4173543D1*
X3681417Y2953071D1*
X4185748Y2547165D2*
X3740472Y2992441D1*
X4135748Y2656220D2*
X3838898Y2953071D1*
X4212913Y2894016D2*
Y3051496D1*
X2254252Y1260157D2*
X1358583D1*
X1023937Y925512D1*
X1604646Y1220787D2*
X1419016Y1035157D1*
Y912570D1*
X4134173Y2854646D2*
D20*
Y3090866D1*
X4999676Y1870394D2*
Y1880875D1*
X5138110Y1742441D1*
Y886142D1*
X4933465Y681496D1*
X4573150D1*
X3037717Y1968819D2*
X2067244D1*
X1535748Y2500315D1*
Y2638110D1*
Y2933386D1*
X3207008Y2039685D2*
D14*
X3208976Y2037717D1*
Y1958976D1*
X3159764Y1909764D1*
X1771969D1*
X1043622Y2638110D1*
X3413701Y2029843D2*
X3218819Y1834961D1*
X1043622D1*
X846772Y1638110D1*
D40*
X3610551Y2029843D3*
X551496Y3149921D3*
X2919764Y2258033D3*
X3139480Y2417886D3*
X4498346Y2624331D3*
X4488504Y2175512D3*
X3169606Y2264094D3*
X3327087D3*
X3169606D3*
X3533780D3*
X3327087D3*
X3750315Y2254252D3*
X3533780Y2264094D3*
X2982598Y2372362D3*
X4547559Y1870394D3*
X3819213Y2264094D3*
X4823150Y2027874D3*
X3366457Y1565276D3*
X4685748Y1860551D3*
X4665669Y2027874D3*
X4635748Y1821575D3*
X3208976Y2205039D3*
X4585748Y1832205D3*
X3415669Y2214882D3*
X4385748Y2067244D3*
X4114488D3*
X4232598Y2460945D3*
X3681417Y2953071D3*
X4185748Y2547165D3*
X3740472Y2992441D3*
X4135748Y2656220D3*
X3838898Y2953071D3*
X4212913Y2894016D3*
Y3051496D3*
X2254252Y1260157D3*
X1023937Y925512D3*
X1604646Y1220787D3*
X1419016Y912570D3*
X4134173Y2854646D3*
Y3090866D3*
X3037717Y1968819D3*
X1535748Y2933386D3*
X3207008Y2039685D3*
X3413701Y2029843D3*
X427820Y3719147D2*
D23*
X477902D1*
X625076D2*
X4966117D1*
X5113254D2*
X5154007D1*
X427892Y3694278D2*
X463621D1*
X639358D2*
X4951799D1*
X5127572D2*
X5154007D1*
X427928Y3669409D2*
X457951D1*
X645027D2*
X4946130D1*
X5133242D2*
X5154007D1*
X427964Y3644541D2*
X459243D1*
X643735D2*
X4947457D1*
X5131914D2*
X5154007D1*
X428036Y3619672D2*
X467891D1*
X635123D2*
X4956069D1*
X5123302D2*
X5154007D1*
X428071Y3594803D2*
X486802D1*
X616212D2*
X4974980D1*
X5104391D2*
X5154007D1*
X428107Y3569934D2*
X5154007D1*
X428179Y3545066D2*
X966645D1*
X1054681D2*
X1116641D1*
X1204677D2*
X1454132D1*
X1542168D2*
X1604128D1*
X1692164D2*
X1943700D1*
X2031807D2*
X2093696D1*
X2181803D2*
X2429105D1*
X2517177D2*
X2579101D1*
X2667209D2*
X2916592D1*
X3004700D2*
X3066588D1*
X3154695D2*
X3404114D1*
X3492186D2*
X3554110D1*
X3642182D2*
X3891601D1*
X3979709D2*
X4041597D1*
X4129705D2*
X4379088D1*
X4467195D2*
X4529119D1*
X4617191D2*
X5154007D1*
X428215Y3520197D2*
X947411D1*
X1073879D2*
X1097407D1*
X1223875D2*
X1434934D1*
X1561366D2*
X1584930D1*
X1711398D2*
X1924502D1*
X2051006D2*
X2074498D1*
X2201001D2*
X2409907D1*
X2536375D2*
X2559903D1*
X2686407D2*
X2897394D1*
X3023898D2*
X3047390D1*
X3173893D2*
X3384916D1*
X3511384D2*
X3534912D1*
X3661380D2*
X3872403D1*
X3998907D2*
X4022399D1*
X4148903D2*
X4359890D1*
X4486393D2*
X4509921D1*
X4636389D2*
X5154007D1*
X428251Y3495328D2*
X941706D1*
X1079621D2*
X1091701D1*
X1229616D2*
X1429192D1*
X1567107D2*
X1579219D1*
X1717103D2*
X1918796D1*
X2056711D2*
X2068792D1*
X2206707D2*
X2404201D1*
X2542116D2*
X2554197D1*
X2692112D2*
X2891688D1*
X3029603D2*
X3041684D1*
X3179599D2*
X3379211D1*
X3517090D2*
X3529207D1*
X3667122D2*
X3866697D1*
X4004612D2*
X4016693D1*
X4154608D2*
X4354184D1*
X4492099D2*
X4504180D1*
X4642095D2*
X5154007D1*
X428287Y3470459D2*
X945653D1*
X1075673D2*
X1095649D1*
X1225669D2*
X1433139D1*
X1563160D2*
X1583135D1*
X1713156D2*
X1922743D1*
X2052764D2*
X2072739D1*
X2202760D2*
X2408149D1*
X2538133D2*
X2558145D1*
X2688165D2*
X2895635D1*
X3025656D2*
X3045631D1*
X3175652D2*
X3383158D1*
X3513143D2*
X3533154D1*
X3663138D2*
X3870645D1*
X4000665D2*
X4020641D1*
X4150661D2*
X4358131D1*
X4488152D2*
X4508163D1*
X4638148D2*
X5154007D1*
X428358Y3445591D2*
X961657D1*
X1059633D2*
X1111653D1*
X1209629D2*
X1449144D1*
X1547156D2*
X1599176D1*
X1697152D2*
X1938784D1*
X2036724D2*
X2088779D1*
X2186720D2*
X2424189D1*
X2522129D2*
X2574185D1*
X2672125D2*
X2911676D1*
X3009616D2*
X3061672D1*
X3159612D2*
X3399198D1*
X3497102D2*
X3549194D1*
X3647134D2*
X3886685D1*
X3984625D2*
X4036681D1*
X4134621D2*
X4374172D1*
X4472112D2*
X4524167D1*
X4622107D2*
X5154007D1*
X428394Y3420722D2*
X5154007D1*
X428430Y3395853D2*
X5154007D1*
X428502Y3370984D2*
X5154007D1*
X428538Y3346115D2*
X5154007D1*
X428574Y3321247D2*
X5154007D1*
X428610Y3296378D2*
X5154007D1*
X428681Y3271509D2*
X5154007D1*
X428717Y3246640D2*
X5154007D1*
X428753Y3221772D2*
X5154007D1*
X428825Y3196903D2*
X5154007D1*
X428861Y3172034D2*
X508117D1*
X1484035D2*
X5154007D1*
X428897Y3147165D2*
X502591D1*
X1508903D2*
X5154007D1*
X428969Y3122297D2*
X511598D1*
X1533771D2*
X5154007D1*
X429004Y3097428D2*
X1460340D1*
X1558639D2*
X4203219D1*
X4222609D2*
X5154007D1*
X429040Y3072559D2*
X1485207D1*
X1583506D2*
X4168950D1*
X4256878D2*
X5154007D1*
X429076Y3047690D2*
X1510075D1*
X1608374D2*
X4164070D1*
X4261758D2*
X5154007D1*
X429148Y3022822D2*
X1534943D1*
X1633278D2*
X3702778D1*
X3778183D2*
X4173830D1*
X4251998D2*
X5154007D1*
X429184Y2997953D2*
X1559811D1*
X1658145D2*
X3666787D1*
X3789128D2*
X3824282D1*
X3853540D2*
X4177419D1*
X4248410D2*
X5154007D1*
X429220Y2973084D2*
X1584678D1*
X1683013D2*
X3636967D1*
X3883360D2*
X4177419D1*
X4248410D2*
X5154007D1*
X429291Y2948215D2*
X1609546D1*
X1707881D2*
X3632697D1*
X3892905D2*
X4177419D1*
X4248410D2*
X5154007D1*
X429327Y2923346D2*
X1634414D1*
X1732749D2*
X3643175D1*
X3917773D2*
X4174332D1*
X4251496D2*
X5154007D1*
X429363Y2898478D2*
X1659282D1*
X1757616D2*
X3686846D1*
X3942640D2*
X4164141D1*
X4261687D2*
X5154007D1*
X429399Y2873609D2*
X1684185D1*
X1768095D2*
X3711714D1*
X3967508D2*
X4168627D1*
X4257201D2*
X5154007D1*
X429471Y2848740D2*
X1697104D1*
X1768095D2*
X3736581D1*
X3992376D2*
X4199846D1*
X4225982D2*
X5154007D1*
X429507Y2823871D2*
X1697104D1*
X1768095D2*
X2224565D1*
X3740612D2*
X3761449D1*
X4017244D2*
X5154007D1*
X429543Y2799003D2*
X1697104D1*
X1768095D2*
X2199697D1*
X3765480D2*
X3786317D1*
X4042111D2*
X5154007D1*
X429614Y2774134D2*
X1697104D1*
X1768095D2*
X2174830D1*
X3790348D2*
X3811185D1*
X4066979D2*
X5154007D1*
X429650Y2749265D2*
X1697104D1*
X1768095D2*
X2149962D1*
X2285580D2*
X2874858D1*
X2952524D2*
X3679633D1*
X3815216D2*
X3836088D1*
X4091847D2*
X5154007D1*
X429686Y2724396D2*
X1697104D1*
X1768095D2*
X2125094D1*
X2260713D2*
X2874858D1*
X2952524D2*
X3704501D1*
X3840083D2*
X3860956D1*
X4116715D2*
X5154007D1*
X429758Y2699528D2*
X1697104D1*
X1768095D2*
X2100227D1*
X2235845D2*
X2874858D1*
X2952524D2*
X3729369D1*
X3864987D2*
X3885824D1*
X4155147D2*
X5154007D1*
X429794Y2674659D2*
X804449D1*
X889076D2*
X902879D1*
X987506D2*
X1001309D1*
X1085936D2*
X1099740D1*
X1184367D2*
X1198134D1*
X1282797D2*
X1296564D1*
X1381227D2*
X1394995D1*
X1479658D2*
X1493425D1*
X1578052D2*
X1591855D1*
X1676482D2*
X1690286D1*
X2210977D2*
X2874858D1*
X2952524D2*
X3754236D1*
X3889855D2*
X3910691D1*
X4180911D2*
X5154007D1*
X429830Y2649790D2*
X791494D1*
X2186109D2*
X2874858D1*
X2952524D2*
X3779104D1*
X3914723D2*
X3935559D1*
X4184285D2*
X4456956D1*
X4539753D2*
X5154007D1*
X429866Y2624921D2*
X791853D1*
X2161242D2*
X2874858D1*
X2952524D2*
X3803972D1*
X3939590D2*
X3960427D1*
X4172622D2*
X4449349D1*
X4547325D2*
X5154007D1*
X429937Y2600052D2*
X805884D1*
X887640D2*
X904314D1*
X986071D2*
X1002745D1*
X1182931D2*
X1199605D1*
X1281361D2*
X1298000D1*
X1379792D2*
X1396430D1*
X1478222D2*
X1494860D1*
X1576617D2*
X1593291D1*
X1675047D2*
X1691721D1*
X2135262D2*
X2874858D1*
X2952524D2*
X3828840D1*
X3964458D2*
X3985295D1*
X4182024D2*
X4456203D1*
X4540507D2*
X5154007D1*
X429973Y2575184D2*
X1057396D1*
X1155695D2*
X1598673D1*
X1669664D2*
X2874858D1*
X2952524D2*
X3853707D1*
X3989326D2*
X4010162D1*
X4225336D2*
X4459504D1*
X4537170D2*
X5154007D1*
X430009Y2550315D2*
X1082264D1*
X1180563D2*
X1598673D1*
X1669664D2*
X2874858D1*
X2952524D2*
X3878575D1*
X4014193D2*
X4035030D1*
X4234630D2*
X4459504D1*
X4537170D2*
X5154007D1*
X430081Y2525446D2*
X1107132D1*
X1205431D2*
X1598673D1*
X1669664D2*
X2874858D1*
X2952524D2*
X3903443D1*
X4039061D2*
X4059898D1*
X4229355D2*
X4459504D1*
X4537170D2*
X5154007D1*
X430117Y2500577D2*
X1131999D1*
X1230298D2*
X1598673D1*
X1683049D2*
X2874858D1*
X2952524D2*
X3928311D1*
X4063929D2*
X4084766D1*
X4183064D2*
X4205803D1*
X4259390D2*
X4459504D1*
X4537170D2*
X5154007D1*
X430153Y2475709D2*
X1156867D1*
X1255166D2*
X1609618D1*
X1707917D2*
X2874858D1*
X2952524D2*
X3953178D1*
X4088797D2*
X4109633D1*
X4279198D2*
X4459504D1*
X4537170D2*
X5154007D1*
X430224Y2450840D2*
X1181735D1*
X1280034D2*
X1634486D1*
X1732785D2*
X2874858D1*
X3174791D2*
X3978046D1*
X4113664D2*
X4134501D1*
X4280490D2*
X4459504D1*
X4537170D2*
X5154007D1*
X430260Y2425971D2*
X1206603D1*
X1304902D2*
X1659353D1*
X1757652D2*
X2874858D1*
X3187781D2*
X4002914D1*
X4138532D2*
X4199451D1*
X4265742D2*
X4459504D1*
X4537170D2*
X4937230D1*
X5062119D2*
X5154007D1*
X430296Y2401102D2*
X1231470D1*
X1329769D2*
X1684221D1*
X1782556D2*
X2874858D1*
X3185341D2*
X4027781D1*
X5062119D2*
X5154007D1*
X430332Y2376234D2*
X1256338D1*
X1354637D2*
X1709089D1*
X1807424D2*
X2874858D1*
X3031433D2*
X3116323D1*
X3162626D2*
X4052649D1*
X5062119D2*
X5154007D1*
X430404Y2351365D2*
X1281206D1*
X1379505D2*
X1733957D1*
X1832291D2*
X2874858D1*
X3026589D2*
X4077517D1*
X5062119D2*
X5154007D1*
X430440Y2326496D2*
X1306074D1*
X1404372D2*
X1758824D1*
X1857159D2*
X2874858D1*
X3018084D2*
X4109454D1*
X5062119D2*
X5154007D1*
X430476Y2301627D2*
X1330941D1*
X1429240D2*
X1783692D1*
X1882027D2*
X2874858D1*
X3018084D2*
X3139684D1*
X3199551D2*
X3297144D1*
X3357010D2*
X3503836D1*
X3563703D2*
X3789259D1*
X3849162D2*
X4449672D1*
X4527337D2*
X4945986D1*
X5053364D2*
X5154007D1*
X430547Y2276759D2*
X1355809D1*
X1454144D2*
X1808560D1*
X1906895D2*
X2874715D1*
X3018084D2*
X3122388D1*
X3866458D2*
X4449672D1*
X4527337D2*
X4865390D1*
X5061796D2*
X5154007D1*
X430583Y2251890D2*
X1380677D1*
X1479012D2*
X1833463D1*
X1931762D2*
X2871162D1*
X3018084D2*
X3122244D1*
X3866566D2*
X4449672D1*
X4527337D2*
X4840522D1*
X5059213D2*
X5154007D1*
X430619Y2227021D2*
X1405545D1*
X1503879D2*
X1858331D1*
X1956630D2*
X2882609D1*
X3018084D2*
X3134122D1*
X3252444D2*
X3296534D1*
X3357656D2*
X3368302D1*
X3659371D2*
X3710135D1*
X3854688D2*
X4449672D1*
X4527337D2*
X4815655D1*
X4913954D2*
X4955782D1*
X5043567D2*
X5154007D1*
X430655Y2202152D2*
X1430412D1*
X1528747D2*
X1883199D1*
X1981498D2*
X2947093D1*
X3018084D2*
X3134122D1*
X3261020D2*
X3368445D1*
X3684238D2*
X3783733D1*
X3854688D2*
X4447914D1*
X4529096D2*
X4790787D1*
X4889086D2*
X4946309D1*
X5053041D2*
X5154007D1*
X430727Y2177283D2*
X1455280D1*
X1553615D2*
X1908067D1*
X2006366D2*
X2947093D1*
X3018084D2*
X3134122D1*
X3709106D2*
X3783733D1*
X3854688D2*
X4439553D1*
X4537457D2*
X4765919D1*
X4864218D2*
X4923415D1*
X5061725D2*
X5154007D1*
X430763Y2152415D2*
X1480148D1*
X1578483D2*
X1932934D1*
X2031233D2*
X2947093D1*
X3018084D2*
X3134122D1*
X3733974D2*
X3783733D1*
X3854688D2*
X4445653D1*
X4531356D2*
X4741051D1*
X4839350D2*
X4898547D1*
X5059356D2*
X5154007D1*
X430799Y2127546D2*
X1505051D1*
X1603350D2*
X1957802D1*
X2056101D2*
X2947093D1*
X3018084D2*
X3134122D1*
X3205077D2*
X3238688D1*
X3758842D2*
X3783733D1*
X3854688D2*
X4716184D1*
X4814483D2*
X4873679D1*
X5044105D2*
X5154007D1*
X430870Y2102677D2*
X1529919D1*
X1628218D2*
X1982670D1*
X2080969D2*
X2947093D1*
X3018084D2*
X3116503D1*
X3204862D2*
X3606681D1*
X3775420D2*
X3783749D1*
X3854688D2*
X4081895D1*
X4147073D2*
X4353143D1*
X4418357D2*
X4691316D1*
X4789615D2*
X4848812D1*
X5052682D2*
X5154007D1*
X430906Y2077808D2*
X1554787D1*
X1653086D2*
X2007538D1*
X2105837D2*
X2947093D1*
X3018084D2*
X3091635D1*
X3236117D2*
X3631548D1*
X3775958D2*
X3785025D1*
X3877475D2*
X4066716D1*
X4433536D2*
X4666448D1*
X4764747D2*
X4823944D1*
X4922243D2*
X4937697D1*
X5061689D2*
X5154007D1*
X430942Y2052940D2*
X1579655D1*
X1677954D2*
X2032405D1*
X3254059D2*
X3370850D1*
X3456553D2*
X3567710D1*
X3775958D2*
X3804044D1*
X3902342D2*
X4067756D1*
X4432495D2*
X4623997D1*
X4739879D2*
X4781493D1*
X4897375D2*
X4939814D1*
X5059536D2*
X5154007D1*
X431014Y2028071D2*
X1604522D1*
X1702821D2*
X2057273D1*
X3140198D2*
X3159492D1*
X3254525D2*
X3362776D1*
X3462654D2*
X3559636D1*
X3775958D2*
X3828911D1*
X3927210D2*
X4086954D1*
X4142013D2*
X4358203D1*
X4413297D2*
X4616677D1*
X4715012D2*
X4774173D1*
X4872507D2*
X4954706D1*
X5044644D2*
X5154007D1*
X431050Y2003202D2*
X1629390D1*
X1727689D2*
X3173487D1*
X3244478D2*
X3337908D1*
X3454293D2*
X3534769D1*
X3775958D2*
X3853779D1*
X3952078D2*
X4582551D1*
X5052359D2*
X5154007D1*
X431086Y1978333D2*
X1654258D1*
X1752557D2*
X3173487D1*
X3244478D2*
X3313040D1*
X3411339D2*
X3509901D1*
X3608200D2*
X3645938D1*
X3775958D2*
X3878647D1*
X3976946D2*
X4547277D1*
X5061617D2*
X5154007D1*
X431122Y1953465D2*
X1679126D1*
X1777424D2*
X3154324D1*
X3244011D2*
X3288173D1*
X3386471D2*
X3485033D1*
X3583332D2*
X3645938D1*
X3775958D2*
X3903515D1*
X4001813D2*
X4522409D1*
X5059679D2*
X5154007D1*
X431193Y1928596D2*
X1703993D1*
X3227756D2*
X3263305D1*
X3361604D2*
X3460165D1*
X3558464D2*
X3645938D1*
X3780623D2*
X3928382D1*
X4026681D2*
X4512074D1*
X4595876D2*
X4954204D1*
X5045146D2*
X5154007D1*
X431229Y1903727D2*
X1728861D1*
X3202888D2*
X3238437D1*
X3336736D2*
X3435298D1*
X3533597D2*
X3646476D1*
X3805491D2*
X3953250D1*
X4051585D2*
X4512074D1*
X4583030D2*
X4666018D1*
X4705502D2*
X4947350D1*
X5052000D2*
X5154007D1*
X431265Y1878858D2*
X1757927D1*
X3173786D2*
X3213569D1*
X3311868D2*
X3410430D1*
X3508729D2*
X3663162D1*
X3830359D2*
X3978118D1*
X4595768D2*
X4640504D1*
X4730980D2*
X4937804D1*
X5061545D2*
X5154007D1*
X431337Y1853990D2*
X1013510D1*
X3287000D2*
X3385562D1*
X3483861D2*
X3688030D1*
X3855227D2*
X4002986D1*
X4734281D2*
X4939491D1*
X5059859D2*
X5154007D1*
X431373Y1829121D2*
X988642D1*
X3262133D2*
X3360694D1*
X3458993D2*
X3712898D1*
X3880094D2*
X4523665D1*
X4722511D2*
X4953701D1*
X5045649D2*
X5154007D1*
X431409Y1804252D2*
X963774D1*
X3233354D2*
X3335791D1*
X3434126D2*
X3737765D1*
X3904962D2*
X4508630D1*
X4721220D2*
X5154007D1*
X431445Y1779383D2*
X938907D1*
X3409258D2*
X3762633D1*
X3929866D2*
X4483762D1*
X4721220D2*
X5154007D1*
X431516Y1754514D2*
X914039D1*
X3384390D2*
X3787501D1*
X3954733D2*
X4458894D1*
X4617837D2*
X4650264D1*
X4721220D2*
X5154007D1*
X431552Y1729646D2*
X889171D1*
X3351090D2*
X3812369D1*
X3979601D2*
X4434026D1*
X4592970D2*
X4633255D1*
X4721076D2*
X5154007D1*
X431588Y1704777D2*
X864303D1*
X1061033D2*
X3837236D1*
X4568102D2*
X4608388D1*
X4706686D2*
X5154007D1*
X431660Y1679908D2*
X810011D1*
X1080410D2*
X1105266D1*
X1178804D2*
X1203696D1*
X1277235D2*
X1302126D1*
X1375665D2*
X1400557D1*
X1474095D2*
X1498987D1*
X1572526D2*
X1597417D1*
X1670956D2*
X1695812D1*
X1769386D2*
X3862104D1*
X4543234D2*
X4583520D1*
X4681819D2*
X5154007D1*
X431696Y1655039D2*
X792930D1*
X1786431D2*
X3886972D1*
X4518366D2*
X4558652D1*
X4656951D2*
X5154007D1*
X431732Y1630171D2*
X790813D1*
X1788549D2*
X3911876D1*
X4493499D2*
X4533784D1*
X4632083D2*
X5154007D1*
X431803Y1605302D2*
X801327D1*
X892233D2*
X899759D1*
X990664D2*
X998196D1*
X1187488D2*
X1195012D1*
X1285919D2*
X1293452D1*
X1384349D2*
X1391858D1*
X1482779D2*
X1490303D1*
X1581210D2*
X1588736D1*
X1679640D2*
X1687172D1*
X1778070D2*
X3340312D1*
X3392608D2*
X3938538D1*
X4466801D2*
X4508917D1*
X4607216D2*
X5154007D1*
X431839Y1580433D2*
X3320002D1*
X4582348D2*
X5154007D1*
X431875Y1555564D2*
X3318495D1*
X4557480D2*
X5154007D1*
X431911Y1530696D2*
X3332884D1*
X3400036D2*
X5154007D1*
X431983Y1505827D2*
X5154007D1*
X432019Y1480958D2*
X5154007D1*
X432055Y1456089D2*
X872377D1*
X939278D2*
X5154007D1*
X432126Y1431220D2*
X617313D1*
X721891D2*
X846469D1*
X965186D2*
X5154007D1*
X432162Y1406352D2*
X603820D1*
X735384D2*
X838000D1*
X973655D2*
X5154007D1*
X432198Y1381483D2*
X601236D1*
X737967D2*
X837462D1*
X974193D2*
X5154007D1*
X432234Y1356614D2*
X601236D1*
X737967D2*
X837462D1*
X974193D2*
X5154007D1*
X432306Y1331745D2*
X601236D1*
X737967D2*
X837462D1*
X974193D2*
X5154007D1*
X432342Y1306877D2*
X601236D1*
X737967D2*
X837462D1*
X974193D2*
X5154007D1*
X432378Y1282008D2*
X601703D1*
X737537D2*
X837462D1*
X974193D2*
X1331264D1*
X2297781D2*
X5154007D1*
X432449Y1257139D2*
X609849D1*
X729355D2*
X841517D1*
X970138D2*
X1306397D1*
X2303164D2*
X5154007D1*
X432485Y1232270D2*
X634824D1*
X704380D2*
X857772D1*
X953882D2*
X1281529D1*
X2293941D2*
X5154007D1*
X432521Y1207402D2*
X697657D1*
X877772D2*
X1256661D1*
X1354996D2*
X1542120D1*
X1651686D2*
X5154007D1*
X432593Y1182533D2*
X676701D1*
X898728D2*
X1231793D1*
X1330128D2*
X1517252D1*
X1633565D2*
X5154007D1*
X432629Y1157664D2*
X670242D1*
X905188D2*
X1206926D1*
X1305224D2*
X1492384D1*
X1590683D2*
X5154007D1*
X432665Y1132795D2*
X673615D1*
X901850D2*
X1182058D1*
X1280357D2*
X1467517D1*
X1565815D2*
X5154007D1*
X432700Y1107927D2*
X688794D1*
X886635D2*
X1157190D1*
X1255489D2*
X1442649D1*
X1540948D2*
X5154007D1*
X432772Y1083058D2*
X1132322D1*
X1230621D2*
X1417781D1*
X1516080D2*
X5154007D1*
X432808Y1058189D2*
X1107455D1*
X1205754D2*
X1392913D1*
X1491212D2*
X5154007D1*
X432844Y1033320D2*
X1082587D1*
X1180886D2*
X1383512D1*
X1466344D2*
X5154007D1*
X432916Y1008451D2*
X1057719D1*
X1156018D2*
X1383512D1*
X1454503D2*
X5154007D1*
X432952Y983583D2*
X1032851D1*
X1131150D2*
X1383512D1*
X1454503D2*
X5154007D1*
X432988Y958714D2*
X988893D1*
X1106283D2*
X1383512D1*
X1454503D2*
X5154007D1*
X433059Y933845D2*
X975688D1*
X1081415D2*
X1375187D1*
X1462864D2*
X5154007D1*
X433095Y908976D2*
X977984D1*
X1069896D2*
X1370163D1*
X1467852D2*
X5154007D1*
X433131Y884108D2*
X1000304D1*
X1047576D2*
X1379744D1*
X1458271D2*
X5154007D1*
X433167Y859239D2*
X5154007D1*
X433239Y834370D2*
X5154007D1*
X433275Y809501D2*
X5154007D1*
X433311Y784633D2*
X5154007D1*
X433382Y759764D2*
X5154007D1*
X433418Y734895D2*
X968511D1*
X1052743D2*
X1118507D1*
X1202739D2*
X1456034D1*
X1540266D2*
X1606030D1*
X1690262D2*
X1945637D1*
X2029870D2*
X2095633D1*
X2179866D2*
X2431043D1*
X2515275D2*
X2581039D1*
X2665271D2*
X2918494D1*
X3002762D2*
X3068525D1*
X3152758D2*
X3406016D1*
X3490284D2*
X3556012D1*
X3640280D2*
X3893503D1*
X3977735D2*
X4043499D1*
X4127767D2*
X4381025D1*
X4465258D2*
X4531021D1*
X4615254D2*
X5154007D1*
X433454Y710026D2*
X948057D1*
X1073197D2*
X1098053D1*
X1223193D2*
X1435580D1*
X1560720D2*
X1585576D1*
X1710716D2*
X1925183D1*
X2050324D2*
X2075179D1*
X2200320D2*
X2410589D1*
X2535693D2*
X2560585D1*
X2685725D2*
X2898076D1*
X3023180D2*
X3048071D1*
X3173176D2*
X3385598D1*
X3510702D2*
X3535594D1*
X3660698D2*
X3873085D1*
X3998189D2*
X4023081D1*
X4148185D2*
X4360607D1*
X4485712D2*
X4510603D1*
X4635708D2*
X5154007D1*
X433490Y685157D2*
X941741D1*
X1079513D2*
X1091737D1*
X1229509D2*
X1429264D1*
X1567035D2*
X1579286D1*
X1717031D2*
X1918868D1*
X2056639D2*
X2068864D1*
X2206635D2*
X2404273D1*
X2542045D2*
X2554269D1*
X2692041D2*
X2891724D1*
X3029531D2*
X3041756D1*
X3179527D2*
X3379247D1*
X3517054D2*
X3529242D1*
X3667050D2*
X3866733D1*
X4004505D2*
X4016729D1*
X4154537D2*
X4354256D1*
X4492027D2*
X4504252D1*
X4642023D2*
X5154007D1*
X433562Y660289D2*
X945115D1*
X1076140D2*
X1095110D1*
X1226136D2*
X1432637D1*
X1563662D2*
X1582633D1*
X1713658D2*
X1922241D1*
X2053266D2*
X2072237D1*
X2203262D2*
X2407646D1*
X2538672D2*
X2557642D1*
X2688668D2*
X2895097D1*
X3026158D2*
X3045093D1*
X3176154D2*
X3382620D1*
X3513681D2*
X3532616D1*
X3663677D2*
X3870106D1*
X4001132D2*
X4020102D1*
X4151163D2*
X4357629D1*
X4488654D2*
X4507625D1*
X4638686D2*
X5154007D1*
X433598Y635420D2*
X960186D1*
X1061068D2*
X1110182D1*
X1211064D2*
X1447708D1*
X1548591D2*
X1597704D1*
X1698587D2*
X1937312D1*
X2038195D2*
X2087308D1*
X2188191D2*
X2422718D1*
X2523600D2*
X2572714D1*
X2673596D2*
X2910204D1*
X3011087D2*
X3060200D1*
X3161083D2*
X3397727D1*
X3498574D2*
X3547723D1*
X3648605D2*
X3885178D1*
X3986060D2*
X4035174D1*
X4136056D2*
X4372700D1*
X4473583D2*
X4522696D1*
X4623579D2*
X5154007D1*
X433633Y610551D2*
X5154007D1*
X433705Y585682D2*
X494804D1*
X608210D2*
X4982983D1*
X5096389D2*
X5154007D1*
X433741Y560814D2*
X471694D1*
X631319D2*
X4959873D1*
X5119498D2*
X5154007D1*
X433777Y535945D2*
X460786D1*
X642192D2*
X4948964D1*
X5130407D2*
X5154007D1*
X433849Y511076D2*
X457628D1*
X645350D2*
X4945807D1*
X5133565D2*
X5154007D1*
X433885Y486207D2*
X461396D1*
X641618D2*
X4949574D1*
X5129797D2*
X5154007D1*
X433921Y461339D2*
X473022D1*
X629956D2*
X4961237D1*
X5118135D2*
X5154007D1*
X433956Y436470D2*
X497746D1*
X605232D2*
X4985961D1*
X5093410D2*
X5154007D1*
X603750Y1388113D2*
X604235Y1396139D1*
X605536Y1403368D1*
X607633Y1410407D1*
X610501Y1417169D1*
X614105Y1423570D1*
X618398Y1429530D1*
X623329Y1434974D1*
X628835Y1439836D1*
X634848Y1444054D1*
X641294Y1447577D1*
X648092Y1450359D1*
X655157Y1452368D1*
X662402Y1453577D1*
X669737Y1453972D1*
X677070Y1453548D1*
X684310Y1452310D1*
X691367Y1450274D1*
X698154Y1447464D1*
X704585Y1443916D1*
X710582Y1439674D1*
X716069Y1434791D1*
X720978Y1429327D1*
X725248Y1423350D1*
X728826Y1416935D1*
X731667Y1410162D1*
X733737Y1403114D1*
X735009Y1395880D1*
X735469Y1388110D1*
X735238Y1284180D1*
X734217Y1276906D1*
X732392Y1269791D1*
X729786Y1262923D1*
X726432Y1256388D1*
X722371Y1250268D1*
X717654Y1244638D1*
X712339Y1239568D1*
X706493Y1235121D1*
X700187Y1231353D1*
X693502Y1228311D1*
X686519Y1226031D1*
X679326Y1224544D1*
X672012Y1223867D1*
X664668Y1224008D1*
X657386Y1224967D1*
X650255Y1226730D1*
X643365Y1229276D1*
X636802Y1232574D1*
X630646Y1236582D1*
X624976Y1241250D1*
X619860Y1246521D1*
X615363Y1252329D1*
X611541Y1258601D1*
X608440Y1265260D1*
X606101Y1272223D1*
X604552Y1279403D1*
X603811Y1286711D1*
X603744Y1383386D1*
Y1388065D1*
X839965Y1397933D2*
X840775Y1408256D1*
X843188Y1418305D1*
X847143Y1427854D1*
X852543Y1436666D1*
X859255Y1444524D1*
X867114Y1451236D1*
X875926Y1456636D1*
X885474Y1460591D1*
X895524Y1463004D1*
X905827Y1463815D1*
X916130Y1463004D1*
X926179Y1460591D1*
X935728Y1456636D1*
X944540Y1451236D1*
X952398Y1444524D1*
X959110Y1436666D1*
X964510Y1427854D1*
X968465Y1418305D1*
X970878Y1408256D1*
X971689Y1397953D1*
X971486Y1274675D1*
X969869Y1264467D1*
X966676Y1254638D1*
X961984Y1245430D1*
X955909Y1237068D1*
X948601Y1229761D1*
X940240Y1223686D1*
X931031Y1218994D1*
X921202Y1215800D1*
X910994Y1214183D1*
X900659D1*
X890452Y1215800D1*
X880622Y1218994D1*
X871414Y1223686D1*
X863053Y1229761D1*
X855745Y1237068D1*
X849670Y1245430D1*
X844978Y1254638D1*
X841784Y1264467D1*
X840168Y1274675D1*
X839965Y1298215D1*
Y1397860D1*
X738524Y1087997D2*
X728201Y1088807D1*
X718151Y1091220D1*
X708603Y1095175D1*
X699791Y1100575D1*
X691932Y1107287D1*
X685220Y1115145D1*
X679820Y1123957D1*
X675865Y1133506D1*
X673453Y1143555D1*
X672642Y1153858D1*
X673453Y1164161D1*
X675865Y1174211D1*
X679820Y1183759D1*
X685220Y1192571D1*
X691932Y1200430D1*
X699791Y1207142D1*
X708603Y1212542D1*
X718151Y1216497D1*
X728201Y1218910D1*
X738524Y1219720D1*
X842097Y1219517D1*
X852304Y1217901D1*
X862134Y1214707D1*
X871342Y1210015D1*
X879703Y1203940D1*
X887011Y1196632D1*
X893086Y1188271D1*
X897778Y1179063D1*
X900972Y1169233D1*
X902588Y1159026D1*
Y1148691D1*
X900972Y1138483D1*
X897778Y1128654D1*
X893086Y1119445D1*
X887011Y1111084D1*
X879703Y1103776D1*
X871342Y1097702D1*
X862134Y1093010D1*
X852304Y1089816D1*
X842097Y1088199D1*
X818557Y1087996D1*
X738504Y1088032D1*
X1077116Y3491293D2*
X1076508Y3483973D1*
X1075096Y3476764D1*
X1072898Y3469756D1*
X1069940Y3463032D1*
X1066258Y3456676D1*
X1061898Y3450765D1*
X1056913Y3445371D1*
X1051362Y3440559D1*
X1045315Y3436389D1*
X1038845Y3432912D1*
X1032031Y3430169D1*
X1024956Y3428195D1*
X1017707Y3427013D1*
X1010371Y3426638D1*
X1003038Y3427075D1*
X995799Y3428317D1*
X988741Y3430351D1*
X981950Y3433151D1*
X975509Y3436682D1*
X969497Y3440903D1*
X963988Y3445760D1*
X959048Y3451196D1*
X954737Y3457144D1*
X951109Y3463531D1*
X948207Y3470279D1*
X946068Y3477305D1*
X944717Y3484525D1*
X944170Y3491850D1*
X944434Y3499191D1*
X945507Y3506458D1*
X947374Y3513562D1*
X950014Y3520416D1*
X953394Y3526938D1*
X957472Y3533047D1*
X962200Y3538669D1*
X967518Y3543735D1*
X973363Y3548184D1*
X979663Y3551960D1*
X986341Y3555019D1*
X993316Y3557323D1*
X1000502Y3558843D1*
X1007812Y3559561D1*
X1015157Y3559469D1*
X1022447Y3558567D1*
X1029593Y3556867D1*
X1036507Y3554388D1*
X1043106Y3551162D1*
X1049309Y3547228D1*
X1055041Y3542634D1*
X1060230Y3537436D1*
X1064814Y3531696D1*
X1068738Y3525487D1*
X1071952Y3518882D1*
X1074419Y3511963D1*
X1076107Y3504815D1*
X1076996Y3497523D1*
X1077116Y3491293D1*
X1226937Y3487913D2*
X1225305Y3477608D1*
X1222080Y3467684D1*
X1217343Y3458388D1*
X1211211Y3449947D1*
X1203833Y3442569D1*
X1195392Y3436436D1*
X1186095Y3431699D1*
X1176172Y3428475D1*
X1165867Y3426843D1*
X1155433D1*
X1145127Y3428475D1*
X1135204Y3431699D1*
X1125908Y3436436D1*
X1117466Y3442569D1*
X1110089Y3449947D1*
X1103956Y3458388D1*
X1099219Y3467684D1*
X1095995Y3477608D1*
X1094362Y3487913D1*
Y3498347D1*
X1095995Y3508652D1*
X1099219Y3518575D1*
X1103956Y3527872D1*
X1110089Y3536313D1*
X1117466Y3543691D1*
X1125908Y3549824D1*
X1135204Y3554561D1*
X1145127Y3557785D1*
X1155433Y3559417D1*
X1165867D1*
X1176172Y3557785D1*
X1186095Y3554561D1*
X1195392Y3549824D1*
X1203833Y3543691D1*
X1211211Y3536313D1*
X1217343Y3527872D1*
X1222080Y3518575D1*
X1225305Y3508652D1*
X1226937Y3498347D1*
Y3487913D1*
X1564616Y3491293D2*
X1564008Y3483973D1*
X1562596Y3476764D1*
X1560398Y3469756D1*
X1557440Y3463032D1*
X1553758Y3456676D1*
X1549398Y3450765D1*
X1544413Y3445371D1*
X1538862Y3440559D1*
X1532815Y3436389D1*
X1526345Y3432912D1*
X1519531Y3430169D1*
X1512456Y3428195D1*
X1505207Y3427013D1*
X1497871Y3426638D1*
X1490538Y3427075D1*
X1483299Y3428317D1*
X1476241Y3430351D1*
X1469450Y3433151D1*
X1463009Y3436682D1*
X1456997Y3440903D1*
X1451488Y3445760D1*
X1446548Y3451196D1*
X1442237Y3457144D1*
X1438609Y3463531D1*
X1435707Y3470279D1*
X1433568Y3477305D1*
X1432217Y3484525D1*
X1431670Y3491850D1*
X1431934Y3499191D1*
X1433007Y3506458D1*
X1434874Y3513562D1*
X1437514Y3520416D1*
X1440894Y3526938D1*
X1444972Y3533047D1*
X1449700Y3538669D1*
X1455018Y3543735D1*
X1460863Y3548184D1*
X1467163Y3551960D1*
X1473841Y3555019D1*
X1480816Y3557323D1*
X1488002Y3558843D1*
X1495312Y3559561D1*
X1502657Y3559469D1*
X1509947Y3558567D1*
X1517093Y3556867D1*
X1524007Y3554388D1*
X1530606Y3551162D1*
X1536809Y3547228D1*
X1542541Y3542634D1*
X1547730Y3537436D1*
X1552314Y3531696D1*
X1556238Y3525487D1*
X1559452Y3518882D1*
X1561919Y3511963D1*
X1563607Y3504815D1*
X1564496Y3497523D1*
X1564616Y3491293D1*
X1714437Y3487913D2*
X1712805Y3477608D1*
X1709580Y3467684D1*
X1704843Y3458388D1*
X1698711Y3449947D1*
X1691333Y3442569D1*
X1682892Y3436436D1*
X1673595Y3431699D1*
X1663672Y3428475D1*
X1653367Y3426843D1*
X1642933D1*
X1632627Y3428475D1*
X1622704Y3431699D1*
X1613408Y3436436D1*
X1604966Y3442569D1*
X1597589Y3449947D1*
X1591456Y3458388D1*
X1586719Y3467684D1*
X1583495Y3477608D1*
X1581862Y3487913D1*
Y3498347D1*
X1583495Y3508652D1*
X1586719Y3518575D1*
X1591456Y3527872D1*
X1597589Y3536313D1*
X1604966Y3543691D1*
X1613408Y3549824D1*
X1622704Y3554561D1*
X1632627Y3557785D1*
X1642933Y3559417D1*
X1653367D1*
X1663672Y3557785D1*
X1673595Y3554561D1*
X1682892Y3549824D1*
X1691333Y3543691D1*
X1698711Y3536313D1*
X1704843Y3527872D1*
X1709580Y3518575D1*
X1712805Y3508652D1*
X1714437Y3498347D1*
Y3487913D1*
X2054223Y3491313D2*
X2053614Y3483992D1*
X2052203Y3476784D1*
X2050004Y3469775D1*
X2047046Y3463052D1*
X2043365Y3456696D1*
X2039004Y3450785D1*
X2034019Y3445390D1*
X2028469Y3440579D1*
X2022422Y3436409D1*
X2015952Y3432932D1*
X2009138Y3430189D1*
X2002062Y3428215D1*
X1994813Y3427033D1*
X1987477Y3426658D1*
X1980145Y3427095D1*
X1972905Y3428337D1*
X1965847Y3430371D1*
X1959056Y3433170D1*
X1952615Y3436702D1*
X1946604Y3440922D1*
X1941094Y3445780D1*
X1936154Y3451216D1*
X1931843Y3457164D1*
X1928215Y3463550D1*
X1925314Y3470298D1*
X1923174Y3477325D1*
X1921823Y3484545D1*
X1921276Y3491870D1*
X1921541Y3499211D1*
X1922613Y3506477D1*
X1924481Y3513581D1*
X1927120Y3520436D1*
X1930500Y3526957D1*
X1934578Y3533067D1*
X1939306Y3538689D1*
X1944624Y3543755D1*
X1950469Y3548203D1*
X1956769Y3551980D1*
X1963447Y3555039D1*
X1970422Y3557343D1*
X1977609Y3558863D1*
X1984919Y3559581D1*
X1992263Y3559489D1*
X1999553Y3558587D1*
X2006699Y3556886D1*
X2013614Y3554408D1*
X2020213Y3551182D1*
X2026416Y3547248D1*
X2032147Y3542654D1*
X2037336Y3537455D1*
X2041921Y3531716D1*
X2045844Y3525506D1*
X2049059Y3518902D1*
X2051525Y3511983D1*
X2053213Y3504834D1*
X2054103Y3497543D1*
X2054223Y3491313D1*
X2204043Y3487933D2*
X2202411Y3477627D1*
X2199187Y3467704D1*
X2194450Y3458408D1*
X2188317Y3449966D1*
X2180939Y3442589D1*
X2172498Y3436456D1*
X2163201Y3431719D1*
X2153278Y3428495D1*
X2142973Y3426862D1*
X2132539D1*
X2122234Y3428495D1*
X2112310Y3431719D1*
X2103014Y3436456D1*
X2094573Y3442589D1*
X2087195Y3449966D1*
X2081062Y3458408D1*
X2076325Y3467704D1*
X2073101Y3477627D1*
X2071469Y3487933D1*
Y3498367D1*
X2073101Y3508672D1*
X2076325Y3518595D1*
X2081062Y3527892D1*
X2087195Y3536333D1*
X2094573Y3543711D1*
X2103014Y3549843D1*
X2112310Y3554580D1*
X2122234Y3557805D1*
X2132539Y3559437D1*
X2142973D1*
X2153278Y3557805D1*
X2163201Y3554580D1*
X2172498Y3549843D1*
X2180939Y3543711D1*
X2188317Y3536333D1*
X2194450Y3527892D1*
X2199187Y3518595D1*
X2202411Y3508672D1*
X2204043Y3498367D1*
Y3487933D1*
X2539616Y3491313D2*
X2539008Y3483992D1*
X2537596Y3476784D1*
X2535398Y3469775D1*
X2532440Y3463052D1*
X2528758Y3456696D1*
X2524398Y3450785D1*
X2519413Y3445390D1*
X2513862Y3440579D1*
X2507815Y3436409D1*
X2501345Y3432932D1*
X2494531Y3430189D1*
X2487456Y3428215D1*
X2480207Y3427033D1*
X2472871Y3426658D1*
X2465538Y3427095D1*
X2458299Y3428337D1*
X2451241Y3430371D1*
X2444450Y3433170D1*
X2438009Y3436702D1*
X2431997Y3440922D1*
X2426488Y3445780D1*
X2421548Y3451216D1*
X2417237Y3457164D1*
X2413609Y3463550D1*
X2410707Y3470298D1*
X2408568Y3477325D1*
X2407217Y3484545D1*
X2406670Y3491870D1*
X2406934Y3499211D1*
X2408007Y3506477D1*
X2409874Y3513581D1*
X2412514Y3520436D1*
X2415894Y3526957D1*
X2419972Y3533067D1*
X2424700Y3538689D1*
X2430018Y3543755D1*
X2435863Y3548203D1*
X2442163Y3551980D1*
X2448841Y3555039D1*
X2455816Y3557343D1*
X2463002Y3558863D1*
X2470312Y3559581D1*
X2477657Y3559489D1*
X2484947Y3558587D1*
X2492093Y3556886D1*
X2499007Y3554408D1*
X2505606Y3551182D1*
X2511809Y3547248D1*
X2517541Y3542654D1*
X2522730Y3537455D1*
X2527314Y3531716D1*
X2531238Y3525506D1*
X2534452Y3518902D1*
X2536919Y3511983D1*
X2538607Y3504834D1*
X2539496Y3497543D1*
X2539616Y3491313D1*
X2689437Y3487933D2*
X2687805Y3477627D1*
X2684580Y3467704D1*
X2679843Y3458408D1*
X2673711Y3449966D1*
X2666333Y3442589D1*
X2657892Y3436456D1*
X2648595Y3431719D1*
X2638672Y3428495D1*
X2628367Y3426862D1*
X2617933D1*
X2607627Y3428495D1*
X2597704Y3431719D1*
X2588408Y3436456D1*
X2579966Y3442589D1*
X2572589Y3449966D1*
X2566456Y3458408D1*
X2561719Y3467704D1*
X2558495Y3477627D1*
X2556862Y3487933D1*
Y3498367D1*
X2558495Y3508672D1*
X2561719Y3518595D1*
X2566456Y3527892D1*
X2572589Y3536333D1*
X2579966Y3543711D1*
X2588408Y3549843D1*
X2597704Y3554580D1*
X2607627Y3557805D1*
X2617933Y3559437D1*
X2628367D1*
X2638672Y3557805D1*
X2648595Y3554580D1*
X2657892Y3549843D1*
X2666333Y3543711D1*
X2673711Y3536333D1*
X2679843Y3527892D1*
X2684580Y3518595D1*
X2687805Y3508672D1*
X2689437Y3498367D1*
Y3487933D1*
X3027116Y3491313D2*
X3026508Y3483992D1*
X3025096Y3476784D1*
X3022898Y3469775D1*
X3019940Y3463052D1*
X3016258Y3456696D1*
X3011898Y3450785D1*
X3006913Y3445390D1*
X3001362Y3440579D1*
X2995315Y3436409D1*
X2988845Y3432932D1*
X2982031Y3430189D1*
X2974956Y3428215D1*
X2967707Y3427033D1*
X2960371Y3426658D1*
X2953038Y3427095D1*
X2945799Y3428337D1*
X2938741Y3430371D1*
X2931950Y3433170D1*
X2925509Y3436702D1*
X2919497Y3440922D1*
X2913988Y3445780D1*
X2909048Y3451216D1*
X2904737Y3457164D1*
X2901109Y3463550D1*
X2898207Y3470298D1*
X2896068Y3477325D1*
X2894717Y3484545D1*
X2894170Y3491870D1*
X2894434Y3499211D1*
X2895507Y3506477D1*
X2897374Y3513581D1*
X2900014Y3520436D1*
X2903394Y3526957D1*
X2907472Y3533067D1*
X2912200Y3538689D1*
X2917518Y3543755D1*
X2923363Y3548203D1*
X2929663Y3551980D1*
X2936341Y3555039D1*
X2943316Y3557343D1*
X2950502Y3558863D1*
X2957812Y3559581D1*
X2965157Y3559489D1*
X2972447Y3558587D1*
X2979593Y3556886D1*
X2986507Y3554408D1*
X2993106Y3551182D1*
X2999309Y3547248D1*
X3005041Y3542654D1*
X3010230Y3537455D1*
X3014814Y3531716D1*
X3018738Y3525506D1*
X3021952Y3518902D1*
X3024419Y3511983D1*
X3026107Y3504834D1*
X3026996Y3497543D1*
X3027116Y3491313D1*
X3176937Y3487933D2*
X3175305Y3477627D1*
X3172080Y3467704D1*
X3167343Y3458408D1*
X3161211Y3449966D1*
X3153833Y3442589D1*
X3145392Y3436456D1*
X3136095Y3431719D1*
X3126172Y3428495D1*
X3115867Y3426862D1*
X3105433D1*
X3095127Y3428495D1*
X3085204Y3431719D1*
X3075908Y3436456D1*
X3067466Y3442589D1*
X3060089Y3449966D1*
X3053956Y3458408D1*
X3049219Y3467704D1*
X3045995Y3477627D1*
X3044362Y3487933D1*
Y3498367D1*
X3045995Y3508672D1*
X3049219Y3518595D1*
X3053956Y3527892D1*
X3060089Y3536333D1*
X3067466Y3543711D1*
X3075908Y3549843D1*
X3085204Y3554580D1*
X3095127Y3557805D1*
X3105433Y3559437D1*
X3115867D1*
X3126172Y3557805D1*
X3136095Y3554580D1*
X3145392Y3549843D1*
X3153833Y3543711D1*
X3161211Y3536333D1*
X3167343Y3527892D1*
X3172080Y3518595D1*
X3175305Y3508672D1*
X3176937Y3498367D1*
Y3487933D1*
X3514616Y3491313D2*
X3514008Y3483992D1*
X3512596Y3476784D1*
X3510398Y3469775D1*
X3507440Y3463052D1*
X3503758Y3456696D1*
X3499398Y3450785D1*
X3494413Y3445390D1*
X3488862Y3440579D1*
X3482815Y3436409D1*
X3476345Y3432932D1*
X3469531Y3430189D1*
X3462456Y3428215D1*
X3455207Y3427033D1*
X3447871Y3426658D1*
X3440538Y3427095D1*
X3433299Y3428337D1*
X3426241Y3430371D1*
X3419450Y3433170D1*
X3413009Y3436702D1*
X3406997Y3440922D1*
X3401488Y3445780D1*
X3396548Y3451216D1*
X3392237Y3457164D1*
X3388609Y3463550D1*
X3385707Y3470298D1*
X3383568Y3477325D1*
X3382217Y3484545D1*
X3381670Y3491870D1*
X3381934Y3499211D1*
X3383007Y3506477D1*
X3384874Y3513581D1*
X3387514Y3520436D1*
X3390894Y3526957D1*
X3394972Y3533067D1*
X3399700Y3538689D1*
X3405018Y3543755D1*
X3410863Y3548203D1*
X3417163Y3551980D1*
X3423841Y3555039D1*
X3430816Y3557343D1*
X3438002Y3558863D1*
X3445312Y3559581D1*
X3452657Y3559489D1*
X3459947Y3558587D1*
X3467093Y3556886D1*
X3474007Y3554408D1*
X3480606Y3551182D1*
X3486809Y3547248D1*
X3492541Y3542654D1*
X3497730Y3537455D1*
X3502314Y3531716D1*
X3506238Y3525506D1*
X3509452Y3518902D1*
X3511919Y3511983D1*
X3513607Y3504834D1*
X3514496Y3497543D1*
X3514616Y3491313D1*
X3664437Y3487933D2*
X3662805Y3477627D1*
X3659580Y3467704D1*
X3654843Y3458408D1*
X3648711Y3449966D1*
X3641333Y3442589D1*
X3632892Y3436456D1*
X3623595Y3431719D1*
X3613672Y3428495D1*
X3603367Y3426862D1*
X3592933D1*
X3582627Y3428495D1*
X3572704Y3431719D1*
X3563408Y3436456D1*
X3554966Y3442589D1*
X3547589Y3449966D1*
X3541456Y3458408D1*
X3536719Y3467704D1*
X3533495Y3477627D1*
X3531862Y3487933D1*
Y3498367D1*
X3533495Y3508672D1*
X3536719Y3518595D1*
X3541456Y3527892D1*
X3547589Y3536333D1*
X3554966Y3543711D1*
X3563408Y3549843D1*
X3572704Y3554580D1*
X3582627Y3557805D1*
X3592933Y3559437D1*
X3603367D1*
X3613672Y3557805D1*
X3623595Y3554580D1*
X3632892Y3549843D1*
X3641333Y3543711D1*
X3648711Y3536333D1*
X3654843Y3527892D1*
X3659580Y3518595D1*
X3662805Y3508672D1*
X3664437Y3498367D1*
Y3487933D1*
X4002116Y3491313D2*
X4001508Y3483992D1*
X4000096Y3476784D1*
X3997898Y3469775D1*
X3994940Y3463052D1*
X3991258Y3456696D1*
X3986898Y3450785D1*
X3981913Y3445390D1*
X3976362Y3440579D1*
X3970315Y3436409D1*
X3963845Y3432932D1*
X3957031Y3430189D1*
X3949956Y3428215D1*
X3942707Y3427033D1*
X3935371Y3426658D1*
X3928038Y3427095D1*
X3920799Y3428337D1*
X3913741Y3430371D1*
X3906950Y3433170D1*
X3900509Y3436702D1*
X3894497Y3440922D1*
X3888988Y3445780D1*
X3884048Y3451216D1*
X3879737Y3457164D1*
X3876109Y3463550D1*
X3873207Y3470298D1*
X3871068Y3477325D1*
X3869717Y3484545D1*
X3869170Y3491870D1*
X3869434Y3499211D1*
X3870507Y3506477D1*
X3872374Y3513581D1*
X3875014Y3520436D1*
X3878394Y3526957D1*
X3882472Y3533067D1*
X3887200Y3538689D1*
X3892518Y3543755D1*
X3898363Y3548203D1*
X3904663Y3551980D1*
X3911341Y3555039D1*
X3918316Y3557343D1*
X3925502Y3558863D1*
X3932812Y3559581D1*
X3940157Y3559489D1*
X3947447Y3558587D1*
X3954593Y3556886D1*
X3961507Y3554408D1*
X3968106Y3551182D1*
X3974309Y3547248D1*
X3980041Y3542654D1*
X3985230Y3537455D1*
X3989814Y3531716D1*
X3993738Y3525506D1*
X3996952Y3518902D1*
X3999419Y3511983D1*
X4001107Y3504834D1*
X4001996Y3497543D1*
X4002116Y3491313D1*
X4151937Y3487933D2*
X4150305Y3477627D1*
X4147080Y3467704D1*
X4142343Y3458408D1*
X4136211Y3449966D1*
X4128833Y3442589D1*
X4120392Y3436456D1*
X4111095Y3431719D1*
X4101172Y3428495D1*
X4090867Y3426862D1*
X4080433D1*
X4070127Y3428495D1*
X4060204Y3431719D1*
X4050908Y3436456D1*
X4042466Y3442589D1*
X4035089Y3449966D1*
X4028956Y3458408D1*
X4024219Y3467704D1*
X4020995Y3477627D1*
X4019362Y3487933D1*
Y3498367D1*
X4020995Y3508672D1*
X4024219Y3518595D1*
X4028956Y3527892D1*
X4035089Y3536333D1*
X4042466Y3543711D1*
X4050908Y3549843D1*
X4060204Y3554580D1*
X4070127Y3557805D1*
X4080433Y3559437D1*
X4090867D1*
X4101172Y3557805D1*
X4111095Y3554580D1*
X4120392Y3549843D1*
X4128833Y3543711D1*
X4136211Y3536333D1*
X4142343Y3527892D1*
X4147080Y3518595D1*
X4150305Y3508672D1*
X4151937Y3498367D1*
Y3487933D1*
X4489616Y3491313D2*
X4489008Y3483992D1*
X4487596Y3476784D1*
X4485398Y3469775D1*
X4482440Y3463052D1*
X4478758Y3456696D1*
X4474398Y3450785D1*
X4469413Y3445390D1*
X4463862Y3440579D1*
X4457815Y3436409D1*
X4451345Y3432932D1*
X4444531Y3430189D1*
X4437456Y3428215D1*
X4430207Y3427033D1*
X4422871Y3426658D1*
X4415538Y3427095D1*
X4408299Y3428337D1*
X4401241Y3430371D1*
X4394450Y3433170D1*
X4388009Y3436702D1*
X4381997Y3440922D1*
X4376488Y3445780D1*
X4371548Y3451216D1*
X4367237Y3457164D1*
X4363609Y3463550D1*
X4360707Y3470298D1*
X4358568Y3477325D1*
X4357217Y3484545D1*
X4356670Y3491870D1*
X4356934Y3499211D1*
X4358007Y3506477D1*
X4359874Y3513581D1*
X4362514Y3520436D1*
X4365894Y3526957D1*
X4369972Y3533067D1*
X4374700Y3538689D1*
X4380018Y3543755D1*
X4385863Y3548203D1*
X4392163Y3551980D1*
X4398841Y3555039D1*
X4405816Y3557343D1*
X4413002Y3558863D1*
X4420312Y3559581D1*
X4427657Y3559489D1*
X4434947Y3558587D1*
X4442093Y3556886D1*
X4449007Y3554408D1*
X4455606Y3551182D1*
X4461809Y3547248D1*
X4467541Y3542654D1*
X4472730Y3537455D1*
X4477314Y3531716D1*
X4481238Y3525506D1*
X4484452Y3518902D1*
X4486919Y3511983D1*
X4488607Y3504834D1*
X4489496Y3497543D1*
X4489616Y3491313D1*
X4639437Y3487933D2*
X4637805Y3477627D1*
X4634580Y3467704D1*
X4629843Y3458408D1*
X4623711Y3449966D1*
X4616333Y3442589D1*
X4607892Y3436456D1*
X4598595Y3431719D1*
X4588672Y3428495D1*
X4578367Y3426862D1*
X4567933D1*
X4557627Y3428495D1*
X4547704Y3431719D1*
X4538408Y3436456D1*
X4529966Y3442589D1*
X4522589Y3449966D1*
X4516456Y3458408D1*
X4511719Y3467704D1*
X4508495Y3477627D1*
X4506862Y3487933D1*
Y3498367D1*
X4508495Y3508672D1*
X4511719Y3518595D1*
X4516456Y3527892D1*
X4522589Y3536333D1*
X4529966Y3543711D1*
X4538408Y3549843D1*
X4547704Y3554580D1*
X4557627Y3557805D1*
X4567933Y3559437D1*
X4578367D1*
X4588672Y3557805D1*
X4598595Y3554580D1*
X4607892Y3549843D1*
X4616333Y3543711D1*
X4623711Y3536333D1*
X4629843Y3527892D1*
X4634580Y3518595D1*
X4637805Y3508672D1*
X4639437Y3498367D1*
Y3487933D1*
X1227097Y679659D2*
X1226488Y672339D1*
X1225077Y665131D1*
X1222878Y658122D1*
X1219920Y651398D1*
X1216239Y645042D1*
X1211878Y639131D1*
X1206893Y633737D1*
X1201343Y628925D1*
X1195296Y624756D1*
X1188826Y621278D1*
X1182012Y618536D1*
X1174937Y616561D1*
X1167687Y615379D1*
X1160351Y615005D1*
X1153019Y615441D1*
X1145779Y616684D1*
X1138721Y618717D1*
X1131930Y621517D1*
X1125489Y625048D1*
X1119478Y629269D1*
X1113968Y634127D1*
X1109028Y639562D1*
X1104717Y645510D1*
X1101089Y651897D1*
X1098188Y658645D1*
X1096048Y665672D1*
X1094697Y672892D1*
X1094150Y680217D1*
X1094415Y687557D1*
X1095487Y694824D1*
X1097355Y701928D1*
X1099994Y708782D1*
X1103374Y715304D1*
X1107452Y721413D1*
X1112180Y727035D1*
X1117498Y732101D1*
X1123343Y736550D1*
X1129643Y740327D1*
X1136321Y743386D1*
X1143296Y745689D1*
X1150483Y747209D1*
X1157793Y747928D1*
X1165137Y747835D1*
X1172427Y746933D1*
X1179573Y745233D1*
X1186488Y742754D1*
X1193087Y739528D1*
X1199290Y735594D1*
X1205021Y731000D1*
X1210210Y725802D1*
X1214795Y720063D1*
X1218718Y713853D1*
X1221933Y707248D1*
X1224399Y700329D1*
X1226087Y693181D1*
X1226977Y685889D1*
X1227097Y679659D1*
X1076917Y676279D2*
X1075285Y665974D1*
X1072061Y656051D1*
X1067324Y646754D1*
X1061191Y638313D1*
X1053813Y630935D1*
X1045372Y624802D1*
X1036075Y620065D1*
X1026152Y616841D1*
X1015847Y615209D1*
X1005413D1*
X995108Y616841D1*
X985184Y620065D1*
X975888Y624802D1*
X967447Y630935D1*
X960069Y638313D1*
X953936Y646754D1*
X949199Y656051D1*
X945975Y665974D1*
X944343Y676279D1*
Y686713D1*
X945975Y697018D1*
X949199Y706941D1*
X953936Y716238D1*
X960069Y724679D1*
X967447Y732057D1*
X975888Y738190D1*
X985184Y742927D1*
X995108Y746151D1*
X1005413Y747783D1*
X1015847D1*
X1026152Y746151D1*
X1036075Y742927D1*
X1045372Y738190D1*
X1053813Y732057D1*
X1061191Y724679D1*
X1067324Y716238D1*
X1072061Y706941D1*
X1075285Y697018D1*
X1076917Y686713D1*
Y676279D1*
X1714616Y679659D2*
X1714008Y672339D1*
X1712596Y665131D1*
X1710398Y658122D1*
X1707440Y651398D1*
X1703758Y645042D1*
X1699398Y639131D1*
X1694413Y633737D1*
X1688862Y628925D1*
X1682815Y624756D1*
X1676345Y621278D1*
X1669531Y618536D1*
X1662456Y616561D1*
X1655207Y615379D1*
X1647871Y615005D1*
X1640538Y615441D1*
X1633299Y616684D1*
X1626241Y618717D1*
X1619450Y621517D1*
X1613009Y625048D1*
X1606997Y629269D1*
X1601488Y634127D1*
X1596548Y639562D1*
X1592237Y645510D1*
X1588609Y651897D1*
X1585707Y658645D1*
X1583568Y665672D1*
X1582217Y672892D1*
X1581670Y680217D1*
X1581934Y687557D1*
X1583007Y694824D1*
X1584874Y701928D1*
X1587514Y708782D1*
X1590894Y715304D1*
X1594972Y721413D1*
X1599700Y727035D1*
X1605018Y732101D1*
X1610863Y736550D1*
X1617163Y740327D1*
X1623841Y743386D1*
X1630816Y745689D1*
X1638002Y747209D1*
X1645312Y747928D1*
X1652657Y747835D1*
X1659947Y746933D1*
X1667093Y745233D1*
X1674007Y742754D1*
X1680606Y739528D1*
X1686809Y735594D1*
X1692541Y731000D1*
X1697730Y725802D1*
X1702314Y720063D1*
X1706238Y713853D1*
X1709452Y707248D1*
X1711919Y700329D1*
X1713607Y693181D1*
X1714496Y685889D1*
X1714616Y679659D1*
X1564437Y676279D2*
X1562805Y665974D1*
X1559580Y656051D1*
X1554843Y646754D1*
X1548711Y638313D1*
X1541333Y630935D1*
X1532892Y624802D1*
X1523595Y620065D1*
X1513672Y616841D1*
X1503367Y615209D1*
X1492933D1*
X1482627Y616841D1*
X1472704Y620065D1*
X1463408Y624802D1*
X1454966Y630935D1*
X1447589Y638313D1*
X1441456Y646754D1*
X1436719Y656051D1*
X1433495Y665974D1*
X1431862Y676279D1*
Y686713D1*
X1433495Y697018D1*
X1436719Y706941D1*
X1441456Y716238D1*
X1447589Y724679D1*
X1454966Y732057D1*
X1463408Y738190D1*
X1472704Y742927D1*
X1482627Y746151D1*
X1492933Y747783D1*
X1503367D1*
X1513672Y746151D1*
X1523595Y742927D1*
X1532892Y738190D1*
X1541333Y732057D1*
X1548711Y724679D1*
X1554843Y716238D1*
X1559580Y706941D1*
X1562805Y697018D1*
X1564437Y686713D1*
Y676279D1*
X2204223Y679659D2*
X2203614Y672339D1*
X2202203Y665131D1*
X2200004Y658122D1*
X2197046Y651398D1*
X2193365Y645042D1*
X2189004Y639131D1*
X2184019Y633737D1*
X2178469Y628925D1*
X2172422Y624756D1*
X2165952Y621278D1*
X2159138Y618536D1*
X2152062Y616561D1*
X2144813Y615379D1*
X2137477Y615005D1*
X2130145Y615441D1*
X2122905Y616684D1*
X2115847Y618717D1*
X2109056Y621517D1*
X2102615Y625048D1*
X2096604Y629269D1*
X2091094Y634127D1*
X2086154Y639562D1*
X2081843Y645510D1*
X2078215Y651897D1*
X2075314Y658645D1*
X2073174Y665672D1*
X2071823Y672892D1*
X2071276Y680217D1*
X2071541Y687557D1*
X2072613Y694824D1*
X2074481Y701928D1*
X2077120Y708782D1*
X2080500Y715304D1*
X2084578Y721413D1*
X2089306Y727035D1*
X2094624Y732101D1*
X2100469Y736550D1*
X2106769Y740327D1*
X2113447Y743386D1*
X2120422Y745689D1*
X2127609Y747209D1*
X2134919Y747928D1*
X2142263Y747835D1*
X2149553Y746933D1*
X2156699Y745233D1*
X2163614Y742754D1*
X2170213Y739528D1*
X2176416Y735594D1*
X2182147Y731000D1*
X2187336Y725802D1*
X2191921Y720063D1*
X2195844Y713853D1*
X2199059Y707248D1*
X2201525Y700329D1*
X2203213Y693181D1*
X2204103Y685889D1*
X2204223Y679659D1*
X2054043Y676279D2*
X2052411Y665974D1*
X2049187Y656051D1*
X2044450Y646754D1*
X2038317Y638313D1*
X2030939Y630935D1*
X2022498Y624802D1*
X2013201Y620065D1*
X2003278Y616841D1*
X1992973Y615209D1*
X1982539D1*
X1972234Y616841D1*
X1962310Y620065D1*
X1953014Y624802D1*
X1944573Y630935D1*
X1937195Y638313D1*
X1931062Y646754D1*
X1926325Y656051D1*
X1923101Y665974D1*
X1921469Y676279D1*
Y686713D1*
X1923101Y697018D1*
X1926325Y706941D1*
X1931062Y716238D1*
X1937195Y724679D1*
X1944573Y732057D1*
X1953014Y738190D1*
X1962310Y742927D1*
X1972234Y746151D1*
X1982539Y747783D1*
X1992973D1*
X2003278Y746151D1*
X2013201Y742927D1*
X2022498Y738190D1*
X2030939Y732057D1*
X2038317Y724679D1*
X2044450Y716238D1*
X2049187Y706941D1*
X2052411Y697018D1*
X2054043Y686713D1*
Y676279D1*
X2689616Y679659D2*
X2689008Y672339D1*
X2687596Y665131D1*
X2685398Y658122D1*
X2682440Y651398D1*
X2678758Y645042D1*
X2674398Y639131D1*
X2669413Y633737D1*
X2663862Y628925D1*
X2657815Y624756D1*
X2651345Y621278D1*
X2644531Y618536D1*
X2637456Y616561D1*
X2630207Y615379D1*
X2622871Y615005D1*
X2615538Y615441D1*
X2608299Y616684D1*
X2601241Y618717D1*
X2594450Y621517D1*
X2588009Y625048D1*
X2581997Y629269D1*
X2576488Y634127D1*
X2571548Y639562D1*
X2567237Y645510D1*
X2563609Y651897D1*
X2560707Y658645D1*
X2558568Y665672D1*
X2557217Y672892D1*
X2556670Y680217D1*
X2556934Y687557D1*
X2558007Y694824D1*
X2559874Y701928D1*
X2562514Y708782D1*
X2565894Y715304D1*
X2569972Y721413D1*
X2574700Y727035D1*
X2580018Y732101D1*
X2585863Y736550D1*
X2592163Y740327D1*
X2598841Y743386D1*
X2605816Y745689D1*
X2613002Y747209D1*
X2620312Y747928D1*
X2627657Y747835D1*
X2634947Y746933D1*
X2642093Y745233D1*
X2649007Y742754D1*
X2655606Y739528D1*
X2661809Y735594D1*
X2667541Y731000D1*
X2672730Y725802D1*
X2677314Y720063D1*
X2681238Y713853D1*
X2684452Y707248D1*
X2686919Y700329D1*
X2688607Y693181D1*
X2689496Y685889D1*
X2689616Y679659D1*
X2539437Y676279D2*
X2537805Y665974D1*
X2534580Y656051D1*
X2529843Y646754D1*
X2523711Y638313D1*
X2516333Y630935D1*
X2507892Y624802D1*
X2498595Y620065D1*
X2488672Y616841D1*
X2478367Y615209D1*
X2467933D1*
X2457627Y616841D1*
X2447704Y620065D1*
X2438408Y624802D1*
X2429966Y630935D1*
X2422589Y638313D1*
X2416456Y646754D1*
X2411719Y656051D1*
X2408495Y665974D1*
X2406862Y676279D1*
Y686713D1*
X2408495Y697018D1*
X2411719Y706941D1*
X2416456Y716238D1*
X2422589Y724679D1*
X2429966Y732057D1*
X2438408Y738190D1*
X2447704Y742927D1*
X2457627Y746151D1*
X2467933Y747783D1*
X2478367D1*
X2488672Y746151D1*
X2498595Y742927D1*
X2507892Y738190D1*
X2516333Y732057D1*
X2523711Y724679D1*
X2529843Y716238D1*
X2534580Y706941D1*
X2537805Y697018D1*
X2539437Y686713D1*
Y676279D1*
X3177097Y679659D2*
X3176488Y672339D1*
X3175077Y665131D1*
X3172878Y658122D1*
X3169920Y651398D1*
X3166239Y645042D1*
X3161878Y639131D1*
X3156893Y633737D1*
X3151343Y628925D1*
X3145296Y624756D1*
X3138826Y621278D1*
X3132012Y618536D1*
X3124937Y616561D1*
X3117687Y615379D1*
X3110351Y615005D1*
X3103019Y615441D1*
X3095779Y616684D1*
X3088721Y618717D1*
X3081930Y621517D1*
X3075489Y625048D1*
X3069478Y629269D1*
X3063968Y634127D1*
X3059028Y639562D1*
X3054717Y645510D1*
X3051089Y651897D1*
X3048188Y658645D1*
X3046048Y665672D1*
X3044697Y672892D1*
X3044150Y680217D1*
X3044415Y687557D1*
X3045487Y694824D1*
X3047355Y701928D1*
X3049994Y708782D1*
X3053374Y715304D1*
X3057452Y721413D1*
X3062180Y727035D1*
X3067498Y732101D1*
X3073343Y736550D1*
X3079643Y740327D1*
X3086321Y743386D1*
X3093296Y745689D1*
X3100483Y747209D1*
X3107793Y747928D1*
X3115137Y747835D1*
X3122427Y746933D1*
X3129573Y745233D1*
X3136488Y742754D1*
X3143087Y739528D1*
X3149290Y735594D1*
X3155021Y731000D1*
X3160210Y725802D1*
X3164795Y720063D1*
X3168718Y713853D1*
X3171933Y707248D1*
X3174399Y700329D1*
X3176087Y693181D1*
X3176977Y685889D1*
X3177097Y679659D1*
X3026917Y676279D2*
X3025285Y665974D1*
X3022061Y656051D1*
X3017324Y646754D1*
X3011191Y638313D1*
X3003813Y630935D1*
X2995372Y624802D1*
X2986075Y620065D1*
X2976152Y616841D1*
X2965847Y615209D1*
X2955413D1*
X2945108Y616841D1*
X2935184Y620065D1*
X2925888Y624802D1*
X2917447Y630935D1*
X2910069Y638313D1*
X2903936Y646754D1*
X2899199Y656051D1*
X2895975Y665974D1*
X2894343Y676279D1*
Y686713D1*
X2895975Y697018D1*
X2899199Y706941D1*
X2903936Y716238D1*
X2910069Y724679D1*
X2917447Y732057D1*
X2925888Y738190D1*
X2935184Y742927D1*
X2945108Y746151D1*
X2955413Y747783D1*
X2965847D1*
X2976152Y746151D1*
X2986075Y742927D1*
X2995372Y738190D1*
X3003813Y732057D1*
X3011191Y724679D1*
X3017324Y716238D1*
X3022061Y706941D1*
X3025285Y697018D1*
X3026917Y686713D1*
Y676279D1*
X3664616Y679659D2*
X3664008Y672339D1*
X3662596Y665131D1*
X3660398Y658122D1*
X3657440Y651398D1*
X3653758Y645042D1*
X3649398Y639131D1*
X3644413Y633737D1*
X3638862Y628925D1*
X3632815Y624756D1*
X3626345Y621278D1*
X3619531Y618536D1*
X3612456Y616561D1*
X3605207Y615379D1*
X3597871Y615005D1*
X3590538Y615441D1*
X3583299Y616684D1*
X3576241Y618717D1*
X3569450Y621517D1*
X3563009Y625048D1*
X3556997Y629269D1*
X3551488Y634127D1*
X3546548Y639562D1*
X3542237Y645510D1*
X3538609Y651897D1*
X3535707Y658645D1*
X3533568Y665672D1*
X3532217Y672892D1*
X3531670Y680217D1*
X3531934Y687557D1*
X3533007Y694824D1*
X3534874Y701928D1*
X3537514Y708782D1*
X3540894Y715304D1*
X3544972Y721413D1*
X3549700Y727035D1*
X3555018Y732101D1*
X3560863Y736550D1*
X3567163Y740327D1*
X3573841Y743386D1*
X3580816Y745689D1*
X3588002Y747209D1*
X3595312Y747928D1*
X3602657Y747835D1*
X3609947Y746933D1*
X3617093Y745233D1*
X3624007Y742754D1*
X3630606Y739528D1*
X3636809Y735594D1*
X3642541Y731000D1*
X3647730Y725802D1*
X3652314Y720063D1*
X3656238Y713853D1*
X3659452Y707248D1*
X3661919Y700329D1*
X3663607Y693181D1*
X3664496Y685889D1*
X3664616Y679659D1*
X3514437Y676279D2*
X3512805Y665974D1*
X3509580Y656051D1*
X3504843Y646754D1*
X3498711Y638313D1*
X3491333Y630935D1*
X3482892Y624802D1*
X3473595Y620065D1*
X3463672Y616841D1*
X3453367Y615209D1*
X3442933D1*
X3432627Y616841D1*
X3422704Y620065D1*
X3413408Y624802D1*
X3404966Y630935D1*
X3397589Y638313D1*
X3391456Y646754D1*
X3386719Y656051D1*
X3383495Y665974D1*
X3381862Y676279D1*
Y686713D1*
X3383495Y697018D1*
X3386719Y706941D1*
X3391456Y716238D1*
X3397589Y724679D1*
X3404966Y732057D1*
X3413408Y738190D1*
X3422704Y742927D1*
X3432627Y746151D1*
X3442933Y747783D1*
X3453367D1*
X3463672Y746151D1*
X3473595Y742927D1*
X3482892Y738190D1*
X3491333Y732057D1*
X3498711Y724679D1*
X3504843Y716238D1*
X3509580Y706941D1*
X3512805Y697018D1*
X3514437Y686713D1*
Y676279D1*
X4152097Y679659D2*
X4151488Y672339D1*
X4150077Y665131D1*
X4147878Y658122D1*
X4144920Y651398D1*
X4141239Y645042D1*
X4136878Y639131D1*
X4131893Y633737D1*
X4126343Y628925D1*
X4120296Y624756D1*
X4113826Y621278D1*
X4107012Y618536D1*
X4099937Y616561D1*
X4092687Y615379D1*
X4085351Y615005D1*
X4078019Y615441D1*
X4070779Y616684D1*
X4063721Y618717D1*
X4056930Y621517D1*
X4050489Y625048D1*
X4044478Y629269D1*
X4038968Y634127D1*
X4034028Y639562D1*
X4029717Y645510D1*
X4026089Y651897D1*
X4023188Y658645D1*
X4021048Y665672D1*
X4019697Y672892D1*
X4019150Y680217D1*
X4019415Y687557D1*
X4020487Y694824D1*
X4022355Y701928D1*
X4024994Y708782D1*
X4028374Y715304D1*
X4032452Y721413D1*
X4037180Y727035D1*
X4042498Y732101D1*
X4048343Y736550D1*
X4054643Y740327D1*
X4061321Y743386D1*
X4068296Y745689D1*
X4075483Y747209D1*
X4082793Y747928D1*
X4090137Y747835D1*
X4097427Y746933D1*
X4104573Y745233D1*
X4111488Y742754D1*
X4118087Y739528D1*
X4124290Y735594D1*
X4130021Y731000D1*
X4135210Y725802D1*
X4139795Y720063D1*
X4143718Y713853D1*
X4146933Y707248D1*
X4149399Y700329D1*
X4151087Y693181D1*
X4151977Y685889D1*
X4152097Y679659D1*
X4001917Y676279D2*
X4000285Y665974D1*
X3997061Y656051D1*
X3992324Y646754D1*
X3986191Y638313D1*
X3978813Y630935D1*
X3970372Y624802D1*
X3961075Y620065D1*
X3951152Y616841D1*
X3940847Y615209D1*
X3930413D1*
X3920108Y616841D1*
X3910184Y620065D1*
X3900888Y624802D1*
X3892447Y630935D1*
X3885069Y638313D1*
X3878936Y646754D1*
X3874199Y656051D1*
X3870975Y665974D1*
X3869343Y676279D1*
Y686713D1*
X3870975Y697018D1*
X3874199Y706941D1*
X3878936Y716238D1*
X3885069Y724679D1*
X3892447Y732057D1*
X3900888Y738190D1*
X3910184Y742927D1*
X3920108Y746151D1*
X3930413Y747783D1*
X3940847D1*
X3951152Y746151D1*
X3961075Y742927D1*
X3970372Y738190D1*
X3978813Y732057D1*
X3986191Y724679D1*
X3992324Y716238D1*
X3997061Y706941D1*
X4000285Y697018D1*
X4001917Y686713D1*
Y676279D1*
X4639616Y679659D2*
X4639008Y672339D1*
X4637596Y665131D1*
X4635398Y658122D1*
X4632440Y651398D1*
X4628758Y645042D1*
X4624398Y639131D1*
X4619413Y633737D1*
X4613862Y628925D1*
X4607815Y624756D1*
X4601345Y621278D1*
X4594531Y618536D1*
X4587456Y616561D1*
X4580207Y615379D1*
X4572871Y615005D1*
X4565538Y615441D1*
X4558299Y616684D1*
X4551241Y618717D1*
X4544450Y621517D1*
X4538009Y625048D1*
X4531997Y629269D1*
X4526488Y634127D1*
X4521548Y639562D1*
X4517237Y645510D1*
X4513609Y651897D1*
X4510707Y658645D1*
X4508568Y665672D1*
X4507217Y672892D1*
X4506670Y680217D1*
X4506934Y687557D1*
X4508007Y694824D1*
X4509874Y701928D1*
X4512514Y708782D1*
X4515894Y715304D1*
X4519972Y721413D1*
X4524700Y727035D1*
X4530018Y732101D1*
X4535863Y736550D1*
X4542163Y740327D1*
X4548841Y743386D1*
X4555816Y745689D1*
X4563002Y747209D1*
X4570312Y747928D1*
X4577657Y747835D1*
X4584947Y746933D1*
X4592093Y745233D1*
X4599007Y742754D1*
X4605606Y739528D1*
X4611809Y735594D1*
X4617541Y731000D1*
X4622730Y725802D1*
X4627314Y720063D1*
X4631238Y713853D1*
X4634452Y707248D1*
X4636919Y700329D1*
X4638607Y693181D1*
X4639496Y685889D1*
X4639616Y679659D1*
X4489437Y676279D2*
X4487805Y665974D1*
X4484580Y656051D1*
X4479843Y646754D1*
X4473711Y638313D1*
X4466333Y630935D1*
X4457892Y624802D1*
X4448595Y620065D1*
X4438672Y616841D1*
X4428367Y615209D1*
X4417933D1*
X4407627Y616841D1*
X4397704Y620065D1*
X4388408Y624802D1*
X4379966Y630935D1*
X4372589Y638313D1*
X4366456Y646754D1*
X4361719Y656051D1*
X4358495Y665974D1*
X4356862Y676279D1*
Y686713D1*
X4358495Y697018D1*
X4361719Y706941D1*
X4366456Y716238D1*
X4372589Y724679D1*
X4379966Y732057D1*
X4388408Y738190D1*
X4397704Y742927D1*
X4407627Y746151D1*
X4417933Y747783D1*
X4428367D1*
X4438672Y746151D1*
X4448595Y742927D1*
X4457892Y738190D1*
X4466333Y732057D1*
X4473711Y724679D1*
X4479843Y716238D1*
X4484580Y706941D1*
X4487805Y697018D1*
X4489437Y686713D1*
Y676279D1*
X1760681Y2591935D2*
X1753283Y2588173D1*
X1745216Y2585552D1*
X1736839Y2584226D1*
X1728358D1*
X1719980Y2585552D1*
X1711914Y2588173D1*
X1704357Y2592024D1*
X1697495Y2597009D1*
X1691498Y2603007D1*
X1686512Y2609869D1*
X1683404Y2615815D1*
X1680259Y2609869D1*
X1675274Y2603007D1*
X1669277Y2597009D1*
X1667155Y2595336D1*
X1667162Y2513987D1*
X2110450Y2070691D1*
X2949631Y2070705D1*
X2949610Y2222412D1*
X2944056Y2218392D1*
X2937556Y2215080D1*
X2930617Y2212825D1*
X2923412Y2211684D1*
X2916116D1*
X2908910Y2212825D1*
X2901972Y2215080D1*
X2895472Y2218392D1*
X2889570Y2222680D1*
X2884411Y2227839D1*
X2880123Y2233741D1*
X2876811Y2240241D1*
X2874556Y2247179D1*
X2873415Y2254385D1*
Y2261681D1*
X2874556Y2268886D1*
X2876811Y2275825D1*
X2877366Y2277029D1*
Y2749420D1*
X2283252Y2749413D1*
X2136604Y2602997D1*
X2130742Y2598738D1*
X2124285Y2595448D1*
X2117394Y2593209D1*
X2110237Y2592075D1*
X2079055Y2591933D1*
X1760727D1*
X1683404Y2660406D2*
X1686512Y2666352D1*
X1691498Y2673214D1*
X1697495Y2679211D1*
X1699617Y2680884D1*
X1699610Y2860700D1*
X1443328Y3116949D1*
X584269Y3116933D1*
X578823Y3112308D1*
X572603Y3108496D1*
X565863Y3105705D1*
X558769Y3104002D1*
X551496Y3103429D1*
X544223Y3104002D1*
X537129Y3105705D1*
X530389Y3108496D1*
X524169Y3112308D1*
X518621Y3117046D1*
X513883Y3122594D1*
X510071Y3128814D1*
X507279Y3135554D1*
X505576Y3142648D1*
X505004Y3149921D1*
X505576Y3157194D1*
X507279Y3164288D1*
X510071Y3171028D1*
X513883Y3177249D1*
X518621Y3182796D1*
X524169Y3187534D1*
X530389Y3191346D1*
X537129Y3194138D1*
X544223Y3195841D1*
X551496Y3196413D1*
X558769Y3195841D1*
X565863Y3194138D1*
X572603Y3191346D1*
X578823Y3187534D1*
X584256Y3182903D1*
X1459596Y3182808D1*
X1464709Y3181998D1*
X1469632Y3180398D1*
X1474244Y3178048D1*
X1478432Y3175006D1*
X1525804Y3127777D1*
X1757683Y2895755D1*
X1760726Y2891567D1*
X1763076Y2886955D1*
X1764675Y2882032D1*
X1765485Y2876919D1*
X1765587Y2810026D1*
Y2684252D1*
X2087457Y2684288D1*
X2234105Y2830704D1*
X2239967Y2834963D1*
X2246423Y2838253D1*
X2253315Y2840492D1*
X2260471Y2841626D1*
X2291654Y2841768D1*
X3704725Y2841625D1*
X3711882Y2840492D1*
X3718774Y2838253D1*
X3725230Y2834963D1*
X3731092Y2830704D1*
X3753242Y2808756D1*
X4145447Y2416550D1*
X4218232Y2416728D1*
X4211491Y2419520D1*
X4205271Y2423332D1*
X4199839Y2427964D1*
X4170955Y2428058D1*
X4165842Y2428868D1*
X4160919Y2430468D1*
X4156307Y2432818D1*
X4152119Y2435860D1*
X4104747Y2483089D1*
X3681281Y2906555D1*
X3674144Y2907151D1*
X3667050Y2908854D1*
X3660310Y2911646D1*
X3654090Y2915458D1*
X3648542Y2920196D1*
X3643804Y2925743D1*
X3639993Y2931964D1*
X3637201Y2938704D1*
X3635498Y2945798D1*
X3634925Y2953071D1*
X3635498Y2960344D1*
X3637201Y2967438D1*
X3639993Y2974178D1*
X3643804Y2980398D1*
X3648542Y2985946D1*
X3654090Y2990684D1*
X3660310Y2994496D1*
X3667050Y2997288D1*
X3674144Y2998991D1*
X3681417Y2999563D1*
X3688690Y2998991D1*
X3694288Y2997709D1*
X3695265Y3003294D1*
X3697519Y3010233D1*
X3700831Y3016733D1*
X3705120Y3022635D1*
X3710278Y3027794D1*
X3716180Y3032082D1*
X3722681Y3035394D1*
X3729619Y3037648D1*
X3736825Y3038790D1*
X3744120D1*
X3751326Y3037648D1*
X3758264Y3035394D1*
X3764765Y3032082D1*
X3770667Y3027794D1*
X3775825Y3022635D1*
X3780113Y3016733D1*
X3783426Y3010233D1*
X3785680Y3003294D1*
X3786821Y2996089D1*
X3786958Y2992598D1*
X3800413Y2979153D1*
X3803545Y2983265D1*
X3808703Y2988424D1*
X3814606Y2992712D1*
X3821106Y2996024D1*
X3828044Y2998278D1*
X3835250Y2999420D1*
X3842545D1*
X3849751Y2998278D1*
X3856689Y2996024D1*
X3863190Y2992712D1*
X3869092Y2988424D1*
X3874251Y2983265D1*
X3878539Y2977363D1*
X3881851Y2970863D1*
X3884105Y2963924D1*
X3885246Y2956719D1*
X3885384Y2953228D1*
X4135933Y2702688D1*
X4143021Y2702140D1*
X4150115Y2700437D1*
X4156855Y2697645D1*
X4163075Y2693833D1*
X4168623Y2689095D1*
X4173361Y2683548D1*
X4177173Y2677327D1*
X4179965Y2670587D1*
X4181668Y2663493D1*
X4182240Y2656220D1*
X4181668Y2648948D1*
X4179965Y2641854D1*
X4177173Y2635113D1*
X4173361Y2628893D1*
X4168623Y2623346D1*
X4163075Y2618608D1*
X4161807Y2617760D1*
X4185894Y2593671D1*
X4193021Y2593085D1*
X4200115Y2591382D1*
X4206855Y2588590D1*
X4213075Y2584778D1*
X4218623Y2580040D1*
X4223361Y2574493D1*
X4227173Y2568272D1*
X4229965Y2561532D1*
X4231668Y2554438D1*
X4232240Y2547165D1*
X4231668Y2539892D1*
X4229965Y2532798D1*
X4227173Y2526058D1*
X4223361Y2519838D1*
X4218623Y2514290D1*
X4213075Y2509552D1*
X4206855Y2505741D1*
X4200115Y2502949D1*
X4193021Y2501246D1*
X4185748Y2500673D1*
X4180075Y2501056D1*
X4187229Y2493911D1*
X4199846Y2493933D1*
X4205271Y2498558D1*
X4211491Y2502370D1*
X4218232Y2505162D1*
X4225325Y2506865D1*
X4232598Y2507437D1*
X4239871Y2506865D1*
X4246965Y2505162D1*
X4253705Y2502370D1*
X4259926Y2498558D1*
X4265473Y2493820D1*
X4270211Y2488272D1*
X4274023Y2482052D1*
X4276815Y2475312D1*
X4278518Y2468218D1*
X4279091Y2460945D1*
X4278518Y2453672D1*
X4276815Y2446578D1*
X4274023Y2439838D1*
X4270211Y2433617D1*
X4265473Y2428070D1*
X4259926Y2423332D1*
X4253705Y2419520D1*
X4246403Y2416570D1*
X4461996Y2416571D1*
X4462012Y2595352D1*
X4458705Y2600039D1*
X4455393Y2606539D1*
X4453139Y2613477D1*
X4451998Y2620683D1*
Y2627978D1*
X4453139Y2635184D1*
X4455393Y2642122D1*
X4458705Y2648623D1*
X4462994Y2654525D1*
X4468152Y2659684D1*
X4474054Y2663972D1*
X4480555Y2667284D1*
X4487493Y2669538D1*
X4494699Y2670680D1*
X4501994D1*
X4509200Y2669538D1*
X4516138Y2667284D1*
X4522639Y2663972D1*
X4528541Y2659684D1*
X4533699Y2654525D1*
X4537988Y2648623D1*
X4541300Y2642122D1*
X4543554Y2635184D1*
X4544695Y2627978D1*
Y2620683D1*
X4543554Y2613477D1*
X4541300Y2606539D1*
X4537988Y2600039D1*
X4534679Y2595380D1*
X4534681Y2416597D1*
X4939686Y2416571D1*
X4939719Y2430350D1*
X5059633D1*
Y2310437D1*
X5044310D1*
X5048182Y2305635D1*
X5053098Y2297613D1*
X5056698Y2288921D1*
X5058894Y2279773D1*
X5059633Y2270394D1*
X5058894Y2261014D1*
X5056698Y2251866D1*
X5053098Y2243174D1*
X5048182Y2235152D1*
X5042072Y2227998D1*
X5034918Y2221888D1*
X5032731Y2220427D1*
X5038615Y2215985D1*
X5045267Y2209332D1*
X5050797Y2201721D1*
X5055069Y2193338D1*
X5057976Y2184390D1*
X5059448Y2175098D1*
Y2165690D1*
X5057976Y2156397D1*
X5055069Y2147449D1*
X5050797Y2139066D1*
X5045267Y2131455D1*
X5038615Y2124802D1*
X5032731Y2120427D1*
X5038615Y2115985D1*
X5045267Y2109332D1*
X5050797Y2101721D1*
X5055069Y2093338D1*
X5057976Y2084390D1*
X5059448Y2075098D1*
Y2065690D1*
X5057976Y2056397D1*
X5055069Y2047449D1*
X5050797Y2039066D1*
X5045267Y2031455D1*
X5038615Y2024802D1*
X5032731Y2020427D1*
X5038615Y2015985D1*
X5045267Y2009332D1*
X5050797Y2001721D1*
X5055069Y1993338D1*
X5057976Y1984390D1*
X5059448Y1975098D1*
Y1965690D1*
X5057976Y1956397D1*
X5055069Y1947449D1*
X5050797Y1939066D1*
X5045267Y1931455D1*
X5038615Y1924802D1*
X5032731Y1920427D1*
X5038825Y1915805D1*
X5044083Y1910678D1*
X5048675Y1904946D1*
X5052532Y1898696D1*
X5055596Y1892021D1*
X5057821Y1885021D1*
X5059173Y1877802D1*
X5059633Y1870394D1*
X5059183Y1863063D1*
X5057840Y1855842D1*
X5055624Y1848840D1*
X5052569Y1842161D1*
X5048721Y1835906D1*
X5044136Y1830168D1*
X5038884Y1825034D1*
X5033044Y1820580D1*
X5026703Y1816874D1*
X5019957Y1813971D1*
X5012906Y1811915D1*
X5005657Y1810736D1*
X4998318Y1810452D1*
X4990999Y1811068D1*
X4983811Y1812574D1*
X4976860Y1814948D1*
X4970252Y1818153D1*
X4964086Y1822143D1*
X4958453Y1826856D1*
X4953439Y1832223D1*
X4949119Y1838163D1*
X4945558Y1844586D1*
X4942808Y1851396D1*
X4940912Y1858492D1*
X4939898Y1865766D1*
X4939781Y1873109D1*
X4940562Y1880412D1*
X4942231Y1887565D1*
X4944761Y1894459D1*
X4948115Y1900993D1*
X4952244Y1907068D1*
X4957083Y1912592D1*
X4962562Y1917483D1*
X4966595Y1920391D1*
X4960737Y1924802D1*
X4954084Y1931455D1*
X4949668Y1937400D1*
X4602187Y1937405D1*
X4580544Y1915781D1*
X4580547Y1903146D1*
X4585172Y1897721D1*
X4588984Y1891501D1*
X4591776Y1884761D1*
X4593398Y1878072D1*
X4600115Y1876421D1*
X4606855Y1873630D1*
X4613075Y1869818D1*
X4618807Y1864881D1*
X4624895Y1866782D1*
X4632100Y1867924D1*
X4639835Y1867872D1*
X4641531Y1874918D1*
X4644323Y1881658D1*
X4648135Y1887879D1*
X4652873Y1893426D1*
X4658421Y1898164D1*
X4664641Y1901976D1*
X4671381Y1904768D1*
X4678475Y1906471D1*
X4685748Y1907043D1*
X4693021Y1906471D1*
X4700115Y1904768D1*
X4706855Y1901976D1*
X4713075Y1898164D1*
X4718623Y1893426D1*
X4723361Y1887879D1*
X4727173Y1881658D1*
X4729965Y1874918D1*
X4731668Y1867824D1*
X4732240Y1860551D1*
X4731668Y1853278D1*
X4729965Y1846184D1*
X4727173Y1839444D1*
X4723361Y1833224D1*
X4718729Y1827791D1*
X4718635Y1730404D1*
X4717825Y1725291D1*
X4716225Y1720368D1*
X4713875Y1715756D1*
X4710832Y1711568D1*
X4663604Y1664196D1*
X4539456Y1540191D1*
X4535268Y1537148D1*
X4530656Y1534798D1*
X4525732Y1533199D1*
X4520620Y1532389D1*
X4453727Y1532287D1*
X3399198D1*
X3393784Y1527663D1*
X3387564Y1523851D1*
X3380824Y1521059D1*
X3373730Y1519356D1*
X3366457Y1518783D1*
X3359184Y1519356D1*
X3352090Y1521059D1*
X3345350Y1523851D1*
X3339129Y1527663D1*
X3333582Y1532401D1*
X3328844Y1537948D1*
X3325032Y1544169D1*
X3322240Y1550909D1*
X3320537Y1558003D1*
X3319965Y1565276D1*
X3320537Y1572549D1*
X3322240Y1579642D1*
X3325032Y1586383D1*
X3328844Y1592603D1*
X3333582Y1598150D1*
X3339129Y1602889D1*
X3345350Y1606700D1*
X3352090Y1609492D1*
X3359184Y1611195D1*
X3366457Y1611768D1*
X3373730Y1611195D1*
X3380824Y1609492D1*
X3387564Y1606700D1*
X3393784Y1602889D1*
X3399216Y1598257D1*
X4504380Y1598264D1*
X4652760Y1746656D1*
Y1778314D1*
X4646601Y1776367D1*
X4639396Y1775226D1*
X4635905Y1775089D1*
X4469771Y1609089D1*
X4465583Y1606046D1*
X4460971Y1603696D1*
X4456047Y1602096D1*
X4450935Y1601287D1*
X4384042Y1601185D1*
X3954420Y1601287D1*
X3949307Y1602096D1*
X3944384Y1603696D1*
X3939772Y1606046D1*
X3935584Y1609089D1*
X3888212Y1656317D1*
X3656333Y1888340D1*
X3653290Y1892527D1*
X3650940Y1897140D1*
X3649340Y1902063D1*
X3648531Y1907176D1*
X3648429Y1974068D1*
Y2002883D1*
X3643426Y1996968D1*
X3637879Y1992230D1*
X3631658Y1988418D1*
X3624918Y1985626D1*
X3617824Y1983923D1*
X3610708Y1983357D1*
X3364259Y1737042D1*
X3360071Y1733999D1*
X3355459Y1731649D1*
X3350536Y1730049D1*
X3345423Y1729239D1*
X3278530Y1729138D1*
X1082884D1*
X1045876Y1692137D1*
X1052078Y1691496D1*
X1060325Y1689516D1*
X1068161Y1686270D1*
X1075393Y1681839D1*
X1081842Y1676330D1*
X1087350Y1669881D1*
X1091782Y1662649D1*
X1092816Y1660406D1*
X1095961Y1666352D1*
X1100946Y1673214D1*
X1106944Y1679211D1*
X1113806Y1684196D1*
X1121363Y1688047D1*
X1129429Y1690668D1*
X1137806Y1691995D1*
X1146288D1*
X1154665Y1690668D1*
X1162732Y1688047D1*
X1170289Y1684196D1*
X1177151Y1679211D1*
X1183148Y1673214D1*
X1188133Y1666352D1*
X1191241Y1660406D1*
X1194386Y1666352D1*
X1199372Y1673214D1*
X1205369Y1679211D1*
X1212231Y1684196D1*
X1219788Y1688047D1*
X1227854Y1690668D1*
X1236232Y1691995D1*
X1244713D1*
X1253090Y1690668D1*
X1261157Y1688047D1*
X1268714Y1684196D1*
X1275576Y1679211D1*
X1281573Y1673214D1*
X1286559Y1666352D1*
X1289667Y1660406D1*
X1292811Y1666352D1*
X1297797Y1673214D1*
X1303794Y1679211D1*
X1310656Y1684196D1*
X1318213Y1688047D1*
X1326280Y1690668D1*
X1334657Y1691995D1*
X1343138D1*
X1351516Y1690668D1*
X1359582Y1688047D1*
X1367139Y1684196D1*
X1374001Y1679211D1*
X1379998Y1673214D1*
X1384984Y1666352D1*
X1388092Y1660406D1*
X1391237Y1666352D1*
X1396222Y1673214D1*
X1402219Y1679211D1*
X1409081Y1684196D1*
X1416638Y1688047D1*
X1424705Y1690668D1*
X1433082Y1691995D1*
X1441564D1*
X1449941Y1690668D1*
X1458007Y1688047D1*
X1465564Y1684196D1*
X1472426Y1679211D1*
X1478424Y1673214D1*
X1483409Y1666352D1*
X1486517Y1660406D1*
X1489662Y1666352D1*
X1494647Y1673214D1*
X1500645Y1679211D1*
X1507506Y1684196D1*
X1515064Y1688047D1*
X1523130Y1690668D1*
X1531507Y1691995D1*
X1539989D1*
X1548366Y1690668D1*
X1556433Y1688047D1*
X1563990Y1684196D1*
X1570851Y1679211D1*
X1576849Y1673214D1*
X1581834Y1666352D1*
X1584942Y1660406D1*
X1588087Y1666352D1*
X1593072Y1673214D1*
X1599070Y1679211D1*
X1605932Y1684196D1*
X1613489Y1688047D1*
X1621555Y1690668D1*
X1629932Y1691995D1*
X1638414D1*
X1646791Y1690668D1*
X1654858Y1688047D1*
X1662415Y1684196D1*
X1669277Y1679211D1*
X1675274Y1673214D1*
X1680259Y1666352D1*
X1683367Y1660406D1*
X1686512Y1666352D1*
X1691498Y1673214D1*
X1697495Y1679211D1*
X1704357Y1684196D1*
X1711914Y1688047D1*
X1719980Y1690668D1*
X1728358Y1691995D1*
X1736839D1*
X1745216Y1690668D1*
X1753283Y1688047D1*
X1760840Y1684196D1*
X1767702Y1679211D1*
X1773699Y1673214D1*
X1778685Y1666352D1*
X1782535Y1658795D1*
X1785156Y1650728D1*
X1786483Y1642351D1*
Y1633869D1*
X1785156Y1625492D1*
X1782535Y1617426D1*
X1778685Y1609869D1*
X1773699Y1603007D1*
X1767702Y1597009D1*
X1760840Y1592024D1*
X1753283Y1588173D1*
X1745216Y1585552D1*
X1736839Y1584226D1*
X1728358D1*
X1719980Y1585552D1*
X1711914Y1588173D1*
X1704357Y1592024D1*
X1697495Y1597009D1*
X1691498Y1603007D1*
X1686512Y1609869D1*
X1683404Y1615815D1*
X1680259Y1609869D1*
X1675274Y1603007D1*
X1669277Y1597009D1*
X1662415Y1592024D1*
X1654858Y1588173D1*
X1646791Y1585552D1*
X1638414Y1584226D1*
X1629932D1*
X1621555Y1585552D1*
X1613489Y1588173D1*
X1605932Y1592024D1*
X1599070Y1597009D1*
X1593072Y1603007D1*
X1588087Y1609869D1*
X1584979Y1615815D1*
X1581834Y1609869D1*
X1576849Y1603007D1*
X1570851Y1597009D1*
X1563990Y1592024D1*
X1556433Y1588173D1*
X1548366Y1585552D1*
X1539989Y1584226D1*
X1531507D1*
X1523130Y1585552D1*
X1515064Y1588173D1*
X1507506Y1592024D1*
X1500645Y1597009D1*
X1494647Y1603007D1*
X1489662Y1609869D1*
X1486554Y1615815D1*
X1483409Y1609869D1*
X1478424Y1603007D1*
X1472426Y1597009D1*
X1465564Y1592024D1*
X1458007Y1588173D1*
X1449941Y1585552D1*
X1441564Y1584226D1*
X1433082D1*
X1424705Y1585552D1*
X1416638Y1588173D1*
X1409081Y1592024D1*
X1402219Y1597009D1*
X1396222Y1603007D1*
X1391237Y1609869D1*
X1388129Y1615815D1*
X1384984Y1609869D1*
X1379998Y1603007D1*
X1374001Y1597009D1*
X1367139Y1592024D1*
X1359582Y1588173D1*
X1351516Y1585552D1*
X1343138Y1584226D1*
X1334657D1*
X1326280Y1585552D1*
X1318213Y1588173D1*
X1310656Y1592024D1*
X1303794Y1597009D1*
X1297797Y1603007D1*
X1292811Y1609869D1*
X1289704Y1615815D1*
X1286559Y1609869D1*
X1281573Y1603007D1*
X1275576Y1597009D1*
X1268714Y1592024D1*
X1261157Y1588173D1*
X1253090Y1585552D1*
X1244713Y1584226D1*
X1236232D1*
X1227854Y1585552D1*
X1219788Y1588173D1*
X1212231Y1592024D1*
X1205369Y1597009D1*
X1199372Y1603007D1*
X1194386Y1609869D1*
X1191278Y1615815D1*
X1188133Y1609869D1*
X1183148Y1603007D1*
X1177151Y1597009D1*
X1170289Y1592024D1*
X1162732Y1588173D1*
X1154665Y1585552D1*
X1146288Y1584226D1*
X1137806D1*
X1129429Y1585552D1*
X1121363Y1588173D1*
X1113806Y1592024D1*
X1106944Y1597009D1*
X1100946Y1603007D1*
X1095961Y1609869D1*
X1092853Y1615815D1*
X1089708Y1609869D1*
X1084723Y1603007D1*
X1078725Y1597009D1*
X1071864Y1592024D1*
X1064307Y1588173D1*
X1056240Y1585552D1*
X1047863Y1584226D1*
X1039381D1*
X1031004Y1585552D1*
X1022938Y1588173D1*
X1015380Y1592024D1*
X1008519Y1597009D1*
X1002521Y1603007D1*
X997536Y1609869D1*
X994428Y1615815D1*
X991283Y1609869D1*
X986298Y1603007D1*
X980300Y1597009D1*
X973439Y1592024D1*
X965881Y1588173D1*
X957815Y1585552D1*
X949438Y1584226D1*
X940956D1*
X932579Y1585552D1*
X924512Y1588173D1*
X916955Y1592024D1*
X910093Y1597009D1*
X904096Y1603007D1*
X899111Y1609869D1*
X896003Y1615815D1*
X892858Y1609869D1*
X887872Y1603007D1*
X881875Y1597009D1*
X875013Y1592024D1*
X867456Y1588173D1*
X859390Y1585552D1*
X851012Y1584226D1*
X842531D1*
X834154Y1585552D1*
X826087Y1588173D1*
X818530Y1592024D1*
X811668Y1597009D1*
X805671Y1603007D1*
X800685Y1609869D1*
X796835Y1617426D1*
X794214Y1625492D1*
X792887Y1633869D1*
Y1642351D1*
X794214Y1650728D1*
X796835Y1658795D1*
X800685Y1666352D1*
X805671Y1673214D1*
X811668Y1679211D1*
X818530Y1684196D1*
X826087Y1688047D1*
X834154Y1690668D1*
X842531Y1691995D1*
X851012D1*
X853696Y1691677D1*
X1022198Y1860045D1*
X1026386Y1863088D1*
X1030998Y1865438D1*
X1035921Y1867037D1*
X1041034Y1867847D1*
X1107927Y1867949D1*
X3205178D1*
X3367198Y2029992D1*
X3367781Y2037115D1*
X3369484Y2044209D1*
X3372276Y2050950D1*
X3376088Y2057170D1*
X3380826Y2062717D1*
X3386373Y2067455D1*
X3392594Y2071267D1*
X3399334Y2074059D1*
X3406428Y2075762D1*
X3413701Y2076335D1*
X3420974Y2075762D1*
X3428068Y2074059D1*
X3434808Y2071267D1*
X3441028Y2067455D1*
X3446576Y2062717D1*
X3451314Y2057170D1*
X3455126Y2050950D1*
X3457917Y2044209D1*
X3459621Y2037115D1*
X3460193Y2029843D1*
X3459621Y2022570D1*
X3457917Y2015476D1*
X3455126Y2008736D1*
X3451314Y2002515D1*
X3446576Y1996968D1*
X3441028Y1992230D1*
X3434808Y1988418D1*
X3428068Y1985626D1*
X3420974Y1983923D1*
X3413858Y1983357D1*
X3240243Y1809876D1*
X3236055Y1806834D1*
X3231443Y1804484D1*
X3226520Y1802884D1*
X3221407Y1802074D1*
X3154514Y1801972D1*
X1057263D1*
X947412Y1692098D1*
X952121Y1691677D1*
X1047788Y1787210D1*
X1051976Y1790253D1*
X1056589Y1792603D1*
X1061512Y1794203D1*
X1066624Y1795013D1*
X1133517Y1795114D1*
X3329163D1*
X3564037Y2029981D1*
X3564631Y2037115D1*
X3566335Y2044209D1*
X3569126Y2050950D1*
X3572938Y2057170D1*
X3577676Y2062717D1*
X3583224Y2067455D1*
X3589444Y2071267D1*
X3596184Y2074059D1*
X3603278Y2075762D1*
X3610551Y2076335D1*
X3617824Y2075762D1*
X3624918Y2074059D1*
X3631658Y2071267D1*
X3637879Y2067455D1*
X3643426Y2062717D1*
X3648426Y2056779D1*
X3638604Y2073248D1*
X3588998Y2122854D1*
X3255601Y2122940D1*
X3250488Y2123750D1*
X3245565Y2125350D1*
X3240953Y2127700D1*
X3236765Y2130742D1*
X3208804Y2158560D1*
X3202596Y2159014D1*
X3202493Y2104026D1*
X3201683Y2098913D1*
X3200083Y2093990D1*
X3197733Y2089378D1*
X3194684Y2085183D1*
X3196155Y2084893D1*
X3203360Y2086034D1*
X3210656D1*
X3217861Y2084893D1*
X3224800Y2082638D1*
X3231300Y2079326D1*
X3237202Y2075038D1*
X3242361Y2069879D1*
X3246649Y2063977D1*
X3249961Y2057477D1*
X3252215Y2050538D1*
X3253357Y2043333D1*
Y2036037D1*
X3252215Y2028832D1*
X3249961Y2021893D1*
X3246649Y2015393D1*
X3241964Y2009061D1*
X3241863Y1956388D1*
X3241053Y1951275D1*
X3239454Y1946352D1*
X3237104Y1941740D1*
X3234061Y1937552D1*
X3186833Y1890180D1*
X3181188Y1884679D1*
X3177000Y1881637D1*
X3172388Y1879287D1*
X3167465Y1877687D1*
X3162352Y1876877D1*
X3095459Y1876775D1*
X1769380Y1876877D1*
X1764268Y1877687D1*
X1759344Y1879287D1*
X1754732Y1881637D1*
X1750544Y1884679D1*
X1703172Y1931908D1*
X1050579Y2584500D1*
X1043622Y2584059D1*
X1035167Y2584725D1*
X1026919Y2586705D1*
X1019083Y2589950D1*
X1011852Y2594382D1*
X1005402Y2599890D1*
X999894Y2606340D1*
X995462Y2613572D1*
X994428Y2615815D1*
X991283Y2609869D1*
X986298Y2603007D1*
X980300Y2597009D1*
X973439Y2592024D1*
X965881Y2588173D1*
X957815Y2585552D1*
X949438Y2584226D1*
X940956D1*
X932579Y2585552D1*
X924512Y2588173D1*
X916955Y2592024D1*
X910093Y2597009D1*
X904096Y2603007D1*
X899111Y2609869D1*
X896003Y2615815D1*
X892858Y2609869D1*
X887872Y2603007D1*
X881875Y2597009D1*
X875013Y2592024D1*
X867456Y2588173D1*
X859390Y2585552D1*
X851012Y2584226D1*
X842531D1*
X834154Y2585552D1*
X826087Y2588173D1*
X818530Y2592024D1*
X811668Y2597009D1*
X805671Y2603007D1*
X800685Y2609869D1*
X796835Y2617426D1*
X794214Y2625492D1*
X792887Y2633869D1*
Y2642351D1*
X794214Y2650728D1*
X796835Y2658795D1*
X800685Y2666352D1*
X805671Y2673214D1*
X811668Y2679211D1*
X818530Y2684196D1*
X826087Y2688047D1*
X834154Y2690668D1*
X842531Y2691995D1*
X851012D1*
X859390Y2690668D1*
X867456Y2688047D1*
X875013Y2684196D1*
X881875Y2679211D1*
X887872Y2673214D1*
X892858Y2666352D1*
X895966Y2660406D1*
X899111Y2666352D1*
X904096Y2673214D1*
X910093Y2679211D1*
X916955Y2684196D1*
X924512Y2688047D1*
X932579Y2690668D1*
X940956Y2691995D1*
X949438D1*
X957815Y2690668D1*
X965881Y2688047D1*
X973439Y2684196D1*
X980300Y2679211D1*
X986298Y2673214D1*
X991283Y2666352D1*
X994391Y2660406D1*
X997536Y2666352D1*
X1002521Y2673214D1*
X1008519Y2679211D1*
X1015380Y2684196D1*
X1022938Y2688047D1*
X1031004Y2690668D1*
X1039381Y2691995D1*
X1047863D1*
X1056240Y2690668D1*
X1064307Y2688047D1*
X1071864Y2684196D1*
X1078725Y2679211D1*
X1084723Y2673214D1*
X1089708Y2666352D1*
X1092816Y2660406D1*
X1095961Y2666352D1*
X1100946Y2673214D1*
X1106944Y2679211D1*
X1113806Y2684196D1*
X1121363Y2688047D1*
X1129429Y2690668D1*
X1137806Y2691995D1*
X1146288D1*
X1154665Y2690668D1*
X1162732Y2688047D1*
X1170289Y2684196D1*
X1177151Y2679211D1*
X1183148Y2673214D1*
X1188133Y2666352D1*
X1191241Y2660406D1*
X1194386Y2666352D1*
X1199372Y2673214D1*
X1205369Y2679211D1*
X1212231Y2684196D1*
X1219788Y2688047D1*
X1227854Y2690668D1*
X1236232Y2691995D1*
X1244713D1*
X1253090Y2690668D1*
X1261157Y2688047D1*
X1268714Y2684196D1*
X1275576Y2679211D1*
X1281573Y2673214D1*
X1286559Y2666352D1*
X1289667Y2660406D1*
X1292811Y2666352D1*
X1297797Y2673214D1*
X1303794Y2679211D1*
X1310656Y2684196D1*
X1318213Y2688047D1*
X1326280Y2690668D1*
X1334657Y2691995D1*
X1343138D1*
X1351516Y2690668D1*
X1359582Y2688047D1*
X1367139Y2684196D1*
X1374001Y2679211D1*
X1379998Y2673214D1*
X1384984Y2666352D1*
X1388092Y2660406D1*
X1391237Y2666352D1*
X1396222Y2673214D1*
X1402219Y2679211D1*
X1409081Y2684196D1*
X1416638Y2688047D1*
X1424705Y2690668D1*
X1433082Y2691995D1*
X1441564D1*
X1449941Y2690668D1*
X1458007Y2688047D1*
X1465564Y2684196D1*
X1472426Y2679211D1*
X1478424Y2673214D1*
X1483409Y2666352D1*
X1486561Y2660519D1*
X1490053Y2666980D1*
X1494387Y2672907D1*
X1499486Y2678192D1*
X1505253Y2682738D1*
X1511584Y2686459D1*
X1518360Y2689288D1*
X1525458Y2691173D1*
X1532745Y2692078D1*
X1540088Y2691987D1*
X1547351Y2690901D1*
X1554400Y2688841D1*
X1561104Y2685845D1*
X1567340Y2681968D1*
X1572993Y2677281D1*
X1577959Y2671871D1*
X1582146Y2665837D1*
X1584958Y2660453D1*
X1588087Y2666352D1*
X1593072Y2673214D1*
X1599070Y2679211D1*
X1605932Y2684196D1*
X1613489Y2688047D1*
X1621555Y2690668D1*
X1629932Y2691995D1*
X1638414D1*
X1646791Y2690668D1*
X1654858Y2688047D1*
X1662415Y2684196D1*
X1669277Y2679211D1*
X1675274Y2673214D1*
X1680259Y2666352D1*
X1683367Y2660406D1*
X1601192Y2595336D2*
X1595953Y2599890D1*
X1590445Y2606340D1*
X1586013Y2613572D1*
X1584979Y2615815D1*
X1582001Y2610142D1*
X1577783Y2604131D1*
X1572789Y2598746D1*
X1567111Y2594089D1*
X1560855Y2590244D1*
X1554135Y2587283D1*
X1547076Y2585259D1*
X1539808Y2584212D1*
X1532464Y2584159D1*
X1525182Y2585102D1*
X1518094Y2587023D1*
X1511333Y2589888D1*
X1505021Y2593642D1*
X1499278Y2598217D1*
X1494207Y2603529D1*
X1489903Y2609479D1*
X1486540Y2615756D1*
X1483409Y2609869D1*
X1478424Y2603007D1*
X1472426Y2597009D1*
X1465564Y2592024D1*
X1458007Y2588173D1*
X1449941Y2585552D1*
X1441564Y2584226D1*
X1433082D1*
X1424705Y2585552D1*
X1416638Y2588173D1*
X1409081Y2592024D1*
X1402219Y2597009D1*
X1396222Y2603007D1*
X1391237Y2609869D1*
X1388129Y2615815D1*
X1384984Y2609869D1*
X1379998Y2603007D1*
X1374001Y2597009D1*
X1367139Y2592024D1*
X1359582Y2588173D1*
X1351516Y2585552D1*
X1343138Y2584226D1*
X1334657D1*
X1326280Y2585552D1*
X1318213Y2588173D1*
X1310656Y2592024D1*
X1303794Y2597009D1*
X1297797Y2603007D1*
X1292811Y2609869D1*
X1289704Y2615815D1*
X1286559Y2609869D1*
X1281573Y2603007D1*
X1275576Y2597009D1*
X1268714Y2592024D1*
X1261157Y2588173D1*
X1253090Y2585552D1*
X1244713Y2584226D1*
X1236232D1*
X1227854Y2585552D1*
X1219788Y2588173D1*
X1212231Y2592024D1*
X1205369Y2597009D1*
X1199372Y2603007D1*
X1194386Y2609869D1*
X1191278Y2615815D1*
X1188133Y2609869D1*
X1183148Y2603007D1*
X1177151Y2597009D1*
X1170289Y2592024D1*
X1162732Y2588173D1*
X1154665Y2585552D1*
X1146288Y2584226D1*
X1144250Y2584146D1*
X1785615Y1942770D1*
X3146082Y1942752D1*
X3175995Y1972648D1*
X3175988Y2005088D1*
X3171655Y2009491D1*
X3167367Y2015393D1*
X3164055Y2021893D1*
X3161800Y2028832D1*
X3160659Y2036037D1*
Y2043333D1*
X3161800Y2050538D1*
X3162439Y2052803D1*
X3122133Y2012632D1*
X3117945Y2009589D1*
X3113333Y2007239D1*
X3108410Y2005640D1*
X3103297Y2004830D1*
X3036404Y2004728D1*
X2094183Y2004830D1*
X2089071Y2005640D1*
X2084148Y2007239D1*
X2079535Y2009589D1*
X2075347Y2012632D1*
X2027975Y2059860D1*
X1609089Y2478891D1*
X1606046Y2483079D1*
X1603696Y2487691D1*
X1602096Y2492614D1*
X1601287Y2497727D1*
X1601185Y2564619D1*
Y2595300D1*
X4955030Y2310437D2*
X4939719D1*
Y2324252D1*
X4524820Y2324216D1*
X4524839Y2204501D1*
X4528145Y2199804D1*
X4531457Y2193304D1*
X4533711Y2186365D1*
X4534853Y2179160D1*
Y2171864D1*
X4533711Y2164658D1*
X4531457Y2157720D1*
X4528145Y2151220D1*
X4523857Y2145318D1*
X4518698Y2140159D1*
X4512796Y2135871D1*
X4506296Y2132559D1*
X4499357Y2130304D1*
X4492152Y2129163D1*
X4484856D1*
X4477651Y2130304D1*
X4470712Y2132559D1*
X4464212Y2135871D1*
X4458310Y2140159D1*
X4453151Y2145318D1*
X4448863Y2151220D1*
X4445551Y2157720D1*
X4443296Y2164658D1*
X4442155Y2171864D1*
Y2179160D1*
X4443296Y2186365D1*
X4445551Y2193304D1*
X4448863Y2199804D1*
X4452171Y2204463D1*
X4452169Y2324252D1*
X4126299Y2324216D1*
X4119075Y2324785D1*
X4112030Y2326476D1*
X4105335Y2329249D1*
X4099157Y2333035D1*
X4093647Y2337741D1*
X3681955Y2749434D1*
X2950010Y2749413D1*
X2950035Y2454224D1*
X3110454Y2454221D1*
X3115188Y2457527D1*
X3121689Y2460839D1*
X3128627Y2463093D1*
X3135833Y2464235D1*
X3143128D1*
X3150334Y2463093D1*
X3157272Y2460839D1*
X3163772Y2457527D1*
X3169675Y2453239D1*
X3174833Y2448080D1*
X3179121Y2442178D1*
X3182433Y2435678D1*
X3184688Y2428739D1*
X3185829Y2421534D1*
Y2414238D1*
X3184688Y2407032D1*
X3182433Y2400094D1*
X3179121Y2393594D1*
X3174833Y2387692D1*
X3169675Y2382533D1*
X3163772Y2378245D1*
X3157272Y2374933D1*
X3150334Y2372678D1*
X3143128Y2371537D1*
X3135833D1*
X3128627Y2372678D1*
X3121689Y2374933D1*
X3115188Y2378245D1*
X3110529Y2381553D1*
X3028203Y2381551D1*
X3028947Y2376010D1*
Y2368714D1*
X3027806Y2361509D1*
X3025552Y2354570D1*
X3022239Y2348070D1*
X3017951Y2342168D1*
X3015580Y2339602D1*
X3015587Y2070684D1*
X3087057Y2070705D1*
X3136631Y2120291D1*
X3136618Y2231312D1*
X3131993Y2236767D1*
X3128182Y2242988D1*
X3125390Y2249728D1*
X3123687Y2256822D1*
X3123114Y2264094D1*
X3123687Y2271367D1*
X3125390Y2278461D1*
X3128182Y2285201D1*
X3131993Y2291422D1*
X3136731Y2296969D1*
X3142279Y2301707D1*
X3148499Y2305519D1*
X3155239Y2308311D1*
X3162333Y2310014D1*
X3169606Y2310587D1*
X3176879Y2310014D1*
X3183973Y2308311D1*
X3190713Y2305519D1*
X3196934Y2301707D1*
X3202366Y2297076D1*
X3294304Y2297083D1*
X3299759Y2301707D1*
X3305980Y2305519D1*
X3312720Y2308311D1*
X3319814Y2310014D1*
X3327087Y2310587D1*
X3334360Y2310014D1*
X3341453Y2308311D1*
X3348194Y2305519D1*
X3354414Y2301707D1*
X3359846Y2297076D1*
X3501017Y2297083D1*
X3506452Y2301707D1*
X3512673Y2305519D1*
X3519413Y2308311D1*
X3526507Y2310014D1*
X3533780Y2310587D1*
X3541052Y2310014D1*
X3548146Y2308311D1*
X3554887Y2305519D1*
X3561107Y2301707D1*
X3566539Y2297076D1*
X3732523Y2297205D1*
X3739462Y2299460D1*
X3746667Y2300601D1*
X3753963D1*
X3761168Y2299460D1*
X3768107Y2297205D1*
X3774607Y2293893D1*
X3780408Y2289684D1*
X3783860Y2294289D1*
X3789018Y2299447D1*
X3794921Y2303736D1*
X3801421Y2307048D1*
X3808359Y2309302D1*
X3815565Y2310443D1*
X3822860D1*
X3830066Y2309302D1*
X3837004Y2307048D1*
X3843505Y2303736D1*
X3849407Y2299447D1*
X3854565Y2294289D1*
X3858854Y2288387D1*
X3862166Y2281886D1*
X3864420Y2274948D1*
X3865561Y2267742D1*
Y2260447D1*
X3864420Y2253241D1*
X3862166Y2246303D1*
X3858854Y2239802D1*
X3854565Y2233900D1*
X3852194Y2231335D1*
X3852201Y2100570D1*
X4049413Y1903381D1*
X4514551Y1903382D1*
X4514672Y1932037D1*
X4515482Y1937150D1*
X4517082Y1942073D1*
X4519432Y1946685D1*
X4522475Y1950873D1*
X4565178Y1993720D1*
X4569114Y1997082D1*
X4573528Y1999787D1*
X4578310Y2001767D1*
X4583343Y2002976D1*
X4588514Y2003382D1*
X4626028Y2003582D1*
X4622716Y2010082D1*
X4620462Y2017021D1*
X4619320Y2024226D1*
Y2031522D1*
X4620462Y2038727D1*
X4622716Y2045666D1*
X4626028Y2052166D1*
X4630316Y2058068D1*
X4635475Y2063227D1*
X4641377Y2067515D1*
X4647878Y2070827D1*
X4654816Y2073082D1*
X4662022Y2074223D1*
X4665513Y2074360D1*
X4880466Y2289179D1*
X4884653Y2292222D1*
X4889266Y2294572D1*
X4894189Y2296171D1*
X4899302Y2296981D1*
X4945991Y2297083D1*
X4948554Y2301721D1*
X4954084Y2309332D1*
X4955096Y2310426D1*
X4966621Y2220427D2*
X4960737Y2224802D1*
X4954397Y2231117D1*
X4915544Y2231106D1*
X4712151Y2027703D1*
X4711589Y2020601D1*
X4709886Y2013507D1*
X4707094Y2006767D1*
X4705176Y2003380D1*
X4783509Y2003582D1*
X4780196Y2010082D1*
X4777942Y2017021D1*
X4776801Y2024226D1*
Y2031522D1*
X4777942Y2038727D1*
X4780196Y2045666D1*
X4783509Y2052166D1*
X4787797Y2058068D1*
X4792955Y2063227D1*
X4798858Y2067515D1*
X4805358Y2070827D1*
X4812296Y2073082D1*
X4819502Y2074223D1*
X4822993Y2074360D1*
X4946254Y2197613D1*
X4951170Y2205635D1*
X4957280Y2212789D1*
X4964434Y2218900D1*
X4966621Y2220361D1*
Y2120427D2*
X4964102Y2122150D1*
X4869662Y2027734D1*
X4869069Y2020601D1*
X4867366Y2013507D1*
X4864574Y2006767D1*
X4862656Y2003380D1*
X4949607Y2003382D1*
X4954084Y2009332D1*
X4960737Y2015985D1*
X4966621Y2020361D1*
X4960737Y2024802D1*
X4954084Y2031455D1*
X4948554Y2039066D1*
X4944283Y2047449D1*
X4941376Y2056397D1*
X4939904Y2065690D1*
Y2075098D1*
X4941376Y2084390D1*
X4944283Y2093338D1*
X4948554Y2101721D1*
X4954084Y2109332D1*
X4960737Y2115985D1*
X4966621Y2120361D1*
X642586Y3654563D2*
X641743Y3647439D1*
X640343Y3640402D1*
X638395Y3633497D1*
X635912Y3626766D1*
X632909Y3620251D1*
X629403Y3613991D1*
X625417Y3608026D1*
X620975Y3602391D1*
X616105Y3597123D1*
X610837Y3592253D1*
X605203Y3587811D1*
X599237Y3583825D1*
X592978Y3580320D1*
X586462Y3577316D1*
X579731Y3574833D1*
X572826Y3572885D1*
X565790Y3571486D1*
X558665Y3570643D1*
X551496Y3570361D1*
X544327Y3570643D1*
X537202Y3571486D1*
X530166Y3572885D1*
X523261Y3574833D1*
X516530Y3577316D1*
X510014Y3580320D1*
X503755Y3583825D1*
X497789Y3587811D1*
X492155Y3592253D1*
X486887Y3597123D1*
X482017Y3602391D1*
X477575Y3608026D1*
X473589Y3613991D1*
X470084Y3620251D1*
X467080Y3626766D1*
X464597Y3633497D1*
X462649Y3640402D1*
X461250Y3647439D1*
X460406Y3654563D1*
X460125Y3661732D1*
X460406Y3668901D1*
X461250Y3676026D1*
X462649Y3683063D1*
X464597Y3689968D1*
X467080Y3696699D1*
X470084Y3703214D1*
X473589Y3709474D1*
X477575Y3715439D1*
X482017Y3721073D1*
X486887Y3726342D1*
X492155Y3731212D1*
X497789Y3735653D1*
X503755Y3739639D1*
X511923Y3744025D1*
X425306Y3744016D1*
X431493Y425236D1*
X523116Y425266D1*
X516530Y427710D1*
X510014Y430713D1*
X503755Y434219D1*
X497789Y438205D1*
X492155Y442647D1*
X486887Y447517D1*
X482017Y452785D1*
X477575Y458419D1*
X473589Y464385D1*
X470084Y470644D1*
X467080Y477160D1*
X464597Y483891D1*
X462649Y490796D1*
X461250Y497832D1*
X460406Y504957D1*
X460125Y512126D1*
X460406Y519295D1*
X461250Y526420D1*
X462649Y533456D1*
X464597Y540361D1*
X467080Y547092D1*
X470084Y553608D1*
X473589Y559867D1*
X477575Y565833D1*
X482017Y571467D1*
X486887Y576735D1*
X492155Y581605D1*
X497789Y586047D1*
X503755Y590033D1*
X510014Y593538D1*
X516530Y596542D1*
X523261Y599025D1*
X530166Y600973D1*
X537202Y602372D1*
X544327Y603216D1*
X551496Y603497D1*
X558665Y603216D1*
X565790Y602372D1*
X572826Y600973D1*
X579731Y599025D1*
X586462Y596542D1*
X592978Y593538D1*
X599237Y590033D1*
X605203Y586047D1*
X610837Y581605D1*
X616105Y576735D1*
X620975Y571467D1*
X625417Y565833D1*
X629403Y559867D1*
X632909Y553608D1*
X635912Y547092D1*
X638395Y540361D1*
X640343Y533456D1*
X641743Y526420D1*
X642586Y519295D1*
X642867Y512126D1*
X642586Y504957D1*
X641743Y497832D1*
X640343Y490796D1*
X638395Y483891D1*
X635912Y477160D1*
X632909Y470644D1*
X629403Y464385D1*
X625417Y458419D1*
X620975Y452785D1*
X616105Y447517D1*
X610837Y442647D1*
X605203Y438205D1*
X599237Y434219D1*
X592978Y430713D1*
X586462Y427710D1*
X579863Y425275D1*
X5011294Y425266D1*
X5004719Y427710D1*
X4998203Y430713D1*
X4991944Y434219D1*
X4985978Y438205D1*
X4980344Y442647D1*
X4975076Y447517D1*
X4970206Y452785D1*
X4965764Y458419D1*
X4961778Y464385D1*
X4958273Y470644D1*
X4955269Y477160D1*
X4952786Y483891D1*
X4950838Y490796D1*
X4949439Y497832D1*
X4948595Y504957D1*
X4948314Y512126D1*
X4948595Y519295D1*
X4949439Y526420D1*
X4950838Y533456D1*
X4952786Y540361D1*
X4955269Y547092D1*
X4958273Y553608D1*
X4961778Y559867D1*
X4965764Y565833D1*
X4970206Y571467D1*
X4975076Y576735D1*
X4980344Y581605D1*
X4985978Y586047D1*
X4991944Y590033D1*
X4998203Y593538D1*
X5004719Y596542D1*
X5011450Y599025D1*
X5018355Y600973D1*
X5025391Y602372D1*
X5032516Y603216D1*
X5039685Y603497D1*
X5046854Y603216D1*
X5053979Y602372D1*
X5061015Y600973D1*
X5067920Y599025D1*
X5074651Y596542D1*
X5081167Y593538D1*
X5087426Y590033D1*
X5093392Y586047D1*
X5099026Y581605D1*
X5104294Y576735D1*
X5109164Y571467D1*
X5113606Y565833D1*
X5117592Y559867D1*
X5121098Y553608D1*
X5124101Y547092D1*
X5126584Y540361D1*
X5128532Y533456D1*
X5129931Y526420D1*
X5130775Y519295D1*
X5131056Y512126D1*
X5130775Y504957D1*
X5129931Y497832D1*
X5128532Y490796D1*
X5126584Y483891D1*
X5124101Y477160D1*
X5121098Y470644D1*
X5117592Y464385D1*
X5113606Y458419D1*
X5109164Y452785D1*
X5104294Y447517D1*
X5099026Y442647D1*
X5093392Y438205D1*
X5087426Y434219D1*
X5081167Y430713D1*
X5074651Y427710D1*
X5068052Y425275D1*
X5156482Y425266D1*
X5156516Y3744003D1*
X5079413Y3744016D1*
X5087426Y3739639D1*
X5093392Y3735653D1*
X5099026Y3731212D1*
X5104294Y3726342D1*
X5109164Y3721073D1*
X5113606Y3715439D1*
X5117592Y3709474D1*
X5121098Y3703214D1*
X5124101Y3696699D1*
X5126584Y3689968D1*
X5128532Y3683063D1*
X5129931Y3676026D1*
X5130775Y3668901D1*
X5131056Y3661732D1*
X5130775Y3654563D1*
X5129931Y3647439D1*
X5128532Y3640402D1*
X5126584Y3633497D1*
X5124101Y3626766D1*
X5121098Y3620251D1*
X5117592Y3613991D1*
X5113606Y3608026D1*
X5109164Y3602391D1*
X5104294Y3597123D1*
X5099026Y3592253D1*
X5093392Y3587811D1*
X5087426Y3583825D1*
X5081167Y3580320D1*
X5074651Y3577316D1*
X5067920Y3574833D1*
X5061015Y3572885D1*
X5053979Y3571486D1*
X5046854Y3570643D1*
X5039685Y3570361D1*
X5032516Y3570643D1*
X5025391Y3571486D1*
X5018355Y3572885D1*
X5011450Y3574833D1*
X5004719Y3577316D1*
X4998203Y3580320D1*
X4991944Y3583825D1*
X4985978Y3587811D1*
X4980344Y3592253D1*
X4975076Y3597123D1*
X4970206Y3602391D1*
X4965764Y3608026D1*
X4961778Y3613991D1*
X4958273Y3620251D1*
X4955269Y3626766D1*
X4952786Y3633497D1*
X4950838Y3640402D1*
X4949439Y3647439D1*
X4948595Y3654563D1*
X4948314Y3661732D1*
X4948595Y3668901D1*
X4949439Y3676026D1*
X4950838Y3683063D1*
X4952786Y3689968D1*
X4955269Y3696699D1*
X4958273Y3703214D1*
X4961778Y3709474D1*
X4965764Y3715439D1*
X4970206Y3721073D1*
X4975076Y3726342D1*
X4980344Y3731212D1*
X4985978Y3735653D1*
X4991944Y3739639D1*
X5000112Y3744025D1*
X591234Y3744016D1*
X599237Y3739639D1*
X605203Y3735653D1*
X610837Y3731212D1*
X616105Y3726342D1*
X620975Y3721073D1*
X625417Y3715439D1*
X629403Y3709474D1*
X632909Y3703214D1*
X635912Y3696699D1*
X638395Y3689968D1*
X640343Y3683063D1*
X641743Y3676026D1*
X642586Y3668901D1*
X642867Y3661732D1*
X642586Y3654563D1*
X3136625Y2231335D2*
X3131993Y2236767D1*
X3128182Y2242988D1*
X3125390Y2249728D1*
X3123687Y2256822D1*
X3123114Y2264094D1*
X3123687Y2271367D1*
X3125390Y2278461D1*
X3128182Y2285201D1*
X3131993Y2291422D1*
X3136731Y2296969D1*
X3142279Y2301707D1*
X3148499Y2305519D1*
X3155239Y2308311D1*
X3162333Y2310014D1*
X3169606Y2310587D1*
X3176879Y2310014D1*
X3183973Y2308311D1*
X3190713Y2305519D1*
X3196934Y2301707D1*
X3202366Y2297076D1*
X3359846Y2231113D2*
X3354414Y2226482D1*
X3348194Y2222670D1*
X3341453Y2219878D1*
X3334360Y2218175D1*
X3327087Y2217602D1*
X3319814Y2218175D1*
X3312720Y2219878D1*
X3305980Y2222670D1*
X3299759Y2226482D1*
X3294327Y2231113D1*
X3299759Y2226482D1*
X3305980Y2222670D1*
X3312720Y2219878D1*
X3319814Y2218175D1*
X3327087Y2217602D1*
X3334360Y2218175D1*
X3341453Y2219878D1*
X3348194Y2222670D1*
X3354414Y2226482D1*
X3359849Y2231106D1*
X3372139Y2231108D1*
X3370462Y2225735D1*
X3369320Y2218530D1*
Y2211234D1*
X3370462Y2204029D1*
X3372716Y2197090D1*
X3376028Y2190590D1*
X3377145Y2188815D1*
X3271861Y2188808D1*
X3255462Y2205196D1*
X3254896Y2212312D1*
X3253193Y2219406D1*
X3250401Y2226146D1*
X3247460Y2231106D1*
X3294324D1*
X3294327Y2297076D2*
X3299759Y2301707D1*
X3305980Y2305519D1*
X3312720Y2308311D1*
X3319814Y2310014D1*
X3327087Y2310587D1*
X3334360Y2310014D1*
X3341453Y2308311D1*
X3348194Y2305519D1*
X3354414Y2301707D1*
X3359846Y2297076D1*
X3710007Y2231106D2*
X3652807D1*
X3765557Y2118196D1*
X3768600Y2114008D1*
X3770950Y2109396D1*
X3772549Y2104473D1*
X3773359Y2099360D1*
X3773461Y2032467D1*
Y1933247D1*
X3990363Y1716368D1*
X4423272Y1716374D1*
X4533089Y1826198D1*
X4526452Y1828969D1*
X4520232Y1832781D1*
X4514799Y1837412D1*
X4033160Y1837507D1*
X4028047Y1838317D1*
X4023124Y1839917D1*
X4018512Y1842267D1*
X4014324Y1845309D1*
X3966952Y1892538D1*
X3794128Y2065505D1*
X3791086Y2069693D1*
X3788735Y2074305D1*
X3787136Y2079228D1*
X3786326Y2084341D1*
X3786224Y2151234D1*
Y2224689D1*
X3780509Y2218899D1*
X3774607Y2214611D1*
X3768107Y2211299D1*
X3761168Y2209044D1*
X3753963Y2207903D1*
X3746667D1*
X3739462Y2209044D1*
X3732523Y2211299D1*
X3726023Y2214611D1*
X3720121Y2218899D1*
X3714962Y2224058D1*
X3710674Y2229960D1*
X3710026Y2231117D1*
X3501020Y2297076D2*
X3506452Y2301707D1*
X3512673Y2305519D1*
X3519413Y2308311D1*
X3526507Y2310014D1*
X3533780Y2310587D1*
X3541052Y2310014D1*
X3548146Y2308311D1*
X3554887Y2305519D1*
X3561107Y2301707D1*
X3566539Y2297076D1*
X3648424Y2063428D2*
X3638604Y2073248D1*
X4352986Y2034256D2*
X4147226D1*
X4141816Y2029631D1*
X4135595Y2025819D1*
X4128855Y2023027D1*
X4121761Y2021324D1*
X4114488Y2020752D1*
X4107215Y2021324D1*
X4100121Y2023027D1*
X4093381Y2025819D1*
X4087161Y2029631D1*
X4081613Y2034369D1*
X4076875Y2039917D1*
X4073063Y2046137D1*
X4070272Y2052877D1*
X4068568Y2059971D1*
X4067996Y2067244D1*
X4068568Y2074517D1*
X4070272Y2081611D1*
X4073063Y2088351D1*
X4076875Y2094571D1*
X4081613Y2100119D1*
X4087161Y2104857D1*
X4093381Y2108669D1*
X4100121Y2111461D1*
X4107215Y2113164D1*
X4114488Y2113736D1*
X4121761Y2113164D1*
X4128855Y2111461D1*
X4135595Y2108669D1*
X4141816Y2104857D1*
X4147248Y2100225D1*
X4353010Y2100232D1*
X4358421Y2104857D1*
X4364641Y2108669D1*
X4371381Y2111461D1*
X4378475Y2113164D1*
X4385748Y2113736D1*
X4393021Y2113164D1*
X4400115Y2111461D1*
X4406855Y2108669D1*
X4413075Y2104857D1*
X4418623Y2100119D1*
X4423361Y2094571D1*
X4427173Y2088351D1*
X4429965Y2081611D1*
X4431668Y2074517D1*
X4432240Y2067244D1*
X4431668Y2059971D1*
X4429965Y2052877D1*
X4427173Y2046137D1*
X4423361Y2039917D1*
X4418623Y2034369D1*
X4413075Y2029631D1*
X4406855Y2025819D1*
X4400115Y2023027D1*
X4393021Y2021324D1*
X4385748Y2020752D1*
X4378475Y2021324D1*
X4371381Y2023027D1*
X4364641Y2025819D1*
X4358421Y2029631D1*
X4352988Y2034263D1*
X3734862Y2946278D2*
X4139577Y2541564D1*
X4139262Y2547009D1*
X3740326Y2945935D1*
X3734800Y2946332D1*
X4179925Y2926778D2*
Y3018713D1*
X4175300Y3024169D1*
X4171489Y3030389D1*
X4168697Y3037129D1*
X4166994Y3044223D1*
X4166421Y3051496D1*
X4166994Y3058769D1*
X4168697Y3065863D1*
X4171489Y3072603D1*
X4175300Y3078823D1*
X4180038Y3084371D1*
X4185586Y3089109D1*
X4191806Y3092921D1*
X4198547Y3095713D1*
X4205640Y3097416D1*
X4212913Y3097988D1*
X4220186Y3097416D1*
X4227280Y3095713D1*
X4234020Y3092921D1*
X4240241Y3089109D1*
X4245788Y3084371D1*
X4250526Y3078823D1*
X4254338Y3072603D1*
X4257130Y3065863D1*
X4258833Y3058769D1*
X4259406Y3051496D1*
X4258833Y3044223D1*
X4257130Y3037129D1*
X4254338Y3030389D1*
X4250526Y3024169D1*
X4245895Y3018736D1*
X4245902Y2926799D1*
X4250526Y2921343D1*
X4254338Y2915123D1*
X4257130Y2908383D1*
X4258833Y2901289D1*
X4259406Y2894016D1*
X4258833Y2886743D1*
X4257130Y2879649D1*
X4254338Y2872909D1*
X4250526Y2866688D1*
X4245788Y2861141D1*
X4240241Y2856403D1*
X4234020Y2852591D1*
X4227280Y2849799D1*
X4220186Y2848096D1*
X4212913Y2847524D1*
X4205640Y2848096D1*
X4198547Y2849799D1*
X4191806Y2852591D1*
X4185586Y2856403D1*
X4180038Y2861141D1*
X4175300Y2866688D1*
X4171489Y2872909D1*
X4168697Y2879649D1*
X4166994Y2886743D1*
X4166421Y2894016D1*
X4166994Y2901289D1*
X4168697Y2908383D1*
X4171489Y2915123D1*
X4175300Y2921343D1*
X4179932Y2926775D1*
X2221490Y1227169D2*
X1650716D1*
X1651138Y1220787D1*
X1650565Y1213514D1*
X1648862Y1206421D1*
X1646070Y1199680D1*
X1642259Y1193460D1*
X1637521Y1187913D1*
X1631973Y1183174D1*
X1625753Y1179363D1*
X1619013Y1176571D1*
X1611919Y1174868D1*
X1604802Y1174301D1*
X1452004Y1021493D1*
Y945339D1*
X1456629Y939897D1*
X1460441Y933677D1*
X1463232Y926936D1*
X1464935Y919843D1*
X1465508Y912570D1*
X1464935Y905297D1*
X1463232Y898203D1*
X1460441Y891463D1*
X1456629Y885242D1*
X1451891Y879695D1*
X1446343Y874957D1*
X1440123Y871145D1*
X1433383Y868353D1*
X1426289Y866650D1*
X1419016Y866077D1*
X1411743Y866650D1*
X1404649Y868353D1*
X1397909Y871145D1*
X1391688Y874957D1*
X1386141Y879695D1*
X1381403Y885242D1*
X1377591Y891463D1*
X1374799Y898203D1*
X1373096Y905297D1*
X1372524Y912570D1*
X1373096Y919843D1*
X1374799Y926936D1*
X1377591Y933677D1*
X1381403Y939897D1*
X1386034Y945329D1*
X1386129Y1037746D1*
X1386939Y1042858D1*
X1388539Y1047782D1*
X1390889Y1052394D1*
X1393931Y1056582D1*
X1441160Y1103954D1*
X1558159Y1220953D1*
X1558620Y1227168D1*
X1372255Y1227169D1*
X1070444Y925366D1*
X1069857Y918239D1*
X1068154Y911145D1*
X1065362Y904405D1*
X1061550Y898184D1*
X1056812Y892637D1*
X1051264Y887899D1*
X1045044Y884087D1*
X1038304Y881295D1*
X1031210Y879592D1*
X1023937Y879020D1*
X1016664Y879592D1*
X1009570Y881295D1*
X1002830Y884087D1*
X996610Y887899D1*
X991062Y892637D1*
X986324Y898184D1*
X982512Y904405D1*
X979720Y911145D1*
X978017Y918239D1*
X977445Y925512D1*
X978017Y932785D1*
X979720Y939879D1*
X982512Y946619D1*
X986324Y952839D1*
X991062Y958387D1*
X996610Y963125D1*
X1002830Y966937D1*
X1009570Y969728D1*
X1016664Y971432D1*
X1023780Y971998D1*
X1337158Y1285242D1*
X1341346Y1288285D1*
X1345959Y1290635D1*
X1350882Y1292234D1*
X1355994Y1293044D1*
X1422887Y1293146D1*
X2221490D1*
X2226925Y1297770D1*
X2233145Y1301582D1*
X2239885Y1304374D1*
X2246979Y1306077D1*
X2254252Y1306650D1*
X2261525Y1306077D1*
X2268619Y1304374D1*
X2275359Y1301582D1*
X2281579Y1297770D1*
X2287127Y1293032D1*
X2291865Y1287485D1*
X2295677Y1281264D1*
X2298469Y1274524D1*
X2300172Y1267430D1*
X2300744Y1260157D1*
X2300172Y1252885D1*
X2298469Y1245791D1*
X2295677Y1239050D1*
X2291865Y1232830D1*
X2287127Y1227283D1*
X2281579Y1222545D1*
X2275359Y1218733D1*
X2268619Y1215941D1*
X2261525Y1214238D1*
X2254252Y1213665D1*
X2246979Y1214238D1*
X2239885Y1215941D1*
X2233145Y1218733D1*
X2226925Y1222545D1*
X2221492Y1227176D1*
X669606Y1453937D2*
D14*
Y1223859D1*
X1010650Y3559586D2*
Y3426674D1*
X1498150Y3559586D2*
Y3426674D1*
X1987756Y3559606D2*
Y3426693D1*
X2473150Y3559606D2*
Y3426693D1*
X2960650Y3559606D2*
Y3426693D1*
X3448150Y3559606D2*
Y3426693D1*
X3935650Y3559606D2*
Y3426693D1*
X4423150Y3559606D2*
Y3426693D1*
X1160630Y747952D2*
Y615040D1*
X1648150Y747952D2*
Y615040D1*
X2137756Y747952D2*
Y615040D1*
X2623150Y747952D2*
Y615040D1*
X3110630Y747952D2*
Y615040D1*
X3598150Y747952D2*
Y615040D1*
X4085630Y747952D2*
Y615040D1*
X4573150Y747952D2*
Y615040D1*
X1535748Y2692126D2*
Y2584095D1*
X4999676Y1870394D2*
Y1810473D1*
D32*
X669606Y1338898D3*
D33*
X905827D3*
D34*
X787717Y1153858D3*
D35*
X1010650Y3493130D3*
X1160650D3*
X1498150D3*
X1648150D3*
X1987756Y3493150D3*
X2137756D3*
X2473150D3*
X2623150D3*
X2960650D3*
X3110650D3*
X3448150D3*
X3598150D3*
X3935650D3*
X4085650D3*
X4423150D3*
X4573150D3*
X1160630Y681496D3*
X1010630D3*
X1648150D3*
X1498150D3*
X2137756D3*
X1987756D3*
X2623150D3*
X2473150D3*
X3110630D3*
X2960630D3*
X3598150D3*
X3448150D3*
X4085630D3*
X3935630D3*
X4573150D3*
X4423150D3*
D18*
X1732598Y2638110D3*
X1634173D3*
X1535748D3*
X1437323D3*
X1338898D3*
X1240472D3*
X1142047D3*
X1043622D3*
X945197D3*
X846772D3*
X1732598Y1638110D3*
X1634173D3*
X1535748D3*
X1437323D3*
X1338898D3*
X1240472D3*
X1142047D3*
X1043622D3*
X945197D3*
X846772D3*
D38*
X4999676Y2370394D3*
D39*
Y2270394D3*
Y2170394D3*
Y2070394D3*
Y1970394D3*
Y1870394D3*
M02*
