M48
INCH
T01C0.0191
T02C0.035
T03C0.038
T04C0.0394
T05C0.0433
T06C0.1181
%
T01
X+036106Y+020298
X+034137Y+020298
X+034157Y+022149
X+033271Y+022641
X+032090Y+022050
X+031696Y+022641
X+031395Y+024179
X+029826Y+023724
X+029198Y+022580
X+030377Y+019688
X+032070Y+020397
X+035338Y+022641
X+037503Y+022543
X+038192Y+022641
X+041145Y+020672
X+043857Y+020672
X+044885Y+021755
X+046657Y+020279
X+048231Y+020279
X+046857Y+018606
X+046357Y+018216
X+045857Y+018322
X+045476Y+018704
X+042326Y+024609
X+041857Y+025472
X+041357Y+026562
X+041342Y+028546
X+042129Y+028940
X+042129Y+030515
X+041342Y+030909
X+038389Y+029531
X+037405Y+029924
X+036814Y+029531
X+044983Y+026243
X+033665Y+015653
X+022543Y+012602
X+016046Y+012208
X+014190Y+009126
X+010239Y+009255
X+015357Y+029334
X+005515Y+031499
T02
X+017326Y+026381
X+016342Y+026381
X+015357Y+026381
X+014373Y+026381
X+013389Y+026381
X+012405Y+026381
X+011420Y+026381
X+010436Y+026381
X+009452Y+026381
X+008468Y+026381
X+008468Y+016381
X+009452Y+016381
X+010436Y+016381
X+011420Y+016381
X+012405Y+016381
X+013389Y+016381
X+014373Y+016381
X+015357Y+016381
X+016342Y+016381
X+017326Y+016381
T03
X+010106Y+034931
X+011606Y+034931
X+014981Y+034931
X+016481Y+034931
X+019878Y+034931
X+021378Y+034931
X+024731Y+034931
X+026231Y+034931
X+029606Y+034931
X+031106Y+034931
X+034481Y+034931
X+035981Y+034931
X+039356Y+034931
X+040856Y+034931
X+044231Y+034931
X+045731Y+034931
X+045731Y+006815
X+044231Y+006815
X+040856Y+006815
X+039356Y+006815
X+035981Y+006815
X+034481Y+006815
X+031106Y+006815
X+029606Y+006815
X+026231Y+006815
X+024731Y+006815
X+021378Y+006815
X+019878Y+006815
X+016481Y+006815
X+014981Y+006815
X+011606Y+006815
X+010106Y+006815
T04
X+006696Y+012897G85X+006696Y+013881
X+008369Y+011539G85X+007385Y+011539
X+009058Y+012798G85X+009058Y+013980
T05
X+049997Y+023704
X+049997Y+022704
X+049997Y+021704
X+049997Y+020704
X+049997Y+019704
X+049997Y+018704
T06
X+005515Y+036617
X+005515Y+005121
X+050397Y+005121
X+050397Y+036617
T00
M30
