G04 DipTrace 3.3.1.3*
G04 Top.gbr*
%MOIN*%
G04 #@! TF.FileFunction,Copper,L1,Top*
G04 #@! TF.Part,Single*
G04 #@! TA.AperFunction,CopperBalancing*
%ADD14C,0.012992*%
G04 #@! TA.AperFunction,Conductor*
%ADD16C,0.070079*%
%ADD17C,0.07874*%
G04 #@! TA.AperFunction,ComponentPad*
%ADD18C,0.055118*%
G04 #@! TA.AperFunction,Conductor*
%ADD19C,0.051181*%
%ADD20C,0.019685*%
%ADD21C,0.023622*%
%ADD22C,0.045*%
G04 #@! TA.AperFunction,CopperBalancing*
%ADD23C,0.025*%
%ADD26R,0.051181X0.059055*%
%ADD27R,0.059055X0.051181*%
%ADD29R,0.055118X0.088583*%
%ADD31R,0.023622X0.043307*%
G04 #@! TA.AperFunction,ComponentPad*
%ADD32O,0.07874X0.177165*%
%ADD33O,0.07874X0.19685*%
%ADD34O,0.177165X0.07874*%
%ADD35C,0.08*%
%ADD36R,0.023622X0.07874*%
%ADD37R,0.124016X0.070079*%
G04 #@! TA.AperFunction,ComponentPad*
%ADD38R,0.066929X0.066929*%
%ADD39C,0.066929*%
G04 #@! TA.AperFunction,ViaPad*
%ADD40C,0.04*%
%FSLAX26Y26*%
G04*
G70*
G90*
G75*
G01*
G04 Top*
%LPD*%
X3610551Y2096772D2*
D14*
Y2029843D1*
X4453071Y1732598D2*
Y1846772D1*
X4435748Y1864094D1*
Y1949134D1*
X551496Y3149921D2*
Y2992441D1*
X1092835Y1456220D2*
D16*
X1194213D1*
D17*
X1276671D1*
X1408976D1*
X1429449Y1476693D1*
D18*
X1496378D1*
X1270000Y1374331D2*
D19*
X1276671Y1439291D1*
D17*
Y1456220D1*
X3100709Y2191260D2*
D20*
Y2352677D1*
X3120394Y2372362D1*
X3139480D1*
X3248346D1*
X3464882D1*
X3681417D1*
X2962913Y2203071D2*
X2919764Y2246220D1*
Y2258033D1*
X3139480Y2372362D2*
Y2417886D1*
X2962913Y2096772D2*
D21*
Y2203071D1*
X1496378Y1476693D2*
D18*
X1563307D1*
D17*
X1791654D1*
X1890079Y1575118D1*
Y2470787D1*
X1742441Y2618425D1*
Y2628268D1*
D22*
X1732598Y2638110D1*
X4498346Y2559370D2*
D20*
Y2624331D1*
X4435748Y1949134D2*
Y2122756D1*
X4488504Y2175512D1*
X3169606Y2203071D2*
D14*
Y2264094D1*
Y2096772D2*
Y2203071D1*
X3376299Y2096772D2*
Y2203071D1*
X3573150Y2096772D2*
Y2203071D1*
X3307402Y2191260D2*
Y2244409D1*
X3327087Y2264094D1*
X3376299Y2203071D2*
Y2224724D1*
X3336929Y2264094D1*
X3327087D1*
X3514094Y2191260D2*
Y2244409D1*
X3533780Y2264094D1*
X3573150Y2203071D2*
Y2224724D1*
X3533780Y2264094D1*
X3710945Y2191260D2*
Y2214882D1*
X3750315Y2254252D1*
X3031811Y2372362D2*
X2982598D1*
X4547559Y1870394D2*
X4535748Y1882205D1*
Y1949134D1*
X3647953Y2203071D2*
Y2220787D1*
X3681417Y2254252D1*
Y2297559D1*
X3785748D1*
X3819213Y2264094D1*
X4685748Y1949134D2*
X4744409D1*
X4823150Y2027874D1*
X3000315Y2096772D2*
Y1931417D1*
X3366457Y1565276D1*
X4685748Y1860551D2*
Y1949134D1*
X4635748D2*
Y1997953D1*
X4665669Y2027874D1*
X3244409Y2203071D2*
Y2238504D1*
X3248346Y2242441D1*
Y2297559D1*
X4635748Y1949134D2*
Y1821575D1*
X3208976Y2205039D2*
X3210945Y2203071D1*
X3244409D1*
X4585748Y1949134D2*
Y2026693D1*
X4645984Y2086929D1*
X4999676D1*
Y2070394D1*
X3451102Y2203071D2*
Y2240472D1*
X3464882Y2254252D1*
Y2297559D1*
X4585748Y1949134D2*
Y1832205D1*
X3415669Y2214882D2*
X3439291D1*
X3451102Y2203071D1*
X1281516Y3294213D2*
X1250462D1*
X1206516Y3250266D1*
X1131319D1*
X4385748Y2319213D2*
Y2067244D1*
X4114488D2*
X3346772Y2834961D1*
X2303465D1*
X2264094Y2874331D1*
X1378268D1*
X1281516Y2971083D1*
Y3294213D1*
X1781535D2*
X1750462D1*
X1706516Y3250266D1*
X1606319D1*
X4335748Y2319213D2*
Y2229449D1*
X4311339Y2205039D1*
X4016063D1*
X3740472Y2480630D1*
Y2756220D1*
X3622362Y2874331D1*
X2342835D1*
X2283780Y2933386D1*
X1870394D1*
X1781535Y3022244D1*
Y3294213D1*
X2256535D2*
X2225463D1*
X2181516Y3250265D1*
X2093819D1*
X4285748Y2319213D2*
Y2258189D1*
X4271969Y2244409D1*
X4016063D1*
X3779843Y2480630D1*
Y2775906D1*
X3642047Y2913701D1*
X2382205D1*
X2244409Y3051496D1*
Y3282087D1*
X2256535Y3294213D1*
X2750276D2*
X2706713D1*
X2662766Y3250266D1*
X2581319D1*
X4235748Y2319213D2*
X4232598D1*
Y2460945D1*
X3681417Y2953071D2*
X2795591D1*
X2746378Y3002283D1*
X2750276Y3006181D1*
Y3294213D1*
X3250265D2*
X3225462D1*
X3181516Y3250266D1*
X3075070D1*
X4185748Y2319213D2*
Y2547165D1*
X3740472Y2992441D2*
X3307402D1*
X3248346Y3051496D1*
X3250265Y3053415D1*
Y3294213D1*
X3725266D2*
Y3294017D1*
X3681516Y3250266D1*
X3556319D1*
X4135748Y2319213D2*
Y2656220D1*
X3838898Y2953071D2*
Y3012126D1*
X3720787Y3130236D1*
Y3289734D1*
X3725266Y3294213D1*
X4206516D2*
X4181713D1*
X4137765Y3250265D1*
X4031319D1*
X4085748Y2319213D2*
Y2745591D1*
X4075118Y2756220D1*
Y2874331D1*
X4094803Y2894016D1*
X4212913D1*
Y3051496D2*
Y3287815D1*
X4206516Y3294213D1*
X4719016D2*
Y3294016D1*
X4675266Y3250266D1*
X4531319D1*
X4035748Y2319213D2*
Y2913701D1*
X4075118Y2953071D1*
X4645984D1*
X4719016Y3026102D1*
Y3294213D1*
X1050266Y844016D2*
Y881514D1*
X1019211Y912570D1*
X937766D1*
X4035748Y1949134D2*
Y1791654D1*
X3582992Y1338898D1*
X2332992D1*
X2254252Y1260157D1*
X1023937Y925512D2*
Y912570D1*
X1019211D1*
X1525276Y844016D2*
Y862756D1*
X1475462Y912570D1*
X1419016D1*
X4085748Y1949134D2*
Y1762913D1*
X3622362Y1299528D1*
X2362520D1*
X2283780Y1220787D1*
X1604646D1*
X1419016Y912570D2*
D3*
X2019016Y844016D2*
Y881516D1*
X1981713Y918819D1*
X1912766D1*
X4135748Y1949134D2*
Y1734173D1*
X3661732Y1260157D1*
X2362520D1*
X2283780Y1181417D1*
X2008189D1*
X1912766Y1085995D1*
Y918819D1*
X2500266Y844016D2*
Y881514D1*
X2462962Y918819D1*
X2400265D1*
X4185748Y1949134D2*
Y1705433D1*
X3701102Y1220787D1*
X2441260D1*
X2400265Y1179793D1*
Y918819D1*
X2994016Y844016D2*
Y869016D1*
X2944213Y918819D1*
X2887766D1*
X4235748Y1949134D2*
Y1676693D1*
X3740472Y1181417D1*
X2953071D1*
X2887766Y1116113D1*
Y918819D1*
X3487776Y844016D2*
Y869005D1*
X3444211Y912570D1*
X3362766D1*
X4285748Y1949134D2*
Y1647953D1*
X3779843Y1142047D1*
X3405827D1*
X3362766Y1098987D1*
Y912570D1*
X3969016Y844016D2*
Y869016D1*
X3919213Y918819D1*
X3869016D1*
X4335748Y1949134D2*
Y1599528D1*
X3869016Y1132795D1*
Y918819D1*
X4456535Y844016D2*
Y862745D1*
X4400462Y918819D1*
X4344016D1*
X4385748Y1949134D2*
Y1407008D1*
X4344016Y1365276D1*
Y918819D1*
X1160630Y681496D2*
D20*
Y587765D1*
X1265000D1*
X1648150D1*
X1749020D1*
X2137756D1*
X2258634D1*
X2623150D1*
X2728030D1*
X3110630D1*
X3231522D1*
X3598150D1*
X3680171D1*
X4085630D1*
X4181188D1*
X4500265D1*
X4573150Y660650D1*
Y681496D1*
X1648150D2*
Y587765D1*
X2137756Y681496D2*
Y587765D1*
X2623150Y681496D2*
Y587765D1*
X3110630Y681496D2*
Y587765D1*
X3598150Y681496D2*
Y587765D1*
X4085630Y681496D2*
Y587765D1*
X1050266Y1006516D2*
Y1069016D1*
X1087766Y1106516D1*
X1194016D1*
X1265000Y1035531D1*
Y1006516D1*
Y587765D1*
X1525266Y1006516D2*
Y1050266D1*
X1587766Y1112766D1*
X1694016D1*
X1749020Y1057762D1*
Y587765D1*
X2019016Y1006516D2*
Y1037765D1*
X2106516Y1125265D1*
X2200266D1*
X2258634Y1066898D1*
Y587765D1*
X2500247Y1006516D2*
Y1043996D1*
X2556516Y1100265D1*
X2656516D1*
X2728030Y1028751D1*
Y587765D1*
X2994016Y1006516D2*
Y1037765D1*
X3062766Y1106516D1*
X3169016D1*
X3231522Y1044009D1*
Y587765D1*
X3487766Y1006516D2*
Y1050266D1*
X3544016Y1106516D1*
X3631516D1*
X3680171Y1057861D1*
Y587765D1*
X3969016Y1006516D2*
Y1069016D1*
X4031516Y1131516D1*
X4144016D1*
X4181188Y1094344D1*
Y587765D1*
X4456516Y1006516D2*
Y1063307D1*
X4567244D1*
X4606614Y1023937D1*
Y714961D1*
X4573150Y681496D1*
X1010650Y3493130D2*
Y3591240D1*
X1019675Y3600265D1*
X1484184D1*
X1997462D1*
X2473150D1*
X2960650D1*
X3448150D1*
X3935650D1*
X4312766D1*
X4419882Y3493150D1*
X4423150D1*
X1498150Y3493130D2*
Y3586299D1*
X1484184Y3600265D1*
X1987756Y3493150D2*
Y3590559D1*
X1997462Y3600265D1*
X2473150Y3493150D2*
Y3600265D1*
X2960650Y3493150D2*
Y3600265D1*
X3448150Y3493150D2*
Y3600265D1*
X3935650Y3493150D2*
Y3600265D1*
X4531319Y3094016D2*
Y3037570D1*
X4500265Y3006516D1*
X4400265D1*
X4350265Y3056516D1*
Y3420265D1*
X4423150Y3493150D1*
X4031319Y3094016D2*
Y3062570D1*
X3981516Y3012766D1*
X3900265D1*
X3862766Y3050265D1*
Y3420266D1*
X3935650Y3493150D1*
X3556319Y3094016D2*
Y3056319D1*
X3519016Y3019016D1*
X3412766D1*
X3362766Y3069016D1*
Y3407766D1*
X3448150Y3493150D1*
X3075070Y3094016D2*
Y3062570D1*
X3056516Y3044016D1*
X2925265D1*
X2869016Y3100265D1*
Y3401516D1*
X2960650Y3493150D1*
X2581319Y3094016D2*
Y3031319D1*
X2556516Y3006516D1*
X2462765D1*
X2369016Y3100265D1*
Y3389016D1*
X2473150Y3493150D1*
X2094016Y3094016D2*
Y3019017D1*
X2062765Y2987766D1*
X1944016D1*
X1894016Y3037766D1*
Y3399409D1*
X1987756Y3493150D1*
X1606319Y3094016D2*
Y3056319D1*
X1550265Y3000265D1*
X1535748D1*
X1456517D1*
X1412766Y3044016D1*
Y3407747D1*
X1498150Y3493130D1*
X1056516Y3094016D2*
Y3090866D1*
X886142D1*
Y3228661D1*
X846772Y3268031D1*
Y3329252D1*
X1010650Y3493130D1*
X669606Y1338898D2*
X590866D1*
Y1161732D1*
X746083Y1006516D1*
X1050266D1*
X4485748Y1949134D2*
X4488504D1*
Y2047559D1*
X4585748Y2144803D1*
Y2319213D1*
X4635748D1*
X4685748D1*
X1063307Y1085075D2*
X1087766Y1106516D1*
X4585748Y2319213D2*
Y2767244D1*
X4498346Y2854646D1*
X4134173D1*
Y3090866D2*
X4131024Y3094016D1*
X4031319D1*
X1008189Y2834961D2*
Y2775906D1*
X949134Y2716850D1*
X905827D1*
X886142Y2736535D1*
Y3090866D1*
X771969Y2834961D2*
Y2775906D1*
X712913Y2716850D1*
X669606D1*
X634173Y2752283D1*
Y2834961D1*
Y3173543D1*
X728661Y3268031D1*
X846772D1*
X551496Y2834961D2*
X634173D1*
X4527874Y1732598D2*
Y1781811D1*
X4485748Y1823937D1*
Y1949134D1*
X4527874Y1732598D2*
Y1516063D1*
X4488504Y1476693D1*
Y1299528D1*
X4456516Y1267539D1*
Y1006516D1*
X1525266D2*
X1265000D1*
X1496378Y1342835D2*
Y1035404D1*
X1525266Y1006516D1*
X1270000Y1299528D2*
X1388110D1*
X1431417Y1342835D1*
X1496378D1*
X3037717Y2096772D2*
Y2050718D1*
Y1968819D1*
X3100709Y2116457D2*
Y2086929D1*
X3064497Y2050718D1*
X3037717D1*
X3244409Y2096772D2*
Y2053358D1*
Y1984567D1*
X3228661Y1968819D1*
X3037717D1*
X3307402Y2116457D2*
Y2067244D1*
X3293516Y2053358D1*
X3244409D1*
X3451102Y2096772D2*
Y2047118D1*
Y2004252D1*
X3415669Y1968819D1*
X3228661D1*
X3647953Y2096772D2*
Y2047289D1*
Y1984567D1*
X3632205Y1968819D1*
X3415669D1*
X3710945Y2116457D2*
Y2077087D1*
X3681147Y2047289D1*
X3647953D1*
X3514094Y2116457D2*
Y2077087D1*
X3484126Y2047118D1*
X3451102D1*
X1535748Y2933386D2*
Y3000265D1*
X3037717Y2203071D2*
D14*
Y2228661D1*
X3031811Y2234567D1*
Y2297559D1*
X2968819D1*
X2510157Y2756220D1*
X1151890D1*
X1092835Y2697165D1*
Y2579055D1*
X1053465Y2539685D1*
X984567D1*
X945197Y2579055D1*
Y2638110D1*
X3207008Y2096772D2*
Y2039685D1*
X1240472Y1638110D2*
Y2086929D1*
X895984Y2431417D1*
Y2647953D1*
X935354Y2687323D1*
X1033780D1*
X1102677Y2756220D1*
Y2933386D1*
X1043622Y2992441D1*
X1008189D1*
X1131319Y3094016D2*
Y3169606D1*
X1056516D1*
Y3250266D1*
X1531516Y3094016D2*
Y3250266D1*
X476693Y2834961D2*
Y2992441D1*
X2019213Y3094016D2*
Y3250068D1*
X2019016Y3250265D1*
X2506516Y3094016D2*
Y3250266D1*
X3000266Y3094016D2*
Y3250266D1*
X3481516Y3094016D2*
Y3250266D1*
X3956516Y3094016D2*
Y3250265D1*
X4456516Y3094016D2*
Y3250266D1*
X1125070Y1006516D2*
Y844016D1*
X1600079D2*
Y1006507D1*
X1600070Y1006516D1*
X2093819Y844016D2*
Y1006516D1*
X2575070Y844016D2*
Y1006496D1*
X2575050Y1006516D1*
X3068819Y844016D2*
Y1006516D1*
X3562579Y844016D2*
Y1006507D1*
X3562570Y1006516D1*
X4043819Y844016D2*
Y1006516D1*
X4531339Y844016D2*
Y1006496D1*
X4531319Y1006516D1*
X905827Y1338898D2*
D17*
Y1319213D1*
X974724Y1250315D1*
X1092835D1*
X1281516Y3369016D2*
D14*
X1206516D1*
X1160650Y3414882D1*
Y3493130D1*
X1781535Y3369016D2*
X1694016D1*
X1648150Y3414882D1*
Y3493130D1*
X2256535Y3369016D2*
X2169016D1*
X2137756Y3400276D1*
Y3493150D1*
X2750276Y3369016D2*
X2675265D1*
X2623150Y3421131D1*
Y3493150D1*
X3250265Y3369016D2*
X3156516D1*
X3110650Y3414882D1*
Y3493150D1*
X3725266Y3369016D2*
X3650266D1*
X3598150Y3421133D1*
Y3493150D1*
X4206516Y3369016D2*
X4125266D1*
X4085650Y3408633D1*
Y3493150D1*
X4719016Y3369016D2*
X4619016D1*
X4573150Y3414882D1*
Y3493150D1*
X937766Y837766D2*
Y800265D1*
X1010630Y727402D1*
Y681496D1*
X1419016Y837766D2*
Y812765D1*
X1498150Y733631D1*
Y681496D1*
X1912766Y844016D2*
Y806516D1*
X1987756Y731526D1*
Y681496D1*
X2400265Y844016D2*
Y806516D1*
X2473150Y733631D1*
Y681496D1*
X2887766Y844016D2*
Y800265D1*
X2960630Y727402D1*
Y681496D1*
X3362766Y837766D2*
X3450265Y750268D1*
Y683612D1*
X3448150Y681496D1*
X3869016Y844016D2*
Y806516D1*
X3935630Y739902D1*
Y681496D1*
X4344016Y844016D2*
Y806516D1*
X4423150Y727382D1*
Y681496D1*
X4535748Y2319213D2*
Y2374331D1*
X4498346Y2411732D1*
Y2484567D1*
X697165Y2834961D2*
Y2992441D1*
X933386Y2834961D2*
Y2992441D1*
X1338898Y1638110D2*
Y1594803D1*
X1299528Y1555433D1*
X1220787D1*
X1191260Y1584961D1*
Y1998346D1*
X768031Y2421575D1*
Y2697165D1*
X846772Y2775906D1*
Y2953071D1*
X807402Y2992441D1*
X771969D1*
X3413701Y2096772D2*
Y2029843D1*
D40*
X3610551D3*
X551496Y3149921D3*
X2919764Y2258033D3*
X3139480Y2417886D3*
X4498346Y2624331D3*
X4488504Y2175512D3*
X3169606Y2264094D3*
X3327087D3*
X3169606D3*
X3533780D3*
X3327087D3*
X3750315Y2254252D3*
X3533780Y2264094D3*
X2982598Y2372362D3*
X4547559Y1870394D3*
X3819213Y2264094D3*
X4823150Y2027874D3*
X3366457Y1565276D3*
X4685748Y1860551D3*
X4665669Y2027874D3*
X4635748Y1821575D3*
X3208976Y2205039D3*
X4585748Y1832205D3*
X3415669Y2214882D3*
X4385748Y2067244D3*
X4114488D3*
X4232598Y2460945D3*
X3681417Y2953071D3*
X4185748Y2547165D3*
X3740472Y2992441D3*
X4135748Y2656220D3*
X3838898Y2953071D3*
X4212913Y2894016D3*
Y3051496D3*
X2254252Y1260157D3*
X1023937Y925512D3*
X1604646Y1220787D3*
X1419016Y912570D3*
X4134173Y2854646D3*
Y3090866D3*
X3037717Y1968819D3*
X1535748Y2933386D3*
X3207008Y2039685D3*
X3413701Y2029843D3*
X433956Y3719147D2*
D23*
X477902D1*
X625076D2*
X4966117D1*
X5113254D2*
X5154007D1*
X433885Y3694278D2*
X463621D1*
X639358D2*
X4951799D1*
X5127572D2*
X5154007D1*
X433849Y3669409D2*
X457951D1*
X645027D2*
X4946130D1*
X5133242D2*
X5154007D1*
X433813Y3644541D2*
X459243D1*
X643735D2*
X4947457D1*
X5131914D2*
X5154007D1*
X433777Y3619672D2*
X467891D1*
X635123D2*
X4956069D1*
X5123302D2*
X5154007D1*
X433705Y3594803D2*
X486802D1*
X616212D2*
X4974980D1*
X5104391D2*
X5154007D1*
X433669Y3569934D2*
X5154007D1*
X433633Y3545066D2*
X966645D1*
X1054681D2*
X1116641D1*
X1204677D2*
X1454132D1*
X1542168D2*
X1604128D1*
X1692164D2*
X1943700D1*
X2031807D2*
X2093696D1*
X2181803D2*
X2429105D1*
X2517177D2*
X2579101D1*
X2667209D2*
X2916592D1*
X3004700D2*
X3066588D1*
X3154695D2*
X3404114D1*
X3492186D2*
X3554110D1*
X3642182D2*
X3891601D1*
X3979709D2*
X4041597D1*
X4129705D2*
X4379088D1*
X4467195D2*
X4529119D1*
X4617191D2*
X5154007D1*
X433562Y3520197D2*
X947411D1*
X1073879D2*
X1097407D1*
X1223875D2*
X1434934D1*
X1561366D2*
X1584930D1*
X1711398D2*
X1924502D1*
X2051006D2*
X2074498D1*
X2201001D2*
X2409907D1*
X2536375D2*
X2559903D1*
X2686407D2*
X2897394D1*
X3023898D2*
X3047390D1*
X3173893D2*
X3384916D1*
X3511384D2*
X3534912D1*
X3661380D2*
X3872403D1*
X3998907D2*
X4022399D1*
X4148903D2*
X4359890D1*
X4486393D2*
X4509921D1*
X4636389D2*
X5154007D1*
X433526Y3495328D2*
X941706D1*
X1079621D2*
X1091701D1*
X1229616D2*
X1429192D1*
X1567107D2*
X1579219D1*
X1717103D2*
X1918796D1*
X2056711D2*
X2068792D1*
X2206707D2*
X2404201D1*
X2542116D2*
X2554197D1*
X2692112D2*
X2891688D1*
X3029603D2*
X3041684D1*
X3179599D2*
X3379211D1*
X3517090D2*
X3529207D1*
X3667122D2*
X3866697D1*
X4004612D2*
X4016693D1*
X4154608D2*
X4354184D1*
X4492099D2*
X4504180D1*
X4642095D2*
X5154007D1*
X433490Y3470459D2*
X945653D1*
X1075673D2*
X1095649D1*
X1225669D2*
X1433139D1*
X1563160D2*
X1583135D1*
X1713156D2*
X1922743D1*
X2052764D2*
X2072739D1*
X2202760D2*
X2408149D1*
X2538133D2*
X2558145D1*
X2688165D2*
X2895635D1*
X3025656D2*
X3045631D1*
X3175652D2*
X3383158D1*
X3513143D2*
X3533154D1*
X3663138D2*
X3870645D1*
X4000665D2*
X4020641D1*
X4150661D2*
X4358131D1*
X4488152D2*
X4508163D1*
X4638148D2*
X5154007D1*
X433418Y3445591D2*
X961657D1*
X1059633D2*
X1111653D1*
X1209629D2*
X1449144D1*
X1547156D2*
X1599176D1*
X1697152D2*
X1938784D1*
X2036724D2*
X2088779D1*
X2186720D2*
X2424189D1*
X2522129D2*
X2574185D1*
X2672125D2*
X2911676D1*
X3009616D2*
X3061672D1*
X3159612D2*
X3399198D1*
X3497102D2*
X3549194D1*
X3647134D2*
X3886685D1*
X3984625D2*
X4036681D1*
X4134621D2*
X4374172D1*
X4472112D2*
X4524167D1*
X4622107D2*
X5154007D1*
X433382Y3420722D2*
X1125146D1*
X1203959D2*
X1223002D1*
X1340032D2*
X1612668D1*
X1691446D2*
X1723012D1*
X1840042D2*
X2102272D1*
X2173227D2*
X2198011D1*
X2315041D2*
X2587677D1*
X2672699D2*
X2691741D1*
X2808808D2*
X3075164D1*
X3153978D2*
X3191752D1*
X3308782D2*
X3562651D1*
X3647708D2*
X3666751D1*
X3783781D2*
X4050173D1*
X4122707D2*
X4147993D1*
X4265024D2*
X4537660D1*
X4616474D2*
X4660491D1*
X4777522D2*
X5154007D1*
X433346Y3395853D2*
X1131210D1*
X1340032D2*
X1618697D1*
X1840042D2*
X2102559D1*
X2315041D2*
X2599268D1*
X2808808D2*
X3081193D1*
X3308782D2*
X3574277D1*
X3783781D2*
X4052721D1*
X4265024D2*
X4543688D1*
X4777522D2*
X5154007D1*
X433311Y3370984D2*
X1155396D1*
X1340032D2*
X1642883D1*
X1840042D2*
X2117882D1*
X2315041D2*
X2624136D1*
X2808808D2*
X3105378D1*
X3308782D2*
X3599145D1*
X3783781D2*
X4074144D1*
X4265024D2*
X4567910D1*
X4777522D2*
X5154007D1*
X433239Y3346115D2*
X1180264D1*
X1340032D2*
X1667750D1*
X1840042D2*
X2142749D1*
X2315041D2*
X2649003D1*
X2808808D2*
X3130246D1*
X3308782D2*
X3624013D1*
X3783781D2*
X4099012D1*
X4265024D2*
X4592778D1*
X4777522D2*
X5154007D1*
X433203Y3321247D2*
X1223002D1*
X1340032D2*
X1723012D1*
X1840042D2*
X2198011D1*
X2315041D2*
X2685318D1*
X2808808D2*
X3191752D1*
X3308782D2*
X3666751D1*
X3783781D2*
X4147993D1*
X4265024D2*
X4660491D1*
X4777522D2*
X5154007D1*
X433167Y3296378D2*
X1001919D1*
X1185910D2*
X1203481D1*
X1340032D2*
X1476918D1*
X1660909D2*
X1703491D1*
X1840042D2*
X1964441D1*
X2148395D2*
X2178490D1*
X2315041D2*
X2451927D1*
X2635918D2*
X2659733D1*
X2808808D2*
X2945694D1*
X3129648D2*
X3178475D1*
X3308782D2*
X3426937D1*
X3610891D2*
X3666751D1*
X3783781D2*
X3901936D1*
X4085890D2*
X4134716D1*
X4265024D2*
X4401946D1*
X4585900D2*
X4660491D1*
X4777522D2*
X5154007D1*
X433095Y3271509D2*
X1001919D1*
X1340032D2*
X1476918D1*
X1840042D2*
X1964441D1*
X2315041D2*
X2451927D1*
X2808808D2*
X2945694D1*
X3308782D2*
X3426937D1*
X3783781D2*
X3901936D1*
X4265024D2*
X4401946D1*
X4777522D2*
X5154007D1*
X433059Y3246640D2*
X1001919D1*
X1340032D2*
X1476918D1*
X1840042D2*
X1964441D1*
X2315041D2*
X2451927D1*
X2808808D2*
X2945694D1*
X3308782D2*
X3426937D1*
X3783781D2*
X3901936D1*
X4265024D2*
X4401946D1*
X4777522D2*
X5154007D1*
X433023Y3221772D2*
X1001919D1*
X1225633D2*
X1246039D1*
X1316994D2*
X1476918D1*
X1725644D2*
X1746050D1*
X1817041D2*
X1964441D1*
X2200643D2*
X2208920D1*
X2279911D2*
X2451927D1*
X2681885D2*
X2714779D1*
X2785770D2*
X2945694D1*
X3200627D2*
X3214789D1*
X3285744D2*
X3426937D1*
X3756258D2*
X3901936D1*
X4156905D2*
X4177419D1*
X4248410D2*
X4401946D1*
X4754520D2*
X5154007D1*
X432988Y3196903D2*
X1001919D1*
X1185910D2*
X1246039D1*
X1316994D2*
X1476918D1*
X1660909D2*
X1746050D1*
X1817041D2*
X1964441D1*
X2148395D2*
X2208920D1*
X2279911D2*
X2451927D1*
X2635918D2*
X2714779D1*
X2785770D2*
X2945694D1*
X3129648D2*
X3214789D1*
X3285744D2*
X3426937D1*
X3610891D2*
X3685303D1*
X3756258D2*
X3901936D1*
X4085890D2*
X4177419D1*
X4248410D2*
X4401946D1*
X4585900D2*
X4683529D1*
X4754520D2*
X5154007D1*
X432916Y3172034D2*
X508117D1*
X594897D2*
X1021010D1*
X1166712D2*
X1246039D1*
X1316994D2*
X1496044D1*
X1567000D2*
X1746050D1*
X1817041D2*
X1983711D1*
X2054702D2*
X2208920D1*
X2279911D2*
X2471018D1*
X2542009D2*
X2714779D1*
X2785770D2*
X2964784D1*
X3035739D2*
X3214789D1*
X3285744D2*
X3446027D1*
X3517018D2*
X3685303D1*
X3756258D2*
X3921026D1*
X3992017D2*
X4177419D1*
X4248410D2*
X4421036D1*
X4491991D2*
X4683529D1*
X4754520D2*
X5154007D1*
X432880Y3147165D2*
X502591D1*
X600423D2*
X1029837D1*
X1185910D2*
X1246039D1*
X1316994D2*
X1476918D1*
X1586090D2*
X1746050D1*
X1817041D2*
X1964620D1*
X2073792D2*
X2208920D1*
X2279911D2*
X2451927D1*
X2561099D2*
X2714779D1*
X2785770D2*
X2945694D1*
X3054866D2*
X3214789D1*
X3285744D2*
X3426937D1*
X3536108D2*
X3685303D1*
X3756258D2*
X3901936D1*
X4011107D2*
X4177419D1*
X4248410D2*
X4401946D1*
X4511082D2*
X4683529D1*
X4754520D2*
X5154007D1*
X432844Y3122297D2*
X511598D1*
X591380D2*
X1076738D1*
X1185910D2*
X1246039D1*
X1316994D2*
X1476918D1*
X1586090D2*
X1746050D1*
X1817041D2*
X1964620D1*
X2073792D2*
X2208920D1*
X2279911D2*
X2451927D1*
X2561099D2*
X2714779D1*
X2785770D2*
X2945694D1*
X3054866D2*
X3214789D1*
X3285744D2*
X3426937D1*
X3536108D2*
X3686272D1*
X3777896D2*
X3901936D1*
X4011107D2*
X4177419D1*
X4248410D2*
X4401946D1*
X4511082D2*
X4683529D1*
X4754520D2*
X5154007D1*
X432772Y3097428D2*
X516011D1*
X586967D2*
X1076738D1*
X1185910D2*
X1246039D1*
X1316994D2*
X1476918D1*
X1586090D2*
X1746050D1*
X1817041D2*
X1964620D1*
X2073792D2*
X2208920D1*
X2279911D2*
X2451927D1*
X2561099D2*
X2714779D1*
X2785770D2*
X2945694D1*
X3054866D2*
X3214789D1*
X3285744D2*
X3426937D1*
X3536108D2*
X3704429D1*
X3802764D2*
X3901936D1*
X4011107D2*
X4177419D1*
X4248410D2*
X4401946D1*
X4511082D2*
X4683529D1*
X4754520D2*
X5154007D1*
X432736Y3072559D2*
X516011D1*
X586967D2*
X1076738D1*
X1185910D2*
X1246039D1*
X1316994D2*
X1476918D1*
X1586090D2*
X1746050D1*
X1817041D2*
X1964620D1*
X2073792D2*
X2208920D1*
X2279911D2*
X2451927D1*
X2561099D2*
X2714779D1*
X2785770D2*
X2945694D1*
X3054866D2*
X3214789D1*
X3285744D2*
X3426937D1*
X3536108D2*
X3729297D1*
X3827632D2*
X3901936D1*
X4011107D2*
X4168950D1*
X4256878D2*
X4401946D1*
X4511082D2*
X4683529D1*
X4754520D2*
X5154007D1*
X606093Y3047690D2*
X642575D1*
X826565D2*
X878801D1*
X1062755D2*
X1076738D1*
X1185910D2*
X1246039D1*
X1316994D2*
X1476918D1*
X1586090D2*
X1746050D1*
X1817041D2*
X1964620D1*
X2073792D2*
X2209135D1*
X2297350D2*
X2451927D1*
X2561099D2*
X2714779D1*
X2785770D2*
X2945694D1*
X3054866D2*
X3213067D1*
X3301318D2*
X3426937D1*
X3536108D2*
X3754165D1*
X3852499D2*
X3901936D1*
X4011107D2*
X4164070D1*
X4261758D2*
X4401946D1*
X4511082D2*
X4683529D1*
X4754520D2*
X5154007D1*
X606093Y3022822D2*
X642575D1*
X826565D2*
X878801D1*
X1062755D2*
X1246039D1*
X1316994D2*
X1746050D1*
X1830102D2*
X2223919D1*
X2322254D2*
X2714779D1*
X2785770D2*
X3227851D1*
X3872594D2*
X4173830D1*
X4251998D2*
X4666592D1*
X4754341D2*
X5154007D1*
X606093Y2997953D2*
X642575D1*
X851038D2*
X878801D1*
X1087264D2*
X1246039D1*
X1316994D2*
X1756671D1*
X1854970D2*
X2248787D1*
X2347122D2*
X2711191D1*
X2799873D2*
X3252755D1*
X3789128D2*
X3803398D1*
X3874389D2*
X4641724D1*
X4740023D2*
X5154007D1*
X606093Y2973084D2*
X642575D1*
X1112132D2*
X1246039D1*
X1328657D2*
X1781539D1*
X1879838D2*
X2273655D1*
X2371990D2*
X2726441D1*
X3785252D2*
X3794427D1*
X3883360D2*
X4045975D1*
X4715155D2*
X5154007D1*
X606093Y2948215D2*
X642575D1*
X1134631D2*
X1255226D1*
X1353525D2*
X1806407D1*
X2396857D2*
X2751309D1*
X3757299D2*
X3790156D1*
X3887630D2*
X4021107D1*
X4690287D2*
X5154007D1*
X432449Y2923346D2*
X441193D1*
X512184D2*
X661665D1*
X732656D2*
X811267D1*
X882258D2*
X897891D1*
X968882D2*
X1063568D1*
X1138148D2*
X1280093D1*
X1378392D2*
X1831275D1*
X3719656D2*
X3800635D1*
X3877152D2*
X4001694D1*
X4662800D2*
X5154007D1*
X432413Y2898478D2*
X441193D1*
X512184D2*
X661665D1*
X732656D2*
X811267D1*
X882258D2*
X897891D1*
X968882D2*
X1067193D1*
X1138148D2*
X1304961D1*
X3706415D2*
X4000258D1*
X4261687D2*
X5154007D1*
X531274Y2873609D2*
X642575D1*
X751747D2*
X811267D1*
X987972D2*
X1067193D1*
X1138148D2*
X1329829D1*
X3731283D2*
X4000258D1*
X4257201D2*
X5154007D1*
X531274Y2848740D2*
X642575D1*
X751747D2*
X811267D1*
X987972D2*
X1067193D1*
X1138148D2*
X1354948D1*
X3756150D2*
X4000258D1*
X4110614D2*
X4199846D1*
X4225982D2*
X5154007D1*
X531274Y2823871D2*
X642575D1*
X751747D2*
X811267D1*
X987972D2*
X1067193D1*
X1138148D2*
X2265401D1*
X3406997D2*
X3623654D1*
X3781018D2*
X4000258D1*
X4110614D2*
X5154007D1*
X531274Y2799003D2*
X642575D1*
X751747D2*
X811267D1*
X987972D2*
X1067193D1*
X1138148D2*
X3333566D1*
X3431865D2*
X3648522D1*
X3805886D2*
X4000258D1*
X4110614D2*
X5154007D1*
X432198Y2774134D2*
X795836D1*
X882222D2*
X1067193D1*
X2541399D2*
X3358434D1*
X3456769D2*
X3673389D1*
X3815323D2*
X4000258D1*
X4110614D2*
X5154007D1*
X432126Y2749265D2*
X770969D1*
X869267D2*
X1046559D1*
X2566267D2*
X3383301D1*
X3481636D2*
X3698293D1*
X3815323D2*
X4000258D1*
X4121021D2*
X5154007D1*
X432090Y2724396D2*
X746101D1*
X844400D2*
X1021691D1*
X2591134D2*
X3408169D1*
X3506504D2*
X3704967D1*
X3815323D2*
X4000258D1*
X4121236D2*
X5154007D1*
X432055Y2699528D2*
X732644D1*
X819532D2*
X898393D1*
X1144356D2*
X2517703D1*
X2616002D2*
X3433037D1*
X3531372D2*
X3704967D1*
X3815323D2*
X4000258D1*
X4155147D2*
X5154007D1*
X431983Y2674659D2*
X732537D1*
X1184367D2*
X1198134D1*
X1282797D2*
X1296564D1*
X1381227D2*
X1394995D1*
X1479658D2*
X1493425D1*
X1578052D2*
X1591855D1*
X1676482D2*
X1690286D1*
X1791706D2*
X2542571D1*
X2640870D2*
X3457905D1*
X3556239D2*
X3704967D1*
X3815323D2*
X4000258D1*
X4180911D2*
X5154007D1*
X431947Y2649790D2*
X732537D1*
X1807172D2*
X2567439D1*
X2665738D2*
X3482772D1*
X3581107D2*
X3704967D1*
X3815323D2*
X4000258D1*
X4184285D2*
X4456956D1*
X4539753D2*
X5154007D1*
X431911Y2624921D2*
X732537D1*
X1831574D2*
X2592306D1*
X2690605D2*
X3507676D1*
X3605975D2*
X3704967D1*
X3815323D2*
X4000258D1*
X4172622D2*
X4449349D1*
X4547325D2*
X5154007D1*
X431875Y2600052D2*
X732537D1*
X986071D2*
X1002745D1*
X1182931D2*
X1199605D1*
X1281361D2*
X1298000D1*
X1379792D2*
X1396430D1*
X1478222D2*
X1494860D1*
X1576617D2*
X1593291D1*
X1856441D2*
X2617174D1*
X2715473D2*
X3532544D1*
X3630843D2*
X3704967D1*
X3815323D2*
X4000258D1*
X4171223D2*
X4439840D1*
X4556870D2*
X5154007D1*
X431803Y2575184D2*
X732537D1*
X803528D2*
X860500D1*
X998235D2*
X1039813D1*
X1128100D2*
X1690250D1*
X1881309D2*
X2642042D1*
X2740341D2*
X3557412D1*
X3655710D2*
X3704967D1*
X3815323D2*
X4000258D1*
X4225336D2*
X4439840D1*
X4556870D2*
X5154007D1*
X431767Y2550315D2*
X732537D1*
X803528D2*
X860500D1*
X1113244D2*
X1714902D1*
X1906177D2*
X2666910D1*
X2765208D2*
X3582279D1*
X3680578D2*
X3704967D1*
X3815323D2*
X4000258D1*
X4234630D2*
X4439840D1*
X4556870D2*
X5154007D1*
X431732Y2525446D2*
X732537D1*
X803528D2*
X860500D1*
X931455D2*
X949636D1*
X1088376D2*
X1739770D1*
X1931081D2*
X2691777D1*
X2790076D2*
X3607147D1*
X3815323D2*
X4000258D1*
X4229355D2*
X4439840D1*
X4556870D2*
X5154007D1*
X431660Y2500577D2*
X732537D1*
X803528D2*
X860500D1*
X931455D2*
X1764638D1*
X1951319D2*
X2716645D1*
X2814944D2*
X3632015D1*
X3815323D2*
X4000258D1*
X4259390D2*
X4439840D1*
X4556870D2*
X5154007D1*
X431624Y2475709D2*
X732537D1*
X803528D2*
X860500D1*
X931455D2*
X1789505D1*
X1958245D2*
X2741513D1*
X2839812D2*
X3656883D1*
X3833911D2*
X4000258D1*
X4279198D2*
X4439840D1*
X4556870D2*
X5154007D1*
X431588Y2450840D2*
X732537D1*
X803528D2*
X860500D1*
X931455D2*
X1814373D1*
X1958424D2*
X2766381D1*
X2864679D2*
X3104194D1*
X3174791D2*
X3681750D1*
X3858779D2*
X4000258D1*
X4280490D2*
X4439840D1*
X4556870D2*
X5154007D1*
X431516Y2425971D2*
X732537D1*
X812786D2*
X860966D1*
X950581D2*
X1821729D1*
X1958424D2*
X2791248D1*
X2889547D2*
X3091204D1*
X3187781D2*
X3706618D1*
X3883647D2*
X4000258D1*
X4268074D2*
X4462841D1*
X4533832D2*
X4937230D1*
X5062119D2*
X5154007D1*
X431480Y2401102D2*
X739678D1*
X837654D2*
X877150D1*
X975449D2*
X1821729D1*
X1958424D2*
X2816116D1*
X2914415D2*
X2943541D1*
X3908515D2*
X4000258D1*
X4268074D2*
X4464636D1*
X4558126D2*
X4937230D1*
X5062119D2*
X5154007D1*
X431445Y2376234D2*
X764222D1*
X862521D2*
X902018D1*
X1000317D2*
X1821729D1*
X1958424D2*
X2840984D1*
X3739931D2*
X3756353D1*
X3933382D2*
X3994947D1*
X4576535D2*
X4937230D1*
X5062119D2*
X5154007D1*
X431409Y2351365D2*
X789090D1*
X887389D2*
X926885D1*
X1025184D2*
X1821729D1*
X1958424D2*
X2865852D1*
X3739931D2*
X3781221D1*
X3958250D2*
X3994947D1*
X4576535D2*
X4937230D1*
X5062119D2*
X5154007D1*
X431337Y2326496D2*
X813958D1*
X912257D2*
X951753D1*
X1050052D2*
X1821729D1*
X1958424D2*
X2890719D1*
X3139552D2*
X3189814D1*
X3306880D2*
X3406375D1*
X3523405D2*
X3622900D1*
X3983118D2*
X3994946D1*
X4576535D2*
X4937230D1*
X5062119D2*
X5154007D1*
X431301Y2301627D2*
X838826D1*
X937124D2*
X976621D1*
X1074920D2*
X1821729D1*
X1958424D2*
X2901090D1*
X3357010D2*
X3406375D1*
X3563703D2*
X3622900D1*
X4576535D2*
X4945986D1*
X5053364D2*
X5154007D1*
X431265Y2276759D2*
X863693D1*
X961992D2*
X1001489D1*
X1099788D2*
X1821729D1*
X1958424D2*
X2874715D1*
X3374307D2*
X3406375D1*
X3581000D2*
X3622900D1*
X4576535D2*
X4937553D1*
X5061796D2*
X5154007D1*
X431193Y2251890D2*
X888561D1*
X986860D2*
X1026356D1*
X1124655D2*
X1821729D1*
X1958424D2*
X2871162D1*
X3595138D2*
X3622900D1*
X3866566D2*
X3880692D1*
X4421228D2*
X4940137D1*
X5059213D2*
X5154007D1*
X431157Y2227021D2*
X913429D1*
X1011728D2*
X1051224D1*
X1149523D2*
X1821729D1*
X1958424D2*
X2882609D1*
X3849772D2*
X3905560D1*
X4421228D2*
X4955782D1*
X5043567D2*
X5154007D1*
X431122Y2202152D2*
X938297D1*
X1036595D2*
X1076092D1*
X1174391D2*
X1821729D1*
X1958424D2*
X2909953D1*
X3769463D2*
X3930428D1*
X4421228D2*
X4447914D1*
X4529096D2*
X4946309D1*
X5053041D2*
X5154007D1*
X431086Y2177283D2*
X963164D1*
X1061463D2*
X1100960D1*
X1199258D2*
X1821729D1*
X1958424D2*
X2922118D1*
X3769463D2*
X3955295D1*
X4331661D2*
X4350273D1*
X4421228D2*
X4436395D1*
X4537457D2*
X4937625D1*
X5061725D2*
X5154007D1*
X431014Y2152415D2*
X988032D1*
X1086331D2*
X1125827D1*
X1224126D2*
X1821729D1*
X1958424D2*
X2922118D1*
X3003731D2*
X3042186D1*
X3205077D2*
X3248879D1*
X3411770D2*
X3455572D1*
X3608630D2*
X3652433D1*
X3769463D2*
X3980163D1*
X4078462D2*
X4350273D1*
X4531356D2*
X4939993D1*
X5059356D2*
X5154007D1*
X430978Y2127546D2*
X1012900D1*
X1111199D2*
X1150695D1*
X1248994D2*
X1821729D1*
X1958424D2*
X2922118D1*
X3041122D2*
X3128811D1*
X3247815D2*
X3335504D1*
X3454508D2*
X3532364D1*
X3651368D2*
X4005031D1*
X4103330D2*
X4350273D1*
X4494432D2*
X4955244D1*
X5044105D2*
X5154007D1*
X430942Y2102677D2*
X1037768D1*
X1136066D2*
X1175563D1*
X1271960D2*
X1821729D1*
X1958424D2*
X2922118D1*
X3041122D2*
X3128811D1*
X3247815D2*
X3335504D1*
X3454508D2*
X3532364D1*
X3651368D2*
X4029899D1*
X4147073D2*
X4350273D1*
X4474588D2*
X4612586D1*
X5052682D2*
X5154007D1*
X430870Y2077808D2*
X1062635D1*
X1160934D2*
X1200431D1*
X1275943D2*
X1821729D1*
X1958424D2*
X2922118D1*
X3041122D2*
X3128811D1*
X3247815D2*
X3335504D1*
X3454508D2*
X3532364D1*
X3651368D2*
X4054766D1*
X4162252D2*
X4337964D1*
X4474588D2*
X4587718D1*
X5061689D2*
X5154007D1*
X430835Y2052940D2*
X1087503D1*
X1185802D2*
X1204988D1*
X1275943D2*
X1821729D1*
X1958424D2*
X2922118D1*
X3041122D2*
X3128811D1*
X3254059D2*
X3335504D1*
X3456553D2*
X3532364D1*
X3653414D2*
X4067756D1*
X4161211D2*
X4339005D1*
X4474588D2*
X4562851D1*
X4707332D2*
X4781493D1*
X4864792D2*
X4939814D1*
X5059536D2*
X5154007D1*
X430799Y2028071D2*
X1112371D1*
X1275943D2*
X1821729D1*
X1958424D2*
X2964820D1*
X3035811D2*
X3159492D1*
X3254525D2*
X3364749D1*
X3462654D2*
X3561610D1*
X3659514D2*
X4086954D1*
X4142013D2*
X4358203D1*
X4474588D2*
X4550291D1*
X4714653D2*
X4774173D1*
X4872148D2*
X4954706D1*
X5044644D2*
X5154007D1*
X430763Y2003202D2*
X1137238D1*
X1275943D2*
X1821729D1*
X1958424D2*
X2964820D1*
X3035811D2*
X3175676D1*
X3238341D2*
X3373110D1*
X3454293D2*
X3569935D1*
X3651153D2*
X3994947D1*
X4476561D2*
X4494958D1*
X4726566D2*
X4749341D1*
X4865043D2*
X4946991D1*
X5052359D2*
X5154007D1*
X430691Y1978333D2*
X1155755D1*
X1275943D2*
X1821729D1*
X1958424D2*
X2964820D1*
X3035811D2*
X3994947D1*
X4476561D2*
X4494958D1*
X4822772D2*
X4937733D1*
X5061617D2*
X5154007D1*
X430655Y1953465D2*
X1155755D1*
X1275943D2*
X1821729D1*
X1958424D2*
X2964820D1*
X3035811D2*
X3994947D1*
X4476561D2*
X4494958D1*
X4797904D2*
X4939670D1*
X5059679D2*
X5154007D1*
X430619Y1928596D2*
X1155755D1*
X1275943D2*
X1821729D1*
X1958424D2*
X2964964D1*
X3052282D2*
X3994947D1*
X4476561D2*
X4494958D1*
X4773036D2*
X4954204D1*
X5045146D2*
X5154007D1*
X430547Y1903727D2*
X1155755D1*
X1275943D2*
X1821729D1*
X1958424D2*
X2978851D1*
X3077150D2*
X3994947D1*
X4476561D2*
X4494958D1*
X4726566D2*
X4947350D1*
X5052000D2*
X5154007D1*
X430512Y1878858D2*
X1155755D1*
X1275943D2*
X1821729D1*
X1958424D2*
X3003719D1*
X3102017D2*
X4000258D1*
X4471250D2*
X4499336D1*
X4730980D2*
X4937804D1*
X5061545D2*
X5154007D1*
X430476Y1853990D2*
X1155755D1*
X1275943D2*
X1821729D1*
X1958424D2*
X3028586D1*
X3126885D2*
X4000258D1*
X4487757D2*
X4501560D1*
X4734281D2*
X4939491D1*
X5059859D2*
X5154007D1*
X430404Y1829121D2*
X1155755D1*
X1275943D2*
X1821729D1*
X1958424D2*
X3053454D1*
X3151753D2*
X4000258D1*
X4488547D2*
X4523665D1*
X4722511D2*
X4953701D1*
X5045649D2*
X5154007D1*
X430368Y1804252D2*
X1155755D1*
X1275943D2*
X1821729D1*
X1958424D2*
X3078322D1*
X3176621D2*
X3999182D1*
X4488547D2*
X4546093D1*
X4681388D2*
X5154007D1*
X430332Y1779383D2*
X1155755D1*
X1275943D2*
X1821729D1*
X1958424D2*
X3103190D1*
X3201488D2*
X3974314D1*
X4507637D2*
X4613734D1*
X4657776D2*
X5154007D1*
X430296Y1754514D2*
X1155755D1*
X1275943D2*
X1821729D1*
X1958424D2*
X3128057D1*
X3226356D2*
X3949446D1*
X4507637D2*
X5154007D1*
X430224Y1729646D2*
X1155755D1*
X1275943D2*
X1821729D1*
X1958424D2*
X3152925D1*
X3251224D2*
X3924579D1*
X4507637D2*
X5154007D1*
X430189Y1704777D2*
X1155755D1*
X1275943D2*
X1821729D1*
X1958424D2*
X3177793D1*
X3276092D2*
X3899711D1*
X4507637D2*
X5154007D1*
X430153Y1679908D2*
X810011D1*
X883549D2*
X908441D1*
X981980D2*
X1006835D1*
X1080410D2*
X1105266D1*
X1277235D2*
X1302126D1*
X1375665D2*
X1400557D1*
X1474095D2*
X1498987D1*
X1572526D2*
X1597417D1*
X1670956D2*
X1695812D1*
X1769386D2*
X1821729D1*
X1958424D2*
X3202660D1*
X3300959D2*
X3874843D1*
X4507637D2*
X5154007D1*
X430081Y1655039D2*
X792930D1*
X1786431D2*
X1821729D1*
X1958424D2*
X3227528D1*
X3325863D2*
X3849975D1*
X4421228D2*
X5154007D1*
X430045Y1630171D2*
X790813D1*
X1788549D2*
X1821729D1*
X1958424D2*
X3252396D1*
X3350731D2*
X3825108D1*
X4421228D2*
X5154007D1*
X430009Y1605302D2*
X801327D1*
X892233D2*
X899759D1*
X990664D2*
X998196D1*
X1285919D2*
X1293452D1*
X1384349D2*
X1391858D1*
X1482779D2*
X1490303D1*
X1581210D2*
X1588736D1*
X1679640D2*
X1687172D1*
X1778070D2*
X1821729D1*
X1958424D2*
X3277264D1*
X3392608D2*
X3800240D1*
X4421228D2*
X5154007D1*
X429973Y1580433D2*
X1156078D1*
X1371108D2*
X1799768D1*
X1958424D2*
X3302131D1*
X3412918D2*
X3775372D1*
X4421228D2*
X5154007D1*
X429902Y1555564D2*
X1171508D1*
X1348824D2*
X1774865D1*
X1955482D2*
X3318495D1*
X3414425D2*
X3750504D1*
X4340955D2*
X4350273D1*
X4421228D2*
X5154007D1*
X429866Y1530696D2*
X1196447D1*
X1323848D2*
X1389253D1*
X1941200D2*
X3332884D1*
X3400036D2*
X3725637D1*
X4316051D2*
X4350273D1*
X4421228D2*
X5154007D1*
X429830Y1505827D2*
X1001847D1*
X1916440D2*
X3700769D1*
X4291184D2*
X4350273D1*
X4421228D2*
X5154007D1*
X429758Y1480958D2*
X1001847D1*
X1891572D2*
X3675901D1*
X4266316D2*
X4350273D1*
X4421228D2*
X5154007D1*
X429722Y1456089D2*
X872377D1*
X939278D2*
X1001847D1*
X1866704D2*
X3651033D1*
X4241448D2*
X4350273D1*
X4421228D2*
X5154007D1*
X429686Y1431220D2*
X617313D1*
X721891D2*
X846469D1*
X965186D2*
X1001847D1*
X1841837D2*
X3626166D1*
X4216580D2*
X4350273D1*
X4421228D2*
X5154007D1*
X429614Y1406352D2*
X603820D1*
X735384D2*
X838000D1*
X973655D2*
X1001847D1*
X1552933D2*
X3601298D1*
X4191713D2*
X4335955D1*
X4421228D2*
X5154007D1*
X429579Y1381483D2*
X601236D1*
X737967D2*
X837462D1*
X974193D2*
X1211483D1*
X1328513D2*
X3576430D1*
X4166845D2*
X4312774D1*
X4409386D2*
X5154007D1*
X429543Y1356614D2*
X601236D1*
X737967D2*
X837462D1*
X974193D2*
X1211483D1*
X1328513D2*
X2301573D1*
X4141977D2*
X4308539D1*
X4384518D2*
X5154007D1*
X429507Y1331745D2*
X601236D1*
X737967D2*
X837462D1*
X988941D2*
X1211483D1*
X1328513D2*
X2276705D1*
X4117109D2*
X4308539D1*
X4379494D2*
X5154007D1*
X429435Y1306877D2*
X601236D1*
X737967D2*
X837462D1*
X1183828D2*
X2251801D1*
X4092242D2*
X4308539D1*
X4379494D2*
X5154007D1*
X429399Y1282008D2*
X601703D1*
X737537D2*
X837462D1*
X1183828D2*
X2210714D1*
X4067374D2*
X4308539D1*
X4379494D2*
X5154007D1*
X429363Y1257139D2*
X609849D1*
X729355D2*
X841517D1*
X1183828D2*
X1573160D1*
X1636113D2*
X2205367D1*
X4042506D2*
X4308539D1*
X4379494D2*
X5154007D1*
X429291Y1232270D2*
X634824D1*
X704380D2*
X857772D1*
X1183828D2*
X1557083D1*
X4017638D2*
X4308539D1*
X4379494D2*
X5154007D1*
X429256Y1207402D2*
X697657D1*
X877772D2*
X922005D1*
X1183828D2*
X1557622D1*
X2358928D2*
X2378724D1*
X3992771D2*
X4308539D1*
X4379494D2*
X5154007D1*
X429220Y1182533D2*
X676701D1*
X898728D2*
X1575707D1*
X1633565D2*
X1960135D1*
X2334060D2*
X2364908D1*
X2452155D2*
X2905037D1*
X3967903D2*
X4308539D1*
X4379494D2*
X5154007D1*
X429184Y1157664D2*
X670242D1*
X905188D2*
X1935267D1*
X2309156D2*
X2364765D1*
X2435756D2*
X2880169D1*
X3943035D2*
X4308539D1*
X4379494D2*
X5154007D1*
X429112Y1132795D2*
X673615D1*
X901850D2*
X1910399D1*
X2008734D2*
X2364765D1*
X2435756D2*
X2856809D1*
X2953600D2*
X3347417D1*
X3819737D2*
X3833540D1*
X3918167D2*
X4308539D1*
X4379494D2*
X5154007D1*
X429076Y1107927D2*
X688794D1*
X886635D2*
X1885639D1*
X1983866D2*
X2364765D1*
X2435756D2*
X2852287D1*
X2928733D2*
X3328506D1*
X3420848D2*
X3833540D1*
X3904496D2*
X4308539D1*
X4379494D2*
X5154007D1*
X429040Y1083058D2*
X1877278D1*
X1958998D2*
X2364765D1*
X2435756D2*
X2852287D1*
X2923242D2*
X3327286D1*
X3398241D2*
X3833540D1*
X3904496D2*
X4308539D1*
X4379494D2*
X5154007D1*
X428969Y1058189D2*
X1070494D1*
X1179666D2*
X1545493D1*
X1654665D2*
X1877278D1*
X1948269D2*
X2039223D1*
X2148395D2*
X2364765D1*
X2435756D2*
X2520466D1*
X2629638D2*
X2852287D1*
X2923242D2*
X3014233D1*
X3123404D2*
X3327286D1*
X3398241D2*
X3507999D1*
X3617135D2*
X3833540D1*
X3904496D2*
X3989242D1*
X4098414D2*
X4308539D1*
X4379494D2*
X4476729D1*
X4585900D2*
X5154007D1*
X428933Y1033320D2*
X1070494D1*
X1179666D2*
X1545493D1*
X1654665D2*
X1877278D1*
X1948269D2*
X2039223D1*
X2148395D2*
X2364765D1*
X2435756D2*
X2520466D1*
X2629638D2*
X2852287D1*
X2923242D2*
X3014233D1*
X3123404D2*
X3327286D1*
X3398241D2*
X3507999D1*
X3617135D2*
X3833540D1*
X3904496D2*
X3989242D1*
X4098414D2*
X4308539D1*
X4379494D2*
X4476729D1*
X4585900D2*
X5154007D1*
X428897Y1008451D2*
X1070494D1*
X1179666D2*
X1545493D1*
X1654665D2*
X1877278D1*
X1948269D2*
X2039223D1*
X2148395D2*
X2364765D1*
X2435756D2*
X2520466D1*
X2629638D2*
X2852287D1*
X2923242D2*
X3014233D1*
X3123404D2*
X3327286D1*
X3398241D2*
X3507999D1*
X3617135D2*
X3833540D1*
X3904496D2*
X3989242D1*
X4098414D2*
X4308539D1*
X4379494D2*
X4476729D1*
X4585900D2*
X5154007D1*
X428861Y983583D2*
X1070494D1*
X1179666D2*
X1545493D1*
X1654665D2*
X1877278D1*
X1948269D2*
X2039223D1*
X2148395D2*
X2364765D1*
X2435756D2*
X2520466D1*
X2629638D2*
X2852287D1*
X2923242D2*
X3014233D1*
X3123404D2*
X3327286D1*
X3398241D2*
X3507999D1*
X3617135D2*
X3833540D1*
X3904496D2*
X3989242D1*
X4098414D2*
X4308539D1*
X4379494D2*
X4476729D1*
X4585900D2*
X5154007D1*
X428789Y958714D2*
X879231D1*
X1058987D2*
X1070494D1*
X1179666D2*
X1360510D1*
X1477540D2*
X1545493D1*
X1654665D2*
X1854240D1*
X1971271D2*
X2039223D1*
X2148395D2*
X2341763D1*
X2458793D2*
X2520466D1*
X2629638D2*
X2829250D1*
X2946280D2*
X3014233D1*
X3123404D2*
X3304249D1*
X3421279D2*
X3507999D1*
X3617135D2*
X3810503D1*
X3927533D2*
X3989242D1*
X4098414D2*
X4285502D1*
X4402532D2*
X4476729D1*
X4585900D2*
X5154007D1*
X428753Y933845D2*
X879231D1*
X1072193D2*
X1089584D1*
X1160575D2*
X1360510D1*
X1503341D2*
X1564583D1*
X1635574D2*
X1854240D1*
X2015839D2*
X2058314D1*
X2129305D2*
X2341763D1*
X2497082D2*
X2539592D1*
X2610548D2*
X2829250D1*
X2978325D2*
X3033323D1*
X3104314D2*
X3304249D1*
X3472091D2*
X3527089D1*
X3598080D2*
X3810503D1*
X3953334D2*
X4008332D1*
X4079323D2*
X4285502D1*
X4434577D2*
X4495855D1*
X4566810D2*
X5154007D1*
X428717Y908976D2*
X879231D1*
X1071941D2*
X1089584D1*
X1160575D2*
X1360510D1*
X1528209D2*
X1564583D1*
X1635574D2*
X1854240D1*
X2040707D2*
X2058314D1*
X2129305D2*
X2341763D1*
X2521950D2*
X2539592D1*
X2610548D2*
X2829250D1*
X3003192D2*
X3033323D1*
X3104314D2*
X3304249D1*
X3496959D2*
X3527089D1*
X3598080D2*
X3810503D1*
X3978202D2*
X4008332D1*
X4079323D2*
X4285502D1*
X4459444D2*
X4495855D1*
X4566810D2*
X5154007D1*
X428646Y884108D2*
X879231D1*
X1179666D2*
X1360510D1*
X1654665D2*
X1854240D1*
X2148395D2*
X2341763D1*
X2629638D2*
X2829250D1*
X3123404D2*
X3304249D1*
X3617171D2*
X3810503D1*
X4098414D2*
X4285502D1*
X4585936D2*
X5154007D1*
X428610Y859239D2*
X879231D1*
X1179666D2*
X1360510D1*
X1654665D2*
X1854240D1*
X2148395D2*
X2341763D1*
X2629638D2*
X2829250D1*
X3123404D2*
X3304249D1*
X3421279D2*
X3433181D1*
X3617171D2*
X3810503D1*
X4098414D2*
X4285502D1*
X4585936D2*
X5154007D1*
X428574Y834370D2*
X879231D1*
X1179666D2*
X1360510D1*
X1654665D2*
X1854240D1*
X2148395D2*
X2341763D1*
X2629638D2*
X2829250D1*
X3123404D2*
X3304249D1*
X3421279D2*
X3433181D1*
X3617171D2*
X3810503D1*
X4098414D2*
X4285502D1*
X4585936D2*
X5154007D1*
X428502Y809501D2*
X879231D1*
X1179666D2*
X1360510D1*
X1654665D2*
X1854240D1*
X2148395D2*
X2341763D1*
X2629638D2*
X2829250D1*
X3123404D2*
X3304249D1*
X3617171D2*
X3810503D1*
X4098414D2*
X4285502D1*
X4585936D2*
X5154007D1*
X428466Y784633D2*
X906216D1*
X1002541D2*
X1398009D1*
X1496308D2*
X1885567D1*
X1983794D2*
X2373090D1*
X2471317D2*
X2856235D1*
X2952560D2*
X3366759D1*
X3465058D2*
X3841830D1*
X3940057D2*
X4316829D1*
X4415056D2*
X5154007D1*
X428430Y759764D2*
X929110D1*
X1027409D2*
X1422877D1*
X1521176D2*
X1910363D1*
X2008662D2*
X2397850D1*
X2496185D2*
X2879129D1*
X2977428D2*
X3391627D1*
X3484363D2*
X3866626D1*
X3964458D2*
X4341625D1*
X4439923D2*
X5154007D1*
X428394Y734895D2*
X953978D1*
X1052743D2*
X1118507D1*
X1202739D2*
X1447744D1*
X1540266D2*
X1606030D1*
X1690262D2*
X1935231D1*
X2029870D2*
X2095633D1*
X2179866D2*
X2422718D1*
X2515275D2*
X2581039D1*
X2665271D2*
X2903996D1*
X3002762D2*
X3068525D1*
X3152758D2*
X3406016D1*
X3490284D2*
X3556012D1*
X3640280D2*
X3891493D1*
X3977735D2*
X4043499D1*
X4127767D2*
X4366492D1*
X4465258D2*
X4531021D1*
X4615254D2*
X5154007D1*
X428323Y710026D2*
X948057D1*
X1073197D2*
X1098053D1*
X1223193D2*
X1435580D1*
X1560720D2*
X1585576D1*
X1710716D2*
X1925183D1*
X2050324D2*
X2075179D1*
X2200320D2*
X2410589D1*
X2535693D2*
X2560585D1*
X2685725D2*
X2898076D1*
X3023180D2*
X3048071D1*
X3173176D2*
X3385598D1*
X3510702D2*
X3535594D1*
X3660698D2*
X3873085D1*
X3998189D2*
X4023081D1*
X4148185D2*
X4360607D1*
X4485712D2*
X4510603D1*
X4635708D2*
X5154007D1*
X428287Y685157D2*
X941741D1*
X1079513D2*
X1091737D1*
X1229509D2*
X1429264D1*
X1567035D2*
X1579286D1*
X1717031D2*
X1918868D1*
X2056639D2*
X2068864D1*
X2206635D2*
X2404273D1*
X2542045D2*
X2554269D1*
X2692041D2*
X2891724D1*
X3029531D2*
X3041756D1*
X3179527D2*
X3379247D1*
X3517054D2*
X3529242D1*
X3667050D2*
X3866733D1*
X4004505D2*
X4016729D1*
X4154537D2*
X4354256D1*
X4492027D2*
X4504252D1*
X4642023D2*
X5154007D1*
X428251Y660289D2*
X945115D1*
X1076140D2*
X1095110D1*
X1226136D2*
X1432637D1*
X1563662D2*
X1582633D1*
X1713658D2*
X1922241D1*
X2053266D2*
X2072237D1*
X2203262D2*
X2407646D1*
X2538672D2*
X2557642D1*
X2688668D2*
X2895097D1*
X3026158D2*
X3045093D1*
X3176154D2*
X3382620D1*
X3513681D2*
X3532616D1*
X3663677D2*
X3870106D1*
X4001132D2*
X4020102D1*
X4151163D2*
X4357629D1*
X4488654D2*
X4507625D1*
X4638686D2*
X5154007D1*
X428179Y635420D2*
X960186D1*
X1061068D2*
X1110182D1*
X1211064D2*
X1447708D1*
X1548591D2*
X1597704D1*
X1698587D2*
X1937312D1*
X2038195D2*
X2087308D1*
X2188191D2*
X2422718D1*
X2523600D2*
X2572714D1*
X2673596D2*
X2910204D1*
X3011087D2*
X3060200D1*
X3161083D2*
X3397727D1*
X3498574D2*
X3547723D1*
X3648605D2*
X3885178D1*
X3986060D2*
X4035174D1*
X4136056D2*
X4372700D1*
X4473583D2*
X4522696D1*
X4623579D2*
X5154007D1*
X428143Y610551D2*
X5154007D1*
X428107Y585682D2*
X494804D1*
X608210D2*
X4982983D1*
X5096389D2*
X5154007D1*
X428071Y560814D2*
X471694D1*
X631319D2*
X4959873D1*
X5119498D2*
X5154007D1*
X428000Y535945D2*
X460786D1*
X642192D2*
X4948964D1*
X5130407D2*
X5154007D1*
X427964Y511076D2*
X457628D1*
X645350D2*
X4945807D1*
X5133565D2*
X5154007D1*
X427928Y486207D2*
X461396D1*
X641618D2*
X4949574D1*
X5129797D2*
X5154007D1*
X427856Y461339D2*
X473022D1*
X629956D2*
X4961237D1*
X5118135D2*
X5154007D1*
X427820Y436470D2*
X497746D1*
X605232D2*
X4985961D1*
X5093410D2*
X5154007D1*
X4486070Y1788618D2*
X4505154D1*
Y1676579D1*
X4418709D1*
X4418635Y1404420D1*
X4417825Y1399307D1*
X4416225Y1394384D1*
X4413875Y1389772D1*
X4410833Y1385584D1*
X4377027Y1351634D1*
X4377004Y970872D1*
X4400036Y970901D1*
Y951775D1*
X4405622Y951401D1*
X4410656Y950193D1*
X4415438Y948212D1*
X4419852Y945507D1*
X4423795Y942138D1*
X4465884Y900050D1*
X4498362Y900035D1*
X4498350Y950484D1*
X4479236Y950496D1*
Y1062535D1*
X4583402D1*
Y950496D1*
X4564347D1*
X4564327Y900028D1*
X4583421Y900035D1*
Y787996D1*
X4409183D1*
X4448234Y748806D1*
X4451277Y744618D1*
X4453336Y740741D1*
X4462233Y735289D1*
X4470167Y728513D1*
X4476943Y720579D1*
X4482395Y711683D1*
X4486387Y702043D1*
X4488823Y691898D1*
X4489642Y681496D1*
X4488823Y671094D1*
X4486387Y660949D1*
X4482395Y651309D1*
X4476943Y642413D1*
X4470167Y634479D1*
X4462233Y627703D1*
X4453336Y622251D1*
X4443697Y618258D1*
X4433551Y615823D1*
X4423150Y615004D1*
X4412748Y615823D1*
X4402602Y618258D1*
X4392963Y622251D1*
X4384067Y627703D1*
X4376133Y634479D1*
X4369356Y642413D1*
X4363905Y651309D1*
X4359912Y660949D1*
X4357476Y671094D1*
X4356657Y681496D1*
X4357476Y691898D1*
X4359912Y702043D1*
X4363905Y711683D1*
X4369356Y720579D1*
X4375759Y728109D1*
X4318931Y785092D1*
X4315889Y789279D1*
X4314619Y791549D1*
X4298986Y791933D1*
X4287996D1*
Y970901D1*
X4310998D1*
X4311129Y1367864D1*
X4311939Y1372977D1*
X4313538Y1377900D1*
X4315889Y1382512D1*
X4318931Y1386700D1*
X4352737Y1420649D1*
X4352760Y1569886D1*
X3902013Y1119140D1*
X3902004Y970922D1*
X3925036Y970901D1*
Y951273D1*
X3929407Y950193D1*
X3934189Y948212D1*
X3938603Y945507D1*
X3942546Y942138D1*
X3984634Y900050D1*
X4010842Y900035D1*
X4010831Y950484D1*
X3991736Y950496D1*
Y1062535D1*
X4095902D1*
Y950496D1*
X4076775D1*
X4076807Y900047D1*
X4095902Y900035D1*
Y787996D1*
X3934223D1*
X3960714Y761326D1*
X3963757Y757138D1*
X3966107Y752526D1*
X3967707Y747603D1*
X3968516Y742490D1*
X3968618Y739220D1*
X3974713Y735289D1*
X3982647Y728513D1*
X3989423Y720579D1*
X3994875Y711683D1*
X3998868Y702043D1*
X4001303Y691898D1*
X4002122Y681496D1*
X4001303Y671094D1*
X3998868Y660949D1*
X3994875Y651309D1*
X3989423Y642413D1*
X3982647Y634479D1*
X3974713Y627703D1*
X3965817Y622251D1*
X3956177Y618258D1*
X3946032Y615823D1*
X3935630Y615004D1*
X3925228Y615823D1*
X3915083Y618258D1*
X3905443Y622251D1*
X3896547Y627703D1*
X3888613Y634479D1*
X3881837Y642413D1*
X3876385Y651309D1*
X3872392Y660949D1*
X3869956Y671094D1*
X3869138Y681496D1*
X3869956Y691898D1*
X3872392Y702043D1*
X3876385Y711683D1*
X3881837Y720579D1*
X3888613Y728513D1*
X3894897Y733989D1*
X3843931Y785092D1*
X3840889Y789279D1*
X3839619Y791549D1*
X3823986Y791933D1*
X3812996D1*
Y970901D1*
X3835998D1*
X3836129Y1135384D1*
X3836939Y1140496D1*
X3838539Y1145419D1*
X3840889Y1150032D1*
X3843931Y1154219D1*
X3891160Y1201592D1*
X4302750Y1613183D1*
X4302578Y1618131D1*
X3801267Y1116963D1*
X3797079Y1113920D1*
X3792467Y1111570D1*
X3787543Y1109970D1*
X3782431Y1109161D1*
X3715538Y1109059D1*
X3419458D1*
X3395735Y1085304D1*
X3395755Y964672D1*
X3418786Y964652D1*
Y945526D1*
X3446800Y945456D1*
X3451912Y944646D1*
X3456835Y943047D1*
X3461448Y940697D1*
X3465635Y937654D1*
X3503391Y900042D1*
X3529602Y900035D1*
X3529590Y950484D1*
X3510487Y950496D1*
Y1062535D1*
X3614652D1*
Y950496D1*
X3595598D1*
X3595567Y900038D1*
X3614662Y900035D1*
Y787996D1*
X3459155D1*
X3475350Y771692D1*
X3478392Y767504D1*
X3480742Y762892D1*
X3482342Y757969D1*
X3483152Y752856D1*
X3483253Y737959D1*
X3491333Y732057D1*
X3498711Y724679D1*
X3504843Y716238D1*
X3509580Y706941D1*
X3512805Y697018D1*
X3514437Y686713D1*
Y676279D1*
X3512805Y665974D1*
X3509580Y656051D1*
X3504843Y646754D1*
X3498711Y638313D1*
X3491333Y630935D1*
X3482892Y624802D1*
X3473595Y620065D1*
X3463672Y616841D1*
X3453367Y615209D1*
X3442933D1*
X3432627Y616841D1*
X3422704Y620065D1*
X3413408Y624802D1*
X3404966Y630935D1*
X3397589Y638313D1*
X3391456Y646754D1*
X3386719Y656051D1*
X3383495Y665974D1*
X3381862Y676279D1*
Y686713D1*
X3383495Y697018D1*
X3386719Y706941D1*
X3391456Y716238D1*
X3397589Y724679D1*
X3404966Y732057D1*
X3413408Y738190D1*
X3414884Y739017D1*
X3368198Y785682D1*
X3306747Y785684D1*
Y964652D1*
X3329749D1*
X3329880Y1101575D1*
X3330690Y1106688D1*
X3332289Y1111611D1*
X3334639Y1116223D1*
X3337682Y1120411D1*
X3365550Y1148423D1*
X2966702Y1148429D1*
X2920752Y1102446D1*
X2920755Y970890D1*
X2943786Y970902D1*
Y951775D1*
X2949373Y951401D1*
X2954407Y950193D1*
X2959189Y948212D1*
X2963603Y945507D1*
X2967546Y942138D1*
X3009634Y900050D1*
X3035842Y900035D1*
X3035831Y950484D1*
X3016736Y950496D1*
Y1062535D1*
X3120902D1*
Y950496D1*
X3101775D1*
X3101807Y900047D1*
X3120902Y900035D1*
Y787996D1*
X2946663D1*
X2985714Y748826D1*
X2988757Y744638D1*
X2990817Y740741D1*
X2999713Y735289D1*
X3007647Y728513D1*
X3014423Y720579D1*
X3019875Y711683D1*
X3023868Y702043D1*
X3026303Y691898D1*
X3027122Y681496D1*
X3026303Y671094D1*
X3023868Y660949D1*
X3019875Y651309D1*
X3014423Y642413D1*
X3007647Y634479D1*
X2999713Y627703D1*
X2990817Y622251D1*
X2981177Y618258D1*
X2971032Y615823D1*
X2960630Y615004D1*
X2950228Y615823D1*
X2940083Y618258D1*
X2930443Y622251D1*
X2921547Y627703D1*
X2913613Y634479D1*
X2906837Y642413D1*
X2901385Y651309D1*
X2897392Y660949D1*
X2894956Y671094D1*
X2894138Y681496D1*
X2894956Y691898D1*
X2897392Y702043D1*
X2901385Y711683D1*
X2906837Y720579D1*
X2913267Y728139D1*
X2862682Y778841D1*
X2859639Y783029D1*
X2857289Y787641D1*
X2856390Y790081D1*
X2851923Y791933D1*
X2831747D1*
Y970902D1*
X2854749D1*
X2854880Y1118701D1*
X2855690Y1123814D1*
X2857289Y1128737D1*
X2859639Y1133349D1*
X2862682Y1137537D1*
X2909910Y1184909D1*
X2912777Y1187777D1*
X2454952Y1187799D1*
X2433249Y1166124D1*
X2433253Y970911D1*
X2456285Y970902D1*
Y951775D1*
X2465550Y951705D1*
X2470663Y950896D1*
X2475586Y949296D1*
X2480198Y946946D1*
X2484386Y943903D1*
X2523593Y904841D1*
X2526960Y900896D1*
X2530861Y900035D1*
X2542093D1*
X2542081Y950484D1*
X2522967Y950496D1*
Y1062535D1*
X2627133D1*
Y950496D1*
X2608078D1*
X2608058Y900028D1*
X2627152Y900035D1*
Y787996D1*
X2465402D1*
X2498234Y755055D1*
X2501277Y750868D1*
X2503627Y746255D1*
X2505228Y741322D1*
X2507892Y738190D1*
X2516333Y732057D1*
X2523711Y724679D1*
X2529843Y716238D1*
X2534580Y706941D1*
X2537805Y697018D1*
X2539437Y686713D1*
Y676279D1*
X2537805Y665974D1*
X2534580Y656051D1*
X2529843Y646754D1*
X2523711Y638313D1*
X2516333Y630935D1*
X2507892Y624802D1*
X2498595Y620065D1*
X2488672Y616841D1*
X2478367Y615209D1*
X2467933D1*
X2457627Y616841D1*
X2447704Y620065D1*
X2438408Y624802D1*
X2429966Y630935D1*
X2422589Y638313D1*
X2416456Y646754D1*
X2411719Y656051D1*
X2408495Y665974D1*
X2406862Y676279D1*
Y686713D1*
X2408495Y697018D1*
X2411719Y706941D1*
X2416456Y716238D1*
X2422589Y724679D1*
X2428993Y731157D1*
X2375181Y785092D1*
X2372138Y789279D1*
X2370868Y791549D1*
X2355235Y791933D1*
X2344246D1*
X2344245Y970902D1*
X2367247D1*
X2367378Y1182381D1*
X2368188Y1187494D1*
X2369788Y1192417D1*
X2372138Y1197029D1*
X2375181Y1201217D1*
X2400968Y1227148D1*
X2376181Y1227169D1*
X2305204Y1156333D1*
X2301016Y1153290D1*
X2296404Y1150940D1*
X2291480Y1149341D1*
X2286368Y1148531D1*
X2219475Y1148429D1*
X2021861D1*
X1945777Y1072353D1*
X1945755Y970914D1*
X1968786Y970901D1*
Y951775D1*
X1984301Y951706D1*
X1989414Y950896D1*
X1994337Y949296D1*
X1998949Y946946D1*
X2003137Y943903D1*
X2042342Y904842D1*
X2045709Y900897D1*
X2049610Y900035D1*
X2060842D1*
X2060831Y950484D1*
X2041736Y950496D1*
Y1062535D1*
X2145902D1*
Y950496D1*
X2126775D1*
X2126807Y900047D1*
X2145902Y900035D1*
Y787996D1*
X1977907D1*
X2012840Y752950D1*
X2015883Y748763D1*
X2018233Y744150D1*
X2019132Y741710D1*
X2022498Y738190D1*
X2030939Y732057D1*
X2038317Y724679D1*
X2044450Y716238D1*
X2049187Y706941D1*
X2052411Y697018D1*
X2054043Y686713D1*
Y676279D1*
X2052411Y665974D1*
X2049187Y656051D1*
X2044450Y646754D1*
X2038317Y638313D1*
X2030939Y630935D1*
X2022498Y624802D1*
X2013201Y620065D1*
X2003278Y616841D1*
X1992973Y615209D1*
X1982539D1*
X1972234Y616841D1*
X1962310Y620065D1*
X1953014Y624802D1*
X1944573Y630935D1*
X1937195Y638313D1*
X1931062Y646754D1*
X1926325Y656051D1*
X1923101Y665974D1*
X1921469Y676279D1*
Y686713D1*
X1923101Y697018D1*
X1926325Y706941D1*
X1931062Y716238D1*
X1937195Y724679D1*
X1942491Y730133D1*
X1887682Y785092D1*
X1884639Y789279D1*
X1883369Y791549D1*
X1867737Y791933D1*
X1856747D1*
Y970901D1*
X1879749D1*
X1879880Y1088583D1*
X1880690Y1093696D1*
X1882289Y1098619D1*
X1884639Y1103231D1*
X1887682Y1107419D1*
X1934910Y1154791D1*
X1967922Y1187803D1*
X1637398Y1187799D1*
X1631973Y1183174D1*
X1625753Y1179363D1*
X1619013Y1176571D1*
X1611919Y1174868D1*
X1604646Y1174295D1*
X1597373Y1174868D1*
X1590279Y1176571D1*
X1583539Y1179363D1*
X1577318Y1183174D1*
X1571771Y1187913D1*
X1567033Y1193460D1*
X1563221Y1199680D1*
X1560429Y1206421D1*
X1558726Y1213514D1*
X1558154Y1220787D1*
X1558726Y1228060D1*
X1560429Y1235154D1*
X1563221Y1241894D1*
X1567033Y1248115D1*
X1571771Y1253662D1*
X1577318Y1258400D1*
X1583539Y1262212D1*
X1590279Y1265004D1*
X1597373Y1266707D1*
X1604646Y1267280D1*
X1611919Y1266707D1*
X1619013Y1265004D1*
X1625753Y1262212D1*
X1631973Y1258400D1*
X1637405Y1253769D1*
X2208182Y1253776D1*
X2207760Y1260157D1*
X2208332Y1267430D1*
X2210035Y1274524D1*
X2212827Y1281264D1*
X2216639Y1287485D1*
X2221377Y1293032D1*
X2226925Y1297770D1*
X2233145Y1301582D1*
X2239885Y1304374D1*
X2246979Y1306077D1*
X2254095Y1306643D1*
X2311568Y1363982D1*
X2315756Y1367025D1*
X2320368Y1369375D1*
X2325291Y1370974D1*
X2330404Y1371784D1*
X2397297Y1371886D1*
X3569310D1*
X4002771Y1805329D1*
X4002760Y1883266D1*
X3997445Y1883272D1*
Y2014996D1*
X4224051D1*
X4374051Y2014960D1*
X4399441Y2014996D1*
X4399413Y2022804D1*
X4393021Y2021324D1*
X4385748Y2020752D1*
X4378475Y2021324D1*
X4371381Y2023027D1*
X4364641Y2025819D1*
X4358421Y2029631D1*
X4352873Y2034369D1*
X4348135Y2039917D1*
X4344323Y2046137D1*
X4341531Y2052877D1*
X4339828Y2059971D1*
X4339256Y2067244D1*
X4339828Y2074517D1*
X4341531Y2081611D1*
X4344323Y2088351D1*
X4348135Y2094571D1*
X4352767Y2100004D1*
X4352579Y2199627D1*
X4332763Y2179955D1*
X4328575Y2176912D1*
X4323963Y2174562D1*
X4319040Y2172963D1*
X4313927Y2172153D1*
X4247034Y2172051D1*
X4056310D1*
X4114646Y2113739D1*
X4121761Y2113164D1*
X4128855Y2111461D1*
X4135595Y2108669D1*
X4141816Y2104857D1*
X4147363Y2100119D1*
X4152101Y2094571D1*
X4155913Y2088351D1*
X4158705Y2081611D1*
X4160408Y2074517D1*
X4160980Y2067244D1*
X4160408Y2059971D1*
X4158705Y2052877D1*
X4155913Y2046137D1*
X4152101Y2039917D1*
X4147363Y2034369D1*
X4141816Y2029631D1*
X4135595Y2025819D1*
X4128855Y2023027D1*
X4121761Y2021324D1*
X4114488Y2020752D1*
X4107215Y2021324D1*
X4100121Y2023027D1*
X4093381Y2025819D1*
X4087161Y2029631D1*
X4081613Y2034369D1*
X4076875Y2039917D1*
X4073063Y2046137D1*
X4070272Y2052877D1*
X4068568Y2059971D1*
X4068002Y2067087D1*
X3865359Y2269721D1*
X3865705Y2264094D1*
X3865132Y2256822D1*
X3863429Y2249728D1*
X3860637Y2242988D1*
X3856826Y2236767D1*
X3852087Y2231220D1*
X3846540Y2226482D1*
X3840320Y2222670D1*
X3833579Y2219878D1*
X3826486Y2218175D1*
X3819213Y2217602D1*
X3811940Y2218175D1*
X3804846Y2219878D1*
X3798106Y2222670D1*
X3791885Y2226482D1*
X3789119Y2228662D1*
X3785668Y2224058D1*
X3780509Y2218899D1*
X3774607Y2214611D1*
X3768107Y2211299D1*
X3766970Y2210879D1*
X3766965Y2139177D1*
X3654925D1*
Y2154930D1*
X3606106Y2154925D1*
X3606138Y2144903D1*
X3648855Y2144917D1*
Y2056175D1*
X3651976Y2050950D1*
X3654768Y2044209D1*
X3656471Y2037115D1*
X3657043Y2029843D1*
X3656471Y2022570D1*
X3654768Y2015476D1*
X3651976Y2008736D1*
X3648164Y2002515D1*
X3643426Y1996968D1*
X3637879Y1992230D1*
X3631658Y1988418D1*
X3624918Y1985626D1*
X3617824Y1983923D1*
X3610551Y1983350D1*
X3603278Y1983923D1*
X3596184Y1985626D1*
X3589444Y1988418D1*
X3583224Y1992230D1*
X3577676Y1996968D1*
X3572938Y2002515D1*
X3569126Y2008736D1*
X3566335Y2015476D1*
X3564631Y2022570D1*
X3564059Y2029843D1*
X3564631Y2037115D1*
X3566335Y2044209D1*
X3568058Y2048631D1*
X3534847Y2048626D1*
Y2139162D1*
X3458075Y2139177D1*
Y2154930D1*
X3409256Y2154925D1*
X3409287Y2144903D1*
X3452004Y2144917D1*
Y2056176D1*
X3455126Y2050950D1*
X3457917Y2044209D1*
X3459621Y2037115D1*
X3460193Y2029843D1*
X3459621Y2022570D1*
X3457917Y2015476D1*
X3455126Y2008736D1*
X3451314Y2002515D1*
X3446576Y1996968D1*
X3441028Y1992230D1*
X3434808Y1988418D1*
X3428068Y1985626D1*
X3420974Y1983923D1*
X3413701Y1983350D1*
X3406428Y1983923D1*
X3399334Y1985626D1*
X3392594Y1988418D1*
X3386373Y1992230D1*
X3380826Y1996968D1*
X3376088Y2002515D1*
X3372276Y2008736D1*
X3369484Y2015476D1*
X3367781Y2022570D1*
X3367209Y2029843D1*
X3367781Y2037115D1*
X3369484Y2044209D1*
X3371207Y2048631D1*
X3337996Y2048626D1*
Y2139162D1*
X3251382Y2139177D1*
Y2154930D1*
X3202563Y2154925D1*
X3202594Y2144903D1*
X3245311Y2144917D1*
Y2066008D1*
X3248433Y2060792D1*
X3251225Y2054052D1*
X3252928Y2046958D1*
X3253500Y2039685D1*
X3252928Y2032412D1*
X3251225Y2025318D1*
X3248433Y2018578D1*
X3244621Y2012358D1*
X3239883Y2006810D1*
X3234335Y2002072D1*
X3228115Y1998260D1*
X3221375Y1995468D1*
X3214281Y1993765D1*
X3207008Y1993193D1*
X3199735Y1993765D1*
X3192641Y1995468D1*
X3185901Y1998260D1*
X3179680Y2002072D1*
X3174133Y2006810D1*
X3169395Y2012358D1*
X3165583Y2018578D1*
X3162791Y2025318D1*
X3161088Y2032412D1*
X3160516Y2039685D1*
X3161088Y2046958D1*
X3161419Y2048622D1*
X3131303Y2048626D1*
Y2139161D1*
X3044689Y2139177D1*
Y2154930D1*
X3001181Y2154925D1*
X3001217Y2144881D1*
X3038618Y2144917D1*
Y2048626D1*
X3033272D1*
X3033303Y1945089D1*
X3366621Y1611764D1*
X3373730Y1611195D1*
X3380824Y1609492D1*
X3387564Y1606700D1*
X3393784Y1602889D1*
X3399332Y1598150D1*
X3404070Y1592603D1*
X3407881Y1586383D1*
X3410673Y1579642D1*
X3412376Y1572549D1*
X3412949Y1565276D1*
X3412376Y1558003D1*
X3410673Y1550909D1*
X3407881Y1544169D1*
X3404070Y1537948D1*
X3399332Y1532401D1*
X3393784Y1527663D1*
X3387564Y1523851D1*
X3380824Y1521059D1*
X3373730Y1519356D1*
X3366457Y1518783D1*
X3359184Y1519356D1*
X3352090Y1521059D1*
X3345350Y1523851D1*
X3339129Y1527663D1*
X3333582Y1532401D1*
X3328844Y1537948D1*
X3325032Y1544169D1*
X3322240Y1550909D1*
X3320537Y1558003D1*
X3319971Y1565119D1*
X2975231Y1909993D1*
X2972188Y1914181D1*
X2969838Y1918793D1*
X2968238Y1923716D1*
X2967428Y1928829D1*
X2967327Y1995722D1*
Y2048651D1*
X2924610Y2048626D1*
Y2189963D1*
X2897252Y2217348D1*
X2892436Y2220420D1*
X2886889Y2225158D1*
X2882151Y2230705D1*
X2878339Y2236926D1*
X2875547Y2243666D1*
X2873844Y2250760D1*
X2873272Y2258033D1*
X2873844Y2265306D1*
X2875547Y2272400D1*
X2878339Y2279140D1*
X2882151Y2285360D1*
X2886889Y2290908D1*
X2892436Y2295646D1*
X2898657Y2299458D1*
X2905397Y2302249D1*
X2912491Y2303953D1*
X2915422Y2304299D1*
X2496501Y2723225D1*
X1165541Y2723232D1*
X1133882Y2691560D1*
X1142047Y2692161D1*
X1150503Y2691496D1*
X1158750Y2689516D1*
X1166586Y2686270D1*
X1173818Y2681839D1*
X1180267Y2676330D1*
X1185776Y2669881D1*
X1190207Y2662649D1*
X1191241Y2660406D1*
X1194386Y2666352D1*
X1199372Y2673214D1*
X1205369Y2679211D1*
X1212231Y2684196D1*
X1219788Y2688047D1*
X1227854Y2690668D1*
X1236232Y2691995D1*
X1244713D1*
X1253090Y2690668D1*
X1261157Y2688047D1*
X1268714Y2684196D1*
X1275576Y2679211D1*
X1281573Y2673214D1*
X1286559Y2666352D1*
X1289667Y2660406D1*
X1292811Y2666352D1*
X1297797Y2673214D1*
X1303794Y2679211D1*
X1310656Y2684196D1*
X1318213Y2688047D1*
X1326280Y2690668D1*
X1334657Y2691995D1*
X1343138D1*
X1351516Y2690668D1*
X1359582Y2688047D1*
X1367139Y2684196D1*
X1374001Y2679211D1*
X1379998Y2673214D1*
X1384984Y2666352D1*
X1388092Y2660406D1*
X1391237Y2666352D1*
X1396222Y2673214D1*
X1402219Y2679211D1*
X1409081Y2684196D1*
X1416638Y2688047D1*
X1424705Y2690668D1*
X1433082Y2691995D1*
X1441564D1*
X1449941Y2690668D1*
X1458007Y2688047D1*
X1465564Y2684196D1*
X1472426Y2679211D1*
X1478424Y2673214D1*
X1483409Y2666352D1*
X1486561Y2660519D1*
X1490053Y2666980D1*
X1494387Y2672907D1*
X1499486Y2678192D1*
X1505253Y2682738D1*
X1511584Y2686459D1*
X1518360Y2689288D1*
X1525458Y2691173D1*
X1532745Y2692078D1*
X1540088Y2691987D1*
X1547351Y2690901D1*
X1554400Y2688841D1*
X1561104Y2685845D1*
X1567340Y2681968D1*
X1572993Y2677281D1*
X1577959Y2671871D1*
X1582146Y2665837D1*
X1584958Y2660453D1*
X1588087Y2666352D1*
X1593072Y2673214D1*
X1599070Y2679211D1*
X1605932Y2684196D1*
X1613489Y2688047D1*
X1621555Y2690668D1*
X1629932Y2691995D1*
X1638414D1*
X1646791Y2690668D1*
X1654858Y2688047D1*
X1662415Y2684196D1*
X1669277Y2679211D1*
X1675274Y2673214D1*
X1680259Y2666352D1*
X1683367Y2660406D1*
X1686512Y2666352D1*
X1691498Y2673214D1*
X1697495Y2679211D1*
X1704357Y2684196D1*
X1711914Y2688047D1*
X1719980Y2690668D1*
X1732138Y2693319D1*
X1742441Y2694130D1*
X1752744Y2693319D1*
X1762794Y2690907D1*
X1772342Y2686951D1*
X1781154Y2681551D1*
X1789013Y2674839D1*
X1795725Y2666981D1*
X1801125Y2658169D1*
X1804905Y2649094D1*
X1940161Y2513562D1*
X1946236Y2505200D1*
X1950928Y2495992D1*
X1954121Y2486163D1*
X1955738Y2475955D1*
X1955941Y2452415D1*
X1955738Y1569951D1*
X1954121Y1559743D1*
X1950928Y1549914D1*
X1946236Y1540705D1*
X1940161Y1532344D1*
X1923659Y1515555D1*
X1834428Y1426611D1*
X1826067Y1420536D1*
X1816858Y1415844D1*
X1807029Y1412650D1*
X1796821Y1411034D1*
X1773281Y1410831D1*
X1558140Y1411034D1*
X1550448Y1412150D1*
X1550429Y1405909D1*
X1451496D1*
X1443389Y1400064D1*
X1434181Y1395372D1*
X1424352Y1392178D1*
X1414144Y1390561D1*
X1390604Y1390358D1*
X1326048D1*
X1326020Y1322248D1*
X1213980D1*
Y1390392D1*
X1189045Y1390561D1*
X1178837Y1392178D1*
X1170847Y1394693D1*
X1004335Y1394689D1*
Y1517752D1*
X1170739D1*
X1178837Y1520263D1*
X1189045Y1521880D1*
X1212585Y1522083D1*
X1381892Y1522279D1*
X1386675Y1526775D1*
X1395036Y1532850D1*
X1404244Y1537542D1*
X1414074Y1540735D1*
X1424281Y1542352D1*
X1434616D1*
X1442308Y1541236D1*
X1442327Y1547476D1*
X1550429D1*
Y1541268D1*
X1558140Y1542352D1*
X1581680Y1542555D1*
X1764569Y1542752D1*
X1824216Y1602677D1*
X1824020Y2443703D1*
X1692359Y2575651D1*
X1686284Y2584012D1*
X1681592Y2593221D1*
X1678394Y2603070D1*
X1675274Y2603007D1*
X1669277Y2597009D1*
X1662415Y2592024D1*
X1654858Y2588173D1*
X1646791Y2585552D1*
X1638414Y2584226D1*
X1629932D1*
X1621555Y2585552D1*
X1613489Y2588173D1*
X1605932Y2592024D1*
X1599070Y2597009D1*
X1593072Y2603007D1*
X1588087Y2609869D1*
X1584979Y2615815D1*
X1582001Y2610142D1*
X1577783Y2604131D1*
X1572789Y2598746D1*
X1567111Y2594089D1*
X1560855Y2590244D1*
X1554135Y2587283D1*
X1547076Y2585259D1*
X1539808Y2584212D1*
X1532464Y2584159D1*
X1525182Y2585102D1*
X1518094Y2587023D1*
X1511333Y2589888D1*
X1505021Y2593642D1*
X1499278Y2598217D1*
X1494207Y2603529D1*
X1489903Y2609479D1*
X1486540Y2615756D1*
X1483409Y2609869D1*
X1478424Y2603007D1*
X1472426Y2597009D1*
X1465564Y2592024D1*
X1458007Y2588173D1*
X1449941Y2585552D1*
X1441564Y2584226D1*
X1433082D1*
X1424705Y2585552D1*
X1416638Y2588173D1*
X1409081Y2592024D1*
X1402219Y2597009D1*
X1396222Y2603007D1*
X1391237Y2609869D1*
X1388129Y2615815D1*
X1384984Y2609869D1*
X1379998Y2603007D1*
X1374001Y2597009D1*
X1367139Y2592024D1*
X1359582Y2588173D1*
X1351516Y2585552D1*
X1343138Y2584226D1*
X1334657D1*
X1326280Y2585552D1*
X1318213Y2588173D1*
X1310656Y2592024D1*
X1303794Y2597009D1*
X1297797Y2603007D1*
X1292811Y2609869D1*
X1289704Y2615815D1*
X1286559Y2609869D1*
X1281573Y2603007D1*
X1275576Y2597009D1*
X1268714Y2592024D1*
X1261157Y2588173D1*
X1253090Y2585552D1*
X1244713Y2584226D1*
X1236232D1*
X1227854Y2585552D1*
X1219788Y2588173D1*
X1212231Y2592024D1*
X1205369Y2597009D1*
X1199372Y2603007D1*
X1194386Y2609869D1*
X1191278Y2615815D1*
X1188133Y2609869D1*
X1183148Y2603007D1*
X1177151Y2597009D1*
X1170289Y2592024D1*
X1162732Y2588173D1*
X1154665Y2585552D1*
X1146288Y2584226D1*
X1137806D1*
X1129429Y2585552D1*
X1125807Y2586574D1*
X1125721Y2576467D1*
X1124911Y2571354D1*
X1123312Y2566431D1*
X1120962Y2561819D1*
X1117919Y2557631D1*
X1076791Y2516359D1*
X1072855Y2512997D1*
X1068441Y2510292D1*
X1063658Y2508311D1*
X1058625Y2507103D1*
X1053465Y2506697D1*
X981979Y2506798D1*
X976866Y2507608D1*
X971943Y2509208D1*
X967331Y2511558D1*
X963143Y2514601D1*
X928990Y2548609D1*
X928973Y2445099D1*
X1265557Y2108353D1*
X1268600Y2104165D1*
X1270950Y2099553D1*
X1272549Y2094630D1*
X1273359Y2089517D1*
X1273461Y2022625D1*
Y1680900D1*
X1278692Y1676330D1*
X1284201Y1669881D1*
X1288632Y1662649D1*
X1289667Y1660406D1*
X1292811Y1666352D1*
X1297797Y1673214D1*
X1303794Y1679211D1*
X1310656Y1684196D1*
X1318213Y1688047D1*
X1326280Y1690668D1*
X1334657Y1691995D1*
X1343138D1*
X1351516Y1690668D1*
X1359582Y1688047D1*
X1367139Y1684196D1*
X1374001Y1679211D1*
X1379998Y1673214D1*
X1384984Y1666352D1*
X1388092Y1660406D1*
X1391237Y1666352D1*
X1396222Y1673214D1*
X1402219Y1679211D1*
X1409081Y1684196D1*
X1416638Y1688047D1*
X1424705Y1690668D1*
X1433082Y1691995D1*
X1441564D1*
X1449941Y1690668D1*
X1458007Y1688047D1*
X1465564Y1684196D1*
X1472426Y1679211D1*
X1478424Y1673214D1*
X1483409Y1666352D1*
X1486517Y1660406D1*
X1489662Y1666352D1*
X1494647Y1673214D1*
X1500645Y1679211D1*
X1507506Y1684196D1*
X1515064Y1688047D1*
X1523130Y1690668D1*
X1531507Y1691995D1*
X1539989D1*
X1548366Y1690668D1*
X1556433Y1688047D1*
X1563990Y1684196D1*
X1570851Y1679211D1*
X1576849Y1673214D1*
X1581834Y1666352D1*
X1584942Y1660406D1*
X1588087Y1666352D1*
X1593072Y1673214D1*
X1599070Y1679211D1*
X1605932Y1684196D1*
X1613489Y1688047D1*
X1621555Y1690668D1*
X1629932Y1691995D1*
X1638414D1*
X1646791Y1690668D1*
X1654858Y1688047D1*
X1662415Y1684196D1*
X1669277Y1679211D1*
X1675274Y1673214D1*
X1680259Y1666352D1*
X1683367Y1660406D1*
X1686512Y1666352D1*
X1691498Y1673214D1*
X1697495Y1679211D1*
X1704357Y1684196D1*
X1711914Y1688047D1*
X1719980Y1690668D1*
X1728358Y1691995D1*
X1736839D1*
X1745216Y1690668D1*
X1753283Y1688047D1*
X1760840Y1684196D1*
X1767702Y1679211D1*
X1773699Y1673214D1*
X1778685Y1666352D1*
X1782535Y1658795D1*
X1785156Y1650728D1*
X1786483Y1642351D1*
Y1633869D1*
X1785156Y1625492D1*
X1782535Y1617426D1*
X1778685Y1609869D1*
X1773699Y1603007D1*
X1767702Y1597009D1*
X1760840Y1592024D1*
X1753283Y1588173D1*
X1745216Y1585552D1*
X1736839Y1584226D1*
X1728358D1*
X1719980Y1585552D1*
X1711914Y1588173D1*
X1704357Y1592024D1*
X1697495Y1597009D1*
X1691498Y1603007D1*
X1686512Y1609869D1*
X1683404Y1615815D1*
X1680259Y1609869D1*
X1675274Y1603007D1*
X1669277Y1597009D1*
X1662415Y1592024D1*
X1654858Y1588173D1*
X1646791Y1585552D1*
X1638414Y1584226D1*
X1629932D1*
X1621555Y1585552D1*
X1613489Y1588173D1*
X1605932Y1592024D1*
X1599070Y1597009D1*
X1593072Y1603007D1*
X1588087Y1609869D1*
X1584979Y1615815D1*
X1581834Y1609869D1*
X1576849Y1603007D1*
X1570851Y1597009D1*
X1563990Y1592024D1*
X1556433Y1588173D1*
X1548366Y1585552D1*
X1539989Y1584226D1*
X1531507D1*
X1523130Y1585552D1*
X1515064Y1588173D1*
X1507506Y1592024D1*
X1500645Y1597009D1*
X1494647Y1603007D1*
X1489662Y1609869D1*
X1486554Y1615815D1*
X1483409Y1609869D1*
X1478424Y1603007D1*
X1472426Y1597009D1*
X1465564Y1592024D1*
X1458007Y1588173D1*
X1449941Y1585552D1*
X1441564Y1584226D1*
X1433082D1*
X1424705Y1585552D1*
X1416638Y1588173D1*
X1409081Y1592024D1*
X1402219Y1597009D1*
X1396222Y1603007D1*
X1391237Y1609869D1*
X1388129Y1615815D1*
X1384984Y1609869D1*
X1379998Y1603007D1*
X1374001Y1597009D1*
X1371879Y1595336D1*
X1371480Y1589643D1*
X1370271Y1584609D1*
X1368290Y1579827D1*
X1365586Y1575413D1*
X1362224Y1571477D1*
X1320952Y1530349D1*
X1316764Y1527306D1*
X1312152Y1524956D1*
X1307229Y1523356D1*
X1302116Y1522546D1*
X1235223Y1522445D1*
X1218199Y1522546D1*
X1213086Y1523356D1*
X1208163Y1524956D1*
X1203551Y1527306D1*
X1199363Y1530349D1*
X1167934Y1561634D1*
X1164572Y1565571D1*
X1161867Y1569984D1*
X1159886Y1574767D1*
X1158678Y1579800D1*
X1158272Y1586575D1*
X1150503Y1584725D1*
X1142047Y1584059D1*
X1133592Y1584725D1*
X1125345Y1586705D1*
X1117509Y1589950D1*
X1110277Y1594382D1*
X1103827Y1599890D1*
X1098319Y1606340D1*
X1093887Y1613572D1*
X1092853Y1615815D1*
X1089708Y1609869D1*
X1084723Y1603007D1*
X1078725Y1597009D1*
X1071864Y1592024D1*
X1064307Y1588173D1*
X1056240Y1585552D1*
X1047863Y1584226D1*
X1039381D1*
X1031004Y1585552D1*
X1022938Y1588173D1*
X1015380Y1592024D1*
X1008519Y1597009D1*
X1002521Y1603007D1*
X997536Y1609869D1*
X994428Y1615815D1*
X991283Y1609869D1*
X986298Y1603007D1*
X980300Y1597009D1*
X973439Y1592024D1*
X965881Y1588173D1*
X957815Y1585552D1*
X949438Y1584226D1*
X940956D1*
X932579Y1585552D1*
X924512Y1588173D1*
X916955Y1592024D1*
X910093Y1597009D1*
X904096Y1603007D1*
X899111Y1609869D1*
X896003Y1615815D1*
X892858Y1609869D1*
X887872Y1603007D1*
X881875Y1597009D1*
X875013Y1592024D1*
X867456Y1588173D1*
X859390Y1585552D1*
X851012Y1584226D1*
X842531D1*
X834154Y1585552D1*
X826087Y1588173D1*
X818530Y1592024D1*
X811668Y1597009D1*
X805671Y1603007D1*
X800685Y1609869D1*
X796835Y1617426D1*
X794214Y1625492D1*
X792887Y1633869D1*
Y1642351D1*
X794214Y1650728D1*
X796835Y1658795D1*
X800685Y1666352D1*
X805671Y1673214D1*
X811668Y1679211D1*
X818530Y1684196D1*
X826087Y1688047D1*
X834154Y1690668D1*
X842531Y1691995D1*
X851012D1*
X859390Y1690668D1*
X867456Y1688047D1*
X875013Y1684196D1*
X881875Y1679211D1*
X887872Y1673214D1*
X892858Y1666352D1*
X895966Y1660406D1*
X899111Y1666352D1*
X904096Y1673214D1*
X910093Y1679211D1*
X916955Y1684196D1*
X924512Y1688047D1*
X932579Y1690668D1*
X940956Y1691995D1*
X949438D1*
X957815Y1690668D1*
X965881Y1688047D1*
X973439Y1684196D1*
X980300Y1679211D1*
X986298Y1673214D1*
X991283Y1666352D1*
X994391Y1660406D1*
X997536Y1666352D1*
X1002521Y1673214D1*
X1008519Y1679211D1*
X1015380Y1684196D1*
X1022938Y1688047D1*
X1031004Y1690668D1*
X1039381Y1691995D1*
X1047863D1*
X1056240Y1690668D1*
X1064307Y1688047D1*
X1071864Y1684196D1*
X1078725Y1679211D1*
X1084723Y1673214D1*
X1089708Y1666352D1*
X1092816Y1660406D1*
X1095961Y1666352D1*
X1100946Y1673214D1*
X1106944Y1679211D1*
X1113806Y1684196D1*
X1121363Y1688047D1*
X1129429Y1690668D1*
X1137806Y1691995D1*
X1146288D1*
X1154665Y1690668D1*
X1158287Y1689646D1*
X1158272Y1984675D1*
X742947Y2400151D1*
X739904Y2404338D1*
X737554Y2408951D1*
X735955Y2413874D1*
X735145Y2418987D1*
X735043Y2485879D1*
X735145Y2699754D1*
X735955Y2704866D1*
X737554Y2709789D1*
X739904Y2714402D1*
X742947Y2718590D1*
X790175Y2765962D1*
X813799Y2789585D1*
X813783Y2936415D1*
X730122Y2936421D1*
X730154Y2890996D1*
X749248Y2890980D1*
Y2778941D1*
X645083D1*
Y2890980D1*
X664209D1*
X664177Y2936405D1*
X645083Y2936421D1*
Y3048460D1*
X824051D1*
Y3020937D1*
X828826Y3017525D1*
X870098Y2976397D1*
X873460Y2972461D1*
X876164Y2968047D1*
X878145Y2963265D1*
X879354Y2958231D1*
X879759Y2953061D1*
X879658Y2773317D1*
X878848Y2768205D1*
X877249Y2763281D1*
X874899Y2758669D1*
X871856Y2754481D1*
X824628Y2707109D1*
X801005Y2683486D1*
X801020Y2666915D1*
X805671Y2673214D1*
X811668Y2679211D1*
X818530Y2684196D1*
X826087Y2688047D1*
X834154Y2690668D1*
X842531Y2691995D1*
X851012D1*
X859390Y2690668D1*
X867456Y2688047D1*
X875013Y2684196D1*
X881159Y2679776D1*
X913930Y2712407D1*
X918118Y2715450D1*
X922730Y2717800D1*
X927653Y2719400D1*
X932766Y2720209D1*
X999659Y2720311D1*
X1020149D1*
X1069701Y2769897D1*
X1069689Y2919745D1*
X1052987Y2936423D1*
X966342Y2936421D1*
X966374Y2890996D1*
X985469Y2890980D1*
Y2778941D1*
X881303D1*
Y2890980D1*
X900430D1*
X900398Y2936405D1*
X881303Y2936421D1*
Y3048460D1*
X1060272D1*
Y3020937D1*
X1065046Y3017525D1*
X1112418Y2970297D1*
X1127762Y2954810D1*
X1130804Y2950622D1*
X1133154Y2946010D1*
X1134754Y2941087D1*
X1135564Y2935974D1*
X1135666Y2869081D1*
Y2784933D1*
X1141696Y2787594D1*
X1146729Y2788803D1*
X1151900Y2789208D1*
X2512746Y2789107D1*
X2517858Y2788297D1*
X2522782Y2786698D1*
X2527394Y2784348D1*
X2531582Y2781305D1*
X2578954Y2734077D1*
X2936295Y2376735D1*
X2937391Y2383216D1*
X2939645Y2390154D1*
X2942957Y2396654D1*
X2947246Y2402556D1*
X2952404Y2407715D1*
X2958306Y2412003D1*
X2964807Y2415315D1*
X2971745Y2417570D1*
X2975793Y2418337D1*
X2975792Y2424445D1*
X3087831D1*
X3088008Y2391361D1*
X3096527Y2400094D1*
X3094273Y2407032D1*
X3093132Y2414238D1*
Y2421534D1*
X3094273Y2428739D1*
X3096527Y2435678D1*
X3099839Y2442178D1*
X3104127Y2448080D1*
X3109286Y2453239D1*
X3115188Y2457527D1*
X3121689Y2460839D1*
X3128627Y2463093D1*
X3135833Y2464235D1*
X3143128D1*
X3150334Y2463093D1*
X3157272Y2460839D1*
X3163772Y2457527D1*
X3169675Y2453239D1*
X3174833Y2448080D1*
X3179121Y2442178D1*
X3182433Y2435678D1*
X3184688Y2428739D1*
X3185829Y2421534D1*
Y2414238D1*
X3185019Y2408697D1*
X3192338D1*
X3192327Y2424445D1*
X3304366D1*
Y2408692D1*
X3408856Y2408697D1*
X3408862Y2424445D1*
X3520902D1*
Y2408692D1*
X3625392Y2408697D1*
X3625398Y2424445D1*
X3710623D1*
X3333115Y2801965D1*
X2300876Y2802074D1*
X2295764Y2802884D1*
X2290841Y2804483D1*
X2286228Y2806834D1*
X2282040Y2809876D1*
X2250425Y2841347D1*
X1375679Y2841444D1*
X1370567Y2842254D1*
X1365644Y2843854D1*
X1361031Y2846204D1*
X1356844Y2849246D1*
X1309471Y2896475D1*
X1256431Y2949658D1*
X1253389Y2953846D1*
X1251039Y2958459D1*
X1249439Y2963382D1*
X1248629Y2968494D1*
X1248527Y3035387D1*
Y3242116D1*
X1245062Y3242130D1*
X1227940Y3225182D1*
X1223752Y3222139D1*
X1219140Y3219789D1*
X1214217Y3218190D1*
X1209104Y3217380D1*
X1183370Y3217278D1*
X1183402Y3194247D1*
X1153223D1*
X1156403Y3191030D1*
X1159446Y3186843D1*
X1161796Y3182230D1*
X1163396Y3177307D1*
X1164205Y3172195D1*
X1164307Y3150049D1*
X1183402Y3150035D1*
Y3037996D1*
X1079236D1*
Y3136642D1*
X1053928Y3136720D1*
X1048815Y3137530D1*
X1043892Y3139129D1*
X1039279Y3141479D1*
X1035092Y3144522D1*
X1031431Y3148182D1*
X1028389Y3152370D1*
X1026039Y3156982D1*
X1024439Y3161905D1*
X1023629Y3167018D1*
X1023528Y3194259D1*
X1004433Y3194247D1*
Y3306286D1*
X1183402D1*
Y3283284D1*
X1192860Y3283255D1*
X1225485Y3315888D1*
X1225496Y3336059D1*
X1203928Y3336129D1*
X1198815Y3336939D1*
X1193892Y3338539D1*
X1189279Y3340889D1*
X1185092Y3343931D1*
X1137323Y3391556D1*
X1133962Y3395492D1*
X1131257Y3399906D1*
X1129276Y3404688D1*
X1128068Y3409721D1*
X1127661Y3414882D1*
Y3435372D1*
X1121567Y3439337D1*
X1113633Y3446113D1*
X1106856Y3454047D1*
X1101405Y3462943D1*
X1097412Y3472583D1*
X1094976Y3482728D1*
X1094157Y3493130D1*
X1094976Y3503532D1*
X1097412Y3513677D1*
X1101405Y3523317D1*
X1106856Y3532213D1*
X1113633Y3540147D1*
X1121567Y3546923D1*
X1130463Y3552375D1*
X1140102Y3556368D1*
X1150248Y3558803D1*
X1160650Y3559622D1*
X1171051Y3558803D1*
X1181197Y3556368D1*
X1190836Y3552375D1*
X1199733Y3546923D1*
X1207667Y3540147D1*
X1214443Y3532213D1*
X1219895Y3523317D1*
X1223887Y3513677D1*
X1226323Y3503532D1*
X1227142Y3493130D1*
X1226323Y3482728D1*
X1223887Y3472583D1*
X1219895Y3462943D1*
X1214443Y3454047D1*
X1207667Y3446113D1*
X1199733Y3439337D1*
X1193630Y3435450D1*
X1193638Y3428574D1*
X1220184Y3401999D1*
X1225498Y3402004D1*
X1225496Y3421098D1*
X1337536D1*
Y3242130D1*
X1314534D1*
X1314504Y2984711D1*
X1391951Y2907300D1*
X1850181Y2907319D1*
X1847068Y2910060D1*
X1756451Y3000820D1*
X1753408Y3005008D1*
X1751058Y3009620D1*
X1749459Y3014543D1*
X1748649Y3019656D1*
X1748547Y3086549D1*
Y3242107D1*
X1745010Y3242130D1*
X1727940Y3225182D1*
X1723752Y3222139D1*
X1719140Y3219789D1*
X1714217Y3218190D1*
X1709104Y3217380D1*
X1658395Y3217278D1*
X1658402Y3194247D1*
X1564472D1*
X1564504Y3150042D1*
X1583599Y3150035D1*
Y3037996D1*
X1479433D1*
Y3150035D1*
X1498560D1*
X1498528Y3194240D1*
X1479433Y3194247D1*
Y3306286D1*
X1658402D1*
Y3283284D1*
X1692836Y3283255D1*
X1725524Y3315927D1*
X1725516Y3336059D1*
X1691428Y3336129D1*
X1686315Y3336939D1*
X1681392Y3338539D1*
X1676779Y3340889D1*
X1672592Y3343931D1*
X1624823Y3391556D1*
X1621462Y3395492D1*
X1618757Y3399906D1*
X1616776Y3404688D1*
X1615567Y3409721D1*
X1615161Y3414882D1*
Y3435372D1*
X1609067Y3439337D1*
X1601133Y3446113D1*
X1594356Y3454047D1*
X1588905Y3462943D1*
X1584912Y3472583D1*
X1582476Y3482728D1*
X1581657Y3493130D1*
X1582476Y3503532D1*
X1584912Y3513677D1*
X1588905Y3523317D1*
X1594356Y3532213D1*
X1601133Y3540147D1*
X1609067Y3546923D1*
X1617963Y3552375D1*
X1627602Y3556368D1*
X1637748Y3558803D1*
X1648150Y3559622D1*
X1658551Y3558803D1*
X1668697Y3556368D1*
X1678336Y3552375D1*
X1687233Y3546923D1*
X1695167Y3540147D1*
X1701943Y3532213D1*
X1707395Y3523317D1*
X1711387Y3513677D1*
X1713823Y3503532D1*
X1714642Y3493130D1*
X1713823Y3482728D1*
X1711387Y3472583D1*
X1707395Y3462943D1*
X1701943Y3454047D1*
X1695167Y3446113D1*
X1687233Y3439337D1*
X1681130Y3435450D1*
X1681138Y3428574D1*
X1707684Y3401999D1*
X1725486Y3402004D1*
X1725516Y3421098D1*
X1837555D1*
Y3242130D1*
X1814553D1*
X1814524Y3035882D1*
X1884054Y2966378D1*
X2282882Y2966374D1*
X2219325Y3030072D1*
X2216282Y3034260D1*
X2213932Y3038872D1*
X2212333Y3043795D1*
X2211523Y3048908D1*
X2211421Y3115801D1*
Y3233537D1*
X2202940Y3225181D1*
X2198752Y3222138D1*
X2194140Y3219788D1*
X2189217Y3218188D1*
X2184104Y3217379D1*
X2145883Y3217277D1*
X2145902Y3194245D1*
X2052188D1*
X2052201Y3150059D1*
X2071295Y3150035D1*
Y3037996D1*
X1967130D1*
Y3150035D1*
X1986256D1*
X1986224Y3194240D1*
X1966933Y3194245D1*
Y3306285D1*
X2145902D1*
Y3283283D1*
X2167848Y3283253D1*
X2200525Y3315926D1*
X2200516Y3336059D1*
X2166428Y3336129D1*
X2161315Y3336939D1*
X2156392Y3338539D1*
X2151779Y3340889D1*
X2147592Y3343931D1*
X2114430Y3376949D1*
X2111068Y3380886D1*
X2108363Y3385299D1*
X2106382Y3390082D1*
X2105174Y3395115D1*
X2104768Y3400276D1*
Y3435406D1*
X2098673Y3439356D1*
X2090739Y3446133D1*
X2083963Y3454067D1*
X2078511Y3462963D1*
X2074518Y3472602D1*
X2072082Y3482748D1*
X2071264Y3493150D1*
X2072082Y3503551D1*
X2074518Y3513697D1*
X2078511Y3523336D1*
X2083963Y3532233D1*
X2090739Y3540167D1*
X2098673Y3546943D1*
X2107569Y3552395D1*
X2117209Y3556387D1*
X2127354Y3558823D1*
X2137756Y3559642D1*
X2148158Y3558823D1*
X2158303Y3556387D1*
X2167943Y3552395D1*
X2176839Y3546943D1*
X2184773Y3540167D1*
X2191549Y3532233D1*
X2197001Y3523336D1*
X2200994Y3513697D1*
X2203429Y3503551D1*
X2204248Y3493150D1*
X2203429Y3482748D1*
X2200994Y3472602D1*
X2197001Y3462963D1*
X2191549Y3454067D1*
X2184773Y3446133D1*
X2176839Y3439356D1*
X2170736Y3435469D1*
X2170744Y3413953D1*
X2182675Y3402009D1*
X2200486Y3402004D1*
X2200516Y3421098D1*
X2312555D1*
Y3242130D1*
X2277425D1*
X2277398Y3065167D1*
X2395849Y2946709D1*
X2755293Y2946689D1*
X2721294Y2980859D1*
X2718251Y2985047D1*
X2715901Y2989659D1*
X2714301Y2994583D1*
X2713491Y2999695D1*
Y3004872D1*
X2714301Y3009984D1*
X2715901Y3014908D1*
X2716990Y3017269D1*
X2717287Y3033740D1*
Y3242120D1*
X2701262Y3242130D1*
X2684191Y3225182D1*
X2680003Y3222139D1*
X2675390Y3219789D1*
X2670467Y3218190D1*
X2665355Y3217380D1*
X2633377Y3217278D1*
X2633402Y3194247D1*
X2539472D1*
X2539504Y3150042D1*
X2558599Y3150035D1*
Y3037996D1*
X2454433D1*
Y3150035D1*
X2473560D1*
X2473527Y3194240D1*
X2454433Y3194247D1*
Y3306286D1*
X2633402D1*
Y3283284D1*
X2649104Y3283255D1*
X2685288Y3319297D1*
X2689476Y3322340D1*
X2694098Y3324693D1*
X2694256Y3336059D1*
X2672677Y3336129D1*
X2667564Y3336939D1*
X2662641Y3338539D1*
X2658029Y3340889D1*
X2653841Y3343931D1*
X2606469Y3391160D1*
X2598065Y3399707D1*
X2595022Y3403895D1*
X2592672Y3408507D1*
X2591073Y3413430D1*
X2590263Y3418543D1*
X2590161Y3435449D1*
X2584067Y3439356D1*
X2576133Y3446133D1*
X2569356Y3454067D1*
X2563905Y3462963D1*
X2559912Y3472602D1*
X2557476Y3482748D1*
X2556657Y3493150D1*
X2557476Y3503551D1*
X2559912Y3513697D1*
X2563905Y3523336D1*
X2569356Y3532233D1*
X2576133Y3540167D1*
X2584067Y3546943D1*
X2592963Y3552395D1*
X2602602Y3556387D1*
X2612748Y3558823D1*
X2623150Y3559642D1*
X2633551Y3558823D1*
X2643697Y3556387D1*
X2653336Y3552395D1*
X2662233Y3546943D1*
X2670167Y3540167D1*
X2676943Y3532233D1*
X2682395Y3523336D1*
X2686387Y3513697D1*
X2688823Y3503551D1*
X2689642Y3493150D1*
X2688823Y3482748D1*
X2686387Y3472602D1*
X2682395Y3462963D1*
X2676943Y3454067D1*
X2670167Y3446133D1*
X2662233Y3439356D1*
X2656130Y3435469D1*
X2659467Y3431466D1*
X2688926Y3402007D1*
X2694248Y3402004D1*
X2694256Y3421098D1*
X2806295D1*
Y3242130D1*
X2783294D1*
X2783264Y3012055D1*
X2809262Y2986052D1*
X3267145Y2986059D1*
X3223262Y3030072D1*
X3220219Y3034260D1*
X3217869Y3038872D1*
X3216270Y3043795D1*
X3215460Y3048908D1*
Y3054084D1*
X3216270Y3059197D1*
X3217277Y3062601D1*
Y3239402D1*
X3202940Y3225182D1*
X3198752Y3222139D1*
X3194140Y3219789D1*
X3189217Y3218190D1*
X3184104Y3217380D1*
X3127151Y3217278D1*
X3127152Y3194247D1*
X3033223D1*
X3033255Y3150042D1*
X3052349Y3150035D1*
Y3037996D1*
X2948184D1*
Y3150035D1*
X2967310D1*
X2967278Y3194240D1*
X2948184Y3194247D1*
Y3306286D1*
X3127152D1*
Y3283284D1*
X3167830Y3283255D1*
X3194246Y3309649D1*
Y3336059D1*
X3153928Y3336129D1*
X3148815Y3336939D1*
X3143892Y3338539D1*
X3139279Y3340889D1*
X3135092Y3343931D1*
X3087323Y3391556D1*
X3083961Y3395492D1*
X3081257Y3399906D1*
X3079276Y3404688D1*
X3078067Y3409721D1*
X3077661Y3414882D1*
Y3435444D1*
X3071567Y3439356D1*
X3063633Y3446133D1*
X3056856Y3454067D1*
X3051405Y3462963D1*
X3047412Y3472602D1*
X3044976Y3482748D1*
X3044157Y3493150D1*
X3044976Y3503551D1*
X3047412Y3513697D1*
X3051405Y3523336D1*
X3056856Y3532233D1*
X3063633Y3540167D1*
X3071567Y3546943D1*
X3080463Y3552395D1*
X3090102Y3556387D1*
X3100248Y3558823D1*
X3110650Y3559642D1*
X3121051Y3558823D1*
X3131197Y3556387D1*
X3140836Y3552395D1*
X3149733Y3546943D1*
X3157667Y3540167D1*
X3164443Y3532233D1*
X3169895Y3523336D1*
X3173887Y3513697D1*
X3176323Y3503551D1*
X3177142Y3493150D1*
X3176323Y3482748D1*
X3173887Y3472602D1*
X3169895Y3462963D1*
X3164443Y3454067D1*
X3157667Y3446133D1*
X3149733Y3439356D1*
X3143630Y3435469D1*
X3143638Y3428522D1*
X3170184Y3402000D1*
X3194230Y3402004D1*
X3194246Y3421098D1*
X3306285D1*
Y3242130D1*
X3283283D1*
X3283253Y3063226D1*
X3321076Y3025419D1*
X3707690Y3025429D1*
X3713145Y3030054D1*
X3719365Y3033866D1*
X3726106Y3036658D1*
X3733199Y3038361D1*
X3740472Y3038933D1*
X3747745Y3038361D1*
X3754839Y3036658D1*
X3761579Y3033866D1*
X3767800Y3030054D1*
X3773347Y3025316D1*
X3778085Y3019768D1*
X3781897Y3013548D1*
X3784689Y3006808D1*
X3786392Y2999714D1*
X3786965Y2992441D1*
X3786392Y2985168D1*
X3784689Y2978074D1*
X3781897Y2971334D1*
X3778085Y2965114D1*
X3773347Y2959566D1*
X3767800Y2954828D1*
X3761579Y2951016D1*
X3754839Y2948224D1*
X3747745Y2946521D1*
X3740472Y2945949D1*
X3733199Y2946521D1*
X3727602Y2947802D1*
X3726625Y2942217D1*
X3724370Y2935279D1*
X3721058Y2928779D1*
X3716770Y2922877D1*
X3711612Y2917718D1*
X3705709Y2913430D1*
X3699209Y2910118D1*
X3694041Y2908363D1*
X3804927Y2797330D1*
X3807970Y2793142D1*
X3810320Y2788530D1*
X3811919Y2783606D1*
X3812729Y2778494D1*
X3812831Y2711601D1*
Y2494322D1*
X3997457Y2309668D1*
X3997445Y2385075D1*
X4002792D1*
X4002861Y2916289D1*
X4003671Y2921402D1*
X4005271Y2926325D1*
X4007621Y2930937D1*
X4010664Y2935125D1*
X4051792Y2976397D1*
X4055728Y2979759D1*
X4060142Y2982464D1*
X4064924Y2984445D1*
X4069958Y2985653D1*
X4075118Y2986059D1*
X4632292D1*
X4686017Y3039756D1*
X4686027Y3219052D1*
X4680427Y3217684D1*
X4675266Y3217278D1*
X4583367D1*
X4583402Y3194246D1*
X4489472D1*
X4489504Y3150042D1*
X4508599Y3150035D1*
Y3037996D1*
X4404433D1*
Y3150035D1*
X4423560D1*
X4423527Y3194240D1*
X4404433Y3194246D1*
Y3306286D1*
X4583402D1*
Y3283284D1*
X4661614Y3283255D1*
X4662996Y3288061D1*
Y3336059D1*
X4616428Y3336129D1*
X4611315Y3336939D1*
X4606392Y3338539D1*
X4601779Y3340889D1*
X4597592Y3343931D1*
X4549823Y3391556D1*
X4546462Y3395492D1*
X4543757Y3399906D1*
X4541776Y3404688D1*
X4540568Y3409721D1*
X4540161Y3414882D1*
Y3435444D1*
X4534067Y3439356D1*
X4526133Y3446133D1*
X4519356Y3454067D1*
X4513905Y3462963D1*
X4509912Y3472602D1*
X4507476Y3482748D1*
X4506657Y3493150D1*
X4507476Y3503551D1*
X4509912Y3513697D1*
X4513905Y3523336D1*
X4519356Y3532233D1*
X4526133Y3540167D1*
X4534067Y3546943D1*
X4542963Y3552395D1*
X4552602Y3556387D1*
X4562748Y3558823D1*
X4573150Y3559642D1*
X4583551Y3558823D1*
X4593697Y3556387D1*
X4603336Y3552395D1*
X4612233Y3546943D1*
X4620167Y3540167D1*
X4626943Y3532233D1*
X4632395Y3523336D1*
X4636387Y3513697D1*
X4638823Y3503551D1*
X4639642Y3493150D1*
X4638823Y3482748D1*
X4636387Y3472602D1*
X4632395Y3462963D1*
X4626943Y3454067D1*
X4620167Y3446133D1*
X4612233Y3439356D1*
X4606130Y3435469D1*
X4606138Y3428522D1*
X4632684Y3401999D1*
X4662974Y3402004D1*
X4662996Y3421098D1*
X4775036D1*
Y3242130D1*
X4752034D1*
X4751902Y3023514D1*
X4751093Y3018401D1*
X4749493Y3013478D1*
X4747143Y3008866D1*
X4744100Y3004678D1*
X4696872Y2957306D1*
X4667408Y2927986D1*
X4663221Y2924944D1*
X4658608Y2922594D1*
X4653685Y2920994D1*
X4648572Y2920184D1*
X4581680Y2920083D1*
X4251438D1*
X4254338Y2915123D1*
X4257130Y2908383D1*
X4258833Y2901289D1*
X4259406Y2894016D1*
X4258833Y2886743D1*
X4257130Y2879649D1*
X4254338Y2872909D1*
X4250526Y2866688D1*
X4245788Y2861141D1*
X4240241Y2856403D1*
X4234020Y2852591D1*
X4227280Y2849799D1*
X4220186Y2848096D1*
X4212913Y2847524D1*
X4205640Y2848096D1*
X4198547Y2849799D1*
X4191806Y2852591D1*
X4185586Y2856403D1*
X4180154Y2861034D1*
X4108455Y2861027D1*
X4108106Y2846772D1*
Y2769872D1*
X4112436Y2764981D1*
X4115141Y2760567D1*
X4117122Y2755784D1*
X4118330Y2750751D1*
X4118736Y2745580D1*
Y2699479D1*
X4124895Y2701428D1*
X4132100Y2702569D1*
X4139396D1*
X4146601Y2701428D1*
X4153540Y2699174D1*
X4160040Y2695862D1*
X4165942Y2691573D1*
X4171101Y2686415D1*
X4175389Y2680513D1*
X4178701Y2674012D1*
X4180956Y2667074D1*
X4182097Y2659868D1*
Y2652573D1*
X4180956Y2645367D1*
X4178701Y2638429D1*
X4175389Y2631928D1*
X4171101Y2626026D1*
X4168729Y2623461D1*
X4168736Y2590445D1*
X4174895Y2592373D1*
X4182100Y2593514D1*
X4189396D1*
X4196601Y2592373D1*
X4203540Y2590118D1*
X4210040Y2586806D1*
X4215942Y2582518D1*
X4221101Y2577360D1*
X4225389Y2571457D1*
X4228701Y2564957D1*
X4230956Y2558019D1*
X4232097Y2550813D1*
Y2543518D1*
X4230956Y2536312D1*
X4228701Y2529374D1*
X4225389Y2522873D1*
X4221101Y2516971D1*
X4218729Y2514406D1*
X4218736Y2505289D1*
X4225325Y2506865D1*
X4232598Y2507437D1*
X4239871Y2506865D1*
X4246965Y2505162D1*
X4253705Y2502370D1*
X4259926Y2498558D1*
X4265473Y2493820D1*
X4270211Y2488272D1*
X4274023Y2482052D1*
X4276815Y2475312D1*
X4278518Y2468218D1*
X4279091Y2460945D1*
X4278518Y2453672D1*
X4276815Y2446578D1*
X4274023Y2439838D1*
X4270211Y2433617D1*
X4265580Y2428185D1*
X4265587Y2385050D1*
X4478341Y2385075D1*
X4473262Y2390308D1*
X4470219Y2394496D1*
X4467869Y2399108D1*
X4466270Y2404031D1*
X4465460Y2409144D1*
X4465358Y2432509D1*
X4442327Y2432484D1*
Y2611453D1*
X4453702D1*
X4452427Y2617058D1*
X4451854Y2624331D1*
X4452427Y2631604D1*
X4454130Y2638698D1*
X4456922Y2645438D1*
X4460734Y2651658D1*
X4465472Y2657206D1*
X4471019Y2661944D1*
X4477239Y2665755D1*
X4483980Y2668547D1*
X4491073Y2670250D1*
X4498346Y2670823D1*
X4505619Y2670250D1*
X4512713Y2668547D1*
X4519453Y2665755D1*
X4525674Y2661944D1*
X4531221Y2657206D1*
X4535959Y2651658D1*
X4539771Y2645438D1*
X4542563Y2638698D1*
X4544266Y2631604D1*
X4544839Y2624331D1*
X4544266Y2617058D1*
X4542985Y2611460D1*
X4554366Y2611453D1*
Y2432484D1*
X4531364D1*
X4531335Y2425394D1*
X4560833Y2395755D1*
X4563875Y2391567D1*
X4566229Y2386945D1*
X4570936Y2385074D1*
X4574051D1*
Y2253350D1*
X4418704D1*
X4418736Y2157124D1*
X4442306Y2180699D1*
X4443296Y2186365D1*
X4445551Y2193304D1*
X4448863Y2199804D1*
X4453151Y2205706D1*
X4458310Y2210865D1*
X4464212Y2215153D1*
X4470712Y2218465D1*
X4477651Y2220719D1*
X4484856Y2221861D1*
X4492152D1*
X4499357Y2220719D1*
X4506296Y2218465D1*
X4512796Y2215153D1*
X4518698Y2210865D1*
X4523857Y2205706D1*
X4528145Y2199804D1*
X4531457Y2193304D1*
X4533711Y2186365D1*
X4534853Y2179160D1*
Y2171864D1*
X4533711Y2164658D1*
X4531457Y2157720D1*
X4528145Y2151220D1*
X4523857Y2145318D1*
X4518698Y2140159D1*
X4512796Y2135871D1*
X4506296Y2132559D1*
X4499357Y2130304D1*
X4493724Y2129349D1*
X4472101Y2107724D1*
X4472083Y2014996D1*
X4474051D1*
Y1883271D1*
X4468705D1*
X4476397Y1870098D1*
X4479759Y1866162D1*
X4482464Y1861748D1*
X4484445Y1856966D1*
X4485653Y1851932D1*
X4486059Y1846762D1*
Y1788603D1*
X3513423Y3306286D2*
X3608402D1*
Y3283284D1*
X3667883Y3283255D1*
X3669247Y3288062D1*
Y3336059D1*
X3647678Y3336129D1*
X3642565Y3336939D1*
X3637642Y3338538D1*
X3633030Y3340889D1*
X3628842Y3343931D1*
X3581470Y3391160D1*
X3573065Y3399708D1*
X3570022Y3403896D1*
X3567672Y3408508D1*
X3566073Y3413432D1*
X3565263Y3418544D1*
X3565161Y3435450D1*
X3559067Y3439356D1*
X3551133Y3446133D1*
X3544356Y3454067D1*
X3538905Y3462963D1*
X3534912Y3472602D1*
X3532476Y3482748D1*
X3531657Y3493150D1*
X3532476Y3503551D1*
X3534912Y3513697D1*
X3538905Y3523336D1*
X3544356Y3532233D1*
X3551133Y3540167D1*
X3559067Y3546943D1*
X3567963Y3552395D1*
X3577602Y3556387D1*
X3587748Y3558823D1*
X3598150Y3559642D1*
X3608551Y3558823D1*
X3618697Y3556387D1*
X3628336Y3552395D1*
X3637233Y3546943D1*
X3645167Y3540167D1*
X3651943Y3532233D1*
X3657395Y3523336D1*
X3661387Y3513697D1*
X3663823Y3503551D1*
X3664642Y3493150D1*
X3663823Y3482748D1*
X3661387Y3472602D1*
X3657395Y3462963D1*
X3651943Y3454067D1*
X3645167Y3446133D1*
X3637233Y3439356D1*
X3631130Y3435469D1*
X3634467Y3431467D1*
X3663927Y3402008D1*
X3669249Y3402004D1*
X3669247Y3421098D1*
X3781286D1*
Y3242130D1*
X3753763D1*
X3753776Y3143936D1*
X3863982Y3033550D1*
X3867025Y3029362D1*
X3869375Y3024750D1*
X3870975Y3019827D1*
X3871784Y3014714D1*
X3871886Y2985823D1*
X3876511Y2980398D1*
X3880322Y2974178D1*
X3883114Y2967438D1*
X3884817Y2960344D1*
X3885390Y2953071D1*
X3884817Y2945798D1*
X3883114Y2938704D1*
X3880322Y2931964D1*
X3876511Y2925743D1*
X3871773Y2920196D1*
X3866225Y2915458D1*
X3860005Y2911646D1*
X3853264Y2908854D1*
X3846171Y2907151D1*
X3838898Y2906579D1*
X3831625Y2907151D1*
X3824531Y2908854D1*
X3817791Y2911646D1*
X3811570Y2915458D1*
X3806023Y2920196D1*
X3801285Y2925743D1*
X3797473Y2931964D1*
X3794681Y2938704D1*
X3792978Y2945798D1*
X3792406Y2953071D1*
X3792978Y2960344D1*
X3794681Y2967438D1*
X3797473Y2974178D1*
X3801285Y2980398D1*
X3805916Y2985831D1*
X3805909Y2998464D1*
X3695703Y3108812D1*
X3692660Y3113000D1*
X3690310Y3117612D1*
X3688711Y3122535D1*
X3687901Y3127648D1*
X3687799Y3194541D1*
Y3217901D1*
X3681516Y3217278D1*
X3608420D1*
X3608402Y3194246D1*
X3514472D1*
X3514504Y3150042D1*
X3533599Y3150035D1*
Y3037996D1*
X3429433D1*
Y3150035D1*
X3448560D1*
X3448527Y3194240D1*
X3429433Y3194246D1*
Y3306286D1*
X3513423D1*
X3988423Y3306285D2*
X4083402D1*
Y3283283D1*
X4124080Y3283253D1*
X4150495Y3309648D1*
X4150496Y3336059D1*
X4122678Y3336129D1*
X4117565Y3336939D1*
X4112642Y3338539D1*
X4108030Y3340889D1*
X4103842Y3343931D1*
X4062323Y3385306D1*
X4058962Y3389243D1*
X4056257Y3393656D1*
X4054276Y3398439D1*
X4053068Y3403472D1*
X4052661Y3408633D1*
Y3435438D1*
X4046567Y3439356D1*
X4038633Y3446133D1*
X4031856Y3454067D1*
X4026405Y3462963D1*
X4022412Y3472602D1*
X4019976Y3482748D1*
X4019157Y3493150D1*
X4019976Y3503551D1*
X4022412Y3513697D1*
X4026405Y3523336D1*
X4031856Y3532233D1*
X4038633Y3540167D1*
X4046567Y3546943D1*
X4055463Y3552395D1*
X4065102Y3556387D1*
X4075248Y3558823D1*
X4085650Y3559642D1*
X4096051Y3558823D1*
X4106197Y3556387D1*
X4115836Y3552395D1*
X4124733Y3546943D1*
X4132667Y3540167D1*
X4139443Y3532233D1*
X4144895Y3523336D1*
X4148887Y3513697D1*
X4151323Y3503551D1*
X4152142Y3493150D1*
X4151323Y3482748D1*
X4148887Y3472602D1*
X4144895Y3462963D1*
X4139443Y3454067D1*
X4132667Y3446133D1*
X4124733Y3439356D1*
X4118630Y3435469D1*
X4118638Y3422278D1*
X4138942Y3401992D1*
X4150493Y3402004D1*
X4150496Y3421098D1*
X4262536D1*
Y3242130D1*
X4245921D1*
X4245902Y3084244D1*
X4250526Y3078823D1*
X4254338Y3072603D1*
X4257130Y3065863D1*
X4258833Y3058769D1*
X4259406Y3051496D1*
X4258833Y3044223D1*
X4257130Y3037129D1*
X4254338Y3030389D1*
X4250526Y3024169D1*
X4245788Y3018621D1*
X4240241Y3013883D1*
X4234020Y3010071D1*
X4227280Y3007279D1*
X4220186Y3005576D1*
X4212913Y3005004D1*
X4205640Y3005576D1*
X4198547Y3007279D1*
X4191806Y3010071D1*
X4185586Y3013883D1*
X4180038Y3018621D1*
X4175300Y3024169D1*
X4171489Y3030389D1*
X4168697Y3037129D1*
X4166994Y3044223D1*
X4166421Y3051496D1*
X4166994Y3058769D1*
X4168697Y3065863D1*
X4171489Y3072603D1*
X4175300Y3078823D1*
X4179932Y3084256D1*
X4179858Y3242130D1*
X4176306D1*
X4159189Y3225181D1*
X4155001Y3222138D1*
X4150389Y3219788D1*
X4145466Y3218188D1*
X4140353Y3217379D1*
X4083401Y3217277D1*
X4083402Y3194245D1*
X3989472D1*
X3989504Y3150041D1*
X4008599Y3150035D1*
Y3037996D1*
X3904433D1*
Y3150035D1*
X3923560D1*
X3923527Y3194240D1*
X3904433Y3194245D1*
Y3306285D1*
X3988423D1*
X1102349Y788003D2*
X998184Y787996D1*
Y879608D1*
X993786Y872788D1*
Y790916D1*
X1035714Y748826D1*
X1038757Y744638D1*
X1040817Y740741D1*
X1049713Y735289D1*
X1057647Y728513D1*
X1064423Y720579D1*
X1069875Y711683D1*
X1073868Y702043D1*
X1076303Y691898D1*
X1077122Y681496D1*
X1076303Y671094D1*
X1073868Y660949D1*
X1069875Y651309D1*
X1064423Y642413D1*
X1057647Y634479D1*
X1049713Y627703D1*
X1040817Y622251D1*
X1031177Y618258D1*
X1021032Y615823D1*
X1010630Y615004D1*
X1000228Y615823D1*
X990083Y618258D1*
X980443Y622251D1*
X971547Y627703D1*
X963613Y634479D1*
X956837Y642413D1*
X951385Y651309D1*
X947392Y660949D1*
X944956Y671094D1*
X944138Y681496D1*
X944956Y691898D1*
X947392Y702043D1*
X951385Y711683D1*
X956837Y720579D1*
X963267Y728139D1*
X912682Y778841D1*
X909639Y783029D1*
X908369Y785298D1*
X892736Y785684D1*
X881747D1*
Y964652D1*
X993786D1*
Y960884D1*
X999645Y965153D1*
X1006145Y968465D1*
X1013084Y970719D1*
X1020289Y971861D1*
X1027585D1*
X1034790Y970719D1*
X1041729Y968465D1*
X1048229Y965153D1*
X1054131Y960865D1*
X1059290Y955706D1*
X1063578Y949804D1*
X1066890Y943304D1*
X1069145Y936365D1*
X1070286Y929160D1*
Y921864D1*
X1069145Y914658D1*
X1067922Y910516D1*
X1075351Y902939D1*
X1076960Y900896D1*
X1082173Y900035D1*
X1092113D1*
X1092081Y950484D1*
X1072987Y950496D1*
Y1062535D1*
X1177153D1*
Y950496D1*
X1158026D1*
X1158058Y900047D1*
X1177152Y900035D1*
Y787996D1*
X1102334D1*
X1534663Y900035D2*
X1567102D1*
X1567090Y950484D1*
X1547987Y950496D1*
Y1062535D1*
X1652152D1*
Y950496D1*
X1633098D1*
X1633067Y900038D1*
X1652161Y900035D1*
Y787996D1*
X1490411D1*
X1523234Y755055D1*
X1526277Y750868D1*
X1528627Y746255D1*
X1530228Y741322D1*
X1532892Y738190D1*
X1541333Y732057D1*
X1548711Y724679D1*
X1554843Y716238D1*
X1559580Y706941D1*
X1562805Y697018D1*
X1564437Y686713D1*
Y676279D1*
X1562805Y665974D1*
X1559580Y656051D1*
X1554843Y646754D1*
X1548711Y638313D1*
X1541333Y630935D1*
X1532892Y624802D1*
X1523595Y620065D1*
X1513672Y616841D1*
X1503367Y615209D1*
X1492933D1*
X1482627Y616841D1*
X1472704Y620065D1*
X1463408Y624802D1*
X1454966Y630935D1*
X1447589Y638313D1*
X1441456Y646754D1*
X1436719Y656051D1*
X1433495Y665974D1*
X1431862Y676279D1*
Y686713D1*
X1433495Y697018D1*
X1436719Y706941D1*
X1441456Y716238D1*
X1447589Y724679D1*
X1453993Y731157D1*
X1399437Y785691D1*
X1362996Y785683D1*
Y964652D1*
X1475036D1*
Y945526D1*
X1480622Y945152D1*
X1485656Y943943D1*
X1490438Y941962D1*
X1494852Y939258D1*
X1498795Y935888D1*
X1534642Y900042D1*
X3435693Y811500D2*
Y874441D1*
X3430524Y879604D1*
X3418769Y879581D1*
X3418786Y828379D1*
X3435699Y811487D1*
X4404453Y792697D2*
Y868197D1*
X4400045Y872583D1*
X4400036Y797166D1*
X3304366Y2336042D2*
Y2304679D1*
X3309295Y2307048D1*
X3316233Y2309302D1*
X3323439Y2310443D1*
X3330734D1*
X3337940Y2309302D1*
X3344878Y2307048D1*
X3351379Y2303736D1*
X3357281Y2299447D1*
X3362440Y2294289D1*
X3366728Y2288387D1*
X3370040Y2281886D1*
X3372120Y2275565D1*
X3392506Y2255170D1*
X3397878Y2257835D1*
X3404816Y2260089D1*
X3408864Y2260857D1*
X3408862Y2336032D1*
X3304372Y2336028D1*
X603750Y1388113D2*
X604235Y1396139D1*
X605536Y1403368D1*
X607633Y1410407D1*
X610501Y1417169D1*
X614105Y1423570D1*
X618398Y1429530D1*
X623329Y1434974D1*
X628835Y1439836D1*
X634848Y1444054D1*
X641294Y1447577D1*
X648092Y1450359D1*
X655157Y1452368D1*
X662402Y1453577D1*
X669737Y1453972D1*
X677070Y1453548D1*
X684310Y1452310D1*
X691367Y1450274D1*
X698154Y1447464D1*
X704585Y1443916D1*
X710582Y1439674D1*
X716069Y1434791D1*
X720978Y1429327D1*
X725248Y1423350D1*
X728826Y1416935D1*
X731667Y1410162D1*
X733737Y1403114D1*
X735009Y1395880D1*
X735469Y1388110D1*
X735238Y1284180D1*
X734217Y1276906D1*
X732392Y1269791D1*
X729786Y1262923D1*
X726432Y1256388D1*
X722371Y1250268D1*
X717654Y1244638D1*
X712339Y1239568D1*
X706493Y1235121D1*
X700187Y1231353D1*
X693502Y1228311D1*
X686519Y1226031D1*
X679326Y1224544D1*
X672012Y1223867D1*
X664668Y1224008D1*
X657386Y1224967D1*
X650255Y1226730D1*
X643365Y1229276D1*
X636802Y1232574D1*
X630646Y1236582D1*
X624976Y1241250D1*
X619860Y1246521D1*
X615363Y1252329D1*
X611541Y1258601D1*
X608440Y1265260D1*
X606101Y1272223D1*
X604552Y1279403D1*
X603811Y1286711D1*
X603744Y1383386D1*
Y1388024D1*
X839965Y1397933D2*
X840775Y1408256D1*
X843188Y1418305D1*
X847143Y1427854D1*
X852543Y1436666D1*
X859255Y1444524D1*
X867114Y1451236D1*
X875926Y1456636D1*
X885474Y1460591D1*
X895524Y1463004D1*
X905827Y1463815D1*
X916130Y1463004D1*
X926179Y1460591D1*
X935728Y1456636D1*
X944540Y1451236D1*
X952398Y1444524D1*
X959110Y1436666D1*
X964510Y1427854D1*
X968465Y1418305D1*
X970878Y1408256D1*
X971689Y1397953D1*
X971886Y1346297D1*
X1002283Y1316177D1*
X1098002Y1315974D1*
X1108210Y1314357D1*
X1116201Y1311842D1*
X1181335Y1311846D1*
Y1188783D1*
X1116348D1*
X1108210Y1186273D1*
X1098002Y1184656D1*
X1074462Y1184453D1*
X969557Y1184656D1*
X959349Y1186273D1*
X949520Y1189466D1*
X940311Y1194158D1*
X931950Y1200233D1*
X916963Y1214933D1*
X910994Y1214183D1*
X900659D1*
X890452Y1215800D1*
X880622Y1218994D1*
X871414Y1223686D1*
X863053Y1229761D1*
X855745Y1237068D1*
X849670Y1245430D1*
X844978Y1254638D1*
X841784Y1264467D1*
X840168Y1274675D1*
X839965Y1298215D1*
Y1397860D1*
X738524Y1087997D2*
X728201Y1088807D1*
X718151Y1091220D1*
X708603Y1095175D1*
X699791Y1100575D1*
X691932Y1107287D1*
X685220Y1115145D1*
X679820Y1123957D1*
X675865Y1133506D1*
X673453Y1143555D1*
X672642Y1153858D1*
X673453Y1164161D1*
X675865Y1174211D1*
X679820Y1183759D1*
X685220Y1192571D1*
X691932Y1200430D1*
X699791Y1207142D1*
X708603Y1212542D1*
X718151Y1216497D1*
X728201Y1218910D1*
X738524Y1219720D1*
X842097Y1219517D1*
X852304Y1217901D1*
X862134Y1214707D1*
X871342Y1210015D1*
X879703Y1203940D1*
X887011Y1196632D1*
X893086Y1188271D1*
X897778Y1179063D1*
X900972Y1169233D1*
X902588Y1159026D1*
Y1148691D1*
X900972Y1138483D1*
X897778Y1128654D1*
X893086Y1119445D1*
X887011Y1111084D1*
X879703Y1103776D1*
X871342Y1097702D1*
X862134Y1093010D1*
X852304Y1089816D1*
X842097Y1088199D1*
X818557Y1087996D1*
X738504Y1088032D1*
X508600Y3048460D2*
X518540D1*
X518508Y3117138D1*
X513883Y3122594D1*
X510071Y3128814D1*
X507279Y3135554D1*
X505576Y3142648D1*
X505004Y3149921D1*
X505576Y3157194D1*
X507279Y3164288D1*
X510071Y3171028D1*
X513883Y3177249D1*
X518621Y3182796D1*
X524169Y3187534D1*
X530389Y3191346D1*
X537129Y3194138D1*
X544223Y3195841D1*
X551496Y3196413D1*
X558769Y3195841D1*
X565863Y3194138D1*
X572603Y3191346D1*
X578823Y3187534D1*
X584371Y3182796D1*
X589109Y3177249D1*
X592921Y3171028D1*
X595713Y3164288D1*
X597416Y3157194D1*
X597988Y3149921D1*
X597416Y3142648D1*
X595713Y3135554D1*
X592921Y3128814D1*
X589109Y3122594D1*
X584477Y3117162D1*
X584484Y3048477D1*
X603579Y3048460D1*
Y2936421D1*
X509650D1*
X509681Y2890996D1*
X528776Y2890980D1*
Y2778941D1*
X429699D1*
X425290Y419018D1*
X5011986Y425060D1*
X5004719Y427710D1*
X4998203Y430713D1*
X4991944Y434219D1*
X4985978Y438205D1*
X4980344Y442647D1*
X4975076Y447517D1*
X4970206Y452785D1*
X4965764Y458419D1*
X4961778Y464385D1*
X4958273Y470644D1*
X4955269Y477160D1*
X4952786Y483891D1*
X4950838Y490796D1*
X4949439Y497832D1*
X4948595Y504957D1*
X4948314Y512126D1*
X4948595Y519295D1*
X4949439Y526420D1*
X4950838Y533456D1*
X4952786Y540361D1*
X4955269Y547092D1*
X4958273Y553608D1*
X4961778Y559867D1*
X4965764Y565833D1*
X4970206Y571467D1*
X4975076Y576735D1*
X4980344Y581605D1*
X4985978Y586047D1*
X4991944Y590033D1*
X4998203Y593538D1*
X5004719Y596542D1*
X5011450Y599025D1*
X5018355Y600973D1*
X5025391Y602372D1*
X5032516Y603216D1*
X5039685Y603497D1*
X5046854Y603216D1*
X5053979Y602372D1*
X5061015Y600973D1*
X5067920Y599025D1*
X5074651Y596542D1*
X5081167Y593538D1*
X5087426Y590033D1*
X5093392Y586047D1*
X5099026Y581605D1*
X5104294Y576735D1*
X5109164Y571467D1*
X5113606Y565833D1*
X5117592Y559867D1*
X5121098Y553608D1*
X5124101Y547092D1*
X5126584Y540361D1*
X5128532Y533456D1*
X5129931Y526420D1*
X5130775Y519295D1*
X5131056Y512126D1*
X5130775Y504957D1*
X5129931Y497832D1*
X5128532Y490796D1*
X5126584Y483891D1*
X5124101Y477160D1*
X5121098Y470644D1*
X5117592Y464385D1*
X5113606Y458419D1*
X5109164Y452785D1*
X5104294Y447517D1*
X5099026Y442647D1*
X5093392Y438205D1*
X5087426Y434219D1*
X5081167Y430713D1*
X5074651Y427710D1*
X5067570Y425128D1*
X5156528Y425250D1*
X5156516Y3744003D1*
X5079413Y3744016D1*
X5087426Y3739639D1*
X5093392Y3735653D1*
X5099026Y3731212D1*
X5104294Y3726342D1*
X5109164Y3721073D1*
X5113606Y3715439D1*
X5117592Y3709474D1*
X5121098Y3703214D1*
X5124101Y3696699D1*
X5126584Y3689968D1*
X5128532Y3683063D1*
X5129931Y3676026D1*
X5130775Y3668901D1*
X5131056Y3661732D1*
X5130775Y3654563D1*
X5129931Y3647439D1*
X5128532Y3640402D1*
X5126584Y3633497D1*
X5124101Y3626766D1*
X5121098Y3620251D1*
X5117592Y3613991D1*
X5113606Y3608026D1*
X5109164Y3602391D1*
X5104294Y3597123D1*
X5099026Y3592253D1*
X5093392Y3587811D1*
X5087426Y3583825D1*
X5081167Y3580320D1*
X5074651Y3577316D1*
X5067920Y3574833D1*
X5061015Y3572885D1*
X5053979Y3571486D1*
X5046854Y3570643D1*
X5039685Y3570361D1*
X5032516Y3570643D1*
X5025391Y3571486D1*
X5018355Y3572885D1*
X5011450Y3574833D1*
X5004719Y3577316D1*
X4998203Y3580320D1*
X4991944Y3583825D1*
X4985978Y3587811D1*
X4980344Y3592253D1*
X4975076Y3597123D1*
X4970206Y3602391D1*
X4965764Y3608026D1*
X4961778Y3613991D1*
X4958273Y3620251D1*
X4955269Y3626766D1*
X4952786Y3633497D1*
X4950838Y3640402D1*
X4949439Y3647439D1*
X4948595Y3654563D1*
X4948314Y3661732D1*
X4948595Y3668901D1*
X4949439Y3676026D1*
X4950838Y3683063D1*
X4952786Y3689968D1*
X4955269Y3696699D1*
X4958273Y3703214D1*
X4961778Y3709474D1*
X4965764Y3715439D1*
X4970206Y3721073D1*
X4975076Y3726342D1*
X4980344Y3731212D1*
X4985978Y3735653D1*
X4991944Y3739639D1*
X5000112Y3744025D1*
X591234Y3744016D1*
X599237Y3739639D1*
X605203Y3735653D1*
X610837Y3731212D1*
X616105Y3726342D1*
X620975Y3721073D1*
X625417Y3715439D1*
X629403Y3709474D1*
X632909Y3703214D1*
X635912Y3696699D1*
X638395Y3689968D1*
X640343Y3683063D1*
X641743Y3676026D1*
X642586Y3668901D1*
X642867Y3661732D1*
X642586Y3654563D1*
X641743Y3647439D1*
X640343Y3640402D1*
X638395Y3633497D1*
X635912Y3626766D1*
X632909Y3620251D1*
X629403Y3613991D1*
X625417Y3608026D1*
X620975Y3602391D1*
X616105Y3597123D1*
X610837Y3592253D1*
X605203Y3587811D1*
X599237Y3583825D1*
X592978Y3580320D1*
X586462Y3577316D1*
X579731Y3574833D1*
X572826Y3572885D1*
X565790Y3571486D1*
X558665Y3570643D1*
X551496Y3570361D1*
X544327Y3570643D1*
X537202Y3571486D1*
X530166Y3572885D1*
X523261Y3574833D1*
X516530Y3577316D1*
X510014Y3580320D1*
X503755Y3583825D1*
X497789Y3587811D1*
X492155Y3592253D1*
X486887Y3597123D1*
X482017Y3602391D1*
X477575Y3608026D1*
X473589Y3613991D1*
X470084Y3620251D1*
X467080Y3626766D1*
X464597Y3633497D1*
X462649Y3640402D1*
X461250Y3647439D1*
X460406Y3654563D1*
X460125Y3661732D1*
X460406Y3668901D1*
X461250Y3676026D1*
X462649Y3683063D1*
X464597Y3689968D1*
X467080Y3696699D1*
X470084Y3703214D1*
X473589Y3709474D1*
X477575Y3715439D1*
X482017Y3721073D1*
X486887Y3726342D1*
X492155Y3731212D1*
X497789Y3735653D1*
X503755Y3739639D1*
X511923Y3744025D1*
X431478Y3744016D1*
X430195Y3048463D1*
X508600Y3048460D1*
X443694Y2936421D2*
X429987D1*
X429901Y2891003D1*
X443737Y2890980D1*
X443705Y2936405D1*
X1077116Y3491293D2*
X1076508Y3483973D1*
X1075096Y3476764D1*
X1072898Y3469756D1*
X1069940Y3463032D1*
X1066258Y3456676D1*
X1061898Y3450765D1*
X1056913Y3445371D1*
X1051362Y3440559D1*
X1045315Y3436389D1*
X1038845Y3432912D1*
X1032031Y3430169D1*
X1024956Y3428195D1*
X1017707Y3427013D1*
X1010371Y3426638D1*
X1003038Y3427075D1*
X995799Y3428317D1*
X988741Y3430351D1*
X981950Y3433151D1*
X975509Y3436682D1*
X969497Y3440903D1*
X963988Y3445760D1*
X959048Y3451196D1*
X954737Y3457144D1*
X951109Y3463531D1*
X948207Y3470279D1*
X946068Y3477305D1*
X944717Y3484525D1*
X944170Y3491850D1*
X944434Y3499191D1*
X945507Y3506458D1*
X947374Y3513562D1*
X950014Y3520416D1*
X953394Y3526938D1*
X957472Y3533047D1*
X962200Y3538669D1*
X967518Y3543735D1*
X973363Y3548184D1*
X979663Y3551960D1*
X986341Y3555019D1*
X993316Y3557323D1*
X1000502Y3558843D1*
X1007812Y3559561D1*
X1015157Y3559469D1*
X1022447Y3558567D1*
X1029593Y3556867D1*
X1036507Y3554388D1*
X1043106Y3551162D1*
X1049309Y3547228D1*
X1055041Y3542634D1*
X1060230Y3537436D1*
X1064814Y3531696D1*
X1068738Y3525487D1*
X1071952Y3518882D1*
X1074419Y3511963D1*
X1076107Y3504815D1*
X1076996Y3497523D1*
X1077116Y3491293D1*
X1564616D2*
X1564008Y3483973D1*
X1562596Y3476764D1*
X1560398Y3469756D1*
X1557440Y3463032D1*
X1553758Y3456676D1*
X1549398Y3450765D1*
X1544413Y3445371D1*
X1538862Y3440559D1*
X1532815Y3436389D1*
X1526345Y3432912D1*
X1519531Y3430169D1*
X1512456Y3428195D1*
X1505207Y3427013D1*
X1497871Y3426638D1*
X1490538Y3427075D1*
X1483299Y3428317D1*
X1476241Y3430351D1*
X1469450Y3433151D1*
X1463009Y3436682D1*
X1456997Y3440903D1*
X1451488Y3445760D1*
X1446548Y3451196D1*
X1442237Y3457144D1*
X1438609Y3463531D1*
X1435707Y3470279D1*
X1433568Y3477305D1*
X1432217Y3484525D1*
X1431670Y3491850D1*
X1431934Y3499191D1*
X1433007Y3506458D1*
X1434874Y3513562D1*
X1437514Y3520416D1*
X1440894Y3526938D1*
X1444972Y3533047D1*
X1449700Y3538669D1*
X1455018Y3543735D1*
X1460863Y3548184D1*
X1467163Y3551960D1*
X1473841Y3555019D1*
X1480816Y3557323D1*
X1488002Y3558843D1*
X1495312Y3559561D1*
X1502657Y3559469D1*
X1509947Y3558567D1*
X1517093Y3556867D1*
X1524007Y3554388D1*
X1530606Y3551162D1*
X1536809Y3547228D1*
X1542541Y3542634D1*
X1547730Y3537436D1*
X1552314Y3531696D1*
X1556238Y3525487D1*
X1559452Y3518882D1*
X1561919Y3511963D1*
X1563607Y3504815D1*
X1564496Y3497523D1*
X1564616Y3491293D1*
X2054223Y3491313D2*
X2053614Y3483992D1*
X2052203Y3476784D1*
X2050004Y3469775D1*
X2047046Y3463052D1*
X2043365Y3456696D1*
X2039004Y3450785D1*
X2034019Y3445390D1*
X2028469Y3440579D1*
X2022422Y3436409D1*
X2015952Y3432932D1*
X2009138Y3430189D1*
X2002062Y3428215D1*
X1994813Y3427033D1*
X1987477Y3426658D1*
X1980145Y3427095D1*
X1972905Y3428337D1*
X1965847Y3430371D1*
X1959056Y3433170D1*
X1952615Y3436702D1*
X1946604Y3440922D1*
X1941094Y3445780D1*
X1936154Y3451216D1*
X1931843Y3457164D1*
X1928215Y3463550D1*
X1925314Y3470298D1*
X1923174Y3477325D1*
X1921823Y3484545D1*
X1921276Y3491870D1*
X1921541Y3499211D1*
X1922613Y3506477D1*
X1924481Y3513581D1*
X1927120Y3520436D1*
X1930500Y3526957D1*
X1934578Y3533067D1*
X1939306Y3538689D1*
X1944624Y3543755D1*
X1950469Y3548203D1*
X1956769Y3551980D1*
X1963447Y3555039D1*
X1970422Y3557343D1*
X1977609Y3558863D1*
X1984919Y3559581D1*
X1992263Y3559489D1*
X1999553Y3558587D1*
X2006699Y3556886D1*
X2013614Y3554408D1*
X2020213Y3551182D1*
X2026416Y3547248D1*
X2032147Y3542654D1*
X2037336Y3537455D1*
X2041921Y3531716D1*
X2045844Y3525506D1*
X2049059Y3518902D1*
X2051525Y3511983D1*
X2053213Y3504834D1*
X2054103Y3497543D1*
X2054223Y3491313D1*
X2539616D2*
X2539008Y3483992D1*
X2537596Y3476784D1*
X2535398Y3469775D1*
X2532440Y3463052D1*
X2528758Y3456696D1*
X2524398Y3450785D1*
X2519413Y3445390D1*
X2513862Y3440579D1*
X2507815Y3436409D1*
X2501345Y3432932D1*
X2494531Y3430189D1*
X2487456Y3428215D1*
X2480207Y3427033D1*
X2472871Y3426658D1*
X2465538Y3427095D1*
X2458299Y3428337D1*
X2451241Y3430371D1*
X2444450Y3433170D1*
X2438009Y3436702D1*
X2431997Y3440922D1*
X2426488Y3445780D1*
X2421548Y3451216D1*
X2417237Y3457164D1*
X2413609Y3463550D1*
X2410707Y3470298D1*
X2408568Y3477325D1*
X2407217Y3484545D1*
X2406670Y3491870D1*
X2406934Y3499211D1*
X2408007Y3506477D1*
X2409874Y3513581D1*
X2412514Y3520436D1*
X2415894Y3526957D1*
X2419972Y3533067D1*
X2424700Y3538689D1*
X2430018Y3543755D1*
X2435863Y3548203D1*
X2442163Y3551980D1*
X2448841Y3555039D1*
X2455816Y3557343D1*
X2463002Y3558863D1*
X2470312Y3559581D1*
X2477657Y3559489D1*
X2484947Y3558587D1*
X2492093Y3556886D1*
X2499007Y3554408D1*
X2505606Y3551182D1*
X2511809Y3547248D1*
X2517541Y3542654D1*
X2522730Y3537455D1*
X2527314Y3531716D1*
X2531238Y3525506D1*
X2534452Y3518902D1*
X2536919Y3511983D1*
X2538607Y3504834D1*
X2539496Y3497543D1*
X2539616Y3491313D1*
X3027116D2*
X3026508Y3483992D1*
X3025096Y3476784D1*
X3022898Y3469775D1*
X3019940Y3463052D1*
X3016258Y3456696D1*
X3011898Y3450785D1*
X3006913Y3445390D1*
X3001362Y3440579D1*
X2995315Y3436409D1*
X2988845Y3432932D1*
X2982031Y3430189D1*
X2974956Y3428215D1*
X2967707Y3427033D1*
X2960371Y3426658D1*
X2953038Y3427095D1*
X2945799Y3428337D1*
X2938741Y3430371D1*
X2931950Y3433170D1*
X2925509Y3436702D1*
X2919497Y3440922D1*
X2913988Y3445780D1*
X2909048Y3451216D1*
X2904737Y3457164D1*
X2901109Y3463550D1*
X2898207Y3470298D1*
X2896068Y3477325D1*
X2894717Y3484545D1*
X2894170Y3491870D1*
X2894434Y3499211D1*
X2895507Y3506477D1*
X2897374Y3513581D1*
X2900014Y3520436D1*
X2903394Y3526957D1*
X2907472Y3533067D1*
X2912200Y3538689D1*
X2917518Y3543755D1*
X2923363Y3548203D1*
X2929663Y3551980D1*
X2936341Y3555039D1*
X2943316Y3557343D1*
X2950502Y3558863D1*
X2957812Y3559581D1*
X2965157Y3559489D1*
X2972447Y3558587D1*
X2979593Y3556886D1*
X2986507Y3554408D1*
X2993106Y3551182D1*
X2999309Y3547248D1*
X3005041Y3542654D1*
X3010230Y3537455D1*
X3014814Y3531716D1*
X3018738Y3525506D1*
X3021952Y3518902D1*
X3024419Y3511983D1*
X3026107Y3504834D1*
X3026996Y3497543D1*
X3027116Y3491313D1*
X3514616D2*
X3514008Y3483992D1*
X3512596Y3476784D1*
X3510398Y3469775D1*
X3507440Y3463052D1*
X3503758Y3456696D1*
X3499398Y3450785D1*
X3494413Y3445390D1*
X3488862Y3440579D1*
X3482815Y3436409D1*
X3476345Y3432932D1*
X3469531Y3430189D1*
X3462456Y3428215D1*
X3455207Y3427033D1*
X3447871Y3426658D1*
X3440538Y3427095D1*
X3433299Y3428337D1*
X3426241Y3430371D1*
X3419450Y3433170D1*
X3413009Y3436702D1*
X3406997Y3440922D1*
X3401488Y3445780D1*
X3396548Y3451216D1*
X3392237Y3457164D1*
X3388609Y3463550D1*
X3385707Y3470298D1*
X3383568Y3477325D1*
X3382217Y3484545D1*
X3381670Y3491870D1*
X3381934Y3499211D1*
X3383007Y3506477D1*
X3384874Y3513581D1*
X3387514Y3520436D1*
X3390894Y3526957D1*
X3394972Y3533067D1*
X3399700Y3538689D1*
X3405018Y3543755D1*
X3410863Y3548203D1*
X3417163Y3551980D1*
X3423841Y3555039D1*
X3430816Y3557343D1*
X3438002Y3558863D1*
X3445312Y3559581D1*
X3452657Y3559489D1*
X3459947Y3558587D1*
X3467093Y3556886D1*
X3474007Y3554408D1*
X3480606Y3551182D1*
X3486809Y3547248D1*
X3492541Y3542654D1*
X3497730Y3537455D1*
X3502314Y3531716D1*
X3506238Y3525506D1*
X3509452Y3518902D1*
X3511919Y3511983D1*
X3513607Y3504834D1*
X3514496Y3497543D1*
X3514616Y3491313D1*
X4002116D2*
X4001508Y3483992D1*
X4000096Y3476784D1*
X3997898Y3469775D1*
X3994940Y3463052D1*
X3991258Y3456696D1*
X3986898Y3450785D1*
X3981913Y3445390D1*
X3976362Y3440579D1*
X3970315Y3436409D1*
X3963845Y3432932D1*
X3957031Y3430189D1*
X3949956Y3428215D1*
X3942707Y3427033D1*
X3935371Y3426658D1*
X3928038Y3427095D1*
X3920799Y3428337D1*
X3913741Y3430371D1*
X3906950Y3433170D1*
X3900509Y3436702D1*
X3894497Y3440922D1*
X3888988Y3445780D1*
X3884048Y3451216D1*
X3879737Y3457164D1*
X3876109Y3463550D1*
X3873207Y3470298D1*
X3871068Y3477325D1*
X3869717Y3484545D1*
X3869170Y3491870D1*
X3869434Y3499211D1*
X3870507Y3506477D1*
X3872374Y3513581D1*
X3875014Y3520436D1*
X3878394Y3526957D1*
X3882472Y3533067D1*
X3887200Y3538689D1*
X3892518Y3543755D1*
X3898363Y3548203D1*
X3904663Y3551980D1*
X3911341Y3555039D1*
X3918316Y3557343D1*
X3925502Y3558863D1*
X3932812Y3559581D1*
X3940157Y3559489D1*
X3947447Y3558587D1*
X3954593Y3556886D1*
X3961507Y3554408D1*
X3968106Y3551182D1*
X3974309Y3547248D1*
X3980041Y3542654D1*
X3985230Y3537455D1*
X3989814Y3531716D1*
X3993738Y3525506D1*
X3996952Y3518902D1*
X3999419Y3511983D1*
X4001107Y3504834D1*
X4001996Y3497543D1*
X4002116Y3491313D1*
X4489616D2*
X4489008Y3483992D1*
X4487596Y3476784D1*
X4485398Y3469775D1*
X4482440Y3463052D1*
X4478758Y3456696D1*
X4474398Y3450785D1*
X4469413Y3445390D1*
X4463862Y3440579D1*
X4457815Y3436409D1*
X4451345Y3432932D1*
X4444531Y3430189D1*
X4437456Y3428215D1*
X4430207Y3427033D1*
X4422871Y3426658D1*
X4415538Y3427095D1*
X4408299Y3428337D1*
X4401241Y3430371D1*
X4394450Y3433170D1*
X4388009Y3436702D1*
X4381997Y3440922D1*
X4376488Y3445780D1*
X4371548Y3451216D1*
X4367237Y3457164D1*
X4363609Y3463550D1*
X4360707Y3470298D1*
X4358568Y3477325D1*
X4357217Y3484545D1*
X4356670Y3491870D1*
X4356934Y3499211D1*
X4358007Y3506477D1*
X4359874Y3513581D1*
X4362514Y3520436D1*
X4365894Y3526957D1*
X4369972Y3533067D1*
X4374700Y3538689D1*
X4380018Y3543755D1*
X4385863Y3548203D1*
X4392163Y3551980D1*
X4398841Y3555039D1*
X4405816Y3557343D1*
X4413002Y3558863D1*
X4420312Y3559581D1*
X4427657Y3559489D1*
X4434947Y3558587D1*
X4442093Y3556886D1*
X4449007Y3554408D1*
X4455606Y3551182D1*
X4461809Y3547248D1*
X4467541Y3542654D1*
X4472730Y3537455D1*
X4477314Y3531716D1*
X4481238Y3525506D1*
X4484452Y3518902D1*
X4486919Y3511983D1*
X4488607Y3504834D1*
X4489496Y3497543D1*
X4489616Y3491313D1*
X1227097Y679659D2*
X1226488Y672339D1*
X1225077Y665131D1*
X1222878Y658122D1*
X1219920Y651398D1*
X1216239Y645042D1*
X1211878Y639131D1*
X1206893Y633737D1*
X1201343Y628925D1*
X1195296Y624756D1*
X1188826Y621278D1*
X1182012Y618536D1*
X1174937Y616561D1*
X1167687Y615379D1*
X1160351Y615005D1*
X1153019Y615441D1*
X1145779Y616684D1*
X1138721Y618717D1*
X1131930Y621517D1*
X1125489Y625048D1*
X1119478Y629269D1*
X1113968Y634127D1*
X1109028Y639562D1*
X1104717Y645510D1*
X1101089Y651897D1*
X1098188Y658645D1*
X1096048Y665672D1*
X1094697Y672892D1*
X1094150Y680217D1*
X1094415Y687557D1*
X1095487Y694824D1*
X1097355Y701928D1*
X1099994Y708782D1*
X1103374Y715304D1*
X1107452Y721413D1*
X1112180Y727035D1*
X1117498Y732101D1*
X1123343Y736550D1*
X1129643Y740327D1*
X1136321Y743386D1*
X1143296Y745689D1*
X1150483Y747209D1*
X1157793Y747928D1*
X1165137Y747835D1*
X1172427Y746933D1*
X1179573Y745233D1*
X1186488Y742754D1*
X1193087Y739528D1*
X1199290Y735594D1*
X1205021Y731000D1*
X1210210Y725802D1*
X1214795Y720063D1*
X1218718Y713853D1*
X1221933Y707248D1*
X1224399Y700329D1*
X1226087Y693181D1*
X1226977Y685889D1*
X1227097Y679659D1*
X1714616D2*
X1714008Y672339D1*
X1712596Y665131D1*
X1710398Y658122D1*
X1707440Y651398D1*
X1703758Y645042D1*
X1699398Y639131D1*
X1694413Y633737D1*
X1688862Y628925D1*
X1682815Y624756D1*
X1676345Y621278D1*
X1669531Y618536D1*
X1662456Y616561D1*
X1655207Y615379D1*
X1647871Y615005D1*
X1640538Y615441D1*
X1633299Y616684D1*
X1626241Y618717D1*
X1619450Y621517D1*
X1613009Y625048D1*
X1606997Y629269D1*
X1601488Y634127D1*
X1596548Y639562D1*
X1592237Y645510D1*
X1588609Y651897D1*
X1585707Y658645D1*
X1583568Y665672D1*
X1582217Y672892D1*
X1581670Y680217D1*
X1581934Y687557D1*
X1583007Y694824D1*
X1584874Y701928D1*
X1587514Y708782D1*
X1590894Y715304D1*
X1594972Y721413D1*
X1599700Y727035D1*
X1605018Y732101D1*
X1610863Y736550D1*
X1617163Y740327D1*
X1623841Y743386D1*
X1630816Y745689D1*
X1638002Y747209D1*
X1645312Y747928D1*
X1652657Y747835D1*
X1659947Y746933D1*
X1667093Y745233D1*
X1674007Y742754D1*
X1680606Y739528D1*
X1686809Y735594D1*
X1692541Y731000D1*
X1697730Y725802D1*
X1702314Y720063D1*
X1706238Y713853D1*
X1709452Y707248D1*
X1711919Y700329D1*
X1713607Y693181D1*
X1714496Y685889D1*
X1714616Y679659D1*
X2204223D2*
X2203614Y672339D1*
X2202203Y665131D1*
X2200004Y658122D1*
X2197046Y651398D1*
X2193365Y645042D1*
X2189004Y639131D1*
X2184019Y633737D1*
X2178469Y628925D1*
X2172422Y624756D1*
X2165952Y621278D1*
X2159138Y618536D1*
X2152062Y616561D1*
X2144813Y615379D1*
X2137477Y615005D1*
X2130145Y615441D1*
X2122905Y616684D1*
X2115847Y618717D1*
X2109056Y621517D1*
X2102615Y625048D1*
X2096604Y629269D1*
X2091094Y634127D1*
X2086154Y639562D1*
X2081843Y645510D1*
X2078215Y651897D1*
X2075314Y658645D1*
X2073174Y665672D1*
X2071823Y672892D1*
X2071276Y680217D1*
X2071541Y687557D1*
X2072613Y694824D1*
X2074481Y701928D1*
X2077120Y708782D1*
X2080500Y715304D1*
X2084578Y721413D1*
X2089306Y727035D1*
X2094624Y732101D1*
X2100469Y736550D1*
X2106769Y740327D1*
X2113447Y743386D1*
X2120422Y745689D1*
X2127609Y747209D1*
X2134919Y747928D1*
X2142263Y747835D1*
X2149553Y746933D1*
X2156699Y745233D1*
X2163614Y742754D1*
X2170213Y739528D1*
X2176416Y735594D1*
X2182147Y731000D1*
X2187336Y725802D1*
X2191921Y720063D1*
X2195844Y713853D1*
X2199059Y707248D1*
X2201525Y700329D1*
X2203213Y693181D1*
X2204103Y685889D1*
X2204223Y679659D1*
X2689616D2*
X2689008Y672339D1*
X2687596Y665131D1*
X2685398Y658122D1*
X2682440Y651398D1*
X2678758Y645042D1*
X2674398Y639131D1*
X2669413Y633737D1*
X2663862Y628925D1*
X2657815Y624756D1*
X2651345Y621278D1*
X2644531Y618536D1*
X2637456Y616561D1*
X2630207Y615379D1*
X2622871Y615005D1*
X2615538Y615441D1*
X2608299Y616684D1*
X2601241Y618717D1*
X2594450Y621517D1*
X2588009Y625048D1*
X2581997Y629269D1*
X2576488Y634127D1*
X2571548Y639562D1*
X2567237Y645510D1*
X2563609Y651897D1*
X2560707Y658645D1*
X2558568Y665672D1*
X2557217Y672892D1*
X2556670Y680217D1*
X2556934Y687557D1*
X2558007Y694824D1*
X2559874Y701928D1*
X2562514Y708782D1*
X2565894Y715304D1*
X2569972Y721413D1*
X2574700Y727035D1*
X2580018Y732101D1*
X2585863Y736550D1*
X2592163Y740327D1*
X2598841Y743386D1*
X2605816Y745689D1*
X2613002Y747209D1*
X2620312Y747928D1*
X2627657Y747835D1*
X2634947Y746933D1*
X2642093Y745233D1*
X2649007Y742754D1*
X2655606Y739528D1*
X2661809Y735594D1*
X2667541Y731000D1*
X2672730Y725802D1*
X2677314Y720063D1*
X2681238Y713853D1*
X2684452Y707248D1*
X2686919Y700329D1*
X2688607Y693181D1*
X2689496Y685889D1*
X2689616Y679659D1*
X3177097D2*
X3176488Y672339D1*
X3175077Y665131D1*
X3172878Y658122D1*
X3169920Y651398D1*
X3166239Y645042D1*
X3161878Y639131D1*
X3156893Y633737D1*
X3151343Y628925D1*
X3145296Y624756D1*
X3138826Y621278D1*
X3132012Y618536D1*
X3124937Y616561D1*
X3117687Y615379D1*
X3110351Y615005D1*
X3103019Y615441D1*
X3095779Y616684D1*
X3088721Y618717D1*
X3081930Y621517D1*
X3075489Y625048D1*
X3069478Y629269D1*
X3063968Y634127D1*
X3059028Y639562D1*
X3054717Y645510D1*
X3051089Y651897D1*
X3048188Y658645D1*
X3046048Y665672D1*
X3044697Y672892D1*
X3044150Y680217D1*
X3044415Y687557D1*
X3045487Y694824D1*
X3047355Y701928D1*
X3049994Y708782D1*
X3053374Y715304D1*
X3057452Y721413D1*
X3062180Y727035D1*
X3067498Y732101D1*
X3073343Y736550D1*
X3079643Y740327D1*
X3086321Y743386D1*
X3093296Y745689D1*
X3100483Y747209D1*
X3107793Y747928D1*
X3115137Y747835D1*
X3122427Y746933D1*
X3129573Y745233D1*
X3136488Y742754D1*
X3143087Y739528D1*
X3149290Y735594D1*
X3155021Y731000D1*
X3160210Y725802D1*
X3164795Y720063D1*
X3168718Y713853D1*
X3171933Y707248D1*
X3174399Y700329D1*
X3176087Y693181D1*
X3176977Y685889D1*
X3177097Y679659D1*
X3664616D2*
X3664008Y672339D1*
X3662596Y665131D1*
X3660398Y658122D1*
X3657440Y651398D1*
X3653758Y645042D1*
X3649398Y639131D1*
X3644413Y633737D1*
X3638862Y628925D1*
X3632815Y624756D1*
X3626345Y621278D1*
X3619531Y618536D1*
X3612456Y616561D1*
X3605207Y615379D1*
X3597871Y615005D1*
X3590538Y615441D1*
X3583299Y616684D1*
X3576241Y618717D1*
X3569450Y621517D1*
X3563009Y625048D1*
X3556997Y629269D1*
X3551488Y634127D1*
X3546548Y639562D1*
X3542237Y645510D1*
X3538609Y651897D1*
X3535707Y658645D1*
X3533568Y665672D1*
X3532217Y672892D1*
X3531670Y680217D1*
X3531934Y687557D1*
X3533007Y694824D1*
X3534874Y701928D1*
X3537514Y708782D1*
X3540894Y715304D1*
X3544972Y721413D1*
X3549700Y727035D1*
X3555018Y732101D1*
X3560863Y736550D1*
X3567163Y740327D1*
X3573841Y743386D1*
X3580816Y745689D1*
X3588002Y747209D1*
X3595312Y747928D1*
X3602657Y747835D1*
X3609947Y746933D1*
X3617093Y745233D1*
X3624007Y742754D1*
X3630606Y739528D1*
X3636809Y735594D1*
X3642541Y731000D1*
X3647730Y725802D1*
X3652314Y720063D1*
X3656238Y713853D1*
X3659452Y707248D1*
X3661919Y700329D1*
X3663607Y693181D1*
X3664496Y685889D1*
X3664616Y679659D1*
X4152097D2*
X4151488Y672339D1*
X4150077Y665131D1*
X4147878Y658122D1*
X4144920Y651398D1*
X4141239Y645042D1*
X4136878Y639131D1*
X4131893Y633737D1*
X4126343Y628925D1*
X4120296Y624756D1*
X4113826Y621278D1*
X4107012Y618536D1*
X4099937Y616561D1*
X4092687Y615379D1*
X4085351Y615005D1*
X4078019Y615441D1*
X4070779Y616684D1*
X4063721Y618717D1*
X4056930Y621517D1*
X4050489Y625048D1*
X4044478Y629269D1*
X4038968Y634127D1*
X4034028Y639562D1*
X4029717Y645510D1*
X4026089Y651897D1*
X4023188Y658645D1*
X4021048Y665672D1*
X4019697Y672892D1*
X4019150Y680217D1*
X4019415Y687557D1*
X4020487Y694824D1*
X4022355Y701928D1*
X4024994Y708782D1*
X4028374Y715304D1*
X4032452Y721413D1*
X4037180Y727035D1*
X4042498Y732101D1*
X4048343Y736550D1*
X4054643Y740327D1*
X4061321Y743386D1*
X4068296Y745689D1*
X4075483Y747209D1*
X4082793Y747928D1*
X4090137Y747835D1*
X4097427Y746933D1*
X4104573Y745233D1*
X4111488Y742754D1*
X4118087Y739528D1*
X4124290Y735594D1*
X4130021Y731000D1*
X4135210Y725802D1*
X4139795Y720063D1*
X4143718Y713853D1*
X4146933Y707248D1*
X4149399Y700329D1*
X4151087Y693181D1*
X4151977Y685889D1*
X4152097Y679659D1*
X4639616D2*
X4639008Y672339D1*
X4637596Y665131D1*
X4635398Y658122D1*
X4632440Y651398D1*
X4628758Y645042D1*
X4624398Y639131D1*
X4619413Y633737D1*
X4613862Y628925D1*
X4607815Y624756D1*
X4601345Y621278D1*
X4594531Y618536D1*
X4587456Y616561D1*
X4580207Y615379D1*
X4572871Y615005D1*
X4565538Y615441D1*
X4558299Y616684D1*
X4551241Y618717D1*
X4544450Y621517D1*
X4538009Y625048D1*
X4531997Y629269D1*
X4526488Y634127D1*
X4521548Y639562D1*
X4517237Y645510D1*
X4513609Y651897D1*
X4510707Y658645D1*
X4508568Y665672D1*
X4507217Y672892D1*
X4506670Y680217D1*
X4506934Y687557D1*
X4508007Y694824D1*
X4509874Y701928D1*
X4512514Y708782D1*
X4515894Y715304D1*
X4519972Y721413D1*
X4524700Y727035D1*
X4530018Y732101D1*
X4535863Y736550D1*
X4542163Y740327D1*
X4548841Y743386D1*
X4555816Y745689D1*
X4563002Y747209D1*
X4570312Y747928D1*
X4577657Y747835D1*
X4584947Y746933D1*
X4592093Y745233D1*
X4599007Y742754D1*
X4605606Y739528D1*
X4611809Y735594D1*
X4617541Y731000D1*
X4622730Y725802D1*
X4627314Y720063D1*
X4631238Y713853D1*
X4634452Y707248D1*
X4636919Y700329D1*
X4638607Y693181D1*
X4639496Y685889D1*
X4639616Y679659D1*
X4506631Y2014996D2*
X4552743D1*
X4552861Y2029281D1*
X4553671Y2034394D1*
X4555271Y2039317D1*
X4557621Y2043929D1*
X4560664Y2048117D1*
X4607892Y2095489D1*
X4624560Y2112014D1*
X4628748Y2115056D1*
X4633360Y2117406D1*
X4638283Y2119006D1*
X4643396Y2119816D1*
X4710289Y2119917D1*
X4965892D1*
X4964434Y2121888D1*
X4957280Y2127998D1*
X4951170Y2135152D1*
X4946254Y2143174D1*
X4942654Y2151866D1*
X4940457Y2161014D1*
X4939719Y2170394D1*
X4940457Y2179773D1*
X4942654Y2188921D1*
X4946254Y2197613D1*
X4951170Y2205635D1*
X4957280Y2212789D1*
X4964434Y2218900D1*
X4966621Y2220361D1*
X4960737Y2224802D1*
X4954084Y2231455D1*
X4948554Y2239066D1*
X4944283Y2247449D1*
X4941376Y2256397D1*
X4939904Y2265690D1*
Y2275098D1*
X4941376Y2284390D1*
X4944283Y2293338D1*
X4948554Y2301721D1*
X4954084Y2309332D1*
X4955096Y2310426D1*
X4939719Y2310437D1*
Y2430350D1*
X5059633D1*
Y2310437D1*
X5044310D1*
X5048182Y2305635D1*
X5053098Y2297613D1*
X5056698Y2288921D1*
X5058894Y2279773D1*
X5059633Y2270394D1*
X5058894Y2261014D1*
X5056698Y2251866D1*
X5053098Y2243174D1*
X5048182Y2235152D1*
X5042072Y2227998D1*
X5034918Y2221888D1*
X5032731Y2220427D1*
X5038615Y2215985D1*
X5045267Y2209332D1*
X5050797Y2201721D1*
X5055069Y2193338D1*
X5057976Y2184390D1*
X5059448Y2175098D1*
Y2165690D1*
X5057976Y2156397D1*
X5055069Y2147449D1*
X5050797Y2139066D1*
X5045267Y2131455D1*
X5038615Y2124802D1*
X5032731Y2120427D1*
X5038615Y2115985D1*
X5045267Y2109332D1*
X5050797Y2101721D1*
X5055069Y2093338D1*
X5057976Y2084390D1*
X5059448Y2075098D1*
Y2065690D1*
X5057976Y2056397D1*
X5055069Y2047449D1*
X5050797Y2039066D1*
X5045267Y2031455D1*
X5038615Y2024802D1*
X5032731Y2020427D1*
X5038615Y2015985D1*
X5045267Y2009332D1*
X5050797Y2001721D1*
X5055069Y1993338D1*
X5057976Y1984390D1*
X5059448Y1975098D1*
Y1965690D1*
X5057976Y1956397D1*
X5055069Y1947449D1*
X5050797Y1939066D1*
X5045267Y1931455D1*
X5038615Y1924802D1*
X5032731Y1920427D1*
X5038825Y1915805D1*
X5044083Y1910678D1*
X5048675Y1904946D1*
X5052532Y1898696D1*
X5055596Y1892021D1*
X5057821Y1885021D1*
X5059173Y1877802D1*
X5059633Y1870394D1*
X5059183Y1863063D1*
X5057840Y1855842D1*
X5055624Y1848840D1*
X5052569Y1842161D1*
X5048721Y1835906D1*
X5044136Y1830168D1*
X5038884Y1825034D1*
X5033044Y1820580D1*
X5026703Y1816874D1*
X5019957Y1813971D1*
X5012906Y1811915D1*
X5005657Y1810736D1*
X4998318Y1810452D1*
X4990999Y1811068D1*
X4983811Y1812574D1*
X4976860Y1814948D1*
X4970252Y1818153D1*
X4964086Y1822143D1*
X4958453Y1826856D1*
X4953439Y1832223D1*
X4949119Y1838163D1*
X4945558Y1844586D1*
X4942808Y1851396D1*
X4940912Y1858492D1*
X4939898Y1865766D1*
X4939781Y1873109D1*
X4940562Y1880412D1*
X4942231Y1887565D1*
X4944761Y1894459D1*
X4948115Y1900993D1*
X4952244Y1907068D1*
X4957083Y1912592D1*
X4962562Y1917483D1*
X4966595Y1920391D1*
X4960737Y1924802D1*
X4954084Y1931455D1*
X4948554Y1939066D1*
X4944283Y1947449D1*
X4941376Y1956397D1*
X4939904Y1965690D1*
Y1975098D1*
X4941376Y1984390D1*
X4944283Y1993338D1*
X4948554Y2001721D1*
X4954084Y2009332D1*
X4960737Y2015985D1*
X4966621Y2020361D1*
X4960737Y2024802D1*
X4954084Y2031455D1*
X4948554Y2039066D1*
X4944283Y2047449D1*
X4942070Y2053937D1*
X4861629Y2053941D1*
X4864574Y2048981D1*
X4867366Y2042241D1*
X4869069Y2035147D1*
X4869642Y2027874D1*
X4869069Y2020601D1*
X4867366Y2013507D1*
X4864574Y2006767D1*
X4860763Y2000547D1*
X4856025Y1994999D1*
X4850477Y1990261D1*
X4844257Y1986449D1*
X4837516Y1983657D1*
X4830423Y1981954D1*
X4823306Y1981388D1*
X4765834Y1924049D1*
X4761646Y1921007D1*
X4757033Y1918657D1*
X4752110Y1917057D1*
X4746998Y1916247D1*
X4724063Y1916146D1*
X4724051Y1886925D1*
X4727173Y1881658D1*
X4729965Y1874918D1*
X4731668Y1867824D1*
X4732240Y1860551D1*
X4731668Y1853278D1*
X4729965Y1846184D1*
X4727173Y1839444D1*
X4723361Y1833224D1*
X4718623Y1827676D1*
X4713075Y1822938D1*
X4706855Y1819126D1*
X4700115Y1816335D1*
X4693021Y1814631D1*
X4685748Y1814059D1*
X4681661Y1814254D1*
X4679965Y1807208D1*
X4677173Y1800468D1*
X4673361Y1794247D1*
X4668623Y1788700D1*
X4663075Y1783962D1*
X4656855Y1780150D1*
X4650115Y1777358D1*
X4643021Y1775655D1*
X4635748Y1775083D1*
X4628475Y1775655D1*
X4621381Y1777358D1*
X4614641Y1780150D1*
X4608421Y1783962D1*
X4602689Y1788899D1*
X4596601Y1786997D1*
X4589396Y1785856D1*
X4582100D1*
X4574895Y1786997D1*
X4567956Y1789252D1*
X4561456Y1792564D1*
X4555554Y1796852D1*
X4550395Y1802011D1*
X4546107Y1807913D1*
X4542795Y1814413D1*
X4540540Y1821351D1*
X4539909Y1824526D1*
X4533192Y1826177D1*
X4526452Y1828969D1*
X4520232Y1832781D1*
X4514684Y1837519D1*
X4509946Y1843066D1*
X4506134Y1849287D1*
X4503342Y1856027D1*
X4501639Y1863121D1*
X4501067Y1870394D1*
X4501639Y1877667D1*
X4502758Y1882688D1*
X4500561Y1883271D1*
X4497445D1*
Y2014996D1*
X4506631D1*
X4710350D2*
X4724051D1*
Y1982090D1*
X4734075Y1985452D1*
X4776678Y2028054D1*
X4777230Y2035147D1*
X4778933Y2042241D1*
X4781725Y2048981D1*
X4784689Y2053933D1*
X4704170Y2053941D1*
X4707094Y2048981D1*
X4709886Y2042241D1*
X4711589Y2035147D1*
X4712161Y2027874D1*
X4711589Y2020601D1*
X4710308Y2015003D1*
X1051831Y2584695D2*
X1043622Y2584059D1*
X1035167Y2584725D1*
X1026919Y2586705D1*
X1019083Y2589950D1*
X1011852Y2594382D1*
X1005402Y2599890D1*
X999894Y2606340D1*
X995462Y2613572D1*
X994428Y2615815D1*
X991283Y2609869D1*
X986298Y2603007D1*
X980300Y2597009D1*
X978178Y2595336D1*
X981515Y2589390D1*
X998236Y2572668D1*
X1039793Y2572673D1*
X1051833Y2584706D1*
X863012Y2586574D2*
X855227Y2584725D1*
X846772Y2584059D1*
X838316Y2584725D1*
X830069Y2586705D1*
X822233Y2589950D1*
X815001Y2594382D1*
X808552Y2599890D1*
X803043Y2606340D1*
X801026Y2609359D1*
X801020Y2435247D1*
X1207465Y2028794D1*
X1207484Y2073278D1*
X870900Y2409993D1*
X867857Y2414181D1*
X865507Y2418793D1*
X863907Y2423716D1*
X863098Y2428829D1*
X862996Y2495722D1*
Y2586545D1*
X1299068Y1601631D2*
X1295169Y1606340D1*
X1290738Y1613572D1*
X1289704Y1615815D1*
X1286559Y1609869D1*
X1281573Y1603007D1*
X1275576Y1597009D1*
X1268714Y1592024D1*
X1261684Y1588416D1*
X1285845Y1588421D1*
X1299063Y1601621D1*
X3520902Y2336041D2*
Y2308769D1*
X3526507Y2310014D1*
X3533780Y2310587D1*
X3541052Y2310014D1*
X3548146Y2308311D1*
X3554887Y2305519D1*
X3561107Y2301707D1*
X3566654Y2296969D1*
X3571392Y2291422D1*
X3575204Y2285201D1*
X3577996Y2278461D1*
X3579699Y2271367D1*
X3580265Y2264251D1*
X3593314Y2251212D1*
X3625403Y2251216D1*
X3625398Y2336012D1*
X3520907Y2336028D1*
X3737437Y2397639D2*
Y2330536D1*
X3788336Y2330446D1*
X3793449Y2329636D1*
X3798372Y2328036D1*
X3802984Y2325686D1*
X3807172Y2322643D1*
X3819351Y2310609D1*
X3824885Y2310204D1*
X3737424Y2397656D1*
X642586Y504957D2*
X641743Y497832D1*
X640343Y490796D1*
X638395Y483891D1*
X635912Y477160D1*
X632909Y470644D1*
X629403Y464385D1*
X625417Y458419D1*
X620975Y452785D1*
X616105Y447517D1*
X610837Y442647D1*
X605203Y438205D1*
X599237Y434219D1*
X592978Y430713D1*
X586462Y427710D1*
X579731Y425227D1*
X572826Y423279D1*
X565790Y421880D1*
X558665Y421036D1*
X551496Y420755D1*
X544327Y421036D1*
X537202Y421880D1*
X530166Y423279D1*
X523261Y425227D1*
X516530Y427710D1*
X510014Y430713D1*
X503755Y434219D1*
X497789Y438205D1*
X492155Y442647D1*
X486887Y447517D1*
X482017Y452785D1*
X477575Y458419D1*
X473589Y464385D1*
X470084Y470644D1*
X467080Y477160D1*
X464597Y483891D1*
X462649Y490796D1*
X461250Y497832D1*
X460406Y504957D1*
X460125Y512126D1*
X460406Y519295D1*
X461250Y526420D1*
X462649Y533456D1*
X464597Y540361D1*
X467080Y547092D1*
X470084Y553608D1*
X473589Y559867D1*
X477575Y565833D1*
X482017Y571467D1*
X486887Y576735D1*
X492155Y581605D1*
X497789Y586047D1*
X503755Y590033D1*
X510014Y593538D1*
X516530Y596542D1*
X523261Y599025D1*
X530166Y600973D1*
X537202Y602372D1*
X544327Y603216D1*
X551496Y603497D1*
X558665Y603216D1*
X565790Y602372D1*
X572826Y600973D1*
X579731Y599025D1*
X586462Y596542D1*
X592978Y593538D1*
X599237Y590033D1*
X605203Y586047D1*
X610837Y581605D1*
X616105Y576735D1*
X620975Y571467D1*
X625417Y565833D1*
X629403Y559867D1*
X632909Y553608D1*
X635912Y547092D1*
X638395Y540361D1*
X640343Y533456D1*
X641743Y526420D1*
X642586Y519295D1*
X642867Y512126D1*
X642586Y504957D1*
X4468742Y1877753D2*
X4476397Y1870098D1*
X3137035Y2297250D2*
X3142279Y2301707D1*
X3148499Y2305519D1*
X3155239Y2308311D1*
X3162333Y2310014D1*
X3169606Y2310587D1*
X3176879Y2310014D1*
X3183973Y2308311D1*
X3190713Y2305519D1*
X3192318Y2304620D1*
X3192327Y2336033D1*
X3139469Y2336028D1*
X3137043Y2334304D1*
Y2297308D1*
X3142279Y2301707D1*
X3148499Y2305519D1*
X3155239Y2308311D1*
X3162333Y2310014D1*
X3169606Y2310587D1*
X3176879Y2310014D1*
X3183973Y2308311D1*
X3190713Y2305519D1*
X3192318Y2304620D1*
X3192327Y2320295D1*
X3304375Y2304620D2*
X3309295Y2307048D1*
X3316233Y2309302D1*
X3323439Y2310443D1*
X3330734D1*
X3337940Y2309302D1*
X3344878Y2307048D1*
X3351379Y2303736D1*
X3357281Y2299447D1*
X3362440Y2294289D1*
X3366728Y2288387D1*
X3370040Y2281886D1*
X3372120Y2275565D1*
X3520909Y2308733D2*
X3526507Y2310014D1*
X3533780Y2310587D1*
X3541052Y2310014D1*
X3548146Y2308311D1*
X3554887Y2305519D1*
X3561107Y2301707D1*
X3566654Y2296969D1*
X3571392Y2291422D1*
X3575204Y2285201D1*
X3577996Y2278461D1*
X3579699Y2271367D1*
X3580265Y2264251D1*
X3387022Y2841362D2*
X3707495Y2520889D1*
X3707484Y2742549D1*
X3608723Y2841317D1*
X3387070Y2841343D1*
X669606Y1453937D2*
D14*
Y1223859D1*
X1010650Y3559586D2*
Y3426674D1*
X1498150Y3559586D2*
Y3426674D1*
X1987756Y3559606D2*
Y3426693D1*
X2473150Y3559606D2*
Y3426693D1*
X2960650Y3559606D2*
Y3426693D1*
X3448150Y3559606D2*
Y3426693D1*
X3935650Y3559606D2*
Y3426693D1*
X4423150Y3559606D2*
Y3426693D1*
X1160630Y747952D2*
Y615040D1*
X1648150Y747952D2*
Y615040D1*
X2137756Y747952D2*
Y615040D1*
X2623150Y747952D2*
Y615040D1*
X3110630Y747952D2*
Y615040D1*
X3598150Y747952D2*
Y615040D1*
X4085630Y747952D2*
Y615040D1*
X4573150Y747952D2*
Y615040D1*
X1535748Y2692126D2*
Y2584095D1*
X4999676Y1870394D2*
Y1810473D1*
D26*
X4527874Y1732598D3*
X4453071D3*
D27*
X1270000Y1299528D3*
Y1374331D3*
D29*
X1496378Y1476693D3*
Y1342835D3*
D26*
X1131319Y3250266D3*
X1056516D3*
X1606319D3*
X1531516D3*
X2093819Y3250265D3*
X2019016D3*
X2581319Y3250266D3*
X2506516D3*
X3075070D3*
X3000266D3*
X3556319D3*
X3481516D3*
X4031319Y3250265D3*
X3956516D3*
X4531319Y3250266D3*
X4456516D3*
X1050266Y844016D3*
X1125070D3*
X1525276D3*
X1600079D3*
X2019016D3*
X2093819D3*
X2500266D3*
X2575070D3*
X2994016D3*
X3068819D3*
X3487776D3*
X3562579D3*
X3969016D3*
X4043819D3*
X4456535D3*
X4531339D3*
D31*
X2962913Y2096772D3*
X3000315D3*
X3037717D3*
Y2203071D3*
X2962913D3*
X3169606Y2096772D3*
X3207008D3*
X3244409D3*
Y2203071D3*
X3169606D3*
D27*
X3248346Y2372362D3*
Y2297559D3*
D32*
X669606Y1338898D3*
D33*
X905827D3*
D34*
X787717Y1153858D3*
D26*
X1008189Y2992441D3*
X933386D3*
X771969D3*
X697165D3*
D27*
X3031811Y2372362D3*
Y2297559D3*
D26*
X551496Y2992441D3*
X476693D3*
D27*
X1281516Y3369016D3*
Y3294213D3*
X1781535Y3369016D3*
Y3294213D3*
X2256535Y3369016D3*
Y3294213D3*
X2750276Y3369016D3*
Y3294213D3*
X3250265Y3369016D3*
Y3294213D3*
X3725266Y3369016D3*
Y3294213D3*
X4206516Y3369016D3*
Y3294213D3*
X4719016Y3369016D3*
Y3294213D3*
X937766Y837766D3*
Y912570D3*
X1419016Y837766D3*
Y912570D3*
X1912766Y844016D3*
Y918819D3*
X2400265Y844016D3*
Y918819D3*
X2887766Y844016D3*
Y918819D3*
X3362766Y837766D3*
Y912570D3*
X3869016Y844016D3*
Y918819D3*
X4344016Y844016D3*
Y918819D3*
D26*
X551496Y2834961D3*
X476693D3*
X771969D3*
X697165D3*
X1008189D3*
X933386D3*
X1056516Y3094016D3*
X1131319D3*
X1606319D3*
X1531516D3*
X2094016D3*
X2019213D3*
X2581319D3*
X2506516D3*
X3075070D3*
X3000266D3*
X3556319D3*
X3481516D3*
X4031319D3*
X3956516D3*
X4531319D3*
X4456516D3*
X1050266Y1006516D3*
X1125070D3*
X1525266D3*
X1600070D3*
X2019016D3*
X2093819D3*
X2500247D3*
X2575050D3*
X2994016D3*
X3068819D3*
X3487766D3*
X3562570D3*
X3969016D3*
X4043819D3*
X4456516D3*
X4531319D3*
D35*
X1010650Y3493130D3*
X1160650D3*
X1498150D3*
X1648150D3*
X1987756Y3493150D3*
X2137756D3*
X2473150D3*
X2623150D3*
X2960650D3*
X3110650D3*
X3448150D3*
X3598150D3*
X3935650D3*
X4085650D3*
X4423150D3*
X4573150D3*
X1160630Y681496D3*
X1010630D3*
X1648150D3*
X1498150D3*
X2137756D3*
X1987756D3*
X2623150D3*
X2473150D3*
X3110630D3*
X2960630D3*
X3598150D3*
X3448150D3*
X4085630D3*
X3935630D3*
X4573150D3*
X4423150D3*
D36*
X4035748Y1949134D3*
X4085748D3*
X4135748D3*
X4185748D3*
X4235748D3*
X4285748D3*
X4335748D3*
X4385748D3*
X4435748D3*
X4485748D3*
X4535748D3*
X4585748D3*
X4635748D3*
X4685748D3*
Y2319213D3*
X4635748D3*
X4585748D3*
X4535748D3*
X4485748D3*
X4435748D3*
X4385748D3*
X4335748D3*
X4285748D3*
X4235748D3*
X4185748D3*
X4135748D3*
X4085748D3*
X4035748D3*
D18*
X1732598Y2638110D3*
X1634173D3*
X1535748D3*
X1437323D3*
X1338898D3*
X1240472D3*
X1142047D3*
X1043622D3*
X945197D3*
X846772D3*
X1732598Y1638110D3*
X1634173D3*
X1535748D3*
X1437323D3*
X1338898D3*
X1240472D3*
X1142047D3*
X1043622D3*
X945197D3*
X846772D3*
D31*
X3376299Y2096772D3*
X3413701D3*
X3451102D3*
Y2203071D3*
X3376299D3*
D27*
X3464882Y2372362D3*
Y2297559D3*
D31*
X3573150Y2096772D3*
X3610551D3*
X3647953D3*
Y2203071D3*
X3573150D3*
D27*
X3681417Y2372362D3*
Y2297559D3*
X3100709Y2116457D3*
Y2191260D3*
X3307402Y2116457D3*
Y2191260D3*
X3514094Y2116457D3*
Y2191260D3*
X3710945Y2116457D3*
Y2191260D3*
X4498346Y2559370D3*
Y2484567D3*
D37*
X1092835Y1250315D3*
Y1456220D3*
D38*
X4999676Y2370394D3*
D39*
Y2270394D3*
Y2170394D3*
Y2070394D3*
Y1970394D3*
Y1870394D3*
M02*
