G04 DipTrace 3.3.1.3*
G04 TopPaste.gbr*
%MOIN*%
G04 #@! TF.FileFunction,Paste,Top*
G04 #@! TF.Part,Single*
%ADD54R,0.120016X0.066079*%
%ADD58R,0.019622X0.07474*%
%ADD68R,0.019622X0.039307*%
%ADD70R,0.051118X0.084583*%
%ADD72R,0.055055X0.047181*%
%ADD74R,0.047181X0.055055*%
%FSLAX26Y26*%
G04*
G70*
G90*
G75*
G01*
G04 TopPaste*
%LPD*%
D74*
X4527874Y1732598D3*
X4453071D3*
D72*
X1270000Y1299528D3*
Y1374331D3*
D70*
X1496378Y1476693D3*
Y1342835D3*
D74*
X1131319Y3250266D3*
X1056516D3*
X1606319D3*
X1531516D3*
X2093819Y3250265D3*
X2019016D3*
X2581319Y3250266D3*
X2506516D3*
X3075070D3*
X3000266D3*
X3556319D3*
X3481516D3*
X4031319Y3250265D3*
X3956516D3*
X4531319Y3250266D3*
X4456516D3*
X1050266Y844016D3*
X1125070D3*
X1525276D3*
X1600079D3*
X2019016D3*
X2093819D3*
X2500266D3*
X2575070D3*
X2994016D3*
X3068819D3*
X3487776D3*
X3562579D3*
X3969016D3*
X4043819D3*
X4456535D3*
X4531339D3*
D68*
X2962913Y2096772D3*
X3000315D3*
X3037717D3*
Y2203071D3*
X2962913D3*
X3169606Y2096772D3*
X3207008D3*
X3244409D3*
Y2203071D3*
X3169606D3*
D72*
X3248346Y2372362D3*
Y2297559D3*
D74*
X1008189Y2992441D3*
X933386D3*
X771969D3*
X697165D3*
D72*
X3031811Y2372362D3*
Y2297559D3*
D74*
X551496Y2992441D3*
X476693D3*
D72*
X1281516Y3369016D3*
Y3294213D3*
X1781535Y3369016D3*
Y3294213D3*
X2256535Y3369016D3*
Y3294213D3*
X2750276Y3369016D3*
Y3294213D3*
X3250265Y3369016D3*
Y3294213D3*
X3725266Y3369016D3*
Y3294213D3*
X4206516Y3369016D3*
Y3294213D3*
X4719016Y3369016D3*
Y3294213D3*
X937766Y837766D3*
Y912570D3*
X1419016Y837766D3*
Y912570D3*
X1912766Y844016D3*
Y918819D3*
X2400265Y844016D3*
Y918819D3*
X2887766Y844016D3*
Y918819D3*
X3362766Y837766D3*
Y912570D3*
X3869016Y844016D3*
Y918819D3*
X4344016Y844016D3*
Y918819D3*
D74*
X551496Y2834961D3*
X476693D3*
X771969D3*
X697165D3*
X1008189D3*
X933386D3*
X1056516Y3094016D3*
X1131319D3*
X1606319D3*
X1531516D3*
X2094016D3*
X2019213D3*
X2581319D3*
X2506516D3*
X3075070D3*
X3000266D3*
X3556319D3*
X3481516D3*
X4031319D3*
X3956516D3*
X4531319D3*
X4456516D3*
X1050266Y1006516D3*
X1125070D3*
X1525266D3*
X1600070D3*
X2019016D3*
X2093819D3*
X2500247D3*
X2575050D3*
X2994016D3*
X3068819D3*
X3487766D3*
X3562570D3*
X3969016D3*
X4043819D3*
X4456516D3*
X4531319D3*
D58*
X4035748Y1949134D3*
X4085748D3*
X4135748D3*
X4185748D3*
X4235748D3*
X4285748D3*
X4335748D3*
X4385748D3*
X4435748D3*
X4485748D3*
X4535748D3*
X4585748D3*
X4635748D3*
X4685748D3*
Y2319213D3*
X4635748D3*
X4585748D3*
X4535748D3*
X4485748D3*
X4435748D3*
X4385748D3*
X4335748D3*
X4285748D3*
X4235748D3*
X4185748D3*
X4135748D3*
X4085748D3*
X4035748D3*
D68*
X3376299Y2096772D3*
X3413701D3*
X3451102D3*
Y2203071D3*
X3376299D3*
D72*
X3464882Y2372362D3*
Y2297559D3*
D68*
X3573150Y2096772D3*
X3610551D3*
X3647953D3*
Y2203071D3*
X3573150D3*
D72*
X3681417Y2372362D3*
Y2297559D3*
X3100709Y2116457D3*
Y2191260D3*
X3307402Y2116457D3*
Y2191260D3*
X3514094Y2116457D3*
Y2191260D3*
X3710945Y2116457D3*
Y2191260D3*
X4498346Y2559370D3*
Y2484567D3*
D54*
X1092835Y1250315D3*
Y1456220D3*
M02*
