G04 DipTrace 3.3.1.3*
G04 TopSilk.gbr*
%MOIN*%
G04 #@! TF.FileFunction,Legend,Top*
G04 #@! TF.Part,Single*
%ADD10C,0.009843*%
%ADD28C,0.023616*%
%ADD30C,0.015401*%
%ADD75C,0.00772*%
%ADD76C,0.012351*%
%ADD77C,0.009264*%
%FSLAX26Y26*%
G04*
G70*
G90*
G75*
G01*
G04 TopSilk*
%LPD*%
X1581024Y1325124D2*
D10*
X1539683D1*
X1581024D2*
Y1464862D1*
X1551499Y1494401D2*
X1581024Y1464862D1*
X1551499Y1494401D2*
X1539683D1*
X1453073Y1325124D2*
X1411732D1*
Y1464862D1*
X1441257Y1494401D2*
X1411732Y1464862D1*
X1453073Y1494401D2*
X1441257D1*
D28*
X1547563Y1516062D3*
D30*
X2936000Y2080146D3*
X2941262Y2134212D2*
D10*
X3059370D1*
X2941262Y2165702D2*
X3059370D1*
Y2134212D2*
Y2165702D1*
X2941262Y2134212D2*
Y2165702D1*
D30*
X3142693Y2080146D3*
X3147955Y2134212D2*
D10*
X3266063D1*
X3147955Y2165702D2*
X3266063D1*
Y2134212D2*
Y2165702D1*
X3147955Y2134212D2*
Y2165702D1*
X366457Y1516063D2*
Y1161713D1*
X681407D1*
X894036D2*
X933391D1*
Y1230624D1*
Y1447153D2*
Y1516063D1*
X366457D1*
X910650Y3820631D2*
X1260650D1*
Y3455629D1*
X910650D1*
Y3820631D1*
X1398150D2*
X1748150D1*
Y3455629D1*
X1398150D1*
Y3820631D1*
X1887756Y3820651D2*
X2237756D1*
Y3455649D1*
X1887756D1*
Y3820651D1*
X2373150D2*
X2723150D1*
Y3455649D1*
X2373150D1*
Y3820651D1*
X2860650D2*
X3210650D1*
Y3455649D1*
X2860650D1*
Y3820651D1*
X3348150D2*
X3698150D1*
Y3455649D1*
X3348150D1*
Y3820651D1*
X3835650D2*
X4185650D1*
Y3455649D1*
X3835650D1*
Y3820651D1*
X4323150D2*
X4673150D1*
Y3455649D1*
X4323150D1*
Y3820651D1*
X1260630Y353995D2*
X910630D1*
Y718997D1*
X1260630D1*
Y353995D1*
X1748150D2*
X1398150D1*
Y718997D1*
X1748150D1*
Y353995D1*
X2237756D2*
X1887756D1*
Y718997D1*
X2237756D1*
Y353995D1*
X2723150D2*
X2373150D1*
Y718997D1*
X2723150D1*
Y353995D1*
X3210630D2*
X2860630D1*
Y718997D1*
X3210630D1*
Y353995D1*
X3698150D2*
X3348150D1*
Y718997D1*
X3698150D1*
Y353995D1*
X4185630D2*
X3835630D1*
Y718997D1*
X4185630D1*
Y353995D1*
X4673150D2*
X4323150D1*
Y718997D1*
X4673150D1*
Y353995D1*
X4002499Y2008190D2*
X4718997D1*
X4002499Y2260157D2*
X4718997D1*
Y2008190D2*
Y2260157D1*
X4002499Y2008190D2*
Y2102666D1*
Y2165680D2*
Y2260157D1*
Y2102666D2*
G03X4002499Y2165680I-53J31507D01*
G01*
X2860157Y2697165D2*
X-112283D1*
Y1584961D1*
X2860157D1*
Y2697165D1*
D30*
X3349385Y2080146D3*
X3354648Y2134212D2*
D10*
X3472756D1*
X3354648Y2165702D2*
X3472756D1*
Y2134212D2*
Y2165702D1*
X3354648Y2134212D2*
Y2165702D1*
D30*
X3546236Y2080146D3*
X3551498Y2134212D2*
D10*
X3669606D1*
X3551498Y2165702D2*
X3669606D1*
Y2134212D2*
Y2165702D1*
X3551498Y2134212D2*
Y2165702D1*
X1033778Y1289681D2*
Y1417655D1*
X1153863Y1289681D2*
Y1415723D1*
X1144016Y1291640D2*
X1043625Y1413708D1*
X5049678Y2420366D2*
X4949676D1*
Y1820421D1*
X5049678D1*
Y2420366D1*
X4494691Y1823411D2*
D75*
X4492314Y1828164D1*
X4487506Y1832972D1*
X4482753Y1835349D1*
X4473191D1*
X4468383Y1832972D1*
X4463630Y1828164D1*
X4461198Y1823411D1*
X4458821Y1816226D1*
Y1804232D1*
X4461198Y1797103D1*
X4463630Y1792294D1*
X4468383Y1787541D1*
X4473191Y1785109D1*
X4482753D1*
X4487506Y1787541D1*
X4492314Y1792294D1*
X4494691Y1797103D1*
X4510130Y1825732D2*
X4514939Y1828164D1*
X4522124Y1835294D1*
Y1785109D1*
X4420104Y1686057D2*
X4412919Y1683680D1*
X4408110Y1676495D1*
X4405734Y1664557D1*
Y1657372D1*
X4408110Y1645434D1*
X4412919Y1638249D1*
X4420104Y1635872D1*
X4424857D1*
X4432042Y1638249D1*
X4436795Y1645434D1*
X4439227Y1657372D1*
Y1664557D1*
X4436795Y1676495D1*
X4432042Y1683680D1*
X4424857Y1686057D1*
X4420104D1*
X4436795Y1676495D2*
X4408110Y1645434D1*
X4457043Y1640681D2*
X4454666Y1638249D1*
X4457043Y1635872D1*
X4459475Y1638249D1*
X4457043Y1640681D1*
X4474914Y1676495D2*
X4479723Y1678927D1*
X4486908Y1686057D1*
Y1635872D1*
X4502347Y1669366D2*
Y1645434D1*
X4504723Y1638304D1*
X4509532Y1635872D1*
X4516717D1*
X4521470Y1638304D1*
X4528655Y1645434D1*
Y1669366D2*
Y1635872D1*
X4575211Y1686112D2*
X4544094D1*
Y1635872D1*
Y1662180D2*
X4563218D1*
X1257928Y1448508D2*
X1253175Y1446132D1*
X1248366Y1441323D1*
X1245990Y1436570D1*
Y1427008D1*
X1248366Y1422200D1*
X1253175Y1417447D1*
X1257928Y1415015D1*
X1265113Y1412638D1*
X1277106D1*
X1284236Y1415015D1*
X1289045Y1417447D1*
X1293798Y1422200D1*
X1296230Y1427008D1*
Y1436570D1*
X1293798Y1441323D1*
X1289045Y1446132D1*
X1284236Y1448508D1*
X1257983Y1466379D2*
X1255606D1*
X1250798Y1468756D1*
X1248421Y1471132D1*
X1246045Y1475941D1*
Y1485502D1*
X1248421Y1490256D1*
X1250798Y1492632D1*
X1255606Y1495064D1*
X1260360D1*
X1265168Y1492632D1*
X1272298Y1487879D1*
X1296230Y1463947D1*
Y1497441D1*
X1257206Y1532844D2*
X1254774Y1537652D1*
X1247644Y1544837D1*
X1297829D1*
X1264335Y1560276D2*
X1288267D1*
X1295397Y1562653D1*
X1297829Y1567461D1*
Y1574646D1*
X1295397Y1579400D1*
X1288267Y1586585D1*
X1264335D2*
X1297829D1*
X1247589Y1633141D2*
Y1602024D1*
X1297829D1*
X1271520D2*
Y1621147D1*
X1637484Y1421847D2*
X1635108Y1426600D1*
X1630299Y1431408D1*
X1625546Y1433785D1*
X1615985D1*
X1611176Y1431408D1*
X1606423Y1426600D1*
X1603991Y1421847D1*
X1601614Y1414661D1*
Y1402668D1*
X1603991Y1395538D1*
X1606423Y1390730D1*
X1611176Y1385977D1*
X1615985Y1383545D1*
X1625546D1*
X1630299Y1385977D1*
X1635108Y1390730D1*
X1637484Y1395538D1*
X1657732Y1433729D2*
X1683985D1*
X1669670Y1414606D1*
X1676855D1*
X1681609Y1412230D1*
X1683985Y1409853D1*
X1686417Y1402668D1*
Y1397915D1*
X1683985Y1390730D1*
X1679232Y1385921D1*
X1672047Y1383545D1*
X1664862D1*
X1657732Y1385921D1*
X1655356Y1388353D1*
X1652924Y1393106D1*
X1421763Y1271968D2*
X1426572Y1274400D1*
X1433757Y1281529D1*
Y1231345D1*
X1463566Y1281529D2*
X1456381Y1279153D1*
X1451572Y1271968D1*
X1449196Y1260029D1*
Y1252844D1*
X1451572Y1240906D1*
X1456381Y1233721D1*
X1463566Y1231345D1*
X1468319D1*
X1475504Y1233721D1*
X1480257Y1240906D1*
X1482689Y1252844D1*
Y1260029D1*
X1480257Y1271968D1*
X1475504Y1279153D1*
X1468319Y1281529D1*
X1463566D1*
X1480257Y1271968D2*
X1451572Y1240906D1*
X1498128Y1264838D2*
Y1240906D1*
X1500505Y1233776D1*
X1505314Y1231345D1*
X1512499D1*
X1517252Y1233776D1*
X1524437Y1240906D1*
Y1264838D2*
Y1231345D1*
X1570993Y1281585D2*
X1539876D1*
Y1231345D1*
Y1257653D2*
X1558999D1*
X1063454Y3353017D2*
Y3302777D1*
X1080201D1*
X1087386Y3305209D1*
X1092194Y3309962D1*
X1094571Y3314771D1*
X1096948Y3321900D1*
Y3333894D1*
X1094571Y3341079D1*
X1092194Y3345832D1*
X1087386Y3350640D1*
X1080201Y3353017D1*
X1063454D1*
X1112387Y3343400D2*
X1117195Y3345832D1*
X1124380Y3352962D1*
Y3302777D1*
X1527704Y3353017D2*
Y3302777D1*
X1544451D1*
X1551636Y3305209D1*
X1556445Y3309962D1*
X1558821Y3314771D1*
X1561198Y3321900D1*
Y3333894D1*
X1558821Y3341079D1*
X1556445Y3345832D1*
X1551636Y3350640D1*
X1544451Y3353017D1*
X1527704D1*
X1579069Y3341024D2*
Y3343400D1*
X1581445Y3348209D1*
X1583822Y3350585D1*
X1588630Y3352962D1*
X1598192D1*
X1602945Y3350585D1*
X1605322Y3348209D1*
X1607754Y3343400D1*
Y3338647D1*
X1605322Y3333839D1*
X1600569Y3326709D1*
X1576637Y3302777D1*
X1610130D1*
X2015204Y3353016D2*
Y3302776D1*
X2031951D1*
X2039136Y3305208D1*
X2043945Y3309961D1*
X2046321Y3314769D1*
X2048698Y3321899D1*
Y3333892D1*
X2046321Y3341078D1*
X2043945Y3345831D1*
X2039136Y3350639D1*
X2031951Y3353016D1*
X2015204D1*
X2068945Y3352960D2*
X2095198D1*
X2080884Y3333837D1*
X2088069D1*
X2092822Y3331461D1*
X2095198Y3329084D1*
X2097630Y3321899D1*
Y3317146D1*
X2095198Y3309961D1*
X2090445Y3305152D1*
X2083260Y3302776D1*
X2076075D1*
X2068945Y3305152D1*
X2066569Y3307584D1*
X2064137Y3312337D1*
X2501516Y3353017D2*
Y3302777D1*
X2518263D1*
X2525448Y3305209D1*
X2530256Y3309962D1*
X2532633Y3314771D1*
X2535009Y3321900D1*
Y3333894D1*
X2532633Y3341079D1*
X2530256Y3345832D1*
X2525448Y3350640D1*
X2518263Y3353017D1*
X2501516D1*
X2574380Y3302777D2*
Y3352962D1*
X2550449Y3319524D1*
X2586319D1*
X2996455Y3353017D2*
Y3302777D1*
X3013202D1*
X3020387Y3305209D1*
X3025195Y3309962D1*
X3027572Y3314771D1*
X3029948Y3321900D1*
Y3333894D1*
X3027572Y3341079D1*
X3025195Y3345832D1*
X3020387Y3350640D1*
X3013202Y3353017D1*
X2996455D1*
X3074072Y3352962D2*
X3050196D1*
X3047819Y3331462D1*
X3050196Y3333839D1*
X3057381Y3336270D1*
X3064511D1*
X3071696Y3333839D1*
X3076504Y3329085D1*
X3078881Y3321900D1*
Y3317147D1*
X3076504Y3309962D1*
X3071696Y3305154D1*
X3064511Y3302777D1*
X3057381D1*
X3050196Y3305154D1*
X3047819Y3307585D1*
X3045388Y3312339D1*
X3478920Y3353017D2*
Y3302777D1*
X3495667D1*
X3502852Y3305209D1*
X3507660Y3309962D1*
X3510037Y3314771D1*
X3512414Y3321900D1*
Y3333894D1*
X3510037Y3341079D1*
X3507660Y3345832D1*
X3502852Y3350640D1*
X3495667Y3353017D1*
X3478920D1*
X3556538Y3345832D2*
X3554161Y3350585D1*
X3546976Y3352962D1*
X3542223D1*
X3535038Y3350585D1*
X3530229Y3343400D1*
X3527853Y3331462D1*
Y3319524D1*
X3530229Y3309962D1*
X3535038Y3305154D1*
X3542223Y3302777D1*
X3544600D1*
X3551729Y3305154D1*
X3556538Y3309962D1*
X3558914Y3317147D1*
Y3319524D1*
X3556538Y3326709D1*
X3551729Y3331462D1*
X3544600Y3333839D1*
X3542223D1*
X3535038Y3331462D1*
X3530229Y3326709D1*
X3527853Y3319524D1*
X3952704Y3353016D2*
Y3302776D1*
X3969451D1*
X3976636Y3305208D1*
X3981445Y3309961D1*
X3983821Y3314769D1*
X3986198Y3321899D1*
Y3333892D1*
X3983821Y3341078D1*
X3981445Y3345831D1*
X3976636Y3350639D1*
X3969451Y3353016D1*
X3952704D1*
X4011199Y3302776D2*
X4035130Y3352960D1*
X4001637D1*
X4452732Y3353017D2*
Y3302777D1*
X4469479D1*
X4476664Y3305209D1*
X4481472Y3309962D1*
X4483849Y3314771D1*
X4486225Y3321900D1*
Y3333894D1*
X4483849Y3341079D1*
X4481472Y3345832D1*
X4476664Y3350640D1*
X4469479Y3353017D1*
X4452732D1*
X4513603Y3352962D2*
X4506473Y3350585D1*
X4504041Y3345832D1*
Y3341024D1*
X4506473Y3336270D1*
X4511226Y3333839D1*
X4520788Y3331462D1*
X4527973Y3329085D1*
X4532726Y3324277D1*
X4535103Y3319524D1*
Y3312339D1*
X4532726Y3307585D1*
X4530349Y3305154D1*
X4523164Y3302777D1*
X4513603D1*
X4506473Y3305154D1*
X4504041Y3307585D1*
X4501665Y3312339D1*
Y3319524D1*
X4504041Y3324277D1*
X4508850Y3329085D1*
X4515979Y3331462D1*
X4525541Y3333839D1*
X4530349Y3336270D1*
X4532726Y3341024D1*
Y3345832D1*
X4530349Y3350585D1*
X4523164Y3352962D1*
X4513603D1*
X1047643Y946766D2*
Y896526D1*
X1064390D1*
X1071575Y898958D1*
X1076383Y903711D1*
X1078760Y908520D1*
X1081137Y915650D1*
Y927643D1*
X1078760Y934828D1*
X1076383Y939581D1*
X1071575Y944390D1*
X1064390Y946766D1*
X1047643D1*
X1127693Y930020D2*
X1125261Y922835D1*
X1120508Y918026D1*
X1113323Y915650D1*
X1110946D1*
X1103761Y918026D1*
X1099008Y922835D1*
X1096576Y930020D1*
Y932396D1*
X1099008Y939581D1*
X1103761Y944335D1*
X1110946Y946711D1*
X1113323D1*
X1120508Y944335D1*
X1125261Y939581D1*
X1127693Y930020D1*
Y918026D1*
X1125261Y906088D1*
X1120508Y898903D1*
X1113323Y896526D1*
X1108569D1*
X1101384Y898903D1*
X1099008Y903711D1*
X1507748Y946766D2*
Y896526D1*
X1524495D1*
X1531680Y898958D1*
X1536488Y903711D1*
X1538865Y908520D1*
X1541241Y915650D1*
Y927643D1*
X1538865Y934828D1*
X1536488Y939581D1*
X1531680Y944390D1*
X1524495Y946766D1*
X1507748D1*
X1556680Y937149D2*
X1561489Y939581D1*
X1568674Y946711D1*
Y896526D1*
X1598483Y946711D2*
X1591298Y944335D1*
X1586490Y937149D1*
X1584113Y925211D1*
Y918026D1*
X1586490Y906088D1*
X1591298Y898903D1*
X1598483Y896526D1*
X1603236D1*
X1610421Y898903D1*
X1615175Y906088D1*
X1617606Y918026D1*
Y925211D1*
X1615175Y937149D1*
X1610421Y944335D1*
X1603236Y946711D1*
X1598483D1*
X1615175Y937149D2*
X1586490Y906088D1*
X2012238Y946766D2*
Y896526D1*
X2028985D1*
X2036170Y898958D1*
X2040978Y903711D1*
X2043355Y908520D1*
X2045731Y915650D1*
Y927643D1*
X2043355Y934828D1*
X2040978Y939581D1*
X2036170Y944390D1*
X2028985Y946766D1*
X2012238D1*
X2061171Y937149D2*
X2065979Y939581D1*
X2073164Y946711D1*
Y896526D1*
X2088603Y937149D2*
X2093412Y939581D1*
X2100597Y946711D1*
Y896526D1*
X2482739Y946766D2*
Y896526D1*
X2499485D1*
X2506670Y898958D1*
X2511479Y903711D1*
X2513855Y908520D1*
X2516232Y915650D1*
Y927643D1*
X2513855Y934828D1*
X2511479Y939581D1*
X2506670Y944390D1*
X2499485Y946766D1*
X2482739D1*
X2531671Y937149D2*
X2536480Y939581D1*
X2543665Y946711D1*
Y896526D1*
X2561536Y934773D2*
Y937149D1*
X2563912Y941958D1*
X2566289Y944335D1*
X2571097Y946711D1*
X2580659D1*
X2585412Y944335D1*
X2587789Y941958D1*
X2590221Y937149D1*
Y932396D1*
X2587789Y927588D1*
X2583036Y920458D1*
X2559104Y896526D1*
X2592597D1*
X2976488Y946766D2*
Y896526D1*
X2993235D1*
X3000420Y898958D1*
X3005228Y903711D1*
X3007605Y908520D1*
X3009981Y915650D1*
Y927643D1*
X3007605Y934828D1*
X3005228Y939581D1*
X3000420Y944390D1*
X2993235Y946766D1*
X2976488D1*
X3025421Y937149D2*
X3030229Y939581D1*
X3037414Y946711D1*
Y896526D1*
X3057662Y946711D2*
X3083915D1*
X3069600Y927588D1*
X3076785D1*
X3081538Y925211D1*
X3083915Y922835D1*
X3086347Y915650D1*
Y910896D1*
X3083915Y903711D1*
X3079162Y898903D1*
X3071977Y896526D1*
X3064792D1*
X3057662Y898903D1*
X3055285Y901335D1*
X3052853Y906088D1*
X3469060Y946766D2*
Y896526D1*
X3485806D1*
X3492991Y898958D1*
X3497800Y903711D1*
X3500176Y908520D1*
X3502553Y915650D1*
Y927643D1*
X3500176Y934828D1*
X3497800Y939581D1*
X3492991Y944390D1*
X3485806Y946766D1*
X3469060D1*
X3517992Y937149D2*
X3522801Y939581D1*
X3529986Y946711D1*
Y896526D1*
X3569357D2*
Y946711D1*
X3545425Y913273D1*
X3581295D1*
X3951488Y946766D2*
Y896526D1*
X3968235D1*
X3975420Y898958D1*
X3980228Y903711D1*
X3982605Y908520D1*
X3984981Y915650D1*
Y927643D1*
X3982605Y934828D1*
X3980228Y939581D1*
X3975420Y944390D1*
X3968235Y946766D1*
X3951488D1*
X4000421Y937149D2*
X4005229Y939581D1*
X4012414Y946711D1*
Y896526D1*
X4056538Y946711D2*
X4032662D1*
X4030285Y925211D1*
X4032662Y927588D1*
X4039847Y930020D1*
X4046977D1*
X4054162Y927588D1*
X4058970Y922835D1*
X4061347Y915650D1*
Y910896D1*
X4058970Y903711D1*
X4054162Y898903D1*
X4046977Y896526D1*
X4039847D1*
X4032662Y898903D1*
X4030285Y901335D1*
X4027853Y906088D1*
X4440224Y946766D2*
Y896526D1*
X4456970D1*
X4464155Y898958D1*
X4468964Y903711D1*
X4471340Y908520D1*
X4473717Y915650D1*
Y927643D1*
X4471340Y934828D1*
X4468964Y939581D1*
X4464155Y944390D1*
X4456970Y946766D1*
X4440224D1*
X4489156Y937149D2*
X4493965Y939581D1*
X4501150Y946711D1*
Y896526D1*
X4545274Y939581D2*
X4542897Y944335D1*
X4535712Y946711D1*
X4530959D1*
X4523774Y944335D1*
X4518966Y937149D1*
X4516589Y925211D1*
Y913273D1*
X4518966Y903711D1*
X4523774Y898903D1*
X4530959Y896526D1*
X4533336D1*
X4540465Y898903D1*
X4545274Y903711D1*
X4547650Y910896D1*
Y913273D1*
X4545274Y920458D1*
X4540465Y925211D1*
X4533336Y927588D1*
X4530959D1*
X4523774Y925211D1*
X4518966Y920458D1*
X4516589Y913273D1*
X2952622Y2055490D2*
Y2019620D1*
X2954998Y2012435D1*
X2959807Y2007682D1*
X2966992Y2005250D1*
X2971745D1*
X2978930Y2007682D1*
X2983738Y2012435D1*
X2986115Y2019620D1*
Y2055490D1*
X3006363Y2055435D2*
X3032616D1*
X3018301Y2036312D1*
X3025486D1*
X3030239Y2033935D1*
X3032616Y2031558D1*
X3035048Y2024373D1*
Y2019620D1*
X3032616Y2012435D1*
X3027863Y2007627D1*
X3020678Y2005250D1*
X3013492D1*
X3006363Y2007627D1*
X3003986Y2010059D1*
X3001554Y2014812D1*
X3158126Y2055490D2*
Y2019620D1*
X3160503Y2012435D1*
X3165311Y2007682D1*
X3172496Y2005250D1*
X3177250D1*
X3184435Y2007682D1*
X3189243Y2012435D1*
X3191620Y2019620D1*
Y2055490D1*
X3230991Y2005250D2*
Y2055435D1*
X3207059Y2021997D1*
X3242929D1*
X3169528Y2280031D2*
Y2301531D1*
X3167096Y2308716D1*
X3164719Y2311148D1*
X3159966Y2313525D1*
X3155158D1*
X3150404Y2311148D1*
X3147972Y2308716D1*
X3145596Y2301531D1*
Y2280031D1*
X3195836D1*
X3169528Y2296778D2*
X3195836Y2313525D1*
X3157589Y2331396D2*
X3155213D1*
X3150404Y2333772D1*
X3148028Y2336149D1*
X3145651Y2340957D1*
Y2350519D1*
X3148028Y2355272D1*
X3150404Y2357649D1*
X3155213Y2360081D1*
X3159966D1*
X3164774Y2357649D1*
X3171904Y2352896D1*
X3195836Y2328964D1*
Y2362457D1*
X3155213Y2377897D2*
X3152781Y2382705D1*
X3145651Y2389890D1*
X3195836D1*
X3304450Y2304498D2*
X3302018Y2309306D1*
X3294888Y2316491D1*
X3345073D1*
X3294833Y2331930D2*
X3345073D1*
X3294833Y2365424D2*
X3328326Y2331930D1*
X3316333Y2343869D2*
X3345073Y2365424D1*
X771279Y1372751D2*
Y1334504D1*
X768902Y1327319D1*
X766471Y1324942D1*
X761717Y1322511D1*
X756909D1*
X752156Y1324942D1*
X749779Y1327319D1*
X747347Y1334504D1*
Y1339257D1*
X791527Y1372695D2*
X817780D1*
X803465Y1353572D1*
X810650D1*
X815403Y1351196D1*
X817780Y1348819D1*
X820212Y1341634D1*
Y1336881D1*
X817780Y1329696D1*
X813027Y1324887D1*
X805842Y1322511D1*
X798657D1*
X791527Y1324887D1*
X789150Y1327319D1*
X786718Y1332072D1*
X1120800Y2966211D2*
Y3016451D1*
X1101677Y2966211D1*
X1082554Y3016451D1*
Y2966211D1*
X1150610Y3016451D2*
X1145857Y3014130D1*
X1141048Y3009322D1*
X1138672Y3004513D1*
X1136240Y2997328D1*
Y2985390D1*
X1138672Y2978205D1*
X1141048Y2973452D1*
X1145857Y2968643D1*
X1150610Y2966267D1*
X1160171D1*
X1164980Y2968643D1*
X1169733Y2973452D1*
X1172110Y2978205D1*
X1174542Y2985390D1*
Y2997328D1*
X1172110Y3004513D1*
X1169733Y3009322D1*
X1164980Y3014130D1*
X1160171Y3016451D1*
X1150610D1*
X1157795Y2975828D2*
X1172110Y2961458D1*
X1206727Y3016451D2*
Y2966211D1*
X1189981Y3016451D2*
X1223474D1*
X1255660D2*
Y2966211D1*
X1238913Y3016451D2*
X1272407D1*
X703597Y3095192D2*
Y3044952D1*
X670104Y3095192D1*
Y3044952D1*
X750098Y3095192D2*
X719036D1*
Y3044952D1*
X750098D1*
X719036Y3071260D2*
X738159D1*
X782284Y3095192D2*
Y3044952D1*
X765537Y3095192D2*
X799030D1*
X2952992Y2269282D2*
Y2290781D1*
X2950560Y2297966D1*
X2948184Y2300398D1*
X2943431Y2302775D1*
X2938622D1*
X2933869Y2300398D1*
X2931437Y2297966D1*
X2929060Y2290781D1*
Y2269282D1*
X2979300D1*
X2952992Y2286028D2*
X2979300Y2302775D1*
X2941054Y2320646D2*
X2938677D1*
X2933869Y2323022D1*
X2931492Y2325399D1*
X2929116Y2330208D1*
Y2339769D1*
X2931492Y2344522D1*
X2933869Y2346899D1*
X2938677Y2349331D1*
X2943431D1*
X2948239Y2346899D1*
X2955369Y2342146D1*
X2979300Y2318214D1*
Y2351707D1*
X2929116Y2381517D2*
X2931492Y2374332D1*
X2938677Y2369523D1*
X2950616Y2367147D1*
X2957801D1*
X2969739Y2369523D1*
X2976924Y2374332D1*
X2979300Y2381517D1*
Y2386270D1*
X2976924Y2393455D1*
X2969739Y2398208D1*
X2957801Y2400640D1*
X2950616D1*
X2938677Y2398208D1*
X2931492Y2393455D1*
X2929116Y2386270D1*
Y2381517D1*
X2938677Y2398208D2*
X2969739Y2369523D1*
X3087914Y2304498D2*
X3085482Y2309306D1*
X3078353Y2316491D1*
X3128537D1*
X3078297Y2331930D2*
X3128537D1*
X3078297Y2365424D2*
X3111791Y2331930D1*
X3099797Y2343869D2*
X3128537Y2365424D1*
X441230Y3068883D2*
X462785D1*
X469915Y3071260D1*
X472347Y3073692D1*
X474724Y3078445D1*
Y3085630D1*
X472347Y3090383D1*
X469915Y3092815D1*
X462785Y3095192D1*
X441230D1*
Y3044952D1*
X490163Y3095192D2*
X502156Y3044952D1*
X514094Y3095192D1*
X526033Y3044952D1*
X538026Y3095192D1*
X553465Y3071260D2*
X574965D1*
X582150Y3073692D1*
X584582Y3076068D1*
X586959Y3080822D1*
Y3085630D1*
X584582Y3090383D1*
X582150Y3092815D1*
X574965Y3095192D1*
X553465D1*
Y3044952D1*
X570212Y3071260D2*
X586959Y3044952D1*
X1202697Y3301151D2*
Y3322651D1*
X1200265Y3329836D1*
X1197888Y3332268D1*
X1193135Y3334645D1*
X1188327D1*
X1183574Y3332268D1*
X1181142Y3329836D1*
X1178765Y3322651D1*
Y3301151D1*
X1229005D1*
X1202697Y3317898D2*
X1229005Y3334645D1*
X1188382Y3350084D2*
X1185950Y3354892D1*
X1178820Y3362077D1*
X1229005D1*
X1702717Y3290401D2*
Y3311901D1*
X1700285Y3319086D1*
X1697908Y3321518D1*
X1693155Y3323895D1*
X1688346D1*
X1683593Y3321518D1*
X1681161Y3319086D1*
X1678785Y3311901D1*
Y3290401D1*
X1729025D1*
X1702717Y3307148D2*
X1729025Y3323895D1*
X1690778Y3341766D2*
X1688402D1*
X1683593Y3344142D1*
X1681217Y3346519D1*
X1678840Y3351327D1*
Y3360889D1*
X1681217Y3365642D1*
X1683593Y3368019D1*
X1688402Y3370451D1*
X1693155D1*
X1697963Y3368019D1*
X1705093Y3363266D1*
X1729025Y3339334D1*
Y3372827D1*
X2177717Y3290401D2*
Y3311901D1*
X2175285Y3319086D1*
X2172908Y3321518D1*
X2168155Y3323895D1*
X2163346D1*
X2158593Y3321518D1*
X2156161Y3319086D1*
X2153785Y3311901D1*
Y3290401D1*
X2204025D1*
X2177717Y3307148D2*
X2204025Y3323895D1*
X2153840Y3344142D2*
Y3370395D1*
X2172963Y3356081D1*
Y3363266D1*
X2175340Y3368019D1*
X2177717Y3370395D1*
X2184902Y3372827D1*
X2189655D1*
X2196840Y3370395D1*
X2201648Y3365642D1*
X2204025Y3358457D1*
Y3351272D1*
X2201648Y3344142D1*
X2199216Y3341766D1*
X2194463Y3339334D1*
X2671457Y3289213D2*
Y3310713D1*
X2669025Y3317898D1*
X2666648Y3320330D1*
X2661895Y3322706D1*
X2657087D1*
X2652333Y3320330D1*
X2649902Y3317898D1*
X2647525Y3310713D1*
Y3289213D1*
X2697765D1*
X2671457Y3305960D2*
X2697765Y3322706D1*
Y3362077D2*
X2647580D1*
X2681018Y3338146D1*
Y3374015D1*
X3171446Y3290401D2*
Y3311901D1*
X3169014Y3319086D1*
X3166638Y3321518D1*
X3161885Y3323895D1*
X3157076D1*
X3152323Y3321518D1*
X3149891Y3319086D1*
X3147514Y3311901D1*
Y3290401D1*
X3197754D1*
X3171446Y3307148D2*
X3197755Y3323895D1*
X3147570Y3368019D2*
Y3344142D1*
X3169070Y3341766D1*
X3166693Y3344142D1*
X3164261Y3351327D1*
Y3358457D1*
X3166693Y3365642D1*
X3171446Y3370451D1*
X3178631Y3372827D1*
X3183384D1*
X3190569Y3370451D1*
X3195378Y3365642D1*
X3197754Y3358457D1*
X3197755Y3351327D1*
X3195378Y3344142D1*
X3192946Y3341766D1*
X3188193Y3339334D1*
X3646447Y3291617D2*
X3646448Y3313117D1*
X3644016Y3320302D1*
X3641639Y3322734D1*
X3636886Y3325111D1*
X3632077D1*
X3627324Y3322734D1*
X3624892Y3320302D1*
X3622516Y3313117D1*
Y3291617D1*
X3672756D1*
X3646448Y3308364D2*
X3672756Y3325111D1*
X3629701Y3369235D2*
X3624948Y3366858D1*
X3622571Y3359673D1*
Y3354920D1*
X3624948Y3347735D1*
X3632133Y3342926D1*
X3644071Y3340550D1*
X3656009D1*
X3665571Y3342926D1*
X3670379Y3347735D1*
X3672756Y3354920D1*
Y3357296D1*
X3670379Y3364426D1*
X3665571Y3369235D1*
X3658386Y3371611D1*
X3656009D1*
X3648824Y3369235D1*
X3644071Y3364426D1*
X3641694Y3357296D1*
Y3354920D1*
X3644071Y3347735D1*
X3648824Y3342926D1*
X3656009Y3340550D1*
X4127697Y3290401D2*
Y3311901D1*
X4125265Y3319086D1*
X4122888Y3321518D1*
X4118135Y3323895D1*
X4113327D1*
X4108574Y3321518D1*
X4106142Y3319086D1*
X4103765Y3311901D1*
Y3290401D1*
X4154005D1*
X4127697Y3307148D2*
X4154005Y3323895D1*
Y3348895D2*
X4103820Y3372827D1*
Y3339334D1*
X4640197Y3290429D2*
Y3311929D1*
X4637765Y3319114D1*
X4635388Y3321546D1*
X4630635Y3323922D1*
X4625827D1*
X4621074Y3321546D1*
X4618642Y3319114D1*
X4616265Y3311929D1*
Y3290429D1*
X4666505D1*
X4640197Y3307176D2*
X4666505Y3323922D1*
X4616320Y3351300D2*
X4618697Y3344170D1*
X4623450Y3341738D1*
X4628259D1*
X4633012Y3344170D1*
X4635444Y3348923D1*
X4637820Y3358485D1*
X4640197Y3365670D1*
X4645005Y3370423D1*
X4649758Y3372800D1*
X4656944D1*
X4661697Y3370423D1*
X4664129Y3368046D1*
X4666505Y3360861D1*
Y3351300D1*
X4664129Y3344170D1*
X4661697Y3341738D1*
X4656944Y3339361D1*
X4649759D1*
X4645005Y3341738D1*
X4640197Y3346547D1*
X4637820Y3353676D1*
X4635444Y3363238D1*
X4633012Y3368046D1*
X4628259Y3370423D1*
X4623450D1*
X4618697Y3368046D1*
X4616320Y3360861D1*
Y3351300D1*
X858947Y835143D2*
X858948Y856643D1*
X856516Y863828D1*
X854139Y866260D1*
X849386Y868637D1*
X844577D1*
X839824Y866260D1*
X837392Y863828D1*
X835016Y856643D1*
Y835143D1*
X885256D1*
X858948Y851890D2*
X885256Y868637D1*
X851762Y915193D2*
X858948Y912761D1*
X863756Y908008D1*
X866133Y900823D1*
Y898446D1*
X863756Y891261D1*
X858948Y886508D1*
X851763Y884076D1*
X849386D1*
X842201Y886508D1*
X837448Y891261D1*
X835071Y898446D1*
Y900823D1*
X837448Y908008D1*
X842201Y912761D1*
X851762Y915193D1*
X863756D1*
X875694Y912761D1*
X882879Y908008D1*
X885256Y900823D1*
Y896069D1*
X882879Y888884D1*
X878071Y886508D1*
X1340197Y820239D2*
Y841739D1*
X1337765Y848924D1*
X1335388Y851355D1*
X1330635Y853732D1*
X1325827D1*
X1321074Y851356D1*
X1318642Y848924D1*
X1316265Y841739D1*
Y820239D1*
X1366505D1*
X1340197Y836985D2*
X1366505Y853732D1*
X1325882Y869171D2*
X1323450Y873980D1*
X1316320Y881165D1*
X1366505D1*
X1316320Y910974D2*
X1318697Y903789D1*
X1325882Y898981D1*
X1337820Y896604D1*
X1345005D1*
X1356944Y898981D1*
X1364129Y903789D1*
X1366505Y910974D1*
Y915727D1*
X1364129Y922912D1*
X1356944Y927665D1*
X1345005Y930097D1*
X1337820D1*
X1325882Y927665D1*
X1318697Y922912D1*
X1316320Y915727D1*
Y910974D1*
X1325882Y927665D2*
X1356944Y898981D1*
X1833947Y837238D2*
X1833948Y858738D1*
X1831516Y865923D1*
X1829139Y868355D1*
X1824386Y870731D1*
X1819577D1*
X1814824Y868355D1*
X1812392Y865923D1*
X1810016Y858738D1*
Y837238D1*
X1860256D1*
X1833948Y853985D2*
X1860256Y870731D1*
X1819633Y886171D2*
X1817201Y890979D1*
X1810071Y898164D1*
X1860256D1*
X1819633Y913603D2*
X1817201Y918412D1*
X1810071Y925597D1*
X1860256D1*
X2321446Y826488D2*
Y847988D1*
X2319014Y855173D1*
X2316638Y857605D1*
X2311885Y859981D1*
X2307076D1*
X2302323Y857605D1*
X2299891Y855173D1*
X2297514Y847988D1*
Y826488D1*
X2347754D1*
X2321446Y843235D2*
X2347755Y859981D1*
X2307131Y875421D2*
X2304700Y880229D1*
X2297570Y887414D1*
X2347755D1*
X2309508Y905285D2*
X2307131D1*
X2302323Y907662D1*
X2299946Y910038D1*
X2297570Y914847D1*
Y924408D1*
X2299946Y929162D1*
X2302323Y931538D1*
X2307131Y933970D1*
X2311885D1*
X2316693Y931538D1*
X2323823Y926785D1*
X2347754Y902853D1*
Y936347D1*
X2808947Y826488D2*
X2808948Y847988D1*
X2806516Y855173D1*
X2804139Y857605D1*
X2799386Y859981D1*
X2794577D1*
X2789824Y857605D1*
X2787392Y855173D1*
X2785016Y847988D1*
Y826488D1*
X2835256D1*
X2808948Y843235D2*
X2835256Y859981D1*
X2794633Y875421D2*
X2792201Y880229D1*
X2785071Y887414D1*
X2835256D1*
X2785071Y907662D2*
Y933915D1*
X2804194Y919600D1*
Y926785D1*
X2806571Y931538D1*
X2808948Y933915D1*
X2816133Y936347D1*
X2820886D1*
X2828071Y933915D1*
X2832879Y929162D1*
X2835256Y921977D1*
Y914792D1*
X2832879Y907662D1*
X2830447Y905285D1*
X2825694Y902853D1*
X3283947Y819050D2*
X3283948Y840550D1*
X3281516Y847735D1*
X3279139Y850167D1*
X3274386Y852544D1*
X3269577D1*
X3264824Y850167D1*
X3262392Y847735D1*
X3260016Y840550D1*
Y819050D1*
X3310256D1*
X3283948Y835797D2*
X3310256Y852544D1*
X3269633Y867983D2*
X3267201Y872791D1*
X3260071Y879977D1*
X3310256Y879976D1*
Y919347D2*
X3260071D1*
X3293509Y895416D1*
Y931286D1*
X3790197Y826488D2*
Y847988D1*
X3787765Y855173D1*
X3785388Y857605D1*
X3780635Y859981D1*
X3775827D1*
X3771074Y857605D1*
X3768642Y855173D1*
X3766265Y847988D1*
Y826488D1*
X3816505D1*
X3790197Y843235D2*
X3816505Y859981D1*
X3775882Y875421D2*
X3773450Y880229D1*
X3766320Y887414D1*
X3816505D1*
X3766320Y931538D2*
Y907662D1*
X3787820Y905285D1*
X3785444Y907662D1*
X3783012Y914847D1*
Y921977D1*
X3785444Y929162D1*
X3790197Y933970D1*
X3797382Y936347D1*
X3802135D1*
X3809320Y933970D1*
X3814129Y929162D1*
X3816505Y921977D1*
Y914847D1*
X3814129Y907662D1*
X3811697Y905285D1*
X3806944Y902853D1*
X4265197Y827704D2*
Y849204D1*
X4262765Y856389D1*
X4260388Y858821D1*
X4255635Y861197D1*
X4250827D1*
X4246074Y858821D1*
X4243642Y856389D1*
X4241265Y849204D1*
Y827704D1*
X4291505D1*
X4265197Y844451D2*
X4291505Y861197D1*
X4250882Y876637D2*
X4248450Y881445D1*
X4241320Y888630D1*
X4291505D1*
X4248450Y932754D2*
X4243697Y930378D1*
X4241320Y923193D1*
Y918439D1*
X4243697Y911254D1*
X4250882Y906446D1*
X4262820Y904069D1*
X4274759D1*
X4284320Y906446D1*
X4289129Y911254D1*
X4291505Y918439D1*
Y920816D1*
X4289129Y927946D1*
X4284320Y932754D1*
X4277135Y935131D1*
X4274758D1*
X4267573Y932754D1*
X4262820Y927946D1*
X4260444Y920816D1*
Y918439D1*
X4262820Y911254D1*
X4267573Y906446D1*
X4274759Y904069D1*
X459165Y2913780D2*
X480665D1*
X487850Y2916211D1*
X490282Y2918588D1*
X492658Y2923341D1*
Y2928150D1*
X490282Y2932903D1*
X487850Y2935335D1*
X480665Y2937711D1*
X459165D1*
Y2887471D1*
X475912Y2913780D2*
X492658Y2887471D1*
X508098Y2928094D2*
X512906Y2930526D1*
X520091Y2937656D1*
Y2887471D1*
X545092D2*
X569024Y2937656D1*
X535530D1*
X483631Y2778857D2*
X488440Y2781289D1*
X495625Y2788419D1*
Y2738234D1*
X511064Y2788474D2*
Y2738234D1*
X544558Y2788474D2*
X511064Y2754981D1*
X523002Y2766975D2*
X544558Y2738234D1*
X679665Y2913780D2*
X701165D1*
X708350Y2916211D1*
X710782Y2918588D1*
X713159Y2923341D1*
Y2928150D1*
X710782Y2932903D1*
X708350Y2935335D1*
X701165Y2937711D1*
X679665D1*
Y2887471D1*
X696412Y2913780D2*
X713159Y2887471D1*
X728598Y2928094D2*
X733406Y2930526D1*
X740591Y2937656D1*
Y2887471D1*
X767969Y2937656D2*
X760839Y2935279D1*
X758407Y2930526D1*
Y2925718D1*
X760839Y2920965D1*
X765592Y2918533D1*
X775154Y2916156D1*
X782339Y2913780D1*
X787092Y2908971D1*
X789469Y2904218D1*
Y2897033D1*
X787092Y2892280D1*
X784715Y2889848D1*
X777530Y2887471D1*
X767969D1*
X760839Y2889848D1*
X758407Y2892280D1*
X756031Y2897033D1*
Y2904218D1*
X758407Y2908971D1*
X763216Y2913780D1*
X770345Y2916156D1*
X779907Y2918533D1*
X784715Y2920965D1*
X787092Y2925718D1*
Y2930526D1*
X784715Y2935279D1*
X777530Y2937656D1*
X767969D1*
X704104Y2778857D2*
X708912Y2781289D1*
X716097Y2788419D1*
Y2738234D1*
X731537Y2788474D2*
Y2738234D1*
X765030Y2788474D2*
X731537Y2754981D1*
X743475Y2766975D2*
X765030Y2738234D1*
X917046Y2913780D2*
X938546D1*
X945731Y2916211D1*
X948163Y2918588D1*
X950540Y2923341D1*
Y2928150D1*
X948163Y2932903D1*
X945731Y2935335D1*
X938546Y2937711D1*
X917046D1*
Y2887471D1*
X933793Y2913780D2*
X950540Y2887471D1*
X965979Y2928094D2*
X970787Y2930526D1*
X977972Y2937656D1*
Y2887471D1*
X1024528Y2920965D2*
X1022097Y2913780D1*
X1017343Y2908971D1*
X1010158Y2906595D1*
X1007782D1*
X1000597Y2908971D1*
X995844Y2913780D1*
X993412Y2920965D1*
Y2923341D1*
X995844Y2930526D1*
X1000597Y2935279D1*
X1007782Y2937656D1*
X1010158D1*
X1017343Y2935279D1*
X1022097Y2930526D1*
X1024528Y2920965D1*
Y2908971D1*
X1022097Y2897033D1*
X1017343Y2889848D1*
X1010158Y2887471D1*
X1005405D1*
X998220Y2889848D1*
X995844Y2894656D1*
X940324Y2778857D2*
X945133Y2781289D1*
X952318Y2788419D1*
Y2738234D1*
X967757Y2788474D2*
Y2738234D1*
X1001250Y2788474D2*
X967757Y2754981D1*
X979695Y2766975D2*
X1001250Y2738234D1*
X1041392Y3172835D2*
X1062892D1*
X1070077Y3175267D1*
X1072509Y3177643D1*
X1074886Y3182396D1*
Y3187205D1*
X1072509Y3191958D1*
X1070077Y3194390D1*
X1062892Y3196766D1*
X1041392D1*
Y3146526D1*
X1058139Y3172835D2*
X1074886Y3146526D1*
X1090325Y3196766D2*
Y3146526D1*
X1119010D1*
X1134449Y3187149D2*
X1139257Y3189581D1*
X1146442Y3196711D1*
Y3146526D1*
X1505642Y3172835D2*
X1527142D1*
X1534327Y3175267D1*
X1536759Y3177643D1*
X1539136Y3182396D1*
Y3187205D1*
X1536759Y3191958D1*
X1534327Y3194390D1*
X1527142Y3196766D1*
X1505642D1*
Y3146526D1*
X1522389Y3172835D2*
X1539136Y3146526D1*
X1554575Y3196766D2*
Y3146526D1*
X1583260D1*
X1601131Y3184773D2*
Y3187149D1*
X1603507Y3191958D1*
X1605884Y3194335D1*
X1610693Y3196711D1*
X1620254D1*
X1625007Y3194335D1*
X1627384Y3191958D1*
X1629816Y3187149D1*
Y3182396D1*
X1627384Y3177588D1*
X1622631Y3170458D1*
X1598699Y3146526D1*
X1632192D1*
X1993339Y3172835D2*
X2014839D1*
X2022024Y3175267D1*
X2024456Y3177643D1*
X2026832Y3182396D1*
Y3187205D1*
X2024456Y3191958D1*
X2022024Y3194390D1*
X2014839Y3196766D1*
X1993339D1*
Y3146526D1*
X2010086Y3172835D2*
X2026832Y3146526D1*
X2042272Y3196766D2*
Y3146526D1*
X2070957D1*
X2091204Y3196711D2*
X2117457D1*
X2103143Y3177588D1*
X2110328D1*
X2115081Y3175211D1*
X2117457Y3172835D1*
X2119889Y3165650D1*
Y3160896D1*
X2117457Y3153711D1*
X2112704Y3148903D1*
X2105519Y3146526D1*
X2098334D1*
X2091204Y3148903D1*
X2088828Y3151335D1*
X2086396Y3156088D1*
X2479454Y3172835D2*
X2500954D1*
X2508139Y3175267D1*
X2510571Y3177643D1*
X2512947Y3182396D1*
Y3187205D1*
X2510571Y3191958D1*
X2508139Y3194390D1*
X2500954Y3196766D1*
X2479454D1*
Y3146526D1*
X2496201Y3172835D2*
X2512947Y3146526D1*
X2528387Y3196766D2*
Y3146526D1*
X2557071D1*
X2596442D2*
Y3196711D1*
X2572511Y3163273D1*
X2608381D1*
X2974393Y3172835D2*
X2995893D1*
X3003078Y3175267D1*
X3005510Y3177643D1*
X3007886Y3182396D1*
Y3187205D1*
X3005510Y3191958D1*
X3003078Y3194390D1*
X2995893Y3196766D1*
X2974393D1*
Y3146526D1*
X2991140Y3172835D2*
X3007886Y3146526D1*
X3023326Y3196766D2*
Y3146526D1*
X3052010D1*
X3096135Y3196711D2*
X3072258D1*
X3069882Y3175211D1*
X3072258Y3177588D1*
X3079443Y3180020D1*
X3086573D1*
X3093758Y3177588D1*
X3098566Y3172835D1*
X3100943Y3165650D1*
Y3160896D1*
X3098566Y3153711D1*
X3093758Y3148903D1*
X3086573Y3146526D1*
X3079443D1*
X3072258Y3148903D1*
X3069882Y3151335D1*
X3067450Y3156088D1*
X3456858Y3172835D2*
X3478358D1*
X3485543Y3175267D1*
X3487975Y3177643D1*
X3490352Y3182396D1*
Y3187205D1*
X3487975Y3191958D1*
X3485543Y3194390D1*
X3478358Y3196766D1*
X3456858D1*
Y3146526D1*
X3473605Y3172835D2*
X3490352Y3146526D1*
X3505791Y3196766D2*
Y3146526D1*
X3534476D1*
X3578600Y3189581D2*
X3576223Y3194335D1*
X3569038Y3196711D1*
X3564285D1*
X3557100Y3194335D1*
X3552292Y3187149D1*
X3549915Y3175211D1*
Y3163273D1*
X3552292Y3153711D1*
X3557100Y3148903D1*
X3564285Y3146526D1*
X3566662D1*
X3573791Y3148903D1*
X3578600Y3153711D1*
X3580976Y3160896D1*
Y3163273D1*
X3578600Y3170458D1*
X3573791Y3175211D1*
X3566662Y3177588D1*
X3564285D1*
X3557100Y3175211D1*
X3552292Y3170458D1*
X3549915Y3163273D1*
X3930642Y3172835D2*
X3952142D1*
X3959327Y3175267D1*
X3961759Y3177643D1*
X3964136Y3182396D1*
Y3187205D1*
X3961759Y3191958D1*
X3959327Y3194390D1*
X3952142Y3196766D1*
X3930642D1*
Y3146526D1*
X3947389Y3172835D2*
X3964136Y3146526D1*
X3979575Y3196766D2*
Y3146526D1*
X4008260D1*
X4033261D2*
X4057192Y3196711D1*
X4023699D1*
X4430670Y3172835D2*
X4452170D1*
X4459355Y3175267D1*
X4461787Y3177643D1*
X4464163Y3182396D1*
Y3187205D1*
X4461787Y3191958D1*
X4459355Y3194390D1*
X4452170Y3196766D1*
X4430670D1*
Y3146526D1*
X4447417Y3172835D2*
X4464163Y3146526D1*
X4479603Y3196766D2*
Y3146526D1*
X4508287D1*
X4535665Y3196711D2*
X4528535Y3194335D1*
X4526103Y3189581D1*
Y3184773D1*
X4528535Y3180020D1*
X4533288Y3177588D1*
X4542850Y3175211D1*
X4550035Y3172835D1*
X4554788Y3168026D1*
X4557165Y3163273D1*
Y3156088D1*
X4554788Y3151335D1*
X4552412Y3148903D1*
X4545226Y3146526D1*
X4535665D1*
X4528535Y3148903D1*
X4526103Y3151335D1*
X4523727Y3156088D1*
Y3163273D1*
X4526103Y3168026D1*
X4530912Y3172835D1*
X4538041Y3175211D1*
X4547603Y3177588D1*
X4552412Y3180020D1*
X4554788Y3184773D1*
Y3189581D1*
X4552412Y3194335D1*
X4545226Y3196711D1*
X4535665D1*
X1025581Y1085335D2*
X1047081D1*
X1054266Y1087767D1*
X1056698Y1090143D1*
X1059075Y1094896D1*
Y1099705D1*
X1056698Y1104458D1*
X1054266Y1106890D1*
X1047081Y1109266D1*
X1025581D1*
Y1059026D1*
X1042328Y1085335D2*
X1059075Y1059026D1*
X1074514Y1109266D2*
Y1059026D1*
X1103199D1*
X1149755Y1092520D2*
X1147323Y1085335D1*
X1142570Y1080526D1*
X1135385Y1078150D1*
X1133008D1*
X1125823Y1080526D1*
X1121070Y1085335D1*
X1118638Y1092520D1*
Y1094896D1*
X1121070Y1102081D1*
X1125823Y1106835D1*
X1133008Y1109211D1*
X1135385D1*
X1142570Y1106835D1*
X1147323Y1102081D1*
X1149755Y1092520D1*
Y1080526D1*
X1147323Y1068588D1*
X1142570Y1061403D1*
X1135385Y1059026D1*
X1130631D1*
X1123446Y1061403D1*
X1121070Y1066211D1*
X1485677Y1085335D2*
X1507176D1*
X1514361Y1087767D1*
X1516793Y1090143D1*
X1519170Y1094896D1*
Y1099705D1*
X1516793Y1104458D1*
X1514361Y1106890D1*
X1507176Y1109266D1*
X1485677D1*
Y1059026D1*
X1502423Y1085335D2*
X1519170Y1059026D1*
X1534609Y1109266D2*
Y1059026D1*
X1563294D1*
X1578733Y1099649D2*
X1583542Y1102081D1*
X1590727Y1109211D1*
Y1059026D1*
X1620536Y1109211D2*
X1613351Y1106835D1*
X1608543Y1099649D1*
X1606166Y1087711D1*
Y1080526D1*
X1608543Y1068588D1*
X1613351Y1061403D1*
X1620536Y1059026D1*
X1625289D1*
X1632474Y1061403D1*
X1637228Y1068588D1*
X1639659Y1080526D1*
Y1087711D1*
X1637228Y1099649D1*
X1632474Y1106835D1*
X1625289Y1109211D1*
X1620536D1*
X1637228Y1099649D2*
X1608543Y1068588D1*
X1990176Y1085335D2*
X2011676D1*
X2018861Y1087767D1*
X2021293Y1090143D1*
X2023669Y1094896D1*
Y1099705D1*
X2021293Y1104458D1*
X2018861Y1106890D1*
X2011676Y1109266D1*
X1990176D1*
Y1059026D1*
X2006923Y1085335D2*
X2023669Y1059026D1*
X2039108Y1109266D2*
Y1059026D1*
X2067793D1*
X2083233Y1099649D2*
X2088041Y1102081D1*
X2095226Y1109211D1*
Y1059026D1*
X2110665Y1099649D2*
X2115474Y1102081D1*
X2122659Y1109211D1*
Y1059026D1*
X2460657Y1085335D2*
X2482157D1*
X2489342Y1087767D1*
X2491774Y1090143D1*
X2494150Y1094896D1*
Y1099705D1*
X2491774Y1104458D1*
X2489342Y1106890D1*
X2482157Y1109266D1*
X2460657D1*
Y1059026D1*
X2477404Y1085335D2*
X2494150Y1059026D1*
X2509589Y1109266D2*
Y1059026D1*
X2538274D1*
X2553714Y1099649D2*
X2558522Y1102081D1*
X2565707Y1109211D1*
Y1059026D1*
X2583578Y1097273D2*
Y1099649D1*
X2585955Y1104458D1*
X2588331Y1106835D1*
X2593140Y1109211D1*
X2602701D1*
X2607455Y1106835D1*
X2609831Y1104458D1*
X2612263Y1099649D1*
Y1094896D1*
X2609831Y1090088D1*
X2605078Y1082958D1*
X2581146Y1059026D1*
X2614640D1*
X2954426Y1085335D2*
X2975926D1*
X2983111Y1087767D1*
X2985543Y1090143D1*
X2987919Y1094896D1*
Y1099705D1*
X2985543Y1104458D1*
X2983111Y1106890D1*
X2975926Y1109266D1*
X2954426D1*
Y1059026D1*
X2971173Y1085335D2*
X2987919Y1059026D1*
X3003359Y1109266D2*
Y1059026D1*
X3032043D1*
X3047483Y1099649D2*
X3052291Y1102081D1*
X3059476Y1109211D1*
Y1059026D1*
X3079724Y1109211D2*
X3105977D1*
X3091662Y1090088D1*
X3098847D1*
X3103600Y1087711D1*
X3105977Y1085335D1*
X3108409Y1078150D1*
Y1073396D1*
X3105977Y1066211D1*
X3101224Y1061403D1*
X3094039Y1059026D1*
X3086854D1*
X3079724Y1061403D1*
X3077347Y1063835D1*
X3074915Y1068588D1*
X3446988Y1085335D2*
X3468488D1*
X3475673Y1087767D1*
X3478105Y1090143D1*
X3480482Y1094896D1*
Y1099705D1*
X3478105Y1104458D1*
X3475673Y1106890D1*
X3468488Y1109266D1*
X3446988D1*
Y1059026D1*
X3463735Y1085335D2*
X3480482Y1059026D1*
X3495921Y1109266D2*
Y1059026D1*
X3524606D1*
X3540045Y1099649D2*
X3544853Y1102081D1*
X3552038Y1109211D1*
Y1059026D1*
X3591409D2*
Y1109211D1*
X3567478Y1075773D1*
X3603348D1*
X3929426Y1085335D2*
X3950926D1*
X3958111Y1087767D1*
X3960543Y1090143D1*
X3962919Y1094896D1*
Y1099705D1*
X3960543Y1104458D1*
X3958111Y1106890D1*
X3950926Y1109266D1*
X3929426D1*
Y1059026D1*
X3946173Y1085335D2*
X3962919Y1059026D1*
X3978359Y1109266D2*
Y1059026D1*
X4007043D1*
X4022483Y1099649D2*
X4027291Y1102081D1*
X4034476Y1109211D1*
Y1059026D1*
X4078600Y1109211D2*
X4054724D1*
X4052347Y1087711D1*
X4054724Y1090088D1*
X4061909Y1092520D1*
X4069039D1*
X4076224Y1090088D1*
X4081032Y1085335D1*
X4083409Y1078150D1*
Y1073396D1*
X4081032Y1066211D1*
X4076224Y1061403D1*
X4069039Y1059026D1*
X4061909D1*
X4054724Y1061403D1*
X4052347Y1063835D1*
X4049915Y1068588D1*
X4418142Y1085335D2*
X4439642D1*
X4446827Y1087767D1*
X4449259Y1090143D1*
X4451635Y1094896D1*
Y1099705D1*
X4449259Y1104458D1*
X4446827Y1106890D1*
X4439642Y1109266D1*
X4418142D1*
Y1059026D1*
X4434889Y1085335D2*
X4451635Y1059026D1*
X4467074Y1109266D2*
Y1059026D1*
X4495759D1*
X4511199Y1099649D2*
X4516007Y1102081D1*
X4523192Y1109211D1*
Y1059026D1*
X4567316Y1102081D2*
X4564940Y1106835D1*
X4557755Y1109211D1*
X4553001D1*
X4545816Y1106835D1*
X4541008Y1099649D1*
X4538631Y1087711D1*
Y1075773D1*
X4541008Y1066211D1*
X4545816Y1061403D1*
X4553001Y1059026D1*
X4555378D1*
X4562508Y1061403D1*
X4567316Y1066211D1*
X4569693Y1073396D1*
Y1075773D1*
X4567316Y1082958D1*
X4562508Y1087711D1*
X4555378Y1090088D1*
X4553001D1*
X4545816Y1087711D1*
X4541008Y1082958D1*
X4538631Y1075773D1*
X1039747Y3428986D2*
X1034994Y3433795D1*
X1027809Y3436171D1*
X1018247D1*
X1011062Y3433795D1*
X1006254Y3428986D1*
Y3424233D1*
X1008686Y3419425D1*
X1011062Y3417048D1*
X1015816Y3414671D1*
X1030186Y3409863D1*
X1034994Y3407486D1*
X1037371Y3405054D1*
X1039747Y3400301D1*
Y3393116D1*
X1034994Y3388363D1*
X1027809Y3385931D1*
X1018247D1*
X1011062Y3388363D1*
X1006254Y3393116D1*
X1088680Y3428986D2*
X1083927Y3433795D1*
X1076742Y3436171D1*
X1067180D1*
X1059995Y3433795D1*
X1055187Y3428986D1*
Y3424233D1*
X1057618Y3419425D1*
X1059995Y3417048D1*
X1064748Y3414671D1*
X1079118Y3409863D1*
X1083927Y3407486D1*
X1086303Y3405054D1*
X1088680Y3400301D1*
Y3393116D1*
X1083927Y3388363D1*
X1076742Y3385931D1*
X1067180D1*
X1059995Y3388363D1*
X1055187Y3393116D1*
X1104119Y3412240D2*
X1125619D1*
X1132804Y3414671D1*
X1135236Y3417048D1*
X1137612Y3421801D1*
Y3426610D1*
X1135236Y3431363D1*
X1132804Y3433795D1*
X1125619Y3436171D1*
X1104119D1*
Y3385931D1*
X1120866Y3412240D2*
X1137612Y3385931D1*
X1153052Y3426554D2*
X1157860Y3428986D1*
X1165045Y3436116D1*
Y3385931D1*
X1516497Y3428986D2*
X1511744Y3433795D1*
X1504559Y3436171D1*
X1494998D1*
X1487813Y3433795D1*
X1483004Y3428986D1*
Y3424233D1*
X1485436Y3419425D1*
X1487813Y3417048D1*
X1492566Y3414671D1*
X1506936Y3409863D1*
X1511744Y3407486D1*
X1514121Y3405054D1*
X1516497Y3400301D1*
Y3393116D1*
X1511744Y3388363D1*
X1504559Y3385931D1*
X1494998D1*
X1487813Y3388363D1*
X1483004Y3393116D1*
X1565430Y3428986D2*
X1560677Y3433795D1*
X1553492Y3436171D1*
X1543930D1*
X1536745Y3433795D1*
X1531937Y3428986D1*
Y3424233D1*
X1534369Y3419425D1*
X1536745Y3417048D1*
X1541498Y3414671D1*
X1555868Y3409863D1*
X1560677Y3407486D1*
X1563053Y3405054D1*
X1565430Y3400301D1*
Y3393116D1*
X1560677Y3388363D1*
X1553492Y3385931D1*
X1543930D1*
X1536745Y3388363D1*
X1531937Y3393116D1*
X1580869Y3412240D2*
X1602369D1*
X1609554Y3414671D1*
X1611986Y3417048D1*
X1614363Y3421801D1*
Y3426610D1*
X1611986Y3431363D1*
X1609554Y3433795D1*
X1602369Y3436171D1*
X1580869D1*
Y3385931D1*
X1597616Y3412240D2*
X1614363Y3385931D1*
X1632234Y3424178D2*
Y3426554D1*
X1634610Y3431363D1*
X1636987Y3433739D1*
X1641795Y3436116D1*
X1651357D1*
X1656110Y3433739D1*
X1658487Y3431363D1*
X1660919Y3426554D1*
Y3421801D1*
X1658487Y3416993D1*
X1653734Y3409863D1*
X1629802Y3385931D1*
X1663295D1*
X2006104Y3429006D2*
X2001351Y3433814D1*
X1994165Y3436191D1*
X1984604D1*
X1977419Y3433814D1*
X1972610Y3429006D1*
Y3424253D1*
X1975042Y3419444D1*
X1977419Y3417068D1*
X1982172Y3414691D1*
X1996542Y3409883D1*
X2001351Y3407506D1*
X2003727Y3405074D1*
X2006104Y3400321D1*
Y3393136D1*
X2001351Y3388383D1*
X1994165Y3385951D1*
X1984604D1*
X1977419Y3388383D1*
X1972610Y3393136D1*
X2055036Y3429006D2*
X2050283Y3433814D1*
X2043098Y3436191D1*
X2033536D1*
X2026351Y3433814D1*
X2021543Y3429006D1*
Y3424253D1*
X2023975Y3419444D1*
X2026351Y3417068D1*
X2031105Y3414691D1*
X2045475Y3409883D1*
X2050283Y3407506D1*
X2052660Y3405074D1*
X2055036Y3400321D1*
Y3393136D1*
X2050283Y3388383D1*
X2043098Y3385951D1*
X2033536D1*
X2026351Y3388383D1*
X2021543Y3393136D1*
X2070476Y3412259D2*
X2091975D1*
X2099160Y3414691D1*
X2101592Y3417068D1*
X2103969Y3421821D1*
Y3426629D1*
X2101592Y3431382D1*
X2099160Y3433814D1*
X2091975Y3436191D1*
X2070476D1*
Y3385951D1*
X2087222Y3412259D2*
X2103969Y3385951D1*
X2124217Y3436136D2*
X2150470D1*
X2136155Y3417012D1*
X2143340D1*
X2148093Y3414636D1*
X2150470Y3412259D1*
X2152901Y3405074D1*
Y3400321D1*
X2150470Y3393136D1*
X2145716Y3388327D1*
X2138531Y3385951D1*
X2131346D1*
X2124217Y3388327D1*
X2121840Y3390759D1*
X2119408Y3395513D1*
X2490309Y3429006D2*
X2485556Y3433814D1*
X2478371Y3436191D1*
X2468809D1*
X2461624Y3433814D1*
X2456816Y3429006D1*
Y3424253D1*
X2459248Y3419444D1*
X2461624Y3417068D1*
X2466377Y3414691D1*
X2480747Y3409883D1*
X2485556Y3407506D1*
X2487933Y3405074D1*
X2490309Y3400321D1*
Y3393136D1*
X2485556Y3388383D1*
X2478371Y3385951D1*
X2468809D1*
X2461624Y3388383D1*
X2456816Y3393136D1*
X2539242Y3429006D2*
X2534489Y3433814D1*
X2527303Y3436191D1*
X2517742D1*
X2510557Y3433814D1*
X2505748Y3429006D1*
Y3424253D1*
X2508180Y3419444D1*
X2510557Y3417068D1*
X2515310Y3414691D1*
X2529680Y3409883D1*
X2534489Y3407506D1*
X2536865Y3405074D1*
X2539242Y3400321D1*
Y3393136D1*
X2534489Y3388383D1*
X2527303Y3385951D1*
X2517742D1*
X2510557Y3388383D1*
X2505748Y3393136D1*
X2554681Y3412259D2*
X2576181D1*
X2583366Y3414691D1*
X2585798Y3417068D1*
X2588174Y3421821D1*
Y3426629D1*
X2585798Y3431382D1*
X2583366Y3433814D1*
X2576181Y3436191D1*
X2554681D1*
Y3385951D1*
X2571428Y3412259D2*
X2588174Y3385951D1*
X2627545D2*
Y3436136D1*
X2603614Y3402698D1*
X2639483D1*
X2978997Y3429006D2*
X2974244Y3433814D1*
X2967059Y3436191D1*
X2957498D1*
X2950313Y3433814D1*
X2945504Y3429006D1*
Y3424253D1*
X2947936Y3419444D1*
X2950313Y3417068D1*
X2955066Y3414691D1*
X2969436Y3409883D1*
X2974244Y3407506D1*
X2976621Y3405074D1*
X2978997Y3400321D1*
Y3393136D1*
X2974244Y3388383D1*
X2967059Y3385951D1*
X2957498D1*
X2950313Y3388383D1*
X2945504Y3393136D1*
X3027930Y3429006D2*
X3023177Y3433814D1*
X3015992Y3436191D1*
X3006430D1*
X2999245Y3433814D1*
X2994437Y3429006D1*
Y3424253D1*
X2996869Y3419444D1*
X2999245Y3417068D1*
X3003998Y3414691D1*
X3018368Y3409883D1*
X3023177Y3407506D1*
X3025553Y3405074D1*
X3027930Y3400321D1*
Y3393136D1*
X3023177Y3388383D1*
X3015992Y3385951D1*
X3006430D1*
X2999245Y3388383D1*
X2994437Y3393136D1*
X3043369Y3412259D2*
X3064869D1*
X3072054Y3414691D1*
X3074486Y3417068D1*
X3076863Y3421821D1*
Y3426629D1*
X3074486Y3431382D1*
X3072054Y3433814D1*
X3064869Y3436191D1*
X3043369D1*
Y3385951D1*
X3060116Y3412259D2*
X3076863Y3385951D1*
X3120987Y3436136D2*
X3097110D1*
X3094734Y3414636D1*
X3097110Y3417012D1*
X3104295Y3419444D1*
X3111425D1*
X3118610Y3417012D1*
X3123419Y3412259D1*
X3125795Y3405074D1*
Y3400321D1*
X3123419Y3393136D1*
X3118610Y3388327D1*
X3111425Y3385951D1*
X3104295D1*
X3097110Y3388327D1*
X3094734Y3390759D1*
X3092302Y3395513D1*
X3467713Y3429006D2*
X3462960Y3433814D1*
X3455775Y3436191D1*
X3446213D1*
X3439028Y3433814D1*
X3434220Y3429006D1*
Y3424253D1*
X3436652Y3419444D1*
X3439028Y3417068D1*
X3443782Y3414691D1*
X3458152Y3409883D1*
X3462960Y3407506D1*
X3465337Y3405074D1*
X3467713Y3400321D1*
Y3393136D1*
X3462960Y3388383D1*
X3455775Y3385951D1*
X3446213D1*
X3439028Y3388383D1*
X3434220Y3393136D1*
X3516646Y3429006D2*
X3511893Y3433814D1*
X3504708Y3436191D1*
X3495146D1*
X3487961Y3433814D1*
X3483153Y3429006D1*
Y3424253D1*
X3485584Y3419444D1*
X3487961Y3417068D1*
X3492714Y3414691D1*
X3507084Y3409883D1*
X3511893Y3407506D1*
X3514269Y3405074D1*
X3516646Y3400321D1*
Y3393136D1*
X3511893Y3388383D1*
X3504708Y3385951D1*
X3495146D1*
X3487961Y3388383D1*
X3483153Y3393136D1*
X3532085Y3412259D2*
X3553585D1*
X3560770Y3414691D1*
X3563202Y3417068D1*
X3565578Y3421821D1*
Y3426629D1*
X3563202Y3431382D1*
X3560770Y3433814D1*
X3553585Y3436191D1*
X3532085D1*
Y3385951D1*
X3548832Y3412259D2*
X3565578Y3385951D1*
X3609703Y3429006D2*
X3607326Y3433759D1*
X3600141Y3436136D1*
X3595388D1*
X3588203Y3433759D1*
X3583394Y3426574D1*
X3581018Y3414636D1*
Y3402698D1*
X3583394Y3393136D1*
X3588203Y3388327D1*
X3595388Y3385951D1*
X3597764D1*
X3604894Y3388327D1*
X3609703Y3393136D1*
X3612079Y3400321D1*
Y3402698D1*
X3609703Y3409883D1*
X3604894Y3414636D1*
X3597764Y3417012D1*
X3595388D1*
X3588203Y3414636D1*
X3583394Y3409883D1*
X3581018Y3402698D1*
X3953997Y3429006D2*
X3949244Y3433814D1*
X3942059Y3436191D1*
X3932498D1*
X3925313Y3433814D1*
X3920504Y3429006D1*
Y3424253D1*
X3922936Y3419444D1*
X3925313Y3417068D1*
X3930066Y3414691D1*
X3944436Y3409883D1*
X3949244Y3407506D1*
X3951621Y3405074D1*
X3953997Y3400321D1*
Y3393136D1*
X3949244Y3388383D1*
X3942059Y3385951D1*
X3932498D1*
X3925313Y3388383D1*
X3920504Y3393136D1*
X4002930Y3429006D2*
X3998177Y3433814D1*
X3990992Y3436191D1*
X3981430D1*
X3974245Y3433814D1*
X3969437Y3429006D1*
Y3424253D1*
X3971869Y3419444D1*
X3974245Y3417068D1*
X3978998Y3414691D1*
X3993368Y3409883D1*
X3998177Y3407506D1*
X4000553Y3405074D1*
X4002930Y3400321D1*
Y3393136D1*
X3998177Y3388383D1*
X3990992Y3385951D1*
X3981430D1*
X3974245Y3388383D1*
X3969437Y3393136D1*
X4018369Y3412259D2*
X4039869D1*
X4047054Y3414691D1*
X4049486Y3417068D1*
X4051863Y3421821D1*
Y3426629D1*
X4049486Y3431382D1*
X4047054Y3433814D1*
X4039869Y3436191D1*
X4018369D1*
Y3385951D1*
X4035116Y3412259D2*
X4051863Y3385951D1*
X4076863D2*
X4100795Y3436136D1*
X4067302D1*
X4441525Y3429006D2*
X4436772Y3433814D1*
X4429587Y3436191D1*
X4420025D1*
X4412840Y3433814D1*
X4408032Y3429006D1*
Y3424253D1*
X4410464Y3419444D1*
X4412840Y3417068D1*
X4417593Y3414691D1*
X4431963Y3409883D1*
X4436772Y3407506D1*
X4439148Y3405074D1*
X4441525Y3400321D1*
Y3393136D1*
X4436772Y3388383D1*
X4429587Y3385951D1*
X4420025D1*
X4412840Y3388383D1*
X4408032Y3393136D1*
X4490458Y3429006D2*
X4485704Y3433814D1*
X4478519Y3436191D1*
X4468958D1*
X4461773Y3433814D1*
X4456964Y3429006D1*
Y3424253D1*
X4459396Y3419444D1*
X4461773Y3417068D1*
X4466526Y3414691D1*
X4480896Y3409883D1*
X4485704Y3407506D1*
X4488081Y3405074D1*
X4490458Y3400321D1*
Y3393136D1*
X4485704Y3388383D1*
X4478519Y3385951D1*
X4468958D1*
X4461773Y3388383D1*
X4456964Y3393136D1*
X4505897Y3412259D2*
X4527397D1*
X4534582Y3414691D1*
X4537014Y3417068D1*
X4539390Y3421821D1*
Y3426629D1*
X4537014Y3431382D1*
X4534582Y3433814D1*
X4527397Y3436191D1*
X4505897D1*
Y3385951D1*
X4522644Y3412259D2*
X4539390Y3385951D1*
X4566768Y3436136D2*
X4559638Y3433759D1*
X4557206Y3429006D1*
Y3424197D1*
X4559638Y3419444D1*
X4564391Y3417012D1*
X4573953Y3414636D1*
X4581138Y3412259D1*
X4585891Y3407451D1*
X4588268Y3402698D1*
Y3395513D1*
X4585891Y3390759D1*
X4583514Y3388327D1*
X4576329Y3385951D1*
X4566768D1*
X4559638Y3388327D1*
X4557206Y3390759D1*
X4554829Y3395513D1*
Y3402698D1*
X4557206Y3407451D1*
X4562014Y3412259D1*
X4569144Y3414636D1*
X4578706Y3417012D1*
X4583514Y3419444D1*
X4585891Y3424197D1*
Y3429006D1*
X4583514Y3433759D1*
X4576329Y3436136D1*
X4566768D1*
X1030166Y787534D2*
X1025413Y792343D1*
X1018228Y794719D1*
X1008666D1*
X1001481Y792343D1*
X996673Y787534D1*
Y782781D1*
X999105Y777972D1*
X1001481Y775596D1*
X1006234Y773219D1*
X1020604Y768411D1*
X1025413Y766034D1*
X1027789Y763602D1*
X1030166Y758849D1*
Y751664D1*
X1025413Y746911D1*
X1018228Y744479D1*
X1008666D1*
X1001481Y746911D1*
X996673Y751664D1*
X1079099Y787534D2*
X1074345Y792343D1*
X1067160Y794719D1*
X1057599D1*
X1050414Y792343D1*
X1045605Y787534D1*
Y782781D1*
X1048037Y777972D1*
X1050414Y775596D1*
X1055167Y773219D1*
X1069537Y768411D1*
X1074345Y766034D1*
X1076722Y763602D1*
X1079099Y758849D1*
Y751664D1*
X1074345Y746911D1*
X1067160Y744479D1*
X1057599D1*
X1050414Y746911D1*
X1045605Y751664D1*
X1094538Y770787D2*
X1116038D1*
X1123223Y773219D1*
X1125655Y775596D1*
X1128031Y780349D1*
Y785158D1*
X1125655Y789911D1*
X1123223Y792343D1*
X1116038Y794719D1*
X1094538D1*
Y744479D1*
X1111285Y770787D2*
X1128031Y744479D1*
X1174587Y777972D2*
X1172155Y770787D1*
X1167402Y765979D1*
X1160217Y763602D1*
X1157841D1*
X1150655Y765979D1*
X1145902Y770787D1*
X1143470Y777972D1*
Y780349D1*
X1145902Y787534D1*
X1150655Y792287D1*
X1157841Y794664D1*
X1160217D1*
X1167402Y792287D1*
X1172155Y787534D1*
X1174587Y777972D1*
Y765979D1*
X1172155Y754041D1*
X1167402Y746856D1*
X1160217Y744479D1*
X1155464D1*
X1148279Y746856D1*
X1145902Y751664D1*
X1502781Y787534D2*
X1498028Y792343D1*
X1490843Y794719D1*
X1481281D1*
X1474096Y792343D1*
X1469288Y787534D1*
Y782781D1*
X1471720Y777972D1*
X1474096Y775596D1*
X1478849Y773219D1*
X1493219Y768411D1*
X1498028Y766034D1*
X1500404Y763602D1*
X1502781Y758849D1*
Y751664D1*
X1498028Y746911D1*
X1490843Y744479D1*
X1481281D1*
X1474096Y746911D1*
X1469288Y751664D1*
X1551714Y787534D2*
X1546960Y792343D1*
X1539775Y794719D1*
X1530214D1*
X1523029Y792343D1*
X1518220Y787534D1*
Y782781D1*
X1520652Y777972D1*
X1523029Y775596D1*
X1527782Y773219D1*
X1542152Y768411D1*
X1546960Y766034D1*
X1549337Y763602D1*
X1551714Y758849D1*
Y751664D1*
X1546960Y746911D1*
X1539775Y744479D1*
X1530214D1*
X1523029Y746911D1*
X1518220Y751664D1*
X1567153Y770787D2*
X1588653D1*
X1595838Y773219D1*
X1598270Y775596D1*
X1600646Y780349D1*
Y785158D1*
X1598270Y789911D1*
X1595838Y792343D1*
X1588653Y794719D1*
X1567153D1*
Y744479D1*
X1583900Y770787D2*
X1600646Y744479D1*
X1616085Y785102D2*
X1620894Y787534D1*
X1628079Y794664D1*
Y744479D1*
X1657888Y794664D2*
X1650703Y792287D1*
X1645895Y785102D1*
X1643518Y773164D1*
Y765979D1*
X1645895Y754041D1*
X1650703Y746856D1*
X1657888Y744479D1*
X1662641D1*
X1669826Y746856D1*
X1674580Y754041D1*
X1677012Y765979D1*
Y773164D1*
X1674580Y785102D1*
X1669826Y792287D1*
X1662641Y794664D1*
X1657888D1*
X1674580Y785102D2*
X1645895Y754041D1*
X2003137Y787534D2*
X1998384Y792343D1*
X1991199Y794719D1*
X1981637D1*
X1974452Y792343D1*
X1969644Y787534D1*
Y782781D1*
X1972076Y777972D1*
X1974452Y775596D1*
X1979206Y773219D1*
X1993576Y768411D1*
X1998384Y766034D1*
X2000761Y763602D1*
X2003137Y758849D1*
Y751664D1*
X1998384Y746911D1*
X1991199Y744479D1*
X1981637D1*
X1974452Y746911D1*
X1969644Y751664D1*
X2052070Y787534D2*
X2047317Y792343D1*
X2040132Y794719D1*
X2030570D1*
X2023385Y792343D1*
X2018577Y787534D1*
Y782781D1*
X2021008Y777972D1*
X2023385Y775596D1*
X2028138Y773219D1*
X2042508Y768411D1*
X2047317Y766034D1*
X2049693Y763602D1*
X2052070Y758849D1*
Y751664D1*
X2047317Y746911D1*
X2040132Y744479D1*
X2030570D1*
X2023385Y746911D1*
X2018577Y751664D1*
X2067509Y770787D2*
X2089009D1*
X2096194Y773219D1*
X2098626Y775596D1*
X2101002Y780349D1*
Y785158D1*
X2098626Y789911D1*
X2096194Y792343D1*
X2089009Y794719D1*
X2067509D1*
Y744479D1*
X2084256Y770787D2*
X2101002Y744479D1*
X2116442Y785102D2*
X2121250Y787534D1*
X2128435Y794664D1*
Y744479D1*
X2143874Y785102D2*
X2148683Y787534D1*
X2155868Y794664D1*
Y744479D1*
X2477781Y787534D2*
X2473028Y792343D1*
X2465843Y794719D1*
X2456281D1*
X2449096Y792343D1*
X2444288Y787534D1*
Y782781D1*
X2446720Y777972D1*
X2449096Y775596D1*
X2453849Y773219D1*
X2468219Y768411D1*
X2473028Y766034D1*
X2475404Y763602D1*
X2477781Y758849D1*
Y751664D1*
X2473028Y746911D1*
X2465843Y744479D1*
X2456281D1*
X2449096Y746911D1*
X2444288Y751664D1*
X2526714Y787534D2*
X2521960Y792343D1*
X2514775Y794719D1*
X2505214D1*
X2498029Y792343D1*
X2493220Y787534D1*
Y782781D1*
X2495652Y777972D1*
X2498029Y775596D1*
X2502782Y773219D1*
X2517152Y768411D1*
X2521960Y766034D1*
X2524337Y763602D1*
X2526714Y758849D1*
Y751664D1*
X2521960Y746911D1*
X2514775Y744479D1*
X2505214D1*
X2498029Y746911D1*
X2493220Y751664D1*
X2542153Y770787D2*
X2563653D1*
X2570838Y773219D1*
X2573270Y775596D1*
X2575646Y780349D1*
Y785158D1*
X2573270Y789911D1*
X2570838Y792343D1*
X2563653Y794719D1*
X2542153D1*
Y744479D1*
X2558900Y770787D2*
X2575646Y744479D1*
X2591085Y785102D2*
X2595894Y787534D1*
X2603079Y794664D1*
Y744479D1*
X2620950Y782726D2*
Y785102D1*
X2623327Y789911D1*
X2625703Y792287D1*
X2630512Y794664D1*
X2640073D1*
X2644826Y792287D1*
X2647203Y789911D1*
X2649635Y785102D1*
Y780349D1*
X2647203Y775541D1*
X2642450Y768411D1*
X2618518Y744479D1*
X2652012D1*
X2965261Y787534D2*
X2960508Y792343D1*
X2953323Y794719D1*
X2943761D1*
X2936576Y792343D1*
X2931768Y787534D1*
Y782781D1*
X2934200Y777972D1*
X2936576Y775596D1*
X2941330Y773219D1*
X2955700Y768411D1*
X2960508Y766034D1*
X2962885Y763602D1*
X2965261Y758849D1*
Y751664D1*
X2960508Y746911D1*
X2953323Y744479D1*
X2943761D1*
X2936576Y746911D1*
X2931768Y751664D1*
X3014194Y787534D2*
X3009441Y792343D1*
X3002256Y794719D1*
X2992694D1*
X2985509Y792343D1*
X2980701Y787534D1*
Y782781D1*
X2983132Y777972D1*
X2985509Y775596D1*
X2990262Y773219D1*
X3004632Y768411D1*
X3009441Y766034D1*
X3011817Y763602D1*
X3014194Y758849D1*
Y751664D1*
X3009441Y746911D1*
X3002256Y744479D1*
X2992694D1*
X2985509Y746911D1*
X2980701Y751664D1*
X3029633Y770787D2*
X3051133D1*
X3058318Y773219D1*
X3060750Y775596D1*
X3063127Y780349D1*
Y785158D1*
X3060750Y789911D1*
X3058318Y792343D1*
X3051133Y794719D1*
X3029633D1*
Y744479D1*
X3046380Y770787D2*
X3063127Y744479D1*
X3078566Y785102D2*
X3083374Y787534D1*
X3090559Y794664D1*
Y744479D1*
X3110807Y794664D2*
X3137060D1*
X3122745Y775541D1*
X3129930D1*
X3134683Y773164D1*
X3137060Y770787D1*
X3139492Y763602D1*
Y758849D1*
X3137060Y751664D1*
X3132307Y746856D1*
X3125122Y744479D1*
X3117937D1*
X3110807Y746856D1*
X3108430Y749288D1*
X3105998Y754041D1*
X3451593Y787534D2*
X3446840Y792343D1*
X3439655Y794719D1*
X3430093D1*
X3422908Y792343D1*
X3418099Y787534D1*
Y782781D1*
X3420531Y777972D1*
X3422908Y775596D1*
X3427661Y773219D1*
X3442031Y768411D1*
X3446840Y766034D1*
X3449216Y763602D1*
X3451593Y758849D1*
Y751664D1*
X3446840Y746911D1*
X3439655Y744479D1*
X3430093D1*
X3422908Y746911D1*
X3418099Y751664D1*
X3500525Y787534D2*
X3495772Y792343D1*
X3488587Y794719D1*
X3479025D1*
X3471840Y792343D1*
X3467032Y787534D1*
Y782781D1*
X3469464Y777972D1*
X3471840Y775596D1*
X3476594Y773219D1*
X3490964Y768411D1*
X3495772Y766034D1*
X3498149Y763602D1*
X3500525Y758849D1*
Y751664D1*
X3495772Y746911D1*
X3488587Y744479D1*
X3479025D1*
X3471840Y746911D1*
X3467032Y751664D1*
X3515965Y770787D2*
X3537464D1*
X3544649Y773219D1*
X3547081Y775596D1*
X3549458Y780349D1*
Y785158D1*
X3547081Y789911D1*
X3544649Y792343D1*
X3537464Y794719D1*
X3515965D1*
Y744479D1*
X3532711Y770787D2*
X3549458Y744479D1*
X3564897Y785102D2*
X3569706Y787534D1*
X3576891Y794664D1*
Y744479D1*
X3616262D2*
Y794664D1*
X3592330Y761226D1*
X3628200D1*
X3940261Y787534D2*
X3935508Y792343D1*
X3928323Y794719D1*
X3918761D1*
X3911576Y792343D1*
X3906768Y787534D1*
Y782781D1*
X3909200Y777972D1*
X3911576Y775596D1*
X3916330Y773219D1*
X3930700Y768411D1*
X3935508Y766034D1*
X3937885Y763602D1*
X3940261Y758849D1*
Y751664D1*
X3935508Y746911D1*
X3928323Y744479D1*
X3918761D1*
X3911576Y746911D1*
X3906768Y751664D1*
X3989194Y787534D2*
X3984441Y792343D1*
X3977256Y794719D1*
X3967694D1*
X3960509Y792343D1*
X3955701Y787534D1*
Y782781D1*
X3958132Y777972D1*
X3960509Y775596D1*
X3965262Y773219D1*
X3979632Y768411D1*
X3984441Y766034D1*
X3986817Y763602D1*
X3989194Y758849D1*
Y751664D1*
X3984441Y746911D1*
X3977256Y744479D1*
X3967694D1*
X3960509Y746911D1*
X3955701Y751664D1*
X4004633Y770787D2*
X4026133D1*
X4033318Y773219D1*
X4035750Y775596D1*
X4038127Y780349D1*
Y785158D1*
X4035750Y789911D1*
X4033318Y792343D1*
X4026133Y794719D1*
X4004633D1*
Y744479D1*
X4021380Y770787D2*
X4038127Y744479D1*
X4053566Y785102D2*
X4058374Y787534D1*
X4065559Y794664D1*
Y744479D1*
X4109683Y794664D2*
X4085807D1*
X4083430Y773164D1*
X4085807Y775541D1*
X4092992Y777972D1*
X4100122D1*
X4107307Y775541D1*
X4112115Y770787D1*
X4114492Y763602D1*
Y758849D1*
X4112115Y751664D1*
X4107307Y746856D1*
X4100122Y744479D1*
X4092992D1*
X4085807Y746856D1*
X4083430Y749288D1*
X4080998Y754041D1*
X4428997Y787534D2*
X4424244Y792343D1*
X4417059Y794719D1*
X4407497D1*
X4400312Y792343D1*
X4395504Y787534D1*
Y782781D1*
X4397935Y777972D1*
X4400312Y775596D1*
X4405065Y773219D1*
X4419435Y768411D1*
X4424244Y766034D1*
X4426620Y763602D1*
X4428997Y758849D1*
Y751664D1*
X4424244Y746911D1*
X4417059Y744479D1*
X4407497D1*
X4400312Y746911D1*
X4395504Y751664D1*
X4477930Y787534D2*
X4473176Y792343D1*
X4465991Y794719D1*
X4456430D1*
X4449245Y792343D1*
X4444436Y787534D1*
Y782781D1*
X4446868Y777972D1*
X4449245Y775596D1*
X4453998Y773219D1*
X4468368Y768411D1*
X4473176Y766034D1*
X4475553Y763602D1*
X4477930Y758849D1*
Y751664D1*
X4473176Y746911D1*
X4465991Y744479D1*
X4456430D1*
X4449245Y746911D1*
X4444436Y751664D1*
X4493369Y770787D2*
X4514869D1*
X4522054Y773219D1*
X4524486Y775596D1*
X4526862Y780349D1*
Y785158D1*
X4524486Y789911D1*
X4522054Y792343D1*
X4514869Y794719D1*
X4493369D1*
Y744479D1*
X4510115Y770787D2*
X4526862Y744479D1*
X4542301Y785102D2*
X4547110Y787534D1*
X4554295Y794664D1*
Y744479D1*
X4598419Y787534D2*
X4596042Y792287D1*
X4588857Y794664D1*
X4584104D1*
X4576919Y792287D1*
X4572111Y785102D1*
X4569734Y773164D1*
Y761226D1*
X4572111Y751664D1*
X4576919Y746856D1*
X4584104Y744479D1*
X4586481D1*
X4593611Y746856D1*
X4598419Y751664D1*
X4600796Y758849D1*
Y761226D1*
X4598419Y768411D1*
X4593611Y773164D1*
X4586481Y775541D1*
X4584104D1*
X4576919Y773164D1*
X4572111Y768411D1*
X4569734Y761226D1*
X4330285Y2431806D2*
Y2395936D1*
X4332662Y2388751D1*
X4337470Y2383998D1*
X4344655Y2381566D1*
X4349408D1*
X4356593Y2383998D1*
X4361402Y2388751D1*
X4363778Y2395936D1*
Y2431806D1*
X4379218Y2422189D2*
X4384026Y2424621D1*
X4391211Y2431750D1*
Y2381566D1*
X1332724Y2770388D2*
Y2734519D1*
X1335101Y2727333D1*
X1339909Y2722580D1*
X1347094Y2720148D1*
X1351847D1*
X1359032Y2722580D1*
X1363841Y2727333D1*
X1366217Y2734519D1*
Y2770388D1*
X1384088Y2758395D2*
Y2760772D1*
X1386465Y2765580D1*
X1388842Y2767957D1*
X1393650Y2770333D1*
X1403212D1*
X1407965Y2767957D1*
X1410342Y2765580D1*
X1412773Y2760772D1*
Y2756018D1*
X1410342Y2751210D1*
X1405588Y2744080D1*
X1381657Y2720148D1*
X1415150D1*
X3366008Y2055490D2*
Y2019620D1*
X3368384Y2012435D1*
X3373193Y2007682D1*
X3380378Y2005250D1*
X3385131D1*
X3392316Y2007682D1*
X3397124Y2012435D1*
X3399501Y2019620D1*
Y2055490D1*
X3443625Y2055435D2*
X3419749D1*
X3417372Y2033935D1*
X3419749Y2036312D1*
X3426934Y2038743D1*
X3434063D1*
X3441248Y2036312D1*
X3446057Y2031558D1*
X3448433Y2024373D1*
Y2019620D1*
X3446057Y2012435D1*
X3441248Y2007627D1*
X3434063Y2005250D1*
X3426934D1*
X3419749Y2007627D1*
X3417372Y2010059D1*
X3414940Y2014812D1*
X3386063Y2269282D2*
Y2290781D1*
X3383631Y2297966D1*
X3381255Y2300398D1*
X3376501Y2302775D1*
X3371693D1*
X3366940Y2300398D1*
X3364508Y2297966D1*
X3362131Y2290781D1*
Y2269282D1*
X3412371D1*
X3386063Y2286028D2*
X3412371Y2302775D1*
X3374125Y2320646D2*
X3371748D1*
X3366940Y2323022D1*
X3364563Y2325399D1*
X3362187Y2330208D1*
Y2339769D1*
X3364563Y2344522D1*
X3366940Y2346899D1*
X3371748Y2349331D1*
X3376501D1*
X3381310Y2346899D1*
X3388440Y2342146D1*
X3412371Y2318214D1*
Y2351707D1*
X3374125Y2369578D2*
X3371748D1*
X3366940Y2371955D1*
X3364563Y2374332D1*
X3362187Y2379140D1*
Y2388702D1*
X3364563Y2393455D1*
X3366940Y2395831D1*
X3371748Y2398263D1*
X3376501D1*
X3381310Y2395831D1*
X3388440Y2391078D1*
X3412371Y2367147D1*
Y2400640D1*
X3520985Y2304498D2*
X3518553Y2309306D1*
X3511423Y2316491D1*
X3561608D1*
X3511368Y2331930D2*
X3561608D1*
X3511368Y2365424D2*
X3544862Y2331930D1*
X3532868Y2343869D2*
X3561608Y2365424D1*
X3564074Y2055490D2*
Y2019620D1*
X3566450Y2012435D1*
X3571259Y2007682D1*
X3578444Y2005250D1*
X3583197D1*
X3590382Y2007682D1*
X3595191Y2012435D1*
X3597567Y2019620D1*
Y2055490D1*
X3641691Y2048305D2*
X3639315Y2053058D1*
X3632130Y2055435D1*
X3627376D1*
X3620191Y2053058D1*
X3615383Y2045873D1*
X3613006Y2033935D1*
Y2021997D1*
X3615383Y2012435D1*
X3620191Y2007627D1*
X3627376Y2005250D1*
X3629753D1*
X3636883Y2007627D1*
X3641691Y2012435D1*
X3644068Y2019620D1*
Y2021997D1*
X3641691Y2029182D1*
X3636883Y2033935D1*
X3629753Y2036312D1*
X3627376D1*
X3620191Y2033935D1*
X3615383Y2029182D1*
X3613006Y2021997D1*
X3602598Y2269282D2*
Y2290781D1*
X3600167Y2297966D1*
X3597790Y2300398D1*
X3593037Y2302775D1*
X3588228D1*
X3583475Y2300398D1*
X3581043Y2297966D1*
X3578667Y2290781D1*
Y2269282D1*
X3628907D1*
X3602598Y2286028D2*
X3628907Y2302775D1*
X3590660Y2320646D2*
X3588284D1*
X3583475Y2323022D1*
X3581099Y2325399D1*
X3578722Y2330208D1*
Y2339769D1*
X3581099Y2344522D1*
X3583475Y2346899D1*
X3588284Y2349331D1*
X3593037D1*
X3597845Y2346899D1*
X3604975Y2342146D1*
X3628907Y2318214D1*
Y2351707D1*
X3578722Y2371955D2*
Y2398208D1*
X3597845Y2383893D1*
Y2391078D1*
X3600222Y2395831D1*
X3602598Y2398208D1*
X3609783Y2400640D1*
X3614537D1*
X3621722Y2398208D1*
X3626530Y2393455D1*
X3628907Y2386270D1*
Y2379085D1*
X3626530Y2371955D1*
X3624098Y2369578D1*
X3619345Y2367147D1*
X3737520Y2304498D2*
X3735089Y2309306D1*
X3727959Y2316491D1*
X3778144D1*
X3727904Y2331930D2*
X3778144D1*
X3727904Y2365424D2*
X3761397Y2331930D1*
X3749403Y2343869D2*
X3778144Y2365424D1*
X4419528Y2455101D2*
Y2476601D1*
X4417096Y2483786D1*
X4414719Y2486218D1*
X4409966Y2488594D1*
X4405158D1*
X4400404Y2486218D1*
X4397972Y2483786D1*
X4395596Y2476601D1*
Y2455101D1*
X4445836D1*
X4419528Y2471848D2*
X4445836Y2488594D1*
X4407589Y2506465D2*
X4405213D1*
X4400404Y2508842D1*
X4398028Y2511219D1*
X4395651Y2516027D1*
Y2525589D1*
X4398028Y2530342D1*
X4400404Y2532718D1*
X4405213Y2535150D1*
X4409966D1*
X4414774Y2532718D1*
X4421904Y2527965D1*
X4445836Y2504034D1*
Y2537527D1*
Y2576898D2*
X4395651D1*
X4429089Y2552966D1*
Y2588836D1*
X4554450Y2467039D2*
X4552018Y2471848D1*
X4544888Y2479033D1*
X4595073D1*
X4544888Y2508842D2*
X4547265Y2501657D1*
X4554450Y2496849D1*
X4566388Y2494472D1*
X4573573D1*
X4585511Y2496849D1*
X4592696Y2501657D1*
X4595073Y2508842D1*
Y2513595D1*
X4592696Y2520780D1*
X4585511Y2525533D1*
X4573573Y2527965D1*
X4566388D1*
X4554450Y2525533D1*
X4547265Y2520780D1*
X4544888Y2513595D1*
Y2508842D1*
X4554450Y2525533D2*
X4585511Y2496849D1*
X4544833Y2543405D2*
X4595073D1*
X4544833Y2576898D2*
X4578326Y2543405D1*
X4566333Y2555343D2*
X4595073Y2576898D1*
X1094677Y1564483D2*
X1063560D1*
Y1514243D1*
Y1540551D2*
X1082683D1*
X1110116Y1554866D2*
X1114924Y1557298D1*
X1122109Y1564428D1*
Y1514243D1*
X5014636Y2522751D2*
Y2484504D1*
X5012259Y2477319D1*
X5009828Y2474942D1*
X5005074Y2472511D1*
X5000266D1*
X4995513Y2474942D1*
X4993136Y2477319D1*
X4990704Y2484504D1*
Y2489257D1*
X5032507Y2510757D2*
Y2513134D1*
X5034884Y2517942D1*
X5037260Y2520319D1*
X5042069Y2522695D1*
X5051630D1*
X5056384Y2520319D1*
X5058760Y2517942D1*
X5061192Y2513134D1*
Y2508381D1*
X5058760Y2503572D1*
X5054007Y2496442D1*
X5030075Y2472511D1*
X5063569D1*
X2114079Y1492017D2*
D76*
Y1411633D1*
X2060489Y1492017D1*
Y1411633D1*
X2157883Y1465222D2*
X2150278Y1461420D1*
X2142584Y1453726D1*
X2138782Y1442230D1*
Y1434625D1*
X2142584Y1423129D1*
X2150278Y1415524D1*
X2157883Y1411633D1*
X2169379D1*
X2177072Y1415524D1*
X2184677Y1423129D1*
X2188568Y1434625D1*
Y1442230D1*
X2184677Y1453726D1*
X2177072Y1461420D1*
X2169379Y1465222D1*
X2157883D1*
X2213271D2*
Y1411633D1*
Y1442230D2*
X2217162Y1453726D1*
X2224767Y1461420D1*
X2232461Y1465222D1*
X2243957D1*
X2268660D2*
X2283958Y1411633D1*
X2299257Y1465222D1*
X2314555Y1411633D1*
X2329854Y1465222D1*
X2354557Y1492017D2*
X2358359Y1488214D1*
X2362250Y1492017D1*
X2358359Y1495908D1*
X2354557Y1492017D1*
X2358359Y1465222D2*
Y1411633D1*
X2432937Y1453726D2*
X2425244Y1461420D1*
X2417550Y1465222D1*
X2406143D1*
X2398449Y1461420D1*
X2390844Y1453726D1*
X2386953Y1442230D1*
Y1434625D1*
X2390844Y1423129D1*
X2398449Y1415524D1*
X2406143Y1411633D1*
X2417550D1*
X2425244Y1415524D1*
X2432937Y1423129D1*
X2457640Y1492017D2*
Y1411633D1*
Y1449924D2*
X2469136Y1461420D1*
X2476830Y1465222D1*
X2488326D1*
X2495931Y1461420D1*
X2499733Y1449924D1*
Y1411633D1*
X2602198Y1492017D2*
Y1411633D1*
X2648094D1*
X2672796Y1492017D2*
X2676599Y1488214D1*
X2680490Y1492017D1*
X2676599Y1495908D1*
X2672796Y1492017D1*
X2676599Y1465222D2*
Y1411633D1*
X2751089Y1461420D2*
Y1400137D1*
X2747286Y1388729D1*
X2743483Y1384838D1*
X2735790Y1381036D1*
X2724294D1*
X2716689Y1384838D1*
X2751089Y1449924D2*
X2743483Y1457529D1*
X2735790Y1461420D1*
X2724294D1*
X2716689Y1457529D1*
X2708995Y1449924D1*
X2705193Y1438428D1*
Y1430734D1*
X2708995Y1419326D1*
X2716689Y1411633D1*
X2724294Y1407830D1*
X2735790D1*
X2743483Y1411633D1*
X2751089Y1419326D1*
X2775791Y1492017D2*
Y1411633D1*
Y1449924D2*
X2787287Y1461420D1*
X2794981Y1465222D1*
X2806477D1*
X2814082Y1461420D1*
X2817885Y1449924D1*
Y1411633D1*
X2854083Y1492017D2*
Y1426932D1*
X2857886Y1415524D1*
X2865580Y1411633D1*
X2873185D1*
X2842587Y1465222D2*
X2869382D1*
X2897887Y1492017D2*
X2901690Y1488214D1*
X2905581Y1492017D1*
X2901690Y1495908D1*
X2897887Y1492017D1*
X2901690Y1465222D2*
Y1411633D1*
X2930284Y1465222D2*
Y1411633D1*
Y1449924D2*
X2941780Y1461420D1*
X2949473Y1465222D1*
X2960881D1*
X2968574Y1461420D1*
X2972377Y1449924D1*
Y1411633D1*
X3042976Y1461420D2*
Y1400137D1*
X3039173Y1388729D1*
X3035371Y1384838D1*
X3027677Y1381036D1*
X3016181D1*
X3008576Y1384838D1*
X3042976Y1449924D2*
X3035371Y1457529D1*
X3027677Y1461420D1*
X3016181D1*
X3008576Y1457529D1*
X3000882Y1449924D1*
X2997080Y1438428D1*
Y1430734D1*
X3000882Y1419326D1*
X3008576Y1411633D1*
X3016181Y1407830D1*
X3027677D1*
X3035371Y1411633D1*
X3042976Y1419326D1*
X3202832Y1472916D2*
X3199029Y1480521D1*
X3191336Y1488214D1*
X3183731Y1492017D1*
X3168432D1*
X3160739Y1488214D1*
X3153133Y1480521D1*
X3149243Y1472916D1*
X3145440Y1461420D1*
Y1442230D1*
X3149243Y1430823D1*
X3153133Y1423129D1*
X3160739Y1415524D1*
X3168432Y1411633D1*
X3183731D1*
X3191336Y1415524D1*
X3199029Y1423129D1*
X3202832Y1430823D1*
X3246636Y1465222D2*
X3239031Y1461420D1*
X3231337Y1453726D1*
X3227535Y1442230D1*
Y1434625D1*
X3231337Y1423129D1*
X3239031Y1415524D1*
X3246636Y1411633D1*
X3258132D1*
X3265825Y1415524D1*
X3273430Y1423129D1*
X3277321Y1434625D1*
Y1442230D1*
X3273430Y1453726D1*
X3265825Y1461420D1*
X3258132Y1465222D1*
X3246636D1*
X3302024D2*
Y1411633D1*
Y1449924D2*
X3313520Y1461420D1*
X3321214Y1465222D1*
X3332621D1*
X3340315Y1461420D1*
X3344118Y1449924D1*
Y1411633D1*
X3380316Y1492017D2*
Y1426932D1*
X3384119Y1415524D1*
X3391812Y1411633D1*
X3399418D1*
X3368820Y1465222D2*
X3395615D1*
X3424120D2*
Y1411633D1*
Y1442230D2*
X3428011Y1453726D1*
X3435616Y1461420D1*
X3443310Y1465222D1*
X3454806D1*
X3498610D2*
X3491005Y1461420D1*
X3483311Y1453726D1*
X3479509Y1442230D1*
Y1434625D1*
X3483311Y1423129D1*
X3491005Y1415524D1*
X3498610Y1411633D1*
X3510106D1*
X3517799Y1415524D1*
X3525405Y1423129D1*
X3529296Y1434625D1*
Y1442230D1*
X3525405Y1453726D1*
X3517799Y1461420D1*
X3510106Y1465222D1*
X3498610D1*
X3553998Y1492017D2*
Y1411633D1*
X3656463Y1449924D2*
X3690951D1*
X3702358Y1453726D1*
X3706249Y1457617D1*
X3710052Y1465222D1*
Y1476718D1*
X3706249Y1484323D1*
X3702358Y1488214D1*
X3690951Y1492017D1*
X3656463D1*
Y1411633D1*
X3780651Y1465222D2*
Y1411633D1*
Y1453726D2*
X3773046Y1461420D1*
X3765352Y1465222D1*
X3753944D1*
X3746251Y1461420D1*
X3738646Y1453726D1*
X3734755Y1442230D1*
Y1434625D1*
X3738646Y1423129D1*
X3746251Y1415524D1*
X3753944Y1411633D1*
X3765352D1*
X3773046Y1415524D1*
X3780651Y1423129D1*
X3805353Y1465222D2*
Y1411633D1*
Y1449924D2*
X3816849Y1461420D1*
X3824543Y1465222D1*
X3835951D1*
X3843644Y1461420D1*
X3847447Y1449924D1*
Y1411633D1*
X3872149Y1442230D2*
X3918045D1*
Y1449924D1*
X3914243Y1457617D1*
X3910440Y1461420D1*
X3902747Y1465222D1*
X3891251D1*
X3883646Y1461420D1*
X3875952Y1453726D1*
X3872149Y1442230D1*
Y1434625D1*
X3875952Y1423129D1*
X3883646Y1415524D1*
X3891251Y1411633D1*
X3902747D1*
X3910440Y1415524D1*
X3918045Y1423129D1*
X3942748Y1492017D2*
Y1411633D1*
X4045212Y1492017D2*
X4075810Y1411633D1*
X4106407Y1492017D1*
X4177005Y1491929D2*
X4138803D1*
X4135001Y1457529D1*
X4138803Y1461331D1*
X4150299Y1465222D1*
X4161707D1*
X4173203Y1461331D1*
X4180896Y1453726D1*
X4184699Y1442230D1*
Y1434625D1*
X4180896Y1423129D1*
X4173203Y1415435D1*
X4161707Y1411633D1*
X4150299D1*
X4138803Y1415435D1*
X4135001Y1419326D1*
X4131110Y1426932D1*
X2052021Y1346613D2*
D77*
Y1349465D1*
X2054873Y1355235D1*
X2057725Y1358087D1*
X2063495Y1360939D1*
X2074969D1*
X2080673Y1358087D1*
X2083525Y1355235D1*
X2086443Y1349465D1*
Y1343761D1*
X2083525Y1337991D1*
X2077821Y1329435D1*
X2049103Y1300717D1*
X2089295D1*
X2125066Y1360939D2*
X2116444Y1358087D1*
X2110674Y1349465D1*
X2107822Y1335139D1*
Y1326517D1*
X2110674Y1312191D1*
X2116444Y1303569D1*
X2125066Y1300717D1*
X2130770D1*
X2139392Y1303569D1*
X2145096Y1312191D1*
X2148014Y1326517D1*
Y1335139D1*
X2145096Y1349465D1*
X2139392Y1358087D1*
X2130770Y1360939D1*
X2125066D1*
X2145096Y1349465D2*
X2110674Y1312191D1*
X2169459Y1346613D2*
Y1349465D1*
X2172311Y1355235D1*
X2175163Y1358087D1*
X2180933Y1360939D1*
X2192407D1*
X2198111Y1358087D1*
X2200963Y1355235D1*
X2203881Y1349465D1*
Y1343761D1*
X2200963Y1337991D1*
X2195259Y1329435D1*
X2166541Y1300717D1*
X2206733D1*
X2259682Y1360939D2*
X2231030D1*
X2228178Y1335139D1*
X2231030Y1337991D1*
X2239652Y1340909D1*
X2248208D1*
X2256830Y1337991D1*
X2262600Y1332287D1*
X2265452Y1323665D1*
Y1317961D1*
X2262600Y1309339D1*
X2256830Y1303569D1*
X2248208Y1300717D1*
X2239652D1*
X2231030Y1303569D1*
X2228178Y1306487D1*
X2225260Y1312191D1*
X2283979Y1330828D2*
X2317141D1*
X2335668Y1349465D2*
X2341438Y1352383D1*
X2350060Y1360939D1*
Y1300717D1*
X2368587Y1349465D2*
X2374358Y1352383D1*
X2382980Y1360939D1*
Y1300717D1*
X2401507Y1330828D2*
X2434668D1*
X2456114Y1346613D2*
Y1349465D1*
X2458966Y1355235D1*
X2461818Y1358087D1*
X2467588Y1360939D1*
X2479062D1*
X2484765Y1358087D1*
X2487617Y1355235D1*
X2490536Y1349465D1*
Y1343761D1*
X2487617Y1337991D1*
X2481914Y1329435D1*
X2453196Y1300717D1*
X2493388D1*
X2511915Y1349465D2*
X2517685Y1352383D1*
X2526307Y1360939D1*
Y1300717D1*
M02*
