G04 DipTrace 3.3.1.3*
G04 BottomMask.gbr*
%MOIN*%
G04 #@! TF.FileFunction,Soldermask,Bot*
G04 #@! TF.Part,Single*
%ADD37C,0.11811*%
%ADD44C,0.053031*%
%ADD48C,0.088031*%
%ADD52O,0.185197X0.086772*%
%ADD54O,0.086772X0.204882*%
%ADD56O,0.086772X0.185197*%
%ADD58C,0.074961*%
%ADD60R,0.074961X0.074961*%
%FSLAX26Y26*%
G04*
G70*
G90*
G75*
G01*
G04 BotMask*
%LPD*%
D60*
X4999676Y2370394D3*
D58*
Y2270394D3*
Y2170394D3*
Y2070394D3*
Y1970394D3*
Y1870394D3*
D56*
X669606Y1338898D3*
D54*
X905827D3*
D52*
X787717Y1153858D3*
D48*
X1010650Y3493130D3*
X1160650D3*
X1498150D3*
X1648150D3*
X1987756Y3493150D3*
X2137756D3*
X2473150D3*
X2623150D3*
X2960650D3*
X3110650D3*
X3448150D3*
X3598150D3*
X3935650D3*
X4085650D3*
X4423150D3*
X4573150D3*
X1160630Y681496D3*
X1010630D3*
X1648150D3*
X1498150D3*
X2137756D3*
X1987756D3*
X2623150D3*
X2473150D3*
X3110630D3*
X2960630D3*
X3598150D3*
X3448150D3*
X4085630D3*
X3935630D3*
X4573150D3*
X4423150D3*
D44*
X1732598Y2638110D3*
X1634173D3*
X1535748D3*
X1437323D3*
X1338898D3*
X1240472D3*
X1142047D3*
X1043622D3*
X945197D3*
X846772D3*
X1732598Y1638110D3*
X1634173D3*
X1535748D3*
X1437323D3*
X1338898D3*
X1240472D3*
X1142047D3*
X1043622D3*
X945197D3*
X846772D3*
D37*
X551496Y3661732D3*
X5039685D3*
X551496Y512126D3*
X5039685D3*
M02*
