G04 DipTrace 3.3.1.3*
G04 Bottom.gbr*
%MOIN*%
G04 #@! TF.FileFunction,Copper,L2,Bot*
G04 #@! TF.Part,Single*
G04 #@! TA.AperFunction,CopperBalancing*
%ADD14C,0.012992*%
G04 #@! TA.AperFunction,Conductor*
%ADD15C,0.03937*%
%ADD16C,0.025591*%
G04 #@! TA.AperFunction,CopperBalancing*
%ADD17C,0.025*%
G04 #@! TA.AperFunction,ComponentPad*
%ADD26R,0.066929X0.066929*%
%ADD27C,0.066929*%
%ADD28O,0.07874X0.177165*%
%ADD29O,0.07874X0.19685*%
%ADD30O,0.177165X0.07874*%
%ADD32C,0.08*%
%ADD34C,0.045*%
G04 #@! TA.AperFunction,ViaPad*
%ADD35C,0.04*%
%FSLAX26Y26*%
G04*
G70*
G90*
G75*
G01*
G04 Bottom*
%LPD*%
X945197Y1638110D2*
D14*
Y1565276D1*
X1073150Y1437323D1*
X3405827D1*
X3888110Y955039D1*
X4813307D1*
X4901890Y866457D1*
X905827Y1338898D2*
D15*
Y1447165D1*
X866457Y1486535D1*
X768031D1*
X689291Y1565276D1*
Y2716850D1*
X758189Y2785748D1*
X1712913D1*
X1732598Y2766063D1*
Y2638110D1*
X2106614D1*
X2264094Y2795591D1*
X3701102D1*
X4126299Y2370394D1*
X4142047D1*
X4787717D1*
X4999676D1*
X4527874Y2382205D2*
D14*
X4142047D1*
Y2370394D1*
X4787717Y2405827D2*
Y2370394D1*
X4764094Y2047559D2*
X4901890Y2185354D1*
X1732598Y2638110D2*
D16*
D3*
D14*
Y2874331D1*
X1457008Y3149921D1*
X551496D1*
X4882205Y1260157D2*
X5079055D1*
X4901890Y1496378D2*
X5079055D1*
X1634173Y2638110D2*
Y2214882D1*
X2047559Y1801496D1*
X4980630D1*
X5079055Y1703071D1*
Y1496378D1*
X5000315Y1063307D2*
X4901890Y1161732D1*
X4764094D1*
X4547559Y1378268D1*
Y1426592D1*
X4999676Y1970394D2*
X4588504D1*
X4547559Y1929449D1*
Y1870394D1*
X4823150Y2027874D2*
X4965669Y2170394D1*
X4999676D1*
X4645984Y1437323D2*
X4685354Y1397953D1*
X5098740D1*
X4665669Y2027874D2*
X4901890Y2264094D1*
X4993377D1*
X4999676Y2270394D1*
X4385748Y2067244D2*
X4114488D1*
X4232598Y2460945D2*
X4226912Y2466631D1*
X4221227Y2460945D1*
X4173543D1*
X3681417Y2953071D1*
X4185748Y2547165D2*
X3740472Y2992441D1*
X4135748Y2656220D2*
X3838898Y2953071D1*
X4212913Y2894016D2*
Y3051496D1*
X1358583Y1260157D2*
X1023937Y925512D1*
X4134173Y2854646D2*
Y3090866D1*
X4999676Y1870394D2*
Y1880875D1*
X5138110Y1742441D1*
Y886142D1*
X4933465Y681496D1*
X4573150D1*
X945197Y2638110D2*
Y2579055D1*
X1899921Y1624331D1*
X4754252D1*
X1043622Y2638110D2*
Y2569213D1*
X1860551Y1752283D1*
X4960945D1*
X846772Y1638110D2*
Y1565276D1*
X866457Y1545591D1*
X905827D1*
X1073150Y1378268D1*
X3346772D1*
X3838898Y886142D1*
X4744409D1*
D35*
X4901890Y866457D3*
X4527874Y2382205D3*
X4787717Y2405827D3*
X4764094Y2047559D3*
X4901890Y2185354D3*
X551496Y3149921D3*
X4882205Y1260157D3*
X5079055D3*
X4901890Y1496378D3*
X5079055D3*
X5000315Y1063307D3*
X4547559Y1426592D3*
Y1870394D3*
X4823150Y2027874D3*
X4645984Y1437323D3*
X5098740Y1397953D3*
X4665669Y2027874D3*
X4385748Y2067244D3*
X4114488D3*
X4232598Y2460945D3*
X3681417Y2953071D3*
X4185748Y2547165D3*
X3740472Y2992441D3*
X4135748Y2656220D3*
X3838898Y2953071D3*
X4212913Y2894016D3*
Y3051496D3*
X1358583Y1260157D3*
X1023937Y925512D3*
X4134173Y2854646D3*
Y3090866D3*
X4754252Y1624331D3*
X4960945Y1752283D3*
X4744409Y886142D3*
X427820Y3719147D2*
D17*
X477902D1*
X625076D2*
X4966117D1*
X5113254D2*
X5154007D1*
X427892Y3694278D2*
X463621D1*
X639358D2*
X4951799D1*
X5127572D2*
X5154007D1*
X427928Y3669409D2*
X457951D1*
X645027D2*
X4946130D1*
X5133242D2*
X5154007D1*
X427964Y3644541D2*
X459243D1*
X643735D2*
X4947457D1*
X5131914D2*
X5154007D1*
X428036Y3619672D2*
X467891D1*
X635123D2*
X4956069D1*
X5123302D2*
X5154007D1*
X428071Y3594803D2*
X486802D1*
X616212D2*
X4974980D1*
X5104391D2*
X5154007D1*
X428107Y3569934D2*
X5154007D1*
X428179Y3545066D2*
X966645D1*
X1054681D2*
X1116641D1*
X1204677D2*
X1454132D1*
X1542168D2*
X1604128D1*
X1692164D2*
X1943700D1*
X2031807D2*
X2093696D1*
X2181803D2*
X2429105D1*
X2517177D2*
X2579101D1*
X2667209D2*
X2916592D1*
X3004700D2*
X3066588D1*
X3154695D2*
X3404114D1*
X3492186D2*
X3554110D1*
X3642182D2*
X3891601D1*
X3979709D2*
X4041597D1*
X4129705D2*
X4379088D1*
X4467195D2*
X4529119D1*
X4617191D2*
X5154007D1*
X428215Y3520197D2*
X947411D1*
X1073879D2*
X1097407D1*
X1223875D2*
X1434934D1*
X1561366D2*
X1584930D1*
X1711398D2*
X1924502D1*
X2051006D2*
X2074498D1*
X2201001D2*
X2409907D1*
X2536375D2*
X2559903D1*
X2686407D2*
X2897394D1*
X3023898D2*
X3047390D1*
X3173893D2*
X3384916D1*
X3511384D2*
X3534912D1*
X3661380D2*
X3872403D1*
X3998907D2*
X4022399D1*
X4148903D2*
X4359890D1*
X4486393D2*
X4509921D1*
X4636389D2*
X5154007D1*
X428251Y3495328D2*
X941706D1*
X1079621D2*
X1091701D1*
X1229616D2*
X1429192D1*
X1567107D2*
X1579219D1*
X1717103D2*
X1918796D1*
X2056711D2*
X2068792D1*
X2206707D2*
X2404201D1*
X2542116D2*
X2554197D1*
X2692112D2*
X2891688D1*
X3029603D2*
X3041684D1*
X3179599D2*
X3379211D1*
X3517090D2*
X3529207D1*
X3667122D2*
X3866697D1*
X4004612D2*
X4016693D1*
X4154608D2*
X4354184D1*
X4492099D2*
X4504180D1*
X4642095D2*
X5154007D1*
X428287Y3470459D2*
X945653D1*
X1075673D2*
X1095649D1*
X1225669D2*
X1433139D1*
X1563160D2*
X1583135D1*
X1713156D2*
X1922743D1*
X2052764D2*
X2072739D1*
X2202760D2*
X2408149D1*
X2538133D2*
X2558145D1*
X2688165D2*
X2895635D1*
X3025656D2*
X3045631D1*
X3175652D2*
X3383158D1*
X3513143D2*
X3533154D1*
X3663138D2*
X3870645D1*
X4000665D2*
X4020641D1*
X4150661D2*
X4358131D1*
X4488152D2*
X4508163D1*
X4638148D2*
X5154007D1*
X428358Y3445591D2*
X961657D1*
X1059633D2*
X1111653D1*
X1209629D2*
X1449144D1*
X1547156D2*
X1599176D1*
X1697152D2*
X1938784D1*
X2036724D2*
X2088779D1*
X2186720D2*
X2424189D1*
X2522129D2*
X2574185D1*
X2672125D2*
X2911676D1*
X3009616D2*
X3061672D1*
X3159612D2*
X3399198D1*
X3497102D2*
X3549194D1*
X3647134D2*
X3886685D1*
X3984625D2*
X4036681D1*
X4134621D2*
X4374172D1*
X4472112D2*
X4524167D1*
X4622107D2*
X5154007D1*
X428394Y3420722D2*
X5154007D1*
X428430Y3395853D2*
X5154007D1*
X428502Y3370984D2*
X5154007D1*
X428538Y3346115D2*
X5154007D1*
X428574Y3321247D2*
X5154007D1*
X428610Y3296378D2*
X5154007D1*
X428681Y3271509D2*
X5154007D1*
X428717Y3246640D2*
X5154007D1*
X428753Y3221772D2*
X5154007D1*
X428825Y3196903D2*
X5154007D1*
X428861Y3172034D2*
X508117D1*
X1484035D2*
X5154007D1*
X428897Y3147165D2*
X502591D1*
X1508903D2*
X5154007D1*
X428969Y3122297D2*
X511598D1*
X1533771D2*
X5154007D1*
X429004Y3097428D2*
X1460340D1*
X1558639D2*
X4203219D1*
X4222609D2*
X5154007D1*
X429040Y3072559D2*
X1485207D1*
X1583506D2*
X4168950D1*
X4256878D2*
X5154007D1*
X429076Y3047690D2*
X1510075D1*
X1608374D2*
X4164070D1*
X4261758D2*
X5154007D1*
X429148Y3022822D2*
X1534943D1*
X1633278D2*
X3702778D1*
X3778183D2*
X4173830D1*
X4251998D2*
X5154007D1*
X429184Y2997953D2*
X1559811D1*
X1658145D2*
X3666787D1*
X3789128D2*
X3824282D1*
X3853540D2*
X4177419D1*
X4248410D2*
X5154007D1*
X429220Y2973084D2*
X1584678D1*
X1683013D2*
X3636967D1*
X3883360D2*
X4177419D1*
X4248410D2*
X5154007D1*
X429291Y2948215D2*
X1609546D1*
X1707881D2*
X3632697D1*
X3892905D2*
X4177419D1*
X4248410D2*
X5154007D1*
X429327Y2923346D2*
X1634414D1*
X1732749D2*
X3643175D1*
X3917773D2*
X4174332D1*
X4251496D2*
X5154007D1*
X429363Y2898478D2*
X1659282D1*
X1757616D2*
X3686846D1*
X3942640D2*
X4164141D1*
X4261687D2*
X5154007D1*
X429399Y2873609D2*
X1684185D1*
X1768095D2*
X3711714D1*
X3967508D2*
X4168627D1*
X4257201D2*
X5154007D1*
X429471Y2848740D2*
X1697104D1*
X1768095D2*
X3736581D1*
X3992376D2*
X4199846D1*
X4225982D2*
X5154007D1*
X429507Y2823871D2*
X729630D1*
X1768095D2*
X2224565D1*
X3740612D2*
X3761449D1*
X4017244D2*
X5154007D1*
X429543Y2799003D2*
X703650D1*
X1768095D2*
X2199697D1*
X3765480D2*
X3786317D1*
X4042111D2*
X5154007D1*
X429614Y2774134D2*
X678782D1*
X1780582D2*
X2174830D1*
X3790348D2*
X3811185D1*
X4066979D2*
X5154007D1*
X429650Y2749265D2*
X653914D1*
X1781264D2*
X2149962D1*
X2285580D2*
X3679633D1*
X3815216D2*
X3836088D1*
X4091847D2*
X5154007D1*
X429686Y2724396D2*
X641247D1*
X764629D2*
X1683934D1*
X1781264D2*
X2125094D1*
X2260713D2*
X3704501D1*
X3840083D2*
X3860956D1*
X4116715D2*
X5154007D1*
X429758Y2699528D2*
X640601D1*
X739761D2*
X1683934D1*
X1781264D2*
X2100227D1*
X2235845D2*
X3729369D1*
X3864987D2*
X3885824D1*
X4155147D2*
X5154007D1*
X429794Y2674659D2*
X640601D1*
X737967D2*
X811661D1*
X881899D2*
X910056D1*
X980329D2*
X1008486D1*
X1078759D2*
X1106916D1*
X1177190D2*
X1205347D1*
X1275584D2*
X1303777D1*
X1374014D2*
X1402207D1*
X1472445D2*
X1500638D1*
X1570875D2*
X1599032D1*
X1669305D2*
X1683934D1*
X2210977D2*
X3754236D1*
X3889855D2*
X3910691D1*
X4180911D2*
X5154007D1*
X429830Y2649790D2*
X640601D1*
X737967D2*
X796698D1*
X2186109D2*
X3779104D1*
X3914723D2*
X3935559D1*
X4184285D2*
X5154007D1*
X429866Y2624921D2*
X640601D1*
X737967D2*
X797092D1*
X2161242D2*
X3803972D1*
X3939590D2*
X3960427D1*
X4172622D2*
X5154007D1*
X429937Y2600052D2*
X640601D1*
X737967D2*
X813420D1*
X880140D2*
X909697D1*
X980688D2*
X1008127D1*
X1079118D2*
X1108711D1*
X1175395D2*
X1207105D1*
X1273826D2*
X1305535D1*
X1372256D2*
X1403966D1*
X1470686D2*
X1502396D1*
X1569117D2*
X1598673D1*
X1669664D2*
X1699257D1*
X2135262D2*
X3828840D1*
X3964458D2*
X3985295D1*
X4182024D2*
X5154007D1*
X429973Y2575184D2*
X640601D1*
X737967D2*
X909948D1*
X998235D2*
X1008136D1*
X1086797D2*
X1598673D1*
X1669664D2*
X3853707D1*
X3989326D2*
X4010162D1*
X4225336D2*
X5154007D1*
X430009Y2550315D2*
X640601D1*
X737967D2*
X924768D1*
X1111665D2*
X1598673D1*
X1669664D2*
X3878575D1*
X4014193D2*
X4035030D1*
X4234630D2*
X5154007D1*
X430081Y2525446D2*
X640601D1*
X737967D2*
X949636D1*
X1136533D2*
X1598673D1*
X1669664D2*
X3903443D1*
X4039061D2*
X4059898D1*
X4229355D2*
X5154007D1*
X430117Y2500577D2*
X640601D1*
X737967D2*
X974540D1*
X1161401D2*
X1598673D1*
X1669664D2*
X3928311D1*
X4063929D2*
X4084766D1*
X4183064D2*
X4205803D1*
X4259390D2*
X5154007D1*
X430153Y2475709D2*
X640601D1*
X737967D2*
X999407D1*
X1186268D2*
X1598673D1*
X1669664D2*
X3953178D1*
X4088797D2*
X4109633D1*
X4279198D2*
X5154007D1*
X430224Y2450840D2*
X640601D1*
X737967D2*
X1024275D1*
X1211136D2*
X1598673D1*
X1669664D2*
X3978046D1*
X4113664D2*
X4134501D1*
X4280490D2*
X4773598D1*
X4801851D2*
X5154007D1*
X430260Y2425971D2*
X640601D1*
X737967D2*
X1049143D1*
X1236004D2*
X1598673D1*
X1669664D2*
X4002914D1*
X4138532D2*
X4199451D1*
X4265742D2*
X4509706D1*
X4546069D2*
X4743312D1*
X4832102D2*
X4937230D1*
X5062119D2*
X5154007D1*
X430296Y2401102D2*
X640601D1*
X737967D2*
X1074011D1*
X1260872D2*
X1598673D1*
X1669664D2*
X4027781D1*
X5062119D2*
X5154007D1*
X430332Y2376234D2*
X640601D1*
X737967D2*
X1098878D1*
X1285739D2*
X1598673D1*
X1669664D2*
X4052649D1*
X5062119D2*
X5154007D1*
X430404Y2351365D2*
X640601D1*
X737967D2*
X1123746D1*
X1310607D2*
X1598673D1*
X1669664D2*
X4077517D1*
X5062119D2*
X5154007D1*
X430440Y2326496D2*
X640601D1*
X737967D2*
X1148614D1*
X1335475D2*
X1598673D1*
X1669664D2*
X4109454D1*
X5062119D2*
X5154007D1*
X430476Y2301627D2*
X640601D1*
X737967D2*
X1173482D1*
X1360343D2*
X1598673D1*
X1669664D2*
X4945986D1*
X5053364D2*
X5154007D1*
X430547Y2276759D2*
X640601D1*
X737967D2*
X1198349D1*
X1385246D2*
X1598673D1*
X1669664D2*
X4865390D1*
X5061796D2*
X5154007D1*
X430583Y2251890D2*
X640601D1*
X737967D2*
X1223217D1*
X1410114D2*
X1598673D1*
X1669664D2*
X4840522D1*
X5059213D2*
X5154007D1*
X430619Y2227021D2*
X640601D1*
X737967D2*
X1248085D1*
X1434982D2*
X1598673D1*
X1671171D2*
X4815655D1*
X4925006D2*
X4955782D1*
X5043567D2*
X5154007D1*
X430655Y2202152D2*
X640601D1*
X737967D2*
X1272952D1*
X1459849D2*
X1601257D1*
X1696039D2*
X4790787D1*
X5053041D2*
X5154007D1*
X430727Y2177283D2*
X640601D1*
X737967D2*
X1297820D1*
X1484717D2*
X1622608D1*
X1720907D2*
X4765919D1*
X5061725D2*
X5154007D1*
X430763Y2152415D2*
X640601D1*
X737967D2*
X1322688D1*
X1509585D2*
X1647476D1*
X1745811D2*
X4741051D1*
X5059356D2*
X5154007D1*
X430799Y2127546D2*
X640601D1*
X737967D2*
X1347556D1*
X1534453D2*
X1672343D1*
X1770678D2*
X4716184D1*
X5044105D2*
X5154007D1*
X430870Y2102677D2*
X640601D1*
X737967D2*
X1372423D1*
X1559320D2*
X1697211D1*
X1795546D2*
X4081895D1*
X4147073D2*
X4353143D1*
X4418357D2*
X4691316D1*
X5052682D2*
X5154007D1*
X430906Y2077808D2*
X640601D1*
X737967D2*
X1397291D1*
X1584188D2*
X1722079D1*
X1820414D2*
X4066716D1*
X4433536D2*
X4666448D1*
X4922243D2*
X4937697D1*
X5061689D2*
X5154007D1*
X430942Y2052940D2*
X640601D1*
X737967D2*
X1422159D1*
X1609056D2*
X1746947D1*
X1845281D2*
X4067756D1*
X4432495D2*
X4623997D1*
X4897375D2*
X4939814D1*
X5059536D2*
X5154007D1*
X431014Y2028071D2*
X640601D1*
X737967D2*
X1447027D1*
X1633924D2*
X1771814D1*
X1870149D2*
X4086954D1*
X4142013D2*
X4358203D1*
X4413297D2*
X4616677D1*
X4872507D2*
X4954706D1*
X5044644D2*
X5154007D1*
X431050Y2003202D2*
X640601D1*
X737967D2*
X1471894D1*
X1658791D2*
X1796718D1*
X1895017D2*
X4582551D1*
X5052359D2*
X5154007D1*
X431086Y1978333D2*
X640601D1*
X737967D2*
X1496762D1*
X1683659D2*
X1821586D1*
X1919885D2*
X4547277D1*
X5061617D2*
X5154007D1*
X431122Y1953465D2*
X640601D1*
X737967D2*
X1521630D1*
X1708527D2*
X1846454D1*
X1944752D2*
X4522409D1*
X5059679D2*
X5154007D1*
X431193Y1928596D2*
X640601D1*
X737967D2*
X1546498D1*
X1733395D2*
X1871321D1*
X1969620D2*
X4512074D1*
X4595876D2*
X4954204D1*
X5045146D2*
X5154007D1*
X431229Y1903727D2*
X640601D1*
X737967D2*
X1571365D1*
X1758262D2*
X1896189D1*
X1994488D2*
X4512074D1*
X4583030D2*
X4947350D1*
X5052000D2*
X5154007D1*
X431265Y1878858D2*
X640601D1*
X737967D2*
X1596233D1*
X1783130D2*
X1921057D1*
X2019356D2*
X4499336D1*
X4595768D2*
X4937804D1*
X5061545D2*
X5154007D1*
X431337Y1853990D2*
X640601D1*
X737967D2*
X1621101D1*
X1807998D2*
X1945925D1*
X2044223D2*
X4501560D1*
X4593544D2*
X4939491D1*
X5059859D2*
X5154007D1*
X431373Y1829121D2*
X640601D1*
X737967D2*
X1645969D1*
X1832866D2*
X1970792D1*
X5045649D2*
X5154007D1*
X431409Y1804252D2*
X640601D1*
X737967D2*
X1670836D1*
X1857733D2*
X1995660D1*
X5027025D2*
X5154007D1*
X431445Y1779383D2*
X640601D1*
X737967D2*
X1695704D1*
X5051892D2*
X5154007D1*
X431516Y1754514D2*
X640601D1*
X737967D2*
X1720572D1*
X5076760D2*
X5154007D1*
X431552Y1729646D2*
X640601D1*
X737967D2*
X1745440D1*
X5101628D2*
X5154007D1*
X431588Y1704777D2*
X640601D1*
X737967D2*
X1770307D1*
X1868642D2*
X5028197D1*
X5114510D2*
X5154007D1*
X431660Y1679908D2*
X640601D1*
X737967D2*
X818730D1*
X874830D2*
X917125D1*
X973260D2*
X1015555D1*
X1071690D2*
X1113986D1*
X1170121D2*
X1212416D1*
X1268515D2*
X1310846D1*
X1366945D2*
X1409277D1*
X1465376D2*
X1507707D1*
X1563806D2*
X1606101D1*
X1662236D2*
X1704532D1*
X1760667D2*
X1795175D1*
X1893510D2*
X5043555D1*
X5114546D2*
X5154007D1*
X431696Y1655039D2*
X640601D1*
X737967D2*
X798312D1*
X1781085D2*
X1820043D1*
X4791660D2*
X5043555D1*
X5114546D2*
X5154007D1*
X431732Y1630171D2*
X640601D1*
X737967D2*
X795944D1*
X1783453D2*
X1844946D1*
X4802892D2*
X5043555D1*
X5114546D2*
X5154007D1*
X431803Y1605302D2*
X640601D1*
X737967D2*
X807893D1*
X885667D2*
X906324D1*
X984097D2*
X1004754D1*
X1082491D2*
X1103149D1*
X1180922D2*
X1201579D1*
X1279352D2*
X1300009D1*
X1377782D2*
X1398439D1*
X1476213D2*
X1496870D1*
X1574643D2*
X1595300D1*
X1673073D2*
X1693730D1*
X1771468D2*
X1869814D1*
X4799160D2*
X5043555D1*
X5114546D2*
X5154007D1*
X431839Y1580433D2*
X640601D1*
X741950D2*
X811267D1*
X882258D2*
X909697D1*
X980688D2*
X4736422D1*
X4772067D2*
X5043555D1*
X5114546D2*
X5154007D1*
X431875Y1555564D2*
X641642D1*
X766818D2*
X812738D1*
X1004048D2*
X5043555D1*
X5114546D2*
X5154007D1*
X431911Y1530696D2*
X656067D1*
X1028916D2*
X4868010D1*
X4935771D2*
X5043555D1*
X5114546D2*
X5154007D1*
X431983Y1505827D2*
X680935D1*
X1053784D2*
X4853871D1*
X5127070D2*
X5154007D1*
X432019Y1480958D2*
X705803D1*
X1078652D2*
X4627442D1*
X4664523D2*
X4855522D1*
X5125419D2*
X5154007D1*
X432055Y1456089D2*
X730671D1*
X3436207D2*
X4509132D1*
X4586008D2*
X4600960D1*
X4691005D2*
X4876191D1*
X4927590D2*
X5053352D1*
X5104750D2*
X5154007D1*
X432126Y1431220D2*
X617313D1*
X721891D2*
X846469D1*
X3461075D2*
X4498797D1*
X4701232D2*
X5063758D1*
X5133708D2*
X5154007D1*
X432162Y1406352D2*
X603820D1*
X735384D2*
X838000D1*
X973655D2*
X995927D1*
X3485942D2*
X4503211D1*
X4591929D2*
X4608818D1*
X432198Y1381483D2*
X601236D1*
X737967D2*
X837462D1*
X974193D2*
X1020794D1*
X3392715D2*
X3412511D1*
X3510810D2*
X4512074D1*
X4593508D2*
X4652669D1*
X5144725D2*
X5154007D1*
X432234Y1356614D2*
X601236D1*
X737967D2*
X837462D1*
X974193D2*
X1045662D1*
X3417583D2*
X3437379D1*
X3535678D2*
X4520184D1*
X4618376D2*
X5074954D1*
X5122512D2*
X5154007D1*
X432306Y1331745D2*
X601236D1*
X737967D2*
X837462D1*
X974193D2*
X3344152D1*
X3442451D2*
X3462247D1*
X3560546D2*
X4544944D1*
X4643243D2*
X5154007D1*
X432342Y1306877D2*
X601236D1*
X737967D2*
X837462D1*
X974193D2*
X3369020D1*
X3467318D2*
X3487114D1*
X3585413D2*
X4569812D1*
X4668111D2*
X5154007D1*
X432378Y1282008D2*
X601703D1*
X737537D2*
X837462D1*
X974193D2*
X1315045D1*
X1402112D2*
X3393887D1*
X3492186D2*
X3511982D1*
X3610281D2*
X4594680D1*
X4692979D2*
X4838656D1*
X5122584D2*
X5154007D1*
X432449Y1257139D2*
X609849D1*
X729355D2*
X841517D1*
X970138D2*
X1306397D1*
X1407494D2*
X3418755D1*
X3517054D2*
X3536850D1*
X3635149D2*
X4619548D1*
X4717846D2*
X4833310D1*
X5127967D2*
X5154007D1*
X432485Y1232270D2*
X634824D1*
X704380D2*
X857772D1*
X953882D2*
X1281529D1*
X1398272D2*
X3443623D1*
X3541922D2*
X3561718D1*
X3660017D2*
X4644415D1*
X4742714D2*
X4842496D1*
X5118745D2*
X5154007D1*
X432521Y1207402D2*
X697657D1*
X877772D2*
X1256661D1*
X1354996D2*
X3468491D1*
X3566789D2*
X3586585D1*
X3684884D2*
X4669283D1*
X4767582D2*
X5154007D1*
X432593Y1182533D2*
X676701D1*
X898728D2*
X1231793D1*
X1330128D2*
X3493358D1*
X3591657D2*
X3611453D1*
X3709752D2*
X4694151D1*
X4930245D2*
X5154007D1*
X432629Y1157664D2*
X670242D1*
X905188D2*
X1206926D1*
X1305224D2*
X3518226D1*
X3616525D2*
X3636321D1*
X3734656D2*
X4719019D1*
X4955113D2*
X5154007D1*
X432665Y1132795D2*
X673615D1*
X901850D2*
X1182058D1*
X1280357D2*
X3543094D1*
X3641393D2*
X3661189D1*
X3759523D2*
X4745752D1*
X4979980D2*
X5154007D1*
X432700Y1107927D2*
X688794D1*
X886635D2*
X1157190D1*
X1255489D2*
X3567962D1*
X3666260D2*
X3686056D1*
X3784391D2*
X4906549D1*
X5015865D2*
X5154007D1*
X432772Y1083058D2*
X1132322D1*
X1230621D2*
X3592829D1*
X3691128D2*
X3710924D1*
X3809259D2*
X4931417D1*
X5044895D2*
X5154007D1*
X432808Y1058189D2*
X1107455D1*
X1205754D2*
X3617697D1*
X3715996D2*
X3735792D1*
X3834127D2*
X4951620D1*
X5049022D2*
X5154007D1*
X432844Y1033320D2*
X1082587D1*
X1180886D2*
X3642565D1*
X3740864D2*
X3760660D1*
X3858994D2*
X4962277D1*
X5038328D2*
X5154007D1*
X432916Y1008451D2*
X1057719D1*
X1156018D2*
X3667432D1*
X3765731D2*
X3785563D1*
X3883862D2*
X5154007D1*
X432952Y983583D2*
X1032851D1*
X1131150D2*
X3692300D1*
X3790599D2*
X3810431D1*
X4832353D2*
X5154007D1*
X432988Y958714D2*
X988893D1*
X1106283D2*
X3717168D1*
X3815467D2*
X3835299D1*
X4858800D2*
X5154007D1*
X433059Y933845D2*
X975688D1*
X1081415D2*
X3742036D1*
X3840335D2*
X3860166D1*
X4883667D2*
X5154007D1*
X433095Y908976D2*
X977984D1*
X1069896D2*
X3766903D1*
X4787390D2*
X4810200D1*
X4923212D2*
X5154007D1*
X433131Y884108D2*
X1000304D1*
X1047576D2*
X3791771D1*
X4793347D2*
X4835104D1*
X4947398D2*
X5154007D1*
X433167Y859239D2*
X3817321D1*
X4784842D2*
X4853477D1*
X4950304D2*
X5154007D1*
X433239Y834370D2*
X4865749D1*
X4938032D2*
X5154007D1*
X433275Y809501D2*
X5154007D1*
X433311Y784633D2*
X5154007D1*
X433382Y759764D2*
X5154007D1*
X433418Y734895D2*
X968511D1*
X1052743D2*
X1118507D1*
X1202739D2*
X1456034D1*
X1540266D2*
X1606030D1*
X1690262D2*
X1945637D1*
X2029870D2*
X2095633D1*
X2179866D2*
X2431043D1*
X2515275D2*
X2581039D1*
X2665271D2*
X2918494D1*
X3002762D2*
X3068525D1*
X3152758D2*
X3406016D1*
X3490284D2*
X3556012D1*
X3640280D2*
X3893503D1*
X3977735D2*
X4043499D1*
X4127767D2*
X4381025D1*
X4465258D2*
X4531021D1*
X4615254D2*
X5154007D1*
X433454Y710026D2*
X948057D1*
X1073197D2*
X1098053D1*
X1223193D2*
X1435580D1*
X1560720D2*
X1585576D1*
X1710716D2*
X1925183D1*
X2050324D2*
X2075179D1*
X2200320D2*
X2410589D1*
X2535693D2*
X2560585D1*
X2685725D2*
X2898076D1*
X3023180D2*
X3048071D1*
X3173176D2*
X3385598D1*
X3510702D2*
X3535594D1*
X3660698D2*
X3873085D1*
X3998189D2*
X4023081D1*
X4148185D2*
X4360607D1*
X4485712D2*
X4510603D1*
X4635708D2*
X5154007D1*
X433490Y685157D2*
X941741D1*
X1079513D2*
X1091737D1*
X1229509D2*
X1429264D1*
X1567035D2*
X1579286D1*
X1717031D2*
X1918868D1*
X2056639D2*
X2068864D1*
X2206635D2*
X2404273D1*
X2542045D2*
X2554269D1*
X2692041D2*
X2891724D1*
X3029531D2*
X3041756D1*
X3179527D2*
X3379247D1*
X3517054D2*
X3529242D1*
X3667050D2*
X3866733D1*
X4004505D2*
X4016729D1*
X4154537D2*
X4354256D1*
X4492027D2*
X4504252D1*
X4642023D2*
X5154007D1*
X433562Y660289D2*
X945115D1*
X1076140D2*
X1095110D1*
X1226136D2*
X1432637D1*
X1563662D2*
X1582633D1*
X1713658D2*
X1922241D1*
X2053266D2*
X2072237D1*
X2203262D2*
X2407646D1*
X2538672D2*
X2557642D1*
X2688668D2*
X2895097D1*
X3026158D2*
X3045093D1*
X3176154D2*
X3382620D1*
X3513681D2*
X3532616D1*
X3663677D2*
X3870106D1*
X4001132D2*
X4020102D1*
X4151163D2*
X4357629D1*
X4488654D2*
X4507625D1*
X4638686D2*
X5154007D1*
X433598Y635420D2*
X960186D1*
X1061068D2*
X1110182D1*
X1211064D2*
X1447708D1*
X1548591D2*
X1597704D1*
X1698587D2*
X1937312D1*
X2038195D2*
X2087308D1*
X2188191D2*
X2422718D1*
X2523600D2*
X2572714D1*
X2673596D2*
X2910204D1*
X3011087D2*
X3060200D1*
X3161083D2*
X3397727D1*
X3498574D2*
X3547723D1*
X3648605D2*
X3885178D1*
X3986060D2*
X4035174D1*
X4136056D2*
X4372700D1*
X4473583D2*
X4522696D1*
X4623579D2*
X5154007D1*
X433633Y610551D2*
X5154007D1*
X433705Y585682D2*
X494804D1*
X608210D2*
X4982983D1*
X5096389D2*
X5154007D1*
X433741Y560814D2*
X471694D1*
X631319D2*
X4959873D1*
X5119498D2*
X5154007D1*
X433777Y535945D2*
X460786D1*
X642192D2*
X4948964D1*
X5130407D2*
X5154007D1*
X433849Y511076D2*
X457628D1*
X645350D2*
X4945807D1*
X5133565D2*
X5154007D1*
X433885Y486207D2*
X461396D1*
X641618D2*
X4949574D1*
X5129797D2*
X5154007D1*
X433921Y461339D2*
X473022D1*
X629956D2*
X4961237D1*
X5118135D2*
X5154007D1*
X433956Y436470D2*
X497746D1*
X605232D2*
X4985961D1*
X5093410D2*
X5154007D1*
X4948906Y2430350D2*
X5059633D1*
Y2310437D1*
X5044310D1*
X5048182Y2305635D1*
X5053098Y2297613D1*
X5056698Y2288921D1*
X5058894Y2279773D1*
X5059633Y2270394D1*
X5058894Y2261014D1*
X5056698Y2251866D1*
X5053098Y2243174D1*
X5048182Y2235152D1*
X5042072Y2227998D1*
X5034918Y2221888D1*
X5032731Y2220427D1*
X5038615Y2215985D1*
X5045267Y2209332D1*
X5050797Y2201721D1*
X5055069Y2193338D1*
X5057976Y2184390D1*
X5059448Y2175098D1*
Y2165690D1*
X5057976Y2156397D1*
X5055069Y2147449D1*
X5050797Y2139066D1*
X5045267Y2131455D1*
X5038615Y2124802D1*
X5032731Y2120427D1*
X5038615Y2115985D1*
X5045267Y2109332D1*
X5050797Y2101721D1*
X5055069Y2093338D1*
X5057976Y2084390D1*
X5059448Y2075098D1*
Y2065690D1*
X5057976Y2056397D1*
X5055069Y2047449D1*
X5050797Y2039066D1*
X5045267Y2031455D1*
X5038615Y2024802D1*
X5032731Y2020427D1*
X5038615Y2015985D1*
X5045267Y2009332D1*
X5050797Y2001721D1*
X5055069Y1993338D1*
X5057976Y1984390D1*
X5059448Y1975098D1*
Y1965690D1*
X5057976Y1956397D1*
X5055069Y1947449D1*
X5050797Y1939066D1*
X5045267Y1931455D1*
X5038615Y1924802D1*
X5032731Y1920427D1*
X5038825Y1915805D1*
X5044083Y1910678D1*
X5048675Y1904946D1*
X5052532Y1898696D1*
X5055596Y1892021D1*
X5057821Y1885021D1*
X5059173Y1877802D1*
X5059633Y1870394D1*
X5059183Y1863063D1*
X5057840Y1855842D1*
X5055624Y1848840D1*
X5052569Y1842161D1*
X5048721Y1835906D1*
X5044136Y1830168D1*
X5038884Y1825034D1*
X5033044Y1820580D1*
X5026703Y1816874D1*
X5019957Y1813971D1*
X5016055Y1812723D1*
X5104140Y1724495D1*
X5107182Y1720307D1*
X5109532Y1715695D1*
X5111132Y1710772D1*
X5111942Y1705659D1*
X5112043Y1638766D1*
Y1529140D1*
X5116668Y1523705D1*
X5120480Y1517485D1*
X5123272Y1510745D1*
X5124975Y1503651D1*
X5125547Y1496378D1*
X5124975Y1489105D1*
X5123272Y1482011D1*
X5120480Y1475271D1*
X5116668Y1469051D1*
X5111930Y1463503D1*
X5106383Y1458765D1*
X5100162Y1454953D1*
X5093422Y1452161D1*
X5086328Y1450458D1*
X5079055Y1449886D1*
X5071782Y1450458D1*
X5064688Y1452161D1*
X5057948Y1454953D1*
X5051728Y1458765D1*
X5046295Y1463397D1*
X4934621Y1463390D1*
X4929217Y1458765D1*
X4922997Y1454953D1*
X4916257Y1452161D1*
X4909163Y1450458D1*
X4901890Y1449886D1*
X4894617Y1450458D1*
X4887523Y1452161D1*
X4880783Y1454953D1*
X4874562Y1458765D1*
X4869015Y1463503D1*
X4864277Y1469051D1*
X4860465Y1475271D1*
X4857673Y1482011D1*
X4855970Y1489105D1*
X4855398Y1496378D1*
X4855970Y1503651D1*
X4857673Y1510745D1*
X4860465Y1517485D1*
X4864277Y1523705D1*
X4869015Y1529253D1*
X4874562Y1533991D1*
X4880783Y1537803D1*
X4887523Y1540595D1*
X4894617Y1542298D1*
X4901890Y1542870D1*
X4909163Y1542298D1*
X4916257Y1540595D1*
X4922997Y1537803D1*
X4929217Y1533991D1*
X4934649Y1529359D1*
X5046037Y1529366D1*
X5046067Y1689399D1*
X5003027Y1732446D1*
X4998558Y1724956D1*
X4993820Y1719409D1*
X4988272Y1714671D1*
X4982052Y1710859D1*
X4975312Y1708067D1*
X4968218Y1706364D1*
X4960945Y1705791D1*
X4953672Y1706364D1*
X4946578Y1708067D1*
X4939838Y1710859D1*
X4933617Y1714671D1*
X4928185Y1719302D1*
X1857963Y1719397D1*
X1852850Y1720207D1*
X1850348Y1720913D1*
X1858438Y1712466D1*
X1913576Y1657328D1*
X4721459Y1657319D1*
X4726925Y1661944D1*
X4733145Y1665755D1*
X4739885Y1668547D1*
X4746979Y1670250D1*
X4754252Y1670823D1*
X4761525Y1670250D1*
X4768619Y1668547D1*
X4775359Y1665755D1*
X4781579Y1661944D1*
X4787127Y1657206D1*
X4791865Y1651658D1*
X4795677Y1645438D1*
X4798469Y1638698D1*
X4800172Y1631604D1*
X4800744Y1624331D1*
X4800172Y1617058D1*
X4798469Y1609964D1*
X4795677Y1603224D1*
X4791865Y1597003D1*
X4787127Y1591456D1*
X4781579Y1586718D1*
X4775359Y1582906D1*
X4768619Y1580114D1*
X4761525Y1578411D1*
X4754252Y1577839D1*
X4746979Y1578411D1*
X4739885Y1580114D1*
X4733145Y1582906D1*
X4726925Y1586718D1*
X4721492Y1591349D1*
X1897333Y1591444D1*
X1892220Y1592254D1*
X1887297Y1593854D1*
X1882685Y1596204D1*
X1878497Y1599246D1*
X1831125Y1646475D1*
X920112Y2557631D1*
X917070Y2561819D1*
X914720Y2566431D1*
X913120Y2571354D1*
X912310Y2576467D1*
X912209Y2601913D1*
X907943Y2606292D1*
X903424Y2612512D1*
X899934Y2619362D1*
X897558Y2626673D1*
X896356Y2634266D1*
Y2641954D1*
X897558Y2649547D1*
X899934Y2656859D1*
X903424Y2663709D1*
X907943Y2669928D1*
X913379Y2675364D1*
X919599Y2679883D1*
X926448Y2683373D1*
X933760Y2685749D1*
X941353Y2686951D1*
X949041D1*
X956634Y2685749D1*
X963945Y2683373D1*
X970795Y2679883D1*
X977015Y2675364D1*
X982451Y2669928D1*
X986970Y2663709D1*
X990460Y2656859D1*
X992835Y2649547D1*
X994038Y2641954D1*
Y2634266D1*
X992835Y2626673D1*
X990460Y2619362D1*
X986970Y2612512D1*
X982451Y2606292D1*
X978195Y2601948D1*
X978185Y2592717D1*
X1012445Y2558459D1*
X1011040Y2564052D1*
X1010634Y2569223D1*
Y2601903D1*
X1006368Y2606292D1*
X1001849Y2612512D1*
X998359Y2619362D1*
X995984Y2626673D1*
X994781Y2634266D1*
Y2641954D1*
X995984Y2649547D1*
X998359Y2656859D1*
X1001849Y2663709D1*
X1006368Y2669928D1*
X1011804Y2675364D1*
X1018024Y2679883D1*
X1024874Y2683373D1*
X1032185Y2685749D1*
X1039778Y2686951D1*
X1047466D1*
X1055059Y2685749D1*
X1062371Y2683373D1*
X1069220Y2679883D1*
X1075440Y2675364D1*
X1080876Y2669928D1*
X1085395Y2663709D1*
X1088885Y2656859D1*
X1091261Y2649547D1*
X1092463Y2641954D1*
Y2634266D1*
X1091261Y2626673D1*
X1088885Y2619362D1*
X1085395Y2612512D1*
X1080876Y2606292D1*
X1076621Y2601948D1*
X1076610Y2582884D1*
X1874221Y1785267D1*
X2017114Y1785272D1*
X1609089Y2193458D1*
X1606046Y2197646D1*
X1603696Y2202258D1*
X1602096Y2207181D1*
X1601287Y2212294D1*
X1601185Y2279186D1*
Y2601893D1*
X1596919Y2606292D1*
X1592401Y2612512D1*
X1588910Y2619362D1*
X1586535Y2626673D1*
X1585332Y2634266D1*
Y2641954D1*
X1586535Y2649547D1*
X1588910Y2656859D1*
X1592401Y2663709D1*
X1596919Y2669928D1*
X1602355Y2675364D1*
X1608575Y2679883D1*
X1615425Y2683373D1*
X1622736Y2685749D1*
X1630329Y2686951D1*
X1638017D1*
X1645610Y2685749D1*
X1652922Y2683373D1*
X1659772Y2679883D1*
X1665991Y2675364D1*
X1671427Y2669928D1*
X1675946Y2663709D1*
X1679436Y2656859D1*
X1681812Y2649547D1*
X1683014Y2641954D1*
Y2634266D1*
X1681812Y2626673D1*
X1679436Y2619362D1*
X1675946Y2612512D1*
X1671427Y2606292D1*
X1667172Y2601948D1*
X1667162Y2228564D1*
X2061224Y1834483D1*
X4518006Y1834484D1*
X4512206Y1840199D1*
X4507918Y1846102D1*
X4504606Y1852602D1*
X4502352Y1859540D1*
X4501210Y1866746D1*
Y1874041D1*
X4502352Y1881247D1*
X4504606Y1888185D1*
X4507918Y1894686D1*
X4512206Y1900588D1*
X4514578Y1903153D1*
X4514672Y1932037D1*
X4515482Y1937150D1*
X4517082Y1942073D1*
X4519432Y1946685D1*
X4522475Y1950873D1*
X4565178Y1993720D1*
X4569114Y1997082D1*
X4573528Y1999786D1*
X4578310Y2001767D1*
X4583343Y2002976D1*
X4588514Y2003382D1*
X4626028Y2003582D1*
X4622716Y2010082D1*
X4620462Y2017021D1*
X4619320Y2024226D1*
Y2031522D1*
X4620462Y2038727D1*
X4622716Y2045666D1*
X4626028Y2052166D1*
X4630316Y2058068D1*
X4635475Y2063227D1*
X4641377Y2067515D1*
X4647878Y2070827D1*
X4654816Y2073082D1*
X4662022Y2074223D1*
X4665513Y2074360D1*
X4880466Y2289179D1*
X4884653Y2292222D1*
X4889266Y2294572D1*
X4894189Y2296171D1*
X4899302Y2296981D1*
X4945991Y2297083D1*
X4948554Y2301721D1*
X4954084Y2309332D1*
X4955096Y2310426D1*
X4939719Y2310437D1*
Y2324181D1*
X4126299Y2324216D1*
X4119075Y2324785D1*
X4112030Y2326477D1*
X4105335Y2329249D1*
X4099157Y2333036D1*
X4093637Y2337752D1*
X3681955Y2749434D1*
X2283211Y2749413D1*
X2136604Y2602997D1*
X2130742Y2598738D1*
X2124285Y2595448D1*
X2117394Y2593209D1*
X2110237Y2592075D1*
X2079055Y2591933D1*
X1748956D1*
X1744035Y2590472D1*
X1736442Y2589269D1*
X1728755D1*
X1721161Y2590472D1*
X1713850Y2592847D1*
X1707000Y2596338D1*
X1700781Y2600856D1*
X1695345Y2606292D1*
X1690826Y2612512D1*
X1687336Y2619362D1*
X1684960Y2626673D1*
X1683757Y2634266D1*
Y2641954D1*
X1684960Y2649547D1*
X1686425Y2654392D1*
X1686421Y2739555D1*
X777305Y2739571D1*
X735450Y2697704D1*
X735469Y1584381D1*
X787180Y1532691D1*
X832659Y1532713D1*
X821687Y1543851D1*
X818645Y1548039D1*
X816294Y1552652D1*
X814695Y1557575D1*
X813885Y1562687D1*
X813783Y1601913D1*
X809518Y1606292D1*
X804999Y1612512D1*
X801509Y1619362D1*
X799133Y1626673D1*
X797931Y1634266D1*
Y1641954D1*
X799133Y1649547D1*
X801509Y1656859D1*
X804999Y1663709D1*
X809518Y1669928D1*
X814954Y1675364D1*
X821173Y1679883D1*
X828023Y1683373D1*
X835335Y1685749D1*
X842928Y1686951D1*
X850616D1*
X858209Y1685749D1*
X865520Y1683373D1*
X872370Y1679883D1*
X878589Y1675364D1*
X884026Y1669928D1*
X888544Y1663709D1*
X892034Y1656859D1*
X894410Y1649547D1*
X895613Y1641954D1*
Y1634266D1*
X894410Y1626673D1*
X892034Y1619362D1*
X888544Y1612512D1*
X884026Y1606292D1*
X879770Y1601948D1*
X879760Y1578937D1*
X884829Y1578579D1*
X908415Y1578477D1*
X910997Y1578171D1*
X912209Y1583648D1*
Y1601913D1*
X907943Y1606292D1*
X903424Y1612512D1*
X899934Y1619362D1*
X897558Y1626673D1*
X896356Y1634266D1*
Y1641954D1*
X897558Y1649547D1*
X899934Y1656859D1*
X903424Y1663709D1*
X907943Y1669928D1*
X913379Y1675364D1*
X919599Y1679883D1*
X926448Y1683373D1*
X933760Y1685749D1*
X941353Y1686951D1*
X949041D1*
X956634Y1685749D1*
X963945Y1683373D1*
X970795Y1679883D1*
X977015Y1675364D1*
X982451Y1669928D1*
X986970Y1663709D1*
X990460Y1656859D1*
X992835Y1649547D1*
X994038Y1641954D1*
Y1634266D1*
X992835Y1626673D1*
X990460Y1619362D1*
X986970Y1612512D1*
X982451Y1606292D1*
X978195Y1601948D1*
X978185Y1578937D1*
X1086791Y1470334D1*
X3408415Y1470209D1*
X3413528Y1469400D1*
X3418451Y1467800D1*
X3423063Y1465450D1*
X3427251Y1462407D1*
X3474623Y1415179D1*
X3901794Y988008D1*
X4815895Y987926D1*
X4821008Y987116D1*
X4825931Y985517D1*
X4830543Y983167D1*
X4834731Y980124D1*
X4882103Y932895D1*
X4902073Y912926D1*
X4909163Y912376D1*
X4916257Y910673D1*
X4922997Y907881D1*
X4929217Y904070D1*
X4934765Y899332D1*
X4939503Y893784D1*
X4943315Y887564D1*
X4946106Y880824D1*
X4947809Y873730D1*
X4948382Y866457D1*
X4947809Y859184D1*
X4946106Y852090D1*
X4943315Y845350D1*
X4939503Y839129D1*
X4934765Y833582D1*
X4929217Y828844D1*
X4922997Y825032D1*
X4916257Y822240D1*
X4909163Y820537D1*
X4901890Y819965D1*
X4894617Y820537D1*
X4887523Y822240D1*
X4880783Y825032D1*
X4874562Y828844D1*
X4869015Y833582D1*
X4864277Y839129D1*
X4860465Y845350D1*
X4857673Y852090D1*
X4855970Y859184D1*
X4855404Y866300D1*
X4799625Y922069D1*
X4773942Y922051D1*
X4779762Y916336D1*
X4784051Y910434D1*
X4787363Y903933D1*
X4789617Y896995D1*
X4790758Y889789D1*
Y882494D1*
X4789617Y875288D1*
X4787363Y868350D1*
X4784051Y861850D1*
X4779762Y855948D1*
X4774604Y850789D1*
X4768702Y846501D1*
X4762201Y843189D1*
X4755263Y840934D1*
X4748057Y839793D1*
X4740762D1*
X4733556Y840934D1*
X4726618Y843189D1*
X4720117Y846501D1*
X4714215Y850789D1*
X4711650Y853160D1*
X3836309Y853255D1*
X3831197Y854065D1*
X3826274Y855664D1*
X3821661Y858015D1*
X3817473Y861057D1*
X3770101Y908286D1*
X3333086Y1345301D1*
X1070561Y1345381D1*
X1065449Y1346191D1*
X1060526Y1347790D1*
X1055913Y1350141D1*
X1051725Y1353183D1*
X1004353Y1400412D1*
X951601Y1453164D1*
X952004Y1447151D1*
X952398Y1444524D1*
X959110Y1436666D1*
X964510Y1427854D1*
X968465Y1418305D1*
X970878Y1408256D1*
X971689Y1397953D1*
X971486Y1274675D1*
X969869Y1264467D1*
X966676Y1254638D1*
X961984Y1245430D1*
X955909Y1237068D1*
X948601Y1229761D1*
X940240Y1223686D1*
X931031Y1218994D1*
X921202Y1215800D1*
X910994Y1214183D1*
X900659D1*
X890452Y1215800D1*
X880622Y1218994D1*
X871414Y1223686D1*
X863053Y1229761D1*
X855745Y1237068D1*
X849670Y1245430D1*
X844978Y1254638D1*
X841784Y1264467D1*
X840168Y1274675D1*
X839965Y1298215D1*
X840168Y1403120D1*
X841784Y1413328D1*
X844978Y1423157D1*
X849670Y1432366D1*
X851926Y1435742D1*
X847330Y1440358D1*
X764408Y1440500D1*
X757252Y1441634D1*
X750360Y1443873D1*
X743904Y1447163D1*
X738042Y1451422D1*
X715892Y1473370D1*
X654178Y1535286D1*
X649919Y1541148D1*
X646629Y1547604D1*
X644390Y1554496D1*
X643256Y1561653D1*
X643114Y1592835D1*
X643256Y2720473D1*
X644390Y2727630D1*
X646629Y2734522D1*
X649919Y2740978D1*
X654178Y2746840D1*
X676126Y2768990D1*
X728199Y2820862D1*
X734061Y2825121D1*
X740518Y2828410D1*
X747409Y2830649D1*
X754566Y2831783D1*
X785748Y2831925D1*
X1699611D1*
X1699610Y2860700D1*
X1443328Y3116949D1*
X584269Y3116933D1*
X578823Y3112308D1*
X572603Y3108496D1*
X565863Y3105705D1*
X558769Y3104002D1*
X551496Y3103429D1*
X544223Y3104002D1*
X537129Y3105705D1*
X530389Y3108496D1*
X524169Y3112308D1*
X518621Y3117046D1*
X513883Y3122594D1*
X510071Y3128814D1*
X507279Y3135554D1*
X505576Y3142648D1*
X505004Y3149921D1*
X505576Y3157194D1*
X507279Y3164288D1*
X510071Y3171028D1*
X513883Y3177249D1*
X518621Y3182796D1*
X524169Y3187534D1*
X530389Y3191346D1*
X537129Y3194138D1*
X544223Y3195841D1*
X551496Y3196413D1*
X558769Y3195841D1*
X565863Y3194138D1*
X572603Y3191346D1*
X578823Y3187534D1*
X584256Y3182903D1*
X1459596Y3182808D1*
X1464709Y3181998D1*
X1469632Y3180398D1*
X1474244Y3178048D1*
X1478432Y3175006D1*
X1525804Y3127777D1*
X1757683Y2895755D1*
X1760726Y2891567D1*
X1763076Y2886955D1*
X1764675Y2882032D1*
X1765485Y2876919D1*
X1765587Y2810026D1*
Y2798364D1*
X1769957Y2793205D1*
X1773743Y2787027D1*
X1776516Y2780333D1*
X1778207Y2773287D1*
X1778776Y2766063D1*
Y2684283D1*
X2087457Y2684287D1*
X2234105Y2830704D1*
X2239967Y2834963D1*
X2246423Y2838253D1*
X2253315Y2840492D1*
X2260471Y2841625D1*
X2291654Y2841768D1*
X3704725Y2841625D1*
X3711882Y2840492D1*
X3718774Y2838253D1*
X3725230Y2834963D1*
X3731092Y2830704D1*
X3753242Y2808756D1*
X4145447Y2416550D1*
X4218232Y2416728D1*
X4211491Y2419520D1*
X4205271Y2423332D1*
X4199839Y2427964D1*
X4170955Y2428058D1*
X4165842Y2428868D1*
X4160919Y2430468D1*
X4156307Y2432818D1*
X4152119Y2435860D1*
X4104747Y2483089D1*
X3681281Y2906555D1*
X3674144Y2907151D1*
X3667050Y2908854D1*
X3660310Y2911646D1*
X3654090Y2915458D1*
X3648542Y2920196D1*
X3643804Y2925743D1*
X3639993Y2931964D1*
X3637201Y2938704D1*
X3635498Y2945798D1*
X3634925Y2953071D1*
X3635498Y2960344D1*
X3637201Y2967438D1*
X3639993Y2974178D1*
X3643804Y2980398D1*
X3648542Y2985946D1*
X3654090Y2990684D1*
X3660310Y2994496D1*
X3667050Y2997288D1*
X3674144Y2998991D1*
X3681417Y2999563D1*
X3688690Y2998991D1*
X3694288Y2997709D1*
X3695265Y3003294D1*
X3697519Y3010233D1*
X3700831Y3016733D1*
X3705120Y3022635D1*
X3710278Y3027794D1*
X3716180Y3032082D1*
X3722681Y3035394D1*
X3729619Y3037648D1*
X3736825Y3038790D1*
X3744120D1*
X3751326Y3037648D1*
X3758264Y3035394D1*
X3764765Y3032082D1*
X3770667Y3027794D1*
X3775825Y3022635D1*
X3780113Y3016733D1*
X3783426Y3010233D1*
X3785680Y3003294D1*
X3786821Y2996089D1*
X3786958Y2992598D1*
X3800413Y2979153D1*
X3803545Y2983265D1*
X3808703Y2988424D1*
X3814606Y2992712D1*
X3821106Y2996024D1*
X3828044Y2998278D1*
X3835250Y2999420D1*
X3842545D1*
X3849751Y2998278D1*
X3856689Y2996024D1*
X3863190Y2992712D1*
X3869092Y2988424D1*
X3874251Y2983265D1*
X3878539Y2977363D1*
X3881851Y2970863D1*
X3884105Y2963924D1*
X3885246Y2956719D1*
X3885384Y2953228D1*
X4135933Y2702688D1*
X4143021Y2702140D1*
X4150115Y2700437D1*
X4156855Y2697645D1*
X4163075Y2693833D1*
X4168623Y2689095D1*
X4173361Y2683548D1*
X4177173Y2677327D1*
X4179965Y2670587D1*
X4181668Y2663493D1*
X4182240Y2656220D1*
X4181668Y2648948D1*
X4179965Y2641854D1*
X4177173Y2635113D1*
X4173361Y2628893D1*
X4168623Y2623346D1*
X4163075Y2618608D1*
X4161807Y2617760D1*
X4185894Y2593671D1*
X4193021Y2593085D1*
X4200115Y2591382D1*
X4206855Y2588590D1*
X4213075Y2584778D1*
X4218623Y2580040D1*
X4223361Y2574493D1*
X4227173Y2568272D1*
X4229965Y2561532D1*
X4231668Y2554438D1*
X4232240Y2547165D1*
X4231668Y2539892D1*
X4229965Y2532798D1*
X4227173Y2526058D1*
X4223361Y2519838D1*
X4218623Y2514290D1*
X4213075Y2509552D1*
X4206855Y2505741D1*
X4200115Y2502949D1*
X4193021Y2501246D1*
X4185748Y2500673D1*
X4180075Y2501056D1*
X4187229Y2493911D1*
X4199846Y2493933D1*
X4205271Y2498558D1*
X4211491Y2502370D1*
X4218232Y2505162D1*
X4225325Y2506865D1*
X4232598Y2507437D1*
X4239871Y2506865D1*
X4246965Y2505162D1*
X4253705Y2502370D1*
X4259926Y2498558D1*
X4265473Y2493820D1*
X4270211Y2488272D1*
X4274023Y2482052D1*
X4276815Y2475312D1*
X4278518Y2468218D1*
X4279091Y2460945D1*
X4278518Y2453672D1*
X4276815Y2446578D1*
X4274023Y2439838D1*
X4270211Y2433617D1*
X4265473Y2428070D1*
X4259926Y2423332D1*
X4253705Y2419520D1*
X4246403Y2416570D1*
X4496588Y2416571D1*
X4500547Y2419818D1*
X4506767Y2423630D1*
X4513507Y2426421D1*
X4520601Y2428124D1*
X4527874Y2428697D1*
X4535147Y2428124D1*
X4542241Y2426421D1*
X4548981Y2423630D1*
X4555201Y2419818D1*
X4559126Y2416580D1*
X4742509Y2416680D1*
X4744763Y2423619D1*
X4748075Y2430119D1*
X4752364Y2436021D1*
X4757522Y2441180D1*
X4763424Y2445468D1*
X4769925Y2448780D1*
X4776863Y2451034D1*
X4784069Y2452176D1*
X4791364D1*
X4798570Y2451034D1*
X4805508Y2448780D1*
X4812009Y2445468D1*
X4817911Y2441180D1*
X4823069Y2436021D1*
X4827358Y2430119D1*
X4830670Y2423619D1*
X4832944Y2416582D1*
X4939686Y2416571D1*
X4939719Y2416547D2*
Y2430350D1*
X4948906D1*
X4966621Y2220427D2*
X4960737Y2224802D1*
X4954397Y2231117D1*
X4915544Y2231106D1*
X4916257Y2229571D1*
X4922997Y2226779D1*
X4929217Y2222967D1*
X4934765Y2218229D1*
X4939503Y2212682D1*
X4943315Y2206461D1*
X4946106Y2199721D1*
X4946544Y2198170D1*
X4951170Y2205635D1*
X4957280Y2212789D1*
X4964434Y2218900D1*
X4966621Y2220361D1*
Y2120427D2*
X4964102Y2122150D1*
X4869662Y2027734D1*
X4869069Y2020601D1*
X4867366Y2013507D1*
X4864574Y2006767D1*
X4862656Y2003380D1*
X4949607Y2003382D1*
X4954084Y2009332D1*
X4960737Y2015985D1*
X4966621Y2020361D1*
X4960737Y2024802D1*
X4954084Y2031455D1*
X4948554Y2039066D1*
X4944283Y2047449D1*
X4941376Y2056397D1*
X4939904Y2065690D1*
Y2075098D1*
X4941376Y2084390D1*
X4944283Y2093338D1*
X4948554Y2101721D1*
X4954084Y2109332D1*
X4960737Y2115985D1*
X4966621Y2120361D1*
Y1920427D2*
X4960737Y1924802D1*
X4954084Y1931455D1*
X4949668Y1937400D1*
X4602187Y1937405D1*
X4580544Y1915781D1*
X4580547Y1903146D1*
X4585172Y1897721D1*
X4588984Y1891501D1*
X4591776Y1884761D1*
X4593479Y1877667D1*
X4594051Y1870394D1*
X4593479Y1863121D1*
X4591776Y1856027D1*
X4588984Y1849287D1*
X4585172Y1843066D1*
X4580434Y1837519D1*
X4577048Y1834485D1*
X4951630Y1834484D1*
X4947240Y1841320D1*
X4944079Y1847949D1*
X4941752Y1854915D1*
X4940294Y1862113D1*
X4939727Y1869436D1*
X4940059Y1876773D1*
X4941287Y1884014D1*
X4943390Y1891051D1*
X4946338Y1897778D1*
X4950086Y1904094D1*
X4954579Y1909904D1*
X4959748Y1915121D1*
X4965516Y1919668D1*
X4966595Y1920391D1*
X603750Y1388113D2*
X604235Y1396139D1*
X605536Y1403368D1*
X607633Y1410407D1*
X610501Y1417169D1*
X614105Y1423570D1*
X618398Y1429530D1*
X623329Y1434974D1*
X628835Y1439836D1*
X634848Y1444054D1*
X641294Y1447577D1*
X648092Y1450359D1*
X655157Y1452368D1*
X662402Y1453577D1*
X669737Y1453972D1*
X677070Y1453548D1*
X684310Y1452310D1*
X691367Y1450274D1*
X698154Y1447464D1*
X704585Y1443916D1*
X710582Y1439674D1*
X716069Y1434791D1*
X720978Y1429327D1*
X725248Y1423350D1*
X728826Y1416935D1*
X731667Y1410162D1*
X733737Y1403114D1*
X735009Y1395880D1*
X735469Y1388110D1*
X735238Y1284180D1*
X734217Y1276906D1*
X732392Y1269791D1*
X729786Y1262923D1*
X726432Y1256388D1*
X722371Y1250268D1*
X717654Y1244638D1*
X712339Y1239568D1*
X706493Y1235121D1*
X700187Y1231353D1*
X693502Y1228311D1*
X686519Y1226031D1*
X679326Y1224544D1*
X672012Y1223867D1*
X664668Y1224008D1*
X657386Y1224967D1*
X650255Y1226730D1*
X643365Y1229276D1*
X636802Y1232574D1*
X630646Y1236582D1*
X624976Y1241250D1*
X619860Y1246521D1*
X615363Y1252329D1*
X611541Y1258601D1*
X608440Y1265260D1*
X606101Y1272223D1*
X604552Y1279403D1*
X603811Y1286711D1*
X603744Y1383386D1*
Y1388049D1*
X738524Y1087997D2*
X728201Y1088807D1*
X718151Y1091220D1*
X708603Y1095175D1*
X699791Y1100575D1*
X691932Y1107287D1*
X685220Y1115145D1*
X679820Y1123957D1*
X675865Y1133506D1*
X673453Y1143555D1*
X672642Y1153858D1*
X673453Y1164161D1*
X675865Y1174211D1*
X679820Y1183759D1*
X685220Y1192571D1*
X691932Y1200430D1*
X699791Y1207142D1*
X708603Y1212542D1*
X718151Y1216497D1*
X728201Y1218910D1*
X738524Y1219720D1*
X842097Y1219517D1*
X852304Y1217901D1*
X862134Y1214707D1*
X871342Y1210015D1*
X879703Y1203940D1*
X887011Y1196632D1*
X893086Y1188271D1*
X897778Y1179063D1*
X900972Y1169233D1*
X902588Y1159026D1*
Y1148691D1*
X900972Y1138483D1*
X897778Y1128654D1*
X893086Y1119445D1*
X887011Y1111084D1*
X879703Y1103776D1*
X871342Y1097702D1*
X862134Y1093010D1*
X852304Y1089816D1*
X842097Y1088199D1*
X818557Y1087996D1*
X738504Y1088032D1*
X1077116Y3491293D2*
X1076508Y3483973D1*
X1075096Y3476764D1*
X1072898Y3469756D1*
X1069940Y3463032D1*
X1066258Y3456676D1*
X1061898Y3450765D1*
X1056913Y3445371D1*
X1051362Y3440559D1*
X1045315Y3436389D1*
X1038845Y3432912D1*
X1032031Y3430169D1*
X1024956Y3428195D1*
X1017707Y3427013D1*
X1010371Y3426638D1*
X1003038Y3427075D1*
X995799Y3428317D1*
X988741Y3430351D1*
X981950Y3433151D1*
X975509Y3436682D1*
X969497Y3440903D1*
X963988Y3445760D1*
X959048Y3451196D1*
X954737Y3457144D1*
X951109Y3463531D1*
X948207Y3470279D1*
X946068Y3477305D1*
X944717Y3484525D1*
X944170Y3491850D1*
X944434Y3499191D1*
X945507Y3506458D1*
X947374Y3513562D1*
X950014Y3520416D1*
X953394Y3526938D1*
X957472Y3533047D1*
X962200Y3538669D1*
X967518Y3543735D1*
X973363Y3548184D1*
X979663Y3551960D1*
X986341Y3555019D1*
X993316Y3557323D1*
X1000502Y3558843D1*
X1007812Y3559561D1*
X1015157Y3559469D1*
X1022447Y3558567D1*
X1029593Y3556867D1*
X1036507Y3554388D1*
X1043106Y3551162D1*
X1049309Y3547228D1*
X1055041Y3542634D1*
X1060230Y3537436D1*
X1064814Y3531696D1*
X1068738Y3525487D1*
X1071952Y3518882D1*
X1074419Y3511963D1*
X1076107Y3504815D1*
X1076996Y3497523D1*
X1077116Y3491293D1*
X1226937Y3487913D2*
X1225305Y3477608D1*
X1222080Y3467684D1*
X1217343Y3458388D1*
X1211211Y3449947D1*
X1203833Y3442569D1*
X1195392Y3436436D1*
X1186095Y3431699D1*
X1176172Y3428475D1*
X1165867Y3426843D1*
X1155433D1*
X1145127Y3428475D1*
X1135204Y3431699D1*
X1125908Y3436436D1*
X1117466Y3442569D1*
X1110089Y3449947D1*
X1103956Y3458388D1*
X1099219Y3467684D1*
X1095995Y3477608D1*
X1094362Y3487913D1*
Y3498347D1*
X1095995Y3508652D1*
X1099219Y3518575D1*
X1103956Y3527872D1*
X1110089Y3536313D1*
X1117466Y3543691D1*
X1125908Y3549824D1*
X1135204Y3554561D1*
X1145127Y3557785D1*
X1155433Y3559417D1*
X1165867D1*
X1176172Y3557785D1*
X1186095Y3554561D1*
X1195392Y3549824D1*
X1203833Y3543691D1*
X1211211Y3536313D1*
X1217343Y3527872D1*
X1222080Y3518575D1*
X1225305Y3508652D1*
X1226937Y3498347D1*
Y3487913D1*
X1564616Y3491293D2*
X1564008Y3483973D1*
X1562596Y3476764D1*
X1560398Y3469756D1*
X1557440Y3463032D1*
X1553758Y3456676D1*
X1549398Y3450765D1*
X1544413Y3445371D1*
X1538862Y3440559D1*
X1532815Y3436389D1*
X1526345Y3432912D1*
X1519531Y3430169D1*
X1512456Y3428195D1*
X1505207Y3427013D1*
X1497871Y3426638D1*
X1490538Y3427075D1*
X1483299Y3428317D1*
X1476241Y3430351D1*
X1469450Y3433151D1*
X1463009Y3436682D1*
X1456997Y3440903D1*
X1451488Y3445760D1*
X1446548Y3451196D1*
X1442237Y3457144D1*
X1438609Y3463531D1*
X1435707Y3470279D1*
X1433568Y3477305D1*
X1432217Y3484525D1*
X1431670Y3491850D1*
X1431934Y3499191D1*
X1433007Y3506458D1*
X1434874Y3513562D1*
X1437514Y3520416D1*
X1440894Y3526938D1*
X1444972Y3533047D1*
X1449700Y3538669D1*
X1455018Y3543735D1*
X1460863Y3548184D1*
X1467163Y3551960D1*
X1473841Y3555019D1*
X1480816Y3557323D1*
X1488002Y3558843D1*
X1495312Y3559561D1*
X1502657Y3559469D1*
X1509947Y3558567D1*
X1517093Y3556867D1*
X1524007Y3554388D1*
X1530606Y3551162D1*
X1536809Y3547228D1*
X1542541Y3542634D1*
X1547730Y3537436D1*
X1552314Y3531696D1*
X1556238Y3525487D1*
X1559452Y3518882D1*
X1561919Y3511963D1*
X1563607Y3504815D1*
X1564496Y3497523D1*
X1564616Y3491293D1*
X1714437Y3487913D2*
X1712805Y3477608D1*
X1709580Y3467684D1*
X1704843Y3458388D1*
X1698711Y3449947D1*
X1691333Y3442569D1*
X1682892Y3436436D1*
X1673595Y3431699D1*
X1663672Y3428475D1*
X1653367Y3426843D1*
X1642933D1*
X1632627Y3428475D1*
X1622704Y3431699D1*
X1613408Y3436436D1*
X1604966Y3442569D1*
X1597589Y3449947D1*
X1591456Y3458388D1*
X1586719Y3467684D1*
X1583495Y3477608D1*
X1581862Y3487913D1*
Y3498347D1*
X1583495Y3508652D1*
X1586719Y3518575D1*
X1591456Y3527872D1*
X1597589Y3536313D1*
X1604966Y3543691D1*
X1613408Y3549824D1*
X1622704Y3554561D1*
X1632627Y3557785D1*
X1642933Y3559417D1*
X1653367D1*
X1663672Y3557785D1*
X1673595Y3554561D1*
X1682892Y3549824D1*
X1691333Y3543691D1*
X1698711Y3536313D1*
X1704843Y3527872D1*
X1709580Y3518575D1*
X1712805Y3508652D1*
X1714437Y3498347D1*
Y3487913D1*
X2054223Y3491313D2*
X2053614Y3483992D1*
X2052203Y3476784D1*
X2050004Y3469775D1*
X2047046Y3463052D1*
X2043365Y3456696D1*
X2039004Y3450785D1*
X2034019Y3445390D1*
X2028469Y3440579D1*
X2022422Y3436409D1*
X2015952Y3432932D1*
X2009138Y3430189D1*
X2002062Y3428215D1*
X1994813Y3427033D1*
X1987477Y3426658D1*
X1980145Y3427095D1*
X1972905Y3428337D1*
X1965847Y3430371D1*
X1959056Y3433170D1*
X1952615Y3436702D1*
X1946604Y3440922D1*
X1941094Y3445780D1*
X1936154Y3451216D1*
X1931843Y3457164D1*
X1928215Y3463550D1*
X1925314Y3470298D1*
X1923174Y3477325D1*
X1921823Y3484545D1*
X1921276Y3491870D1*
X1921541Y3499211D1*
X1922613Y3506477D1*
X1924481Y3513581D1*
X1927120Y3520436D1*
X1930500Y3526957D1*
X1934578Y3533067D1*
X1939306Y3538689D1*
X1944624Y3543755D1*
X1950469Y3548203D1*
X1956769Y3551980D1*
X1963447Y3555039D1*
X1970422Y3557343D1*
X1977609Y3558863D1*
X1984919Y3559581D1*
X1992263Y3559489D1*
X1999553Y3558587D1*
X2006699Y3556886D1*
X2013614Y3554408D1*
X2020213Y3551182D1*
X2026416Y3547248D1*
X2032147Y3542654D1*
X2037336Y3537455D1*
X2041921Y3531716D1*
X2045844Y3525506D1*
X2049059Y3518902D1*
X2051525Y3511983D1*
X2053213Y3504834D1*
X2054103Y3497543D1*
X2054223Y3491313D1*
X2204043Y3487933D2*
X2202411Y3477627D1*
X2199187Y3467704D1*
X2194450Y3458408D1*
X2188317Y3449966D1*
X2180939Y3442589D1*
X2172498Y3436456D1*
X2163201Y3431719D1*
X2153278Y3428495D1*
X2142973Y3426862D1*
X2132539D1*
X2122234Y3428495D1*
X2112310Y3431719D1*
X2103014Y3436456D1*
X2094573Y3442589D1*
X2087195Y3449966D1*
X2081062Y3458408D1*
X2076325Y3467704D1*
X2073101Y3477627D1*
X2071469Y3487933D1*
Y3498367D1*
X2073101Y3508672D1*
X2076325Y3518595D1*
X2081062Y3527892D1*
X2087195Y3536333D1*
X2094573Y3543711D1*
X2103014Y3549843D1*
X2112310Y3554580D1*
X2122234Y3557805D1*
X2132539Y3559437D1*
X2142973D1*
X2153278Y3557805D1*
X2163201Y3554580D1*
X2172498Y3549843D1*
X2180939Y3543711D1*
X2188317Y3536333D1*
X2194450Y3527892D1*
X2199187Y3518595D1*
X2202411Y3508672D1*
X2204043Y3498367D1*
Y3487933D1*
X2539616Y3491313D2*
X2539008Y3483992D1*
X2537596Y3476784D1*
X2535398Y3469775D1*
X2532440Y3463052D1*
X2528758Y3456696D1*
X2524398Y3450785D1*
X2519413Y3445390D1*
X2513862Y3440579D1*
X2507815Y3436409D1*
X2501345Y3432932D1*
X2494531Y3430189D1*
X2487456Y3428215D1*
X2480207Y3427033D1*
X2472871Y3426658D1*
X2465538Y3427095D1*
X2458299Y3428337D1*
X2451241Y3430371D1*
X2444450Y3433170D1*
X2438009Y3436702D1*
X2431997Y3440922D1*
X2426488Y3445780D1*
X2421548Y3451216D1*
X2417237Y3457164D1*
X2413609Y3463550D1*
X2410707Y3470298D1*
X2408568Y3477325D1*
X2407217Y3484545D1*
X2406670Y3491870D1*
X2406934Y3499211D1*
X2408007Y3506477D1*
X2409874Y3513581D1*
X2412514Y3520436D1*
X2415894Y3526957D1*
X2419972Y3533067D1*
X2424700Y3538689D1*
X2430018Y3543755D1*
X2435863Y3548203D1*
X2442163Y3551980D1*
X2448841Y3555039D1*
X2455816Y3557343D1*
X2463002Y3558863D1*
X2470312Y3559581D1*
X2477657Y3559489D1*
X2484947Y3558587D1*
X2492093Y3556886D1*
X2499007Y3554408D1*
X2505606Y3551182D1*
X2511809Y3547248D1*
X2517541Y3542654D1*
X2522730Y3537455D1*
X2527314Y3531716D1*
X2531238Y3525506D1*
X2534452Y3518902D1*
X2536919Y3511983D1*
X2538607Y3504834D1*
X2539496Y3497543D1*
X2539616Y3491313D1*
X2689437Y3487933D2*
X2687805Y3477627D1*
X2684580Y3467704D1*
X2679843Y3458408D1*
X2673711Y3449966D1*
X2666333Y3442589D1*
X2657892Y3436456D1*
X2648595Y3431719D1*
X2638672Y3428495D1*
X2628367Y3426862D1*
X2617933D1*
X2607627Y3428495D1*
X2597704Y3431719D1*
X2588408Y3436456D1*
X2579966Y3442589D1*
X2572589Y3449966D1*
X2566456Y3458408D1*
X2561719Y3467704D1*
X2558495Y3477627D1*
X2556862Y3487933D1*
Y3498367D1*
X2558495Y3508672D1*
X2561719Y3518595D1*
X2566456Y3527892D1*
X2572589Y3536333D1*
X2579966Y3543711D1*
X2588408Y3549843D1*
X2597704Y3554580D1*
X2607627Y3557805D1*
X2617933Y3559437D1*
X2628367D1*
X2638672Y3557805D1*
X2648595Y3554580D1*
X2657892Y3549843D1*
X2666333Y3543711D1*
X2673711Y3536333D1*
X2679843Y3527892D1*
X2684580Y3518595D1*
X2687805Y3508672D1*
X2689437Y3498367D1*
Y3487933D1*
X3027116Y3491313D2*
X3026508Y3483992D1*
X3025096Y3476784D1*
X3022898Y3469775D1*
X3019940Y3463052D1*
X3016258Y3456696D1*
X3011898Y3450785D1*
X3006913Y3445390D1*
X3001362Y3440579D1*
X2995315Y3436409D1*
X2988845Y3432932D1*
X2982031Y3430189D1*
X2974956Y3428215D1*
X2967707Y3427033D1*
X2960371Y3426658D1*
X2953038Y3427095D1*
X2945799Y3428337D1*
X2938741Y3430371D1*
X2931950Y3433170D1*
X2925509Y3436702D1*
X2919497Y3440922D1*
X2913988Y3445780D1*
X2909048Y3451216D1*
X2904737Y3457164D1*
X2901109Y3463550D1*
X2898207Y3470298D1*
X2896068Y3477325D1*
X2894717Y3484545D1*
X2894170Y3491870D1*
X2894434Y3499211D1*
X2895507Y3506477D1*
X2897374Y3513581D1*
X2900014Y3520436D1*
X2903394Y3526957D1*
X2907472Y3533067D1*
X2912200Y3538689D1*
X2917518Y3543755D1*
X2923363Y3548203D1*
X2929663Y3551980D1*
X2936341Y3555039D1*
X2943316Y3557343D1*
X2950502Y3558863D1*
X2957812Y3559581D1*
X2965157Y3559489D1*
X2972447Y3558587D1*
X2979593Y3556886D1*
X2986507Y3554408D1*
X2993106Y3551182D1*
X2999309Y3547248D1*
X3005041Y3542654D1*
X3010230Y3537455D1*
X3014814Y3531716D1*
X3018738Y3525506D1*
X3021952Y3518902D1*
X3024419Y3511983D1*
X3026107Y3504834D1*
X3026996Y3497543D1*
X3027116Y3491313D1*
X3176937Y3487933D2*
X3175305Y3477627D1*
X3172080Y3467704D1*
X3167343Y3458408D1*
X3161211Y3449966D1*
X3153833Y3442589D1*
X3145392Y3436456D1*
X3136095Y3431719D1*
X3126172Y3428495D1*
X3115867Y3426862D1*
X3105433D1*
X3095127Y3428495D1*
X3085204Y3431719D1*
X3075908Y3436456D1*
X3067466Y3442589D1*
X3060089Y3449966D1*
X3053956Y3458408D1*
X3049219Y3467704D1*
X3045995Y3477627D1*
X3044362Y3487933D1*
Y3498367D1*
X3045995Y3508672D1*
X3049219Y3518595D1*
X3053956Y3527892D1*
X3060089Y3536333D1*
X3067466Y3543711D1*
X3075908Y3549843D1*
X3085204Y3554580D1*
X3095127Y3557805D1*
X3105433Y3559437D1*
X3115867D1*
X3126172Y3557805D1*
X3136095Y3554580D1*
X3145392Y3549843D1*
X3153833Y3543711D1*
X3161211Y3536333D1*
X3167343Y3527892D1*
X3172080Y3518595D1*
X3175305Y3508672D1*
X3176937Y3498367D1*
Y3487933D1*
X3514616Y3491313D2*
X3514008Y3483992D1*
X3512596Y3476784D1*
X3510398Y3469775D1*
X3507440Y3463052D1*
X3503758Y3456696D1*
X3499398Y3450785D1*
X3494413Y3445390D1*
X3488862Y3440579D1*
X3482815Y3436409D1*
X3476345Y3432932D1*
X3469531Y3430189D1*
X3462456Y3428215D1*
X3455207Y3427033D1*
X3447871Y3426658D1*
X3440538Y3427095D1*
X3433299Y3428337D1*
X3426241Y3430371D1*
X3419450Y3433170D1*
X3413009Y3436702D1*
X3406997Y3440922D1*
X3401488Y3445780D1*
X3396548Y3451216D1*
X3392237Y3457164D1*
X3388609Y3463550D1*
X3385707Y3470298D1*
X3383568Y3477325D1*
X3382217Y3484545D1*
X3381670Y3491870D1*
X3381934Y3499211D1*
X3383007Y3506477D1*
X3384874Y3513581D1*
X3387514Y3520436D1*
X3390894Y3526957D1*
X3394972Y3533067D1*
X3399700Y3538689D1*
X3405018Y3543755D1*
X3410863Y3548203D1*
X3417163Y3551980D1*
X3423841Y3555039D1*
X3430816Y3557343D1*
X3438002Y3558863D1*
X3445312Y3559581D1*
X3452657Y3559489D1*
X3459947Y3558587D1*
X3467093Y3556886D1*
X3474007Y3554408D1*
X3480606Y3551182D1*
X3486809Y3547248D1*
X3492541Y3542654D1*
X3497730Y3537455D1*
X3502314Y3531716D1*
X3506238Y3525506D1*
X3509452Y3518902D1*
X3511919Y3511983D1*
X3513607Y3504834D1*
X3514496Y3497543D1*
X3514616Y3491313D1*
X3664437Y3487933D2*
X3662805Y3477627D1*
X3659580Y3467704D1*
X3654843Y3458408D1*
X3648711Y3449966D1*
X3641333Y3442589D1*
X3632892Y3436456D1*
X3623595Y3431719D1*
X3613672Y3428495D1*
X3603367Y3426862D1*
X3592933D1*
X3582627Y3428495D1*
X3572704Y3431719D1*
X3563408Y3436456D1*
X3554966Y3442589D1*
X3547589Y3449966D1*
X3541456Y3458408D1*
X3536719Y3467704D1*
X3533495Y3477627D1*
X3531862Y3487933D1*
Y3498367D1*
X3533495Y3508672D1*
X3536719Y3518595D1*
X3541456Y3527892D1*
X3547589Y3536333D1*
X3554966Y3543711D1*
X3563408Y3549843D1*
X3572704Y3554580D1*
X3582627Y3557805D1*
X3592933Y3559437D1*
X3603367D1*
X3613672Y3557805D1*
X3623595Y3554580D1*
X3632892Y3549843D1*
X3641333Y3543711D1*
X3648711Y3536333D1*
X3654843Y3527892D1*
X3659580Y3518595D1*
X3662805Y3508672D1*
X3664437Y3498367D1*
Y3487933D1*
X4002116Y3491313D2*
X4001508Y3483992D1*
X4000096Y3476784D1*
X3997898Y3469775D1*
X3994940Y3463052D1*
X3991258Y3456696D1*
X3986898Y3450785D1*
X3981913Y3445390D1*
X3976362Y3440579D1*
X3970315Y3436409D1*
X3963845Y3432932D1*
X3957031Y3430189D1*
X3949956Y3428215D1*
X3942707Y3427033D1*
X3935371Y3426658D1*
X3928038Y3427095D1*
X3920799Y3428337D1*
X3913741Y3430371D1*
X3906950Y3433170D1*
X3900509Y3436702D1*
X3894497Y3440922D1*
X3888988Y3445780D1*
X3884048Y3451216D1*
X3879737Y3457164D1*
X3876109Y3463550D1*
X3873207Y3470298D1*
X3871068Y3477325D1*
X3869717Y3484545D1*
X3869170Y3491870D1*
X3869434Y3499211D1*
X3870507Y3506477D1*
X3872374Y3513581D1*
X3875014Y3520436D1*
X3878394Y3526957D1*
X3882472Y3533067D1*
X3887200Y3538689D1*
X3892518Y3543755D1*
X3898363Y3548203D1*
X3904663Y3551980D1*
X3911341Y3555039D1*
X3918316Y3557343D1*
X3925502Y3558863D1*
X3932812Y3559581D1*
X3940157Y3559489D1*
X3947447Y3558587D1*
X3954593Y3556886D1*
X3961507Y3554408D1*
X3968106Y3551182D1*
X3974309Y3547248D1*
X3980041Y3542654D1*
X3985230Y3537455D1*
X3989814Y3531716D1*
X3993738Y3525506D1*
X3996952Y3518902D1*
X3999419Y3511983D1*
X4001107Y3504834D1*
X4001996Y3497543D1*
X4002116Y3491313D1*
X4151937Y3487933D2*
X4150305Y3477627D1*
X4147080Y3467704D1*
X4142343Y3458408D1*
X4136211Y3449966D1*
X4128833Y3442589D1*
X4120392Y3436456D1*
X4111095Y3431719D1*
X4101172Y3428495D1*
X4090867Y3426862D1*
X4080433D1*
X4070127Y3428495D1*
X4060204Y3431719D1*
X4050908Y3436456D1*
X4042466Y3442589D1*
X4035089Y3449966D1*
X4028956Y3458408D1*
X4024219Y3467704D1*
X4020995Y3477627D1*
X4019362Y3487933D1*
Y3498367D1*
X4020995Y3508672D1*
X4024219Y3518595D1*
X4028956Y3527892D1*
X4035089Y3536333D1*
X4042466Y3543711D1*
X4050908Y3549843D1*
X4060204Y3554580D1*
X4070127Y3557805D1*
X4080433Y3559437D1*
X4090867D1*
X4101172Y3557805D1*
X4111095Y3554580D1*
X4120392Y3549843D1*
X4128833Y3543711D1*
X4136211Y3536333D1*
X4142343Y3527892D1*
X4147080Y3518595D1*
X4150305Y3508672D1*
X4151937Y3498367D1*
Y3487933D1*
X4489616Y3491313D2*
X4489008Y3483992D1*
X4487596Y3476784D1*
X4485398Y3469775D1*
X4482440Y3463052D1*
X4478758Y3456696D1*
X4474398Y3450785D1*
X4469413Y3445390D1*
X4463862Y3440579D1*
X4457815Y3436409D1*
X4451345Y3432932D1*
X4444531Y3430189D1*
X4437456Y3428215D1*
X4430207Y3427033D1*
X4422871Y3426658D1*
X4415538Y3427095D1*
X4408299Y3428337D1*
X4401241Y3430371D1*
X4394450Y3433170D1*
X4388009Y3436702D1*
X4381997Y3440922D1*
X4376488Y3445780D1*
X4371548Y3451216D1*
X4367237Y3457164D1*
X4363609Y3463550D1*
X4360707Y3470298D1*
X4358568Y3477325D1*
X4357217Y3484545D1*
X4356670Y3491870D1*
X4356934Y3499211D1*
X4358007Y3506477D1*
X4359874Y3513581D1*
X4362514Y3520436D1*
X4365894Y3526957D1*
X4369972Y3533067D1*
X4374700Y3538689D1*
X4380018Y3543755D1*
X4385863Y3548203D1*
X4392163Y3551980D1*
X4398841Y3555039D1*
X4405816Y3557343D1*
X4413002Y3558863D1*
X4420312Y3559581D1*
X4427657Y3559489D1*
X4434947Y3558587D1*
X4442093Y3556886D1*
X4449007Y3554408D1*
X4455606Y3551182D1*
X4461809Y3547248D1*
X4467541Y3542654D1*
X4472730Y3537455D1*
X4477314Y3531716D1*
X4481238Y3525506D1*
X4484452Y3518902D1*
X4486919Y3511983D1*
X4488607Y3504834D1*
X4489496Y3497543D1*
X4489616Y3491313D1*
X4639437Y3487933D2*
X4637805Y3477627D1*
X4634580Y3467704D1*
X4629843Y3458408D1*
X4623711Y3449966D1*
X4616333Y3442589D1*
X4607892Y3436456D1*
X4598595Y3431719D1*
X4588672Y3428495D1*
X4578367Y3426862D1*
X4567933D1*
X4557627Y3428495D1*
X4547704Y3431719D1*
X4538408Y3436456D1*
X4529966Y3442589D1*
X4522589Y3449966D1*
X4516456Y3458408D1*
X4511719Y3467704D1*
X4508495Y3477627D1*
X4506862Y3487933D1*
Y3498367D1*
X4508495Y3508672D1*
X4511719Y3518595D1*
X4516456Y3527892D1*
X4522589Y3536333D1*
X4529966Y3543711D1*
X4538408Y3549843D1*
X4547704Y3554580D1*
X4557627Y3557805D1*
X4567933Y3559437D1*
X4578367D1*
X4588672Y3557805D1*
X4598595Y3554580D1*
X4607892Y3549843D1*
X4616333Y3543711D1*
X4623711Y3536333D1*
X4629843Y3527892D1*
X4634580Y3518595D1*
X4637805Y3508672D1*
X4639437Y3498367D1*
Y3487933D1*
X1227097Y679659D2*
X1226488Y672339D1*
X1225077Y665131D1*
X1222878Y658122D1*
X1219920Y651398D1*
X1216239Y645042D1*
X1211878Y639131D1*
X1206893Y633737D1*
X1201343Y628925D1*
X1195296Y624756D1*
X1188826Y621278D1*
X1182012Y618536D1*
X1174937Y616561D1*
X1167687Y615379D1*
X1160351Y615005D1*
X1153019Y615441D1*
X1145779Y616684D1*
X1138721Y618717D1*
X1131930Y621517D1*
X1125489Y625048D1*
X1119478Y629269D1*
X1113968Y634127D1*
X1109028Y639562D1*
X1104717Y645510D1*
X1101089Y651897D1*
X1098188Y658645D1*
X1096048Y665672D1*
X1094697Y672892D1*
X1094150Y680217D1*
X1094415Y687557D1*
X1095487Y694824D1*
X1097355Y701928D1*
X1099994Y708782D1*
X1103374Y715304D1*
X1107452Y721413D1*
X1112180Y727035D1*
X1117498Y732101D1*
X1123343Y736550D1*
X1129643Y740327D1*
X1136321Y743386D1*
X1143296Y745689D1*
X1150483Y747209D1*
X1157793Y747928D1*
X1165137Y747835D1*
X1172427Y746933D1*
X1179573Y745233D1*
X1186488Y742754D1*
X1193087Y739528D1*
X1199290Y735594D1*
X1205021Y731000D1*
X1210210Y725802D1*
X1214795Y720063D1*
X1218718Y713853D1*
X1221933Y707248D1*
X1224399Y700329D1*
X1226087Y693181D1*
X1226977Y685889D1*
X1227097Y679659D1*
X1076917Y676279D2*
X1075285Y665974D1*
X1072061Y656051D1*
X1067324Y646754D1*
X1061191Y638313D1*
X1053813Y630935D1*
X1045372Y624802D1*
X1036075Y620065D1*
X1026152Y616841D1*
X1015847Y615209D1*
X1005413D1*
X995108Y616841D1*
X985184Y620065D1*
X975888Y624802D1*
X967447Y630935D1*
X960069Y638313D1*
X953936Y646754D1*
X949199Y656051D1*
X945975Y665974D1*
X944343Y676279D1*
Y686713D1*
X945975Y697018D1*
X949199Y706941D1*
X953936Y716238D1*
X960069Y724679D1*
X967447Y732057D1*
X975888Y738190D1*
X985184Y742927D1*
X995108Y746151D1*
X1005413Y747783D1*
X1015847D1*
X1026152Y746151D1*
X1036075Y742927D1*
X1045372Y738190D1*
X1053813Y732057D1*
X1061191Y724679D1*
X1067324Y716238D1*
X1072061Y706941D1*
X1075285Y697018D1*
X1076917Y686713D1*
Y676279D1*
X1714616Y679659D2*
X1714008Y672339D1*
X1712596Y665131D1*
X1710398Y658122D1*
X1707440Y651398D1*
X1703758Y645042D1*
X1699398Y639131D1*
X1694413Y633737D1*
X1688862Y628925D1*
X1682815Y624756D1*
X1676345Y621278D1*
X1669531Y618536D1*
X1662456Y616561D1*
X1655207Y615379D1*
X1647871Y615005D1*
X1640538Y615441D1*
X1633299Y616684D1*
X1626241Y618717D1*
X1619450Y621517D1*
X1613009Y625048D1*
X1606997Y629269D1*
X1601488Y634127D1*
X1596548Y639562D1*
X1592237Y645510D1*
X1588609Y651897D1*
X1585707Y658645D1*
X1583568Y665672D1*
X1582217Y672892D1*
X1581670Y680217D1*
X1581934Y687557D1*
X1583007Y694824D1*
X1584874Y701928D1*
X1587514Y708782D1*
X1590894Y715304D1*
X1594972Y721413D1*
X1599700Y727035D1*
X1605018Y732101D1*
X1610863Y736550D1*
X1617163Y740327D1*
X1623841Y743386D1*
X1630816Y745689D1*
X1638002Y747209D1*
X1645312Y747928D1*
X1652657Y747835D1*
X1659947Y746933D1*
X1667093Y745233D1*
X1674007Y742754D1*
X1680606Y739528D1*
X1686809Y735594D1*
X1692541Y731000D1*
X1697730Y725802D1*
X1702314Y720063D1*
X1706238Y713853D1*
X1709452Y707248D1*
X1711919Y700329D1*
X1713607Y693181D1*
X1714496Y685889D1*
X1714616Y679659D1*
X1564437Y676279D2*
X1562805Y665974D1*
X1559580Y656051D1*
X1554843Y646754D1*
X1548711Y638313D1*
X1541333Y630935D1*
X1532892Y624802D1*
X1523595Y620065D1*
X1513672Y616841D1*
X1503367Y615209D1*
X1492933D1*
X1482627Y616841D1*
X1472704Y620065D1*
X1463408Y624802D1*
X1454966Y630935D1*
X1447589Y638313D1*
X1441456Y646754D1*
X1436719Y656051D1*
X1433495Y665974D1*
X1431862Y676279D1*
Y686713D1*
X1433495Y697018D1*
X1436719Y706941D1*
X1441456Y716238D1*
X1447589Y724679D1*
X1454966Y732057D1*
X1463408Y738190D1*
X1472704Y742927D1*
X1482627Y746151D1*
X1492933Y747783D1*
X1503367D1*
X1513672Y746151D1*
X1523595Y742927D1*
X1532892Y738190D1*
X1541333Y732057D1*
X1548711Y724679D1*
X1554843Y716238D1*
X1559580Y706941D1*
X1562805Y697018D1*
X1564437Y686713D1*
Y676279D1*
X2204223Y679659D2*
X2203614Y672339D1*
X2202203Y665131D1*
X2200004Y658122D1*
X2197046Y651398D1*
X2193365Y645042D1*
X2189004Y639131D1*
X2184019Y633737D1*
X2178469Y628925D1*
X2172422Y624756D1*
X2165952Y621278D1*
X2159138Y618536D1*
X2152062Y616561D1*
X2144813Y615379D1*
X2137477Y615005D1*
X2130145Y615441D1*
X2122905Y616684D1*
X2115847Y618717D1*
X2109056Y621517D1*
X2102615Y625048D1*
X2096604Y629269D1*
X2091094Y634127D1*
X2086154Y639562D1*
X2081843Y645510D1*
X2078215Y651897D1*
X2075314Y658645D1*
X2073174Y665672D1*
X2071823Y672892D1*
X2071276Y680217D1*
X2071541Y687557D1*
X2072613Y694824D1*
X2074481Y701928D1*
X2077120Y708782D1*
X2080500Y715304D1*
X2084578Y721413D1*
X2089306Y727035D1*
X2094624Y732101D1*
X2100469Y736550D1*
X2106769Y740327D1*
X2113447Y743386D1*
X2120422Y745689D1*
X2127609Y747209D1*
X2134919Y747928D1*
X2142263Y747835D1*
X2149553Y746933D1*
X2156699Y745233D1*
X2163614Y742754D1*
X2170213Y739528D1*
X2176416Y735594D1*
X2182147Y731000D1*
X2187336Y725802D1*
X2191921Y720063D1*
X2195844Y713853D1*
X2199059Y707248D1*
X2201525Y700329D1*
X2203213Y693181D1*
X2204103Y685889D1*
X2204223Y679659D1*
X2054043Y676279D2*
X2052411Y665974D1*
X2049187Y656051D1*
X2044450Y646754D1*
X2038317Y638313D1*
X2030939Y630935D1*
X2022498Y624802D1*
X2013201Y620065D1*
X2003278Y616841D1*
X1992973Y615209D1*
X1982539D1*
X1972234Y616841D1*
X1962310Y620065D1*
X1953014Y624802D1*
X1944573Y630935D1*
X1937195Y638313D1*
X1931062Y646754D1*
X1926325Y656051D1*
X1923101Y665974D1*
X1921469Y676279D1*
Y686713D1*
X1923101Y697018D1*
X1926325Y706941D1*
X1931062Y716238D1*
X1937195Y724679D1*
X1944573Y732057D1*
X1953014Y738190D1*
X1962310Y742927D1*
X1972234Y746151D1*
X1982539Y747783D1*
X1992973D1*
X2003278Y746151D1*
X2013201Y742927D1*
X2022498Y738190D1*
X2030939Y732057D1*
X2038317Y724679D1*
X2044450Y716238D1*
X2049187Y706941D1*
X2052411Y697018D1*
X2054043Y686713D1*
Y676279D1*
X2689616Y679659D2*
X2689008Y672339D1*
X2687596Y665131D1*
X2685398Y658122D1*
X2682440Y651398D1*
X2678758Y645042D1*
X2674398Y639131D1*
X2669413Y633737D1*
X2663862Y628925D1*
X2657815Y624756D1*
X2651345Y621278D1*
X2644531Y618536D1*
X2637456Y616561D1*
X2630207Y615379D1*
X2622871Y615005D1*
X2615538Y615441D1*
X2608299Y616684D1*
X2601241Y618717D1*
X2594450Y621517D1*
X2588009Y625048D1*
X2581997Y629269D1*
X2576488Y634127D1*
X2571548Y639562D1*
X2567237Y645510D1*
X2563609Y651897D1*
X2560707Y658645D1*
X2558568Y665672D1*
X2557217Y672892D1*
X2556670Y680217D1*
X2556934Y687557D1*
X2558007Y694824D1*
X2559874Y701928D1*
X2562514Y708782D1*
X2565894Y715304D1*
X2569972Y721413D1*
X2574700Y727035D1*
X2580018Y732101D1*
X2585863Y736550D1*
X2592163Y740327D1*
X2598841Y743386D1*
X2605816Y745689D1*
X2613002Y747209D1*
X2620312Y747928D1*
X2627657Y747835D1*
X2634947Y746933D1*
X2642093Y745233D1*
X2649007Y742754D1*
X2655606Y739528D1*
X2661809Y735594D1*
X2667541Y731000D1*
X2672730Y725802D1*
X2677314Y720063D1*
X2681238Y713853D1*
X2684452Y707248D1*
X2686919Y700329D1*
X2688607Y693181D1*
X2689496Y685889D1*
X2689616Y679659D1*
X2539437Y676279D2*
X2537805Y665974D1*
X2534580Y656051D1*
X2529843Y646754D1*
X2523711Y638313D1*
X2516333Y630935D1*
X2507892Y624802D1*
X2498595Y620065D1*
X2488672Y616841D1*
X2478367Y615209D1*
X2467933D1*
X2457627Y616841D1*
X2447704Y620065D1*
X2438408Y624802D1*
X2429966Y630935D1*
X2422589Y638313D1*
X2416456Y646754D1*
X2411719Y656051D1*
X2408495Y665974D1*
X2406862Y676279D1*
Y686713D1*
X2408495Y697018D1*
X2411719Y706941D1*
X2416456Y716238D1*
X2422589Y724679D1*
X2429966Y732057D1*
X2438408Y738190D1*
X2447704Y742927D1*
X2457627Y746151D1*
X2467933Y747783D1*
X2478367D1*
X2488672Y746151D1*
X2498595Y742927D1*
X2507892Y738190D1*
X2516333Y732057D1*
X2523711Y724679D1*
X2529843Y716238D1*
X2534580Y706941D1*
X2537805Y697018D1*
X2539437Y686713D1*
Y676279D1*
X3177097Y679659D2*
X3176488Y672339D1*
X3175077Y665131D1*
X3172878Y658122D1*
X3169920Y651398D1*
X3166239Y645042D1*
X3161878Y639131D1*
X3156893Y633737D1*
X3151343Y628925D1*
X3145296Y624756D1*
X3138826Y621278D1*
X3132012Y618536D1*
X3124937Y616561D1*
X3117687Y615379D1*
X3110351Y615005D1*
X3103019Y615441D1*
X3095779Y616684D1*
X3088721Y618717D1*
X3081930Y621517D1*
X3075489Y625048D1*
X3069478Y629269D1*
X3063968Y634127D1*
X3059028Y639562D1*
X3054717Y645510D1*
X3051089Y651897D1*
X3048188Y658645D1*
X3046048Y665672D1*
X3044697Y672892D1*
X3044150Y680217D1*
X3044415Y687557D1*
X3045487Y694824D1*
X3047355Y701928D1*
X3049994Y708782D1*
X3053374Y715304D1*
X3057452Y721413D1*
X3062180Y727035D1*
X3067498Y732101D1*
X3073343Y736550D1*
X3079643Y740327D1*
X3086321Y743386D1*
X3093296Y745689D1*
X3100483Y747209D1*
X3107793Y747928D1*
X3115137Y747835D1*
X3122427Y746933D1*
X3129573Y745233D1*
X3136488Y742754D1*
X3143087Y739528D1*
X3149290Y735594D1*
X3155021Y731000D1*
X3160210Y725802D1*
X3164795Y720063D1*
X3168718Y713853D1*
X3171933Y707248D1*
X3174399Y700329D1*
X3176087Y693181D1*
X3176977Y685889D1*
X3177097Y679659D1*
X3026917Y676279D2*
X3025285Y665974D1*
X3022061Y656051D1*
X3017324Y646754D1*
X3011191Y638313D1*
X3003813Y630935D1*
X2995372Y624802D1*
X2986075Y620065D1*
X2976152Y616841D1*
X2965847Y615209D1*
X2955413D1*
X2945108Y616841D1*
X2935184Y620065D1*
X2925888Y624802D1*
X2917447Y630935D1*
X2910069Y638313D1*
X2903936Y646754D1*
X2899199Y656051D1*
X2895975Y665974D1*
X2894343Y676279D1*
Y686713D1*
X2895975Y697018D1*
X2899199Y706941D1*
X2903936Y716238D1*
X2910069Y724679D1*
X2917447Y732057D1*
X2925888Y738190D1*
X2935184Y742927D1*
X2945108Y746151D1*
X2955413Y747783D1*
X2965847D1*
X2976152Y746151D1*
X2986075Y742927D1*
X2995372Y738190D1*
X3003813Y732057D1*
X3011191Y724679D1*
X3017324Y716238D1*
X3022061Y706941D1*
X3025285Y697018D1*
X3026917Y686713D1*
Y676279D1*
X3664616Y679659D2*
X3664008Y672339D1*
X3662596Y665131D1*
X3660398Y658122D1*
X3657440Y651398D1*
X3653758Y645042D1*
X3649398Y639131D1*
X3644413Y633737D1*
X3638862Y628925D1*
X3632815Y624756D1*
X3626345Y621278D1*
X3619531Y618536D1*
X3612456Y616561D1*
X3605207Y615379D1*
X3597871Y615005D1*
X3590538Y615441D1*
X3583299Y616684D1*
X3576241Y618717D1*
X3569450Y621517D1*
X3563009Y625048D1*
X3556997Y629269D1*
X3551488Y634127D1*
X3546548Y639562D1*
X3542237Y645510D1*
X3538609Y651897D1*
X3535707Y658645D1*
X3533568Y665672D1*
X3532217Y672892D1*
X3531670Y680217D1*
X3531934Y687557D1*
X3533007Y694824D1*
X3534874Y701928D1*
X3537514Y708782D1*
X3540894Y715304D1*
X3544972Y721413D1*
X3549700Y727035D1*
X3555018Y732101D1*
X3560863Y736550D1*
X3567163Y740327D1*
X3573841Y743386D1*
X3580816Y745689D1*
X3588002Y747209D1*
X3595312Y747928D1*
X3602657Y747835D1*
X3609947Y746933D1*
X3617093Y745233D1*
X3624007Y742754D1*
X3630606Y739528D1*
X3636809Y735594D1*
X3642541Y731000D1*
X3647730Y725802D1*
X3652314Y720063D1*
X3656238Y713853D1*
X3659452Y707248D1*
X3661919Y700329D1*
X3663607Y693181D1*
X3664496Y685889D1*
X3664616Y679659D1*
X3514437Y676279D2*
X3512805Y665974D1*
X3509580Y656051D1*
X3504843Y646754D1*
X3498711Y638313D1*
X3491333Y630935D1*
X3482892Y624802D1*
X3473595Y620065D1*
X3463672Y616841D1*
X3453367Y615209D1*
X3442933D1*
X3432627Y616841D1*
X3422704Y620065D1*
X3413408Y624802D1*
X3404966Y630935D1*
X3397589Y638313D1*
X3391456Y646754D1*
X3386719Y656051D1*
X3383495Y665974D1*
X3381862Y676279D1*
Y686713D1*
X3383495Y697018D1*
X3386719Y706941D1*
X3391456Y716238D1*
X3397589Y724679D1*
X3404966Y732057D1*
X3413408Y738190D1*
X3422704Y742927D1*
X3432627Y746151D1*
X3442933Y747783D1*
X3453367D1*
X3463672Y746151D1*
X3473595Y742927D1*
X3482892Y738190D1*
X3491333Y732057D1*
X3498711Y724679D1*
X3504843Y716238D1*
X3509580Y706941D1*
X3512805Y697018D1*
X3514437Y686713D1*
Y676279D1*
X4152097Y679659D2*
X4151488Y672339D1*
X4150077Y665131D1*
X4147878Y658122D1*
X4144920Y651398D1*
X4141239Y645042D1*
X4136878Y639131D1*
X4131893Y633737D1*
X4126343Y628925D1*
X4120296Y624756D1*
X4113826Y621278D1*
X4107012Y618536D1*
X4099937Y616561D1*
X4092687Y615379D1*
X4085351Y615005D1*
X4078019Y615441D1*
X4070779Y616684D1*
X4063721Y618717D1*
X4056930Y621517D1*
X4050489Y625048D1*
X4044478Y629269D1*
X4038968Y634127D1*
X4034028Y639562D1*
X4029717Y645510D1*
X4026089Y651897D1*
X4023188Y658645D1*
X4021048Y665672D1*
X4019697Y672892D1*
X4019150Y680217D1*
X4019415Y687557D1*
X4020487Y694824D1*
X4022355Y701928D1*
X4024994Y708782D1*
X4028374Y715304D1*
X4032452Y721413D1*
X4037180Y727035D1*
X4042498Y732101D1*
X4048343Y736550D1*
X4054643Y740327D1*
X4061321Y743386D1*
X4068296Y745689D1*
X4075483Y747209D1*
X4082793Y747928D1*
X4090137Y747835D1*
X4097427Y746933D1*
X4104573Y745233D1*
X4111488Y742754D1*
X4118087Y739528D1*
X4124290Y735594D1*
X4130021Y731000D1*
X4135210Y725802D1*
X4139795Y720063D1*
X4143718Y713853D1*
X4146933Y707248D1*
X4149399Y700329D1*
X4151087Y693181D1*
X4151977Y685889D1*
X4152097Y679659D1*
X4001917Y676279D2*
X4000285Y665974D1*
X3997061Y656051D1*
X3992324Y646754D1*
X3986191Y638313D1*
X3978813Y630935D1*
X3970372Y624802D1*
X3961075Y620065D1*
X3951152Y616841D1*
X3940847Y615209D1*
X3930413D1*
X3920108Y616841D1*
X3910184Y620065D1*
X3900888Y624802D1*
X3892447Y630935D1*
X3885069Y638313D1*
X3878936Y646754D1*
X3874199Y656051D1*
X3870975Y665974D1*
X3869343Y676279D1*
Y686713D1*
X3870975Y697018D1*
X3874199Y706941D1*
X3878936Y716238D1*
X3885069Y724679D1*
X3892447Y732057D1*
X3900888Y738190D1*
X3910184Y742927D1*
X3920108Y746151D1*
X3930413Y747783D1*
X3940847D1*
X3951152Y746151D1*
X3961075Y742927D1*
X3970372Y738190D1*
X3978813Y732057D1*
X3986191Y724679D1*
X3992324Y716238D1*
X3997061Y706941D1*
X4000285Y697018D1*
X4001917Y686713D1*
Y676279D1*
X4639616Y679659D2*
X4639008Y672339D1*
X4637596Y665131D1*
X4635398Y658122D1*
X4632440Y651398D1*
X4628758Y645042D1*
X4624398Y639131D1*
X4619413Y633737D1*
X4613862Y628925D1*
X4607815Y624756D1*
X4601345Y621278D1*
X4594531Y618536D1*
X4587456Y616561D1*
X4580207Y615379D1*
X4572871Y615005D1*
X4565538Y615441D1*
X4558299Y616684D1*
X4551241Y618717D1*
X4544450Y621517D1*
X4538009Y625048D1*
X4531997Y629269D1*
X4526488Y634127D1*
X4521548Y639562D1*
X4517237Y645510D1*
X4513609Y651897D1*
X4510707Y658645D1*
X4508568Y665672D1*
X4507217Y672892D1*
X4506670Y680217D1*
X4506934Y687557D1*
X4508007Y694824D1*
X4509874Y701928D1*
X4512514Y708782D1*
X4515894Y715304D1*
X4519972Y721413D1*
X4524700Y727035D1*
X4530018Y732101D1*
X4535863Y736550D1*
X4542163Y740327D1*
X4548841Y743386D1*
X4555816Y745689D1*
X4563002Y747209D1*
X4570312Y747928D1*
X4577657Y747835D1*
X4584947Y746933D1*
X4592093Y745233D1*
X4599007Y742754D1*
X4605606Y739528D1*
X4611809Y735594D1*
X4617541Y731000D1*
X4622730Y725802D1*
X4627314Y720063D1*
X4631238Y713853D1*
X4634452Y707248D1*
X4636919Y700329D1*
X4638607Y693181D1*
X4639496Y685889D1*
X4639616Y679659D1*
X4489437Y676279D2*
X4487805Y665974D1*
X4484580Y656051D1*
X4479843Y646754D1*
X4473711Y638313D1*
X4466333Y630935D1*
X4457892Y624802D1*
X4448595Y620065D1*
X4438672Y616841D1*
X4428367Y615209D1*
X4417933D1*
X4407627Y616841D1*
X4397704Y620065D1*
X4388408Y624802D1*
X4379966Y630935D1*
X4372589Y638313D1*
X4366456Y646754D1*
X4361719Y656051D1*
X4358495Y665974D1*
X4356862Y676279D1*
Y686713D1*
X4358495Y697018D1*
X4361719Y706941D1*
X4366456Y716238D1*
X4372589Y724679D1*
X4379966Y732057D1*
X4388408Y738190D1*
X4397704Y742927D1*
X4407627Y746151D1*
X4417933Y747783D1*
X4428367D1*
X4438672Y746151D1*
X4448595Y742927D1*
X4457892Y738190D1*
X4466333Y732057D1*
X4473711Y724679D1*
X4479843Y716238D1*
X4484580Y706941D1*
X4487805Y697018D1*
X4489437Y686713D1*
Y676279D1*
X1584706Y2636273D2*
X1583881Y2628978D1*
X1581976Y2621887D1*
X1579033Y2615161D1*
X1575117Y2608950D1*
X1570317Y2603394D1*
X1564740Y2598618D1*
X1558513Y2594728D1*
X1551774Y2591813D1*
X1544676Y2589938D1*
X1537376Y2589145D1*
X1530041Y2589452D1*
X1522833Y2590851D1*
X1515915Y2593312D1*
X1509443Y2596779D1*
X1503562Y2601174D1*
X1498404Y2606399D1*
X1494084Y2612336D1*
X1490700Y2618852D1*
X1488328Y2625800D1*
X1487021Y2633025D1*
X1486808Y2640364D1*
X1487694Y2647653D1*
X1489660Y2654727D1*
X1492661Y2661428D1*
X1496629Y2667605D1*
X1501476Y2673120D1*
X1507093Y2677848D1*
X1513353Y2681684D1*
X1520117Y2684542D1*
X1527231Y2686356D1*
X1534537Y2687087D1*
X1541870Y2686718D1*
X1549065Y2685258D1*
X1555962Y2682738D1*
X1562404Y2679216D1*
X1568248Y2674771D1*
X1573361Y2669502D1*
X1577630Y2663529D1*
X1580959Y2656984D1*
X1583272Y2650016D1*
X1584517Y2642780D1*
X1584706Y2636273D1*
X1486164Y2634266D2*
X1484961Y2626673D1*
X1482586Y2619362D1*
X1479095Y2612512D1*
X1474577Y2606292D1*
X1469141Y2600856D1*
X1462921Y2596338D1*
X1456071Y2592847D1*
X1448760Y2590472D1*
X1441167Y2589269D1*
X1433479D1*
X1425886Y2590472D1*
X1418574Y2592847D1*
X1411725Y2596338D1*
X1405505Y2600856D1*
X1400069Y2606292D1*
X1395550Y2612512D1*
X1392060Y2619362D1*
X1389684Y2626673D1*
X1388482Y2634266D1*
Y2641954D1*
X1389684Y2649547D1*
X1392060Y2656859D1*
X1395550Y2663709D1*
X1400069Y2669928D1*
X1405505Y2675364D1*
X1411725Y2679883D1*
X1418574Y2683373D1*
X1425886Y2685749D1*
X1433479Y2686951D1*
X1441167D1*
X1448760Y2685749D1*
X1456071Y2683373D1*
X1462921Y2679883D1*
X1469141Y2675364D1*
X1474577Y2669928D1*
X1479095Y2663709D1*
X1482586Y2656859D1*
X1484961Y2649547D1*
X1486164Y2641954D1*
Y2634266D1*
X1387739D2*
X1386536Y2626673D1*
X1384160Y2619362D1*
X1380670Y2612512D1*
X1376152Y2606292D1*
X1370715Y2600856D1*
X1364496Y2596338D1*
X1357646Y2592847D1*
X1350335Y2590472D1*
X1342742Y2589269D1*
X1335054D1*
X1327461Y2590472D1*
X1320149Y2592847D1*
X1313299Y2596338D1*
X1307080Y2600856D1*
X1301644Y2606292D1*
X1297125Y2612512D1*
X1293635Y2619362D1*
X1291259Y2626673D1*
X1290057Y2634266D1*
Y2641954D1*
X1291259Y2649547D1*
X1293635Y2656859D1*
X1297125Y2663709D1*
X1301644Y2669928D1*
X1307080Y2675364D1*
X1313299Y2679883D1*
X1320149Y2683373D1*
X1327461Y2685749D1*
X1335054Y2686951D1*
X1342742D1*
X1350335Y2685749D1*
X1357646Y2683373D1*
X1364496Y2679883D1*
X1370715Y2675364D1*
X1376152Y2669928D1*
X1380670Y2663709D1*
X1384160Y2656859D1*
X1386536Y2649547D1*
X1387739Y2641954D1*
Y2634266D1*
X1289314D2*
X1288111Y2626673D1*
X1285735Y2619362D1*
X1282245Y2612512D1*
X1277726Y2606292D1*
X1272290Y2600856D1*
X1266071Y2596338D1*
X1259221Y2592847D1*
X1251909Y2590472D1*
X1244316Y2589269D1*
X1236629D1*
X1229035Y2590472D1*
X1221724Y2592847D1*
X1214874Y2596338D1*
X1208655Y2600856D1*
X1203219Y2606292D1*
X1198700Y2612512D1*
X1195210Y2619362D1*
X1192834Y2626673D1*
X1191631Y2634266D1*
Y2641954D1*
X1192834Y2649547D1*
X1195210Y2656859D1*
X1198700Y2663709D1*
X1203219Y2669928D1*
X1208655Y2675364D1*
X1214874Y2679883D1*
X1221724Y2683373D1*
X1229035Y2685749D1*
X1236629Y2686951D1*
X1244316D1*
X1251909Y2685749D1*
X1259221Y2683373D1*
X1266071Y2679883D1*
X1272290Y2675364D1*
X1277726Y2669928D1*
X1282245Y2663709D1*
X1285735Y2656859D1*
X1288111Y2649547D1*
X1289314Y2641954D1*
Y2634266D1*
X1190888D2*
X1189686Y2626673D1*
X1187310Y2619362D1*
X1183820Y2612512D1*
X1179301Y2606292D1*
X1173865Y2600856D1*
X1167646Y2596338D1*
X1160796Y2592847D1*
X1153484Y2590472D1*
X1145891Y2589269D1*
X1138203D1*
X1130610Y2590472D1*
X1123299Y2592847D1*
X1116449Y2596338D1*
X1110229Y2600856D1*
X1104793Y2606292D1*
X1100275Y2612512D1*
X1096784Y2619362D1*
X1094409Y2626673D1*
X1093206Y2634266D1*
Y2641954D1*
X1094409Y2649547D1*
X1096784Y2656859D1*
X1100275Y2663709D1*
X1104793Y2669928D1*
X1110229Y2675364D1*
X1116449Y2679883D1*
X1123299Y2683373D1*
X1130610Y2685749D1*
X1138203Y2686951D1*
X1145891D1*
X1153484Y2685749D1*
X1160796Y2683373D1*
X1167646Y2679883D1*
X1173865Y2675364D1*
X1179301Y2669928D1*
X1183820Y2663709D1*
X1187310Y2656859D1*
X1189686Y2649547D1*
X1190888Y2641954D1*
Y2634266D1*
X895613D2*
X894410Y2626673D1*
X892034Y2619362D1*
X888544Y2612512D1*
X884026Y2606292D1*
X878589Y2600856D1*
X872370Y2596338D1*
X865520Y2592847D1*
X858209Y2590472D1*
X850616Y2589269D1*
X842928D1*
X835335Y2590472D1*
X828023Y2592847D1*
X821173Y2596338D1*
X814954Y2600856D1*
X809518Y2606292D1*
X804999Y2612512D1*
X801509Y2619362D1*
X799133Y2626673D1*
X797931Y2634266D1*
Y2641954D1*
X799133Y2649547D1*
X801509Y2656859D1*
X804999Y2663709D1*
X809518Y2669928D1*
X814954Y2675364D1*
X821173Y2679883D1*
X828023Y2683373D1*
X835335Y2685749D1*
X842928Y2686951D1*
X850616D1*
X858209Y2685749D1*
X865520Y2683373D1*
X872370Y2679883D1*
X878589Y2675364D1*
X884026Y2669928D1*
X888544Y2663709D1*
X892034Y2656859D1*
X894410Y2649547D1*
X895613Y2641954D1*
Y2634266D1*
X1781440Y1634266D2*
X1780237Y1626673D1*
X1777861Y1619362D1*
X1774371Y1612512D1*
X1769852Y1606292D1*
X1764416Y1600856D1*
X1758197Y1596338D1*
X1751347Y1592847D1*
X1744035Y1590472D1*
X1736442Y1589269D1*
X1728755D1*
X1721161Y1590472D1*
X1713850Y1592847D1*
X1707000Y1596338D1*
X1700781Y1600856D1*
X1695345Y1606292D1*
X1690826Y1612512D1*
X1687336Y1619362D1*
X1684960Y1626673D1*
X1683757Y1634266D1*
Y1641954D1*
X1684960Y1649547D1*
X1687336Y1656859D1*
X1690826Y1663709D1*
X1695345Y1669928D1*
X1700781Y1675364D1*
X1707000Y1679883D1*
X1713850Y1683373D1*
X1721161Y1685749D1*
X1728755Y1686951D1*
X1736442D1*
X1744035Y1685749D1*
X1751347Y1683373D1*
X1758197Y1679883D1*
X1764416Y1675364D1*
X1769852Y1669928D1*
X1774371Y1663709D1*
X1777861Y1656859D1*
X1780237Y1649547D1*
X1781440Y1641954D1*
Y1634266D1*
X1683014D2*
X1681812Y1626673D1*
X1679436Y1619362D1*
X1675946Y1612512D1*
X1671427Y1606292D1*
X1665991Y1600856D1*
X1659772Y1596338D1*
X1652922Y1592847D1*
X1645610Y1590472D1*
X1638017Y1589269D1*
X1630329D1*
X1622736Y1590472D1*
X1615425Y1592847D1*
X1608575Y1596338D1*
X1602355Y1600856D1*
X1596919Y1606292D1*
X1592401Y1612512D1*
X1588910Y1619362D1*
X1586535Y1626673D1*
X1585332Y1634266D1*
Y1641954D1*
X1586535Y1649547D1*
X1588910Y1656859D1*
X1592401Y1663709D1*
X1596919Y1669928D1*
X1602355Y1675364D1*
X1608575Y1679883D1*
X1615425Y1683373D1*
X1622736Y1685749D1*
X1630329Y1686951D1*
X1638017D1*
X1645610Y1685749D1*
X1652922Y1683373D1*
X1659772Y1679883D1*
X1665991Y1675364D1*
X1671427Y1669928D1*
X1675946Y1663709D1*
X1679436Y1656859D1*
X1681812Y1649547D1*
X1683014Y1641954D1*
Y1634266D1*
X1584589D2*
X1583387Y1626673D1*
X1581011Y1619362D1*
X1577521Y1612512D1*
X1573002Y1606292D1*
X1567566Y1600856D1*
X1561346Y1596338D1*
X1554497Y1592847D1*
X1547185Y1590472D1*
X1539592Y1589269D1*
X1531904D1*
X1524311Y1590472D1*
X1517000Y1592847D1*
X1510150Y1596338D1*
X1503930Y1600856D1*
X1498494Y1606292D1*
X1493975Y1612512D1*
X1490485Y1619362D1*
X1488110Y1626673D1*
X1486907Y1634266D1*
Y1641954D1*
X1488110Y1649547D1*
X1490485Y1656859D1*
X1493975Y1663709D1*
X1498494Y1669928D1*
X1503930Y1675364D1*
X1510150Y1679883D1*
X1517000Y1683373D1*
X1524311Y1685749D1*
X1531904Y1686951D1*
X1539592D1*
X1547185Y1685749D1*
X1554497Y1683373D1*
X1561346Y1679883D1*
X1567566Y1675364D1*
X1573002Y1669928D1*
X1577521Y1663709D1*
X1581011Y1656859D1*
X1583387Y1649547D1*
X1584589Y1641954D1*
Y1634266D1*
X1486164D2*
X1484961Y1626673D1*
X1482586Y1619362D1*
X1479095Y1612512D1*
X1474577Y1606292D1*
X1469141Y1600856D1*
X1462921Y1596338D1*
X1456071Y1592847D1*
X1448760Y1590472D1*
X1441167Y1589269D1*
X1433479D1*
X1425886Y1590472D1*
X1418574Y1592847D1*
X1411725Y1596338D1*
X1405505Y1600856D1*
X1400069Y1606292D1*
X1395550Y1612512D1*
X1392060Y1619362D1*
X1389684Y1626673D1*
X1388482Y1634266D1*
Y1641954D1*
X1389684Y1649547D1*
X1392060Y1656859D1*
X1395550Y1663709D1*
X1400069Y1669928D1*
X1405505Y1675364D1*
X1411725Y1679883D1*
X1418574Y1683373D1*
X1425886Y1685749D1*
X1433479Y1686951D1*
X1441167D1*
X1448760Y1685749D1*
X1456071Y1683373D1*
X1462921Y1679883D1*
X1469141Y1675364D1*
X1474577Y1669928D1*
X1479095Y1663709D1*
X1482586Y1656859D1*
X1484961Y1649547D1*
X1486164Y1641954D1*
Y1634266D1*
X1387739D2*
X1386536Y1626673D1*
X1384160Y1619362D1*
X1380670Y1612512D1*
X1376152Y1606292D1*
X1370715Y1600856D1*
X1364496Y1596338D1*
X1357646Y1592847D1*
X1350335Y1590472D1*
X1342742Y1589269D1*
X1335054D1*
X1327461Y1590472D1*
X1320149Y1592847D1*
X1313299Y1596338D1*
X1307080Y1600856D1*
X1301644Y1606292D1*
X1297125Y1612512D1*
X1293635Y1619362D1*
X1291259Y1626673D1*
X1290057Y1634266D1*
Y1641954D1*
X1291259Y1649547D1*
X1293635Y1656859D1*
X1297125Y1663709D1*
X1301644Y1669928D1*
X1307080Y1675364D1*
X1313299Y1679883D1*
X1320149Y1683373D1*
X1327461Y1685749D1*
X1335054Y1686951D1*
X1342742D1*
X1350335Y1685749D1*
X1357646Y1683373D1*
X1364496Y1679883D1*
X1370715Y1675364D1*
X1376152Y1669928D1*
X1380670Y1663709D1*
X1384160Y1656859D1*
X1386536Y1649547D1*
X1387739Y1641954D1*
Y1634266D1*
X1289314D2*
X1288111Y1626673D1*
X1285735Y1619362D1*
X1282245Y1612512D1*
X1277726Y1606292D1*
X1272290Y1600856D1*
X1266071Y1596338D1*
X1259221Y1592847D1*
X1251909Y1590472D1*
X1244316Y1589269D1*
X1236629D1*
X1229035Y1590472D1*
X1221724Y1592847D1*
X1214874Y1596338D1*
X1208655Y1600856D1*
X1203219Y1606292D1*
X1198700Y1612512D1*
X1195210Y1619362D1*
X1192834Y1626673D1*
X1191631Y1634266D1*
Y1641954D1*
X1192834Y1649547D1*
X1195210Y1656859D1*
X1198700Y1663709D1*
X1203219Y1669928D1*
X1208655Y1675364D1*
X1214874Y1679883D1*
X1221724Y1683373D1*
X1229035Y1685749D1*
X1236629Y1686951D1*
X1244316D1*
X1251909Y1685749D1*
X1259221Y1683373D1*
X1266071Y1679883D1*
X1272290Y1675364D1*
X1277726Y1669928D1*
X1282245Y1663709D1*
X1285735Y1656859D1*
X1288111Y1649547D1*
X1289314Y1641954D1*
Y1634266D1*
X1190888D2*
X1189686Y1626673D1*
X1187310Y1619362D1*
X1183820Y1612512D1*
X1179301Y1606292D1*
X1173865Y1600856D1*
X1167646Y1596338D1*
X1160796Y1592847D1*
X1153484Y1590472D1*
X1145891Y1589269D1*
X1138203D1*
X1130610Y1590472D1*
X1123299Y1592847D1*
X1116449Y1596338D1*
X1110229Y1600856D1*
X1104793Y1606292D1*
X1100275Y1612512D1*
X1096784Y1619362D1*
X1094409Y1626673D1*
X1093206Y1634266D1*
Y1641954D1*
X1094409Y1649547D1*
X1096784Y1656859D1*
X1100275Y1663709D1*
X1104793Y1669928D1*
X1110229Y1675364D1*
X1116449Y1679883D1*
X1123299Y1683373D1*
X1130610Y1685749D1*
X1138203Y1686951D1*
X1145891D1*
X1153484Y1685749D1*
X1160796Y1683373D1*
X1167646Y1679883D1*
X1173865Y1675364D1*
X1179301Y1669928D1*
X1183820Y1663709D1*
X1187310Y1656859D1*
X1189686Y1649547D1*
X1190888Y1641954D1*
Y1634266D1*
X1092463D2*
X1091261Y1626673D1*
X1088885Y1619362D1*
X1085395Y1612512D1*
X1080876Y1606292D1*
X1075440Y1600856D1*
X1069220Y1596338D1*
X1062371Y1592847D1*
X1055059Y1590472D1*
X1047466Y1589269D1*
X1039778D1*
X1032185Y1590472D1*
X1024874Y1592847D1*
X1018024Y1596338D1*
X1011804Y1600856D1*
X1006368Y1606292D1*
X1001849Y1612512D1*
X998359Y1619362D1*
X995984Y1626673D1*
X994781Y1634266D1*
Y1641954D1*
X995984Y1649547D1*
X998359Y1656859D1*
X1001849Y1663709D1*
X1006368Y1669928D1*
X1011804Y1675364D1*
X1018024Y1679883D1*
X1024874Y1683373D1*
X1032185Y1685749D1*
X1039778Y1686951D1*
X1047466D1*
X1055059Y1685749D1*
X1062371Y1683373D1*
X1069220Y1679883D1*
X1075440Y1675364D1*
X1080876Y1669928D1*
X1085395Y1663709D1*
X1088885Y1656859D1*
X1091261Y1649547D1*
X1092463Y1641954D1*
Y1634266D1*
X642586Y3654563D2*
X641743Y3647439D1*
X640343Y3640402D1*
X638395Y3633497D1*
X635912Y3626766D1*
X632909Y3620251D1*
X629403Y3613991D1*
X625417Y3608026D1*
X620975Y3602391D1*
X616105Y3597123D1*
X610837Y3592253D1*
X605203Y3587811D1*
X599237Y3583825D1*
X592978Y3580320D1*
X586462Y3577316D1*
X579731Y3574833D1*
X572826Y3572885D1*
X565790Y3571486D1*
X558665Y3570643D1*
X551496Y3570361D1*
X544327Y3570643D1*
X537202Y3571486D1*
X530166Y3572885D1*
X523261Y3574833D1*
X516530Y3577316D1*
X510014Y3580320D1*
X503755Y3583825D1*
X497789Y3587811D1*
X492155Y3592253D1*
X486887Y3597123D1*
X482017Y3602391D1*
X477575Y3608026D1*
X473589Y3613991D1*
X470084Y3620251D1*
X467080Y3626766D1*
X464597Y3633497D1*
X462649Y3640402D1*
X461250Y3647439D1*
X460406Y3654563D1*
X460125Y3661732D1*
X460406Y3668901D1*
X461250Y3676026D1*
X462649Y3683063D1*
X464597Y3689968D1*
X467080Y3696699D1*
X470084Y3703214D1*
X473589Y3709474D1*
X477575Y3715439D1*
X482017Y3721073D1*
X486887Y3726342D1*
X492155Y3731212D1*
X497789Y3735653D1*
X503755Y3739639D1*
X511923Y3744025D1*
X425306Y3744016D1*
X431492Y425236D1*
X523116Y425267D1*
X516530Y427710D1*
X510014Y430713D1*
X503755Y434219D1*
X497789Y438205D1*
X492155Y442647D1*
X486887Y447517D1*
X482017Y452785D1*
X477575Y458419D1*
X473589Y464385D1*
X470084Y470644D1*
X467080Y477160D1*
X464597Y483891D1*
X462649Y490796D1*
X461250Y497832D1*
X460406Y504957D1*
X460125Y512126D1*
X460406Y519295D1*
X461250Y526420D1*
X462649Y533456D1*
X464597Y540361D1*
X467080Y547092D1*
X470084Y553608D1*
X473589Y559867D1*
X477575Y565833D1*
X482017Y571467D1*
X486887Y576735D1*
X492155Y581605D1*
X497789Y586047D1*
X503755Y590033D1*
X510014Y593538D1*
X516530Y596542D1*
X523261Y599025D1*
X530166Y600973D1*
X537202Y602372D1*
X544327Y603216D1*
X551496Y603497D1*
X558665Y603216D1*
X565790Y602372D1*
X572826Y600973D1*
X579731Y599025D1*
X586462Y596542D1*
X592978Y593538D1*
X599237Y590033D1*
X605203Y586047D1*
X610837Y581605D1*
X616105Y576735D1*
X620975Y571467D1*
X625417Y565833D1*
X629403Y559867D1*
X632909Y553608D1*
X635912Y547092D1*
X638395Y540361D1*
X640343Y533456D1*
X641743Y526420D1*
X642586Y519295D1*
X642867Y512126D1*
X642586Y504957D1*
X641743Y497832D1*
X640343Y490796D1*
X638395Y483891D1*
X635912Y477160D1*
X632909Y470644D1*
X629403Y464385D1*
X625417Y458419D1*
X620975Y452785D1*
X616105Y447517D1*
X610837Y442647D1*
X605203Y438205D1*
X599237Y434219D1*
X592978Y430713D1*
X586462Y427710D1*
X579863Y425275D1*
X5011294Y425267D1*
X5004719Y427710D1*
X4998203Y430713D1*
X4991944Y434219D1*
X4985978Y438205D1*
X4980344Y442647D1*
X4975076Y447517D1*
X4970206Y452785D1*
X4965764Y458419D1*
X4961778Y464385D1*
X4958273Y470644D1*
X4955269Y477160D1*
X4952786Y483891D1*
X4950838Y490796D1*
X4949439Y497832D1*
X4948595Y504957D1*
X4948314Y512126D1*
X4948595Y519295D1*
X4949439Y526420D1*
X4950838Y533456D1*
X4952786Y540361D1*
X4955269Y547092D1*
X4958273Y553608D1*
X4961778Y559867D1*
X4965764Y565833D1*
X4970206Y571467D1*
X4975076Y576735D1*
X4980344Y581605D1*
X4985978Y586047D1*
X4991944Y590033D1*
X4998203Y593538D1*
X5004719Y596542D1*
X5011450Y599025D1*
X5018355Y600973D1*
X5025391Y602372D1*
X5032516Y603216D1*
X5039685Y603497D1*
X5046854Y603216D1*
X5053979Y602372D1*
X5061015Y600973D1*
X5067920Y599025D1*
X5074651Y596542D1*
X5081167Y593538D1*
X5087426Y590033D1*
X5093392Y586047D1*
X5099026Y581605D1*
X5104294Y576735D1*
X5109164Y571467D1*
X5113606Y565833D1*
X5117592Y559867D1*
X5121098Y553608D1*
X5124101Y547092D1*
X5126584Y540361D1*
X5128532Y533456D1*
X5129931Y526420D1*
X5130775Y519295D1*
X5131056Y512126D1*
X5130775Y504957D1*
X5129931Y497832D1*
X5128532Y490796D1*
X5126584Y483891D1*
X5124101Y477160D1*
X5121098Y470644D1*
X5117592Y464385D1*
X5113606Y458419D1*
X5109164Y452785D1*
X5104294Y447517D1*
X5099026Y442647D1*
X5093392Y438205D1*
X5087426Y434219D1*
X5081167Y430713D1*
X5074651Y427710D1*
X5068052Y425275D1*
X5156482Y425267D1*
X5156516Y3744003D1*
X5079413Y3744016D1*
X5087426Y3739639D1*
X5093392Y3735653D1*
X5099026Y3731212D1*
X5104294Y3726342D1*
X5109164Y3721073D1*
X5113606Y3715439D1*
X5117592Y3709474D1*
X5121098Y3703214D1*
X5124101Y3696699D1*
X5126584Y3689968D1*
X5128532Y3683063D1*
X5129931Y3676026D1*
X5130775Y3668901D1*
X5131056Y3661732D1*
X5130775Y3654563D1*
X5129931Y3647439D1*
X5128532Y3640402D1*
X5126584Y3633497D1*
X5124101Y3626766D1*
X5121098Y3620251D1*
X5117592Y3613991D1*
X5113606Y3608026D1*
X5109164Y3602391D1*
X5104294Y3597123D1*
X5099026Y3592253D1*
X5093392Y3587811D1*
X5087426Y3583825D1*
X5081167Y3580320D1*
X5074651Y3577316D1*
X5067920Y3574833D1*
X5061015Y3572885D1*
X5053979Y3571486D1*
X5046854Y3570643D1*
X5039685Y3570361D1*
X5032516Y3570643D1*
X5025391Y3571486D1*
X5018355Y3572885D1*
X5011450Y3574833D1*
X5004719Y3577316D1*
X4998203Y3580320D1*
X4991944Y3583825D1*
X4985978Y3587811D1*
X4980344Y3592253D1*
X4975076Y3597123D1*
X4970206Y3602391D1*
X4965764Y3608026D1*
X4961778Y3613991D1*
X4958273Y3620251D1*
X4955269Y3626766D1*
X4952786Y3633497D1*
X4950838Y3640402D1*
X4949439Y3647439D1*
X4948595Y3654563D1*
X4948314Y3661732D1*
X4948595Y3668901D1*
X4949439Y3676026D1*
X4950838Y3683063D1*
X4952786Y3689968D1*
X4955269Y3696699D1*
X4958273Y3703214D1*
X4961778Y3709474D1*
X4965764Y3715439D1*
X4970206Y3721073D1*
X4975076Y3726342D1*
X4980344Y3731212D1*
X4985978Y3735653D1*
X4991944Y3739639D1*
X5000112Y3744025D1*
X591234Y3744016D1*
X599237Y3739639D1*
X605203Y3735653D1*
X610837Y3731212D1*
X616105Y3726342D1*
X620975Y3721073D1*
X625417Y3715439D1*
X629403Y3709474D1*
X632909Y3703214D1*
X635912Y3696699D1*
X638395Y3689968D1*
X640343Y3683063D1*
X641743Y3676026D1*
X642586Y3668901D1*
X642867Y3661732D1*
X642586Y3654563D1*
X3392155Y1404335D2*
X3366964D1*
X3370098Y1401594D1*
X3852584Y919108D1*
X4711637Y919130D1*
X4714921Y922051D1*
X3885522Y922153D1*
X3880409Y922963D1*
X3875486Y924562D1*
X3870874Y926912D1*
X3866686Y929955D1*
X3819314Y977183D1*
X3392143Y1404354D1*
X4749607Y2003387D2*
X4742988Y2006134D1*
X4736767Y2009946D1*
X4731220Y2014684D1*
X4726482Y2020232D1*
X4722670Y2026452D1*
X4719878Y2033192D1*
X4719386Y2034935D1*
X4712151Y2027703D1*
X4711589Y2020601D1*
X4709886Y2013507D1*
X4707094Y2006767D1*
X4705176Y2003380D1*
X4749588Y2003382D1*
X4914967Y1293146D2*
X5046303D1*
X5051728Y1297770D1*
X5057948Y1301582D1*
X5064688Y1304374D1*
X5071782Y1306077D1*
X5079055Y1306650D1*
X5086328Y1306077D1*
X5093422Y1304374D1*
X5100162Y1301582D1*
X5106383Y1297770D1*
X5111930Y1293032D1*
X5116668Y1287485D1*
X5120480Y1281264D1*
X5123272Y1274524D1*
X5124975Y1267430D1*
X5125547Y1260157D1*
X5124975Y1252885D1*
X5123272Y1245791D1*
X5120480Y1239050D1*
X5116668Y1232830D1*
X5111930Y1227283D1*
X5106383Y1222545D1*
X5100162Y1218733D1*
X5093422Y1215941D1*
X5086328Y1214238D1*
X5079055Y1213665D1*
X5071782Y1214238D1*
X5064688Y1215941D1*
X5057948Y1218733D1*
X5051728Y1222545D1*
X5046295Y1227176D1*
X4914957Y1227169D1*
X4909532Y1222545D1*
X4903312Y1218733D1*
X4896572Y1215941D1*
X4889478Y1214238D1*
X4882205Y1213665D1*
X4874932Y1214238D1*
X4867838Y1215941D1*
X4861098Y1218733D1*
X4854877Y1222545D1*
X4849330Y1227283D1*
X4844592Y1232830D1*
X4840780Y1239050D1*
X4837988Y1245791D1*
X4836285Y1252885D1*
X4835713Y1260157D1*
X4836285Y1267430D1*
X4837988Y1274524D1*
X4840780Y1281264D1*
X4844592Y1287485D1*
X4849330Y1293032D1*
X4854877Y1297770D1*
X4861098Y1301582D1*
X4867838Y1304374D1*
X4874932Y1306077D1*
X4882205Y1306650D1*
X4889478Y1306077D1*
X4896572Y1304374D1*
X4903312Y1301582D1*
X4909532Y1297770D1*
X4914964Y1293139D1*
X4953822Y1063147D2*
X4888205Y1128764D1*
X4761506Y1128846D1*
X4756394Y1129656D1*
X4751470Y1131255D1*
X4746858Y1133605D1*
X4742670Y1136648D1*
X4695298Y1183876D1*
X4522475Y1356844D1*
X4519432Y1361031D1*
X4517082Y1365644D1*
X4515482Y1370567D1*
X4514673Y1375679D1*
X4514571Y1393806D1*
X4509946Y1399264D1*
X4506134Y1405485D1*
X4503342Y1412225D1*
X4501639Y1419319D1*
X4501067Y1426592D1*
X4501639Y1433865D1*
X4503342Y1440959D1*
X4506134Y1447699D1*
X4509946Y1453919D1*
X4514684Y1459467D1*
X4520232Y1464205D1*
X4526452Y1468017D1*
X4533192Y1470809D1*
X4540286Y1472512D1*
X4547559Y1473084D1*
X4554832Y1472512D1*
X4561926Y1470809D1*
X4568666Y1468017D1*
X4574886Y1464205D1*
X4580434Y1459467D1*
X4585172Y1453919D1*
X4588984Y1447699D1*
X4591776Y1440959D1*
X4593479Y1433865D1*
X4594051Y1426592D1*
X4593479Y1419319D1*
X4591776Y1412225D1*
X4588984Y1405485D1*
X4585172Y1399264D1*
X4580540Y1393832D1*
X4583877Y1388602D1*
X4777759Y1194720D1*
X4904478Y1194619D1*
X4909591Y1193809D1*
X4914514Y1192209D1*
X4919126Y1189859D1*
X4923314Y1186817D1*
X4970686Y1139588D1*
X5000500Y1109774D1*
X5007588Y1109227D1*
X5014682Y1107524D1*
X5021422Y1104732D1*
X5027642Y1100920D1*
X5033190Y1096182D1*
X5037928Y1090634D1*
X5041740Y1084414D1*
X5044532Y1077674D1*
X5046235Y1070580D1*
X5046807Y1063307D1*
X5046235Y1056034D1*
X5044532Y1048940D1*
X5041740Y1042200D1*
X5037928Y1035980D1*
X5033190Y1030432D1*
X5027642Y1025694D1*
X5021422Y1021882D1*
X5014682Y1019090D1*
X5007588Y1017387D1*
X5000315Y1016815D1*
X4993042Y1017387D1*
X4985948Y1019090D1*
X4979208Y1021882D1*
X4972988Y1025694D1*
X4967440Y1030432D1*
X4962702Y1035980D1*
X4958890Y1042200D1*
X4956098Y1048940D1*
X4954395Y1056034D1*
X4953829Y1063150D1*
X4692477Y1437483D2*
X4699023Y1430936D1*
X5065978Y1430941D1*
X5071413Y1435566D1*
X5077633Y1439378D1*
X5084373Y1442169D1*
X5091467Y1443872D1*
X5098740Y1444445D1*
X5106013Y1443872D1*
X5113107Y1442169D1*
X5119847Y1439378D1*
X5126068Y1435566D1*
X5131615Y1430828D1*
X5136353Y1425280D1*
X5140165Y1419060D1*
X5142957Y1412320D1*
X5144660Y1405226D1*
X5145232Y1397953D1*
X5144660Y1390680D1*
X5142957Y1383586D1*
X5140165Y1376846D1*
X5136353Y1370625D1*
X5131615Y1365078D1*
X5126068Y1360340D1*
X5119847Y1356528D1*
X5113107Y1353736D1*
X5106013Y1352033D1*
X5098740Y1351461D1*
X5091467Y1352033D1*
X5084373Y1353736D1*
X5077633Y1356528D1*
X5071413Y1360340D1*
X5065980Y1364971D1*
X4682766Y1365066D1*
X4677653Y1365876D1*
X4672730Y1367476D1*
X4668118Y1369826D1*
X4663930Y1372868D1*
X4645814Y1390840D1*
X4638711Y1391403D1*
X4631617Y1393106D1*
X4624877Y1395898D1*
X4618657Y1399710D1*
X4613109Y1404448D1*
X4608371Y1409995D1*
X4604559Y1416216D1*
X4601768Y1422956D1*
X4600065Y1430050D1*
X4599492Y1437323D1*
X4600065Y1444596D1*
X4601768Y1451690D1*
X4604559Y1458430D1*
X4608371Y1464650D1*
X4613109Y1470198D1*
X4618657Y1474936D1*
X4624877Y1478748D1*
X4631617Y1481539D1*
X4638711Y1483243D1*
X4645984Y1483815D1*
X4653257Y1483243D1*
X4660351Y1481539D1*
X4667091Y1478748D1*
X4673312Y1474936D1*
X4678859Y1470198D1*
X4683597Y1464650D1*
X4687409Y1458430D1*
X4690201Y1451690D1*
X4691904Y1444596D1*
X4692470Y1437480D1*
X4352986Y2034256D2*
X4147226D1*
X4141816Y2029631D1*
X4135595Y2025819D1*
X4128855Y2023027D1*
X4121761Y2021324D1*
X4114488Y2020752D1*
X4107215Y2021324D1*
X4100121Y2023027D1*
X4093381Y2025819D1*
X4087161Y2029631D1*
X4081613Y2034369D1*
X4076875Y2039917D1*
X4073063Y2046137D1*
X4070272Y2052877D1*
X4068568Y2059971D1*
X4067996Y2067244D1*
X4068568Y2074517D1*
X4070272Y2081611D1*
X4073063Y2088351D1*
X4076875Y2094571D1*
X4081613Y2100119D1*
X4087161Y2104857D1*
X4093381Y2108669D1*
X4100121Y2111461D1*
X4107215Y2113164D1*
X4114488Y2113736D1*
X4121761Y2113164D1*
X4128855Y2111461D1*
X4135595Y2108669D1*
X4141816Y2104857D1*
X4147248Y2100225D1*
X4353010Y2100232D1*
X4358421Y2104857D1*
X4364641Y2108669D1*
X4371381Y2111461D1*
X4378475Y2113164D1*
X4385748Y2113736D1*
X4393021Y2113164D1*
X4400115Y2111461D1*
X4406855Y2108669D1*
X4413075Y2104857D1*
X4418623Y2100119D1*
X4423361Y2094571D1*
X4427173Y2088351D1*
X4429965Y2081611D1*
X4431668Y2074517D1*
X4432240Y2067244D1*
X4431668Y2059971D1*
X4429965Y2052877D1*
X4427173Y2046137D1*
X4423361Y2039917D1*
X4418623Y2034369D1*
X4413075Y2029631D1*
X4406855Y2025819D1*
X4400115Y2023027D1*
X4393021Y2021324D1*
X4385748Y2020752D1*
X4378475Y2021324D1*
X4371381Y2023027D1*
X4364641Y2025819D1*
X4358421Y2029631D1*
X4352988Y2034263D1*
X3734862Y2946278D2*
X4139577Y2541564D1*
X4139262Y2547009D1*
X3740326Y2945935D1*
X3734800Y2946332D1*
X4179925Y2926778D2*
Y3018713D1*
X4175300Y3024169D1*
X4171489Y3030389D1*
X4168697Y3037129D1*
X4166994Y3044223D1*
X4166421Y3051496D1*
X4166994Y3058769D1*
X4168697Y3065863D1*
X4171489Y3072603D1*
X4175300Y3078823D1*
X4180038Y3084371D1*
X4185586Y3089109D1*
X4191806Y3092921D1*
X4198547Y3095713D1*
X4205640Y3097416D1*
X4212913Y3097988D1*
X4220186Y3097416D1*
X4227280Y3095713D1*
X4234020Y3092921D1*
X4240241Y3089109D1*
X4245788Y3084371D1*
X4250526Y3078823D1*
X4254338Y3072603D1*
X4257130Y3065863D1*
X4258833Y3058769D1*
X4259406Y3051496D1*
X4258833Y3044223D1*
X4257130Y3037129D1*
X4254338Y3030389D1*
X4250526Y3024169D1*
X4245895Y3018736D1*
X4245902Y2926799D1*
X4250526Y2921343D1*
X4254338Y2915123D1*
X4257130Y2908383D1*
X4258833Y2901289D1*
X4259406Y2894016D1*
X4258833Y2886743D1*
X4257130Y2879649D1*
X4254338Y2872909D1*
X4250526Y2866688D1*
X4245788Y2861141D1*
X4240241Y2856403D1*
X4234020Y2852591D1*
X4227280Y2849799D1*
X4220186Y2848096D1*
X4212913Y2847524D1*
X4205640Y2848096D1*
X4198547Y2849799D1*
X4191806Y2852591D1*
X4185586Y2856403D1*
X4180038Y2861141D1*
X4175300Y2866688D1*
X4171489Y2872909D1*
X4168697Y2879649D1*
X4166994Y2886743D1*
X4166421Y2894016D1*
X4166994Y2901289D1*
X4168697Y2908383D1*
X4171489Y2915123D1*
X4175300Y2921343D1*
X4179932Y2926775D1*
X1358742Y1213665D2*
X1070444Y925366D1*
X1069857Y918239D1*
X1068154Y911145D1*
X1065362Y904405D1*
X1061550Y898184D1*
X1056812Y892637D1*
X1051264Y887899D1*
X1045044Y884087D1*
X1038304Y881295D1*
X1031210Y879592D1*
X1023937Y879020D1*
X1016664Y879592D1*
X1009570Y881295D1*
X1002830Y884087D1*
X996610Y887899D1*
X991062Y892637D1*
X986324Y898184D1*
X982512Y904405D1*
X979720Y911145D1*
X978017Y918239D1*
X977445Y925512D1*
X978017Y932785D1*
X979720Y939879D1*
X982512Y946619D1*
X986324Y952839D1*
X991062Y958387D1*
X996610Y963125D1*
X1002830Y966937D1*
X1009570Y969728D1*
X1016664Y971432D1*
X1023780Y971998D1*
X1312076Y1260303D1*
X1312663Y1267430D1*
X1314366Y1274524D1*
X1317158Y1281264D1*
X1320970Y1287485D1*
X1325708Y1293032D1*
X1331255Y1297770D1*
X1337476Y1301582D1*
X1344216Y1304374D1*
X1351310Y1306077D1*
X1358583Y1306650D1*
X1365856Y1306077D1*
X1372950Y1304374D1*
X1379690Y1301582D1*
X1385910Y1297770D1*
X1391458Y1293032D1*
X1396196Y1287485D1*
X1400007Y1281264D1*
X1402799Y1274524D1*
X1404502Y1267430D1*
X1405075Y1260157D1*
X1404502Y1252885D1*
X1402799Y1245791D1*
X1400007Y1239050D1*
X1396196Y1232830D1*
X1391458Y1227283D1*
X1385910Y1222545D1*
X1379690Y1218733D1*
X1372950Y1215941D1*
X1365856Y1214238D1*
X1358739Y1213672D1*
X669606Y1453937D2*
D14*
Y1223859D1*
X1010650Y3559586D2*
Y3426674D1*
X1498150Y3559586D2*
Y3426674D1*
X1987756Y3559606D2*
Y3426693D1*
X2473150Y3559606D2*
Y3426693D1*
X2960650Y3559606D2*
Y3426693D1*
X3448150Y3559606D2*
Y3426693D1*
X3935650Y3559606D2*
Y3426693D1*
X4423150Y3559606D2*
Y3426693D1*
X1160630Y747952D2*
Y615040D1*
X1648150Y747952D2*
Y615040D1*
X2137756Y747952D2*
Y615040D1*
X2623150Y747952D2*
Y615040D1*
X3110630Y747952D2*
Y615040D1*
X3598150Y747952D2*
Y615040D1*
X4085630Y747952D2*
Y615040D1*
X4573150Y747952D2*
Y615040D1*
X1535748Y2687066D2*
Y2589154D1*
D26*
X4999676Y2370394D3*
D27*
Y2270394D3*
Y2170394D3*
Y2070394D3*
Y1970394D3*
Y1870394D3*
D28*
X669606Y1338898D3*
D29*
X905827D3*
D30*
X787717Y1153858D3*
D32*
X1010650Y3493130D3*
X1160650D3*
X1498150D3*
X1648150D3*
X1987756Y3493150D3*
X2137756D3*
X2473150D3*
X2623150D3*
X2960650D3*
X3110650D3*
X3448150D3*
X3598150D3*
X3935650D3*
X4085650D3*
X4423150D3*
X4573150D3*
X1160630Y681496D3*
X1010630D3*
X1648150D3*
X1498150D3*
X2137756D3*
X1987756D3*
X2623150D3*
X2473150D3*
X3110630D3*
X2960630D3*
X3598150D3*
X3448150D3*
X4085630D3*
X3935630D3*
X4573150D3*
X4423150D3*
D34*
X1732598Y2638110D3*
X1634173D3*
X1535748D3*
X1437323D3*
X1338898D3*
X1240472D3*
X1142047D3*
X1043622D3*
X945197D3*
X846772D3*
X1732598Y1638110D3*
X1634173D3*
X1535748D3*
X1437323D3*
X1338898D3*
X1240472D3*
X1142047D3*
X1043622D3*
X945197D3*
X846772D3*
M02*
