M48
INCH
T01C0.0191
T02C0.035
T03C0.038
T04C0.0394
T05C0.0433
T06C0.1181
%
T01
X+049019Y+008665
X+047444Y+008861
X+050003Y+010633
X+050791Y+012602
X+050987Y+013980
X+050791Y+014964
X+049019Y+014964
X+047543Y+016243
X+046460Y+014373
X+045476Y+014266
X+048822Y+012602
X+049609Y+017523
X+048231Y+020279
X+047641Y+020476
X+046657Y+020279
X+045476Y+018704
X+043857Y+020672
X+041145Y+020672
X+042326Y+024609
X+041857Y+025472
X+041357Y+026562
X+041342Y+028546
X+042129Y+028940
X+042129Y+030515
X+041342Y+030909
X+038389Y+029531
X+037405Y+029924
X+036814Y+029531
X+045279Y+023822
X+047877Y+024058
X+049019Y+021854
X+013586Y+012602
X+010239Y+009255
X+005515Y+031499
T02
X+017326Y+026381
X+016342Y+026381
X+015357Y+026381
X+014373Y+026381
X+013389Y+026381
X+012405Y+026381
X+011420Y+026381
X+010436Y+026381
X+009452Y+026381
X+008468Y+026381
X+008468Y+016381
X+009452Y+016381
X+010436Y+016381
X+011420Y+016381
X+012405Y+016381
X+013389Y+016381
X+014373Y+016381
X+015357Y+016381
X+016342Y+016381
X+017326Y+016381
T03
X+010106Y+034931
X+011606Y+034931
X+014981Y+034931
X+016481Y+034931
X+019878Y+034931
X+021378Y+034931
X+024731Y+034931
X+026231Y+034931
X+029606Y+034931
X+031106Y+034931
X+034481Y+034931
X+035981Y+034931
X+039356Y+034931
X+040856Y+034931
X+044231Y+034931
X+045731Y+034931
X+045731Y+006815
X+044231Y+006815
X+040856Y+006815
X+039356Y+006815
X+035981Y+006815
X+034481Y+006815
X+031106Y+006815
X+029606Y+006815
X+026231Y+006815
X+024731Y+006815
X+021378Y+006815
X+019878Y+006815
X+016481Y+006815
X+014981Y+006815
X+011606Y+006815
X+010106Y+006815
T04
X+006696Y+012897G85X+006696Y+013881
X+008369Y+011539G85X+007385Y+011539
X+009058Y+012798G85X+009058Y+013980
T05
X+049997Y+023704
X+049997Y+022704
X+049997Y+021704
X+049997Y+020704
X+049997Y+019704
X+049997Y+018704
T06
X+005515Y+036617
X+005515Y+005121
X+050397Y+005121
X+050397Y+036617
T00
M30
