G04 DipTrace 3.3.1.3*
G04 TopAssy.gbr*
%MOIN*%
G04 #@! TF.FileFunction,Drawing,Top*
G04 #@! TF.Part,Single*
%ADD10C,0.009843*%
%ADD18C,0.01*%
%ADD19C,0.001312*%
%ADD69C,0.003088*%
%FSLAX26Y26*%
G04*
G70*
G90*
G75*
G01*
G04 TopAssy*
%LPD*%
X5059515Y2449528D2*
D10*
Y1791260D1*
X936818Y3780748D2*
D18*
Y3818252D1*
X974318Y355748D2*
Y393252D1*
X315276Y2165669D2*
D19*
X5394016D1*
X5097814Y2219828D2*
D69*
X5077718D1*
Y2211206D1*
X5078690Y2208332D1*
X5079641Y2207381D1*
X5081542Y2206431D1*
X5084416D1*
X5086340Y2207381D1*
X5087290Y2208332D1*
X5088241Y2211206D1*
X5089214Y2208332D1*
X5090164Y2207381D1*
X5092066Y2206431D1*
X5093989D1*
X5095890Y2207381D1*
X5096863Y2208332D1*
X5097814Y2211206D1*
Y2219828D1*
X5088241D2*
Y2211206D1*
X5097814Y2194507D2*
X5096863Y2196430D1*
X5094940Y2198332D1*
X5093038Y2199304D1*
X5090164Y2200255D1*
X5085367D1*
X5082515Y2199304D1*
X5080592Y2198332D1*
X5078690Y2196430D1*
X5077718Y2194507D1*
Y2190682D1*
X5078690Y2188781D1*
X5080592Y2186858D1*
X5082515Y2185907D1*
X5085367Y2184956D1*
X5090164D1*
X5093038Y2185907D1*
X5094940Y2186858D1*
X5096863Y2188781D1*
X5097814Y2190682D1*
Y2194507D1*
X5077718Y2163460D2*
X5097814Y2171131D1*
X5077718Y2178781D1*
X5084416Y2175907D2*
Y2166334D1*
X5088241Y2157284D2*
Y2148684D1*
X5089214Y2145810D1*
X5090164Y2144838D1*
X5092066Y2143887D1*
X5093989D1*
X5095890Y2144838D1*
X5096863Y2145810D1*
X5097814Y2148684D1*
Y2157284D1*
X5077718D1*
X5088241Y2150586D2*
X5077718Y2143887D1*
X5097814Y2137711D2*
X5077718D1*
Y2131013D1*
X5078690Y2128139D1*
X5080592Y2126215D1*
X5082515Y2125265D1*
X5085367Y2124314D1*
X5090164D1*
X5093038Y2125265D1*
X5094940Y2126215D1*
X5096863Y2128139D1*
X5097814Y2131013D1*
Y2137711D1*
Y2086273D2*
Y2098698D1*
X5077718D1*
Y2086273D1*
X5088241Y2098698D2*
Y2091049D1*
X5097814Y2080098D2*
X5077718D1*
Y2073399D1*
X5078690Y2070525D1*
X5080592Y2068601D1*
X5082515Y2067651D1*
X5085367Y2066700D1*
X5090164D1*
X5093038Y2067651D1*
X5094940Y2068601D1*
X5096863Y2070525D1*
X5097814Y2073399D1*
Y2080098D1*
X5093038Y2046177D2*
X5094940Y2047127D1*
X5096863Y2049051D1*
X5097814Y2050952D1*
Y2054776D1*
X5096863Y2056700D1*
X5094940Y2058601D1*
X5093038Y2059574D1*
X5090164Y2060525D1*
X5085367D1*
X5082515Y2059574D1*
X5080592Y2058601D1*
X5078690Y2056700D1*
X5077718Y2054776D1*
Y2050952D1*
X5078690Y2049051D1*
X5080592Y2047127D1*
X5082515Y2046177D1*
X5085367D1*
Y2050952D1*
X5097814Y2027576D2*
Y2040001D1*
X5077718D1*
Y2027576D1*
X5088241Y2040001D2*
Y2032352D1*
M02*
