G04 DipTrace 3.3.1.3*
G04 TopDimension.gbr*
%MOIN*%
G04 #@! TF.FileFunction,Drawing,Top*
G04 #@! TF.Part,Single*
%ADD13C,0.001378*%
%ADD70C,0.006176*%
%FSLAX26Y26*%
G04*
G70*
G90*
G75*
G01*
G04 TopDimension*
%LPD*%
X551496Y3661732D2*
D13*
Y4400315D1*
X5039685Y3661732D2*
Y4400315D1*
X2795591Y4380630D2*
X590866D1*
G36*
X551496D2*
X590866Y4388504D1*
Y4372756D1*
X551496Y4380630D1*
G37*
X2795591D2*
D13*
X5000315D1*
G36*
X5039685D2*
X5000315Y4372756D1*
Y4388504D1*
X5039685Y4380630D1*
G37*
X551496Y3661732D2*
D13*
X177480D1*
X551496Y512126D2*
X177480D1*
X197165Y2086929D2*
Y3622362D1*
G36*
Y3661732D2*
X205039Y3622362D1*
X189291D1*
X197165Y3661732D1*
G37*
Y2086929D2*
D13*
Y551496D1*
G36*
Y512126D2*
X189291Y551496D1*
X205039D1*
X197165Y512126D1*
G37*
X394016Y3779843D2*
D13*
X20000D1*
X403071Y2420366D2*
X20000D1*
X39685Y3100104D2*
Y3740472D1*
G36*
Y3779843D2*
X47559Y3740472D1*
X31811D1*
X39685Y3779843D1*
G37*
Y3100104D2*
D13*
Y2459736D1*
G36*
Y2420366D2*
X31811Y2459736D1*
X47559D1*
X39685Y2420366D1*
G37*
X394016Y394016D2*
D13*
X20000D1*
X403071Y1820421D2*
X20000D1*
X39685Y1107219D2*
Y433386D1*
G36*
Y394016D2*
X31811Y433386D1*
X47559D1*
X39685Y394016D1*
G37*
Y1107219D2*
D13*
Y1781051D1*
G36*
Y1820421D2*
X47559Y1781051D1*
X31811D1*
X39685Y1820421D1*
G37*
X5197165Y3779843D2*
D13*
X5571181D1*
X5168427Y2420366D2*
X5571181D1*
X5551496Y3100104D2*
Y3740472D1*
G36*
Y3779843D2*
X5559370Y3740472D1*
X5543622D1*
X5551496Y3779843D1*
G37*
Y3100104D2*
D13*
Y2459736D1*
G36*
Y2420366D2*
X5543622Y2459736D1*
X5559370D1*
X5551496Y2420366D1*
G37*
X2762384Y4425339D2*
D70*
X2766231Y4427285D1*
X2771979Y4432988D1*
Y4392841D1*
X2784330Y4425339D2*
X2788177Y4427285D1*
X2793925Y4432988D1*
Y4392841D1*
X2825422D2*
Y4432988D1*
X2806277Y4406238D1*
X2834973D1*
X144807Y2066619D2*
X146708Y2060915D1*
X150511Y2058970D1*
X154357D1*
X158160Y2060915D1*
X160105Y2064718D1*
X162007Y2072367D1*
X163908Y2078115D1*
X167755Y2081918D1*
X171557Y2083819D1*
X177305D1*
X181108Y2081918D1*
X183053Y2080017D1*
X184955Y2074269D1*
Y2066619D1*
X183053Y2060915D1*
X181108Y2058970D1*
X177305Y2057069D1*
X171557D1*
X167755Y2058970D1*
X163908Y2062817D1*
X162007Y2068521D1*
X160105Y2076170D1*
X158160Y2080017D1*
X154357Y2081918D1*
X150511D1*
X146708Y2080017D1*
X144807Y2074269D1*
Y2066619D1*
Y2107667D2*
X146708Y2101919D1*
X152456Y2098072D1*
X162007Y2096171D1*
X167755D1*
X177305Y2098072D1*
X183053Y2101919D1*
X184955Y2107667D1*
Y2111469D1*
X183053Y2117217D1*
X177305Y2121020D1*
X167755Y2122965D1*
X162007D1*
X152456Y2121020D1*
X146708Y2117217D1*
X144807Y2111469D1*
Y2107667D1*
X152456Y2121020D2*
X177305Y2098072D1*
X-12674Y3025873D2*
Y3046875D1*
X2625Y3035423D1*
Y3041171D1*
X4526Y3044974D1*
X6428Y3046875D1*
X12176Y3048821D1*
X15978D1*
X21726Y3046875D1*
X25573Y3043073D1*
X27474Y3037325D1*
Y3031577D1*
X25573Y3025873D1*
X23628Y3023972D1*
X19825Y3022026D1*
X27474Y3080317D2*
X-12674D1*
X14077Y3061172D1*
Y3089868D1*
X23628Y3104121D2*
X25573Y3102219D1*
X27474Y3104121D1*
X25573Y3106066D1*
X23628Y3104121D1*
X-12674Y3141366D2*
Y3122264D1*
X4526Y3120363D1*
X2625Y3122264D1*
X680Y3128012D1*
Y3133716D1*
X2625Y3139464D1*
X6428Y3143311D1*
X12176Y3145212D1*
X15978D1*
X21726Y3143311D1*
X25573Y3139464D1*
X27474Y3133716D1*
Y3128012D1*
X25573Y3122264D1*
X23628Y3120363D1*
X19825Y3118418D1*
X-12674Y3161410D2*
Y3182413D1*
X2625Y3170961D1*
Y3176709D1*
X4526Y3180512D1*
X6428Y3182413D1*
X12176Y3184358D1*
X15978D1*
X21726Y3182413D1*
X25573Y3178610D1*
X27474Y3172862D1*
Y3167114D1*
X25573Y3161410D1*
X23628Y3159509D1*
X19825Y3157564D1*
X-12674Y1034910D2*
Y1055913D1*
X2625Y1044461D1*
Y1050209D1*
X4526Y1054011D1*
X6428Y1055913D1*
X12176Y1057858D1*
X15978D1*
X21726Y1055913D1*
X25573Y1052110D1*
X27474Y1046362D1*
Y1040614D1*
X25573Y1034910D1*
X23628Y1033009D1*
X19825Y1031064D1*
X-6970Y1093158D2*
X-10772Y1091256D1*
X-12674Y1085508D1*
Y1081706D1*
X-10772Y1075958D1*
X-5024Y1072111D1*
X4526Y1070210D1*
X14077D1*
X21726Y1072111D1*
X25573Y1075958D1*
X27474Y1081706D1*
Y1083607D1*
X25573Y1089311D1*
X21726Y1093158D1*
X15978Y1095059D1*
X14077D1*
X8329Y1093158D1*
X4526Y1089311D1*
X2625Y1083607D1*
Y1081706D1*
X4526Y1075958D1*
X8329Y1072111D1*
X14077Y1070210D1*
X23628Y1109312D2*
X25573Y1107410D1*
X27474Y1109312D1*
X25573Y1111257D1*
X23628Y1109312D1*
X-3123Y1125554D2*
X-5024D1*
X-8871Y1127455D1*
X-10772Y1129356D1*
X-12674Y1133203D1*
Y1140852D1*
X-10772Y1144655D1*
X-8871Y1146556D1*
X-5024Y1148502D1*
X-1222D1*
X2625Y1146556D1*
X8329Y1142754D1*
X27474Y1123608D1*
Y1150403D1*
X-12674Y1166601D2*
Y1187604D1*
X2625Y1176152D1*
Y1181900D1*
X4526Y1185702D1*
X6428Y1187604D1*
X12176Y1189549D1*
X15978D1*
X21726Y1187604D1*
X25573Y1183801D1*
X27474Y1178053D1*
Y1172305D1*
X25573Y1166601D1*
X23628Y1164700D1*
X19825Y1162754D1*
X5603855Y3174336D2*
Y3153333D1*
X5588556Y3164785D1*
Y3159037D1*
X5586655Y3155235D1*
X5584753Y3153333D1*
X5579005Y3151388D1*
X5575203D1*
X5569455Y3153333D1*
X5565608Y3157136D1*
X5563707Y3162884D1*
Y3168632D1*
X5565608Y3174336D1*
X5567554Y3176237D1*
X5571356Y3178183D1*
X5563707Y3119891D2*
X5603855D1*
X5577104Y3139037D1*
Y3110341D1*
X5567554Y3096088D2*
X5565608Y3097989D1*
X5563707Y3096088D1*
X5565608Y3094142D1*
X5567554Y3096088D1*
X5603855Y3058843D2*
Y3077944D1*
X5586655Y3079846D1*
X5588556Y3077944D1*
X5590501Y3072196D1*
Y3066492D1*
X5588556Y3060744D1*
X5584753Y3056898D1*
X5579005Y3054996D1*
X5575203D1*
X5569455Y3056898D1*
X5565608Y3060744D1*
X5563707Y3066492D1*
Y3072196D1*
X5565608Y3077944D1*
X5567554Y3079846D1*
X5571356Y3081791D1*
X5603855Y3038798D2*
Y3017796D1*
X5588556Y3029248D1*
Y3023500D1*
X5586655Y3019697D1*
X5584753Y3017796D1*
X5579005Y3015850D1*
X5575203D1*
X5569455Y3017796D1*
X5565608Y3021598D1*
X5563707Y3027346D1*
Y3033094D1*
X5565608Y3038798D1*
X5567554Y3040700D1*
X5571356Y3042645D1*
M02*
