G04 DipTrace 3.3.1.3*
G04 TopMask.gbr*
%MOIN*%
G04 #@! TF.FileFunction,Soldermask,Top*
G04 #@! TF.Part,Single*
%ADD37C,0.11811*%
%ADD44C,0.053031*%
%ADD46R,0.031654X0.086772*%
%ADD48C,0.088031*%
%ADD50R,0.067087X0.059213*%
%ADD52O,0.185197X0.086772*%
%ADD54O,0.086772X0.204882*%
%ADD56O,0.086772X0.185197*%
%ADD58C,0.074961*%
%ADD60R,0.074961X0.074961*%
%ADD62R,0.033622X0.04937*%
%ADD64R,0.06315X0.096614*%
%ADD66R,0.059213X0.067087*%
%FSLAX26Y26*%
G04*
G70*
G90*
G75*
G01*
G04 TopMask*
%LPD*%
D66*
X4527874Y1732598D3*
X4453071D3*
X984567Y1525906D3*
X1059370D3*
D64*
X1063307Y1397953D3*
Y1264094D3*
D66*
X1131319Y3250266D3*
X1056516D3*
X1606319D3*
X1531516D3*
X2093819Y3250265D3*
X2019016D3*
X2581319Y3250266D3*
X2506516D3*
X3075070D3*
X3000266D3*
X3556319D3*
X3481516D3*
X4031319Y3250265D3*
X3956516D3*
X4531319Y3250266D3*
X4456516D3*
X1050266Y844016D3*
X1125070D3*
X1525276D3*
X1600079D3*
X2019016D3*
X2093819D3*
X2500266D3*
X2575070D3*
X2994016D3*
X3068819D3*
X3487776D3*
X3562579D3*
X3969016D3*
X4043819D3*
X4456535D3*
X4531339D3*
D62*
X4787717Y2645984D3*
X4862520D3*
X4825118Y2736535D3*
X4945197Y2645984D3*
X5020000D3*
X4982598Y2736535D3*
X4630236Y2645984D3*
X4705039D3*
X4667638Y2736535D3*
D60*
X4999676Y2370394D3*
D58*
Y2270394D3*
Y2170394D3*
Y2070394D3*
Y1970394D3*
Y1870394D3*
D56*
X669606Y1338898D3*
D54*
X905827D3*
D52*
X787717Y1153858D3*
D66*
X1008189Y2992441D3*
X933386D3*
X771969D3*
X697165D3*
X551496D3*
X476693D3*
D62*
X5039685Y1594803D3*
X4964882D3*
X5002283Y1504252D3*
X4862520Y1594803D3*
X4787717D3*
X4825118Y1504252D3*
X4882205Y945197D3*
X4957008D3*
X4919606Y1035748D3*
X4705039Y945197D3*
X4779843D3*
X4742441Y1035748D3*
D50*
X1281516Y3369016D3*
Y3294213D3*
X1781535Y3369016D3*
Y3294213D3*
X2256535Y3369016D3*
Y3294213D3*
X2750276Y3369016D3*
Y3294213D3*
X3250265Y3369016D3*
Y3294213D3*
X3725266Y3369016D3*
Y3294213D3*
X4206516Y3369016D3*
Y3294213D3*
X4719016Y3369016D3*
Y3294213D3*
X937766Y837766D3*
Y912570D3*
X1419016Y837766D3*
Y912570D3*
X1912766Y844016D3*
Y918819D3*
X2400265Y844016D3*
Y918819D3*
X2887766Y844016D3*
Y918819D3*
X3362766Y837766D3*
Y912570D3*
X3869016Y844016D3*
Y918819D3*
X4344016Y844016D3*
Y918819D3*
D66*
X551496Y2834961D3*
X476693D3*
X5039685Y1693228D3*
X4964882D3*
D50*
X5000315Y1323150D3*
Y1397953D3*
D66*
X4858583Y1693228D3*
X4783780D3*
D50*
X4823150Y1319213D3*
Y1394016D3*
X5059370Y1201102D3*
Y1126299D3*
X4960945Y1201102D3*
Y1126299D3*
X4842835Y1201102D3*
Y1126299D3*
X4744409Y1201102D3*
Y1126299D3*
D66*
X771969Y2834961D3*
X697165D3*
X1008189D3*
X933386D3*
X1056516Y3094016D3*
X1131319D3*
X1606319D3*
X1531516D3*
X2094016D3*
X2019213D3*
X2581319D3*
X2506516D3*
X3075070D3*
X3000266D3*
X3556319D3*
X3481516D3*
X4031319D3*
X3956516D3*
X4531319D3*
X4456516D3*
X1050266Y1006516D3*
X1125070D3*
X1525266D3*
X1600070D3*
X2019016D3*
X2093819D3*
X2500247D3*
X2575050D3*
X2994016D3*
X3068819D3*
X3487766D3*
X3562570D3*
X3969016D3*
X4043819D3*
X4456516D3*
X4531319D3*
D48*
X1010650Y3493130D3*
X1160650D3*
X1498150D3*
X1648150D3*
X1987756Y3493150D3*
X2137756D3*
X2473150D3*
X2623150D3*
X2960650D3*
X3110650D3*
X3448150D3*
X3598150D3*
X3935650D3*
X4085650D3*
X4423150D3*
X4573150D3*
X1160630Y681496D3*
X1010630D3*
X1648150D3*
X1498150D3*
X2137756D3*
X1987756D3*
X2623150D3*
X2473150D3*
X3110630D3*
X2960630D3*
X3598150D3*
X3448150D3*
X4085630D3*
X3935630D3*
X4573150D3*
X4423150D3*
D46*
X4035748Y1949134D3*
X4085748D3*
X4135748D3*
X4185748D3*
X4235748D3*
X4285748D3*
X4335748D3*
X4385748D3*
X4435748D3*
X4485748D3*
X4535748D3*
X4585748D3*
X4635748D3*
X4685748D3*
Y2319213D3*
X4635748D3*
X4585748D3*
X4535748D3*
X4485748D3*
X4435748D3*
X4385748D3*
X4335748D3*
X4285748D3*
X4235748D3*
X4185748D3*
X4135748D3*
X4085748D3*
X4035748D3*
D44*
X1732598Y2638110D3*
X1634173D3*
X1535748D3*
X1437323D3*
X1338898D3*
X1240472D3*
X1142047D3*
X1043622D3*
X945197D3*
X846772D3*
X1732598Y1638110D3*
X1634173D3*
X1535748D3*
X1437323D3*
X1338898D3*
X1240472D3*
X1142047D3*
X1043622D3*
X945197D3*
X846772D3*
D37*
X551496Y3661732D3*
X5039685D3*
X551496Y512126D3*
X5039685D3*
M02*
