M48
INCH
T01C0.01
T02C0.0362
T03C0.0394
T04C0.0402
T05C0.0906
T06C0.1181
%
T01
X+006471Y+024274
X+007940Y+026304
X+008816Y+027179
X+010128Y+028492
X+009941Y+029117
X+009066Y+030617
X+010128Y+024992
X+016129Y+030117
X+017254Y+029992
X+019692Y+026679
X+022067Y+029555
X+021629Y+030055
X+019504Y+017678
X+018317Y+013928
X+018879Y+013240
X+015004Y+009428
X+012378Y+012740
X+011628Y+014053
X+007940Y+014616
X+006378Y+014616
T02
X+013253Y+026617
X+014238Y+026616
X+014238Y+027880
X+013253Y+027880
T03
X+021629Y+009748G85X+021629Y+010732
X+020940Y+012091G85X+019956Y+012091
X+019267Y+009650G85X+019267Y+010831
T04
X+013941Y+018053
X+014941Y+018053
X+015941Y+018053
X+016941Y+018053
X+017941Y+018053
T05
X+016116Y+027681
X+011376Y+027681
T06
X+013783Y+005909
X+013783Y+031499
T00
M30
