G04 DipTrace 3.3.1.3*
G04 Top.gbr*
%MOIN*%
G04 #@! TF.FileFunction,Copper,L1,Top*
G04 #@! TF.Part,Single*
G04 #@! TA.AperFunction,Conductor*
%ADD14C,0.008*%
G04 #@! TA.AperFunction,CopperBalancing*
%ADD15C,0.025*%
G04 #@! TA.AperFunction,Conductor*
%ADD16C,0.023622*%
G04 #@! TA.AperFunction,CopperBalancing*
%ADD17C,0.013*%
%ADD18R,0.07874X0.023622*%
%ADD20R,0.216535X0.07874*%
%ADD21R,0.051181X0.059055*%
%ADD23R,0.025591X0.041339*%
G04 #@! TA.AperFunction,ComponentPad*
%ADD24R,0.062992X0.062992*%
%ADD25C,0.062992*%
%ADD26C,0.129921*%
%ADD28R,0.124016X0.062992*%
%ADD30R,0.11811X0.057087*%
%ADD31R,0.354331X0.417323*%
%ADD32R,0.062992X0.133858*%
G04 #@! TA.AperFunction,ComponentPad*
%ADD33O,0.07874X0.177165*%
%ADD34O,0.07874X0.19685*%
%ADD35O,0.177165X0.07874*%
%ADD36R,0.059055X0.051181*%
%ADD38R,0.062992X0.15748*%
%ADD39R,0.055118X0.102362*%
G04 #@! TA.AperFunction,ComponentPad*
%ADD40R,0.06378X0.06378*%
%ADD41C,0.06378*%
G04 #@! TA.AperFunction,ViaPad*
%ADD42C,0.03*%
%FSLAX26Y26*%
G04*
G70*
G90*
G75*
G01*
G04 Top*
%LPD*%
X2012920Y1324043D2*
D14*
Y1430304D1*
X587873Y2427367D2*
X647068D1*
X637776Y1461558D2*
Y1579197D1*
X636652Y1580320D1*
X2012920Y1430304D2*
X1869155D1*
X1831651Y1392801D1*
X1644131Y1024012D2*
D15*
X1537870D1*
X1519139Y1042743D1*
X1467972D1*
X1294094D1*
X1467972D2*
Y1347906D1*
X1481614Y1361547D1*
X1237839Y1405097D2*
Y1424054D1*
X1187833Y1474059D1*
Y1580320D1*
X606318Y836492D2*
X809891D1*
X916142Y942743D1*
X625285D1*
X606318Y961710D1*
Y992759D1*
Y1080268D1*
Y1167777D1*
Y1198825D1*
X637776Y1230283D1*
X1294094D1*
X1325348Y1261537D1*
Y1367798D1*
X1288049Y1405097D1*
X1237839D1*
X1938117Y1324043D2*
X1887907D1*
X1500366Y942753D2*
X1500356Y942743D1*
X1294094D1*
X1950413Y1767840D2*
X1944367Y1773886D1*
Y1849098D1*
X1375353Y1549067D2*
X1285608D1*
X1219087D1*
X1187833Y1580320D1*
X1294094Y942743D2*
X916142D1*
X2012715Y3199240D2*
X2025421D1*
X2075503Y3149159D1*
Y3129791D1*
D16*
Y3105480D1*
X1862904Y2955480D2*
X1914774D1*
D15*
X1960197D1*
X1969165Y2964449D1*
X1975416Y2970699D1*
Y3061726D1*
X2019171Y3105480D1*
X2023633D1*
D16*
X2075503D1*
X1494147Y1805344D2*
D15*
Y1717866D1*
X1481614Y1705333D1*
X1325348D1*
X1285608Y1665593D1*
Y1549067D1*
X1012815Y2499167D2*
Y2430409D1*
X1969165Y2667934D2*
Y2964449D1*
X1862699Y1942858D2*
X1925411D1*
X1944367Y1923902D1*
Y1849098D1*
X1781441Y1667829D2*
X1850403D1*
X1950413Y1767840D1*
X769244Y2517919D2*
D14*
Y2536466D1*
X731535Y2574175D1*
Y2636681D1*
X2075503Y2955480D2*
X2206675D1*
X1012815Y2849203D2*
X881551Y2717940D1*
X794042Y2630430D2*
X787791Y2636681D1*
X731535D1*
X606318Y742732D2*
D15*
Y667724D1*
X600272D1*
X475259D1*
X437755Y705228D1*
Y942753D1*
X487760Y992759D1*
X531514D1*
Y1080268D1*
Y1167777D1*
X600272Y667724D2*
X592709Y660161D1*
X1136516D1*
X1294094Y817740D1*
Y842743D1*
X2162936Y1024012D2*
Y892748D1*
X2112930Y842743D1*
X1294094D1*
X2162936Y1024012D2*
Y1422021D1*
X2154652Y1430304D1*
X2181688D1*
X2237944Y1486560D1*
Y1557419D1*
Y1878319D1*
X2160903Y1955360D1*
X1674528Y1361547D2*
X1737891D1*
X1933762Y1557419D1*
X2237944D1*
X1674528Y1361547D2*
Y1512420D1*
X1587755Y1599193D1*
X1563077Y1623870D1*
X1375353D1*
X1594147Y1805344D2*
Y1605585D1*
X1587755Y1599193D1*
X531514Y1167777D2*
Y1355297D1*
X581520Y1405302D1*
X712783D1*
X1106575D2*
X1162831D1*
X1968961Y2336650D2*
X2081677D1*
Y2034585D1*
X2160903Y1955360D1*
X906554Y3061726D2*
X1144079Y3299251D1*
X1781646D1*
X1881656Y3199240D1*
X1886669D1*
X1937912D1*
X1862904Y3105480D2*
D16*
Y3129791D1*
D15*
Y3175475D1*
X1886669Y3199240D1*
X1181378Y2374154D2*
Y2216697D1*
X1187833Y2210241D1*
X1181378Y2374154D2*
Y2574379D1*
X1137552Y2618205D1*
Y2768140D1*
X2019171Y1849098D2*
D14*
Y1955360D1*
X806646Y2427367D2*
X834588D1*
X951613Y2310343D1*
Y2210241D1*
X2019171Y1955360D2*
Y2017866D1*
X1969165Y2067871D1*
X994063D1*
X951613Y2110322D1*
Y2210241D1*
X1106575Y2374154D2*
Y2212760D1*
X1109093Y2210241D1*
X531514Y742732D2*
Y836492D1*
X1423773Y2788022D2*
Y2810114D1*
X1519139Y2905480D1*
X1862904D1*
X1423773Y2661644D2*
X1681596D1*
X1731640Y2711689D1*
Y2786697D1*
X1800424Y2855480D1*
X1862904D1*
X2156480Y2336650D2*
Y2468732D1*
X2199416Y2511668D1*
Y2536671D1*
X2019171D1*
X1862904Y2692937D1*
Y2755480D1*
X1894157Y2336650D2*
Y2442911D1*
X1825400Y2511668D1*
Y2592927D1*
X1787896Y2630430D1*
Y2774196D1*
X1819181Y2805480D1*
X1862904D1*
X1805549Y1024012D2*
D15*
X1926715D1*
X975311Y1405302D2*
D14*
Y1442806D1*
X951613Y1466504D1*
Y1580320D1*
X844047Y1405302D2*
Y1442806D1*
X872873Y1471631D1*
Y1580320D1*
X1109093D2*
Y1795361D1*
X1225337Y1911605D1*
X1587886D1*
X1694147Y1805344D1*
X1706638Y1667829D2*
Y1792853D1*
X1694147Y1805344D1*
X1030353Y1580320D2*
Y1779127D1*
X1206585Y1955360D1*
X1644131D1*
X1794147Y1805344D1*
X1787896Y1942858D2*
Y1811594D1*
X1794147Y1805344D1*
X625274Y2517919D2*
Y2549172D1*
X656732Y2580630D1*
Y2636681D1*
X844047Y2517919D2*
Y2667934D1*
X781541Y2730441D1*
X731331D1*
X1237839Y1330294D2*
Y1274038D1*
X794042Y1461558D2*
Y1580230D1*
X794133Y1580320D1*
X1012815Y2355606D2*
Y2227780D1*
X1030353Y2210241D1*
X844047Y1330499D2*
X712783D1*
X975311D2*
X1106575D1*
X550471Y2517919D2*
Y2693142D1*
X587770Y2730441D1*
X656528D1*
X2075503Y3005480D2*
X2162925D1*
X994063Y2911710D2*
X962810Y2880457D1*
X725285D1*
X656528Y2811699D1*
Y2730441D1*
X715392Y2210241D2*
Y2334041D1*
X681530Y2367903D1*
X531514D1*
X512762Y2386655D1*
Y2786697D1*
X706533Y2980467D1*
X1631630D1*
X1706643Y3055480D1*
X1862904D1*
X636652Y2210241D2*
Y2287768D1*
X594021Y2330399D1*
X512762D1*
X475259Y2367903D1*
Y2805449D1*
X681530Y3011720D1*
X1612878D1*
X1725390Y2999219D2*
X1731651Y3005480D1*
X1862904D1*
D42*
X647068Y2427367D3*
X637776Y1461558D3*
X1831651Y1392801D3*
X1887907Y1324043D3*
X1500366Y942753D3*
X1950413Y1767840D3*
X1887907Y1324043D3*
X1012815Y2499167D3*
X1969165Y2667934D3*
X1950413Y1767840D3*
X2206675Y2955480D3*
X1012815Y2849203D3*
X881551Y2717940D3*
X794042Y2630430D3*
X1162831Y1405302D3*
X906554Y3061726D3*
X1237839Y1274038D3*
X794042Y1461558D3*
X2162925Y3005480D3*
X994063Y2911710D3*
X1612878Y3011720D3*
X1725390Y2999219D3*
X681902Y3268133D2*
D15*
X2082270D1*
X674115Y3243264D2*
X1315604D1*
X1440888D2*
X1958111D1*
X2067318D2*
X2093466D1*
X665072Y3218395D2*
X1288332D1*
X1468160D2*
X1958111D1*
X2067318D2*
X2104662D1*
X656029Y3193526D2*
X1273620D1*
X1482873D2*
X1958111D1*
X2088777D2*
X2115858D1*
X639235Y3168657D2*
X1266299D1*
X1490229D2*
X1958111D1*
X2111779D2*
X2129601D1*
X612573Y3143789D2*
X1264864D1*
X1491628D2*
X1958111D1*
X2143859D2*
X2154469D1*
X585947Y3118920D2*
X1269098D1*
X1487394D2*
X1974940D1*
X2143859D2*
X2179337D1*
X559285Y3094051D2*
X1279756D1*
X1476736D2*
X1950073D1*
X2143859D2*
X2204204D1*
X477864Y3069182D2*
X1299492D1*
X1457036D2*
X1674697D1*
X2143859D2*
X2250782D1*
X433798Y3044314D2*
X1341333D1*
X1415159D2*
X1584700D1*
X1641050D2*
X1649823D1*
X2180066D2*
X2310458D1*
X433583Y3019445D2*
X643637D1*
X2204504D2*
X2310458D1*
X433332Y2994576D2*
X618769D1*
X2223092D2*
X2310458D1*
X433117Y2969707D2*
X593866D1*
X1666492D2*
X1693716D1*
X1757064D2*
X1794551D1*
X2248175D2*
X2310458D1*
X432901Y2944839D2*
X568998D1*
X716530D2*
X966559D1*
X1021546D2*
X1794551D1*
X2249287D2*
X2310458D1*
X432686Y2919970D2*
X544130D1*
X691662D2*
X950877D1*
X1037227D2*
X1487992D1*
X2143859D2*
X2182710D1*
X2230663D2*
X2310458D1*
X432471Y2895101D2*
X519262D1*
X666794D2*
X694306D1*
X1034607D2*
X1463124D1*
X2143859D2*
X2310458D1*
X432255Y2870232D2*
X494395D1*
X641927D2*
X669438D1*
X1051078D2*
X1438257D1*
X1529522D2*
X1769539D1*
X2143859D2*
X2310458D1*
X432004Y2845364D2*
X469527D1*
X617059D2*
X644570D1*
X735836D2*
X963329D1*
X1056640D2*
X1086053D1*
X1189053D2*
X1314169D1*
X1336532D2*
X1412599D1*
X1504654D2*
X1560047D1*
X1663083D2*
X1744672D1*
X2143859D2*
X2310458D1*
X431789Y2820495D2*
X446238D1*
X592191D2*
X624834D1*
X710968D2*
X938462D1*
X1045265D2*
X1060073D1*
X1215033D2*
X1274804D1*
X1479787D2*
X1534067D1*
X1689063D2*
X1719804D1*
X2143859D2*
X2310458D1*
X431574Y2795626D2*
X442255D1*
X567324D2*
X623542D1*
X689545D2*
X913594D1*
X1004859D2*
X1047837D1*
X1227270D2*
X1265366D1*
X1483770D2*
X1521831D1*
X2143859D2*
X2310458D1*
X431358Y2770757D2*
X442255D1*
X545757D2*
X601940D1*
X785930D2*
X888726D1*
X979992D2*
X1043638D1*
X1231468D2*
X1267484D1*
X1481653D2*
X1517632D1*
X2143859D2*
X2310458D1*
X431143Y2745888D2*
X442255D1*
X545757D2*
X557587D1*
X811731D2*
X848356D1*
X955124D2*
X1046329D1*
X1228777D2*
X1282986D1*
X1367684D2*
X1381416D1*
X1466115D2*
X1520360D1*
X2143859D2*
X2310458D1*
X430892Y2721020D2*
X442255D1*
X930256D2*
X1056664D1*
X1218442D2*
X1530694D1*
X2143859D2*
X2310458D1*
X430677Y2696151D2*
X442255D1*
X919383D2*
X1078625D1*
X1196481D2*
X1264864D1*
X1472897D2*
X1552655D1*
X1820902D2*
X1829897D1*
X1905337D2*
X1927681D1*
X2010657D2*
X2310458D1*
X430461Y2671282D2*
X442255D1*
X583471D2*
X602155D1*
X876861D2*
X1264864D1*
X1736861D2*
X1754899D1*
X1820902D2*
X1838939D1*
X2013026D2*
X2310458D1*
X430246Y2646413D2*
X442255D1*
X583471D2*
X602155D1*
X877040D2*
X1264864D1*
X1711993D2*
X1754899D1*
X1820902D2*
X1863807D1*
X2007141D2*
X2310458D1*
X430031Y2621545D2*
X442255D1*
X583471D2*
X602155D1*
X877040D2*
X1264864D1*
X1468160D2*
X1756226D1*
X1842432D2*
X1888675D1*
X1979940D2*
X2310458D1*
X429779Y2596676D2*
X442255D1*
X583471D2*
X602155D1*
X877040D2*
X1776034D1*
X1858185D2*
X1913543D1*
X2004808D2*
X2310458D1*
X429564Y2571807D2*
X442255D1*
X583471D2*
X602263D1*
X688433D2*
X698612D1*
X779543D2*
X811037D1*
X877040D2*
X1688118D1*
X2029676D2*
X2062139D1*
X429349Y2546938D2*
X442255D1*
X668660D2*
X713145D1*
X885832D2*
X1688118D1*
X429134Y2522070D2*
X442255D1*
X667082D2*
X727463D1*
X885832D2*
X975709D1*
X1049930D2*
X1688118D1*
X1962680D2*
X1988146D1*
X428918Y2497201D2*
X442255D1*
X667082D2*
X727463D1*
X885832D2*
X968855D1*
X1056784D2*
X1688118D1*
X1962680D2*
X2062139D1*
X428667Y2472332D2*
X442255D1*
X667082D2*
X727463D1*
X885832D2*
X954286D1*
X1071353D2*
X1688118D1*
X1962680D2*
X2062139D1*
X428452Y2447463D2*
X442255D1*
X685885D2*
X764854D1*
X860138D2*
X954286D1*
X1071353D2*
X1688118D1*
X1962680D2*
X2062139D1*
X428236Y2422594D2*
X442255D1*
X690801D2*
X764854D1*
X885006D2*
X954286D1*
X1161171D2*
X1861152D1*
X1927155D2*
X2123465D1*
X2189468D2*
X2310458D1*
X428021Y2397726D2*
X442255D1*
X690406D2*
X764854D1*
X909874D2*
X954286D1*
X1161171D2*
X1861152D1*
X1927155D2*
X2123465D1*
X2189468D2*
X2310458D1*
X429815Y2372857D2*
X442255D1*
X722200D2*
X843476D1*
X934742D2*
X954286D1*
X1161171D2*
X1839549D1*
X1948757D2*
X2101899D1*
X2211070D2*
X2310458D1*
X745022Y2347988D2*
X868344D1*
X1161171D2*
X1839549D1*
X1948757D2*
X2101899D1*
X2211070D2*
X2310458D1*
X646951Y2323119D2*
X680670D1*
X748395D2*
X893212D1*
X1161171D2*
X1839549D1*
X1948757D2*
X2101899D1*
X2211070D2*
X2310458D1*
X1169604Y2298251D2*
X1839549D1*
X1948757D2*
X2101899D1*
X2211070D2*
X2310458D1*
X1169604Y2273382D2*
X2310458D1*
X1169604Y2248513D2*
X1962596D1*
X2075715D2*
X2104339D1*
X2217458D2*
X2310458D1*
X1169604Y2223644D2*
X1962596D1*
X2075715D2*
X2104339D1*
X2217458D2*
X2310458D1*
X1169604Y2198776D2*
X1962596D1*
X2075715D2*
X2104339D1*
X2217458D2*
X2310458D1*
X1169604Y2173907D2*
X1962596D1*
X2075715D2*
X2104339D1*
X2217458D2*
X2310458D1*
X1169604Y2149038D2*
X1962596D1*
X2075715D2*
X2104339D1*
X2217458D2*
X2310458D1*
X1169604Y2124169D2*
X1962596D1*
X2075715D2*
X2104339D1*
X2217458D2*
X2310458D1*
X884037Y2099301D2*
X920663D1*
X1008268D2*
X2310458D1*
X884037Y2074432D2*
X941871D1*
X2008253D2*
X2310458D1*
X884037Y2049563D2*
X966738D1*
X2033121D2*
X2310458D1*
X884037Y2024694D2*
X1962596D1*
X2075715D2*
X2310458D1*
X884037Y1999825D2*
X1962596D1*
X2075715D2*
X2310458D1*
X884037Y1974957D2*
X1180536D1*
X1670152D2*
X1733296D1*
X1950049D2*
X1962596D1*
X2075715D2*
X2310458D1*
X884037Y1950088D2*
X1155669D1*
X1695020D2*
X1733296D1*
X2075715D2*
X2310458D1*
X884037Y1925219D2*
X1130801D1*
X1719888D2*
X1733296D1*
X2075715D2*
X2310458D1*
X884037Y1900350D2*
X1105933D1*
X1644782D2*
X1653532D1*
X2075715D2*
X2310458D1*
X884037Y1875482D2*
X1081065D1*
X1234841D2*
X1578384D1*
X1669650D2*
X1678391D1*
X1820902D2*
X1889787D1*
X2073778D2*
X2310458D1*
X884037Y1850613D2*
X1056198D1*
X1209973D2*
X1333259D1*
X1533541D2*
X1554772D1*
X1833533D2*
X1889787D1*
X2073778D2*
X2310458D1*
X884037Y1825744D2*
X1031330D1*
X1185106D2*
X1333259D1*
X1851367D2*
X1889787D1*
X2073778D2*
X2310458D1*
X884037Y1800875D2*
X1006462D1*
X1160238D2*
X1333259D1*
X1854848D2*
X1889787D1*
X2073778D2*
X2310458D1*
X884037Y1776007D2*
X997348D1*
X1142081D2*
X1333259D1*
X1847133D2*
X1900911D1*
X1993612D2*
X2310458D1*
X884037Y1751138D2*
X997348D1*
X1063351D2*
X1076077D1*
X1142081D2*
X1333259D1*
X1535658D2*
X1569951D1*
X1618335D2*
X1669961D1*
X1739624D2*
X1769934D1*
X1818354D2*
X1876044D1*
X1990921D2*
X2310458D1*
X884037Y1726269D2*
X997348D1*
X1063351D2*
X1076077D1*
X1142081D2*
X1288619D1*
X1535658D2*
X1673621D1*
X1739624D2*
X1851176D1*
X2069471D2*
X2098095D1*
X2211214D2*
X2310458D1*
X884037Y1701400D2*
X997348D1*
X1063351D2*
X1076077D1*
X1142081D2*
X1263752D1*
X1531998D2*
X1652054D1*
X1941616D2*
X1956352D1*
X2069471D2*
X2098095D1*
X2211214D2*
X2310458D1*
X1510396Y1676531D2*
X1652054D1*
X1916748D2*
X1956352D1*
X2069471D2*
X2098095D1*
X2211214D2*
X2310458D1*
X1329324Y1651663D2*
X1652054D1*
X1891881D2*
X1956352D1*
X2069471D2*
X2098095D1*
X2211214D2*
X2310458D1*
X1327099Y1626794D2*
X1652054D1*
X1836045D2*
X1956352D1*
X2069471D2*
X2098095D1*
X2211214D2*
X2310458D1*
X1327099Y1601925D2*
X1956352D1*
X2069471D2*
X2098095D1*
X2211214D2*
X2310458D1*
X1433891Y1577056D2*
X2310458D1*
X1433891Y1552188D2*
X2310458D1*
X1433891Y1527319D2*
X2310458D1*
X1248334Y1502450D2*
X1316824D1*
X1433891D2*
X1956352D1*
X2069471D2*
X2310458D1*
X1248334Y1477581D2*
X1956352D1*
X2069471D2*
X2310458D1*
X680825Y1452713D2*
X751003D1*
X902589D2*
X916788D1*
X1033854D2*
X1152690D1*
X1296383D2*
X1845973D1*
X2069471D2*
X2310458D1*
X489419Y1427844D2*
X611090D1*
X664462D2*
X767330D1*
X902589D2*
X916788D1*
X1033854D2*
X1176410D1*
X1322973D2*
X1806931D1*
X2069471D2*
X2310458D1*
X450736Y1402975D2*
X785523D1*
X902589D2*
X916788D1*
X1033854D2*
X1179316D1*
X1347840D2*
X1390602D1*
X1572619D2*
X1788917D1*
X2069471D2*
X2310458D1*
X434014Y1378106D2*
X654259D1*
X771325D2*
X785523D1*
X902589D2*
X916788D1*
X1033854D2*
X1048052D1*
X1165118D2*
X1179316D1*
X1365460D2*
X1390602D1*
X1572619D2*
X1790352D1*
X1872970D2*
X1883543D1*
X2069471D2*
X2310458D1*
X434014Y1353238D2*
X654259D1*
X902589D2*
X916788D1*
X1165118D2*
X1179316D1*
X1366859D2*
X1390602D1*
X1572619D2*
X1816619D1*
X1846667D2*
X1855913D1*
X2069471D2*
X2310458D1*
X434014Y1328369D2*
X654259D1*
X902589D2*
X916788D1*
X1165118D2*
X1179316D1*
X1366859D2*
X1390602D1*
X1572619D2*
X1844143D1*
X2067498D2*
X2310458D1*
X434014Y1303500D2*
X654259D1*
X902589D2*
X916788D1*
X1165118D2*
X1179316D1*
X1366859D2*
X1426486D1*
X1509463D2*
X1849346D1*
X2067498D2*
X2310458D1*
X434014Y1278631D2*
X654259D1*
X771325D2*
X785523D1*
X902589D2*
X916788D1*
X1033854D2*
X1048052D1*
X1165118D2*
X1179316D1*
X1366859D2*
X1426486D1*
X1509463D2*
X1883543D1*
X2067498D2*
X2310458D1*
X434014Y1253762D2*
X603590D1*
X1366070D2*
X1426486D1*
X1509463D2*
X1944726D1*
X2144900D2*
X2310458D1*
X434014Y1228894D2*
X578723D1*
X1350352D2*
X1426486D1*
X1509463D2*
X1930300D1*
X2159361D2*
X2310458D1*
X434014Y1204025D2*
X551738D1*
X1325485D2*
X1426486D1*
X1509463D2*
X1927430D1*
X2162232D2*
X2310458D1*
X434014Y1179156D2*
X551738D1*
X660909D2*
X1426486D1*
X1509463D2*
X1934427D1*
X2155235D2*
X2310458D1*
X434014Y1154287D2*
X551738D1*
X660909D2*
X709987D1*
X1122308D2*
X1426486D1*
X1509463D2*
X1956496D1*
X2133130D2*
X2310458D1*
X434014Y1129419D2*
X551738D1*
X660909D2*
X709987D1*
X1122308D2*
X1426486D1*
X1509463D2*
X1877407D1*
X1976029D2*
X2126085D1*
X2199803D2*
X2310458D1*
X434014Y1104550D2*
X551738D1*
X660909D2*
X709987D1*
X1122308D2*
X1426486D1*
X1509463D2*
X1583623D1*
X1704637D2*
X1745066D1*
X1991495D2*
X2102509D1*
X2223379D2*
X2310458D1*
X434014Y1079681D2*
X551738D1*
X660909D2*
X709987D1*
X1122308D2*
X1206050D1*
X1534151D2*
X1583623D1*
X1704637D2*
X1745066D1*
X1995084D2*
X2094865D1*
X2230986D2*
X2310458D1*
X434014Y1054812D2*
X551738D1*
X660909D2*
X709987D1*
X1122308D2*
X1206050D1*
X1704637D2*
X1745066D1*
X1995084D2*
X2094578D1*
X2231309D2*
X2310458D1*
X434014Y1029944D2*
X551738D1*
X660909D2*
X709987D1*
X1122308D2*
X1206050D1*
X1704637D2*
X1745066D1*
X1995084D2*
X2094578D1*
X2231309D2*
X2310458D1*
X434014Y1005075D2*
X551738D1*
X660909D2*
X709987D1*
X1122308D2*
X1206050D1*
X1704637D2*
X1745066D1*
X1995084D2*
X2094578D1*
X2231309D2*
X2310458D1*
X434014Y980206D2*
X551738D1*
X1520730D2*
X1583623D1*
X1704637D2*
X1745066D1*
X1995084D2*
X2094578D1*
X2231309D2*
X2310458D1*
X434014Y955337D2*
X551738D1*
X1542405D2*
X1583623D1*
X1704637D2*
X1745066D1*
X1994366D2*
X2097521D1*
X2228367D2*
X2310458D1*
X434014Y930469D2*
X579907D1*
X1542512D2*
X1868113D1*
X1985323D2*
X2111731D1*
X2214156D2*
X2310458D1*
X434014Y905600D2*
X610911D1*
X1521340D2*
X1895672D1*
X1957764D2*
X2310458D1*
X434014Y880731D2*
X476919D1*
X660909D2*
X709987D1*
X1122308D2*
X2310458D1*
X434014Y855862D2*
X476919D1*
X1122308D2*
X2310458D1*
X434014Y830993D2*
X476919D1*
X1122308D2*
X2310458D1*
X434014Y806125D2*
X476919D1*
X1122308D2*
X2310458D1*
X434014Y781256D2*
X476919D1*
X660909D2*
X709987D1*
X1122308D2*
X2310458D1*
X434014Y756387D2*
X476919D1*
X586091D2*
X709987D1*
X1122308D2*
X2310458D1*
X434014Y731518D2*
X476919D1*
X586091D2*
X709987D1*
X1122308D2*
X2310458D1*
X434014Y706650D2*
X476919D1*
X586091D2*
X2310458D1*
X457554Y681781D2*
X1311980D1*
X1444512D2*
X2310458D1*
X539226Y656912D2*
X1286466D1*
X1470026D2*
X2253509D1*
X567180Y632043D2*
X1272615D1*
X1483877D2*
X2181669D1*
X595170Y607175D2*
X1265905D1*
X1490588D2*
X2143811D1*
X623159Y582306D2*
X1265008D1*
X1491485D2*
X2130139D1*
X642286Y557437D2*
X1269852D1*
X1486676D2*
X2116468D1*
X650575Y532568D2*
X1281227D1*
X1475301D2*
X2102760D1*
X658864Y507699D2*
X1302148D1*
X1454381D2*
X2089088D1*
X667153Y482831D2*
X1349946D1*
X1406547D2*
X2078682D1*
X675443Y457962D2*
X2075918D1*
X1806220Y3093791D2*
X1928774D1*
Y2994451D1*
X1936412Y2994480D1*
X1936536Y3064786D1*
X1937494Y3070830D1*
X1939385Y3076650D1*
X1942163Y3082103D1*
X1945760Y3087054D1*
X1980317Y3121782D1*
X1993842Y3135136D1*
X1998793Y3138733D1*
X2004246Y3141512D1*
X2007130Y3142575D1*
X2000502Y3143212D1*
X1960625D1*
Y3255267D1*
X2064806D1*
Y3215041D1*
X2105159Y3174487D1*
X2108756Y3169536D1*
X2111534Y3164084D1*
X2113425Y3158263D1*
X2114383Y3152219D1*
X2114503Y3143812D1*
X2141373Y3143791D1*
Y3040934D1*
X2147044Y3043821D1*
X2153237Y3045834D1*
X2159669Y3046852D1*
X2166181D1*
X2172613Y3045834D1*
X2178807Y3043821D1*
X2184609Y3040865D1*
X2189877Y3037037D1*
X2194482Y3032432D1*
X2198310Y3027164D1*
X2201266Y3021362D1*
X2203279Y3015168D1*
X2204297Y3008736D1*
Y3002224D1*
X2203490Y2996853D1*
X2209931Y2996852D1*
X2216363Y2995834D1*
X2222556Y2993821D1*
X2228358Y2990865D1*
X2233627Y2987037D1*
X2238231Y2982432D1*
X2242059Y2977164D1*
X2245016Y2971362D1*
X2247028Y2965168D1*
X2248047Y2958736D1*
Y2952224D1*
X2247028Y2945792D1*
X2245016Y2939599D1*
X2242059Y2933797D1*
X2238231Y2928528D1*
X2233627Y2923923D1*
X2228358Y2920096D1*
X2222556Y2917139D1*
X2216363Y2915127D1*
X2209931Y2914108D1*
X2203418D1*
X2196987Y2915127D1*
X2190793Y2917139D1*
X2184991Y2920096D1*
X2179722Y2923923D1*
X2178573Y2924986D1*
X2141401Y2924980D1*
X2141373Y2817169D1*
Y2717169D1*
X2009633D1*
Y2943791D1*
Y2952013D1*
X2008662Y2950312D1*
X2008165Y2946076D1*
Y2682148D1*
X2009519Y2677622D1*
X2010537Y2671190D1*
Y2664678D1*
X2009519Y2658246D1*
X2007506Y2652053D1*
X2004550Y2646251D1*
X2000722Y2640982D1*
X1996117Y2636378D1*
X1990849Y2632550D1*
X1985047Y2629593D1*
X1978853Y2627581D1*
X1972409Y2626562D1*
X2031818Y2567157D1*
X2064636Y2567171D1*
X2064649Y2577538D1*
X2312931D1*
X2312953Y3046810D1*
X2219276Y3082105D1*
X2216906Y3083848D1*
X2127820Y3173141D1*
X2126794Y3174817D1*
X2073608Y3292972D1*
X684739Y3286792D1*
X674796Y3252058D1*
X648710Y3180682D1*
X646994Y3178297D1*
X551802Y3089450D1*
X549303Y3087903D1*
X538135Y3084875D1*
X431434Y3058199D1*
X425310Y2374287D1*
X445918Y2359574D1*
X444852Y2365510D1*
X444758Y2441394D1*
X444852Y2807842D1*
X445601Y2812569D1*
X447080Y2817121D1*
X449253Y2821385D1*
X452066Y2825257D1*
X505658Y2878981D1*
X661722Y3034913D1*
X665594Y3037726D1*
X669858Y3039899D1*
X674410Y3041378D1*
X679137Y3042127D1*
X755021Y3042221D1*
X1351093D1*
X1343934Y3044285D1*
X1335753Y3047303D1*
X1327833Y3050954D1*
X1320225Y3055214D1*
X1312975Y3060059D1*
X1306127Y3065458D1*
X1299723Y3071377D1*
X1293804Y3077780D1*
X1288405Y3084628D1*
X1283561Y3091879D1*
X1279300Y3099487D1*
X1275649Y3107406D1*
X1272631Y3115587D1*
X1270264Y3123980D1*
X1268563Y3132532D1*
X1267538Y3141192D1*
X1267196Y3149906D1*
X1267538Y3158619D1*
X1268563Y3167279D1*
X1270264Y3175831D1*
X1272631Y3184224D1*
X1275649Y3192405D1*
X1279300Y3200324D1*
X1283561Y3207932D1*
X1288405Y3215183D1*
X1293804Y3222031D1*
X1299723Y3228434D1*
X1306127Y3234353D1*
X1312975Y3239752D1*
X1320225Y3244597D1*
X1327833Y3248858D1*
X1335753Y3252508D1*
X1343934Y3255526D1*
X1352326Y3257893D1*
X1360879Y3259595D1*
X1369539Y3260620D1*
X1378252Y3260962D1*
X1386965Y3260620D1*
X1395625Y3259595D1*
X1404178Y3257893D1*
X1412570Y3255526D1*
X1420751Y3252508D1*
X1428671Y3248858D1*
X1436279Y3244597D1*
X1443529Y3239752D1*
X1450377Y3234353D1*
X1456781Y3228434D1*
X1462700Y3222031D1*
X1468099Y3215183D1*
X1472943Y3207932D1*
X1477204Y3200324D1*
X1480855Y3192405D1*
X1483873Y3184224D1*
X1486240Y3175831D1*
X1487941Y3167279D1*
X1488966Y3158619D1*
X1489308Y3149906D1*
X1488966Y3141192D1*
X1487941Y3132532D1*
X1486240Y3123980D1*
X1483873Y3115587D1*
X1480855Y3107406D1*
X1477204Y3099487D1*
X1472943Y3091879D1*
X1468099Y3084628D1*
X1462700Y3077780D1*
X1456781Y3071377D1*
X1450377Y3065458D1*
X1443529Y3060059D1*
X1436279Y3055214D1*
X1428671Y3050954D1*
X1420751Y3047303D1*
X1412570Y3044285D1*
X1405259Y3042223D1*
X1584771Y3042221D1*
X1588485Y3045295D1*
X1594037Y3048697D1*
X1600054Y3051189D1*
X1606386Y3052710D1*
X1612878Y3053220D1*
X1619370Y3052710D1*
X1625702Y3051189D1*
X1631719Y3048697D1*
X1637271Y3045295D1*
X1642223Y3041065D1*
X1645436Y3037403D1*
X1686835Y3078673D1*
X1690707Y3081486D1*
X1694971Y3083659D1*
X1699523Y3085138D1*
X1704250Y3085886D1*
X1780134Y3085980D1*
X1797035D1*
X1797034Y3093791D1*
X1806220D1*
X1797046Y2967169D2*
X1797034Y2974956D1*
X1758964Y2974826D1*
X1754735Y2969874D1*
X1749783Y2965645D1*
X1744230Y2962242D1*
X1738214Y2959750D1*
X1731882Y2958230D1*
X1725390Y2957719D1*
X1718898Y2958230D1*
X1712566Y2959750D1*
X1706549Y2962242D1*
X1700997Y2965645D1*
X1696045Y2969874D1*
X1691816Y2974826D1*
X1688413Y2980379D1*
X1685921Y2986395D1*
X1684835Y2990542D1*
X1651438Y2957275D1*
X1647566Y2954462D1*
X1643302Y2952289D1*
X1638750Y2950810D1*
X1634023Y2950061D1*
X1558139Y2949967D1*
X1010152D1*
X1015747Y2947095D1*
X1021015Y2943267D1*
X1025620Y2938662D1*
X1029448Y2933394D1*
X1032404Y2927591D1*
X1034416Y2921398D1*
X1035435Y2914966D1*
Y2908454D1*
X1034416Y2902022D1*
X1032404Y2895829D1*
X1029448Y2890026D1*
X1027984Y2887835D1*
X1034499Y2884588D1*
X1039767Y2880760D1*
X1044372Y2876156D1*
X1048200Y2870887D1*
X1051156Y2865085D1*
X1053168Y2858891D1*
X1054187Y2852459D1*
Y2845947D1*
X1053168Y2839515D1*
X1051156Y2833322D1*
X1048200Y2827520D1*
X1044372Y2822251D1*
X1039767Y2817647D1*
X1034499Y2813819D1*
X1028696Y2810862D1*
X1022503Y2808850D1*
X1016071Y2807831D1*
X1014507Y2807770D1*
X923015Y2716270D1*
X922540Y2711448D1*
X921020Y2705115D1*
X918528Y2699099D1*
X915125Y2693547D1*
X910896Y2688595D1*
X905944Y2684365D1*
X900392Y2680963D1*
X894375Y2678471D1*
X888043Y2676951D1*
X881551Y2676440D1*
X875059Y2676951D1*
X873049Y2677350D1*
X874172Y2672706D1*
X874547Y2667925D1*
Y2565054D1*
X883343Y2565088D1*
Y2470749D1*
X845916D1*
X845941Y2455697D1*
X850524Y2453373D1*
X854396Y2450560D1*
X908121Y2396968D1*
X956762Y2348327D1*
X956787Y2482500D1*
X973832D1*
X973346Y2486342D1*
X971826Y2492675D1*
X971315Y2499167D1*
X971826Y2505659D1*
X973346Y2511991D1*
X975838Y2518007D1*
X979241Y2523560D1*
X983470Y2528512D1*
X988422Y2532741D1*
X993974Y2536143D1*
X999991Y2538636D1*
X1006323Y2540156D1*
X1012815Y2540667D1*
X1019307Y2540156D1*
X1025639Y2538636D1*
X1031656Y2536143D1*
X1037208Y2532741D1*
X1042160Y2528512D1*
X1046389Y2523560D1*
X1049792Y2518007D1*
X1052284Y2511991D1*
X1053804Y2505659D1*
X1054315Y2499167D1*
X1053804Y2492675D1*
X1052284Y2486342D1*
X1051812Y2485065D1*
X1057837Y2482500D1*
X1068843D1*
Y2430217D1*
X1158665Y2430181D1*
Y2318126D1*
X1137099D1*
X1142961Y2315481D1*
X1167089D1*
Y2105001D1*
X1000100D1*
X1006699Y2098369D1*
X1971558Y2098277D1*
X1976285Y2097529D1*
X1980837Y2096050D1*
X1985102Y2093877D1*
X1988974Y2091064D1*
X2040737Y2039433D1*
X2043846Y2035794D1*
X2045181Y2033794D1*
X2047789Y2033041D1*
X2073230D1*
Y1877678D1*
X2071261Y1877567D1*
Y1793071D1*
X1983360D1*
X1987390Y1786681D1*
X1989882Y1780664D1*
X1991402Y1774332D1*
X1991913Y1767840D1*
X1991402Y1761348D1*
X1989882Y1755016D1*
X1987390Y1748999D1*
X1984490Y1744198D1*
X2066979Y1744206D1*
Y1588844D1*
X1958861D1*
Y1721149D1*
X1875731Y1638173D1*
X1870780Y1634576D1*
X1865328Y1631798D1*
X1859507Y1629907D1*
X1853463Y1628949D1*
X1833501Y1628829D1*
X1833532Y1611802D1*
X1654547D1*
Y1723857D1*
X1676114D1*
X1676104Y1749812D1*
X1667639Y1753318D1*
X1659826Y1758106D1*
X1652859Y1764056D1*
X1646909Y1771023D1*
X1644160Y1775195D1*
X1640247Y1769508D1*
X1635383Y1764005D1*
X1629868Y1759155D1*
X1623787Y1755037D1*
X1617238Y1751714D1*
X1610323Y1749239D1*
X1603152Y1747653D1*
X1595839Y1746979D1*
X1588499Y1747228D1*
X1581248Y1748397D1*
X1574202Y1750466D1*
X1567471Y1753404D1*
X1561162Y1757164D1*
X1555374Y1761685D1*
X1550201Y1766898D1*
X1545722Y1772719D1*
X1544150Y1775197D1*
X1538547Y1767423D1*
X1533160Y1761953D1*
X1533027Y1714806D1*
X1532069Y1708762D1*
X1530178Y1702941D1*
X1527400Y1697489D1*
X1523803Y1692538D1*
X1509191Y1677756D1*
X1504538Y1673782D1*
X1499320Y1670584D1*
X1493666Y1668242D1*
X1487715Y1666813D1*
X1481614Y1666333D1*
X1341486D1*
X1324633Y1649464D1*
X1324608Y1601181D1*
X1431381Y1601157D1*
Y1496976D1*
X1319325D1*
Y1510074D1*
X1245812Y1510067D1*
X1245829Y1475080D1*
X1241990D1*
X1259840Y1457207D1*
X1293866Y1457188D1*
Y1443659D1*
X1300100Y1442188D1*
X1305754Y1439846D1*
X1310972Y1436649D1*
X1315634Y1432666D1*
X1355004Y1393126D1*
X1358601Y1388175D1*
X1361379Y1382723D1*
X1363270Y1376902D1*
X1364228Y1370858D1*
X1364348Y1321866D1*
X1364228Y1258477D1*
X1363270Y1252432D1*
X1361379Y1246612D1*
X1358601Y1241159D1*
X1355004Y1236208D1*
X1321672Y1202706D1*
X1317018Y1198732D1*
X1311800Y1195534D1*
X1306146Y1193192D1*
X1300195Y1191764D1*
X1294083Y1191284D1*
X658406Y1191283D1*
X658408Y981718D1*
X712447Y981743D1*
X712477Y1177904D1*
X1119807D1*
Y981725D1*
X1208562Y981743D1*
X1208540Y1097786D1*
X1379650D1*
Y1081746D1*
X1428983Y1081743D1*
X1428972Y1303585D1*
X1393106Y1303551D1*
Y1419543D1*
X1570122D1*
Y1303551D1*
X1507002D1*
X1506973Y1081753D1*
X1522199Y1081623D1*
X1528243Y1080665D1*
X1534064Y1078774D1*
X1539517Y1075996D1*
X1544468Y1072399D1*
X1554049Y1062987D1*
X1586134Y1063012D1*
X1586135Y1117441D1*
X1702128D1*
Y930582D1*
X1586135D1*
Y985019D1*
X1534810Y985132D1*
X1528766Y986089D1*
X1522945Y987980D1*
X1517493Y990759D1*
X1512542Y994356D1*
X1502960Y1003768D1*
X1379661Y1003743D1*
X1379614Y987699D1*
X1385958Y981743D1*
X1486183D1*
X1490678Y983107D1*
X1497110Y984125D1*
X1503622D1*
X1510054Y983107D1*
X1516248Y981094D1*
X1522050Y978138D1*
X1527318Y974310D1*
X1531923Y969705D1*
X1535751Y964437D1*
X1538707Y958635D1*
X1540719Y952441D1*
X1541738Y946009D1*
Y939497D1*
X1540719Y933065D1*
X1538707Y926872D1*
X1535751Y921070D1*
X1531923Y915801D1*
X1527318Y911196D1*
X1522050Y907369D1*
X1516248Y904412D1*
X1510054Y902400D1*
X1503622Y901381D1*
X1497110D1*
X1490678Y902400D1*
X1486288Y903747D1*
X1379677Y903743D1*
X1379650Y887699D1*
X1208540D1*
Y903740D1*
X1119805Y903743D1*
X1119807Y707581D1*
X712477D1*
Y797471D1*
X658424Y797492D1*
X658408Y780464D1*
X583605Y780387D1*
Y686705D1*
X479424D1*
Y892520D1*
X658408D1*
Y875475D1*
X712499Y875492D1*
X712477Y903760D1*
X622225Y903863D1*
X616180Y904820D1*
X610360Y906711D1*
X604907Y909490D1*
X599956Y913087D1*
X578740Y934133D1*
X576654Y936391D1*
X575731Y936731D1*
X554227D1*
Y1223804D1*
X576368D1*
X591732Y1239394D1*
X612447Y1259939D1*
X617398Y1263536D1*
X622851Y1266315D1*
X628671Y1268206D1*
X634716Y1269163D1*
X683707Y1269283D1*
X1196600D1*
X1196339Y1274038D1*
X1196573Y1278192D1*
X1181811Y1278203D1*
Y1424954D1*
X1158177Y1448731D1*
X1154580Y1453682D1*
X1151802Y1459134D1*
X1149911Y1464955D1*
X1148953Y1470999D1*
X1148717Y1475080D1*
X986171Y1475079D1*
X998504Y1462614D1*
X1001321Y1458734D1*
X1011147Y1457392D1*
X1031339D1*
Y1361023D1*
X1050547Y1361085D1*
Y1382589D1*
X1162603D1*
Y1278408D1*
X1050547D1*
Y1299974D1*
X1031339Y1299912D1*
Y1278408D1*
X919284D1*
Y1457392D1*
X922477D1*
X921488Y1461733D1*
X921113Y1466513D1*
X912496Y1475080D1*
X903346D1*
X903279Y1469238D1*
X902530Y1464511D1*
X901051Y1459959D1*
X900075Y1457392D1*
Y1278408D1*
X788020D1*
Y1299974D1*
X768811Y1299912D1*
Y1278408D1*
X656756D1*
Y1382589D1*
X768811D1*
Y1361023D1*
X788033Y1360999D1*
X788020Y1420494D1*
X781218Y1422089D1*
X775201Y1424581D1*
X769649Y1427984D1*
X764697Y1432213D1*
X760468Y1437165D1*
X757065Y1442717D1*
X754573Y1448734D1*
X753053Y1455066D1*
X752542Y1461558D1*
X753090Y1468237D1*
X679268Y1460612D1*
X678765Y1455066D1*
X677244Y1448734D1*
X674752Y1442717D1*
X671350Y1437165D1*
X667121Y1432213D1*
X662169Y1427984D1*
X656616Y1424581D1*
X650600Y1422089D1*
X644268Y1420569D1*
X637776Y1420058D1*
X631284Y1420569D1*
X624951Y1422089D1*
X618935Y1424581D1*
X613383Y1427984D1*
X608431Y1432213D1*
X604201Y1437165D1*
X600799Y1442717D1*
X598307Y1448734D1*
X597370Y1452132D1*
X510764Y1443180D1*
X431500Y1392225D1*
X431503Y684920D1*
X516332Y673453D1*
X519030Y672289D1*
X520648Y671173D1*
X634938Y569392D1*
X636522Y566917D1*
X654563Y513126D1*
X678215Y442699D1*
X2076730D1*
X2082124Y489762D1*
X2083231Y492488D1*
X2153060Y619132D1*
X2155122Y621225D1*
X2157616Y622780D1*
X2312968Y676631D1*
X2312953Y2445822D1*
X2186951Y2445798D1*
X2187067Y2392677D1*
X2208571D1*
Y2280622D1*
X2104390D1*
Y2392677D1*
X2125956D1*
X2125980Y2445773D1*
X2064649Y2445798D1*
Y2506191D1*
X2016778Y2506265D1*
X2012051Y2507013D1*
X2007499Y2508492D1*
X2003234Y2510665D1*
X1999362Y2513478D1*
X1960177Y2552530D1*
X1960168Y2445798D1*
X1924535D1*
X1924658Y2406165D1*
X1924744Y2392677D1*
X1946248D1*
Y2280622D1*
X1842067D1*
Y2392677D1*
X1863634D1*
X1863657Y2430271D1*
X1848156Y2445779D1*
X1690633Y2445798D1*
Y2577538D1*
X1794876D1*
X1790842Y2584351D1*
X1764704Y2610622D1*
X1761891Y2614494D1*
X1759718Y2618759D1*
X1758239Y2623310D1*
X1757490Y2628037D1*
X1757396Y2695345D1*
X1754833Y2691881D1*
X1703163Y2640078D1*
X1699523Y2636969D1*
X1695443Y2634469D1*
X1691021Y2632637D1*
X1686367Y2631520D1*
X1681586Y2631145D1*
X1473073Y2631144D1*
X1467874Y2623979D1*
X1461438Y2617544D1*
X1454076Y2612195D1*
X1445967Y2608063D1*
X1437312Y2605251D1*
X1428323Y2603827D1*
X1419223D1*
X1410234Y2605251D1*
X1401579Y2608063D1*
X1393470Y2612195D1*
X1386108Y2617544D1*
X1383351Y2620092D1*
X1383344Y2603688D1*
X1267352D1*
Y2719680D1*
X1383344D1*
Y2703209D1*
X1389684Y2708564D1*
X1397443Y2713319D1*
X1405851Y2716802D1*
X1414700Y2718926D1*
X1423773Y2719640D1*
X1432846Y2718926D1*
X1441695Y2716802D1*
X1450103Y2713319D1*
X1457862Y2708564D1*
X1464782Y2702654D1*
X1470693Y2695734D1*
X1473094Y2692139D1*
X1560671Y2692144D1*
X1552707Y2698138D1*
X1545984Y2704393D1*
X1539922Y2711290D1*
X1534583Y2718761D1*
X1530020Y2726729D1*
X1526278Y2735115D1*
X1523397Y2743834D1*
X1521404Y2752797D1*
X1520320Y2761916D1*
X1520155Y2771097D1*
X1520913Y2780248D1*
X1522583Y2789277D1*
X1525151Y2798093D1*
X1528590Y2806607D1*
X1532866Y2814734D1*
X1537934Y2822391D1*
X1543745Y2829501D1*
X1550240Y2835992D1*
X1557352Y2841800D1*
X1565012Y2846865D1*
X1573140Y2851136D1*
X1581656Y2854571D1*
X1590473Y2857135D1*
X1599503Y2858802D1*
X1608655Y2859555D1*
X1617836Y2859386D1*
X1626953Y2858298D1*
X1635916Y2856301D1*
X1644633Y2853415D1*
X1653017Y2849670D1*
X1660983Y2845103D1*
X1668452Y2839760D1*
X1675346Y2833695D1*
X1681598Y2826970D1*
X1687144Y2819651D1*
X1691928Y2811813D1*
X1695902Y2803535D1*
X1699026Y2794901D1*
X1701140Y2786697D1*
X1701516Y2791468D1*
X1702633Y2796122D1*
X1704465Y2800544D1*
X1706965Y2804624D1*
X1710074Y2808264D1*
X1776780Y2874970D1*
X1531801Y2874980D1*
X1473947Y2817155D1*
X1477354Y2810216D1*
X1480167Y2801561D1*
X1481590Y2792573D1*
Y2783472D1*
X1480167Y2774483D1*
X1477354Y2765828D1*
X1473223Y2757719D1*
X1467874Y2750357D1*
X1461438Y2743922D1*
X1454076Y2738573D1*
X1445967Y2734441D1*
X1437312Y2731629D1*
X1428323Y2730205D1*
X1419223D1*
X1410234Y2731629D1*
X1401579Y2734441D1*
X1393470Y2738573D1*
X1386108Y2743922D1*
X1379672Y2750357D1*
X1374570Y2757350D1*
X1369820Y2750796D1*
X1364758Y2745474D1*
X1359065Y2740835D1*
X1352832Y2736952D1*
X1346157Y2733888D1*
X1339149Y2731692D1*
X1331919Y2730400D1*
X1324584Y2730031D1*
X1317262Y2730593D1*
X1310069Y2732075D1*
X1303121Y2734455D1*
X1296529Y2737693D1*
X1290400Y2741739D1*
X1284831Y2746527D1*
X1279911Y2751980D1*
X1275721Y2758011D1*
X1272326Y2764523D1*
X1269781Y2771413D1*
X1268127Y2778568D1*
X1267391Y2785875D1*
X1267585Y2793217D1*
X1268704Y2800475D1*
X1270732Y2807534D1*
X1273636Y2814280D1*
X1277369Y2820604D1*
X1281871Y2826407D1*
X1287071Y2831593D1*
X1292884Y2836081D1*
X1299218Y2839799D1*
X1305971Y2842686D1*
X1313035Y2844696D1*
X1320296Y2845798D1*
X1327638Y2845973D1*
X1334943Y2845219D1*
X1342095Y2843548D1*
X1348977Y2840986D1*
X1355482Y2837575D1*
X1361502Y2833370D1*
X1366943Y2828437D1*
X1371717Y2822856D1*
X1374556Y2818705D1*
X1379672Y2825688D1*
X1386108Y2832123D1*
X1393470Y2837472D1*
X1401579Y2841604D1*
X1410234Y2844416D1*
X1415990Y2845457D1*
X1499331Y2928673D1*
X1503203Y2931486D1*
X1507467Y2933659D1*
X1512019Y2935138D1*
X1516746Y2935886D1*
X1592630Y2935980D1*
X1797062D1*
X1797034Y2967156D1*
X1928774Y2916483D2*
Y2717169D1*
X1893428D1*
X1893404Y2705565D1*
X1927793Y2671190D1*
X1928812Y2677622D1*
X1930168Y2682036D1*
X1930165Y2916504D1*
X1832425Y2717169D2*
X1818431D1*
X1818396Y2643039D1*
X1848593Y2612735D1*
X1851406Y2608863D1*
X1853579Y2604598D1*
X1855058Y2600047D1*
X1855806Y2595320D1*
X1855987Y2577538D1*
X1935184D1*
X1839712Y2673129D1*
X1836899Y2677001D1*
X1834726Y2681265D1*
X1833247Y2685817D1*
X1832498Y2690544D1*
X1832404Y2717159D1*
X595165Y2565088D2*
X599269Y2565108D1*
X602082Y2568980D1*
X613629Y2580660D1*
X604642Y2580654D1*
X604437Y2683600D1*
Y2699927D1*
X600369Y2699941D1*
X580994Y2680531D1*
X580971Y2565071D1*
X595165Y2565088D1*
X664570Y2545316D2*
Y2470749D1*
X627142D1*
X627168Y2463807D1*
X634244Y2466836D1*
X640576Y2468357D1*
X647068Y2468867D1*
X653560Y2468357D1*
X659892Y2466836D1*
X665909Y2464344D1*
X671461Y2460942D1*
X676413Y2456712D1*
X680642Y2451761D1*
X684045Y2446208D1*
X686537Y2440192D1*
X688057Y2433859D1*
X688568Y2427367D1*
X688057Y2420875D1*
X686537Y2414543D1*
X684045Y2408527D1*
X680642Y2402974D1*
X676767Y2398406D1*
X683923Y2398309D1*
X688650Y2397560D1*
X693202Y2396081D1*
X697466Y2393909D1*
X701338Y2391095D1*
X736959Y2355608D1*
X740068Y2351968D1*
X742568Y2347887D1*
X744400Y2343466D1*
X745517Y2338812D1*
X745892Y2334031D1*
X745893Y2315489D1*
X903342Y2315481D1*
X838624Y2380198D1*
X767351D1*
Y2470734D1*
X729949Y2470749D1*
Y2532649D1*
X708343Y2554366D1*
X705530Y2558238D1*
X703357Y2562503D1*
X701878Y2567054D1*
X701129Y2571782D1*
X701035Y2580670D1*
X687232Y2580630D1*
X686857Y2575859D1*
X685740Y2571205D1*
X683908Y2566783D1*
X681407Y2562702D1*
X678292Y2559057D1*
X664572Y2545336D1*
X548607Y2470749D2*
X543296D1*
X543263Y2399255D1*
X548577Y2398571D1*
Y2470734D1*
X1701140Y2749659D2*
X1698908Y2740997D1*
X1695746Y2732376D1*
X1691736Y2724115D1*
X1686917Y2716299D1*
X1681339Y2709004D1*
X1675058Y2702306D1*
X1668137Y2696272D1*
X1662618Y2692144D1*
X1668970D1*
X1701160Y2724342D1*
X1701140Y2749619D1*
X1228995Y2766303D2*
X1228350Y2757143D1*
X1226789Y2748095D1*
X1224330Y2739248D1*
X1220995Y2730692D1*
X1216819Y2722514D1*
X1211845Y2714795D1*
X1206122Y2707615D1*
X1199707Y2701044D1*
X1192666Y2695150D1*
X1185069Y2689992D1*
X1176994Y2685621D1*
X1168521Y2682082D1*
X1159735Y2679411D1*
X1150726Y2677634D1*
X1141585Y2676769D1*
X1132402Y2676825D1*
X1123272Y2677802D1*
X1114285Y2679689D1*
X1105534Y2682468D1*
X1097104Y2686110D1*
X1089083Y2690579D1*
X1081550Y2695830D1*
X1074582Y2701810D1*
X1068248Y2708459D1*
X1062613Y2715709D1*
X1057733Y2723487D1*
X1053658Y2731716D1*
X1050428Y2740312D1*
X1048077Y2749188D1*
X1046628Y2758256D1*
X1046095Y2767423D1*
X1046484Y2776597D1*
X1047791Y2785686D1*
X1050002Y2794598D1*
X1053096Y2803243D1*
X1057042Y2811535D1*
X1061799Y2819389D1*
X1067320Y2826727D1*
X1073548Y2833474D1*
X1080422Y2839563D1*
X1087871Y2844931D1*
X1095822Y2849526D1*
X1104193Y2853300D1*
X1112900Y2856216D1*
X1121856Y2858244D1*
X1130970Y2859364D1*
X1140150Y2859564D1*
X1149304Y2858843D1*
X1158340Y2857207D1*
X1167166Y2854674D1*
X1175693Y2851269D1*
X1183837Y2847025D1*
X1191513Y2841987D1*
X1198646Y2836204D1*
X1205163Y2829735D1*
X1210998Y2822645D1*
X1216093Y2815006D1*
X1220397Y2806894D1*
X1223865Y2798392D1*
X1226464Y2789585D1*
X1228166Y2780561D1*
X1228955Y2771413D1*
X1228995Y2766303D1*
X1756739Y1117441D2*
X1863545D1*
Y1101759D1*
X1865859Y1108274D1*
X1870552Y1117484D1*
X1876627Y1125846D1*
X1883936Y1133155D1*
X1892298Y1139230D1*
X1901508Y1143923D1*
X1911338Y1147117D1*
X1921547Y1148734D1*
X1931883D1*
X1942092Y1147117D1*
X1951923Y1143923D1*
X1961132Y1139230D1*
X1969494Y1133155D1*
X1976803Y1125846D1*
X1982879Y1117484D1*
X1987571Y1108274D1*
X1990765Y1098444D1*
X1992382Y1088235D1*
X1992586Y1064694D1*
X1992382Y959789D1*
X1990765Y949580D1*
X1987571Y939749D1*
X1982879Y930540D1*
X1976803Y922177D1*
X1969494Y914869D1*
X1961132Y908793D1*
X1951923Y904101D1*
X1942092Y900907D1*
X1931883Y899290D1*
X1921547D1*
X1911338Y900907D1*
X1901508Y904101D1*
X1892298Y908793D1*
X1883936Y914869D1*
X1876627Y922177D1*
X1870552Y930540D1*
X1865859Y939749D1*
X1863548Y946449D1*
X1863545Y930582D1*
X1747553D1*
Y1117441D1*
X1756739D1*
X2097072Y1073217D2*
X2097554Y1081228D1*
X2098851Y1088458D1*
X2100946Y1095498D1*
X2103811Y1102262D1*
X2107412Y1108664D1*
X2111703Y1114626D1*
X2116631Y1120072D1*
X2122135Y1124936D1*
X2128146Y1129158D1*
X2134590Y1132683D1*
X2141386Y1135470D1*
X2148450Y1137482D1*
X2155695Y1138695D1*
X2163029Y1139094D1*
X2170362Y1138674D1*
X2177603Y1137441D1*
X2184662Y1135408D1*
X2191450Y1132603D1*
X2197884Y1129059D1*
X2203883Y1124821D1*
X2209373Y1119941D1*
X2214286Y1114480D1*
X2218560Y1108507D1*
X2222142Y1102094D1*
X2224988Y1095323D1*
X2227063Y1088276D1*
X2228340Y1081043D1*
X2228806Y1073224D1*
X2228575Y969294D1*
X2227554Y962020D1*
X2225730Y954905D1*
X2223124Y948037D1*
X2219770Y941502D1*
X2215710Y935381D1*
X2210993Y929751D1*
X2205679Y924680D1*
X2199833Y920233D1*
X2193528Y916464D1*
X2186843Y913421D1*
X2179860Y911141D1*
X2172668Y909652D1*
X2165354Y908974D1*
X2158010Y909114D1*
X2150727Y910070D1*
X2143596Y911832D1*
X2136706Y914377D1*
X2130142Y917673D1*
X2123985Y921679D1*
X2118313Y926346D1*
X2113196Y931616D1*
X2108697Y937422D1*
X2104873Y943693D1*
X2101771Y950351D1*
X2099429Y957313D1*
X2097877Y964493D1*
X2097134Y971800D1*
X2097066Y1062988D1*
Y1073048D1*
X1995633Y1143182D2*
X1985309Y1143992D1*
X1975258Y1146405D1*
X1965708Y1150361D1*
X1956895Y1155761D1*
X1949036Y1162474D1*
X1942323Y1170334D1*
X1936922Y1179147D1*
X1932967Y1188696D1*
X1930554Y1198747D1*
X1929743Y1209051D1*
X1930554Y1219356D1*
X1932967Y1229406D1*
X1936922Y1238956D1*
X1942323Y1247769D1*
X1949036Y1255628D1*
X1956895Y1262341D1*
X1965708Y1267742D1*
X1966314Y1268021D1*
X1886026Y1268016D1*
Y1282621D1*
X1881415Y1283054D1*
X1875083Y1284574D1*
X1869066Y1287067D1*
X1863514Y1290469D1*
X1858562Y1294698D1*
X1854333Y1299650D1*
X1850930Y1305203D1*
X1848438Y1311219D1*
X1846918Y1317551D1*
X1846407Y1324043D1*
X1846918Y1330535D1*
X1848438Y1336868D1*
X1850930Y1342884D1*
X1854333Y1348436D1*
X1858562Y1353388D1*
X1863514Y1357618D1*
X1869066Y1361020D1*
X1875083Y1363512D1*
X1881415Y1365032D1*
X1886037Y1365470D1*
X1886026Y1380071D1*
X1958861Y1380182D1*
Y1399811D1*
X1881763Y1399804D1*
X1873137Y1391154D1*
X1872640Y1386308D1*
X1871120Y1379976D1*
X1868628Y1373960D1*
X1865225Y1368407D1*
X1860996Y1363456D1*
X1856044Y1359226D1*
X1850492Y1355824D1*
X1844475Y1353332D1*
X1838143Y1351811D1*
X1831651Y1351301D1*
X1825159Y1351811D1*
X1818827Y1353332D1*
X1812810Y1355824D1*
X1807258Y1359226D1*
X1802306Y1363456D1*
X1798077Y1368407D1*
X1794674Y1373960D1*
X1792182Y1379976D1*
X1790662Y1386308D1*
X1790151Y1392801D1*
X1790662Y1399293D1*
X1792182Y1405625D1*
X1794674Y1411641D1*
X1798077Y1417194D1*
X1802306Y1422145D1*
X1807258Y1426375D1*
X1812810Y1429777D1*
X1818827Y1432269D1*
X1825159Y1433790D1*
X1829959Y1434234D1*
X1849347Y1453497D1*
X1853219Y1456310D1*
X1857483Y1458483D1*
X1862035Y1459962D1*
X1866762Y1460710D1*
X1942646Y1460805D1*
X1958829D1*
X1958861Y1507985D1*
X2066979D1*
Y1352623D1*
X2065011Y1352512D1*
Y1274894D1*
X2099206Y1274718D1*
X2109415Y1273101D1*
X2119245Y1269907D1*
X2128455Y1265215D1*
X2136817Y1259139D1*
X2144126Y1251830D1*
X2150202Y1243468D1*
X2154894Y1234259D1*
X2158088Y1224428D1*
X2159705Y1214219D1*
Y1203883D1*
X2158088Y1193674D1*
X2154894Y1183844D1*
X2150202Y1174634D1*
X2144126Y1166272D1*
X2136817Y1158963D1*
X2128455Y1152888D1*
X2119245Y1148195D1*
X2109415Y1145001D1*
X2099206Y1143384D1*
X2075666Y1143181D1*
X1995613Y1143217D1*
X1139562Y1685560D2*
X1245829D1*
Y1588063D1*
X1246608Y1594999D1*
X1246728Y1668653D1*
X1247685Y1674698D1*
X1249576Y1680518D1*
X1252355Y1685971D1*
X1255952Y1690922D1*
X1290509Y1725649D1*
X1300019Y1734989D1*
X1304970Y1738586D1*
X1310423Y1741365D1*
X1316243Y1743256D1*
X1322288Y1744213D1*
X1371280Y1744333D1*
X1455141D1*
X1455147Y1761896D1*
X1452531Y1764411D1*
X1452537Y1746954D1*
X1335757D1*
Y1863734D1*
X1452537D1*
Y1846330D1*
X1459826Y1852582D1*
X1467639Y1857369D1*
X1476104Y1860876D1*
X1485013Y1863015D1*
X1494147Y1863734D1*
X1503281Y1863015D1*
X1512190Y1860876D1*
X1520655Y1857369D1*
X1528468Y1852582D1*
X1535435Y1846632D1*
X1541385Y1839664D1*
X1544134Y1835493D1*
X1548226Y1841408D1*
X1553116Y1846887D1*
X1558656Y1851709D1*
X1564757Y1855798D1*
X1571323Y1859088D1*
X1578250Y1861528D1*
X1585429Y1863079D1*
X1592638Y1863712D1*
X1575271Y1881086D1*
X1237979Y1881105D1*
X1139598Y1782732D1*
X1139593Y1685591D1*
X1060822Y1685560D2*
X1078620D1*
X1078593Y1784250D1*
X1060862Y1766502D1*
X1060853Y1685577D1*
X981543Y1685560D2*
X999880D1*
X999947Y1781520D1*
X1000696Y1786247D1*
X1002175Y1790799D1*
X1004347Y1795064D1*
X1007161Y1798936D1*
X1060752Y1852660D1*
X1186777Y1978552D1*
X1190649Y1981365D1*
X1194913Y1983538D1*
X1199465Y1985017D1*
X1204192Y1985766D1*
X1280076Y1985860D1*
X1646524Y1985766D1*
X1651251Y1985017D1*
X1655803Y1983538D1*
X1660067Y1981365D1*
X1663939Y1978552D1*
X1717664Y1924961D1*
X1735806Y1906818D1*
Y1998886D1*
X1914790D1*
Y1981841D1*
X1928471Y1981738D1*
X1934515Y1980781D1*
X1940335Y1978890D1*
X1945788Y1976111D1*
X1950739Y1972514D1*
X1965091Y1958332D1*
X1965112Y2028818D1*
X1956523Y2037380D1*
X991670Y2037465D1*
X986943Y2038214D1*
X982391Y2039693D1*
X978127Y2041866D1*
X974255Y2044679D1*
X930046Y2088755D1*
X926938Y2092394D1*
X924437Y2096475D1*
X922606Y2100896D1*
X921954Y2103211D1*
X912496Y2105001D1*
X881528D1*
X881550Y1685535D1*
X981543Y1685560D1*
X666583Y2315481D2*
X684920D1*
X684892Y2321375D1*
X668883Y2337416D1*
X630180Y2337403D1*
X652147Y2315481D1*
X666583D1*
X2109780Y1744206D2*
X2208712D1*
Y1588844D1*
X2100593D1*
Y1744206D1*
X2109780D1*
X1905348Y1793071D2*
X1892277D1*
Y1886836D1*
X1818369Y1886831D1*
X1818396Y1858495D1*
X1824656Y1855129D1*
X1832068Y1849744D1*
X1838547Y1843265D1*
X1843932Y1835852D1*
X1848092Y1827689D1*
X1850923Y1818975D1*
X1852357Y1809925D1*
Y1800763D1*
X1850923Y1791713D1*
X1848092Y1782999D1*
X1843932Y1774835D1*
X1838547Y1767423D1*
X1832068Y1760944D1*
X1824656Y1755558D1*
X1816492Y1751399D1*
X1807778Y1748567D1*
X1798728Y1747134D1*
X1789566D1*
X1780516Y1748567D1*
X1771802Y1751399D1*
X1763638Y1755558D1*
X1756226Y1760944D1*
X1749747Y1767423D1*
X1744160Y1775195D1*
X1738547Y1767423D1*
X1737149Y1765910D1*
X1737224Y1723857D1*
X1833532D1*
Y1706812D1*
X1835817Y1708398D1*
X1905367Y1777948D1*
Y1793084D1*
X2116030Y2269261D2*
X2214962D1*
Y2113899D1*
X2106844D1*
Y2269261D1*
X2116030D1*
X1974298D2*
X2073230D1*
Y2113899D1*
X1965112D1*
Y2269261D1*
X1974298D1*
X804752Y2565078D2*
X813544Y2565088D1*
X813547Y2593814D1*
X806866Y2590962D1*
X800534Y2589441D1*
X794042Y2588930D1*
X787550Y2589441D1*
X783631Y2590281D1*
X783626Y2580654D1*
X768160D1*
X783779Y2565064D1*
X804735Y2565088D1*
X613623Y2786468D2*
X626003D1*
X626121Y2814092D1*
X626870Y2818820D1*
X628349Y2823371D1*
X630522Y2827636D1*
X633335Y2831508D1*
X686927Y2885232D1*
X705477Y2903649D1*
X709349Y2906462D1*
X713613Y2908635D1*
X718165Y2910114D1*
X722892Y2910863D1*
X798776Y2910957D1*
X950171D1*
X952691Y2914966D1*
X953710Y2921398D1*
X955722Y2927591D1*
X958678Y2933394D1*
X962506Y2938662D1*
X967111Y2943267D1*
X972379Y2947095D1*
X978008Y2949971D1*
X719131Y2949967D1*
X543250Y2774051D1*
X543263Y2729031D1*
X567962Y2753633D1*
X571834Y2756447D1*
X576098Y2758619D1*
X580650Y2760098D1*
X585377Y2760847D1*
X604456Y2760941D1*
X604437Y2786468D1*
X613623D1*
X687007D2*
X783421D1*
Y2760883D1*
X788661Y2760098D1*
X793213Y2758619D1*
X797477Y2756447D1*
X801349Y2753633D1*
X840179Y2714936D1*
Y2721196D1*
X841198Y2727628D1*
X843210Y2733821D1*
X846167Y2739623D1*
X849994Y2744892D1*
X854599Y2749496D1*
X859867Y2753324D1*
X865670Y2756281D1*
X871863Y2758293D1*
X878295Y2759312D1*
X879860Y2759373D1*
X971351Y2850873D1*
X965203Y2850051D1*
X889319Y2849957D1*
X737924D1*
X687045Y2799083D1*
X687028Y2786473D1*
X1680499Y1862115D2*
X1689566Y1863554D1*
X1692697Y1863677D1*
X1631476Y1924882D1*
X1617756Y1924859D1*
X1680525Y1862099D1*
X1488966Y582137D2*
X1487941Y573477D1*
X1486240Y564925D1*
X1483873Y556532D1*
X1480855Y548351D1*
X1477204Y540432D1*
X1472943Y532824D1*
X1468099Y525573D1*
X1462700Y518725D1*
X1456781Y512322D1*
X1450377Y506402D1*
X1443529Y501004D1*
X1436279Y496159D1*
X1428671Y491898D1*
X1420751Y488248D1*
X1412570Y485229D1*
X1404178Y482862D1*
X1395625Y481161D1*
X1386965Y480136D1*
X1378252Y479794D1*
X1369539Y480136D1*
X1360879Y481161D1*
X1352326Y482862D1*
X1343934Y485229D1*
X1335753Y488248D1*
X1327833Y491898D1*
X1320225Y496159D1*
X1312975Y501004D1*
X1306127Y506402D1*
X1299723Y512322D1*
X1293804Y518725D1*
X1288405Y525573D1*
X1283561Y532824D1*
X1279300Y540432D1*
X1275649Y548351D1*
X1272631Y556532D1*
X1270264Y564925D1*
X1268563Y573477D1*
X1267538Y582137D1*
X1267196Y590850D1*
X1267538Y599564D1*
X1268563Y608223D1*
X1270264Y616776D1*
X1272631Y625169D1*
X1275649Y633350D1*
X1279300Y641269D1*
X1283561Y648877D1*
X1288405Y656128D1*
X1293804Y662976D1*
X1299723Y669379D1*
X1306127Y675298D1*
X1312975Y680697D1*
X1320225Y685542D1*
X1327833Y689802D1*
X1335753Y693453D1*
X1343934Y696471D1*
X1352326Y698838D1*
X1360879Y700540D1*
X1369539Y701564D1*
X1378252Y701907D1*
X1386965Y701564D1*
X1395625Y700540D1*
X1404178Y698838D1*
X1412570Y696471D1*
X1420751Y693453D1*
X1428671Y689802D1*
X1436279Y685542D1*
X1443529Y680697D1*
X1450377Y675298D1*
X1456781Y669379D1*
X1462700Y662976D1*
X1468099Y656128D1*
X1472943Y648877D1*
X1477204Y641269D1*
X1480855Y633350D1*
X1483873Y625169D1*
X1486240Y616776D1*
X1487941Y608223D1*
X1488966Y599564D1*
X1489308Y590850D1*
X1488966Y582137D1*
X1886037Y1282617D2*
X1881415Y1283054D1*
X1875083Y1284574D1*
X1869066Y1287067D1*
X1863514Y1290469D1*
X1858562Y1294698D1*
X1854333Y1299650D1*
X1850930Y1305203D1*
X1848438Y1311219D1*
X1846918Y1317551D1*
X1846407Y1324043D1*
X1846918Y1330535D1*
X1848438Y1336868D1*
X1850930Y1342884D1*
X1854333Y1348436D1*
X1858562Y1353388D1*
X1863514Y1357618D1*
X1869066Y1361020D1*
X1875083Y1363512D1*
X1881415Y1365032D1*
X1886037Y1365470D1*
X1991785Y1764584D2*
X1990767Y1758152D1*
X1988754Y1751959D1*
X1985798Y1746156D1*
X1984490Y1744198D1*
X1991785Y1764584D1*
Y1771096D1*
X1990767Y1777528D1*
X1988754Y1783721D1*
X1985798Y1789524D1*
X1983365Y1793023D1*
X1325348Y2845982D2*
D17*
Y2730062D1*
X1267388Y2788022D2*
X1325348D1*
X1611568Y2859565D2*
Y2768140D1*
X1520143D2*
X1611568D1*
X1137552Y2859565D2*
Y2676716D1*
X1046128Y2768140D2*
X1228977D1*
X2162936Y1139059D2*
Y908965D1*
X2097102Y1024012D2*
X2228770D1*
X1594147Y1863698D2*
Y1746990D1*
D18*
X1862904Y3105480D3*
Y3055480D3*
Y3005480D3*
Y2955480D3*
Y2905480D3*
Y2855480D3*
Y2805480D3*
Y2755480D3*
X2075503D3*
Y2805480D3*
Y2855480D3*
Y2905480D3*
Y2955480D3*
Y3005480D3*
Y3055480D3*
Y3105480D3*
D20*
X1825400Y2511668D3*
X2199416D3*
D21*
X1894157Y2336650D3*
X1968961D3*
X2156480D3*
X2081677D3*
X2012715Y3199240D3*
X1937912D3*
D23*
X625274Y2517919D3*
X550471D3*
X587873Y2427367D3*
D24*
X1325348Y2661684D3*
D25*
X1423773Y2661644D3*
Y2788022D3*
X1325348D3*
D26*
X1611568Y2768140D3*
X1137552D3*
D28*
X1481614Y1361547D3*
X1674528D3*
D21*
X606318Y1080268D3*
X531514D3*
X606318Y1167777D3*
X531514D3*
X606318Y992759D3*
X531514D3*
Y836492D3*
X606318D3*
D30*
X1294094Y842743D3*
Y942743D3*
Y1042743D3*
D31*
X916142Y942743D3*
D32*
X1644131Y1024012D3*
X1805549D3*
D33*
X2162936D3*
D34*
X1926715D3*
D35*
X2044825Y1209051D3*
D21*
X531514Y742732D3*
X606318D3*
D36*
X1375353Y1549067D3*
Y1623870D3*
D38*
X1187833Y1580320D3*
X1109093D3*
X1030353D3*
X951613D3*
X872873D3*
X794133D3*
X715392D3*
X636652D3*
X1187833Y2210241D3*
X1109093D3*
X1030353D3*
X951613D3*
X872873D3*
X794133D3*
X715392D3*
X636652D3*
D39*
X2012920Y1430304D3*
X2154652D3*
Y1666525D3*
X2012920D3*
D36*
X1237839Y1330294D3*
Y1405097D3*
D21*
X1106575Y2374154D3*
X1181378D3*
D36*
X1012815Y2430409D3*
Y2355606D3*
D21*
X2012920Y1324043D3*
X1938117D3*
X2019171Y1849098D3*
X1944367D3*
D39*
X2019171Y1955360D3*
X2160903D3*
Y2191580D3*
X2019171D3*
D36*
X975311Y1405302D3*
Y1330499D3*
X712783Y1405302D3*
Y1330499D3*
X1106575Y1405302D3*
Y1330499D3*
X844047Y1405302D3*
Y1330499D3*
D23*
Y2517919D3*
X769244D3*
X806646Y2427367D3*
D21*
X731535Y2636681D3*
X656732D3*
X656528Y2730441D3*
X731331D3*
D40*
X1394147Y1805344D3*
D41*
X1494147D3*
X1594147D3*
X1694147D3*
X1794147D3*
D21*
X1706638Y1667829D3*
X1781441D3*
X1787896Y1942858D3*
X1862699D3*
M02*
