G04 DipTrace 3.3.1.3*
G04 TopMask.gbr*
%MOIN*%
G04 #@! TF.FileFunction,Soldermask,Top*
G04 #@! TF.Part,Single*
%ADD44C,0.11811*%
%ADD51C,0.07178*%
%ADD53R,0.07178X0.07178*%
%ADD55R,0.063118X0.110362*%
%ADD57R,0.070992X0.16548*%
%ADD59R,0.067055X0.059181*%
%ADD61O,0.185165X0.08674*%
%ADD63O,0.08674X0.20485*%
%ADD65O,0.08674X0.185165*%
%ADD67R,0.070992X0.141858*%
%ADD69R,0.362331X0.425323*%
%ADD71R,0.12611X0.065087*%
%ADD73R,0.132016X0.070992*%
%ADD75C,0.137921*%
%ADD77C,0.070992*%
%ADD79R,0.070992X0.070992*%
%ADD81R,0.033591X0.049339*%
%ADD83R,0.059181X0.067055*%
%ADD85R,0.224535X0.08674*%
%ADD87R,0.08674X0.031622*%
%FSLAX26Y26*%
G04*
G70*
G90*
G75*
G01*
G04 TopMask*
%LPD*%
D87*
X1862904Y3105480D3*
Y3055480D3*
Y3005480D3*
Y2955480D3*
Y2905480D3*
Y2855480D3*
Y2805480D3*
Y2755480D3*
X2075503D3*
Y2805480D3*
Y2855480D3*
Y2905480D3*
Y2955480D3*
Y3005480D3*
Y3055480D3*
Y3105480D3*
D85*
X1825400Y2511668D3*
X2199416D3*
D83*
X1894157Y2336650D3*
X1968961D3*
X2156480D3*
X2081677D3*
X2012715Y3199240D3*
X1937912D3*
D81*
X625274Y2517919D3*
X550471D3*
X587873Y2427367D3*
D79*
X1325348Y2661684D3*
D77*
X1423773Y2661644D3*
Y2788022D3*
X1325348D3*
D75*
X1611568Y2768140D3*
X1137552D3*
D73*
X1481614Y1361547D3*
X1674528D3*
D83*
X606318Y1080268D3*
X531514D3*
X606318Y1167777D3*
X531514D3*
X606318Y992759D3*
X531514D3*
Y836492D3*
X606318D3*
D71*
X1294094Y842743D3*
Y942743D3*
Y1042743D3*
D69*
X916142Y942743D3*
D67*
X1644131Y1024012D3*
X1805549D3*
D65*
X2162936D3*
D63*
X1926715D3*
D61*
X2044825Y1209051D3*
D83*
X531514Y742732D3*
X606318D3*
D59*
X1375353Y1549067D3*
Y1623870D3*
D57*
X1187833Y1580320D3*
X1109093D3*
X1030353D3*
X951613D3*
X872873D3*
X794133D3*
X715392D3*
X636652D3*
X1187833Y2210241D3*
X1109093D3*
X1030353D3*
X951613D3*
X872873D3*
X794133D3*
X715392D3*
X636652D3*
D55*
X2012920Y1430304D3*
X2154652D3*
Y1666525D3*
X2012920D3*
D59*
X1237839Y1330294D3*
Y1405097D3*
D83*
X1106575Y2374154D3*
X1181378D3*
D59*
X1012815Y2430409D3*
Y2355606D3*
D83*
X2012920Y1324043D3*
X1938117D3*
X2019171Y1849098D3*
X1944367D3*
D55*
X2019171Y1955360D3*
X2160903D3*
Y2191580D3*
X2019171D3*
D59*
X975311Y1405302D3*
Y1330499D3*
X712783Y1405302D3*
Y1330499D3*
X1106575Y1405302D3*
Y1330499D3*
X844047Y1405302D3*
Y1330499D3*
D81*
Y2517919D3*
X769244D3*
X806646Y2427367D3*
D83*
X731535Y2636681D3*
X656732D3*
X656528Y2730441D3*
X731331D3*
D53*
X1394147Y1805344D3*
D51*
X1494147D3*
X1594147D3*
X1694147D3*
X1794147D3*
D83*
X1706638Y1667829D3*
X1781441D3*
X1787896Y1942858D3*
X1862699D3*
D44*
X1378252Y590850D3*
Y3149906D3*
M02*
