G04 DipTrace 3.3.1.3*
G04 TopPaste.gbr*
%MOIN*%
G04 #@! TF.FileFunction,Paste,Top*
G04 #@! TF.Part,Single*
%ADD56R,0.047118X0.094362*%
%ADD58R,0.054992X0.14948*%
%ADD60R,0.051055X0.043181*%
%ADD68R,0.054992X0.125858*%
%ADD70R,0.346331X0.409323*%
%ADD72R,0.11011X0.049087*%
%ADD74R,0.116016X0.054992*%
%ADD82R,0.017591X0.033339*%
%ADD84R,0.043181X0.051055*%
%ADD86R,0.208535X0.07074*%
%ADD88R,0.07074X0.015622*%
%FSLAX26Y26*%
G04*
G70*
G90*
G75*
G01*
G04 TopPaste*
%LPD*%
D88*
X1862904Y3105480D3*
Y3055480D3*
Y3005480D3*
Y2955480D3*
Y2905480D3*
Y2855480D3*
Y2805480D3*
Y2755480D3*
X2075503D3*
Y2805480D3*
Y2855480D3*
Y2905480D3*
Y2955480D3*
Y3005480D3*
Y3055480D3*
Y3105480D3*
D86*
X1825400Y2511668D3*
X2199416D3*
D84*
X1894157Y2336650D3*
X1968961D3*
X2156480D3*
X2081677D3*
X2012715Y3199240D3*
X1937912D3*
D82*
X625274Y2517919D3*
X550471D3*
X587873Y2427367D3*
D74*
X1481614Y1361547D3*
X1674528D3*
D84*
X606318Y1080268D3*
X531514D3*
X606318Y1167777D3*
X531514D3*
X606318Y992759D3*
X531514D3*
Y836492D3*
X606318D3*
D72*
X1294094Y842743D3*
Y942743D3*
Y1042743D3*
D70*
X916142Y942743D3*
D68*
X1644131Y1024012D3*
X1805549D3*
D84*
X531514Y742732D3*
X606318D3*
D60*
X1375353Y1549067D3*
Y1623870D3*
D58*
X1187833Y1580320D3*
X1109093D3*
X1030353D3*
X951613D3*
X872873D3*
X794133D3*
X715392D3*
X636652D3*
X1187833Y2210241D3*
X1109093D3*
X1030353D3*
X951613D3*
X872873D3*
X794133D3*
X715392D3*
X636652D3*
D56*
X2012920Y1430304D3*
X2154652D3*
Y1666525D3*
X2012920D3*
D60*
X1237839Y1330294D3*
Y1405097D3*
D84*
X1106575Y2374154D3*
X1181378D3*
D60*
X1012815Y2430409D3*
Y2355606D3*
D84*
X2012920Y1324043D3*
X1938117D3*
X2019171Y1849098D3*
X1944367D3*
D56*
X2019171Y1955360D3*
X2160903D3*
Y2191580D3*
X2019171D3*
D60*
X975311Y1405302D3*
Y1330499D3*
X712783Y1405302D3*
Y1330499D3*
X1106575Y1405302D3*
Y1330499D3*
X844047Y1405302D3*
Y1330499D3*
D82*
Y2517919D3*
X769244D3*
X806646Y2427367D3*
D84*
X731535Y2636681D3*
X656732D3*
X656528Y2730441D3*
X731331D3*
X1706638Y1667829D3*
X1781441D3*
X1787896Y1942858D3*
X1862699D3*
M02*
