G04 DipTrace 3.3.1.3*
G04 Bottom.gbr*
%MOIN*%
G04 #@! TF.FileFunction,Copper,L2,Bot*
G04 #@! TF.Part,Single*
G04 #@! TA.AperFunction,CopperBalancing*
%ADD14C,0.012992*%
G04 #@! TA.AperFunction,Conductor*
%ADD15C,0.03937*%
%ADD16C,0.02*%
G04 #@! TA.AperFunction,CopperBalancing*
%ADD17C,0.025*%
G04 #@! TA.AperFunction,ComponentPad*
%ADD26R,0.066929X0.066929*%
%ADD27C,0.066929*%
%ADD28O,0.07874X0.177165*%
%ADD29O,0.07874X0.19685*%
%ADD30O,0.177165X0.07874*%
%ADD32C,0.08*%
%ADD34C,0.048*%
G04 #@! TA.AperFunction,ViaPad*
%ADD35C,0.04*%
%FSLAX26Y26*%
G04*
G70*
G90*
G75*
G01*
G04 Bottom*
%LPD*%
X1850693Y2008173D2*
D14*
X4142031D1*
X800249Y2370378D2*
D15*
X1575102D1*
X2283764D1*
X4142031D1*
X4999660D1*
X905811Y1378252D2*
Y1456992D1*
X571165Y1791638D1*
Y2224709D1*
X606203Y2259747D1*
X716835Y2370378D1*
X800249D1*
X2283764Y2382189D2*
D14*
Y2370378D1*
X1575102Y2362504D2*
Y2370378D1*
X4142031Y2354630D2*
Y2370378D1*
X586913Y3067228D2*
X606203Y3047938D1*
Y2259747D1*
X1555417Y2224709D2*
X1811323D1*
X1575102Y2460929D2*
X1850693D1*
X1162749Y1970378D2*
D16*
X1675306D1*
X4999660D1*
X1653843Y2027858D2*
D14*
X1675306Y2006395D1*
Y1970378D1*
X981500Y2170378D2*
D16*
X4999660D1*
X725446Y2270378D2*
X1805024D1*
X4999660D1*
X1791638Y2303449D2*
D14*
X1781795Y2293606D1*
X1805024Y2270378D1*
X906697Y2070378D2*
D16*
X4999660D1*
X1322346D2*
X4999660D1*
X3992031Y2456598D2*
D14*
X3987701Y2460929D1*
X3582976D1*
X3937307Y2519984D2*
X3701087Y2756205D1*
X3661717D1*
X3937307Y2579039D2*
X3701087Y2815260D1*
X3956992Y2677465D2*
X3760142Y2874315D1*
X3956992Y2756205D2*
X3760142Y2953055D1*
X3956992Y2834945D2*
X3838882Y2953055D1*
X4212898Y2894000D2*
Y3051480D1*
X1634157Y1535732D2*
X1023921Y925496D1*
X1087946Y1870378D2*
D16*
X4252268D1*
X4999660D1*
X4252268Y1752268D2*
D14*
Y1870378D1*
X4134157Y2736520D2*
Y3090850D1*
X2086913Y2775890D2*
Y3189276D1*
X1987740Y3288449D1*
Y3493134D1*
X4292031Y2224315D2*
X4271953Y2244394D1*
X1909748D1*
X1890063Y2224709D1*
X2224709Y2480614D2*
X2145969Y2559354D1*
X1397937D1*
X1594787Y2775890D2*
Y2716835D1*
X1712898Y2598724D1*
X3307386D1*
X3464866Y2441244D1*
Y1771953D2*
X3602661Y1634157D1*
X4390063D1*
X4449118Y1693213D1*
X1201087Y2598724D2*
Y2480614D1*
X866441Y1614472D2*
X1791638D1*
X1890063Y1712898D1*
Y1775890D1*
X1575102Y2126283D2*
X1594787Y2145969D1*
X4153843D1*
X4173528Y2126283D1*
D35*
X1850693Y2008173D3*
X4142031D3*
X800249Y2370378D3*
D3*
X2283764Y2382189D3*
X1575102Y2362504D3*
X4142031Y2354630D3*
X586913Y3067228D3*
X1555417Y2224709D3*
X1811323D3*
X1575102Y2460929D3*
X1850693D3*
X1162749Y1970378D3*
X1653843Y2027858D3*
X981500Y2170378D3*
X725446Y2270378D3*
X1791638Y2303449D3*
X906697Y2070378D3*
X1322346D3*
X3992031Y2456598D3*
X3582976Y2460929D3*
X3937307Y2519984D3*
X3661717Y2756205D3*
X3937307Y2579039D3*
X3701087Y2815260D3*
X3956992Y2677465D3*
X3760142Y2874315D3*
X3956992Y2756205D3*
X3760142Y2953055D3*
X3956992Y2834945D3*
X3838882Y2953055D3*
X4212898Y2894000D3*
Y3051480D3*
X1634157Y1535732D3*
X1023921Y925496D3*
X1087946Y1870378D3*
X4252268Y1752268D3*
X4134157Y2736520D3*
Y3090850D3*
X4292031Y2224315D3*
X1890063Y2224709D3*
X2224709Y2480614D3*
X1397937Y2559354D3*
X3464866Y2441244D3*
Y1771953D3*
X4449118Y1693213D3*
X1201087Y2598724D3*
Y2480614D3*
X866441Y1614472D3*
X1575102Y2126283D3*
X4173528D3*
X427804Y3719131D2*
D17*
X477887D1*
X625060D2*
X4966101D1*
X5113239D2*
X5153991D1*
X427876Y3694262D2*
X463605D1*
X639342D2*
X4951784D1*
X5127556D2*
X5153991D1*
X427912Y3669394D2*
X457935D1*
X645011D2*
X4946114D1*
X5133226D2*
X5153991D1*
X427948Y3644525D2*
X459227D1*
X643720D2*
X4947442D1*
X5131898D2*
X5153991D1*
X428020Y3619656D2*
X467875D1*
X635107D2*
X4956054D1*
X5123286D2*
X5153991D1*
X428056Y3594787D2*
X486786D1*
X616196D2*
X4974965D1*
X5104375D2*
X5153991D1*
X428092Y3569919D2*
X5153991D1*
X428163Y3545050D2*
X966629D1*
X1054665D2*
X1116625D1*
X1204661D2*
X1454116D1*
X1542152D2*
X1604112D1*
X1692148D2*
X1943684D1*
X2031792D2*
X2093680D1*
X2181788D2*
X2429089D1*
X2517161D2*
X2579085D1*
X2667193D2*
X2916576D1*
X3004684D2*
X3066572D1*
X3154680D2*
X3404099D1*
X3492170D2*
X3554094D1*
X3642166D2*
X3891585D1*
X3979693D2*
X4041581D1*
X4129689D2*
X4379072D1*
X4467180D2*
X4529104D1*
X4617176D2*
X5153991D1*
X428199Y3520181D2*
X947395D1*
X1073863D2*
X1097391D1*
X1223859D2*
X1434918D1*
X1561350D2*
X1584914D1*
X1711382D2*
X1924486D1*
X2050990D2*
X2074482D1*
X2200986D2*
X2409891D1*
X2536359D2*
X2559887D1*
X2686391D2*
X2897378D1*
X3023882D2*
X3047374D1*
X3173878D2*
X3384901D1*
X3511368D2*
X3534896D1*
X3661364D2*
X3872387D1*
X3998891D2*
X4022383D1*
X4148887D2*
X4359874D1*
X4486378D2*
X4509906D1*
X4636374D2*
X5153991D1*
X428235Y3495312D2*
X941690D1*
X1079605D2*
X1091686D1*
X1229601D2*
X1429176D1*
X1567092D2*
X1579204D1*
X1717087D2*
X1918780D1*
X2056695D2*
X2068776D1*
X2206691D2*
X2404186D1*
X2542101D2*
X2554182D1*
X2692097D2*
X2891672D1*
X3029587D2*
X3041668D1*
X3179583D2*
X3379195D1*
X3517074D2*
X3529191D1*
X3667106D2*
X3866682D1*
X4004597D2*
X4016678D1*
X4154593D2*
X4354168D1*
X4492083D2*
X4504164D1*
X4642079D2*
X5153991D1*
X428271Y3470444D2*
X945637D1*
X1075658D2*
X1095633D1*
X1225653D2*
X1433124D1*
X1563144D2*
X1583120D1*
X1713140D2*
X1922728D1*
X2052748D2*
X2072723D1*
X2202744D2*
X2408133D1*
X2538118D2*
X2558129D1*
X2688149D2*
X2895620D1*
X3025640D2*
X3045616D1*
X3175636D2*
X3383142D1*
X3513127D2*
X3533138D1*
X3663123D2*
X3870629D1*
X4000649D2*
X4020625D1*
X4150645D2*
X4358116D1*
X4488136D2*
X4508147D1*
X4638132D2*
X5153991D1*
X428343Y3445575D2*
X961641D1*
X1059617D2*
X1111637D1*
X1209613D2*
X1449128D1*
X1547140D2*
X1599160D1*
X1697136D2*
X1938768D1*
X2036708D2*
X2088764D1*
X2186704D2*
X2424173D1*
X2522113D2*
X2574169D1*
X2672109D2*
X2911660D1*
X3009600D2*
X3061656D1*
X3159596D2*
X3399182D1*
X3497087D2*
X3549178D1*
X3647118D2*
X3886669D1*
X3984609D2*
X4036665D1*
X4134605D2*
X4374156D1*
X4472096D2*
X4524152D1*
X4622092D2*
X5153991D1*
X428379Y3420706D2*
X5153991D1*
X428415Y3395837D2*
X5153991D1*
X428486Y3370969D2*
X5153991D1*
X428522Y3346100D2*
X5153991D1*
X428558Y3321231D2*
X5153991D1*
X428594Y3296362D2*
X5153991D1*
X428666Y3271493D2*
X5153991D1*
X428702Y3246625D2*
X5153991D1*
X428737Y3221756D2*
X5153991D1*
X428809Y3196887D2*
X5153991D1*
X428845Y3172018D2*
X5153991D1*
X428881Y3147150D2*
X5153991D1*
X428953Y3122281D2*
X5153991D1*
X428989Y3097412D2*
X549045D1*
X624773D2*
X4203204D1*
X4222593D2*
X5153991D1*
X429025Y3072543D2*
X538244D1*
X635610D2*
X4168934D1*
X4256862D2*
X5153991D1*
X429060Y3047675D2*
X542227D1*
X641674D2*
X4164054D1*
X4261743D2*
X5153991D1*
X429132Y3022806D2*
X570683D1*
X641674D2*
X4173814D1*
X4251982D2*
X5153991D1*
X429168Y2997937D2*
X570719D1*
X641674D2*
X3745501D1*
X3774758D2*
X3824267D1*
X3853524D2*
X4177403D1*
X4248394D2*
X5153991D1*
X429204Y2973068D2*
X570719D1*
X641674D2*
X3715681D1*
X3883344D2*
X4177403D1*
X4248394D2*
X5153991D1*
X429276Y2948199D2*
X570719D1*
X641674D2*
X3711411D1*
X3892889D2*
X4177403D1*
X4248394D2*
X5153991D1*
X429312Y2923331D2*
X570719D1*
X641674D2*
X3721889D1*
X3917757D2*
X4174317D1*
X4251480D2*
X5153991D1*
X429348Y2898462D2*
X570719D1*
X641674D2*
X3717906D1*
X3942625D2*
X4164126D1*
X4261671D2*
X5153991D1*
X429383Y2873593D2*
X570719D1*
X641674D2*
X3711160D1*
X3985327D2*
X4168611D1*
X4257185D2*
X5153991D1*
X429455Y2848724D2*
X570719D1*
X641674D2*
X3666304D1*
X4003879D2*
X4199830D1*
X4225966D2*
X5153991D1*
X429491Y2823856D2*
X570719D1*
X641674D2*
X1379656D1*
X1416199D2*
X1478087D1*
X1514629D2*
X1576517D1*
X1613059D2*
X1674947D1*
X1711489D2*
X1773378D1*
X1809920D2*
X1871808D1*
X1908350D2*
X1970202D1*
X2006745D2*
X2068633D1*
X2105175D2*
X2167063D1*
X2203605D2*
X2265493D1*
X2302036D2*
X3652884D1*
X3749281D2*
X3761433D1*
X4004633D2*
X5153991D1*
X429527Y2798987D2*
X570719D1*
X641674D2*
X1350554D1*
X2331173D2*
X3641006D1*
X3766505D2*
X3786301D1*
X3988951D2*
X5153991D1*
X429599Y2774118D2*
X570719D1*
X641674D2*
X1344992D1*
X2336736D2*
X3616318D1*
X3791373D2*
X3811169D1*
X4002408D2*
X5153991D1*
X429635Y2749249D2*
X570719D1*
X641674D2*
X1352528D1*
X1443327D2*
X1450973D1*
X1541757D2*
X1549408D1*
X1640188D2*
X1647819D1*
X1738618D2*
X1746249D1*
X1837012D2*
X1844665D1*
X1935443D2*
X1943071D1*
X2033873D2*
X2041504D1*
X2132303D2*
X2139949D1*
X2230734D2*
X2238385D1*
X2329164D2*
X3613232D1*
X3816241D2*
X3836072D1*
X4005458D2*
X5153991D1*
X429670Y2724381D2*
X570719D1*
X641674D2*
X1559293D1*
X1636384D2*
X3625325D1*
X3841108D2*
X3860940D1*
X3993401D2*
X5153991D1*
X429742Y2699512D2*
X570719D1*
X641674D2*
X1564209D1*
X1661252D2*
X3708612D1*
X3865976D2*
X3885808D1*
X4000434D2*
X5153991D1*
X429778Y2674643D2*
X570719D1*
X641674D2*
X1587820D1*
X1686119D2*
X3733480D1*
X3890844D2*
X3908092D1*
X4005888D2*
X5153991D1*
X429814Y2649774D2*
X570719D1*
X641674D2*
X1612688D1*
X1710987D2*
X3758347D1*
X3996846D2*
X5153991D1*
X429850Y2624906D2*
X570719D1*
X641674D2*
X1160153D1*
X1242017D2*
X1637556D1*
X3329938D2*
X3783251D1*
X3947397D2*
X5153991D1*
X429922Y2600037D2*
X570719D1*
X641674D2*
X1152115D1*
X1250055D2*
X1372946D1*
X1422945D2*
X1662424D1*
X3355236D2*
X3808119D1*
X3981272D2*
X5153991D1*
X429958Y2575168D2*
X570719D1*
X641674D2*
X1158502D1*
X1243667D2*
X1351703D1*
X3380104D2*
X3832986D1*
X3986152D2*
X5153991D1*
X429993Y2550299D2*
X570719D1*
X641674D2*
X1165607D1*
X1236562D2*
X1349837D1*
X2204179D2*
X3306673D1*
X3404972D2*
X3857854D1*
X3976356D2*
X5153991D1*
X430065Y2525430D2*
X570719D1*
X641674D2*
X1165607D1*
X1236562D2*
X1363652D1*
X1432239D2*
X2130748D1*
X2239561D2*
X3331541D1*
X3429840D2*
X3882722D1*
X3985973D2*
X5153991D1*
X430101Y2500562D2*
X570719D1*
X641674D2*
X1156600D1*
X1245569D2*
X1548312D1*
X1601899D2*
X1823903D1*
X1877490D2*
X2155616D1*
X2269202D2*
X3356408D1*
X3454707D2*
X3556176D1*
X3609799D2*
X3892554D1*
X4009656D2*
X5153991D1*
X430137Y2475693D2*
X570719D1*
X641674D2*
X1152366D1*
X1249804D2*
X1528504D1*
X1897262D2*
X2175962D1*
X2273436D2*
X3381276D1*
X3498594D2*
X3536404D1*
X4036928D2*
X5153991D1*
X430209Y2450824D2*
X570719D1*
X641674D2*
X1162880D1*
X1239289D2*
X1527212D1*
X1898590D2*
X2186512D1*
X2262886D2*
X3406144D1*
X3512876D2*
X3535112D1*
X4040660D2*
X5153991D1*
X430245Y2425955D2*
X570719D1*
X641674D2*
X1541960D1*
X1608251D2*
X1817551D1*
X1883841D2*
X2265565D1*
X2301964D2*
X3418452D1*
X3511261D2*
X3549860D1*
X3616114D2*
X3954562D1*
X4029500D2*
X4937215D1*
X5062104D2*
X5153991D1*
X430280Y2401087D2*
X570719D1*
X641674D2*
X679735D1*
X5062104D2*
X5153991D1*
X430316Y2376218D2*
X570719D1*
X641674D2*
X654868D1*
X5062104D2*
X5153991D1*
X430388Y2351349D2*
X570719D1*
X5062104D2*
X5153991D1*
X430424Y2326480D2*
X570719D1*
X5062104D2*
X5153991D1*
X430460Y2301612D2*
X570719D1*
X5053348D2*
X5153991D1*
X430532Y2276743D2*
X555397D1*
X5061781D2*
X5153991D1*
X430568Y2251874D2*
X531318D1*
X666147D2*
X680309D1*
X5059197D2*
X5153991D1*
X430603Y2227005D2*
X522563D1*
X641280D2*
X706218D1*
X744698D2*
X1506471D1*
X4340939D2*
X4955767D1*
X5043551D2*
X5153991D1*
X430639Y2202136D2*
X522491D1*
X619857D2*
X945063D1*
X5053025D2*
X5153991D1*
X430711Y2177268D2*
X522491D1*
X619857D2*
X933006D1*
X5061709D2*
X5153991D1*
X430747Y2152399D2*
X522491D1*
X619857D2*
X936128D1*
X5059341D2*
X5153991D1*
X430783Y2127530D2*
X522491D1*
X619857D2*
X960960D1*
X1002059D2*
X1526136D1*
X4222485D2*
X4955228D1*
X5044090D2*
X5153991D1*
X430855Y2102661D2*
X522491D1*
X619857D2*
X870747D1*
X5052666D2*
X5153991D1*
X430891Y2077793D2*
X522491D1*
X619857D2*
X858295D1*
X5061673D2*
X5153991D1*
X430926Y2052924D2*
X522491D1*
X619857D2*
X861094D1*
X5059520D2*
X5153991D1*
X430998Y2028055D2*
X522491D1*
X619857D2*
X884957D1*
X928425D2*
X1300603D1*
X1344107D2*
X1604865D1*
X1702841D2*
X1806176D1*
X4186565D2*
X4954690D1*
X5044628D2*
X5153991D1*
X431034Y2003186D2*
X522491D1*
X619857D2*
X1127319D1*
X5052343D2*
X5153991D1*
X431070Y1978318D2*
X522491D1*
X619857D2*
X1114436D1*
X5061601D2*
X5153991D1*
X431106Y1953449D2*
X522491D1*
X619857D2*
X1116948D1*
X5059663D2*
X5153991D1*
X431178Y1928580D2*
X522491D1*
X619857D2*
X1139878D1*
X1185607D2*
X4954188D1*
X5045130D2*
X5153991D1*
X431213Y1903711D2*
X522491D1*
X619857D2*
X4947334D1*
X5051984D2*
X5153991D1*
X431249Y1878843D2*
X522491D1*
X619857D2*
X4937789D1*
X5061529D2*
X5153991D1*
X431321Y1853974D2*
X522491D1*
X619857D2*
X4939475D1*
X5059843D2*
X5153991D1*
X431357Y1829105D2*
X522491D1*
X619857D2*
X4953685D1*
X5045633D2*
X5153991D1*
X431393Y1804236D2*
X522491D1*
X626388D2*
X1353640D1*
X1442215D2*
X1452071D1*
X1540645D2*
X1550510D1*
X1639075D2*
X1648931D1*
X1737506D2*
X1747362D1*
X1835936D2*
X1845807D1*
X1934330D2*
X1944208D1*
X2032761D2*
X2042617D1*
X2131191D2*
X2141047D1*
X2229621D2*
X2239487D1*
X2328052D2*
X3428895D1*
X3500819D2*
X5153991D1*
X431429Y1779367D2*
X524141D1*
X651255D2*
X1345064D1*
X2336628D2*
X3416479D1*
X3513270D2*
X5153991D1*
X431501Y1754499D2*
X540505D1*
X676123D2*
X1349693D1*
X2331999D2*
X3419278D1*
X3531464D2*
X5153991D1*
X431536Y1729630D2*
X565372D1*
X700991D2*
X1375207D1*
X1420684D2*
X1473637D1*
X1519114D2*
X1572067D1*
X1617509D2*
X1670462D1*
X1715939D2*
X1768892D1*
X1814369D2*
X1854584D1*
X1925539D2*
X1965753D1*
X2011230D2*
X2064183D1*
X2109660D2*
X2162613D1*
X2208091D2*
X2261044D1*
X2306485D2*
X3443141D1*
X3556331D2*
X4417719D1*
X4480529D2*
X5153991D1*
X431572Y1704761D2*
X590240D1*
X725859D2*
X1832766D1*
X1924534D2*
X3482900D1*
X3581199D2*
X4401571D1*
X4496641D2*
X5153991D1*
X431644Y1679892D2*
X615108D1*
X750726D2*
X1807898D1*
X1906197D2*
X3507768D1*
X3606067D2*
X4386643D1*
X4496174D2*
X5153991D1*
X431680Y1655024D2*
X639976D1*
X775594D2*
X841214D1*
X891679D2*
X1783030D1*
X1881329D2*
X3532636D1*
X4478124D2*
X5153991D1*
X431716Y1630155D2*
X664843D1*
X800462D2*
X820186D1*
X1856462D2*
X3557503D1*
X4435207D2*
X5153991D1*
X431788Y1605286D2*
X689711D1*
X1831594D2*
X3584201D1*
X4408509D2*
X5153991D1*
X431824Y1580417D2*
X714579D1*
X900579D2*
X1618824D1*
X1649482D2*
X5153991D1*
X431859Y1555549D2*
X739447D1*
X875065D2*
X1589615D1*
X1678727D2*
X5153991D1*
X431895Y1530680D2*
X764314D1*
X899933D2*
X1579962D1*
X1682890D2*
X5153991D1*
X431967Y1505811D2*
X789182D1*
X924800D2*
X1555094D1*
X1672232D2*
X5153991D1*
X432003Y1480942D2*
X628636D1*
X710536D2*
X814050D1*
X957634D2*
X1530226D1*
X1628525D2*
X5153991D1*
X432039Y1456073D2*
X607752D1*
X731421D2*
X838918D1*
X971450D2*
X1505359D1*
X1603658D2*
X5153991D1*
X432111Y1431205D2*
X601328D1*
X737844D2*
X837446D1*
X974177D2*
X1480491D1*
X1578790D2*
X5153991D1*
X432146Y1406336D2*
X601221D1*
X737952D2*
X837446D1*
X974177D2*
X1455623D1*
X1553922D2*
X5153991D1*
X432182Y1381467D2*
X601221D1*
X737952D2*
X837446D1*
X974177D2*
X1430755D1*
X1529054D2*
X5153991D1*
X432218Y1356598D2*
X601221D1*
X737952D2*
X837446D1*
X974177D2*
X1405888D1*
X1504187D2*
X5153991D1*
X432290Y1331730D2*
X601221D1*
X737952D2*
X837446D1*
X974177D2*
X1381020D1*
X1479319D2*
X5153991D1*
X432326Y1306861D2*
X605060D1*
X734112D2*
X838630D1*
X972993D2*
X1356116D1*
X1454451D2*
X5153991D1*
X432362Y1281992D2*
X620993D1*
X718179D2*
X848965D1*
X962658D2*
X1331249D1*
X1429583D2*
X5153991D1*
X432434Y1257123D2*
X720069D1*
X855329D2*
X881297D1*
X930327D2*
X1306381D1*
X1404716D2*
X5153991D1*
X432469Y1232255D2*
X682929D1*
X892469D2*
X1281513D1*
X1379848D2*
X5153991D1*
X432505Y1207386D2*
X671661D1*
X903736D2*
X1256645D1*
X1354980D2*
X5153991D1*
X432577Y1182517D2*
X671015D1*
X904418D2*
X1231778D1*
X1330112D2*
X5153991D1*
X432613Y1157648D2*
X680561D1*
X894837D2*
X1206910D1*
X1305209D2*
X5153991D1*
X432649Y1132780D2*
X709806D1*
X865592D2*
X1182042D1*
X1280341D2*
X5153991D1*
X432685Y1107911D2*
X1157174D1*
X1255473D2*
X5153991D1*
X432757Y1083042D2*
X1132307D1*
X1230605D2*
X5153991D1*
X432792Y1058173D2*
X1107439D1*
X1205738D2*
X5153991D1*
X432828Y1033304D2*
X1082571D1*
X1180870D2*
X5153991D1*
X432900Y1008436D2*
X1057703D1*
X1156002D2*
X5153991D1*
X432936Y983567D2*
X1032836D1*
X1131135D2*
X5153991D1*
X432972Y958698D2*
X988878D1*
X1106267D2*
X5153991D1*
X433044Y933829D2*
X975672D1*
X1081399D2*
X5153991D1*
X433079Y908961D2*
X977969D1*
X1069880D2*
X5153991D1*
X433115Y884092D2*
X1000289D1*
X1047560D2*
X5153991D1*
X433151Y859223D2*
X5153991D1*
X433223Y834354D2*
X5153991D1*
X433259Y809486D2*
X5153991D1*
X433295Y784617D2*
X5153991D1*
X433367Y759748D2*
X5153991D1*
X433402Y734879D2*
X968495D1*
X1052728D2*
X1118491D1*
X1202723D2*
X1456018D1*
X1540250D2*
X1606014D1*
X1690246D2*
X1945622D1*
X2029854D2*
X2095618D1*
X2179850D2*
X2431027D1*
X2515259D2*
X2581023D1*
X2665255D2*
X2918478D1*
X3002746D2*
X3068510D1*
X3152742D2*
X3406000D1*
X3490269D2*
X3555996D1*
X3640264D2*
X3893487D1*
X3977719D2*
X4043483D1*
X4127751D2*
X4381010D1*
X4465242D2*
X4531006D1*
X4615238D2*
X5153991D1*
X433438Y710010D2*
X948041D1*
X1073182D2*
X1098037D1*
X1223177D2*
X1435564D1*
X1560704D2*
X1585560D1*
X1710700D2*
X1925168D1*
X2050308D2*
X2075164D1*
X2200304D2*
X2410573D1*
X2535677D2*
X2560569D1*
X2685709D2*
X2898060D1*
X3023164D2*
X3048056D1*
X3173160D2*
X3385582D1*
X3510687D2*
X3535578D1*
X3660683D2*
X3873069D1*
X3998173D2*
X4023065D1*
X4148169D2*
X4360592D1*
X4485696D2*
X4510587D1*
X4635692D2*
X5153991D1*
X433474Y685142D2*
X941726D1*
X1079497D2*
X1091722D1*
X1229493D2*
X1429248D1*
X1567020D2*
X1579271D1*
X1717016D2*
X1918852D1*
X2056624D2*
X2068848D1*
X2206619D2*
X2404257D1*
X2542029D2*
X2554253D1*
X2692025D2*
X2891708D1*
X3029516D2*
X3041740D1*
X3179512D2*
X3379231D1*
X3517038D2*
X3529227D1*
X3667034D2*
X3866717D1*
X4004489D2*
X4016713D1*
X4154521D2*
X4354240D1*
X4492012D2*
X4504236D1*
X4642007D2*
X5153991D1*
X433546Y660273D2*
X945099D1*
X1076124D2*
X1095095D1*
X1226120D2*
X1432621D1*
X1563647D2*
X1582617D1*
X1713643D2*
X1922225D1*
X2053250D2*
X2072221D1*
X2203246D2*
X2407631D1*
X2538656D2*
X2557626D1*
X2688652D2*
X2895081D1*
X3026143D2*
X3045077D1*
X3176138D2*
X3382604D1*
X3513665D2*
X3532600D1*
X3663661D2*
X3870091D1*
X4001116D2*
X4020087D1*
X4151148D2*
X4357613D1*
X4488638D2*
X4507609D1*
X4638670D2*
X5153991D1*
X433582Y635404D2*
X960170D1*
X1061053D2*
X1110166D1*
X1211049D2*
X1447693D1*
X1548575D2*
X1597689D1*
X1698571D2*
X1937297D1*
X2038179D2*
X2087292D1*
X2188175D2*
X2422702D1*
X2523585D2*
X2572698D1*
X2673580D2*
X2910189D1*
X3011071D2*
X3060185D1*
X3161067D2*
X3397711D1*
X3498558D2*
X3547707D1*
X3648590D2*
X3885162D1*
X3986045D2*
X4035158D1*
X4136040D2*
X4372685D1*
X4473567D2*
X4522680D1*
X4623563D2*
X5153991D1*
X433618Y610535D2*
X5153991D1*
X433689Y585667D2*
X494788D1*
X608194D2*
X4982967D1*
X5096373D2*
X5153991D1*
X433725Y560798D2*
X471679D1*
X631304D2*
X4959857D1*
X5119482D2*
X5153991D1*
X433761Y535929D2*
X460770D1*
X642177D2*
X4948949D1*
X5130391D2*
X5153991D1*
X433833Y511060D2*
X457612D1*
X645334D2*
X4945791D1*
X5133549D2*
X5153991D1*
X433869Y486192D2*
X461380D1*
X641602D2*
X4949559D1*
X5129781D2*
X5153991D1*
X433905Y461323D2*
X473006D1*
X629940D2*
X4961221D1*
X5118119D2*
X5153991D1*
X433941Y436454D2*
X497731D1*
X605216D2*
X4985945D1*
X5093395D2*
X5153991D1*
X4948890Y2430335D2*
X5059617D1*
Y2310421D1*
X5044294D1*
X5048166Y2305620D1*
X5053082Y2297598D1*
X5056682Y2288906D1*
X5058879Y2279757D1*
X5059617Y2270378D1*
X5058879Y2260999D1*
X5056682Y2251850D1*
X5053082Y2243158D1*
X5048166Y2235136D1*
X5042056Y2227982D1*
X5034902Y2221872D1*
X5032715Y2220411D1*
X5038599Y2215969D1*
X5045252Y2209317D1*
X5050782Y2201705D1*
X5055053Y2193322D1*
X5057960Y2184375D1*
X5059432Y2175082D1*
Y2165674D1*
X5057960Y2156381D1*
X5055053Y2147434D1*
X5050782Y2139051D1*
X5045252Y2131439D1*
X5038599Y2124787D1*
X5032715Y2120411D1*
X5038599Y2115969D1*
X5045252Y2109317D1*
X5050782Y2101705D1*
X5055053Y2093322D1*
X5057960Y2084375D1*
X5059432Y2075082D1*
Y2065674D1*
X5057960Y2056381D1*
X5055053Y2047434D1*
X5050782Y2039051D1*
X5045252Y2031439D1*
X5038599Y2024787D1*
X5032715Y2020411D1*
X5038599Y2015969D1*
X5045252Y2009317D1*
X5050782Y2001705D1*
X5055053Y1993322D1*
X5057960Y1984375D1*
X5059432Y1975082D1*
Y1965674D1*
X5057960Y1956381D1*
X5055053Y1947434D1*
X5050782Y1939051D1*
X5045252Y1931439D1*
X5038599Y1924787D1*
X5032715Y1920411D1*
X5038809Y1915789D1*
X5044067Y1910662D1*
X5048660Y1904930D1*
X5052517Y1898680D1*
X5055580Y1892005D1*
X5057805Y1885006D1*
X5059157Y1877787D1*
X5059617Y1870378D1*
X5059167Y1863047D1*
X5057824Y1855827D1*
X5055609Y1848824D1*
X5052554Y1842145D1*
X5048705Y1835890D1*
X5044120Y1830152D1*
X5038868Y1825018D1*
X5033028Y1820565D1*
X5026687Y1816858D1*
X5019941Y1813955D1*
X5012890Y1811899D1*
X5005641Y1810720D1*
X4998302Y1810437D1*
X4990983Y1811052D1*
X4983795Y1812558D1*
X4976845Y1814932D1*
X4970237Y1818138D1*
X4964070Y1822127D1*
X4958438Y1826841D1*
X4953424Y1832207D1*
X4949104Y1838147D1*
X4945542Y1844570D1*
X4942793Y1851380D1*
X4940897Y1858476D1*
X4939882Y1865750D1*
X4939765Y1873094D1*
X4940546Y1880396D1*
X4942215Y1887549D1*
X4944745Y1894444D1*
X4948100Y1900977D1*
X4952228Y1907052D1*
X4957068Y1912576D1*
X4962547Y1917467D1*
X4966579Y1920376D1*
X4960721Y1924787D1*
X4954069Y1931439D1*
X4952145Y1933880D1*
X1191551Y1933886D1*
X1187041Y1930737D1*
X1180541Y1927425D1*
X1173603Y1925170D1*
X1166397Y1924029D1*
X1159102D1*
X1151896Y1925170D1*
X1144958Y1927425D1*
X1138457Y1930737D1*
X1132555Y1935025D1*
X1127396Y1940184D1*
X1123108Y1946086D1*
X1119796Y1952586D1*
X1117542Y1959525D1*
X1116401Y1966730D1*
Y1974026D1*
X1117542Y1981231D1*
X1119796Y1988170D1*
X1123108Y1994670D1*
X1127396Y2000572D1*
X1132555Y2005731D1*
X1138457Y2010019D1*
X1144958Y2013331D1*
X1151896Y2015585D1*
X1159102Y2016727D1*
X1166397D1*
X1173603Y2015585D1*
X1180541Y2013331D1*
X1187041Y2010019D1*
X1191499Y2006870D1*
X1612342D1*
X1609626Y2013491D1*
X1607923Y2020585D1*
X1607350Y2027858D1*
X1607777Y2033899D1*
X1351135Y2033886D1*
X1346639Y2030737D1*
X1340138Y2027425D1*
X1333200Y2025170D1*
X1325994Y2024029D1*
X1318699D1*
X1311493Y2025170D1*
X1304555Y2027425D1*
X1298054Y2030737D1*
X1293597Y2033886D1*
X935525D1*
X930989Y2030737D1*
X924489Y2027425D1*
X917550Y2025170D1*
X910345Y2024029D1*
X903049D1*
X895843Y2025170D1*
X888905Y2027425D1*
X882405Y2030737D1*
X876503Y2035025D1*
X871344Y2040184D1*
X867056Y2046086D1*
X863744Y2052586D1*
X861489Y2059525D1*
X860348Y2066730D1*
Y2074026D1*
X861489Y2081231D1*
X863744Y2088170D1*
X867056Y2094670D1*
X871344Y2100572D1*
X876503Y2105731D1*
X882405Y2110019D1*
X888905Y2113331D1*
X895843Y2115585D1*
X903049Y2116727D1*
X910345D1*
X917550Y2115585D1*
X924489Y2113331D1*
X930989Y2110019D1*
X935446Y2106870D1*
X1293564D1*
X1298054Y2110019D1*
X1304555Y2113331D1*
X1311493Y2115585D1*
X1318699Y2116727D1*
X1325994D1*
X1333200Y2115585D1*
X1340138Y2113331D1*
X1346639Y2110019D1*
X1351096Y2106870D1*
X1532879D1*
X1530886Y2111917D1*
X1529183Y2119010D1*
X1528610Y2126283D1*
X1529247Y2133878D1*
X1010307Y2133886D1*
X1005792Y2130737D1*
X999292Y2127425D1*
X992353Y2125170D1*
X985148Y2124029D1*
X977852D1*
X970647Y2125170D1*
X963708Y2127425D1*
X957208Y2130737D1*
X951306Y2135025D1*
X946147Y2140184D1*
X941859Y2146086D1*
X938547Y2152586D1*
X936292Y2159525D1*
X935151Y2166730D1*
Y2174026D1*
X936292Y2181231D1*
X938547Y2188170D1*
X941859Y2194670D1*
X946147Y2200572D1*
X951306Y2205731D1*
X957208Y2210019D1*
X963708Y2213331D1*
X970647Y2215585D1*
X977852Y2216727D1*
X985148D1*
X992353Y2215585D1*
X999292Y2213331D1*
X1005792Y2210019D1*
X1010250Y2206870D1*
X1512464Y2206917D1*
X1510210Y2213855D1*
X1509069Y2221061D1*
Y2228356D1*
X1509879Y2233898D1*
X754227Y2233886D1*
X749738Y2230737D1*
X743238Y2227425D1*
X736300Y2225170D1*
X729094Y2224029D1*
X721798D1*
X714593Y2225170D1*
X707654Y2227425D1*
X701154Y2230737D1*
X695252Y2235025D1*
X690093Y2240184D1*
X685805Y2246086D1*
X682493Y2252586D1*
X680239Y2259525D1*
X679074Y2267314D1*
X617364Y2205603D1*
X617343Y1810785D1*
X820435Y1607673D1*
X819949Y1614472D1*
X820521Y1621745D1*
X822224Y1628839D1*
X825016Y1635579D1*
X828828Y1641800D1*
X833566Y1647347D1*
X839114Y1652085D1*
X845334Y1655897D1*
X852074Y1658689D1*
X859168Y1660392D1*
X866441Y1660965D1*
X873714Y1660392D1*
X880808Y1658689D1*
X887548Y1655897D1*
X893768Y1652085D1*
X899201Y1647454D1*
X1778007Y1647461D1*
X1857095Y1726582D1*
X1857075Y1737694D1*
X1851668Y1743098D1*
X1847011Y1749508D1*
X1843414Y1756567D1*
X1840860Y1764634D1*
X1838286Y1756567D1*
X1834689Y1749508D1*
X1830032Y1743098D1*
X1824430Y1737495D1*
X1818020Y1732838D1*
X1810960Y1729241D1*
X1803425Y1726793D1*
X1795599Y1725553D1*
X1787676D1*
X1779851Y1726793D1*
X1772315Y1729241D1*
X1765256Y1732838D1*
X1758846Y1737495D1*
X1753243Y1743098D1*
X1748586Y1749508D1*
X1744989Y1756567D1*
X1742435Y1764634D1*
X1739861Y1756567D1*
X1736264Y1749508D1*
X1731607Y1743098D1*
X1726005Y1737495D1*
X1719595Y1732838D1*
X1712535Y1729241D1*
X1705000Y1726793D1*
X1697174Y1725553D1*
X1689251D1*
X1681425Y1726793D1*
X1673890Y1729241D1*
X1666831Y1732838D1*
X1660421Y1737495D1*
X1654818Y1743098D1*
X1650161Y1749508D1*
X1646564Y1756567D1*
X1644010Y1764634D1*
X1641436Y1756567D1*
X1637839Y1749508D1*
X1633182Y1743098D1*
X1627579Y1737495D1*
X1621169Y1732838D1*
X1614110Y1729241D1*
X1606575Y1726793D1*
X1598749Y1725553D1*
X1590826D1*
X1583000Y1726793D1*
X1575465Y1729241D1*
X1568405Y1732838D1*
X1561995Y1737495D1*
X1556393Y1743098D1*
X1551736Y1749508D1*
X1548139Y1756567D1*
X1545585Y1764634D1*
X1543011Y1756567D1*
X1539414Y1749508D1*
X1534757Y1743098D1*
X1529154Y1737495D1*
X1522744Y1732838D1*
X1515685Y1729241D1*
X1508149Y1726793D1*
X1500324Y1725553D1*
X1492401D1*
X1484575Y1726793D1*
X1477040Y1729241D1*
X1469980Y1732838D1*
X1463570Y1737495D1*
X1457968Y1743098D1*
X1453311Y1749508D1*
X1449714Y1756567D1*
X1447159Y1764634D1*
X1444586Y1756567D1*
X1440989Y1749508D1*
X1436332Y1743098D1*
X1430729Y1737495D1*
X1424319Y1732838D1*
X1417260Y1729241D1*
X1409724Y1726793D1*
X1401899Y1725553D1*
X1393975D1*
X1386150Y1726793D1*
X1378615Y1729241D1*
X1371555Y1732838D1*
X1365145Y1737495D1*
X1359542Y1743098D1*
X1354885Y1749508D1*
X1351288Y1756567D1*
X1348840Y1764103D1*
X1347601Y1771928D1*
Y1779851D1*
X1348840Y1787677D1*
X1351288Y1795212D1*
X1354885Y1802272D1*
X1359542Y1808682D1*
X1365145Y1814284D1*
X1371555Y1818941D1*
X1378615Y1822538D1*
X1386150Y1824987D1*
X1393975Y1826226D1*
X1401899D1*
X1409724Y1824987D1*
X1417260Y1822538D1*
X1424319Y1818941D1*
X1430729Y1814284D1*
X1436332Y1808682D1*
X1440989Y1802272D1*
X1444586Y1795212D1*
X1447140Y1787145D1*
X1449714Y1795212D1*
X1453311Y1802272D1*
X1457968Y1808682D1*
X1463570Y1814284D1*
X1469980Y1818941D1*
X1477040Y1822538D1*
X1484575Y1824987D1*
X1492401Y1826226D1*
X1500324D1*
X1508149Y1824987D1*
X1515685Y1822538D1*
X1522744Y1818941D1*
X1529154Y1814284D1*
X1534757Y1808682D1*
X1539414Y1802272D1*
X1543011Y1795212D1*
X1545565Y1787145D1*
X1548139Y1795212D1*
X1551736Y1802272D1*
X1556393Y1808682D1*
X1561995Y1814284D1*
X1568405Y1818941D1*
X1575465Y1822538D1*
X1583000Y1824987D1*
X1590826Y1826226D1*
X1598749D1*
X1606575Y1824987D1*
X1614110Y1822538D1*
X1621169Y1818941D1*
X1627579Y1814284D1*
X1633182Y1808682D1*
X1637839Y1802272D1*
X1641436Y1795212D1*
X1643990Y1787145D1*
X1646564Y1795212D1*
X1650161Y1802272D1*
X1654818Y1808682D1*
X1660421Y1814284D1*
X1666831Y1818941D1*
X1673890Y1822538D1*
X1681425Y1824987D1*
X1689251Y1826226D1*
X1697174D1*
X1705000Y1824987D1*
X1712535Y1822538D1*
X1719595Y1818941D1*
X1726005Y1814284D1*
X1731607Y1808682D1*
X1736264Y1802272D1*
X1739861Y1795212D1*
X1742415Y1787145D1*
X1744989Y1795212D1*
X1748586Y1802272D1*
X1753243Y1808682D1*
X1758846Y1814284D1*
X1765256Y1818941D1*
X1772315Y1822538D1*
X1779851Y1824987D1*
X1787676Y1826226D1*
X1795599D1*
X1803425Y1824987D1*
X1810960Y1822538D1*
X1818020Y1818941D1*
X1824430Y1814284D1*
X1830032Y1808682D1*
X1834689Y1802272D1*
X1838286Y1795212D1*
X1840841Y1787145D1*
X1843414Y1795212D1*
X1847011Y1802272D1*
X1851668Y1808682D1*
X1857271Y1814284D1*
X1863681Y1818941D1*
X1870740Y1822538D1*
X1878276Y1824987D1*
X1886101Y1826226D1*
X1894025D1*
X1901850Y1824987D1*
X1909385Y1822538D1*
X1916445Y1818941D1*
X1922855Y1814284D1*
X1928458Y1808682D1*
X1933115Y1802272D1*
X1936712Y1795212D1*
X1939266Y1787145D1*
X1941840Y1795212D1*
X1945437Y1802272D1*
X1950094Y1808682D1*
X1955696Y1814284D1*
X1962106Y1818941D1*
X1969166Y1822538D1*
X1976701Y1824987D1*
X1984527Y1826226D1*
X1992450D1*
X2000275Y1824987D1*
X2007811Y1822538D1*
X2014870Y1818941D1*
X2021280Y1814284D1*
X2026883Y1808682D1*
X2031540Y1802272D1*
X2035137Y1795212D1*
X2037691Y1787145D1*
X2040265Y1795212D1*
X2043862Y1802272D1*
X2048519Y1808682D1*
X2054121Y1814284D1*
X2060531Y1818941D1*
X2067591Y1822538D1*
X2075126Y1824987D1*
X2082952Y1826226D1*
X2090875D1*
X2098701Y1824987D1*
X2106236Y1822538D1*
X2113295Y1818941D1*
X2119705Y1814284D1*
X2125308Y1808682D1*
X2129965Y1802272D1*
X2133562Y1795212D1*
X2136116Y1787145D1*
X2138690Y1795212D1*
X2142287Y1802272D1*
X2146944Y1808682D1*
X2152547Y1814284D1*
X2158957Y1818941D1*
X2166016Y1822538D1*
X2173551Y1824987D1*
X2181377Y1826226D1*
X2189300D1*
X2197126Y1824987D1*
X2204661Y1822538D1*
X2211721Y1818941D1*
X2218131Y1814284D1*
X2223733Y1808682D1*
X2228390Y1802272D1*
X2231987Y1795212D1*
X2234541Y1787145D1*
X2237115Y1795212D1*
X2240712Y1802272D1*
X2245369Y1808682D1*
X2250972Y1814284D1*
X2257382Y1818941D1*
X2264441Y1822538D1*
X2271977Y1824987D1*
X2279802Y1826226D1*
X2287725D1*
X2295551Y1824987D1*
X2303086Y1822538D1*
X2310146Y1818941D1*
X2316556Y1814284D1*
X2322158Y1808682D1*
X2326815Y1802272D1*
X2330412Y1795212D1*
X2332861Y1787677D1*
X2334100Y1779851D1*
Y1771928D1*
X2332861Y1764103D1*
X2330412Y1756567D1*
X2326815Y1749508D1*
X2322158Y1743098D1*
X2316556Y1737495D1*
X2310146Y1732838D1*
X2303086Y1729241D1*
X2295551Y1726793D1*
X2287725Y1725553D1*
X2279802D1*
X2271977Y1726793D1*
X2264441Y1729241D1*
X2257382Y1732838D1*
X2250972Y1737495D1*
X2245369Y1743098D1*
X2240712Y1749508D1*
X2237115Y1756567D1*
X2234561Y1764634D1*
X2231987Y1756567D1*
X2228390Y1749508D1*
X2223733Y1743098D1*
X2218131Y1737495D1*
X2211721Y1732838D1*
X2204661Y1729241D1*
X2197126Y1726793D1*
X2189300Y1725553D1*
X2181377D1*
X2173551Y1726793D1*
X2166016Y1729241D1*
X2158957Y1732838D1*
X2152547Y1737495D1*
X2146944Y1743098D1*
X2142287Y1749508D1*
X2138690Y1756567D1*
X2136136Y1764634D1*
X2133562Y1756567D1*
X2129965Y1749508D1*
X2125308Y1743098D1*
X2119705Y1737495D1*
X2113295Y1732838D1*
X2106236Y1729241D1*
X2098701Y1726793D1*
X2090875Y1725553D1*
X2082952D1*
X2075126Y1726793D1*
X2067591Y1729241D1*
X2060531Y1732838D1*
X2054121Y1737495D1*
X2048519Y1743098D1*
X2043862Y1749508D1*
X2040265Y1756567D1*
X2037711Y1764634D1*
X2035137Y1756567D1*
X2031540Y1749508D1*
X2026883Y1743098D1*
X2021280Y1737495D1*
X2014870Y1732838D1*
X2007811Y1729241D1*
X2000275Y1726793D1*
X1992450Y1725553D1*
X1984527D1*
X1976701Y1726793D1*
X1969166Y1729241D1*
X1962106Y1732838D1*
X1955696Y1737495D1*
X1950094Y1743098D1*
X1945437Y1749508D1*
X1941840Y1756567D1*
X1939285Y1764634D1*
X1936712Y1756567D1*
X1933115Y1749508D1*
X1928458Y1743098D1*
X1923048Y1737674D1*
X1922950Y1710309D1*
X1922140Y1705197D1*
X1920540Y1700274D1*
X1918190Y1695661D1*
X1915148Y1691473D1*
X1867919Y1644101D1*
X1813062Y1589388D1*
X1808874Y1586345D1*
X1804262Y1583995D1*
X1799339Y1582396D1*
X1794226Y1581586D1*
X1727333Y1581484D1*
X1642395D1*
X1648524Y1579949D1*
X1655264Y1577157D1*
X1661485Y1573345D1*
X1667032Y1568607D1*
X1671770Y1563060D1*
X1675582Y1556839D1*
X1678374Y1550099D1*
X1680077Y1543005D1*
X1680650Y1535732D1*
X1680077Y1528459D1*
X1678374Y1521365D1*
X1675582Y1514625D1*
X1671770Y1508405D1*
X1667032Y1502857D1*
X1661485Y1498119D1*
X1655264Y1494307D1*
X1648524Y1491516D1*
X1641430Y1489813D1*
X1634314Y1489246D1*
X1070407Y925329D1*
X1069841Y918223D1*
X1068138Y911129D1*
X1065346Y904389D1*
X1061534Y898169D1*
X1056796Y892621D1*
X1051249Y887883D1*
X1045028Y884071D1*
X1038288Y881279D1*
X1031194Y879576D1*
X1023921Y879004D1*
X1016648Y879576D1*
X1009554Y881279D1*
X1002814Y884071D1*
X996594Y887883D1*
X991046Y892621D1*
X986308Y898169D1*
X982496Y904389D1*
X979705Y911129D1*
X978002Y918223D1*
X977429Y925496D1*
X978002Y932769D1*
X979705Y939863D1*
X982496Y946603D1*
X986308Y952823D1*
X991046Y958371D1*
X996594Y963109D1*
X1002814Y966921D1*
X1009554Y969713D1*
X1016648Y971416D1*
X1023765Y971982D1*
X1587672Y1535899D1*
X1588238Y1543005D1*
X1589941Y1550099D1*
X1592733Y1556839D1*
X1596545Y1563060D1*
X1601283Y1568607D1*
X1606830Y1573345D1*
X1613050Y1577157D1*
X1619791Y1579949D1*
X1626031Y1581482D1*
X899234Y1581484D1*
X893768Y1576860D1*
X887548Y1573048D1*
X880808Y1570256D1*
X873714Y1568553D1*
X866441Y1567980D1*
X859607Y1568501D1*
X929239Y1498869D1*
X935712Y1495991D1*
X944524Y1490591D1*
X952383Y1483879D1*
X959095Y1476020D1*
X964495Y1467208D1*
X968450Y1457660D1*
X970862Y1447610D1*
X971673Y1437307D1*
X971470Y1314029D1*
X969853Y1303822D1*
X966660Y1293992D1*
X961968Y1284784D1*
X955893Y1276423D1*
X948585Y1269115D1*
X940224Y1263040D1*
X931015Y1258348D1*
X921186Y1255154D1*
X910979Y1253538D1*
X900644D1*
X890436Y1255154D1*
X880607Y1258348D1*
X871398Y1263040D1*
X863037Y1269115D1*
X855729Y1276423D1*
X849654Y1284784D1*
X844962Y1293992D1*
X841769Y1303822D1*
X840152Y1314029D1*
X839949Y1337570D1*
X840152Y1442475D1*
X841769Y1452682D1*
X842443Y1455074D1*
X536052Y1761648D1*
X531793Y1767510D1*
X528503Y1773967D1*
X526264Y1780858D1*
X525130Y1788015D1*
X524988Y1819197D1*
X525130Y2228332D1*
X526264Y2235489D1*
X528503Y2242380D1*
X531793Y2248836D1*
X536052Y2254698D1*
X558000Y2276848D1*
X573221Y2292069D1*
X573215Y3022824D1*
X565806Y3025804D1*
X559586Y3029615D1*
X554038Y3034353D1*
X549300Y3039901D1*
X545489Y3046121D1*
X542697Y3052861D1*
X540994Y3059955D1*
X540421Y3067228D1*
X540994Y3074501D1*
X542697Y3081595D1*
X545489Y3088335D1*
X549300Y3094556D1*
X554038Y3100103D1*
X559586Y3104841D1*
X565806Y3108653D1*
X572547Y3111445D1*
X579640Y3113148D1*
X586913Y3113720D1*
X594186Y3113148D1*
X601280Y3111445D1*
X608020Y3108653D1*
X614241Y3104841D1*
X619788Y3100103D1*
X624526Y3094556D1*
X628338Y3088335D1*
X631130Y3081595D1*
X632833Y3074501D1*
X633383Y3066644D1*
X635596Y3062915D1*
X637577Y3058132D1*
X638785Y3053099D1*
X639192Y3047938D1*
Y2358065D1*
X686845Y2405491D1*
X692707Y2409751D1*
X699163Y2413040D1*
X706055Y2415279D1*
X713212Y2416413D1*
X744394Y2416555D1*
X796602Y2416727D1*
X803897D1*
X809436Y2416555D1*
X1560736Y2416712D1*
X1553995Y2419504D1*
X1547775Y2423316D1*
X1542227Y2428054D1*
X1537489Y2433602D1*
X1533678Y2439822D1*
X1530886Y2446562D1*
X1529183Y2453656D1*
X1528610Y2460929D1*
X1529183Y2468202D1*
X1530886Y2475296D1*
X1533678Y2482036D1*
X1537489Y2488257D1*
X1542227Y2493804D1*
X1547775Y2498542D1*
X1553995Y2502354D1*
X1560736Y2505146D1*
X1567829Y2506849D1*
X1575102Y2507421D1*
X1582375Y2506849D1*
X1589469Y2505146D1*
X1596209Y2502354D1*
X1602430Y2498542D1*
X1607862Y2493911D1*
X1817931Y2493917D1*
X1823366Y2498542D1*
X1829586Y2502354D1*
X1836326Y2505146D1*
X1843420Y2506849D1*
X1850693Y2507421D1*
X1857966Y2506849D1*
X1865060Y2505146D1*
X1871800Y2502354D1*
X1878020Y2498542D1*
X1883568Y2493804D1*
X1888306Y2488257D1*
X1892118Y2482036D1*
X1894910Y2475296D1*
X1896613Y2468202D1*
X1897185Y2460929D1*
X1896613Y2453656D1*
X1894910Y2446562D1*
X1892118Y2439822D1*
X1888306Y2433602D1*
X1883568Y2428054D1*
X1878020Y2423316D1*
X1871800Y2419504D1*
X1864497Y2416554D1*
X2252416Y2416555D1*
X2256436Y2419802D1*
X2262657Y2423614D1*
X2269397Y2426406D1*
X2276491Y2428109D1*
X2283764Y2428681D1*
X2291037Y2428109D1*
X2298131Y2426406D1*
X2304871Y2423614D1*
X2311091Y2419802D1*
X2315016Y2416564D1*
X3425491Y2416555D1*
X3421913Y2423452D1*
X3419659Y2430391D1*
X3418517Y2437596D1*
X3418380Y2441087D1*
X3293737Y2565721D1*
X2186256Y2565736D1*
X2224889Y2527086D1*
X2231982Y2526534D1*
X2239076Y2524831D1*
X2245816Y2522039D1*
X2252036Y2518227D1*
X2257584Y2513489D1*
X2262322Y2507942D1*
X2266133Y2501721D1*
X2268925Y2494981D1*
X2270628Y2487887D1*
X2271201Y2480614D1*
X2270628Y2473341D1*
X2268925Y2466247D1*
X2266133Y2459507D1*
X2262322Y2453287D1*
X2257584Y2447739D1*
X2252036Y2443001D1*
X2245816Y2439189D1*
X2239076Y2436398D1*
X2231982Y2434694D1*
X2224709Y2434122D1*
X2217436Y2434694D1*
X2210342Y2436398D1*
X2203602Y2439189D1*
X2197381Y2443001D1*
X2191834Y2447739D1*
X2187096Y2453287D1*
X2183284Y2459507D1*
X2180492Y2466247D1*
X2178789Y2473341D1*
X2178223Y2480457D1*
X2132289Y2526381D1*
X1430689Y2526366D1*
X1425264Y2521741D1*
X1419044Y2517930D1*
X1412304Y2515138D1*
X1405210Y2513435D1*
X1397937Y2512862D1*
X1390664Y2513435D1*
X1383570Y2515138D1*
X1376830Y2517930D1*
X1370610Y2521741D1*
X1365062Y2526479D1*
X1360324Y2532027D1*
X1356512Y2538247D1*
X1353720Y2544987D1*
X1352017Y2552081D1*
X1351445Y2559354D1*
X1352017Y2566627D1*
X1353720Y2573721D1*
X1356512Y2580461D1*
X1360324Y2586682D1*
X1365062Y2592229D1*
X1370610Y2596967D1*
X1376830Y2600779D1*
X1383570Y2603571D1*
X1390664Y2605274D1*
X1397937Y2605846D1*
X1405210Y2605274D1*
X1412304Y2603571D1*
X1419044Y2600779D1*
X1425264Y2596967D1*
X1430697Y2592336D1*
X1672630Y2592343D1*
X1569703Y2695410D1*
X1566660Y2699598D1*
X1564310Y2704211D1*
X1562711Y2709134D1*
X1561901Y2714246D1*
X1561799Y2737683D1*
X1556393Y2743098D1*
X1551736Y2749508D1*
X1548139Y2756567D1*
X1545585Y2764634D1*
X1543011Y2756567D1*
X1539414Y2749508D1*
X1534757Y2743098D1*
X1529154Y2737495D1*
X1522744Y2732838D1*
X1515685Y2729241D1*
X1508149Y2726793D1*
X1500324Y2725553D1*
X1492401D1*
X1484575Y2726793D1*
X1477040Y2729241D1*
X1469980Y2732838D1*
X1463570Y2737495D1*
X1457968Y2743098D1*
X1453311Y2749508D1*
X1449714Y2756567D1*
X1447159Y2764634D1*
X1444586Y2756567D1*
X1440989Y2749508D1*
X1436332Y2743098D1*
X1430729Y2737495D1*
X1424319Y2732838D1*
X1417260Y2729241D1*
X1409724Y2726793D1*
X1401899Y2725553D1*
X1393975D1*
X1386150Y2726793D1*
X1378615Y2729241D1*
X1371555Y2732838D1*
X1365145Y2737495D1*
X1359542Y2743098D1*
X1354885Y2749508D1*
X1351288Y2756567D1*
X1348840Y2764103D1*
X1347601Y2771928D1*
Y2779851D1*
X1348840Y2787677D1*
X1351288Y2795212D1*
X1354885Y2802272D1*
X1359542Y2808682D1*
X1365145Y2814284D1*
X1371555Y2818941D1*
X1378615Y2822538D1*
X1386150Y2824987D1*
X1393975Y2826226D1*
X1401899D1*
X1409724Y2824987D1*
X1417260Y2822538D1*
X1424319Y2818941D1*
X1430729Y2814284D1*
X1436332Y2808682D1*
X1440989Y2802272D1*
X1444586Y2795212D1*
X1447140Y2787145D1*
X1449714Y2795212D1*
X1453311Y2802272D1*
X1457968Y2808682D1*
X1463570Y2814284D1*
X1469980Y2818941D1*
X1477040Y2822538D1*
X1484575Y2824987D1*
X1492401Y2826226D1*
X1500324D1*
X1508149Y2824987D1*
X1515685Y2822538D1*
X1522744Y2818941D1*
X1529154Y2814284D1*
X1534757Y2808682D1*
X1539414Y2802272D1*
X1543011Y2795212D1*
X1545565Y2787145D1*
X1548139Y2795212D1*
X1551736Y2802272D1*
X1556393Y2808682D1*
X1561995Y2814284D1*
X1568405Y2818941D1*
X1575465Y2822538D1*
X1583000Y2824987D1*
X1590826Y2826226D1*
X1598749D1*
X1606575Y2824987D1*
X1614110Y2822538D1*
X1621169Y2818941D1*
X1627579Y2814284D1*
X1633182Y2808682D1*
X1637839Y2802272D1*
X1641436Y2795212D1*
X1643990Y2787145D1*
X1646564Y2795212D1*
X1650161Y2802272D1*
X1654818Y2808682D1*
X1660421Y2814284D1*
X1666831Y2818941D1*
X1673890Y2822538D1*
X1681425Y2824987D1*
X1689251Y2826226D1*
X1697174D1*
X1705000Y2824987D1*
X1712535Y2822538D1*
X1719595Y2818941D1*
X1726005Y2814284D1*
X1731607Y2808682D1*
X1736264Y2802272D1*
X1739861Y2795212D1*
X1742415Y2787145D1*
X1744989Y2795212D1*
X1748586Y2802272D1*
X1753243Y2808682D1*
X1758846Y2814284D1*
X1765256Y2818941D1*
X1772315Y2822538D1*
X1779851Y2824987D1*
X1787676Y2826226D1*
X1795599D1*
X1803425Y2824987D1*
X1810960Y2822538D1*
X1818020Y2818941D1*
X1824430Y2814284D1*
X1830032Y2808682D1*
X1834689Y2802272D1*
X1838286Y2795212D1*
X1840841Y2787145D1*
X1843414Y2795212D1*
X1847011Y2802272D1*
X1851668Y2808682D1*
X1857271Y2814284D1*
X1863681Y2818941D1*
X1870740Y2822538D1*
X1878276Y2824987D1*
X1886101Y2826226D1*
X1894025D1*
X1901850Y2824987D1*
X1909385Y2822538D1*
X1916445Y2818941D1*
X1922855Y2814284D1*
X1928458Y2808682D1*
X1933115Y2802272D1*
X1936712Y2795212D1*
X1939266Y2787145D1*
X1941840Y2795212D1*
X1945437Y2802272D1*
X1950094Y2808682D1*
X1955696Y2814284D1*
X1962106Y2818941D1*
X1969166Y2822538D1*
X1976701Y2824987D1*
X1984527Y2826226D1*
X1992450D1*
X2000275Y2824987D1*
X2007811Y2822538D1*
X2014870Y2818941D1*
X2021280Y2814284D1*
X2026883Y2808682D1*
X2031540Y2802272D1*
X2035137Y2795212D1*
X2037691Y2787145D1*
X2039510Y2793279D1*
X2042533Y2799970D1*
X2046495Y2806152D1*
X2051311Y2811694D1*
X2056881Y2816479D1*
X2063085Y2820406D1*
X2069794Y2823391D1*
X2076864Y2825372D1*
X2084147Y2826306D1*
X2091488Y2826174D1*
X2098733Y2824979D1*
X2105728Y2822746D1*
X2112324Y2819522D1*
X2118384Y2815375D1*
X2123778Y2810393D1*
X2128392Y2804681D1*
X2132130Y2798361D1*
X2134911Y2791565D1*
X2136123Y2787160D1*
X2138690Y2795212D1*
X2142287Y2802272D1*
X2146944Y2808682D1*
X2152547Y2814284D1*
X2158957Y2818941D1*
X2166016Y2822538D1*
X2173551Y2824987D1*
X2181377Y2826226D1*
X2189300D1*
X2197126Y2824987D1*
X2204661Y2822538D1*
X2211721Y2818941D1*
X2218131Y2814284D1*
X2223733Y2808682D1*
X2228390Y2802272D1*
X2231987Y2795212D1*
X2234541Y2787145D1*
X2237115Y2795212D1*
X2240712Y2802272D1*
X2245369Y2808682D1*
X2250972Y2814284D1*
X2257382Y2818941D1*
X2264441Y2822538D1*
X2271977Y2824987D1*
X2279802Y2826226D1*
X2287725D1*
X2295551Y2824987D1*
X2303086Y2822538D1*
X2310146Y2818941D1*
X2316556Y2814284D1*
X2322158Y2808682D1*
X2326815Y2802272D1*
X2330412Y2795212D1*
X2332861Y2787677D1*
X2334100Y2779851D1*
Y2771928D1*
X2332861Y2764103D1*
X2330412Y2756567D1*
X2326815Y2749508D1*
X2322158Y2743098D1*
X2316556Y2737495D1*
X2310146Y2732838D1*
X2303086Y2729241D1*
X2295551Y2726793D1*
X2287725Y2725553D1*
X2279802D1*
X2271977Y2726793D1*
X2264441Y2729241D1*
X2257382Y2732838D1*
X2250972Y2737495D1*
X2245369Y2743098D1*
X2240712Y2749508D1*
X2237115Y2756567D1*
X2234561Y2764634D1*
X2231987Y2756567D1*
X2228390Y2749508D1*
X2223733Y2743098D1*
X2218131Y2737495D1*
X2211721Y2732838D1*
X2204661Y2729241D1*
X2197126Y2726793D1*
X2189300Y2725553D1*
X2181377D1*
X2173551Y2726793D1*
X2166016Y2729241D1*
X2158957Y2732838D1*
X2152547Y2737495D1*
X2146944Y2743098D1*
X2142287Y2749508D1*
X2138690Y2756567D1*
X2136136Y2764634D1*
X2134100Y2757920D1*
X2130994Y2751266D1*
X2126957Y2745133D1*
X2122073Y2739651D1*
X2116445Y2734934D1*
X2110193Y2731084D1*
X2103448Y2728182D1*
X2096354Y2726288D1*
X2089060Y2725443D1*
X2081721Y2725665D1*
X2074492Y2726949D1*
X2067525Y2729269D1*
X2060968Y2732574D1*
X2054960Y2736795D1*
X2049628Y2741842D1*
X2045084Y2747610D1*
X2041425Y2753976D1*
X2038727Y2760805D1*
X2037702Y2764608D1*
X2035137Y2756567D1*
X2031540Y2749508D1*
X2026883Y2743098D1*
X2021280Y2737495D1*
X2014870Y2732838D1*
X2007811Y2729241D1*
X2000275Y2726793D1*
X1992450Y2725553D1*
X1984527D1*
X1976701Y2726793D1*
X1969166Y2729241D1*
X1962106Y2732838D1*
X1955696Y2737495D1*
X1950094Y2743098D1*
X1945437Y2749508D1*
X1941840Y2756567D1*
X1939285Y2764634D1*
X1936712Y2756567D1*
X1933115Y2749508D1*
X1928458Y2743098D1*
X1922855Y2737495D1*
X1916445Y2732838D1*
X1909385Y2729241D1*
X1901850Y2726793D1*
X1894025Y2725553D1*
X1886101D1*
X1878276Y2726793D1*
X1870740Y2729241D1*
X1863681Y2732838D1*
X1857271Y2737495D1*
X1851668Y2743098D1*
X1847011Y2749508D1*
X1843414Y2756567D1*
X1840860Y2764634D1*
X1838286Y2756567D1*
X1834689Y2749508D1*
X1830032Y2743098D1*
X1824430Y2737495D1*
X1818020Y2732838D1*
X1810960Y2729241D1*
X1803425Y2726793D1*
X1795599Y2725553D1*
X1787676D1*
X1779851Y2726793D1*
X1772315Y2729241D1*
X1765256Y2732838D1*
X1758846Y2737495D1*
X1753243Y2743098D1*
X1748586Y2749508D1*
X1744989Y2756567D1*
X1742435Y2764634D1*
X1739861Y2756567D1*
X1736264Y2749508D1*
X1731607Y2743098D1*
X1726005Y2737495D1*
X1719595Y2732838D1*
X1712535Y2729241D1*
X1705000Y2726793D1*
X1697174Y2725553D1*
X1689251D1*
X1681425Y2726793D1*
X1673890Y2729241D1*
X1666831Y2732838D1*
X1660421Y2737495D1*
X1654818Y2743098D1*
X1650161Y2749508D1*
X1646564Y2756567D1*
X1644010Y2764634D1*
X1641436Y2756567D1*
X1637839Y2749508D1*
X1633182Y2743098D1*
X1627773Y2737674D1*
X1631105Y2727169D1*
X1726537Y2631738D1*
X3307386Y2631713D1*
X3312546Y2631307D1*
X3317580Y2630098D1*
X3322362Y2628117D1*
X3326776Y2625413D1*
X3330712Y2622051D1*
X3465016Y2487746D1*
X3472139Y2487164D1*
X3479233Y2485461D1*
X3485973Y2482669D1*
X3492194Y2478857D1*
X3497741Y2474119D1*
X3502479Y2468571D1*
X3506291Y2462351D1*
X3509083Y2455611D1*
X3510786Y2448517D1*
X3511358Y2441244D1*
X3510786Y2433971D1*
X3509083Y2426877D1*
X3506291Y2420137D1*
X3504246Y2416561D1*
X3568610Y2416712D1*
X3561869Y2419504D1*
X3555649Y2423316D1*
X3550101Y2428054D1*
X3545363Y2433602D1*
X3541552Y2439822D1*
X3538760Y2446562D1*
X3537057Y2453656D1*
X3536484Y2460929D1*
X3537057Y2468202D1*
X3538760Y2475296D1*
X3541552Y2482036D1*
X3545363Y2488257D1*
X3550101Y2493804D1*
X3555649Y2498542D1*
X3561869Y2502354D1*
X3568610Y2505146D1*
X3575703Y2506849D1*
X3582976Y2507421D1*
X3590249Y2506849D1*
X3597343Y2505146D1*
X3604083Y2502354D1*
X3610304Y2498542D1*
X3615736Y2493911D1*
X3898793Y2493917D1*
X3895882Y2498877D1*
X3893090Y2505617D1*
X3891387Y2512711D1*
X3890821Y2519828D1*
X3690766Y2719873D1*
X3686009Y2716564D1*
X3679508Y2713252D1*
X3672570Y2710997D1*
X3665364Y2709856D1*
X3658069D1*
X3650863Y2710997D1*
X3643925Y2713252D1*
X3637424Y2716564D1*
X3631522Y2720852D1*
X3626364Y2726011D1*
X3622075Y2731913D1*
X3618763Y2738413D1*
X3616509Y2745351D1*
X3615368Y2752557D1*
Y2759852D1*
X3616509Y2767058D1*
X3618763Y2773996D1*
X3622075Y2780497D1*
X3626364Y2786399D1*
X3631522Y2791558D1*
X3637424Y2795846D1*
X3643925Y2799158D1*
X3650863Y2801412D1*
X3656412Y2802357D1*
X3655167Y2807987D1*
X3654594Y2815260D1*
X3655167Y2822533D1*
X3656870Y2829627D1*
X3659662Y2836367D1*
X3663474Y2842587D1*
X3668212Y2848135D1*
X3673759Y2852873D1*
X3679980Y2856685D1*
X3686720Y2859476D1*
X3693814Y2861180D1*
X3701087Y2861752D1*
X3708360Y2861180D1*
X3716163Y2859215D1*
X3714222Y2867042D1*
X3713650Y2874315D1*
X3714222Y2881588D1*
X3715925Y2888682D1*
X3718717Y2895422D1*
X3722529Y2901642D1*
X3727267Y2907190D1*
X3732814Y2911928D1*
X3735435Y2913679D1*
X3729948Y2917702D1*
X3724789Y2922861D1*
X3720501Y2928763D1*
X3717189Y2935263D1*
X3714934Y2942202D1*
X3713793Y2949407D1*
Y2956703D1*
X3714934Y2963908D1*
X3717189Y2970847D1*
X3720501Y2977347D1*
X3724789Y2983249D1*
X3729948Y2988408D1*
X3735850Y2992696D1*
X3742350Y2996008D1*
X3749288Y2998263D1*
X3756494Y2999404D1*
X3763789D1*
X3770995Y2998263D1*
X3777933Y2996008D1*
X3784434Y2992696D1*
X3790336Y2988408D1*
X3795495Y2983249D1*
X3799506Y2977762D1*
X3803529Y2983249D1*
X3808688Y2988408D1*
X3814590Y2992696D1*
X3821090Y2996008D1*
X3828029Y2998263D1*
X3835234Y2999404D1*
X3842530D1*
X3849735Y2998263D1*
X3856674Y2996008D1*
X3863174Y2992696D1*
X3869076Y2988408D1*
X3874235Y2983249D1*
X3878523Y2977347D1*
X3881835Y2970847D1*
X3884089Y2963908D1*
X3885231Y2956703D1*
X3885368Y2953212D1*
X3957132Y2881457D1*
X3964265Y2880865D1*
X3971359Y2879162D1*
X3978099Y2876370D1*
X3984320Y2872558D1*
X3989867Y2867820D1*
X3994605Y2862272D1*
X3998417Y2856052D1*
X4001209Y2849312D1*
X4002912Y2842218D1*
X4003484Y2834945D1*
X4002912Y2827672D1*
X4001209Y2820578D1*
X3998417Y2813838D1*
X3994605Y2807617D1*
X3989867Y2802070D1*
X3984320Y2797332D1*
X3981699Y2795581D1*
X3987186Y2791558D1*
X3992345Y2786399D1*
X3996633Y2780497D1*
X3999945Y2773996D1*
X4002200Y2767058D1*
X4003341Y2759852D1*
Y2752557D1*
X4002200Y2745351D1*
X3999945Y2738413D1*
X3996633Y2731913D1*
X3992345Y2726011D1*
X3987186Y2720852D1*
X3981699Y2716841D1*
X3987186Y2712817D1*
X3992345Y2707659D1*
X3996633Y2701757D1*
X3999945Y2695256D1*
X4002200Y2688318D1*
X4003341Y2681112D1*
Y2673817D1*
X4002200Y2666611D1*
X3999945Y2659673D1*
X3996633Y2653172D1*
X3992345Y2647270D1*
X3987186Y2642112D1*
X3981284Y2637824D1*
X3974784Y2634511D1*
X3967845Y2632257D1*
X3960640Y2631116D1*
X3953344D1*
X3946139Y2632257D1*
X3939200Y2634511D1*
X3932700Y2637824D1*
X3926798Y2642112D1*
X3921639Y2647270D1*
X3917351Y2653172D1*
X3914039Y2659673D1*
X3911785Y2666611D1*
X3910643Y2673817D1*
X3910506Y2677308D1*
X3759981Y2827823D1*
X3752869Y2828395D1*
X3745066Y2830360D1*
X3747006Y2822533D1*
X3747573Y2815417D1*
X3937478Y2625521D1*
X3944580Y2624959D1*
X3951674Y2623256D1*
X3958414Y2620464D1*
X3964634Y2616652D1*
X3970182Y2611914D1*
X3974920Y2606367D1*
X3978732Y2600146D1*
X3981524Y2593406D1*
X3983227Y2586312D1*
X3983799Y2579039D1*
X3983227Y2571766D1*
X3981524Y2564673D1*
X3978732Y2557932D1*
X3974920Y2551712D1*
X3973198Y2549528D1*
X3976948Y2544276D1*
X3980260Y2537776D1*
X3982515Y2530838D1*
X3983656Y2523632D1*
Y2516337D1*
X3982515Y2509131D1*
X3979932Y2501480D1*
X3984759Y2502518D1*
X3992031Y2503091D1*
X3999304Y2502518D1*
X4006398Y2500815D1*
X4013138Y2498023D1*
X4019359Y2494211D1*
X4024906Y2489473D1*
X4029644Y2483926D1*
X4033456Y2477705D1*
X4036248Y2470965D1*
X4037951Y2463871D1*
X4038524Y2456598D1*
X4037951Y2449325D1*
X4036248Y2442232D1*
X4033456Y2435491D1*
X4029644Y2429271D1*
X4024906Y2423724D1*
X4019359Y2418986D1*
X4015614Y2416560D1*
X4939701Y2416555D1*
X4939703Y2430335D1*
X4948890D1*
X4955014Y2310421D2*
X4939703D1*
Y2324165D1*
X4177159Y2324201D1*
X4172226Y2319277D1*
X4166324Y2314989D1*
X4159823Y2311677D1*
X4152885Y2309422D1*
X4145679Y2308281D1*
X4138384D1*
X4131178Y2309422D1*
X4124240Y2311677D1*
X4117739Y2314989D1*
X4111837Y2319277D1*
X4106901Y2324195D1*
X1833238Y2324201D1*
X1835854Y2317816D1*
X1837558Y2310722D1*
X1837995Y2306883D1*
X4952103Y2306870D1*
X4955080Y2310411D1*
X4966605Y2220411D2*
X4960721Y2224787D1*
X4954069Y2231439D1*
X4952145Y2233880D1*
X4337561Y2233886D1*
X4338380Y2227963D1*
Y2220667D1*
X4337239Y2213462D1*
X4335108Y2206858D1*
X4952121Y2206870D1*
X4957264Y2212774D1*
X4964418Y2218884D1*
X4966605Y2220345D1*
Y2120411D2*
X4960721Y2124787D1*
X4954069Y2131439D1*
X4952145Y2133880D1*
X4219358Y2133886D1*
X4220020Y2126283D1*
X4219447Y2119010D1*
X4217744Y2111917D1*
X4215734Y2106873D1*
X4952068Y2106870D1*
X4957264Y2112774D1*
X4964418Y2118884D1*
X4966605Y2120345D1*
Y2020411D2*
X4960721Y2024787D1*
X4954069Y2031439D1*
X4952145Y2033880D1*
X4180747Y2033886D1*
X4183456Y2029280D1*
X4186248Y2022540D1*
X4187951Y2015446D1*
X4188524Y2008173D1*
X4188473Y2006877D1*
X4952070Y2006870D1*
X4957264Y2012774D1*
X4964418Y2018884D1*
X4966605Y2020345D1*
X603734Y1427468D2*
X604219Y1435493D1*
X605520Y1442722D1*
X607617Y1449762D1*
X610486Y1456524D1*
X614089Y1462924D1*
X618383Y1468884D1*
X623313Y1474329D1*
X628819Y1479190D1*
X634833Y1483408D1*
X641278Y1486931D1*
X648076Y1489714D1*
X655141Y1491722D1*
X662386Y1492932D1*
X669721Y1493327D1*
X677054Y1492903D1*
X684294Y1491665D1*
X691351Y1489628D1*
X698138Y1486818D1*
X704570Y1483270D1*
X710566Y1479028D1*
X716053Y1474145D1*
X720962Y1468681D1*
X725232Y1462704D1*
X728810Y1456290D1*
X731651Y1449516D1*
X733721Y1442468D1*
X734993Y1435234D1*
X735453Y1427465D1*
X735222Y1323534D1*
X734201Y1316260D1*
X732376Y1309145D1*
X729771Y1302278D1*
X726416Y1295743D1*
X722355Y1289622D1*
X717638Y1283992D1*
X712323Y1278922D1*
X706477Y1274475D1*
X700172Y1270707D1*
X693486Y1267665D1*
X686503Y1265386D1*
X679310Y1263898D1*
X671996Y1263221D1*
X664652Y1263363D1*
X657370Y1264321D1*
X650239Y1266084D1*
X643350Y1268630D1*
X636786Y1271928D1*
X630631Y1275936D1*
X624960Y1280605D1*
X619844Y1285875D1*
X615347Y1291683D1*
X611525Y1297956D1*
X608425Y1304615D1*
X606085Y1311577D1*
X604536Y1318757D1*
X603796Y1326065D1*
X603728Y1422740D1*
Y1427403D1*
X738508Y1127351D2*
X728185Y1128161D1*
X718136Y1130574D1*
X708587Y1134529D1*
X699775Y1139929D1*
X691917Y1146641D1*
X685205Y1154500D1*
X679805Y1163312D1*
X675850Y1172860D1*
X673437Y1182909D1*
X672626Y1193213D1*
X673437Y1203516D1*
X675850Y1213565D1*
X679805Y1223113D1*
X685205Y1231925D1*
X691917Y1239784D1*
X699775Y1246496D1*
X708587Y1251896D1*
X718136Y1255851D1*
X728185Y1258264D1*
X738508Y1259074D1*
X842081Y1258872D1*
X852289Y1257255D1*
X862118Y1254061D1*
X871326Y1249369D1*
X879687Y1243295D1*
X886995Y1235987D1*
X893070Y1227626D1*
X897762Y1218417D1*
X900956Y1208588D1*
X902573Y1198380D1*
Y1188045D1*
X900956Y1177837D1*
X897762Y1168008D1*
X893070Y1158800D1*
X886995Y1150439D1*
X879687Y1143131D1*
X871326Y1137056D1*
X862118Y1132364D1*
X852289Y1129170D1*
X842081Y1127553D1*
X818541Y1127350D1*
X738488Y1127386D1*
X1077101Y3491277D2*
X1076492Y3483957D1*
X1075081Y3476749D1*
X1072882Y3469740D1*
X1069924Y3463017D1*
X1066243Y3456660D1*
X1061882Y3450749D1*
X1056897Y3445355D1*
X1051347Y3440544D1*
X1045300Y3436374D1*
X1038830Y3432896D1*
X1032016Y3430154D1*
X1024940Y3428179D1*
X1017691Y3426998D1*
X1010355Y3426623D1*
X1003023Y3427059D1*
X995783Y3428302D1*
X988725Y3430335D1*
X981934Y3433135D1*
X975493Y3436666D1*
X969482Y3440887D1*
X963972Y3445745D1*
X959032Y3451181D1*
X954721Y3457128D1*
X951093Y3463515D1*
X948192Y3470263D1*
X946052Y3477290D1*
X944701Y3484510D1*
X944154Y3491835D1*
X944419Y3499175D1*
X945491Y3506442D1*
X947359Y3513546D1*
X949998Y3520400D1*
X953378Y3526922D1*
X957456Y3533031D1*
X962184Y3538653D1*
X967502Y3543719D1*
X973347Y3548168D1*
X979647Y3551945D1*
X986325Y3555004D1*
X993300Y3557307D1*
X1000487Y3558827D1*
X1007797Y3559546D1*
X1015141Y3559453D1*
X1022431Y3558551D1*
X1029577Y3556851D1*
X1036492Y3554372D1*
X1043091Y3551147D1*
X1049294Y3547212D1*
X1055025Y3542618D1*
X1060214Y3537420D1*
X1064799Y3531681D1*
X1068722Y3525471D1*
X1071937Y3518866D1*
X1074403Y3511947D1*
X1076091Y3504799D1*
X1076981Y3497507D1*
X1077101Y3491277D1*
X1226921Y3487897D2*
X1225289Y3477592D1*
X1222065Y3467669D1*
X1217328Y3458372D1*
X1211195Y3449931D1*
X1203817Y3442553D1*
X1195376Y3436420D1*
X1186079Y3431683D1*
X1176156Y3428459D1*
X1165851Y3426827D1*
X1155417D1*
X1145112Y3428459D1*
X1135188Y3431683D1*
X1125892Y3436420D1*
X1117451Y3442553D1*
X1110073Y3449931D1*
X1103940Y3458372D1*
X1099203Y3467669D1*
X1095979Y3477592D1*
X1094347Y3487897D1*
Y3498331D1*
X1095979Y3508636D1*
X1099203Y3518560D1*
X1103940Y3527856D1*
X1110073Y3536297D1*
X1117451Y3543675D1*
X1125892Y3549808D1*
X1135188Y3554545D1*
X1145112Y3557769D1*
X1155417Y3559401D1*
X1165851D1*
X1176156Y3557769D1*
X1186079Y3554545D1*
X1195376Y3549808D1*
X1203817Y3543675D1*
X1211195Y3536297D1*
X1217328Y3527856D1*
X1222065Y3518560D1*
X1225289Y3508636D1*
X1226921Y3498331D1*
Y3487897D1*
X1564601Y3491277D2*
X1563992Y3483957D1*
X1562581Y3476749D1*
X1560382Y3469740D1*
X1557424Y3463017D1*
X1553743Y3456660D1*
X1549382Y3450749D1*
X1544397Y3445355D1*
X1538847Y3440544D1*
X1532800Y3436374D1*
X1526330Y3432896D1*
X1519516Y3430154D1*
X1512440Y3428179D1*
X1505191Y3426998D1*
X1497855Y3426623D1*
X1490523Y3427059D1*
X1483283Y3428302D1*
X1476225Y3430335D1*
X1469434Y3433135D1*
X1462993Y3436666D1*
X1456982Y3440887D1*
X1451472Y3445745D1*
X1446532Y3451181D1*
X1442221Y3457128D1*
X1438593Y3463515D1*
X1435692Y3470263D1*
X1433552Y3477290D1*
X1432201Y3484510D1*
X1431654Y3491835D1*
X1431919Y3499175D1*
X1432991Y3506442D1*
X1434859Y3513546D1*
X1437498Y3520400D1*
X1440878Y3526922D1*
X1444956Y3533031D1*
X1449684Y3538653D1*
X1455002Y3543719D1*
X1460847Y3548168D1*
X1467147Y3551945D1*
X1473825Y3555004D1*
X1480800Y3557307D1*
X1487987Y3558827D1*
X1495297Y3559546D1*
X1502641Y3559453D1*
X1509931Y3558551D1*
X1517077Y3556851D1*
X1523992Y3554372D1*
X1530591Y3551147D1*
X1536794Y3547212D1*
X1542525Y3542618D1*
X1547714Y3537420D1*
X1552299Y3531681D1*
X1556222Y3525471D1*
X1559437Y3518866D1*
X1561903Y3511947D1*
X1563591Y3504799D1*
X1564481Y3497507D1*
X1564601Y3491277D1*
X1714421Y3487897D2*
X1712789Y3477592D1*
X1709565Y3467669D1*
X1704828Y3458372D1*
X1698695Y3449931D1*
X1691317Y3442553D1*
X1682876Y3436420D1*
X1673579Y3431683D1*
X1663656Y3428459D1*
X1653351Y3426827D1*
X1642917D1*
X1632612Y3428459D1*
X1622688Y3431683D1*
X1613392Y3436420D1*
X1604951Y3442553D1*
X1597573Y3449931D1*
X1591440Y3458372D1*
X1586703Y3467669D1*
X1583479Y3477592D1*
X1581847Y3487897D1*
Y3498331D1*
X1583479Y3508636D1*
X1586703Y3518560D1*
X1591440Y3527856D1*
X1597573Y3536297D1*
X1604951Y3543675D1*
X1613392Y3549808D1*
X1622688Y3554545D1*
X1632612Y3557769D1*
X1642917Y3559401D1*
X1653351D1*
X1663656Y3557769D1*
X1673579Y3554545D1*
X1682876Y3549808D1*
X1691317Y3543675D1*
X1698695Y3536297D1*
X1704828Y3527856D1*
X1709565Y3518560D1*
X1712789Y3508636D1*
X1714421Y3498331D1*
Y3487897D1*
X2054207Y3491297D2*
X2053599Y3483977D1*
X2052187Y3476768D1*
X2049988Y3469760D1*
X2047030Y3463036D1*
X2043349Y3456680D1*
X2038989Y3450769D1*
X2034003Y3445375D1*
X2028453Y3440563D1*
X2022406Y3436393D1*
X2015936Y3432916D1*
X2009122Y3430173D1*
X2002047Y3428199D1*
X1994797Y3427017D1*
X1987461Y3426642D1*
X1980129Y3427079D1*
X1972889Y3428321D1*
X1965831Y3430355D1*
X1959040Y3433154D1*
X1952600Y3436686D1*
X1946588Y3440907D1*
X1941078Y3445764D1*
X1936138Y3451200D1*
X1931828Y3457148D1*
X1928200Y3463535D1*
X1925298Y3470283D1*
X1923159Y3477309D1*
X1921807Y3484529D1*
X1921260Y3491854D1*
X1921525Y3499195D1*
X1922597Y3506461D1*
X1924465Y3513565D1*
X1927105Y3520420D1*
X1930484Y3526942D1*
X1934563Y3533051D1*
X1939290Y3538673D1*
X1944609Y3543739D1*
X1950454Y3548188D1*
X1956754Y3551964D1*
X1963432Y3555023D1*
X1970407Y3557327D1*
X1977593Y3558847D1*
X1984903Y3559565D1*
X1992248Y3559473D1*
X1999537Y3558571D1*
X2006683Y3556871D1*
X2013598Y3554392D1*
X2020197Y3551166D1*
X2026400Y3547232D1*
X2032131Y3542638D1*
X2037321Y3537439D1*
X2041905Y3531700D1*
X2045828Y3525491D1*
X2049043Y3518886D1*
X2051509Y3511967D1*
X2053198Y3504818D1*
X2054087Y3497527D1*
X2054207Y3491297D1*
X2204027Y3487917D2*
X2202395Y3477612D1*
X2199171Y3467688D1*
X2194434Y3458392D1*
X2188301Y3449951D1*
X2180923Y3442573D1*
X2172482Y3436440D1*
X2163186Y3431703D1*
X2153262Y3428479D1*
X2142957Y3426847D1*
X2132523D1*
X2122218Y3428479D1*
X2112295Y3431703D1*
X2102998Y3436440D1*
X2094557Y3442573D1*
X2087179Y3449951D1*
X2081046Y3458392D1*
X2076309Y3467688D1*
X2073085Y3477612D1*
X2071453Y3487917D1*
Y3498351D1*
X2073085Y3508656D1*
X2076309Y3518579D1*
X2081046Y3527876D1*
X2087179Y3536317D1*
X2094557Y3543695D1*
X2102998Y3549828D1*
X2112295Y3554565D1*
X2122218Y3557789D1*
X2132523Y3559421D1*
X2142957D1*
X2153262Y3557789D1*
X2163186Y3554565D1*
X2172482Y3549828D1*
X2180923Y3543695D1*
X2188301Y3536317D1*
X2194434Y3527876D1*
X2199171Y3518579D1*
X2202395Y3508656D1*
X2204027Y3498351D1*
Y3487917D1*
X2539601Y3491297D2*
X2538992Y3483977D1*
X2537581Y3476768D1*
X2535382Y3469760D1*
X2532424Y3463036D1*
X2528743Y3456680D1*
X2524382Y3450769D1*
X2519397Y3445375D1*
X2513847Y3440563D1*
X2507800Y3436393D1*
X2501330Y3432916D1*
X2494516Y3430173D1*
X2487440Y3428199D1*
X2480191Y3427017D1*
X2472855Y3426642D1*
X2465523Y3427079D1*
X2458283Y3428321D1*
X2451225Y3430355D1*
X2444434Y3433154D1*
X2437993Y3436686D1*
X2431982Y3440907D1*
X2426472Y3445764D1*
X2421532Y3451200D1*
X2417221Y3457148D1*
X2413593Y3463535D1*
X2410692Y3470283D1*
X2408552Y3477309D1*
X2407201Y3484529D1*
X2406654Y3491854D1*
X2406919Y3499195D1*
X2407991Y3506461D1*
X2409859Y3513565D1*
X2412498Y3520420D1*
X2415878Y3526942D1*
X2419956Y3533051D1*
X2424684Y3538673D1*
X2430002Y3543739D1*
X2435847Y3548188D1*
X2442147Y3551964D1*
X2448825Y3555023D1*
X2455800Y3557327D1*
X2462987Y3558847D1*
X2470297Y3559565D1*
X2477641Y3559473D1*
X2484931Y3558571D1*
X2492077Y3556871D1*
X2498992Y3554392D1*
X2505591Y3551166D1*
X2511794Y3547232D1*
X2517525Y3542638D1*
X2522714Y3537439D1*
X2527299Y3531700D1*
X2531222Y3525491D1*
X2534437Y3518886D1*
X2536903Y3511967D1*
X2538591Y3504818D1*
X2539481Y3497527D1*
X2539601Y3491297D1*
X2689421Y3487917D2*
X2687789Y3477612D1*
X2684565Y3467688D1*
X2679828Y3458392D1*
X2673695Y3449951D1*
X2666317Y3442573D1*
X2657876Y3436440D1*
X2648579Y3431703D1*
X2638656Y3428479D1*
X2628351Y3426847D1*
X2617917D1*
X2607612Y3428479D1*
X2597688Y3431703D1*
X2588392Y3436440D1*
X2579951Y3442573D1*
X2572573Y3449951D1*
X2566440Y3458392D1*
X2561703Y3467688D1*
X2558479Y3477612D1*
X2556847Y3487917D1*
Y3498351D1*
X2558479Y3508656D1*
X2561703Y3518579D1*
X2566440Y3527876D1*
X2572573Y3536317D1*
X2579951Y3543695D1*
X2588392Y3549828D1*
X2597688Y3554565D1*
X2607612Y3557789D1*
X2617917Y3559421D1*
X2628351D1*
X2638656Y3557789D1*
X2648579Y3554565D1*
X2657876Y3549828D1*
X2666317Y3543695D1*
X2673695Y3536317D1*
X2679828Y3527876D1*
X2684565Y3518579D1*
X2687789Y3508656D1*
X2689421Y3498351D1*
Y3487917D1*
X3027101Y3491297D2*
X3026492Y3483977D1*
X3025081Y3476768D1*
X3022882Y3469760D1*
X3019924Y3463036D1*
X3016243Y3456680D1*
X3011882Y3450769D1*
X3006897Y3445375D1*
X3001347Y3440563D1*
X2995300Y3436393D1*
X2988830Y3432916D1*
X2982016Y3430173D1*
X2974940Y3428199D1*
X2967691Y3427017D1*
X2960355Y3426642D1*
X2953023Y3427079D1*
X2945783Y3428321D1*
X2938725Y3430355D1*
X2931934Y3433154D1*
X2925493Y3436686D1*
X2919482Y3440907D1*
X2913972Y3445764D1*
X2909032Y3451200D1*
X2904721Y3457148D1*
X2901093Y3463535D1*
X2898192Y3470283D1*
X2896052Y3477309D1*
X2894701Y3484529D1*
X2894154Y3491854D1*
X2894419Y3499195D1*
X2895491Y3506461D1*
X2897359Y3513565D1*
X2899998Y3520420D1*
X2903378Y3526942D1*
X2907456Y3533051D1*
X2912184Y3538673D1*
X2917502Y3543739D1*
X2923347Y3548188D1*
X2929647Y3551964D1*
X2936325Y3555023D1*
X2943300Y3557327D1*
X2950487Y3558847D1*
X2957797Y3559565D1*
X2965141Y3559473D1*
X2972431Y3558571D1*
X2979577Y3556871D1*
X2986492Y3554392D1*
X2993091Y3551166D1*
X2999294Y3547232D1*
X3005025Y3542638D1*
X3010214Y3537439D1*
X3014799Y3531700D1*
X3018722Y3525491D1*
X3021937Y3518886D1*
X3024403Y3511967D1*
X3026091Y3504818D1*
X3026981Y3497527D1*
X3027101Y3491297D1*
X3176921Y3487917D2*
X3175289Y3477612D1*
X3172065Y3467688D1*
X3167328Y3458392D1*
X3161195Y3449951D1*
X3153817Y3442573D1*
X3145376Y3436440D1*
X3136079Y3431703D1*
X3126156Y3428479D1*
X3115851Y3426847D1*
X3105417D1*
X3095112Y3428479D1*
X3085188Y3431703D1*
X3075892Y3436440D1*
X3067451Y3442573D1*
X3060073Y3449951D1*
X3053940Y3458392D1*
X3049203Y3467688D1*
X3045979Y3477612D1*
X3044347Y3487917D1*
Y3498351D1*
X3045979Y3508656D1*
X3049203Y3518579D1*
X3053940Y3527876D1*
X3060073Y3536317D1*
X3067451Y3543695D1*
X3075892Y3549828D1*
X3085188Y3554565D1*
X3095112Y3557789D1*
X3105417Y3559421D1*
X3115851D1*
X3126156Y3557789D1*
X3136079Y3554565D1*
X3145376Y3549828D1*
X3153817Y3543695D1*
X3161195Y3536317D1*
X3167328Y3527876D1*
X3172065Y3518579D1*
X3175289Y3508656D1*
X3176921Y3498351D1*
Y3487917D1*
X3514601Y3491297D2*
X3513992Y3483977D1*
X3512581Y3476768D1*
X3510382Y3469760D1*
X3507424Y3463036D1*
X3503743Y3456680D1*
X3499382Y3450769D1*
X3494397Y3445375D1*
X3488847Y3440563D1*
X3482800Y3436393D1*
X3476330Y3432916D1*
X3469516Y3430173D1*
X3462440Y3428199D1*
X3455191Y3427017D1*
X3447855Y3426642D1*
X3440523Y3427079D1*
X3433283Y3428321D1*
X3426225Y3430355D1*
X3419434Y3433154D1*
X3412993Y3436686D1*
X3406982Y3440907D1*
X3401472Y3445764D1*
X3396532Y3451200D1*
X3392221Y3457148D1*
X3388593Y3463535D1*
X3385692Y3470283D1*
X3383552Y3477309D1*
X3382201Y3484529D1*
X3381654Y3491854D1*
X3381919Y3499195D1*
X3382991Y3506461D1*
X3384859Y3513565D1*
X3387498Y3520420D1*
X3390878Y3526942D1*
X3394956Y3533051D1*
X3399684Y3538673D1*
X3405002Y3543739D1*
X3410847Y3548188D1*
X3417147Y3551964D1*
X3423825Y3555023D1*
X3430800Y3557327D1*
X3437987Y3558847D1*
X3445297Y3559565D1*
X3452641Y3559473D1*
X3459931Y3558571D1*
X3467077Y3556871D1*
X3473992Y3554392D1*
X3480591Y3551166D1*
X3486794Y3547232D1*
X3492525Y3542638D1*
X3497714Y3537439D1*
X3502299Y3531700D1*
X3506222Y3525491D1*
X3509437Y3518886D1*
X3511903Y3511967D1*
X3513591Y3504818D1*
X3514481Y3497527D1*
X3514601Y3491297D1*
X3664421Y3487917D2*
X3662789Y3477612D1*
X3659565Y3467688D1*
X3654828Y3458392D1*
X3648695Y3449951D1*
X3641317Y3442573D1*
X3632876Y3436440D1*
X3623579Y3431703D1*
X3613656Y3428479D1*
X3603351Y3426847D1*
X3592917D1*
X3582612Y3428479D1*
X3572688Y3431703D1*
X3563392Y3436440D1*
X3554951Y3442573D1*
X3547573Y3449951D1*
X3541440Y3458392D1*
X3536703Y3467688D1*
X3533479Y3477612D1*
X3531847Y3487917D1*
Y3498351D1*
X3533479Y3508656D1*
X3536703Y3518579D1*
X3541440Y3527876D1*
X3547573Y3536317D1*
X3554951Y3543695D1*
X3563392Y3549828D1*
X3572688Y3554565D1*
X3582612Y3557789D1*
X3592917Y3559421D1*
X3603351D1*
X3613656Y3557789D1*
X3623579Y3554565D1*
X3632876Y3549828D1*
X3641317Y3543695D1*
X3648695Y3536317D1*
X3654828Y3527876D1*
X3659565Y3518579D1*
X3662789Y3508656D1*
X3664421Y3498351D1*
Y3487917D1*
X4002101Y3491297D2*
X4001492Y3483977D1*
X4000081Y3476768D1*
X3997882Y3469760D1*
X3994924Y3463036D1*
X3991243Y3456680D1*
X3986882Y3450769D1*
X3981897Y3445375D1*
X3976347Y3440563D1*
X3970300Y3436393D1*
X3963830Y3432916D1*
X3957016Y3430173D1*
X3949940Y3428199D1*
X3942691Y3427017D1*
X3935355Y3426642D1*
X3928023Y3427079D1*
X3920783Y3428321D1*
X3913725Y3430355D1*
X3906934Y3433154D1*
X3900493Y3436686D1*
X3894482Y3440907D1*
X3888972Y3445764D1*
X3884032Y3451200D1*
X3879721Y3457148D1*
X3876093Y3463535D1*
X3873192Y3470283D1*
X3871052Y3477309D1*
X3869701Y3484529D1*
X3869154Y3491854D1*
X3869419Y3499195D1*
X3870491Y3506461D1*
X3872359Y3513565D1*
X3874998Y3520420D1*
X3878378Y3526942D1*
X3882456Y3533051D1*
X3887184Y3538673D1*
X3892502Y3543739D1*
X3898347Y3548188D1*
X3904647Y3551964D1*
X3911325Y3555023D1*
X3918300Y3557327D1*
X3925487Y3558847D1*
X3932797Y3559565D1*
X3940141Y3559473D1*
X3947431Y3558571D1*
X3954577Y3556871D1*
X3961492Y3554392D1*
X3968091Y3551166D1*
X3974294Y3547232D1*
X3980025Y3542638D1*
X3985214Y3537439D1*
X3989799Y3531700D1*
X3993722Y3525491D1*
X3996937Y3518886D1*
X3999403Y3511967D1*
X4001091Y3504818D1*
X4001981Y3497527D1*
X4002101Y3491297D1*
X4151921Y3487917D2*
X4150289Y3477612D1*
X4147065Y3467688D1*
X4142328Y3458392D1*
X4136195Y3449951D1*
X4128817Y3442573D1*
X4120376Y3436440D1*
X4111079Y3431703D1*
X4101156Y3428479D1*
X4090851Y3426847D1*
X4080417D1*
X4070112Y3428479D1*
X4060188Y3431703D1*
X4050892Y3436440D1*
X4042451Y3442573D1*
X4035073Y3449951D1*
X4028940Y3458392D1*
X4024203Y3467688D1*
X4020979Y3477612D1*
X4019347Y3487917D1*
Y3498351D1*
X4020979Y3508656D1*
X4024203Y3518579D1*
X4028940Y3527876D1*
X4035073Y3536317D1*
X4042451Y3543695D1*
X4050892Y3549828D1*
X4060188Y3554565D1*
X4070112Y3557789D1*
X4080417Y3559421D1*
X4090851D1*
X4101156Y3557789D1*
X4111079Y3554565D1*
X4120376Y3549828D1*
X4128817Y3543695D1*
X4136195Y3536317D1*
X4142328Y3527876D1*
X4147065Y3518579D1*
X4150289Y3508656D1*
X4151921Y3498351D1*
Y3487917D1*
X4489601Y3491297D2*
X4488992Y3483977D1*
X4487581Y3476768D1*
X4485382Y3469760D1*
X4482424Y3463036D1*
X4478743Y3456680D1*
X4474382Y3450769D1*
X4469397Y3445375D1*
X4463847Y3440563D1*
X4457800Y3436393D1*
X4451330Y3432916D1*
X4444516Y3430173D1*
X4437440Y3428199D1*
X4430191Y3427017D1*
X4422855Y3426642D1*
X4415523Y3427079D1*
X4408283Y3428321D1*
X4401225Y3430355D1*
X4394434Y3433154D1*
X4387993Y3436686D1*
X4381982Y3440907D1*
X4376472Y3445764D1*
X4371532Y3451200D1*
X4367221Y3457148D1*
X4363593Y3463535D1*
X4360692Y3470283D1*
X4358552Y3477309D1*
X4357201Y3484529D1*
X4356654Y3491854D1*
X4356919Y3499195D1*
X4357991Y3506461D1*
X4359859Y3513565D1*
X4362498Y3520420D1*
X4365878Y3526942D1*
X4369956Y3533051D1*
X4374684Y3538673D1*
X4380002Y3543739D1*
X4385847Y3548188D1*
X4392147Y3551964D1*
X4398825Y3555023D1*
X4405800Y3557327D1*
X4412987Y3558847D1*
X4420297Y3559565D1*
X4427641Y3559473D1*
X4434931Y3558571D1*
X4442077Y3556871D1*
X4448992Y3554392D1*
X4455591Y3551166D1*
X4461794Y3547232D1*
X4467525Y3542638D1*
X4472714Y3537439D1*
X4477299Y3531700D1*
X4481222Y3525491D1*
X4484437Y3518886D1*
X4486903Y3511967D1*
X4488591Y3504818D1*
X4489481Y3497527D1*
X4489601Y3491297D1*
X4639421Y3487917D2*
X4637789Y3477612D1*
X4634565Y3467688D1*
X4629828Y3458392D1*
X4623695Y3449951D1*
X4616317Y3442573D1*
X4607876Y3436440D1*
X4598579Y3431703D1*
X4588656Y3428479D1*
X4578351Y3426847D1*
X4567917D1*
X4557612Y3428479D1*
X4547688Y3431703D1*
X4538392Y3436440D1*
X4529951Y3442573D1*
X4522573Y3449951D1*
X4516440Y3458392D1*
X4511703Y3467688D1*
X4508479Y3477612D1*
X4506847Y3487917D1*
Y3498351D1*
X4508479Y3508656D1*
X4511703Y3518579D1*
X4516440Y3527876D1*
X4522573Y3536317D1*
X4529951Y3543695D1*
X4538392Y3549828D1*
X4547688Y3554565D1*
X4557612Y3557789D1*
X4567917Y3559421D1*
X4578351D1*
X4588656Y3557789D1*
X4598579Y3554565D1*
X4607876Y3549828D1*
X4616317Y3543695D1*
X4623695Y3536317D1*
X4629828Y3527876D1*
X4634565Y3518579D1*
X4637789Y3508656D1*
X4639421Y3498351D1*
Y3487917D1*
X1227081Y679643D2*
X1226473Y672323D1*
X1225061Y665115D1*
X1222862Y658106D1*
X1219904Y651383D1*
X1216223Y645027D1*
X1211863Y639115D1*
X1206877Y633721D1*
X1201327Y628910D1*
X1195280Y624740D1*
X1188810Y621262D1*
X1181996Y618520D1*
X1174921Y616546D1*
X1167671Y615364D1*
X1160335Y614989D1*
X1153003Y615425D1*
X1145764Y616668D1*
X1138705Y618701D1*
X1131914Y621501D1*
X1125474Y625033D1*
X1119462Y629253D1*
X1113952Y634111D1*
X1109012Y639547D1*
X1104702Y645494D1*
X1101074Y651881D1*
X1098172Y658629D1*
X1096033Y665656D1*
X1094681Y672876D1*
X1094134Y680201D1*
X1094399Y687541D1*
X1095471Y694808D1*
X1097339Y701912D1*
X1099979Y708767D1*
X1103358Y715288D1*
X1107437Y721397D1*
X1112164Y727019D1*
X1117483Y732085D1*
X1123328Y736534D1*
X1129628Y740311D1*
X1136306Y743370D1*
X1143281Y745673D1*
X1150467Y747194D1*
X1157777Y747912D1*
X1165122Y747819D1*
X1172411Y746918D1*
X1179557Y745217D1*
X1186472Y742739D1*
X1193071Y739513D1*
X1199274Y735579D1*
X1205005Y730984D1*
X1210195Y725786D1*
X1214779Y720047D1*
X1218702Y713837D1*
X1221917Y707233D1*
X1224383Y700314D1*
X1226072Y693165D1*
X1226961Y685874D1*
X1227081Y679643D1*
X1076901Y676263D2*
X1075269Y665958D1*
X1072045Y656035D1*
X1067308Y646738D1*
X1061175Y638297D1*
X1053797Y630919D1*
X1045356Y624786D1*
X1036060Y620050D1*
X1026136Y616825D1*
X1015831Y615193D1*
X1005397D1*
X995092Y616825D1*
X985169Y620050D1*
X975872Y624786D1*
X967431Y630919D1*
X960053Y638297D1*
X953920Y646738D1*
X949183Y656035D1*
X945959Y665958D1*
X944327Y676263D1*
Y686697D1*
X945959Y697003D1*
X949183Y706926D1*
X953920Y716222D1*
X960053Y724663D1*
X967431Y732041D1*
X975872Y738174D1*
X985169Y742911D1*
X995092Y746135D1*
X1005397Y747767D1*
X1015831D1*
X1026136Y746135D1*
X1036060Y742911D1*
X1045356Y738174D1*
X1053797Y732041D1*
X1061175Y724663D1*
X1067308Y716222D1*
X1072045Y706926D1*
X1075269Y697003D1*
X1076901Y686697D1*
Y676263D1*
X1714601Y679643D2*
X1713992Y672323D1*
X1712581Y665115D1*
X1710382Y658106D1*
X1707424Y651383D1*
X1703743Y645027D1*
X1699382Y639115D1*
X1694397Y633721D1*
X1688847Y628910D1*
X1682800Y624740D1*
X1676330Y621262D1*
X1669516Y618520D1*
X1662440Y616546D1*
X1655191Y615364D1*
X1647855Y614989D1*
X1640523Y615425D1*
X1633283Y616668D1*
X1626225Y618701D1*
X1619434Y621501D1*
X1612993Y625033D1*
X1606982Y629253D1*
X1601472Y634111D1*
X1596532Y639547D1*
X1592221Y645494D1*
X1588593Y651881D1*
X1585692Y658629D1*
X1583552Y665656D1*
X1582201Y672876D1*
X1581654Y680201D1*
X1581919Y687541D1*
X1582991Y694808D1*
X1584859Y701912D1*
X1587498Y708767D1*
X1590878Y715288D1*
X1594956Y721397D1*
X1599684Y727019D1*
X1605002Y732085D1*
X1610847Y736534D1*
X1617147Y740311D1*
X1623825Y743370D1*
X1630800Y745673D1*
X1637987Y747194D1*
X1645297Y747912D1*
X1652641Y747819D1*
X1659931Y746918D1*
X1667077Y745217D1*
X1673992Y742739D1*
X1680591Y739513D1*
X1686794Y735579D1*
X1692525Y730984D1*
X1697714Y725786D1*
X1702299Y720047D1*
X1706222Y713837D1*
X1709437Y707233D1*
X1711903Y700314D1*
X1713591Y693165D1*
X1714481Y685874D1*
X1714601Y679643D1*
X1564421Y676263D2*
X1562789Y665958D1*
X1559565Y656035D1*
X1554828Y646738D1*
X1548695Y638297D1*
X1541317Y630919D1*
X1532876Y624786D1*
X1523579Y620050D1*
X1513656Y616825D1*
X1503351Y615193D1*
X1492917D1*
X1482612Y616825D1*
X1472688Y620050D1*
X1463392Y624786D1*
X1454951Y630919D1*
X1447573Y638297D1*
X1441440Y646738D1*
X1436703Y656035D1*
X1433479Y665958D1*
X1431847Y676263D1*
Y686697D1*
X1433479Y697003D1*
X1436703Y706926D1*
X1441440Y716222D1*
X1447573Y724663D1*
X1454951Y732041D1*
X1463392Y738174D1*
X1472688Y742911D1*
X1482612Y746135D1*
X1492917Y747767D1*
X1503351D1*
X1513656Y746135D1*
X1523579Y742911D1*
X1532876Y738174D1*
X1541317Y732041D1*
X1548695Y724663D1*
X1554828Y716222D1*
X1559565Y706926D1*
X1562789Y697003D1*
X1564421Y686697D1*
Y676263D1*
X2204207Y679643D2*
X2203599Y672323D1*
X2202187Y665115D1*
X2199988Y658106D1*
X2197030Y651383D1*
X2193349Y645027D1*
X2188989Y639115D1*
X2184003Y633721D1*
X2178453Y628910D1*
X2172406Y624740D1*
X2165936Y621262D1*
X2159122Y618520D1*
X2152047Y616546D1*
X2144797Y615364D1*
X2137461Y614989D1*
X2130129Y615425D1*
X2122889Y616668D1*
X2115831Y618701D1*
X2109040Y621501D1*
X2102600Y625033D1*
X2096588Y629253D1*
X2091078Y634111D1*
X2086138Y639547D1*
X2081828Y645494D1*
X2078200Y651881D1*
X2075298Y658629D1*
X2073159Y665656D1*
X2071807Y672876D1*
X2071260Y680201D1*
X2071525Y687541D1*
X2072597Y694808D1*
X2074465Y701912D1*
X2077105Y708767D1*
X2080484Y715288D1*
X2084563Y721397D1*
X2089290Y727019D1*
X2094609Y732085D1*
X2100454Y736534D1*
X2106754Y740311D1*
X2113432Y743370D1*
X2120407Y745673D1*
X2127593Y747194D1*
X2134903Y747912D1*
X2142248Y747819D1*
X2149537Y746918D1*
X2156683Y745217D1*
X2163598Y742739D1*
X2170197Y739513D1*
X2176400Y735579D1*
X2182131Y730984D1*
X2187321Y725786D1*
X2191905Y720047D1*
X2195828Y713837D1*
X2199043Y707233D1*
X2201509Y700314D1*
X2203198Y693165D1*
X2204087Y685874D1*
X2204207Y679643D1*
X2054027Y676263D2*
X2052395Y665958D1*
X2049171Y656035D1*
X2044434Y646738D1*
X2038301Y638297D1*
X2030923Y630919D1*
X2022482Y624786D1*
X2013186Y620050D1*
X2003262Y616825D1*
X1992957Y615193D1*
X1982523D1*
X1972218Y616825D1*
X1962295Y620050D1*
X1952998Y624786D1*
X1944557Y630919D1*
X1937179Y638297D1*
X1931046Y646738D1*
X1926309Y656035D1*
X1923085Y665958D1*
X1921453Y676263D1*
Y686697D1*
X1923085Y697003D1*
X1926309Y706926D1*
X1931046Y716222D1*
X1937179Y724663D1*
X1944557Y732041D1*
X1952998Y738174D1*
X1962295Y742911D1*
X1972218Y746135D1*
X1982523Y747767D1*
X1992957D1*
X2003262Y746135D1*
X2013186Y742911D1*
X2022482Y738174D1*
X2030923Y732041D1*
X2038301Y724663D1*
X2044434Y716222D1*
X2049171Y706926D1*
X2052395Y697003D1*
X2054027Y686697D1*
Y676263D1*
X2689601Y679643D2*
X2688992Y672323D1*
X2687581Y665115D1*
X2685382Y658106D1*
X2682424Y651383D1*
X2678743Y645027D1*
X2674382Y639115D1*
X2669397Y633721D1*
X2663847Y628910D1*
X2657800Y624740D1*
X2651330Y621262D1*
X2644516Y618520D1*
X2637440Y616546D1*
X2630191Y615364D1*
X2622855Y614989D1*
X2615523Y615425D1*
X2608283Y616668D1*
X2601225Y618701D1*
X2594434Y621501D1*
X2587993Y625033D1*
X2581982Y629253D1*
X2576472Y634111D1*
X2571532Y639547D1*
X2567221Y645494D1*
X2563593Y651881D1*
X2560692Y658629D1*
X2558552Y665656D1*
X2557201Y672876D1*
X2556654Y680201D1*
X2556919Y687541D1*
X2557991Y694808D1*
X2559859Y701912D1*
X2562498Y708767D1*
X2565878Y715288D1*
X2569956Y721397D1*
X2574684Y727019D1*
X2580002Y732085D1*
X2585847Y736534D1*
X2592147Y740311D1*
X2598825Y743370D1*
X2605800Y745673D1*
X2612987Y747194D1*
X2620297Y747912D1*
X2627641Y747819D1*
X2634931Y746918D1*
X2642077Y745217D1*
X2648992Y742739D1*
X2655591Y739513D1*
X2661794Y735579D1*
X2667525Y730984D1*
X2672714Y725786D1*
X2677299Y720047D1*
X2681222Y713837D1*
X2684437Y707233D1*
X2686903Y700314D1*
X2688591Y693165D1*
X2689481Y685874D1*
X2689601Y679643D1*
X2539421Y676263D2*
X2537789Y665958D1*
X2534565Y656035D1*
X2529828Y646738D1*
X2523695Y638297D1*
X2516317Y630919D1*
X2507876Y624786D1*
X2498579Y620050D1*
X2488656Y616825D1*
X2478351Y615193D1*
X2467917D1*
X2457612Y616825D1*
X2447688Y620050D1*
X2438392Y624786D1*
X2429951Y630919D1*
X2422573Y638297D1*
X2416440Y646738D1*
X2411703Y656035D1*
X2408479Y665958D1*
X2406847Y676263D1*
Y686697D1*
X2408479Y697003D1*
X2411703Y706926D1*
X2416440Y716222D1*
X2422573Y724663D1*
X2429951Y732041D1*
X2438392Y738174D1*
X2447688Y742911D1*
X2457612Y746135D1*
X2467917Y747767D1*
X2478351D1*
X2488656Y746135D1*
X2498579Y742911D1*
X2507876Y738174D1*
X2516317Y732041D1*
X2523695Y724663D1*
X2529828Y716222D1*
X2534565Y706926D1*
X2537789Y697003D1*
X2539421Y686697D1*
Y676263D1*
X3177081Y679643D2*
X3176473Y672323D1*
X3175061Y665115D1*
X3172862Y658106D1*
X3169904Y651383D1*
X3166223Y645027D1*
X3161863Y639115D1*
X3156877Y633721D1*
X3151327Y628910D1*
X3145280Y624740D1*
X3138810Y621262D1*
X3131996Y618520D1*
X3124921Y616546D1*
X3117671Y615364D1*
X3110335Y614989D1*
X3103003Y615425D1*
X3095764Y616668D1*
X3088705Y618701D1*
X3081914Y621501D1*
X3075474Y625033D1*
X3069462Y629253D1*
X3063952Y634111D1*
X3059012Y639547D1*
X3054702Y645494D1*
X3051074Y651881D1*
X3048172Y658629D1*
X3046033Y665656D1*
X3044681Y672876D1*
X3044134Y680201D1*
X3044399Y687541D1*
X3045471Y694808D1*
X3047339Y701912D1*
X3049979Y708767D1*
X3053358Y715288D1*
X3057437Y721397D1*
X3062164Y727019D1*
X3067483Y732085D1*
X3073328Y736534D1*
X3079628Y740311D1*
X3086306Y743370D1*
X3093281Y745673D1*
X3100467Y747194D1*
X3107777Y747912D1*
X3115122Y747819D1*
X3122411Y746918D1*
X3129557Y745217D1*
X3136472Y742739D1*
X3143071Y739513D1*
X3149274Y735579D1*
X3155005Y730984D1*
X3160195Y725786D1*
X3164779Y720047D1*
X3168702Y713837D1*
X3171917Y707233D1*
X3174383Y700314D1*
X3176072Y693165D1*
X3176961Y685874D1*
X3177081Y679643D1*
X3026901Y676263D2*
X3025269Y665958D1*
X3022045Y656035D1*
X3017308Y646738D1*
X3011175Y638297D1*
X3003797Y630919D1*
X2995356Y624786D1*
X2986060Y620050D1*
X2976136Y616825D1*
X2965831Y615193D1*
X2955397D1*
X2945092Y616825D1*
X2935169Y620050D1*
X2925872Y624786D1*
X2917431Y630919D1*
X2910053Y638297D1*
X2903920Y646738D1*
X2899183Y656035D1*
X2895959Y665958D1*
X2894327Y676263D1*
Y686697D1*
X2895959Y697003D1*
X2899183Y706926D1*
X2903920Y716222D1*
X2910053Y724663D1*
X2917431Y732041D1*
X2925872Y738174D1*
X2935169Y742911D1*
X2945092Y746135D1*
X2955397Y747767D1*
X2965831D1*
X2976136Y746135D1*
X2986060Y742911D1*
X2995356Y738174D1*
X3003797Y732041D1*
X3011175Y724663D1*
X3017308Y716222D1*
X3022045Y706926D1*
X3025269Y697003D1*
X3026901Y686697D1*
Y676263D1*
X3664601Y679643D2*
X3663992Y672323D1*
X3662581Y665115D1*
X3660382Y658106D1*
X3657424Y651383D1*
X3653743Y645027D1*
X3649382Y639115D1*
X3644397Y633721D1*
X3638847Y628910D1*
X3632800Y624740D1*
X3626330Y621262D1*
X3619516Y618520D1*
X3612440Y616546D1*
X3605191Y615364D1*
X3597855Y614989D1*
X3590523Y615425D1*
X3583283Y616668D1*
X3576225Y618701D1*
X3569434Y621501D1*
X3562993Y625033D1*
X3556982Y629253D1*
X3551472Y634111D1*
X3546532Y639547D1*
X3542221Y645494D1*
X3538593Y651881D1*
X3535692Y658629D1*
X3533552Y665656D1*
X3532201Y672876D1*
X3531654Y680201D1*
X3531919Y687541D1*
X3532991Y694808D1*
X3534859Y701912D1*
X3537498Y708767D1*
X3540878Y715288D1*
X3544956Y721397D1*
X3549684Y727019D1*
X3555002Y732085D1*
X3560847Y736534D1*
X3567147Y740311D1*
X3573825Y743370D1*
X3580800Y745673D1*
X3587987Y747194D1*
X3595297Y747912D1*
X3602641Y747819D1*
X3609931Y746918D1*
X3617077Y745217D1*
X3623992Y742739D1*
X3630591Y739513D1*
X3636794Y735579D1*
X3642525Y730984D1*
X3647714Y725786D1*
X3652299Y720047D1*
X3656222Y713837D1*
X3659437Y707233D1*
X3661903Y700314D1*
X3663591Y693165D1*
X3664481Y685874D1*
X3664601Y679643D1*
X3514421Y676263D2*
X3512789Y665958D1*
X3509565Y656035D1*
X3504828Y646738D1*
X3498695Y638297D1*
X3491317Y630919D1*
X3482876Y624786D1*
X3473579Y620050D1*
X3463656Y616825D1*
X3453351Y615193D1*
X3442917D1*
X3432612Y616825D1*
X3422688Y620050D1*
X3413392Y624786D1*
X3404951Y630919D1*
X3397573Y638297D1*
X3391440Y646738D1*
X3386703Y656035D1*
X3383479Y665958D1*
X3381847Y676263D1*
Y686697D1*
X3383479Y697003D1*
X3386703Y706926D1*
X3391440Y716222D1*
X3397573Y724663D1*
X3404951Y732041D1*
X3413392Y738174D1*
X3422688Y742911D1*
X3432612Y746135D1*
X3442917Y747767D1*
X3453351D1*
X3463656Y746135D1*
X3473579Y742911D1*
X3482876Y738174D1*
X3491317Y732041D1*
X3498695Y724663D1*
X3504828Y716222D1*
X3509565Y706926D1*
X3512789Y697003D1*
X3514421Y686697D1*
Y676263D1*
X4152081Y679643D2*
X4151473Y672323D1*
X4150061Y665115D1*
X4147862Y658106D1*
X4144904Y651383D1*
X4141223Y645027D1*
X4136863Y639115D1*
X4131877Y633721D1*
X4126327Y628910D1*
X4120280Y624740D1*
X4113810Y621262D1*
X4106996Y618520D1*
X4099921Y616546D1*
X4092671Y615364D1*
X4085335Y614989D1*
X4078003Y615425D1*
X4070764Y616668D1*
X4063705Y618701D1*
X4056914Y621501D1*
X4050474Y625033D1*
X4044462Y629253D1*
X4038952Y634111D1*
X4034012Y639547D1*
X4029702Y645494D1*
X4026074Y651881D1*
X4023172Y658629D1*
X4021033Y665656D1*
X4019681Y672876D1*
X4019134Y680201D1*
X4019399Y687541D1*
X4020471Y694808D1*
X4022339Y701912D1*
X4024979Y708767D1*
X4028358Y715288D1*
X4032437Y721397D1*
X4037164Y727019D1*
X4042483Y732085D1*
X4048328Y736534D1*
X4054628Y740311D1*
X4061306Y743370D1*
X4068281Y745673D1*
X4075467Y747194D1*
X4082777Y747912D1*
X4090122Y747819D1*
X4097411Y746918D1*
X4104557Y745217D1*
X4111472Y742739D1*
X4118071Y739513D1*
X4124274Y735579D1*
X4130005Y730984D1*
X4135195Y725786D1*
X4139779Y720047D1*
X4143702Y713837D1*
X4146917Y707233D1*
X4149383Y700314D1*
X4151072Y693165D1*
X4151961Y685874D1*
X4152081Y679643D1*
X4001901Y676263D2*
X4000269Y665958D1*
X3997045Y656035D1*
X3992308Y646738D1*
X3986175Y638297D1*
X3978797Y630919D1*
X3970356Y624786D1*
X3961060Y620050D1*
X3951136Y616825D1*
X3940831Y615193D1*
X3930397D1*
X3920092Y616825D1*
X3910169Y620050D1*
X3900872Y624786D1*
X3892431Y630919D1*
X3885053Y638297D1*
X3878920Y646738D1*
X3874183Y656035D1*
X3870959Y665958D1*
X3869327Y676263D1*
Y686697D1*
X3870959Y697003D1*
X3874183Y706926D1*
X3878920Y716222D1*
X3885053Y724663D1*
X3892431Y732041D1*
X3900872Y738174D1*
X3910169Y742911D1*
X3920092Y746135D1*
X3930397Y747767D1*
X3940831D1*
X3951136Y746135D1*
X3961060Y742911D1*
X3970356Y738174D1*
X3978797Y732041D1*
X3986175Y724663D1*
X3992308Y716222D1*
X3997045Y706926D1*
X4000269Y697003D1*
X4001901Y686697D1*
Y676263D1*
X4639601Y679643D2*
X4638992Y672323D1*
X4637581Y665115D1*
X4635382Y658106D1*
X4632424Y651383D1*
X4628743Y645027D1*
X4624382Y639115D1*
X4619397Y633721D1*
X4613847Y628910D1*
X4607800Y624740D1*
X4601330Y621262D1*
X4594516Y618520D1*
X4587440Y616546D1*
X4580191Y615364D1*
X4572855Y614989D1*
X4565523Y615425D1*
X4558283Y616668D1*
X4551225Y618701D1*
X4544434Y621501D1*
X4537993Y625033D1*
X4531982Y629253D1*
X4526472Y634111D1*
X4521532Y639547D1*
X4517221Y645494D1*
X4513593Y651881D1*
X4510692Y658629D1*
X4508552Y665656D1*
X4507201Y672876D1*
X4506654Y680201D1*
X4506919Y687541D1*
X4507991Y694808D1*
X4509859Y701912D1*
X4512498Y708767D1*
X4515878Y715288D1*
X4519956Y721397D1*
X4524684Y727019D1*
X4530002Y732085D1*
X4535847Y736534D1*
X4542147Y740311D1*
X4548825Y743370D1*
X4555800Y745673D1*
X4562987Y747194D1*
X4570297Y747912D1*
X4577641Y747819D1*
X4584931Y746918D1*
X4592077Y745217D1*
X4598992Y742739D1*
X4605591Y739513D1*
X4611794Y735579D1*
X4617525Y730984D1*
X4622714Y725786D1*
X4627299Y720047D1*
X4631222Y713837D1*
X4634437Y707233D1*
X4636903Y700314D1*
X4638591Y693165D1*
X4639481Y685874D1*
X4639601Y679643D1*
X4489421Y676263D2*
X4487789Y665958D1*
X4484565Y656035D1*
X4479828Y646738D1*
X4473695Y638297D1*
X4466317Y630919D1*
X4457876Y624786D1*
X4448579Y620050D1*
X4438656Y616825D1*
X4428351Y615193D1*
X4417917D1*
X4407612Y616825D1*
X4397688Y620050D1*
X4388392Y624786D1*
X4379951Y630919D1*
X4372573Y638297D1*
X4366440Y646738D1*
X4361703Y656035D1*
X4358479Y665958D1*
X4356847Y676263D1*
Y686697D1*
X4358479Y697003D1*
X4361703Y706926D1*
X4366440Y716222D1*
X4372573Y724663D1*
X4379951Y732041D1*
X4388392Y738174D1*
X4397688Y742911D1*
X4407612Y746135D1*
X4417917Y747767D1*
X4428351D1*
X4438656Y746135D1*
X4448579Y742911D1*
X4457876Y738174D1*
X4466317Y732041D1*
X4473695Y724663D1*
X4479828Y716222D1*
X4484565Y706926D1*
X4487789Y697003D1*
X4489421Y686697D1*
Y676263D1*
X642570Y3654548D2*
X641727Y3647423D1*
X640327Y3640386D1*
X638380Y3633481D1*
X635896Y3626750D1*
X632893Y3620235D1*
X629387Y3613975D1*
X625401Y3608010D1*
X620960Y3602376D1*
X616090Y3597107D1*
X610821Y3592237D1*
X605187Y3587796D1*
X599222Y3583810D1*
X592962Y3580304D1*
X586447Y3577300D1*
X579716Y3574817D1*
X572811Y3572870D1*
X565774Y3571470D1*
X558649Y3570627D1*
X551480Y3570345D1*
X544311Y3570627D1*
X537187Y3571470D1*
X530150Y3572870D1*
X523245Y3574817D1*
X516514Y3577300D1*
X509999Y3580304D1*
X503739Y3583810D1*
X497774Y3587796D1*
X492139Y3592237D1*
X486871Y3597107D1*
X482001Y3602376D1*
X477559Y3608010D1*
X473573Y3613975D1*
X470068Y3620235D1*
X467064Y3626750D1*
X464581Y3633481D1*
X462634Y3640386D1*
X461234Y3647423D1*
X460391Y3654548D1*
X460109Y3661717D1*
X460391Y3668885D1*
X461234Y3676010D1*
X462634Y3683047D1*
X464581Y3689952D1*
X467064Y3696683D1*
X470068Y3703198D1*
X473573Y3709458D1*
X477559Y3715423D1*
X482001Y3721058D1*
X486871Y3726326D1*
X492139Y3731196D1*
X497774Y3735638D1*
X503739Y3739623D1*
X511907Y3744009D1*
X425290Y3744000D1*
X431477Y425221D1*
X523100Y425251D1*
X516514Y427694D1*
X509999Y430698D1*
X503739Y434203D1*
X497774Y438189D1*
X492139Y442631D1*
X486871Y447501D1*
X482001Y452769D1*
X477559Y458403D1*
X473573Y464369D1*
X470068Y470628D1*
X467064Y477144D1*
X464581Y483875D1*
X462634Y490780D1*
X461234Y497817D1*
X460391Y504941D1*
X460109Y512110D1*
X460391Y519279D1*
X461234Y526404D1*
X462634Y533440D1*
X464581Y540346D1*
X467064Y547077D1*
X470068Y553592D1*
X473573Y559852D1*
X477559Y565817D1*
X482001Y571451D1*
X486871Y576720D1*
X492139Y581590D1*
X497774Y586031D1*
X503739Y590017D1*
X509999Y593523D1*
X516514Y596526D1*
X523245Y599010D1*
X530150Y600957D1*
X537187Y602357D1*
X544311Y603200D1*
X551480Y603482D1*
X558649Y603200D1*
X565774Y602357D1*
X572811Y600957D1*
X579716Y599010D1*
X586447Y596526D1*
X592962Y593523D1*
X599222Y590017D1*
X605187Y586031D1*
X610821Y581590D1*
X616090Y576720D1*
X620960Y571451D1*
X625401Y565817D1*
X629387Y559852D1*
X632893Y553592D1*
X635896Y547077D1*
X638380Y540346D1*
X640327Y533440D1*
X641727Y526404D1*
X642570Y519279D1*
X642852Y512110D1*
X642570Y504941D1*
X641727Y497817D1*
X640327Y490780D1*
X638380Y483875D1*
X635896Y477144D1*
X632893Y470628D1*
X629387Y464369D1*
X625401Y458403D1*
X620960Y452769D1*
X616090Y447501D1*
X610821Y442631D1*
X605187Y438189D1*
X599222Y434203D1*
X592962Y430698D1*
X586447Y427694D1*
X579847Y425259D1*
X5011279Y425251D1*
X5004703Y427694D1*
X4998188Y430698D1*
X4991928Y434203D1*
X4985963Y438189D1*
X4980328Y442631D1*
X4975060Y447501D1*
X4970190Y452769D1*
X4965748Y458403D1*
X4961762Y464369D1*
X4958257Y470628D1*
X4955253Y477144D1*
X4952770Y483875D1*
X4950822Y490780D1*
X4949423Y497817D1*
X4948580Y504941D1*
X4948298Y512110D1*
X4948580Y519279D1*
X4949423Y526404D1*
X4950822Y533440D1*
X4952770Y540346D1*
X4955253Y547077D1*
X4958257Y553592D1*
X4961762Y559852D1*
X4965748Y565817D1*
X4970190Y571451D1*
X4975060Y576720D1*
X4980328Y581590D1*
X4985963Y586031D1*
X4991928Y590017D1*
X4998188Y593523D1*
X5004703Y596526D1*
X5011434Y599010D1*
X5018339Y600957D1*
X5025376Y602357D1*
X5032500Y603200D1*
X5039669Y603482D1*
X5046838Y603200D1*
X5053963Y602357D1*
X5061000Y600957D1*
X5067905Y599010D1*
X5074636Y596526D1*
X5081151Y593523D1*
X5087411Y590017D1*
X5093376Y586031D1*
X5099010Y581590D1*
X5104279Y576720D1*
X5109149Y571451D1*
X5113590Y565817D1*
X5117576Y559852D1*
X5121082Y553592D1*
X5124085Y547077D1*
X5126569Y540346D1*
X5128516Y533440D1*
X5129916Y526404D1*
X5130759Y519279D1*
X5131041Y512110D1*
X5130759Y504941D1*
X5129916Y497817D1*
X5128516Y490780D1*
X5126569Y483875D1*
X5124085Y477144D1*
X5121082Y470628D1*
X5117576Y464369D1*
X5113590Y458403D1*
X5109149Y452769D1*
X5104279Y447501D1*
X5099010Y442631D1*
X5093376Y438189D1*
X5087411Y434203D1*
X5081151Y430698D1*
X5074636Y427694D1*
X5068036Y425259D1*
X5156466Y425251D1*
X5156500Y3743987D1*
X5079397Y3744000D1*
X5087411Y3739623D1*
X5093376Y3735638D1*
X5099010Y3731196D1*
X5104279Y3726326D1*
X5109149Y3721058D1*
X5113590Y3715423D1*
X5117576Y3709458D1*
X5121082Y3703198D1*
X5124085Y3696683D1*
X5126569Y3689952D1*
X5128516Y3683047D1*
X5129916Y3676010D1*
X5130759Y3668885D1*
X5131041Y3661717D1*
X5130759Y3654548D1*
X5129916Y3647423D1*
X5128516Y3640386D1*
X5126569Y3633481D1*
X5124085Y3626750D1*
X5121082Y3620235D1*
X5117576Y3613975D1*
X5113590Y3608010D1*
X5109149Y3602376D1*
X5104279Y3597107D1*
X5099010Y3592237D1*
X5093376Y3587796D1*
X5087411Y3583810D1*
X5081151Y3580304D1*
X5074636Y3577300D1*
X5067905Y3574817D1*
X5061000Y3572870D1*
X5053963Y3571470D1*
X5046838Y3570627D1*
X5039669Y3570345D1*
X5032500Y3570627D1*
X5025376Y3571470D1*
X5018339Y3572870D1*
X5011434Y3574817D1*
X5004703Y3577300D1*
X4998188Y3580304D1*
X4991928Y3583810D1*
X4985963Y3587796D1*
X4980328Y3592237D1*
X4975060Y3597107D1*
X4970190Y3602376D1*
X4965748Y3608010D1*
X4961762Y3613975D1*
X4958257Y3620235D1*
X4955253Y3626750D1*
X4952770Y3633481D1*
X4950822Y3640386D1*
X4949423Y3647423D1*
X4948580Y3654548D1*
X4948298Y3661717D1*
X4948580Y3668885D1*
X4949423Y3676010D1*
X4950822Y3683047D1*
X4952770Y3689952D1*
X4955253Y3696683D1*
X4958257Y3703198D1*
X4961762Y3709458D1*
X4965748Y3715423D1*
X4970190Y3721058D1*
X4975060Y3726326D1*
X4980328Y3731196D1*
X4985963Y3735638D1*
X4991928Y3739623D1*
X5000096Y3744009D1*
X591218Y3744000D1*
X599222Y3739623D1*
X605187Y3735638D1*
X610821Y3731196D1*
X616090Y3726326D1*
X620960Y3721058D1*
X625401Y3715423D1*
X629387Y3709458D1*
X632893Y3703198D1*
X635896Y3696683D1*
X638380Y3689952D1*
X640327Y3683047D1*
X641727Y3676010D1*
X642570Y3668885D1*
X642852Y3661717D1*
X642570Y3654548D1*
X1804252Y2006877D2*
X1804344Y2011821D1*
X1805485Y2019027D1*
X1807740Y2025965D1*
X1811052Y2032465D1*
X1811995Y2033876D1*
X1699930Y2033886D1*
X1700390Y2027819D1*
X1703433Y2023631D1*
X1705783Y2019019D1*
X1707383Y2014096D1*
X1708193Y2008973D1*
X1712051Y2006870D1*
X1804238D1*
X1548727Y2324201D2*
X803897Y2324029D1*
X796602D1*
X791063Y2324201D1*
X735981D1*
X728553Y2316792D1*
X736300Y2315585D1*
X743238Y2313331D1*
X749738Y2310019D1*
X754196Y2306870D1*
X1745289Y2307097D1*
X1746430Y2314302D1*
X1748685Y2321241D1*
X1750052Y2324206D1*
X1601426Y2324201D1*
X1596209Y2321079D1*
X1589469Y2318287D1*
X1582375Y2316584D1*
X1575102Y2316012D1*
X1567829Y2316584D1*
X1560736Y2318287D1*
X1553995Y2321079D1*
X1548807Y2324202D1*
X1588990Y2416555D2*
X1836326Y2416712D1*
X1829586Y2419504D1*
X1823366Y2423316D1*
X1817933Y2427948D1*
X1607865Y2427941D1*
X1602430Y2423316D1*
X1596209Y2419504D1*
X1588907Y2416554D1*
X3596874Y2416555D2*
X3968419D1*
X3961837Y2421246D1*
X3956679Y2426404D1*
X3955469Y2427938D1*
X3615761Y2427941D1*
X3610304Y2423316D1*
X3604083Y2419504D1*
X3596781Y2416554D1*
X805356Y2324202D2*
X800249Y2323886D1*
X795143Y2324202D1*
Y2416554D2*
X800249Y2416870D1*
X805356Y2416554D1*
X1932969Y2206870D2*
X4248935D1*
X4247401Y2211417D1*
X1934636Y2211405D1*
X1932998Y2206878D1*
X1617350Y2106870D2*
X4131253D1*
X4129013Y2112973D1*
X1619665Y2112980D1*
X1617309Y2106873D1*
X4179909Y2926762D2*
Y3018698D1*
X4175285Y3024153D1*
X4171473Y3030373D1*
X4168681Y3037113D1*
X4166978Y3044207D1*
X4166406Y3051480D1*
X4166978Y3058753D1*
X4168681Y3065847D1*
X4171473Y3072587D1*
X4175285Y3078808D1*
X4180023Y3084355D1*
X4185570Y3089093D1*
X4191791Y3092905D1*
X4198531Y3095697D1*
X4205625Y3097400D1*
X4212898Y3097972D1*
X4220171Y3097400D1*
X4227264Y3095697D1*
X4234005Y3092905D1*
X4240225Y3089093D1*
X4245773Y3084355D1*
X4250511Y3078808D1*
X4254322Y3072587D1*
X4257114Y3065847D1*
X4258817Y3058753D1*
X4259390Y3051480D1*
X4258817Y3044207D1*
X4257114Y3037113D1*
X4254322Y3030373D1*
X4250511Y3024153D1*
X4245879Y3018721D1*
X4245886Y2926783D1*
X4250511Y2921327D1*
X4254322Y2915107D1*
X4257114Y2908367D1*
X4258817Y2901273D1*
X4259390Y2894000D1*
X4258817Y2886727D1*
X4257114Y2879633D1*
X4254322Y2872893D1*
X4250511Y2866673D1*
X4245773Y2861125D1*
X4240225Y2856387D1*
X4234005Y2852575D1*
X4227264Y2849783D1*
X4220171Y2848080D1*
X4212898Y2847508D1*
X4205625Y2848080D1*
X4198531Y2849783D1*
X4191791Y2852575D1*
X4185570Y2856387D1*
X4180023Y2861125D1*
X4175285Y2866673D1*
X4171473Y2872893D1*
X4168681Y2879633D1*
X4166978Y2886727D1*
X4166406Y2894000D1*
X4166978Y2901273D1*
X4168681Y2908367D1*
X4171473Y2915107D1*
X4175285Y2921327D1*
X4179916Y2926760D1*
X3511359Y1772113D2*
X3616305Y1667166D1*
X4376432Y1667146D1*
X4402641Y1693388D1*
X4403198Y1700486D1*
X4404901Y1707579D1*
X4407693Y1714320D1*
X4411505Y1720540D1*
X4416243Y1726087D1*
X4421791Y1730826D1*
X4428011Y1734637D1*
X4434751Y1737429D1*
X4441845Y1739132D1*
X4449118Y1739705D1*
X4456391Y1739132D1*
X4463485Y1737429D1*
X4470225Y1734637D1*
X4476445Y1730826D1*
X4481993Y1726087D1*
X4486731Y1720540D1*
X4490543Y1714320D1*
X4493335Y1707579D1*
X4495038Y1700486D1*
X4495610Y1693213D1*
X4495038Y1685940D1*
X4493335Y1678846D1*
X4490543Y1672106D1*
X4486731Y1665885D1*
X4481993Y1660338D1*
X4476445Y1655600D1*
X4470225Y1651788D1*
X4463485Y1648996D1*
X4456391Y1647293D1*
X4449275Y1646727D1*
X4411487Y1609073D1*
X4407299Y1606030D1*
X4402687Y1603680D1*
X4397764Y1602081D1*
X4392651Y1601271D1*
X4325759Y1601169D1*
X3600073Y1601271D1*
X3594960Y1602081D1*
X3590037Y1603680D1*
X3585425Y1606030D1*
X3581237Y1609073D1*
X3533865Y1656301D1*
X3464721Y1725445D1*
X3457593Y1726033D1*
X3450499Y1727736D1*
X3443759Y1730528D1*
X3437539Y1734340D1*
X3431991Y1739078D1*
X3427253Y1744625D1*
X3423441Y1750846D1*
X3420650Y1757586D1*
X3418946Y1764680D1*
X3418374Y1771953D1*
X3418946Y1779226D1*
X3420650Y1786320D1*
X3423441Y1793060D1*
X3427253Y1799280D1*
X3431991Y1804828D1*
X3437539Y1809566D1*
X3443759Y1813378D1*
X3450499Y1816169D1*
X3457593Y1817872D1*
X3464866Y1818445D1*
X3472139Y1817872D1*
X3479233Y1816169D1*
X3485973Y1813378D1*
X3492194Y1809566D1*
X3497741Y1804828D1*
X3502479Y1799280D1*
X3506291Y1793060D1*
X3509083Y1786320D1*
X3510786Y1779226D1*
X3511352Y1772109D1*
X1234075Y2565962D2*
Y2513356D1*
X1238700Y2507942D1*
X1242511Y2501721D1*
X1245303Y2494981D1*
X1247006Y2487887D1*
X1247579Y2480614D1*
X1247006Y2473341D1*
X1245303Y2466247D1*
X1242511Y2459507D1*
X1238700Y2453287D1*
X1233962Y2447739D1*
X1228414Y2443001D1*
X1222194Y2439189D1*
X1215453Y2436398D1*
X1208360Y2434694D1*
X1201087Y2434122D1*
X1193814Y2434694D1*
X1186720Y2436398D1*
X1179980Y2439189D1*
X1173759Y2443001D1*
X1168212Y2447739D1*
X1163474Y2453287D1*
X1159662Y2459507D1*
X1156870Y2466247D1*
X1155167Y2473341D1*
X1154594Y2480614D1*
X1155167Y2487887D1*
X1156870Y2494981D1*
X1159662Y2501721D1*
X1163474Y2507942D1*
X1168105Y2513374D1*
X1168098Y2565983D1*
X1163474Y2571397D1*
X1159662Y2577617D1*
X1156870Y2584358D1*
X1155167Y2591451D1*
X1154594Y2598724D1*
X1155167Y2605997D1*
X1156870Y2613091D1*
X1159662Y2619831D1*
X1163474Y2626052D1*
X1168212Y2631599D1*
X1173759Y2636337D1*
X1179980Y2640149D1*
X1186720Y2642941D1*
X1193814Y2644644D1*
X1201087Y2645217D1*
X1208360Y2644644D1*
X1215453Y2642941D1*
X1222194Y2640149D1*
X1228414Y2636337D1*
X1233962Y2631599D1*
X1238700Y2626052D1*
X1242511Y2619831D1*
X1245303Y2613091D1*
X1247006Y2605997D1*
X1247579Y2598724D1*
X1247006Y2591451D1*
X1245303Y2584358D1*
X1242511Y2577617D1*
X1238700Y2571397D1*
X1234068Y2565965D1*
X4999660Y1870378D2*
D14*
Y1810457D1*
X669591Y1493291D2*
Y1263213D1*
X1010634Y3559570D2*
Y3426658D1*
X1498134Y3559570D2*
Y3426658D1*
X1987740Y3559590D2*
Y3426678D1*
X2473134Y3559590D2*
Y3426678D1*
X2960634Y3559590D2*
Y3426678D1*
X3448134Y3559590D2*
Y3426678D1*
X3935634Y3559590D2*
Y3426678D1*
X4423134Y3559590D2*
Y3426678D1*
X1160614Y747937D2*
Y615024D1*
X1648134Y747937D2*
Y615024D1*
X2137740Y747937D2*
Y615024D1*
X2623134Y747937D2*
Y615024D1*
X3110614Y747937D2*
Y615024D1*
X3598134Y747937D2*
Y615024D1*
X4085614Y747937D2*
Y615024D1*
X4573134Y747937D2*
Y615024D1*
X2086913Y2826346D2*
Y2725434D1*
D26*
X4999660Y2370378D3*
D27*
Y2270378D3*
Y2170378D3*
Y2070378D3*
Y1970378D3*
Y1870378D3*
D28*
X669591Y1378252D3*
D29*
X905811D3*
D30*
X787701Y1193213D3*
D32*
X1010634Y3493114D3*
X1160634D3*
X1498134D3*
X1648134D3*
X1987740Y3493134D3*
X2137740D3*
X2473134D3*
X2623134D3*
X2960634D3*
X3110634D3*
X3448134D3*
X3598134D3*
X3935634D3*
X4085634D3*
X4423134D3*
X4573134D3*
X1160614Y681480D3*
X1010614D3*
X1648134D3*
X1498134D3*
X2137740D3*
X1987740D3*
X2623134D3*
X2473134D3*
X3110614D3*
X2960614D3*
X3598134D3*
X3448134D3*
X4085614D3*
X3935614D3*
X4573134D3*
X4423134D3*
D34*
X2283764Y2775890D3*
X2185339D3*
X2086913D3*
X1988488D3*
X1890063D3*
X1791638D3*
X1693213D3*
X1594787D3*
X1496362D3*
X1397937D3*
X2283764Y1775890D3*
X2185339D3*
X2086913D3*
X1988488D3*
X1890063D3*
X1791638D3*
X1693213D3*
X1594787D3*
X1496362D3*
X1397937D3*
M02*
