G04 DipTrace 3.3.1.3*
G04 Bottom.gbr*
%MOIN*%
G04 #@! TF.FileFunction,Copper,L2,Bot*
G04 #@! TF.Part,Single*
G04 #@! TA.AperFunction,CopperBalancing*
%ADD14C,0.012992*%
G04 #@! TA.AperFunction,Conductor*
%ADD15C,0.03937*%
%ADD16C,0.02*%
G04 #@! TA.AperFunction,CopperBalancing*
%ADD17C,0.025*%
G04 #@! TA.AperFunction,ComponentPad*
%ADD26R,0.066929X0.066929*%
%ADD27C,0.066929*%
%ADD28O,0.07874X0.177165*%
%ADD29O,0.07874X0.19685*%
%ADD30O,0.177165X0.07874*%
%ADD32C,0.08*%
%ADD39R,0.062992X0.062992*%
%ADD40C,0.062992*%
%ADD41C,0.129921*%
G04 #@! TA.AperFunction,ViaPad*
%ADD42C,0.04*%
%FSLAX26Y26*%
G04*
G70*
G90*
G75*
G01*
G04 Bottom*
%LPD*%
X4901874Y846756D2*
D14*
X4803449Y748331D1*
X3386126D1*
X3110535Y472740D1*
X1831008D1*
X1712898Y590850D1*
Y1161717D1*
X1575102Y1299512D1*
X905811Y1378252D2*
D15*
Y1456992D1*
X925496Y1437307D1*
X2047543D1*
Y2579039D1*
X2264079Y2795575D1*
X3701087D1*
X4126283Y2370378D1*
X4787701D1*
X4999660D1*
X4527858Y2382189D2*
D14*
X4142031D1*
Y2370378D1*
D15*
X4126283D1*
X905811Y1378252D2*
D14*
Y1516047D1*
X1063291Y1673528D1*
X1516047D1*
X1594787Y1752268D1*
Y2106598D1*
D16*
X1240457Y2460929D1*
X571165Y2697150D2*
D14*
Y3130220D1*
X4787701Y2405811D2*
Y2370378D1*
X4764079Y2047543D2*
X4901874Y2185339D1*
X4882189Y1260142D2*
X5079039D1*
X4901874Y1496362D2*
X5079039D1*
X2165654Y2401874D2*
Y2441244D1*
X2106598Y2500299D1*
X4858567Y1827071D2*
X4842819Y1811323D1*
X3386126D1*
X3169591Y2027858D1*
X5000299Y1063291D2*
X4901874Y1161717D1*
X4764079D1*
X4547543Y1378252D1*
Y1426576D1*
X4999660Y1970378D2*
X4588488D1*
X4547543Y1929433D1*
Y1870378D1*
X4823134Y2027858D2*
X4965654Y2170378D1*
X4999660D1*
X4645969Y1437307D2*
X4685339Y1397937D1*
X5098724D1*
X4665654Y2027858D2*
X4901874Y2264079D1*
X4993361D1*
X4999660Y2270378D1*
X4385732Y2067228D2*
X4114472D1*
X4232583Y2460929D2*
X4226896Y2466615D1*
X4221211Y2460929D1*
X4173528D1*
X3681402Y2953055D1*
X4185732Y2547150D2*
X3740457Y2992425D1*
X4135732Y2656205D2*
X3838882Y2953055D1*
X4212898Y2894000D2*
Y3051480D1*
X1358567Y1260142D2*
X1023921Y925496D1*
X2894000Y2067228D2*
X3031795Y2205024D1*
X3169591D1*
X4134157Y2854630D2*
Y3090850D1*
X3142917Y1447406D2*
Y713783D1*
X3110614Y681480D1*
X2185339Y2795575D2*
X2165654Y2815260D1*
Y3051480D1*
X4999660Y1870378D2*
Y1752907D1*
X5138094Y1614472D1*
Y886126D1*
X4933449Y681480D1*
X4573134D1*
X4744394Y1594787D2*
X3523921D1*
X3464866Y1535732D1*
X2874315D1*
X2677465Y1338882D1*
X1397937D1*
X4964866Y1768016D2*
X4949118Y1752268D1*
X3582976D1*
X3405811Y1575102D1*
X2874315D1*
X2677465Y1378252D1*
X1279827D1*
X1201087Y1811323D2*
X1181402Y1831008D1*
Y2894000D1*
X1082976Y2992425D1*
X1503449Y1804236D2*
X1412110Y1712898D1*
X1181402D1*
X1122346Y1771953D1*
Y2697150D1*
X827071Y2992425D1*
X2834945Y2047543D2*
Y2106598D1*
X3110535Y2382189D1*
Y2519984D1*
X3090850Y2539669D1*
X3012110D1*
X3053974Y2025365D2*
X2859202Y1791638D1*
X2205024D1*
X4724709Y866441D2*
X4645969Y787701D1*
X3366441D1*
X3090850Y512110D1*
X1870378D1*
X1771953Y610535D1*
Y1299512D1*
X3112110Y2029433D2*
X2972740Y1890063D1*
Y1811323D1*
X2677465Y1516047D1*
X2303449D1*
D42*
X4901874Y846756D3*
X1575102Y1299512D3*
X4527858Y2382189D3*
X1240457Y2460929D3*
X571165Y2697150D3*
Y3130220D3*
X1240457Y2460929D3*
X4787701Y2405811D3*
X4764079Y2047543D3*
X4901874Y2185339D3*
X4882189Y1260142D3*
X5079039D3*
X4901874Y1496362D3*
X5079039D3*
X2165654Y2401874D3*
X2106598Y2500299D3*
X4858567Y1827071D3*
X3169591Y2027858D3*
X5000299Y1063291D3*
X4547543Y1426576D3*
Y1870378D3*
X4823134Y2027858D3*
X4645969Y1437307D3*
X5098724Y1397937D3*
X4665654Y2027858D3*
X4385732Y2067228D3*
X4114472D3*
X4232583Y2460929D3*
X3681402Y2953055D3*
X4185732Y2547150D3*
X3740457Y2992425D3*
X4135732Y2656205D3*
X3838882Y2953055D3*
X4212898Y2894000D3*
Y3051480D3*
X1358567Y1260142D3*
X1023921Y925496D3*
X2894000Y2067228D3*
X3169591Y2205024D3*
X4134157Y2854630D3*
Y3090850D3*
X2185339Y2795575D3*
X2165654Y3051480D3*
X4744394Y1594787D3*
X1397937Y1338882D3*
X4964866Y1768016D3*
X1279827Y1378252D3*
X1201087Y1811323D3*
X1082976Y2992425D3*
X1503449Y1804236D3*
X827071Y2992425D3*
X2834945Y2047543D3*
X3110535Y2382189D3*
X3012110Y2539669D3*
X3053974Y2025365D3*
X2205024Y1791638D3*
X4724709Y866441D3*
X1771953Y1299512D3*
X3112110Y2029433D3*
X2303449Y1516047D3*
X427804Y3719131D2*
D17*
X477887D1*
X625060D2*
X4966101D1*
X5113239D2*
X5153991D1*
X427876Y3694262D2*
X463605D1*
X639342D2*
X4951784D1*
X5127556D2*
X5153991D1*
X427912Y3669394D2*
X457935D1*
X645011D2*
X4946114D1*
X5133226D2*
X5153991D1*
X427948Y3644525D2*
X459227D1*
X643720D2*
X4947442D1*
X5131898D2*
X5153991D1*
X428020Y3619656D2*
X467875D1*
X635107D2*
X4956054D1*
X5123286D2*
X5153991D1*
X428056Y3594787D2*
X486786D1*
X616196D2*
X4974965D1*
X5104375D2*
X5153991D1*
X428092Y3569919D2*
X5153991D1*
X428163Y3545050D2*
X966629D1*
X1054665D2*
X1116625D1*
X1204661D2*
X1454116D1*
X1542152D2*
X1604112D1*
X1692148D2*
X1943684D1*
X2031792D2*
X2093680D1*
X2181788D2*
X2429089D1*
X2517161D2*
X2579085D1*
X2667193D2*
X2916576D1*
X3004684D2*
X3066572D1*
X3154680D2*
X3404099D1*
X3492170D2*
X3554094D1*
X3642166D2*
X3891585D1*
X3979693D2*
X4041581D1*
X4129689D2*
X4379072D1*
X4467180D2*
X4529104D1*
X4617176D2*
X5153991D1*
X428199Y3520181D2*
X947395D1*
X1073863D2*
X1097391D1*
X1223859D2*
X1434918D1*
X1561350D2*
X1584914D1*
X1711382D2*
X1924486D1*
X2050990D2*
X2074482D1*
X2200986D2*
X2409891D1*
X2536359D2*
X2559887D1*
X2686391D2*
X2897378D1*
X3023882D2*
X3047374D1*
X3173878D2*
X3384901D1*
X3511368D2*
X3534896D1*
X3661364D2*
X3872387D1*
X3998891D2*
X4022383D1*
X4148887D2*
X4359874D1*
X4486378D2*
X4509906D1*
X4636374D2*
X5153991D1*
X428235Y3495312D2*
X941690D1*
X1079605D2*
X1091686D1*
X1229601D2*
X1429176D1*
X1567092D2*
X1579204D1*
X1717087D2*
X1918780D1*
X2056695D2*
X2068776D1*
X2206691D2*
X2404186D1*
X2542101D2*
X2554182D1*
X2692097D2*
X2891672D1*
X3029587D2*
X3041668D1*
X3179583D2*
X3379195D1*
X3517074D2*
X3529191D1*
X3667106D2*
X3866682D1*
X4004597D2*
X4016678D1*
X4154593D2*
X4354168D1*
X4492083D2*
X4504164D1*
X4642079D2*
X5153991D1*
X428271Y3470444D2*
X945637D1*
X1075658D2*
X1095633D1*
X1225653D2*
X1433124D1*
X1563144D2*
X1583120D1*
X1713140D2*
X1922728D1*
X2052748D2*
X2072723D1*
X2202744D2*
X2408133D1*
X2538118D2*
X2558129D1*
X2688149D2*
X2895620D1*
X3025640D2*
X3045616D1*
X3175636D2*
X3383142D1*
X3513127D2*
X3533138D1*
X3663123D2*
X3870629D1*
X4000649D2*
X4020625D1*
X4150645D2*
X4358116D1*
X4488136D2*
X4508147D1*
X4638132D2*
X5153991D1*
X428343Y3445575D2*
X961641D1*
X1059617D2*
X1111637D1*
X1209613D2*
X1449128D1*
X1547140D2*
X1599160D1*
X1697136D2*
X1938768D1*
X2036708D2*
X2088764D1*
X2186704D2*
X2424173D1*
X2522113D2*
X2574169D1*
X2672109D2*
X2911660D1*
X3009600D2*
X3061656D1*
X3159596D2*
X3399182D1*
X3497087D2*
X3549178D1*
X3647118D2*
X3886669D1*
X3984609D2*
X4036665D1*
X4134605D2*
X4374156D1*
X4472096D2*
X4524152D1*
X4622092D2*
X5153991D1*
X428379Y3420706D2*
X5153991D1*
X428415Y3395837D2*
X5153991D1*
X428486Y3370969D2*
X5153991D1*
X428522Y3346100D2*
X5153991D1*
X428558Y3321231D2*
X5153991D1*
X428594Y3296362D2*
X5153991D1*
X428666Y3271493D2*
X5153991D1*
X428702Y3246625D2*
X5153991D1*
X428737Y3221756D2*
X5153991D1*
X428809Y3196887D2*
X5153991D1*
X428845Y3172018D2*
X548291D1*
X594020D2*
X5153991D1*
X428881Y3147150D2*
X525361D1*
X616950D2*
X5153991D1*
X428953Y3122281D2*
X522850D1*
X619462D2*
X5153991D1*
X428989Y3097412D2*
X535660D1*
X606651D2*
X4203204D1*
X4222593D2*
X5153991D1*
X429025Y3072543D2*
X535660D1*
X606651D2*
X4168934D1*
X4256862D2*
X5153991D1*
X429060Y3047675D2*
X535660D1*
X606651D2*
X4164054D1*
X4261743D2*
X5153991D1*
X429132Y3022806D2*
X535660D1*
X606651D2*
X789361D1*
X864766D2*
X1045287D1*
X1120656D2*
X3702763D1*
X3778167D2*
X4173814D1*
X4251982D2*
X5153991D1*
X429168Y2997937D2*
X535660D1*
X606651D2*
X778417D1*
X875747D2*
X1034307D1*
X1131637D2*
X3666771D1*
X3789112D2*
X3824267D1*
X3853524D2*
X4177403D1*
X4248394D2*
X5153991D1*
X429204Y2973068D2*
X535660D1*
X606651D2*
X782292D1*
X895591D2*
X1038218D1*
X1151481D2*
X3636951D1*
X3883344D2*
X4177403D1*
X4248394D2*
X5153991D1*
X429276Y2948199D2*
X535660D1*
X606651D2*
X810246D1*
X920458D2*
X1066136D1*
X1176349D2*
X3632681D1*
X3892889D2*
X4177403D1*
X4248394D2*
X5153991D1*
X429312Y2923331D2*
X535660D1*
X606651D2*
X847027D1*
X945326D2*
X1102917D1*
X1201216D2*
X3643159D1*
X3917757D2*
X4174317D1*
X4251480D2*
X5153991D1*
X429348Y2898462D2*
X535660D1*
X606651D2*
X871895D1*
X970194D2*
X1127785D1*
X1216575D2*
X3686830D1*
X3942625D2*
X4164126D1*
X4261671D2*
X5153991D1*
X429383Y2873593D2*
X535660D1*
X606651D2*
X896763D1*
X995062D2*
X1145907D1*
X1216898D2*
X3711698D1*
X3967492D2*
X4168611D1*
X4257185D2*
X5153991D1*
X429455Y2848724D2*
X535660D1*
X606651D2*
X921631D1*
X1019929D2*
X1145907D1*
X1216898D2*
X3736566D1*
X3992360D2*
X4199830D1*
X4225966D2*
X5153991D1*
X429491Y2823856D2*
X535660D1*
X606651D2*
X946498D1*
X1044797D2*
X1145907D1*
X1216898D2*
X2224549D1*
X3740597D2*
X3761433D1*
X4017228D2*
X5153991D1*
X429527Y2798987D2*
X535660D1*
X606651D2*
X971366D1*
X1069665D2*
X1145907D1*
X1216898D2*
X2199682D1*
X3765464D2*
X3786301D1*
X4042096D2*
X5153991D1*
X429599Y2774118D2*
X535660D1*
X606651D2*
X996234D1*
X1094533D2*
X1145907D1*
X1216898D2*
X2174814D1*
X3790332D2*
X3811169D1*
X4066963D2*
X5153991D1*
X429635Y2749249D2*
X535660D1*
X606651D2*
X1021102D1*
X1119400D2*
X1145907D1*
X1216898D2*
X2149946D1*
X2285565D2*
X3679617D1*
X3815200D2*
X3836072D1*
X4091831D2*
X5153991D1*
X429670Y2724381D2*
X530995D1*
X611352D2*
X1045969D1*
X1216898D2*
X2125079D1*
X2260697D2*
X3704485D1*
X3840068D2*
X3860940D1*
X4116699D2*
X5153991D1*
X429742Y2699512D2*
X522240D1*
X620108D2*
X1070837D1*
X1216898D2*
X2100211D1*
X2235829D2*
X3729353D1*
X3864971D2*
X3885808D1*
X4155131D2*
X5153991D1*
X429778Y2674643D2*
X527981D1*
X614330D2*
X1086841D1*
X1216898D2*
X2075343D1*
X2210961D2*
X3754221D1*
X3889839D2*
X3910676D1*
X4180896D2*
X5153991D1*
X429814Y2649774D2*
X1086841D1*
X1216898D2*
X2050475D1*
X2186094D2*
X3779088D1*
X3914707D2*
X3935543D1*
X4184269D2*
X5153991D1*
X429850Y2624906D2*
X1086841D1*
X1216898D2*
X2025608D1*
X2161226D2*
X3803956D1*
X3939574D2*
X3960411D1*
X4172606D2*
X5153991D1*
X429922Y2600037D2*
X1086841D1*
X1216898D2*
X2003934D1*
X2136358D2*
X3828824D1*
X3964442D2*
X3985279D1*
X4182008D2*
X5153991D1*
X429958Y2575168D2*
X1086841D1*
X1216898D2*
X1998874D1*
X2111491D2*
X2979589D1*
X3044623D2*
X3853692D1*
X3989310D2*
X4010147D1*
X4225320D2*
X5153991D1*
X429993Y2550299D2*
X1086841D1*
X1216898D2*
X1998874D1*
X2096204D2*
X2964338D1*
X3129381D2*
X3878559D1*
X4014178D2*
X4035014D1*
X4234614D2*
X5153991D1*
X430065Y2525430D2*
X776910D1*
X859491D2*
X1086841D1*
X1216898D2*
X1998874D1*
X2148200D2*
X2965343D1*
X3145565D2*
X3903427D1*
X4039045D2*
X4059882D1*
X4229339D2*
X5153991D1*
X430101Y2500562D2*
X752903D1*
X883534D2*
X1086841D1*
X1267279D2*
X1998874D1*
X2155592D2*
X2984469D1*
X3039743D2*
X3075041D1*
X3146032D2*
X3928295D1*
X4063913D2*
X4084750D1*
X4183049D2*
X4205787D1*
X4259374D2*
X5153991D1*
X430137Y2475693D2*
X685692D1*
X710572D2*
X743932D1*
X892505D2*
X1086841D1*
X1287051D2*
X1998874D1*
X2180352D2*
X3075041D1*
X3146032D2*
X3953163D1*
X4088781D2*
X4109618D1*
X4279182D2*
X5153991D1*
X430209Y2450824D2*
X498125D1*
X578482D2*
X630072D1*
X892289D2*
X1086841D1*
X1304670D2*
X1998874D1*
X2096204D2*
X2106921D1*
X2199730D2*
X3075041D1*
X3146032D2*
X3978030D1*
X4113649D2*
X4134485D1*
X4280474D2*
X4773583D1*
X4801836D2*
X5153991D1*
X430245Y2425955D2*
X484920D1*
X591688D2*
X610443D1*
X882780D2*
X1023434D1*
X1072823D2*
X1086841D1*
X1329538D2*
X1998874D1*
X2096204D2*
X2123392D1*
X2207911D2*
X3075041D1*
X3146032D2*
X4002898D1*
X4138516D2*
X4199436D1*
X4265726D2*
X4509690D1*
X4546053D2*
X4743296D1*
X4832086D2*
X4937215D1*
X5062104D2*
X5153991D1*
X430280Y2401087D2*
X485566D1*
X591006D2*
X600862D1*
X857446D2*
X998530D1*
X1216898D2*
X1246203D1*
X1354406D2*
X1998874D1*
X2096204D2*
X2116682D1*
X2214622D2*
X3065567D1*
X3155505D2*
X4027766D1*
X5062104D2*
X5153991D1*
X430316Y2376218D2*
X500888D1*
X575719D2*
X598314D1*
X797950D2*
X923999D1*
X972275D2*
X993614D1*
X1216898D2*
X1271071D1*
X1379274D2*
X1998874D1*
X2096204D2*
X2124397D1*
X2206942D2*
X3055412D1*
X3159129D2*
X4052633D1*
X5062104D2*
X5153991D1*
X430388Y2351349D2*
X498628D1*
X577980D2*
X602225D1*
X794038D2*
X898665D1*
X1216898D2*
X1295939D1*
X1404141D2*
X1998874D1*
X2096204D2*
X3030544D1*
X3147826D2*
X4077501D1*
X5062104D2*
X5153991D1*
X430424Y2326480D2*
X485028D1*
X591580D2*
X613565D1*
X782699D2*
X893605D1*
X1002669D2*
X1024582D1*
X1071674D2*
X1086841D1*
X1216898D2*
X1320806D1*
X1429009D2*
X1998874D1*
X2096204D2*
X3005676D1*
X3103975D2*
X4109438D1*
X5062104D2*
X5153991D1*
X430460Y2301612D2*
X485422D1*
X591149D2*
X636351D1*
X759913D2*
X901248D1*
X1216898D2*
X1345674D1*
X1453877D2*
X1998874D1*
X2096204D2*
X2980809D1*
X3079108D2*
X4945970D1*
X5053348D2*
X5153991D1*
X430532Y2276743D2*
X500314D1*
X576293D2*
X925183D1*
X971091D2*
X993578D1*
X1216898D2*
X1370542D1*
X1478745D2*
X1998874D1*
X2096204D2*
X2955941D1*
X3054240D2*
X4865374D1*
X5061781D2*
X5153991D1*
X430568Y2251874D2*
X898916D1*
X1216898D2*
X1395409D1*
X1503612D2*
X1998874D1*
X2096204D2*
X2931073D1*
X3029372D2*
X4840507D1*
X5059197D2*
X5153991D1*
X430603Y2227005D2*
X893569D1*
X1002669D2*
X1025802D1*
X1070454D2*
X1086841D1*
X1216898D2*
X1420277D1*
X1528480D2*
X1998874D1*
X2096204D2*
X2906205D1*
X3213063D2*
X4815639D1*
X4924990D2*
X4955767D1*
X5043551D2*
X5153991D1*
X430639Y2202136D2*
X900925D1*
X1216898D2*
X1445145D1*
X1553348D2*
X1998874D1*
X2096204D2*
X2881338D1*
X3218482D2*
X4790771D1*
X5053025D2*
X5153991D1*
X430711Y2177268D2*
X926475D1*
X969799D2*
X993578D1*
X1216898D2*
X1470013D1*
X1578216D2*
X1998874D1*
X2096204D2*
X2856470D1*
X3209403D2*
X4765903D1*
X5061709D2*
X5153991D1*
X430747Y2152399D2*
X899167D1*
X1216898D2*
X1494880D1*
X1603083D2*
X1998874D1*
X2096204D2*
X2831602D1*
X3028331D2*
X4741036D1*
X5059341D2*
X5153991D1*
X430783Y2127530D2*
X893569D1*
X1002705D2*
X1027130D1*
X1069127D2*
X1086841D1*
X1216898D2*
X1519748D1*
X1627198D2*
X1998874D1*
X2096204D2*
X2806950D1*
X3003464D2*
X4716168D1*
X5044090D2*
X5153991D1*
X430855Y2102661D2*
X900602D1*
X1216898D2*
X1544616D1*
X1633549D2*
X1998874D1*
X2096204D2*
X2799450D1*
X2978596D2*
X4081879D1*
X4147057D2*
X4353128D1*
X4418341D2*
X4691300D1*
X5052666D2*
X5153991D1*
X430891Y2077793D2*
X927839D1*
X968436D2*
X993578D1*
X1216898D2*
X1559293D1*
X1630284D2*
X1998874D1*
X2096204D2*
X2797153D1*
X2953728D2*
X4066700D1*
X4433520D2*
X4666432D1*
X4922227D2*
X4937681D1*
X5061673D2*
X5153991D1*
X430926Y2052924D2*
X899454D1*
X1216898D2*
X1559293D1*
X1630284D2*
X1998874D1*
X2096204D2*
X2786281D1*
X2940738D2*
X3014037D1*
X3211233D2*
X4067741D1*
X4432480D2*
X4623981D1*
X4897359D2*
X4939798D1*
X5059520D2*
X5153991D1*
X430998Y2028055D2*
X497444D1*
X579164D2*
X893569D1*
X1002705D2*
X1028601D1*
X1067691D2*
X1086841D1*
X1216898D2*
X1559293D1*
X1630284D2*
X1998874D1*
X2096204D2*
X2790228D1*
X2921540D2*
X3005066D1*
X3218589D2*
X4086939D1*
X4141997D2*
X4358187D1*
X4413282D2*
X4616661D1*
X4872492D2*
X4954690D1*
X5044628D2*
X5153991D1*
X431034Y2003186D2*
X484741D1*
X591831D2*
X632763D1*
X763501D2*
X900315D1*
X1216898D2*
X1559293D1*
X1630284D2*
X1998874D1*
X2096204D2*
X2818505D1*
X2851387D2*
X2990067D1*
X3243421D2*
X4582535D1*
X5052343D2*
X5153991D1*
X431070Y1978318D2*
X485781D1*
X590826D2*
X611771D1*
X784493D2*
X929346D1*
X966893D2*
X993542D1*
X1216898D2*
X1559293D1*
X1630284D2*
X1998874D1*
X2096204D2*
X2969326D1*
X3268289D2*
X4547261D1*
X5061601D2*
X5153991D1*
X431106Y1953449D2*
X501678D1*
X574894D2*
X601436D1*
X794828D2*
X899741D1*
X1216898D2*
X1559293D1*
X1630284D2*
X1998874D1*
X2096204D2*
X2948621D1*
X3293157D2*
X4522393D1*
X5059663D2*
X5153991D1*
X431178Y1928580D2*
X497910D1*
X578662D2*
X598278D1*
X797986D2*
X893569D1*
X1002705D2*
X1031974D1*
X1064282D2*
X1086841D1*
X1216898D2*
X1559293D1*
X1630284D2*
X1998874D1*
X2096204D2*
X2927880D1*
X3318025D2*
X4512059D1*
X4595860D2*
X4954188D1*
X5045130D2*
X5153991D1*
X431213Y1903711D2*
X484848D1*
X591723D2*
X601579D1*
X862003D2*
X900028D1*
X996246D2*
X1086841D1*
X1216898D2*
X1559293D1*
X1630284D2*
X1998874D1*
X2096204D2*
X2907138D1*
X3035544D2*
X3050711D1*
X3235132D2*
X3244593D1*
X3342892D2*
X4512059D1*
X4583014D2*
X4947334D1*
X5051984D2*
X5153991D1*
X431249Y1878843D2*
X485638D1*
X590970D2*
X612094D1*
X884467D2*
X931068D1*
X965206D2*
X1086841D1*
X1216898D2*
X1559293D1*
X1630284D2*
X1998874D1*
X2096204D2*
X2886433D1*
X3010676D2*
X3059467D1*
X3226340D2*
X3269461D1*
X3367760D2*
X4499320D1*
X4595753D2*
X4937789D1*
X5061529D2*
X5153991D1*
X431321Y1853974D2*
X501104D1*
X575504D2*
X633409D1*
X892756D2*
X1086841D1*
X1222101D2*
X1559293D1*
X1630284D2*
X1998874D1*
X2096204D2*
X2865692D1*
X3008236D2*
X3078665D1*
X3207178D2*
X3294329D1*
X3392628D2*
X4501545D1*
X4593528D2*
X4818151D1*
X4898974D2*
X4939475D1*
X5059843D2*
X5153991D1*
X431357Y1829105D2*
X744470D1*
X891966D2*
X1086841D1*
X1246538D2*
X1461652D1*
X1545238D2*
X1559293D1*
X1630284D2*
X1998874D1*
X2096204D2*
X2174993D1*
X2235040D2*
X2844987D1*
X3008236D2*
X3319197D1*
X4907515D2*
X4953685D1*
X5045633D2*
X5153991D1*
X431393Y1804236D2*
X754661D1*
X881775D2*
X1086841D1*
X1249552D2*
X1454295D1*
X1630284D2*
X1998874D1*
X2096204D2*
X2157769D1*
X3007447D2*
X3344064D1*
X4901558D2*
X4933231D1*
X4996507D2*
X5153991D1*
X431429Y1779367D2*
X781933D1*
X854503D2*
X1086841D1*
X1237352D2*
X1429428D1*
X1545238D2*
X1559293D1*
X1630284D2*
X1998874D1*
X2096204D2*
X2157697D1*
X2989935D2*
X3084909D1*
X3161175D2*
X3211257D1*
X3287559D2*
X3375427D1*
X5012440D2*
X5153991D1*
X431501Y1754499D2*
X1091865D1*
X1188944D2*
X1404560D1*
X1502859D2*
X1547881D1*
X1630284D2*
X1998874D1*
X2096204D2*
X2174563D1*
X2235506D2*
X2866769D1*
X2965068D2*
X3066428D1*
X3179619D2*
X3192812D1*
X3306003D2*
X3536045D1*
X5011866D2*
X5153991D1*
X431536Y1729630D2*
X1115513D1*
X1477991D2*
X1523014D1*
X1621277D2*
X1998874D1*
X2096204D2*
X2841901D1*
X2940200D2*
X3062696D1*
X3309771D2*
X3511177D1*
X4993601D2*
X5153991D1*
X431572Y1704761D2*
X1050168D1*
X1596445D2*
X1998874D1*
X2096204D2*
X2817033D1*
X2915332D2*
X3070232D1*
X3175815D2*
X3196616D1*
X3302200D2*
X3486309D1*
X3584608D2*
X5153991D1*
X431644Y1679892D2*
X1020491D1*
X1571577D2*
X1998874D1*
X2096204D2*
X2792166D1*
X2890464D2*
X3083581D1*
X3162502D2*
X3188901D1*
X3309879D2*
X3461441D1*
X3559740D2*
X5153991D1*
X431680Y1655024D2*
X995624D1*
X1546709D2*
X1998874D1*
X2096204D2*
X2767298D1*
X2865597D2*
X3066034D1*
X3180014D2*
X3188901D1*
X3309879D2*
X3436574D1*
X3534873D2*
X5153991D1*
X431716Y1630155D2*
X970756D1*
X1069055D2*
X1998874D1*
X2096204D2*
X2742430D1*
X2840729D2*
X3062768D1*
X3309879D2*
X3411706D1*
X3510005D2*
X4711718D1*
X4777076D2*
X5153991D1*
X431788Y1605286D2*
X945888D1*
X1044187D2*
X1998874D1*
X2096204D2*
X2717562D1*
X2815861D2*
X2858515D1*
X4792183D2*
X5153991D1*
X431824Y1580417D2*
X921021D1*
X1019319D2*
X1998874D1*
X2096204D2*
X2692695D1*
X2790993D2*
X2830490D1*
X4791106D2*
X5153991D1*
X431859Y1555549D2*
X896153D1*
X994452D2*
X1998874D1*
X2096204D2*
X2276438D1*
X2330456D2*
X2667827D1*
X2766126D2*
X2805622D1*
X3533832D2*
X4716957D1*
X4771836D2*
X5153991D1*
X431895Y1530680D2*
X873761D1*
X969584D2*
X1998874D1*
X2096204D2*
X2256809D1*
X2741258D2*
X2780754D1*
X3508964D2*
X4867994D1*
X4935755D2*
X5045190D1*
X5112916D2*
X5153991D1*
X431967Y1505811D2*
X870316D1*
X944716D2*
X1998874D1*
X2096204D2*
X2255589D1*
X2716390D2*
X2755887D1*
X3481262D2*
X4853856D1*
X5127054D2*
X5153991D1*
X432003Y1480942D2*
X628636D1*
X710536D2*
X853989D1*
X2096204D2*
X2270481D1*
X2336448D2*
X2731019D1*
X2868683D2*
X3055340D1*
X3230503D2*
X4627426D1*
X4664507D2*
X4855506D1*
X5125403D2*
X5153991D1*
X432039Y1456073D2*
X607752D1*
X731421D2*
X840173D1*
X2096204D2*
X2706151D1*
X2843815D2*
X3049383D1*
X3236460D2*
X4509116D1*
X4585992D2*
X4600944D1*
X4690989D2*
X4876176D1*
X4927574D2*
X5053336D1*
X5104734D2*
X5153991D1*
X432111Y1431205D2*
X601328D1*
X737844D2*
X837446D1*
X2095809D2*
X2681248D1*
X2818947D2*
X3050424D1*
X3235419D2*
X4498782D1*
X4701216D2*
X5063742D1*
X5133693D2*
X5153991D1*
X432146Y1406336D2*
X601221D1*
X737952D2*
X837446D1*
X2794079D2*
X3058713D1*
X3227130D2*
X4503195D1*
X4591913D2*
X4608802D1*
X432182Y1381467D2*
X601221D1*
X737952D2*
X837446D1*
X974177D2*
X1230952D1*
X2769212D2*
X3077050D1*
X3208793D2*
X4512059D1*
X4593492D2*
X4652653D1*
X5144709D2*
X5153991D1*
X432218Y1356598D2*
X601221D1*
X737952D2*
X837446D1*
X974177D2*
X1236191D1*
X2744344D2*
X3129585D1*
X3156259D2*
X4520169D1*
X4618360D2*
X5074938D1*
X5122497D2*
X5153991D1*
X432290Y1331730D2*
X601221D1*
X737952D2*
X837446D1*
X974177D2*
X1349514D1*
X2719476D2*
X4544929D1*
X4643228D2*
X5153991D1*
X432326Y1306861D2*
X605060D1*
X734112D2*
X838630D1*
X972993D2*
X1361714D1*
X2687898D2*
X4569796D1*
X4668095D2*
X5153991D1*
X432362Y1281992D2*
X620993D1*
X718179D2*
X848965D1*
X962658D2*
X1315029D1*
X1402096D2*
X1529545D1*
X1641767D2*
X1726405D1*
X1817527D2*
X4594664D1*
X4692963D2*
X4838641D1*
X5122568D2*
X5153991D1*
X432434Y1257123D2*
X720069D1*
X855329D2*
X881297D1*
X930327D2*
X1306381D1*
X1407479D2*
X1553515D1*
X1666634D2*
X1736453D1*
X1807444D2*
X4619532D1*
X4717831D2*
X4833294D1*
X5127951D2*
X5153991D1*
X432469Y1232255D2*
X682929D1*
X892469D2*
X1281513D1*
X1398256D2*
X1593203D1*
X1691502D2*
X1736453D1*
X1807444D2*
X4644400D1*
X4742698D2*
X4842480D1*
X5118729D2*
X5153991D1*
X432505Y1207386D2*
X671661D1*
X903736D2*
X1256645D1*
X1354980D2*
X1618071D1*
X1716370D2*
X1736453D1*
X1807444D2*
X4669267D1*
X4767566D2*
X5153991D1*
X432577Y1182517D2*
X671015D1*
X904418D2*
X1231778D1*
X1330112D2*
X1642939D1*
X1807444D2*
X4694135D1*
X4930229D2*
X5153991D1*
X432613Y1157648D2*
X680561D1*
X894837D2*
X1206910D1*
X1305209D2*
X1667806D1*
X1807444D2*
X4719003D1*
X4955097D2*
X5153991D1*
X432649Y1132780D2*
X709806D1*
X865592D2*
X1182042D1*
X1280341D2*
X1677423D1*
X1807444D2*
X4745737D1*
X4979965D2*
X5153991D1*
X432685Y1107911D2*
X1157174D1*
X1255473D2*
X1677423D1*
X1807444D2*
X4906534D1*
X5015849D2*
X5153991D1*
X432757Y1083042D2*
X1132307D1*
X1230605D2*
X1677423D1*
X1807444D2*
X4931401D1*
X5044879D2*
X5153991D1*
X432792Y1058173D2*
X1107439D1*
X1205738D2*
X1677423D1*
X1807444D2*
X4951604D1*
X5049006D2*
X5153991D1*
X432828Y1033304D2*
X1082571D1*
X1180870D2*
X1677423D1*
X1807444D2*
X4962262D1*
X5038312D2*
X5153991D1*
X432900Y1008436D2*
X1057703D1*
X1156002D2*
X1677423D1*
X1807444D2*
X5153991D1*
X432936Y983567D2*
X1032836D1*
X1131135D2*
X1677423D1*
X1807444D2*
X5153991D1*
X432972Y958698D2*
X988878D1*
X1106267D2*
X1677423D1*
X1807444D2*
X5153991D1*
X433044Y933829D2*
X975672D1*
X1081399D2*
X1677423D1*
X1807444D2*
X5153991D1*
X433079Y908961D2*
X977969D1*
X1069880D2*
X1677423D1*
X1807444D2*
X4703393D1*
X4746000D2*
X5153991D1*
X433115Y884092D2*
X1000289D1*
X1047560D2*
X1677423D1*
X1807444D2*
X4679207D1*
X4770222D2*
X4871654D1*
X4932095D2*
X5153991D1*
X433151Y859223D2*
X1677423D1*
X1807444D2*
X4668334D1*
X4773128D2*
X4854573D1*
X4949176D2*
X5153991D1*
X433223Y834354D2*
X1677423D1*
X1807444D2*
X4643467D1*
X4760856D2*
X4840327D1*
X4949176D2*
X5153991D1*
X433259Y809486D2*
X1677423D1*
X1807444D2*
X3339076D1*
X4716898D2*
X4815460D1*
X4932167D2*
X5153991D1*
X433295Y784617D2*
X1677423D1*
X1807444D2*
X3314209D1*
X4692030D2*
X4790592D1*
X4888891D2*
X5153991D1*
X433367Y759748D2*
X1677423D1*
X1807444D2*
X3289341D1*
X4864023D2*
X5153991D1*
X433402Y734879D2*
X968495D1*
X1052728D2*
X1118491D1*
X1202723D2*
X1456018D1*
X1540250D2*
X1606014D1*
X1807444D2*
X1945622D1*
X2029854D2*
X2095618D1*
X2179850D2*
X2431027D1*
X2515259D2*
X2581023D1*
X2665255D2*
X2918478D1*
X3002746D2*
X3068510D1*
X3152742D2*
X3264473D1*
X4839155D2*
X5153991D1*
X433438Y710010D2*
X948041D1*
X1073182D2*
X1098037D1*
X1223177D2*
X1435564D1*
X1560704D2*
X1585560D1*
X1807444D2*
X1925168D1*
X2050308D2*
X2075164D1*
X2200304D2*
X2410573D1*
X2535677D2*
X2560569D1*
X2685709D2*
X2898060D1*
X3023164D2*
X3048056D1*
X3173160D2*
X3239605D1*
X3510687D2*
X3535578D1*
X3660683D2*
X3873069D1*
X3998173D2*
X4023065D1*
X4148169D2*
X4360592D1*
X4485696D2*
X4510587D1*
X4635692D2*
X5153991D1*
X433474Y685142D2*
X941726D1*
X1079497D2*
X1091722D1*
X1229493D2*
X1429248D1*
X1567020D2*
X1579271D1*
X1807444D2*
X1918852D1*
X2056624D2*
X2068848D1*
X2206619D2*
X2404257D1*
X2542029D2*
X2554253D1*
X2692025D2*
X2891708D1*
X3029516D2*
X3041740D1*
X3179512D2*
X3214738D1*
X3517038D2*
X3529227D1*
X3667034D2*
X3866717D1*
X4004489D2*
X4016713D1*
X4154521D2*
X4354240D1*
X4492012D2*
X4504236D1*
X4642007D2*
X5153991D1*
X433546Y660273D2*
X945099D1*
X1076124D2*
X1095095D1*
X1226120D2*
X1432621D1*
X1563647D2*
X1582617D1*
X1807444D2*
X1922225D1*
X2053250D2*
X2072221D1*
X2203246D2*
X2407631D1*
X2538656D2*
X2557626D1*
X2688652D2*
X2895081D1*
X3026143D2*
X3045077D1*
X3176138D2*
X3189870D1*
X3347234D2*
X3382604D1*
X3513665D2*
X3532600D1*
X3663661D2*
X3870091D1*
X4001116D2*
X4020087D1*
X4151148D2*
X4357613D1*
X4488638D2*
X4507609D1*
X4638670D2*
X5153991D1*
X433582Y635404D2*
X960170D1*
X1061053D2*
X1110166D1*
X1211049D2*
X1447693D1*
X1548575D2*
X1597689D1*
X1807444D2*
X1937297D1*
X2038179D2*
X2087292D1*
X2188175D2*
X2422702D1*
X2523585D2*
X2572698D1*
X2673580D2*
X2910189D1*
X3011071D2*
X3060185D1*
X3322366D2*
X3397711D1*
X3498558D2*
X3547707D1*
X3648590D2*
X3885162D1*
X3986045D2*
X4035158D1*
X4136040D2*
X4372685D1*
X4473567D2*
X4522680D1*
X4623563D2*
X5153991D1*
X433618Y610535D2*
X1677423D1*
X1821116D2*
X3140134D1*
X3297499D2*
X5153991D1*
X433689Y585667D2*
X494788D1*
X608194D2*
X1677818D1*
X1845983D2*
X3115267D1*
X3272631D2*
X4982967D1*
X5096373D2*
X5153991D1*
X433725Y560798D2*
X471679D1*
X631304D2*
X1693786D1*
X1870851D2*
X3090399D1*
X3247763D2*
X4959857D1*
X5119482D2*
X5153991D1*
X433761Y535929D2*
X460770D1*
X642177D2*
X1718654D1*
X3222860D2*
X4948949D1*
X5130391D2*
X5153991D1*
X433833Y511060D2*
X457612D1*
X645334D2*
X1743522D1*
X3197992D2*
X4945791D1*
X5133549D2*
X5153991D1*
X433869Y486192D2*
X461380D1*
X641602D2*
X1768390D1*
X3173124D2*
X4949559D1*
X5129781D2*
X5153991D1*
X433905Y461323D2*
X473006D1*
X629940D2*
X1793257D1*
X3148256D2*
X4961221D1*
X5118119D2*
X5153991D1*
X433941Y436454D2*
X497731D1*
X605216D2*
X4985945D1*
X5093395D2*
X5153991D1*
X4948890Y2430335D2*
X5059617D1*
Y2310421D1*
X5044294D1*
X5048166Y2305620D1*
X5053082Y2297598D1*
X5056682Y2288906D1*
X5058879Y2279757D1*
X5059617Y2270378D1*
X5058879Y2260999D1*
X5056682Y2251850D1*
X5053082Y2243158D1*
X5048166Y2235136D1*
X5042056Y2227982D1*
X5034902Y2221872D1*
X5032715Y2220411D1*
X5038599Y2215969D1*
X5045252Y2209317D1*
X5050782Y2201705D1*
X5055053Y2193322D1*
X5057960Y2184375D1*
X5059432Y2175082D1*
Y2165674D1*
X5057960Y2156381D1*
X5055053Y2147434D1*
X5050782Y2139051D1*
X5045252Y2131439D1*
X5038599Y2124787D1*
X5032715Y2120411D1*
X5038599Y2115969D1*
X5045252Y2109317D1*
X5050782Y2101705D1*
X5055053Y2093322D1*
X5057960Y2084375D1*
X5059432Y2075082D1*
Y2065674D1*
X5057960Y2056381D1*
X5055053Y2047434D1*
X5050782Y2039051D1*
X5045252Y2031439D1*
X5038599Y2024787D1*
X5032715Y2020411D1*
X5038599Y2015969D1*
X5045252Y2009317D1*
X5050782Y2001705D1*
X5055053Y1993322D1*
X5057960Y1984375D1*
X5059432Y1975082D1*
Y1965674D1*
X5057960Y1956381D1*
X5055053Y1947434D1*
X5050782Y1939051D1*
X5045252Y1931439D1*
X5038599Y1924787D1*
X5032715Y1920411D1*
X5038809Y1915789D1*
X5044067Y1910662D1*
X5048660Y1904930D1*
X5052517Y1898680D1*
X5055580Y1892005D1*
X5057805Y1885006D1*
X5059157Y1877787D1*
X5059617Y1870378D1*
X5059167Y1863047D1*
X5057824Y1855827D1*
X5055609Y1848824D1*
X5052554Y1842145D1*
X5048705Y1835890D1*
X5044120Y1830152D1*
X5038868Y1825018D1*
X5033028Y1820565D1*
X5026687Y1816858D1*
X5019941Y1813955D1*
X5012890Y1811899D1*
X5005641Y1810720D1*
X4998302Y1810437D1*
X4990983Y1811052D1*
X4983795Y1812558D1*
X4976845Y1814932D1*
X4970237Y1818138D1*
X4964070Y1822127D1*
X4958438Y1826841D1*
X4953424Y1832207D1*
X4949104Y1838147D1*
X4945542Y1844570D1*
X4942793Y1851380D1*
X4940897Y1858476D1*
X4939882Y1865750D1*
X4939765Y1873094D1*
X4940546Y1880396D1*
X4942215Y1887549D1*
X4944745Y1894444D1*
X4948100Y1900977D1*
X4952228Y1907052D1*
X4957068Y1912576D1*
X4962547Y1917467D1*
X4966579Y1920376D1*
X4960721Y1924787D1*
X4954069Y1931439D1*
X4949652Y1937384D1*
X4602171Y1937390D1*
X4580528Y1915766D1*
X4580532Y1903130D1*
X4585156Y1897705D1*
X4588968Y1891485D1*
X4591760Y1884745D1*
X4593463Y1877651D1*
X4594035Y1870378D1*
X4593463Y1863105D1*
X4591760Y1856011D1*
X4588968Y1849271D1*
X4586004Y1844319D1*
X4815357Y1844311D1*
X4818926Y1851363D1*
X4823214Y1857265D1*
X4828373Y1862424D1*
X4834275Y1866712D1*
X4840775Y1870024D1*
X4847714Y1872278D1*
X4854919Y1873420D1*
X4862215D1*
X4869420Y1872278D1*
X4876359Y1870024D1*
X4882859Y1866712D1*
X4888761Y1862424D1*
X4893920Y1857265D1*
X4898208Y1851363D1*
X4901520Y1844863D1*
X4903774Y1837924D1*
X4904916Y1830719D1*
Y1823423D1*
X4903774Y1816217D1*
X4901520Y1809279D1*
X4898208Y1802779D1*
X4893920Y1796877D1*
X4888761Y1791718D1*
X4882859Y1787430D1*
X4878832Y1785258D1*
X4921708Y1785256D1*
X4925225Y1792308D1*
X4929513Y1798210D1*
X4934672Y1803369D1*
X4940574Y1807657D1*
X4947074Y1810969D1*
X4954013Y1813223D1*
X4961218Y1814365D1*
X4968514D1*
X4975720Y1813223D1*
X4982658Y1810969D1*
X4989158Y1807657D1*
X4995060Y1803369D1*
X5000219Y1798210D1*
X5004507Y1792308D1*
X5007819Y1785808D1*
X5010074Y1778869D1*
X5011215Y1771663D1*
Y1764368D1*
X5010074Y1757162D1*
X5007819Y1750224D1*
X5004507Y1743724D1*
X5000219Y1737822D1*
X4995060Y1732663D1*
X4989158Y1728375D1*
X4982658Y1725063D1*
X4975720Y1722808D1*
X4968514Y1721667D1*
X4961432Y1721659D1*
X4956819Y1720191D1*
X4951706Y1719381D1*
X4884814Y1719279D1*
X3596607D1*
X3446066Y1568705D1*
X3454531Y1572050D1*
X3502497Y1619872D1*
X3506685Y1622915D1*
X3511297Y1625265D1*
X3516220Y1626864D1*
X3521333Y1627674D1*
X3588226Y1627776D1*
X4711652D1*
X4717066Y1632400D1*
X4723287Y1636212D1*
X4730027Y1639004D1*
X4737121Y1640707D1*
X4744394Y1641280D1*
X4751667Y1640707D1*
X4758761Y1639004D1*
X4765501Y1636212D1*
X4771721Y1632400D1*
X4777269Y1627662D1*
X4782007Y1622115D1*
X4785818Y1615894D1*
X4788610Y1609154D1*
X4790313Y1602060D1*
X4790886Y1594787D1*
X4790313Y1587514D1*
X4788610Y1580421D1*
X4785818Y1573680D1*
X4782007Y1567460D1*
X4777269Y1561913D1*
X4771721Y1557174D1*
X4765501Y1553363D1*
X4758761Y1550571D1*
X4751667Y1548868D1*
X4744394Y1548295D1*
X4737121Y1548868D1*
X4730027Y1550571D1*
X4723287Y1553363D1*
X4717066Y1557174D1*
X4711634Y1561806D1*
X3537573Y1561799D1*
X3486290Y1510648D1*
X3482102Y1507605D1*
X3477490Y1505255D1*
X3472567Y1503655D1*
X3467454Y1502846D1*
X3400562Y1502744D1*
X3215722D1*
X3220518Y1495797D1*
X3224980Y1487771D1*
X3228614Y1479338D1*
X3231384Y1470583D1*
X3233263Y1461595D1*
X3234230Y1452464D1*
X3234296Y1443732D1*
X3233467Y1434587D1*
X3231725Y1425571D1*
X3229088Y1416776D1*
X3225582Y1408289D1*
X3221243Y1400196D1*
X3216114Y1392580D1*
X3210247Y1385516D1*
X3203701Y1379076D1*
X3196543Y1373325D1*
X3188844Y1368321D1*
X3180682Y1364114D1*
X3172139Y1360747D1*
X3163301Y1358253D1*
X3154258Y1356659D1*
X3145101Y1355979D1*
X3135922Y1356221D1*
X3126813Y1357382D1*
X3117866Y1359451D1*
X3109173Y1362406D1*
X3100819Y1366218D1*
X3092890Y1370849D1*
X3085465Y1376252D1*
X3078619Y1382372D1*
X3072422Y1389148D1*
X3066935Y1396511D1*
X3062214Y1404387D1*
X3058307Y1412697D1*
X3055253Y1421356D1*
X3053083Y1430279D1*
X3051818Y1439374D1*
X3051472Y1448550D1*
X3052047Y1457714D1*
X3053539Y1466775D1*
X3055932Y1475640D1*
X3059202Y1484220D1*
X3063316Y1492430D1*
X3068232Y1500185D1*
X3070115Y1502747D1*
X2887956Y1502744D1*
X2698889Y1313797D1*
X2694701Y1310755D1*
X2690089Y1308405D1*
X2685166Y1306805D1*
X2680053Y1305995D1*
X2613160Y1305894D1*
X1818002D1*
X1818445Y1299512D1*
X1817872Y1292239D1*
X1816169Y1285145D1*
X1813378Y1278405D1*
X1809566Y1272184D1*
X1804934Y1266752D1*
X1804941Y624207D1*
X1884062Y545078D1*
X3077199Y545099D1*
X3345017Y812785D1*
X3349205Y815828D1*
X3353817Y818178D1*
X3358740Y819778D1*
X3363853Y820587D1*
X3430745Y820689D1*
X4632327D1*
X4678237Y866621D1*
X4678789Y873714D1*
X4680492Y880808D1*
X4683284Y887548D1*
X4687096Y893768D1*
X4691834Y899316D1*
X4697381Y904054D1*
X4703602Y907866D1*
X4710342Y910658D1*
X4717436Y912361D1*
X4724709Y912933D1*
X4731982Y912361D1*
X4739076Y910658D1*
X4745816Y907866D1*
X4752036Y904054D1*
X4757584Y899316D1*
X4762322Y893768D1*
X4766133Y887548D1*
X4768925Y880808D1*
X4770628Y873714D1*
X4771201Y866441D1*
X4770628Y859168D1*
X4768925Y852074D1*
X4766133Y845334D1*
X4762322Y839114D1*
X4757584Y833566D1*
X4752036Y828828D1*
X4745816Y825016D1*
X4739076Y822224D1*
X4731982Y820521D1*
X4724865Y819955D1*
X4686249Y781329D1*
X4789808Y781319D1*
X4855407Y846941D1*
X4855954Y854029D1*
X4857657Y861123D1*
X4860449Y867863D1*
X4864261Y874083D1*
X4868999Y879631D1*
X4874547Y884369D1*
X4880767Y888181D1*
X4887507Y890973D1*
X4894601Y892676D1*
X4901874Y893248D1*
X4909147Y892676D1*
X4916241Y890973D1*
X4922981Y888181D1*
X4929201Y884369D1*
X4934749Y879631D1*
X4939487Y874083D1*
X4943299Y867863D1*
X4946091Y861123D1*
X4947794Y854029D1*
X4948366Y846756D1*
X4947794Y839483D1*
X4946091Y832389D1*
X4943299Y825649D1*
X4939487Y819429D1*
X4934749Y813881D1*
X4929201Y809143D1*
X4922981Y805331D1*
X4916241Y802539D1*
X4909147Y800836D1*
X4902031Y800270D1*
X4824873Y723246D1*
X4820685Y720204D1*
X4816073Y717854D1*
X4811150Y716254D1*
X4806037Y715444D1*
X4739144Y715342D1*
X4630379D1*
X4634437Y707233D1*
X4636903Y700314D1*
X4638591Y693165D1*
X4639481Y685874D1*
X4639524Y677808D1*
X4638714Y670507D1*
X4637104Y663341D1*
X4634713Y656395D1*
X4631570Y649756D1*
X4627714Y643504D1*
X4623192Y637716D1*
X4618060Y632461D1*
X4612379Y627805D1*
X4606219Y623804D1*
X4599655Y620506D1*
X4592768Y617953D1*
X4585641Y616175D1*
X4578361Y615194D1*
X4571018Y615022D1*
X4563701Y615661D1*
X4556498Y617103D1*
X4549499Y619331D1*
X4542788Y622317D1*
X4536447Y626025D1*
X4530554Y630410D1*
X4525181Y635418D1*
X4520393Y640988D1*
X4516248Y647053D1*
X4512798Y653537D1*
X4510084Y660363D1*
X4508140Y667446D1*
X4506988Y674701D1*
X4506644Y682038D1*
X4507111Y689368D1*
X4508384Y696603D1*
X4510447Y703652D1*
X4513275Y710431D1*
X4515912Y715343D1*
X4480383Y715342D1*
X4484565Y706926D1*
X4487789Y697003D1*
X4489421Y686697D1*
Y676263D1*
X4487789Y665958D1*
X4484565Y656035D1*
X4479828Y646738D1*
X4473695Y638297D1*
X4466317Y630919D1*
X4457876Y624786D1*
X4448579Y620050D1*
X4438656Y616825D1*
X4428351Y615193D1*
X4417917D1*
X4407612Y616825D1*
X4397688Y620050D1*
X4388392Y624786D1*
X4379951Y630919D1*
X4372573Y638297D1*
X4366440Y646738D1*
X4361703Y656035D1*
X4358479Y665958D1*
X4356847Y676263D1*
Y686697D1*
X4358479Y697003D1*
X4361703Y706926D1*
X4365952Y715350D1*
X4142857Y715342D1*
X4146917Y707233D1*
X4149383Y700314D1*
X4151072Y693165D1*
X4151961Y685874D1*
X4152005Y677808D1*
X4151195Y670507D1*
X4149584Y663341D1*
X4147193Y656395D1*
X4144050Y649756D1*
X4140195Y643504D1*
X4135673Y637716D1*
X4130540Y632461D1*
X4124859Y627805D1*
X4118699Y623804D1*
X4112135Y620506D1*
X4105248Y617953D1*
X4098121Y616175D1*
X4090842Y615194D1*
X4083498Y615022D1*
X4076181Y615661D1*
X4068979Y617103D1*
X4061979Y619331D1*
X4055268Y622317D1*
X4048928Y626025D1*
X4043035Y630410D1*
X4037661Y635418D1*
X4032873Y640988D1*
X4028729Y647053D1*
X4025279Y653537D1*
X4022565Y660363D1*
X4020620Y667446D1*
X4019469Y674701D1*
X4019124Y682038D1*
X4019592Y689368D1*
X4020865Y696603D1*
X4022928Y703652D1*
X4025756Y710431D1*
X4028392Y715343D1*
X3992861Y715342D1*
X3997045Y706926D1*
X4000269Y697003D1*
X4001901Y686697D1*
Y676263D1*
X4000269Y665958D1*
X3997045Y656035D1*
X3992308Y646738D1*
X3986175Y638297D1*
X3978797Y630919D1*
X3970356Y624786D1*
X3961060Y620050D1*
X3951136Y616825D1*
X3940831Y615193D1*
X3930397D1*
X3920092Y616825D1*
X3910169Y620050D1*
X3900872Y624786D1*
X3892431Y630919D1*
X3885053Y638297D1*
X3878920Y646738D1*
X3874183Y656035D1*
X3870959Y665958D1*
X3869327Y676263D1*
Y686697D1*
X3870959Y697003D1*
X3874183Y706926D1*
X3878432Y715350D1*
X3655334Y715342D1*
X3658702Y708916D1*
X3661358Y702068D1*
X3663243Y694969D1*
X3664334Y687705D1*
X3664601Y679643D1*
X3663992Y672323D1*
X3662581Y665115D1*
X3660382Y658106D1*
X3657424Y651383D1*
X3653743Y645027D1*
X3649382Y639115D1*
X3644397Y633721D1*
X3638847Y628910D1*
X3632800Y624740D1*
X3626330Y621262D1*
X3619516Y618520D1*
X3612440Y616546D1*
X3605191Y615364D1*
X3597855Y614989D1*
X3590523Y615425D1*
X3583283Y616668D1*
X3576225Y618701D1*
X3569434Y621501D1*
X3562993Y625033D1*
X3556982Y629253D1*
X3551472Y634111D1*
X3546532Y639547D1*
X3542221Y645494D1*
X3538593Y651881D1*
X3535692Y658629D1*
X3533552Y665656D1*
X3532201Y672876D1*
X3531654Y680201D1*
X3531919Y687541D1*
X3532991Y694808D1*
X3534859Y701912D1*
X3537498Y708767D1*
X3540912Y715343D1*
X3505338Y715342D1*
X3509565Y706926D1*
X3512789Y697003D1*
X3514421Y686697D1*
Y676263D1*
X3512789Y665958D1*
X3509565Y656035D1*
X3504828Y646738D1*
X3498695Y638297D1*
X3491317Y630919D1*
X3482876Y624786D1*
X3473579Y620050D1*
X3463656Y616825D1*
X3453351Y615193D1*
X3442917D1*
X3432612Y616825D1*
X3422688Y620050D1*
X3413392Y624786D1*
X3404951Y630919D1*
X3397573Y638297D1*
X3391440Y646738D1*
X3386703Y656035D1*
X3383479Y665958D1*
X3381847Y676263D1*
Y686697D1*
X3383479Y697003D1*
X3384271Y699809D1*
X3131960Y447656D1*
X3127772Y444613D1*
X3123160Y442263D1*
X3118236Y440663D1*
X3113124Y439854D1*
X3046231Y439752D1*
X1828420Y439854D1*
X1823307Y440663D1*
X1818384Y442263D1*
X1813772Y444613D1*
X1809584Y447656D1*
X1762212Y494884D1*
X1687813Y569426D1*
X1684770Y573614D1*
X1682420Y578226D1*
X1680821Y583149D1*
X1680011Y588262D1*
X1679909Y623039D1*
X1672960Y619797D1*
X1666005Y617435D1*
X1658832Y615854D1*
X1651528Y615075D1*
X1644183Y615106D1*
X1636886Y615946D1*
X1629726Y617587D1*
X1622791Y620007D1*
X1616165Y623178D1*
X1609929Y627060D1*
X1604160Y631606D1*
X1598927Y636760D1*
X1594294Y642461D1*
X1590319Y648638D1*
X1587049Y655215D1*
X1584525Y662113D1*
X1582777Y669247D1*
X1581826Y676531D1*
X1581685Y683875D1*
X1582354Y691189D1*
X1583827Y698386D1*
X1586084Y705376D1*
X1589098Y712074D1*
X1592833Y718399D1*
X1597242Y724274D1*
X1602273Y729626D1*
X1607863Y734391D1*
X1613945Y738510D1*
X1620444Y741933D1*
X1627281Y744618D1*
X1634372Y746533D1*
X1641632Y747654D1*
X1648970Y747967D1*
X1656299Y747469D1*
X1663528Y746166D1*
X1670568Y744073D1*
X1677336Y741217D1*
X1679915Y739878D1*
X1679909Y1148024D1*
X1574957Y1253004D1*
X1567829Y1253592D1*
X1560736Y1255295D1*
X1553995Y1258087D1*
X1547775Y1261899D1*
X1542227Y1266637D1*
X1537489Y1272184D1*
X1533678Y1278405D1*
X1530886Y1285145D1*
X1529183Y1292239D1*
X1528610Y1299512D1*
X1529077Y1305893D1*
X1430669Y1305894D1*
X1425264Y1301269D1*
X1419044Y1297457D1*
X1412304Y1294665D1*
X1405210Y1292962D1*
X1397937Y1292390D1*
X1391613Y1292850D1*
X1396180Y1287469D1*
X1399992Y1281249D1*
X1402784Y1274509D1*
X1404487Y1267415D1*
X1405059Y1260142D1*
X1404487Y1252869D1*
X1402784Y1245775D1*
X1399992Y1239035D1*
X1396180Y1232814D1*
X1391442Y1227267D1*
X1385894Y1222529D1*
X1379674Y1218717D1*
X1372934Y1215925D1*
X1365840Y1214222D1*
X1358724Y1213656D1*
X1070428Y925350D1*
X1069841Y918223D1*
X1068138Y911129D1*
X1065346Y904389D1*
X1061534Y898169D1*
X1056796Y892621D1*
X1051249Y887883D1*
X1045028Y884071D1*
X1038288Y881279D1*
X1031194Y879576D1*
X1023921Y879004D1*
X1016648Y879576D1*
X1009554Y881279D1*
X1002814Y884071D1*
X996594Y887883D1*
X991046Y892621D1*
X986308Y898169D1*
X982496Y904389D1*
X979705Y911129D1*
X978002Y918223D1*
X977429Y925496D1*
X978002Y932769D1*
X979705Y939863D1*
X982496Y946603D1*
X986308Y952823D1*
X991046Y958371D1*
X996594Y963109D1*
X1002814Y966921D1*
X1009554Y969713D1*
X1016648Y971416D1*
X1023765Y971982D1*
X1312060Y1260288D1*
X1312647Y1267415D1*
X1314350Y1274509D1*
X1317142Y1281249D1*
X1320954Y1287469D1*
X1325692Y1293017D1*
X1331240Y1297755D1*
X1337460Y1301567D1*
X1344200Y1304358D1*
X1351294Y1306061D1*
X1358567Y1306634D1*
X1364891Y1306174D1*
X1360324Y1311555D1*
X1356512Y1317775D1*
X1353720Y1324515D1*
X1352017Y1331609D1*
X1351445Y1338882D1*
X1351912Y1345263D1*
X1312610Y1345264D1*
X1307154Y1340639D1*
X1300934Y1336827D1*
X1294194Y1334035D1*
X1287100Y1332332D1*
X1279827Y1331760D1*
X1272554Y1332332D1*
X1265460Y1334035D1*
X1258720Y1336827D1*
X1252499Y1340639D1*
X1246952Y1345377D1*
X1242214Y1350925D1*
X1238402Y1357145D1*
X1235610Y1363885D1*
X1233907Y1370979D1*
X1233335Y1378252D1*
X1233907Y1385525D1*
X1235188Y1391123D1*
X971700Y1391130D1*
X971637Y1319197D1*
X970862Y1308894D1*
X968450Y1298844D1*
X964495Y1289296D1*
X959095Y1280484D1*
X952383Y1272625D1*
X944524Y1265913D1*
X935712Y1260513D1*
X926164Y1256558D1*
X916114Y1254146D1*
X905811Y1253335D1*
X895508Y1254146D1*
X885458Y1256558D1*
X875910Y1260513D1*
X867098Y1265913D1*
X859239Y1272625D1*
X852527Y1280484D1*
X847127Y1289296D1*
X843172Y1298844D1*
X840760Y1308894D1*
X839950Y1319217D1*
X840152Y1442475D1*
X841769Y1452682D1*
X844962Y1462511D1*
X849654Y1471720D1*
X855729Y1480081D1*
X863037Y1487389D1*
X871398Y1493464D1*
X872826Y1494263D1*
X872924Y1518635D1*
X873734Y1523748D1*
X875334Y1528671D1*
X877684Y1533284D1*
X880727Y1537471D1*
X927955Y1584844D1*
X1041867Y1698612D1*
X1046055Y1701655D1*
X1050667Y1704005D1*
X1055590Y1705604D1*
X1060703Y1706414D1*
X1127596Y1706516D1*
X1141124D1*
X1097262Y1750529D1*
X1094219Y1754716D1*
X1091869Y1759329D1*
X1090270Y1764252D1*
X1089460Y1769365D1*
X1089358Y1836257D1*
Y1947032D1*
X1084963Y1942015D1*
X1078749Y1936707D1*
X1071780Y1932437D1*
X1064230Y1929309D1*
X1056283Y1927401D1*
X1048135Y1926760D1*
X1039988Y1927401D1*
X1032041Y1929309D1*
X1024490Y1932437D1*
X1017522Y1936707D1*
X1011307Y1942015D1*
X1005999Y1948229D1*
X1001729Y1955197D1*
X998602Y1962748D1*
X996694Y1970695D1*
X996052Y1978843D1*
X996694Y1986990D1*
X998602Y1994937D1*
X1001729Y2002488D1*
X1005999Y2009456D1*
X1011307Y2015671D1*
X1017522Y2020978D1*
X1024490Y2025249D1*
X1032041Y2028376D1*
X1033624Y2028823D1*
X1028204Y2030724D1*
X1020922Y2034435D1*
X1014310Y2039239D1*
X1008531Y2045018D1*
X1003727Y2051629D1*
X1000017Y2058911D1*
X997492Y2066684D1*
X996213Y2074756D1*
Y2082929D1*
X997492Y2091001D1*
X1000017Y2098774D1*
X1003727Y2106056D1*
X1008531Y2112668D1*
X1014310Y2118446D1*
X1020922Y2123250D1*
X1028204Y2126961D1*
X1033624Y2128823D1*
X1028204Y2130724D1*
X1020922Y2134435D1*
X1014310Y2139239D1*
X1008531Y2145018D1*
X1003727Y2151629D1*
X1000017Y2158911D1*
X997492Y2166684D1*
X996213Y2174756D1*
Y2182929D1*
X997492Y2191001D1*
X1000017Y2198774D1*
X1003727Y2206056D1*
X1008531Y2212668D1*
X1014310Y2218446D1*
X1020922Y2223250D1*
X1028204Y2226961D1*
X1033624Y2228823D1*
X1028204Y2230724D1*
X1020922Y2234435D1*
X1014310Y2239239D1*
X1008531Y2245018D1*
X1003727Y2251629D1*
X1000017Y2258911D1*
X997492Y2266684D1*
X996213Y2274756D1*
Y2282929D1*
X997492Y2291001D1*
X1000017Y2298774D1*
X1003727Y2306056D1*
X1008531Y2312668D1*
X1014310Y2318446D1*
X1020922Y2323250D1*
X1028204Y2326961D1*
X1033624Y2328823D1*
X1028204Y2330724D1*
X1020922Y2334435D1*
X1014310Y2339239D1*
X1008531Y2345018D1*
X1003727Y2351629D1*
X1000017Y2358911D1*
X997492Y2366684D1*
X996213Y2374756D1*
Y2382929D1*
X997492Y2391001D1*
X1000017Y2398774D1*
X1003727Y2406056D1*
X1008531Y2412668D1*
X1014310Y2418446D1*
X1020922Y2423250D1*
X1028204Y2426961D1*
X1035977Y2429486D1*
X1044049Y2430765D1*
X1052222D1*
X1060294Y2429486D1*
X1068066Y2426961D1*
X1075348Y2423250D1*
X1081960Y2418446D1*
X1087739Y2412668D1*
X1089351Y2410623D1*
X1089358Y2683519D1*
X826935Y2945908D1*
X819798Y2946505D1*
X812704Y2948209D1*
X805964Y2951000D1*
X799743Y2954812D1*
X794196Y2959550D1*
X789458Y2965098D1*
X785646Y2971318D1*
X782854Y2978058D1*
X781151Y2985152D1*
X780579Y2992425D1*
X781151Y2999698D1*
X782854Y3006792D1*
X785646Y3013532D1*
X789458Y3019753D1*
X794196Y3025300D1*
X799743Y3030038D1*
X805964Y3033850D1*
X812704Y3036642D1*
X819798Y3038345D1*
X827071Y3038917D1*
X834344Y3038345D1*
X841438Y3036642D1*
X848178Y3033850D1*
X854398Y3030038D1*
X859946Y3025300D1*
X864684Y3019753D1*
X868496Y3013532D1*
X871288Y3006792D1*
X872991Y2999698D1*
X873557Y2992582D1*
X1147437Y2718566D1*
X1148413Y2722084D1*
Y2880369D1*
X1082791Y2945958D1*
X1075703Y2946505D1*
X1068610Y2948209D1*
X1061869Y2951000D1*
X1055649Y2954812D1*
X1050101Y2959550D1*
X1045363Y2965098D1*
X1041552Y2971318D1*
X1038760Y2978058D1*
X1037057Y2985152D1*
X1036484Y2992425D1*
X1037057Y2999698D1*
X1038760Y3006792D1*
X1041552Y3013532D1*
X1045363Y3019753D1*
X1050101Y3025300D1*
X1055649Y3030038D1*
X1061869Y3033850D1*
X1068610Y3036642D1*
X1075703Y3038345D1*
X1082976Y3038917D1*
X1090249Y3038345D1*
X1097343Y3036642D1*
X1104083Y3033850D1*
X1110304Y3030038D1*
X1115851Y3025300D1*
X1120589Y3019753D1*
X1124401Y3013532D1*
X1127193Y3006792D1*
X1128896Y2999698D1*
X1129462Y2992582D1*
X1206486Y2915424D1*
X1209529Y2911236D1*
X1211879Y2906624D1*
X1213478Y2901701D1*
X1214288Y2896588D1*
X1214390Y2829696D1*
Y2499453D1*
X1219350Y2502354D1*
X1226090Y2505146D1*
X1233184Y2506849D1*
X1240457Y2507421D1*
X1247730Y2506849D1*
X1254824Y2505146D1*
X1261564Y2502354D1*
X1267784Y2498542D1*
X1273332Y2493804D1*
X1278070Y2488257D1*
X1281881Y2482036D1*
X1284673Y2475296D1*
X1286376Y2468202D1*
X1286589Y2466404D1*
X1622536Y2130298D1*
X1625902Y2125666D1*
X1628502Y2120563D1*
X1630271Y2115117D1*
X1631167Y2109462D1*
Y2103735D1*
X1630271Y2098079D1*
X1628502Y2092633D1*
X1627775Y2091058D1*
X1627674Y1749679D1*
X1626864Y1744567D1*
X1625265Y1739644D1*
X1622915Y1735031D1*
X1619872Y1730844D1*
X1572644Y1683471D1*
X1537471Y1648443D1*
X1533284Y1645400D1*
X1528671Y1643050D1*
X1523748Y1641451D1*
X1518635Y1640641D1*
X1451743Y1640539D1*
X1076932D1*
X938814Y1502398D1*
X938799Y1494337D1*
X944524Y1490591D1*
X952383Y1483879D1*
X953055Y1483484D1*
X2001340D1*
X2001366Y2579039D1*
X2001935Y2586263D1*
X2003626Y2593309D1*
X2006399Y2600003D1*
X2010185Y2606182D1*
X2014901Y2611701D1*
X2234089Y2830688D1*
X2239951Y2834947D1*
X2246408Y2838237D1*
X2253299Y2840476D1*
X2260456Y2841610D1*
X2291638Y2841752D1*
X3704710Y2841610D1*
X3711866Y2840476D1*
X3718758Y2838237D1*
X3725214Y2834947D1*
X3731076Y2830688D1*
X3753226Y2808740D1*
X4145431Y2416535D1*
X4218216Y2416712D1*
X4211476Y2419504D1*
X4205255Y2423316D1*
X4199823Y2427948D1*
X4170939Y2428042D1*
X4165827Y2428852D1*
X4160903Y2430452D1*
X4156291Y2432802D1*
X4152103Y2435845D1*
X4104731Y2483073D1*
X3681265Y2906539D1*
X3674129Y2907135D1*
X3667035Y2908838D1*
X3660295Y2911630D1*
X3654074Y2915442D1*
X3648527Y2920180D1*
X3643789Y2925728D1*
X3639977Y2931948D1*
X3637185Y2938688D1*
X3635482Y2945782D1*
X3634909Y2953055D1*
X3635482Y2960328D1*
X3637185Y2967422D1*
X3639977Y2974162D1*
X3643789Y2980383D1*
X3648527Y2985930D1*
X3654074Y2990668D1*
X3660295Y2994480D1*
X3667035Y2997272D1*
X3674129Y2998975D1*
X3681402Y2999547D1*
X3688675Y2998975D1*
X3694272Y2997694D1*
X3695249Y3003279D1*
X3697504Y3010217D1*
X3700816Y3016717D1*
X3705104Y3022619D1*
X3710262Y3027778D1*
X3716165Y3032066D1*
X3722665Y3035378D1*
X3729603Y3037633D1*
X3736809Y3038774D1*
X3744104D1*
X3751310Y3037633D1*
X3758248Y3035378D1*
X3764749Y3032066D1*
X3770651Y3027778D1*
X3775810Y3022619D1*
X3780098Y3016717D1*
X3783410Y3010217D1*
X3785664Y3003279D1*
X3786805Y2996073D1*
X3786943Y2992582D1*
X3800397Y2979137D1*
X3803529Y2983249D1*
X3808688Y2988408D1*
X3814590Y2992696D1*
X3821090Y2996008D1*
X3828029Y2998263D1*
X3835234Y2999404D1*
X3842530D1*
X3849735Y2998263D1*
X3856674Y2996008D1*
X3863174Y2992696D1*
X3869076Y2988408D1*
X3874235Y2983249D1*
X3878523Y2977347D1*
X3881835Y2970847D1*
X3884089Y2963908D1*
X3885231Y2956703D1*
X3885368Y2953212D1*
X4135917Y2702672D1*
X4143005Y2702124D1*
X4150099Y2700421D1*
X4156839Y2697630D1*
X4163060Y2693818D1*
X4168607Y2689080D1*
X4173345Y2683532D1*
X4177157Y2677312D1*
X4179949Y2670572D1*
X4181652Y2663478D1*
X4182224Y2656205D1*
X4181652Y2648932D1*
X4179949Y2641838D1*
X4177157Y2635098D1*
X4173345Y2628877D1*
X4168607Y2623330D1*
X4163060Y2618592D1*
X4161791Y2617744D1*
X4185879Y2593656D1*
X4193005Y2593069D1*
X4200099Y2591366D1*
X4206839Y2588574D1*
X4213060Y2584763D1*
X4218607Y2580025D1*
X4223345Y2574477D1*
X4227157Y2568257D1*
X4229949Y2561516D1*
X4231652Y2554423D1*
X4232224Y2547150D1*
X4231652Y2539877D1*
X4229949Y2532783D1*
X4227157Y2526043D1*
X4223345Y2519822D1*
X4218607Y2514275D1*
X4213060Y2509537D1*
X4206839Y2505725D1*
X4200099Y2502933D1*
X4193005Y2501230D1*
X4185732Y2500657D1*
X4180060Y2501040D1*
X4187213Y2493896D1*
X4199831Y2493917D1*
X4205255Y2498542D1*
X4211476Y2502354D1*
X4218216Y2505146D1*
X4225310Y2506849D1*
X4232583Y2507421D1*
X4239856Y2506849D1*
X4246950Y2505146D1*
X4253690Y2502354D1*
X4259910Y2498542D1*
X4265458Y2493804D1*
X4270196Y2488257D1*
X4274007Y2482036D1*
X4276799Y2475296D1*
X4278502Y2468202D1*
X4279075Y2460929D1*
X4278502Y2453656D1*
X4276799Y2446562D1*
X4274007Y2439822D1*
X4270196Y2433602D1*
X4265458Y2428054D1*
X4259910Y2423316D1*
X4253690Y2419504D1*
X4246387Y2416554D1*
X4496572Y2416555D1*
X4500531Y2419802D1*
X4506751Y2423614D1*
X4513491Y2426406D1*
X4520585Y2428109D1*
X4527858Y2428681D1*
X4535131Y2428109D1*
X4542225Y2426406D1*
X4548965Y2423614D1*
X4555186Y2419802D1*
X4559110Y2416564D1*
X4742493Y2416664D1*
X4744748Y2423603D1*
X4748060Y2430103D1*
X4752348Y2436005D1*
X4757507Y2441164D1*
X4763409Y2445452D1*
X4769909Y2448764D1*
X4776847Y2451019D1*
X4784053Y2452160D1*
X4791349D1*
X4798554Y2451019D1*
X4805493Y2448764D1*
X4811993Y2445452D1*
X4817895Y2441164D1*
X4823054Y2436005D1*
X4827342Y2430103D1*
X4830654Y2423603D1*
X4832928Y2416566D1*
X4939670Y2416555D1*
X4939703Y2430335D1*
X4948890D1*
X4955014Y2310421D2*
X4939703D1*
Y2324165D1*
X4126283Y2324201D1*
X4119060Y2324769D1*
X4112014Y2326461D1*
X4105319Y2329234D1*
X4099141Y2333020D1*
X4093622Y2337736D1*
X3681939Y2749418D1*
X2283195Y2749398D1*
X2093714Y2559906D1*
X2093721Y2544985D1*
X2099325Y2546219D1*
X2106598Y2546791D1*
X2113871Y2546219D1*
X2120965Y2544516D1*
X2127705Y2541724D1*
X2133926Y2537912D1*
X2139473Y2533174D1*
X2144211Y2527627D1*
X2148023Y2521406D1*
X2150815Y2514666D1*
X2152518Y2507572D1*
X2153084Y2500456D1*
X2190738Y2462668D1*
X2193781Y2458480D1*
X2196131Y2453868D1*
X2197730Y2448945D1*
X2198540Y2443832D1*
X2198641Y2441234D1*
X2201006Y2432068D1*
X2205295Y2426166D1*
X2208607Y2419666D1*
X2210861Y2412727D1*
X2212002Y2405522D1*
Y2398226D1*
X2210861Y2391021D1*
X2208607Y2384082D1*
X2205295Y2377582D1*
X2201006Y2371680D1*
X2195848Y2366521D1*
X2189946Y2362233D1*
X2183445Y2358921D1*
X2176507Y2356666D1*
X2169301Y2355525D1*
X2162006D1*
X2154800Y2356666D1*
X2147862Y2358921D1*
X2141361Y2362233D1*
X2135459Y2366521D1*
X2130301Y2371680D1*
X2126012Y2377582D1*
X2122700Y2384082D1*
X2120446Y2391021D1*
X2119305Y2398226D1*
Y2405522D1*
X2120446Y2412727D1*
X2122700Y2419666D1*
X2126012Y2426166D1*
X2129336Y2430909D1*
X2106423Y2453822D1*
X2099325Y2454379D1*
X2093728Y2455661D1*
X2093578Y1433684D1*
X2092445Y1426527D1*
X2090206Y1419636D1*
X2086908Y1413168D1*
X2088226Y1411240D1*
X2663772D1*
X2852891Y1600187D1*
X2857079Y1603230D1*
X2861691Y1605580D1*
X2866614Y1607179D1*
X2871727Y1607989D1*
X2938619Y1608091D1*
X3071786D1*
X3068632Y1615129D1*
X3066531Y1622167D1*
X3065337Y1629413D1*
X3065068Y1636752D1*
X3065729Y1644067D1*
X3067309Y1651239D1*
X3069783Y1658154D1*
X3073112Y1664700D1*
X3077241Y1670774D1*
X3082104Y1676277D1*
X3087624Y1681121D1*
X3092369Y1684412D1*
X3085375Y1689531D1*
X3078941Y1695966D1*
X3073592Y1703327D1*
X3069461Y1711435D1*
X3066649Y1720089D1*
X3065226Y1729076D1*
Y1738176D1*
X3066649Y1747163D1*
X3069461Y1755817D1*
X3073592Y1763925D1*
X3078941Y1771286D1*
X3085375Y1777721D1*
X3092737Y1783069D1*
X3100844Y1787200D1*
X3109498Y1790012D1*
X3118486Y1791435D1*
X3127585D1*
X3136573Y1790012D1*
X3145227Y1787200D1*
X3153334Y1783069D1*
X3160696Y1777721D1*
X3167130Y1771286D1*
X3172478Y1763925D1*
X3176610Y1755817D1*
X3179421Y1747163D1*
X3180845Y1738176D1*
Y1729076D1*
X3179421Y1720089D1*
X3176610Y1711435D1*
X3172478Y1703327D1*
X3167130Y1695966D1*
X3160696Y1689531D1*
X3153704Y1684430D1*
X3159218Y1680516D1*
X3164656Y1675579D1*
X3169425Y1669994D1*
X3173451Y1663852D1*
X3176668Y1657250D1*
X3179025Y1650294D1*
X3180484Y1643096D1*
X3181024Y1635201D1*
X3180559Y1627871D1*
X3179171Y1620660D1*
X3176883Y1613681D1*
X3174289Y1608092D1*
X3191352Y1608091D1*
X3191386Y1693189D1*
X3207857D1*
X3202500Y1699541D1*
X3197746Y1707300D1*
X3194263Y1715707D1*
X3192139Y1724555D1*
X3191425Y1733626D1*
X3192139Y1742697D1*
X3194263Y1751545D1*
X3197746Y1759952D1*
X3202500Y1767711D1*
X3208410Y1774630D1*
X3215329Y1780539D1*
X3223087Y1785294D1*
X3231494Y1788776D1*
X3240342Y1790900D1*
X3249413Y1791614D1*
X3258485Y1790900D1*
X3267333Y1788776D1*
X3275739Y1785294D1*
X3283498Y1780539D1*
X3290417Y1774630D1*
X3296327Y1767711D1*
X3301081Y1759952D1*
X3304563Y1751545D1*
X3306688Y1742697D1*
X3307402Y1733626D1*
X3306688Y1724555D1*
X3304563Y1715707D1*
X3301081Y1707300D1*
X3296327Y1699541D1*
X3290936Y1693184D1*
X3307362Y1693189D1*
Y1608107D1*
X3392160Y1608091D1*
X3561560Y1777358D1*
X3556730Y1778335D1*
X3383538Y1778436D1*
X3378425Y1779246D1*
X3373502Y1780846D1*
X3368890Y1783196D1*
X3364702Y1786238D1*
X3317330Y1833467D1*
X3234230Y1916566D1*
X3233467Y1908603D1*
X3231725Y1899587D1*
X3229088Y1890791D1*
X3225582Y1882304D1*
X3221243Y1874212D1*
X3216114Y1866595D1*
X3210247Y1859532D1*
X3203701Y1853092D1*
X3196543Y1847341D1*
X3188844Y1842337D1*
X3180682Y1838130D1*
X3172139Y1834763D1*
X3163301Y1832269D1*
X3154258Y1830674D1*
X3145101Y1829995D1*
X3135922Y1830236D1*
X3126813Y1831398D1*
X3117866Y1833466D1*
X3109173Y1836422D1*
X3100819Y1840234D1*
X3092890Y1844865D1*
X3085465Y1850268D1*
X3078619Y1856388D1*
X3072422Y1863164D1*
X3066935Y1870527D1*
X3062214Y1878403D1*
X3058307Y1886712D1*
X3055253Y1895372D1*
X3053083Y1904294D1*
X3051818Y1913389D1*
X3051471Y1922142D1*
X3005750Y1876421D1*
X3005627Y1808735D1*
X3004817Y1803622D1*
X3003217Y1798699D1*
X3000867Y1794086D1*
X2997825Y1789899D1*
X2950596Y1742526D1*
X2698889Y1490963D1*
X2694701Y1487920D1*
X2690089Y1485570D1*
X2685166Y1483970D1*
X2680053Y1483161D1*
X2613160Y1483059D1*
X2336242D1*
X2330776Y1478434D1*
X2324556Y1474622D1*
X2317816Y1471831D1*
X2310722Y1470128D1*
X2303449Y1469555D1*
X2296176Y1470128D1*
X2289082Y1471831D1*
X2282342Y1474622D1*
X2276121Y1478434D1*
X2270574Y1483172D1*
X2265836Y1488720D1*
X2262024Y1494940D1*
X2259232Y1501680D1*
X2257529Y1508774D1*
X2256957Y1516047D1*
X2257529Y1523320D1*
X2259232Y1530414D1*
X2262024Y1537154D1*
X2265836Y1543375D1*
X2270574Y1548922D1*
X2276121Y1553660D1*
X2282342Y1557472D1*
X2289082Y1560264D1*
X2296176Y1561967D1*
X2303449Y1562539D1*
X2310722Y1561967D1*
X2317816Y1560264D1*
X2324556Y1557472D1*
X2330776Y1553660D1*
X2336209Y1549029D1*
X2663834Y1549035D1*
X2939773Y1825008D1*
X2939752Y1836765D1*
X2882528Y1768312D1*
X2878592Y1764950D1*
X2874178Y1762245D1*
X2869396Y1760264D1*
X2864363Y1759056D1*
X2859202Y1758650D1*
X2237796D1*
X2232351Y1754025D1*
X2226131Y1750213D1*
X2219390Y1747421D1*
X2212297Y1745718D1*
X2205024Y1745146D1*
X2197751Y1745718D1*
X2190657Y1747421D1*
X2183917Y1750213D1*
X2177696Y1754025D1*
X2172149Y1758763D1*
X2167411Y1764310D1*
X2163599Y1770531D1*
X2160807Y1777271D1*
X2159104Y1784365D1*
X2158531Y1791638D1*
X2159104Y1798911D1*
X2160807Y1806005D1*
X2163599Y1812745D1*
X2167411Y1818965D1*
X2172149Y1824513D1*
X2177696Y1829251D1*
X2183917Y1833063D1*
X2190657Y1835854D1*
X2197751Y1837558D1*
X2205024Y1838130D1*
X2212297Y1837558D1*
X2219390Y1835854D1*
X2226131Y1833063D1*
X2232351Y1829251D1*
X2237783Y1824619D1*
X2843726Y1824626D1*
X3007646Y2021301D1*
X3007625Y2029013D1*
X3008766Y2036218D1*
X3011021Y2043157D1*
X3014333Y2049657D1*
X3018621Y2055559D1*
X3023780Y2060718D1*
X3029682Y2065006D1*
X3036182Y2068318D1*
X3043120Y2070572D1*
X3050326Y2071714D1*
X3057621D1*
X3064827Y2070572D1*
X3071766Y2068318D1*
X3078266Y2065006D1*
X3080483Y2063524D1*
X3084783Y2067046D1*
X3091003Y2070858D1*
X3097743Y2073650D1*
X3104837Y2075353D1*
X3112110Y2075925D1*
X3119383Y2075353D1*
X3126477Y2073650D1*
X3133217Y2070858D1*
X3139438Y2067046D1*
X3141845Y2065148D1*
X3148484Y2069283D1*
X3155224Y2072075D1*
X3162318Y2073778D1*
X3169591Y2074350D1*
X3176864Y2073778D1*
X3183957Y2072075D1*
X3190698Y2069283D1*
X3196918Y2065471D1*
X3202465Y2060733D1*
X3207203Y2055186D1*
X3211015Y2048965D1*
X3213807Y2042225D1*
X3215510Y2035131D1*
X3216077Y2028015D1*
X3399791Y1844311D1*
X4509050D1*
X4506119Y1849271D1*
X4503327Y1856011D1*
X4501624Y1863105D1*
X4501051Y1870378D1*
X4501624Y1877651D1*
X4503327Y1884745D1*
X4506119Y1891485D1*
X4509930Y1897705D1*
X4514562Y1903138D1*
X4514657Y1932021D1*
X4515467Y1937134D1*
X4517066Y1942057D1*
X4519416Y1946669D1*
X4522459Y1950857D1*
X4565162Y1993704D1*
X4569098Y1997066D1*
X4573512Y1999771D1*
X4578294Y2001752D1*
X4583328Y2002960D1*
X4588498Y2003366D1*
X4626012Y2003566D1*
X4622700Y2010067D1*
X4620446Y2017005D1*
X4619305Y2024211D1*
Y2031506D1*
X4620446Y2038712D1*
X4622700Y2045650D1*
X4626012Y2052150D1*
X4630301Y2058052D1*
X4635459Y2063211D1*
X4641361Y2067499D1*
X4647862Y2070811D1*
X4654800Y2073066D1*
X4662006Y2074207D1*
X4665497Y2074344D1*
X4880450Y2289163D1*
X4884638Y2292206D1*
X4889250Y2294556D1*
X4894173Y2296156D1*
X4899286Y2296965D1*
X4945976Y2297067D1*
X4948539Y2301705D1*
X4954069Y2309317D1*
X4955080Y2310411D1*
X4966605Y2220411D2*
X4960721Y2224787D1*
X4954381Y2231102D1*
X4915528Y2231090D1*
X4916241Y2229555D1*
X4922981Y2226763D1*
X4929201Y2222952D1*
X4934749Y2218213D1*
X4939487Y2212666D1*
X4943299Y2206446D1*
X4946091Y2199705D1*
X4946528Y2198155D1*
X4951154Y2205620D1*
X4957264Y2212774D1*
X4964418Y2218884D1*
X4966605Y2220345D1*
Y2120411D2*
X4964086Y2122134D1*
X4869646Y2027718D1*
X4869054Y2020585D1*
X4867350Y2013491D1*
X4864559Y2006751D1*
X4862640Y2003365D1*
X4949591Y2003366D1*
X4954069Y2009317D1*
X4960721Y2015969D1*
X4966605Y2020345D1*
X4960721Y2024787D1*
X4954069Y2031439D1*
X4948539Y2039051D1*
X4944267Y2047434D1*
X4941360Y2056381D1*
X4939888Y2065674D1*
Y2075082D1*
X4941360Y2084375D1*
X4944267Y2093322D1*
X4948539Y2101705D1*
X4954069Y2109317D1*
X4960721Y2115969D1*
X4966605Y2120345D1*
X603734Y1427468D2*
X604219Y1435493D1*
X605520Y1442722D1*
X607617Y1449762D1*
X610486Y1456524D1*
X614089Y1462924D1*
X618383Y1468884D1*
X623313Y1474329D1*
X628819Y1479190D1*
X634833Y1483408D1*
X641278Y1486931D1*
X648076Y1489714D1*
X655141Y1491722D1*
X662386Y1492932D1*
X669721Y1493327D1*
X677054Y1492903D1*
X684294Y1491665D1*
X691351Y1489628D1*
X698138Y1486818D1*
X704570Y1483270D1*
X710566Y1479028D1*
X716053Y1474145D1*
X720962Y1468681D1*
X725232Y1462704D1*
X728810Y1456290D1*
X731651Y1449516D1*
X733721Y1442468D1*
X734993Y1435234D1*
X735453Y1427465D1*
X735222Y1323534D1*
X734201Y1316260D1*
X732376Y1309145D1*
X729771Y1302278D1*
X726416Y1295743D1*
X722355Y1289622D1*
X717638Y1283992D1*
X712323Y1278922D1*
X706477Y1274475D1*
X700172Y1270707D1*
X693486Y1267665D1*
X686503Y1265386D1*
X679310Y1263898D1*
X671996Y1263221D1*
X664652Y1263363D1*
X657370Y1264321D1*
X650239Y1266084D1*
X643350Y1268630D1*
X636786Y1271928D1*
X630631Y1275936D1*
X624960Y1280605D1*
X619844Y1285875D1*
X615347Y1291683D1*
X611525Y1297956D1*
X608425Y1304615D1*
X606085Y1311577D1*
X604536Y1318757D1*
X603796Y1326065D1*
X603728Y1422740D1*
Y1427403D1*
X738508Y1127351D2*
X728185Y1128161D1*
X718136Y1130574D1*
X708587Y1134529D1*
X699775Y1139929D1*
X691917Y1146641D1*
X685205Y1154500D1*
X679805Y1163312D1*
X675850Y1172860D1*
X673437Y1182909D1*
X672626Y1193213D1*
X673437Y1203516D1*
X675850Y1213565D1*
X679805Y1223113D1*
X685205Y1231925D1*
X691917Y1239784D1*
X699775Y1246496D1*
X708587Y1251896D1*
X718136Y1255851D1*
X728185Y1258264D1*
X738508Y1259074D1*
X842081Y1258872D1*
X852289Y1257255D1*
X862118Y1254061D1*
X871326Y1249369D1*
X879687Y1243295D1*
X886995Y1235987D1*
X893070Y1227626D1*
X897762Y1218417D1*
X900956Y1208588D1*
X902573Y1198380D1*
Y1188045D1*
X900956Y1177837D1*
X897762Y1168008D1*
X893070Y1158800D1*
X886995Y1150439D1*
X879687Y1143131D1*
X871326Y1137056D1*
X862118Y1132364D1*
X852289Y1129170D1*
X842081Y1127553D1*
X818541Y1127350D1*
X738488Y1127386D1*
X1077101Y3491277D2*
X1076492Y3483957D1*
X1075081Y3476749D1*
X1072882Y3469740D1*
X1069924Y3463017D1*
X1066243Y3456660D1*
X1061882Y3450749D1*
X1056897Y3445355D1*
X1051347Y3440544D1*
X1045300Y3436374D1*
X1038830Y3432896D1*
X1032016Y3430154D1*
X1024940Y3428179D1*
X1017691Y3426998D1*
X1010355Y3426623D1*
X1003023Y3427059D1*
X995783Y3428302D1*
X988725Y3430335D1*
X981934Y3433135D1*
X975493Y3436666D1*
X969482Y3440887D1*
X963972Y3445745D1*
X959032Y3451181D1*
X954721Y3457128D1*
X951093Y3463515D1*
X948192Y3470263D1*
X946052Y3477290D1*
X944701Y3484510D1*
X944154Y3491835D1*
X944419Y3499175D1*
X945491Y3506442D1*
X947359Y3513546D1*
X949998Y3520400D1*
X953378Y3526922D1*
X957456Y3533031D1*
X962184Y3538653D1*
X967502Y3543719D1*
X973347Y3548168D1*
X979647Y3551945D1*
X986325Y3555004D1*
X993300Y3557307D1*
X1000487Y3558827D1*
X1007797Y3559546D1*
X1015141Y3559453D1*
X1022431Y3558551D1*
X1029577Y3556851D1*
X1036492Y3554372D1*
X1043091Y3551147D1*
X1049294Y3547212D1*
X1055025Y3542618D1*
X1060214Y3537420D1*
X1064799Y3531681D1*
X1068722Y3525471D1*
X1071937Y3518866D1*
X1074403Y3511947D1*
X1076091Y3504799D1*
X1076981Y3497507D1*
X1077101Y3491277D1*
X1226921Y3487897D2*
X1225289Y3477592D1*
X1222065Y3467669D1*
X1217328Y3458372D1*
X1211195Y3449931D1*
X1203817Y3442553D1*
X1195376Y3436420D1*
X1186079Y3431683D1*
X1176156Y3428459D1*
X1165851Y3426827D1*
X1155417D1*
X1145112Y3428459D1*
X1135188Y3431683D1*
X1125892Y3436420D1*
X1117451Y3442553D1*
X1110073Y3449931D1*
X1103940Y3458372D1*
X1099203Y3467669D1*
X1095979Y3477592D1*
X1094347Y3487897D1*
Y3498331D1*
X1095979Y3508636D1*
X1099203Y3518560D1*
X1103940Y3527856D1*
X1110073Y3536297D1*
X1117451Y3543675D1*
X1125892Y3549808D1*
X1135188Y3554545D1*
X1145112Y3557769D1*
X1155417Y3559401D1*
X1165851D1*
X1176156Y3557769D1*
X1186079Y3554545D1*
X1195376Y3549808D1*
X1203817Y3543675D1*
X1211195Y3536297D1*
X1217328Y3527856D1*
X1222065Y3518560D1*
X1225289Y3508636D1*
X1226921Y3498331D1*
Y3487897D1*
X1564601Y3491277D2*
X1563992Y3483957D1*
X1562581Y3476749D1*
X1560382Y3469740D1*
X1557424Y3463017D1*
X1553743Y3456660D1*
X1549382Y3450749D1*
X1544397Y3445355D1*
X1538847Y3440544D1*
X1532800Y3436374D1*
X1526330Y3432896D1*
X1519516Y3430154D1*
X1512440Y3428179D1*
X1505191Y3426998D1*
X1497855Y3426623D1*
X1490523Y3427059D1*
X1483283Y3428302D1*
X1476225Y3430335D1*
X1469434Y3433135D1*
X1462993Y3436666D1*
X1456982Y3440887D1*
X1451472Y3445745D1*
X1446532Y3451181D1*
X1442221Y3457128D1*
X1438593Y3463515D1*
X1435692Y3470263D1*
X1433552Y3477290D1*
X1432201Y3484510D1*
X1431654Y3491835D1*
X1431919Y3499175D1*
X1432991Y3506442D1*
X1434859Y3513546D1*
X1437498Y3520400D1*
X1440878Y3526922D1*
X1444956Y3533031D1*
X1449684Y3538653D1*
X1455002Y3543719D1*
X1460847Y3548168D1*
X1467147Y3551945D1*
X1473825Y3555004D1*
X1480800Y3557307D1*
X1487987Y3558827D1*
X1495297Y3559546D1*
X1502641Y3559453D1*
X1509931Y3558551D1*
X1517077Y3556851D1*
X1523992Y3554372D1*
X1530591Y3551147D1*
X1536794Y3547212D1*
X1542525Y3542618D1*
X1547714Y3537420D1*
X1552299Y3531681D1*
X1556222Y3525471D1*
X1559437Y3518866D1*
X1561903Y3511947D1*
X1563591Y3504799D1*
X1564481Y3497507D1*
X1564601Y3491277D1*
X1714421Y3487897D2*
X1712789Y3477592D1*
X1709565Y3467669D1*
X1704828Y3458372D1*
X1698695Y3449931D1*
X1691317Y3442553D1*
X1682876Y3436420D1*
X1673579Y3431683D1*
X1663656Y3428459D1*
X1653351Y3426827D1*
X1642917D1*
X1632612Y3428459D1*
X1622688Y3431683D1*
X1613392Y3436420D1*
X1604951Y3442553D1*
X1597573Y3449931D1*
X1591440Y3458372D1*
X1586703Y3467669D1*
X1583479Y3477592D1*
X1581847Y3487897D1*
Y3498331D1*
X1583479Y3508636D1*
X1586703Y3518560D1*
X1591440Y3527856D1*
X1597573Y3536297D1*
X1604951Y3543675D1*
X1613392Y3549808D1*
X1622688Y3554545D1*
X1632612Y3557769D1*
X1642917Y3559401D1*
X1653351D1*
X1663656Y3557769D1*
X1673579Y3554545D1*
X1682876Y3549808D1*
X1691317Y3543675D1*
X1698695Y3536297D1*
X1704828Y3527856D1*
X1709565Y3518560D1*
X1712789Y3508636D1*
X1714421Y3498331D1*
Y3487897D1*
X2054207Y3491297D2*
X2053599Y3483977D1*
X2052187Y3476768D1*
X2049988Y3469760D1*
X2047030Y3463036D1*
X2043349Y3456680D1*
X2038989Y3450769D1*
X2034003Y3445375D1*
X2028453Y3440563D1*
X2022406Y3436393D1*
X2015936Y3432916D1*
X2009122Y3430173D1*
X2002047Y3428199D1*
X1994797Y3427017D1*
X1987461Y3426642D1*
X1980129Y3427079D1*
X1972889Y3428321D1*
X1965831Y3430355D1*
X1959040Y3433154D1*
X1952600Y3436686D1*
X1946588Y3440907D1*
X1941078Y3445764D1*
X1936138Y3451200D1*
X1931828Y3457148D1*
X1928200Y3463535D1*
X1925298Y3470283D1*
X1923159Y3477309D1*
X1921807Y3484529D1*
X1921260Y3491854D1*
X1921525Y3499195D1*
X1922597Y3506461D1*
X1924465Y3513565D1*
X1927105Y3520420D1*
X1930484Y3526942D1*
X1934563Y3533051D1*
X1939290Y3538673D1*
X1944609Y3543739D1*
X1950454Y3548188D1*
X1956754Y3551964D1*
X1963432Y3555023D1*
X1970407Y3557327D1*
X1977593Y3558847D1*
X1984903Y3559565D1*
X1992248Y3559473D1*
X1999537Y3558571D1*
X2006683Y3556871D1*
X2013598Y3554392D1*
X2020197Y3551166D1*
X2026400Y3547232D1*
X2032131Y3542638D1*
X2037321Y3537439D1*
X2041905Y3531700D1*
X2045828Y3525491D1*
X2049043Y3518886D1*
X2051509Y3511967D1*
X2053198Y3504818D1*
X2054087Y3497527D1*
X2054207Y3491297D1*
X2204027Y3487917D2*
X2202395Y3477612D1*
X2199171Y3467688D1*
X2194434Y3458392D1*
X2188301Y3449951D1*
X2180923Y3442573D1*
X2172482Y3436440D1*
X2163186Y3431703D1*
X2153262Y3428479D1*
X2142957Y3426847D1*
X2132523D1*
X2122218Y3428479D1*
X2112295Y3431703D1*
X2102998Y3436440D1*
X2094557Y3442573D1*
X2087179Y3449951D1*
X2081046Y3458392D1*
X2076309Y3467688D1*
X2073085Y3477612D1*
X2071453Y3487917D1*
Y3498351D1*
X2073085Y3508656D1*
X2076309Y3518579D1*
X2081046Y3527876D1*
X2087179Y3536317D1*
X2094557Y3543695D1*
X2102998Y3549828D1*
X2112295Y3554565D1*
X2122218Y3557789D1*
X2132523Y3559421D1*
X2142957D1*
X2153262Y3557789D1*
X2163186Y3554565D1*
X2172482Y3549828D1*
X2180923Y3543695D1*
X2188301Y3536317D1*
X2194434Y3527876D1*
X2199171Y3518579D1*
X2202395Y3508656D1*
X2204027Y3498351D1*
Y3487917D1*
X2539601Y3491297D2*
X2538992Y3483977D1*
X2537581Y3476768D1*
X2535382Y3469760D1*
X2532424Y3463036D1*
X2528743Y3456680D1*
X2524382Y3450769D1*
X2519397Y3445375D1*
X2513847Y3440563D1*
X2507800Y3436393D1*
X2501330Y3432916D1*
X2494516Y3430173D1*
X2487440Y3428199D1*
X2480191Y3427017D1*
X2472855Y3426642D1*
X2465523Y3427079D1*
X2458283Y3428321D1*
X2451225Y3430355D1*
X2444434Y3433154D1*
X2437993Y3436686D1*
X2431982Y3440907D1*
X2426472Y3445764D1*
X2421532Y3451200D1*
X2417221Y3457148D1*
X2413593Y3463535D1*
X2410692Y3470283D1*
X2408552Y3477309D1*
X2407201Y3484529D1*
X2406654Y3491854D1*
X2406919Y3499195D1*
X2407991Y3506461D1*
X2409859Y3513565D1*
X2412498Y3520420D1*
X2415878Y3526942D1*
X2419956Y3533051D1*
X2424684Y3538673D1*
X2430002Y3543739D1*
X2435847Y3548188D1*
X2442147Y3551964D1*
X2448825Y3555023D1*
X2455800Y3557327D1*
X2462987Y3558847D1*
X2470297Y3559565D1*
X2477641Y3559473D1*
X2484931Y3558571D1*
X2492077Y3556871D1*
X2498992Y3554392D1*
X2505591Y3551166D1*
X2511794Y3547232D1*
X2517525Y3542638D1*
X2522714Y3537439D1*
X2527299Y3531700D1*
X2531222Y3525491D1*
X2534437Y3518886D1*
X2536903Y3511967D1*
X2538591Y3504818D1*
X2539481Y3497527D1*
X2539601Y3491297D1*
X2689421Y3487917D2*
X2687789Y3477612D1*
X2684565Y3467688D1*
X2679828Y3458392D1*
X2673695Y3449951D1*
X2666317Y3442573D1*
X2657876Y3436440D1*
X2648579Y3431703D1*
X2638656Y3428479D1*
X2628351Y3426847D1*
X2617917D1*
X2607612Y3428479D1*
X2597688Y3431703D1*
X2588392Y3436440D1*
X2579951Y3442573D1*
X2572573Y3449951D1*
X2566440Y3458392D1*
X2561703Y3467688D1*
X2558479Y3477612D1*
X2556847Y3487917D1*
Y3498351D1*
X2558479Y3508656D1*
X2561703Y3518579D1*
X2566440Y3527876D1*
X2572573Y3536317D1*
X2579951Y3543695D1*
X2588392Y3549828D1*
X2597688Y3554565D1*
X2607612Y3557789D1*
X2617917Y3559421D1*
X2628351D1*
X2638656Y3557789D1*
X2648579Y3554565D1*
X2657876Y3549828D1*
X2666317Y3543695D1*
X2673695Y3536317D1*
X2679828Y3527876D1*
X2684565Y3518579D1*
X2687789Y3508656D1*
X2689421Y3498351D1*
Y3487917D1*
X3027101Y3491297D2*
X3026492Y3483977D1*
X3025081Y3476768D1*
X3022882Y3469760D1*
X3019924Y3463036D1*
X3016243Y3456680D1*
X3011882Y3450769D1*
X3006897Y3445375D1*
X3001347Y3440563D1*
X2995300Y3436393D1*
X2988830Y3432916D1*
X2982016Y3430173D1*
X2974940Y3428199D1*
X2967691Y3427017D1*
X2960355Y3426642D1*
X2953023Y3427079D1*
X2945783Y3428321D1*
X2938725Y3430355D1*
X2931934Y3433154D1*
X2925493Y3436686D1*
X2919482Y3440907D1*
X2913972Y3445764D1*
X2909032Y3451200D1*
X2904721Y3457148D1*
X2901093Y3463535D1*
X2898192Y3470283D1*
X2896052Y3477309D1*
X2894701Y3484529D1*
X2894154Y3491854D1*
X2894419Y3499195D1*
X2895491Y3506461D1*
X2897359Y3513565D1*
X2899998Y3520420D1*
X2903378Y3526942D1*
X2907456Y3533051D1*
X2912184Y3538673D1*
X2917502Y3543739D1*
X2923347Y3548188D1*
X2929647Y3551964D1*
X2936325Y3555023D1*
X2943300Y3557327D1*
X2950487Y3558847D1*
X2957797Y3559565D1*
X2965141Y3559473D1*
X2972431Y3558571D1*
X2979577Y3556871D1*
X2986492Y3554392D1*
X2993091Y3551166D1*
X2999294Y3547232D1*
X3005025Y3542638D1*
X3010214Y3537439D1*
X3014799Y3531700D1*
X3018722Y3525491D1*
X3021937Y3518886D1*
X3024403Y3511967D1*
X3026091Y3504818D1*
X3026981Y3497527D1*
X3027101Y3491297D1*
X3176921Y3487917D2*
X3175289Y3477612D1*
X3172065Y3467688D1*
X3167328Y3458392D1*
X3161195Y3449951D1*
X3153817Y3442573D1*
X3145376Y3436440D1*
X3136079Y3431703D1*
X3126156Y3428479D1*
X3115851Y3426847D1*
X3105417D1*
X3095112Y3428479D1*
X3085188Y3431703D1*
X3075892Y3436440D1*
X3067451Y3442573D1*
X3060073Y3449951D1*
X3053940Y3458392D1*
X3049203Y3467688D1*
X3045979Y3477612D1*
X3044347Y3487917D1*
Y3498351D1*
X3045979Y3508656D1*
X3049203Y3518579D1*
X3053940Y3527876D1*
X3060073Y3536317D1*
X3067451Y3543695D1*
X3075892Y3549828D1*
X3085188Y3554565D1*
X3095112Y3557789D1*
X3105417Y3559421D1*
X3115851D1*
X3126156Y3557789D1*
X3136079Y3554565D1*
X3145376Y3549828D1*
X3153817Y3543695D1*
X3161195Y3536317D1*
X3167328Y3527876D1*
X3172065Y3518579D1*
X3175289Y3508656D1*
X3176921Y3498351D1*
Y3487917D1*
X3514601Y3491297D2*
X3513992Y3483977D1*
X3512581Y3476768D1*
X3510382Y3469760D1*
X3507424Y3463036D1*
X3503743Y3456680D1*
X3499382Y3450769D1*
X3494397Y3445375D1*
X3488847Y3440563D1*
X3482800Y3436393D1*
X3476330Y3432916D1*
X3469516Y3430173D1*
X3462440Y3428199D1*
X3455191Y3427017D1*
X3447855Y3426642D1*
X3440523Y3427079D1*
X3433283Y3428321D1*
X3426225Y3430355D1*
X3419434Y3433154D1*
X3412993Y3436686D1*
X3406982Y3440907D1*
X3401472Y3445764D1*
X3396532Y3451200D1*
X3392221Y3457148D1*
X3388593Y3463535D1*
X3385692Y3470283D1*
X3383552Y3477309D1*
X3382201Y3484529D1*
X3381654Y3491854D1*
X3381919Y3499195D1*
X3382991Y3506461D1*
X3384859Y3513565D1*
X3387498Y3520420D1*
X3390878Y3526942D1*
X3394956Y3533051D1*
X3399684Y3538673D1*
X3405002Y3543739D1*
X3410847Y3548188D1*
X3417147Y3551964D1*
X3423825Y3555023D1*
X3430800Y3557327D1*
X3437987Y3558847D1*
X3445297Y3559565D1*
X3452641Y3559473D1*
X3459931Y3558571D1*
X3467077Y3556871D1*
X3473992Y3554392D1*
X3480591Y3551166D1*
X3486794Y3547232D1*
X3492525Y3542638D1*
X3497714Y3537439D1*
X3502299Y3531700D1*
X3506222Y3525491D1*
X3509437Y3518886D1*
X3511903Y3511967D1*
X3513591Y3504818D1*
X3514481Y3497527D1*
X3514601Y3491297D1*
X3664421Y3487917D2*
X3662789Y3477612D1*
X3659565Y3467688D1*
X3654828Y3458392D1*
X3648695Y3449951D1*
X3641317Y3442573D1*
X3632876Y3436440D1*
X3623579Y3431703D1*
X3613656Y3428479D1*
X3603351Y3426847D1*
X3592917D1*
X3582612Y3428479D1*
X3572688Y3431703D1*
X3563392Y3436440D1*
X3554951Y3442573D1*
X3547573Y3449951D1*
X3541440Y3458392D1*
X3536703Y3467688D1*
X3533479Y3477612D1*
X3531847Y3487917D1*
Y3498351D1*
X3533479Y3508656D1*
X3536703Y3518579D1*
X3541440Y3527876D1*
X3547573Y3536317D1*
X3554951Y3543695D1*
X3563392Y3549828D1*
X3572688Y3554565D1*
X3582612Y3557789D1*
X3592917Y3559421D1*
X3603351D1*
X3613656Y3557789D1*
X3623579Y3554565D1*
X3632876Y3549828D1*
X3641317Y3543695D1*
X3648695Y3536317D1*
X3654828Y3527876D1*
X3659565Y3518579D1*
X3662789Y3508656D1*
X3664421Y3498351D1*
Y3487917D1*
X4002101Y3491297D2*
X4001492Y3483977D1*
X4000081Y3476768D1*
X3997882Y3469760D1*
X3994924Y3463036D1*
X3991243Y3456680D1*
X3986882Y3450769D1*
X3981897Y3445375D1*
X3976347Y3440563D1*
X3970300Y3436393D1*
X3963830Y3432916D1*
X3957016Y3430173D1*
X3949940Y3428199D1*
X3942691Y3427017D1*
X3935355Y3426642D1*
X3928023Y3427079D1*
X3920783Y3428321D1*
X3913725Y3430355D1*
X3906934Y3433154D1*
X3900493Y3436686D1*
X3894482Y3440907D1*
X3888972Y3445764D1*
X3884032Y3451200D1*
X3879721Y3457148D1*
X3876093Y3463535D1*
X3873192Y3470283D1*
X3871052Y3477309D1*
X3869701Y3484529D1*
X3869154Y3491854D1*
X3869419Y3499195D1*
X3870491Y3506461D1*
X3872359Y3513565D1*
X3874998Y3520420D1*
X3878378Y3526942D1*
X3882456Y3533051D1*
X3887184Y3538673D1*
X3892502Y3543739D1*
X3898347Y3548188D1*
X3904647Y3551964D1*
X3911325Y3555023D1*
X3918300Y3557327D1*
X3925487Y3558847D1*
X3932797Y3559565D1*
X3940141Y3559473D1*
X3947431Y3558571D1*
X3954577Y3556871D1*
X3961492Y3554392D1*
X3968091Y3551166D1*
X3974294Y3547232D1*
X3980025Y3542638D1*
X3985214Y3537439D1*
X3989799Y3531700D1*
X3993722Y3525491D1*
X3996937Y3518886D1*
X3999403Y3511967D1*
X4001091Y3504818D1*
X4001981Y3497527D1*
X4002101Y3491297D1*
X4151921Y3487917D2*
X4150289Y3477612D1*
X4147065Y3467688D1*
X4142328Y3458392D1*
X4136195Y3449951D1*
X4128817Y3442573D1*
X4120376Y3436440D1*
X4111079Y3431703D1*
X4101156Y3428479D1*
X4090851Y3426847D1*
X4080417D1*
X4070112Y3428479D1*
X4060188Y3431703D1*
X4050892Y3436440D1*
X4042451Y3442573D1*
X4035073Y3449951D1*
X4028940Y3458392D1*
X4024203Y3467688D1*
X4020979Y3477612D1*
X4019347Y3487917D1*
Y3498351D1*
X4020979Y3508656D1*
X4024203Y3518579D1*
X4028940Y3527876D1*
X4035073Y3536317D1*
X4042451Y3543695D1*
X4050892Y3549828D1*
X4060188Y3554565D1*
X4070112Y3557789D1*
X4080417Y3559421D1*
X4090851D1*
X4101156Y3557789D1*
X4111079Y3554565D1*
X4120376Y3549828D1*
X4128817Y3543695D1*
X4136195Y3536317D1*
X4142328Y3527876D1*
X4147065Y3518579D1*
X4150289Y3508656D1*
X4151921Y3498351D1*
Y3487917D1*
X4489601Y3491297D2*
X4488992Y3483977D1*
X4487581Y3476768D1*
X4485382Y3469760D1*
X4482424Y3463036D1*
X4478743Y3456680D1*
X4474382Y3450769D1*
X4469397Y3445375D1*
X4463847Y3440563D1*
X4457800Y3436393D1*
X4451330Y3432916D1*
X4444516Y3430173D1*
X4437440Y3428199D1*
X4430191Y3427017D1*
X4422855Y3426642D1*
X4415523Y3427079D1*
X4408283Y3428321D1*
X4401225Y3430355D1*
X4394434Y3433154D1*
X4387993Y3436686D1*
X4381982Y3440907D1*
X4376472Y3445764D1*
X4371532Y3451200D1*
X4367221Y3457148D1*
X4363593Y3463535D1*
X4360692Y3470283D1*
X4358552Y3477309D1*
X4357201Y3484529D1*
X4356654Y3491854D1*
X4356919Y3499195D1*
X4357991Y3506461D1*
X4359859Y3513565D1*
X4362498Y3520420D1*
X4365878Y3526942D1*
X4369956Y3533051D1*
X4374684Y3538673D1*
X4380002Y3543739D1*
X4385847Y3548188D1*
X4392147Y3551964D1*
X4398825Y3555023D1*
X4405800Y3557327D1*
X4412987Y3558847D1*
X4420297Y3559565D1*
X4427641Y3559473D1*
X4434931Y3558571D1*
X4442077Y3556871D1*
X4448992Y3554392D1*
X4455591Y3551166D1*
X4461794Y3547232D1*
X4467525Y3542638D1*
X4472714Y3537439D1*
X4477299Y3531700D1*
X4481222Y3525491D1*
X4484437Y3518886D1*
X4486903Y3511967D1*
X4488591Y3504818D1*
X4489481Y3497527D1*
X4489601Y3491297D1*
X4639421Y3487917D2*
X4637789Y3477612D1*
X4634565Y3467688D1*
X4629828Y3458392D1*
X4623695Y3449951D1*
X4616317Y3442573D1*
X4607876Y3436440D1*
X4598579Y3431703D1*
X4588656Y3428479D1*
X4578351Y3426847D1*
X4567917D1*
X4557612Y3428479D1*
X4547688Y3431703D1*
X4538392Y3436440D1*
X4529951Y3442573D1*
X4522573Y3449951D1*
X4516440Y3458392D1*
X4511703Y3467688D1*
X4508479Y3477612D1*
X4506847Y3487917D1*
Y3498351D1*
X4508479Y3508656D1*
X4511703Y3518579D1*
X4516440Y3527876D1*
X4522573Y3536317D1*
X4529951Y3543695D1*
X4538392Y3549828D1*
X4547688Y3554565D1*
X4557612Y3557789D1*
X4567917Y3559421D1*
X4578351D1*
X4588656Y3557789D1*
X4598579Y3554565D1*
X4607876Y3549828D1*
X4616317Y3543695D1*
X4623695Y3536317D1*
X4629828Y3527876D1*
X4634565Y3518579D1*
X4637789Y3508656D1*
X4639421Y3498351D1*
Y3487917D1*
X1227081Y679643D2*
X1226473Y672323D1*
X1225061Y665115D1*
X1222862Y658106D1*
X1219904Y651383D1*
X1216223Y645027D1*
X1211863Y639115D1*
X1206877Y633721D1*
X1201327Y628910D1*
X1195280Y624740D1*
X1188810Y621262D1*
X1181996Y618520D1*
X1174921Y616546D1*
X1167671Y615364D1*
X1160335Y614989D1*
X1153003Y615425D1*
X1145764Y616668D1*
X1138705Y618701D1*
X1131914Y621501D1*
X1125474Y625033D1*
X1119462Y629253D1*
X1113952Y634111D1*
X1109012Y639547D1*
X1104702Y645494D1*
X1101074Y651881D1*
X1098172Y658629D1*
X1096033Y665656D1*
X1094681Y672876D1*
X1094134Y680201D1*
X1094399Y687541D1*
X1095471Y694808D1*
X1097339Y701912D1*
X1099979Y708767D1*
X1103358Y715288D1*
X1107437Y721397D1*
X1112164Y727019D1*
X1117483Y732085D1*
X1123328Y736534D1*
X1129628Y740311D1*
X1136306Y743370D1*
X1143281Y745673D1*
X1150467Y747194D1*
X1157777Y747912D1*
X1165122Y747819D1*
X1172411Y746918D1*
X1179557Y745217D1*
X1186472Y742739D1*
X1193071Y739513D1*
X1199274Y735579D1*
X1205005Y730984D1*
X1210195Y725786D1*
X1214779Y720047D1*
X1218702Y713837D1*
X1221917Y707233D1*
X1224383Y700314D1*
X1226072Y693165D1*
X1226961Y685874D1*
X1227081Y679643D1*
X1076901Y676263D2*
X1075269Y665958D1*
X1072045Y656035D1*
X1067308Y646738D1*
X1061175Y638297D1*
X1053797Y630919D1*
X1045356Y624786D1*
X1036060Y620050D1*
X1026136Y616825D1*
X1015831Y615193D1*
X1005397D1*
X995092Y616825D1*
X985169Y620050D1*
X975872Y624786D1*
X967431Y630919D1*
X960053Y638297D1*
X953920Y646738D1*
X949183Y656035D1*
X945959Y665958D1*
X944327Y676263D1*
Y686697D1*
X945959Y697003D1*
X949183Y706926D1*
X953920Y716222D1*
X960053Y724663D1*
X967431Y732041D1*
X975872Y738174D1*
X985169Y742911D1*
X995092Y746135D1*
X1005397Y747767D1*
X1015831D1*
X1026136Y746135D1*
X1036060Y742911D1*
X1045356Y738174D1*
X1053797Y732041D1*
X1061175Y724663D1*
X1067308Y716222D1*
X1072045Y706926D1*
X1075269Y697003D1*
X1076901Y686697D1*
Y676263D1*
X1564421D2*
X1562789Y665958D1*
X1559565Y656035D1*
X1554828Y646738D1*
X1548695Y638297D1*
X1541317Y630919D1*
X1532876Y624786D1*
X1523579Y620050D1*
X1513656Y616825D1*
X1503351Y615193D1*
X1492917D1*
X1482612Y616825D1*
X1472688Y620050D1*
X1463392Y624786D1*
X1454951Y630919D1*
X1447573Y638297D1*
X1441440Y646738D1*
X1436703Y656035D1*
X1433479Y665958D1*
X1431847Y676263D1*
Y686697D1*
X1433479Y697003D1*
X1436703Y706926D1*
X1441440Y716222D1*
X1447573Y724663D1*
X1454951Y732041D1*
X1463392Y738174D1*
X1472688Y742911D1*
X1482612Y746135D1*
X1492917Y747767D1*
X1503351D1*
X1513656Y746135D1*
X1523579Y742911D1*
X1532876Y738174D1*
X1541317Y732041D1*
X1548695Y724663D1*
X1554828Y716222D1*
X1559565Y706926D1*
X1562789Y697003D1*
X1564421Y686697D1*
Y676263D1*
X2204207Y679643D2*
X2203599Y672323D1*
X2202187Y665115D1*
X2199988Y658106D1*
X2197030Y651383D1*
X2193349Y645027D1*
X2188989Y639115D1*
X2184003Y633721D1*
X2178453Y628910D1*
X2172406Y624740D1*
X2165936Y621262D1*
X2159122Y618520D1*
X2152047Y616546D1*
X2144797Y615364D1*
X2137461Y614989D1*
X2130129Y615425D1*
X2122889Y616668D1*
X2115831Y618701D1*
X2109040Y621501D1*
X2102600Y625033D1*
X2096588Y629253D1*
X2091078Y634111D1*
X2086138Y639547D1*
X2081828Y645494D1*
X2078200Y651881D1*
X2075298Y658629D1*
X2073159Y665656D1*
X2071807Y672876D1*
X2071260Y680201D1*
X2071525Y687541D1*
X2072597Y694808D1*
X2074465Y701912D1*
X2077105Y708767D1*
X2080484Y715288D1*
X2084563Y721397D1*
X2089290Y727019D1*
X2094609Y732085D1*
X2100454Y736534D1*
X2106754Y740311D1*
X2113432Y743370D1*
X2120407Y745673D1*
X2127593Y747194D1*
X2134903Y747912D1*
X2142248Y747819D1*
X2149537Y746918D1*
X2156683Y745217D1*
X2163598Y742739D1*
X2170197Y739513D1*
X2176400Y735579D1*
X2182131Y730984D1*
X2187321Y725786D1*
X2191905Y720047D1*
X2195828Y713837D1*
X2199043Y707233D1*
X2201509Y700314D1*
X2203198Y693165D1*
X2204087Y685874D1*
X2204207Y679643D1*
X2054027Y676263D2*
X2052395Y665958D1*
X2049171Y656035D1*
X2044434Y646738D1*
X2038301Y638297D1*
X2030923Y630919D1*
X2022482Y624786D1*
X2013186Y620050D1*
X2003262Y616825D1*
X1992957Y615193D1*
X1982523D1*
X1972218Y616825D1*
X1962295Y620050D1*
X1952998Y624786D1*
X1944557Y630919D1*
X1937179Y638297D1*
X1931046Y646738D1*
X1926309Y656035D1*
X1923085Y665958D1*
X1921453Y676263D1*
Y686697D1*
X1923085Y697003D1*
X1926309Y706926D1*
X1931046Y716222D1*
X1937179Y724663D1*
X1944557Y732041D1*
X1952998Y738174D1*
X1962295Y742911D1*
X1972218Y746135D1*
X1982523Y747767D1*
X1992957D1*
X2003262Y746135D1*
X2013186Y742911D1*
X2022482Y738174D1*
X2030923Y732041D1*
X2038301Y724663D1*
X2044434Y716222D1*
X2049171Y706926D1*
X2052395Y697003D1*
X2054027Y686697D1*
Y676263D1*
X2689601Y679643D2*
X2688992Y672323D1*
X2687581Y665115D1*
X2685382Y658106D1*
X2682424Y651383D1*
X2678743Y645027D1*
X2674382Y639115D1*
X2669397Y633721D1*
X2663847Y628910D1*
X2657800Y624740D1*
X2651330Y621262D1*
X2644516Y618520D1*
X2637440Y616546D1*
X2630191Y615364D1*
X2622855Y614989D1*
X2615523Y615425D1*
X2608283Y616668D1*
X2601225Y618701D1*
X2594434Y621501D1*
X2587993Y625033D1*
X2581982Y629253D1*
X2576472Y634111D1*
X2571532Y639547D1*
X2567221Y645494D1*
X2563593Y651881D1*
X2560692Y658629D1*
X2558552Y665656D1*
X2557201Y672876D1*
X2556654Y680201D1*
X2556919Y687541D1*
X2557991Y694808D1*
X2559859Y701912D1*
X2562498Y708767D1*
X2565878Y715288D1*
X2569956Y721397D1*
X2574684Y727019D1*
X2580002Y732085D1*
X2585847Y736534D1*
X2592147Y740311D1*
X2598825Y743370D1*
X2605800Y745673D1*
X2612987Y747194D1*
X2620297Y747912D1*
X2627641Y747819D1*
X2634931Y746918D1*
X2642077Y745217D1*
X2648992Y742739D1*
X2655591Y739513D1*
X2661794Y735579D1*
X2667525Y730984D1*
X2672714Y725786D1*
X2677299Y720047D1*
X2681222Y713837D1*
X2684437Y707233D1*
X2686903Y700314D1*
X2688591Y693165D1*
X2689481Y685874D1*
X2689601Y679643D1*
X2539421Y676263D2*
X2537789Y665958D1*
X2534565Y656035D1*
X2529828Y646738D1*
X2523695Y638297D1*
X2516317Y630919D1*
X2507876Y624786D1*
X2498579Y620050D1*
X2488656Y616825D1*
X2478351Y615193D1*
X2467917D1*
X2457612Y616825D1*
X2447688Y620050D1*
X2438392Y624786D1*
X2429951Y630919D1*
X2422573Y638297D1*
X2416440Y646738D1*
X2411703Y656035D1*
X2408479Y665958D1*
X2406847Y676263D1*
Y686697D1*
X2408479Y697003D1*
X2411703Y706926D1*
X2416440Y716222D1*
X2422573Y724663D1*
X2429951Y732041D1*
X2438392Y738174D1*
X2447688Y742911D1*
X2457612Y746135D1*
X2467917Y747767D1*
X2478351D1*
X2488656Y746135D1*
X2498579Y742911D1*
X2507876Y738174D1*
X2516317Y732041D1*
X2523695Y724663D1*
X2529828Y716222D1*
X2534565Y706926D1*
X2537789Y697003D1*
X2539421Y686697D1*
Y676263D1*
X3177081Y679643D2*
X3176473Y672323D1*
X3175061Y665115D1*
X3172862Y658106D1*
X3169904Y651383D1*
X3166223Y645027D1*
X3161863Y639115D1*
X3156877Y633721D1*
X3151327Y628910D1*
X3145280Y624740D1*
X3138810Y621262D1*
X3131996Y618520D1*
X3124921Y616546D1*
X3117671Y615364D1*
X3110335Y614989D1*
X3103003Y615425D1*
X3095764Y616668D1*
X3088705Y618701D1*
X3081914Y621501D1*
X3075474Y625033D1*
X3069462Y629253D1*
X3063952Y634111D1*
X3059012Y639547D1*
X3054702Y645494D1*
X3051074Y651881D1*
X3048172Y658629D1*
X3046033Y665656D1*
X3044681Y672876D1*
X3044134Y680201D1*
X3044399Y687541D1*
X3045471Y694808D1*
X3047339Y701912D1*
X3049979Y708767D1*
X3053358Y715288D1*
X3057437Y721397D1*
X3062164Y727019D1*
X3067483Y732085D1*
X3073328Y736534D1*
X3079628Y740311D1*
X3086306Y743370D1*
X3093281Y745673D1*
X3100467Y747194D1*
X3107777Y747912D1*
X3115122Y747819D1*
X3122411Y746918D1*
X3129557Y745217D1*
X3136472Y742739D1*
X3143071Y739513D1*
X3149274Y735579D1*
X3155005Y730984D1*
X3160195Y725786D1*
X3164779Y720047D1*
X3168702Y713837D1*
X3171917Y707233D1*
X3174383Y700314D1*
X3176072Y693165D1*
X3176961Y685874D1*
X3177081Y679643D1*
X3026901Y676263D2*
X3025269Y665958D1*
X3022045Y656035D1*
X3017308Y646738D1*
X3011175Y638297D1*
X3003797Y630919D1*
X2995356Y624786D1*
X2986060Y620050D1*
X2976136Y616825D1*
X2965831Y615193D1*
X2955397D1*
X2945092Y616825D1*
X2935169Y620050D1*
X2925872Y624786D1*
X2917431Y630919D1*
X2910053Y638297D1*
X2903920Y646738D1*
X2899183Y656035D1*
X2895959Y665958D1*
X2894327Y676263D1*
Y686697D1*
X2895959Y697003D1*
X2899183Y706926D1*
X2903920Y716222D1*
X2910053Y724663D1*
X2917431Y732041D1*
X2925872Y738174D1*
X2935169Y742911D1*
X2945092Y746135D1*
X2955397Y747767D1*
X2965831D1*
X2976136Y746135D1*
X2986060Y742911D1*
X2995356Y738174D1*
X3003797Y732041D1*
X3011175Y724663D1*
X3017308Y716222D1*
X3022045Y706926D1*
X3025269Y697003D1*
X3026901Y686697D1*
Y676263D1*
X890742Y2458174D2*
X888956Y2446898D1*
X885428Y2436041D1*
X880245Y2425869D1*
X873535Y2416633D1*
X865463Y2408561D1*
X856227Y2401851D1*
X846055Y2396668D1*
X835198Y2393140D1*
X823922Y2391354D1*
X812506D1*
X801230Y2393140D1*
X794078Y2395301D1*
X795193Y2386481D1*
X795493Y2378843D1*
X795193Y2371204D1*
X794295Y2363612D1*
X792803Y2356115D1*
X790728Y2348757D1*
X788082Y2341585D1*
X784882Y2334643D1*
X781147Y2327973D1*
X776900Y2321617D1*
X772167Y2315613D1*
X766978Y2310000D1*
X761364Y2304811D1*
X755361Y2300078D1*
X749005Y2295831D1*
X742335Y2292096D1*
X735393Y2288895D1*
X728221Y2286249D1*
X720863Y2284174D1*
X713365Y2282683D1*
X705774Y2281784D1*
X698135Y2281484D1*
X690497Y2281784D1*
X682905Y2282683D1*
X675407Y2284174D1*
X668050Y2286249D1*
X660878Y2288895D1*
X653935Y2292096D1*
X647266Y2295831D1*
X640909Y2300078D1*
X634906Y2304811D1*
X629292Y2310000D1*
X624103Y2315613D1*
X619371Y2321617D1*
X615124Y2327973D1*
X611388Y2334643D1*
X608188Y2341585D1*
X605542Y2348757D1*
X603467Y2356115D1*
X601976Y2363612D1*
X601077Y2371204D1*
X600777Y2378843D1*
X601077Y2386481D1*
X601976Y2394073D1*
X603467Y2401570D1*
X605542Y2408928D1*
X608188Y2416100D1*
X611388Y2423042D1*
X615124Y2429712D1*
X619371Y2436068D1*
X624103Y2442072D1*
X629292Y2447685D1*
X634906Y2452874D1*
X640909Y2457607D1*
X647266Y2461854D1*
X653935Y2465589D1*
X660878Y2468790D1*
X668050Y2471436D1*
X675407Y2473511D1*
X682905Y2475002D1*
X690497Y2475901D1*
X698135Y2476201D1*
X705774Y2475901D1*
X713365Y2475002D1*
X720863Y2473511D1*
X728221Y2471436D1*
X735393Y2468790D1*
X745487Y2463824D1*
X745686Y2469590D1*
X747472Y2480865D1*
X751000Y2491723D1*
X756183Y2501895D1*
X762893Y2511131D1*
X770965Y2519203D1*
X780201Y2525913D1*
X790373Y2531096D1*
X801230Y2534624D1*
X812506Y2536410D1*
X823922D1*
X835198Y2534624D1*
X846055Y2531096D1*
X856227Y2525913D1*
X865463Y2519203D1*
X873535Y2511131D1*
X880245Y2501895D1*
X885428Y2491723D1*
X888956Y2480865D1*
X890742Y2469590D1*
Y2458174D1*
Y1838095D2*
X888956Y1826820D1*
X885428Y1815962D1*
X880245Y1805790D1*
X873535Y1796555D1*
X865463Y1788482D1*
X856227Y1781772D1*
X846055Y1776589D1*
X835198Y1773061D1*
X823922Y1771275D1*
X812506D1*
X801230Y1773061D1*
X790373Y1776589D1*
X780201Y1781772D1*
X770965Y1788482D1*
X762893Y1796555D1*
X756183Y1805790D1*
X751000Y1815962D1*
X747472Y1826820D1*
X745686Y1838095D1*
X745463Y1843781D1*
X735393Y1838895D1*
X728221Y1836249D1*
X720863Y1834174D1*
X713365Y1832683D1*
X705774Y1831784D1*
X698135Y1831484D1*
X690497Y1831784D1*
X682905Y1832683D1*
X675407Y1834174D1*
X668050Y1836249D1*
X660878Y1838895D1*
X653935Y1842096D1*
X647266Y1845831D1*
X640909Y1850078D1*
X634906Y1854811D1*
X629292Y1860000D1*
X624103Y1865613D1*
X619371Y1871617D1*
X615124Y1877973D1*
X611388Y1884643D1*
X608188Y1891585D1*
X605542Y1898757D1*
X603467Y1906115D1*
X601976Y1913612D1*
X601077Y1921204D1*
X600777Y1928843D1*
X601077Y1936481D1*
X601976Y1944073D1*
X603467Y1951570D1*
X605542Y1958928D1*
X608188Y1966100D1*
X611388Y1973042D1*
X615124Y1979712D1*
X619371Y1986068D1*
X624103Y1992072D1*
X629292Y1997685D1*
X634906Y2002874D1*
X640909Y2007607D1*
X647266Y2011854D1*
X653935Y2015589D1*
X660878Y2018790D1*
X668050Y2021436D1*
X675407Y2023511D1*
X682905Y2025002D1*
X690497Y2025901D1*
X698135Y2026201D1*
X705774Y2025901D1*
X713365Y2025002D1*
X720863Y2023511D1*
X728221Y2021436D1*
X735393Y2018790D1*
X742335Y2015589D1*
X749005Y2011854D1*
X755361Y2007607D1*
X761364Y2002874D1*
X766978Y1997685D1*
X772167Y1992072D1*
X776900Y1986068D1*
X781147Y1979712D1*
X784882Y1973042D1*
X788082Y1966100D1*
X790728Y1958928D1*
X792803Y1951570D1*
X794295Y1944073D1*
X795193Y1936481D1*
X795493Y1928843D1*
X795193Y1921204D1*
X794056Y1912412D1*
X801230Y1914545D1*
X812506Y1916331D1*
X823922D1*
X835198Y1914545D1*
X846055Y1911017D1*
X856227Y1905834D1*
X865463Y1899124D1*
X873535Y1891052D1*
X880245Y1881816D1*
X885428Y1871644D1*
X888956Y1860787D1*
X890742Y1849511D1*
Y1838095D1*
X590215Y2410780D2*
X588936Y2402708D1*
X586411Y2394935D1*
X582700Y2387653D1*
X577897Y2381041D1*
X572118Y2375262D1*
X565506Y2370458D1*
X558224Y2366748D1*
X552803Y2364886D1*
X558224Y2362984D1*
X565506Y2359274D1*
X572118Y2354470D1*
X577897Y2348691D1*
X582700Y2342079D1*
X586411Y2334797D1*
X588936Y2327025D1*
X590215Y2318953D1*
Y2310780D1*
X588936Y2302708D1*
X586411Y2294935D1*
X582700Y2287653D1*
X577897Y2281041D1*
X572118Y2275262D1*
X565506Y2270458D1*
X558224Y2266748D1*
X550451Y2264223D1*
X542379Y2262944D1*
X534206D1*
X526134Y2264223D1*
X518361Y2266748D1*
X511080Y2270458D1*
X504468Y2275262D1*
X498689Y2281041D1*
X493885Y2287653D1*
X490175Y2294935D1*
X487649Y2302708D1*
X486371Y2310780D1*
Y2318953D1*
X487649Y2327025D1*
X490175Y2334797D1*
X493885Y2342079D1*
X498689Y2348691D1*
X504468Y2354470D1*
X511080Y2359274D1*
X518361Y2362984D1*
X523782Y2364846D1*
X518361Y2366748D1*
X511080Y2370458D1*
X504468Y2375262D1*
X498689Y2381041D1*
X493885Y2387653D1*
X490175Y2394935D1*
X487649Y2402708D1*
X486371Y2410780D1*
Y2418953D1*
X487649Y2427025D1*
X490175Y2434797D1*
X493885Y2442079D1*
X498689Y2448691D1*
X504468Y2454470D1*
X511080Y2459274D1*
X518361Y2462984D1*
X526134Y2465510D1*
X534206Y2466788D1*
X542379D1*
X550451Y2465510D1*
X558224Y2462984D1*
X565506Y2459274D1*
X572118Y2454470D1*
X577897Y2448691D1*
X582700Y2442079D1*
X586411Y2434797D1*
X588936Y2427025D1*
X590215Y2418953D1*
Y2410780D1*
Y1988733D2*
X588936Y1980660D1*
X586411Y1972888D1*
X582700Y1965606D1*
X577897Y1958994D1*
X572118Y1953215D1*
X565506Y1948411D1*
X558224Y1944701D1*
X552803Y1942839D1*
X558224Y1940937D1*
X565506Y1937227D1*
X572118Y1932423D1*
X577897Y1926644D1*
X582700Y1920032D1*
X586411Y1912750D1*
X588936Y1904977D1*
X590215Y1896905D1*
Y1888733D1*
X588936Y1880660D1*
X586411Y1872888D1*
X582700Y1865606D1*
X577897Y1858994D1*
X572118Y1853215D1*
X565506Y1848411D1*
X558224Y1844701D1*
X550451Y1842175D1*
X542379Y1840897D1*
X534206D1*
X526134Y1842175D1*
X518361Y1844701D1*
X511080Y1848411D1*
X504468Y1853215D1*
X498689Y1858994D1*
X493885Y1865606D1*
X490175Y1872888D1*
X487649Y1880660D1*
X486371Y1888733D1*
Y1896905D1*
X487649Y1904977D1*
X490175Y1912750D1*
X493885Y1920032D1*
X498689Y1926644D1*
X504468Y1932423D1*
X511080Y1937227D1*
X518361Y1940937D1*
X523782Y1942799D1*
X518361Y1944701D1*
X511080Y1948411D1*
X504468Y1953215D1*
X498689Y1958994D1*
X493885Y1965606D1*
X490175Y1972888D1*
X487649Y1980660D1*
X486371Y1988733D1*
Y1996905D1*
X487649Y2004977D1*
X490175Y2012750D1*
X493885Y2020032D1*
X498689Y2026644D1*
X504468Y2032423D1*
X511080Y2037227D1*
X518361Y2040937D1*
X526134Y2043463D1*
X534206Y2044741D1*
X542379D1*
X550451Y2043463D1*
X558224Y2040937D1*
X565506Y2037227D1*
X572118Y2032423D1*
X577897Y2026644D1*
X582700Y2020032D1*
X586411Y2012750D1*
X588936Y2004977D1*
X590215Y1996905D1*
Y1988733D1*
X1062646Y2028823D2*
X1068066Y2026961D1*
X1075348Y2023250D1*
X1081960Y2018446D1*
X1087739Y2012668D1*
X1089358Y2010798D1*
Y2047005D1*
X1084963Y2042015D1*
X1078749Y2036707D1*
X1071780Y2032437D1*
X1064230Y2029309D1*
X1062646Y2028862D1*
X1000057Y1924756D2*
X998779Y1916684D1*
X996253Y1908911D1*
X992543Y1901629D1*
X987739Y1895018D1*
X981960Y1889239D1*
X975348Y1884435D1*
X968066Y1880724D1*
X960294Y1878199D1*
X952222Y1876920D1*
X944049D1*
X935977Y1878199D1*
X928204Y1880724D1*
X920922Y1884435D1*
X914310Y1889239D1*
X908531Y1895018D1*
X903727Y1901629D1*
X900017Y1908911D1*
X897492Y1916684D1*
X896213Y1924756D1*
Y1932929D1*
X897492Y1941001D1*
X900017Y1948774D1*
X903727Y1956056D1*
X908531Y1962668D1*
X914310Y1968446D1*
X920922Y1973250D1*
X928204Y1976961D1*
X933624Y1978823D1*
X928204Y1980724D1*
X920922Y1984435D1*
X914310Y1989239D1*
X908531Y1995018D1*
X903727Y2001629D1*
X900017Y2008911D1*
X897492Y2016684D1*
X896213Y2024756D1*
Y2032929D1*
X897492Y2041001D1*
X900017Y2048774D1*
X903727Y2056056D1*
X908531Y2062668D1*
X914310Y2068446D1*
X920922Y2073250D1*
X928204Y2076961D1*
X933624Y2078823D1*
X928204Y2080724D1*
X920922Y2084435D1*
X914310Y2089239D1*
X908531Y2095018D1*
X903727Y2101629D1*
X900017Y2108911D1*
X897492Y2116684D1*
X896213Y2124756D1*
Y2132929D1*
X897492Y2141001D1*
X900017Y2148774D1*
X903727Y2156056D1*
X908531Y2162668D1*
X914310Y2168446D1*
X920922Y2173250D1*
X928204Y2176961D1*
X933624Y2178823D1*
X928204Y2180724D1*
X920922Y2184435D1*
X914310Y2189239D1*
X908531Y2195018D1*
X903727Y2201629D1*
X900017Y2208911D1*
X897492Y2216684D1*
X896213Y2224756D1*
Y2232929D1*
X897492Y2241001D1*
X900017Y2248774D1*
X903727Y2256056D1*
X908531Y2262668D1*
X914310Y2268446D1*
X920922Y2273250D1*
X928204Y2276961D1*
X933624Y2278823D1*
X928204Y2280724D1*
X920922Y2284435D1*
X914310Y2289239D1*
X908531Y2295018D1*
X903727Y2301629D1*
X900017Y2308911D1*
X897492Y2316684D1*
X896213Y2324756D1*
Y2332929D1*
X897492Y2341001D1*
X900017Y2348774D1*
X903727Y2356056D1*
X908531Y2362668D1*
X914310Y2368446D1*
X920922Y2373250D1*
X928204Y2376961D1*
X935977Y2379486D1*
X944049Y2380765D1*
X952222D1*
X960294Y2379486D1*
X968066Y2376961D1*
X975348Y2373250D1*
X981960Y2368446D1*
X987739Y2362668D1*
X992543Y2356056D1*
X996253Y2348774D1*
X998779Y2341001D1*
X1000057Y2332929D1*
Y2324756D1*
X998779Y2316684D1*
X996253Y2308911D1*
X992543Y2301629D1*
X987739Y2295018D1*
X981960Y2289239D1*
X975348Y2284435D1*
X968066Y2280724D1*
X962646Y2278862D1*
X968066Y2276961D1*
X975348Y2273250D1*
X981960Y2268446D1*
X987739Y2262668D1*
X992543Y2256056D1*
X996253Y2248774D1*
X998779Y2241001D1*
X1000057Y2232929D1*
Y2224756D1*
X998779Y2216684D1*
X996253Y2208911D1*
X992543Y2201629D1*
X987739Y2195018D1*
X981960Y2189239D1*
X975348Y2184435D1*
X968066Y2180724D1*
X962646Y2178862D1*
X968066Y2176961D1*
X975348Y2173250D1*
X981960Y2168446D1*
X987739Y2162668D1*
X992543Y2156056D1*
X996253Y2148774D1*
X998779Y2141001D1*
X1000057Y2132929D1*
Y2124756D1*
X998779Y2116684D1*
X996253Y2108911D1*
X992543Y2101629D1*
X987739Y2095018D1*
X981960Y2089239D1*
X975348Y2084435D1*
X968066Y2080724D1*
X962646Y2078862D1*
X968066Y2076961D1*
X975348Y2073250D1*
X981960Y2068446D1*
X987739Y2062668D1*
X992543Y2056056D1*
X996253Y2048774D1*
X998779Y2041001D1*
X1000057Y2032929D1*
Y2024756D1*
X998779Y2016684D1*
X996253Y2008911D1*
X992543Y2001629D1*
X987739Y1995018D1*
X981960Y1989239D1*
X975348Y1984435D1*
X968066Y1980724D1*
X962646Y1978862D1*
X968066Y1976961D1*
X975348Y1973250D1*
X981960Y1968446D1*
X987739Y1962668D1*
X992543Y1956056D1*
X996253Y1948774D1*
X998779Y1941001D1*
X1000057Y1932929D1*
Y1924756D1*
X1062646Y2128823D2*
X1068066Y2126961D1*
X1075348Y2123250D1*
X1081960Y2118446D1*
X1087739Y2112668D1*
X1089351Y2110623D1*
X1089358Y2146978D1*
X1084963Y2142015D1*
X1078749Y2136707D1*
X1071780Y2132437D1*
X1064230Y2129309D1*
X1062646Y2128862D1*
Y2228823D2*
X1068066Y2226961D1*
X1075348Y2223250D1*
X1081960Y2218446D1*
X1087739Y2212668D1*
X1089351Y2210623D1*
X1089358Y2247023D1*
X1084963Y2242015D1*
X1078749Y2236707D1*
X1071780Y2232437D1*
X1064230Y2229309D1*
X1062646Y2228862D1*
Y2328823D2*
X1068066Y2326961D1*
X1075348Y2323250D1*
X1081960Y2318446D1*
X1087739Y2312668D1*
X1089351Y2310623D1*
X1089358Y2346997D1*
X1084963Y2342015D1*
X1078749Y2336707D1*
X1071780Y2332437D1*
X1064230Y2329309D1*
X1062646Y2328862D1*
X642570Y3654548D2*
X641727Y3647423D1*
X640327Y3640386D1*
X638380Y3633481D1*
X635896Y3626750D1*
X632893Y3620235D1*
X629387Y3613975D1*
X625401Y3608010D1*
X620960Y3602376D1*
X616090Y3597107D1*
X610821Y3592237D1*
X605187Y3587796D1*
X599222Y3583810D1*
X592962Y3580304D1*
X586447Y3577300D1*
X579716Y3574817D1*
X572811Y3572870D1*
X565774Y3571470D1*
X558649Y3570627D1*
X551480Y3570345D1*
X544311Y3570627D1*
X537187Y3571470D1*
X530150Y3572870D1*
X523245Y3574817D1*
X516514Y3577300D1*
X509999Y3580304D1*
X503739Y3583810D1*
X497774Y3587796D1*
X492139Y3592237D1*
X486871Y3597107D1*
X482001Y3602376D1*
X477559Y3608010D1*
X473573Y3613975D1*
X470068Y3620235D1*
X467064Y3626750D1*
X464581Y3633481D1*
X462634Y3640386D1*
X461234Y3647423D1*
X460391Y3654548D1*
X460109Y3661717D1*
X460391Y3668885D1*
X461234Y3676010D1*
X462634Y3683047D1*
X464581Y3689952D1*
X467064Y3696683D1*
X470068Y3703198D1*
X473573Y3709458D1*
X477559Y3715423D1*
X482001Y3721058D1*
X486871Y3726326D1*
X492139Y3731196D1*
X497774Y3735638D1*
X503739Y3739623D1*
X511907Y3744009D1*
X425290Y3744000D1*
X431477Y425221D1*
X523100Y425251D1*
X516514Y427694D1*
X509999Y430698D1*
X503739Y434203D1*
X497774Y438189D1*
X492139Y442631D1*
X486871Y447501D1*
X482001Y452769D1*
X477559Y458403D1*
X473573Y464369D1*
X470068Y470628D1*
X467064Y477144D1*
X464581Y483875D1*
X462634Y490780D1*
X461234Y497817D1*
X460391Y504941D1*
X460109Y512110D1*
X460391Y519279D1*
X461234Y526404D1*
X462634Y533440D1*
X464581Y540346D1*
X467064Y547077D1*
X470068Y553592D1*
X473573Y559852D1*
X477559Y565817D1*
X482001Y571451D1*
X486871Y576720D1*
X492139Y581590D1*
X497774Y586031D1*
X503739Y590017D1*
X509999Y593523D1*
X516514Y596526D1*
X523245Y599010D1*
X530150Y600957D1*
X537187Y602357D1*
X544311Y603200D1*
X551480Y603482D1*
X558649Y603200D1*
X565774Y602357D1*
X572811Y600957D1*
X579716Y599010D1*
X586447Y596526D1*
X592962Y593523D1*
X599222Y590017D1*
X605187Y586031D1*
X610821Y581590D1*
X616090Y576720D1*
X620960Y571451D1*
X625401Y565817D1*
X629387Y559852D1*
X632893Y553592D1*
X635896Y547077D1*
X638380Y540346D1*
X640327Y533440D1*
X641727Y526404D1*
X642570Y519279D1*
X642852Y512110D1*
X642570Y504941D1*
X641727Y497817D1*
X640327Y490780D1*
X638380Y483875D1*
X635896Y477144D1*
X632893Y470628D1*
X629387Y464369D1*
X625401Y458403D1*
X620960Y452769D1*
X616090Y447501D1*
X610821Y442631D1*
X605187Y438189D1*
X599222Y434203D1*
X592962Y430698D1*
X586447Y427694D1*
X579847Y425259D1*
X5011279Y425251D1*
X5004703Y427694D1*
X4998188Y430698D1*
X4991928Y434203D1*
X4985963Y438189D1*
X4980328Y442631D1*
X4975060Y447501D1*
X4970190Y452769D1*
X4965748Y458403D1*
X4961762Y464369D1*
X4958257Y470628D1*
X4955253Y477144D1*
X4952770Y483875D1*
X4950822Y490780D1*
X4949423Y497817D1*
X4948580Y504941D1*
X4948298Y512110D1*
X4948580Y519279D1*
X4949423Y526404D1*
X4950822Y533440D1*
X4952770Y540346D1*
X4955253Y547077D1*
X4958257Y553592D1*
X4961762Y559852D1*
X4965748Y565817D1*
X4970190Y571451D1*
X4975060Y576720D1*
X4980328Y581590D1*
X4985963Y586031D1*
X4991928Y590017D1*
X4998188Y593523D1*
X5004703Y596526D1*
X5011434Y599010D1*
X5018339Y600957D1*
X5025376Y602357D1*
X5032500Y603200D1*
X5039669Y603482D1*
X5046838Y603200D1*
X5053963Y602357D1*
X5061000Y600957D1*
X5067905Y599010D1*
X5074636Y596526D1*
X5081151Y593523D1*
X5087411Y590017D1*
X5093376Y586031D1*
X5099010Y581590D1*
X5104279Y576720D1*
X5109149Y571451D1*
X5113590Y565817D1*
X5117576Y559852D1*
X5121082Y553592D1*
X5124085Y547077D1*
X5126569Y540346D1*
X5128516Y533440D1*
X5129916Y526404D1*
X5130759Y519279D1*
X5131041Y512110D1*
X5130759Y504941D1*
X5129916Y497817D1*
X5128516Y490780D1*
X5126569Y483875D1*
X5124085Y477144D1*
X5121082Y470628D1*
X5117576Y464369D1*
X5113590Y458403D1*
X5109149Y452769D1*
X5104279Y447501D1*
X5099010Y442631D1*
X5093376Y438189D1*
X5087411Y434203D1*
X5081151Y430698D1*
X5074636Y427694D1*
X5068036Y425259D1*
X5156466Y425251D1*
X5156500Y3743987D1*
X5079397Y3744000D1*
X5087411Y3739623D1*
X5093376Y3735638D1*
X5099010Y3731196D1*
X5104279Y3726326D1*
X5109149Y3721058D1*
X5113590Y3715423D1*
X5117576Y3709458D1*
X5121082Y3703198D1*
X5124085Y3696683D1*
X5126569Y3689952D1*
X5128516Y3683047D1*
X5129916Y3676010D1*
X5130759Y3668885D1*
X5131041Y3661717D1*
X5130759Y3654548D1*
X5129916Y3647423D1*
X5128516Y3640386D1*
X5126569Y3633481D1*
X5124085Y3626750D1*
X5121082Y3620235D1*
X5117576Y3613975D1*
X5113590Y3608010D1*
X5109149Y3602376D1*
X5104279Y3597107D1*
X5099010Y3592237D1*
X5093376Y3587796D1*
X5087411Y3583810D1*
X5081151Y3580304D1*
X5074636Y3577300D1*
X5067905Y3574817D1*
X5061000Y3572870D1*
X5053963Y3571470D1*
X5046838Y3570627D1*
X5039669Y3570345D1*
X5032500Y3570627D1*
X5025376Y3571470D1*
X5018339Y3572870D1*
X5011434Y3574817D1*
X5004703Y3577300D1*
X4998188Y3580304D1*
X4991928Y3583810D1*
X4985963Y3587796D1*
X4980328Y3592237D1*
X4975060Y3597107D1*
X4970190Y3602376D1*
X4965748Y3608010D1*
X4961762Y3613975D1*
X4958257Y3620235D1*
X4955253Y3626750D1*
X4952770Y3633481D1*
X4950822Y3640386D1*
X4949423Y3647423D1*
X4948580Y3654548D1*
X4948298Y3661717D1*
X4948580Y3668885D1*
X4949423Y3676010D1*
X4950822Y3683047D1*
X4952770Y3689952D1*
X4955253Y3696683D1*
X4958257Y3703198D1*
X4961762Y3709458D1*
X4965748Y3715423D1*
X4970190Y3721058D1*
X4975060Y3726326D1*
X4980328Y3731196D1*
X4985963Y3735638D1*
X4991928Y3739623D1*
X5000096Y3744009D1*
X591218Y3744000D1*
X599222Y3739623D1*
X605187Y3735638D1*
X610821Y3731196D1*
X616090Y3726326D1*
X620960Y3721058D1*
X625401Y3715423D1*
X629387Y3709458D1*
X632893Y3703198D1*
X635896Y3696683D1*
X638380Y3689952D1*
X640327Y3683047D1*
X641727Y3676010D1*
X642570Y3668885D1*
X642852Y3661717D1*
X642570Y3654548D1*
X1621595Y1299672D2*
X1737988Y1183133D1*
X1738964Y1189276D1*
Y1266750D1*
X1734340Y1272184D1*
X1730528Y1278405D1*
X1727736Y1285145D1*
X1726033Y1292239D1*
X1725461Y1299512D1*
X1725927Y1305893D1*
X1621142Y1305894D1*
X1621588Y1299669D1*
X1452384Y1706516D2*
X1502406D1*
X1561814Y1765947D1*
X1561799Y2087964D1*
X1235037Y2414741D1*
X1229603Y2415722D1*
X1222665Y2417976D1*
X1216165Y2421288D1*
X1214398Y2422469D1*
X1214390Y1855906D1*
X1222194Y1852748D1*
X1228414Y1848936D1*
X1233962Y1844198D1*
X1238700Y1838650D1*
X1242511Y1832430D1*
X1245303Y1825690D1*
X1247006Y1818596D1*
X1247579Y1811323D1*
X1247006Y1804050D1*
X1245303Y1796956D1*
X1242511Y1790216D1*
X1238700Y1783995D1*
X1233962Y1778448D1*
X1228414Y1773710D1*
X1222194Y1769898D1*
X1215453Y1767106D1*
X1208360Y1765403D1*
X1201087Y1764831D1*
X1193814Y1765403D1*
X1186720Y1767106D1*
X1179980Y1769898D1*
X1173759Y1773710D1*
X1168212Y1778448D1*
X1163474Y1783995D1*
X1159662Y1790216D1*
X1156870Y1796956D1*
X1155337Y1803197D1*
X1155335Y1785584D1*
X1195076Y1745876D1*
X1398465Y1745886D1*
X1456964Y1804404D1*
X1457529Y1811509D1*
X1459232Y1818603D1*
X1462024Y1825343D1*
X1465836Y1831564D1*
X1470574Y1837111D1*
X1476121Y1841849D1*
X1482342Y1845661D1*
X1489082Y1848453D1*
X1496176Y1850156D1*
X1503449Y1850728D1*
X1510722Y1850156D1*
X1517816Y1848453D1*
X1524556Y1845661D1*
X1530776Y1841849D1*
X1536324Y1837111D1*
X1541062Y1831564D1*
X1544874Y1825343D1*
X1547665Y1818603D1*
X1549369Y1811509D1*
X1549941Y1804236D1*
X1549369Y1796963D1*
X1547665Y1789869D1*
X1544874Y1783129D1*
X1541062Y1776909D1*
X1536324Y1771361D1*
X1530776Y1766623D1*
X1524556Y1762811D1*
X1517816Y1760020D1*
X1510722Y1758316D1*
X1503606Y1757750D1*
X1452404Y1706539D1*
X538177Y2729912D2*
Y3097438D1*
X533552Y3102893D1*
X529741Y3109113D1*
X526949Y3115854D1*
X525246Y3122948D1*
X524673Y3130220D1*
X525246Y3137493D1*
X526949Y3144587D1*
X529741Y3151327D1*
X533552Y3157548D1*
X538290Y3163095D1*
X543838Y3167833D1*
X550058Y3171645D1*
X556798Y3174437D1*
X563892Y3176140D1*
X571165Y3176713D1*
X578438Y3176140D1*
X585532Y3174437D1*
X592272Y3171645D1*
X598493Y3167833D1*
X604040Y3163095D1*
X608778Y3157548D1*
X612590Y3151327D1*
X615382Y3144587D1*
X617085Y3137493D1*
X617657Y3130220D1*
X617085Y3122948D1*
X615382Y3115854D1*
X612590Y3109113D1*
X608778Y3102893D1*
X604147Y3097461D1*
X604154Y2729932D1*
X608778Y2724477D1*
X612590Y2718257D1*
X615382Y2711516D1*
X617085Y2704423D1*
X617657Y2697150D1*
X617085Y2689877D1*
X615382Y2682783D1*
X612590Y2676043D1*
X608778Y2669822D1*
X604040Y2664275D1*
X598493Y2659537D1*
X592272Y2655725D1*
X585532Y2652933D1*
X578438Y2651230D1*
X571165Y2650657D1*
X563892Y2651230D1*
X556798Y2652933D1*
X550058Y2655725D1*
X543838Y2659537D1*
X538290Y2664275D1*
X533552Y2669822D1*
X529741Y2676043D1*
X526949Y2682783D1*
X525246Y2689877D1*
X524673Y2697150D1*
X525246Y2704423D1*
X526949Y2711516D1*
X529741Y2718257D1*
X533552Y2724477D1*
X538184Y2729909D1*
X1234982Y2414797D2*
X1229603Y2415722D1*
X1222665Y2417976D1*
X1216165Y2421288D1*
X1214398Y2422469D1*
Y2499390D2*
X1219350Y2502354D1*
X1226090Y2505146D1*
X1233184Y2506849D1*
X1240457Y2507421D1*
X1247730Y2506849D1*
X1254824Y2505146D1*
X1261564Y2502354D1*
X1267784Y2498542D1*
X1273332Y2493804D1*
X1278070Y2488257D1*
X1281881Y2482036D1*
X1284673Y2475296D1*
X1286376Y2468202D1*
X1286589Y2466404D1*
X4749591Y2003371D2*
X4742972Y2006119D1*
X4736751Y2009930D1*
X4731204Y2014668D1*
X4726466Y2020216D1*
X4722654Y2026436D1*
X4719862Y2033176D1*
X4719371Y2034919D1*
X4712135Y2027687D1*
X4711573Y2020585D1*
X4709870Y2013491D1*
X4707078Y2006751D1*
X4705160Y2003365D1*
X4749572Y2003366D1*
X4914951Y1293130D2*
X5046287D1*
X5051712Y1297755D1*
X5057932Y1301567D1*
X5064673Y1304358D1*
X5071766Y1306061D1*
X5079039Y1306634D1*
X5086312Y1306061D1*
X5093406Y1304358D1*
X5100146Y1301567D1*
X5106367Y1297755D1*
X5111914Y1293017D1*
X5116652Y1287469D1*
X5120464Y1281249D1*
X5123256Y1274509D1*
X5124959Y1267415D1*
X5125531Y1260142D1*
X5124959Y1252869D1*
X5123256Y1245775D1*
X5120464Y1239035D1*
X5116652Y1232814D1*
X5111914Y1227267D1*
X5106367Y1222529D1*
X5100146Y1218717D1*
X5093406Y1215925D1*
X5086312Y1214222D1*
X5079039Y1213650D1*
X5071766Y1214222D1*
X5064673Y1215925D1*
X5057932Y1218717D1*
X5051712Y1222529D1*
X5046280Y1227160D1*
X4914941Y1227153D1*
X4909516Y1222529D1*
X4903296Y1218717D1*
X4896556Y1215925D1*
X4889462Y1214222D1*
X4882189Y1213650D1*
X4874916Y1214222D1*
X4867822Y1215925D1*
X4861082Y1218717D1*
X4854862Y1222529D1*
X4849314Y1227267D1*
X4844576Y1232814D1*
X4840764Y1239035D1*
X4837972Y1245775D1*
X4836269Y1252869D1*
X4835697Y1260142D1*
X4836269Y1267415D1*
X4837972Y1274509D1*
X4840764Y1281249D1*
X4844576Y1287469D1*
X4849314Y1293017D1*
X4854862Y1297755D1*
X4861082Y1301567D1*
X4867822Y1304358D1*
X4874916Y1306061D1*
X4882189Y1306634D1*
X4889462Y1306061D1*
X4896556Y1304358D1*
X4903296Y1301567D1*
X4909516Y1297755D1*
X4914949Y1293123D1*
X4934636Y1529351D2*
X5046308D1*
X5051712Y1533975D1*
X5057932Y1537787D1*
X5064673Y1540579D1*
X5071766Y1542282D1*
X5079039Y1542854D1*
X5086312Y1542282D1*
X5093406Y1540579D1*
X5100146Y1537787D1*
X5106367Y1533975D1*
X5111914Y1529237D1*
X5116652Y1523690D1*
X5120464Y1517469D1*
X5123256Y1510729D1*
X5124959Y1503635D1*
X5125531Y1496362D1*
X5124959Y1489089D1*
X5123256Y1481995D1*
X5120464Y1475255D1*
X5116652Y1469035D1*
X5111914Y1463487D1*
X5106367Y1458749D1*
X5100146Y1454937D1*
X5093406Y1452146D1*
X5086312Y1450442D1*
X5079039Y1449870D1*
X5071766Y1450442D1*
X5064673Y1452146D1*
X5057932Y1454937D1*
X5051712Y1458749D1*
X5046280Y1463381D1*
X4934606Y1463374D1*
X4929201Y1458749D1*
X4922981Y1454937D1*
X4916241Y1452146D1*
X4909147Y1450442D1*
X4901874Y1449870D1*
X4894601Y1450442D1*
X4887507Y1452146D1*
X4880767Y1454937D1*
X4874547Y1458749D1*
X4868999Y1463487D1*
X4864261Y1469035D1*
X4860449Y1475255D1*
X4857657Y1481995D1*
X4855954Y1489089D1*
X4855382Y1496362D1*
X4855954Y1503635D1*
X4857657Y1510729D1*
X4860449Y1517469D1*
X4864261Y1523690D1*
X4868999Y1529237D1*
X4874547Y1533975D1*
X4880767Y1537787D1*
X4887507Y1540579D1*
X4894601Y1542282D1*
X4901874Y1542854D1*
X4909147Y1542282D1*
X4916241Y1540579D1*
X4922981Y1537787D1*
X4929201Y1533975D1*
X4934634Y1529344D1*
X4953807Y1063132D2*
X4888190Y1128749D1*
X4761491Y1128830D1*
X4756378Y1129640D1*
X4751455Y1131239D1*
X4746842Y1133589D1*
X4742655Y1136632D1*
X4695282Y1183860D1*
X4522459Y1356828D1*
X4519416Y1361016D1*
X4517066Y1365628D1*
X4515467Y1370551D1*
X4514657Y1375664D1*
X4514555Y1393790D1*
X4509930Y1399249D1*
X4506119Y1405469D1*
X4503327Y1412209D1*
X4501624Y1419303D1*
X4501051Y1426576D1*
X4501624Y1433849D1*
X4503327Y1440943D1*
X4506119Y1447683D1*
X4509930Y1453904D1*
X4514668Y1459451D1*
X4520216Y1464189D1*
X4526436Y1468001D1*
X4533176Y1470793D1*
X4540270Y1472496D1*
X4547543Y1473068D1*
X4554816Y1472496D1*
X4561910Y1470793D1*
X4568650Y1468001D1*
X4574871Y1464189D1*
X4580418Y1459451D1*
X4585156Y1453904D1*
X4588968Y1447683D1*
X4591760Y1440943D1*
X4593463Y1433849D1*
X4594035Y1426576D1*
X4593463Y1419303D1*
X4591760Y1412209D1*
X4588968Y1405469D1*
X4585156Y1399249D1*
X4580525Y1393816D1*
X4583861Y1388587D1*
X4777743Y1194704D1*
X4904462Y1194603D1*
X4909575Y1193793D1*
X4914498Y1192194D1*
X4919110Y1189844D1*
X4923298Y1186801D1*
X4970670Y1139573D1*
X5000485Y1109758D1*
X5007572Y1109211D1*
X5014666Y1107508D1*
X5021406Y1104716D1*
X5027627Y1100904D1*
X5033174Y1096166D1*
X5037912Y1090619D1*
X5041724Y1084398D1*
X5044516Y1077658D1*
X5046219Y1070564D1*
X5046791Y1063291D1*
X5046219Y1056018D1*
X5044516Y1048924D1*
X5041724Y1042184D1*
X5037912Y1035964D1*
X5033174Y1030416D1*
X5027627Y1025678D1*
X5021406Y1021867D1*
X5014666Y1019075D1*
X5007572Y1017372D1*
X5000299Y1016799D1*
X4993026Y1017372D1*
X4985932Y1019075D1*
X4979192Y1021867D1*
X4972972Y1025678D1*
X4967424Y1030416D1*
X4962686Y1035964D1*
X4958874Y1042184D1*
X4956083Y1048924D1*
X4954379Y1056018D1*
X4953813Y1063135D1*
X4692461Y1437467D2*
X4699008Y1430920D1*
X5065962Y1430925D1*
X5071397Y1435550D1*
X5077617Y1439362D1*
X5084358Y1442154D1*
X5091451Y1443857D1*
X5098724Y1444429D1*
X5105997Y1443857D1*
X5113091Y1442154D1*
X5119831Y1439362D1*
X5126052Y1435550D1*
X5131599Y1430812D1*
X5136337Y1425264D1*
X5140149Y1419044D1*
X5142941Y1412304D1*
X5144644Y1405210D1*
X5145217Y1397937D1*
X5144644Y1390664D1*
X5142941Y1383570D1*
X5140149Y1376830D1*
X5136337Y1370610D1*
X5131599Y1365062D1*
X5126052Y1360324D1*
X5119831Y1356512D1*
X5113091Y1353720D1*
X5105997Y1352017D1*
X5098724Y1351445D1*
X5091451Y1352017D1*
X5084358Y1353720D1*
X5077617Y1356512D1*
X5071397Y1360324D1*
X5065965Y1364956D1*
X4682750Y1365050D1*
X4677638Y1365860D1*
X4672715Y1367460D1*
X4668102Y1369810D1*
X4663914Y1372853D1*
X4645798Y1390825D1*
X4638696Y1391387D1*
X4631602Y1393090D1*
X4624862Y1395882D1*
X4618641Y1399694D1*
X4613094Y1404432D1*
X4608356Y1409980D1*
X4604544Y1416200D1*
X4601752Y1422940D1*
X4600049Y1430034D1*
X4599476Y1437307D1*
X4600049Y1444580D1*
X4601752Y1451674D1*
X4604544Y1458414D1*
X4608356Y1464634D1*
X4613094Y1470182D1*
X4618641Y1474920D1*
X4624862Y1478732D1*
X4631602Y1481524D1*
X4638696Y1483227D1*
X4645969Y1483799D1*
X4653241Y1483227D1*
X4660335Y1481524D1*
X4667075Y1478732D1*
X4673296Y1474920D1*
X4678843Y1470182D1*
X4683581Y1464634D1*
X4687393Y1458414D1*
X4690185Y1451674D1*
X4691888Y1444580D1*
X4692454Y1437464D1*
X4352970Y2034240D2*
X4147210D1*
X4141800Y2029615D1*
X4135579Y2025804D1*
X4128839Y2023012D1*
X4121745Y2021309D1*
X4114472Y2020736D1*
X4107199Y2021309D1*
X4100106Y2023012D1*
X4093365Y2025804D1*
X4087145Y2029615D1*
X4081598Y2034353D1*
X4076860Y2039901D1*
X4073048Y2046121D1*
X4070256Y2052861D1*
X4068553Y2059955D1*
X4067980Y2067228D1*
X4068553Y2074501D1*
X4070256Y2081595D1*
X4073048Y2088335D1*
X4076860Y2094556D1*
X4081598Y2100103D1*
X4087145Y2104841D1*
X4093365Y2108653D1*
X4100106Y2111445D1*
X4107199Y2113148D1*
X4114472Y2113720D1*
X4121745Y2113148D1*
X4128839Y2111445D1*
X4135579Y2108653D1*
X4141800Y2104841D1*
X4147232Y2100210D1*
X4352995Y2100217D1*
X4358405Y2104841D1*
X4364625Y2108653D1*
X4371365Y2111445D1*
X4378459Y2113148D1*
X4385732Y2113720D1*
X4393005Y2113148D1*
X4400099Y2111445D1*
X4406839Y2108653D1*
X4413060Y2104841D1*
X4418607Y2100103D1*
X4423345Y2094556D1*
X4427157Y2088335D1*
X4429949Y2081595D1*
X4431652Y2074501D1*
X4432224Y2067228D1*
X4431652Y2059955D1*
X4429949Y2052861D1*
X4427157Y2046121D1*
X4423345Y2039901D1*
X4418607Y2034353D1*
X4413060Y2029615D1*
X4406839Y2025804D1*
X4400099Y2023012D1*
X4393005Y2021309D1*
X4385732Y2020736D1*
X4378459Y2021309D1*
X4371365Y2023012D1*
X4364625Y2025804D1*
X4358405Y2029615D1*
X4352973Y2034247D1*
X3734847Y2946262D2*
X4139561Y2541548D1*
X4139246Y2546993D1*
X3740310Y2945919D1*
X3734784Y2946316D1*
X4179909Y2926762D2*
Y3018698D1*
X4175285Y3024153D1*
X4171473Y3030373D1*
X4168681Y3037113D1*
X4166978Y3044207D1*
X4166406Y3051480D1*
X4166978Y3058753D1*
X4168681Y3065847D1*
X4171473Y3072587D1*
X4175285Y3078808D1*
X4180023Y3084355D1*
X4185570Y3089093D1*
X4191791Y3092905D1*
X4198531Y3095697D1*
X4205625Y3097400D1*
X4212898Y3097972D1*
X4220171Y3097400D1*
X4227264Y3095697D1*
X4234005Y3092905D1*
X4240225Y3089093D1*
X4245773Y3084355D1*
X4250511Y3078808D1*
X4254322Y3072587D1*
X4257114Y3065847D1*
X4258817Y3058753D1*
X4259390Y3051480D1*
X4258817Y3044207D1*
X4257114Y3037113D1*
X4254322Y3030373D1*
X4250511Y3024153D1*
X4245879Y3018721D1*
X4245886Y2926783D1*
X4250511Y2921327D1*
X4254322Y2915107D1*
X4257114Y2908367D1*
X4258817Y2901273D1*
X4259390Y2894000D1*
X4258817Y2886727D1*
X4257114Y2879633D1*
X4254322Y2872893D1*
X4250511Y2866673D1*
X4245773Y2861125D1*
X4240225Y2856387D1*
X4234005Y2852575D1*
X4227264Y2849783D1*
X4220171Y2848080D1*
X4212898Y2847508D1*
X4205625Y2848080D1*
X4198531Y2849783D1*
X4191791Y2852575D1*
X4185570Y2856387D1*
X4180023Y2861125D1*
X4175285Y2866673D1*
X4171473Y2872893D1*
X4168681Y2879633D1*
X4166978Y2886727D1*
X4166406Y2894000D1*
X4166978Y2901273D1*
X4168681Y2908367D1*
X4171473Y2915107D1*
X4175285Y2921327D1*
X4179916Y2926760D1*
X2893840Y2113721D2*
X3010371Y2230108D1*
X3014559Y2233151D1*
X3019171Y2235501D1*
X3024094Y2237100D1*
X3029207Y2237910D1*
X3096100Y2238012D1*
X3136828D1*
X3142263Y2242637D1*
X3148484Y2246448D1*
X3155224Y2249240D1*
X3162318Y2250943D1*
X3169591Y2251516D1*
X3176864Y2250943D1*
X3183957Y2249240D1*
X3190698Y2246448D1*
X3196918Y2242637D1*
X3202465Y2237899D1*
X3207203Y2232351D1*
X3211015Y2226131D1*
X3213807Y2219390D1*
X3215510Y2212297D1*
X3216083Y2205024D1*
X3215510Y2197751D1*
X3213807Y2190657D1*
X3211015Y2183917D1*
X3207203Y2177696D1*
X3202465Y2172149D1*
X3196918Y2167411D1*
X3190698Y2163599D1*
X3183957Y2160807D1*
X3176864Y2159104D1*
X3169591Y2158531D1*
X3162318Y2159104D1*
X3155224Y2160807D1*
X3148484Y2163599D1*
X3142263Y2167411D1*
X3136831Y2172042D1*
X3045467Y2172035D1*
X2940507Y2067083D1*
X2939920Y2059955D1*
X2938217Y2052861D1*
X2935425Y2046121D1*
X2931613Y2039901D1*
X2926875Y2034353D1*
X2921327Y2029615D1*
X2915107Y2025804D1*
X2908367Y2023012D1*
X2901273Y2021309D1*
X2894000Y2020736D1*
X2886727Y2021309D1*
X2879633Y2023012D1*
X2875418Y2024639D1*
X2872558Y2020216D1*
X2867820Y2014668D1*
X2862272Y2009930D1*
X2856052Y2006119D1*
X2849312Y2003327D1*
X2842218Y2001624D1*
X2834945Y2001051D1*
X2827672Y2001624D1*
X2820578Y2003327D1*
X2813838Y2006119D1*
X2807617Y2009930D1*
X2802070Y2014668D1*
X2797332Y2020216D1*
X2793520Y2026436D1*
X2790728Y2033176D1*
X2789025Y2040270D1*
X2788453Y2047543D1*
X2789025Y2054816D1*
X2790728Y2061910D1*
X2793520Y2068650D1*
X2797332Y2074871D1*
X2801964Y2080303D1*
X2802058Y2109187D1*
X2802868Y2114299D1*
X2804468Y2119222D1*
X2806818Y2123835D1*
X2809860Y2128023D1*
X2857089Y2175395D1*
X3064064Y2382370D1*
X3064616Y2389462D1*
X3066319Y2396556D1*
X3069111Y2403296D1*
X3072923Y2409516D1*
X3077554Y2414949D1*
X3077547Y2506312D1*
X3072478Y2506681D1*
X3044883D1*
X3039438Y2502056D1*
X3033217Y2498245D1*
X3026477Y2495453D1*
X3019383Y2493750D1*
X3012110Y2493177D1*
X3004837Y2493750D1*
X2997743Y2495453D1*
X2991003Y2498245D1*
X2984783Y2502056D1*
X2979235Y2506794D1*
X2974497Y2512342D1*
X2970685Y2518562D1*
X2967894Y2525302D1*
X2966191Y2532396D1*
X2965618Y2539669D1*
X2966191Y2546942D1*
X2967894Y2554036D1*
X2970685Y2560776D1*
X2974497Y2566997D1*
X2979235Y2572544D1*
X2984783Y2577282D1*
X2991003Y2581094D1*
X2997743Y2583886D1*
X3004837Y2585589D1*
X3012110Y2586161D1*
X3019383Y2585589D1*
X3026477Y2583886D1*
X3033217Y2581094D1*
X3039438Y2577282D1*
X3044870Y2572651D1*
X3093439Y2572556D1*
X3098551Y2571746D1*
X3103474Y2570146D1*
X3108087Y2567796D1*
X3112275Y2564754D1*
X3133862Y2543310D1*
X3137223Y2539374D1*
X3139928Y2534961D1*
X3141909Y2530178D1*
X3143118Y2525145D1*
X3143523Y2519974D1*
X3143524Y2414951D1*
X3148148Y2409516D1*
X3151960Y2403296D1*
X3154752Y2396556D1*
X3156455Y2389462D1*
X3157028Y2382189D1*
X3156455Y2374916D1*
X3154752Y2367822D1*
X3151960Y2361082D1*
X3148148Y2354862D1*
X3143410Y2349314D1*
X3137863Y2344576D1*
X3131642Y2340764D1*
X3124902Y2337972D1*
X3117808Y2336269D1*
X3110692Y2335703D1*
X2888369Y2113370D1*
X2893843Y2113714D1*
X4999660Y1870378D2*
D14*
Y1810457D1*
X669591Y1493291D2*
Y1263213D1*
X1010634Y3559570D2*
Y3426658D1*
X1498134Y3559570D2*
Y3426658D1*
X1987740Y3559590D2*
Y3426678D1*
X2473134Y3559590D2*
Y3426678D1*
X2960634Y3559590D2*
Y3426678D1*
X3448134Y3559590D2*
Y3426678D1*
X3935634Y3559590D2*
Y3426678D1*
X4423134Y3559590D2*
Y3426678D1*
X1160614Y747937D2*
Y615024D1*
X1648134Y747937D2*
Y615024D1*
X2137740Y747937D2*
Y615024D1*
X2623134Y747937D2*
Y615024D1*
X3110614Y747937D2*
Y615024D1*
X3598134Y681480D2*
Y615024D1*
X4085614Y681480D2*
Y615024D1*
X4573134Y681480D2*
Y615024D1*
X3142917Y1921421D2*
Y1830004D1*
Y1447406D2*
Y1355989D1*
D26*
X4999660Y2370378D3*
D27*
Y2270378D3*
Y2170378D3*
Y2070378D3*
Y1970378D3*
Y1870378D3*
D28*
X669591Y1378252D3*
D29*
X905811D3*
D30*
X787701Y1193213D3*
D32*
X1010634Y3493114D3*
X1160634D3*
X1498134D3*
X1648134D3*
X1987740Y3493134D3*
X2137740D3*
X2473134D3*
X2623134D3*
X2960634D3*
X3110634D3*
X3448134D3*
X3598134D3*
X3935634D3*
X4085634D3*
X4423134D3*
X4573134D3*
X1160614Y681480D3*
X1010614D3*
X1648134D3*
X1498134D3*
X2137740D3*
X1987740D3*
X2623134D3*
X2473134D3*
X3110614D3*
X2960614D3*
X3598134D3*
X3448134D3*
X4085614D3*
X3935614D3*
X4573134D3*
X4423134D3*
D39*
X3249374Y1635201D3*
D40*
X3249413Y1733626D3*
X3123035D3*
Y1635201D3*
D41*
X3142917Y1921421D3*
Y1447406D3*
M02*
