G04 DipTrace 3.3.1.3*
G04 BottomMask.gbr*
%MOIN*%
G04 #@! TF.FileFunction,Soldermask,Bot*
G04 #@! TF.Part,Single*
%ADD44C,0.09252*%
%ADD45C,0.141732*%
%ADD46C,0.051181*%
%ADD47C,0.11811*%
%ADD55C,0.137961*%
%ADD57C,0.071032*%
%ADD59R,0.071032X0.071032*%
%ADD69C,0.08804*%
%ADD73O,0.185205X0.08678*%
%ADD75O,0.08678X0.20489*%
%ADD77O,0.08678X0.185205*%
%ADD79C,0.074969*%
%ADD81R,0.074969X0.074969*%
%FSLAX26Y26*%
G04*
G70*
G90*
G75*
G01*
G04 BotMask*
%LPD*%
D81*
X4999660Y2370378D3*
D79*
Y2270378D3*
Y2170378D3*
Y2070378D3*
Y1970378D3*
Y1870378D3*
D77*
X669591Y1378252D3*
D75*
X905811D3*
D73*
X787701Y1193213D3*
D69*
X1010634Y3493114D3*
X1160634D3*
X1498134D3*
X1648134D3*
X1987740Y3493134D3*
X2137740D3*
X2473134D3*
X2623134D3*
X2960634D3*
X3110634D3*
X3448134D3*
X3598134D3*
X3935634D3*
X4085634D3*
X4423134D3*
X4573134D3*
X1160614Y681480D3*
X1010614D3*
X1648134D3*
X1498134D3*
X2137740D3*
X1987740D3*
X2623134D3*
X2473134D3*
X3110614D3*
X2960614D3*
X3598134D3*
X3448134D3*
X4085614D3*
X3935614D3*
X4573134D3*
X4423134D3*
D44*
X818214Y2463882D3*
Y1843803D3*
D45*
X698135Y2378843D3*
Y1928843D3*
D46*
X538293Y2414866D3*
Y2314866D3*
Y1992819D3*
Y1892819D3*
X1048135Y1978843D3*
X948135Y1928843D3*
X1048135Y2078843D3*
X948135Y2028843D3*
X1048135Y2178843D3*
X948135Y2128843D3*
X1048135Y2278843D3*
Y2378843D3*
X948135Y2228843D3*
Y2328843D3*
D59*
X3249374Y1635201D3*
D57*
X3249413Y1733626D3*
X3123035D3*
Y1635201D3*
D55*
X3142917Y1921421D3*
Y1447406D3*
D47*
X551480Y3661717D3*
X5039669D3*
X551480Y512110D3*
X5039669D3*
M02*
