M48
INCH
T01C0.0191
T02C0.038
T03C0.0394
T04C0.0433
T05C0.1181
%
T01
X+018507Y+020082
X+016538Y+020279
X+015751Y+021263
X+015554Y+022247
X+015751Y+023625
X+015751Y+024609
X+013979Y+025594
X+012011Y+025987
X+012011Y+024806
X+009815Y+021704
X+009067Y+020704
X+010879Y+018704
X+011627Y+019704
X+013223Y+020704
X+018113Y+022247
X+018901Y+022247
X+017916Y+023034
X+018507Y+024609
X+022247Y+024806
X+022838Y+023822
X+016342Y+015357
X+008664Y+016145
X+007254Y+022704
X+008002Y+023704
X+005869Y+030672
X+010239Y+009255
X+034649Y+017720
X+034649Y+024412
X+035830Y+024609
X+036617Y+027562
X+037011Y+028153
X+037601Y+028743
X+037601Y+029531
X+038389Y+029531
X+039570Y+028349
X+039570Y+027562
X+039570Y+026775
X+039373Y+025790
X+039373Y+025200
X+039920Y+024566
X+041420Y+023546
X+042920Y+022243
X+041735Y+021263
X+041420Y+020082
X+042523Y+017523
X+044491Y+016932
X+041342Y+027365
X+042129Y+028940
X+042129Y+030515
X+041342Y+030909
T02
X+010106Y+034931
X+011606Y+034931
X+014981Y+034931
X+016481Y+034931
X+019877Y+034931
X+021377Y+034931
X+024731Y+034931
X+026231Y+034931
X+029606Y+034931
X+031106Y+034931
X+034481Y+034931
X+035981Y+034931
X+039356Y+034931
X+040856Y+034931
X+044231Y+034931
X+045731Y+034931
X+022838Y+027759
X+021853Y+027759
X+020869Y+027759
X+019885Y+027759
X+018901Y+027759
X+017916Y+027759
X+016932Y+027759
X+015948Y+027759
X+014964Y+027759
X+013979Y+027759
X+013979Y+017759
X+014964Y+017759
X+015948Y+017759
X+016932Y+017759
X+017916Y+017759
X+018901Y+017759
X+019885Y+017759
X+020869Y+017759
X+021853Y+017759
X+022838Y+017759
X+021377Y+006815
X+019877Y+006815
X+016481Y+006815
X+014981Y+006815
X+011606Y+006815
X+010106Y+006815
X+024731Y+006815
X+026231Y+006815
X+029606Y+006815
X+031106Y+006815
X+034481Y+006815
X+035981Y+006815
X+039356Y+006815
X+040856Y+006815
X+044231Y+006815
X+045731Y+006815
T03
X+006696Y+013290G85X+006696Y+014275
X+008369Y+011932G85X+007385Y+011932
X+009058Y+013192G85X+009058Y+014373
T04
X+049997Y+023704
X+049997Y+022704
X+049997Y+021704
X+049997Y+020704
X+049997Y+019704
X+049997Y+018704
T05
X+005515Y+036617
X+005515Y+005121
X+050397Y+005121
X+050397Y+036617
T00
M30
