M48
INCH
T01C0.0191
T02C0.0362
T03C0.038
T04C0.0394
T05C0.0433
T06C0.0512
T07C0.0906
T08C0.0925
T09C0.1181
T10C0.1417
%
T01
X+049019Y+008468
X+047247Y+008664
X+050003Y+010633
X+050790Y+012601
X+050987Y+013979
X+050790Y+014964
X+049019Y+014964
X+047444Y+015948
X+046460Y+014373
X+045475Y+014266
X+048822Y+012601
X+049649Y+017680
X+048586Y+018271
X+048231Y+020279
X+047641Y+020475
X+046657Y+020279
X+045475Y+018704
X+043857Y+020672
X+041145Y+020672
X+042326Y+024609
X+041857Y+025471
X+041357Y+026562
X+041342Y+028546
X+042129Y+028940
X+042129Y+030515
X+041342Y+030909
X+038389Y+029531
X+037405Y+029924
X+036814Y+029531
X+030121Y+025397
X+031105Y+023822
X+031696Y+022050
X+031696Y+020279
X+031121Y+020294
X+030540Y+020254
X+028940Y+020672
X+028349Y+020475
X+022050Y+017916
X+023034Y+015160
X+017720Y+012995
X+015751Y+012995
X+013979Y+013389
X+013586Y+012601
X+012798Y+013783
X+012011Y+018113
X+015034Y+018042
X+012405Y+024609
X+010830Y+029924
X+008271Y+029924
X+005712Y+031302
X+005712Y+026971
X+021066Y+025003
X+021657Y+024019
X+021853Y+027956
X+021657Y+030515
X+010239Y+009255
X+045279Y+023822
X+047877Y+024058
X+049019Y+021853
T02
X+032494Y+016352
X+032494Y+017336
X+031230Y+017336
X+031230Y+016352
T03
X+010106Y+034931
X+011606Y+034931
X+014981Y+034931
X+016481Y+034931
X+019877Y+034931
X+021377Y+034931
X+024731Y+034931
X+026231Y+034931
X+029606Y+034931
X+031106Y+034931
X+034481Y+034931
X+035981Y+034931
X+039356Y+034931
X+040856Y+034931
X+044231Y+034931
X+045731Y+034931
X+045731Y+006815
X+044231Y+006815
X+040856Y+006815
X+039356Y+006815
X+035981Y+006815
X+034481Y+006815
X+031106Y+006815
X+029606Y+006815
X+026231Y+006815
X+024731Y+006815
X+021377Y+006815
X+019877Y+006815
X+016481Y+006815
X+014981Y+006815
X+011606Y+006815
X+010106Y+006815
T04
X+006696Y+013290G85X+006696Y+014275
X+008369Y+011932G85X+007385Y+011932
X+009058Y+013192G85X+009058Y+014373
T05
X+049997Y+023704
X+049997Y+022704
X+049997Y+021704
X+049997Y+020704
X+049997Y+019704
X+049997Y+018704
T06
X+005383Y+024149
X+005383Y+023149
X+005383Y+019928
X+005383Y+018928
X+009481Y+019288
X+009481Y+020288
X+009481Y+021288
X+009481Y+022288
X+009481Y+023288
X+010481Y+023788
X+010481Y+022788
X+010481Y+021788
X+010481Y+020788
X+010481Y+019788
T07
X+031429Y+019214
X+031429Y+014474
T08
X+008182Y+024639
X+008182Y+018438
T09
X+005515Y+036617
X+005515Y+005121
X+050397Y+005121
X+050397Y+036617
T10
X+006981Y+023788
X+006981Y+019288
T00
M30
