G04 DipTrace 3.3.1.3*
G04 Top.gbr*
%MOIN*%
G04 #@! TF.FileFunction,Copper,L1,Top*
G04 #@! TF.Part,Single*
G04 #@! TA.AperFunction,CopperBalancing*
%ADD14C,0.012992*%
G04 #@! TA.AperFunction,Conductor*
%ADD15C,0.03937*%
G04 #@! TA.AperFunction,CopperBalancing*
%ADD17C,0.025*%
%ADD20R,0.051181X0.059055*%
%ADD22R,0.055118X0.088583*%
%ADD23R,0.055997X0.06*%
%ADD25R,0.025591X0.041339*%
G04 #@! TA.AperFunction,ComponentPad*
%ADD26R,0.066929X0.066929*%
%ADD27C,0.066929*%
%ADD28O,0.07874X0.177165*%
%ADD29O,0.07874X0.19685*%
%ADD30O,0.177165X0.07874*%
%ADD31R,0.059055X0.051181*%
G04 #@! TA.AperFunction,ComponentPad*
%ADD32C,0.08*%
%ADD33R,0.023622X0.07874*%
G04 #@! TA.AperFunction,ComponentPad*
%ADD34C,0.048*%
G04 #@! TA.AperFunction,ViaPad*
%ADD35C,0.04*%
%FSLAX26Y26*%
G04*
G70*
G90*
G75*
G01*
G04 Top*
%LPD*%
X1732583Y2090850D2*
D14*
Y1968803D1*
X1673528Y1909748D1*
X1630220D1*
X1496362Y1775890D1*
X1732583Y2090850D2*
X1768016D1*
X1850693Y2008173D1*
X4142031D2*
Y1929433D1*
X4098724Y1752268D2*
X4075102D1*
X4035732Y1791638D1*
Y1935732D1*
X4042031Y1929433D1*
X4142031Y2299512D2*
Y2216932D1*
X4042031Y2116932D1*
Y1929433D1*
X1063291Y1397937D2*
D15*
X925496D1*
X905811Y1378252D1*
X800249Y1731500D2*
D14*
Y2370378D1*
X2283764Y2775890D2*
Y2382189D1*
X1673528Y2287701D2*
X1649906D1*
X1605608Y2331999D1*
X1575102Y2362504D1*
X1496362Y2283764D2*
X1557373D1*
X1605608Y2331999D1*
X1634157Y2165654D2*
Y2205024D1*
X1673528Y2244394D1*
Y2287701D1*
X1417622Y2165654D2*
Y2185339D1*
X1496362Y2264079D1*
Y2283764D1*
X4142031Y2299512D2*
Y2354630D1*
X586913Y2913685D2*
Y3067228D1*
X2185339Y2775890D2*
Y2519984D1*
X2086913Y2421559D1*
X1995871D1*
X1949118D1*
X1901152Y2469525D1*
X1712898Y2657780D1*
Y2559354D1*
X1535732D2*
Y2653843D1*
X1531795Y2657780D1*
X1555417Y1909748D2*
X1456992Y1811323D1*
Y1752268D1*
X1417622Y1712898D1*
X1358567D1*
X1319197Y1752268D1*
Y1850693D1*
X1378252Y1909748D1*
X1417622Y1712898D2*
X1614472D1*
X1634157Y1732583D1*
Y1791638D1*
X1703055Y1860535D1*
X1821165D1*
X1909748Y1949118D1*
Y2047543D1*
X1791638Y2165654D1*
X1732583D1*
X1739966D1*
X1799021Y2224709D1*
X1995871Y2421559D1*
X1516047Y2165654D2*
Y2185339D1*
X1555417Y2224709D1*
X1811323D2*
X1799021D1*
X1535732Y2559354D2*
X1575102Y2519984D1*
Y2460929D1*
X1850693D2*
X1892556D1*
X1901152Y2469525D1*
X1162749Y1731500D2*
Y1970378D1*
X1592819Y2000299D2*
Y2049512D1*
X1634157Y2090850D1*
X1653843D1*
Y2027858D1*
X981500Y1731500D2*
Y2170378D1*
X1498331Y2468803D2*
Y2360535D1*
X1496362Y2358567D1*
X1441244D1*
X1407963Y2391848D1*
Y2431218D1*
X1299512Y2539669D1*
X1102661D1*
X981500Y2418508D1*
Y2170378D1*
X725446Y1731500D2*
Y2270378D1*
X1675496Y2468803D2*
Y2364472D1*
X1673528Y2362504D1*
X1732583D1*
X1791638Y2303449D1*
X906697Y1731500D2*
Y2070378D1*
X1417622Y2090850D2*
Y2002268D1*
X1415654Y2000299D1*
X1417622Y2090850D2*
X1342819D1*
X1322346Y2070378D1*
X1281500Y3294197D2*
X1250446D1*
X1206500Y3250251D1*
X1131303D1*
X3992031Y2299512D2*
Y2456598D1*
X3582976Y2460929D2*
Y2500299D1*
X3386126Y2697150D1*
X2441244D1*
X2264079Y2874315D1*
X1378252D1*
X1281500Y2971067D1*
Y3294197D1*
X1781520D2*
X1750446D1*
X1706500Y3250251D1*
X1606303D1*
X3942031Y2299512D2*
Y2515260D1*
X3937307Y2519984D1*
X3661717Y2756205D2*
X2460929D1*
X2283764Y2933370D1*
X1870378D1*
X1781520Y3022228D1*
Y3294197D1*
X2256520D2*
X2225448D1*
X2181500Y3250249D1*
X2093803D1*
X3892031Y2299512D2*
Y2533764D1*
X3937307Y2579039D1*
X3701087Y2815260D2*
X2480614D1*
X2244394Y3051480D1*
Y3282071D1*
X2256520Y3294197D1*
X2750260D2*
X2706697D1*
X2662751Y3250251D1*
X2581303D1*
X3842031Y2299512D2*
Y2562504D1*
X3956992Y2677465D1*
X3760142Y2874315D2*
X2874315D1*
X2746362Y3002268D1*
X2750260Y3006165D1*
Y3294197D1*
X3250249D2*
X3225446D1*
X3181500Y3250251D1*
X3075054D1*
X3792031Y2299512D2*
Y2591244D1*
X3956992Y2756205D1*
X3760142Y2953055D2*
X3346756D1*
X3248331Y3051480D1*
X3250249Y3053399D1*
Y3294197D1*
X3725251D2*
Y3294001D1*
X3681500Y3250251D1*
X3556303D1*
X3742031Y2299512D2*
Y2619984D1*
X3956992Y2834945D1*
X3838882Y2953055D2*
X3720772Y3071165D1*
Y3289718D1*
X3725251Y3294197D1*
X4206500D2*
X4181697D1*
X4137749Y3250249D1*
X4031303D1*
X3692031Y2299512D2*
Y2648724D1*
X3937307Y2894000D1*
X4212898D1*
Y3051480D2*
Y3287799D1*
X4206500Y3294197D1*
X4719000D2*
Y3294000D1*
X4675251Y3250251D1*
X4531303D1*
X3642031Y2299512D2*
Y2677465D1*
X3917622Y2953055D1*
X4645969D1*
X4719000Y3026087D1*
Y3294197D1*
X1050251Y844000D2*
Y881499D1*
X1019196Y912554D1*
X937751D1*
X3642031Y1929433D2*
Y1653843D1*
X3523921Y1535732D1*
X1634157D1*
X1023921Y925496D2*
Y912088D1*
X1019196Y912554D1*
X1525260Y844000D2*
Y862740D1*
X1475446Y912554D1*
X1419000D1*
X3692031Y1929433D2*
Y1585732D1*
X3582976Y1476677D1*
X1693213D1*
X1419000Y1202465D1*
Y912554D1*
X2019000Y844000D2*
Y881500D1*
X1981697Y918803D1*
X1912751D1*
X3742031Y1929433D2*
Y1517622D1*
X3622346Y1397937D1*
X2126283D1*
X1912751Y1184404D1*
Y918803D1*
X2500251Y844000D2*
Y881499D1*
X2462946Y918803D1*
X2400249D1*
X3792031Y1929433D2*
Y1469197D1*
X3661717Y1338882D1*
X2559354D1*
X2400249Y1179777D1*
Y918803D1*
X2994000Y844000D2*
Y869000D1*
X2944197Y918803D1*
X2887751D1*
X3842031Y1929433D2*
Y1440457D1*
X3681402Y1279827D1*
X2992425D1*
X2887751Y1175152D1*
Y918803D1*
X3487760Y844000D2*
Y868990D1*
X3444196Y912554D1*
X3362751D1*
X3892031Y1929433D2*
Y1411717D1*
X3681402Y1201087D1*
X3464866D1*
X3362751Y1098971D1*
Y912554D1*
X3969000Y844000D2*
Y869000D1*
X3919197Y918803D1*
X3869000D1*
X3942031Y1929433D2*
Y1205811D1*
X3869000Y1132780D1*
Y918803D1*
X4456520Y844000D2*
Y862730D1*
X4400446Y918803D1*
X4344000D1*
X3992031Y1929433D2*
Y1717228D1*
X4344000Y1365260D1*
Y918803D1*
X1988488Y2598724D2*
Y2775890D1*
X4173528Y1752268D2*
Y1791638D1*
X4092031Y1873134D1*
Y1929433D1*
X1087946Y1731500D2*
Y1870378D1*
X1160614Y681480D2*
Y587749D1*
X1264984D1*
X1648134D1*
X1749004D1*
X2137740D1*
X2258618D1*
X2623134D1*
X2728014D1*
X3110614D1*
X3231507D1*
X3598134D1*
X3680155D1*
X4085614D1*
X4181172D1*
X4500249D1*
X4573134Y660634D1*
Y681480D1*
X1648134D2*
Y587749D1*
X2137740Y681480D2*
Y587749D1*
X2623134Y681480D2*
Y587749D1*
X3110614Y681480D2*
Y587749D1*
X3598134Y681480D2*
Y587749D1*
X4085614Y681480D2*
Y587749D1*
X1050251Y1006500D2*
Y1069000D1*
X1087751Y1106500D1*
X1194000D1*
X1264984Y1035516D1*
Y587749D1*
X1525251Y1006500D2*
Y1050251D1*
X1587751Y1112751D1*
X1694000D1*
X1749004Y1057747D1*
Y587749D1*
X2019000Y1006500D2*
Y1037749D1*
X2106500Y1125249D1*
X2200251D1*
X2258618Y1066882D1*
Y587749D1*
X2500231Y1006500D2*
Y1043980D1*
X2556500Y1100249D1*
X2656500D1*
X2728014Y1028735D1*
Y587749D1*
X2994000Y1006500D2*
Y1037749D1*
X3062751Y1106500D1*
X3169000D1*
X3231507Y1043993D1*
Y587749D1*
X3487751Y1006500D2*
Y1050251D1*
X3544000Y1106500D1*
X3631500D1*
X3680155Y1057845D1*
Y587749D1*
X3969000Y1006500D2*
Y1069000D1*
X4031500Y1131500D1*
X4144000D1*
X4181172Y1094328D1*
Y587749D1*
X4456500Y1006500D2*
Y1056500D1*
X4556500Y1156500D1*
X4644000D1*
X4706500Y1094000D1*
Y814846D1*
X4573134Y681480D1*
X1010634Y3493114D2*
Y3591224D1*
X1019659Y3600249D1*
X1484168D1*
X1997446D1*
X2473134D1*
X2960634D1*
X3448134D1*
X3935634D1*
X4312751D1*
X4419866Y3493134D1*
X4423134D1*
X1498134Y3493114D2*
Y3586283D1*
X1484168Y3600249D1*
X1987740Y3493134D2*
Y3590543D1*
X1997446Y3600249D1*
X2473134Y3493134D2*
Y3600249D1*
X2960634Y3493134D2*
Y3600249D1*
X3448134Y3493134D2*
Y3600249D1*
X3935634Y3493134D2*
Y3600249D1*
X4531303Y3094000D2*
Y3037554D1*
X4500249Y3006500D1*
X4400249D1*
X4350249Y3056500D1*
Y3420249D1*
X4423134Y3493134D1*
X4031303Y3094000D2*
Y3062554D1*
X3981500Y3012751D1*
X3900249D1*
X3862751Y3050249D1*
Y3420251D1*
X3935634Y3493134D1*
X3556303Y3094000D2*
Y3056303D1*
X3519000Y3019000D1*
X3412751D1*
X3362751Y3069000D1*
Y3407751D1*
X3448134Y3493134D1*
X3075054Y3094000D2*
Y3062554D1*
X3056500Y3044000D1*
X2925249D1*
X2869000Y3100249D1*
Y3401500D1*
X2960634Y3493134D1*
X2581303Y3094000D2*
Y3031303D1*
X2556500Y3006500D1*
X2462749D1*
X2369000Y3100249D1*
Y3389000D1*
X2473134Y3493134D1*
X2094000Y3094000D2*
Y3019001D1*
X2062749Y2987751D1*
X1944000D1*
X1894000Y3037751D1*
Y3399394D1*
X1987740Y3493134D1*
X1606303Y3094000D2*
Y3056303D1*
X1550249Y3000249D1*
X1456501D1*
X1412751Y3044000D1*
Y3407731D1*
X1498134Y3493114D1*
X1131303Y3094000D2*
Y3025054D1*
X1118360Y3012110D1*
X950890D1*
X919000Y3044000D1*
Y3270042D1*
Y3401480D1*
X1010634Y3493114D1*
X1125348Y1640949D2*
Y1578104D1*
X1113184Y1565940D1*
X1086772D1*
X944098D1*
X762848D1*
X699798D1*
X669591Y1535732D1*
Y1378252D1*
X762848Y1640949D2*
Y1565940D1*
X944098Y1640949D2*
Y1565940D1*
X1086772D2*
Y1730325D1*
X1087946Y1731500D1*
X669591Y1378252D2*
Y1082976D1*
X746067Y1006500D1*
X1050251D1*
X4173528Y1752268D2*
X4252268D1*
X4092031Y1929433D2*
Y2103843D1*
X4193213Y2205024D1*
X4192031Y2206205D1*
Y2299512D1*
X4242031D1*
X4292031D1*
X1063291Y1264079D2*
Y1085059D1*
X1087751Y1106500D1*
X2086913Y2775890D2*
Y2519984D1*
X2075654Y2508724D1*
X1988488D1*
X4192031Y2299512D2*
Y2678646D1*
X4134157Y2736520D1*
Y3090850D2*
X4131008Y3094000D1*
X4031303D1*
X1043606Y2756205D2*
Y2697150D1*
X1004236Y2657780D1*
X945181D1*
X919000Y2683961D1*
Y3044000D1*
X807386Y2756205D2*
Y2697150D1*
X748331Y2638094D1*
X708961D1*
X669591Y2677465D1*
Y2756205D1*
Y3020633D1*
X919000Y3270042D1*
X586913Y2756205D2*
X669591D1*
X1460929Y2559354D2*
Y2653843D1*
X1456992Y2657780D1*
Y2736520D1*
X1496362Y2775890D1*
X4292031Y1929433D2*
Y2224315D1*
X1890063Y2224709D2*
X1988488Y2323134D1*
X2067228D1*
X2224709Y2480614D1*
X1397937Y2559354D2*
X1460929D1*
X1638094D2*
Y2657780D1*
Y2673528D1*
X1594787Y2716835D1*
Y2775890D1*
X3464866Y2441244D2*
Y1771953D1*
X4449118Y1693213D2*
X4311323Y1831008D1*
X4271953D1*
X4242031Y1860929D1*
Y1929433D1*
X1043606Y2913685D2*
X1102661D1*
X1201087Y2815260D1*
Y2598724D1*
Y2480614D2*
Y2027858D1*
X1240457Y1988488D1*
Y1693213D1*
X1279827Y1653843D1*
X1693213D1*
X1791638Y1752268D1*
Y1775890D1*
X1056500Y3094000D2*
Y3250251D1*
X1531500Y3094000D2*
Y3250251D1*
X512110Y2756205D2*
Y2913685D1*
X2019197Y3094000D2*
Y3250052D1*
X2019000Y3250249D1*
X2506500Y3094000D2*
Y3250251D1*
X3000251Y3094000D2*
Y3250251D1*
X3481500Y3094000D2*
Y3250251D1*
X3956500Y3094000D2*
Y3250249D1*
X4456500Y3094000D2*
Y3250251D1*
X1125054Y1006500D2*
Y844000D1*
X1600063D2*
Y1006491D1*
X1600054Y1006500D1*
X2093803Y844000D2*
Y1006500D1*
X2575054Y844000D2*
Y1006480D1*
X2575034Y1006500D1*
X3068803Y844000D2*
Y1006500D1*
X3562563Y844000D2*
Y1006491D1*
X3562554Y1006500D1*
X4043803Y844000D2*
Y1006500D1*
X4531323Y844000D2*
Y1006480D1*
X4531303Y1006500D1*
X1281500Y3369000D2*
X1206500D1*
X1160634Y3414866D1*
Y3493114D1*
X1781520Y3369000D2*
X1694000D1*
X1648134Y3414866D1*
Y3493114D1*
X2256520Y3369000D2*
X2169000D1*
X2137740Y3400260D1*
Y3493134D1*
X2750260Y3369000D2*
X2675249D1*
X2623134Y3421115D1*
Y3493134D1*
X3250249Y3369000D2*
X3156500D1*
X3110634Y3414866D1*
Y3493134D1*
X3725251Y3369000D2*
X3650251D1*
X3598134Y3421117D1*
Y3493134D1*
X4206500Y3369000D2*
X4125251D1*
X4085634Y3408617D1*
Y3493134D1*
X4719000Y3369000D2*
X4619000D1*
X4573134Y3414866D1*
Y3493134D1*
X937751Y837751D2*
Y800249D1*
X1010614Y727386D1*
Y681480D1*
X1419000Y837751D2*
Y812749D1*
X1498134Y733615D1*
Y681480D1*
X1912751Y844000D2*
Y806500D1*
X1987740Y731510D1*
Y681480D1*
X2400249Y844000D2*
Y806500D1*
X2473134Y733615D1*
Y681480D1*
X2887751Y844000D2*
Y800249D1*
X2960614Y727386D1*
Y681480D1*
X3362751Y837751D2*
X3450249Y750252D1*
Y683596D1*
X3448134Y681480D1*
X3869000Y844000D2*
Y806500D1*
X3935614Y739886D1*
Y681480D1*
X4344000Y844000D2*
Y806500D1*
X4423134Y727366D1*
Y681480D1*
X732583Y2756205D2*
Y2913685D1*
X968803Y2756205D2*
Y2913685D1*
X807386D2*
X827071D1*
X866441Y2874315D1*
Y1614472D1*
X1516047Y2090850D2*
Y1949118D1*
X1476677Y1909748D1*
X1453055D1*
Y1866441D1*
X1397937Y1811323D1*
Y1775890D1*
X1516047Y2090850D2*
X1539669D1*
X1575102Y2126283D1*
X4173528D2*
X4193213Y2106598D1*
Y1930614D1*
X4192031Y1929433D1*
D35*
X1850693Y2008173D3*
X4142031D3*
X800249Y2370378D3*
D3*
X2283764Y2382189D3*
X1575102Y2362504D3*
X4142031Y2354630D3*
X586913Y3067228D3*
X1555417Y2224709D3*
X1811323D3*
X1575102Y2460929D3*
X1850693D3*
X1162749Y1970378D3*
X1653843Y2027858D3*
X981500Y2170378D3*
X725446Y2270378D3*
X1791638Y2303449D3*
X906697Y2070378D3*
X1322346D3*
X3992031Y2456598D3*
X3582976Y2460929D3*
X3937307Y2519984D3*
X3661717Y2756205D3*
X3937307Y2579039D3*
X3701087Y2815260D3*
X3956992Y2677465D3*
X3760142Y2874315D3*
X3956992Y2756205D3*
X3760142Y2953055D3*
X3956992Y2834945D3*
X3838882Y2953055D3*
X4212898Y2894000D3*
Y3051480D3*
X1634157Y1535732D3*
X1023921Y925496D3*
X1087946Y1870378D3*
X4252268Y1752268D3*
X4134157Y2736520D3*
Y3090850D3*
X4292031Y2224315D3*
X1890063Y2224709D3*
X2224709Y2480614D3*
X1397937Y2559354D3*
X3464866Y2441244D3*
Y1771953D3*
X4449118Y1693213D3*
X1201087Y2598724D3*
Y2480614D3*
X866441Y1614472D3*
X1575102Y2126283D3*
X4173528D3*
X433941Y3719131D2*
D17*
X477887D1*
X625060D2*
X4966101D1*
X5113239D2*
X5153991D1*
X433869Y3694262D2*
X463605D1*
X639342D2*
X4951784D1*
X5127556D2*
X5153991D1*
X433833Y3669394D2*
X457935D1*
X645011D2*
X4946114D1*
X5133226D2*
X5153991D1*
X433797Y3644525D2*
X459227D1*
X643720D2*
X4947442D1*
X5131898D2*
X5153991D1*
X433761Y3619656D2*
X467875D1*
X635107D2*
X4956054D1*
X5123286D2*
X5153991D1*
X433689Y3594787D2*
X486786D1*
X616196D2*
X4974965D1*
X5104375D2*
X5153991D1*
X433654Y3569919D2*
X5153991D1*
X433618Y3545050D2*
X966629D1*
X1054665D2*
X1116625D1*
X1204661D2*
X1454116D1*
X1542152D2*
X1604112D1*
X1692148D2*
X1943684D1*
X2031792D2*
X2093680D1*
X2181788D2*
X2429089D1*
X2517161D2*
X2579085D1*
X2667193D2*
X2916576D1*
X3004684D2*
X3066572D1*
X3154680D2*
X3404099D1*
X3492170D2*
X3554094D1*
X3642166D2*
X3891585D1*
X3979693D2*
X4041581D1*
X4129689D2*
X4379072D1*
X4467180D2*
X4529104D1*
X4617176D2*
X5153991D1*
X433546Y3520181D2*
X947395D1*
X1073863D2*
X1097391D1*
X1223859D2*
X1434918D1*
X1561350D2*
X1584914D1*
X1711382D2*
X1924486D1*
X2050990D2*
X2074482D1*
X2200986D2*
X2409891D1*
X2536359D2*
X2559887D1*
X2686391D2*
X2897378D1*
X3023882D2*
X3047374D1*
X3173878D2*
X3384901D1*
X3511368D2*
X3534896D1*
X3661364D2*
X3872387D1*
X3998891D2*
X4022383D1*
X4148887D2*
X4359874D1*
X4486378D2*
X4509906D1*
X4636374D2*
X5153991D1*
X433510Y3495312D2*
X941690D1*
X1079605D2*
X1091686D1*
X1229601D2*
X1429176D1*
X1567092D2*
X1579204D1*
X1717087D2*
X1918780D1*
X2056695D2*
X2068776D1*
X2206691D2*
X2404186D1*
X2542101D2*
X2554182D1*
X2692097D2*
X2891672D1*
X3029587D2*
X3041668D1*
X3179583D2*
X3379195D1*
X3517074D2*
X3529191D1*
X3667106D2*
X3866682D1*
X4004597D2*
X4016678D1*
X4154593D2*
X4354168D1*
X4492083D2*
X4504164D1*
X4642079D2*
X5153991D1*
X433474Y3470444D2*
X945637D1*
X1075658D2*
X1095633D1*
X1225653D2*
X1433124D1*
X1563144D2*
X1583120D1*
X1713140D2*
X1922728D1*
X2052748D2*
X2072723D1*
X2202744D2*
X2408133D1*
X2538118D2*
X2558129D1*
X2688149D2*
X2895620D1*
X3025640D2*
X3045616D1*
X3175636D2*
X3383142D1*
X3513127D2*
X3533138D1*
X3663123D2*
X3870629D1*
X4000649D2*
X4020625D1*
X4150645D2*
X4358116D1*
X4488136D2*
X4508147D1*
X4638132D2*
X5153991D1*
X433402Y3445575D2*
X961641D1*
X1059617D2*
X1111637D1*
X1209613D2*
X1449128D1*
X1547140D2*
X1599160D1*
X1697136D2*
X1938768D1*
X2036708D2*
X2088764D1*
X2186704D2*
X2424173D1*
X2522113D2*
X2574169D1*
X2672109D2*
X2911660D1*
X3009600D2*
X3061656D1*
X3159596D2*
X3399182D1*
X3497087D2*
X3549178D1*
X3647118D2*
X3886669D1*
X3984609D2*
X4036665D1*
X4134605D2*
X4374156D1*
X4472096D2*
X4524152D1*
X4622092D2*
X5153991D1*
X433367Y3420706D2*
X1125130D1*
X1203944D2*
X1222986D1*
X1340016D2*
X1612652D1*
X1691430D2*
X1722996D1*
X1840027D2*
X2102256D1*
X2173211D2*
X2197995D1*
X2315026D2*
X2587662D1*
X2672683D2*
X2691726D1*
X2808792D2*
X3075148D1*
X3153962D2*
X3191736D1*
X3308766D2*
X3562635D1*
X3647693D2*
X3666735D1*
X3783765D2*
X4050157D1*
X4122691D2*
X4147978D1*
X4265008D2*
X4537644D1*
X4616458D2*
X4660476D1*
X4777506D2*
X5153991D1*
X433331Y3395837D2*
X1131194D1*
X1340016D2*
X1618681D1*
X1840027D2*
X2102543D1*
X2315026D2*
X2599252D1*
X2808792D2*
X3081177D1*
X3308766D2*
X3574261D1*
X3783765D2*
X4052705D1*
X4265008D2*
X4543673D1*
X4777506D2*
X5153991D1*
X433295Y3370969D2*
X1155380D1*
X1340016D2*
X1642867D1*
X1840027D2*
X2117866D1*
X2315026D2*
X2624120D1*
X2808792D2*
X3105363D1*
X3308766D2*
X3599129D1*
X3783765D2*
X4074128D1*
X4265008D2*
X4567895D1*
X4777506D2*
X5153991D1*
X433223Y3346100D2*
X1180248D1*
X1340016D2*
X1667735D1*
X1840027D2*
X2142734D1*
X2315026D2*
X2648988D1*
X2808792D2*
X3130230D1*
X3308766D2*
X3623997D1*
X3783765D2*
X4098996D1*
X4265008D2*
X4592762D1*
X4777506D2*
X5153991D1*
X433187Y3321231D2*
X1222986D1*
X1340016D2*
X1722996D1*
X1840027D2*
X2197995D1*
X2315026D2*
X2685302D1*
X2808792D2*
X3191736D1*
X3308766D2*
X3666735D1*
X3783765D2*
X4147978D1*
X4265008D2*
X4660476D1*
X4777506D2*
X5153991D1*
X433151Y3296362D2*
X1001903D1*
X1185894D2*
X1203465D1*
X1340016D2*
X1476902D1*
X1660893D2*
X1703475D1*
X1840027D2*
X1964425D1*
X2148379D2*
X2178474D1*
X2315026D2*
X2451912D1*
X2635902D2*
X2659717D1*
X2808792D2*
X2945678D1*
X3129633D2*
X3178459D1*
X3308766D2*
X3426921D1*
X3610875D2*
X3666735D1*
X3783765D2*
X3901920D1*
X4085874D2*
X4134701D1*
X4265008D2*
X4401930D1*
X4585885D2*
X4660476D1*
X4777506D2*
X5153991D1*
X433079Y3271493D2*
X1001903D1*
X1340016D2*
X1476902D1*
X1840027D2*
X1964425D1*
X2315026D2*
X2451912D1*
X2808792D2*
X2945678D1*
X3308766D2*
X3426921D1*
X3783765D2*
X3901920D1*
X4265008D2*
X4401930D1*
X4777506D2*
X5153991D1*
X433044Y3246625D2*
X1001903D1*
X1340016D2*
X1476902D1*
X1840027D2*
X1964425D1*
X2315026D2*
X2451912D1*
X2808792D2*
X2945678D1*
X3308766D2*
X3426921D1*
X3783765D2*
X3901920D1*
X4265008D2*
X4401930D1*
X4777506D2*
X5153991D1*
X433008Y3221756D2*
X1001903D1*
X1225618D2*
X1246024D1*
X1316979D2*
X1476902D1*
X1725628D2*
X1746034D1*
X1817025D2*
X1964425D1*
X2200627D2*
X2208904D1*
X2279895D2*
X2451912D1*
X2681870D2*
X2714763D1*
X2785754D2*
X2945678D1*
X3200611D2*
X3214774D1*
X3285729D2*
X3426921D1*
X3756242D2*
X3901920D1*
X4156889D2*
X4177403D1*
X4248394D2*
X4401930D1*
X4754504D2*
X5153991D1*
X432972Y3196887D2*
X1001903D1*
X1185894D2*
X1246024D1*
X1316979D2*
X1476902D1*
X1660893D2*
X1746034D1*
X1817025D2*
X1964425D1*
X2148379D2*
X2208904D1*
X2279895D2*
X2451912D1*
X2635902D2*
X2714763D1*
X2785754D2*
X2945678D1*
X3129633D2*
X3214774D1*
X3285729D2*
X3426921D1*
X3610875D2*
X3685287D1*
X3756242D2*
X3901920D1*
X4085874D2*
X4177403D1*
X4248394D2*
X4401930D1*
X4585885D2*
X4683513D1*
X4754504D2*
X5153991D1*
X432900Y3172018D2*
X1020994D1*
X1091985D2*
X1246024D1*
X1316979D2*
X1496029D1*
X1566984D2*
X1746034D1*
X1817025D2*
X1983695D1*
X2054686D2*
X2208904D1*
X2279895D2*
X2471002D1*
X2541993D2*
X2714763D1*
X2785754D2*
X2964768D1*
X3035724D2*
X3214774D1*
X3285729D2*
X3446011D1*
X3517002D2*
X3685287D1*
X3756242D2*
X3921010D1*
X3992001D2*
X4177403D1*
X4248394D2*
X4421021D1*
X4491976D2*
X4683513D1*
X4754504D2*
X5153991D1*
X432864Y3147150D2*
X1001903D1*
X1111075D2*
X1246024D1*
X1316979D2*
X1476902D1*
X1586074D2*
X1746034D1*
X1817025D2*
X1964604D1*
X2073776D2*
X2208904D1*
X2279895D2*
X2451912D1*
X2561083D2*
X2714763D1*
X2785754D2*
X2945678D1*
X3054850D2*
X3214774D1*
X3285729D2*
X3426921D1*
X3536093D2*
X3685287D1*
X3756242D2*
X3901920D1*
X4011092D2*
X4177403D1*
X4248394D2*
X4401930D1*
X4511066D2*
X4683513D1*
X4754504D2*
X5153991D1*
X432828Y3122281D2*
X1001903D1*
X1111075D2*
X1246024D1*
X1316979D2*
X1476902D1*
X1586074D2*
X1746034D1*
X1817025D2*
X1964604D1*
X2073776D2*
X2208904D1*
X2279895D2*
X2451912D1*
X2561083D2*
X2714763D1*
X2785754D2*
X2945678D1*
X3054850D2*
X3214774D1*
X3285729D2*
X3426921D1*
X3536093D2*
X3685287D1*
X3756242D2*
X3901920D1*
X4011092D2*
X4177403D1*
X4248394D2*
X4401930D1*
X4511066D2*
X4683513D1*
X4754504D2*
X5153991D1*
X432757Y3097412D2*
X549045D1*
X624773D2*
X1001903D1*
X1111075D2*
X1246024D1*
X1316979D2*
X1476902D1*
X1586074D2*
X1746034D1*
X1817025D2*
X1964604D1*
X2073776D2*
X2208904D1*
X2279895D2*
X2451912D1*
X2561083D2*
X2714763D1*
X2785754D2*
X2945678D1*
X3054850D2*
X3214774D1*
X3285729D2*
X3426921D1*
X3536093D2*
X3685287D1*
X3756242D2*
X3901920D1*
X4011092D2*
X4177403D1*
X4248394D2*
X4401930D1*
X4511066D2*
X4683513D1*
X4754504D2*
X5153991D1*
X432721Y3072543D2*
X538244D1*
X635610D2*
X1001903D1*
X1111075D2*
X1246024D1*
X1316979D2*
X1476902D1*
X1586074D2*
X1746034D1*
X1817025D2*
X1964604D1*
X2073776D2*
X2208904D1*
X2279895D2*
X2451912D1*
X2561083D2*
X2714763D1*
X2785754D2*
X2945678D1*
X3054850D2*
X3214774D1*
X3285729D2*
X3426921D1*
X3536093D2*
X3685287D1*
X3768550D2*
X3901920D1*
X4011092D2*
X4168934D1*
X4256862D2*
X4401930D1*
X4511066D2*
X4683513D1*
X4754504D2*
X5153991D1*
X432685Y3047675D2*
X542227D1*
X631591D2*
X1001903D1*
X1111075D2*
X1246024D1*
X1316979D2*
X1476902D1*
X1586074D2*
X1746034D1*
X1817025D2*
X1964604D1*
X2073776D2*
X2209119D1*
X2297335D2*
X2451912D1*
X2561083D2*
X2714763D1*
X2785754D2*
X2945678D1*
X3054850D2*
X3213051D1*
X3301302D2*
X3426921D1*
X3536093D2*
X3695119D1*
X3793418D2*
X3901920D1*
X4011092D2*
X4164054D1*
X4261743D2*
X4401930D1*
X4511066D2*
X4683513D1*
X4754504D2*
X5153991D1*
X432649Y3022806D2*
X551413D1*
X622404D2*
X1246024D1*
X1316979D2*
X1746034D1*
X1830087D2*
X2223904D1*
X2322238D2*
X2714763D1*
X2785754D2*
X3227835D1*
X3326170D2*
X3719987D1*
X3818286D2*
X4173814D1*
X4251982D2*
X4666576D1*
X4754325D2*
X5153991D1*
X432577Y2997937D2*
X551413D1*
X622404D2*
X1246024D1*
X1316979D2*
X1756656D1*
X1854954D2*
X2248771D1*
X2347106D2*
X2711175D1*
X2799857D2*
X3252739D1*
X3351038D2*
X3744855D1*
X3853524D2*
X4641708D1*
X4740007D2*
X5153991D1*
X432541Y2973068D2*
X551413D1*
X622404D2*
X1246024D1*
X1328641D2*
X1781523D1*
X1879822D2*
X2273639D1*
X2371974D2*
X2726426D1*
X2824725D2*
X3277607D1*
X4715139D2*
X5153991D1*
X432505Y2948199D2*
X457540D1*
X641495D2*
X678013D1*
X861967D2*
X914238D1*
X1098193D2*
X1255210D1*
X1353509D2*
X1806391D1*
X2396842D2*
X2751293D1*
X2849592D2*
X3302475D1*
X4690272D2*
X5153991D1*
X432434Y2923331D2*
X457540D1*
X641495D2*
X678013D1*
X866560D2*
X914238D1*
X1142151D2*
X1280078D1*
X1378377D2*
X1831259D1*
X2421709D2*
X2776161D1*
X2874460D2*
X3329962D1*
X4662784D2*
X5153991D1*
X432398Y2898462D2*
X457540D1*
X641495D2*
X678013D1*
X891464D2*
X914238D1*
X1167055D2*
X1304945D1*
X2446577D2*
X2801029D1*
X3802389D2*
X3813860D1*
X4261671D2*
X5153991D1*
X432362Y2873593D2*
X457540D1*
X641495D2*
X678013D1*
X901942D2*
X914238D1*
X1191922D2*
X1329813D1*
X2471445D2*
X2825897D1*
X4257185D2*
X5153991D1*
X432290Y2848724D2*
X476631D1*
X547586D2*
X697103D1*
X768058D2*
X830951D1*
X901942D2*
X933329D1*
X1004284D2*
X1118455D1*
X1216790D2*
X1354932D1*
X2496313D2*
X2851016D1*
X4003879D2*
X4199830D1*
X4225966D2*
X5153991D1*
X432254Y2823856D2*
X476631D1*
X547586D2*
X697103D1*
X768058D2*
X830951D1*
X901942D2*
X933329D1*
X1004284D2*
X1143323D1*
X1235450D2*
X1379656D1*
X1416199D2*
X1478087D1*
X1514629D2*
X1576517D1*
X1613059D2*
X1674947D1*
X1711489D2*
X1773378D1*
X1809920D2*
X1871808D1*
X1908350D2*
X1970202D1*
X2006745D2*
X2068633D1*
X2105175D2*
X2167063D1*
X2203605D2*
X2265386D1*
X4004633D2*
X5153991D1*
X432218Y2798987D2*
X457540D1*
X566676D2*
X678013D1*
X787149D2*
X830951D1*
X901942D2*
X914238D1*
X1023374D2*
X1165607D1*
X1236562D2*
X1350554D1*
X3988951D2*
X5153991D1*
X432182Y2774118D2*
X457540D1*
X566676D2*
X678013D1*
X787149D2*
X830951D1*
X901942D2*
X914238D1*
X1023374D2*
X1165607D1*
X1236562D2*
X1344992D1*
X4002408D2*
X5153991D1*
X432111Y2749249D2*
X457540D1*
X566676D2*
X678013D1*
X787149D2*
X830951D1*
X901942D2*
X914238D1*
X1023374D2*
X1165607D1*
X1236562D2*
X1352528D1*
X1541757D2*
X1549408D1*
X1640188D2*
X1647819D1*
X1738618D2*
X1746249D1*
X1837012D2*
X1844665D1*
X1935443D2*
X1943071D1*
X2033873D2*
X2041504D1*
X2132303D2*
X2139949D1*
X2230734D2*
X2238385D1*
X2329164D2*
X2339989D1*
X4005458D2*
X5153991D1*
X432075Y2724381D2*
X457540D1*
X566676D2*
X678013D1*
X787149D2*
X830951D1*
X901942D2*
X914238D1*
X1023374D2*
X1165607D1*
X1236562D2*
X1421497D1*
X1493995D2*
X1559293D1*
X1636384D2*
X1953014D1*
X2023969D2*
X2149839D1*
X2220830D2*
X2248269D1*
X2319260D2*
X2364857D1*
X3993401D2*
X5153991D1*
X432039Y2699512D2*
X830951D1*
X901942D2*
X1165607D1*
X1236562D2*
X1402407D1*
X1767469D2*
X1953014D1*
X2023969D2*
X2149839D1*
X2220830D2*
X2248269D1*
X2319260D2*
X2389724D1*
X3432926D2*
X3614990D1*
X4000434D2*
X5153991D1*
X431967Y2674643D2*
X830951D1*
X901942D2*
X1165607D1*
X1236562D2*
X1402407D1*
X1767469D2*
X1953014D1*
X2023969D2*
X2149839D1*
X2220830D2*
X2248269D1*
X2319260D2*
X2414592D1*
X3457793D2*
X3606557D1*
X4005888D2*
X5153991D1*
X431931Y2649774D2*
X830951D1*
X901942D2*
X1165607D1*
X1236562D2*
X1402407D1*
X1770052D2*
X1931483D1*
X2045464D2*
X2149839D1*
X2220830D2*
X2248269D1*
X2319260D2*
X3384362D1*
X3482661D2*
X3606557D1*
X3996846D2*
X5153991D1*
X431895Y2624906D2*
X830951D1*
X901942D2*
X1160153D1*
X1242017D2*
X1402407D1*
X1794920D2*
X1931483D1*
X2045464D2*
X2149839D1*
X2220830D2*
X2248269D1*
X2319260D2*
X3409230D1*
X3507529D2*
X3606557D1*
X3953569D2*
X5153991D1*
X431859Y2600037D2*
X830951D1*
X901942D2*
X1152115D1*
X1250055D2*
X1372946D1*
X1577534D2*
X1596325D1*
X1819788D2*
X1931483D1*
X2045464D2*
X2149839D1*
X2220830D2*
X2248269D1*
X2319260D2*
X3434098D1*
X3532397D2*
X3606557D1*
X3981272D2*
X5153991D1*
X431788Y2575168D2*
X830951D1*
X901942D2*
X1158502D1*
X1243667D2*
X1351703D1*
X1577534D2*
X1596325D1*
X1844656D2*
X1931483D1*
X2045464D2*
X2149839D1*
X2220830D2*
X2248269D1*
X2319260D2*
X3458965D1*
X3557264D2*
X3606557D1*
X3986152D2*
X5153991D1*
X431752Y2550299D2*
X830951D1*
X901942D2*
X1064127D1*
X1338043D2*
X1349853D1*
X1754694D2*
X1771225D1*
X1869523D2*
X1931483D1*
X2045464D2*
X2149839D1*
X2220830D2*
X2248269D1*
X2319260D2*
X3483833D1*
X3582132D2*
X3606557D1*
X3976356D2*
X5153991D1*
X431716Y2525430D2*
X830951D1*
X901942D2*
X1039259D1*
X1754694D2*
X1796092D1*
X1894391D2*
X2141621D1*
X2239561D2*
X2248260D1*
X2319260D2*
X3508701D1*
X3985973D2*
X5153991D1*
X431644Y2500562D2*
X830951D1*
X901942D2*
X1014391D1*
X1112690D2*
X1156600D1*
X1245569D2*
X1289479D1*
X1387778D2*
X1456556D1*
X1610583D2*
X1633716D1*
X1717267D2*
X1820960D1*
X1919259D2*
X2116753D1*
X2319260D2*
X3533569D1*
X4009656D2*
X5153991D1*
X431608Y2475693D2*
X830951D1*
X901942D2*
X989523D1*
X1087822D2*
X1152366D1*
X1249804D2*
X1314347D1*
X1412646D2*
X1456556D1*
X1621671D2*
X1633716D1*
X1717267D2*
X1804094D1*
X1944127D2*
X2091886D1*
X2319260D2*
X3431155D1*
X3498594D2*
X3536404D1*
X4036928D2*
X5153991D1*
X431572Y2450824D2*
X830951D1*
X901942D2*
X964656D1*
X1062955D2*
X1162880D1*
X1239289D2*
X1339215D1*
X1436975D2*
X1456556D1*
X1622999D2*
X1633689D1*
X1717267D2*
X1802803D1*
X2319260D2*
X3416873D1*
X3512876D2*
X3535112D1*
X4040660D2*
X5153991D1*
X431501Y2425955D2*
X830951D1*
X901942D2*
X946857D1*
X1038087D2*
X1165607D1*
X1236562D2*
X1364083D1*
X1443435D2*
X1456556D1*
X1608251D2*
X1633716D1*
X1717267D2*
X1817551D1*
X1883841D2*
X1895563D1*
X2219215D2*
X2248269D1*
X2319260D2*
X3418452D1*
X3511261D2*
X3549860D1*
X4029500D2*
X4937215D1*
X5062104D2*
X5153991D1*
X431465Y2401087D2*
X762843D1*
X901942D2*
X945996D1*
X1016987D2*
X1165607D1*
X1236562D2*
X1372479D1*
X1603550D2*
X1615021D1*
X1732051D2*
X1920431D1*
X2194347D2*
X2238796D1*
X2328733D2*
X3429361D1*
X3500352D2*
X3606557D1*
X4027527D2*
X4937215D1*
X5062104D2*
X5153991D1*
X431429Y2376218D2*
X751611D1*
X901942D2*
X945996D1*
X1016987D2*
X1165607D1*
X1236562D2*
X1376427D1*
X1768007D2*
X1901376D1*
X1999675D2*
X2071145D1*
X2169479D2*
X2235171D1*
X2332358D2*
X3429361D1*
X3500352D2*
X3606557D1*
X4027527D2*
X4098350D1*
X4185704D2*
X4937215D1*
X5062104D2*
X5153991D1*
X431393Y2351349D2*
X755343D1*
X901942D2*
X945996D1*
X1016987D2*
X1165607D1*
X1236562D2*
X1399321D1*
X1792875D2*
X1876509D1*
X2144612D2*
X2246475D1*
X2321054D2*
X3429361D1*
X3500352D2*
X3601246D1*
X4190907D2*
X4937215D1*
X5062104D2*
X5153991D1*
X431321Y2326480D2*
X764745D1*
X901942D2*
X945996D1*
X1016987D2*
X1165607D1*
X1236562D2*
X1431078D1*
X1834536D2*
X1851641D1*
X2119744D2*
X3429361D1*
X3500352D2*
X3601246D1*
X4182833D2*
X4937215D1*
X5062104D2*
X5153991D1*
X431285Y2301612D2*
X688491D1*
X901942D2*
X945996D1*
X1016987D2*
X1165607D1*
X1236562D2*
X1437860D1*
X1732051D2*
X1742697D1*
X2094876D2*
X3429361D1*
X3500352D2*
X3601246D1*
X4182833D2*
X4945970D1*
X5053348D2*
X5153991D1*
X431249Y2276743D2*
X676900D1*
X901942D2*
X945996D1*
X1016987D2*
X1165607D1*
X1236562D2*
X1437860D1*
X1599495D2*
X1611719D1*
X1732051D2*
X1751094D1*
X1991243D2*
X3429361D1*
X3500352D2*
X3601246D1*
X4182833D2*
X4937538D1*
X5061781D2*
X5153991D1*
X431178Y2251874D2*
X680309D1*
X901942D2*
X945996D1*
X1016987D2*
X1165607D1*
X1236562D2*
X1434990D1*
X1595655D2*
X1615021D1*
X1732051D2*
X1771081D1*
X1966375D2*
X3429361D1*
X3500352D2*
X3601246D1*
X4182833D2*
X4252078D1*
X4331968D2*
X4940121D1*
X5059197D2*
X5153991D1*
X431142Y2227005D2*
X689962D1*
X901942D2*
X945996D1*
X1016987D2*
X1165607D1*
X1236562D2*
X1410122D1*
X1704061D2*
X1752170D1*
X1941507D2*
X3429361D1*
X3500352D2*
X4102943D1*
X4177523D2*
X4243107D1*
X4340939D2*
X4955767D1*
X5043551D2*
X5153991D1*
X431106Y2202136D2*
X689962D1*
X901942D2*
X945063D1*
X1017956D2*
X1165607D1*
X1236562D2*
X1359095D1*
X1933218D2*
X3429361D1*
X3500352D2*
X4078075D1*
X4174006D2*
X4248669D1*
X4335377D2*
X4946293D1*
X5053025D2*
X5153991D1*
X431070Y2177268D2*
X689962D1*
X901942D2*
X933006D1*
X1029977D2*
X1165607D1*
X1236562D2*
X1359095D1*
X1829190D2*
X3429361D1*
X3500352D2*
X4053208D1*
X4151507D2*
X4256527D1*
X4327518D2*
X4937609D1*
X5061709D2*
X5153991D1*
X430998Y2152399D2*
X689962D1*
X901942D2*
X936128D1*
X1026891D2*
X1165607D1*
X1236562D2*
X1359095D1*
X1854057D2*
X3429361D1*
X3500352D2*
X4028340D1*
X4214483D2*
X4256527D1*
X4327518D2*
X4939978D1*
X5059341D2*
X5153991D1*
X430962Y2127530D2*
X689962D1*
X901942D2*
X945996D1*
X1016987D2*
X1165607D1*
X1236562D2*
X1359095D1*
X1878925D2*
X3429361D1*
X3500352D2*
X4008281D1*
X4101771D2*
X4124545D1*
X4222485D2*
X4256527D1*
X4327518D2*
X4955228D1*
X5044090D2*
X5153991D1*
X430926Y2102661D2*
X689962D1*
X1016987D2*
X1165607D1*
X1236562D2*
X1286393D1*
X1903793D2*
X3429361D1*
X3500352D2*
X4006558D1*
X4077513D2*
X4130969D1*
X4228693D2*
X4256527D1*
X4327518D2*
X4946652D1*
X5052666D2*
X5153991D1*
X430855Y2077793D2*
X689962D1*
X1016987D2*
X1165607D1*
X1236562D2*
X1273941D1*
X1928661D2*
X3429361D1*
X3500352D2*
X4006558D1*
X4077513D2*
X4157738D1*
X4228693D2*
X4256527D1*
X4327518D2*
X4937681D1*
X5061673D2*
X5153991D1*
X430819Y2052924D2*
X689962D1*
X1016987D2*
X1165607D1*
X1236562D2*
X1276740D1*
X1944808D2*
X3429361D1*
X3500352D2*
X4006558D1*
X4077513D2*
X4126914D1*
X4228693D2*
X4256527D1*
X4327518D2*
X4939798D1*
X5059520D2*
X5153991D1*
X430783Y2028055D2*
X689962D1*
X1016987D2*
X1165607D1*
X1250055D2*
X1300603D1*
X1344107D2*
X1373879D1*
X1457429D2*
X1480563D1*
X1768079D2*
X1781667D1*
X1945239D2*
X3429361D1*
X3500352D2*
X4006558D1*
X4077513D2*
X4097489D1*
X4228693D2*
X4256527D1*
X4327518D2*
X4954690D1*
X5044628D2*
X5153991D1*
X430747Y2003186D2*
X689962D1*
X1016987D2*
X1127319D1*
X1272482D2*
X1373879D1*
X1457429D2*
X1480563D1*
X1768079D2*
X1801977D1*
X1945239D2*
X3429361D1*
X3500352D2*
X4006558D1*
X4077513D2*
X4093290D1*
X4228693D2*
X4256527D1*
X4327518D2*
X4946975D1*
X5052343D2*
X5153991D1*
X430675Y1978318D2*
X689962D1*
X1016987D2*
X1114436D1*
X1275927D2*
X1373879D1*
X1457429D2*
X1480563D1*
X1634590D2*
X1692961D1*
X1768079D2*
X1812563D1*
X1945239D2*
X3429361D1*
X3500352D2*
X3601246D1*
X4082824D2*
X4101221D1*
X4332829D2*
X4937717D1*
X5061601D2*
X5153991D1*
X430639Y1953449D2*
X689962D1*
X1016987D2*
X1116948D1*
X1275927D2*
X1336452D1*
X1764275D2*
X1864918D1*
X1945239D2*
X3429361D1*
X3500352D2*
X3601246D1*
X4082824D2*
X4101221D1*
X4332829D2*
X4939655D1*
X5059663D2*
X5153991D1*
X430603Y1928580D2*
X689962D1*
X1016987D2*
X1127247D1*
X1275927D2*
X1336452D1*
X1741525D2*
X1840050D1*
X1938062D2*
X3429361D1*
X3500352D2*
X3601246D1*
X4082824D2*
X4101221D1*
X4332829D2*
X4954188D1*
X5045130D2*
X5153991D1*
X430532Y1903711D2*
X689962D1*
X1016987D2*
X1127247D1*
X1275927D2*
X1323067D1*
X1716657D2*
X1815183D1*
X1913482D2*
X3429361D1*
X3500352D2*
X3601246D1*
X4082824D2*
X4101221D1*
X4332829D2*
X4947334D1*
X5051984D2*
X5153991D1*
X430496Y1878843D2*
X689962D1*
X1016987D2*
X1127247D1*
X1275927D2*
X1298199D1*
X1888614D2*
X3429361D1*
X3500352D2*
X3601246D1*
X4082824D2*
X4101221D1*
X4332829D2*
X4937789D1*
X5061529D2*
X5153991D1*
X430460Y1853974D2*
X689962D1*
X1016987D2*
X1127247D1*
X1275927D2*
X1283901D1*
X1371630D2*
X1391426D1*
X1623609D2*
X1647352D1*
X1863746D2*
X3429361D1*
X3500352D2*
X3606557D1*
X4071234D2*
X4207294D1*
X4337494D2*
X4939475D1*
X5059843D2*
X5153991D1*
X430388Y1829105D2*
X689962D1*
X1016987D2*
X1127247D1*
X1275927D2*
X1283721D1*
X1354693D2*
X1367635D1*
X1598741D2*
X1622485D1*
X1833675D2*
X3429361D1*
X3500352D2*
X3606557D1*
X4071234D2*
X4224698D1*
X4362362D2*
X4953685D1*
X5045633D2*
X5153991D1*
X430352Y1804236D2*
X689962D1*
X1016987D2*
X1127247D1*
X1275927D2*
X1283721D1*
X1737506D2*
X1747362D1*
X1835936D2*
X1845807D1*
X1934330D2*
X1944208D1*
X2032761D2*
X2042617D1*
X2131191D2*
X2141047D1*
X2229621D2*
X2239487D1*
X2328052D2*
X3428895D1*
X3500819D2*
X3606557D1*
X4153301D2*
X4250176D1*
X4387230D2*
X5153991D1*
X430316Y1779367D2*
X689962D1*
X1016987D2*
X1127247D1*
X1275927D2*
X1283721D1*
X2336628D2*
X3416479D1*
X3513270D2*
X3606557D1*
X4153301D2*
X4313799D1*
X4412133D2*
X5153991D1*
X430280Y1754499D2*
X683647D1*
X1023303D2*
X1120967D1*
X1275927D2*
X1283721D1*
X2331999D2*
X3419278D1*
X3510471D2*
X3606557D1*
X4153301D2*
X4338666D1*
X4437001D2*
X5153991D1*
X430209Y1729630D2*
X683647D1*
X1023303D2*
X1120967D1*
X1275927D2*
X1292709D1*
X1818137D2*
X1867322D1*
X1912800D2*
X1965753D1*
X2011230D2*
X2064183D1*
X2109660D2*
X2162613D1*
X2208091D2*
X2261044D1*
X2306485D2*
X3443141D1*
X3486608D2*
X3606557D1*
X4028783D2*
X4044129D1*
X4153301D2*
X4363534D1*
X4480529D2*
X5153991D1*
X430173Y1704761D2*
X683647D1*
X1023303D2*
X1120967D1*
X1278044D2*
X1317541D1*
X1655474D2*
X1694971D1*
X1793270D2*
X3606557D1*
X4153301D2*
X4388402D1*
X4496641D2*
X5153991D1*
X430137Y1679892D2*
X830951D1*
X901942D2*
X1207771D1*
X1768402D2*
X3606557D1*
X4078518D2*
X4402074D1*
X4496174D2*
X5153991D1*
X430065Y1655024D2*
X830951D1*
X901942D2*
X1229481D1*
X1743534D2*
X3594069D1*
X3977504D2*
X4005087D1*
X4103386D2*
X4420088D1*
X4478124D2*
X5153991D1*
X430029Y1630155D2*
X820186D1*
X912707D2*
X1254385D1*
X1718666D2*
X3569202D1*
X3977504D2*
X4029955D1*
X4128254D2*
X5153991D1*
X429993Y1605286D2*
X818356D1*
X914502D2*
X3544334D1*
X3642633D2*
X3656544D1*
X3977504D2*
X4054822D1*
X4153121D2*
X5153991D1*
X429958Y1580417D2*
X832279D1*
X900579D2*
X1618824D1*
X1649482D2*
X3519466D1*
X3617765D2*
X3637561D1*
X3977504D2*
X4079690D1*
X4177989D2*
X5153991D1*
X429886Y1555549D2*
X1589615D1*
X3592897D2*
X3612693D1*
X3977504D2*
X4104558D1*
X4202857D2*
X5153991D1*
X429850Y1530680D2*
X1585452D1*
X3568030D2*
X3587826D1*
X3686124D2*
X3705920D1*
X3977504D2*
X4129426D1*
X4227725D2*
X5153991D1*
X429814Y1505811D2*
X1596074D1*
X3661257D2*
X3681053D1*
X3977504D2*
X4154293D1*
X4252592D2*
X5153991D1*
X429742Y1480942D2*
X628636D1*
X710536D2*
X853989D1*
X957634D2*
X1648321D1*
X3636389D2*
X3656185D1*
X3977504D2*
X4179161D1*
X4277460D2*
X5153991D1*
X429706Y1456073D2*
X607752D1*
X731421D2*
X840173D1*
X971450D2*
X1006748D1*
X1119831D2*
X1623453D1*
X3611521D2*
X3631317D1*
X3977504D2*
X4204029D1*
X4302328D2*
X5153991D1*
X429670Y1431205D2*
X601328D1*
X737844D2*
X837446D1*
X1119831D2*
X1598586D1*
X1696885D2*
X3606449D1*
X3977504D2*
X4228897D1*
X4327195D2*
X5153991D1*
X429599Y1406336D2*
X601221D1*
X737952D2*
X837446D1*
X1119831D2*
X1573718D1*
X1672017D2*
X2085534D1*
X3977504D2*
X4253764D1*
X4352063D2*
X5153991D1*
X429563Y1381467D2*
X601221D1*
X737952D2*
X837446D1*
X1119831D2*
X1548850D1*
X1647149D2*
X2060666D1*
X3977504D2*
X4278632D1*
X4375244D2*
X5153991D1*
X429527Y1356598D2*
X601221D1*
X737952D2*
X837446D1*
X1119831D2*
X1523983D1*
X1622281D2*
X2035799D1*
X2134098D2*
X2527914D1*
X3886071D2*
X3906549D1*
X3977504D2*
X4303500D1*
X4379479D2*
X5153991D1*
X429491Y1331730D2*
X601221D1*
X737952D2*
X837446D1*
X974177D2*
X1006748D1*
X1119831D2*
X1499115D1*
X1597414D2*
X2010931D1*
X2109230D2*
X2503047D1*
X3861203D2*
X3906549D1*
X3977504D2*
X4308524D1*
X4379479D2*
X5153991D1*
X429419Y1306861D2*
X605060D1*
X734112D2*
X838630D1*
X972993D2*
X1474247D1*
X1572546D2*
X1986063D1*
X2084362D2*
X2478179D1*
X3836336D2*
X3906549D1*
X3977504D2*
X4308524D1*
X4379479D2*
X5153991D1*
X429383Y1281992D2*
X620993D1*
X718179D2*
X848965D1*
X962658D2*
X1449379D1*
X1547678D2*
X1961195D1*
X2059494D2*
X2453311D1*
X2551610D2*
X2945427D1*
X3811468D2*
X3906549D1*
X3977504D2*
X4308524D1*
X4379479D2*
X5153991D1*
X429348Y1257123D2*
X720069D1*
X855329D2*
X881297D1*
X930327D2*
X1424512D1*
X1522810D2*
X1936328D1*
X2034627D2*
X2428443D1*
X2526742D2*
X2920559D1*
X3786600D2*
X3906549D1*
X3977504D2*
X4308524D1*
X4379479D2*
X5153991D1*
X429276Y1232255D2*
X682929D1*
X892469D2*
X1399644D1*
X1497943D2*
X1911460D1*
X2009759D2*
X2403576D1*
X2501875D2*
X2895691D1*
X2993990D2*
X3451573D1*
X3761732D2*
X3906549D1*
X3977504D2*
X4308524D1*
X4379479D2*
X5153991D1*
X429240Y1207386D2*
X671661D1*
X903736D2*
X1383891D1*
X1473075D2*
X1886592D1*
X1984891D2*
X2378708D1*
X2477007D2*
X2870824D1*
X2969123D2*
X3422005D1*
X3736865D2*
X3894456D1*
X3977504D2*
X4308524D1*
X4379479D2*
X5153991D1*
X429204Y1182517D2*
X671015D1*
X904418D2*
X1383496D1*
X1454487D2*
X1877262D1*
X1960023D2*
X2364893D1*
X2452139D2*
X2853097D1*
X2944255D2*
X3397137D1*
X3711997D2*
X3869588D1*
X3967887D2*
X4308524D1*
X4379479D2*
X5153991D1*
X429168Y1157648D2*
X680561D1*
X894837D2*
X1383496D1*
X1454487D2*
X1877262D1*
X1948253D2*
X2364749D1*
X2435740D2*
X2852272D1*
X2923227D2*
X3372269D1*
X3470568D2*
X3844720D1*
X3943019D2*
X4308524D1*
X4379479D2*
X5153991D1*
X429096Y1132780D2*
X709806D1*
X865592D2*
X1383496D1*
X1454487D2*
X1877262D1*
X1948253D2*
X2364749D1*
X2435740D2*
X2852272D1*
X2923227D2*
X3347402D1*
X3445700D2*
X3833525D1*
X3918152D2*
X4308524D1*
X4379479D2*
X5153991D1*
X429060Y1107911D2*
X1383496D1*
X1454487D2*
X1877262D1*
X1948253D2*
X2364749D1*
X2435740D2*
X2852272D1*
X2923227D2*
X3328491D1*
X3420833D2*
X3833525D1*
X3904480D2*
X4308524D1*
X4379479D2*
X5153991D1*
X429025Y1083042D2*
X1383496D1*
X1454487D2*
X1877262D1*
X1948253D2*
X2364749D1*
X2435740D2*
X2852272D1*
X2923227D2*
X3327271D1*
X3398226D2*
X3833525D1*
X3904480D2*
X4308524D1*
X4379479D2*
X5153991D1*
X428953Y1058173D2*
X1070478D1*
X1179650D2*
X1383496D1*
X1454487D2*
X1545477D1*
X1654649D2*
X1877262D1*
X1948253D2*
X2039208D1*
X2148379D2*
X2364749D1*
X2435740D2*
X2520450D1*
X2629622D2*
X2852272D1*
X2923227D2*
X3014217D1*
X3123389D2*
X3327271D1*
X3398226D2*
X3507983D1*
X3617119D2*
X3833525D1*
X3904480D2*
X3989226D1*
X4098398D2*
X4308524D1*
X4379479D2*
X4476713D1*
X4585885D2*
X5153991D1*
X428917Y1033304D2*
X1070478D1*
X1179650D2*
X1383496D1*
X1454487D2*
X1545477D1*
X1654649D2*
X1877262D1*
X1948253D2*
X2039208D1*
X2148379D2*
X2364749D1*
X2435740D2*
X2520450D1*
X2629622D2*
X2852272D1*
X2923227D2*
X3014217D1*
X3123389D2*
X3327271D1*
X3398226D2*
X3507983D1*
X3617119D2*
X3833525D1*
X3904480D2*
X3989226D1*
X4098398D2*
X4308524D1*
X4379479D2*
X4476713D1*
X4585885D2*
X5153991D1*
X428881Y1008436D2*
X1070478D1*
X1179650D2*
X1383496D1*
X1454487D2*
X1545477D1*
X1654649D2*
X1877262D1*
X1948253D2*
X2039208D1*
X2148379D2*
X2364749D1*
X2435740D2*
X2520450D1*
X2629622D2*
X2852272D1*
X2923227D2*
X3014217D1*
X3123389D2*
X3327271D1*
X3398226D2*
X3507983D1*
X3617119D2*
X3833525D1*
X3904480D2*
X3989226D1*
X4098398D2*
X4308524D1*
X4379479D2*
X4476713D1*
X4585885D2*
X5153991D1*
X428845Y983567D2*
X1070478D1*
X1179650D2*
X1383496D1*
X1454487D2*
X1545477D1*
X1654649D2*
X1877262D1*
X1948253D2*
X2039208D1*
X2148379D2*
X2364749D1*
X2435740D2*
X2520450D1*
X2629622D2*
X2852272D1*
X2923227D2*
X3014217D1*
X3123389D2*
X3327271D1*
X3398226D2*
X3507983D1*
X3617119D2*
X3833525D1*
X3904480D2*
X3989226D1*
X4098398D2*
X4308524D1*
X4379479D2*
X4476713D1*
X4585885D2*
X5153991D1*
X428773Y958698D2*
X879215D1*
X1058971D2*
X1070478D1*
X1179650D2*
X1360494D1*
X1477525D2*
X1545477D1*
X1654649D2*
X1854225D1*
X1971255D2*
X2039208D1*
X2148379D2*
X2341747D1*
X2458778D2*
X2520450D1*
X2629622D2*
X2829234D1*
X2946264D2*
X3014217D1*
X3123389D2*
X3304233D1*
X3421263D2*
X3507983D1*
X3617119D2*
X3810487D1*
X3927517D2*
X3989226D1*
X4098398D2*
X4285486D1*
X4402516D2*
X4476713D1*
X4585885D2*
X5153991D1*
X428737Y933829D2*
X879215D1*
X1072177D2*
X1089569D1*
X1160560D2*
X1360494D1*
X1503325D2*
X1564568D1*
X1635559D2*
X1854225D1*
X2015823D2*
X2058298D1*
X2129289D2*
X2341747D1*
X2497066D2*
X2539577D1*
X2610532D2*
X2829234D1*
X2978309D2*
X3033307D1*
X3104298D2*
X3304233D1*
X3472075D2*
X3527074D1*
X3598065D2*
X3810487D1*
X3953318D2*
X4008316D1*
X4079308D2*
X4285486D1*
X4434561D2*
X4495839D1*
X4566794D2*
X5153991D1*
X428702Y908961D2*
X879215D1*
X1071926D2*
X1089569D1*
X1160560D2*
X1360494D1*
X1528193D2*
X1564568D1*
X1635559D2*
X1854225D1*
X2040691D2*
X2058298D1*
X2129289D2*
X2341747D1*
X2521934D2*
X2539577D1*
X2610532D2*
X2829234D1*
X3003177D2*
X3033307D1*
X3104298D2*
X3304233D1*
X3496943D2*
X3527074D1*
X3598065D2*
X3810487D1*
X3978186D2*
X4008316D1*
X4079308D2*
X4285486D1*
X4459429D2*
X4495839D1*
X4566794D2*
X5153991D1*
X428630Y884092D2*
X879215D1*
X1179650D2*
X1360494D1*
X1654649D2*
X1854225D1*
X2148379D2*
X2341747D1*
X2629622D2*
X2829234D1*
X3123389D2*
X3304233D1*
X3617155D2*
X3810487D1*
X4098398D2*
X4285486D1*
X4585920D2*
X5153991D1*
X428594Y859223D2*
X879215D1*
X1179650D2*
X1360494D1*
X1654649D2*
X1854225D1*
X2148379D2*
X2341747D1*
X2629622D2*
X2829234D1*
X3123389D2*
X3304233D1*
X3421263D2*
X3433165D1*
X3617155D2*
X3810487D1*
X4098398D2*
X4285486D1*
X4585920D2*
X5153991D1*
X428558Y834354D2*
X879215D1*
X1179650D2*
X1360494D1*
X1654649D2*
X1854225D1*
X2148379D2*
X2341747D1*
X2629622D2*
X2829234D1*
X3123389D2*
X3304233D1*
X3421263D2*
X3433165D1*
X3617155D2*
X3810487D1*
X4098398D2*
X4285486D1*
X4585920D2*
X5153991D1*
X428486Y809486D2*
X879215D1*
X1179650D2*
X1360494D1*
X1654649D2*
X1854225D1*
X2148379D2*
X2341747D1*
X2629622D2*
X2829234D1*
X3123389D2*
X3304233D1*
X3617155D2*
X3810487D1*
X4098398D2*
X4285486D1*
X4585920D2*
X5153991D1*
X428450Y784617D2*
X906200D1*
X1002526D2*
X1397993D1*
X1496292D2*
X1885552D1*
X1983779D2*
X2373074D1*
X2471301D2*
X2856219D1*
X2952544D2*
X3366743D1*
X3465042D2*
X3841814D1*
X3940041D2*
X4316813D1*
X4415040D2*
X5153991D1*
X428415Y759748D2*
X929094D1*
X1027393D2*
X1422861D1*
X1521160D2*
X1910348D1*
X2008646D2*
X2397834D1*
X2496169D2*
X2879113D1*
X2977412D2*
X3391611D1*
X3484348D2*
X3866610D1*
X3964442D2*
X4341609D1*
X4439908D2*
X5153991D1*
X428379Y734879D2*
X953962D1*
X1052728D2*
X1118491D1*
X1202723D2*
X1447729D1*
X1540250D2*
X1606014D1*
X1690246D2*
X1935215D1*
X2029854D2*
X2095618D1*
X2179850D2*
X2422702D1*
X2515259D2*
X2581023D1*
X2665255D2*
X2903981D1*
X3002746D2*
X3068510D1*
X3152742D2*
X3406000D1*
X3490269D2*
X3555996D1*
X3640264D2*
X3891478D1*
X3977719D2*
X4043483D1*
X4127751D2*
X4366477D1*
X4465242D2*
X4531006D1*
X4615238D2*
X5153991D1*
X428307Y710010D2*
X948041D1*
X1073182D2*
X1098037D1*
X1223177D2*
X1435564D1*
X1560704D2*
X1585560D1*
X1710700D2*
X1925168D1*
X2050308D2*
X2075164D1*
X2200304D2*
X2410573D1*
X2535677D2*
X2560569D1*
X2685709D2*
X2898060D1*
X3023164D2*
X3048056D1*
X3173160D2*
X3385582D1*
X3510687D2*
X3535578D1*
X3660683D2*
X3873069D1*
X3998173D2*
X4023065D1*
X4148169D2*
X4360592D1*
X4485696D2*
X4510587D1*
X4635692D2*
X5153991D1*
X428271Y685142D2*
X941726D1*
X1079497D2*
X1091722D1*
X1229493D2*
X1429248D1*
X1567020D2*
X1579271D1*
X1717016D2*
X1918852D1*
X2056624D2*
X2068848D1*
X2206619D2*
X2404257D1*
X2542029D2*
X2554253D1*
X2692025D2*
X2891708D1*
X3029516D2*
X3041740D1*
X3179512D2*
X3379231D1*
X3517038D2*
X3529227D1*
X3667034D2*
X3866717D1*
X4004489D2*
X4016713D1*
X4154521D2*
X4354240D1*
X4492012D2*
X4504236D1*
X4642007D2*
X5153991D1*
X428235Y660273D2*
X945099D1*
X1076124D2*
X1095095D1*
X1226120D2*
X1432621D1*
X1563647D2*
X1582617D1*
X1713643D2*
X1922225D1*
X2053250D2*
X2072221D1*
X2203246D2*
X2407631D1*
X2538656D2*
X2557626D1*
X2688652D2*
X2895081D1*
X3026143D2*
X3045077D1*
X3176138D2*
X3382604D1*
X3513665D2*
X3532600D1*
X3663661D2*
X3870091D1*
X4001116D2*
X4020087D1*
X4151148D2*
X4357613D1*
X4488638D2*
X4507609D1*
X4638670D2*
X5153991D1*
X428163Y635404D2*
X960170D1*
X1061053D2*
X1110166D1*
X1211049D2*
X1447693D1*
X1548575D2*
X1597689D1*
X1698571D2*
X1937297D1*
X2038179D2*
X2087292D1*
X2188175D2*
X2422702D1*
X2523585D2*
X2572698D1*
X2673580D2*
X2910189D1*
X3011071D2*
X3060185D1*
X3161067D2*
X3397711D1*
X3498558D2*
X3547707D1*
X3648590D2*
X3885162D1*
X3986045D2*
X4035158D1*
X4136040D2*
X4372685D1*
X4473567D2*
X4522680D1*
X4623563D2*
X5153991D1*
X428127Y610535D2*
X5153991D1*
X428092Y585667D2*
X494788D1*
X608194D2*
X4982967D1*
X5096373D2*
X5153991D1*
X428056Y560798D2*
X471679D1*
X631304D2*
X4959857D1*
X5119482D2*
X5153991D1*
X427984Y535929D2*
X460770D1*
X642177D2*
X4948949D1*
X5130391D2*
X5153991D1*
X427948Y511060D2*
X457612D1*
X645334D2*
X4945791D1*
X5133549D2*
X5153991D1*
X427912Y486192D2*
X461380D1*
X641602D2*
X4949559D1*
X5129781D2*
X5153991D1*
X427840Y461323D2*
X473006D1*
X629940D2*
X4961221D1*
X5118119D2*
X5153991D1*
X427804Y436454D2*
X497731D1*
X605216D2*
X4985945D1*
X5093395D2*
X5153991D1*
X4068711Y1808287D2*
X4150807D1*
Y1696248D1*
X4059697D1*
X4369084Y1386684D1*
X4372127Y1382496D1*
X4374477Y1377884D1*
X4376077Y1372961D1*
X4376887Y1367848D1*
X4376988Y1300955D1*
Y970857D1*
X4400020Y970886D1*
Y951759D1*
X4405607Y951385D1*
X4410640Y950177D1*
X4415423Y948196D1*
X4419836Y945491D1*
X4423779Y942122D1*
X4465868Y900034D1*
X4498346Y900019D1*
X4498335Y950468D1*
X4479221Y950480D1*
Y1062520D1*
X4583386D1*
Y950480D1*
X4564331D1*
X4564311Y900012D1*
X4583406Y900019D1*
Y787980D1*
X4409167D1*
X4448218Y748790D1*
X4451261Y744602D1*
X4453321Y740725D1*
X4462217Y735274D1*
X4470151Y728497D1*
X4476927Y720563D1*
X4482379Y711667D1*
X4486372Y702028D1*
X4488807Y691882D1*
X4489626Y681480D1*
X4488807Y671079D1*
X4486372Y660933D1*
X4482379Y651294D1*
X4476927Y642397D1*
X4470151Y634463D1*
X4462217Y627687D1*
X4453321Y622235D1*
X4443681Y618243D1*
X4433536Y615807D1*
X4423134Y614988D1*
X4412732Y615807D1*
X4402587Y618243D1*
X4392947Y622235D1*
X4384051Y627687D1*
X4376117Y634463D1*
X4369341Y642397D1*
X4363889Y651294D1*
X4359896Y660933D1*
X4357460Y671079D1*
X4356642Y681480D1*
X4357460Y691882D1*
X4359896Y702028D1*
X4363889Y711667D1*
X4369341Y720563D1*
X4375743Y728093D1*
X4318916Y785076D1*
X4315873Y789264D1*
X4314603Y791533D1*
X4298970Y791917D1*
X4287981D1*
Y970886D1*
X4310982D1*
X4311012Y1351602D1*
X3975004Y1687603D1*
X3974918Y1203223D1*
X3974108Y1198110D1*
X3972509Y1193187D1*
X3970159Y1188575D1*
X3967116Y1184387D1*
X3919888Y1137015D1*
X3901999Y1119126D1*
X3901988Y970906D1*
X3925020Y970886D1*
Y951257D1*
X3929391Y950177D1*
X3934173Y948196D1*
X3938587Y945491D1*
X3942530Y942122D1*
X3984618Y900034D1*
X4010826Y900020D1*
X4010815Y950468D1*
X3991721Y950480D1*
Y1062520D1*
X4095886D1*
Y950480D1*
X4076760D1*
X4076791Y900032D1*
X4095886Y900019D1*
Y787980D1*
X3934207D1*
X3960699Y761310D1*
X3963741Y757122D1*
X3966091Y752510D1*
X3967691Y747587D1*
X3968501Y742474D1*
X3968602Y739204D1*
X3974697Y735274D1*
X3982631Y728497D1*
X3989407Y720563D1*
X3994859Y711667D1*
X3998852Y702028D1*
X4001288Y691882D1*
X4002106Y681480D1*
X4001288Y671079D1*
X3998852Y660933D1*
X3994859Y651294D1*
X3989407Y642397D1*
X3982631Y634463D1*
X3974697Y627687D1*
X3965801Y622235D1*
X3956161Y618243D1*
X3946016Y615807D1*
X3935614Y614988D1*
X3925213Y615807D1*
X3915067Y618243D1*
X3905427Y622235D1*
X3896531Y627687D1*
X3888597Y634463D1*
X3881821Y642397D1*
X3876369Y651294D1*
X3872376Y660933D1*
X3869941Y671079D1*
X3869122Y681480D1*
X3869941Y691882D1*
X3872376Y702028D1*
X3876369Y711667D1*
X3881821Y720563D1*
X3888597Y728497D1*
X3894881Y733973D1*
X3843916Y785076D1*
X3840873Y789264D1*
X3839603Y791533D1*
X3823970Y791917D1*
X3812980D1*
X3812981Y970886D1*
X3835982D1*
X3836113Y1135368D1*
X3836923Y1140480D1*
X3838523Y1145404D1*
X3840873Y1150016D1*
X3843915Y1154204D1*
X3891144Y1201576D1*
X3909032Y1219465D1*
X3908862Y1381895D1*
X3702826Y1176002D1*
X3698638Y1172959D1*
X3694026Y1170609D1*
X3689103Y1169010D1*
X3683990Y1168200D1*
X3617097Y1168098D1*
X3478548D1*
X3395755Y1085323D1*
X3395739Y964657D1*
X3418770Y964636D1*
Y945510D1*
X3446784Y945440D1*
X3451896Y944631D1*
X3456820Y943031D1*
X3461432Y940681D1*
X3465620Y937638D1*
X3503375Y900027D1*
X3529586Y900020D1*
X3529575Y950468D1*
X3510471Y950480D1*
Y1062520D1*
X3614637D1*
Y950480D1*
X3595582D1*
X3595551Y900022D1*
X3614646Y900020D1*
Y787980D1*
X3459139D1*
X3475334Y771676D1*
X3478376Y767488D1*
X3480727Y762876D1*
X3482326Y757953D1*
X3483136Y752840D1*
X3483238Y737944D1*
X3491317Y732041D1*
X3498695Y724663D1*
X3504828Y716222D1*
X3509565Y706926D1*
X3512789Y697003D1*
X3514421Y686697D1*
Y676263D1*
X3512789Y665958D1*
X3509565Y656035D1*
X3504828Y646738D1*
X3498695Y638297D1*
X3491317Y630919D1*
X3482876Y624786D1*
X3473579Y620050D1*
X3463656Y616825D1*
X3453351Y615193D1*
X3442917D1*
X3432612Y616825D1*
X3422688Y620050D1*
X3413392Y624786D1*
X3404951Y630919D1*
X3397573Y638297D1*
X3391440Y646738D1*
X3386703Y656035D1*
X3383479Y665958D1*
X3381847Y676263D1*
Y686697D1*
X3383479Y697003D1*
X3386703Y706926D1*
X3391440Y716222D1*
X3397573Y724663D1*
X3404951Y732041D1*
X3413392Y738174D1*
X3414869Y739001D1*
X3368182Y785666D1*
X3306731Y785668D1*
Y964636D1*
X3329733D1*
X3329864Y1101559D1*
X3330674Y1106672D1*
X3332273Y1111595D1*
X3334624Y1116207D1*
X3337666Y1120395D1*
X3384895Y1167767D1*
X3443442Y1226171D1*
X3447630Y1229214D1*
X3452242Y1231564D1*
X3457165Y1233163D1*
X3462278Y1233973D1*
X3529171Y1234075D1*
X3667719D1*
X3680481Y1246818D1*
X3006097Y1246839D1*
X2920726Y1161475D1*
X2920739Y970864D1*
X2943770Y970886D1*
Y951759D1*
X2949357Y951385D1*
X2954391Y950177D1*
X2959173Y948196D1*
X2963587Y945491D1*
X2967530Y942122D1*
X3009619Y900034D1*
X3035826Y900020D1*
X3035815Y950468D1*
X3016721Y950480D1*
Y1062520D1*
X3120886D1*
Y950480D1*
X3101760D1*
X3101791Y900032D1*
X3120886Y900020D1*
Y787980D1*
X2946648D1*
X2985699Y748810D1*
X2988741Y744622D1*
X2990801Y740725D1*
X2999697Y735274D1*
X3007631Y728497D1*
X3014407Y720563D1*
X3019859Y711667D1*
X3023852Y702028D1*
X3026288Y691882D1*
X3027106Y681480D1*
X3026288Y671079D1*
X3023852Y660933D1*
X3019859Y651294D1*
X3014407Y642397D1*
X3007631Y634463D1*
X2999697Y627687D1*
X2990801Y622235D1*
X2981161Y618243D1*
X2971016Y615807D1*
X2960614Y614988D1*
X2950213Y615807D1*
X2940067Y618243D1*
X2930427Y622235D1*
X2921531Y627687D1*
X2913597Y634463D1*
X2906821Y642397D1*
X2901369Y651294D1*
X2897376Y660933D1*
X2894941Y671079D1*
X2894122Y681480D1*
X2894941Y691882D1*
X2897376Y702028D1*
X2901369Y711667D1*
X2906821Y720563D1*
X2913251Y728123D1*
X2862666Y778825D1*
X2859624Y783013D1*
X2857274Y787625D1*
X2856374Y790065D1*
X2851907Y791917D1*
X2831731D1*
Y970886D1*
X2854733D1*
X2854864Y1177740D1*
X2855674Y1182853D1*
X2857274Y1187776D1*
X2859624Y1192389D1*
X2862666Y1196576D1*
X2909895Y1243949D1*
X2971009Y1304917D1*
X2963554Y1305894D1*
X2573026D1*
X2433253Y1166128D1*
X2433238Y970895D1*
X2456269Y970886D1*
Y951759D1*
X2465534Y951690D1*
X2470647Y950880D1*
X2475570Y949280D1*
X2480183Y946930D1*
X2484370Y943888D1*
X2523577Y904825D1*
X2526944Y900880D1*
X2530845Y900020D1*
X2542077D1*
X2542066Y950468D1*
X2522951Y950480D1*
Y1062520D1*
X2627117D1*
Y950480D1*
X2608062D1*
X2608042Y900012D1*
X2627137Y900020D1*
Y787980D1*
X2465386D1*
X2498218Y755040D1*
X2501261Y750852D1*
X2503611Y746240D1*
X2505213Y741307D1*
X2507876Y738174D1*
X2516317Y732041D1*
X2523695Y724663D1*
X2529828Y716222D1*
X2534565Y706926D1*
X2537789Y697003D1*
X2539421Y686697D1*
Y676263D1*
X2537789Y665958D1*
X2534565Y656035D1*
X2529828Y646738D1*
X2523695Y638297D1*
X2516317Y630919D1*
X2507876Y624786D1*
X2498579Y620050D1*
X2488656Y616825D1*
X2478351Y615193D1*
X2467917D1*
X2457612Y616825D1*
X2447688Y620050D1*
X2438392Y624786D1*
X2429951Y630919D1*
X2422573Y638297D1*
X2416440Y646738D1*
X2411703Y656035D1*
X2408479Y665958D1*
X2406847Y676263D1*
Y686697D1*
X2408479Y697003D1*
X2411703Y706926D1*
X2416440Y716222D1*
X2422573Y724663D1*
X2428977Y731141D1*
X2375165Y785076D1*
X2372122Y789264D1*
X2370852Y791533D1*
X2355219Y791917D1*
X2344230D1*
Y970886D1*
X2367232D1*
X2367363Y1182365D1*
X2368172Y1187478D1*
X2369772Y1192401D1*
X2372122Y1197013D1*
X2375165Y1201201D1*
X2422393Y1248573D1*
X2537938Y1363973D1*
X2538357Y1364949D1*
X2139935D1*
X1945730Y1170731D1*
X1945739Y970857D1*
X1968770Y970886D1*
Y951759D1*
X1984285Y951690D1*
X1989398Y950880D1*
X1994321Y949280D1*
X1998933Y946930D1*
X2003121Y943888D1*
X2042326Y904826D1*
X2045694Y900882D1*
X2049595Y900020D1*
X2060826D1*
X2060815Y950468D1*
X2041721Y950480D1*
Y1062520D1*
X2145886D1*
Y950480D1*
X2126760D1*
X2126791Y900032D1*
X2145886Y900020D1*
Y787980D1*
X1977891D1*
X2012825Y752935D1*
X2015867Y748747D1*
X2018217Y744135D1*
X2019117Y741695D1*
X2022482Y738174D1*
X2030923Y732041D1*
X2038301Y724663D1*
X2044434Y716222D1*
X2049171Y706926D1*
X2052395Y697003D1*
X2054027Y686697D1*
Y676263D1*
X2052395Y665958D1*
X2049171Y656035D1*
X2044434Y646738D1*
X2038301Y638297D1*
X2030923Y630919D1*
X2022482Y624786D1*
X2013186Y620050D1*
X2003262Y616825D1*
X1992957Y615193D1*
X1982523D1*
X1972218Y616825D1*
X1962295Y620050D1*
X1952998Y624786D1*
X1944557Y630919D1*
X1937179Y638297D1*
X1931046Y646738D1*
X1926309Y656035D1*
X1923085Y665958D1*
X1921453Y676263D1*
Y686697D1*
X1923085Y697003D1*
X1926309Y706926D1*
X1931046Y716222D1*
X1937179Y724663D1*
X1942475Y730117D1*
X1887666Y785076D1*
X1884623Y789264D1*
X1883354Y791533D1*
X1867721Y791917D1*
X1856731D1*
Y970886D1*
X1879733D1*
X1879864Y1186992D1*
X1880674Y1192105D1*
X1882273Y1197028D1*
X1884624Y1201641D1*
X1887666Y1205828D1*
X1934895Y1253201D1*
X2104859Y1423021D1*
X2109047Y1426064D1*
X2113659Y1428414D1*
X2118583Y1430014D1*
X2123695Y1430824D1*
X2190588Y1430925D1*
X3608695D1*
X3709067Y1531310D1*
X3708862Y1555910D1*
X3604401Y1451593D1*
X3600213Y1448550D1*
X3595600Y1446200D1*
X3590677Y1444600D1*
X3585565Y1443791D1*
X3518672Y1443689D1*
X1706843D1*
X1451965Y1188777D1*
X1451988Y964660D1*
X1475020Y964636D1*
Y945510D1*
X1480607Y945136D1*
X1485640Y943928D1*
X1490423Y941947D1*
X1494836Y939242D1*
X1498779Y935873D1*
X1534626Y900027D1*
X1567086Y900020D1*
X1567075Y950468D1*
X1547971Y950480D1*
Y1062520D1*
X1652136D1*
Y950480D1*
X1633082D1*
X1633051Y900022D1*
X1652146Y900020D1*
Y787980D1*
X1490395D1*
X1523218Y755040D1*
X1526261Y750852D1*
X1528611Y746240D1*
X1530213Y741307D1*
X1532876Y738174D1*
X1541317Y732041D1*
X1548695Y724663D1*
X1554828Y716222D1*
X1559565Y706926D1*
X1562789Y697003D1*
X1564421Y686697D1*
Y676263D1*
X1562789Y665958D1*
X1559565Y656035D1*
X1554828Y646738D1*
X1548695Y638297D1*
X1541317Y630919D1*
X1532876Y624786D1*
X1523579Y620050D1*
X1513656Y616825D1*
X1503351Y615193D1*
X1492917D1*
X1482612Y616825D1*
X1472688Y620050D1*
X1463392Y624786D1*
X1454951Y630919D1*
X1447573Y638297D1*
X1441440Y646738D1*
X1436703Y656035D1*
X1433479Y665958D1*
X1431847Y676263D1*
Y686697D1*
X1433479Y697003D1*
X1436703Y706926D1*
X1441440Y716222D1*
X1447573Y724663D1*
X1453977Y731141D1*
X1399422Y785675D1*
X1362980Y785668D1*
Y964636D1*
X1385982D1*
X1386113Y1205053D1*
X1386923Y1210166D1*
X1388523Y1215089D1*
X1390873Y1219701D1*
X1393915Y1223889D1*
X1441144Y1271261D1*
X1671796Y1501768D1*
X1668278Y1502744D1*
X1666951D1*
X1661485Y1498119D1*
X1655264Y1494307D1*
X1648524Y1491516D1*
X1641430Y1489813D1*
X1634157Y1489240D1*
X1626885Y1489813D1*
X1619791Y1491516D1*
X1613050Y1494307D1*
X1606830Y1498119D1*
X1601283Y1502857D1*
X1596545Y1508405D1*
X1592733Y1514625D1*
X1589941Y1521365D1*
X1588238Y1528459D1*
X1587665Y1535732D1*
X1588238Y1543005D1*
X1589941Y1550099D1*
X1592733Y1556839D1*
X1596545Y1563060D1*
X1601283Y1568607D1*
X1606830Y1573345D1*
X1613050Y1577157D1*
X1619791Y1579949D1*
X1626885Y1581652D1*
X1634157Y1582224D1*
X1641430Y1581652D1*
X1648524Y1579949D1*
X1655264Y1577157D1*
X1661485Y1573345D1*
X1666917Y1568714D1*
X3510290Y1568721D1*
X3609018Y1667481D1*
X3609043Y1863586D1*
X3603728Y1863571D1*
Y1995295D1*
X3830335D1*
X3980335Y1995259D1*
X4009026Y1995295D1*
X4009145Y2119520D1*
X4009955Y2124633D1*
X4011554Y2129556D1*
X4013904Y2134168D1*
X4016947Y2138356D1*
X4064175Y2185728D1*
X4109062Y2230615D1*
X4102776Y2233650D1*
X3603729Y2233649D1*
Y2365374D1*
X3609075D1*
X3609043Y2422415D1*
X3604083Y2419504D1*
X3597343Y2416712D1*
X3590249Y2415009D1*
X3582976Y2414437D1*
X3575703Y2415009D1*
X3568610Y2416712D1*
X3561869Y2419504D1*
X3555649Y2423316D1*
X3550101Y2428054D1*
X3545363Y2433602D1*
X3541552Y2439822D1*
X3538760Y2446562D1*
X3537057Y2453656D1*
X3536484Y2460929D1*
X3537057Y2468202D1*
X3538760Y2475296D1*
X3541552Y2482036D1*
X3545363Y2488257D1*
X3546659Y2489964D1*
X3372467Y2664157D1*
X2438656Y2664263D1*
X2433543Y2665073D1*
X2428620Y2666672D1*
X2424008Y2669023D1*
X2419820Y2672065D1*
X2372448Y2719294D1*
X2331723Y2760019D1*
X2328753Y2752967D1*
X2324613Y2746211D1*
X2319467Y2740186D1*
X2316749Y2737674D1*
X2316752Y2414931D1*
X2321377Y2409516D1*
X2325189Y2403296D1*
X2327980Y2396556D1*
X2329684Y2389462D1*
X2330256Y2382189D1*
X2329684Y2374916D1*
X2327980Y2367822D1*
X2325189Y2361082D1*
X2321377Y2354862D1*
X2316639Y2349314D1*
X2311091Y2344576D1*
X2304871Y2340764D1*
X2298131Y2337972D1*
X2291037Y2336269D1*
X2283764Y2335697D1*
X2276491Y2336269D1*
X2269397Y2337972D1*
X2262657Y2340764D1*
X2256436Y2344576D1*
X2250889Y2349314D1*
X2246151Y2354862D1*
X2242339Y2361082D1*
X2239547Y2367822D1*
X2237844Y2374916D1*
X2237272Y2382189D1*
X2237844Y2389462D1*
X2239547Y2396556D1*
X2242339Y2403296D1*
X2246151Y2409516D1*
X2250782Y2414949D1*
X2250776Y2442151D1*
X2245816Y2439189D1*
X2239076Y2436398D1*
X2231982Y2434694D1*
X2224865Y2434128D1*
X2088653Y2298049D1*
X2084465Y2295007D1*
X2079852Y2292657D1*
X2074929Y2291057D1*
X2069817Y2290247D1*
X2002170Y2290146D1*
X1936530Y2224523D1*
X1935983Y2217436D1*
X1934280Y2210342D1*
X1931488Y2203602D1*
X1927676Y2197381D1*
X1922938Y2191834D1*
X1917390Y2187096D1*
X1911170Y2183284D1*
X1904430Y2180492D1*
X1897336Y2178789D1*
X1890063Y2178217D1*
X1882790Y2178789D1*
X1875696Y2180492D1*
X1868956Y2183284D1*
X1862736Y2187096D1*
X1857188Y2191834D1*
X1852450Y2197381D1*
X1850699Y2200002D1*
X1846676Y2194514D1*
X1841517Y2189356D1*
X1835615Y2185068D1*
X1829115Y2181756D1*
X1823947Y2180000D1*
X1934832Y2068967D1*
X1937875Y2064780D1*
X1940225Y2060167D1*
X1941825Y2055244D1*
X1942635Y2050132D1*
X1942736Y1983239D1*
X1942635Y1946530D1*
X1941825Y1941417D1*
X1940225Y1936494D1*
X1937875Y1931882D1*
X1934832Y1927694D1*
X1887604Y1880322D1*
X1842590Y1835451D1*
X1838402Y1832408D1*
X1833789Y1830058D1*
X1828866Y1828459D1*
X1823754Y1827649D1*
X1756861Y1827547D1*
X1716706D1*
X1711944Y1822771D1*
X1719595Y1818941D1*
X1726005Y1814284D1*
X1731607Y1808682D1*
X1736264Y1802272D1*
X1739861Y1795212D1*
X1742415Y1787145D1*
X1744989Y1795212D1*
X1748586Y1802272D1*
X1753243Y1808682D1*
X1758846Y1814284D1*
X1765256Y1818941D1*
X1772315Y1822538D1*
X1779851Y1824987D1*
X1787676Y1826226D1*
X1795599D1*
X1803425Y1824987D1*
X1810960Y1822538D1*
X1818020Y1818941D1*
X1824430Y1814284D1*
X1830032Y1808682D1*
X1834689Y1802272D1*
X1838286Y1795212D1*
X1840841Y1787145D1*
X1843414Y1795212D1*
X1847011Y1802272D1*
X1851668Y1808682D1*
X1857271Y1814284D1*
X1863681Y1818941D1*
X1870740Y1822538D1*
X1878276Y1824987D1*
X1886101Y1826226D1*
X1894025D1*
X1901850Y1824987D1*
X1909385Y1822538D1*
X1916445Y1818941D1*
X1922855Y1814284D1*
X1928458Y1808682D1*
X1933115Y1802272D1*
X1936712Y1795212D1*
X1939266Y1787145D1*
X1941840Y1795212D1*
X1945437Y1802272D1*
X1950094Y1808682D1*
X1955696Y1814284D1*
X1962106Y1818941D1*
X1969166Y1822538D1*
X1976701Y1824987D1*
X1984527Y1826226D1*
X1992450D1*
X2000275Y1824987D1*
X2007811Y1822538D1*
X2014870Y1818941D1*
X2021280Y1814284D1*
X2026883Y1808682D1*
X2031540Y1802272D1*
X2035137Y1795212D1*
X2037691Y1787145D1*
X2040265Y1795212D1*
X2043862Y1802272D1*
X2048519Y1808682D1*
X2054121Y1814284D1*
X2060531Y1818941D1*
X2067591Y1822538D1*
X2075126Y1824987D1*
X2082952Y1826226D1*
X2090875D1*
X2098701Y1824987D1*
X2106236Y1822538D1*
X2113295Y1818941D1*
X2119705Y1814284D1*
X2125308Y1808682D1*
X2129965Y1802272D1*
X2133562Y1795212D1*
X2136116Y1787145D1*
X2138690Y1795212D1*
X2142287Y1802272D1*
X2146944Y1808682D1*
X2152547Y1814284D1*
X2158957Y1818941D1*
X2166016Y1822538D1*
X2173551Y1824987D1*
X2181377Y1826226D1*
X2189300D1*
X2197126Y1824987D1*
X2204661Y1822538D1*
X2211721Y1818941D1*
X2218131Y1814284D1*
X2223733Y1808682D1*
X2228390Y1802272D1*
X2231987Y1795212D1*
X2234541Y1787145D1*
X2237115Y1795212D1*
X2240712Y1802272D1*
X2245369Y1808682D1*
X2250972Y1814284D1*
X2257382Y1818941D1*
X2264441Y1822538D1*
X2271977Y1824987D1*
X2279802Y1826226D1*
X2287725D1*
X2295551Y1824987D1*
X2303086Y1822538D1*
X2310146Y1818941D1*
X2316556Y1814284D1*
X2322158Y1808682D1*
X2326815Y1802272D1*
X2330412Y1795212D1*
X2332861Y1787677D1*
X2334100Y1779851D1*
Y1771928D1*
X2332861Y1764103D1*
X2330412Y1756567D1*
X2326815Y1749508D1*
X2322158Y1743098D1*
X2316556Y1737495D1*
X2310146Y1732838D1*
X2303086Y1729241D1*
X2295551Y1726793D1*
X2287725Y1725553D1*
X2279802D1*
X2271977Y1726793D1*
X2264441Y1729241D1*
X2257382Y1732838D1*
X2250972Y1737495D1*
X2245369Y1743098D1*
X2240712Y1749508D1*
X2237115Y1756567D1*
X2234561Y1764634D1*
X2231987Y1756567D1*
X2228390Y1749508D1*
X2223733Y1743098D1*
X2218131Y1737495D1*
X2211721Y1732838D1*
X2204661Y1729241D1*
X2197126Y1726793D1*
X2189300Y1725553D1*
X2181377D1*
X2173551Y1726793D1*
X2166016Y1729241D1*
X2158957Y1732838D1*
X2152547Y1737495D1*
X2146944Y1743098D1*
X2142287Y1749508D1*
X2138690Y1756567D1*
X2136136Y1764634D1*
X2133562Y1756567D1*
X2129965Y1749508D1*
X2125308Y1743098D1*
X2119705Y1737495D1*
X2113295Y1732838D1*
X2106236Y1729241D1*
X2098701Y1726793D1*
X2090875Y1725553D1*
X2082952D1*
X2075126Y1726793D1*
X2067591Y1729241D1*
X2060531Y1732838D1*
X2054121Y1737495D1*
X2048519Y1743098D1*
X2043862Y1749508D1*
X2040265Y1756567D1*
X2037711Y1764634D1*
X2035137Y1756567D1*
X2031540Y1749508D1*
X2026883Y1743098D1*
X2021280Y1737495D1*
X2014870Y1732838D1*
X2007811Y1729241D1*
X2000275Y1726793D1*
X1992450Y1725553D1*
X1984527D1*
X1976701Y1726793D1*
X1969166Y1729241D1*
X1962106Y1732838D1*
X1955696Y1737495D1*
X1950094Y1743098D1*
X1945437Y1749508D1*
X1941840Y1756567D1*
X1939285Y1764634D1*
X1936712Y1756567D1*
X1933115Y1749508D1*
X1928458Y1743098D1*
X1922855Y1737495D1*
X1916445Y1732838D1*
X1909385Y1729241D1*
X1901850Y1726793D1*
X1894025Y1725553D1*
X1886101D1*
X1878276Y1726793D1*
X1870740Y1729241D1*
X1863681Y1732838D1*
X1857271Y1737495D1*
X1851668Y1743098D1*
X1847011Y1749508D1*
X1843414Y1756567D1*
X1840860Y1764634D1*
X1838286Y1756567D1*
X1834689Y1749508D1*
X1830032Y1743098D1*
X1824430Y1737495D1*
X1818548Y1733191D1*
X1814957Y1728935D1*
X1714637Y1628758D1*
X1710449Y1625715D1*
X1705837Y1623365D1*
X1700914Y1621766D1*
X1695801Y1620956D1*
X1628908Y1620854D1*
X1277239Y1620956D1*
X1272126Y1621766D1*
X1267203Y1623365D1*
X1262590Y1625715D1*
X1258403Y1628758D1*
X1217130Y1669886D1*
X1213769Y1673823D1*
X1211064Y1678236D1*
X1209083Y1683019D1*
X1207875Y1688052D1*
X1207469Y1693223D1*
X1207468Y1957643D1*
X1205702Y1952586D1*
X1202390Y1946086D1*
X1198102Y1940184D1*
X1195731Y1937618D1*
X1195738Y1778649D1*
X1202037Y1778661D1*
Y1684338D1*
X1123462D1*
Y1778661D1*
X1129742D1*
X1129761Y1937583D1*
X1125136Y1943051D1*
X1121325Y1949271D1*
X1118533Y1956011D1*
X1116830Y1963105D1*
X1116257Y1970378D1*
X1116830Y1977651D1*
X1118533Y1984745D1*
X1121325Y1991485D1*
X1125136Y1997705D1*
X1129874Y2003253D1*
X1135422Y2007991D1*
X1141642Y2011803D1*
X1148382Y2014595D1*
X1155476Y2016298D1*
X1162749Y2016870D1*
X1170204Y2016262D1*
X1168505Y2022698D1*
X1168099Y2027868D1*
X1168098Y2447883D1*
X1163474Y2453287D1*
X1159662Y2459507D1*
X1156870Y2466247D1*
X1155167Y2473341D1*
X1154594Y2480614D1*
X1155167Y2487887D1*
X1156870Y2494981D1*
X1159662Y2501721D1*
X1162626Y2506673D1*
X1116323Y2506681D1*
X1014469Y2404825D1*
X1014488Y2203167D1*
X1019113Y2197705D1*
X1022925Y2191485D1*
X1025717Y2184745D1*
X1027420Y2177651D1*
X1027992Y2170378D1*
X1027420Y2163105D1*
X1025717Y2156011D1*
X1022925Y2149271D1*
X1019113Y2143051D1*
X1014481Y2137618D1*
X1014488Y1778630D1*
X1020788Y1778661D1*
Y1684338D1*
X899443D1*
X899429Y1647255D1*
X904054Y1641800D1*
X907866Y1635579D1*
X910658Y1628839D1*
X912361Y1621745D1*
X912933Y1614472D1*
X912361Y1607199D1*
X910658Y1600106D1*
X907866Y1593365D1*
X904054Y1587145D1*
X899316Y1581598D1*
X893768Y1576860D1*
X887548Y1573048D1*
X880808Y1570256D1*
X873714Y1568553D1*
X866441Y1567980D1*
X859168Y1568553D1*
X852074Y1570256D1*
X845334Y1573048D1*
X839114Y1576860D1*
X833566Y1581598D1*
X828828Y1587145D1*
X825016Y1593365D1*
X822224Y1600106D1*
X820521Y1607199D1*
X819949Y1614472D1*
X820521Y1621745D1*
X822224Y1628839D1*
X825016Y1635579D1*
X828828Y1641800D1*
X833460Y1647232D1*
X833453Y1684339D1*
X686159Y1684338D1*
Y1778661D1*
X692439D1*
X692458Y2237646D1*
X687833Y2243051D1*
X684021Y2249271D1*
X681230Y2256011D1*
X679526Y2263105D1*
X678954Y2270378D1*
X679526Y2277651D1*
X681230Y2284745D1*
X684021Y2291485D1*
X687833Y2297705D1*
X692571Y2303253D1*
X698119Y2307991D1*
X704339Y2311803D1*
X711079Y2314595D1*
X718173Y2316298D1*
X725446Y2316870D1*
X732719Y2316298D1*
X739813Y2314595D1*
X746553Y2311803D1*
X752774Y2307991D1*
X758321Y2303253D1*
X763059Y2297705D1*
X766871Y2291485D1*
X767259Y2290643D1*
X767261Y2337620D1*
X762636Y2343051D1*
X758825Y2349271D1*
X756033Y2356011D1*
X754330Y2363105D1*
X753757Y2370378D1*
X754330Y2377651D1*
X756033Y2384745D1*
X758825Y2391485D1*
X762636Y2397705D1*
X767374Y2403253D1*
X772922Y2407991D1*
X779142Y2411803D1*
X785882Y2414595D1*
X792976Y2416298D1*
X800249Y2416870D1*
X807522Y2416298D1*
X814616Y2414595D1*
X821356Y2411803D1*
X827577Y2407991D1*
X833444Y2402907D1*
X833453Y2857680D1*
X765539Y2857665D1*
X765571Y2812240D1*
X784666Y2812224D1*
Y2700185D1*
X680500D1*
Y2812224D1*
X699626D1*
X699594Y2857649D1*
X680500Y2857665D1*
Y2969705D1*
X859469D1*
Y2927971D1*
X891525Y2895739D1*
X894568Y2891551D1*
X896918Y2886939D1*
X898518Y2882016D1*
X899328Y2876903D1*
X899429Y2810010D1*
Y2116333D1*
X906697Y2116870D1*
X913970Y2116298D1*
X921064Y2114595D1*
X927804Y2111803D1*
X934024Y2107991D1*
X939572Y2103253D1*
X944310Y2097705D1*
X948122Y2091485D1*
X948510Y2090643D1*
X948512Y2137601D1*
X943887Y2143051D1*
X940075Y2149271D1*
X937283Y2156011D1*
X935580Y2163105D1*
X935008Y2170378D1*
X935580Y2177651D1*
X937283Y2184745D1*
X940075Y2191485D1*
X943887Y2197705D1*
X948519Y2203138D1*
X948613Y2421096D1*
X949423Y2426209D1*
X951023Y2431132D1*
X953373Y2435744D1*
X956416Y2439932D1*
X1003644Y2487304D1*
X1081237Y2564754D1*
X1085425Y2567796D1*
X1090037Y2570146D1*
X1094960Y2571746D1*
X1100073Y2572556D1*
X1162624Y2572658D1*
X1159662Y2577617D1*
X1156870Y2584358D1*
X1155167Y2591451D1*
X1154594Y2598724D1*
X1155167Y2605997D1*
X1156870Y2613091D1*
X1159662Y2619831D1*
X1163474Y2626052D1*
X1168105Y2631484D1*
X1168098Y2801578D1*
X1095676Y2874018D1*
X1095689Y2857665D1*
X1001760D1*
X1001791Y2812240D1*
X1020886Y2812224D1*
Y2700185D1*
X916721D1*
Y2812224D1*
X935847D1*
X935815Y2857649D1*
X916721Y2857665D1*
Y2969705D1*
X1095689D1*
Y2946703D1*
X1105250Y2946572D1*
X1110362Y2945762D1*
X1115285Y2944162D1*
X1119898Y2941812D1*
X1124086Y2938769D1*
X1171458Y2891541D1*
X1226171Y2836684D1*
X1229214Y2832496D1*
X1231564Y2827884D1*
X1233163Y2822961D1*
X1233973Y2817848D1*
X1234075Y2750955D1*
Y2631497D1*
X1238700Y2626052D1*
X1242511Y2619831D1*
X1245303Y2613091D1*
X1247006Y2605997D1*
X1247579Y2598724D1*
X1247006Y2591451D1*
X1245303Y2584358D1*
X1242511Y2577617D1*
X1239547Y2572666D1*
X1302100Y2572556D1*
X1307213Y2571746D1*
X1312136Y2570146D1*
X1316748Y2567796D1*
X1320936Y2564754D1*
X1368308Y2517525D1*
X1433048Y2452642D1*
X1436090Y2448454D1*
X1438440Y2443842D1*
X1440040Y2438919D1*
X1440850Y2433806D1*
X1440951Y2410656D1*
X1465354Y2410650D1*
X1465342Y2421646D1*
X1459044Y2421641D1*
Y2512177D1*
X1421642Y2512193D1*
Y2519334D1*
X1415729Y2516401D1*
X1408790Y2514147D1*
X1401585Y2513006D1*
X1394289D1*
X1387084Y2514147D1*
X1380145Y2516401D1*
X1373645Y2519713D1*
X1367743Y2524001D1*
X1362584Y2529160D1*
X1358296Y2535062D1*
X1354984Y2541563D1*
X1352729Y2548501D1*
X1351588Y2555707D1*
Y2563002D1*
X1352729Y2570208D1*
X1354984Y2577146D1*
X1358296Y2583646D1*
X1362584Y2589549D1*
X1367743Y2594707D1*
X1373645Y2598995D1*
X1380145Y2602307D1*
X1387084Y2604562D1*
X1394289Y2605703D1*
X1401585D1*
X1404913Y2605309D1*
X1404909Y2713799D1*
X1424036D1*
X1424004Y2732644D1*
X1417260Y2729241D1*
X1409724Y2726793D1*
X1401899Y2725553D1*
X1393975D1*
X1386150Y2726793D1*
X1378615Y2729241D1*
X1371555Y2732838D1*
X1365145Y2737495D1*
X1359542Y2743098D1*
X1354885Y2749508D1*
X1351288Y2756567D1*
X1348840Y2764103D1*
X1347601Y2771928D1*
Y2779851D1*
X1348840Y2787677D1*
X1351288Y2795212D1*
X1354885Y2802272D1*
X1359542Y2808682D1*
X1365145Y2814284D1*
X1371555Y2818941D1*
X1378615Y2822538D1*
X1386150Y2824987D1*
X1393975Y2826226D1*
X1401899D1*
X1409724Y2824987D1*
X1417260Y2822538D1*
X1424319Y2818941D1*
X1430729Y2814284D1*
X1436332Y2808682D1*
X1440989Y2802272D1*
X1444586Y2795212D1*
X1447140Y2787145D1*
X1449714Y2795212D1*
X1453311Y2802272D1*
X1457968Y2808682D1*
X1463570Y2814284D1*
X1469980Y2818941D1*
X1477040Y2822538D1*
X1484575Y2824987D1*
X1492401Y2826226D1*
X1500324D1*
X1508149Y2824987D1*
X1515685Y2822538D1*
X1522744Y2818941D1*
X1529154Y2814284D1*
X1534757Y2808682D1*
X1539414Y2802272D1*
X1543011Y2795212D1*
X1545565Y2787145D1*
X1548139Y2795212D1*
X1551736Y2802272D1*
X1556393Y2808682D1*
X1561995Y2814284D1*
X1568405Y2818941D1*
X1575465Y2822538D1*
X1583000Y2824987D1*
X1590826Y2826226D1*
X1598749D1*
X1606575Y2824987D1*
X1614110Y2822538D1*
X1621169Y2818941D1*
X1627579Y2814284D1*
X1633182Y2808682D1*
X1637839Y2802272D1*
X1641436Y2795212D1*
X1643990Y2787145D1*
X1646564Y2795212D1*
X1650161Y2802272D1*
X1654818Y2808682D1*
X1660421Y2814284D1*
X1666831Y2818941D1*
X1673890Y2822538D1*
X1681425Y2824987D1*
X1689251Y2826226D1*
X1697174D1*
X1705000Y2824987D1*
X1712535Y2822538D1*
X1719595Y2818941D1*
X1726005Y2814284D1*
X1731607Y2808682D1*
X1736264Y2802272D1*
X1739861Y2795212D1*
X1742415Y2787145D1*
X1744989Y2795212D1*
X1748586Y2802272D1*
X1753243Y2808682D1*
X1758846Y2814284D1*
X1765256Y2818941D1*
X1772315Y2822538D1*
X1779851Y2824987D1*
X1787676Y2826226D1*
X1795599D1*
X1803425Y2824987D1*
X1810960Y2822538D1*
X1818020Y2818941D1*
X1824430Y2814284D1*
X1830032Y2808682D1*
X1834689Y2802272D1*
X1838286Y2795212D1*
X1840841Y2787145D1*
X1843414Y2795212D1*
X1847011Y2802272D1*
X1851668Y2808682D1*
X1857271Y2814284D1*
X1863681Y2818941D1*
X1870740Y2822538D1*
X1878276Y2824987D1*
X1886101Y2826226D1*
X1894025D1*
X1901850Y2824987D1*
X1909385Y2822538D1*
X1916445Y2818941D1*
X1922855Y2814284D1*
X1928458Y2808682D1*
X1933115Y2802272D1*
X1936712Y2795212D1*
X1939266Y2787145D1*
X1941840Y2795212D1*
X1945437Y2802272D1*
X1950094Y2808682D1*
X1955696Y2814284D1*
X1962106Y2818941D1*
X1969166Y2822538D1*
X1976701Y2824987D1*
X1984527Y2826226D1*
X1992450D1*
X2000275Y2824987D1*
X2007811Y2822538D1*
X2014870Y2818941D1*
X2021280Y2814284D1*
X2026883Y2808682D1*
X2031540Y2802272D1*
X2035137Y2795212D1*
X2037691Y2787145D1*
X2039510Y2793279D1*
X2042533Y2799970D1*
X2046495Y2806152D1*
X2051311Y2811694D1*
X2056881Y2816479D1*
X2063085Y2820406D1*
X2069794Y2823391D1*
X2076864Y2825372D1*
X2084147Y2826306D1*
X2091488Y2826174D1*
X2098733Y2824979D1*
X2105728Y2822746D1*
X2112324Y2819522D1*
X2118384Y2815375D1*
X2123778Y2810393D1*
X2128392Y2804681D1*
X2132130Y2798361D1*
X2134911Y2791565D1*
X2136123Y2787160D1*
X2138690Y2795212D1*
X2142287Y2802272D1*
X2146944Y2808682D1*
X2152547Y2814284D1*
X2158957Y2818941D1*
X2166016Y2822538D1*
X2173551Y2824987D1*
X2181377Y2826226D1*
X2189300D1*
X2197126Y2824987D1*
X2204661Y2822538D1*
X2211721Y2818941D1*
X2218131Y2814284D1*
X2223733Y2808682D1*
X2228390Y2802272D1*
X2231987Y2795212D1*
X2234541Y2787145D1*
X2237115Y2795212D1*
X2240712Y2802272D1*
X2245369Y2808682D1*
X2250972Y2814284D1*
X2257382Y2818941D1*
X2264441Y2822538D1*
X2267914Y2823820D1*
X2250424Y2841317D1*
X1375664Y2841428D1*
X1370551Y2842238D1*
X1365628Y2843838D1*
X1361016Y2846188D1*
X1356828Y2849231D1*
X1309456Y2896459D1*
X1256416Y2949643D1*
X1253373Y2953831D1*
X1251023Y2958443D1*
X1249423Y2963366D1*
X1248613Y2968479D1*
X1248512Y3035371D1*
Y3242100D1*
X1245046Y3242114D1*
X1227924Y3225166D1*
X1223736Y3222123D1*
X1219124Y3219773D1*
X1214201Y3218174D1*
X1209088Y3217364D1*
X1183355Y3217262D1*
X1183386Y3194231D1*
X1089456D1*
X1089488Y3150026D1*
X1108583Y3150019D1*
Y3037980D1*
X1004418D1*
Y3150019D1*
X1023544D1*
X1023512Y3194225D1*
X1004417Y3194231D1*
Y3306270D1*
X1183386D1*
Y3283269D1*
X1192845Y3283239D1*
X1225469Y3315872D1*
X1225480Y3336044D1*
X1203912Y3336113D1*
X1198799Y3336923D1*
X1193876Y3338523D1*
X1189264Y3340873D1*
X1185076Y3343916D1*
X1137308Y3391540D1*
X1133946Y3395476D1*
X1131241Y3399890D1*
X1129260Y3404672D1*
X1128052Y3409706D1*
X1127646Y3414866D1*
Y3435356D1*
X1121551Y3439321D1*
X1113617Y3446097D1*
X1106841Y3454031D1*
X1101389Y3462927D1*
X1097396Y3472567D1*
X1094960Y3482713D1*
X1094142Y3493114D1*
X1094960Y3503516D1*
X1097396Y3513661D1*
X1101389Y3523301D1*
X1106841Y3532197D1*
X1113617Y3540131D1*
X1121551Y3546907D1*
X1130447Y3552359D1*
X1140087Y3556352D1*
X1150232Y3558788D1*
X1160634Y3559606D1*
X1171036Y3558788D1*
X1181181Y3556352D1*
X1190821Y3552359D1*
X1199717Y3546907D1*
X1207651Y3540131D1*
X1214427Y3532197D1*
X1219879Y3523301D1*
X1223872Y3513661D1*
X1226307Y3503516D1*
X1227126Y3493114D1*
X1226307Y3482713D1*
X1223872Y3472567D1*
X1219879Y3462927D1*
X1214427Y3454031D1*
X1207651Y3446097D1*
X1199717Y3439321D1*
X1193614Y3435434D1*
X1193622Y3428559D1*
X1220169Y3401984D1*
X1225483Y3401988D1*
X1225480Y3421083D1*
X1337520D1*
Y3242114D1*
X1314518D1*
X1314488Y2984696D1*
X1391935Y2907284D1*
X1850165Y2907303D1*
X1847052Y2910044D1*
X1756435Y3000804D1*
X1753393Y3004992D1*
X1751042Y3009604D1*
X1749443Y3014527D1*
X1748633Y3019640D1*
X1748531Y3086533D1*
Y3242091D1*
X1744994Y3242114D1*
X1727924Y3225166D1*
X1723736Y3222124D1*
X1719124Y3219773D1*
X1714201Y3218174D1*
X1709088Y3217364D1*
X1658379Y3217262D1*
X1658386Y3194231D1*
X1564457D1*
X1564488Y3150026D1*
X1583583Y3150019D1*
Y3037980D1*
X1479418D1*
Y3150019D1*
X1498544D1*
X1498512Y3194225D1*
X1479417Y3194231D1*
Y3306270D1*
X1658386D1*
Y3283268D1*
X1692820Y3283239D1*
X1725508Y3315911D1*
X1725500Y3336043D1*
X1691412Y3336113D1*
X1686299Y3336923D1*
X1681376Y3338523D1*
X1676764Y3340873D1*
X1672576Y3343916D1*
X1624808Y3391540D1*
X1621446Y3395476D1*
X1618741Y3399890D1*
X1616760Y3404672D1*
X1615552Y3409706D1*
X1615146Y3414866D1*
Y3435356D1*
X1609051Y3439321D1*
X1601117Y3446097D1*
X1594341Y3454031D1*
X1588889Y3462927D1*
X1584896Y3472567D1*
X1582460Y3482713D1*
X1581642Y3493114D1*
X1582460Y3503516D1*
X1584896Y3513661D1*
X1588889Y3523301D1*
X1594341Y3532197D1*
X1601117Y3540131D1*
X1609051Y3546907D1*
X1617947Y3552359D1*
X1627587Y3556352D1*
X1637732Y3558788D1*
X1648134Y3559606D1*
X1658536Y3558788D1*
X1668681Y3556352D1*
X1678321Y3552359D1*
X1687217Y3546907D1*
X1695151Y3540131D1*
X1701927Y3532197D1*
X1707379Y3523301D1*
X1711372Y3513661D1*
X1713807Y3503516D1*
X1714626Y3493114D1*
X1713807Y3482713D1*
X1711372Y3472567D1*
X1707379Y3462927D1*
X1701927Y3454031D1*
X1695151Y3446097D1*
X1687217Y3439321D1*
X1681114Y3435434D1*
X1681122Y3428559D1*
X1707669Y3401984D1*
X1725470Y3401988D1*
X1725500Y3421083D1*
X1837539D1*
Y3242114D1*
X1814538D1*
X1814508Y3035867D1*
X1884038Y2966363D1*
X2282867Y2966358D1*
X2219309Y3030056D1*
X2216267Y3034244D1*
X2213917Y3038856D1*
X2212317Y3043779D1*
X2211507Y3048892D1*
X2211405Y3115785D1*
Y3233521D1*
X2202924Y3225165D1*
X2198736Y3222122D1*
X2194124Y3219772D1*
X2189201Y3218172D1*
X2184088Y3217363D1*
X2145867Y3217261D1*
X2145886Y3194230D1*
X2052172D1*
X2052185Y3150043D1*
X2071280Y3150019D1*
Y3037980D1*
X1967114D1*
Y3150019D1*
X1986241D1*
X1986209Y3194225D1*
X1966917Y3194230D1*
Y3306269D1*
X2145886D1*
Y3283267D1*
X2167832Y3283238D1*
X2200509Y3315911D1*
X2200500Y3336043D1*
X2166412Y3336113D1*
X2161299Y3336923D1*
X2156376Y3338523D1*
X2151764Y3340873D1*
X2147576Y3343915D1*
X2114414Y3376934D1*
X2111052Y3380870D1*
X2108347Y3385283D1*
X2106366Y3390066D1*
X2105158Y3395099D1*
X2104752Y3400260D1*
Y3435390D1*
X2098657Y3439341D1*
X2090723Y3446117D1*
X2083947Y3454051D1*
X2078495Y3462947D1*
X2074502Y3472587D1*
X2072067Y3482732D1*
X2071248Y3493134D1*
X2072067Y3503536D1*
X2074502Y3513681D1*
X2078495Y3523321D1*
X2083947Y3532217D1*
X2090723Y3540151D1*
X2098657Y3546927D1*
X2107553Y3552379D1*
X2117193Y3556372D1*
X2127338Y3558807D1*
X2137740Y3559626D1*
X2148142Y3558807D1*
X2158287Y3556372D1*
X2167927Y3552379D1*
X2176823Y3546927D1*
X2184757Y3540151D1*
X2191533Y3532217D1*
X2196985Y3523321D1*
X2200978Y3513681D1*
X2203414Y3503536D1*
X2204232Y3493134D1*
X2203414Y3482732D1*
X2200978Y3472587D1*
X2196985Y3462947D1*
X2191533Y3454051D1*
X2184757Y3446117D1*
X2176823Y3439341D1*
X2170721Y3435453D1*
X2170728Y3413937D1*
X2182660Y3401993D1*
X2200470Y3401988D1*
X2200500Y3421083D1*
X2312539D1*
X2312540Y3242114D1*
X2277409D1*
X2277382Y3065151D1*
X2494284Y2848242D1*
X2854133Y2848248D1*
X2850989Y2850989D1*
X2721278Y2980844D1*
X2718235Y2985031D1*
X2715885Y2989644D1*
X2714285Y2994567D1*
X2713476Y2999679D1*
Y3004856D1*
X2714285Y3009969D1*
X2715885Y3014892D1*
X2716974Y3017253D1*
X2717272Y3033724D1*
Y3242104D1*
X2701247Y3242114D1*
X2684175Y3225166D1*
X2679987Y3222124D1*
X2675375Y3219773D1*
X2670452Y3218174D1*
X2665339Y3217364D1*
X2633362Y3217262D1*
X2633386Y3194231D1*
X2539457D1*
X2539488Y3150026D1*
X2558583Y3150019D1*
Y3037980D1*
X2454418D1*
Y3150019D1*
X2473544D1*
X2473512Y3194225D1*
X2454417Y3194231D1*
Y3306270D1*
X2633386D1*
Y3283268D1*
X2649088Y3283239D1*
X2685273Y3319281D1*
X2689461Y3322324D1*
X2694082Y3324678D1*
X2694240Y3336043D1*
X2672661Y3336113D1*
X2667548Y3336923D1*
X2662625Y3338523D1*
X2658013Y3340873D1*
X2653825Y3343915D1*
X2606453Y3391144D1*
X2598049Y3399691D1*
X2595007Y3403879D1*
X2592657Y3408491D1*
X2591057Y3413415D1*
X2590247Y3418527D1*
X2590146Y3435433D1*
X2584051Y3439341D1*
X2576117Y3446117D1*
X2569341Y3454051D1*
X2563889Y3462947D1*
X2559896Y3472587D1*
X2557460Y3482732D1*
X2556642Y3493134D1*
X2557460Y3503536D1*
X2559896Y3513681D1*
X2563889Y3523321D1*
X2569341Y3532217D1*
X2576117Y3540151D1*
X2584051Y3546927D1*
X2592947Y3552379D1*
X2602587Y3556372D1*
X2612732Y3558807D1*
X2623134Y3559626D1*
X2633536Y3558807D1*
X2643681Y3556372D1*
X2653321Y3552379D1*
X2662217Y3546927D1*
X2670151Y3540151D1*
X2676927Y3532217D1*
X2682379Y3523321D1*
X2686372Y3513681D1*
X2688807Y3503536D1*
X2689626Y3493134D1*
X2688807Y3482732D1*
X2686372Y3472587D1*
X2682379Y3462947D1*
X2676927Y3454051D1*
X2670151Y3446117D1*
X2662217Y3439341D1*
X2656114Y3435453D1*
X2659452Y3431450D1*
X2688911Y3401991D1*
X2694232Y3401988D1*
X2694240Y3421083D1*
X2806280D1*
Y3242114D1*
X2783278D1*
X2783248Y3012039D1*
X2887956Y2907326D1*
X3727390Y2907303D1*
X3732814Y2911928D1*
X3735435Y2913679D1*
X3729948Y2917702D1*
X3727382Y2920074D1*
X3344168Y2920168D1*
X3339055Y2920978D1*
X3334132Y2922578D1*
X3329520Y2924928D1*
X3325332Y2927971D1*
X3277960Y2975199D1*
X3223246Y3030056D1*
X3220204Y3034244D1*
X3217854Y3038856D1*
X3216254Y3043779D1*
X3215444Y3048892D1*
Y3054069D1*
X3216254Y3059181D1*
X3217261Y3062585D1*
Y3239387D1*
X3202924Y3225166D1*
X3198736Y3222123D1*
X3194124Y3219773D1*
X3189201Y3218174D1*
X3184088Y3217364D1*
X3127135Y3217262D1*
X3127137Y3194231D1*
X3033207D1*
X3033239Y3150026D1*
X3052334Y3150019D1*
Y3037980D1*
X2948168D1*
Y3150019D1*
X2967295D1*
X2967262Y3194225D1*
X2948168Y3194231D1*
Y3306270D1*
X3127137D1*
Y3283268D1*
X3167814Y3283239D1*
X3194230Y3309633D1*
Y3336043D1*
X3153912Y3336113D1*
X3148799Y3336923D1*
X3143876Y3338523D1*
X3139264Y3340873D1*
X3135076Y3343915D1*
X3087308Y3391540D1*
X3083946Y3395476D1*
X3081241Y3399890D1*
X3079260Y3404672D1*
X3078052Y3409706D1*
X3077646Y3414866D1*
Y3435428D1*
X3071551Y3439341D1*
X3063617Y3446117D1*
X3056841Y3454051D1*
X3051389Y3462947D1*
X3047396Y3472587D1*
X3044960Y3482732D1*
X3044142Y3493134D1*
X3044960Y3503536D1*
X3047396Y3513681D1*
X3051389Y3523321D1*
X3056841Y3532217D1*
X3063617Y3540151D1*
X3071551Y3546927D1*
X3080447Y3552379D1*
X3090087Y3556372D1*
X3100232Y3558807D1*
X3110634Y3559626D1*
X3121036Y3558807D1*
X3131181Y3556372D1*
X3140821Y3552379D1*
X3149717Y3546927D1*
X3157651Y3540151D1*
X3164427Y3532217D1*
X3169879Y3523321D1*
X3173872Y3513681D1*
X3176307Y3503536D1*
X3177126Y3493134D1*
X3176307Y3482732D1*
X3173872Y3472587D1*
X3169879Y3462947D1*
X3164427Y3454051D1*
X3157651Y3446117D1*
X3149717Y3439341D1*
X3143614Y3435453D1*
X3143622Y3428506D1*
X3170169Y3401984D1*
X3194214Y3401988D1*
X3194230Y3421082D1*
X3306269D1*
Y3242114D1*
X3283267D1*
X3283238Y3063210D1*
X3360440Y2986023D1*
X3727379Y2986043D1*
X3732814Y2990668D1*
X3739035Y2994480D1*
X3745775Y2997272D1*
X3747518Y2997763D1*
X3695687Y3049741D1*
X3692645Y3053929D1*
X3690294Y3058541D1*
X3688695Y3063464D1*
X3687885Y3068577D1*
X3687783Y3135470D1*
Y3217896D1*
X3681500Y3217262D1*
X3608404D1*
X3608386Y3194231D1*
X3514457D1*
X3514488Y3150026D1*
X3533583Y3150019D1*
Y3037980D1*
X3429418D1*
Y3150019D1*
X3448544D1*
X3448512Y3194225D1*
X3429418Y3194231D1*
Y3306270D1*
X3608386D1*
Y3283268D1*
X3667867Y3283239D1*
X3669231Y3288046D1*
Y3336043D1*
X3647662Y3336113D1*
X3642550Y3336923D1*
X3637627Y3338523D1*
X3633014Y3340873D1*
X3628827Y3343916D1*
X3581454Y3391144D1*
X3573049Y3399693D1*
X3570007Y3403881D1*
X3567657Y3408493D1*
X3566057Y3413416D1*
X3565247Y3418529D1*
X3565146Y3435435D1*
X3559051Y3439341D1*
X3551117Y3446117D1*
X3544341Y3454051D1*
X3538889Y3462947D1*
X3534896Y3472587D1*
X3532460Y3482732D1*
X3531642Y3493134D1*
X3532460Y3503536D1*
X3534896Y3513681D1*
X3538889Y3523321D1*
X3544341Y3532217D1*
X3551117Y3540151D1*
X3559051Y3546927D1*
X3567947Y3552379D1*
X3577587Y3556372D1*
X3587732Y3558807D1*
X3598134Y3559626D1*
X3608536Y3558807D1*
X3618681Y3556372D1*
X3628321Y3552379D1*
X3637217Y3546927D1*
X3645151Y3540151D1*
X3651927Y3532217D1*
X3657379Y3523321D1*
X3661372Y3513681D1*
X3663807Y3503536D1*
X3664626Y3493134D1*
X3663807Y3482732D1*
X3661372Y3472587D1*
X3657379Y3462947D1*
X3651927Y3454051D1*
X3645151Y3446117D1*
X3637217Y3439341D1*
X3631114Y3435453D1*
X3634452Y3431452D1*
X3663911Y3401992D1*
X3669233Y3401988D1*
X3669231Y3421082D1*
X3781271D1*
Y3242114D1*
X3753747D1*
X3753760Y3084855D1*
X3839022Y2999568D1*
X3846155Y2998975D1*
X3853249Y2997272D1*
X3859989Y2994480D1*
X3866209Y2990668D1*
X3871757Y2985930D1*
X3876495Y2980383D1*
X3880307Y2974162D1*
X3883099Y2967422D1*
X3883590Y2965679D1*
X3896198Y2978140D1*
X3900386Y2981182D1*
X3904998Y2983532D1*
X3909921Y2985132D1*
X3915034Y2985942D1*
X3981927Y2986043D1*
X4632327D1*
X4686001Y3039740D1*
X4686012Y3219036D1*
X4680411Y3217668D1*
X4675241Y3217263D1*
X4583351Y3217262D1*
X4583386Y3194231D1*
X4489457D1*
X4489488Y3150026D1*
X4508583Y3150019D1*
Y3037980D1*
X4404418D1*
Y3150019D1*
X4423544D1*
X4423512Y3194225D1*
X4404418Y3194231D1*
Y3306270D1*
X4583386D1*
Y3283268D1*
X4661599Y3283239D1*
X4662981Y3288046D1*
Y3336043D1*
X4616412Y3336113D1*
X4611299Y3336923D1*
X4606376Y3338523D1*
X4601764Y3340873D1*
X4597576Y3343916D1*
X4549808Y3391540D1*
X4546446Y3395476D1*
X4543741Y3399890D1*
X4541760Y3404672D1*
X4540552Y3409706D1*
X4540146Y3414866D1*
Y3435428D1*
X4534051Y3439341D1*
X4526117Y3446117D1*
X4519341Y3454051D1*
X4513889Y3462947D1*
X4509896Y3472587D1*
X4507460Y3482732D1*
X4506642Y3493134D1*
X4507460Y3503536D1*
X4509896Y3513681D1*
X4513889Y3523321D1*
X4519341Y3532217D1*
X4526117Y3540151D1*
X4534051Y3546927D1*
X4542947Y3552379D1*
X4552587Y3556372D1*
X4562732Y3558807D1*
X4573134Y3559626D1*
X4583536Y3558807D1*
X4593681Y3556372D1*
X4603321Y3552379D1*
X4612217Y3546927D1*
X4620151Y3540151D1*
X4626927Y3532217D1*
X4632379Y3523321D1*
X4636372Y3513681D1*
X4638807Y3503536D1*
X4639626Y3493134D1*
X4638807Y3482732D1*
X4636372Y3472587D1*
X4632379Y3462947D1*
X4626927Y3454051D1*
X4620151Y3446117D1*
X4612217Y3439341D1*
X4606114Y3435453D1*
X4606122Y3428506D1*
X4632669Y3401984D1*
X4662958Y3401988D1*
X4662981Y3421082D1*
X4775020D1*
Y3242114D1*
X4752018D1*
X4751887Y3023498D1*
X4751077Y3018386D1*
X4749477Y3013463D1*
X4747127Y3008850D1*
X4744084Y3004662D1*
X4696856Y2957290D1*
X4667393Y2927971D1*
X4663205Y2924928D1*
X4658593Y2922578D1*
X4653669Y2920978D1*
X4648557Y2920169D1*
X4581664Y2920067D1*
X4251422D1*
X4254322Y2915107D1*
X4257114Y2908367D1*
X4258817Y2901273D1*
X4259390Y2894000D1*
X4258817Y2886727D1*
X4257114Y2879633D1*
X4254322Y2872893D1*
X4250511Y2866673D1*
X4245773Y2861125D1*
X4240225Y2856387D1*
X4234005Y2852575D1*
X4227264Y2849783D1*
X4220171Y2848080D1*
X4212898Y2847508D1*
X4205625Y2848080D1*
X4198531Y2849783D1*
X4191791Y2852575D1*
X4185570Y2856387D1*
X4180138Y2861019D1*
X3995475Y2861012D1*
X3998417Y2856052D1*
X4001209Y2849312D1*
X4002912Y2842218D1*
X4003484Y2834945D1*
X4002912Y2827672D1*
X4001209Y2820578D1*
X3998417Y2813838D1*
X3994605Y2807617D1*
X3989867Y2802070D1*
X3984320Y2797332D1*
X3981699Y2795581D1*
X3987186Y2791558D1*
X3992345Y2786399D1*
X3996633Y2780497D1*
X3999945Y2773996D1*
X4002200Y2767058D1*
X4003341Y2759852D1*
Y2752557D1*
X4002200Y2745351D1*
X3999945Y2738413D1*
X3996633Y2731913D1*
X3992345Y2726011D1*
X3987186Y2720852D1*
X3981699Y2716841D1*
X3987186Y2712817D1*
X3992345Y2707659D1*
X3996633Y2701757D1*
X3999945Y2695256D1*
X4002200Y2688318D1*
X4003341Y2681112D1*
Y2673817D1*
X4002200Y2666611D1*
X3999945Y2659673D1*
X3996633Y2653172D1*
X3992345Y2647270D1*
X3987186Y2642112D1*
X3981284Y2637824D1*
X3974784Y2634511D1*
X3967845Y2632257D1*
X3960640Y2631116D1*
X3957149Y2630979D1*
X3949946Y2623766D1*
X3955099Y2621992D1*
X3961599Y2618680D1*
X3967501Y2614392D1*
X3972660Y2609234D1*
X3976948Y2603331D1*
X3980260Y2596831D1*
X3982515Y2589893D1*
X3983656Y2582687D1*
Y2575392D1*
X3982515Y2568186D1*
X3980260Y2561248D1*
X3976948Y2554747D1*
X3973198Y2549528D1*
X3976948Y2544276D1*
X3980260Y2537776D1*
X3982515Y2530838D1*
X3983656Y2523632D1*
Y2516337D1*
X3982515Y2509131D1*
X3979932Y2501480D1*
X3984759Y2502518D1*
X3992031Y2503091D1*
X3999304Y2502518D1*
X4006398Y2500815D1*
X4013138Y2498023D1*
X4019359Y2494211D1*
X4024906Y2489473D1*
X4029644Y2483926D1*
X4033456Y2477705D1*
X4036248Y2470965D1*
X4037951Y2463871D1*
X4038524Y2456598D1*
X4037951Y2449325D1*
X4036248Y2442232D1*
X4033456Y2435491D1*
X4029644Y2429271D1*
X4025013Y2423839D1*
X4025020Y2365345D1*
X4096824Y2365483D1*
X4099078Y2372422D1*
X4102390Y2378922D1*
X4106679Y2384824D1*
X4111837Y2389983D1*
X4117739Y2394271D1*
X4124240Y2397583D1*
X4131178Y2399837D1*
X4138384Y2400979D1*
X4145679D1*
X4152885Y2399837D1*
X4159823Y2397583D1*
X4166324Y2394271D1*
X4172226Y2389983D1*
X4177384Y2384824D1*
X4181673Y2378922D1*
X4184985Y2372422D1*
X4187239Y2365483D1*
X4188380Y2358278D1*
Y2350982D1*
X4187239Y2343777D1*
X4184985Y2336838D1*
X4181673Y2330338D1*
X4180334Y2328334D1*
X4180335Y2233650D1*
X4174988D1*
X4174918Y2214344D1*
X4174108Y2209231D1*
X4172509Y2204308D1*
X4170159Y2199695D1*
X4167116Y2195508D1*
X4119888Y2148135D1*
X4075001Y2103249D1*
X4075020Y1995320D1*
X4080335Y1995295D1*
Y1863571D1*
X4068744D1*
X4068721Y1808308D1*
X4046642Y1709274D2*
Y1734106D1*
X4025007Y1755711D1*
X4025020Y1730886D1*
X4046644Y1709268D1*
X1018427Y1468720D2*
X1117343D1*
Y1327154D1*
X1009240D1*
Y1351734D1*
X971679Y1351760D1*
X971470Y1314029D1*
X969853Y1303822D1*
X966660Y1293992D1*
X961968Y1284784D1*
X955893Y1276423D1*
X948585Y1269115D1*
X940224Y1263040D1*
X931015Y1258348D1*
X921186Y1255154D1*
X910979Y1253538D1*
X900644D1*
X890436Y1255154D1*
X880607Y1258348D1*
X871398Y1263040D1*
X863037Y1269115D1*
X855729Y1276423D1*
X849654Y1284784D1*
X844962Y1293992D1*
X841769Y1303822D1*
X840152Y1314029D1*
X839949Y1337570D1*
X840152Y1442475D1*
X841769Y1452682D1*
X844962Y1462511D1*
X849654Y1471720D1*
X855729Y1480081D1*
X863037Y1487389D1*
X871398Y1493464D1*
X880607Y1498156D1*
X890436Y1501350D1*
X900644Y1502966D1*
X910979D1*
X921186Y1501350D1*
X931015Y1498156D1*
X940224Y1493464D1*
X948585Y1487389D1*
X955893Y1480081D1*
X961968Y1471720D1*
X966660Y1462511D1*
X969853Y1452682D1*
X971278Y1444100D1*
X1009214Y1444114D1*
X1009240Y1468720D1*
X1018427D1*
X1943184Y2655216D2*
X1955492D1*
X1955500Y2737632D1*
X1950094Y2743098D1*
X1945437Y2749508D1*
X1941840Y2756567D1*
X1939285Y2764634D1*
X1936712Y2756567D1*
X1933115Y2749508D1*
X1928458Y2743098D1*
X1922855Y2737495D1*
X1916445Y2732838D1*
X1909385Y2729241D1*
X1901850Y2726793D1*
X1894025Y2725553D1*
X1886101D1*
X1878276Y2726793D1*
X1870740Y2729241D1*
X1863681Y2732838D1*
X1857271Y2737495D1*
X1851668Y2743098D1*
X1847011Y2749508D1*
X1843414Y2756567D1*
X1840860Y2764634D1*
X1838286Y2756567D1*
X1834689Y2749508D1*
X1830032Y2743098D1*
X1824430Y2737495D1*
X1818020Y2732838D1*
X1810960Y2729241D1*
X1803425Y2726793D1*
X1795599Y2725553D1*
X1787676D1*
X1779851Y2726793D1*
X1772315Y2729241D1*
X1765256Y2732838D1*
X1758846Y2737495D1*
X1753243Y2743098D1*
X1748586Y2749508D1*
X1744989Y2756567D1*
X1742435Y2764634D1*
X1739861Y2756567D1*
X1736264Y2749508D1*
X1731607Y2743098D1*
X1726005Y2737495D1*
X1719595Y2732838D1*
X1712535Y2729241D1*
X1705000Y2726793D1*
X1697174Y2725553D1*
X1689251D1*
X1681425Y2726793D1*
X1673890Y2729241D1*
X1666831Y2732838D1*
X1660421Y2737495D1*
X1654818Y2743098D1*
X1650161Y2749508D1*
X1646564Y2756567D1*
X1644010Y2764634D1*
X1641436Y2756567D1*
X1637839Y2749508D1*
X1633182Y2743098D1*
X1627773Y2737674D1*
X1631105Y2727169D1*
X1644477Y2713797D1*
X1764981Y2713799D1*
Y2652329D1*
X1962768Y2454562D1*
X2073274Y2454547D1*
X2152371Y2533669D1*
X2152350Y2737694D1*
X2146944Y2743098D1*
X2142287Y2749508D1*
X2138690Y2756567D1*
X2136136Y2764634D1*
X2134100Y2757920D1*
X2130994Y2751266D1*
X2126957Y2745133D1*
X2122073Y2739651D1*
X2116445Y2734934D1*
X2110193Y2731084D1*
X2103448Y2728182D1*
X2096354Y2726288D1*
X2089060Y2725443D1*
X2081721Y2725665D1*
X2074492Y2726949D1*
X2067525Y2729269D1*
X2060968Y2732574D1*
X2054960Y2736795D1*
X2049628Y2741842D1*
X2045084Y2747610D1*
X2041425Y2753976D1*
X2038727Y2760805D1*
X2037702Y2764608D1*
X2035137Y2756567D1*
X2031540Y2749508D1*
X2026883Y2743098D1*
X2021474Y2737674D1*
X2021476Y2655211D1*
X2042979Y2655216D1*
Y2542232D1*
X1933997D1*
Y2655216D1*
X1943184D1*
X3988407Y3306269D2*
X4083386D1*
Y3283267D1*
X4124064Y3283238D1*
X4150479Y3309632D1*
X4150481Y3336043D1*
X4122662Y3336113D1*
X4117550Y3336923D1*
X4112627Y3338523D1*
X4108014Y3340873D1*
X4103827Y3343916D1*
X4062308Y3385291D1*
X4058946Y3389227D1*
X4056241Y3393640D1*
X4054260Y3398423D1*
X4053052Y3403456D1*
X4052646Y3408617D1*
Y3435422D1*
X4046551Y3439341D1*
X4038617Y3446117D1*
X4031841Y3454051D1*
X4026389Y3462947D1*
X4022396Y3472587D1*
X4019960Y3482732D1*
X4019142Y3493134D1*
X4019960Y3503536D1*
X4022396Y3513681D1*
X4026389Y3523321D1*
X4031841Y3532217D1*
X4038617Y3540151D1*
X4046551Y3546927D1*
X4055447Y3552379D1*
X4065087Y3556372D1*
X4075232Y3558807D1*
X4085634Y3559626D1*
X4096036Y3558807D1*
X4106181Y3556372D1*
X4115821Y3552379D1*
X4124717Y3546927D1*
X4132651Y3540151D1*
X4139427Y3532217D1*
X4144879Y3523321D1*
X4148872Y3513681D1*
X4151307Y3503536D1*
X4152126Y3493134D1*
X4151307Y3482732D1*
X4148872Y3472587D1*
X4144879Y3462947D1*
X4139427Y3454051D1*
X4132651Y3446117D1*
X4124717Y3439341D1*
X4118614Y3435453D1*
X4118622Y3422263D1*
X4138927Y3401976D1*
X4150477Y3401988D1*
X4150481Y3421082D1*
X4262520D1*
Y3242114D1*
X4245906D1*
X4245886Y3084228D1*
X4250511Y3078808D1*
X4254322Y3072587D1*
X4257114Y3065847D1*
X4258817Y3058753D1*
X4259390Y3051480D1*
X4258817Y3044207D1*
X4257114Y3037113D1*
X4254322Y3030373D1*
X4250511Y3024153D1*
X4245773Y3018605D1*
X4240225Y3013867D1*
X4234005Y3010056D1*
X4227264Y3007264D1*
X4220171Y3005561D1*
X4212898Y3004988D1*
X4205625Y3005561D1*
X4198531Y3007264D1*
X4191791Y3010056D1*
X4185570Y3013867D1*
X4180023Y3018605D1*
X4175285Y3024153D1*
X4171473Y3030373D1*
X4168681Y3037113D1*
X4166978Y3044207D1*
X4166406Y3051480D1*
X4166978Y3058753D1*
X4168681Y3065847D1*
X4171473Y3072587D1*
X4175285Y3078808D1*
X4179916Y3084240D1*
X4179843Y3242114D1*
X4176290D1*
X4159174Y3225165D1*
X4154986Y3222122D1*
X4150373Y3219772D1*
X4145450Y3218173D1*
X4140338Y3217363D1*
X4083385Y3217261D1*
X4083386Y3194229D1*
X3989457D1*
X3989488Y3150025D1*
X4008583Y3150019D1*
Y3037980D1*
X3904418D1*
Y3150019D1*
X3923544D1*
X3923512Y3194225D1*
X3904418Y3194229D1*
Y3306269D1*
X3988407D1*
X1102334Y787987D2*
X998168Y787980D1*
Y879592D1*
X993771Y871460D1*
Y790900D1*
X1035699Y748810D1*
X1038741Y744622D1*
X1040801Y740725D1*
X1049697Y735274D1*
X1057631Y728497D1*
X1064407Y720563D1*
X1069859Y711667D1*
X1073852Y702028D1*
X1076288Y691882D1*
X1077106Y681480D1*
X1076288Y671079D1*
X1073852Y660933D1*
X1069859Y651294D1*
X1064407Y642397D1*
X1057631Y634463D1*
X1049697Y627687D1*
X1040801Y622235D1*
X1031161Y618243D1*
X1021016Y615807D1*
X1010614Y614988D1*
X1000213Y615807D1*
X990067Y618243D1*
X980427Y622235D1*
X971531Y627687D1*
X963597Y634463D1*
X956821Y642397D1*
X951369Y651294D1*
X947376Y660933D1*
X944941Y671079D1*
X944122Y681480D1*
X944941Y691882D1*
X947376Y702028D1*
X951369Y711667D1*
X956821Y720563D1*
X963251Y728123D1*
X912666Y778825D1*
X909624Y783013D1*
X908354Y785282D1*
X892721Y785668D1*
X881731D1*
Y964636D1*
X993770D1*
Y960869D1*
X999629Y965137D1*
X1006129Y968449D1*
X1013068Y970704D1*
X1020274Y971845D1*
X1027569D1*
X1034775Y970704D1*
X1041713Y968449D1*
X1048213Y965137D1*
X1054115Y960849D1*
X1059274Y955690D1*
X1063562Y949788D1*
X1066874Y943288D1*
X1069129Y936349D1*
X1070270Y929144D1*
Y921848D1*
X1069129Y914643D1*
X1067906Y910500D1*
X1075335Y902923D1*
X1076944Y900880D1*
X1082157Y900020D1*
X1092097D1*
X1092066Y950468D1*
X1072971Y950480D1*
Y1062520D1*
X1177136D1*
Y950480D1*
X1158010D1*
X1158042Y900032D1*
X1177136Y900020D1*
Y787980D1*
X1102318D1*
X3435677Y811484D2*
Y874425D1*
X3430509Y879588D1*
X3418754Y879566D1*
X3418770Y828364D1*
X3435683Y811471D1*
X4404437Y792681D2*
Y868181D1*
X4400030Y872567D1*
X4400020Y797150D1*
X760962Y1778652D2*
X767242Y1778661D1*
X767261Y2250062D1*
X763059Y2243051D1*
X758428Y2237618D1*
X758434Y1778657D1*
X760980Y1778661D1*
X942213Y1778652D2*
X948493Y1778661D1*
X948512Y2050044D1*
X944310Y2043051D1*
X939678Y2037618D1*
X939685Y1778675D1*
X942231Y1778661D1*
X4948890Y2430334D2*
X5059617D1*
Y2310421D1*
X5044295D1*
X5048166Y2305620D1*
X5053082Y2297598D1*
X5056682Y2288906D1*
X5058879Y2279757D1*
X5059617Y2270378D1*
X5058879Y2260999D1*
X5056682Y2251850D1*
X5053082Y2243158D1*
X5048166Y2235136D1*
X5042056Y2227982D1*
X5034902Y2221872D1*
X5032715Y2220411D1*
X5038599Y2215969D1*
X5045252Y2209317D1*
X5050782Y2201705D1*
X5055053Y2193322D1*
X5057960Y2184375D1*
X5059432Y2175082D1*
Y2165674D1*
X5057960Y2156381D1*
X5055053Y2147434D1*
X5050782Y2139051D1*
X5045252Y2131439D1*
X5038599Y2124787D1*
X5032715Y2120411D1*
X5038599Y2115969D1*
X5045252Y2109317D1*
X5050782Y2101705D1*
X5055053Y2093322D1*
X5057960Y2084375D1*
X5059432Y2075082D1*
Y2065674D1*
X5057960Y2056381D1*
X5055053Y2047434D1*
X5050782Y2039051D1*
X5045252Y2031439D1*
X5038599Y2024787D1*
X5032715Y2020411D1*
X5038599Y2015969D1*
X5045252Y2009317D1*
X5050782Y2001705D1*
X5055053Y1993322D1*
X5057960Y1984375D1*
X5059432Y1975082D1*
Y1965674D1*
X5057960Y1956381D1*
X5055053Y1947434D1*
X5050782Y1939051D1*
X5045252Y1931439D1*
X5038599Y1924787D1*
X5032715Y1920411D1*
X5038809Y1915789D1*
X5044067Y1910662D1*
X5048660Y1904930D1*
X5052517Y1898680D1*
X5055580Y1892005D1*
X5057805Y1885006D1*
X5059157Y1877787D1*
X5059617Y1870378D1*
X5059167Y1863047D1*
X5057824Y1855827D1*
X5055609Y1848824D1*
X5052554Y1842145D1*
X5048705Y1835890D1*
X5044120Y1830152D1*
X5038868Y1825018D1*
X5033028Y1820565D1*
X5026687Y1816858D1*
X5019941Y1813955D1*
X5012890Y1811899D1*
X5005641Y1810720D1*
X4998302Y1810437D1*
X4990983Y1811052D1*
X4983795Y1812558D1*
X4976845Y1814932D1*
X4970237Y1818138D1*
X4964070Y1822127D1*
X4958438Y1826841D1*
X4953424Y1832207D1*
X4949104Y1838147D1*
X4945542Y1844570D1*
X4942793Y1851380D1*
X4940897Y1858476D1*
X4939882Y1865750D1*
X4939765Y1873094D1*
X4940546Y1880396D1*
X4942215Y1887549D1*
X4944745Y1894444D1*
X4948100Y1900977D1*
X4952228Y1907052D1*
X4957068Y1912576D1*
X4962547Y1917467D1*
X4966579Y1920376D1*
X4960721Y1924787D1*
X4954069Y1931439D1*
X4948539Y1939051D1*
X4944267Y1947434D1*
X4941360Y1956381D1*
X4939888Y1965674D1*
Y1975082D1*
X4941360Y1984375D1*
X4944267Y1993322D1*
X4948539Y2001705D1*
X4954069Y2009317D1*
X4960721Y2015969D1*
X4966605Y2020345D1*
X4960721Y2024787D1*
X4954069Y2031439D1*
X4948539Y2039051D1*
X4944267Y2047434D1*
X4941360Y2056381D1*
X4939888Y2065674D1*
Y2075082D1*
X4941360Y2084375D1*
X4944267Y2093322D1*
X4948539Y2101705D1*
X4954069Y2109317D1*
X4960721Y2115969D1*
X4966605Y2120345D1*
X4960721Y2124787D1*
X4954069Y2131439D1*
X4948539Y2139051D1*
X4944267Y2147434D1*
X4941360Y2156381D1*
X4939888Y2165674D1*
Y2175082D1*
X4941360Y2184375D1*
X4944267Y2193322D1*
X4948539Y2201705D1*
X4954069Y2209317D1*
X4960721Y2215969D1*
X4966605Y2220345D1*
X4960721Y2224787D1*
X4954069Y2231439D1*
X4948539Y2239051D1*
X4944267Y2247434D1*
X4941360Y2256381D1*
X4939888Y2265674D1*
Y2275082D1*
X4941360Y2284375D1*
X4944267Y2293322D1*
X4948539Y2301705D1*
X4954069Y2309317D1*
X4955080Y2310411D1*
X4939704Y2310421D1*
Y2430334D1*
X4948890D1*
X603734Y1427468D2*
X604219Y1435493D1*
X605520Y1442722D1*
X607617Y1449762D1*
X610486Y1456524D1*
X614089Y1462924D1*
X618383Y1468884D1*
X623313Y1474329D1*
X628819Y1479190D1*
X634833Y1483408D1*
X641278Y1486931D1*
X648076Y1489714D1*
X655141Y1491722D1*
X662386Y1492932D1*
X669721Y1493327D1*
X677054Y1492903D1*
X684294Y1491665D1*
X691351Y1489628D1*
X698138Y1486818D1*
X704570Y1483270D1*
X710566Y1479028D1*
X716053Y1474145D1*
X720962Y1468681D1*
X725232Y1462704D1*
X728810Y1456290D1*
X731651Y1449516D1*
X733721Y1442468D1*
X734993Y1435234D1*
X735453Y1427465D1*
X735350Y1325367D1*
X734532Y1318067D1*
X732907Y1310904D1*
X730494Y1303966D1*
X727323Y1297341D1*
X723434Y1291109D1*
X718876Y1285350D1*
X713704Y1280133D1*
X707984Y1275525D1*
X701787Y1271583D1*
X695189Y1268355D1*
X688272Y1265882D1*
X681123Y1264195D1*
X673831Y1263314D1*
X666486Y1263250D1*
X659180Y1264005D1*
X652003Y1265569D1*
X645045Y1267922D1*
X638392Y1271035D1*
X632127Y1274870D1*
X626328Y1279379D1*
X621067Y1284505D1*
X616410Y1290185D1*
X612414Y1296348D1*
X609130Y1302918D1*
X606597Y1309813D1*
X604848Y1316947D1*
X603904Y1324231D1*
X603728Y1336388D1*
X603736Y1427465D1*
X738508Y1127351D2*
X728185Y1128161D1*
X718136Y1130574D1*
X708587Y1134529D1*
X699775Y1139929D1*
X691917Y1146641D1*
X685205Y1154500D1*
X679805Y1163312D1*
X675850Y1172860D1*
X673437Y1182909D1*
X672626Y1193213D1*
X673437Y1203516D1*
X675850Y1213565D1*
X679805Y1223113D1*
X685205Y1231925D1*
X691917Y1239784D1*
X699775Y1246496D1*
X708587Y1251896D1*
X718136Y1255851D1*
X728185Y1258264D1*
X738508Y1259074D1*
X842081Y1258872D1*
X852289Y1257255D1*
X862118Y1254061D1*
X871326Y1249369D1*
X879687Y1243295D1*
X886995Y1235987D1*
X893070Y1227626D1*
X897762Y1218417D1*
X900956Y1208588D1*
X902573Y1198380D1*
Y1188045D1*
X900956Y1177837D1*
X897762Y1168008D1*
X893070Y1158800D1*
X886995Y1150439D1*
X879687Y1143131D1*
X871326Y1137056D1*
X862118Y1132364D1*
X852289Y1129170D1*
X842081Y1127553D1*
X818541Y1127350D1*
X738488Y1127386D1*
X544017Y2969705D2*
X553957D1*
X553925Y3034435D1*
X549300Y3039901D1*
X545489Y3046121D1*
X542697Y3052861D1*
X540994Y3059955D1*
X540421Y3067228D1*
X540994Y3074501D1*
X542697Y3081595D1*
X545489Y3088335D1*
X549300Y3094556D1*
X554038Y3100103D1*
X559586Y3104841D1*
X565806Y3108653D1*
X572547Y3111445D1*
X579640Y3113148D1*
X586913Y3113720D1*
X594186Y3113148D1*
X601280Y3111445D1*
X608020Y3108653D1*
X614241Y3104841D1*
X619788Y3100103D1*
X624526Y3094556D1*
X628338Y3088335D1*
X631130Y3081595D1*
X632833Y3074501D1*
X633406Y3067228D1*
X632833Y3059955D1*
X631130Y3052861D1*
X628338Y3046121D1*
X624526Y3039901D1*
X619895Y3034469D1*
X619902Y2969731D1*
X638996Y2969705D1*
Y2857665D1*
X545067D1*
X545099Y2812240D1*
X564193Y2812224D1*
Y2700185D1*
X460028D1*
Y2812224D1*
X479154D1*
X479122Y2857649D1*
X460028Y2857665D1*
Y2969705D1*
X544017D1*
X1752185Y2571816D2*
Y2512193D1*
X1714758D1*
X1714784Y2421641D1*
X1708504D1*
X1709372Y2414586D1*
X1729548D1*
Y2395460D1*
X1735171Y2395391D1*
X1740284Y2394581D1*
X1745207Y2392981D1*
X1749819Y2390631D1*
X1754007Y2387588D1*
X1791813Y2349926D1*
X1798911Y2349369D1*
X1806005Y2347665D1*
X1812745Y2344874D1*
X1818965Y2341062D1*
X1824513Y2336324D1*
X1829251Y2330776D1*
X1833063Y2324556D1*
X1835854Y2317816D1*
X1837646Y2309971D1*
X1925792Y2398233D1*
X1895927Y2428098D1*
X1892546Y2427941D1*
X1880887Y2425576D1*
X1874985Y2421288D1*
X1868485Y2417976D1*
X1861546Y2415722D1*
X1854341Y2414580D1*
X1847045D1*
X1839840Y2415722D1*
X1832901Y2417976D1*
X1826401Y2421288D1*
X1820499Y2425576D1*
X1815340Y2430735D1*
X1811052Y2436637D1*
X1807740Y2443137D1*
X1805485Y2450076D1*
X1804344Y2457281D1*
Y2464577D1*
X1805485Y2471783D1*
X1807740Y2478721D1*
X1811052Y2485221D1*
X1815340Y2491123D1*
X1820499Y2496282D1*
X1824634Y2499390D1*
X1752200Y2571825D1*
X1636223Y2512193D2*
X1608090D1*
X1608091Y2493681D1*
X1612715Y2488257D1*
X1616527Y2482036D1*
X1619319Y2475296D1*
X1621022Y2468202D1*
X1621594Y2460929D1*
X1621022Y2453656D1*
X1619319Y2446562D1*
X1616527Y2439822D1*
X1612715Y2433602D1*
X1607977Y2428054D1*
X1602430Y2423316D1*
X1596209Y2419504D1*
X1589469Y2416712D1*
X1582375Y2415009D1*
X1575102Y2414437D1*
X1567829Y2415009D1*
X1560736Y2416712D1*
X1553995Y2419504D1*
X1547775Y2423316D1*
X1542227Y2428054D1*
X1537622Y2433434D1*
X1537618Y2421641D1*
X1531339D1*
X1531319Y2410635D1*
X1552382Y2410650D1*
Y2403078D1*
X1557311Y2405457D1*
X1564249Y2407711D1*
X1571455Y2408853D1*
X1578750D1*
X1585956Y2407711D1*
X1592894Y2405457D1*
X1599394Y2402145D1*
X1605297Y2397857D1*
X1610455Y2392698D1*
X1614743Y2386796D1*
X1617512Y2381474D1*
X1617508Y2414586D1*
X1642519D1*
X1642508Y2421636D1*
X1636209Y2421641D1*
Y2512177D1*
X1598807Y2542945D2*
Y2601724D1*
X1586012Y2601760D1*
Y2678946D1*
X1583878Y2677053D1*
Y2601760D1*
X1575015D1*
X1575020Y2566720D1*
X1598435Y2543303D1*
X1549036Y1956909D2*
X1553557D1*
X1553531Y2038793D1*
X1549036Y2035732D1*
Y1956895D1*
X1632093Y1956909D2*
X1669508D1*
X1669689Y1952561D1*
X1699604Y1982477D1*
X1699594Y2019579D1*
X1698059Y2013491D1*
X1695267Y2006751D1*
X1691455Y2000531D1*
X1686717Y1994983D1*
X1681170Y1990245D1*
X1674950Y1986433D1*
X1668209Y1983642D1*
X1661115Y1981939D1*
X1653843Y1981366D1*
X1646570Y1981939D1*
X1639476Y1983642D1*
X1632101Y1986789D1*
X1632106Y1956925D1*
X1669508Y1876780D2*
Y1873622D1*
X1658420Y1862586D2*
X1629713D1*
X1593487Y1826362D1*
X1598749Y1826226D1*
X1606575Y1824987D1*
X1614110Y1822538D1*
X1617049Y1821183D1*
X1658458Y1862591D1*
X1348151Y1956909D2*
X1376392D1*
X1376366Y2038793D1*
X1361603Y2038768D1*
Y2045478D1*
X1357699Y2040184D1*
X1352541Y2035025D1*
X1346639Y2030737D1*
X1340138Y2027425D1*
X1333200Y2025170D1*
X1325994Y2024029D1*
X1318699D1*
X1311493Y2025170D1*
X1304555Y2027425D1*
X1298054Y2030737D1*
X1292152Y2035025D1*
X1286994Y2040184D1*
X1282705Y2046086D1*
X1279393Y2052586D1*
X1277139Y2059525D1*
X1275998Y2066730D1*
Y2074026D1*
X1277139Y2081231D1*
X1279393Y2088170D1*
X1282705Y2094670D1*
X1286994Y2100572D1*
X1292152Y2105731D1*
X1298054Y2110019D1*
X1304555Y2113331D1*
X1311493Y2115585D1*
X1318699Y2116727D1*
X1322532Y2116863D1*
X1327843Y2120243D1*
X1332625Y2122224D1*
X1337658Y2123433D1*
X1342829Y2123838D1*
X1361586Y2123839D1*
X1361603Y2217736D1*
X1403336D1*
X1440350Y2254719D1*
X1440343Y2325590D1*
X1436084Y2325985D1*
X1431050Y2327193D1*
X1426268Y2329174D1*
X1421854Y2331879D1*
X1417918Y2335241D1*
X1382879Y2370424D1*
X1379836Y2374611D1*
X1377486Y2379224D1*
X1375887Y2384147D1*
X1375077Y2389260D1*
X1374975Y2417577D1*
X1285856Y2506672D1*
X1239549Y2506681D1*
X1242511Y2501721D1*
X1245303Y2494981D1*
X1247006Y2487887D1*
X1247579Y2480614D1*
X1247006Y2473341D1*
X1245303Y2466247D1*
X1242511Y2459507D1*
X1238700Y2453287D1*
X1234068Y2447854D1*
X1234075Y2041499D1*
X1265541Y2009912D1*
X1268584Y2005724D1*
X1270934Y2001112D1*
X1272533Y1996189D1*
X1273343Y1991076D1*
X1273445Y1924184D1*
Y1706905D1*
X1293496Y1686826D1*
X1338354Y1686831D1*
X1335241Y1689571D1*
X1294112Y1730844D1*
X1291070Y1735031D1*
X1288720Y1739644D1*
X1287120Y1744567D1*
X1286310Y1749679D1*
X1286209Y1816572D1*
X1286310Y1853281D1*
X1287120Y1858394D1*
X1288720Y1863317D1*
X1291070Y1867929D1*
X1294112Y1872117D1*
X1338981Y1917130D1*
X1338965Y1956909D1*
X1348151D1*
X1402576Y1862587D2*
X1377744D1*
X1352175Y1837019D1*
X1352185Y1797261D1*
X1354885Y1802272D1*
X1359542Y1808682D1*
X1365065Y1814211D1*
X1365860Y1819024D1*
X1367460Y1823947D1*
X1369810Y1828559D1*
X1372853Y1832747D1*
X1402548Y1862586D1*
X1454927Y1956909D2*
X1477175D1*
X1483064Y1962787D1*
X1483059Y2038793D1*
X1454946Y2038768D1*
X1454941Y1956925D1*
X1729548Y2310394D2*
Y2235618D1*
X1705326D1*
X1702920Y2229417D1*
X1700216Y2225004D1*
X1696846Y2221061D1*
X1694936Y2217736D1*
X1745425D1*
X1767311Y2239652D1*
X1769898Y2245816D1*
X1773710Y2252036D1*
X1778448Y2257584D1*
X1779506Y2258561D1*
X1773846Y2260496D1*
X1767346Y2263808D1*
X1761444Y2268096D1*
X1756285Y2273255D1*
X1751997Y2279157D1*
X1748685Y2285657D1*
X1746430Y2292595D1*
X1745289Y2299801D1*
X1745152Y2303292D1*
X1729566Y2318869D1*
X1729512Y2310421D1*
X1618093Y2235618D2*
X1617508D1*
Y2273476D1*
X1605595Y2285359D1*
X1582745Y2262322D1*
X1588292Y2257584D1*
X1593030Y2252036D1*
X1596842Y2245816D1*
X1599634Y2239076D1*
X1601337Y2231982D1*
X1601909Y2224709D1*
X1601372Y2217733D1*
X1604765Y2220000D1*
X1607469Y2224414D1*
X1610831Y2228350D1*
X1618114Y2235632D1*
X1509102Y2713799D2*
X1561924D1*
X1561799Y2737683D1*
X1556393Y2743098D1*
X1551736Y2749508D1*
X1548139Y2756567D1*
X1545585Y2764634D1*
X1543011Y2756567D1*
X1539414Y2749508D1*
X1534757Y2743098D1*
X1529154Y2737495D1*
X1522744Y2732838D1*
X1515685Y2729241D1*
X1508149Y2726793D1*
X1500324Y2725553D1*
X1492664Y2725543D1*
X1489980Y2718147D1*
Y2713805D1*
X1509075Y2713763D1*
X1421625Y2601760D2*
X1417032D1*
X1421644Y2599323D1*
X1773423Y2038768D2*
X1765601D1*
X1765469Y1966215D1*
X1764659Y1961102D1*
X1763060Y1956179D1*
X1760710Y1951567D1*
X1757667Y1947379D1*
X1710439Y1900007D1*
X1703968Y1893536D1*
X1807514Y1893524D1*
X1876778Y1962800D1*
X1876760Y1969680D1*
X1871800Y1966748D1*
X1865060Y1963957D1*
X1857966Y1962253D1*
X1850693Y1961681D1*
X1843420Y1962253D1*
X1836326Y1963957D1*
X1829586Y1966748D1*
X1823366Y1970560D1*
X1817818Y1975298D1*
X1813080Y1980846D1*
X1809268Y1987066D1*
X1806476Y1993806D1*
X1804773Y2000900D1*
X1804207Y2008016D1*
X1773447Y2038767D1*
X1077101Y3491277D2*
X1076492Y3483957D1*
X1075081Y3476749D1*
X1072882Y3469740D1*
X1069924Y3463017D1*
X1066243Y3456660D1*
X1061882Y3450749D1*
X1056897Y3445355D1*
X1051347Y3440544D1*
X1045300Y3436374D1*
X1038830Y3432896D1*
X1032016Y3430154D1*
X1024940Y3428179D1*
X1017691Y3426998D1*
X1010355Y3426623D1*
X1003023Y3427059D1*
X995783Y3428302D1*
X988725Y3430335D1*
X981934Y3433135D1*
X975493Y3436666D1*
X969482Y3440887D1*
X963972Y3445745D1*
X959032Y3451181D1*
X954721Y3457128D1*
X951093Y3463515D1*
X948192Y3470263D1*
X946052Y3477290D1*
X944701Y3484510D1*
X944154Y3491835D1*
X944419Y3499175D1*
X945491Y3506442D1*
X947359Y3513546D1*
X949998Y3520400D1*
X953378Y3526922D1*
X957456Y3533031D1*
X962184Y3538653D1*
X967502Y3543719D1*
X973347Y3548168D1*
X979647Y3551945D1*
X986325Y3555004D1*
X993300Y3557307D1*
X1000487Y3558827D1*
X1007797Y3559546D1*
X1015141Y3559453D1*
X1022431Y3558551D1*
X1029577Y3556851D1*
X1036492Y3554372D1*
X1043091Y3551147D1*
X1049294Y3547212D1*
X1055025Y3542618D1*
X1060214Y3537420D1*
X1064799Y3531681D1*
X1068722Y3525471D1*
X1071937Y3518866D1*
X1074403Y3511947D1*
X1076091Y3504799D1*
X1076981Y3497507D1*
X1077101Y3491277D1*
X1564601D2*
X1563992Y3483957D1*
X1562581Y3476749D1*
X1560382Y3469740D1*
X1557424Y3463017D1*
X1553743Y3456660D1*
X1549382Y3450749D1*
X1544397Y3445355D1*
X1538847Y3440544D1*
X1532800Y3436374D1*
X1526330Y3432896D1*
X1519516Y3430154D1*
X1512440Y3428179D1*
X1505191Y3426998D1*
X1497855Y3426623D1*
X1490523Y3427059D1*
X1483283Y3428302D1*
X1476225Y3430335D1*
X1469434Y3433135D1*
X1462993Y3436666D1*
X1456982Y3440887D1*
X1451472Y3445745D1*
X1446532Y3451181D1*
X1442221Y3457128D1*
X1438593Y3463515D1*
X1435692Y3470263D1*
X1433552Y3477290D1*
X1432201Y3484510D1*
X1431654Y3491835D1*
X1431919Y3499175D1*
X1432991Y3506442D1*
X1434859Y3513546D1*
X1437498Y3520400D1*
X1440878Y3526922D1*
X1444956Y3533031D1*
X1449684Y3538653D1*
X1455002Y3543719D1*
X1460847Y3548168D1*
X1467147Y3551945D1*
X1473825Y3555004D1*
X1480800Y3557307D1*
X1487987Y3558827D1*
X1495297Y3559546D1*
X1502641Y3559453D1*
X1509931Y3558551D1*
X1517077Y3556851D1*
X1523992Y3554372D1*
X1530591Y3551147D1*
X1536794Y3547212D1*
X1542525Y3542618D1*
X1547714Y3537420D1*
X1552299Y3531681D1*
X1556222Y3525471D1*
X1559437Y3518866D1*
X1561903Y3511947D1*
X1563591Y3504799D1*
X1564481Y3497507D1*
X1564601Y3491277D1*
X2054207Y3491297D2*
X2053599Y3483977D1*
X2052187Y3476768D1*
X2049988Y3469760D1*
X2047030Y3463036D1*
X2043349Y3456680D1*
X2038989Y3450769D1*
X2034003Y3445375D1*
X2028453Y3440563D1*
X2022406Y3436393D1*
X2015936Y3432916D1*
X2009122Y3430173D1*
X2002047Y3428199D1*
X1994797Y3427017D1*
X1987461Y3426642D1*
X1980129Y3427079D1*
X1972889Y3428321D1*
X1965831Y3430355D1*
X1959040Y3433154D1*
X1952600Y3436686D1*
X1946588Y3440907D1*
X1941078Y3445764D1*
X1936138Y3451200D1*
X1931828Y3457148D1*
X1928200Y3463535D1*
X1925298Y3470283D1*
X1923159Y3477309D1*
X1921807Y3484529D1*
X1921260Y3491854D1*
X1921525Y3499195D1*
X1922597Y3506461D1*
X1924465Y3513565D1*
X1927105Y3520420D1*
X1930484Y3526942D1*
X1934563Y3533051D1*
X1939290Y3538673D1*
X1944609Y3543739D1*
X1950454Y3548188D1*
X1956754Y3551964D1*
X1963432Y3555023D1*
X1970407Y3557327D1*
X1977593Y3558847D1*
X1984903Y3559565D1*
X1992248Y3559473D1*
X1999537Y3558571D1*
X2006683Y3556871D1*
X2013598Y3554392D1*
X2020197Y3551166D1*
X2026400Y3547232D1*
X2032131Y3542638D1*
X2037321Y3537439D1*
X2041905Y3531700D1*
X2045828Y3525491D1*
X2049043Y3518886D1*
X2051509Y3511967D1*
X2053198Y3504818D1*
X2054087Y3497527D1*
X2054207Y3491297D1*
X2539601D2*
X2538992Y3483977D1*
X2537581Y3476768D1*
X2535382Y3469760D1*
X2532424Y3463036D1*
X2528743Y3456680D1*
X2524382Y3450769D1*
X2519397Y3445375D1*
X2513847Y3440563D1*
X2507800Y3436393D1*
X2501330Y3432916D1*
X2494516Y3430173D1*
X2487440Y3428199D1*
X2480191Y3427017D1*
X2472855Y3426642D1*
X2465523Y3427079D1*
X2458283Y3428321D1*
X2451225Y3430355D1*
X2444434Y3433154D1*
X2437993Y3436686D1*
X2431982Y3440907D1*
X2426472Y3445764D1*
X2421532Y3451200D1*
X2417221Y3457148D1*
X2413593Y3463535D1*
X2410692Y3470283D1*
X2408552Y3477309D1*
X2407201Y3484529D1*
X2406654Y3491854D1*
X2406919Y3499195D1*
X2407991Y3506461D1*
X2409859Y3513565D1*
X2412498Y3520420D1*
X2415878Y3526942D1*
X2419956Y3533051D1*
X2424684Y3538673D1*
X2430002Y3543739D1*
X2435847Y3548188D1*
X2442147Y3551964D1*
X2448825Y3555023D1*
X2455800Y3557327D1*
X2462987Y3558847D1*
X2470297Y3559565D1*
X2477641Y3559473D1*
X2484931Y3558571D1*
X2492077Y3556871D1*
X2498992Y3554392D1*
X2505591Y3551166D1*
X2511794Y3547232D1*
X2517525Y3542638D1*
X2522714Y3537439D1*
X2527299Y3531700D1*
X2531222Y3525491D1*
X2534437Y3518886D1*
X2536903Y3511967D1*
X2538591Y3504818D1*
X2539481Y3497527D1*
X2539601Y3491297D1*
X3027101D2*
X3026492Y3483977D1*
X3025081Y3476768D1*
X3022882Y3469760D1*
X3019924Y3463036D1*
X3016243Y3456680D1*
X3011882Y3450769D1*
X3006897Y3445375D1*
X3001347Y3440563D1*
X2995300Y3436393D1*
X2988830Y3432916D1*
X2982016Y3430173D1*
X2974940Y3428199D1*
X2967691Y3427017D1*
X2960355Y3426642D1*
X2953023Y3427079D1*
X2945783Y3428321D1*
X2938725Y3430355D1*
X2931934Y3433154D1*
X2925493Y3436686D1*
X2919482Y3440907D1*
X2913972Y3445764D1*
X2909032Y3451200D1*
X2904721Y3457148D1*
X2901093Y3463535D1*
X2898192Y3470283D1*
X2896052Y3477309D1*
X2894701Y3484529D1*
X2894154Y3491854D1*
X2894419Y3499195D1*
X2895491Y3506461D1*
X2897359Y3513565D1*
X2899998Y3520420D1*
X2903378Y3526942D1*
X2907456Y3533051D1*
X2912184Y3538673D1*
X2917502Y3543739D1*
X2923347Y3548188D1*
X2929647Y3551964D1*
X2936325Y3555023D1*
X2943300Y3557327D1*
X2950487Y3558847D1*
X2957797Y3559565D1*
X2965141Y3559473D1*
X2972431Y3558571D1*
X2979577Y3556871D1*
X2986492Y3554392D1*
X2993091Y3551166D1*
X2999294Y3547232D1*
X3005025Y3542638D1*
X3010214Y3537439D1*
X3014799Y3531700D1*
X3018722Y3525491D1*
X3021937Y3518886D1*
X3024403Y3511967D1*
X3026091Y3504818D1*
X3026981Y3497527D1*
X3027101Y3491297D1*
X3514601D2*
X3513992Y3483977D1*
X3512581Y3476768D1*
X3510382Y3469760D1*
X3507424Y3463036D1*
X3503743Y3456680D1*
X3499382Y3450769D1*
X3494397Y3445375D1*
X3488847Y3440563D1*
X3482800Y3436393D1*
X3476330Y3432916D1*
X3469516Y3430173D1*
X3462440Y3428199D1*
X3455191Y3427017D1*
X3447855Y3426642D1*
X3440523Y3427079D1*
X3433283Y3428321D1*
X3426225Y3430355D1*
X3419434Y3433154D1*
X3412993Y3436686D1*
X3406982Y3440907D1*
X3401472Y3445764D1*
X3396532Y3451200D1*
X3392221Y3457148D1*
X3388593Y3463535D1*
X3385692Y3470283D1*
X3383552Y3477309D1*
X3382201Y3484529D1*
X3381654Y3491854D1*
X3381919Y3499195D1*
X3382991Y3506461D1*
X3384859Y3513565D1*
X3387498Y3520420D1*
X3390878Y3526942D1*
X3394956Y3533051D1*
X3399684Y3538673D1*
X3405002Y3543739D1*
X3410847Y3548188D1*
X3417147Y3551964D1*
X3423825Y3555023D1*
X3430800Y3557327D1*
X3437987Y3558847D1*
X3445297Y3559565D1*
X3452641Y3559473D1*
X3459931Y3558571D1*
X3467077Y3556871D1*
X3473992Y3554392D1*
X3480591Y3551166D1*
X3486794Y3547232D1*
X3492525Y3542638D1*
X3497714Y3537439D1*
X3502299Y3531700D1*
X3506222Y3525491D1*
X3509437Y3518886D1*
X3511903Y3511967D1*
X3513591Y3504818D1*
X3514481Y3497527D1*
X3514601Y3491297D1*
X4002101D2*
X4001492Y3483977D1*
X4000081Y3476768D1*
X3997882Y3469760D1*
X3994924Y3463036D1*
X3991243Y3456680D1*
X3986882Y3450769D1*
X3981897Y3445375D1*
X3976347Y3440563D1*
X3970300Y3436393D1*
X3963830Y3432916D1*
X3957016Y3430173D1*
X3949940Y3428199D1*
X3942691Y3427017D1*
X3935355Y3426642D1*
X3928023Y3427079D1*
X3920783Y3428321D1*
X3913725Y3430355D1*
X3906934Y3433154D1*
X3900493Y3436686D1*
X3894482Y3440907D1*
X3888972Y3445764D1*
X3884032Y3451200D1*
X3879721Y3457148D1*
X3876093Y3463535D1*
X3873192Y3470283D1*
X3871052Y3477309D1*
X3869701Y3484529D1*
X3869154Y3491854D1*
X3869419Y3499195D1*
X3870491Y3506461D1*
X3872359Y3513565D1*
X3874998Y3520420D1*
X3878378Y3526942D1*
X3882456Y3533051D1*
X3887184Y3538673D1*
X3892502Y3543739D1*
X3898347Y3548188D1*
X3904647Y3551964D1*
X3911325Y3555023D1*
X3918300Y3557327D1*
X3925487Y3558847D1*
X3932797Y3559565D1*
X3940141Y3559473D1*
X3947431Y3558571D1*
X3954577Y3556871D1*
X3961492Y3554392D1*
X3968091Y3551166D1*
X3974294Y3547232D1*
X3980025Y3542638D1*
X3985214Y3537439D1*
X3989799Y3531700D1*
X3993722Y3525491D1*
X3996937Y3518886D1*
X3999403Y3511967D1*
X4001091Y3504818D1*
X4001981Y3497527D1*
X4002101Y3491297D1*
X4489601D2*
X4488992Y3483977D1*
X4487581Y3476768D1*
X4485382Y3469760D1*
X4482424Y3463036D1*
X4478743Y3456680D1*
X4474382Y3450769D1*
X4469397Y3445375D1*
X4463847Y3440563D1*
X4457800Y3436393D1*
X4451330Y3432916D1*
X4444516Y3430173D1*
X4437440Y3428199D1*
X4430191Y3427017D1*
X4422855Y3426642D1*
X4415523Y3427079D1*
X4408283Y3428321D1*
X4401225Y3430355D1*
X4394434Y3433154D1*
X4387993Y3436686D1*
X4381982Y3440907D1*
X4376472Y3445764D1*
X4371532Y3451200D1*
X4367221Y3457148D1*
X4363593Y3463535D1*
X4360692Y3470283D1*
X4358552Y3477309D1*
X4357201Y3484529D1*
X4356654Y3491854D1*
X4356919Y3499195D1*
X4357991Y3506461D1*
X4359859Y3513565D1*
X4362498Y3520420D1*
X4365878Y3526942D1*
X4369956Y3533051D1*
X4374684Y3538673D1*
X4380002Y3543739D1*
X4385847Y3548188D1*
X4392147Y3551964D1*
X4398825Y3555023D1*
X4405800Y3557327D1*
X4412987Y3558847D1*
X4420297Y3559565D1*
X4427641Y3559473D1*
X4434931Y3558571D1*
X4442077Y3556871D1*
X4448992Y3554392D1*
X4455591Y3551166D1*
X4461794Y3547232D1*
X4467525Y3542638D1*
X4472714Y3537439D1*
X4477299Y3531700D1*
X4481222Y3525491D1*
X4484437Y3518886D1*
X4486903Y3511967D1*
X4488591Y3504818D1*
X4489481Y3497527D1*
X4489601Y3491297D1*
X1227081Y679643D2*
X1226473Y672323D1*
X1225061Y665115D1*
X1222862Y658106D1*
X1219904Y651383D1*
X1216223Y645027D1*
X1211863Y639115D1*
X1206877Y633721D1*
X1201327Y628910D1*
X1195280Y624740D1*
X1188810Y621262D1*
X1181996Y618520D1*
X1174921Y616546D1*
X1167671Y615364D1*
X1160335Y614989D1*
X1153003Y615425D1*
X1145764Y616668D1*
X1138705Y618701D1*
X1131914Y621501D1*
X1125474Y625033D1*
X1119462Y629253D1*
X1113952Y634111D1*
X1109012Y639547D1*
X1104702Y645494D1*
X1101074Y651881D1*
X1098172Y658629D1*
X1096033Y665656D1*
X1094681Y672876D1*
X1094134Y680201D1*
X1094399Y687541D1*
X1095471Y694808D1*
X1097339Y701912D1*
X1099979Y708767D1*
X1103358Y715288D1*
X1107437Y721397D1*
X1112164Y727019D1*
X1117483Y732085D1*
X1123328Y736534D1*
X1129628Y740311D1*
X1136306Y743370D1*
X1143281Y745673D1*
X1150467Y747194D1*
X1157777Y747912D1*
X1165122Y747819D1*
X1172411Y746918D1*
X1179557Y745217D1*
X1186472Y742739D1*
X1193071Y739513D1*
X1199274Y735579D1*
X1205005Y730984D1*
X1210195Y725786D1*
X1214779Y720047D1*
X1218702Y713837D1*
X1221917Y707233D1*
X1224383Y700314D1*
X1226072Y693165D1*
X1226961Y685874D1*
X1227081Y679643D1*
X1714601D2*
X1713992Y672323D1*
X1712581Y665115D1*
X1710382Y658106D1*
X1707424Y651383D1*
X1703743Y645027D1*
X1699382Y639115D1*
X1694397Y633721D1*
X1688847Y628910D1*
X1682800Y624740D1*
X1676330Y621262D1*
X1669516Y618520D1*
X1662440Y616546D1*
X1655191Y615364D1*
X1647855Y614989D1*
X1640523Y615425D1*
X1633283Y616668D1*
X1626225Y618701D1*
X1619434Y621501D1*
X1612993Y625033D1*
X1606982Y629253D1*
X1601472Y634111D1*
X1596532Y639547D1*
X1592221Y645494D1*
X1588593Y651881D1*
X1585692Y658629D1*
X1583552Y665656D1*
X1582201Y672876D1*
X1581654Y680201D1*
X1581919Y687541D1*
X1582991Y694808D1*
X1584859Y701912D1*
X1587498Y708767D1*
X1590878Y715288D1*
X1594956Y721397D1*
X1599684Y727019D1*
X1605002Y732085D1*
X1610847Y736534D1*
X1617147Y740311D1*
X1623825Y743370D1*
X1630800Y745673D1*
X1637987Y747194D1*
X1645297Y747912D1*
X1652641Y747819D1*
X1659931Y746918D1*
X1667077Y745217D1*
X1673992Y742739D1*
X1680591Y739513D1*
X1686794Y735579D1*
X1692525Y730984D1*
X1697714Y725786D1*
X1702299Y720047D1*
X1706222Y713837D1*
X1709437Y707233D1*
X1711903Y700314D1*
X1713591Y693165D1*
X1714481Y685874D1*
X1714601Y679643D1*
X2204207D2*
X2203599Y672323D1*
X2202187Y665115D1*
X2199988Y658106D1*
X2197030Y651383D1*
X2193349Y645027D1*
X2188989Y639115D1*
X2184003Y633721D1*
X2178453Y628910D1*
X2172406Y624740D1*
X2165936Y621262D1*
X2159122Y618520D1*
X2152047Y616546D1*
X2144797Y615364D1*
X2137461Y614989D1*
X2130129Y615425D1*
X2122889Y616668D1*
X2115831Y618701D1*
X2109040Y621501D1*
X2102600Y625033D1*
X2096588Y629253D1*
X2091078Y634111D1*
X2086138Y639547D1*
X2081828Y645494D1*
X2078200Y651881D1*
X2075298Y658629D1*
X2073159Y665656D1*
X2071807Y672876D1*
X2071260Y680201D1*
X2071525Y687541D1*
X2072597Y694808D1*
X2074465Y701912D1*
X2077105Y708767D1*
X2080484Y715288D1*
X2084563Y721397D1*
X2089290Y727019D1*
X2094609Y732085D1*
X2100454Y736534D1*
X2106754Y740311D1*
X2113432Y743370D1*
X2120407Y745673D1*
X2127593Y747194D1*
X2134903Y747912D1*
X2142248Y747819D1*
X2149537Y746918D1*
X2156683Y745217D1*
X2163598Y742739D1*
X2170197Y739513D1*
X2176400Y735579D1*
X2182131Y730984D1*
X2187321Y725786D1*
X2191905Y720047D1*
X2195828Y713837D1*
X2199043Y707233D1*
X2201509Y700314D1*
X2203198Y693165D1*
X2204087Y685874D1*
X2204207Y679643D1*
X2689601D2*
X2688992Y672323D1*
X2687581Y665115D1*
X2685382Y658106D1*
X2682424Y651383D1*
X2678743Y645027D1*
X2674382Y639115D1*
X2669397Y633721D1*
X2663847Y628910D1*
X2657800Y624740D1*
X2651330Y621262D1*
X2644516Y618520D1*
X2637440Y616546D1*
X2630191Y615364D1*
X2622855Y614989D1*
X2615523Y615425D1*
X2608283Y616668D1*
X2601225Y618701D1*
X2594434Y621501D1*
X2587993Y625033D1*
X2581982Y629253D1*
X2576472Y634111D1*
X2571532Y639547D1*
X2567221Y645494D1*
X2563593Y651881D1*
X2560692Y658629D1*
X2558552Y665656D1*
X2557201Y672876D1*
X2556654Y680201D1*
X2556919Y687541D1*
X2557991Y694808D1*
X2559859Y701912D1*
X2562498Y708767D1*
X2565878Y715288D1*
X2569956Y721397D1*
X2574684Y727019D1*
X2580002Y732085D1*
X2585847Y736534D1*
X2592147Y740311D1*
X2598825Y743370D1*
X2605800Y745673D1*
X2612987Y747194D1*
X2620297Y747912D1*
X2627641Y747819D1*
X2634931Y746918D1*
X2642077Y745217D1*
X2648992Y742739D1*
X2655591Y739513D1*
X2661794Y735579D1*
X2667525Y730984D1*
X2672714Y725786D1*
X2677299Y720047D1*
X2681222Y713837D1*
X2684437Y707233D1*
X2686903Y700314D1*
X2688591Y693165D1*
X2689481Y685874D1*
X2689601Y679643D1*
X3177081D2*
X3176473Y672323D1*
X3175061Y665115D1*
X3172862Y658106D1*
X3169904Y651383D1*
X3166223Y645027D1*
X3161863Y639115D1*
X3156877Y633721D1*
X3151327Y628910D1*
X3145280Y624740D1*
X3138810Y621262D1*
X3131996Y618520D1*
X3124921Y616546D1*
X3117671Y615364D1*
X3110335Y614989D1*
X3103003Y615425D1*
X3095764Y616668D1*
X3088705Y618701D1*
X3081914Y621501D1*
X3075474Y625033D1*
X3069462Y629253D1*
X3063952Y634111D1*
X3059012Y639547D1*
X3054702Y645494D1*
X3051074Y651881D1*
X3048172Y658629D1*
X3046033Y665656D1*
X3044681Y672876D1*
X3044134Y680201D1*
X3044399Y687541D1*
X3045471Y694808D1*
X3047339Y701912D1*
X3049979Y708767D1*
X3053358Y715288D1*
X3057437Y721397D1*
X3062164Y727019D1*
X3067483Y732085D1*
X3073328Y736534D1*
X3079628Y740311D1*
X3086306Y743370D1*
X3093281Y745673D1*
X3100467Y747194D1*
X3107777Y747912D1*
X3115122Y747819D1*
X3122411Y746918D1*
X3129557Y745217D1*
X3136472Y742739D1*
X3143071Y739513D1*
X3149274Y735579D1*
X3155005Y730984D1*
X3160195Y725786D1*
X3164779Y720047D1*
X3168702Y713837D1*
X3171917Y707233D1*
X3174383Y700314D1*
X3176072Y693165D1*
X3176961Y685874D1*
X3177081Y679643D1*
X3664601D2*
X3663992Y672323D1*
X3662581Y665115D1*
X3660382Y658106D1*
X3657424Y651383D1*
X3653743Y645027D1*
X3649382Y639115D1*
X3644397Y633721D1*
X3638847Y628910D1*
X3632800Y624740D1*
X3626330Y621262D1*
X3619516Y618520D1*
X3612440Y616546D1*
X3605191Y615364D1*
X3597855Y614989D1*
X3590523Y615425D1*
X3583283Y616668D1*
X3576225Y618701D1*
X3569434Y621501D1*
X3562993Y625033D1*
X3556982Y629253D1*
X3551472Y634111D1*
X3546532Y639547D1*
X3542221Y645494D1*
X3538593Y651881D1*
X3535692Y658629D1*
X3533552Y665656D1*
X3532201Y672876D1*
X3531654Y680201D1*
X3531919Y687541D1*
X3532991Y694808D1*
X3534859Y701912D1*
X3537498Y708767D1*
X3540878Y715288D1*
X3544956Y721397D1*
X3549684Y727019D1*
X3555002Y732085D1*
X3560847Y736534D1*
X3567147Y740311D1*
X3573825Y743370D1*
X3580800Y745673D1*
X3587987Y747194D1*
X3595297Y747912D1*
X3602641Y747819D1*
X3609931Y746918D1*
X3617077Y745217D1*
X3623992Y742739D1*
X3630591Y739513D1*
X3636794Y735579D1*
X3642525Y730984D1*
X3647714Y725786D1*
X3652299Y720047D1*
X3656222Y713837D1*
X3659437Y707233D1*
X3661903Y700314D1*
X3663591Y693165D1*
X3664481Y685874D1*
X3664601Y679643D1*
X4152081D2*
X4151473Y672323D1*
X4150061Y665115D1*
X4147862Y658106D1*
X4144904Y651383D1*
X4141223Y645027D1*
X4136863Y639115D1*
X4131877Y633721D1*
X4126327Y628910D1*
X4120280Y624740D1*
X4113810Y621262D1*
X4106996Y618520D1*
X4099921Y616546D1*
X4092671Y615364D1*
X4085335Y614989D1*
X4078003Y615425D1*
X4070764Y616668D1*
X4063705Y618701D1*
X4056914Y621501D1*
X4050474Y625033D1*
X4044462Y629253D1*
X4038952Y634111D1*
X4034012Y639547D1*
X4029702Y645494D1*
X4026074Y651881D1*
X4023172Y658629D1*
X4021033Y665656D1*
X4019681Y672876D1*
X4019134Y680201D1*
X4019399Y687541D1*
X4020471Y694808D1*
X4022339Y701912D1*
X4024979Y708767D1*
X4028358Y715288D1*
X4032437Y721397D1*
X4037164Y727019D1*
X4042483Y732085D1*
X4048328Y736534D1*
X4054628Y740311D1*
X4061306Y743370D1*
X4068281Y745673D1*
X4075467Y747194D1*
X4082777Y747912D1*
X4090122Y747819D1*
X4097411Y746918D1*
X4104557Y745217D1*
X4111472Y742739D1*
X4118071Y739513D1*
X4124274Y735579D1*
X4130005Y730984D1*
X4135195Y725786D1*
X4139779Y720047D1*
X4143702Y713837D1*
X4146917Y707233D1*
X4149383Y700314D1*
X4151072Y693165D1*
X4151961Y685874D1*
X4152081Y679643D1*
X4639601D2*
X4638992Y672323D1*
X4637581Y665115D1*
X4635382Y658106D1*
X4632424Y651383D1*
X4628743Y645027D1*
X4624382Y639115D1*
X4619397Y633721D1*
X4613847Y628910D1*
X4607800Y624740D1*
X4601330Y621262D1*
X4594516Y618520D1*
X4587440Y616546D1*
X4580191Y615364D1*
X4572855Y614989D1*
X4565523Y615425D1*
X4558283Y616668D1*
X4551225Y618701D1*
X4544434Y621501D1*
X4537993Y625033D1*
X4531982Y629253D1*
X4526472Y634111D1*
X4521532Y639547D1*
X4517221Y645494D1*
X4513593Y651881D1*
X4510692Y658629D1*
X4508552Y665656D1*
X4507201Y672876D1*
X4506654Y680201D1*
X4506919Y687541D1*
X4507991Y694808D1*
X4509859Y701912D1*
X4512498Y708767D1*
X4515878Y715288D1*
X4519956Y721397D1*
X4524684Y727019D1*
X4530002Y732085D1*
X4535847Y736534D1*
X4542147Y740311D1*
X4548825Y743370D1*
X4555800Y745673D1*
X4562987Y747194D1*
X4570297Y747912D1*
X4577641Y747819D1*
X4584931Y746918D1*
X4592077Y745217D1*
X4598992Y742739D1*
X4605591Y739513D1*
X4611794Y735579D1*
X4617525Y730984D1*
X4622714Y725786D1*
X4627299Y720047D1*
X4631222Y713837D1*
X4634437Y707233D1*
X4636903Y700314D1*
X4638591Y693165D1*
X4639481Y685874D1*
X4639601Y679643D1*
X4153745Y1863571D2*
X4103729D1*
Y1981809D1*
X4100607Y1987066D1*
X4097815Y1993806D1*
X4096112Y2000900D1*
X4095539Y2008173D1*
X4096112Y2015446D1*
X4097815Y2022540D1*
X4100607Y2029280D1*
X4104419Y2035501D1*
X4109157Y2041048D1*
X4114704Y2045786D1*
X4120925Y2049598D1*
X4127665Y2052390D1*
X4134759Y2054093D1*
X4142031Y2054665D1*
X4149304Y2054093D1*
X4156398Y2052390D1*
X4160225Y2050941D1*
X4160224Y2081722D1*
X4152421Y2084859D1*
X4146200Y2088671D1*
X4140653Y2093409D1*
X4135915Y2098956D1*
X4132103Y2105176D1*
X4129311Y2111917D1*
X4127608Y2119010D1*
X4127035Y2126283D1*
X4127608Y2133556D1*
X4129311Y2140650D1*
X4132103Y2147390D1*
X4135915Y2153611D1*
X4140653Y2159158D1*
X4146200Y2163896D1*
X4152421Y2167708D1*
X4159161Y2170500D1*
X4166255Y2172203D1*
X4173528Y2172776D1*
X4180801Y2172203D1*
X4187894Y2170500D1*
X4194635Y2167708D1*
X4200855Y2163896D1*
X4206402Y2159158D1*
X4211140Y2153611D1*
X4214952Y2147390D1*
X4217744Y2140650D1*
X4219447Y2133556D1*
X4220002Y2125842D1*
X4222605Y2121575D1*
X4224586Y2116792D1*
X4225795Y2111759D1*
X4226201Y2106598D1*
Y1995322D1*
X4259026Y1995295D1*
X4259043Y2191567D1*
X4254419Y2196988D1*
X4250607Y2203208D1*
X4247815Y2209948D1*
X4246112Y2217042D1*
X4245539Y2224315D1*
X4246112Y2231588D1*
X4247815Y2238682D1*
X4250607Y2245422D1*
X4254419Y2251642D1*
X4259157Y2257190D1*
X4264704Y2261928D1*
X4270925Y2265740D1*
X4277665Y2268532D1*
X4284759Y2270235D1*
X4292031Y2270807D1*
X4299304Y2270235D1*
X4306398Y2268532D1*
X4313138Y2265740D1*
X4319359Y2261928D1*
X4324906Y2257190D1*
X4329644Y2251642D1*
X4333456Y2245422D1*
X4336248Y2238682D1*
X4337951Y2231588D1*
X4338524Y2224315D1*
X4337951Y2217042D1*
X4336248Y2209948D1*
X4333456Y2203208D1*
X4329644Y2196988D1*
X4325013Y2191555D1*
X4325020Y1995266D1*
X4330335Y1995295D1*
Y1863571D1*
X4316591D1*
X4321517Y1862382D1*
X4326299Y1860401D1*
X4330713Y1857696D1*
X4334656Y1854327D1*
X4449263Y1739720D1*
X4456391Y1739132D1*
X4463485Y1737429D1*
X4470225Y1734637D1*
X4476445Y1730826D1*
X4481993Y1726087D1*
X4486731Y1720540D1*
X4490543Y1714320D1*
X4493335Y1707579D1*
X4495038Y1700486D1*
X4495610Y1693213D1*
X4495038Y1685940D1*
X4493335Y1678846D1*
X4490543Y1672106D1*
X4486731Y1665885D1*
X4481993Y1660338D1*
X4476445Y1655600D1*
X4470225Y1651788D1*
X4463485Y1648996D1*
X4456391Y1647293D1*
X4449118Y1646720D1*
X4441845Y1647293D1*
X4434751Y1648996D1*
X4428011Y1651788D1*
X4421791Y1655600D1*
X4416243Y1660338D1*
X4411505Y1665885D1*
X4407693Y1672106D1*
X4404901Y1678846D1*
X4403198Y1685940D1*
X4402632Y1693056D1*
X4297679Y1797999D1*
X4269365Y1798121D1*
X4264252Y1798931D1*
X4259329Y1800531D1*
X4254716Y1802881D1*
X4250529Y1805923D1*
X4218705Y1837603D1*
X4215343Y1841539D1*
X4212639Y1845953D1*
X4210658Y1850735D1*
X4209449Y1855769D1*
X4209044Y1860939D1*
X4206844Y1863571D1*
X4153729Y1863606D1*
X2250778Y2737674D2*
X2245369Y2743098D1*
X2240712Y2749508D1*
X2237115Y2756567D1*
X2234561Y2764634D1*
X2231987Y2756567D1*
X2228390Y2749508D1*
X2223733Y2743098D1*
X2218324Y2737674D1*
X2218327Y2526659D1*
X2224709Y2527106D1*
X2231982Y2526534D1*
X2239076Y2524831D1*
X2245816Y2522039D1*
X2250767Y2519075D1*
X2250776Y2737694D1*
X1746344Y1753628D2*
X1743617Y1760287D1*
X1742435Y1764634D1*
X1739861Y1756567D1*
X1736264Y1749508D1*
X1731607Y1743098D1*
X1726005Y1737495D1*
X1719595Y1732838D1*
X1712535Y1729241D1*
X1705000Y1726793D1*
X1697174Y1725553D1*
X1689251D1*
X1681425Y1726793D1*
X1673890Y1729241D1*
X1667146Y1732583D1*
X1666740Y1727422D1*
X1665531Y1722389D1*
X1663550Y1717606D1*
X1660846Y1713193D1*
X1657476Y1709250D1*
X1635889Y1687807D1*
X1638094Y1686831D1*
X1679541D1*
X1746338Y1753620D1*
X642570Y3654548D2*
X641727Y3647423D1*
X640327Y3640386D1*
X638380Y3633481D1*
X635896Y3626750D1*
X632893Y3620235D1*
X629387Y3613975D1*
X625401Y3608010D1*
X620960Y3602376D1*
X616090Y3597107D1*
X610821Y3592237D1*
X605187Y3587796D1*
X599222Y3583810D1*
X592962Y3580304D1*
X586447Y3577300D1*
X579716Y3574817D1*
X572811Y3572870D1*
X565774Y3571470D1*
X558649Y3570627D1*
X551480Y3570345D1*
X544311Y3570627D1*
X537187Y3571470D1*
X530150Y3572870D1*
X523245Y3574817D1*
X516514Y3577300D1*
X509999Y3580304D1*
X503739Y3583810D1*
X497774Y3587796D1*
X492139Y3592237D1*
X486871Y3597107D1*
X482001Y3602376D1*
X477559Y3608010D1*
X473573Y3613975D1*
X470068Y3620235D1*
X467064Y3626750D1*
X464581Y3633481D1*
X462634Y3640386D1*
X461234Y3647423D1*
X460391Y3654548D1*
X460109Y3661717D1*
X460391Y3668885D1*
X461234Y3676010D1*
X462634Y3683047D1*
X464581Y3689952D1*
X467064Y3696683D1*
X470068Y3703198D1*
X473573Y3709458D1*
X477559Y3715423D1*
X482001Y3721058D1*
X486871Y3726326D1*
X492139Y3731196D1*
X497774Y3735638D1*
X503739Y3739623D1*
X511907Y3744009D1*
X431462Y3744000D1*
X425274Y419002D1*
X5011971Y425044D1*
X5004703Y427694D1*
X4998188Y430698D1*
X4991928Y434203D1*
X4985963Y438189D1*
X4980328Y442631D1*
X4975060Y447501D1*
X4970190Y452769D1*
X4965748Y458403D1*
X4961762Y464369D1*
X4958257Y470628D1*
X4955253Y477144D1*
X4952770Y483875D1*
X4950822Y490780D1*
X4949423Y497817D1*
X4948580Y504941D1*
X4948298Y512110D1*
X4948580Y519279D1*
X4949423Y526404D1*
X4950822Y533440D1*
X4952770Y540346D1*
X4955253Y547077D1*
X4958257Y553592D1*
X4961762Y559852D1*
X4965748Y565817D1*
X4970190Y571451D1*
X4975060Y576720D1*
X4980328Y581590D1*
X4985963Y586031D1*
X4991928Y590017D1*
X4998188Y593523D1*
X5004703Y596526D1*
X5011434Y599010D1*
X5018339Y600957D1*
X5025376Y602357D1*
X5032500Y603200D1*
X5039669Y603482D1*
X5046838Y603200D1*
X5053963Y602357D1*
X5061000Y600957D1*
X5067905Y599010D1*
X5074636Y596526D1*
X5081151Y593523D1*
X5087411Y590017D1*
X5093376Y586031D1*
X5099010Y581590D1*
X5104279Y576720D1*
X5109149Y571451D1*
X5113590Y565817D1*
X5117576Y559852D1*
X5121082Y553592D1*
X5124085Y547077D1*
X5126569Y540346D1*
X5128516Y533440D1*
X5129916Y526404D1*
X5130759Y519279D1*
X5131041Y512110D1*
X5130759Y504941D1*
X5129916Y497817D1*
X5128516Y490780D1*
X5126569Y483875D1*
X5124085Y477144D1*
X5121082Y470628D1*
X5117576Y464369D1*
X5113590Y458403D1*
X5109149Y452769D1*
X5104279Y447501D1*
X5099010Y442631D1*
X5093376Y438189D1*
X5087411Y434203D1*
X5081151Y430698D1*
X5074636Y427694D1*
X5067554Y425112D1*
X5156512Y425234D1*
X5156500Y3743987D1*
X5079397Y3744000D1*
X5087411Y3739623D1*
X5093376Y3735638D1*
X5099010Y3731196D1*
X5104279Y3726326D1*
X5109149Y3721058D1*
X5113590Y3715423D1*
X5117576Y3709458D1*
X5121082Y3703198D1*
X5124085Y3696683D1*
X5126569Y3689952D1*
X5128516Y3683047D1*
X5129916Y3676010D1*
X5130759Y3668885D1*
X5131041Y3661717D1*
X5130759Y3654548D1*
X5129916Y3647423D1*
X5128516Y3640386D1*
X5126569Y3633481D1*
X5124085Y3626750D1*
X5121082Y3620235D1*
X5117576Y3613975D1*
X5113590Y3608010D1*
X5109149Y3602376D1*
X5104279Y3597107D1*
X5099010Y3592237D1*
X5093376Y3587796D1*
X5087411Y3583810D1*
X5081151Y3580304D1*
X5074636Y3577300D1*
X5067905Y3574817D1*
X5061000Y3572870D1*
X5053963Y3571470D1*
X5046838Y3570627D1*
X5039669Y3570345D1*
X5032500Y3570627D1*
X5025376Y3571470D1*
X5018339Y3572870D1*
X5011434Y3574817D1*
X5004703Y3577300D1*
X4998188Y3580304D1*
X4991928Y3583810D1*
X4985963Y3587796D1*
X4980328Y3592237D1*
X4975060Y3597107D1*
X4970190Y3602376D1*
X4965748Y3608010D1*
X4961762Y3613975D1*
X4958257Y3620235D1*
X4955253Y3626750D1*
X4952770Y3633481D1*
X4950822Y3640386D1*
X4949423Y3647423D1*
X4948580Y3654548D1*
X4948298Y3661717D1*
X4948580Y3668885D1*
X4949423Y3676010D1*
X4950822Y3683047D1*
X4952770Y3689952D1*
X4955253Y3696683D1*
X4958257Y3703198D1*
X4961762Y3709458D1*
X4965748Y3715423D1*
X4970190Y3721058D1*
X4975060Y3726326D1*
X4980328Y3731196D1*
X4985963Y3735638D1*
X4991928Y3739623D1*
X5000096Y3744009D1*
X591218Y3744000D1*
X599222Y3739623D1*
X605187Y3735638D1*
X610821Y3731196D1*
X616090Y3726326D1*
X620960Y3721058D1*
X625401Y3715423D1*
X629387Y3709458D1*
X632893Y3703198D1*
X635896Y3696683D1*
X638380Y3689952D1*
X640327Y3683047D1*
X641727Y3676010D1*
X642570Y3668885D1*
X642852Y3661717D1*
X642570Y3654548D1*
Y504941D2*
X641727Y497817D1*
X640327Y490780D1*
X638380Y483875D1*
X635896Y477144D1*
X632893Y470628D1*
X629387Y464369D1*
X625401Y458403D1*
X620960Y452769D1*
X616090Y447501D1*
X610821Y442631D1*
X605187Y438189D1*
X599222Y434203D1*
X592962Y430698D1*
X586447Y427694D1*
X579716Y425211D1*
X572811Y423263D1*
X565774Y421864D1*
X558649Y421021D1*
X551480Y420739D1*
X544311Y421021D1*
X537187Y421864D1*
X530150Y423263D1*
X523245Y425211D1*
X516514Y427694D1*
X509999Y430698D1*
X503739Y434203D1*
X497774Y438189D1*
X492139Y442631D1*
X486871Y447501D1*
X482001Y452769D1*
X477559Y458403D1*
X473573Y464369D1*
X470068Y470628D1*
X467064Y477144D1*
X464581Y483875D1*
X462634Y490780D1*
X461234Y497817D1*
X460391Y504941D1*
X460109Y512110D1*
X460391Y519279D1*
X461234Y526404D1*
X462634Y533440D1*
X464581Y540346D1*
X467064Y547077D1*
X470068Y553592D1*
X473573Y559852D1*
X477559Y565817D1*
X482001Y571451D1*
X486871Y576720D1*
X492139Y581590D1*
X497774Y586031D1*
X503739Y590017D1*
X509999Y593523D1*
X516514Y596526D1*
X523245Y599010D1*
X530150Y600957D1*
X537187Y602357D1*
X544311Y603200D1*
X551480Y603482D1*
X558649Y603200D1*
X565774Y602357D1*
X572811Y600957D1*
X579716Y599010D1*
X586447Y596526D1*
X592962Y593523D1*
X599222Y590017D1*
X605187Y586031D1*
X610821Y581590D1*
X616090Y576720D1*
X620960Y571451D1*
X625401Y565817D1*
X629387Y559852D1*
X632893Y553592D1*
X635896Y547077D1*
X638380Y540346D1*
X640327Y533440D1*
X641727Y526404D1*
X642570Y519279D1*
X642852Y512110D1*
X642570Y504941D1*
X1797838Y2107681D2*
X1850844Y2054675D1*
X1856366Y2054282D1*
X1788605Y2122034D1*
X1789440Y2115935D1*
X1797838Y2107681D1*
X833238Y2337616D2*
X833453Y1807386D1*
Y2337862D1*
X767268Y2337618D2*
X762636Y2343051D1*
X758825Y2349271D1*
X756033Y2356011D1*
X754330Y2363105D1*
X753757Y2370378D1*
X754330Y2377651D1*
X756033Y2384745D1*
X758825Y2391485D1*
X762636Y2397705D1*
X767374Y2403253D1*
X772922Y2407991D1*
X779142Y2411803D1*
X785882Y2414595D1*
X792976Y2416298D1*
X800249Y2416870D1*
X807522Y2416298D1*
X814616Y2414595D1*
X821356Y2411803D1*
X827577Y2407991D1*
X833444Y2402907D1*
X2086016Y2388571D2*
X2009511D1*
X1973512Y2352527D1*
X1978294Y2354508D1*
X1983328Y2355716D1*
X1988488Y2356122D1*
X2053546D1*
X2085997Y2388555D1*
X1699031Y2038780D2*
X1699593Y2035984D1*
X3409478Y2720450D2*
X3608067Y2521715D1*
X3609043Y2529171D1*
X3609145Y2680053D1*
X3609955Y2685166D1*
X3611554Y2690089D1*
X3613904Y2694701D1*
X3616947Y2698889D1*
X3635630Y2717715D1*
X3631522Y2720852D1*
X3628957Y2723223D1*
X3406329Y2723216D1*
X3409459Y2720468D1*
X3784849Y2913679D2*
X3790336Y2909668D1*
X3795495Y2904509D1*
X3799783Y2898607D1*
X3803095Y2892107D1*
X3804850Y2886939D1*
X3826239Y2908324D1*
X3821090Y2910102D1*
X3814590Y2913414D1*
X3808688Y2917702D1*
X3803529Y2922861D1*
X3799518Y2928348D1*
X3795495Y2922861D1*
X3790336Y2917702D1*
X3784849Y2913691D1*
X3659040Y1624198D2*
X3545337Y1510642D1*
X3548856Y1509666D1*
X3569346D1*
X3659040Y1599393D1*
X3659043Y1624236D1*
X3759040Y1487978D2*
X3643763Y1372846D1*
X3643344Y1371870D1*
X3648045D1*
X3759043Y1482861D1*
Y1487964D1*
X3497854Y2408482D2*
Y1804695D1*
X3502479Y1799280D1*
X3506291Y1793060D1*
X3509083Y1786320D1*
X3510786Y1779226D1*
X3511358Y1771953D1*
X3510786Y1764680D1*
X3509083Y1757586D1*
X3506291Y1750846D1*
X3502479Y1744625D1*
X3497741Y1739078D1*
X3492194Y1734340D1*
X3485973Y1730528D1*
X3479233Y1727736D1*
X3472139Y1726033D1*
X3464866Y1725461D1*
X3457593Y1726033D1*
X3450499Y1727736D1*
X3443759Y1730528D1*
X3437539Y1734340D1*
X3431991Y1739078D1*
X3427253Y1744625D1*
X3423441Y1750846D1*
X3420650Y1757586D1*
X3418946Y1764680D1*
X3418374Y1771953D1*
X3418946Y1779226D1*
X3420650Y1786320D1*
X3423441Y1793060D1*
X3427253Y1799280D1*
X3431885Y1804712D1*
X3431878Y2408502D1*
X3427253Y2413917D1*
X3423441Y2420137D1*
X3420650Y2426877D1*
X3418946Y2433971D1*
X3418374Y2441244D1*
X3418946Y2448517D1*
X3420650Y2455611D1*
X3423441Y2462351D1*
X3427253Y2468571D1*
X3431991Y2474119D1*
X3437539Y2478857D1*
X3443759Y2482669D1*
X3450499Y2485461D1*
X3457593Y2487164D1*
X3464866Y2487736D1*
X3472139Y2487164D1*
X3479233Y2485461D1*
X3485973Y2482669D1*
X3492194Y2478857D1*
X3497741Y2474119D1*
X3502479Y2468571D1*
X3506291Y2462351D1*
X3509083Y2455611D1*
X3510786Y2448517D1*
X3511358Y2441244D1*
X3510786Y2433971D1*
X3509083Y2426877D1*
X3506291Y2420137D1*
X3502479Y2413917D1*
X3497848Y2408484D1*
X4999660Y1870378D2*
D14*
Y1810457D1*
X669591Y1493291D2*
Y1263213D1*
X1010634Y3559570D2*
Y3426658D1*
X1498134Y3559570D2*
Y3426658D1*
X1987740Y3559590D2*
Y3426678D1*
X2473134Y3559590D2*
Y3426678D1*
X2960634Y3559590D2*
Y3426678D1*
X3448134Y3559590D2*
Y3426678D1*
X3935634Y3559590D2*
Y3426678D1*
X4423134Y3559590D2*
Y3426678D1*
X1160614Y747937D2*
Y615024D1*
X1648134Y747937D2*
Y615024D1*
X2137740Y747937D2*
Y615024D1*
X2623134Y747937D2*
Y615024D1*
X3110614Y747937D2*
Y615024D1*
X3598134Y747937D2*
Y615024D1*
X4085614Y747937D2*
Y615024D1*
X4573134Y747937D2*
Y615024D1*
X2086913Y2826346D2*
Y2725434D1*
D20*
X4173528Y1752268D3*
X4098724D3*
D22*
X1063291Y1397937D3*
Y1264079D3*
D23*
X1988488Y2598724D3*
Y2508724D3*
D20*
X1131303Y3250251D3*
X1056500D3*
X1606303D3*
X1531500D3*
X2093803Y3250249D3*
X2019000D3*
X2581303Y3250251D3*
X2506500D3*
X3075054D3*
X3000251D3*
X3556303D3*
X3481500D3*
X4031303Y3250249D3*
X3956500D3*
X4531303Y3250251D3*
X4456500D3*
X1050251Y844000D3*
X1125054D3*
X1525260D3*
X1600063D3*
X2019000D3*
X2093803D3*
X2500251D3*
X2575054D3*
X2994000D3*
X3068803D3*
X3487760D3*
X3562563D3*
X3969000D3*
X4043803D3*
X4456520D3*
X4531323D3*
D25*
X800249Y1731500D3*
X725446D3*
X762848Y1640949D3*
X981500Y1731500D3*
X906697D3*
X944098Y1640949D3*
X1162749Y1731500D3*
X1087946D3*
X1125348Y1640949D3*
D26*
X4999660Y2370378D3*
D27*
Y2270378D3*
Y2170378D3*
Y2070378D3*
Y1970378D3*
Y1870378D3*
D28*
X669591Y1378252D3*
D29*
X905811D3*
D30*
X787701Y1193213D3*
D20*
X1043606Y2913685D3*
X968803D3*
X807386D3*
X732583D3*
X586913D3*
X512110D3*
D25*
X1712898Y2559354D3*
X1638094D3*
X1675496Y2468803D3*
X1535732Y2559354D3*
X1460929D3*
X1498331Y2468803D3*
X1555417Y1909748D3*
X1630220D3*
X1592819Y2000299D3*
X1378252Y1909748D3*
X1453055D3*
X1415654Y2000299D3*
D31*
X1281500Y3369000D3*
Y3294197D3*
X1781520Y3369000D3*
Y3294197D3*
X2256520Y3369000D3*
Y3294197D3*
X2750260Y3369000D3*
Y3294197D3*
X3250249Y3369000D3*
Y3294197D3*
X3725251Y3369000D3*
Y3294197D3*
X4206500Y3369000D3*
Y3294197D3*
X4719000Y3369000D3*
Y3294197D3*
X937751Y837751D3*
Y912554D3*
X1419000Y837751D3*
Y912554D3*
X1912751Y844000D3*
Y918803D3*
X2400249Y844000D3*
Y918803D3*
X2887751Y844000D3*
Y918803D3*
X3362751Y837751D3*
Y912554D3*
X3869000Y844000D3*
Y918803D3*
X4344000Y844000D3*
Y918803D3*
D20*
X586913Y2756205D3*
X512110D3*
X1712898Y2657780D3*
X1638094D3*
D31*
X1673528Y2287701D3*
Y2362504D3*
D20*
X1531795Y2657780D3*
X1456992D3*
D31*
X1496362Y2283764D3*
Y2358567D3*
X1732583Y2165654D3*
Y2090850D3*
X1634157Y2165654D3*
Y2090850D3*
X1516047Y2165654D3*
Y2090850D3*
X1417622Y2165654D3*
Y2090850D3*
D20*
X807386Y2756205D3*
X732583D3*
X1043606D3*
X968803D3*
X1131303Y3094000D3*
X1056500D3*
X1606303D3*
X1531500D3*
X2094000D3*
X2019197D3*
X2581303D3*
X2506500D3*
X3075054D3*
X3000251D3*
X3556303D3*
X3481500D3*
X4031303D3*
X3956500D3*
X4531303D3*
X4456500D3*
X1050251Y1006500D3*
X1125054D3*
X1525251D3*
X1600054D3*
X2019000D3*
X2093803D3*
X2500231D3*
X2575034D3*
X2994000D3*
X3068803D3*
X3487751D3*
X3562554D3*
X3969000D3*
X4043803D3*
X4456500D3*
X4531303D3*
D32*
X1010634Y3493114D3*
X1160634D3*
X1498134D3*
X1648134D3*
X1987740Y3493134D3*
X2137740D3*
X2473134D3*
X2623134D3*
X2960634D3*
X3110634D3*
X3448134D3*
X3598134D3*
X3935634D3*
X4085634D3*
X4423134D3*
X4573134D3*
X1160614Y681480D3*
X1010614D3*
X1648134D3*
X1498134D3*
X2137740D3*
X1987740D3*
X2623134D3*
X2473134D3*
X3110614D3*
X2960614D3*
X3598134D3*
X3448134D3*
X4085614D3*
X3935614D3*
X4573134D3*
X4423134D3*
D33*
X3642031Y1929433D3*
X3692031D3*
X3742031D3*
X3792031D3*
X3842031D3*
X3892031D3*
X3942031D3*
X3992031D3*
X4042031D3*
X4092031D3*
X4142031D3*
X4192031D3*
X4242031D3*
X4292031D3*
Y2299512D3*
X4242031D3*
X4192031D3*
X4142031D3*
X4092031D3*
X4042031D3*
X3992031D3*
X3942031D3*
X3892031D3*
X3842031D3*
X3792031D3*
X3742031D3*
X3692031D3*
X3642031D3*
D34*
X2283764Y2775890D3*
X2185339D3*
X2086913D3*
X1988488D3*
X1890063D3*
X1791638D3*
X1693213D3*
X1594787D3*
X1496362D3*
X1397937D3*
X2283764Y1775890D3*
X2185339D3*
X2086913D3*
X1988488D3*
X1890063D3*
X1791638D3*
X1693213D3*
X1594787D3*
X1496362D3*
X1397937D3*
M02*
