G04 DipTrace 3.3.1.3*
G04 TopMask.gbr*
%MOIN*%
G04 #@! TF.FileFunction,Soldermask,Top*
G04 #@! TF.Part,Single*
%ADD37C,0.11811*%
%ADD43C,0.05604*%
%ADD45R,0.031662X0.08678*%
%ADD47C,0.08804*%
%ADD49R,0.067095X0.059221*%
%ADD51O,0.185205X0.08678*%
%ADD53O,0.08678X0.20489*%
%ADD55O,0.08678X0.185205*%
%ADD57C,0.074969*%
%ADD59R,0.074969X0.074969*%
%ADD61R,0.033631X0.049379*%
%ADD63R,0.064037X0.06804*%
%ADD65R,0.063158X0.096623*%
%ADD67R,0.059221X0.067095*%
%FSLAX26Y26*%
G04*
G70*
G90*
G75*
G01*
G04 TopMask*
%LPD*%
D67*
X4173528Y1752268D3*
X4098724D3*
D65*
X1063291Y1397937D3*
Y1264079D3*
D63*
X1988488Y2598724D3*
Y2508724D3*
D67*
X1131303Y3250251D3*
X1056500D3*
X1606303D3*
X1531500D3*
X2093803Y3250249D3*
X2019000D3*
X2581303Y3250251D3*
X2506500D3*
X3075054D3*
X3000251D3*
X3556303D3*
X3481500D3*
X4031303Y3250249D3*
X3956500D3*
X4531303Y3250251D3*
X4456500D3*
X1050251Y844000D3*
X1125054D3*
X1525260D3*
X1600063D3*
X2019000D3*
X2093803D3*
X2500251D3*
X2575054D3*
X2994000D3*
X3068803D3*
X3487760D3*
X3562563D3*
X3969000D3*
X4043803D3*
X4456520D3*
X4531323D3*
D61*
X800249Y1731500D3*
X725446D3*
X762848Y1640949D3*
X981500Y1731500D3*
X906697D3*
X944098Y1640949D3*
X1162749Y1731500D3*
X1087946D3*
X1125348Y1640949D3*
D59*
X4999660Y2370378D3*
D57*
Y2270378D3*
Y2170378D3*
Y2070378D3*
Y1970378D3*
Y1870378D3*
D55*
X669591Y1378252D3*
D53*
X905811D3*
D51*
X787701Y1193213D3*
D67*
X1043606Y2913685D3*
X968803D3*
X807386D3*
X732583D3*
X586913D3*
X512110D3*
D61*
X1712898Y2559354D3*
X1638094D3*
X1675496Y2468803D3*
X1535732Y2559354D3*
X1460929D3*
X1498331Y2468803D3*
X1555417Y1909748D3*
X1630220D3*
X1592819Y2000299D3*
X1378252Y1909748D3*
X1453055D3*
X1415654Y2000299D3*
D49*
X1281500Y3369000D3*
Y3294197D3*
X1781520Y3369000D3*
Y3294197D3*
X2256520Y3369000D3*
Y3294197D3*
X2750260Y3369000D3*
Y3294197D3*
X3250249Y3369000D3*
Y3294197D3*
X3725251Y3369000D3*
Y3294197D3*
X4206500Y3369000D3*
Y3294197D3*
X4719000Y3369000D3*
Y3294197D3*
X937751Y837751D3*
Y912554D3*
X1419000Y837751D3*
Y912554D3*
X1912751Y844000D3*
Y918803D3*
X2400249Y844000D3*
Y918803D3*
X2887751Y844000D3*
Y918803D3*
X3362751Y837751D3*
Y912554D3*
X3869000Y844000D3*
Y918803D3*
X4344000Y844000D3*
Y918803D3*
D67*
X586913Y2756205D3*
X512110D3*
X1712898Y2657780D3*
X1638094D3*
D49*
X1673528Y2287701D3*
Y2362504D3*
D67*
X1531795Y2657780D3*
X1456992D3*
D49*
X1496362Y2283764D3*
Y2358567D3*
X1732583Y2165654D3*
Y2090850D3*
X1634157Y2165654D3*
Y2090850D3*
X1516047Y2165654D3*
Y2090850D3*
X1417622Y2165654D3*
Y2090850D3*
D67*
X807386Y2756205D3*
X732583D3*
X1043606D3*
X968803D3*
X1131303Y3094000D3*
X1056500D3*
X1606303D3*
X1531500D3*
X2094000D3*
X2019197D3*
X2581303D3*
X2506500D3*
X3075054D3*
X3000251D3*
X3556303D3*
X3481500D3*
X4031303D3*
X3956500D3*
X4531303D3*
X4456500D3*
X1050251Y1006500D3*
X1125054D3*
X1525251D3*
X1600054D3*
X2019000D3*
X2093803D3*
X2500231D3*
X2575034D3*
X2994000D3*
X3068803D3*
X3487751D3*
X3562554D3*
X3969000D3*
X4043803D3*
X4456500D3*
X4531303D3*
D47*
X1010634Y3493114D3*
X1160634D3*
X1498134D3*
X1648134D3*
X1987740Y3493134D3*
X2137740D3*
X2473134D3*
X2623134D3*
X2960634D3*
X3110634D3*
X3448134D3*
X3598134D3*
X3935634D3*
X4085634D3*
X4423134D3*
X4573134D3*
X1160614Y681480D3*
X1010614D3*
X1648134D3*
X1498134D3*
X2137740D3*
X1987740D3*
X2623134D3*
X2473134D3*
X3110614D3*
X2960614D3*
X3598134D3*
X3448134D3*
X4085614D3*
X3935614D3*
X4573134D3*
X4423134D3*
D45*
X3642031Y1929433D3*
X3692031D3*
X3742031D3*
X3792031D3*
X3842031D3*
X3892031D3*
X3942031D3*
X3992031D3*
X4042031D3*
X4092031D3*
X4142031D3*
X4192031D3*
X4242031D3*
X4292031D3*
Y2299512D3*
X4242031D3*
X4192031D3*
X4142031D3*
X4092031D3*
X4042031D3*
X3992031D3*
X3942031D3*
X3892031D3*
X3842031D3*
X3792031D3*
X3742031D3*
X3692031D3*
X3642031D3*
D43*
X2283764Y2775890D3*
X2185339D3*
X2086913D3*
X1988488D3*
X1890063D3*
X1791638D3*
X1693213D3*
X1594787D3*
X1496362D3*
X1397937D3*
X2283764Y1775890D3*
X2185339D3*
X2086913D3*
X1988488D3*
X1890063D3*
X1791638D3*
X1693213D3*
X1594787D3*
X1496362D3*
X1397937D3*
D37*
X551480Y3661717D3*
X5039669D3*
X551480Y512110D3*
X5039669D3*
M02*
