G04 DipTrace 3.3.1.3*
G04 TopPaste.gbr*
%MOIN*%
G04 #@! TF.FileFunction,Paste,Top*
G04 #@! TF.Part,Single*
%ADD62R,0.07474X0.212535*%
%ADD64R,0.037339X0.021591*%
%ADD66R,0.056X0.196*%
%ADD68R,0.019622X0.07474*%
%ADD72R,0.055055X0.047181*%
%ADD84R,0.021591X0.037339*%
%ADD86R,0.051997X0.056*%
%ADD88R,0.051118X0.084583*%
%ADD90R,0.047181X0.055055*%
%FSLAX26Y26*%
G04*
G70*
G90*
G75*
G01*
G04 TopPaste*
%LPD*%
D90*
X4527858Y1732583D3*
X4453055D3*
D88*
X1063291Y1397937D3*
Y1264079D3*
D86*
X2697150Y2598724D3*
Y2508724D3*
D90*
X1131303Y3250251D3*
X1056500D3*
X1606303D3*
X1531500D3*
X2093803Y3250249D3*
X2019000D3*
X2581303Y3250251D3*
X2506500D3*
X3075054D3*
X3000251D3*
X3556303D3*
X3481500D3*
X4031303Y3250249D3*
X3956500D3*
X4531303Y3250251D3*
X4456500D3*
X1050251Y844000D3*
X1125054D3*
X1525260D3*
X1600063D3*
X2019000D3*
X2093803D3*
X2500251D3*
X2575054D3*
X2994000D3*
X3068803D3*
X3487760D3*
X3562563D3*
X3969000D3*
X4043803D3*
X4456520D3*
X4531323D3*
D84*
X4787701Y2645969D3*
X4862504D3*
X4825102Y2736520D3*
X4945181Y2645969D3*
X5019984D3*
X4982583Y2736520D3*
X4630220Y2645969D3*
X4705024D3*
X4667622Y2736520D3*
D90*
X1008173Y2992425D3*
X933370D3*
X771953D3*
X697150D3*
X551480D3*
X476677D3*
D84*
X5039669Y1594787D3*
X4964866D3*
X5002268Y1504236D3*
X4862504Y1594787D3*
X4787701D3*
X4825102Y1504236D3*
X4882189Y945181D3*
X4956992D3*
X4919591Y1035732D3*
X4705024Y945181D3*
X4779827D3*
X4742425Y1035732D3*
D72*
X1281500Y3369000D3*
Y3294197D3*
X1781520Y3369000D3*
Y3294197D3*
X2256520Y3369000D3*
Y3294197D3*
X2750260Y3369000D3*
Y3294197D3*
X3250249Y3369000D3*
Y3294197D3*
X3725251Y3369000D3*
Y3294197D3*
X4206500Y3369000D3*
Y3294197D3*
X4719000Y3369000D3*
Y3294197D3*
X937751Y837751D3*
Y912554D3*
X1419000Y837751D3*
Y912554D3*
X1912751Y844000D3*
Y918803D3*
X2400249Y844000D3*
Y918803D3*
X2887751Y844000D3*
Y918803D3*
X3362751Y837751D3*
Y912554D3*
X3869000Y844000D3*
Y918803D3*
X4344000Y844000D3*
Y918803D3*
D90*
X551480Y2834945D3*
X476677D3*
X5039669Y1693213D3*
X4964866D3*
D72*
X5000299Y1323134D3*
Y1397937D3*
D90*
X4858567Y1693213D3*
X4783764D3*
D72*
X4823134Y1319197D3*
Y1394000D3*
X5059354Y1201087D3*
Y1126283D3*
X4960929Y1201087D3*
Y1126283D3*
X4842819Y1201087D3*
Y1126283D3*
X4744394Y1201087D3*
Y1126283D3*
D90*
X771953Y2834945D3*
X697150D3*
X1008173D3*
X933370D3*
X1056500Y3094000D3*
X1131303D3*
X1606303D3*
X1531500D3*
X2094000D3*
X2019197D3*
X2581303D3*
X2506500D3*
X3075054D3*
X3000251D3*
X3556303D3*
X3481500D3*
X4031303D3*
X3956500D3*
X4531303D3*
X4456500D3*
X1050251Y1006500D3*
X1125054D3*
X1525251D3*
X1600054D3*
X2019000D3*
X2093803D3*
X2500231D3*
X2575034D3*
X2994000D3*
X3068803D3*
X3487751D3*
X3562554D3*
X3969000D3*
X4043803D3*
X4456500D3*
X4531303D3*
D68*
X4035732Y1949118D3*
X4085732D3*
X4135732D3*
X4185732D3*
X4235732D3*
X4285732D3*
X4335732D3*
X4385732D3*
X4435732D3*
X4485732D3*
X4535732D3*
X4585732D3*
X4635732D3*
X4685732D3*
Y2319197D3*
X4635732D3*
X4585732D3*
X4535732D3*
X4485732D3*
X4435732D3*
X4385732D3*
X4335732D3*
X4285732D3*
X4235732D3*
X4185732D3*
X4135732D3*
X4085732D3*
X4035732D3*
D66*
X2303449Y1653843D3*
X2203449D3*
X2103449D3*
X2003449D3*
X1903449D3*
X1803449D3*
X1703449D3*
X1603449D3*
X1503449D3*
X1403449D3*
X1303449D3*
X1203449D3*
X1103449D3*
X2303449Y2653843D3*
X2203449D3*
X2103449D3*
X2003449D3*
X1903449D3*
X1803449D3*
X1703449D3*
X1603449D3*
X1503449D3*
X1403449D3*
X1303449D3*
X1203449D3*
X1103449D3*
D68*
X3012110Y2086913D3*
X3062110D3*
X3112110D3*
X3162110D3*
X3212110D3*
X3262110D3*
X3312110D3*
X3362110D3*
Y2299512D3*
X3312110D3*
X3262110D3*
X3212110D3*
X3162110D3*
X3112110D3*
X3062110D3*
X3012110D3*
D84*
X2874315Y2539669D3*
X2949118D3*
X2911717Y2630220D3*
D64*
X2484551Y1504236D3*
Y1579039D3*
X2394000Y1541638D3*
D62*
X3563291Y1949118D3*
Y2323134D3*
D72*
X3779827Y1968803D3*
Y2043606D3*
Y2244394D3*
Y2169591D3*
X2913685Y2224709D3*
Y2149906D3*
D90*
X2953055Y2441244D3*
X2878252D3*
X2638094Y1496362D3*
X2563291D3*
M02*
