G04 DipTrace 3.3.1.3*
G04 TopSilk.gbr*
%MOIN*%
G04 #@! TF.FileFunction,Legend,Top*
G04 #@! TF.Part,Single*
%ADD10C,0.009843*%
%ADD21C,0.023616*%
%ADD24C,0.015404*%
%ADD35C,0.015422*%
%ADD37C,0.015491*%
%ADD91C,0.00772*%
%FSLAX26Y26*%
G04*
G70*
G90*
G75*
G01*
G04 TopSilk*
%LPD*%
X1147937Y1246368D2*
D10*
X1106596D1*
X1147937D2*
Y1386106D1*
X1118413Y1415645D2*
X1147937Y1386106D1*
X1118413Y1415645D2*
X1106596D1*
X1019987Y1246368D2*
X978646D1*
Y1386106D1*
X1008170Y1415645D2*
X978646Y1386106D1*
X1019987Y1415645D2*
X1008170D1*
D21*
X1114477Y1437306D3*
X2734709Y2641362D2*
D10*
X2659591D1*
Y2466087D1*
X2734709D1*
Y2641362D1*
D24*
X4756852Y2631260D3*
X4766053Y2681401D2*
D10*
X4884157D1*
Y2701087D1*
X4766053D1*
Y2681401D1*
D24*
X4914332Y2631260D3*
X4923533Y2681401D2*
D10*
X5041638D1*
Y2701087D1*
X4923533D1*
Y2681401D1*
D24*
X4599371Y2631260D3*
X4608572Y2681401D2*
D10*
X4726677D1*
Y2701087D1*
X4608572D1*
Y2681401D1*
X5049662Y2420351D2*
X4949660D1*
Y1820405D1*
X5049662D1*
Y2420351D1*
X366441Y1555417D2*
Y1201068D1*
X681391D1*
X894020D2*
X933375D1*
Y1269978D1*
Y1486507D2*
Y1555417D1*
X366441D1*
D24*
X5070518Y1609496D3*
X5061317Y1559354D2*
D10*
X4943213D1*
Y1539669D1*
X5061317D1*
Y1559354D1*
D24*
X4893353Y1609496D3*
X4884152Y1559354D2*
D10*
X4766047D1*
Y1539669D1*
X4884152D1*
Y1559354D1*
D24*
X4851340Y930472D3*
X4860541Y980614D2*
D10*
X4978646D1*
Y1000299D1*
X4860541D1*
Y980614D1*
D24*
X4674175Y930472D3*
X4683375Y980614D2*
D10*
X4801480D1*
Y1000299D1*
X4683375D1*
Y980614D1*
X910634Y3820615D2*
X1260634D1*
Y3455613D1*
X910634D1*
Y3820615D1*
X1398134D2*
X1748134D1*
Y3455613D1*
X1398134D1*
Y3820615D1*
X1887740Y3820635D2*
X2237740D1*
Y3455633D1*
X1887740D1*
Y3820635D1*
X2373134D2*
X2723134D1*
Y3455633D1*
X2373134D1*
Y3820635D1*
X2860634D2*
X3210634D1*
Y3455633D1*
X2860634D1*
Y3820635D1*
X3348134D2*
X3698134D1*
Y3455633D1*
X3348134D1*
Y3820635D1*
X3835634D2*
X4185634D1*
Y3455633D1*
X3835634D1*
Y3820635D1*
X4323134D2*
X4673134D1*
Y3455633D1*
X4323134D1*
Y3820635D1*
X1260614Y353979D2*
X910614D1*
Y718981D1*
X1260614D1*
Y353979D1*
X1748134D2*
X1398134D1*
Y718981D1*
X1748134D1*
Y353979D1*
X2237740D2*
X1887740D1*
Y718981D1*
X2237740D1*
Y353979D1*
X2723134D2*
X2373134D1*
Y718981D1*
X2723134D1*
Y353979D1*
X3210614D2*
X2860614D1*
Y718981D1*
X3210614D1*
Y353979D1*
X3698134D2*
X3348134D1*
Y718981D1*
X3698134D1*
Y353979D1*
X4185614D2*
X3835614D1*
Y718981D1*
X4185614D1*
Y353979D1*
X4673134D2*
X4323134D1*
Y718981D1*
X4673134D1*
Y353979D1*
X4002484Y2008174D2*
X4718981D1*
X4002484Y2260141D2*
X4718981D1*
Y2008174D2*
Y2260141D1*
X4002484Y2008174D2*
Y2102650D1*
Y2165665D2*
Y2260141D1*
Y2102650D2*
G03X4002484Y2165665I-53J31507D01*
G01*
X2635635Y2653883D2*
X448241D1*
Y1653803D1*
X2635635D1*
Y2653883D1*
X1117478Y2531843D2*
X323135D1*
Y1778843D1*
X1117478D1*
Y2531843D1*
X2990276Y2142024D2*
X3383945D1*
X2990276Y2244401D2*
X3383945D1*
Y2142024D2*
Y2244401D1*
X2990276Y2142024D2*
Y2173518D1*
Y2212907D2*
Y2244401D1*
Y2173518D2*
G03X2990276Y2212907I-11J19694D01*
G01*
D24*
X2843466Y2524960D3*
X2852667Y2575102D2*
D10*
X2970772D1*
Y2594788D1*
X2852667D1*
Y2575102D1*
D35*
X2499260Y1473387D3*
X2449118Y1482588D2*
D10*
Y1600693D1*
X2429433D1*
Y1482588D1*
X2449118D1*
D37*
X3501781Y1862612D3*
X3496350Y1911717D2*
D10*
X3466835D1*
X3659748Y2360535D2*
X3630232D1*
X3659748Y1911717D2*
Y2360535D1*
Y1911717D2*
X3630232D1*
X3496350Y2360535D2*
X3466835D1*
Y1911717D2*
Y2360535D1*
X3805398Y1927444D2*
X3754256D1*
Y2285753D2*
X3805398D1*
X2888114Y2266068D2*
X2939256D1*
X2960929Y1921398D2*
X3061124D1*
X3224705D2*
X3413685D1*
Y1447429D1*
X3224750D1*
X3061124D2*
X2960929D1*
Y1921398D1*
X4494675Y1823395D2*
D91*
X4492299Y1828148D1*
X4487490Y1832957D1*
X4482737Y1835333D1*
X4473175D1*
X4468367Y1832957D1*
X4463614Y1828148D1*
X4461182Y1823395D1*
X4458805Y1816210D1*
Y1804217D1*
X4461182Y1797087D1*
X4463614Y1792278D1*
X4468367Y1787525D1*
X4473175Y1785093D1*
X4482737D1*
X4487490Y1787525D1*
X4492299Y1792278D1*
X4494675Y1797087D1*
X4510115Y1825716D2*
X4514923Y1828148D1*
X4522108Y1835278D1*
Y1785093D1*
X4420088Y1686041D2*
X4412903Y1683665D1*
X4408095Y1676480D1*
X4405718Y1664541D1*
Y1657356D1*
X4408095Y1645418D1*
X4412903Y1638233D1*
X4420088Y1635856D1*
X4424841D1*
X4432026Y1638233D1*
X4436780Y1645418D1*
X4439211Y1657356D1*
Y1664541D1*
X4436780Y1676480D1*
X4432026Y1683665D1*
X4424841Y1686041D1*
X4420088D1*
X4436780Y1676480D2*
X4408095Y1645418D1*
X4457027Y1640665D2*
X4454651Y1638233D1*
X4457027Y1635856D1*
X4459459Y1638233D1*
X4457027Y1640665D1*
X4474898Y1676480D2*
X4479707Y1678911D1*
X4486892Y1686041D1*
Y1635856D1*
X4502331Y1669350D2*
Y1645418D1*
X4504708Y1638288D1*
X4509516Y1635856D1*
X4516701D1*
X4521454Y1638288D1*
X4528639Y1645418D1*
Y1669350D2*
Y1635856D1*
X4575195Y1686096D2*
X4544079D1*
Y1635856D1*
Y1662165D2*
X4563202D1*
X1056760Y1510413D2*
X1054383Y1515167D1*
X1049575Y1519975D1*
X1044822Y1522352D1*
X1035260D1*
X1030452Y1519975D1*
X1025699Y1515167D1*
X1023267Y1510413D1*
X1020890Y1503228D1*
Y1491235D1*
X1023267Y1484105D1*
X1025699Y1479297D1*
X1030452Y1474544D1*
X1035260Y1472112D1*
X1044822D1*
X1049575Y1474544D1*
X1054383Y1479297D1*
X1056760Y1484105D1*
X1077008Y1522296D2*
X1103261D1*
X1088946Y1503173D1*
X1096131D1*
X1100884Y1500797D1*
X1103261Y1498420D1*
X1105693Y1491235D1*
Y1486482D1*
X1103261Y1479297D1*
X1098508Y1474488D1*
X1091323Y1472112D1*
X1084137D1*
X1077008Y1474488D1*
X1074631Y1476920D1*
X1072199Y1481673D1*
X988677Y1193212D2*
X993485Y1195644D1*
X1000670Y1202773D1*
Y1152589D1*
X1030479Y1202773D2*
X1023294Y1200397D1*
X1018486Y1193212D1*
X1016109Y1181274D1*
Y1174089D1*
X1018486Y1162150D1*
X1023294Y1154965D1*
X1030479Y1152589D1*
X1035233D1*
X1042418Y1154965D1*
X1047171Y1162150D1*
X1049603Y1174089D1*
Y1181274D1*
X1047171Y1193212D1*
X1042418Y1200397D1*
X1035233Y1202773D1*
X1030479D1*
X1047171Y1193212D2*
X1018486Y1162150D1*
X1065042Y1186082D2*
Y1162150D1*
X1067418Y1155021D1*
X1072227Y1152589D1*
X1079412D1*
X1084165Y1155021D1*
X1091350Y1162150D1*
Y1186082D2*
Y1152589D1*
X1137906Y1202829D2*
X1106789D1*
Y1152589D1*
Y1178897D2*
X1125913D1*
X2775471Y2544227D2*
X2770718Y2541850D1*
X2765909Y2537042D1*
X2763533Y2532289D1*
Y2522727D1*
X2765909Y2517918D1*
X2770718Y2513165D1*
X2775471Y2510733D1*
X2782656Y2508357D1*
X2794650D1*
X2801779Y2510733D1*
X2806588Y2513165D1*
X2811341Y2517918D1*
X2813773Y2522727D1*
Y2532288D1*
X2811341Y2537042D1*
X2806588Y2541850D1*
X2801779Y2544227D1*
X2773150Y2559666D2*
X2770718Y2564474D1*
X2763588Y2571659D1*
X2813773D1*
X2773150Y2587099D2*
X2770718Y2591907D1*
X2763588Y2599092D1*
X2813773D1*
X1063439Y3353001D2*
Y3302761D1*
X1080185D1*
X1087370Y3305193D1*
X1092179Y3309946D1*
X1094555Y3314755D1*
X1096932Y3321885D1*
Y3333878D1*
X1094555Y3341063D1*
X1092179Y3345816D1*
X1087370Y3350625D1*
X1080185Y3353001D1*
X1063439D1*
X1112371Y3343384D2*
X1117180Y3345816D1*
X1124365Y3352946D1*
Y3302761D1*
X1527689Y3353001D2*
Y3302761D1*
X1544435D1*
X1551620Y3305193D1*
X1556429Y3309946D1*
X1558805Y3314755D1*
X1561182Y3321885D1*
Y3333878D1*
X1558805Y3341063D1*
X1556429Y3345816D1*
X1551620Y3350625D1*
X1544435Y3353001D1*
X1527689D1*
X1579053Y3341008D2*
Y3343384D1*
X1581430Y3348193D1*
X1583806Y3350569D1*
X1588615Y3352946D1*
X1598176D1*
X1602929Y3350569D1*
X1605306Y3348193D1*
X1607738Y3343384D1*
Y3338631D1*
X1605306Y3333823D1*
X1600553Y3326693D1*
X1576621Y3302761D1*
X1610115D1*
X2015189Y3353000D2*
Y3302760D1*
X2031935D1*
X2039120Y3305192D1*
X2043929Y3309945D1*
X2046305Y3314753D1*
X2048682Y3321883D1*
Y3333877D1*
X2046305Y3341062D1*
X2043929Y3345815D1*
X2039120Y3350623D1*
X2031935Y3353000D1*
X2015189D1*
X2068930Y3352945D2*
X2095183D1*
X2080868Y3333821D1*
X2088053D1*
X2092806Y3331445D1*
X2095183Y3329068D1*
X2097615Y3321883D1*
Y3317130D1*
X2095183Y3309945D1*
X2090429Y3305137D1*
X2083244Y3302760D1*
X2076059D1*
X2068930Y3305137D1*
X2066553Y3307568D1*
X2064121Y3312322D1*
X2501500Y3353001D2*
Y3302761D1*
X2518247D1*
X2525432Y3305193D1*
X2530240Y3309946D1*
X2532617Y3314755D1*
X2534994Y3321885D1*
Y3333878D1*
X2532617Y3341063D1*
X2530240Y3345816D1*
X2525432Y3350625D1*
X2518247Y3353001D1*
X2501500D1*
X2574365Y3302761D2*
Y3352946D1*
X2550433Y3319508D1*
X2586303D1*
X2996439Y3353001D2*
Y3302761D1*
X3013186D1*
X3020371Y3305193D1*
X3025179Y3309946D1*
X3027556Y3314755D1*
X3029933Y3321885D1*
Y3333878D1*
X3027556Y3341063D1*
X3025179Y3345816D1*
X3020371Y3350625D1*
X3013186Y3353001D1*
X2996439D1*
X3074057Y3352946D2*
X3050180D1*
X3047804Y3331446D1*
X3050180Y3333823D1*
X3057365Y3336255D1*
X3064495D1*
X3071680Y3333823D1*
X3076489Y3329070D1*
X3078865Y3321885D1*
Y3317131D1*
X3076489Y3309946D1*
X3071680Y3305138D1*
X3064495Y3302761D1*
X3057365D1*
X3050180Y3305138D1*
X3047804Y3307570D1*
X3045372Y3312323D1*
X3478905Y3353001D2*
Y3302761D1*
X3495651D1*
X3502836Y3305193D1*
X3507645Y3309946D1*
X3510021Y3314755D1*
X3512398Y3321885D1*
Y3333878D1*
X3510021Y3341063D1*
X3507645Y3345816D1*
X3502836Y3350625D1*
X3495651Y3353001D1*
X3478905D1*
X3556522Y3345816D2*
X3554145Y3350569D1*
X3546960Y3352946D1*
X3542207D1*
X3535022Y3350569D1*
X3530214Y3343384D1*
X3527837Y3331446D1*
Y3319508D1*
X3530214Y3309946D1*
X3535022Y3305138D1*
X3542207Y3302761D1*
X3544584D1*
X3551714Y3305138D1*
X3556522Y3309946D1*
X3558899Y3317131D1*
Y3319508D1*
X3556522Y3326693D1*
X3551714Y3331446D1*
X3544584Y3333823D1*
X3542207D1*
X3535022Y3331446D1*
X3530214Y3326693D1*
X3527837Y3319508D1*
X3952689Y3353000D2*
Y3302760D1*
X3969435D1*
X3976620Y3305192D1*
X3981429Y3309945D1*
X3983805Y3314753D1*
X3986182Y3321883D1*
Y3333877D1*
X3983805Y3341062D1*
X3981429Y3345815D1*
X3976620Y3350623D1*
X3969435Y3353000D1*
X3952689D1*
X4011183Y3302760D2*
X4035115Y3352945D1*
X4001621D1*
X4452716Y3353001D2*
Y3302761D1*
X4469463D1*
X4476648Y3305193D1*
X4481456Y3309946D1*
X4483833Y3314755D1*
X4486210Y3321885D1*
Y3333878D1*
X4483833Y3341063D1*
X4481456Y3345816D1*
X4476648Y3350625D1*
X4469463Y3353001D1*
X4452716D1*
X4513587Y3352946D2*
X4506457Y3350569D1*
X4504025Y3345816D1*
Y3341008D1*
X4506457Y3336255D1*
X4511210Y3333823D1*
X4520772Y3331446D1*
X4527957Y3329070D1*
X4532710Y3324261D1*
X4535087Y3319508D1*
Y3312323D1*
X4532710Y3307570D1*
X4530334Y3305138D1*
X4523149Y3302761D1*
X4513587D1*
X4506457Y3305138D1*
X4504025Y3307570D1*
X4501649Y3312323D1*
Y3319508D1*
X4504025Y3324261D1*
X4508834Y3329070D1*
X4515964Y3331446D1*
X4525525Y3333823D1*
X4530334Y3336255D1*
X4532710Y3341008D1*
Y3345816D1*
X4530334Y3350569D1*
X4523149Y3352946D1*
X4513587D1*
X1047628Y946751D2*
Y896511D1*
X1064374D1*
X1071559Y898942D1*
X1076368Y903696D1*
X1078744Y908504D1*
X1081121Y915634D1*
Y927627D1*
X1078744Y934812D1*
X1076368Y939566D1*
X1071559Y944374D1*
X1064374Y946751D1*
X1047628D1*
X1127677Y930004D2*
X1125245Y922819D1*
X1120492Y918010D1*
X1113307Y915634D1*
X1110930D1*
X1103745Y918010D1*
X1098992Y922819D1*
X1096560Y930004D1*
Y932381D1*
X1098992Y939566D1*
X1103745Y944319D1*
X1110930Y946695D1*
X1113307D1*
X1120492Y944319D1*
X1125245Y939566D1*
X1127677Y930004D1*
Y918010D1*
X1125245Y906072D1*
X1120492Y898887D1*
X1113307Y896511D1*
X1108554D1*
X1101369Y898887D1*
X1098992Y903696D1*
X1507732Y946751D2*
Y896511D1*
X1524479D1*
X1531664Y898942D1*
X1536472Y903696D1*
X1538849Y908504D1*
X1541225Y915634D1*
Y927627D1*
X1538849Y934812D1*
X1536472Y939566D1*
X1531664Y944374D1*
X1524479Y946751D1*
X1507732D1*
X1556665Y937134D2*
X1561473Y939566D1*
X1568658Y946695D1*
Y896511D1*
X1598467Y946695D2*
X1591282Y944319D1*
X1586474Y937134D1*
X1584097Y925196D1*
Y918010D1*
X1586474Y906072D1*
X1591282Y898887D1*
X1598467Y896511D1*
X1603221D1*
X1610406Y898887D1*
X1615159Y906072D1*
X1617591Y918010D1*
Y925196D1*
X1615159Y937134D1*
X1610406Y944319D1*
X1603221Y946695D1*
X1598467D1*
X1615159Y937134D2*
X1586474Y906072D1*
X2012222Y946751D2*
Y896511D1*
X2028969D1*
X2036154Y898942D1*
X2040962Y903696D1*
X2043339Y908504D1*
X2045716Y915634D1*
Y927627D1*
X2043339Y934812D1*
X2040962Y939566D1*
X2036154Y944374D1*
X2028969Y946751D1*
X2012222D1*
X2061155Y937134D2*
X2065963Y939566D1*
X2073148Y946695D1*
Y896511D1*
X2088587Y937134D2*
X2093396Y939566D1*
X2100581Y946695D1*
Y896511D1*
X2482723Y946751D2*
Y896511D1*
X2499470D1*
X2506655Y898942D1*
X2511463Y903696D1*
X2513840Y908504D1*
X2516216Y915634D1*
Y927627D1*
X2513840Y934812D1*
X2511463Y939566D1*
X2506655Y944374D1*
X2499470Y946751D1*
X2482723D1*
X2531655Y937134D2*
X2536464Y939566D1*
X2543649Y946695D1*
Y896511D1*
X2561520Y934757D2*
Y937134D1*
X2563897Y941942D1*
X2566273Y944319D1*
X2571082Y946695D1*
X2580643D1*
X2585397Y944319D1*
X2587773Y941942D1*
X2590205Y937134D1*
Y932381D1*
X2587773Y927572D1*
X2583020Y920442D1*
X2559088Y896511D1*
X2592582D1*
X2976472Y946751D2*
Y896511D1*
X2993219D1*
X3000404Y898942D1*
X3005212Y903696D1*
X3007589Y908504D1*
X3009966Y915634D1*
Y927627D1*
X3007589Y934812D1*
X3005212Y939566D1*
X3000404Y944374D1*
X2993219Y946751D1*
X2976472D1*
X3025405Y937134D2*
X3030213Y939566D1*
X3037398Y946695D1*
Y896511D1*
X3057646Y946695D2*
X3083899D1*
X3069584Y927572D1*
X3076769D1*
X3081522Y925196D1*
X3083899Y922819D1*
X3086331Y915634D1*
Y910881D1*
X3083899Y903696D1*
X3079146Y898887D1*
X3071961Y896511D1*
X3064776D1*
X3057646Y898887D1*
X3055269Y901319D1*
X3052838Y906072D1*
X3469044Y946751D2*
Y896511D1*
X3485790D1*
X3492976Y898942D1*
X3497784Y903696D1*
X3500161Y908504D1*
X3502537Y915634D1*
Y927627D1*
X3500161Y934812D1*
X3497784Y939566D1*
X3492976Y944374D1*
X3485790Y946751D1*
X3469044D1*
X3517976Y937134D2*
X3522785Y939566D1*
X3529970Y946695D1*
Y896511D1*
X3569341D2*
Y946695D1*
X3545409Y913257D1*
X3581279D1*
X3951472Y946751D2*
Y896511D1*
X3968219D1*
X3975404Y898942D1*
X3980212Y903696D1*
X3982589Y908504D1*
X3984966Y915634D1*
Y927627D1*
X3982589Y934812D1*
X3980212Y939566D1*
X3975404Y944374D1*
X3968219Y946751D1*
X3951472D1*
X4000405Y937134D2*
X4005213Y939566D1*
X4012398Y946695D1*
Y896511D1*
X4056522Y946695D2*
X4032646D1*
X4030269Y925196D1*
X4032646Y927572D1*
X4039831Y930004D1*
X4046961D1*
X4054146Y927572D1*
X4058954Y922819D1*
X4061331Y915634D1*
Y910881D1*
X4058954Y903696D1*
X4054146Y898887D1*
X4046961Y896511D1*
X4039831D1*
X4032646Y898887D1*
X4030269Y901319D1*
X4027838Y906072D1*
X4440208Y946751D2*
Y896511D1*
X4456955D1*
X4464140Y898942D1*
X4468948Y903696D1*
X4471325Y908504D1*
X4473701Y915634D1*
Y927627D1*
X4471325Y934812D1*
X4468948Y939566D1*
X4464140Y944374D1*
X4456955Y946751D1*
X4440208D1*
X4489140Y937134D2*
X4493949Y939566D1*
X4501134Y946695D1*
Y896511D1*
X4545258Y939566D2*
X4542881Y944319D1*
X4535696Y946695D1*
X4530943D1*
X4523758Y944319D1*
X4518950Y937134D1*
X4516573Y925196D1*
Y913257D1*
X4518950Y903696D1*
X4523758Y898887D1*
X4530943Y896511D1*
X4533320D1*
X4540450Y898887D1*
X4545258Y903696D1*
X4547635Y910881D1*
Y913257D1*
X4545258Y920442D1*
X4540450Y925196D1*
X4533320Y927572D1*
X4530943D1*
X4523758Y925196D1*
X4518950Y920442D1*
X4516573Y913257D1*
X4761752Y2830412D2*
Y2780172D1*
X4778499D1*
X4785684Y2782604D1*
X4790492Y2787357D1*
X4792869Y2792166D1*
X4795245Y2799295D1*
Y2811289D1*
X4792869Y2818474D1*
X4790492Y2823227D1*
X4785684Y2828035D1*
X4778499Y2830412D1*
X4761752D1*
X4810684Y2820795D2*
X4815493Y2823227D1*
X4822678Y2830357D1*
Y2780172D1*
X4850055Y2830357D2*
X4842926Y2827980D1*
X4840494Y2823227D1*
Y2818419D1*
X4842926Y2813665D1*
X4847679Y2811234D1*
X4857240Y2808857D1*
X4864425Y2806480D1*
X4869179Y2801672D1*
X4871555Y2796919D1*
Y2789734D1*
X4869179Y2784980D1*
X4866802Y2782549D1*
X4859617Y2780172D1*
X4850055D1*
X4842926Y2782549D1*
X4840494Y2784980D1*
X4838117Y2789734D1*
Y2796919D1*
X4840494Y2801672D1*
X4845302Y2806480D1*
X4852432Y2808857D1*
X4861994Y2811234D1*
X4866802Y2813665D1*
X4869179Y2818419D1*
Y2823227D1*
X4866802Y2827980D1*
X4859617Y2830357D1*
X4850055D1*
X4920393Y2830412D2*
Y2780172D1*
X4937139D1*
X4944325Y2782604D1*
X4949133Y2787357D1*
X4951510Y2792166D1*
X4953886Y2799295D1*
Y2811289D1*
X4951510Y2818474D1*
X4949133Y2823227D1*
X4944325Y2828035D1*
X4937139Y2830412D1*
X4920393D1*
X4969325Y2820795D2*
X4974134Y2823227D1*
X4981319Y2830357D1*
Y2780172D1*
X5027875Y2813665D2*
X5025443Y2806480D1*
X5020690Y2801672D1*
X5013505Y2799295D1*
X5011128D1*
X5003943Y2801672D1*
X4999190Y2806480D1*
X4996758Y2813665D1*
Y2816042D1*
X4999190Y2823227D1*
X5003943Y2827980D1*
X5011128Y2830357D1*
X5013505D1*
X5020690Y2827980D1*
X5025443Y2823227D1*
X5027875Y2813665D1*
Y2801672D1*
X5025443Y2789734D1*
X5020690Y2782549D1*
X5013505Y2780172D1*
X5008752D1*
X5001567Y2782549D1*
X4999190Y2787357D1*
X4593494Y2830412D2*
Y2780172D1*
X4610241D1*
X4617426Y2782604D1*
X4622234Y2787357D1*
X4624611Y2792166D1*
X4626987Y2799295D1*
Y2811289D1*
X4624611Y2818474D1*
X4622234Y2823227D1*
X4617426Y2828035D1*
X4610241Y2830412D1*
X4593494D1*
X4644858Y2818419D2*
Y2820795D1*
X4647235Y2825604D1*
X4649612Y2827980D1*
X4654420Y2830357D1*
X4663982D1*
X4668735Y2827980D1*
X4671111Y2825604D1*
X4673543Y2820795D1*
Y2816042D1*
X4671111Y2811234D1*
X4666358Y2804104D1*
X4642427Y2780172D1*
X4675920D1*
X4705729Y2830357D2*
X4698544Y2827980D1*
X4693736Y2820795D1*
X4691359Y2808857D1*
Y2801672D1*
X4693736Y2789734D1*
X4698544Y2782549D1*
X4705729Y2780172D1*
X4710482D1*
X4717667Y2782549D1*
X4722421Y2789734D1*
X4724852Y2801672D1*
Y2808857D1*
X4722421Y2820795D1*
X4717667Y2827980D1*
X4710482Y2830357D1*
X4705729D1*
X4722421Y2820795D2*
X4693736Y2789734D1*
X5014620Y2522735D2*
Y2484488D1*
X5012244Y2477303D1*
X5009812Y2474927D1*
X5005059Y2472495D1*
X5000250D1*
X4995497Y2474927D1*
X4993120Y2477303D1*
X4990689Y2484488D1*
Y2489242D1*
X5032491Y2510741D2*
Y2513118D1*
X5034868Y2517926D1*
X5037245Y2520303D1*
X5042053Y2522680D1*
X5051615D1*
X5056368Y2520303D1*
X5058744Y2517926D1*
X5061176Y2513118D1*
Y2508365D1*
X5058744Y2503556D1*
X5053991Y2496427D1*
X5030060Y2472495D1*
X5063553D1*
X643311Y1628640D2*
Y1590394D1*
X640934Y1583209D1*
X638502Y1580832D1*
X633749Y1578400D1*
X628941D1*
X624187Y1580832D1*
X621811Y1583209D1*
X619379Y1590394D1*
Y1595147D1*
X663558Y1628585D2*
X689811D1*
X675497Y1609462D1*
X682682D1*
X687435Y1607085D1*
X689811Y1604709D1*
X692243Y1597524D1*
Y1592770D1*
X689811Y1585585D1*
X685058Y1580777D1*
X677873Y1578400D1*
X670688D1*
X663558Y1580777D1*
X661182Y1583209D1*
X658750Y1587962D1*
X914092Y3044936D2*
Y3095176D1*
X894969Y3044936D1*
X875845Y3095176D1*
Y3044936D1*
X943901Y3095176D2*
X939148Y3092855D1*
X934340Y3088046D1*
X931963Y3083238D1*
X929531Y3076053D1*
Y3064114D1*
X931963Y3056929D1*
X934340Y3052176D1*
X939148Y3047368D1*
X943901Y3044991D1*
X953463D1*
X958271Y3047368D1*
X963024Y3052176D1*
X965401Y3056929D1*
X967833Y3064114D1*
Y3076053D1*
X965401Y3083238D1*
X963024Y3088046D1*
X958271Y3092855D1*
X953463Y3095176D1*
X943901D1*
X951086Y3054553D2*
X965401Y3040183D1*
X1000019Y3095176D2*
Y3044936D1*
X983272Y3095176D2*
X1016765D1*
X1048951D2*
Y3044936D1*
X1032205Y3095176D2*
X1065698D1*
X703581D2*
Y3044936D1*
X670088Y3095176D1*
Y3044936D1*
X750082Y3095176D2*
X719020D1*
Y3044936D1*
X750082D1*
X719020Y3071244D2*
X738144D1*
X782268Y3095176D2*
Y3044936D1*
X765521Y3095176D2*
X799015D1*
X441214Y3068868D2*
X462770D1*
X469899Y3071244D1*
X472331Y3073676D1*
X474708Y3078429D1*
Y3085614D1*
X472331Y3090367D1*
X469899Y3092799D1*
X462770Y3095176D1*
X441214D1*
Y3044936D1*
X490147Y3095176D2*
X502141Y3044936D1*
X514079Y3095176D1*
X526017Y3044936D1*
X538010Y3095176D1*
X553450Y3071244D2*
X574950D1*
X582135Y3073676D1*
X584566Y3076053D1*
X586943Y3080806D1*
Y3085614D1*
X584566Y3090367D1*
X582135Y3092799D1*
X574950Y3095176D1*
X553450D1*
Y3044936D1*
X570196Y3071244D2*
X586943Y3044936D1*
X4992219Y1690430D2*
X4987466Y1688109D1*
X4982658Y1683301D1*
X4980281Y1678492D1*
X4977849Y1671307D1*
Y1659369D1*
X4980281Y1652184D1*
X4982658Y1647431D1*
X4987466Y1642622D1*
X4992219Y1640246D1*
X5001781D1*
X5006589Y1642622D1*
X5011343Y1647431D1*
X5013719Y1652184D1*
X5016151Y1659369D1*
Y1671307D1*
X5013719Y1678492D1*
X5011343Y1683301D1*
X5006589Y1688109D1*
X5001781Y1690430D1*
X4992219D1*
X4999404Y1649807D2*
X5013719Y1635437D1*
X5031590Y1680814D2*
X5036399Y1683245D1*
X5043584Y1690375D1*
Y1640190D1*
X4804304Y1690430D2*
X4799551Y1688109D1*
X4794742Y1683301D1*
X4792366Y1678492D1*
X4789934Y1671307D1*
Y1659369D1*
X4792366Y1652184D1*
X4794742Y1647431D1*
X4799551Y1642622D1*
X4804304Y1640246D1*
X4813866D1*
X4818674Y1642622D1*
X4823427Y1647431D1*
X4825804Y1652184D1*
X4828236Y1659369D1*
Y1671307D1*
X4825804Y1678492D1*
X4823427Y1683301D1*
X4818674Y1688109D1*
X4813866Y1690430D1*
X4804304D1*
X4811489Y1649807D2*
X4825804Y1635437D1*
X4846107Y1678437D2*
Y1680814D1*
X4848483Y1685622D1*
X4850860Y1687999D1*
X4855669Y1690375D1*
X4865230D1*
X4869983Y1687999D1*
X4872360Y1685622D1*
X4874792Y1680814D1*
Y1676060D1*
X4872360Y1671252D1*
X4867607Y1664122D1*
X4843675Y1640190D1*
X4877168D1*
X4881895Y1129625D2*
X4877141Y1127303D1*
X4872333Y1122495D1*
X4869956Y1117686D1*
X4867525Y1110501D1*
Y1098563D1*
X4869956Y1091378D1*
X4872333Y1086625D1*
X4877141Y1081817D1*
X4881895Y1079440D1*
X4891456D1*
X4896265Y1081817D1*
X4901018Y1086625D1*
X4903394Y1091378D1*
X4905826Y1098563D1*
Y1110501D1*
X4903394Y1117686D1*
X4901018Y1122495D1*
X4896265Y1127303D1*
X4891456Y1129625D1*
X4881895D1*
X4889080Y1089002D2*
X4903394Y1074631D1*
X4926074Y1129569D2*
X4952327D1*
X4938012Y1110446D1*
X4945197D1*
X4949950Y1108070D1*
X4952327Y1105693D1*
X4954759Y1098508D1*
Y1093755D1*
X4952327Y1086570D1*
X4947574Y1081761D1*
X4940389Y1079385D1*
X4933204D1*
X4926074Y1081761D1*
X4923697Y1084193D1*
X4921266Y1088946D1*
X4703541Y1129625D2*
X4698788Y1127303D1*
X4693979Y1122495D1*
X4691603Y1117686D1*
X4689171Y1110501D1*
Y1098563D1*
X4691603Y1091378D1*
X4693979Y1086625D1*
X4698788Y1081817D1*
X4703541Y1079440D1*
X4713103D1*
X4717911Y1081817D1*
X4722664Y1086625D1*
X4725041Y1091378D1*
X4727473Y1098563D1*
Y1110501D1*
X4725041Y1117686D1*
X4722664Y1122495D1*
X4717911Y1127303D1*
X4713103Y1129625D1*
X4703541D1*
X4710726Y1089002D2*
X4725041Y1074631D1*
X4766844Y1079385D2*
Y1129569D1*
X4742912Y1096131D1*
X4778782D1*
X1202681Y3301136D2*
Y3322635D1*
X1200249Y3329820D1*
X1197873Y3332252D1*
X1193120Y3334629D1*
X1188311D1*
X1183558Y3332252D1*
X1181126Y3329820D1*
X1178749Y3322635D1*
Y3301136D1*
X1228989D1*
X1202681Y3317882D2*
X1228989Y3334629D1*
X1188366Y3350068D2*
X1185934Y3354876D1*
X1178805Y3362062D1*
X1228989Y3362061D1*
X1702701Y3290386D2*
Y3311885D1*
X1700269Y3319070D1*
X1697892Y3321502D1*
X1693139Y3323879D1*
X1688331D1*
X1683578Y3321502D1*
X1681146Y3319070D1*
X1678769Y3311885D1*
Y3290386D1*
X1729009D1*
X1702701Y3307132D2*
X1729009Y3323879D1*
X1690763Y3341750D2*
X1688386D1*
X1683578Y3344127D1*
X1681201Y3346503D1*
X1678824Y3351312D1*
Y3360873D1*
X1681201Y3365626D1*
X1683578Y3368003D1*
X1688386Y3370435D1*
X1693139D1*
X1697948Y3368003D1*
X1705077Y3363250D1*
X1729009Y3339318D1*
Y3372811D1*
X2177701Y3290386D2*
Y3311885D1*
X2175269Y3319070D1*
X2172892Y3321502D1*
X2168139Y3323879D1*
X2163331D1*
X2158578Y3321502D1*
X2156146Y3319070D1*
X2153769Y3311885D1*
Y3290386D1*
X2204009D1*
X2177701Y3307132D2*
X2204009Y3323879D1*
X2153824Y3344127D2*
Y3370380D1*
X2172948Y3356065D1*
Y3363250D1*
X2175324Y3368003D1*
X2177701Y3370380D1*
X2184886Y3372811D1*
X2189639D1*
X2196824Y3370380D1*
X2201633Y3365626D1*
X2204009Y3358441D1*
Y3351256D1*
X2201633Y3344127D1*
X2199201Y3341750D1*
X2194447Y3339318D1*
X2671441Y3289197D2*
Y3310697D1*
X2669009Y3317882D1*
X2666633Y3320314D1*
X2661879Y3322691D1*
X2657071D1*
X2652318Y3320314D1*
X2649886Y3317882D1*
X2647509Y3310697D1*
Y3289197D1*
X2697749D1*
X2671441Y3305944D2*
X2697749Y3322691D1*
Y3362061D2*
X2647565Y3362062D1*
X2681003Y3338130D1*
Y3374000D1*
X3171430Y3290386D2*
Y3311885D1*
X3168999Y3319070D1*
X3166622Y3321502D1*
X3161869Y3323879D1*
X3157060D1*
X3152307Y3321502D1*
X3149875Y3319070D1*
X3147499Y3311885D1*
Y3290386D1*
X3197739D1*
X3171430Y3307132D2*
X3197739Y3323879D1*
X3147554Y3368003D2*
Y3344127D1*
X3169054Y3341750D1*
X3166677Y3344127D1*
X3164245Y3351312D1*
Y3358441D1*
X3166677Y3365626D1*
X3171430Y3370435D1*
X3178616Y3372811D1*
X3183369D1*
X3190554Y3370435D1*
X3195362Y3365626D1*
X3197739Y3358441D1*
Y3351312D1*
X3195362Y3344127D1*
X3192930Y3341750D1*
X3188177Y3339318D1*
X3646432Y3291602D2*
Y3313101D1*
X3644000Y3320286D1*
X3641623Y3322718D1*
X3636870Y3325095D1*
X3632062D1*
X3627309Y3322718D1*
X3624877Y3320286D1*
X3622500Y3313101D1*
Y3291602D1*
X3672740D1*
X3646432Y3308348D2*
X3672740Y3325095D1*
X3629685Y3369219D2*
X3624932Y3366842D1*
X3622555Y3359657D1*
Y3354904D1*
X3624932Y3347719D1*
X3632117Y3342911D1*
X3644055Y3340534D1*
X3655993D1*
X3665555Y3342911D1*
X3670363Y3347719D1*
X3672740Y3354904D1*
Y3357281D1*
X3670363Y3364410D1*
X3665555Y3369219D1*
X3658370Y3371595D1*
X3655993D1*
X3648808Y3369219D1*
X3644055Y3364410D1*
X3641679Y3357281D1*
Y3354904D1*
X3644055Y3347719D1*
X3648808Y3342911D1*
X3655993Y3340534D1*
X4127681Y3290386D2*
Y3311885D1*
X4125249Y3319070D1*
X4122873Y3321502D1*
X4118120Y3323879D1*
X4113311D1*
X4108558Y3321502D1*
X4106126Y3319070D1*
X4103749Y3311885D1*
Y3290386D1*
X4153989D1*
X4127681Y3307132D2*
X4153989Y3323879D1*
Y3348880D2*
X4103805Y3372811D1*
Y3339318D1*
X4640181Y3290413D2*
Y3311913D1*
X4637749Y3319098D1*
X4635373Y3321530D1*
X4630620Y3323907D1*
X4625811D1*
X4621058Y3321530D1*
X4618626Y3319098D1*
X4616249Y3311913D1*
Y3290413D1*
X4666489D1*
X4640181Y3307160D2*
X4666489Y3323906D1*
X4616305Y3351284D2*
X4618681Y3344154D1*
X4623434Y3341722D1*
X4628243D1*
X4632996Y3344154D1*
X4635428Y3348907D1*
X4637805Y3358469D1*
X4640181Y3365654D1*
X4644990Y3370407D1*
X4649743Y3372784D1*
X4656928D1*
X4661681Y3370407D1*
X4664113Y3368031D1*
X4666489Y3360846D1*
Y3351284D1*
X4664113Y3344154D1*
X4661681Y3341722D1*
X4656928Y3339346D1*
X4649743D1*
X4644990Y3341722D1*
X4640181Y3346531D1*
X4637805Y3353661D1*
X4635428Y3363222D1*
X4632996Y3368031D1*
X4628243Y3370407D1*
X4623434D1*
X4618681Y3368031D1*
X4616305Y3360846D1*
Y3351284D1*
X858932Y835128D2*
Y856628D1*
X856500Y863813D1*
X854123Y866244D1*
X849370Y868621D1*
X844562D1*
X839809Y866244D1*
X837377Y863813D1*
X835000Y856628D1*
Y835128D1*
X885240D1*
X858932Y851874D2*
X885240Y868621D1*
X851747Y915177D2*
X858932Y912745D1*
X863740Y907992D1*
X866117Y900807D1*
Y898430D1*
X863740Y891245D1*
X858932Y886492D1*
X851747Y884060D1*
X849370D1*
X842185Y886492D1*
X837432Y891245D1*
X835055Y898430D1*
Y900807D1*
X837432Y907992D1*
X842185Y912745D1*
X851747Y915177D1*
X863740D1*
X875678Y912745D1*
X882863Y907992D1*
X885240Y900807D1*
Y896054D1*
X882863Y888869D1*
X878055Y886492D1*
X1340181Y820223D2*
Y841723D1*
X1337749Y848908D1*
X1335373Y851340D1*
X1330620Y853716D1*
X1325811D1*
X1321058Y851340D1*
X1318626Y848908D1*
X1316249Y841723D1*
Y820223D1*
X1366489D1*
X1340181Y836970D2*
X1366489Y853716D1*
X1325866Y869156D2*
X1323434Y873964D1*
X1316305Y881149D1*
X1366489D1*
X1316305Y910958D2*
X1318681Y903773D1*
X1325866Y898965D1*
X1337805Y896588D1*
X1344990D1*
X1356928Y898965D1*
X1364113Y903773D1*
X1366489Y910958D1*
Y915711D1*
X1364113Y922897D1*
X1356928Y927650D1*
X1344990Y930082D1*
X1337805D1*
X1325866Y927650D1*
X1318681Y922897D1*
X1316305Y915712D1*
Y910958D1*
X1325866Y927650D2*
X1356928Y898965D1*
X1833932Y837222D2*
Y858722D1*
X1831500Y865907D1*
X1829123Y868339D1*
X1824370Y870716D1*
X1819562D1*
X1814809Y868339D1*
X1812377Y865907D1*
X1810000Y858722D1*
Y837222D1*
X1860240D1*
X1833932Y853969D2*
X1860240Y870716D1*
X1819617Y886155D2*
X1817185Y890963D1*
X1810055Y898148D1*
X1860240D1*
X1819617Y913588D2*
X1817185Y918396D1*
X1810055Y925581D1*
X1860240D1*
X2321430Y826472D2*
Y847972D1*
X2318999Y855157D1*
X2316622Y857589D1*
X2311869Y859966D1*
X2307060D1*
X2302307Y857589D1*
X2299875Y855157D1*
X2297499Y847972D1*
Y826472D1*
X2347739D1*
X2321430Y843219D2*
X2347739Y859966D1*
X2307116Y875405D2*
X2304684Y880213D1*
X2297554Y887398D1*
X2347739D1*
X2309492Y905269D2*
X2307116D1*
X2302307Y907646D1*
X2299931Y910023D1*
X2297554Y914831D1*
Y924393D1*
X2299931Y929146D1*
X2302307Y931522D1*
X2307116Y933954D1*
X2311869D1*
X2316677Y931522D1*
X2323807Y926769D1*
X2347739Y902838D1*
Y936331D1*
X2808932Y826472D2*
Y847972D1*
X2806500Y855157D1*
X2804123Y857589D1*
X2799370Y859966D1*
X2794562D1*
X2789809Y857589D1*
X2787377Y855157D1*
X2785000Y847972D1*
Y826472D1*
X2835240D1*
X2808932Y843219D2*
X2835240Y859966D1*
X2794617Y875405D2*
X2792185Y880213D1*
X2785055Y887398D1*
X2835240D1*
X2785055Y907646D2*
Y933899D1*
X2804179Y919584D1*
Y926769D1*
X2806555Y931522D1*
X2808932Y933899D1*
X2816117Y936331D1*
X2820870D1*
X2828055Y933899D1*
X2832863Y929146D1*
X2835240Y921961D1*
Y914776D1*
X2832863Y907646D1*
X2830432Y905269D1*
X2825678Y902838D1*
X3283932Y819035D2*
Y840535D1*
X3281500Y847720D1*
X3279123Y850151D1*
X3274370Y852528D1*
X3269562D1*
X3264809Y850151D1*
X3262377Y847720D1*
X3260000Y840535D1*
Y819035D1*
X3310240D1*
X3283932Y835781D2*
X3310240Y852528D1*
X3269617Y867967D2*
X3267185Y872776D1*
X3260055Y879961D1*
X3310240D1*
Y919332D2*
X3260055D1*
X3293493Y895400D1*
Y931270D1*
X3790181Y826472D2*
Y847972D1*
X3787749Y855157D1*
X3785373Y857589D1*
X3780620Y859966D1*
X3775811D1*
X3771058Y857589D1*
X3768626Y855157D1*
X3766249Y847972D1*
Y826472D1*
X3816489D1*
X3790181Y843219D2*
X3816489Y859966D1*
X3775866Y875405D2*
X3773434Y880213D1*
X3766305Y887398D1*
X3816489D1*
X3766305Y931522D2*
Y907646D1*
X3787805Y905269D1*
X3785428Y907646D1*
X3782996Y914831D1*
Y921961D1*
X3785428Y929146D1*
X3790181Y933954D1*
X3797366Y936331D1*
X3802119D1*
X3809304Y933954D1*
X3814113Y929146D1*
X3816489Y921961D1*
Y914831D1*
X3814113Y907646D1*
X3811681Y905269D1*
X3806928Y902838D1*
X4265181Y827688D2*
Y849188D1*
X4262749Y856373D1*
X4260373Y858805D1*
X4255620Y861182D1*
X4250811D1*
X4246058Y858805D1*
X4243626Y856373D1*
X4241249Y849188D1*
Y827688D1*
X4291489D1*
X4265181Y844435D2*
X4291489Y861182D1*
X4250866Y876621D2*
X4248434Y881429D1*
X4241305Y888614D1*
X4291489D1*
X4248434Y932738D2*
X4243681Y930362D1*
X4241305Y923177D1*
Y918424D1*
X4243681Y911239D1*
X4250866Y906430D1*
X4262805Y904054D1*
X4274743D1*
X4284304Y906430D1*
X4289113Y911239D1*
X4291489Y918424D1*
Y920800D1*
X4289113Y927930D1*
X4284304Y932738D1*
X4277119Y935115D1*
X4274743D1*
X4267558Y932738D1*
X4262805Y927930D1*
X4260428Y920800D1*
Y918424D1*
X4262805Y911239D1*
X4267558Y906430D1*
X4274743Y904054D1*
X459149Y2913764D2*
X480649D1*
X487834Y2916196D1*
X490266Y2918572D1*
X492643Y2923325D1*
Y2928134D1*
X490266Y2932887D1*
X487834Y2935319D1*
X480649Y2937696D1*
X459149D1*
Y2887456D1*
X475896Y2913764D2*
X492643Y2887456D1*
X508082Y2928079D2*
X512890Y2930510D1*
X520075Y2937640D1*
Y2887456D1*
X545076D2*
X569008Y2937640D1*
X535515D1*
X483616Y2778842D2*
X488424Y2781274D1*
X495609Y2788403D1*
Y2738219D1*
X511048Y2788459D2*
Y2738219D1*
X544542Y2788459D2*
X511048Y2754965D1*
X522987Y2766959D2*
X544542Y2738219D1*
X4947366Y1772032D2*
X4968866D1*
X4976051Y1774463D1*
X4978483Y1776840D1*
X4980859Y1781593D1*
Y1786402D1*
X4978483Y1791155D1*
X4976051Y1793587D1*
X4968866Y1795963D1*
X4947366D1*
Y1745723D1*
X4964113Y1772032D2*
X4980859Y1745723D1*
X4996299Y1786346D2*
X5001107Y1788778D1*
X5008292Y1795908D1*
Y1745723D1*
X5035670Y1795908D2*
X5028540Y1793531D1*
X5026108Y1788778D1*
Y1783970D1*
X5028540Y1779217D1*
X5033293Y1776785D1*
X5042855Y1774408D1*
X5050040Y1772032D1*
X5054793Y1767223D1*
X5057169Y1762470D1*
Y1755285D1*
X5054793Y1750532D1*
X5052416Y1748100D1*
X5045231Y1745723D1*
X5035670D1*
X5028540Y1748100D1*
X5026108Y1750532D1*
X5023731Y1755285D1*
Y1762470D1*
X5026108Y1767223D1*
X5030916Y1772032D1*
X5038046Y1774408D1*
X5047608Y1776785D1*
X5052416Y1779217D1*
X5054793Y1783970D1*
Y1788778D1*
X5052416Y1793531D1*
X5045231Y1795908D1*
X5035670D1*
X4921480Y1306795D2*
Y1328294D1*
X4919048Y1335479D1*
X4916672Y1337911D1*
X4911919Y1340288D1*
X4907110D1*
X4902357Y1337911D1*
X4899925Y1335479D1*
X4897549Y1328294D1*
Y1306795D1*
X4947789D1*
X4921480Y1323541D2*
X4947789Y1340288D1*
X4907166Y1355727D2*
X4904734Y1360536D1*
X4897604Y1367721D1*
X4947789Y1367720D1*
X4914295Y1414276D2*
X4921480Y1411845D1*
X4926289Y1407091D1*
X4928665Y1399906D1*
Y1397530D1*
X4926289Y1390345D1*
X4921480Y1385592D1*
X4914295Y1383160D1*
X4911919D1*
X4904734Y1385592D1*
X4899981Y1390345D1*
X4897604Y1397530D1*
Y1399906D1*
X4899980Y1407091D1*
X4904734Y1411845D1*
X4914295Y1414276D1*
X4926289D1*
X4938227Y1411845D1*
X4945412Y1407091D1*
X4947789Y1399906D1*
Y1395153D1*
X4945412Y1387968D1*
X4940604Y1385592D1*
X4755486Y1772032D2*
X4776986D1*
X4784171Y1774463D1*
X4786603Y1776840D1*
X4788979Y1781593D1*
Y1786402D1*
X4786603Y1791155D1*
X4784171Y1793587D1*
X4776986Y1795963D1*
X4755486D1*
Y1745723D1*
X4772233Y1772032D2*
X4788979Y1745723D1*
X4806851Y1783970D2*
Y1786346D1*
X4809227Y1791155D1*
X4811604Y1793531D1*
X4816412Y1795908D1*
X4825974D1*
X4830727Y1793531D1*
X4833104Y1791155D1*
X4835535Y1786346D1*
Y1781593D1*
X4833104Y1776785D1*
X4828350Y1769655D1*
X4804419Y1745723D1*
X4837912D1*
X4867721Y1795908D2*
X4860536Y1793531D1*
X4855728Y1786346D1*
X4853351Y1774408D1*
Y1767223D1*
X4855728Y1755285D1*
X4860536Y1748100D1*
X4867721Y1745723D1*
X4872475D1*
X4879660Y1748100D1*
X4884413Y1755285D1*
X4886845Y1767223D1*
Y1774408D1*
X4884413Y1786346D1*
X4879660Y1793531D1*
X4872475Y1795908D1*
X4867721D1*
X4884413Y1786346D2*
X4855728Y1755285D1*
X4744315Y1301669D2*
Y1323169D1*
X4741883Y1330354D1*
X4739507Y1332786D1*
X4734753Y1335163D1*
X4729945D1*
X4725192Y1332786D1*
X4722760Y1330354D1*
X4720383Y1323169D1*
Y1301669D1*
X4770623D1*
X4744315Y1318416D2*
X4770623Y1335162D1*
X4732377Y1353034D2*
X4730000D1*
X4725192Y1355410D1*
X4722815Y1357787D1*
X4720439Y1362595D1*
Y1372157D1*
X4722815Y1376910D1*
X4725192Y1379287D1*
X4730000Y1381718D1*
X4734753D1*
X4739562Y1379287D1*
X4746692Y1374533D1*
X4770623Y1350602D1*
Y1384095D1*
X4730000Y1399534D2*
X4727568Y1404343D1*
X4720439Y1411528D1*
X4770623D1*
X4980535Y1098006D2*
Y1119506D1*
X4978104Y1126691D1*
X4975727Y1129123D1*
X4970974Y1131499D1*
X4966165D1*
X4961412Y1129123D1*
X4958980Y1126691D1*
X4956604Y1119506D1*
Y1098006D1*
X5006844D1*
X4980535Y1114753D2*
X5006844Y1131499D1*
X4968597Y1149370D2*
X4966221D1*
X4961412Y1151747D1*
X4959036Y1154123D1*
X4956659Y1158932D1*
Y1168494D1*
X4959036Y1173247D1*
X4961412Y1175623D1*
X4966221Y1178055D1*
X4970974D1*
X4975782Y1175623D1*
X4982912Y1170870D1*
X5006844Y1146938D1*
Y1180432D1*
X4968597Y1198303D2*
X4966221D1*
X4961412Y1200679D1*
X4959036Y1203056D1*
X4956659Y1207864D1*
Y1217426D1*
X4959036Y1222179D1*
X4961412Y1224556D1*
X4966221Y1226988D1*
X4970974D1*
X4975782Y1224556D1*
X4982912Y1219803D1*
X5006844Y1195871D1*
Y1229364D1*
X4882110Y1098006D2*
Y1119506D1*
X4879678Y1126691D1*
X4877302Y1129123D1*
X4872549Y1131499D1*
X4867740D1*
X4862987Y1129123D1*
X4860555Y1126691D1*
X4858179Y1119506D1*
X4858178Y1098006D1*
X4908419D1*
X4882110Y1114753D2*
X4908419Y1131499D1*
X4870172Y1149370D2*
X4867795D1*
X4862987Y1151747D1*
X4860610Y1154123D1*
X4858234Y1158932D1*
Y1168494D1*
X4860610Y1173247D1*
X4862987Y1175623D1*
X4867795Y1178055D1*
X4872549D1*
X4877357Y1175623D1*
X4884487Y1170870D1*
X4908419Y1146938D1*
Y1180432D1*
X4858234Y1200679D2*
Y1226932D1*
X4877357Y1212618D1*
Y1219803D1*
X4879734Y1224556D1*
X4882110Y1226932D1*
X4889295Y1229364D1*
X4894048D1*
X4901233Y1226932D1*
X4906042Y1222179D1*
X4908419Y1214994D1*
Y1207809D1*
X4906042Y1200679D1*
X4903610Y1198303D1*
X4898857Y1195871D1*
X4764000Y1096818D2*
Y1118317D1*
X4761568Y1125502D1*
X4759192Y1127934D1*
X4754438Y1130311D1*
X4749630D1*
X4744877Y1127934D1*
X4742445Y1125502D1*
X4740068Y1118317D1*
Y1096818D1*
X4790308D1*
X4764000Y1113564D2*
X4790308Y1130311D1*
X4752062Y1148182D2*
X4749685D1*
X4744877Y1150559D1*
X4742500Y1152935D1*
X4740124Y1157744D1*
Y1167305D1*
X4742500Y1172058D1*
X4744877Y1174435D1*
X4749685Y1176867D1*
X4754438D1*
X4759247Y1174435D1*
X4766377Y1169682D1*
X4790308Y1145750D1*
Y1179243D1*
Y1218614D2*
X4740124D1*
X4773562Y1194683D1*
Y1230553D1*
X4665575Y1098006D2*
Y1119506D1*
X4663143Y1126691D1*
X4660766Y1129123D1*
X4656013Y1131499D1*
X4651205D1*
X4646452Y1129123D1*
X4644020Y1126691D1*
X4641643Y1119506D1*
Y1098006D1*
X4691883D1*
X4665575Y1114753D2*
X4691883Y1131499D1*
X4653637Y1149370D2*
X4651260D1*
X4646452Y1151747D1*
X4644075Y1154123D1*
X4641698Y1158932D1*
Y1168494D1*
X4644075Y1173247D1*
X4646452Y1175623D1*
X4651260Y1178055D1*
X4656013D1*
X4660822Y1175623D1*
X4667951Y1170870D1*
X4691883Y1146938D1*
Y1180432D1*
X4641698Y1224556D2*
Y1200679D1*
X4663198Y1198303D1*
X4660822Y1200679D1*
X4658390Y1207864D1*
Y1214994D1*
X4660822Y1222179D1*
X4665575Y1226988D1*
X4672760Y1229364D1*
X4677513D1*
X4684698Y1226988D1*
X4689507Y1222179D1*
X4691883Y1214994D1*
Y1207864D1*
X4689507Y1200679D1*
X4687075Y1198303D1*
X4682321Y1195871D1*
X670088Y2913764D2*
X691588D1*
X698773Y2916196D1*
X701205Y2918572D1*
X703581Y2923325D1*
Y2928134D1*
X701205Y2932887D1*
X698773Y2935319D1*
X691588Y2937696D1*
X670088D1*
Y2887456D1*
X686835Y2913764D2*
X703581Y2887456D1*
X721452Y2925702D2*
Y2928079D1*
X723829Y2932887D1*
X726205Y2935264D1*
X731014Y2937640D1*
X740576D1*
X745329Y2935264D1*
X747705Y2932887D1*
X750137Y2928079D1*
Y2923325D1*
X747705Y2918517D1*
X742952Y2911387D1*
X719020Y2887456D1*
X752514D1*
X796638Y2930510D2*
X794261Y2935264D1*
X787076Y2937640D1*
X782323D1*
X775138Y2935264D1*
X770330Y2928079D1*
X767953Y2916140D1*
Y2904202D1*
X770330Y2894641D1*
X775138Y2889832D1*
X782323Y2887456D1*
X784700D1*
X791829Y2889832D1*
X796638Y2894641D1*
X799015Y2901826D1*
Y2904202D1*
X796638Y2911387D1*
X791829Y2916140D1*
X784700Y2918517D1*
X782323D1*
X775138Y2916140D1*
X770330Y2911387D1*
X767953Y2904202D1*
X704088Y2778842D2*
X708897Y2781274D1*
X716082Y2788403D1*
Y2738219D1*
X731521Y2788459D2*
Y2738219D1*
X765014Y2788459D2*
X731521Y2754965D1*
X743459Y2766959D2*
X765014Y2738219D1*
X905092Y2913764D2*
X926592D1*
X933777Y2916196D1*
X936209Y2918572D1*
X938586Y2923325D1*
Y2928134D1*
X936209Y2932887D1*
X933777Y2935319D1*
X926592Y2937696D1*
X905092D1*
Y2887456D1*
X921839Y2913764D2*
X938586Y2887456D1*
X956457Y2925702D2*
Y2928079D1*
X958833Y2932887D1*
X961210Y2935264D1*
X966018Y2937640D1*
X975580D1*
X980333Y2935264D1*
X982710Y2932887D1*
X985142Y2928079D1*
Y2923325D1*
X982710Y2918517D1*
X977957Y2911387D1*
X954025Y2887456D1*
X987518D1*
X1012519D2*
X1036451Y2937640D1*
X1002958D1*
X940309Y2778842D2*
X945117Y2781274D1*
X952302Y2788403D1*
Y2738219D1*
X967741Y2788459D2*
Y2738219D1*
X1001235Y2788459D2*
X967741Y2754965D1*
X979680Y2766959D2*
X1001235Y2738219D1*
X1041376Y3172819D2*
X1062876D1*
X1070061Y3175251D1*
X1072493Y3177627D1*
X1074870Y3182381D1*
Y3187189D1*
X1072493Y3191942D1*
X1070061Y3194374D1*
X1062876Y3196751D1*
X1041376D1*
Y3146511D1*
X1058123Y3172819D2*
X1074870Y3146511D1*
X1090309Y3196751D2*
Y3146511D1*
X1118994D1*
X1134433Y3187134D2*
X1139242Y3189566D1*
X1146427Y3196695D1*
Y3146511D1*
X1505627Y3172819D2*
X1527126D1*
X1534311Y3175251D1*
X1536743Y3177627D1*
X1539120Y3182381D1*
Y3187189D1*
X1536743Y3191942D1*
X1534311Y3194374D1*
X1527126Y3196751D1*
X1505627D1*
Y3146511D1*
X1522373Y3172819D2*
X1539120Y3146511D1*
X1554559Y3196751D2*
Y3146511D1*
X1583244D1*
X1601115Y3184757D2*
Y3187134D1*
X1603492Y3191942D1*
X1605868Y3194319D1*
X1610677Y3196695D1*
X1620238D1*
X1624992Y3194319D1*
X1627368Y3191942D1*
X1629800Y3187134D1*
Y3182381D1*
X1627368Y3177572D1*
X1622615Y3170442D1*
X1598683Y3146511D1*
X1632177D1*
X1993323Y3172819D2*
X2014823D1*
X2022008Y3175251D1*
X2024440Y3177627D1*
X2026817Y3182381D1*
Y3187189D1*
X2024440Y3191942D1*
X2022008Y3194374D1*
X2014823Y3196751D1*
X1993323D1*
Y3146511D1*
X2010070Y3172819D2*
X2026817Y3146511D1*
X2042256Y3196751D2*
Y3146511D1*
X2070941D1*
X2091189Y3196695D2*
X2117442D1*
X2103127Y3177572D1*
X2110312D1*
X2115065Y3175196D1*
X2117442Y3172819D1*
X2119873Y3165634D1*
Y3160881D1*
X2117442Y3153696D1*
X2112688Y3148887D1*
X2105503Y3146511D1*
X2098318D1*
X2091189Y3148887D1*
X2088812Y3151319D1*
X2086380Y3156072D1*
X2479438Y3172819D2*
X2500938D1*
X2508123Y3175251D1*
X2510555Y3177627D1*
X2512932Y3182381D1*
Y3187189D1*
X2510555Y3191942D1*
X2508123Y3194374D1*
X2500938Y3196751D1*
X2479438D1*
Y3146511D1*
X2496185Y3172819D2*
X2512932Y3146511D1*
X2528371Y3196751D2*
Y3146511D1*
X2557056D1*
X2596427D2*
Y3196695D1*
X2572495Y3163257D1*
X2608365D1*
X2974377Y3172819D2*
X2995877D1*
X3003062Y3175251D1*
X3005494Y3177627D1*
X3007871Y3182381D1*
Y3187189D1*
X3005494Y3191942D1*
X3003062Y3194374D1*
X2995877Y3196751D1*
X2974377D1*
Y3146511D1*
X2991124Y3172819D2*
X3007871Y3146511D1*
X3023310Y3196751D2*
Y3146511D1*
X3051995D1*
X3096119Y3196695D2*
X3072242D1*
X3069866Y3175196D1*
X3072242Y3177572D1*
X3079427Y3180004D1*
X3086557D1*
X3093742Y3177572D1*
X3098551Y3172819D1*
X3100927Y3165634D1*
Y3160881D1*
X3098551Y3153696D1*
X3093742Y3148887D1*
X3086557Y3146511D1*
X3079427D1*
X3072242Y3148887D1*
X3069866Y3151319D1*
X3067434Y3156072D1*
X3456842Y3172819D2*
X3478342D1*
X3485527Y3175251D1*
X3487959Y3177627D1*
X3490336Y3182381D1*
Y3187189D1*
X3487959Y3191942D1*
X3485527Y3194374D1*
X3478342Y3196751D1*
X3456842D1*
Y3146511D1*
X3473589Y3172819D2*
X3490336Y3146511D1*
X3505775Y3196751D2*
Y3146511D1*
X3534460D1*
X3578584Y3189566D2*
X3576207Y3194319D1*
X3569022Y3196695D1*
X3564269D1*
X3557084Y3194319D1*
X3552276Y3187134D1*
X3549899Y3175196D1*
Y3163257D1*
X3552276Y3153696D1*
X3557084Y3148887D1*
X3564269Y3146511D1*
X3566646D1*
X3573776Y3148887D1*
X3578584Y3153696D1*
X3580961Y3160881D1*
Y3163257D1*
X3578584Y3170442D1*
X3573776Y3175196D1*
X3566646Y3177572D1*
X3564269D1*
X3557084Y3175196D1*
X3552276Y3170442D1*
X3549899Y3163257D1*
X3930627Y3172819D2*
X3952126D1*
X3959311Y3175251D1*
X3961743Y3177627D1*
X3964120Y3182381D1*
Y3187189D1*
X3961743Y3191942D1*
X3959311Y3194374D1*
X3952126Y3196751D1*
X3930627D1*
Y3146511D1*
X3947373Y3172819D2*
X3964120Y3146511D1*
X3979559Y3196751D2*
Y3146511D1*
X4008244D1*
X4033245D2*
X4057177Y3196695D1*
X4023683D1*
X4430654Y3172819D2*
X4452154D1*
X4459339Y3175251D1*
X4461771Y3177627D1*
X4464148Y3182381D1*
Y3187189D1*
X4461771Y3191942D1*
X4459339Y3194374D1*
X4452154Y3196751D1*
X4430654D1*
Y3146511D1*
X4447401Y3172819D2*
X4464148Y3146511D1*
X4479587Y3196751D2*
Y3146511D1*
X4508272D1*
X4535649Y3196695D2*
X4528519Y3194319D1*
X4526087Y3189566D1*
Y3184757D1*
X4528519Y3180004D1*
X4533273Y3177572D1*
X4542834Y3175196D1*
X4550019Y3172819D1*
X4554772Y3168010D1*
X4557149Y3163257D1*
Y3156072D1*
X4554772Y3151319D1*
X4552396Y3148887D1*
X4545211Y3146511D1*
X4535649D1*
X4528519Y3148887D1*
X4526087Y3151319D1*
X4523711Y3156072D1*
Y3163257D1*
X4526087Y3168010D1*
X4530896Y3172819D1*
X4538026Y3175196D1*
X4547587Y3177572D1*
X4552396Y3180004D1*
X4554772Y3184757D1*
Y3189566D1*
X4552396Y3194319D1*
X4545211Y3196695D1*
X4535649D1*
X1025565Y1085319D2*
X1047065D1*
X1054250Y1087751D1*
X1056682Y1090127D1*
X1059059Y1094881D1*
Y1099689D1*
X1056682Y1104442D1*
X1054250Y1106874D1*
X1047065Y1109251D1*
X1025565D1*
Y1059011D1*
X1042312Y1085319D2*
X1059059Y1059011D1*
X1074498Y1109251D2*
Y1059011D1*
X1103183D1*
X1149739Y1092504D2*
X1147307Y1085319D1*
X1142554Y1080510D1*
X1135369Y1078134D1*
X1132992D1*
X1125807Y1080510D1*
X1121054Y1085319D1*
X1118622Y1092504D1*
Y1094881D1*
X1121054Y1102066D1*
X1125807Y1106819D1*
X1132992Y1109195D1*
X1135369D1*
X1142554Y1106819D1*
X1147307Y1102066D1*
X1149739Y1092504D1*
Y1080510D1*
X1147307Y1068572D1*
X1142554Y1061387D1*
X1135369Y1059011D1*
X1130616D1*
X1123431Y1061387D1*
X1121054Y1066196D1*
X1485661Y1085319D2*
X1507161D1*
X1514346Y1087751D1*
X1516778Y1090127D1*
X1519154Y1094881D1*
Y1099689D1*
X1516778Y1104442D1*
X1514346Y1106874D1*
X1507161Y1109251D1*
X1485661D1*
Y1059011D1*
X1502408Y1085319D2*
X1519154Y1059011D1*
X1534593Y1109251D2*
Y1059011D1*
X1563278D1*
X1578718Y1099634D2*
X1583526Y1102066D1*
X1590711Y1109195D1*
Y1059011D1*
X1620520Y1109195D2*
X1613335Y1106819D1*
X1608527Y1099634D1*
X1606150Y1087696D1*
Y1080510D1*
X1608527Y1068572D1*
X1613335Y1061387D1*
X1620520Y1059011D1*
X1625274D1*
X1632459Y1061387D1*
X1637212Y1068572D1*
X1639644Y1080510D1*
Y1087696D1*
X1637212Y1099634D1*
X1632459Y1106819D1*
X1625274Y1109195D1*
X1620520D1*
X1637212Y1099634D2*
X1608527Y1068572D1*
X1990160Y1085319D2*
X2011660D1*
X2018845Y1087751D1*
X2021277Y1090127D1*
X2023653Y1094881D1*
Y1099689D1*
X2021277Y1104442D1*
X2018845Y1106874D1*
X2011660Y1109251D1*
X1990160D1*
Y1059011D1*
X2006907Y1085319D2*
X2023653Y1059011D1*
X2039093Y1109251D2*
Y1059011D1*
X2067778D1*
X2083217Y1099634D2*
X2088025Y1102066D1*
X2095210Y1109195D1*
Y1059011D1*
X2110650Y1099634D2*
X2115458Y1102066D1*
X2122643Y1109195D1*
Y1059011D1*
X2460641Y1085319D2*
X2482141D1*
X2489326Y1087751D1*
X2491758Y1090127D1*
X2494134Y1094881D1*
Y1099689D1*
X2491758Y1104442D1*
X2489326Y1106874D1*
X2482141Y1109251D1*
X2460641D1*
Y1059011D1*
X2477388Y1085319D2*
X2494134Y1059011D1*
X2509574Y1109251D2*
Y1059011D1*
X2538259D1*
X2553698Y1099634D2*
X2558506Y1102066D1*
X2565691Y1109195D1*
Y1059011D1*
X2583562Y1097257D2*
Y1099634D1*
X2585939Y1104442D1*
X2588316Y1106819D1*
X2593124Y1109195D1*
X2602686D1*
X2607439Y1106819D1*
X2609815Y1104442D1*
X2612247Y1099634D1*
Y1094881D1*
X2609815Y1090072D1*
X2605062Y1082942D1*
X2581131Y1059011D1*
X2614624D1*
X2954410Y1085319D2*
X2975910D1*
X2983095Y1087751D1*
X2985527Y1090127D1*
X2987904Y1094881D1*
Y1099689D1*
X2985527Y1104442D1*
X2983095Y1106874D1*
X2975910Y1109251D1*
X2954410D1*
Y1059011D1*
X2971157Y1085319D2*
X2987904Y1059011D1*
X3003343Y1109251D2*
Y1059011D1*
X3032028D1*
X3047467Y1099634D2*
X3052275Y1102066D1*
X3059460Y1109195D1*
Y1059011D1*
X3079708Y1109195D2*
X3105961D1*
X3091646Y1090072D1*
X3098831D1*
X3103585Y1087696D1*
X3105961Y1085319D1*
X3108393Y1078134D1*
Y1073381D1*
X3105961Y1066196D1*
X3101208Y1061387D1*
X3094023Y1059011D1*
X3086838D1*
X3079708Y1061387D1*
X3077331Y1063819D1*
X3074900Y1068572D1*
X3446973Y1085319D2*
X3468472D1*
X3475657Y1087751D1*
X3478089Y1090127D1*
X3480466Y1094881D1*
Y1099689D1*
X3478089Y1104442D1*
X3475657Y1106874D1*
X3468472Y1109251D1*
X3446973D1*
Y1059011D1*
X3463719Y1085319D2*
X3480466Y1059011D1*
X3495905Y1109251D2*
Y1059011D1*
X3524590D1*
X3540029Y1099634D2*
X3544838Y1102066D1*
X3552023Y1109195D1*
Y1059011D1*
X3591394D2*
Y1109195D1*
X3567462Y1075757D1*
X3603332D1*
X3929410Y1085319D2*
X3950910D1*
X3958095Y1087751D1*
X3960527Y1090127D1*
X3962904Y1094881D1*
Y1099689D1*
X3960527Y1104442D1*
X3958095Y1106874D1*
X3950910Y1109251D1*
X3929410D1*
Y1059011D1*
X3946157Y1085319D2*
X3962904Y1059011D1*
X3978343Y1109251D2*
Y1059011D1*
X4007028D1*
X4022467Y1099634D2*
X4027275Y1102066D1*
X4034460Y1109195D1*
Y1059011D1*
X4078585Y1109195D2*
X4054708D1*
X4052331Y1087696D1*
X4054708Y1090072D1*
X4061893Y1092504D1*
X4069023D1*
X4076208Y1090072D1*
X4081016Y1085319D1*
X4083393Y1078134D1*
Y1073381D1*
X4081016Y1066196D1*
X4076208Y1061387D1*
X4069023Y1059011D1*
X4061893D1*
X4054708Y1061387D1*
X4052331Y1063819D1*
X4049900Y1068572D1*
X4418126Y1085319D2*
X4439626D1*
X4446811Y1087751D1*
X4449243Y1090127D1*
X4451619Y1094881D1*
Y1099689D1*
X4449243Y1104442D1*
X4446811Y1106874D1*
X4439626Y1109251D1*
X4418126D1*
Y1059011D1*
X4434873Y1085319D2*
X4451619Y1059011D1*
X4467059Y1109251D2*
Y1059011D1*
X4495744D1*
X4511183Y1099634D2*
X4515991Y1102066D1*
X4523176Y1109195D1*
Y1059011D1*
X4567300Y1102066D2*
X4564924Y1106819D1*
X4557739Y1109195D1*
X4552986D1*
X4545801Y1106819D1*
X4540992Y1099634D1*
X4538616Y1087696D1*
Y1075757D1*
X4540992Y1066196D1*
X4545801Y1061387D1*
X4552986Y1059011D1*
X4555362D1*
X4562492Y1061387D1*
X4567300Y1066196D1*
X4569677Y1073381D1*
Y1075757D1*
X4567300Y1082942D1*
X4562492Y1087696D1*
X4555362Y1090072D1*
X4552986D1*
X4545801Y1087696D1*
X4540992Y1082942D1*
X4538616Y1075757D1*
X1039732Y3428970D2*
X1034978Y3433779D1*
X1027793Y3436155D1*
X1018232D1*
X1011047Y3433779D1*
X1006238Y3428970D1*
Y3424217D1*
X1008670Y3419409D1*
X1011047Y3417032D1*
X1015800Y3414656D1*
X1030170Y3409847D1*
X1034978Y3407471D1*
X1037355Y3405039D1*
X1039732Y3400286D1*
Y3393101D1*
X1034978Y3388347D1*
X1027793Y3385915D1*
X1018232D1*
X1011047Y3388347D1*
X1006238Y3393101D1*
X1088664Y3428970D2*
X1083911Y3433779D1*
X1076726Y3436155D1*
X1067164D1*
X1059979Y3433779D1*
X1055171Y3428970D1*
Y3424217D1*
X1057603Y3419409D1*
X1059979Y3417032D1*
X1064732Y3414656D1*
X1079103Y3409847D1*
X1083911Y3407471D1*
X1086288Y3405039D1*
X1088664Y3400286D1*
Y3393101D1*
X1083911Y3388347D1*
X1076726Y3385915D1*
X1067164D1*
X1059979Y3388347D1*
X1055171Y3393101D1*
X1104103Y3412224D2*
X1125603D1*
X1132788Y3414656D1*
X1135220Y3417032D1*
X1137597Y3421785D1*
Y3426594D1*
X1135220Y3431347D1*
X1132788Y3433779D1*
X1125603Y3436155D1*
X1104103D1*
Y3385915D1*
X1120850Y3412224D2*
X1137597Y3385915D1*
X1153036Y3426539D2*
X1157844Y3428970D1*
X1165029Y3436100D1*
Y3385915D1*
X1516482Y3428970D2*
X1511728Y3433779D1*
X1504543Y3436155D1*
X1494982D1*
X1487797Y3433779D1*
X1482988Y3428970D1*
Y3424217D1*
X1485420Y3419409D1*
X1487797Y3417032D1*
X1492550Y3414656D1*
X1506920Y3409847D1*
X1511728Y3407471D1*
X1514105Y3405039D1*
X1516482Y3400286D1*
Y3393101D1*
X1511728Y3388347D1*
X1504543Y3385915D1*
X1494982D1*
X1487797Y3388347D1*
X1482988Y3393101D1*
X1565414Y3428970D2*
X1560661Y3433779D1*
X1553476Y3436155D1*
X1543914D1*
X1536729Y3433779D1*
X1531921Y3428970D1*
Y3424217D1*
X1534353Y3419409D1*
X1536729Y3417032D1*
X1541483Y3414656D1*
X1555853Y3409847D1*
X1560661Y3407471D1*
X1563038Y3405039D1*
X1565414Y3400286D1*
Y3393101D1*
X1560661Y3388347D1*
X1553476Y3385915D1*
X1543914D1*
X1536729Y3388347D1*
X1531921Y3393101D1*
X1580853Y3412224D2*
X1602353D1*
X1609538Y3414656D1*
X1611970Y3417032D1*
X1614347Y3421785D1*
Y3426594D1*
X1611970Y3431347D1*
X1609538Y3433779D1*
X1602353Y3436155D1*
X1580853D1*
Y3385915D1*
X1597600Y3412224D2*
X1614347Y3385915D1*
X1632218Y3424162D2*
Y3426539D1*
X1634595Y3431347D1*
X1636971Y3433724D1*
X1641780Y3436100D1*
X1651341D1*
X1656094Y3433724D1*
X1658471Y3431347D1*
X1660903Y3426539D1*
Y3421785D1*
X1658471Y3416977D1*
X1653718Y3409847D1*
X1629786Y3385915D1*
X1663279D1*
X2006088Y3428990D2*
X2001335Y3433799D1*
X1994150Y3436175D1*
X1984588D1*
X1977403Y3433799D1*
X1972595Y3428990D1*
Y3424237D1*
X1975026Y3419428D1*
X1977403Y3417052D1*
X1982156Y3414675D1*
X1996526Y3409867D1*
X2001335Y3407490D1*
X2003711Y3405058D1*
X2006088Y3400305D1*
Y3393120D1*
X2001335Y3388367D1*
X1994150Y3385935D1*
X1984588D1*
X1977403Y3388367D1*
X1972595Y3393120D1*
X2055021Y3428990D2*
X2050267Y3433799D1*
X2043082Y3436175D1*
X2033521D1*
X2026336Y3433799D1*
X2021527Y3428990D1*
Y3424237D1*
X2023959Y3419428D1*
X2026336Y3417052D1*
X2031089Y3414675D1*
X2045459Y3409867D1*
X2050267Y3407490D1*
X2052644Y3405058D1*
X2055021Y3400305D1*
Y3393120D1*
X2050267Y3388367D1*
X2043082Y3385935D1*
X2033521D1*
X2026336Y3388367D1*
X2021527Y3393120D1*
X2070460Y3412243D2*
X2091960D1*
X2099145Y3414675D1*
X2101577Y3417052D1*
X2103953Y3421805D1*
Y3426614D1*
X2101577Y3431367D1*
X2099145Y3433799D1*
X2091960Y3436175D1*
X2070460D1*
Y3385935D1*
X2087206Y3412243D2*
X2103953Y3385935D1*
X2124201Y3436120D2*
X2150454D1*
X2136139Y3416997D1*
X2143324D1*
X2148077Y3414620D1*
X2150454Y3412243D1*
X2152886Y3405058D1*
Y3400305D1*
X2150454Y3393120D1*
X2145701Y3388312D1*
X2138516Y3385935D1*
X2131331D1*
X2124201Y3388312D1*
X2121824Y3390744D1*
X2119392Y3395497D1*
X2490293Y3428990D2*
X2485540Y3433799D1*
X2478355Y3436175D1*
X2468794D1*
X2461608Y3433799D1*
X2456800Y3428990D1*
Y3424237D1*
X2459232Y3419428D1*
X2461608Y3417052D1*
X2466362Y3414675D1*
X2480732Y3409867D1*
X2485540Y3407490D1*
X2487917Y3405058D1*
X2490293Y3400305D1*
Y3393120D1*
X2485540Y3388367D1*
X2478355Y3385935D1*
X2468794D1*
X2461608Y3388367D1*
X2456800Y3393120D1*
X2539226Y3428990D2*
X2534473Y3433799D1*
X2527288Y3436175D1*
X2517726D1*
X2510541Y3433799D1*
X2505733Y3428990D1*
Y3424237D1*
X2508164Y3419428D1*
X2510541Y3417052D1*
X2515294Y3414675D1*
X2529664Y3409867D1*
X2534473Y3407490D1*
X2536849Y3405058D1*
X2539226Y3400305D1*
Y3393120D1*
X2534473Y3388367D1*
X2527288Y3385935D1*
X2517726D1*
X2510541Y3388367D1*
X2505733Y3393120D1*
X2554665Y3412243D2*
X2576165D1*
X2583350Y3414675D1*
X2585782Y3417052D1*
X2588159Y3421805D1*
Y3426614D1*
X2585782Y3431367D1*
X2583350Y3433799D1*
X2576165Y3436175D1*
X2554665D1*
Y3385935D1*
X2571412Y3412243D2*
X2588159Y3385935D1*
X2627529D2*
Y3436120D1*
X2603598Y3402682D1*
X2639468D1*
X2978982Y3428990D2*
X2974228Y3433799D1*
X2967043Y3436175D1*
X2957482D1*
X2950297Y3433799D1*
X2945488Y3428990D1*
Y3424237D1*
X2947920Y3419428D1*
X2950297Y3417052D1*
X2955050Y3414675D1*
X2969420Y3409867D1*
X2974228Y3407490D1*
X2976605Y3405058D1*
X2978982Y3400305D1*
Y3393120D1*
X2974228Y3388367D1*
X2967043Y3385935D1*
X2957482D1*
X2950297Y3388367D1*
X2945488Y3393120D1*
X3027914Y3428990D2*
X3023161Y3433799D1*
X3015976Y3436175D1*
X3006414D1*
X2999229Y3433799D1*
X2994421Y3428990D1*
Y3424237D1*
X2996853Y3419428D1*
X2999229Y3417052D1*
X3003983Y3414675D1*
X3018353Y3409867D1*
X3023161Y3407490D1*
X3025538Y3405058D1*
X3027914Y3400305D1*
Y3393120D1*
X3023161Y3388367D1*
X3015976Y3385935D1*
X3006414D1*
X2999229Y3388367D1*
X2994421Y3393120D1*
X3043353Y3412243D2*
X3064853D1*
X3072038Y3414675D1*
X3074470Y3417052D1*
X3076847Y3421805D1*
Y3426614D1*
X3074470Y3431367D1*
X3072038Y3433799D1*
X3064853Y3436175D1*
X3043353D1*
Y3385935D1*
X3060100Y3412243D2*
X3076847Y3385935D1*
X3120971Y3436120D2*
X3097095D1*
X3094718Y3414620D1*
X3097095Y3416997D1*
X3104280Y3419428D1*
X3111409D1*
X3118594Y3416997D1*
X3123403Y3412243D1*
X3125779Y3405058D1*
Y3400305D1*
X3123403Y3393120D1*
X3118594Y3388312D1*
X3111409Y3385935D1*
X3104280D1*
X3097095Y3388312D1*
X3094718Y3390744D1*
X3092286Y3395497D1*
X3467698Y3428990D2*
X3462944Y3433799D1*
X3455759Y3436175D1*
X3446198D1*
X3439013Y3433799D1*
X3434204Y3428990D1*
Y3424237D1*
X3436636Y3419428D1*
X3439013Y3417052D1*
X3443766Y3414675D1*
X3458136Y3409867D1*
X3462944Y3407490D1*
X3465321Y3405058D1*
X3467698Y3400305D1*
Y3393120D1*
X3462944Y3388367D1*
X3455759Y3385935D1*
X3446198D1*
X3439013Y3388367D1*
X3434204Y3393120D1*
X3516630Y3428990D2*
X3511877Y3433799D1*
X3504692Y3436175D1*
X3495130D1*
X3487945Y3433799D1*
X3483137Y3428990D1*
Y3424237D1*
X3485569Y3419428D1*
X3487945Y3417052D1*
X3492698Y3414675D1*
X3507069Y3409867D1*
X3511877Y3407490D1*
X3514254Y3405058D1*
X3516630Y3400305D1*
Y3393120D1*
X3511877Y3388367D1*
X3504692Y3385935D1*
X3495130D1*
X3487945Y3388367D1*
X3483137Y3393120D1*
X3532069Y3412243D2*
X3553569D1*
X3560754Y3414675D1*
X3563186Y3417052D1*
X3565563Y3421805D1*
Y3426614D1*
X3563186Y3431367D1*
X3560754Y3433799D1*
X3553569Y3436175D1*
X3532069D1*
Y3385935D1*
X3548816Y3412243D2*
X3565563Y3385935D1*
X3609687Y3428990D2*
X3607310Y3433743D1*
X3600125Y3436120D1*
X3595372D1*
X3588187Y3433743D1*
X3583379Y3426558D1*
X3581002Y3414620D1*
Y3402682D1*
X3583379Y3393120D1*
X3588187Y3388312D1*
X3595372Y3385935D1*
X3597749D1*
X3604878Y3388312D1*
X3609687Y3393120D1*
X3612063Y3400305D1*
Y3402682D1*
X3609687Y3409867D1*
X3604878Y3414620D1*
X3597749Y3416997D1*
X3595372D1*
X3588187Y3414620D1*
X3583379Y3409867D1*
X3581002Y3402682D1*
X3953982Y3428990D2*
X3949228Y3433799D1*
X3942043Y3436175D1*
X3932482D1*
X3925297Y3433799D1*
X3920488Y3428990D1*
Y3424237D1*
X3922920Y3419428D1*
X3925297Y3417052D1*
X3930050Y3414675D1*
X3944420Y3409867D1*
X3949228Y3407490D1*
X3951605Y3405058D1*
X3953982Y3400305D1*
Y3393120D1*
X3949228Y3388367D1*
X3942043Y3385935D1*
X3932482D1*
X3925297Y3388367D1*
X3920488Y3393120D1*
X4002914Y3428990D2*
X3998161Y3433799D1*
X3990976Y3436175D1*
X3981414D1*
X3974229Y3433799D1*
X3969421Y3428990D1*
Y3424237D1*
X3971853Y3419428D1*
X3974229Y3417052D1*
X3978983Y3414675D1*
X3993353Y3409867D1*
X3998161Y3407490D1*
X4000538Y3405058D1*
X4002914Y3400305D1*
Y3393120D1*
X3998161Y3388367D1*
X3990976Y3385935D1*
X3981414D1*
X3974229Y3388367D1*
X3969421Y3393120D1*
X4018353Y3412243D2*
X4039853D1*
X4047038Y3414675D1*
X4049470Y3417052D1*
X4051847Y3421805D1*
Y3426614D1*
X4049470Y3431367D1*
X4047038Y3433799D1*
X4039853Y3436175D1*
X4018353D1*
Y3385935D1*
X4035100Y3412243D2*
X4051847Y3385935D1*
X4076848D2*
X4100779Y3436120D1*
X4067286D1*
X4441509Y3428990D2*
X4436756Y3433799D1*
X4429571Y3436175D1*
X4420009D1*
X4412824Y3433799D1*
X4408016Y3428990D1*
Y3424237D1*
X4410448Y3419428D1*
X4412824Y3417052D1*
X4417578Y3414675D1*
X4431948Y3409867D1*
X4436756Y3407490D1*
X4439133Y3405058D1*
X4441509Y3400305D1*
Y3393120D1*
X4436756Y3388367D1*
X4429571Y3385935D1*
X4420009D1*
X4412824Y3388367D1*
X4408016Y3393120D1*
X4490442Y3428990D2*
X4485689Y3433799D1*
X4478504Y3436175D1*
X4468942D1*
X4461757Y3433799D1*
X4456949Y3428990D1*
Y3424237D1*
X4459380Y3419428D1*
X4461757Y3417052D1*
X4466510Y3414675D1*
X4480880Y3409867D1*
X4485689Y3407490D1*
X4488065Y3405058D1*
X4490442Y3400305D1*
Y3393120D1*
X4485689Y3388367D1*
X4478504Y3385935D1*
X4468942D1*
X4461757Y3388367D1*
X4456949Y3393120D1*
X4505881Y3412243D2*
X4527381D1*
X4534566Y3414675D1*
X4536998Y3417052D1*
X4539374Y3421805D1*
Y3426614D1*
X4536998Y3431367D1*
X4534566Y3433799D1*
X4527381Y3436175D1*
X4505881D1*
Y3385935D1*
X4522628Y3412243D2*
X4539374Y3385935D1*
X4566752Y3436120D2*
X4559622Y3433743D1*
X4557190Y3428990D1*
Y3424182D1*
X4559622Y3419428D1*
X4564375Y3416997D1*
X4573937Y3414620D1*
X4581122Y3412243D1*
X4585875Y3407435D1*
X4588252Y3402682D1*
Y3395497D1*
X4585875Y3390744D1*
X4583499Y3388312D1*
X4576314Y3385935D1*
X4566752D1*
X4559622Y3388312D1*
X4557190Y3390744D1*
X4554814Y3395497D1*
Y3402682D1*
X4557190Y3407435D1*
X4561999Y3412243D1*
X4569129Y3414620D1*
X4578690Y3416997D1*
X4583499Y3419428D1*
X4585875Y3424182D1*
Y3428990D1*
X4583499Y3433743D1*
X4576314Y3436120D1*
X4566752D1*
X1030150Y787518D2*
X1025397Y792327D1*
X1018212Y794703D1*
X1008650D1*
X1001465Y792327D1*
X996657Y787518D1*
Y782765D1*
X999089Y777957D1*
X1001465Y775580D1*
X1006219Y773204D1*
X1020589Y768395D1*
X1025397Y766019D1*
X1027774Y763587D1*
X1030150Y758833D1*
Y751648D1*
X1025397Y746895D1*
X1018212Y744463D1*
X1008650D1*
X1001465Y746895D1*
X996657Y751648D1*
X1079083Y787518D2*
X1074330Y792327D1*
X1067145Y794703D1*
X1057583D1*
X1050398Y792327D1*
X1045590Y787518D1*
Y782765D1*
X1048021Y777957D1*
X1050398Y775580D1*
X1055151Y773204D1*
X1069521Y768395D1*
X1074330Y766019D1*
X1076706Y763587D1*
X1079083Y758833D1*
Y751648D1*
X1074330Y746895D1*
X1067145Y744463D1*
X1057583D1*
X1050398Y746895D1*
X1045590Y751648D1*
X1094522Y770772D2*
X1116022D1*
X1123207Y773204D1*
X1125639Y775580D1*
X1128015Y780333D1*
Y785142D1*
X1125639Y789895D1*
X1123207Y792327D1*
X1116022Y794703D1*
X1094522D1*
Y744463D1*
X1111269Y770772D2*
X1128015Y744463D1*
X1174571Y777957D2*
X1172140Y770772D1*
X1167386Y765963D1*
X1160201Y763587D1*
X1157825D1*
X1150640Y765963D1*
X1145887Y770772D1*
X1143455Y777957D1*
Y780333D1*
X1145887Y787518D1*
X1150640Y792272D1*
X1157825Y794648D1*
X1160201D1*
X1167386Y792272D1*
X1172140Y787518D1*
X1174571Y777957D1*
Y765963D1*
X1172140Y754025D1*
X1167386Y746840D1*
X1160201Y744463D1*
X1155448D1*
X1148263Y746840D1*
X1145887Y751648D1*
X1502765Y787518D2*
X1498012Y792327D1*
X1490827Y794703D1*
X1481265D1*
X1474080Y792327D1*
X1469272Y787518D1*
Y782765D1*
X1471704Y777957D1*
X1474080Y775580D1*
X1478834Y773204D1*
X1493204Y768395D1*
X1498012Y766019D1*
X1500389Y763587D1*
X1502765Y758833D1*
Y751648D1*
X1498012Y746895D1*
X1490827Y744463D1*
X1481265D1*
X1474080Y746895D1*
X1469272Y751648D1*
X1551698Y787518D2*
X1546945Y792327D1*
X1539760Y794703D1*
X1530198D1*
X1523013Y792327D1*
X1518205Y787518D1*
Y782765D1*
X1520636Y777957D1*
X1523013Y775580D1*
X1527766Y773204D1*
X1542136Y768395D1*
X1546945Y766019D1*
X1549321Y763587D1*
X1551698Y758833D1*
Y751648D1*
X1546945Y746895D1*
X1539760Y744463D1*
X1530198D1*
X1523013Y746895D1*
X1518205Y751648D1*
X1567137Y770772D2*
X1588637D1*
X1595822Y773204D1*
X1598254Y775580D1*
X1600630Y780333D1*
Y785142D1*
X1598254Y789895D1*
X1595822Y792327D1*
X1588637Y794703D1*
X1567137D1*
Y744463D1*
X1583884Y770772D2*
X1600630Y744463D1*
X1616070Y785086D2*
X1620878Y787518D1*
X1628063Y794648D1*
Y744463D1*
X1657873Y794648D2*
X1650687Y792272D1*
X1645879Y785086D1*
X1643502Y773148D1*
Y765963D1*
X1645879Y754025D1*
X1650687Y746840D1*
X1657873Y744463D1*
X1662626D1*
X1669811Y746840D1*
X1674564Y754025D1*
X1676996Y765963D1*
Y773148D1*
X1674564Y785086D1*
X1669811Y792272D1*
X1662626Y794648D1*
X1657873D1*
X1674564Y785086D2*
X1645879Y754025D1*
X2003122Y787518D2*
X1998368Y792327D1*
X1991183Y794703D1*
X1981622D1*
X1974437Y792327D1*
X1969628Y787518D1*
Y782765D1*
X1972060Y777957D1*
X1974437Y775580D1*
X1979190Y773204D1*
X1993560Y768395D1*
X1998368Y766019D1*
X2000745Y763587D1*
X2003122Y758833D1*
Y751648D1*
X1998368Y746895D1*
X1991183Y744463D1*
X1981622D1*
X1974437Y746895D1*
X1969628Y751648D1*
X2052054Y787518D2*
X2047301Y792327D1*
X2040116Y794703D1*
X2030554D1*
X2023369Y792327D1*
X2018561Y787518D1*
Y782765D1*
X2020993Y777957D1*
X2023369Y775580D1*
X2028122Y773204D1*
X2042492Y768395D1*
X2047301Y766019D1*
X2049678Y763587D1*
X2052054Y758833D1*
Y751648D1*
X2047301Y746895D1*
X2040116Y744463D1*
X2030554D1*
X2023369Y746895D1*
X2018561Y751648D1*
X2067493Y770772D2*
X2088993D1*
X2096178Y773204D1*
X2098610Y775580D1*
X2100987Y780333D1*
Y785142D1*
X2098610Y789895D1*
X2096178Y792327D1*
X2088993Y794703D1*
X2067493D1*
Y744463D1*
X2084240Y770772D2*
X2100987Y744463D1*
X2116426Y785086D2*
X2121234Y787518D1*
X2128419Y794648D1*
Y744463D1*
X2143859Y785086D2*
X2148667Y787518D1*
X2155852Y794648D1*
Y744463D1*
X2477765Y787518D2*
X2473012Y792327D1*
X2465827Y794703D1*
X2456265D1*
X2449080Y792327D1*
X2444272Y787518D1*
Y782765D1*
X2446704Y777957D1*
X2449080Y775580D1*
X2453834Y773204D1*
X2468204Y768395D1*
X2473012Y766019D1*
X2475389Y763587D1*
X2477765Y758833D1*
Y751648D1*
X2473012Y746895D1*
X2465827Y744463D1*
X2456265D1*
X2449080Y746895D1*
X2444272Y751648D1*
X2526698Y787518D2*
X2521945Y792327D1*
X2514760Y794703D1*
X2505198D1*
X2498013Y792327D1*
X2493205Y787518D1*
Y782765D1*
X2495636Y777957D1*
X2498013Y775580D1*
X2502766Y773204D1*
X2517136Y768395D1*
X2521945Y766019D1*
X2524321Y763587D1*
X2526698Y758833D1*
Y751648D1*
X2521945Y746895D1*
X2514760Y744463D1*
X2505198D1*
X2498013Y746895D1*
X2493205Y751648D1*
X2542137Y770772D2*
X2563637D1*
X2570822Y773204D1*
X2573254Y775580D1*
X2575630Y780333D1*
Y785142D1*
X2573254Y789895D1*
X2570822Y792327D1*
X2563637Y794703D1*
X2542137D1*
Y744463D1*
X2558884Y770772D2*
X2575630Y744463D1*
X2591070Y785086D2*
X2595878Y787518D1*
X2603063Y794648D1*
Y744463D1*
X2620934Y782710D2*
Y785086D1*
X2623311Y789895D1*
X2625687Y792272D1*
X2630496Y794648D1*
X2640058D1*
X2644811Y792272D1*
X2647187Y789895D1*
X2649619Y785086D1*
Y780333D1*
X2647187Y775525D1*
X2642434Y768395D1*
X2618502Y744463D1*
X2651996D1*
X2965246Y787518D2*
X2960492Y792327D1*
X2953307Y794703D1*
X2943746D1*
X2936561Y792327D1*
X2931752Y787518D1*
Y782765D1*
X2934184Y777957D1*
X2936561Y775580D1*
X2941314Y773204D1*
X2955684Y768395D1*
X2960492Y766019D1*
X2962869Y763587D1*
X2965246Y758833D1*
Y751648D1*
X2960492Y746895D1*
X2953307Y744463D1*
X2943746D1*
X2936561Y746895D1*
X2931752Y751648D1*
X3014178Y787518D2*
X3009425Y792327D1*
X3002240Y794703D1*
X2992678D1*
X2985493Y792327D1*
X2980685Y787518D1*
Y782765D1*
X2983117Y777957D1*
X2985493Y775580D1*
X2990246Y773204D1*
X3004617Y768395D1*
X3009425Y766019D1*
X3011802Y763587D1*
X3014178Y758833D1*
Y751648D1*
X3009425Y746895D1*
X3002240Y744463D1*
X2992678D1*
X2985493Y746895D1*
X2980685Y751648D1*
X3029617Y770772D2*
X3051117D1*
X3058302Y773204D1*
X3060734Y775580D1*
X3063111Y780333D1*
Y785142D1*
X3060734Y789895D1*
X3058302Y792327D1*
X3051117Y794703D1*
X3029617D1*
Y744463D1*
X3046364Y770772D2*
X3063111Y744463D1*
X3078550Y785086D2*
X3083358Y787518D1*
X3090544Y794648D1*
Y744463D1*
X3110791Y794648D2*
X3137044D1*
X3122729Y775525D1*
X3129914D1*
X3134668Y773148D1*
X3137044Y770772D1*
X3139476Y763587D1*
Y758833D1*
X3137044Y751648D1*
X3132291Y746840D1*
X3125106Y744463D1*
X3117921D1*
X3110791Y746840D1*
X3108415Y749272D1*
X3105983Y754025D1*
X3451577Y787518D2*
X3446824Y792327D1*
X3439639Y794703D1*
X3430077D1*
X3422892Y792327D1*
X3418084Y787518D1*
Y782765D1*
X3420516Y777957D1*
X3422892Y775580D1*
X3427645Y773204D1*
X3442015Y768395D1*
X3446824Y766019D1*
X3449200Y763587D1*
X3451577Y758833D1*
Y751648D1*
X3446824Y746895D1*
X3439639Y744463D1*
X3430077D1*
X3422892Y746895D1*
X3418084Y751648D1*
X3500510Y787518D2*
X3495756Y792327D1*
X3488571Y794703D1*
X3479010D1*
X3471825Y792327D1*
X3467016Y787518D1*
Y782765D1*
X3469448Y777957D1*
X3471825Y775580D1*
X3476578Y773204D1*
X3490948Y768395D1*
X3495756Y766019D1*
X3498133Y763587D1*
X3500510Y758833D1*
Y751648D1*
X3495756Y746895D1*
X3488571Y744463D1*
X3479010D1*
X3471825Y746895D1*
X3467016Y751648D1*
X3515949Y770772D2*
X3537449D1*
X3544634Y773204D1*
X3547066Y775580D1*
X3549442Y780333D1*
Y785142D1*
X3547066Y789895D1*
X3544634Y792327D1*
X3537449Y794703D1*
X3515949D1*
Y744463D1*
X3532695Y770772D2*
X3549442Y744463D1*
X3564881Y785086D2*
X3569690Y787518D1*
X3576875Y794648D1*
Y744463D1*
X3616246D2*
Y794648D1*
X3592314Y761210D1*
X3628184D1*
X3940246Y787518D2*
X3935492Y792327D1*
X3928307Y794703D1*
X3918746D1*
X3911561Y792327D1*
X3906752Y787518D1*
Y782765D1*
X3909184Y777957D1*
X3911561Y775580D1*
X3916314Y773204D1*
X3930684Y768395D1*
X3935492Y766019D1*
X3937869Y763587D1*
X3940246Y758833D1*
Y751648D1*
X3935492Y746895D1*
X3928307Y744463D1*
X3918746D1*
X3911561Y746895D1*
X3906752Y751648D1*
X3989178Y787518D2*
X3984425Y792327D1*
X3977240Y794703D1*
X3967678D1*
X3960493Y792327D1*
X3955685Y787518D1*
Y782765D1*
X3958117Y777957D1*
X3960493Y775580D1*
X3965246Y773204D1*
X3979617Y768395D1*
X3984425Y766019D1*
X3986802Y763587D1*
X3989178Y758833D1*
Y751648D1*
X3984425Y746895D1*
X3977240Y744463D1*
X3967678D1*
X3960493Y746895D1*
X3955685Y751648D1*
X4004617Y770772D2*
X4026117D1*
X4033302Y773204D1*
X4035734Y775580D1*
X4038111Y780333D1*
Y785142D1*
X4035734Y789895D1*
X4033302Y792327D1*
X4026117Y794703D1*
X4004617D1*
Y744463D1*
X4021364Y770772D2*
X4038111Y744463D1*
X4053550Y785086D2*
X4058358Y787518D1*
X4065544Y794648D1*
Y744463D1*
X4109668Y794648D2*
X4085791D1*
X4083415Y773148D1*
X4085791Y775525D1*
X4092976Y777957D1*
X4100106D1*
X4107291Y775525D1*
X4112099Y770772D1*
X4114476Y763587D1*
Y758833D1*
X4112099Y751648D1*
X4107291Y746840D1*
X4100106Y744463D1*
X4092976D1*
X4085791Y746840D1*
X4083415Y749272D1*
X4080983Y754025D1*
X4428981Y787518D2*
X4424228Y792327D1*
X4417043Y794703D1*
X4407481D1*
X4400296Y792327D1*
X4395488Y787518D1*
Y782765D1*
X4397920Y777957D1*
X4400296Y775580D1*
X4405050Y773204D1*
X4419420Y768395D1*
X4424228Y766019D1*
X4426605Y763587D1*
X4428981Y758833D1*
Y751648D1*
X4424228Y746895D1*
X4417043Y744463D1*
X4407481D1*
X4400296Y746895D1*
X4395488Y751648D1*
X4477914Y787518D2*
X4473161Y792327D1*
X4465976Y794703D1*
X4456414D1*
X4449229Y792327D1*
X4444420Y787518D1*
Y782765D1*
X4446852Y777957D1*
X4449229Y775580D1*
X4453982Y773204D1*
X4468352Y768395D1*
X4473161Y766019D1*
X4475537Y763587D1*
X4477914Y758833D1*
Y751648D1*
X4473161Y746895D1*
X4465976Y744463D1*
X4456414D1*
X4449229Y746895D1*
X4444420Y751648D1*
X4493353Y770772D2*
X4514853D1*
X4522038Y773204D1*
X4524470Y775580D1*
X4526846Y780333D1*
Y785142D1*
X4524470Y789895D1*
X4522038Y792327D1*
X4514853Y794703D1*
X4493353D1*
Y744463D1*
X4510100Y770772D2*
X4526846Y744463D1*
X4542286Y785086D2*
X4547094Y787518D1*
X4554279Y794648D1*
Y744463D1*
X4598403Y787518D2*
X4596027Y792272D1*
X4588842Y794648D1*
X4584088D1*
X4576903Y792272D1*
X4572095Y785086D1*
X4569718Y773148D1*
Y761210D1*
X4572095Y751648D1*
X4576903Y746840D1*
X4584088Y744463D1*
X4586465D1*
X4593595Y746840D1*
X4598403Y751648D1*
X4600780Y758833D1*
Y761210D1*
X4598403Y768395D1*
X4593595Y773148D1*
X4586465Y775525D1*
X4584088D1*
X4576903Y773148D1*
X4572095Y768395D1*
X4569718Y761210D1*
X4330269Y2431790D2*
Y2395920D1*
X4332646Y2388735D1*
X4337454Y2383982D1*
X4344639Y2381550D1*
X4349393D1*
X4356578Y2383982D1*
X4361386Y2388735D1*
X4363763Y2395920D1*
Y2431790D1*
X4379202Y2422173D2*
X4384010Y2424605D1*
X4391195Y2431735D1*
Y2381550D1*
X1438172Y2827066D2*
Y2791196D1*
X1440548Y2784011D1*
X1445357Y2779257D1*
X1452542Y2776826D1*
X1457295D1*
X1464480Y2779257D1*
X1469288Y2784011D1*
X1471665Y2791196D1*
Y2827066D1*
X1489536Y2815072D2*
Y2817449D1*
X1491913Y2822257D1*
X1494289Y2824634D1*
X1499098Y2827010D1*
X1508659D1*
X1513412Y2824634D1*
X1515789Y2822257D1*
X1518221Y2817449D1*
Y2812696D1*
X1515789Y2807887D1*
X1511036Y2800757D1*
X1487104Y2776826D1*
X1520597D1*
X3145897Y2412105D2*
Y2376235D1*
X3148274Y2369050D1*
X3153082Y2364297D1*
X3160267Y2361865D1*
X3165021D1*
X3172206Y2364297D1*
X3177014Y2369050D1*
X3179391Y2376235D1*
Y2412105D1*
X3199638Y2412050D2*
X3225891D1*
X3211577Y2392926D1*
X3218762D1*
X3223515Y2390550D1*
X3225891Y2388173D1*
X3228323Y2380988D1*
Y2376235D1*
X3225891Y2369050D1*
X3221138Y2364242D1*
X3213953Y2361865D1*
X3206768D1*
X3199638Y2364242D1*
X3197262Y2366673D1*
X3194830Y2371427D1*
X2874021Y2724113D2*
X2869267Y2721792D1*
X2864459Y2716983D1*
X2862082Y2712175D1*
X2859651Y2704990D1*
Y2693051D1*
X2862082Y2685866D1*
X2864459Y2681113D1*
X2869267Y2676305D1*
X2874021Y2673928D1*
X2883582D1*
X2888391Y2676305D1*
X2893144Y2681113D1*
X2895520Y2685866D1*
X2897952Y2693051D1*
Y2704990D1*
X2895520Y2712175D1*
X2893144Y2716983D1*
X2888391Y2721792D1*
X2883582Y2724113D1*
X2874021D1*
X2881206Y2683490D2*
X2895520Y2669120D1*
X2942076Y2724058D2*
X2918200D1*
X2915823Y2702558D1*
X2918200Y2704934D1*
X2925385Y2707366D1*
X2932515D1*
X2939700Y2704934D1*
X2944508Y2700181D1*
X2946885Y2692996D1*
Y2688243D1*
X2944508Y2681058D1*
X2939700Y2676249D1*
X2932515Y2673873D1*
X2925385D1*
X2918200Y2676249D1*
X2915823Y2678681D1*
X2913392Y2683434D1*
X2412120Y1673916D2*
X2407367Y1671595D1*
X2402558Y1666786D1*
X2400182Y1661978D1*
X2397750Y1654793D1*
Y1642855D1*
X2400182Y1635669D1*
X2402558Y1630916D1*
X2407367Y1626108D1*
X2412120Y1623731D1*
X2421681D1*
X2426490Y1626108D1*
X2431243Y1630916D1*
X2433620Y1635669D1*
X2436051Y1642855D1*
Y1654793D1*
X2433620Y1661978D1*
X2431243Y1666786D1*
X2426490Y1671595D1*
X2421681Y1673916D1*
X2412120D1*
X2419305Y1633293D2*
X2433620Y1618923D1*
X2480176Y1666731D2*
X2477799Y1671484D1*
X2470614Y1673861D1*
X2465861D1*
X2458676Y1671484D1*
X2453867Y1664299D1*
X2451491Y1652361D1*
Y1640423D1*
X2453867Y1630861D1*
X2458676Y1626053D1*
X2465861Y1623676D1*
X2468237D1*
X2475367Y1626053D1*
X2480176Y1630861D1*
X2482552Y1638046D1*
Y1640423D1*
X2480176Y1647608D1*
X2475367Y1652361D1*
X2468237Y1654737D1*
X2465861D1*
X2458676Y1652361D1*
X2453867Y1647608D1*
X2451491Y1640423D1*
X3530452Y2504625D2*
X3549575Y2480693D1*
Y2454385D1*
X3568698Y2504625D2*
X3549575Y2480693D1*
X3584137Y2495008D2*
X3588946Y2497440D1*
X3596131Y2504569D1*
Y2454385D1*
X3464238Y1814275D2*
X3469046Y1816707D1*
X3476231Y1823836D1*
Y1773652D1*
X3494102Y1811898D2*
Y1814275D1*
X3496479Y1819083D1*
X3498856Y1821460D1*
X3503664Y1823836D1*
X3513226D1*
X3517979Y1821460D1*
X3520355Y1819083D1*
X3522787Y1814275D1*
Y1809522D1*
X3520355Y1804713D1*
X3515602Y1797583D1*
X3491671Y1773652D1*
X3525164D1*
X3578850D2*
Y1823892D1*
X3559726Y1773652D1*
X3540603Y1823892D1*
Y1773652D1*
X3594289Y1823892D2*
Y1773652D1*
Y1797583D2*
X3601474Y1804768D1*
X3606282Y1807145D1*
X3613467D1*
X3618221Y1804768D1*
X3620597Y1797583D1*
Y1773652D1*
X3636037Y1807145D2*
X3662345D1*
X3636037Y1773652D1*
X3662345D1*
X3689014Y1991789D2*
X3684261Y1989412D1*
X3679453Y1984604D1*
X3677076Y1979851D1*
Y1970289D1*
X3679453Y1965481D1*
X3684261Y1960728D1*
X3689014Y1958296D1*
X3696199Y1955919D1*
X3708193D1*
X3715323Y1958296D1*
X3720131Y1960728D1*
X3724884Y1965481D1*
X3727316Y1970289D1*
Y1979851D1*
X3724884Y1984604D1*
X3720131Y1989412D1*
X3715323Y1991789D1*
X3677131Y2035913D2*
Y2012037D1*
X3698631Y2009660D1*
X3696255Y2012037D1*
X3693823Y2019222D1*
Y2026351D1*
X3696255Y2033536D1*
X3701008Y2038345D1*
X3708193Y2040721D1*
X3712946D1*
X3720131Y2038345D1*
X3724940Y2033536D1*
X3727316Y2026351D1*
Y2019222D1*
X3724940Y2012037D1*
X3722508Y2009660D1*
X3717755Y2007228D1*
X3835930Y1922517D2*
X3833498Y1927326D1*
X3826368Y1934511D1*
X3876553D1*
X3826368Y1961888D2*
X3828745Y1954758D1*
X3833498Y1952327D1*
X3838307D1*
X3843060Y1954758D1*
X3845492Y1959512D1*
X3847868Y1969073D1*
X3850245Y1976258D1*
X3855053Y1981011D1*
X3859806Y1983388D1*
X3866991D1*
X3871745Y1981011D1*
X3874176Y1978635D1*
X3876553Y1971450D1*
Y1961888D1*
X3874176Y1954758D1*
X3871745Y1952326D1*
X3866991Y1949950D1*
X3859806D1*
X3855053Y1952327D1*
X3850245Y1957135D1*
X3847868Y1964265D1*
X3845492Y1973826D1*
X3843060Y1978635D1*
X3838307Y1981011D1*
X3833498D1*
X3828745Y1978635D1*
X3826368Y1971450D1*
Y1961888D1*
X3843060Y1998827D2*
X3893300D1*
X3850245D2*
X3845492Y2003636D1*
X3843060Y2008389D1*
Y2015574D1*
X3845492Y2020382D1*
X3850245Y2025135D1*
X3857430Y2027567D1*
X3862238D1*
X3869368Y2025135D1*
X3874176Y2020382D1*
X3876553Y2015574D1*
Y2008389D1*
X3874176Y2003636D1*
X3869368Y1998827D1*
X3826313Y2074123D2*
Y2043007D1*
X3876553D1*
X3850245D2*
Y2062130D1*
X3689014Y2209561D2*
X3684261Y2207185D1*
X3679453Y2202376D1*
X3677076Y2197623D1*
Y2188062D1*
X3679453Y2183253D1*
X3684261Y2178500D1*
X3689014Y2176068D1*
X3696199Y2173691D1*
X3708193D1*
X3715323Y2176068D1*
X3720131Y2178500D1*
X3724884Y2183253D1*
X3727316Y2188061D1*
Y2197623D1*
X3724884Y2202376D1*
X3720131Y2207185D1*
X3715323Y2209561D1*
X3684261Y2253685D2*
X3679508Y2251309D1*
X3677131Y2244124D1*
Y2239371D1*
X3679508Y2232186D1*
X3686693Y2227377D1*
X3698631Y2225001D1*
X3710570D1*
X3720131Y2227377D1*
X3724940Y2232186D1*
X3727316Y2239371D1*
Y2241747D1*
X3724940Y2248877D1*
X3720131Y2253685D1*
X3712946Y2256062D1*
X3710570D1*
X3703384Y2253685D1*
X3698631Y2248877D1*
X3696255Y2241747D1*
Y2239371D1*
X3698631Y2232186D1*
X3703384Y2227377D1*
X3710570Y2225001D1*
X3835930Y2139074D2*
X3833498Y2143882D1*
X3826368Y2151067D1*
X3876553D1*
X3826368Y2178445D2*
X3828745Y2171315D1*
X3833498Y2168883D1*
X3838307D1*
X3843060Y2171315D1*
X3845492Y2176068D1*
X3847868Y2185630D1*
X3850245Y2192815D1*
X3855053Y2197568D1*
X3859806Y2199944D1*
X3866991D1*
X3871745Y2197568D1*
X3874176Y2195191D1*
X3876553Y2188006D1*
Y2178445D1*
X3874176Y2171315D1*
X3871745Y2168883D1*
X3866991Y2166506D1*
X3859806D1*
X3855053Y2168883D1*
X3850245Y2173691D1*
X3847868Y2180821D1*
X3845492Y2190383D1*
X3843060Y2195191D1*
X3838307Y2197568D1*
X3833498D1*
X3828745Y2195191D1*
X3826368Y2188006D1*
Y2178445D1*
X3843060Y2215384D2*
X3893300D1*
X3850245D2*
X3845492Y2220192D1*
X3843060Y2224945D1*
Y2232130D1*
X3845492Y2236939D1*
X3850245Y2241692D1*
X3857430Y2244124D1*
X3862238D1*
X3869368Y2241692D1*
X3874176Y2236939D1*
X3876553Y2232130D1*
Y2224945D1*
X3874176Y2220192D1*
X3869368Y2215384D1*
X3826313Y2290680D2*
Y2259563D1*
X3876553D1*
X3850245D2*
Y2278686D1*
X2822873Y2188660D2*
X2818119Y2186284D1*
X2813311Y2181475D1*
X2810934Y2176722D1*
Y2167161D1*
X2813311Y2162352D1*
X2818119Y2157599D1*
X2822873Y2155167D1*
X2830058Y2152790D1*
X2842051D1*
X2849181Y2155167D1*
X2853989Y2157599D1*
X2858743Y2162352D1*
X2861174Y2167161D1*
Y2176722D1*
X2858743Y2181475D1*
X2853989Y2186284D1*
X2849181Y2188660D1*
X2861174Y2213661D2*
X2810990Y2237593D1*
Y2204100D1*
X2850002Y2520063D2*
X2871502D1*
X2878687Y2522495D1*
X2881119Y2524871D1*
X2883495Y2529625D1*
Y2534433D1*
X2881119Y2539186D1*
X2878687Y2541618D1*
X2871502Y2543995D1*
X2850002D1*
Y2493755D1*
X2866749Y2520063D2*
X2883495Y2493755D1*
X2901366Y2532001D2*
Y2534378D1*
X2903743Y2539186D1*
X2906120Y2541563D1*
X2910928Y2543939D1*
X2920490D1*
X2925243Y2541563D1*
X2927619Y2539186D1*
X2930051Y2534378D1*
Y2529625D1*
X2927619Y2524816D1*
X2922866Y2517686D1*
X2898935Y2493755D1*
X2932428D1*
X2959805Y2543939D2*
X2952676Y2541563D1*
X2950244Y2536810D1*
Y2532001D1*
X2952676Y2527248D1*
X2957429Y2524816D1*
X2966990Y2522440D1*
X2974175Y2520063D1*
X2978929Y2515255D1*
X2981305Y2510501D1*
Y2503316D1*
X2978929Y2498563D1*
X2976552Y2496131D1*
X2969367Y2493755D1*
X2959805D1*
X2952676Y2496131D1*
X2950244Y2498563D1*
X2947867Y2503316D1*
Y2510501D1*
X2950244Y2515255D1*
X2955052Y2520063D1*
X2962182Y2522440D1*
X2971744Y2524816D1*
X2976552Y2527248D1*
X2978929Y2532001D1*
Y2536810D1*
X2976552Y2541563D1*
X2969367Y2543939D1*
X2959805D1*
X3121628Y2059605D2*
Y2023735D1*
X3124004Y2016550D1*
X3128813Y2011797D1*
X3135998Y2009365D1*
X3140751D1*
X3147936Y2011797D1*
X3152745Y2016550D1*
X3155121Y2023735D1*
Y2059605D1*
X3204054Y2052420D2*
X3199301Y2057228D1*
X3192116Y2059605D1*
X3182554D1*
X3175369Y2057228D1*
X3170560Y2052420D1*
Y2047667D1*
X3172992Y2042858D1*
X3175369Y2040482D1*
X3180122Y2038105D1*
X3194492Y2033297D1*
X3199301Y2030920D1*
X3201677Y2028488D1*
X3204054Y2023735D1*
Y2016550D1*
X3199301Y2011797D1*
X3192116Y2009365D1*
X3182554D1*
X3175369Y2011797D1*
X3170560Y2016550D1*
X3219493Y2059605D2*
Y2009365D1*
X3241048D1*
X3248233Y2011797D1*
X3250610Y2014173D1*
X3252986Y2018927D1*
Y2026112D1*
X3250610Y2030920D1*
X3248233Y2033297D1*
X3241048Y2035673D1*
X3248233Y2038105D1*
X3250610Y2040482D1*
X3252986Y2045235D1*
Y2050043D1*
X3250610Y2054797D1*
X3248233Y2057228D1*
X3241048Y2059605D1*
X3219493D1*
Y2035673D2*
X3241048D1*
X2536202Y1575181D2*
X2557702D1*
X2564887Y1577613D1*
X2567319Y1579990D1*
X2569695Y1584743D1*
Y1589551D1*
X2567319Y1594304D1*
X2564887Y1596736D1*
X2557702Y1599113D1*
X2536202D1*
Y1548873D1*
X2552949Y1575181D2*
X2569695Y1548873D1*
X2587566Y1587119D2*
Y1589496D1*
X2589943Y1594304D1*
X2592320Y1596681D1*
X2597128Y1599058D1*
X2606690D1*
X2611443Y1596681D1*
X2613819Y1594304D1*
X2616251Y1589496D1*
Y1584743D1*
X2613819Y1579934D1*
X2609066Y1572805D1*
X2585135Y1548873D1*
X2618628D1*
X2665184Y1582366D2*
X2662752Y1575181D1*
X2657999Y1570373D1*
X2650814Y1567996D1*
X2648437D1*
X2641252Y1570373D1*
X2636499Y1575181D1*
X2634067Y1582366D1*
Y1584743D1*
X2636499Y1591928D1*
X2641252Y1596681D1*
X2648437Y1599058D1*
X2650814D1*
X2657999Y1596681D1*
X2662752Y1591928D1*
X2665184Y1582366D1*
Y1570373D1*
X2662752Y1558434D1*
X2657999Y1551249D1*
X2650814Y1548873D1*
X2646061D1*
X2638876Y1551249D1*
X2636499Y1556058D1*
M02*
