G04 DipTrace 3.2.0.1*
G04 Top.gbr*
%MOIN*%
G04 #@! TF.FileFunction,Copper,L1,Top*
G04 #@! TF.Part,Single*
G04 #@! TA.AperFunction,Conductor*
%ADD14C,0.02*%
%ADD15C,0.008*%
%ADD16C,0.01*%
G04 #@! TA.AperFunction,ViaPad*
%ADD17C,0.03*%
G04 #@! TA.AperFunction,Conductor*
%ADD18C,0.023622*%
%ADD19C,0.025591*%
%ADD20C,0.011811*%
G04 #@! TA.AperFunction,CopperBalancing*
%ADD21C,0.025*%
%ADD22C,0.013*%
G04 #@! TA.AperFunction,ComponentPad*
%ADD23C,0.08*%
%ADD24R,0.051181X0.059055*%
%ADD25R,0.059055X0.051181*%
%ADD27R,0.055118X0.112205*%
%ADD29R,0.055118X0.088583*%
%ADD30R,0.062992X0.133858*%
%ADD31R,0.07874X0.023622*%
%ADD32R,0.06X0.095*%
%ADD34R,0.037402X0.084646*%
%ADD35R,0.127953X0.084646*%
%ADD37R,0.041339X0.025591*%
%ADD38R,0.06X0.055997*%
%ADD39R,0.055118X0.102362*%
%ADD40R,0.055997X0.06*%
%ADD42R,0.025591X0.041339*%
%ADD44O,0.033465X0.011811*%
%ADD45O,0.011811X0.033465*%
%ADD46R,0.106299X0.106299*%
G04 #@! TA.AperFunction,ComponentPad*
%ADD47R,0.062992X0.062992*%
%ADD48C,0.062992*%
%ADD49C,0.137795*%
%ADD50R,0.059055X0.035433*%
G04 #@! TA.AperFunction,ComponentPad*
%ADD51R,0.137795X0.137795*%
%FSLAX26Y26*%
G04*
G70*
G90*
G75*
G01*
G04 Top*
%LPD*%
X1240076Y2181531D2*
D14*
X1446295D1*
X1521356Y2106471D1*
Y1950205D1*
X1552609Y1918951D1*
X2265184D1*
X2290186Y1943954D1*
Y2131474D1*
X2340192Y2181479D1*
X2465152D1*
X2465205Y2181531D1*
X1065058Y2156681D2*
D15*
X1119437D1*
X1143756Y2181000D1*
X1239545D1*
X1240076Y2181531D1*
X2138719Y693684D2*
X2199072D1*
X2202756Y690000D1*
X765756Y1278000D2*
Y1938000D1*
X861756Y2034000D1*
X903756D1*
X960756Y2091000D1*
Y2115000D1*
X1002756Y2157000D1*
X1064739D1*
X1065058Y2156681D1*
X1610155Y2181531D2*
D16*
X1610207Y2181479D1*
X1815136D1*
X1633867Y1793938D2*
Y1800189D1*
X2652724D1*
X2658975Y1806440D1*
X2927753Y2181479D2*
X2835336D1*
X2835283Y2181531D1*
X2702730Y1237425D2*
D17*
Y1318888D1*
X2657091Y1364528D1*
X2627722Y1393896D1*
Y1481239D1*
X2627555Y1481406D1*
X2515210Y1237630D2*
X2530193D1*
X2657091Y1364528D1*
X533752Y87509D2*
Y175018D1*
X558755Y200021D1*
X633752D1*
X733752D1*
X833752D1*
X933752D1*
X1033752D1*
X1133752D1*
X1208823D1*
X1240076Y168768D1*
Y93833D1*
X1233752Y87509D1*
X633752D2*
Y200021D1*
X733752Y87509D2*
Y200021D1*
X833752Y87509D2*
Y200021D1*
X933752Y87509D2*
Y200021D1*
X1033752Y87509D2*
Y200021D1*
X1133752Y87509D2*
Y200021D1*
X1208823D2*
X1215073Y193770D1*
Y225024D1*
X2552714Y1375144D2*
X2634957D1*
X2627722Y1393896D1*
X3352593Y3444112D2*
D15*
X3358844Y3432007D1*
Y3394106D1*
X3390302D1*
X858581Y3400357D2*
Y3444112D1*
X1214869D2*
Y3394106D1*
X1227575D1*
X1571156Y3444112D2*
Y3406812D1*
X1577612Y3400357D1*
X1596364D1*
X1927444Y3444112D2*
Y3406608D1*
X1958902D1*
X2283731Y3444112D2*
Y3425564D1*
X2290186Y3412858D1*
Y3394106D1*
X2321440D1*
X2640018Y3444112D2*
Y3413063D1*
X2646269Y3406812D1*
X2658975Y3394106D1*
X2677727D1*
X2996306Y3444112D2*
Y3406812D1*
X3002556Y3400562D1*
X3009012Y3394106D1*
X3034014D1*
X2815241Y1281385D2*
D17*
Y1231385D1*
Y1181385D1*
Y1231385D2*
D3*
X864832Y3325349D2*
D15*
Y3375559D1*
X858581Y3381810D1*
Y3400357D1*
X1221119Y3325349D2*
Y3394106D1*
X1227575D1*
X1577407Y3325349D2*
X1577612Y3400357D1*
X1933694Y3325349D2*
Y3400357D1*
X1927444Y3406608D1*
X2289982Y3325349D2*
X2290186Y3394106D1*
X2646269Y3325349D2*
Y3406812D1*
X3358844Y3325349D2*
Y3394106D1*
X2815241Y1281385D2*
D18*
Y1331390D1*
D17*
X2727732D1*
X2702730Y1318888D1*
X3002556Y3325349D2*
D15*
Y3400562D1*
X2982909Y850089D2*
D17*
X3051723D1*
X3121524D1*
X3152777Y881343D1*
Y1131385D1*
Y1176827D1*
Y1231385D1*
Y1262633D1*
X3134025Y1281385D1*
X3082210D1*
D18*
X3027840D1*
Y1231385D2*
D17*
X3152777D1*
X3027840Y1181385D2*
D18*
X3082210D1*
D17*
X3148219D1*
X3152777Y1176827D1*
X3027840Y1131385D2*
X3152777D1*
X2965257Y987604D2*
D19*
X3000927D1*
D17*
X3040265D1*
X3046516Y981353D1*
Y855297D1*
X3051723Y850089D1*
X2965257Y1062407D2*
D19*
X3000927D1*
D17*
X3040470D1*
X3046516Y1056361D1*
Y981353D1*
X2277685Y1662675D2*
Y1718930D1*
X2327690Y1768936D1*
X2537004D1*
X2696274D1*
X2721482D1*
X2899234D1*
X3052766D1*
X3084020Y1737682D1*
Y1675176D1*
X3077769Y1668925D1*
X2909001Y1681427D2*
Y1759168D1*
X2899234Y1768936D1*
X2721482Y1631217D2*
Y1768936D1*
X2537004Y1709752D2*
Y1768936D1*
Y1481406D2*
Y1709752D1*
X3652829Y800084D2*
X3665331D1*
X3752840Y712575D1*
Y611084D1*
X3717756Y576000D1*
X3342756D1*
X3324756Y594000D1*
Y741000D1*
X3215283Y850472D1*
Y1737682D1*
X3184030Y1768936D1*
X3057194D1*
X3084020Y1737682D1*
X3752840Y712575D2*
X3761324Y704091D1*
Y1156371D1*
Y1478266D1*
Y1868946D1*
Y2225234D1*
Y2581521D1*
Y2937808D1*
Y3185601D1*
X3652829Y3294096D1*
Y2937808D2*
X3761324D1*
X3652829Y2581521D2*
X3761324D1*
X3652829Y2225234D2*
X3761324D1*
X3652829Y1868946D2*
X3761324D1*
X3652829Y1512659D2*
X3726932D1*
X3761324Y1478266D1*
X3652829Y1156371D2*
X3761324D1*
X2465205Y2281531D2*
D18*
X2519575D1*
D17*
X2646432D1*
X2696479Y2231484D1*
Y2031531D1*
Y1956660D1*
X2696274Y1956455D1*
Y1768936D1*
X2835283Y2031531D2*
X2696479D1*
X2465205Y2281531D2*
D18*
X2410835D1*
D17*
X2308980D1*
X2158923Y2131474D1*
X1777633D1*
X1340087Y2281490D2*
X1240118D1*
D18*
X1240076Y2281531D1*
X1396354Y1956000D2*
D17*
Y2125018D1*
X1408844Y1393902D2*
X1327785D1*
X1302583Y1419104D1*
X1221734D1*
X1221324Y1418694D1*
Y1581416D1*
X1321335Y1681427D1*
X2258933D1*
X2277685Y1662675D1*
X2513484Y540867D2*
D16*
X2486896D1*
X2483957Y543807D1*
X2365194Y493802D2*
D17*
Y550058D1*
D16*
D3*
D17*
X2290186D1*
X2483957Y543807D2*
D20*
Y570395D1*
Y590080D1*
X2690433Y168768D2*
D17*
X2602514D1*
X2721482Y303556D2*
Y225024D1*
X2677829Y181371D1*
X2690433Y168768D1*
X2721482Y362743D2*
Y303556D1*
X533752Y412509D2*
D15*
Y618815D1*
X558755Y643818D1*
Y2994064D1*
X533752Y3019067D1*
Y3206382D1*
Y3387856D1*
X608760Y3462864D1*
X696269D1*
X714816Y3481411D1*
Y3506618D1*
Y3543917D1*
X765026Y3594127D1*
Y3619146D1*
X796264Y3650383D1*
X821180Y3534663D2*
Y3537974D1*
X765026Y3594127D1*
X746274Y3131579D2*
Y3000315D1*
X740024Y2994064D1*
X558755D1*
X577507Y3206382D2*
X533752D1*
X1077352Y3506614D2*
X1152551Y3581814D1*
Y3650383D1*
X1177467Y3534663D2*
Y3553501D1*
X1149155Y3581814D1*
X1152551D1*
X633752Y412509D2*
Y487562D1*
X577507Y543807D1*
Y2675281D1*
X890039Y2987814D1*
Y3206382D1*
Y3244091D1*
X908791Y3262843D1*
Y3419109D1*
X952546Y3462864D1*
X1058807D1*
X1071308Y3475365D1*
Y3500571D1*
X1077352Y3506614D1*
X946295Y3206382D2*
X890039D1*
X1121314Y3131579D2*
Y3037819D1*
X1071308Y2987814D1*
X890039D1*
X733752Y412509D2*
Y487572D1*
X596259Y625066D1*
Y2669030D1*
X871287Y2944059D1*
X1265079D1*
Y3206382D1*
Y3412858D1*
X1315084Y3462864D1*
X1440097D1*
X1446348Y3469114D1*
Y3493912D1*
X1433642Y3506618D1*
X1489898Y3562874D1*
X1502400D1*
X1508839Y3569312D1*
Y3650383D1*
X1533755Y3534663D2*
Y3548934D1*
X1519815Y3562874D1*
X1502400D1*
X1308833Y3206382D2*
X1265079D1*
X1477601Y3131579D2*
Y3081573D1*
X1558860Y3000315D1*
X1577612D1*
X1590113Y2987814D1*
Y2956560D1*
X1577612Y2944059D1*
X1265079D1*
X833752Y412509D2*
Y462580D1*
X615010Y681322D1*
Y2662780D1*
X877538Y2925307D1*
X1615115D1*
X1621366Y2931558D1*
Y2969062D1*
Y3206382D1*
Y3437861D1*
X1646369Y3462864D1*
X1783883D1*
X1790134Y3469114D1*
Y3481615D1*
X1783883Y3487866D1*
Y3506618D1*
X1789929D1*
Y3512664D1*
X1845488Y3568223D1*
X1858891Y3581626D1*
Y3644148D1*
X1865126Y3650383D1*
X1890042Y3534663D2*
X1879049D1*
X1845488Y3568223D1*
X1665121Y3206382D2*
X1621366D1*
X1827638Y3131579D2*
Y2987814D1*
X1808886Y2969062D1*
X1621366D1*
X933752Y412509D2*
Y443839D1*
X633762Y743828D1*
Y2656529D1*
X883789Y2906555D1*
X1965152D1*
Y2969062D1*
Y3206382D1*
X1971403D1*
Y3369104D1*
X1996406Y3394106D1*
Y3444112D1*
X2015157Y3462864D1*
X2140171D1*
X2146217Y3468909D1*
Y3506618D1*
X2217907Y3578104D1*
X2227680Y3587877D1*
Y3644117D1*
X2221413Y3650383D1*
X2246329Y3534663D2*
Y3549681D1*
X2217907Y3578104D1*
X2015157Y3206382D2*
X1971403D1*
X2183925Y3131579D2*
Y2987814D1*
X2165173Y2969062D1*
X1965152D1*
X1033752Y412509D2*
Y481353D1*
X983799Y531306D1*
X902541D1*
X652514Y781332D1*
Y2650278D1*
X890039Y2887803D1*
X2327690D1*
Y2969062D1*
Y3206382D1*
Y3337850D1*
X2346442Y3356602D1*
Y3437861D1*
X2371445Y3462864D1*
X2496458D1*
X2508959Y3475365D1*
Y3506618D1*
X2502504D1*
Y3543917D1*
X2508959Y3550373D1*
X2602719D1*
Y3556623D1*
X2599510Y3553415D1*
X2602719Y3556623D2*
Y3575375D1*
X2583967Y3594127D1*
Y3644117D1*
X2577701Y3650383D1*
X2602617Y3534663D2*
X2599510D1*
Y3553415D1*
X2377696Y3206382D2*
X2327690D1*
X2552714Y3131579D2*
Y2981563D1*
X2540213Y2969062D1*
X2327690D1*
X1133752Y412509D2*
Y512617D1*
X1083810Y562559D1*
X915042D1*
X671266Y806335D1*
Y2644028D1*
X896290Y2869051D1*
X2652724D1*
X2683978Y2900304D1*
Y2969062D1*
Y3206382D1*
Y3350352D1*
X2708980Y3375354D1*
Y3444112D1*
X2727732Y3462864D1*
X2846495D1*
X2858791Y3475160D1*
Y3506618D1*
Y3537667D1*
X2883999Y3562874D1*
X2933988D1*
Y3650383D1*
X2958904Y3534663D2*
Y3556726D1*
X2952756Y3562874D1*
X2933988D1*
X2733983Y3206382D2*
X2683978D1*
X2902751Y3131579D2*
Y2987814D1*
X2883999Y2969062D1*
X2683978D1*
X1233752Y412509D2*
Y487625D1*
X1127564Y593812D1*
X940045D1*
X690018Y843839D1*
Y2637777D1*
X902541Y2850299D1*
X3034014D1*
X3027764Y2844049D1*
X3034014Y2850299D2*
Y3206382D1*
X3040265D1*
Y3350352D1*
X3065268Y3375354D1*
Y3425360D1*
X3102772Y3462864D1*
X3196531D1*
X3209033Y3475365D1*
Y3506618D1*
X3215079D1*
Y3562669D1*
X3227785Y3575375D1*
X3315294D1*
X3309043Y3581626D1*
X3290276D1*
Y3650383D1*
X3315192Y3534663D2*
X3315294Y3575375D1*
X3077769Y3206382D2*
X3040265D1*
X3259038Y3131579D2*
Y3037819D1*
X665016Y3131579D2*
Y3050320D1*
X1690123Y2331531D2*
X1610155D1*
X1033804Y3131579D2*
Y3044070D1*
X1690123Y2381531D2*
X1610155D1*
Y2431531D2*
X1540081D1*
X1527606Y2444007D1*
Y2531516D1*
Y2969062D2*
X1471350D1*
X1383841Y3056571D1*
Y3131579D1*
X1390092D1*
X1746379D2*
Y3037819D1*
X1683873Y2481531D2*
X1610155D1*
X2096416Y3131579D2*
Y3037819D1*
X2152672Y2650278D2*
Y2587772D1*
X2096432Y2531531D1*
X1610155D1*
X2465205Y3131579D2*
Y3037819D1*
X1977654Y2581531D2*
X1610155D1*
X2821492Y3131579D2*
Y3037819D1*
Y2719035D2*
X2052661D1*
X1965152Y2631526D1*
X1610160D1*
X1610155Y2631531D1*
Y2681531D2*
X1971403D1*
X2040160Y2750289D1*
X3134025D1*
X3165278Y2781542D1*
Y3131579D1*
X2533169Y698348D2*
Y755587D1*
X2463756Y825000D1*
X2411425D1*
X2359062D1*
X2358944Y824882D1*
X2411425Y825000D2*
Y903664D1*
X2358944Y956146D1*
Y824882D2*
X2325874D1*
X2310756Y840000D1*
X1164756Y696000D2*
Y756222D1*
X1165068Y756534D1*
X1164756Y696000D2*
X978756D1*
X813756Y861000D1*
Y1151396D1*
X808781Y1156371D1*
X933692Y1321930D2*
X1049348D1*
X1052556Y1325139D1*
X1115063D1*
X1133815Y1343891D1*
X1221324D1*
X1408833D1*
X1408844Y1343902D1*
X3033756Y663000D2*
D17*
X2814811D1*
X2708980Y768831D1*
Y943849D1*
Y948644D1*
Y1025123D1*
X2815241Y1131385D1*
X2708980Y943849D2*
X2700388Y935257D1*
X2545467D1*
X2515210Y965514D1*
Y1048496D1*
X2526097D1*
X2633972Y1156371D1*
X2696479D1*
X2702730Y1162622D1*
X2446453Y1481406D2*
Y1369150D1*
Y1117253D1*
X2515210Y1048496D1*
X2277685Y1528816D2*
Y1437651D1*
X2301722Y1413614D1*
X2333941Y1381395D1*
X2434207D1*
X2446453Y1369150D1*
X3077951Y1587923D2*
Y1419081D1*
X3065268Y1406398D1*
X3015262D1*
X2909001D1*
X2744958D1*
X2727732Y1423623D1*
X2715231Y1436125D1*
Y1550163D1*
X2721482Y1556413D1*
X2909001Y1492293D2*
Y1406398D1*
X2815241Y1131385D2*
Y1131369D1*
X2877748D1*
X2921503Y1175123D1*
Y1312638D1*
X3015262Y1406398D1*
X2465205Y2231531D2*
X2571419D1*
X2615220Y2187730D1*
Y1962706D1*
X2621471Y1956455D1*
X2596469D1*
X2577717Y1937703D1*
Y1862696D1*
X2835283Y2081531D2*
D15*
X2909064D1*
X2921503Y2093970D1*
Y2118972D1*
X2909001Y2131474D1*
X2835341D1*
X2835283Y2131531D1*
X2921503Y2118972D2*
X2959007D1*
X289976Y643818D2*
X177465D1*
Y1000105D1*
Y1356392D1*
Y1712680D1*
Y2068967D1*
Y2425255D1*
Y2805373D1*
Y3125328D1*
X183110Y3130974D1*
X227470Y3175333D1*
X252472D1*
X289976Y3137829D1*
Y2781542D2*
X201295D1*
X177465Y2805373D1*
X289976Y2425255D2*
X177465D1*
X289976Y2068967D2*
X177465D1*
X289976Y1712680D2*
X177465D1*
X289976Y1356392D2*
X177465D1*
X289976Y1000105D2*
X177465D1*
X1610155Y2131531D2*
D17*
X1690066D1*
X1702625Y2118972D1*
Y2082199D1*
Y2074987D1*
Y2043965D1*
X1690123Y2031463D1*
X1646369D1*
X1610223D1*
X1610155Y2031531D1*
Y2081531D2*
D15*
X1696080D1*
X1702625Y2074987D1*
Y2082199D2*
D17*
X2172155D1*
X2321487Y2231531D1*
X2465205D1*
X1240076D2*
X1452551D1*
X1552609Y2131474D1*
X1610097D1*
X1610155Y2131531D1*
X1471157Y1956000D2*
D15*
Y2037714D1*
X1646369Y1987709D2*
Y2031463D1*
X640013Y3506618D2*
Y3656634D1*
X646264Y3650383D1*
X1002549Y3506614D2*
Y3525373D1*
X1002551Y3525375D1*
Y3650383D1*
X1358839Y3506618D2*
Y3650383D1*
X1715126Y3506618D2*
Y3650383D1*
X2071413Y3506618D2*
Y3650383D1*
X2427701Y3506618D2*
Y3606629D1*
X2446453Y3625381D1*
Y3631631D1*
X2427701Y3650383D1*
X2783988Y3506618D2*
Y3650383D1*
X3140276Y3506618D2*
Y3650383D1*
X183110Y3130974D2*
Y3374749D1*
X227470Y3419109D1*
X414990D1*
X646264Y3650383D1*
Y3706639D1*
X677517Y3737892D1*
X1002551D1*
X1358839D1*
X1715126D1*
X2071413D1*
X2427701D1*
X2783988D1*
X3052766D1*
X3140276Y3650383D1*
X2783988D2*
Y3737892D1*
X2427701Y3650383D2*
Y3737892D1*
X2071413Y3650383D2*
Y3737892D1*
X1715126Y3650383D2*
Y3737892D1*
X1358839Y3650383D2*
Y3737892D1*
X1002551Y3650383D2*
Y3737892D1*
X702315Y3337850D2*
D16*
Y3287844D1*
X1071104Y3337850D2*
D15*
Y3288050D1*
X1421140Y3337850D2*
Y3288050D1*
X1777428Y3337850D2*
Y3287845D1*
X833783Y3131579D2*
D16*
Y3050320D1*
X1208823Y3131579D2*
Y3044070D1*
X2133715Y3337850D2*
D15*
Y3294301D1*
X2271434Y3131579D2*
D16*
Y3037819D1*
X1565110Y3131579D2*
X1527606Y3081573D1*
X2640223Y3131579D2*
Y3037819D1*
X2490003Y3337850D2*
D15*
Y3306392D1*
X2465205Y3281594D1*
X2990260Y3131579D2*
D16*
Y3044070D1*
X2846290Y3337850D2*
D15*
Y3318894D1*
X2821492Y3294096D1*
X3202577Y3337850D2*
Y3281390D1*
X3190281Y3269093D1*
X3346547Y3131579D2*
D16*
Y3037819D1*
X2874706Y1025005D2*
D19*
X2839037D1*
D17*
X2785341D1*
X2708980Y948644D1*
X1908896Y3131579D2*
D16*
Y3037819D1*
X2138665Y1443558D2*
D17*
X2277685Y1437651D1*
X2138665Y1443558D2*
X2007514D1*
X1719719Y1155762D1*
X1408844Y1443902D2*
X1571361D1*
X1715126Y1300136D1*
Y1155762D1*
X1719719D1*
X1408844Y1443902D2*
X1358839Y1493907D1*
X1302583D1*
X2308938Y225126D2*
D19*
X2273269D1*
D17*
X2219720D1*
X2171699Y177105D1*
X2308938Y375142D2*
D19*
X2273269D1*
D17*
X2216699D1*
X2140273D1*
X2046411Y281280D1*
X1986423D1*
X1983904Y283798D1*
X2290186Y640058D2*
X2365194D1*
X2417690D1*
X2427701Y650068D1*
D16*
X2451291D1*
X2452224Y649135D1*
D20*
X2483957D1*
D16*
X2524583D1*
X2533169D1*
X2562697Y619608D1*
X2290186Y640058D2*
D17*
X2221429D1*
Y379871D1*
X2216699Y375142D1*
X2615016Y256277D2*
X2665226D1*
Y402533D1*
X2623962Y443797D1*
X2665226Y235672D2*
Y256277D1*
X1408719Y743684D2*
X1608440D1*
X1701756Y837000D1*
Y1137799D1*
X1719719Y1155762D1*
X1571361Y156266D2*
X1676845D1*
X1697684Y177105D1*
X1415094Y156266D2*
Y229339D1*
X1443756Y258000D1*
X1616789D1*
X1697684Y177105D1*
X1065058Y2231484D2*
X1185659D1*
X1185706Y2231531D1*
D18*
X1240076D1*
X1052556Y1415139D2*
D17*
X1021617D1*
X1005756Y1431000D1*
Y1528365D1*
X1008802Y1531411D1*
X995345D1*
X936756Y1590000D1*
X912756D1*
X1052556Y1415139D2*
Y1459801D1*
X1068756Y1476000D1*
X2335932Y1447824D2*
X2301722Y1413614D1*
X2541756Y645000D2*
D16*
X2524583Y649135D1*
X2268392Y918744D2*
D15*
Y842636D1*
X2250756Y825000D1*
X2208756D1*
X2178756Y795000D1*
X2140108D1*
X2138665Y793558D1*
X2268392Y787480D2*
X2237236D1*
X2193756Y744000D1*
X2139035D1*
X2138719Y743684D1*
X3502814Y656319D2*
D14*
X3646594D1*
X3652829Y650084D1*
X3509064Y1012606D2*
X3646594D1*
X3652829Y1006371D1*
X3509064Y1362643D2*
X3652814D1*
X3652829Y1362659D1*
X3502814Y1712680D2*
X3646563D1*
X3652829Y1718946D1*
X3509064Y2075218D2*
X3652814D1*
X3652829Y2075234D1*
X3515315Y2425255D2*
X3646563D1*
X3652829Y2431521D1*
X3509064Y2775291D2*
X3640312D1*
X3652829Y2787808D1*
X2465205Y2031531D2*
X2409017D1*
X2390197Y2012711D1*
Y1881448D1*
X2333941Y1825192D1*
X1377591D1*
X1321335Y1768936D1*
X1296332D1*
X1246327Y1818941D1*
Y1843944D1*
X1196322Y1987709D2*
Y2025559D1*
Y2031463D1*
X1240008D1*
X1240076Y2031531D1*
X1255619Y793936D2*
D15*
X1408811D1*
X1408844Y793903D1*
X1255619Y793936D2*
X976820D1*
X879756Y891000D1*
X789756Y1320000D2*
Y1899000D1*
X888756Y1998000D1*
X984756D2*
X1168762D1*
X1196322Y2025559D1*
X2465205Y2081531D2*
D14*
X2384009D1*
X2358944Y2056466D1*
Y1900199D1*
X2315189Y1856445D1*
X1352588D1*
X1308833Y1812690D1*
X1133815Y2081469D2*
X1240013D1*
X1240076Y2081531D1*
X1408719Y693684D2*
D15*
X1267440D1*
X1236756Y663000D1*
X948756D1*
X765756Y846000D1*
Y1086000D1*
X741756Y1110000D1*
Y1971000D1*
X819756Y2049000D1*
X1496353Y75008D2*
X1467748D1*
X1458756Y84000D1*
Y207000D1*
X1467756Y216000D1*
X1341756Y459000D2*
Y627000D1*
X1245756Y945000D2*
X1407747D1*
X1408844Y943903D1*
X3652829Y3144096D2*
D14*
X3640344D1*
X3634077Y3137829D1*
X3509064D1*
X489793Y3331600D2*
D15*
Y3275549D1*
X2340192Y2681531D2*
X2465205D1*
X3152572Y1668925D2*
D14*
Y1588105D1*
X3152755Y1587923D1*
X2821492Y850089D2*
D17*
Y758264D1*
X2841756Y738000D1*
X3108756D1*
X3183756Y663000D1*
X2527916Y87509D2*
D15*
Y168563D1*
X2527711Y168768D1*
X1165068Y831337D2*
X1044419D1*
X906756Y969000D1*
Y1046100D1*
X902745Y1050110D1*
X2690433Y87509D2*
Y93965D1*
X2765236Y168768D1*
X2358944Y750079D2*
X2280835D1*
X2247756Y717000D1*
X849756Y1101000D2*
X866126D1*
X902745Y1137619D1*
X2540213Y256277D2*
Y275234D1*
X2615016Y350037D1*
Y362743D1*
X2533962Y443797D1*
Y540075D1*
X2533169Y540867D1*
X1133815Y1418694D2*
Y1514692D1*
X1150534Y1531411D1*
X808781Y1231175D2*
X896085D1*
X896290Y1231379D1*
X2358944Y881343D2*
X2341413D1*
X2319756Y903000D1*
Y936000D1*
X2286756Y969000D1*
X1155756Y1167000D2*
X1072976D1*
X1071308Y1168668D1*
X2835283Y2331531D2*
X3171492D1*
X3277790Y2225234D1*
Y1042966D1*
X3363756Y957000D1*
Y681000D1*
X3388437Y656319D1*
X3428010D1*
X2835283Y2381531D2*
X3171497D1*
X3309043Y2243986D1*
Y1068862D1*
X3365299Y1012606D1*
X3434261D1*
X2835283Y2431531D2*
X3184004D1*
X3340297Y2275239D1*
Y1412648D1*
X3390302Y1362643D1*
X3434261D1*
X2835283Y2481531D2*
X3196510D1*
X3377801Y2300241D1*
Y1762685D1*
X3427806Y1712680D1*
X3428010D1*
X2835283Y2531531D2*
X3202766D1*
X3409054Y2325244D1*
Y2100220D1*
X3434056Y2075218D1*
X3434261D1*
X2835283Y2581531D2*
X3277780D1*
X3434056Y2425255D1*
X3440512D1*
X2835283Y2631531D2*
X3115278D1*
X3259038Y2775291D1*
X3434261D1*
Y3137829D2*
Y3019272D1*
X3096521Y2681531D1*
X2835283D1*
X289976Y3287829D2*
D14*
X371219D1*
X414990Y3331600D1*
X289976Y2931542D2*
X396222D1*
X427491Y2962811D1*
X289976Y2575255D2*
X414974D1*
X427491Y2587772D1*
X289976Y2218967D2*
X421224D1*
X427491Y2225234D1*
X289976Y1862680D2*
X415005D1*
X427491Y1850194D1*
X289976Y1506392D2*
X402504D1*
X427491Y1481406D1*
X289976Y1150105D2*
X396253D1*
X433741Y1112617D1*
X289976Y793818D2*
X377501D1*
X421240Y750079D1*
X1340291Y156266D2*
D15*
Y149606D1*
X1414890Y75008D1*
X1496558Y156266D2*
Y149606D1*
X1571156Y75008D1*
X502294Y2962811D2*
Y2906760D1*
X2352693Y2631526D2*
X2465199D1*
X2465205Y2631531D1*
X502294Y2587772D2*
Y2531720D1*
X2358944Y2581521D2*
X2465194D1*
X2465205Y2581531D1*
X502294Y2225234D2*
Y2169182D1*
X2371445Y2531516D2*
X2465189D1*
X2465205Y2531531D1*
X502294Y1850194D2*
Y1912701D1*
X2377696Y2481510D2*
X2465184D1*
X2465205Y2481531D1*
X502294Y1481406D2*
Y1550163D1*
X2377696Y2431505D2*
X2465178D1*
X2465205Y2431531D1*
X508545Y1112617D2*
Y1168873D1*
X2383946Y2381500D2*
X2465173D1*
X2465205Y2381531D1*
X496043Y750079D2*
Y806335D1*
X2390197Y2331495D2*
X2465168D1*
X2465205Y2331531D1*
X2721482Y437546D2*
Y462549D1*
X2696479Y487551D1*
X2571466D1*
X2552714Y506303D1*
Y540727D1*
X2552854Y540867D1*
X2765236Y87509D2*
X2821492D1*
X2833993Y100010D1*
Y468799D1*
X2711793Y591000D1*
X2640517D1*
X2641437Y590080D1*
X2602719Y87509D2*
Y56256D1*
X2615220Y43755D1*
X2846495D1*
X2858996Y56256D1*
Y487551D1*
X2777738Y568810D1*
X2696479Y550058D2*
Y556308D1*
X2683978Y568810D1*
X2643022D1*
X2641437Y570395D1*
X790029Y3325349D2*
X783778D1*
Y3444112D1*
X664913Y3428402D2*
X743066D1*
X758776Y3444112D1*
X783778D1*
X1033702Y3428402D2*
X1093102D1*
X1108812Y3444112D1*
X1140066D1*
X1146316Y3325349D2*
X1140066Y3369104D1*
Y3444112D1*
X1383739Y3428402D2*
X1480643D1*
X1496353Y3444112D1*
Y3331600D1*
X1502604Y3325349D1*
X1858891D2*
Y3444112D1*
Y3431610D1*
X1852640Y3444112D1*
X1740026Y3428402D2*
X1765131Y3444112D1*
X1858891D1*
X2208928D2*
Y3431610D1*
X2202677Y3425360D1*
X2208928Y3431610D2*
Y3331600D1*
X2215178Y3325349D1*
X2096314Y3428402D2*
X2199635D1*
X2202677Y3425360D1*
X2452601Y3428402D2*
X2555756D1*
X2565215Y3437861D1*
Y3444112D1*
Y3437861D2*
Y3419109D1*
X2571466Y3412858D1*
Y3325349D1*
X2927753D2*
Y3428413D1*
X2921503D1*
Y3444112D1*
X2808888Y3428402D2*
X2921503Y3428413D1*
X3284041Y3325349D2*
Y3428402D1*
Y3437861D1*
X3277790Y3444112D1*
X3165176Y3428402D2*
X3284041D1*
X746274Y3206382D2*
X833783D1*
X1208823D2*
X1121314D1*
X1477601D2*
X1565110D1*
X1908896D2*
X1827638D1*
X2183925D2*
X2271434D1*
X2552714D2*
X2640223D1*
X2902751D2*
X2990260D1*
X3259038D2*
X3346547D1*
X665016D2*
Y3250341D1*
X627512Y3287845D1*
Y3337850D1*
X1033804Y3206382D2*
Y3244091D1*
X996301Y3281594D1*
Y3337850D1*
X1390092Y3206382D2*
Y3250341D1*
X1346337Y3294096D1*
Y3337850D1*
X1746379Y3206382D2*
Y3237840D1*
X1721377Y3275344D1*
X1702625Y3300346D1*
Y3337850D1*
X2096416Y3206382D2*
Y3244091D1*
X2058912Y3281594D1*
Y3337850D1*
X2465205Y3206382D2*
Y3244091D1*
X2415199Y3294096D1*
Y3337850D1*
X2821492Y3206382D2*
Y3244091D1*
X2771487Y3294096D1*
Y3337850D1*
X3165278Y3206382D2*
Y3244091D1*
X3127774Y3281594D1*
Y3337850D1*
X2611909Y698348D2*
Y853846D1*
X2571756Y894000D1*
X1029756Y1233000D2*
X972714D1*
X971093Y1231379D1*
Y1144075D1*
X977549Y1137619D1*
Y1050110D1*
X1027554D1*
X1071308Y1093865D1*
X2138665Y1243558D2*
X2309198D1*
X2355756Y1197000D1*
Y1098000D1*
X2409756Y1044000D1*
Y978000D1*
X2571756Y816000D1*
Y699131D1*
X2572539Y698348D1*
X2465205Y2131531D2*
D14*
X2371503D1*
X2321440Y2081469D1*
Y1912701D1*
X2296437Y1887698D1*
X1340087D1*
Y2118972D1*
X1327585Y2131474D1*
X1240134D1*
X1240076Y2131531D1*
X1408844Y843903D2*
D15*
X1316853D1*
X1290756Y870000D1*
X1236756D1*
X1203756Y903000D1*
X1029756D1*
X999756Y933000D1*
X855756Y1320000D2*
Y1920000D1*
X1029756Y2094000D1*
X1086756D1*
X1104756Y2112000D1*
X1140756D1*
X1161756Y2133000D1*
X1238608D1*
X1240076Y2131531D1*
Y2681531D2*
X946295D1*
X577507Y3050320D2*
Y3131579D1*
X946295D2*
Y3044070D1*
X1102556Y2631531D2*
X1240076D1*
X1308833Y3131579D2*
Y3037819D1*
X1158818Y2581521D2*
X1240066D1*
X1240076Y2581531D1*
X1665121Y3131579D2*
Y3037819D1*
X1158818Y2531516D2*
X1240060D1*
X1240076Y2531531D1*
X2015157Y3131579D2*
Y3037819D1*
X1158818Y2481510D2*
X1240055D1*
X1240076Y2481531D1*
X2377696Y3131579D2*
Y3037819D1*
X1771382Y2794043D2*
Y2787793D1*
X1465100D1*
X1340087Y2662780D1*
Y2456508D1*
X1315110Y2431531D1*
X1240076D1*
X2733983Y3131579D2*
Y3037819D1*
Y2800294D2*
X1983904D1*
X1946400Y2762790D1*
X1483852D1*
X1390092Y2669030D1*
Y2412753D1*
X1358839Y2381500D1*
X1240108D1*
X1240076Y2381531D1*
Y2331531D2*
X1383878D1*
X1440097Y2387751D1*
Y2644028D1*
X1540108Y2744038D1*
X1971403D1*
X1996406Y2769041D1*
X3040265D1*
X3077769Y2806545D1*
Y3131579D1*
X2138665Y1293558D2*
X2325198D1*
X2373756Y1245000D1*
Y1107000D1*
X2427756Y1053000D1*
Y993000D1*
X2592224Y828531D1*
Y698348D1*
X2483957Y609765D2*
X2456155D1*
X2440202Y593812D1*
Y425045D1*
X2427701Y412543D1*
X2399490D1*
X2421450D1*
X2440202Y393791D1*
Y312533D1*
X2427701Y300031D1*
X2158923D1*
X2040160Y181269D1*
X1852640D1*
X1833888Y200021D1*
Y310948D1*
X1885479Y362538D1*
X2399490Y337740D2*
X2377491D1*
X2358944Y356287D1*
Y431295D1*
X2383946Y456298D1*
X2408949D1*
X2421450Y468799D1*
Y606314D1*
X2446453Y631316D1*
X2482091D1*
X2483957Y629450D1*
X1885479Y283798D2*
Y242190D1*
X1921398Y206272D1*
X2040160D1*
X2158923Y325034D1*
X2362350D1*
X2375056Y337740D1*
X2377491D1*
X2399490Y187724D2*
Y262528D1*
X2440202D1*
X2483957Y306282D1*
Y331285D1*
X2502709Y350037D1*
X2540213D1*
X2399490Y187724D2*
X2365399D1*
X2252682Y75008D1*
X1896395D1*
X1802635Y168768D1*
Y393791D1*
X1852640Y443797D1*
X1958902D1*
X1983904Y418794D1*
Y362538D1*
X1340087Y75008D2*
X1308748D1*
X1299756Y84000D1*
Y654000D1*
X1302756Y657000D1*
X1296756Y900000D2*
X1402747D1*
X1408844Y893903D1*
D17*
X2202756Y690000D3*
X765756Y1278000D3*
X1815136Y2181479D3*
X1633867Y1793938D3*
X2658975Y1806440D3*
X2927753Y2181479D3*
X1215073Y225024D3*
X2552714Y1375144D3*
X3390302Y3394106D3*
X858581Y3400357D3*
X1227575Y3394106D3*
X1596364Y3400357D3*
X1958902Y3406608D3*
X2321440Y3394106D3*
X2677727D3*
X3034014D3*
X858581Y3400357D3*
X1227575Y3394106D3*
X1777633Y2131474D3*
X1340087Y2281490D3*
X1396354Y2125018D3*
X2483957Y543807D3*
X2365194Y493802D3*
X2721482Y303556D3*
X2483957Y543807D3*
X2721482Y303556D3*
X3259038Y3037819D3*
X3027764Y2844049D3*
X665016Y3050320D3*
X1690123Y2331531D3*
X1033804Y3044070D3*
X1690123Y2381531D3*
X1527606Y2531516D3*
Y2969062D3*
X1746379Y3037819D3*
X1683873Y2481531D3*
X2096416Y3037819D3*
X2152672Y2650278D3*
X2465205Y3037819D3*
X1977654Y2581531D3*
X2821492Y3037819D3*
Y2719035D3*
X2310756Y840000D3*
X1164756Y696000D3*
D3*
X2577717Y1862696D3*
X2727732Y1423623D3*
X2959007Y2118972D3*
X1471157Y2037714D3*
X1646369Y1987709D3*
X702315Y3287844D3*
X1071104Y3288050D3*
X1421140D3*
X1777428Y3287845D3*
X833783Y3050320D3*
X702315Y3287844D3*
X1208823Y3044070D3*
X2133715Y3294301D3*
X2271434Y3037819D3*
X1527606Y3081573D3*
X2640223Y3037819D3*
X2465205Y3281594D3*
X2990260Y3044070D3*
X2821492Y3294096D3*
X3190281Y3269093D3*
X3346547Y3037819D3*
X1908896D3*
X2665226Y235672D3*
X912756Y1590000D3*
X1068756Y1476000D3*
X2335932Y1447824D3*
X1246327Y1843944D3*
X1196322Y1987709D3*
X879756Y891000D3*
X789756Y1320000D3*
X888756Y1998000D3*
X984756D3*
X1308833Y1812690D3*
X1133815Y2081469D3*
X819756Y2049000D3*
X1467756Y216000D3*
X1341756Y459000D3*
Y627000D3*
X1245756Y945000D3*
X489793Y3275549D3*
X2340192Y2681531D3*
X2247756Y717000D3*
X849756Y1101000D3*
X2286756Y969000D3*
X1155756Y1167000D3*
X502294Y2906760D3*
X2352693Y2631526D3*
X502294Y2531720D3*
X2358944Y2581521D3*
X502294Y2169182D3*
X2371445Y2531516D3*
X502294Y1912701D3*
X2377696Y2481510D3*
X502294Y1550163D3*
X2377696Y2431505D3*
X508545Y1168873D3*
X2383946Y2381500D3*
X496043Y806335D3*
X2390197Y2331495D3*
X2777738Y568810D3*
X2696479Y550058D3*
X2571756Y894000D3*
X1029756Y1233000D3*
X999756Y933000D3*
X855756Y1320000D3*
X946295Y2681531D3*
X577507Y3050320D3*
X946295Y3044070D3*
X1102556Y2631531D3*
X1308833Y3037819D3*
X1158818Y2581521D3*
X1665121Y3037819D3*
X1158818Y2531516D3*
X2015157Y3037819D3*
X1158818Y2481510D3*
X2377696Y3037819D3*
X1771382Y2794043D3*
X2733983Y3037819D3*
Y2800294D3*
X1302756Y657000D3*
X1296756Y900000D3*
X2541756Y645000D3*
X2583756D3*
X2541756Y597000D3*
X2586756D3*
X523745Y3869291D2*
D21*
X3425293D1*
X523745Y3844423D2*
X3425293D1*
X523745Y3819554D2*
X3425293D1*
X523745Y3794685D2*
X3425293D1*
X523745Y3769816D2*
X3425293D1*
X523745Y3744948D2*
X3425293D1*
X523745Y3720079D2*
X3425293D1*
X523745Y3695210D2*
X598803D1*
X693728D2*
X748799D1*
X843724D2*
X955062D1*
X1050022D2*
X1105093D1*
X1200018D2*
X1311356D1*
X1406318D2*
X1461352D1*
X1556312D2*
X1667650D1*
X1762612D2*
X1817646D1*
X1912608D2*
X2023944D1*
X2118906D2*
X2173940D1*
X2268902D2*
X2380238D1*
X2475164D2*
X2530234D1*
X2625159D2*
X2736496D1*
X2831458D2*
X2886528D1*
X2981453D2*
X3092790D1*
X3187752D2*
X3242786D1*
X3337748D2*
X3425293D1*
X523745Y3670341D2*
X583480D1*
X709051D2*
X733476D1*
X859047D2*
X939774D1*
X1065345D2*
X1089770D1*
X1215341D2*
X1296068D1*
X1421604D2*
X1446064D1*
X1571635D2*
X1652327D1*
X1777898D2*
X1802358D1*
X1927894D2*
X2008621D1*
X2134192D2*
X2158617D1*
X2284188D2*
X2364915D1*
X2490486D2*
X2514911D1*
X2640482D2*
X2721209D1*
X2846780D2*
X2871205D1*
X2996776D2*
X3077503D1*
X3203073D2*
X3227499D1*
X3353070D2*
X3425293D1*
X523745Y3645472D2*
X580466D1*
X712066D2*
X730462D1*
X862062D2*
X936724D1*
X1068360D2*
X1086756D1*
X1218356D2*
X1293018D1*
X1424654D2*
X1443014D1*
X1574650D2*
X1649312D1*
X1780948D2*
X1799308D1*
X1930944D2*
X2005606D1*
X2137206D2*
X2155602D1*
X2287238D2*
X2361900D1*
X2493500D2*
X2511896D1*
X2643496D2*
X2718196D1*
X2849794D2*
X2868190D1*
X2999790D2*
X3074453D1*
X3206088D2*
X3224449D1*
X3356084D2*
X3425293D1*
X523745Y3620604D2*
X587678D1*
X704853D2*
X735055D1*
X854849D2*
X943972D1*
X1061147D2*
X1093969D1*
X1211143D2*
X1300268D1*
X1417406D2*
X1450262D1*
X1567437D2*
X1656525D1*
X1773699D2*
X1806558D1*
X1923696D2*
X2012819D1*
X2129993D2*
X2162815D1*
X2279990D2*
X2369114D1*
X2486287D2*
X2519109D1*
X2636283D2*
X2725408D1*
X2842581D2*
X2875403D1*
X2992577D2*
X3081702D1*
X3198875D2*
X3231698D1*
X3348871D2*
X3425293D1*
X512945Y3595735D2*
X611434D1*
X681097D2*
X725259D1*
X831093D2*
X967728D1*
X1037391D2*
X1117724D1*
X1187387D2*
X1323987D1*
X1393686D2*
X1473983D1*
X1543681D2*
X1680281D1*
X1749980D2*
X1828877D1*
X1899976D2*
X2036575D1*
X2106238D2*
X2186571D1*
X2257669D2*
X2392869D1*
X2462533D2*
X2542865D1*
X2623760D2*
X2749163D1*
X2818827D2*
X2899159D1*
X2968822D2*
X3105421D1*
X3175121D2*
X3206794D1*
X3336312D2*
X3443020D1*
X491378Y3570866D2*
X700391D1*
X859980D2*
X1100213D1*
X1216274D2*
X1456507D1*
X1572533D2*
X1806736D1*
X1928827D2*
X2169202D1*
X2285121D2*
X2488105D1*
X2641415D2*
X2850608D1*
X2997709D2*
X3186340D1*
X3354003D2*
X3467026D1*
X469811Y3545997D2*
X663215D1*
X859980D2*
X1025753D1*
X1216274D2*
X1382047D1*
X1572533D2*
X1738341D1*
X1928827D2*
X2094635D1*
X2285121D2*
X2450929D1*
X2641415D2*
X2807188D1*
X2997709D2*
X3163482D1*
X3266661D2*
X3276409D1*
X3354003D2*
X3491033D1*
X448281Y3521129D2*
X663215D1*
X766394D2*
X782387D1*
X859980D2*
X1025753D1*
X1216274D2*
X1382047D1*
X1572533D2*
X1738341D1*
X1841521D2*
X1851197D1*
X1928827D2*
X2094635D1*
X2285121D2*
X2450929D1*
X2554109D2*
X2563822D1*
X2641415D2*
X2807188D1*
X2910367D2*
X2920115D1*
X2997709D2*
X3163482D1*
X3266661D2*
X3276409D1*
X3354003D2*
X3515039D1*
X426715Y3496260D2*
X663215D1*
X766394D2*
X782387D1*
X859980D2*
X1025753D1*
X1128932D2*
X1138664D1*
X1216274D2*
X1382047D1*
X1485226D2*
X1494975D1*
X1572533D2*
X1738341D1*
X1841521D2*
X1851234D1*
X1928827D2*
X2094635D1*
X2197815D2*
X2207528D1*
X2285121D2*
X2450929D1*
X2554109D2*
X2563822D1*
X2641415D2*
X2807188D1*
X2910367D2*
X2920115D1*
X2997709D2*
X3163482D1*
X3266661D2*
X3276409D1*
X3354003D2*
X3539081D1*
X405184Y3471391D2*
X575909D1*
X897371D2*
X919680D1*
X1253665D2*
X1282218D1*
X1966253D2*
X1982282D1*
X2322512D2*
X2338576D1*
X2678806D2*
X2694870D1*
X3035100D2*
X3069896D1*
X3391394D2*
X3563088D1*
X383618Y3446522D2*
X551041D1*
X3035100D2*
X3045028D1*
X3391394D2*
X3587094D1*
X362051Y3421654D2*
X526173D1*
X608934D2*
X626112D1*
X952741D2*
X994892D1*
X1315278D2*
X1344944D1*
X1651370D2*
X1701238D1*
X2026396D2*
X2057531D1*
X2376446D2*
X2413789D1*
X2738984D2*
X2770084D1*
X3102957D2*
X3126378D1*
X3419707D2*
X3894119D1*
X42503Y3396785D2*
X505253D1*
X584067D2*
X626112D1*
X703705D2*
X753787D1*
X938782D2*
X994892D1*
X1072487D2*
X1110081D1*
X1170055D2*
X1184864D1*
X1295076D2*
X1344944D1*
X1422537D2*
X1466339D1*
X1526349D2*
X1543059D1*
X1651370D2*
X1701238D1*
X1778831D2*
X1828877D1*
X1888887D2*
X1899245D1*
X2026396D2*
X2057531D1*
X2135125D2*
X2178928D1*
X2238938D2*
X2260169D1*
X2376446D2*
X2413789D1*
X2491383D2*
X2541466D1*
X2601476D2*
X2615350D1*
X2738984D2*
X2770084D1*
X2847677D2*
X2897760D1*
X2957770D2*
X2968199D1*
X3095278D2*
X3126378D1*
X3203971D2*
X3254054D1*
X3314028D2*
X3328836D1*
X3431226D2*
X3894119D1*
X42575Y3371916D2*
X363403D1*
X563756D2*
X588719D1*
X666314D2*
X738428D1*
X938782D2*
X957501D1*
X1035094D2*
X1094723D1*
X1295076D2*
X1307551D1*
X1385146D2*
X1451017D1*
X1651370D2*
X1663845D1*
X1741404D2*
X1807311D1*
X2097698D2*
X2163605D1*
X2453992D2*
X2519864D1*
X2810286D2*
X2876157D1*
X3166580D2*
X3232451D1*
X3424264D2*
X3894119D1*
X42610Y3347047D2*
X264542D1*
X315402D2*
X363403D1*
X563756D2*
X588719D1*
X666314D2*
X738428D1*
X938782D2*
X957501D1*
X1035094D2*
X1094723D1*
X1295076D2*
X1307551D1*
X1385146D2*
X1451017D1*
X1651370D2*
X1663845D1*
X1741404D2*
X1807311D1*
X2001420D2*
X2020104D1*
X2097698D2*
X2163605D1*
X2453992D2*
X2519864D1*
X2722047D2*
X2732692D1*
X2810286D2*
X2876157D1*
X3078341D2*
X3088986D1*
X3166580D2*
X3232451D1*
X3410449D2*
X3615264D1*
X3690382D2*
X3894119D1*
X42682Y3322178D2*
X234076D1*
X345867D2*
X355682D1*
X563756D2*
X588719D1*
X666314D2*
X738428D1*
X938782D2*
X957501D1*
X1035094D2*
X1094723D1*
X1295076D2*
X1307551D1*
X1385146D2*
X1451017D1*
X1651370D2*
X1663845D1*
X1741404D2*
X1807311D1*
X2001420D2*
X2020104D1*
X2097698D2*
X2163605D1*
X2357678D2*
X2376398D1*
X2453992D2*
X2519864D1*
X2713972D2*
X2732692D1*
X2810286D2*
X2876157D1*
X3070266D2*
X3088986D1*
X3166580D2*
X3232451D1*
X3410449D2*
X3593374D1*
X3712270D2*
X3894119D1*
X42718Y3297310D2*
X224675D1*
X563756D2*
X588719D1*
X666314D2*
X738428D1*
X938782D2*
X957501D1*
X1035094D2*
X1094723D1*
X1295076D2*
X1307551D1*
X1385146D2*
X1451017D1*
X1651370D2*
X1663845D1*
X1741762D2*
X1807311D1*
X2001420D2*
X2020104D1*
X2097698D2*
X2163605D1*
X2357678D2*
X2376398D1*
X2453992D2*
X2519864D1*
X2713972D2*
X2732692D1*
X2810286D2*
X2876157D1*
X3070266D2*
X3088986D1*
X3166580D2*
X3232451D1*
X3410449D2*
X3586915D1*
X3718766D2*
X3894119D1*
X42790Y3272441D2*
X225858D1*
X405722D2*
X448915D1*
X563756D2*
X602248D1*
X684291D2*
X738428D1*
X938782D2*
X967871D1*
X1046829D2*
X1094723D1*
X1295076D2*
X1326606D1*
X1409367D2*
X1451017D1*
X1651370D2*
X1686668D1*
X1758879D2*
X1807311D1*
X2001420D2*
X2030475D1*
X2109467D2*
X2163605D1*
X2357678D2*
X2395453D1*
X2478249D2*
X2519864D1*
X2713972D2*
X2751747D1*
X2834543D2*
X2876157D1*
X3070266D2*
X3099357D1*
X3178314D2*
X3232451D1*
X3410449D2*
X3590647D1*
X3731433D2*
X3894119D1*
X42825Y3247572D2*
X238382D1*
X341597D2*
X460828D1*
X3402088D2*
X3607118D1*
X3756301D2*
X3894119D1*
X42898Y3222703D2*
X503745D1*
X3402088D2*
X3667260D1*
X3781168D2*
X3894119D1*
X42933Y3197835D2*
X266696D1*
X313249D2*
X503745D1*
X3402088D2*
X3616484D1*
X3800331D2*
X3894119D1*
X43005Y3172966D2*
X234579D1*
X345365D2*
X503745D1*
X3560660D2*
X3593769D1*
X3802340D2*
X3894119D1*
X43041Y3148097D2*
X224818D1*
X355126D2*
X503745D1*
X801812D2*
X860039D1*
X1176837D2*
X1235066D1*
X1533131D2*
X1591360D1*
X1883182D2*
X1935167D1*
X2239440D2*
X2297703D1*
X2608257D2*
X2653962D1*
X2958272D2*
X3004012D1*
X3314567D2*
X3382663D1*
X3802340D2*
X3894119D1*
X43077Y3123228D2*
X225680D1*
X354265D2*
X503745D1*
X801812D2*
X860039D1*
X1176837D2*
X1235066D1*
X1533131D2*
X1591360D1*
X1883182D2*
X1935167D1*
X2239440D2*
X2297703D1*
X2608257D2*
X2653962D1*
X2958272D2*
X3004012D1*
X3314567D2*
X3382663D1*
X3802340D2*
X3894119D1*
X43148Y3098360D2*
X237736D1*
X342207D2*
X503745D1*
X801812D2*
X860039D1*
X1176837D2*
X1235066D1*
X1533131D2*
X1591360D1*
X1883182D2*
X1935167D1*
X2239440D2*
X2297703D1*
X2608257D2*
X2653962D1*
X2958272D2*
X3004012D1*
X3314567D2*
X3382663D1*
X3560660D2*
X3606293D1*
X3699388D2*
X3720332D1*
X3802340D2*
X3894119D1*
X43185Y3073491D2*
X503745D1*
X610765D2*
X631781D1*
X698251D2*
X716287D1*
X776262D2*
X860039D1*
X976281D2*
X1003793D1*
X1063802D2*
X1091314D1*
X1151324D2*
X1235066D1*
X1338819D2*
X1353843D1*
X1413853D2*
X1448828D1*
X1527067D2*
X1591360D1*
X1695113D2*
X1716381D1*
X1776391D2*
X1797622D1*
X1857633D2*
X1935167D1*
X2045163D2*
X2066430D1*
X2126406D2*
X2153916D1*
X2213927D2*
X2297703D1*
X2407701D2*
X2435213D1*
X2495223D2*
X2522698D1*
X2582709D2*
X2653962D1*
X2763995D2*
X2791507D1*
X2851480D2*
X2872748D1*
X2932759D2*
X3004012D1*
X3107765D2*
X3135277D1*
X3195287D2*
X3229042D1*
X3289052D2*
X3404265D1*
X3464276D2*
X3720332D1*
X3802340D2*
X3894119D1*
X43256Y3048622D2*
X503745D1*
X705966D2*
X716253D1*
X776262D2*
X860039D1*
X1074531D2*
X1090739D1*
X1151324D2*
X1235066D1*
X1433194D2*
X1469175D1*
X1551936D2*
X1591360D1*
X1785828D2*
X1797622D1*
X1857633D2*
X1935167D1*
X2135878D2*
X2153916D1*
X2213927D2*
X2297703D1*
X2417139D2*
X2425766D1*
X2504660D2*
X2522698D1*
X2582709D2*
X2653962D1*
X2773433D2*
X2782047D1*
X2860954D2*
X2872748D1*
X2932759D2*
X3004012D1*
X3107765D2*
X3135277D1*
X3195287D2*
X3219568D1*
X3298491D2*
X3404265D1*
X3464276D2*
X3720332D1*
X3802340D2*
X3894119D1*
X43293Y3023753D2*
X503745D1*
X607858D2*
X634651D1*
X695379D2*
X716287D1*
X776262D2*
X860039D1*
X981484D2*
X998589D1*
X1147449D2*
X1235066D1*
X1347180D2*
X1375265D1*
X1458062D2*
X1494042D1*
X1784715D2*
X1797622D1*
X1857633D2*
X1935167D1*
X2134766D2*
X2153916D1*
X2213927D2*
X2297703D1*
X2416026D2*
X2426852D1*
X2503547D2*
X2522698D1*
X2582709D2*
X2653962D1*
X2772320D2*
X2783148D1*
X2859843D2*
X2872748D1*
X2932759D2*
X3004012D1*
X3107765D2*
X3135277D1*
X3195287D2*
X3220717D1*
X3297378D2*
X3397339D1*
X3464276D2*
X3720332D1*
X3802340D2*
X3894119D1*
X43364Y2998885D2*
X375891D1*
X776227D2*
X859717D1*
X1123765D2*
X1235066D1*
X1295076D2*
X1400133D1*
X1482929D2*
X1500752D1*
X1651370D2*
X1797335D1*
X1857633D2*
X1935167D1*
X1995140D2*
X2153593D1*
X2213927D2*
X2297703D1*
X2357678D2*
X2522698D1*
X2582709D2*
X2653962D1*
X2713972D2*
X2872425D1*
X2932759D2*
X3004012D1*
X3107765D2*
X3135277D1*
X3195287D2*
X3372471D1*
X3455268D2*
X3632954D1*
X3672690D2*
X3720332D1*
X3802340D2*
X3894119D1*
X43400Y2974016D2*
X240285D1*
X339696D2*
X375891D1*
X761335D2*
X834849D1*
X1098898D2*
X1235066D1*
X1295076D2*
X1425000D1*
X1853937D2*
X1935167D1*
X2210231D2*
X2297703D1*
X2581668D2*
X2653962D1*
X2929026D2*
X3004012D1*
X3107765D2*
X3135277D1*
X3195287D2*
X3347604D1*
X3430400D2*
X3598147D1*
X3802340D2*
X3894119D1*
X43471Y2949147D2*
X226469D1*
X588768D2*
X809982D1*
X1830361D2*
X1935167D1*
X2186655D2*
X2297703D1*
X2561680D2*
X2653962D1*
X2905450D2*
X3004012D1*
X3107765D2*
X3135277D1*
X3195287D2*
X3322736D1*
X3405533D2*
X3587848D1*
X3802340D2*
X3894119D1*
X43508Y2924278D2*
X224387D1*
X588768D2*
X785114D1*
X1995140D2*
X2297703D1*
X2357678D2*
X2653962D1*
X2713972D2*
X3004012D1*
X3107765D2*
X3135277D1*
X3195287D2*
X3297867D1*
X3380665D2*
X3588278D1*
X3802340D2*
X3894119D1*
X43579Y2899409D2*
X232713D1*
X408198D2*
X462013D1*
X588768D2*
X760245D1*
X2357678D2*
X2641690D1*
X2713972D2*
X3004012D1*
X3107765D2*
X3135277D1*
X3195287D2*
X3273000D1*
X3355797D2*
X3599761D1*
X3802340D2*
X3894119D1*
X43615Y2874541D2*
X259482D1*
X320462D2*
X478735D1*
X588768D2*
X735378D1*
X3107765D2*
X3135277D1*
X3195287D2*
X3248133D1*
X3330929D2*
X3644904D1*
X3660773D2*
X3720332D1*
X3802340D2*
X3894119D1*
X43686Y2849672D2*
X528757D1*
X588768D2*
X710510D1*
X3107765D2*
X3135277D1*
X3195287D2*
X3223265D1*
X3306062D2*
X3636005D1*
X3669640D2*
X3720332D1*
X3802340D2*
X3894119D1*
X43723Y2824803D2*
X241001D1*
X338978D2*
X528757D1*
X588768D2*
X685643D1*
X3107765D2*
X3135277D1*
X3281194D2*
X3382663D1*
X3560660D2*
X3598720D1*
X3706924D2*
X3720332D1*
X3802340D2*
X3894119D1*
X43794Y2799934D2*
X226684D1*
X353260D2*
X528757D1*
X588768D2*
X660776D1*
X893568D2*
X1435837D1*
X1811916D2*
X1942164D1*
X2774976D2*
X3029777D1*
X3106976D2*
X3135277D1*
X3802340D2*
X3894119D1*
X43831Y2775066D2*
X224316D1*
X355629D2*
X528757D1*
X588768D2*
X635907D1*
X868701D2*
X1410970D1*
X3802340D2*
X3894119D1*
X43902Y2750197D2*
X232247D1*
X347698D2*
X528757D1*
X588768D2*
X611039D1*
X843832D2*
X1386102D1*
X3706493D2*
X3720332D1*
X3802340D2*
X3894119D1*
X43938Y2725328D2*
X257940D1*
X322004D2*
X528757D1*
X818965D2*
X1361235D1*
X3250478D2*
X3382663D1*
X3560660D2*
X3638983D1*
X3666661D2*
X3720332D1*
X3802340D2*
X3894119D1*
X44009Y2700459D2*
X528757D1*
X794097D2*
X910278D1*
X1305446D2*
X1336366D1*
X3225609D2*
X3720332D1*
X3802340D2*
X3894119D1*
X44046Y2675591D2*
X528757D1*
X769230D2*
X905756D1*
X1305446D2*
X1313239D1*
X1513037D2*
X1544782D1*
X2050618D2*
X2121154D1*
X2184178D2*
X2299642D1*
X2530568D2*
X2769904D1*
X3200741D2*
X3720332D1*
X3802340D2*
X3894119D1*
X44117Y2650722D2*
X528757D1*
X744361D2*
X920720D1*
X971867D2*
X1066697D1*
X1488169D2*
X1544782D1*
X2025749D2*
X2111680D1*
X2193652D2*
X2314605D1*
X2530568D2*
X2769904D1*
X3175874D2*
X3720332D1*
X3802340D2*
X3894119D1*
X44154Y2625853D2*
X249112D1*
X330832D2*
X375891D1*
X720031D2*
X1061961D1*
X1470083D2*
X1544782D1*
X2000882D2*
X2120400D1*
X2184932D2*
X2312130D1*
X2530568D2*
X2769904D1*
X3151007D2*
X3604857D1*
X3700787D2*
X3720332D1*
X3802340D2*
X3894119D1*
X44226Y2600984D2*
X229411D1*
X720031D2*
X1076636D1*
X1470083D2*
X1544782D1*
X2013370D2*
X2122661D1*
X2182672D2*
X2323218D1*
X2530568D2*
X2769904D1*
X3299710D2*
X3589894D1*
X3802340D2*
X3894119D1*
X44261Y2576115D2*
X223992D1*
X720031D2*
X1118190D1*
X1470083D2*
X1544782D1*
X2018286D2*
X2099623D1*
X2180088D2*
X2318337D1*
X2530568D2*
X2769904D1*
X3324577D2*
X3587059D1*
X3802340D2*
X3894119D1*
X44333Y2551247D2*
X228694D1*
X720031D2*
X1123251D1*
X1470083D2*
X1492033D1*
X2157552D2*
X2332655D1*
X2530568D2*
X2769904D1*
X3224425D2*
X3266685D1*
X3349446D2*
X3594522D1*
X3802340D2*
X3894119D1*
X44369Y2526378D2*
X246923D1*
X333021D2*
X461654D1*
X720031D2*
X1118155D1*
X1470083D2*
X1486937D1*
X2132685D2*
X2330789D1*
X2530568D2*
X2769904D1*
X3249329D2*
X3291552D1*
X3374314D2*
X3618852D1*
X3686829D2*
X3720332D1*
X3802340D2*
X3894119D1*
X44441Y2501509D2*
X475936D1*
X720031D2*
X1123430D1*
X1470083D2*
X1497594D1*
X1719299D2*
X2342308D1*
X2530568D2*
X2769904D1*
X3274197D2*
X3316420D1*
X3399181D2*
X3720332D1*
X3802340D2*
X3894119D1*
X44476Y2476640D2*
X250152D1*
X329791D2*
X528757D1*
X720031D2*
X1118119D1*
X1470083D2*
X1497594D1*
X1724573D2*
X2336997D1*
X2530568D2*
X2769904D1*
X3299064D2*
X3341287D1*
X3566904D2*
X3605647D1*
X3699999D2*
X3720332D1*
X3802340D2*
X3894119D1*
X44512Y2451772D2*
X229770D1*
X350173D2*
X528757D1*
X720031D2*
X1131862D1*
X1470083D2*
X1497594D1*
X1710794D2*
X2342451D1*
X2530568D2*
X2769904D1*
X3323932D2*
X3366156D1*
X3802340D2*
X3894119D1*
X44584Y2426903D2*
X223992D1*
X355951D2*
X528757D1*
X720031D2*
X1174709D1*
X1351881D2*
X1360100D1*
X1470083D2*
X1503587D1*
X1675520D2*
X2336962D1*
X2530568D2*
X2769904D1*
X3348799D2*
X3388907D1*
X3802340D2*
X3894119D1*
X44619Y2402034D2*
X228370D1*
X351573D2*
X528757D1*
X720031D2*
X1174709D1*
X1470083D2*
X1544782D1*
X1725219D2*
X2348875D1*
X2530568D2*
X2769904D1*
X3373668D2*
X3388907D1*
X3711552D2*
X3720348D1*
X3802340D2*
X3894119D1*
X44692Y2377165D2*
X245990D1*
X333954D2*
X528757D1*
X720031D2*
X1174709D1*
X1467966D2*
X1544782D1*
X1730890D2*
X2343205D1*
X2530568D2*
X2769904D1*
X3566904D2*
X3617488D1*
X3688156D2*
X3720332D1*
X3802340D2*
X3894119D1*
X44727Y2352297D2*
X528757D1*
X720031D2*
X1174709D1*
X1446041D2*
X1544782D1*
X1725041D2*
X2355298D1*
X2530568D2*
X2769904D1*
X3423403D2*
X3720332D1*
X3802340D2*
X3894119D1*
X44799Y2327428D2*
X528757D1*
X720031D2*
X1174709D1*
X1421173D2*
X1544782D1*
X1730890D2*
X2349413D1*
X2530568D2*
X2769904D1*
X3438976D2*
X3720332D1*
X3802340D2*
X3894119D1*
X44835Y2302559D2*
X528757D1*
X720031D2*
X1174709D1*
X1374811D2*
X1544782D1*
X1717971D2*
X2273051D1*
X2682358D2*
X2769904D1*
X2900642D2*
X3159068D1*
X3439049D2*
X3720332D1*
X3802340D2*
X3894119D1*
X44907Y2277690D2*
X263322D1*
X316622D2*
X375891D1*
X720031D2*
X1174709D1*
X1380911D2*
X1544782D1*
X1675520D2*
X2248184D1*
X2707227D2*
X2769904D1*
X2900642D2*
X3183936D1*
X3439049D2*
X3614546D1*
X3691098D2*
X3720332D1*
X3802340D2*
X3894119D1*
X44942Y2252822D2*
X233753D1*
X346190D2*
X375891D1*
X720031D2*
X1174709D1*
X1368280D2*
X1544782D1*
X1675520D2*
X2223316D1*
X2731017D2*
X2769904D1*
X2900642D2*
X3208803D1*
X3439049D2*
X3593123D1*
X3802340D2*
X3894119D1*
X45014Y2227953D2*
X224602D1*
X720031D2*
X1544782D1*
X1675520D2*
X2198449D1*
X2312357D2*
X2643054D1*
X2737476D2*
X2769904D1*
X2900642D2*
X3233671D1*
X3439049D2*
X3586879D1*
X3802340D2*
X3894119D1*
X45050Y2203084D2*
X226003D1*
X720031D2*
X1009534D1*
X1474605D2*
X1544782D1*
X1849487D2*
X2173580D1*
X2287490D2*
X2311915D1*
X2530568D2*
X2655470D1*
X2737476D2*
X2769904D1*
X2962112D2*
X3247774D1*
X3439049D2*
X3590827D1*
X3802340D2*
X3894119D1*
X45122Y2178215D2*
X238777D1*
X341167D2*
X375891D1*
X720031D2*
X982764D1*
X1499472D2*
X1544782D1*
X1855982D2*
X2148713D1*
X2262621D2*
X2287046D1*
X2530568D2*
X2655470D1*
X2737476D2*
X2769904D1*
X2968606D2*
X3247774D1*
X3439049D2*
X3607656D1*
X3698025D2*
X3720332D1*
X3802340D2*
X3894119D1*
X45157Y2153346D2*
X464703D1*
X720031D2*
X957717D1*
X1524340D2*
X1544782D1*
X2237753D2*
X2262323D1*
X2530568D2*
X2655470D1*
X2737476D2*
X2769904D1*
X2956550D2*
X3247774D1*
X3439049D2*
X3720332D1*
X3802340D2*
X3894119D1*
X45230Y2128478D2*
X265331D1*
X314613D2*
X528757D1*
X720031D2*
X934285D1*
X1437214D2*
X1449474D1*
X1549100D2*
X1736762D1*
X2212886D2*
X2254176D1*
X2530568D2*
X2655470D1*
X2737476D2*
X3247774D1*
X3439049D2*
X3615730D1*
X3689915D2*
X3720332D1*
X3802340D2*
X3894119D1*
X45265Y2103609D2*
X234256D1*
X345688D2*
X528757D1*
X720031D2*
X930768D1*
X1437357D2*
X1474341D1*
X1557353D2*
X1748568D1*
X2187982D2*
X2254176D1*
X2530568D2*
X2655470D1*
X2737476D2*
X3247774D1*
X3712127D2*
X3720325D1*
X3802340D2*
X3894119D1*
X45337Y2078740D2*
X224747D1*
X355234D2*
X528757D1*
X720031D2*
X792793D1*
X846703D2*
X907119D1*
X1437357D2*
X1485358D1*
X1557353D2*
X2254176D1*
X2530568D2*
X2655470D1*
X2737476D2*
X3247774D1*
X3802340D2*
X3894119D1*
X45374Y2053871D2*
X225787D1*
X354156D2*
X528757D1*
X720031D2*
X779050D1*
X1031004D2*
X1104483D1*
X1437357D2*
X1485358D1*
X1557353D2*
X2254176D1*
X2530568D2*
X2655470D1*
X2900642D2*
X3247774D1*
X3802340D2*
X3894119D1*
X45445Y2029003D2*
X238131D1*
X341812D2*
X528757D1*
X720031D2*
X758381D1*
X1010084D2*
X1158381D1*
X1437357D2*
X1485358D1*
X1557353D2*
X2254176D1*
X2530568D2*
X2655470D1*
X2900642D2*
X3247774D1*
X3560660D2*
X3606795D1*
X3698850D2*
X3720332D1*
X3802340D2*
X3894119D1*
X45482Y2004134D2*
X528757D1*
X720031D2*
X733512D1*
X1447942D2*
X1485358D1*
X1557353D2*
X2254176D1*
X2530568D2*
X2644668D1*
X2900642D2*
X3247774D1*
X3407794D2*
X3720332D1*
X3802340D2*
X3894119D1*
X45552Y1979265D2*
X528757D1*
X1236370D2*
X1304071D1*
X1447942D2*
X1485358D1*
X1557353D2*
X2254176D1*
X2426181D2*
X2644668D1*
X2747848D2*
X3247774D1*
X3407794D2*
X3720332D1*
X3802340D2*
X3894119D1*
X45589Y1954396D2*
X528757D1*
X931533D2*
X1174529D1*
X1218140D2*
X1304071D1*
X1447942D2*
X1485358D1*
X1567042D2*
X2250768D1*
X2426181D2*
X2644668D1*
X2747848D2*
X3247774D1*
X3407794D2*
X3720332D1*
X3802340D2*
X3894119D1*
X45660Y1929528D2*
X465171D1*
X906665D2*
X1304071D1*
X1447942D2*
X1492499D1*
X2426181D2*
X2644668D1*
X2747848D2*
X3247774D1*
X3407794D2*
X3631304D1*
X3674377D2*
X3720332D1*
X3802340D2*
X3894119D1*
X45697Y1904659D2*
X239818D1*
X340126D2*
X462156D1*
X885745D2*
X1304071D1*
X2426181D2*
X2644668D1*
X2747848D2*
X3247774D1*
X3407794D2*
X3597824D1*
X3802340D2*
X3894119D1*
X45768Y1879790D2*
X226325D1*
X885745D2*
X1229790D1*
X1262888D2*
X1305039D1*
X2426146D2*
X2655290D1*
X2737261D2*
X3247774D1*
X3407794D2*
X3587777D1*
X3802340D2*
X3894119D1*
X45804Y1854921D2*
X224459D1*
X885745D2*
X1206932D1*
X1285747D2*
X1301201D1*
X2413550D2*
X2655290D1*
X2737261D2*
X3247774D1*
X3407794D2*
X3588386D1*
X3802340D2*
X3894119D1*
X45840Y1830052D2*
X233000D1*
X885745D2*
X955240D1*
X1062367D2*
X1096983D1*
X2388682D2*
X2626080D1*
X2737261D2*
X3247774D1*
X3407794D2*
X3600121D1*
X3705525D2*
X3720332D1*
X3802340D2*
X3894119D1*
X45912Y1805184D2*
X260522D1*
X319421D2*
X375891D1*
X885745D2*
X955240D1*
X1062367D2*
X1096983D1*
X1204110D2*
X1213274D1*
X3199521D2*
X3247774D1*
X3407794D2*
X3720332D1*
X3802340D2*
X3894119D1*
X45948Y1780315D2*
X528757D1*
X885745D2*
X955240D1*
X1062367D2*
X1096983D1*
X1204110D2*
X1235066D1*
X1382597D2*
X1595343D1*
X3229593D2*
X3247774D1*
X3407794D2*
X3634031D1*
X3671650D2*
X3720332D1*
X3802340D2*
X3894119D1*
X46020Y1755446D2*
X240535D1*
X339408D2*
X528757D1*
X885745D2*
X955240D1*
X1062367D2*
X1096983D1*
X1204110D2*
X1259933D1*
X1357730D2*
X2257262D1*
X3554416D2*
X3598362D1*
X3707283D2*
X3720332D1*
X3802340D2*
X3894119D1*
X46055Y1730577D2*
X226541D1*
X353403D2*
X528757D1*
X885745D2*
X955240D1*
X1062367D2*
X1096983D1*
X1204110D2*
X2238495D1*
X3802340D2*
X3894119D1*
X46127Y1705709D2*
X224352D1*
X355592D2*
X528757D1*
X885745D2*
X955240D1*
X1062367D2*
X1096983D1*
X1204110D2*
X1288677D1*
X2331232D2*
X2447018D1*
X2626990D2*
X2680480D1*
X2762488D2*
X2855451D1*
X2962579D2*
X3026189D1*
X3802340D2*
X3894119D1*
X46163Y1680840D2*
X232533D1*
X347411D2*
X528757D1*
X885745D2*
X1263808D1*
X2331232D2*
X2447018D1*
X2626990D2*
X2680480D1*
X2762488D2*
X2855451D1*
X2962579D2*
X3026189D1*
X3706135D2*
X3720332D1*
X3802340D2*
X3894119D1*
X46235Y1655971D2*
X258908D1*
X321035D2*
X528757D1*
X885745D2*
X1238941D1*
X2331232D2*
X2447018D1*
X2626990D2*
X2665948D1*
X2777021D2*
X2855451D1*
X2962579D2*
X3026189D1*
X3370294D2*
X3642177D1*
X3663469D2*
X3720332D1*
X3802340D2*
X3894119D1*
X46270Y1631102D2*
X528757D1*
X885745D2*
X1214073D1*
X1327946D2*
X2224142D1*
X2331232D2*
X2496000D1*
X2578008D2*
X2665948D1*
X2777021D2*
X2855451D1*
X2962579D2*
X3026189D1*
X3370294D2*
X3720332D1*
X3802340D2*
X3894119D1*
X46343Y1606234D2*
X528757D1*
X885745D2*
X1189385D1*
X1303079D2*
X2224142D1*
X2331232D2*
X2496000D1*
X2578008D2*
X2665948D1*
X2777021D2*
X2855451D1*
X2962579D2*
X3101151D1*
X3370294D2*
X3720332D1*
X3802340D2*
X3894119D1*
X46378Y1581365D2*
X477227D1*
X885745D2*
X1096983D1*
X1278210D2*
X2496000D1*
X2578008D2*
X3101151D1*
X3370294D2*
X3720332D1*
X3802340D2*
X3894119D1*
X46450Y1556496D2*
X248466D1*
X331478D2*
X461833D1*
X885745D2*
X1096983D1*
X1262314D2*
X2496000D1*
X2578008D2*
X3101151D1*
X3370294D2*
X3604391D1*
X3701255D2*
X3720332D1*
X3802340D2*
X3894119D1*
X46486Y1531627D2*
X229196D1*
X885745D2*
X1096983D1*
X1262314D2*
X2492304D1*
X2672239D2*
X3174283D1*
X3370294D2*
X3589714D1*
X3802340D2*
X3894119D1*
X46558Y1506759D2*
X223992D1*
X885745D2*
X1096983D1*
X1262314D2*
X2492304D1*
X2672239D2*
X3174283D1*
X3370294D2*
X3587094D1*
X3802340D2*
X3894119D1*
X46593Y1481890D2*
X228909D1*
X885745D2*
X1096983D1*
X1262314D2*
X2492304D1*
X2672239D2*
X3174283D1*
X3370294D2*
X3594774D1*
X3802340D2*
X3894119D1*
X46665Y1457021D2*
X247533D1*
X332411D2*
X375891D1*
X885745D2*
X1078287D1*
X1358125D2*
X2492304D1*
X2672239D2*
X3174283D1*
X3370294D2*
X3619714D1*
X3685932D2*
X3720332D1*
X3802340D2*
X3894119D1*
X46701Y1432152D2*
X375891D1*
X885745D2*
X1078287D1*
X1464378D2*
X2083152D1*
X2194190D2*
X2492304D1*
X2672239D2*
X3174283D1*
X3370294D2*
X3720332D1*
X3802340D2*
X3894119D1*
X46773Y1407283D2*
X249507D1*
X330437D2*
X528757D1*
X885745D2*
X1078287D1*
X1464378D2*
X2083152D1*
X2194190D2*
X2529013D1*
X2671270D2*
X3174283D1*
X3560660D2*
X3605144D1*
X3700501D2*
X3720332D1*
X3802340D2*
X3894119D1*
X46808Y1382415D2*
X229555D1*
X350388D2*
X528757D1*
X885745D2*
X1078287D1*
X1464378D2*
X2083152D1*
X2194190D2*
X2512399D1*
X2696138D2*
X3174283D1*
X3802340D2*
X3894119D1*
X46881Y1357546D2*
X223992D1*
X355951D2*
X528757D1*
X885745D2*
X894883D1*
X972478D2*
X998552D1*
X1464378D2*
X2083152D1*
X2194190D2*
X2515987D1*
X2845991D2*
X3174283D1*
X3339039D2*
X3353991D1*
X3802340D2*
X3894119D1*
X46916Y1332677D2*
X228585D1*
X351394D2*
X528757D1*
X1464378D2*
X2083152D1*
X2194190D2*
X2568307D1*
X2856218D2*
X3174283D1*
X3339039D2*
X3382663D1*
X3711302D2*
X3720333D1*
X3802340D2*
X3894119D1*
X46988Y1307808D2*
X246600D1*
X333379D2*
X528757D1*
X1276846D2*
X1353304D1*
X1464378D2*
X2083152D1*
X2352332D2*
X2461659D1*
X2880619D2*
X2962458D1*
X3164534D2*
X3174283D1*
X3339039D2*
X3618349D1*
X3687331D2*
X3720332D1*
X3802340D2*
X3894119D1*
X47024Y1282940D2*
X528757D1*
X806441D2*
X842815D1*
X868701D2*
X894883D1*
X972478D2*
X998552D1*
X1106541D2*
X1353304D1*
X1464378D2*
X2083152D1*
X2377199D2*
X2461659D1*
X2632444D2*
X2647217D1*
X2880619D2*
X2962458D1*
X3339039D2*
X3720332D1*
X3802340D2*
X3894119D1*
X47096Y1258071D2*
X528757D1*
X1061470D2*
X1353304D1*
X1464378D2*
X2083152D1*
X2400453D2*
X2461659D1*
X2607576D2*
X2647217D1*
X2880619D2*
X2962458D1*
X3339039D2*
X3720332D1*
X3802340D2*
X3894119D1*
X47131Y1233202D2*
X528757D1*
X1070764D2*
X1353304D1*
X1464378D2*
X1624803D1*
X1814608D2*
X2083152D1*
X2403753D2*
X2461659D1*
X2582709D2*
X2647217D1*
X2880619D2*
X2962458D1*
X3339039D2*
X3720332D1*
X3802340D2*
X3894119D1*
X47203Y1208333D2*
X262138D1*
X317806D2*
X528757D1*
X1126850D2*
X1353304D1*
X1464378D2*
X1624803D1*
X1814608D2*
X2083152D1*
X2194190D2*
X2303014D1*
X2403753D2*
X2461659D1*
X2568785D2*
X2647217D1*
X2880619D2*
X2962458D1*
X3339039D2*
X3613828D1*
X3691816D2*
X3720332D1*
X3802340D2*
X3894119D1*
X47239Y1183465D2*
X233430D1*
X401811D2*
X470409D1*
X1193058D2*
X1353304D1*
X1464378D2*
X1624803D1*
X1814608D2*
X2083152D1*
X2194190D2*
X2325765D1*
X2403753D2*
X2461659D1*
X2568785D2*
X2749881D1*
X2880619D2*
X2962458D1*
X3339039D2*
X3592908D1*
X3802340D2*
X3894119D1*
X47276Y1158596D2*
X224531D1*
X1195820D2*
X1353304D1*
X1464378D2*
X1624803D1*
X1814608D2*
X2083152D1*
X2194190D2*
X2325765D1*
X2403753D2*
X2461659D1*
X2568785D2*
X2749881D1*
X2880619D2*
X2962458D1*
X3339039D2*
X3586879D1*
X3802340D2*
X3894119D1*
X47346Y1133727D2*
X226110D1*
X1177627D2*
X1353304D1*
X1464378D2*
X1624803D1*
X1814608D2*
X2083152D1*
X2194190D2*
X2325765D1*
X2403753D2*
X2962458D1*
X3339039D2*
X3591007D1*
X3802340D2*
X3894119D1*
X47383Y1108858D2*
X239207D1*
X340772D2*
X382134D1*
X1126850D2*
X1353304D1*
X1464378D2*
X1624803D1*
X1814608D2*
X2083152D1*
X2194190D2*
X2325765D1*
X2413299D2*
X2962458D1*
X3339039D2*
X3608194D1*
X3697450D2*
X3720332D1*
X3802340D2*
X3894119D1*
X47454Y1083990D2*
X382134D1*
X1126850D2*
X1353304D1*
X1464378D2*
X1624803D1*
X1814608D2*
X2083152D1*
X2194190D2*
X2329605D1*
X2438167D2*
X2918572D1*
X3075829D2*
X3111773D1*
X3339039D2*
X3720332D1*
X3802340D2*
X3894119D1*
X47491Y1059121D2*
X264039D1*
X315904D2*
X528757D1*
X720031D2*
X735773D1*
X1126850D2*
X1353304D1*
X1464378D2*
X2083152D1*
X2194190D2*
X2353253D1*
X2457077D2*
X2918572D1*
X3087420D2*
X3111773D1*
X3360175D2*
X3382663D1*
X3560660D2*
X3614976D1*
X3690668D2*
X3720332D1*
X3802340D2*
X3894119D1*
X47562Y1034252D2*
X233933D1*
X346010D2*
X528757D1*
X720031D2*
X735773D1*
X1053073D2*
X1353304D1*
X1464378D2*
X2083152D1*
X2194190D2*
X2378121D1*
X2457760D2*
X2918572D1*
X3087528D2*
X3111773D1*
X3712378D2*
X3720340D1*
X3802340D2*
X3894119D1*
X47598Y1009383D2*
X224675D1*
X355304D2*
X528757D1*
X720031D2*
X735773D1*
X1029138D2*
X1353304D1*
X1464378D2*
X2083152D1*
X2194190D2*
X2379772D1*
X2457760D2*
X2918572D1*
X3087528D2*
X3111773D1*
X3256290D2*
X3269986D1*
X3802340D2*
X3894119D1*
X47671Y984514D2*
X225930D1*
X354049D2*
X528757D1*
X720031D2*
X735773D1*
X843761D2*
X876762D1*
X936773D2*
X1353304D1*
X1464378D2*
X2083152D1*
X2194190D2*
X2249009D1*
X2477639D2*
X2918572D1*
X3087528D2*
X3111773D1*
X3256290D2*
X3294854D1*
X3802340D2*
X3894119D1*
X47706Y959646D2*
X238526D1*
X341417D2*
X528757D1*
X720031D2*
X735773D1*
X843761D2*
X878412D1*
X957513D2*
X969451D1*
X1030035D2*
X1207650D1*
X1464378D2*
X2083152D1*
X2194190D2*
X2246892D1*
X2502507D2*
X2918572D1*
X3087528D2*
X3111773D1*
X3256290D2*
X3319722D1*
X3560660D2*
X3607333D1*
X3698312D2*
X3720332D1*
X3802340D2*
X3894119D1*
X47778Y934777D2*
X528757D1*
X720031D2*
X735773D1*
X843761D2*
X899584D1*
X1040728D2*
X1206143D1*
X1464378D2*
X2083152D1*
X2194190D2*
X2221738D1*
X2527375D2*
X2763983D1*
X2879004D2*
X2925427D1*
X3087528D2*
X3111773D1*
X3256290D2*
X3333752D1*
X3393762D2*
X3720332D1*
X3802340D2*
X3894119D1*
X47814Y909908D2*
X528757D1*
X720031D2*
X735773D1*
X915781D2*
X924470D1*
X1464378D2*
X2083152D1*
X2194190D2*
X2221738D1*
X2609298D2*
X2763983D1*
X2879004D2*
X2925427D1*
X3087528D2*
X3111773D1*
X3256290D2*
X3333752D1*
X3393762D2*
X3720332D1*
X3802340D2*
X3894119D1*
X47886Y885039D2*
X528757D1*
X720031D2*
X735773D1*
X927119D2*
X949320D1*
X1464378D2*
X2083152D1*
X2194190D2*
X2221738D1*
X2441432D2*
X2461336D1*
X2622109D2*
X2763983D1*
X2879004D2*
X2925427D1*
X3256290D2*
X3333752D1*
X3393762D2*
X3720332D1*
X3802340D2*
X3894119D1*
X47921Y860171D2*
X528757D1*
X720031D2*
X735773D1*
X951987D2*
X974188D1*
X1056984D2*
X1118406D1*
X1464378D2*
X2083152D1*
X2194190D2*
X2238387D1*
X2441432D2*
X2486203D1*
X2641164D2*
X2763983D1*
X2879004D2*
X2925427D1*
X3262534D2*
X3333752D1*
X3393762D2*
X3629797D1*
X3675885D2*
X3720332D1*
X3802340D2*
X3894119D1*
X47993Y835302D2*
X239387D1*
X340556D2*
X468185D1*
X880829D2*
X894058D1*
X976856D2*
X999055D1*
X1211753D2*
X1284047D1*
X1464378D2*
X2083152D1*
X2494828D2*
X2511071D1*
X2641917D2*
X2763983D1*
X2879004D2*
X2925427D1*
X3163673D2*
X3177404D1*
X3287402D2*
X3333752D1*
X3393762D2*
X3597501D1*
X3708180D2*
X3720297D1*
X3802340D2*
X3894119D1*
X48029Y810433D2*
X226181D1*
X410747D2*
X455266D1*
X905697D2*
X918927D1*
X1464378D2*
X2083152D1*
X2519731D2*
X2535940D1*
X2641917D2*
X2763983D1*
X2879004D2*
X2925427D1*
X3040411D2*
X3198361D1*
X3312270D2*
X3333752D1*
X3393762D2*
X3587669D1*
X3802340D2*
X3894119D1*
X48101Y785564D2*
X224531D1*
X930600D2*
X943794D1*
X1464378D2*
X2083152D1*
X2405619D2*
X2461802D1*
X2641917D2*
X2763983D1*
X2879004D2*
X2925427D1*
X3040411D2*
X3223228D1*
X3393762D2*
X3588493D1*
X3802340D2*
X3894119D1*
X48136Y760696D2*
X233287D1*
X955469D2*
X1118406D1*
X1302289D2*
X1353304D1*
X1464378D2*
X2083152D1*
X2405619D2*
X2486671D1*
X2641917D2*
X2763983D1*
X3143004D2*
X3248097D1*
X3393762D2*
X3600516D1*
X3802340D2*
X3894119D1*
X48209Y735827D2*
X261600D1*
X318344D2*
X369647D1*
X980336D2*
X1118406D1*
X1211753D2*
X2083189D1*
X2405619D2*
X2498547D1*
X2641917D2*
X2787702D1*
X3167871D2*
X3272965D1*
X3393762D2*
X3672643D1*
X3802340D2*
X3894119D1*
X48244Y710958D2*
X369647D1*
X1202745D2*
X1243319D1*
X1464234D2*
X2083189D1*
X2288278D2*
X2481647D1*
X2643747D2*
X2811853D1*
X3227870D2*
X3283765D1*
X3393762D2*
X3632273D1*
X3673408D2*
X3697510D1*
X3802340D2*
X3894119D1*
X48316Y686089D2*
X240105D1*
X339875D2*
X528757D1*
X1464234D2*
X2083189D1*
X2273207D2*
X2446839D1*
X2678555D2*
X2972112D1*
X3095421D2*
X3103692D1*
X3245417D2*
X3283765D1*
X3797854D2*
X3894119D1*
X48352Y661220D2*
X226398D1*
X353547D2*
X528757D1*
X1464234D2*
X2083189D1*
X2230828D2*
X2442210D1*
X2683184D2*
X2967769D1*
X3099727D2*
X3117765D1*
X3249723D2*
X3283765D1*
X3793836D2*
X3894119D1*
X48424Y636352D2*
X224424D1*
X355521D2*
X510062D1*
X1246058D2*
X1267756D1*
X1464234D2*
X2083189D1*
X2194262D2*
X2410093D1*
X2525867D2*
X2599526D1*
X2683364D2*
X2973618D1*
X3093878D2*
X3123614D1*
X3243911D2*
X3283765D1*
X3793836D2*
X3894119D1*
X48459Y611483D2*
X232820D1*
X347123D2*
X503745D1*
X1151289D2*
X1269765D1*
X1464234D2*
X2083189D1*
X2194262D2*
X2391936D1*
X2526621D2*
X2598773D1*
X2732633D2*
X2994144D1*
X3073388D2*
X3144140D1*
X3223385D2*
X3283765D1*
X3793836D2*
X3894119D1*
X48531Y586614D2*
X259913D1*
X320031D2*
X503745D1*
X1176156D2*
X1269765D1*
X1464234D2*
X2083189D1*
X2194262D2*
X2236198D1*
X2526478D2*
X2598916D1*
X2814377D2*
X3284483D1*
X3785080D2*
X3894119D1*
X48567Y561745D2*
X503745D1*
X607499D2*
X618181D1*
X1201024D2*
X1269765D1*
X1464234D2*
X2083189D1*
X2194262D2*
X2236198D1*
X2826182D2*
X3300056D1*
X3760463D2*
X3894119D1*
X48639Y536877D2*
X503745D1*
X625836D2*
X643049D1*
X1225891D2*
X1269765D1*
X1464234D2*
X2083189D1*
X2194262D2*
X2236198D1*
X2643819D2*
X2657802D1*
X2851050D2*
X3894119D1*
X328608Y512008D2*
X503745D1*
X650703D2*
X667916D1*
X1044497D2*
X1092965D1*
X1250759D2*
X1269765D1*
X1464234D2*
X2083189D1*
X2194262D2*
X2236198D1*
X2711568D2*
X2749378D1*
X2875919D2*
X3606580D1*
X362159Y487139D2*
X503745D1*
X563756D2*
X592774D1*
X663765D2*
X692783D1*
X931857D2*
X986568D1*
X1063121D2*
X1103765D1*
X1163740D2*
X1192829D1*
X1371761D2*
X2324761D1*
X2470211D2*
X2477962D1*
X2738266D2*
X2774245D1*
X2888980D2*
X3585408D1*
X395747Y462270D2*
X477765D1*
X1382634D2*
X1829739D1*
X1981828D2*
X2340585D1*
X2470211D2*
X2477962D1*
X2777021D2*
X2799114D1*
X2888980D2*
X3564236D1*
X429298Y437402D2*
X477765D1*
X1376138D2*
X1804870D1*
X2006660D2*
X2329640D1*
X2470211D2*
X2477962D1*
X2589957D2*
X2665948D1*
X2777021D2*
X2803993D1*
X2888980D2*
X3543029D1*
X462886Y412533D2*
X477765D1*
X1329740D2*
X1780003D1*
X2041395D2*
X2328959D1*
X2467197D2*
X2477950D1*
X2606608D2*
X2665948D1*
X2777021D2*
X2803993D1*
X2888980D2*
X3521857D1*
X1329740Y387664D2*
X1772647D1*
X2041395D2*
X2328959D1*
X2470211D2*
X2488608D1*
X2777021D2*
X2803993D1*
X3375749D2*
X3500650D1*
X1329740Y362795D2*
X1772647D1*
X2041395D2*
X2328959D1*
X2777021D2*
X2803993D1*
X3375749D2*
X3479478D1*
X505014Y337927D2*
X1269765D1*
X1329740D2*
X1772647D1*
X2041395D2*
X2130412D1*
X2777021D2*
X2803993D1*
X3375749D2*
X3458306D1*
X505014Y313058D2*
X1269765D1*
X1329740D2*
X1772647D1*
X2041395D2*
X2105545D1*
X2666605D2*
X2680480D1*
X2762488D2*
X2803993D1*
X3375749D2*
X3456584D1*
X505014Y288189D2*
X1269765D1*
X1329740D2*
X1772647D1*
X2041217D2*
X2080676D1*
X2594550D2*
X2680480D1*
X2762488D2*
X2803993D1*
X3375749D2*
X3456584D1*
X505014Y263320D2*
X1208619D1*
X1221501D2*
X1269765D1*
X1329740D2*
X1661944D1*
X1733402D2*
X1772647D1*
X2037448D2*
X2055808D1*
X2207432D2*
X2352822D1*
X2591787D2*
X2680480D1*
X2762488D2*
X2803993D1*
X3375749D2*
X3456619D1*
X505014Y238451D2*
X553948D1*
X1253665D2*
X1269765D1*
X1329740D2*
X1433971D1*
X1501518D2*
X1626096D1*
X1930621D2*
X1950273D1*
X2017533D2*
X2030941D1*
X2243280D2*
X2352822D1*
X2456001D2*
X2488608D1*
X2591787D2*
X2677969D1*
X2762488D2*
X2803993D1*
X3375749D2*
X3456619D1*
X505014Y213583D2*
X515373D1*
X1256070D2*
X1269765D1*
X1329740D2*
X1426831D1*
X1508694D2*
X1610307D1*
X2259105D2*
X2352822D1*
X2446169D2*
X2476121D1*
X3375749D2*
X3456656D1*
X1391891Y188714D2*
X1428769D1*
X1548131D2*
X1603525D1*
X2265850D2*
X2325012D1*
X2446169D2*
X2476121D1*
X3375749D2*
X3456656D1*
X1391891Y163845D2*
X1428769D1*
X1548131D2*
X1603740D1*
X2064110D2*
X2077770D1*
X2265635D2*
X2300144D1*
X2446169D2*
X2476121D1*
X3375749D2*
X3456656D1*
X1392323Y138976D2*
X1428769D1*
X1548562D2*
X1611024D1*
X1873816D2*
X2085018D1*
X2258352D2*
X2275277D1*
X2358038D2*
X2476121D1*
X3375749D2*
X3456692D1*
X1767778Y114108D2*
X1815887D1*
X1898684D2*
X2101597D1*
X2241808D2*
X2250365D1*
X2333169D2*
X2476336D1*
X3375749D2*
X3456692D1*
X1622735Y89239D2*
X1666609D1*
X1728773D2*
X1840790D1*
X2308302D2*
X2476336D1*
X3375749D2*
X3456727D1*
X1622735Y64370D2*
X1865659D1*
X2283434D2*
X2476336D1*
X3375749D2*
X3456727D1*
X353450Y3135992D2*
X352814Y3128675D1*
X351336Y3121480D1*
X349037Y3114504D1*
X345949Y3107840D1*
X342112Y3101577D1*
X337576Y3095799D1*
X332404Y3090584D1*
X326665Y3086001D1*
X320434Y3082110D1*
X313797Y3078966D1*
X306840Y3076609D1*
X299657Y3075072D1*
X292346Y3074374D1*
X285003Y3074525D1*
X277726Y3075522D1*
X270613Y3077354D1*
X263759Y3079995D1*
X257256Y3083408D1*
X251190Y3087551D1*
X245644Y3092366D1*
X240690Y3097790D1*
X236396Y3103749D1*
X232820Y3110164D1*
X230008Y3116949D1*
X227997Y3124014D1*
X226816Y3131264D1*
X226482Y3138601D1*
X226995Y3145928D1*
X228352Y3153147D1*
X230533Y3160160D1*
X233509Y3166875D1*
X237240Y3173201D1*
X241677Y3179054D1*
X246761Y3184356D1*
X252423Y3189035D1*
X258588Y3193029D1*
X265172Y3196285D1*
X272088Y3198757D1*
X279243Y3200416D1*
X286542Y3201236D1*
X293887Y3201209D1*
X301180Y3200333D1*
X308322Y3198622D1*
X315219Y3196096D1*
X321780Y3192791D1*
X327913Y3188752D1*
X333539Y3184030D1*
X338583Y3178690D1*
X342976Y3172804D1*
X346660Y3166450D1*
X349587Y3159713D1*
X351715Y3152684D1*
X353017Y3145454D1*
X353476Y3137829D1*
X353450Y3135992D1*
X343913Y3254343D2*
X338262Y3246589D1*
X331217Y3239543D1*
X323155Y3233686D1*
X314277Y3229163D1*
X304801Y3226084D1*
X294958Y3224525D1*
X284995D1*
X275152Y3226084D1*
X265676Y3229163D1*
X256798Y3233686D1*
X248736Y3239543D1*
X241690Y3246589D1*
X235833Y3254651D1*
X231310Y3263529D1*
X228231Y3273005D1*
X226672Y3282848D1*
Y3292811D1*
X228231Y3302654D1*
X231310Y3312130D1*
X235833Y3321008D1*
X241690Y3329070D1*
X248736Y3336115D1*
X256798Y3341972D1*
X265676Y3346496D1*
X275152Y3349575D1*
X284995Y3351134D1*
X294958D1*
X304801Y3349575D1*
X314277Y3346496D1*
X323155Y3341972D1*
X331217Y3336115D1*
X338262Y3329070D1*
X343913Y3321316D1*
X357331Y3321329D1*
X365877Y3329864D1*
X365899Y3384627D1*
X506262D1*
X506591Y3392157D1*
X507598Y3396353D1*
X509249Y3400340D1*
X511504Y3404020D1*
X514307Y3407301D1*
X590900Y3483774D1*
X594391Y3486311D1*
X598236Y3488270D1*
X602340Y3489604D1*
X606602Y3490278D1*
X665709Y3490364D1*
X665726Y3559646D1*
X692244D1*
X695371Y3563362D1*
X737517Y3605509D1*
X737610Y3621303D1*
X737866Y3623455D1*
X737597Y3626083D1*
X734518Y3635559D1*
X732959Y3645402D1*
Y3655365D1*
X734518Y3665207D1*
X737597Y3674684D1*
X742121Y3683562D1*
X747978Y3691623D1*
X755024Y3698669D1*
X763085Y3704526D1*
X771963Y3709050D1*
X781440Y3712129D1*
X791282Y3713688D1*
X801245D1*
X811088Y3712129D1*
X820564Y3709050D1*
X829442Y3704526D1*
X837504Y3698669D1*
X844550Y3691623D1*
X850407Y3683562D1*
X854930Y3674684D1*
X858009Y3665207D1*
X859568Y3655365D1*
Y3645402D1*
X858009Y3635559D1*
X854930Y3626083D1*
X850407Y3617205D1*
X844550Y3609143D1*
X837504Y3602097D1*
X829442Y3596240D1*
X820564Y3591717D1*
X811088Y3588638D1*
X809693Y3588361D1*
X819209Y3578836D1*
X857475Y3578832D1*
Y3490493D1*
X784885D1*
Y3535385D1*
X764984Y3555194D1*
X763894Y3554104D1*
X763907Y3488272D1*
X820073Y3488281D1*
Y3399942D1*
X811282D1*
X811278Y3378408D1*
X826953Y3378377D1*
X824278Y3382878D1*
X821966Y3388459D1*
X820555Y3394335D1*
X820081Y3400357D1*
X820555Y3406379D1*
X822289Y3413130D1*
X822286Y3488281D1*
X894877D1*
Y3444108D1*
X934686Y3483774D1*
X938177Y3486311D1*
X942022Y3488270D1*
X946126Y3489604D1*
X950388Y3490280D1*
X1028226Y3490364D1*
X1028261Y3559642D1*
X1091454D1*
X1123448Y3591601D1*
X1123723Y3593804D1*
X1115227Y3599010D1*
X1107650Y3605482D1*
X1101178Y3613059D1*
X1095972Y3621555D1*
X1092159Y3630761D1*
X1089833Y3640450D1*
X1089051Y3650383D1*
X1089833Y3660316D1*
X1092159Y3670005D1*
X1095972Y3679211D1*
X1101178Y3687707D1*
X1107650Y3695285D1*
X1115227Y3701756D1*
X1123723Y3706962D1*
X1132929Y3710776D1*
X1142618Y3713101D1*
X1152551Y3713883D1*
X1162484Y3713101D1*
X1172173Y3710776D1*
X1181379Y3706962D1*
X1189875Y3701756D1*
X1197453Y3695285D1*
X1203924Y3687707D1*
X1209130Y3679211D1*
X1212944Y3670005D1*
X1215269Y3660316D1*
X1216051Y3650383D1*
X1215269Y3640450D1*
X1212944Y3630761D1*
X1209130Y3621555D1*
X1203924Y3613059D1*
X1197453Y3605482D1*
X1189875Y3599010D1*
X1181379Y3593804D1*
X1180052Y3593193D1*
X1181592Y3588268D1*
X1191005Y3578854D1*
X1213762Y3578832D1*
Y3490493D1*
X1141172D1*
Y3531509D1*
X1126450Y3516822D1*
X1126442Y3488268D1*
X1176361Y3488281D1*
Y3399942D1*
X1167570D1*
X1167566Y3378408D1*
X1192323Y3378377D1*
X1189462Y3383583D1*
X1188129Y3387686D1*
X1187453Y3391949D1*
X1186860Y3399942D1*
X1178573D1*
Y3488281D1*
X1251164D1*
Y3437864D1*
X1297224Y3483774D1*
X1300715Y3486311D1*
X1304560Y3488270D1*
X1308664Y3489604D1*
X1312927Y3490278D1*
X1384520Y3490364D1*
X1384551Y3559646D1*
X1447743D1*
X1472038Y3583785D1*
X1475529Y3586322D1*
X1479382Y3588283D1*
X1480010Y3593804D1*
X1471514Y3599010D1*
X1463937Y3605482D1*
X1457466Y3613059D1*
X1452260Y3621555D1*
X1448446Y3630761D1*
X1446121Y3640450D1*
X1445339Y3650383D1*
X1446121Y3660316D1*
X1448446Y3670005D1*
X1452260Y3679211D1*
X1457466Y3687707D1*
X1463937Y3695285D1*
X1471514Y3701756D1*
X1480010Y3706962D1*
X1489217Y3710776D1*
X1498906Y3713101D1*
X1508839Y3713883D1*
X1518772Y3713101D1*
X1528461Y3710776D1*
X1537667Y3706962D1*
X1546163Y3701756D1*
X1553740Y3695285D1*
X1560211Y3687707D1*
X1565417Y3679211D1*
X1569231Y3670005D1*
X1571556Y3660316D1*
X1572339Y3650383D1*
X1571556Y3640450D1*
X1569231Y3630761D1*
X1565417Y3621555D1*
X1560211Y3613059D1*
X1553740Y3605482D1*
X1546163Y3599010D1*
X1537667Y3593804D1*
X1536340Y3593193D1*
X1536339Y3584823D1*
X1543391Y3578832D1*
X1570050D1*
Y3490493D1*
X1497459D1*
Y3531580D1*
X1482726Y3516811D1*
X1482732Y3488272D1*
X1532648Y3488281D1*
Y3399942D1*
X1523857D1*
X1523853Y3378408D1*
X1550041Y3378377D1*
X1550081Y3389118D1*
X1546654Y3394328D1*
X1545000Y3398323D1*
X1543147Y3399942D1*
X1534861D1*
Y3488281D1*
X1607451D1*
Y3462839D1*
X1628509Y3483774D1*
X1632000Y3486311D1*
X1635845Y3488270D1*
X1639949Y3489604D1*
X1644211Y3490278D1*
X1740852Y3490364D1*
X1740839Y3559646D1*
X1798003D1*
X1826049Y3587675D1*
X1827802Y3599010D1*
X1820224Y3605482D1*
X1813753Y3613059D1*
X1808547Y3621555D1*
X1804734Y3630761D1*
X1802408Y3640450D1*
X1801626Y3650383D1*
X1802408Y3660316D1*
X1804734Y3670005D1*
X1808547Y3679211D1*
X1813753Y3687707D1*
X1820224Y3695285D1*
X1827802Y3701756D1*
X1836298Y3706962D1*
X1845504Y3710776D1*
X1855193Y3713101D1*
X1865126Y3713883D1*
X1875059Y3713101D1*
X1884748Y3710776D1*
X1893954Y3706962D1*
X1902450Y3701756D1*
X1910028Y3695285D1*
X1916499Y3687707D1*
X1921705Y3679211D1*
X1925518Y3670005D1*
X1927844Y3660316D1*
X1928626Y3650383D1*
X1927844Y3640450D1*
X1925518Y3630761D1*
X1921705Y3621555D1*
X1916499Y3613059D1*
X1910028Y3605482D1*
X1902450Y3599010D1*
X1893954Y3593804D1*
X1886375Y3590591D1*
X1886306Y3579461D1*
X1890492Y3578832D1*
X1926337D1*
Y3490493D1*
X1853747D1*
Y3521102D1*
X1845446Y3529290D1*
X1839026Y3522871D1*
X1839020Y3488272D1*
X1888936Y3488281D1*
Y3399942D1*
X1886388D1*
X1886391Y3378408D1*
X1906180Y3378377D1*
X1906194Y3389188D1*
X1903996Y3392239D1*
X1902037Y3396084D1*
X1901287Y3398118D1*
X1899434Y3399942D1*
X1891148D1*
Y3488281D1*
X1963739D1*
Y3444825D1*
X1968900Y3443759D1*
X1969244Y3448413D1*
X1970252Y3452609D1*
X1971903Y3456596D1*
X1974157Y3460276D1*
X1976961Y3463556D1*
X1997298Y3483774D1*
X2000789Y3486311D1*
X2004634Y3488270D1*
X2008738Y3489604D1*
X2013000Y3490278D1*
X2097152Y3490364D1*
X2097126Y3559646D1*
X2160462D1*
X2194009Y3593109D1*
X2188235Y3596240D1*
X2180173Y3602097D1*
X2173127Y3609143D1*
X2167270Y3617205D1*
X2162747Y3626083D1*
X2159668Y3635559D1*
X2158109Y3645402D1*
Y3655365D1*
X2159668Y3665207D1*
X2162747Y3674684D1*
X2167270Y3683562D1*
X2173127Y3691623D1*
X2180173Y3698669D1*
X2188235Y3704526D1*
X2197113Y3709050D1*
X2206589Y3712129D1*
X2216432Y3713688D1*
X2226395D1*
X2236238Y3712129D1*
X2245714Y3709050D1*
X2254592Y3704526D1*
X2262654Y3698669D1*
X2269699Y3691623D1*
X2275556Y3683562D1*
X2280080Y3674684D1*
X2283159Y3665207D1*
X2284718Y3655365D1*
Y3645402D1*
X2283159Y3635559D1*
X2280080Y3626083D1*
X2275556Y3617205D1*
X2269699Y3609143D1*
X2262654Y3602097D1*
X2255192Y3596640D1*
X2255094Y3585719D1*
X2254417Y3581449D1*
X2265152Y3578832D1*
X2282625D1*
Y3490493D1*
X2210034D1*
Y3531437D1*
X2195322Y3516747D1*
X2195307Y3488272D1*
X2245223Y3488281D1*
Y3399942D1*
X2236432D1*
X2236428Y3378394D1*
X2262615Y3378377D1*
X2262686Y3394136D1*
X2255722Y3399942D1*
X2247436D1*
Y3488281D1*
X2320026D1*
Y3445471D1*
X2321940Y3450345D1*
X2324194Y3454025D1*
X2326997Y3457306D1*
X2353585Y3483774D1*
X2357076Y3486311D1*
X2360921Y3488270D1*
X2365025Y3489604D1*
X2369287Y3490278D1*
X2453440Y3490364D1*
X2453413Y3559646D1*
X2479932D1*
X2484349Y3564654D1*
X2491100Y3571283D1*
X2494591Y3573820D1*
X2498436Y3575780D1*
X2502539Y3577113D1*
X2506802Y3577789D1*
X2561816Y3577873D1*
X2559465Y3581643D1*
X2557814Y3585630D1*
X2556804Y3589833D1*
X2548873Y3593804D1*
X2540377Y3599010D1*
X2532799Y3605482D1*
X2526328Y3613059D1*
X2521122Y3621555D1*
X2517308Y3630761D1*
X2514983Y3640450D1*
X2514201Y3650383D1*
X2514983Y3660316D1*
X2517308Y3670005D1*
X2521122Y3679211D1*
X2526328Y3687707D1*
X2532799Y3695285D1*
X2540377Y3701756D1*
X2548873Y3706962D1*
X2558079Y3710776D1*
X2567768Y3713101D1*
X2577701Y3713883D1*
X2587634Y3713101D1*
X2597323Y3710776D1*
X2606529Y3706962D1*
X2615025Y3701756D1*
X2622602Y3695285D1*
X2629073Y3687707D1*
X2634280Y3679211D1*
X2638093Y3670005D1*
X2640419Y3660316D1*
X2641201Y3650383D1*
X2640419Y3640450D1*
X2638093Y3630761D1*
X2634280Y3621555D1*
X2629073Y3613059D1*
X2622602Y3605482D1*
X2616661Y3600301D1*
X2623630Y3593235D1*
X2626167Y3589744D1*
X2628126Y3585899D1*
X2629459Y3581795D1*
X2629882Y3579669D1*
X2630626Y3578832D1*
X2638912D1*
Y3490493D1*
X2566322D1*
Y3522896D1*
X2551584Y3522873D1*
X2551594Y3488272D1*
X2601510Y3488281D1*
Y3399942D1*
X2598963D1*
X2598966Y3378374D1*
X2618755Y3378377D1*
X2618769Y3395575D1*
X2616567Y3398702D1*
X2612009Y3399942D1*
X2603723D1*
Y3488281D1*
X2676314D1*
Y3432552D1*
X2681487Y3432400D1*
X2681566Y3446269D1*
X2682240Y3450531D1*
X2683573Y3454635D1*
X2685533Y3458480D1*
X2688070Y3461971D1*
X2709873Y3483774D1*
X2713364Y3486311D1*
X2717209Y3488270D1*
X2721312Y3489604D1*
X2725575Y3490278D1*
X2809727Y3490364D1*
X2809701Y3559646D1*
X2841888D1*
X2866139Y3583785D1*
X2869630Y3586322D1*
X2873475Y3588281D1*
X2877579Y3589614D1*
X2881841Y3590289D1*
X2906488Y3590433D1*
Y3593125D1*
X2900810Y3596240D1*
X2892748Y3602097D1*
X2885702Y3609143D1*
X2879845Y3617205D1*
X2875322Y3626083D1*
X2872243Y3635559D1*
X2870684Y3645402D1*
Y3655365D1*
X2872243Y3665207D1*
X2875322Y3674684D1*
X2879845Y3683562D1*
X2885702Y3691623D1*
X2892748Y3698669D1*
X2900810Y3704526D1*
X2909688Y3709050D1*
X2919164Y3712129D1*
X2929007Y3713688D1*
X2938970D1*
X2948812Y3712129D1*
X2958289Y3709050D1*
X2967167Y3704526D1*
X2975228Y3698669D1*
X2982274Y3691623D1*
X2988131Y3683562D1*
X2992655Y3674684D1*
X2995734Y3665207D1*
X2997293Y3655365D1*
Y3645402D1*
X2995734Y3635559D1*
X2992655Y3626083D1*
X2988131Y3617205D1*
X2982274Y3609143D1*
X2975228Y3602097D1*
X2967167Y3596240D1*
X2961490Y3593193D1*
X2963280Y3588281D1*
X2967125Y3586322D1*
X2970615Y3583785D1*
X2975693Y3578828D1*
X2995199Y3578832D1*
Y3490493D1*
X2922609D1*
Y3535385D1*
X2907900Y3535374D1*
X2907882Y3488272D1*
X2957798Y3488281D1*
Y3399942D1*
X2955251D1*
X2955253Y3378354D1*
X2975033Y3378377D1*
X2975056Y3389331D1*
X2971803Y3394328D1*
X2970150Y3398323D1*
X2968297Y3399942D1*
X2960010D1*
Y3488281D1*
X3032601D1*
Y3432552D1*
X3038665Y3432295D1*
X3040765Y3437844D1*
X3043020Y3441524D1*
X3045823Y3444804D1*
X3084912Y3483774D1*
X3088403Y3486311D1*
X3092248Y3488270D1*
X3096352Y3489604D1*
X3100614Y3490278D1*
X3165963Y3490364D1*
X3165988Y3559646D1*
X3187555D1*
X3187917Y3566971D1*
X3188924Y3571167D1*
X3190576Y3575154D1*
X3192831Y3578833D1*
X3195633Y3582115D1*
X3209925Y3596286D1*
X3213416Y3598823D1*
X3217261Y3600782D1*
X3221365Y3602115D1*
X3225627Y3602791D1*
X3248131Y3602875D1*
X3241990Y3609143D1*
X3236133Y3617205D1*
X3231609Y3626083D1*
X3228530Y3635559D1*
X3226971Y3645402D1*
Y3655365D1*
X3228530Y3665207D1*
X3231609Y3674684D1*
X3236133Y3683562D1*
X3241990Y3691623D1*
X3249035Y3698669D1*
X3257097Y3704526D1*
X3265975Y3709050D1*
X3275451Y3712129D1*
X3285294Y3713688D1*
X3295257D1*
X3305100Y3712129D1*
X3314576Y3709050D1*
X3323454Y3704526D1*
X3331516Y3698669D1*
X3338562Y3691623D1*
X3344419Y3683562D1*
X3348942Y3674684D1*
X3352021Y3665207D1*
X3353580Y3655365D1*
Y3645402D1*
X3352021Y3635559D1*
X3348942Y3626083D1*
X3344419Y3617205D1*
X3338562Y3609143D1*
X3331516Y3602097D1*
X3329236Y3600301D1*
X3336249Y3593182D1*
X3338778Y3589685D1*
X3340727Y3585835D1*
X3342050Y3581728D1*
X3342467Y3579601D1*
X3343201Y3578832D1*
X3351487D1*
Y3490493D1*
X3278896D1*
Y3547873D1*
X3264159Y3547875D1*
X3264169Y3488272D1*
X3314085Y3488281D1*
Y3399942D1*
X3311538D1*
X3311541Y3378343D1*
X3331329Y3378377D1*
X3331344Y3394114D1*
X3324584Y3399942D1*
X3316298D1*
Y3488281D1*
X3388888D1*
Y3432552D1*
X3393323Y3432488D1*
X3399290Y3431542D1*
X3405035Y3429676D1*
X3410419Y3426933D1*
X3415306Y3423382D1*
X3419577Y3419110D1*
X3423129Y3414223D1*
X3425871Y3408840D1*
X3427738Y3403094D1*
X3428684Y3397127D1*
Y3391085D1*
X3427738Y3385118D1*
X3425871Y3379373D1*
X3423129Y3373990D1*
X3419577Y3369102D1*
X3415306Y3364831D1*
X3410419Y3361280D1*
X3407934Y3359888D1*
Y3272322D1*
X3234950D1*
Y3378377D1*
X3256517D1*
X3256541Y3399953D1*
X3241495Y3399942D1*
Y3400911D1*
X3201471Y3400902D1*
Y3384232D1*
X3128881D1*
Y3435367D1*
X3114177Y3435364D1*
X3092759Y3413959D1*
X3092768Y3382047D1*
X3164070Y3382020D1*
Y3293681D1*
X3155278D1*
X3160211Y3288049D1*
X3186189Y3261950D1*
X3188726Y3258459D1*
X3189785Y3256568D1*
X3194928Y3255472D1*
X3399575D1*
Y3190845D1*
X3558155Y3190857D1*
Y3171299D1*
X3595437Y3171329D1*
X3598686Y3177274D1*
X3604543Y3185336D1*
X3611589Y3192382D1*
X3619651Y3198239D1*
X3628529Y3202762D1*
X3638005Y3205841D1*
X3647848Y3207400D1*
X3657811D1*
X3667654Y3205841D1*
X3677130Y3202762D1*
X3686008Y3198239D1*
X3694070Y3192382D1*
X3701115Y3185336D1*
X3706972Y3177274D1*
X3711496Y3168396D1*
X3714575Y3158920D1*
X3716134Y3149077D1*
Y3139114D1*
X3714575Y3129272D1*
X3711496Y3119795D1*
X3706972Y3110917D1*
X3701115Y3102856D1*
X3694070Y3095810D1*
X3686008Y3089953D1*
X3677130Y3085429D1*
X3667654Y3082350D1*
X3657811Y3080791D1*
X3647848D1*
X3638005Y3082350D1*
X3628529Y3085429D1*
X3619651Y3089953D1*
X3611589Y3095810D1*
X3604543Y3102856D1*
X3603374Y3104340D1*
X3558182Y3104329D1*
X3558155Y3084802D1*
X3461786D1*
X3461676Y3017114D1*
X3461001Y3012852D1*
X3459668Y3008748D1*
X3457709Y3004903D1*
X3455172Y3001412D1*
X3382253Y2928373D1*
X3256881Y2802706D1*
X3360088Y2802791D1*
X3385171D1*
Y2828319D1*
X3558155D1*
Y2808761D1*
X3592925Y2808791D1*
X3596251Y2816636D1*
X3601457Y2825133D1*
X3607928Y2832710D1*
X3615505Y2839181D1*
X3624001Y2844387D1*
X3633207Y2848201D1*
X3642896Y2850526D1*
X3652829Y2851308D1*
X3662762Y2850526D1*
X3672451Y2848201D1*
X3681657Y2844387D1*
X3690154Y2839181D1*
X3697731Y2832710D1*
X3704202Y2825133D1*
X3709408Y2816636D1*
X3713222Y2807430D1*
X3715547Y2797741D1*
X3716329Y2787808D1*
X3715547Y2777875D1*
X3713222Y2768186D1*
X3709408Y2758980D1*
X3704202Y2750484D1*
X3697731Y2742907D1*
X3690154Y2736436D1*
X3681657Y2731230D1*
X3672451Y2727416D1*
X3662762Y2725091D1*
X3652829Y2724308D1*
X3642896Y2725091D1*
X3633207Y2727416D1*
X3624001Y2731230D1*
X3615505Y2736436D1*
X3609144Y2741783D1*
X3558173Y2741791D1*
X3558155Y2722264D1*
X3385171D1*
Y2747777D1*
X3270450Y2747791D1*
X3133138Y2610621D1*
X3131436Y2609278D1*
X3147619Y2609031D1*
X3279937Y2608948D1*
X3284199Y2608272D1*
X3288303Y2606938D1*
X3292148Y2604979D1*
X3295639Y2602442D1*
X3368678Y2529524D1*
X3419908Y2478294D1*
X3564406Y2478282D1*
Y2458726D1*
X3595445Y2458755D1*
X3598686Y2464699D1*
X3604543Y2472761D1*
X3611589Y2479807D1*
X3619651Y2485664D1*
X3628529Y2490188D1*
X3638005Y2493266D1*
X3647848Y2494825D1*
X3657811D1*
X3667654Y2493266D1*
X3677130Y2490188D1*
X3686008Y2485664D1*
X3694070Y2479807D1*
X3701115Y2472761D1*
X3706972Y2464699D1*
X3711496Y2455822D1*
X3714575Y2446345D1*
X3716134Y2436503D1*
Y2426539D1*
X3714575Y2416697D1*
X3711496Y2407220D1*
X3706972Y2398343D1*
X3701115Y2390281D1*
X3694070Y2383235D1*
X3686008Y2377378D1*
X3677130Y2372854D1*
X3667654Y2369776D1*
X3657811Y2368217D1*
X3647848D1*
X3638005Y2369776D1*
X3628529Y2372854D1*
X3619651Y2377378D1*
X3611589Y2383235D1*
X3604543Y2390281D1*
X3603374Y2391765D1*
X3564424Y2391755D1*
X3564406Y2372227D1*
X3400933D1*
X3429965Y2343104D1*
X3432501Y2339613D1*
X3434461Y2335768D1*
X3435794Y2331664D1*
X3436469Y2327402D1*
X3436554Y2224194D1*
Y2128276D1*
X3558155Y2128245D1*
Y2108689D1*
X3598882Y2108718D1*
X3604543Y2116474D1*
X3611589Y2123520D1*
X3619651Y2129377D1*
X3628529Y2133900D1*
X3638005Y2136979D1*
X3647848Y2138538D1*
X3657811D1*
X3667654Y2136979D1*
X3677130Y2133900D1*
X3686008Y2129377D1*
X3694070Y2123520D1*
X3701115Y2116474D1*
X3706972Y2108412D1*
X3711496Y2099534D1*
X3714575Y2090058D1*
X3716134Y2080215D1*
Y2070252D1*
X3714575Y2060409D1*
X3711496Y2050933D1*
X3706972Y2042055D1*
X3701115Y2033993D1*
X3694070Y2026948D1*
X3686008Y2021091D1*
X3677130Y2016567D1*
X3667654Y2013488D1*
X3657811Y2011929D1*
X3647848D1*
X3638005Y2013488D1*
X3628529Y2016567D1*
X3619651Y2021091D1*
X3611589Y2026948D1*
X3604543Y2033993D1*
X3598913Y2041715D1*
X3558188Y2041718D1*
X3558155Y2022190D1*
X3405303D1*
X3405301Y1774072D1*
X3413663Y1765714D1*
X3551904Y1765707D1*
Y1746151D1*
X3595430Y1746180D1*
X3598686Y1752125D1*
X3604543Y1760186D1*
X3611589Y1767232D1*
X3619651Y1773089D1*
X3628529Y1777613D1*
X3638005Y1780692D1*
X3647848Y1782251D1*
X3657811D1*
X3667654Y1780692D1*
X3677130Y1777613D1*
X3686008Y1773089D1*
X3694070Y1767232D1*
X3701115Y1760186D1*
X3706972Y1752125D1*
X3711496Y1743247D1*
X3714575Y1733770D1*
X3716134Y1723928D1*
Y1713965D1*
X3714575Y1704122D1*
X3711496Y1694646D1*
X3706972Y1685768D1*
X3701115Y1677706D1*
X3694070Y1670660D1*
X3686008Y1664803D1*
X3677130Y1660280D1*
X3667654Y1657201D1*
X3657811Y1655642D1*
X3647848D1*
X3638005Y1657201D1*
X3628529Y1660280D1*
X3619651Y1664803D1*
X3611589Y1670660D1*
X3604543Y1677706D1*
X3603374Y1679190D1*
X3551937Y1679180D1*
X3551904Y1659652D1*
X3378920D1*
Y1722701D1*
X3367787Y1733807D1*
X3367797Y1424030D1*
X3385192Y1406643D1*
X3385171Y1415671D1*
X3558155D1*
Y1396114D1*
X3598882Y1396143D1*
X3604543Y1403899D1*
X3611589Y1410945D1*
X3619651Y1416802D1*
X3628529Y1421325D1*
X3638005Y1424404D1*
X3647848Y1425963D1*
X3657811D1*
X3667654Y1424404D1*
X3677130Y1421325D1*
X3686008Y1416802D1*
X3694070Y1410945D1*
X3701115Y1403899D1*
X3706972Y1395837D1*
X3711496Y1386959D1*
X3714575Y1377483D1*
X3716134Y1367640D1*
Y1357677D1*
X3714575Y1347835D1*
X3711496Y1338358D1*
X3706972Y1329480D1*
X3701115Y1321419D1*
X3694070Y1314373D1*
X3686008Y1308516D1*
X3677130Y1303992D1*
X3667654Y1300913D1*
X3657811Y1299354D1*
X3647848D1*
X3638005Y1300913D1*
X3628529Y1303992D1*
X3619651Y1308516D1*
X3611589Y1314373D1*
X3604543Y1321419D1*
X3598913Y1329140D1*
X3558188Y1329143D1*
X3558155Y1309615D1*
X3385171D1*
Y1335631D1*
X3379778Y1337236D1*
X3375933Y1339196D1*
X3372442Y1341732D1*
X3336525Y1377529D1*
X3336543Y1080226D1*
X3376673Y1040122D1*
X3385143Y1040106D1*
X3385171Y1065634D1*
X3558155D1*
Y1046077D1*
X3603332Y1046106D1*
X3607928Y1051273D1*
X3615505Y1057744D1*
X3624001Y1062950D1*
X3633207Y1066764D1*
X3642896Y1069089D1*
X3652829Y1069871D1*
X3662762Y1069089D1*
X3672451Y1066764D1*
X3681657Y1062950D1*
X3690154Y1057744D1*
X3697731Y1051273D1*
X3704202Y1043696D1*
X3709408Y1035199D1*
X3713222Y1025993D1*
X3715547Y1016304D1*
X3716329Y1006371D1*
X3715547Y996438D1*
X3713222Y986749D1*
X3709408Y977543D1*
X3704202Y969047D1*
X3697731Y961470D1*
X3690154Y954999D1*
X3681657Y949793D1*
X3672451Y945979D1*
X3662762Y943654D1*
X3652829Y942871D1*
X3642896Y943654D1*
X3633207Y945979D1*
X3624001Y949793D1*
X3615505Y954999D1*
X3607928Y961470D1*
X3601457Y969047D1*
X3596251Y977543D1*
X3595525Y979117D1*
X3558140Y979106D1*
X3558155Y959579D1*
X3391118D1*
X3391256Y938627D1*
Y709364D1*
X3551904Y709346D1*
Y689790D1*
X3603325Y689819D1*
X3607928Y694986D1*
X3615505Y701457D1*
X3624001Y706663D1*
X3633207Y710476D1*
X3642896Y712802D1*
X3652829Y713584D1*
X3662762Y712802D1*
X3672451Y710476D1*
X3681657Y706663D1*
X3690154Y701457D1*
X3697731Y694986D1*
X3704202Y687408D1*
X3709408Y678912D1*
X3713222Y669706D1*
X3714340Y666202D1*
Y696596D1*
X3671545Y739423D1*
X3662762Y737366D1*
X3652829Y736584D1*
X3642896Y737366D1*
X3633207Y739692D1*
X3624001Y743505D1*
X3615505Y748711D1*
X3607928Y755182D1*
X3601457Y762760D1*
X3596251Y771256D1*
X3592437Y780462D1*
X3590112Y790151D1*
X3589329Y800084D1*
X3590112Y810017D1*
X3592437Y819706D1*
X3596251Y828912D1*
X3601457Y837408D1*
X3607928Y844986D1*
X3615505Y851457D1*
X3624001Y856663D1*
X3633207Y860476D1*
X3642896Y862802D1*
X3652829Y863584D1*
X3662762Y862802D1*
X3672451Y860476D1*
X3681657Y856663D1*
X3690154Y851457D1*
X3697731Y844986D1*
X3704202Y837408D1*
X3709408Y828912D1*
X3713222Y819706D1*
X3715547Y810017D1*
X3716188Y803684D1*
X3722825Y797037D1*
X3722824Y1117871D1*
X3703299D1*
X3697731Y1111470D1*
X3690154Y1104999D1*
X3681657Y1099793D1*
X3672451Y1095979D1*
X3662762Y1093654D1*
X3652829Y1092871D1*
X3642896Y1093654D1*
X3633207Y1095979D1*
X3624001Y1099793D1*
X3615505Y1104999D1*
X3607928Y1111470D1*
X3601457Y1119047D1*
X3596251Y1127543D1*
X3592437Y1136749D1*
X3590112Y1146438D1*
X3589329Y1156371D1*
X3590112Y1166304D1*
X3592437Y1175993D1*
X3596251Y1185199D1*
X3601457Y1193696D1*
X3607928Y1201273D1*
X3615505Y1207744D1*
X3624001Y1212950D1*
X3633207Y1216764D1*
X3642896Y1219089D1*
X3652829Y1219871D1*
X3662762Y1219089D1*
X3672451Y1216764D1*
X3681657Y1212950D1*
X3690154Y1207744D1*
X3697731Y1201273D1*
X3703273Y1194874D1*
X3722840Y1194871D1*
X3722824Y1462283D1*
X3710984Y1474159D1*
X3703356D1*
X3697731Y1467757D1*
X3690154Y1461286D1*
X3681657Y1456080D1*
X3672451Y1452266D1*
X3662762Y1449941D1*
X3652829Y1449159D1*
X3642896Y1449941D1*
X3633207Y1452266D1*
X3624001Y1456080D1*
X3615505Y1461286D1*
X3607928Y1467757D1*
X3601457Y1475335D1*
X3596251Y1483831D1*
X3592437Y1493037D1*
X3590112Y1502726D1*
X3589329Y1512659D1*
X3590112Y1522592D1*
X3592437Y1532281D1*
X3596251Y1541487D1*
X3601457Y1549983D1*
X3607928Y1557560D1*
X3615505Y1564031D1*
X3624001Y1569238D1*
X3633207Y1573051D1*
X3642896Y1575377D1*
X3652829Y1576159D1*
X3662762Y1575377D1*
X3672451Y1573051D1*
X3681657Y1569238D1*
X3690154Y1564031D1*
X3697731Y1557560D1*
X3703273Y1551161D1*
X3722840Y1551159D1*
X3722824Y1830470D1*
X3703299Y1830446D1*
X3697731Y1824045D1*
X3690154Y1817573D1*
X3681657Y1812367D1*
X3672451Y1808554D1*
X3662762Y1806228D1*
X3652829Y1805446D1*
X3642896Y1806228D1*
X3633207Y1808554D1*
X3624001Y1812367D1*
X3615505Y1817573D1*
X3607928Y1824045D1*
X3601457Y1831622D1*
X3596251Y1840118D1*
X3592437Y1849324D1*
X3590112Y1859013D1*
X3589329Y1868946D1*
X3590112Y1878879D1*
X3592437Y1888568D1*
X3596251Y1897774D1*
X3601457Y1906270D1*
X3607928Y1913848D1*
X3615505Y1920319D1*
X3624001Y1925525D1*
X3633207Y1929339D1*
X3642896Y1931664D1*
X3652829Y1932446D1*
X3662762Y1931664D1*
X3672451Y1929339D1*
X3681657Y1925525D1*
X3690154Y1920319D1*
X3697731Y1913848D1*
X3703273Y1907449D1*
X3722840Y1907446D1*
X3722824Y2186701D1*
X3703299Y2186734D1*
X3697731Y2180332D1*
X3690154Y2173861D1*
X3681657Y2168655D1*
X3672451Y2164841D1*
X3662762Y2162516D1*
X3652829Y2161734D1*
X3642896Y2162516D1*
X3633207Y2164841D1*
X3624001Y2168655D1*
X3615505Y2173861D1*
X3607928Y2180332D1*
X3601457Y2187909D1*
X3596251Y2196406D1*
X3592437Y2205612D1*
X3590112Y2215301D1*
X3589329Y2225234D1*
X3590112Y2235167D1*
X3592437Y2244856D1*
X3596251Y2254062D1*
X3601457Y2262558D1*
X3607928Y2270135D1*
X3615505Y2276606D1*
X3624001Y2281812D1*
X3633207Y2285626D1*
X3642896Y2287951D1*
X3652829Y2288734D1*
X3662762Y2287951D1*
X3672451Y2285626D1*
X3681657Y2281812D1*
X3690154Y2276606D1*
X3697731Y2270135D1*
X3703273Y2263736D1*
X3722840Y2263734D1*
X3722824Y2542988D1*
X3703299Y2543021D1*
X3697731Y2536619D1*
X3690154Y2530148D1*
X3681657Y2524942D1*
X3672451Y2521129D1*
X3662762Y2518803D1*
X3652829Y2518021D1*
X3642896Y2518803D1*
X3633207Y2521129D1*
X3624001Y2524942D1*
X3615505Y2530148D1*
X3607928Y2536619D1*
X3601457Y2544197D1*
X3596251Y2552693D1*
X3592437Y2561899D1*
X3590112Y2571588D1*
X3589329Y2581521D1*
X3590112Y2591454D1*
X3592437Y2601143D1*
X3596251Y2610349D1*
X3601457Y2618845D1*
X3607928Y2626423D1*
X3615505Y2632894D1*
X3624001Y2638100D1*
X3633207Y2641913D1*
X3642896Y2644239D1*
X3652829Y2645021D1*
X3662762Y2644239D1*
X3672451Y2641913D1*
X3681657Y2638100D1*
X3690154Y2632894D1*
X3697731Y2626423D1*
X3703273Y2620024D1*
X3722840Y2620021D1*
X3722824Y2899276D1*
X3703299Y2899308D1*
X3697731Y2892907D1*
X3690154Y2886436D1*
X3681657Y2881230D1*
X3672451Y2877416D1*
X3662762Y2875091D1*
X3652829Y2874308D1*
X3642896Y2875091D1*
X3633207Y2877416D1*
X3624001Y2881230D1*
X3615505Y2886436D1*
X3607928Y2892907D1*
X3601457Y2900484D1*
X3596251Y2908980D1*
X3592437Y2918186D1*
X3590112Y2927875D1*
X3589329Y2937808D1*
X3590112Y2947741D1*
X3592437Y2957430D1*
X3596251Y2966636D1*
X3601457Y2975133D1*
X3607928Y2982710D1*
X3615505Y2989181D1*
X3624001Y2994387D1*
X3633207Y2998201D1*
X3642896Y3000526D1*
X3652829Y3001308D1*
X3662762Y3000526D1*
X3672451Y2998201D1*
X3681657Y2994387D1*
X3690154Y2989181D1*
X3697731Y2982710D1*
X3703273Y2976311D1*
X3722840Y2976308D1*
X3722824Y3169656D1*
X3661303Y3231176D1*
X3652829Y3230596D1*
X3642896Y3231378D1*
X3633207Y3233703D1*
X3624001Y3237517D1*
X3615505Y3242723D1*
X3607928Y3249194D1*
X3601457Y3256772D1*
X3596251Y3265268D1*
X3592437Y3274474D1*
X3590112Y3284163D1*
X3589329Y3294096D1*
X3590112Y3304029D1*
X3592437Y3313718D1*
X3596251Y3322924D1*
X3601457Y3331420D1*
X3607928Y3338997D1*
X3615505Y3345469D1*
X3624001Y3350675D1*
X3633207Y3354488D1*
X3642896Y3356814D1*
X3652829Y3357596D1*
X3662762Y3356814D1*
X3672451Y3354488D1*
X3681657Y3350675D1*
X3690154Y3345469D1*
X3697731Y3338997D1*
X3704202Y3331420D1*
X3709408Y3322924D1*
X3713222Y3313718D1*
X3715547Y3304029D1*
X3716329Y3294096D1*
X3715724Y3285651D1*
X3790600Y3210605D1*
X3794151Y3205718D1*
X3796894Y3200335D1*
X3798760Y3194589D1*
X3799706Y3188622D1*
X3799824Y3139669D1*
X3799706Y701070D1*
X3798760Y695102D1*
X3796894Y689357D1*
X3794151Y683974D1*
X3792465Y681451D1*
X3791340Y675829D1*
X3791222Y608063D1*
X3790276Y602096D1*
X3788409Y596350D1*
X3785667Y590967D1*
X3782115Y586080D1*
X3747585Y551382D1*
X3742760Y546724D1*
X3737873Y543173D1*
X3732490Y540430D1*
X3726744Y538564D1*
X3720777Y537618D1*
X3671824Y537500D1*
X3339735Y537618D1*
X3333768Y538563D1*
X3328022Y540430D1*
X3322639Y543173D1*
X3317752Y546724D1*
X3297533Y566777D1*
X3293609Y571370D1*
X3290451Y576521D1*
X3288140Y582102D1*
X3286730Y587978D1*
X3286256Y594000D1*
Y725085D1*
X3186008Y825469D1*
X3182457Y830356D1*
X3179714Y835739D1*
X3177846Y841484D1*
X3176902Y847451D1*
X3176783Y850867D1*
X3146528Y820814D1*
X3141640Y817262D1*
X3136257Y814520D1*
X3130512Y812652D1*
X3124545Y811707D1*
X3075592Y811589D1*
X3037908D1*
X3037906Y776492D1*
X3111777Y776382D1*
X3117744Y775436D1*
X3123490Y773570D1*
X3128873Y770827D1*
X3133760Y767276D1*
X3168458Y732745D1*
X3175283Y725920D1*
X3183756Y726500D1*
X3193689Y725718D1*
X3203378Y723392D1*
X3212584Y719579D1*
X3221080Y714373D1*
X3228657Y707902D1*
X3235129Y700324D1*
X3240335Y691828D1*
X3244148Y682622D1*
X3246474Y672933D1*
X3247256Y663000D1*
X3246474Y653067D1*
X3244148Y643378D1*
X3240335Y634172D1*
X3235129Y625676D1*
X3228657Y618098D1*
X3221080Y611627D1*
X3212584Y606421D1*
X3203378Y602608D1*
X3193689Y600282D1*
X3183756Y599500D1*
X3173823Y600282D1*
X3164134Y602608D1*
X3154928Y606421D1*
X3146432Y611627D1*
X3138854Y618098D1*
X3132383Y625676D1*
X3127177Y634172D1*
X3123364Y643378D1*
X3121038Y653067D1*
X3120256Y663000D1*
X3120861Y671445D1*
X3092819Y699491D1*
X3085722Y699493D1*
X3089588Y693249D1*
X3092707Y686598D1*
X3095038Y679634D1*
X3096550Y672446D1*
X3097220Y665131D1*
X3097017Y657495D1*
X3095958Y650227D1*
X3094067Y643130D1*
X3091369Y636298D1*
X3087900Y629824D1*
X3083707Y623794D1*
X3078845Y618287D1*
X3073381Y613381D1*
X3067386Y609136D1*
X3060941Y605613D1*
X3054133Y602858D1*
X3047051Y600907D1*
X3039791Y599787D1*
X3032451Y599513D1*
X3025130Y600089D1*
X3017923Y601505D1*
X3010927Y603745D1*
X3004238Y606778D1*
X2997942Y610563D1*
X2992127Y615049D1*
X2986869Y620177D1*
X2982238Y625878D1*
X2978295Y632075D1*
X2975094Y638686D1*
X2972680Y645623D1*
X2971081Y652793D1*
X2970323Y660098D1*
X2970412Y667442D1*
X2971348Y674727D1*
X2973119Y681856D1*
X2975703Y688731D1*
X2979063Y695262D1*
X2981801Y699499D1*
X2838735Y699618D1*
X2832768Y700564D1*
X2827022Y702430D1*
X2821639Y705173D1*
X2816752Y708724D1*
X2794269Y731041D1*
X2790345Y735634D1*
X2787189Y740785D1*
X2784877Y746366D1*
X2783466Y752241D1*
X2782992Y758276D1*
X2775438Y759660D1*
X2766496D1*
Y940518D1*
X2876488D1*
Y776492D1*
X2927913Y776500D1*
Y940518D1*
X3008043D1*
X3008016Y949134D1*
X2997906Y949222D1*
X2991938Y950168D1*
X2988154Y951311D1*
X2921088Y951308D1*
Y1023899D1*
X2988115D1*
X2991814Y1025005D1*
X2988154Y1026114D1*
X2921088Y1026112D1*
Y1098702D1*
X2964974D1*
X2964970Y1316696D1*
X3066846D1*
X3073222Y1318820D1*
X3079189Y1319766D1*
X3128142Y1319885D1*
X3137046Y1319766D1*
X3143013Y1318822D1*
X3148759Y1316954D1*
X3154142Y1314211D1*
X3159029Y1310660D1*
X3176783Y1293073D1*
Y1534891D1*
X3103664Y1534895D1*
X3103482Y1615933D1*
X3028678Y1615898D1*
Y1721953D1*
X3045293D1*
X3036827Y1730428D1*
X2960077Y1730436D1*
X2960060Y1601824D1*
X2857942D1*
Y1730469D1*
X2759967Y1730436D1*
X2759982Y1680337D1*
X2774509Y1680307D1*
Y1582126D1*
X2668454D1*
Y1680307D1*
X2682987D1*
X2682982Y1730436D1*
X2624470D1*
X2624480Y1643929D1*
X2575499D1*
X2575504Y1547232D1*
X2579205Y1547228D1*
Y1415583D1*
X2494803D1*
Y1547228D1*
X2498500D1*
X2498504Y1643925D1*
X2449528Y1643929D1*
Y1730446D1*
X2343625Y1730436D1*
X2328753Y1715551D1*
X2328744Y1594883D1*
X2226626D1*
Y1642932D1*
X1337248Y1642927D1*
X1259825Y1565470D1*
X1259824Y1468201D1*
X1355610Y1468194D1*
X1355816Y1435118D1*
X1461871D1*
Y752686D1*
X1355816D1*
Y766429D1*
X1299759Y766436D1*
X1299789Y757640D1*
X1211450D1*
Y766432D1*
X1209222Y766436D1*
X1209238Y720239D1*
X1194633D1*
X1197583Y716117D1*
X1200325Y710734D1*
X1202192Y704988D1*
X1203138Y699021D1*
Y692979D1*
X1202844Y690505D1*
X1225387Y690500D1*
X1249580Y714594D1*
X1253071Y717131D1*
X1256916Y719091D1*
X1261020Y720424D1*
X1265282Y721100D1*
X1355678Y721184D1*
X1355692Y734900D1*
X1461747D1*
Y502467D1*
X1369273D1*
X1369256Y485940D1*
X1372903Y481630D1*
X1376059Y476479D1*
X1378371Y470898D1*
X1379782Y465022D1*
X1380256Y459000D1*
X1379782Y452978D1*
X1378371Y447102D1*
X1376059Y441521D1*
X1372903Y436370D1*
X1368979Y431777D1*
X1364386Y427853D1*
X1359235Y424697D1*
X1353654Y422385D1*
X1347778Y420974D1*
X1341756Y420500D1*
X1335734Y420974D1*
X1329858Y422385D1*
X1327255Y423345D1*
X1327256Y209287D1*
X1389382Y209294D1*
Y139428D1*
X1400766Y128022D1*
X1431287Y128035D1*
X1431140Y204102D1*
X1429730Y209978D1*
X1429256Y216000D1*
X1429730Y222022D1*
X1431140Y227898D1*
X1433453Y233479D1*
X1436609Y238630D1*
X1440533Y243223D1*
X1445126Y247147D1*
X1450277Y250303D1*
X1455858Y252615D1*
X1461734Y254026D1*
X1467756Y254500D1*
X1473778Y254026D1*
X1479654Y252615D1*
X1485235Y250303D1*
X1490386Y247147D1*
X1494979Y243223D1*
X1498903Y238630D1*
X1502059Y233479D1*
X1504371Y227898D1*
X1505782Y222022D1*
X1506256Y216000D1*
X1505646Y209294D1*
X1545648D1*
Y139428D1*
X1557033Y128022D1*
X1619383Y128035D1*
X1614776Y136318D1*
X1611136Y144748D1*
X1608353Y153499D1*
X1606450Y162482D1*
X1605450Y171609D1*
X1605360Y180791D1*
X1606181Y189937D1*
X1607907Y198957D1*
X1610520Y207760D1*
X1613992Y216260D1*
X1618293Y224374D1*
X1623377Y232020D1*
X1629194Y239125D1*
X1635688Y245617D1*
X1642794Y251432D1*
X1650444Y256513D1*
X1658558Y260810D1*
X1667060Y264280D1*
X1675864Y266890D1*
X1684883Y268612D1*
X1694030Y269430D1*
X1703211Y269337D1*
X1712339Y268333D1*
X1721322Y266428D1*
X1730071Y263640D1*
X1738500Y259999D1*
X1746528Y255538D1*
X1754071Y250302D1*
X1761058Y244344D1*
X1767419Y237722D1*
X1773091Y230500D1*
X1775135Y227490D1*
X1775220Y395949D1*
X1775895Y400211D1*
X1777228Y404315D1*
X1779188Y408160D1*
X1781724Y411651D1*
X1833196Y463241D1*
X1836476Y466045D1*
X1840156Y468299D1*
X1844143Y469950D1*
X1848339Y470958D1*
X1852640Y471297D1*
X1961059Y471211D1*
X1965322Y470537D1*
X1969425Y469203D1*
X1973270Y467244D1*
X1976761Y464707D1*
X2003349Y438239D1*
X2006152Y434958D1*
X2008407Y431278D1*
X2010058Y427291D1*
X2011066Y423096D1*
X2011404Y417538D1*
X2038900Y417534D1*
Y307542D1*
X2033482D1*
X2035812Y301966D1*
X2037770Y294888D1*
X2038768Y287613D1*
X2038777Y280126D1*
X2037799Y272848D1*
X2035860Y265765D1*
X2032993Y259004D1*
X2029253Y252684D1*
X2024703Y246920D1*
X2019427Y241812D1*
X2013516Y237454D1*
X2006743Y233774D1*
X2028799Y233772D1*
X2141063Y345945D1*
X2144554Y348482D1*
X2148399Y350441D1*
X2152503Y351774D1*
X2156765Y352449D1*
X2259972Y352534D1*
X2331705D1*
X2331444Y356295D1*
X2331529Y433453D1*
X2332203Y437715D1*
X2333537Y441819D1*
X2335496Y445664D1*
X2338033Y449155D1*
X2348100Y459343D1*
X2342564Y462655D1*
X2337971Y466579D1*
X2334047Y471172D1*
X2330890Y476323D1*
X2328579Y481904D1*
X2327168Y487780D1*
X2326694Y493802D1*
Y496564D1*
X2238688Y496558D1*
Y603558D1*
X2393969D1*
X2394289Y610615D1*
X2395297Y614811D1*
X2396948Y618798D1*
X2399202Y622478D1*
X2402005Y625759D1*
X2428593Y652227D1*
X2432084Y654764D1*
X2435929Y656723D1*
X2440033Y658056D1*
X2444303Y658732D1*
X2445164Y659734D1*
X2444087Y664220D1*
X2443724Y668820D1*
X2444087Y673420D1*
X2445164Y677907D1*
X2446929Y682171D1*
X2449340Y686105D1*
X2452337Y689613D1*
X2455845Y692610D1*
X2459780Y695021D1*
X2464043Y696786D1*
X2468530Y697864D1*
X2473139Y698226D1*
X2484075D1*
X2484169Y711482D1*
X2484891Y716039D1*
X2486318Y720428D1*
X2488412Y724539D1*
X2491125Y728272D1*
X2494387Y731534D1*
X2498119Y734247D1*
X2502231Y736341D1*
X2505673Y737501D1*
X2500732Y749133D1*
X2452344Y797521D1*
X2411417Y797500D1*
X2403113Y796873D1*
Y788587D1*
X2314774D1*
Y799747D1*
X2313382Y800383D1*
X2312562Y796217D1*
Y777593D1*
X2314774Y778088D1*
Y786374D1*
X2403113D1*
Y713783D1*
X2314774D1*
Y722575D1*
X2292235Y722579D1*
X2286248Y716601D1*
X2285782Y710978D1*
X2284371Y705102D1*
X2282059Y699521D1*
X2278903Y694370D1*
X2274979Y689777D1*
X2270386Y685853D1*
X2265235Y682697D1*
X2259654Y680385D1*
X2253778Y678974D1*
X2247756Y678500D1*
X2241734Y678974D1*
X2239753Y679367D1*
X2237059Y672521D1*
X2233903Y667370D1*
X2229979Y662777D1*
X2225386Y658853D1*
X2220235Y655697D1*
X2214654Y653385D1*
X2208778Y651974D1*
X2202756Y651500D1*
X2196734Y651974D1*
X2191757Y653131D1*
X2191711Y552467D1*
X2191747Y502467D1*
X2085692D1*
Y734900D1*
X2085673Y834774D1*
X2085638Y957459D1*
Y1134774D1*
X2085675Y1284774D1*
X2085638Y1434774D1*
X2191693D1*
Y1321080D1*
X2327356Y1320974D1*
X2331618Y1320298D1*
X2335722Y1318965D1*
X2339567Y1317005D1*
X2343058Y1314469D1*
X2393202Y1264446D1*
X2396004Y1261164D1*
X2398259Y1257484D1*
X2399911Y1253497D1*
X2400917Y1249302D1*
X2401256Y1245000D1*
Y1118365D1*
X2448667Y1070860D1*
X2451203Y1067369D1*
X2453163Y1063524D1*
X2454496Y1059420D1*
X2455171Y1055157D1*
X2455256Y1004377D1*
X2541668Y917978D1*
X2544533Y921223D1*
X2549126Y925147D1*
X2554277Y928303D1*
X2559858Y930615D1*
X2565734Y932026D1*
X2571756Y932500D1*
X2577778Y932026D1*
X2583654Y930615D1*
X2589235Y928303D1*
X2594386Y925147D1*
X2598979Y921223D1*
X2602903Y916630D1*
X2606059Y911479D1*
X2608371Y905898D1*
X2609782Y900022D1*
X2610240Y894413D1*
X2632820Y871706D1*
X2635357Y868215D1*
X2637316Y864370D1*
X2638650Y860266D1*
X2639324Y856004D1*
X2639409Y761983D1*
Y719604D1*
X2640953Y713774D1*
X2641315Y709175D1*
Y698230D1*
X2654571Y698135D1*
X2659129Y697413D1*
X2663517Y695987D1*
X2667629Y693892D1*
X2671361Y691180D1*
X2674623Y687917D1*
X2677336Y684185D1*
X2679430Y680073D1*
X2680857Y675685D1*
X2681579Y671127D1*
Y666513D1*
X2680857Y661955D1*
X2679965Y659014D1*
X2681307Y653735D1*
X2681669Y649135D1*
X2681307Y644535D1*
X2679965Y639329D1*
X2681307Y634050D1*
X2681669Y629450D1*
X2681307Y624850D1*
X2679965Y619644D1*
X2680331Y618496D1*
X2713950Y618415D1*
X2718213Y617740D1*
X2722316Y616407D1*
X2726161Y614448D1*
X2729652Y611911D1*
X2748214Y593470D1*
X2752734Y598085D1*
X2757621Y601636D1*
X2763004Y604379D1*
X2768749Y606245D1*
X2774717Y607192D1*
X2780759D1*
X2786726Y606245D1*
X2792471Y604379D1*
X2797854Y601636D1*
X2802741Y598085D1*
X2807013Y593814D1*
X2810564Y588927D1*
X2813307Y583543D1*
X2815173Y577798D1*
X2816119Y571831D1*
X2816222Y569223D1*
X2879907Y505411D1*
X2882444Y501920D1*
X2884403Y498075D1*
X2885736Y493971D1*
X2886411Y489709D1*
X2886496Y402542D1*
X3362711Y405346D1*
X3365539Y404549D1*
X3368104Y403113D1*
X3370261Y401118D1*
X3371894Y398675D1*
X3372911Y395919D1*
X3373256Y393000D1*
Y51491D1*
X3459259Y51500D1*
X3459211Y333224D1*
X3460005Y336054D1*
X3461438Y338619D1*
X3606487Y508891D1*
X3608794Y510710D1*
X3611463Y511941D1*
X3614345Y512514D1*
X3896622Y512552D1*
X3896606Y3425367D1*
X3613154Y3425551D1*
X3610340Y3426398D1*
X3607802Y3427878D1*
X3599951Y3435787D1*
X3430194Y3611782D1*
X3428759Y3614346D1*
X3427961Y3617175D1*
X3427807Y3628316D1*
Y3894182D1*
X521236Y3894160D1*
X521081Y3610835D1*
X520262Y3608012D1*
X518808Y3605459D1*
X355071Y3416521D1*
X352764Y3414702D1*
X350094Y3413471D1*
X347213Y3412898D1*
X39961Y3412860D1*
X46173Y512566D1*
X323299Y512381D1*
X326119Y511556D1*
X328671Y510097D1*
X480256Y397811D1*
X480252Y483509D1*
X506268D1*
X506337Y620972D1*
X507012Y625235D1*
X508345Y629339D1*
X510304Y633184D1*
X512841Y636675D1*
X531231Y655185D1*
X531255Y697034D1*
X372150Y697051D1*
Y751774D1*
X363627Y760315D1*
X343950Y760318D1*
X338262Y752577D1*
X331217Y745531D1*
X323155Y739675D1*
X314277Y735151D1*
X304801Y732072D1*
X294958Y730513D1*
X284995D1*
X275152Y732072D1*
X265676Y735151D1*
X256798Y739675D1*
X248736Y745531D1*
X241690Y752577D1*
X235833Y760639D1*
X231310Y769517D1*
X228231Y778993D1*
X226672Y788836D1*
Y798799D1*
X228231Y808642D1*
X231310Y818118D1*
X235833Y826996D1*
X241690Y835058D1*
X248736Y842104D1*
X256798Y847961D1*
X265676Y852484D1*
X275152Y855563D1*
X284995Y857122D1*
X294958D1*
X304801Y855563D1*
X314277Y852484D1*
X323155Y847961D1*
X331217Y842104D1*
X338262Y835058D1*
X343913Y827304D1*
X380130Y827214D1*
X385322Y826392D1*
X390322Y824768D1*
X395005Y822381D1*
X399259Y819291D1*
X415576Y803118D1*
X457661Y803106D1*
Y809356D1*
X458608Y815323D1*
X460474Y821068D1*
X463217Y826451D1*
X466768Y831339D1*
X471039Y835610D1*
X475927Y839161D1*
X481310Y841904D1*
X487055Y843770D1*
X493022Y844717D1*
X499064D1*
X505031Y843770D1*
X510777Y841904D1*
X516160Y839161D1*
X521047Y835610D1*
X525319Y831339D1*
X528870Y826451D1*
X531252Y821850D1*
X531255Y1059608D1*
X384651Y1059589D1*
Y1114312D1*
X382370Y1116612D1*
X343898Y1116605D1*
X338262Y1108865D1*
X331217Y1101819D1*
X323155Y1095962D1*
X314277Y1091438D1*
X304801Y1088360D1*
X294958Y1086801D1*
X284995D1*
X275152Y1088360D1*
X265676Y1091438D1*
X256798Y1095962D1*
X248736Y1101819D1*
X241690Y1108865D1*
X235833Y1116927D1*
X231310Y1125804D1*
X228231Y1135281D1*
X226672Y1145123D1*
Y1155087D1*
X228231Y1164929D1*
X231310Y1174406D1*
X235833Y1183283D1*
X241690Y1191345D1*
X248736Y1198391D1*
X256798Y1204248D1*
X265676Y1208772D1*
X275152Y1211850D1*
X284995Y1213409D1*
X294958D1*
X304801Y1211850D1*
X314277Y1208772D1*
X323155Y1204248D1*
X331217Y1198391D1*
X338262Y1191345D1*
X343913Y1183592D1*
X398882Y1183501D1*
X404073Y1182680D1*
X409073Y1181055D1*
X413757Y1178668D1*
X418010Y1175579D1*
X428087Y1165648D1*
X470163Y1165852D1*
Y1171894D1*
X471109Y1177861D1*
X472975Y1183606D1*
X475718Y1188990D1*
X479269Y1193877D1*
X483541Y1198148D1*
X488428Y1201699D1*
X493811Y1204442D1*
X499556Y1206308D1*
X505524Y1207255D1*
X511566D1*
X517533Y1206308D1*
X523278Y1204442D1*
X528661Y1201699D1*
X531257Y1199954D1*
X531255Y1428353D1*
X378400Y1428378D1*
Y1472909D1*
X343906Y1472892D1*
X338262Y1465152D1*
X331217Y1458106D1*
X323155Y1452249D1*
X314277Y1447726D1*
X304801Y1444647D1*
X294958Y1443088D1*
X284995D1*
X275152Y1444647D1*
X265676Y1447726D1*
X256798Y1452249D1*
X248736Y1458106D1*
X241690Y1465152D1*
X235833Y1473214D1*
X231310Y1482092D1*
X228231Y1491568D1*
X226672Y1501411D1*
Y1511374D1*
X228231Y1521217D1*
X231310Y1530693D1*
X235833Y1539571D1*
X241690Y1547633D1*
X248736Y1554678D1*
X256798Y1560535D1*
X265676Y1565059D1*
X275152Y1568138D1*
X284995Y1569697D1*
X294958D1*
X304801Y1568138D1*
X314277Y1565059D1*
X323155Y1560535D1*
X331217Y1554678D1*
X338262Y1547633D1*
X343913Y1539879D1*
X405133Y1539789D1*
X410324Y1538967D1*
X415324Y1537343D1*
X420016Y1534950D1*
X424332Y1534433D1*
X467142D1*
X464858Y1541175D1*
X463912Y1547142D1*
Y1553184D1*
X464858Y1559151D1*
X466724Y1564896D1*
X469467Y1570280D1*
X473018Y1575167D1*
X477290Y1579438D1*
X482177Y1582990D1*
X487560Y1585732D1*
X493306Y1587598D1*
X499273Y1588545D1*
X505315D1*
X511282Y1587598D1*
X517028Y1585732D1*
X522411Y1582990D1*
X527298Y1579438D1*
X531257Y1575505D1*
X531255Y1797171D1*
X378400Y1797167D1*
X378260Y1829180D1*
X343919D1*
X338262Y1821440D1*
X331217Y1814394D1*
X323155Y1808537D1*
X314277Y1804013D1*
X304801Y1800934D1*
X294958Y1799375D1*
X284995D1*
X275152Y1800934D1*
X265676Y1804013D1*
X256798Y1808537D1*
X248736Y1814394D1*
X241690Y1821440D1*
X235833Y1829501D1*
X231310Y1838379D1*
X228231Y1847856D1*
X226672Y1857698D1*
Y1867661D1*
X228231Y1877504D1*
X231310Y1886980D1*
X235833Y1895858D1*
X241690Y1903920D1*
X248736Y1910966D1*
X256798Y1916823D1*
X265676Y1921346D1*
X275152Y1924425D1*
X284995Y1925984D1*
X294958D1*
X304801Y1924425D1*
X314277Y1921346D1*
X323155Y1916823D1*
X331217Y1910966D1*
X338262Y1903920D1*
X343913Y1896167D1*
X378430Y1896180D1*
X378400Y1903222D1*
X464990D1*
X463912Y1909680D1*
Y1915722D1*
X464858Y1921689D1*
X466724Y1927434D1*
X469467Y1932818D1*
X473018Y1937705D1*
X477290Y1941976D1*
X482177Y1945528D1*
X487560Y1948270D1*
X493306Y1950136D1*
X499273Y1951083D1*
X505315D1*
X511282Y1950136D1*
X517028Y1948270D1*
X522411Y1945528D1*
X527298Y1941976D1*
X531257Y1938043D1*
X531255Y2143812D1*
X527298Y2139907D1*
X522411Y2136356D1*
X517028Y2133613D1*
X511282Y2131747D1*
X505315Y2130801D1*
X499273D1*
X493306Y2131747D1*
X487560Y2133613D1*
X482177Y2136356D1*
X477290Y2139907D1*
X473018Y2144178D1*
X469467Y2149066D1*
X466724Y2154449D1*
X464858Y2160194D1*
X463912Y2166161D1*
X463913Y2172215D1*
X378400Y2172206D1*
Y2185448D1*
X343894Y2185467D1*
X338262Y2177727D1*
X331217Y2170681D1*
X323155Y2164824D1*
X314277Y2160301D1*
X304801Y2157222D1*
X294958Y2155663D1*
X284995D1*
X275152Y2157222D1*
X265676Y2160301D1*
X256798Y2164824D1*
X248736Y2170681D1*
X241690Y2177727D1*
X235833Y2185789D1*
X231310Y2194667D1*
X228231Y2204143D1*
X226672Y2213986D1*
Y2223949D1*
X228231Y2233791D1*
X231310Y2243268D1*
X235833Y2252146D1*
X241690Y2260207D1*
X248736Y2267253D1*
X256798Y2273110D1*
X265676Y2277634D1*
X275152Y2280713D1*
X284995Y2282272D1*
X294958D1*
X304801Y2280713D1*
X314277Y2277634D1*
X323155Y2273110D1*
X331217Y2267253D1*
X338262Y2260207D1*
X343913Y2252454D1*
X378430Y2252467D1*
X378400Y2278261D1*
X531252D1*
X531255Y2506386D1*
X527298Y2502445D1*
X522411Y2498894D1*
X517028Y2496151D1*
X511282Y2494285D1*
X505315Y2493339D1*
X499273D1*
X493306Y2494285D1*
X487560Y2496151D1*
X482177Y2498894D1*
X477290Y2502445D1*
X473018Y2506717D1*
X469467Y2511604D1*
X466724Y2516987D1*
X464858Y2522732D1*
X463912Y2528699D1*
X463913Y2534753D1*
X378400Y2534744D1*
X378228Y2541755D1*
X343887D1*
X338262Y2534014D1*
X331217Y2526969D1*
X323155Y2521112D1*
X314277Y2516588D1*
X304801Y2513509D1*
X294958Y2511950D1*
X284995D1*
X275152Y2513509D1*
X265676Y2516588D1*
X256798Y2521112D1*
X248736Y2526969D1*
X241690Y2534014D1*
X235833Y2542076D1*
X231310Y2550954D1*
X228231Y2560430D1*
X226672Y2570273D1*
Y2580236D1*
X228231Y2590079D1*
X231310Y2599555D1*
X235833Y2608433D1*
X241690Y2616495D1*
X248736Y2623541D1*
X256798Y2629398D1*
X265676Y2633921D1*
X275152Y2637000D1*
X284995Y2638559D1*
X294958D1*
X304801Y2637000D1*
X314277Y2633921D1*
X323155Y2629398D1*
X331217Y2623541D1*
X338262Y2616495D1*
X343913Y2608741D1*
X378430Y2608755D1*
X378400Y2640799D1*
X531252D1*
X531255Y2881377D1*
X527298Y2877484D1*
X522411Y2873933D1*
X517028Y2871190D1*
X511282Y2869324D1*
X505315Y2868378D1*
X499273D1*
X493306Y2869324D1*
X487560Y2871190D1*
X482177Y2873933D1*
X477290Y2877484D1*
X473018Y2881756D1*
X469467Y2886643D1*
X466724Y2892026D1*
X464858Y2897772D1*
X463912Y2903739D1*
X463913Y2909793D1*
X421858Y2909783D1*
X415912Y2904440D1*
X411430Y2901693D1*
X406573Y2899681D1*
X401462Y2898454D1*
X396211Y2898042D1*
X343938D1*
X338262Y2890302D1*
X331217Y2883256D1*
X323155Y2877399D1*
X314277Y2872875D1*
X304801Y2869797D1*
X294958Y2868238D1*
X284995D1*
X275152Y2869797D1*
X265676Y2872875D1*
X256798Y2877399D1*
X248736Y2883256D1*
X241690Y2890302D1*
X235833Y2898364D1*
X231310Y2907241D1*
X228231Y2916718D1*
X226672Y2926560D1*
Y2936524D1*
X228231Y2946366D1*
X231310Y2955843D1*
X235833Y2964720D1*
X241690Y2972782D1*
X248736Y2979828D1*
X256798Y2985685D1*
X265676Y2990209D1*
X275152Y2993287D1*
X284995Y2994846D1*
X294958D1*
X304801Y2993287D1*
X314277Y2990209D1*
X323155Y2985685D1*
X331217Y2979828D1*
X338262Y2972782D1*
X343913Y2965029D1*
X378430Y2965042D1*
X378400Y3015839D1*
X506420D1*
X506252Y3037440D1*
Y3240723D1*
X501690Y3238933D1*
X495815Y3237522D1*
X489793Y3237049D1*
X483770Y3237522D1*
X477895Y3238933D1*
X472314Y3241245D1*
X467163Y3244402D1*
X462570Y3248325D1*
X458646Y3252919D1*
X455490Y3258070D1*
X453177Y3263651D1*
X451766Y3269526D1*
X451293Y3275549D1*
X451412Y3278581D1*
X409357Y3278572D1*
X392975Y3262356D1*
X388723Y3259266D1*
X384039Y3256879D1*
X379039Y3255255D1*
X373848Y3254433D1*
X343911Y3254329D1*
X353450Y2779705D2*
X352814Y2772387D1*
X351336Y2765193D1*
X349037Y2758217D1*
X345949Y2751552D1*
X342112Y2745290D1*
X337576Y2739512D1*
X332404Y2734297D1*
X326665Y2729714D1*
X320434Y2725823D1*
X313797Y2722678D1*
X306840Y2720322D1*
X299657Y2718785D1*
X292346Y2718087D1*
X285003Y2718238D1*
X277726Y2719235D1*
X270613Y2721067D1*
X263759Y2723707D1*
X257256Y2727121D1*
X251190Y2731264D1*
X245644Y2736079D1*
X240690Y2741503D1*
X236396Y2747462D1*
X232820Y2753877D1*
X230008Y2760661D1*
X227997Y2767727D1*
X226816Y2774976D1*
X226482Y2782314D1*
X226995Y2789640D1*
X228352Y2796860D1*
X230533Y2803873D1*
X233509Y2810588D1*
X237240Y2816913D1*
X241677Y2822766D1*
X246761Y2828068D1*
X252423Y2832748D1*
X258588Y2836741D1*
X265172Y2839997D1*
X272088Y2842470D1*
X279243Y2844129D1*
X286542Y2844949D1*
X293887Y2844921D1*
X301180Y2844046D1*
X308322Y2842335D1*
X315219Y2839808D1*
X321780Y2836504D1*
X327913Y2832465D1*
X333539Y2827743D1*
X338583Y2822403D1*
X342976Y2816517D1*
X346660Y2810163D1*
X349587Y2803425D1*
X351715Y2796396D1*
X353017Y2789167D1*
X353476Y2781542D1*
X353450Y2779705D1*
Y2423417D2*
X352814Y2416100D1*
X351336Y2408906D1*
X349037Y2401929D1*
X345949Y2395265D1*
X342112Y2389003D1*
X337576Y2383224D1*
X332404Y2378009D1*
X326665Y2373427D1*
X320434Y2369535D1*
X313797Y2366391D1*
X306840Y2364034D1*
X299657Y2362497D1*
X292346Y2361799D1*
X285003Y2361950D1*
X277726Y2362948D1*
X270613Y2364780D1*
X263759Y2367420D1*
X257256Y2370833D1*
X251190Y2374976D1*
X245644Y2379791D1*
X240690Y2385215D1*
X236396Y2391175D1*
X232820Y2397589D1*
X230008Y2404374D1*
X227997Y2411440D1*
X226816Y2418689D1*
X226482Y2426026D1*
X226995Y2433353D1*
X228352Y2440572D1*
X230533Y2447585D1*
X233509Y2454301D1*
X237240Y2460626D1*
X241677Y2466479D1*
X246761Y2471781D1*
X252423Y2476461D1*
X258588Y2480454D1*
X265172Y2483710D1*
X272088Y2486182D1*
X279243Y2487841D1*
X286542Y2488661D1*
X293887Y2488634D1*
X301180Y2487759D1*
X308322Y2486047D1*
X315219Y2483521D1*
X321780Y2480217D1*
X327913Y2476177D1*
X333539Y2471455D1*
X338583Y2466115D1*
X342976Y2460230D1*
X346660Y2453875D1*
X349587Y2447138D1*
X351715Y2440109D1*
X353017Y2432879D1*
X353476Y2425255D1*
X353450Y2423417D1*
Y2067130D2*
X352814Y2059812D1*
X351336Y2052618D1*
X349037Y2045642D1*
X345949Y2038978D1*
X342112Y2032715D1*
X337576Y2026937D1*
X332404Y2021722D1*
X326665Y2017139D1*
X320434Y2013248D1*
X313797Y2010104D1*
X306840Y2007747D1*
X299657Y2006210D1*
X292346Y2005512D1*
X285003Y2005663D1*
X277726Y2006660D1*
X270613Y2008492D1*
X263759Y2011133D1*
X257256Y2014546D1*
X251190Y2018689D1*
X245644Y2023504D1*
X240690Y2028928D1*
X236396Y2034887D1*
X232820Y2041302D1*
X230008Y2048087D1*
X227997Y2055152D1*
X226816Y2062402D1*
X226482Y2069739D1*
X226995Y2077066D1*
X228352Y2084285D1*
X230533Y2091298D1*
X233509Y2098013D1*
X237240Y2104339D1*
X241677Y2110192D1*
X246761Y2115493D1*
X252423Y2120173D1*
X258588Y2124167D1*
X265172Y2127423D1*
X272088Y2129895D1*
X279243Y2131554D1*
X286542Y2132374D1*
X293887Y2132346D1*
X301180Y2131471D1*
X308322Y2129760D1*
X315219Y2127234D1*
X321780Y2123929D1*
X327913Y2119890D1*
X333539Y2115168D1*
X338583Y2109828D1*
X342976Y2103942D1*
X346660Y2097588D1*
X349587Y2090850D1*
X351715Y2083822D1*
X353017Y2076592D1*
X353476Y2068967D1*
X353450Y2067130D1*
Y1710843D2*
X352814Y1703525D1*
X351336Y1696331D1*
X349037Y1689354D1*
X345949Y1682690D1*
X342112Y1676428D1*
X337576Y1670650D1*
X332404Y1665434D1*
X326665Y1660852D1*
X320434Y1656961D1*
X313797Y1653816D1*
X306840Y1651459D1*
X299657Y1649923D1*
X292346Y1649224D1*
X285003Y1649375D1*
X277726Y1650373D1*
X270613Y1652205D1*
X263759Y1654845D1*
X257256Y1658259D1*
X251190Y1662402D1*
X245644Y1667217D1*
X240690Y1672640D1*
X236396Y1678600D1*
X232820Y1685014D1*
X230008Y1691799D1*
X227997Y1698865D1*
X226816Y1706114D1*
X226482Y1713451D1*
X226995Y1720778D1*
X228352Y1727997D1*
X230533Y1735010D1*
X233509Y1741726D1*
X237240Y1748051D1*
X241677Y1753904D1*
X246761Y1759206D1*
X252423Y1763886D1*
X258588Y1767879D1*
X265172Y1771135D1*
X272088Y1773608D1*
X279243Y1775266D1*
X286542Y1776087D1*
X293887Y1776059D1*
X301180Y1775184D1*
X308322Y1773472D1*
X315219Y1770946D1*
X321780Y1767642D1*
X327913Y1763602D1*
X333539Y1758881D1*
X338583Y1753541D1*
X342976Y1747655D1*
X346660Y1741301D1*
X349587Y1734563D1*
X351715Y1727534D1*
X353017Y1720304D1*
X353476Y1712680D1*
X353450Y1710843D1*
Y1354555D2*
X352814Y1347238D1*
X351336Y1340043D1*
X349037Y1333067D1*
X345949Y1326403D1*
X342112Y1320140D1*
X337576Y1314362D1*
X332404Y1309147D1*
X326665Y1304564D1*
X320434Y1300673D1*
X313797Y1297529D1*
X306840Y1295172D1*
X299657Y1293635D1*
X292346Y1292937D1*
X285003Y1293088D1*
X277726Y1294085D1*
X270613Y1295917D1*
X263759Y1298558D1*
X257256Y1301971D1*
X251190Y1306114D1*
X245644Y1310929D1*
X240690Y1316353D1*
X236396Y1322312D1*
X232820Y1328727D1*
X230008Y1335512D1*
X227997Y1342577D1*
X226816Y1349827D1*
X226482Y1357164D1*
X226995Y1364491D1*
X228352Y1371710D1*
X230533Y1378723D1*
X233509Y1385438D1*
X237240Y1391764D1*
X241677Y1397617D1*
X246761Y1402919D1*
X252423Y1407598D1*
X258588Y1411592D1*
X265172Y1414848D1*
X272088Y1417320D1*
X279243Y1418979D1*
X286542Y1419799D1*
X293887Y1419772D1*
X301180Y1418896D1*
X308322Y1417185D1*
X315219Y1414659D1*
X321780Y1411354D1*
X327913Y1407315D1*
X333539Y1402593D1*
X338583Y1397253D1*
X342976Y1391367D1*
X346660Y1385013D1*
X349587Y1378276D1*
X351715Y1371247D1*
X353017Y1364017D1*
X353476Y1356392D1*
X353450Y1354555D1*
Y998268D2*
X352814Y990950D1*
X351336Y983756D1*
X349037Y976780D1*
X345949Y970115D1*
X342112Y963853D1*
X337576Y958075D1*
X332404Y952860D1*
X326665Y948277D1*
X320434Y944386D1*
X313797Y941241D1*
X306840Y938885D1*
X299657Y937348D1*
X292346Y936650D1*
X285003Y936801D1*
X277726Y937798D1*
X270613Y939630D1*
X263759Y942270D1*
X257256Y945684D1*
X251190Y949827D1*
X245644Y954642D1*
X240690Y960066D1*
X236396Y966025D1*
X232820Y972440D1*
X230008Y979224D1*
X227997Y986290D1*
X226816Y993539D1*
X226482Y1000877D1*
X226995Y1008203D1*
X228352Y1015423D1*
X230533Y1022436D1*
X233509Y1029151D1*
X237240Y1035476D1*
X241677Y1041329D1*
X246761Y1046631D1*
X252423Y1051311D1*
X258588Y1055304D1*
X265172Y1058560D1*
X272088Y1061033D1*
X279243Y1062692D1*
X286542Y1063512D1*
X293887Y1063484D1*
X301180Y1062609D1*
X308322Y1060898D1*
X315219Y1058371D1*
X321780Y1055067D1*
X327913Y1051028D1*
X333539Y1046306D1*
X338583Y1040966D1*
X342976Y1035080D1*
X346660Y1028726D1*
X349587Y1021988D1*
X351715Y1014959D1*
X353017Y1007730D1*
X353476Y1000105D1*
X353450Y998268D1*
Y641980D2*
X352814Y634663D1*
X351336Y627469D1*
X349037Y620492D1*
X345949Y613828D1*
X342112Y607566D1*
X337576Y601787D1*
X332404Y596572D1*
X326665Y591990D1*
X320434Y588098D1*
X313797Y584954D1*
X306840Y582597D1*
X299657Y581060D1*
X292346Y580362D1*
X285003Y580513D1*
X277726Y581510D1*
X270613Y583343D1*
X263759Y585983D1*
X257256Y589396D1*
X251190Y593539D1*
X245644Y598354D1*
X240690Y603778D1*
X236396Y609738D1*
X232820Y616152D1*
X230008Y622937D1*
X227997Y630003D1*
X226816Y637252D1*
X226482Y644589D1*
X226995Y651916D1*
X228352Y659135D1*
X230533Y666148D1*
X233509Y672864D1*
X237240Y679189D1*
X241677Y685042D1*
X246761Y690344D1*
X252423Y695024D1*
X258588Y699017D1*
X265172Y702273D1*
X272088Y704745D1*
X279243Y706404D1*
X286542Y707224D1*
X293887Y707197D1*
X301180Y706322D1*
X308322Y704610D1*
X315219Y702084D1*
X321780Y698780D1*
X327913Y694740D1*
X333539Y690018D1*
X338583Y684678D1*
X342976Y678793D1*
X346660Y672438D1*
X349587Y665701D1*
X351715Y658672D1*
X353017Y651442D1*
X353476Y643818D1*
X353450Y641980D1*
X1434857Y2009028D2*
X1445445D1*
Y1921219D1*
X1502938Y1921247D1*
X1495882Y1928449D1*
X1492793Y1932701D1*
X1490406Y1937385D1*
X1488781Y1942385D1*
X1487959Y1947576D1*
X1487856Y2005323D1*
Y2092629D1*
X1432432Y2148020D1*
X1427240Y2148031D1*
X1430659Y2142497D1*
X1432970Y2136916D1*
X1434381Y2131041D1*
X1434854Y2125018D1*
Y2009005D1*
X2656370Y2009483D2*
X2657984D1*
X2657979Y2215509D1*
X2630509Y2243007D1*
X2516554Y2243150D1*
X2510587Y2244094D1*
X2504273Y2246224D1*
X2426199Y2246220D1*
X2419823Y2244096D1*
X2413856Y2243150D1*
X2364903Y2243031D1*
X2324892D1*
X2183927Y2102198D1*
X2179039Y2098647D1*
X2173656Y2095904D1*
X2167911Y2094038D1*
X2161944Y2093092D1*
X2112991Y2092974D1*
X1774612Y2093092D1*
X1768644Y2094038D1*
X1762899Y2095904D1*
X1757516Y2098647D1*
X1752629Y2102198D1*
X1748357Y2106470D1*
X1744806Y2111357D1*
X1742063Y2116740D1*
X1740197Y2122486D1*
X1739251Y2128453D1*
Y2134495D1*
X1740197Y2140462D1*
X1742063Y2146207D1*
X1744812Y2151600D1*
X1741646Y2152979D1*
X1672999D1*
X1673025Y2146220D1*
X1547285D1*
Y2366843D1*
Y2404030D1*
X1537924Y2404117D1*
X1533661Y2404791D1*
X1529558Y2406125D1*
X1525713Y2408084D1*
X1522222Y2410621D1*
X1506696Y2426147D1*
X1504159Y2429638D1*
X1502199Y2433483D1*
X1500866Y2437587D1*
X1500192Y2441849D1*
X1500106Y2504543D1*
X1496459Y2508886D1*
X1493303Y2514037D1*
X1490991Y2519618D1*
X1489580Y2525493D1*
X1489106Y2531516D1*
X1489580Y2537538D1*
X1490991Y2543413D1*
X1493303Y2548995D1*
X1496459Y2554146D1*
X1500383Y2558739D1*
X1504976Y2562663D1*
X1510127Y2565819D1*
X1515709Y2568131D1*
X1521584Y2569542D1*
X1527606Y2570016D1*
X1533629Y2569542D1*
X1539504Y2568131D1*
X1545085Y2565819D1*
X1547280Y2564591D1*
X1547322Y2666843D1*
X1547285Y2712327D1*
X1467572Y2632612D1*
X1467512Y2385593D1*
X1466837Y2381331D1*
X1465504Y2377227D1*
X1463545Y2373382D1*
X1461008Y2369891D1*
X1403323Y2312087D1*
X1400042Y2309283D1*
X1396362Y2307029D1*
X1392375Y2305378D1*
X1388180Y2304370D1*
X1383870Y2304031D1*
X1371282D1*
X1374390Y2298969D1*
X1376702Y2293387D1*
X1378113Y2287512D1*
X1378587Y2281490D1*
X1378113Y2275467D1*
X1376702Y2269592D1*
X1374390Y2264010D1*
X1371234Y2258860D1*
X1367310Y2254266D1*
X1362717Y2250343D1*
X1357566Y2247186D1*
X1351984Y2244874D1*
X1346109Y2243463D1*
X1340087Y2242990D1*
X1237097Y2243108D1*
X1231130Y2244054D1*
X1224731Y2246222D1*
X1177206Y2246220D1*
Y2447692D1*
X1170715Y2444895D1*
X1164840Y2443484D1*
X1158818Y2443010D1*
X1152795Y2443484D1*
X1146920Y2444895D1*
X1141339Y2447207D1*
X1136188Y2450364D1*
X1131594Y2454287D1*
X1127671Y2458881D1*
X1124514Y2464031D1*
X1122202Y2469613D1*
X1120791Y2475488D1*
X1120318Y2481510D1*
X1120791Y2487533D1*
X1122202Y2493408D1*
X1124514Y2498990D1*
X1127671Y2504140D1*
X1129534Y2506505D1*
X1125991Y2511399D1*
X1123248Y2516782D1*
X1121382Y2522528D1*
X1120436Y2528495D1*
Y2534537D1*
X1121382Y2540504D1*
X1123248Y2546249D1*
X1125991Y2551633D1*
X1129534Y2556510D1*
X1125991Y2561404D1*
X1123248Y2566787D1*
X1121382Y2572533D1*
X1120436Y2578500D1*
Y2584542D1*
X1121382Y2590509D1*
X1123248Y2596255D1*
X1125186Y2600385D1*
X1120035Y2597228D1*
X1114454Y2594916D1*
X1108579Y2593505D1*
X1102556Y2593031D1*
X1096534Y2593505D1*
X1090659Y2594916D1*
X1085077Y2597228D1*
X1079927Y2600385D1*
X1075333Y2604308D1*
X1071409Y2608902D1*
X1068253Y2614052D1*
X1065941Y2619634D1*
X1064530Y2625509D1*
X1064056Y2631531D1*
X1064530Y2637554D1*
X1065941Y2643429D1*
X1068253Y2649010D1*
X1071324Y2654034D1*
X973206Y2654031D1*
X968925Y2650385D1*
X963774Y2647228D1*
X958193Y2644916D1*
X952318Y2643505D1*
X946295Y2643031D1*
X940273Y2643505D1*
X934398Y2644916D1*
X928816Y2647228D1*
X923665Y2650385D1*
X919072Y2654308D1*
X915148Y2658902D1*
X911992Y2664052D1*
X909680Y2669634D1*
X908269Y2675509D1*
X907795Y2681531D1*
X908269Y2687554D1*
X909680Y2693429D1*
X911992Y2699010D1*
X915148Y2704161D1*
X919072Y2708755D1*
X923665Y2712678D1*
X928816Y2715835D1*
X934398Y2718147D1*
X940273Y2719558D1*
X946295Y2720031D1*
X952318Y2719558D1*
X958193Y2718147D1*
X963774Y2715835D1*
X968925Y2712678D1*
X973215Y2709035D1*
X1177210Y2709031D1*
X1177206Y2716843D1*
X1302946D1*
Y2459055D1*
X1308656Y2463969D1*
X1312589Y2467902D1*
X1312671Y2664937D1*
X1313346Y2669199D1*
X1314680Y2673303D1*
X1316639Y2677148D1*
X1319176Y2680639D1*
X1385598Y2747182D1*
X1447240Y2808703D1*
X1450731Y2811240D1*
X1454576Y2813199D1*
X1458680Y2814533D1*
X1462942Y2815209D1*
X1556963Y2815293D1*
X1739291D1*
X1742106Y2819047D1*
X1745815Y2822798D1*
X913941Y2822799D1*
X717497Y2626365D1*
X717518Y1984003D1*
X720845Y1988860D1*
X781255Y2049390D1*
X781730Y2055022D1*
X783140Y2060898D1*
X785453Y2066479D1*
X788609Y2071630D1*
X792533Y2076223D1*
X797126Y2080147D1*
X802277Y2083303D1*
X807858Y2085615D1*
X813734Y2087026D1*
X819756Y2087500D1*
X825778Y2087026D1*
X831654Y2085615D1*
X837235Y2083303D1*
X842386Y2080147D1*
X846979Y2076223D1*
X850903Y2071630D1*
X854059Y2066479D1*
X856352Y2060953D1*
X861756Y2061500D1*
X892365D1*
X933257Y2102392D1*
X933340Y2117157D1*
X934016Y2121420D1*
X935349Y2125524D1*
X937308Y2129369D1*
X939845Y2132860D1*
X983311Y2176445D1*
X986592Y2179248D1*
X990272Y2181503D1*
X994259Y2183154D1*
X998454Y2184161D1*
X1002756Y2184500D1*
X1012050D1*
X1012030Y2205772D1*
X1118085D1*
Y2194252D1*
X1125896Y2201911D1*
X1129387Y2204448D1*
X1133232Y2206407D1*
X1137336Y2207740D1*
X1141598Y2208415D1*
X1177236Y2208500D1*
X1177206Y2216843D1*
X1302946D1*
Y2215012D1*
X1448924Y2214928D1*
X1454115Y2214106D1*
X1459115Y2212482D1*
X1463799Y2210094D1*
X1468051Y2207005D1*
X1508958Y2166245D1*
X1546829Y2128227D1*
X1549919Y2123975D1*
X1552306Y2119291D1*
X1553930Y2114291D1*
X1554752Y2109100D1*
X1554856Y2051353D1*
Y1964047D1*
X1566484Y1952451D1*
X2251310D1*
X2256694Y1957839D1*
X2256790Y2134102D1*
X2257612Y2139294D1*
X2259236Y2144294D1*
X2261623Y2148978D1*
X2264713Y2153230D1*
X2305472Y2194136D1*
X2318436Y2206953D1*
X2322688Y2210042D1*
X2327371Y2212429D1*
X2332371Y2214054D1*
X2337563Y2214875D1*
X2402307Y2214979D1*
X2402335Y2216843D1*
X2528075D1*
Y1996220D1*
X2423688D1*
X2423593Y1878819D1*
X2422772Y1873627D1*
X2421147Y1868627D1*
X2418760Y1863944D1*
X2415671Y1859690D1*
X2384832Y1828706D1*
X2627537Y1828689D1*
X2631752Y1833663D1*
X2636345Y1837587D1*
X2641496Y1840743D1*
X2647077Y1843055D1*
X2652953Y1844466D1*
X2657783Y1844892D1*
X2657774Y1903394D1*
X2647184Y1903428D1*
Y2009483D1*
X2656370D1*
X2745365Y1993012D2*
Y1903428D1*
X2734780D1*
X2734774Y1807428D1*
X3187051Y1807318D1*
X3193018Y1806373D1*
X3198764Y1804505D1*
X3204147Y1801762D1*
X3209034Y1798211D1*
X3242507Y1764906D1*
X3246430Y1760312D1*
X3249592Y1755151D1*
X3250290Y1759501D1*
Y2213831D1*
X3160122Y2304010D1*
X2898163Y2304031D1*
X2898154Y2209966D1*
X2901902Y2209979D1*
X2905123Y2212626D1*
X2910274Y2215782D1*
X2915856Y2218094D1*
X2921731Y2219505D1*
X2927753Y2219979D1*
X2933776Y2219505D1*
X2939651Y2218094D1*
X2945232Y2215782D1*
X2950383Y2212626D1*
X2954976Y2208702D1*
X2958900Y2204109D1*
X2962056Y2198958D1*
X2964369Y2193377D1*
X2965780Y2187501D1*
X2966253Y2181479D1*
X2965780Y2175457D1*
X2964369Y2169581D1*
X2962056Y2164000D1*
X2958900Y2158849D1*
X2954976Y2154256D1*
X2950383Y2150332D1*
X2945232Y2147176D1*
X2939651Y2144864D1*
X2933776Y2143453D1*
X2927753Y2142979D1*
X2921731Y2143453D1*
X2915856Y2144864D1*
X2910274Y2147176D1*
X2905123Y2150332D1*
X2901908Y2152980D1*
X2898148Y2152979D1*
X2898154Y2146220D1*
X2772413D1*
Y2366843D1*
X2772450Y2516843D1*
X2772413Y2666843D1*
Y2691542D1*
X2528067Y2691535D1*
X2528075Y2320013D1*
X2649453Y2319913D1*
X2655420Y2318969D1*
X2661165Y2317101D1*
X2666549Y2314358D1*
X2671436Y2310807D1*
X2706134Y2276277D1*
X2725755Y2256488D1*
X2729306Y2251601D1*
X2732049Y2246218D1*
X2733916Y2240472D1*
X2734861Y2234505D1*
X2734979Y2185552D1*
Y2070041D1*
X2838304Y2069913D1*
X2844272Y2068967D1*
X2850585Y2066839D1*
X2898154Y2066843D1*
Y1996220D1*
X2850608D1*
X2844272Y1994096D1*
X2838304Y1993150D1*
X2789352Y1993031D1*
X2745394D1*
X2473337Y1317232D2*
X2555333D1*
X2574752Y1336636D1*
X2549693Y1336762D1*
X2543726Y1337709D1*
X2537980Y1339575D1*
X2532597Y1342318D1*
X2527710Y1345869D1*
X2523438Y1350140D1*
X2519887Y1355028D1*
X2517144Y1360411D1*
X2515278Y1366156D1*
X2514332Y1372123D1*
Y1378165D1*
X2515278Y1384133D1*
X2517144Y1389878D1*
X2519887Y1395261D1*
X2523438Y1400148D1*
X2527710Y1404420D1*
X2532597Y1407971D1*
X2537980Y1410714D1*
X2543726Y1412580D1*
X2549693Y1413526D1*
X2589209Y1413644D1*
X2587079Y1415583D1*
X2585354D1*
Y1547228D1*
X2669756D1*
Y1415583D1*
X2666203D1*
X2667937Y1408129D1*
X2710514Y1365825D1*
X2716113Y1368094D1*
X2721999Y1369461D1*
X2725014Y1369794D1*
X2815241Y1369890D1*
X2821264Y1369416D1*
X2827139Y1368005D1*
X2832720Y1365694D1*
X2837871Y1362537D1*
X2842465Y1358613D1*
X2846388Y1354020D1*
X2849546Y1348869D1*
X2851857Y1343287D1*
X2853268Y1337412D1*
X2853741Y1331390D1*
X2853268Y1325367D1*
X2851857Y1319492D1*
X2850823Y1316690D1*
X2878112Y1316696D1*
Y1146073D1*
X2830566D1*
X2824230Y1143948D1*
X2818262Y1143003D1*
X2812220D1*
X2806253Y1143948D1*
X2799940Y1146077D1*
X2752371Y1146073D1*
Y1188308D1*
X2649702Y1188335D1*
Y1286516D1*
X2664235D1*
X2664230Y1302913D1*
X2657110Y1310060D1*
X2566249Y1219239D1*
X2566269Y1158028D1*
X2464151D1*
Y1317232D1*
X2473337D1*
X2235812Y1730466D2*
X2240944D1*
X2243381Y1736409D1*
X2246538Y1741560D1*
X2250462Y1746154D1*
X2276013Y1771706D1*
X1665299Y1771689D1*
X1661091Y1766715D1*
X1656497Y1762791D1*
X1651346Y1759635D1*
X1645765Y1757323D1*
X1639890Y1755912D1*
X1633867Y1755438D1*
X1627845Y1755912D1*
X1621970Y1757323D1*
X1616388Y1759635D1*
X1611238Y1762791D1*
X1606644Y1766715D1*
X1602720Y1771308D1*
X1599564Y1776459D1*
X1597252Y1782041D1*
X1595841Y1787916D1*
X1595455Y1791685D1*
X1391442Y1791692D1*
X1343092Y1743462D1*
X1338839Y1740373D1*
X1334155Y1737986D1*
X1329155Y1736361D1*
X1323963Y1735539D1*
X1296332Y1735436D1*
X1291092Y1735848D1*
X1285980Y1737075D1*
X1281123Y1739087D1*
X1276642Y1741833D1*
X1272644Y1745248D1*
X1220853Y1797185D1*
X1217764Y1801437D1*
X1215377Y1806121D1*
X1213752Y1811121D1*
X1212930Y1816312D1*
X1212827Y1825005D1*
X1210757Y1829210D1*
X1208891Y1834955D1*
X1207945Y1840923D1*
Y1846965D1*
X1208891Y1852932D1*
X1210757Y1858677D1*
X1213500Y1864060D1*
X1217051Y1868948D1*
X1221323Y1873219D1*
X1226210Y1876770D1*
X1231593Y1879513D1*
X1237339Y1881379D1*
X1243306Y1882325D1*
X1249348D1*
X1255315Y1881379D1*
X1261060Y1879513D1*
X1266444Y1876770D1*
X1271331Y1873219D1*
X1275602Y1868948D1*
X1279154Y1864060D1*
X1281896Y1858677D1*
X1283762Y1852932D1*
X1284709Y1846965D1*
X1284780Y1842752D1*
X1288717Y1845517D1*
X1294100Y1848260D1*
X1298516Y1849752D1*
X1314613Y1865942D1*
X1311524Y1870194D1*
X1309136Y1874878D1*
X1307512Y1879878D1*
X1306690Y1885070D1*
X1306587Y1942816D1*
Y2097944D1*
X1302946Y2089283D1*
Y1996220D1*
X1233869D1*
X1234703Y1990730D1*
Y1984688D1*
X1233757Y1978720D1*
X1231891Y1972975D1*
X1229148Y1967592D1*
X1225597Y1962705D1*
X1221325Y1958433D1*
X1216438Y1954882D1*
X1211055Y1952139D1*
X1205310Y1950273D1*
X1199343Y1949327D1*
X1193301D1*
X1187333Y1950273D1*
X1181588Y1952139D1*
X1176205Y1954882D1*
X1171318Y1958433D1*
X1167046Y1962705D1*
X1163495Y1967592D1*
X1161894Y1970499D1*
X1011697Y1970500D1*
X1007386Y1966853D1*
X1002235Y1963697D1*
X996654Y1961385D1*
X990778Y1959974D1*
X984756Y1959500D1*
X978734Y1959974D1*
X972858Y1961385D1*
X967277Y1963697D1*
X962126Y1966853D1*
X957533Y1970777D1*
X953609Y1975370D1*
X952172Y1977521D1*
X883281Y1908634D1*
X883256Y1346966D1*
X886903Y1342630D1*
X890059Y1337479D1*
X892371Y1331898D1*
X893782Y1326022D1*
X894256Y1320000D1*
X893782Y1313978D1*
X892371Y1308102D1*
X890059Y1302521D1*
X886903Y1297370D1*
X882979Y1292777D1*
X878386Y1288853D1*
X873235Y1285697D1*
X867654Y1283385D1*
X861778Y1281974D1*
X855756Y1281500D1*
X849734Y1281974D1*
X843858Y1283385D1*
X838277Y1285697D1*
X833126Y1288853D1*
X828533Y1292777D1*
X824609Y1297370D1*
X822762Y1300182D1*
X819031Y1294996D1*
X814760Y1290724D1*
X809873Y1287173D1*
X803769Y1284165D1*
X804168Y1280253D1*
X861808Y1280265D1*
Y1275564D1*
X932585Y1275549D1*
Y1190638D1*
X934798Y1196396D1*
Y1275549D1*
X1001077D1*
X1001058Y1294425D1*
X970008Y1294430D1*
X969987Y1277761D1*
X897396D1*
Y1366100D1*
X969987D1*
Y1349413D1*
X1001046Y1349430D1*
X1001058Y1378639D1*
X1080757D1*
X1080787Y1467785D1*
X1099483D1*
X1099475Y1606092D1*
X1191806D1*
X1200596Y1615135D1*
X1296331Y1710702D1*
X1301218Y1714253D1*
X1306601Y1716996D1*
X1312346Y1718864D1*
X1318314Y1719808D1*
X1367266Y1719927D1*
X2226656D1*
X2226626Y1730466D1*
X2235812D1*
X3122541Y1721953D2*
X3176577D1*
X3168091Y1730428D1*
X3122488Y1730436D1*
X3122520Y1721929D1*
X1620247Y126707D2*
Y48551D1*
X1889975Y48268D1*
X1885871Y49601D1*
X1882026Y51560D1*
X1878535Y54097D1*
X1805496Y127016D1*
X1785161Y147350D1*
X1781381Y137962D1*
X1777081Y129848D1*
X1771999Y122199D1*
X1766182Y115094D1*
X1759689Y108602D1*
X1752584Y102786D1*
X1744936Y97703D1*
X1736822Y93406D1*
X1728320Y89934D1*
X1719516Y87324D1*
X1710496Y85600D1*
X1701350Y84780D1*
X1692169Y84873D1*
X1683041Y85875D1*
X1674058Y87780D1*
X1665308Y90566D1*
X1656878Y94206D1*
X1648852Y98665D1*
X1641307Y103900D1*
X1634319Y109857D1*
X1627957Y116479D1*
X1622283Y123699D1*
X1620248Y126697D1*
X3600299Y614492D2*
X3596251Y621256D1*
X3595525Y622829D1*
X3551896Y622819D1*
X3551904Y614504D1*
X3600224Y614500D1*
X3385171Y974256D2*
Y985092D1*
X3374514Y985106D1*
X3384672Y974853D1*
X3391421Y2381736D2*
Y2429031D1*
X3266402Y2554018D1*
X3218606Y2554031D1*
X3222211Y2550976D1*
X3391430Y2381759D1*
X3406739Y3084802D2*
X3385171D1*
Y3157324D1*
X3312054Y3157291D1*
X3312066Y3082488D1*
X3286552D1*
X3286538Y3064798D1*
X3290185Y3060449D1*
X3293341Y3055298D1*
X3295654Y3049717D1*
X3297064Y3043841D1*
X3297538Y3037819D1*
X3297064Y3031797D1*
X3295654Y3025921D1*
X3293341Y3020340D1*
X3290185Y3015189D1*
X3286261Y3010596D1*
X3281668Y3006672D1*
X3276517Y3003516D1*
X3270936Y3001203D1*
X3265060Y2999793D1*
X3259038Y2999319D1*
X3253016Y2999793D1*
X3247140Y3001203D1*
X3241559Y3003516D1*
X3236408Y3006672D1*
X3231815Y3010596D1*
X3227891Y3015189D1*
X3224735Y3020340D1*
X3222423Y3025921D1*
X3221012Y3031797D1*
X3220538Y3037819D1*
X3221012Y3043841D1*
X3222423Y3049717D1*
X3224735Y3055298D1*
X3227891Y3060449D1*
X3231534Y3064739D1*
X3231538Y3082495D1*
X3192793Y3082488D1*
X3192778Y2816696D1*
X3406760Y3030660D1*
X3406761Y3084832D1*
X1189438Y483509D2*
X1198948D1*
X1159159Y523140D1*
X1160492Y519037D1*
X1161167Y514774D1*
X1161252Y483514D1*
X1189438Y483509D1*
X1261243D2*
X1272223D1*
X1272256Y633495D1*
X1268453Y639521D1*
X1266140Y645102D1*
X1264612Y651974D1*
X1254615Y642089D1*
X1251125Y639552D1*
X1247280Y637593D1*
X1243176Y636260D1*
X1238913Y635585D1*
X1135706Y635500D1*
X946598Y635585D1*
X942336Y636260D1*
X938232Y637593D1*
X934387Y639552D1*
X930896Y642089D1*
X857857Y715008D1*
X744845Y828140D1*
X742308Y831631D1*
X740349Y835476D1*
X739016Y839580D1*
X738341Y843843D1*
X738256Y947050D1*
Y1074618D1*
X720845Y1092140D1*
X718304Y1095639D1*
X717518Y1094470D1*
Y855230D1*
X951455Y621293D1*
X1129722Y621227D1*
X1133984Y620552D1*
X1138088Y619219D1*
X1141933Y617260D1*
X1145424Y614723D1*
X1211967Y548301D1*
X1254663Y505484D1*
X1257199Y501993D1*
X1259159Y498148D1*
X1260492Y494045D1*
X1261167Y489782D1*
X1261252Y487617D1*
X1272289Y341509D2*
X502530D1*
X502605Y197648D1*
X506529Y202241D1*
X533751Y229297D1*
X538638Y232848D1*
X544021Y235591D1*
X549766Y237458D1*
X555734Y238403D1*
X604686Y238521D1*
X1179001D1*
X1182247Y245140D1*
X1185798Y250028D1*
X1190070Y254299D1*
X1194957Y257850D1*
X1200340Y260593D1*
X1206085Y262459D1*
X1212052Y263406D1*
X1218094D1*
X1224062Y262459D1*
X1229807Y260593D1*
X1235190Y257850D1*
X1240077Y254299D1*
X1244349Y250028D1*
X1247900Y245140D1*
X1250643Y239757D1*
X1252509Y234012D1*
X1253455Y228045D1*
X1253573Y209701D1*
X1269352Y193772D1*
X1271230Y191387D1*
X1272256Y194236D1*
Y341541D1*
X1089438Y483509D2*
X1106268D1*
X1106252Y501251D1*
X1072415Y535064D1*
X1018967Y535059D1*
X1054663Y499213D1*
X1057199Y495722D1*
X1059159Y491877D1*
X1060492Y487773D1*
X1061168Y483503D1*
X1089438Y483509D1*
X989438D2*
X992703D1*
X972415Y503801D1*
X912640Y503806D1*
X932955Y483526D1*
X989438Y483509D1*
X851698D2*
X855214D1*
X642526Y696173D1*
X647448Y687776D1*
X851709Y483514D1*
X689438Y483509D2*
X698948D1*
X605021Y577412D1*
X605007Y555207D1*
X654663Y505421D1*
X657199Y501930D1*
X659159Y498085D1*
X660492Y493982D1*
X661167Y489719D1*
X661252Y487554D1*
X662929Y483509D1*
X689438D1*
X589438D2*
X598948D1*
X561255Y521168D1*
X561252Y483496D1*
X589438Y483509D1*
X1673025Y2246209D2*
Y2209966D1*
X1789234Y2209979D1*
X1795020Y2214306D1*
X1800403Y2217049D1*
X1806148Y2218915D1*
X1812115Y2219861D1*
X1818157D1*
X1824125Y2218915D1*
X1829870Y2217049D1*
X1835253Y2214306D1*
X1840140Y2210755D1*
X1844412Y2206483D1*
X1847963Y2201596D1*
X1850706Y2196213D1*
X1852572Y2190467D1*
X1853518Y2184500D1*
Y2178458D1*
X1852572Y2172491D1*
X1851865Y2169979D1*
X2142970Y2169974D1*
X2283976Y2310807D1*
X2288864Y2314358D1*
X2294247Y2317101D1*
X2299992Y2318967D1*
X2305959Y2319913D1*
X2353441Y2320031D1*
X2352171Y2325472D1*
X2351697Y2331495D1*
X2352171Y2337517D1*
X2353581Y2343392D1*
X2355894Y2348974D1*
X2358203Y2352858D1*
X2354671Y2356496D1*
X2351119Y2361383D1*
X2348377Y2366766D1*
X2346510Y2372512D1*
X2345564Y2378479D1*
Y2384521D1*
X2346510Y2390488D1*
X2348377Y2396234D1*
X2351119Y2401617D1*
X2351953Y2402864D1*
X2348420Y2406501D1*
X2344869Y2411388D1*
X2342126Y2416772D1*
X2340260Y2422517D1*
X2339314Y2428484D1*
Y2434526D1*
X2340260Y2440493D1*
X2342126Y2446239D1*
X2344869Y2451622D1*
X2348412Y2456500D1*
X2344869Y2461394D1*
X2342126Y2466777D1*
X2340260Y2472522D1*
X2339314Y2478490D1*
Y2484531D1*
X2340260Y2490499D1*
X2342126Y2496244D1*
X2344869Y2501627D1*
X2345702Y2502874D1*
X2342169Y2506512D1*
X2338618Y2511399D1*
X2335875Y2516782D1*
X2334009Y2522528D1*
X2333063Y2528495D1*
Y2534537D1*
X2334009Y2540504D1*
X2335875Y2546249D1*
X2337458Y2549562D1*
X2331720Y2554298D1*
X2327797Y2558891D1*
X2324640Y2564042D1*
X2322328Y2569623D1*
X2320917Y2575499D1*
X2320444Y2581521D1*
X2320917Y2587543D1*
X2322328Y2593419D1*
X2324640Y2599000D1*
X2326950Y2602885D1*
X2323417Y2606522D1*
X2319866Y2611409D1*
X2317123Y2616793D1*
X2315257Y2622538D1*
X2314311Y2628505D1*
Y2634547D1*
X2315257Y2640514D1*
X2317123Y2646260D1*
X2318706Y2649572D1*
X2312969Y2654308D1*
X2309045Y2658902D1*
X2305888Y2664052D1*
X2303576Y2669634D1*
X2302165Y2675509D1*
X2301692Y2681531D1*
X2302165Y2687554D1*
X2303041Y2691530D1*
X2064084Y2691535D1*
X1990378Y2617861D1*
X1995133Y2615835D1*
X2000283Y2612678D1*
X2004877Y2608755D1*
X2008801Y2604161D1*
X2011957Y2599010D1*
X2014269Y2593429D1*
X2015680Y2587554D1*
X2016154Y2581531D1*
X2015680Y2575509D1*
X2014269Y2569634D1*
X2011957Y2564052D1*
X2008886Y2559029D1*
X2085010Y2559031D1*
X2125172Y2599161D1*
Y2623333D1*
X2121525Y2627648D1*
X2118369Y2632799D1*
X2116056Y2638381D1*
X2114646Y2644256D1*
X2114172Y2650278D1*
X2114646Y2656301D1*
X2116056Y2662176D1*
X2118369Y2667757D1*
X2121525Y2672908D1*
X2125449Y2677501D1*
X2130042Y2681425D1*
X2135193Y2684581D1*
X2140774Y2686894D1*
X2146650Y2688304D1*
X2152672Y2688778D1*
X2158694Y2688304D1*
X2164570Y2686894D1*
X2170151Y2684581D1*
X2175302Y2681425D1*
X2179895Y2677501D1*
X2183819Y2672908D1*
X2186975Y2667757D1*
X2189287Y2662176D1*
X2190698Y2656301D1*
X2191172Y2650278D1*
X2190698Y2644256D1*
X2189287Y2638381D1*
X2186975Y2632799D1*
X2183819Y2627648D1*
X2180176Y2623358D1*
X2180087Y2585614D1*
X2179412Y2581352D1*
X2178079Y2577248D1*
X2176119Y2573403D1*
X2173583Y2569912D1*
X2115877Y2512087D1*
X2112596Y2509283D1*
X2108916Y2507029D1*
X2104929Y2505378D1*
X2100734Y2504370D1*
X2096432Y2504031D1*
X1715091D1*
X1718176Y2499010D1*
X1720488Y2493429D1*
X1721899Y2487554D1*
X1722373Y2481531D1*
X1721899Y2475509D1*
X1720488Y2469634D1*
X1718176Y2464052D1*
X1715020Y2458902D1*
X1711096Y2454308D1*
X1706503Y2450385D1*
X1701352Y2447228D1*
X1695770Y2444916D1*
X1689895Y2443505D1*
X1683873Y2443031D1*
X1677850Y2443505D1*
X1673033Y2444618D1*
X1673025Y2415995D1*
X1678226Y2418147D1*
X1684101Y2419558D1*
X1690123Y2420031D1*
X1696146Y2419558D1*
X1702021Y2418147D1*
X1707602Y2415835D1*
X1712753Y2412678D1*
X1717346Y2408755D1*
X1721270Y2404161D1*
X1724427Y2399010D1*
X1726739Y2393429D1*
X1728150Y2387554D1*
X1728623Y2381531D1*
X1728150Y2375509D1*
X1726739Y2369634D1*
X1724427Y2364052D1*
X1721270Y2358902D1*
X1719407Y2356537D1*
X1722950Y2351648D1*
X1725693Y2346265D1*
X1727559Y2340520D1*
X1728505Y2334552D1*
Y2328510D1*
X1727559Y2322543D1*
X1725693Y2316798D1*
X1722950Y2311415D1*
X1719399Y2306528D1*
X1715127Y2302256D1*
X1710240Y2298705D1*
X1704857Y2295962D1*
X1699112Y2294096D1*
X1693144Y2293150D1*
X1687102D1*
X1681135Y2294096D1*
X1675390Y2295962D1*
X1673020Y2297055D1*
X1672990Y2246220D1*
X2859936Y2716843D2*
X2898154D1*
Y2709055D1*
X3085146Y2709031D1*
X3098871Y2722773D1*
X2859833Y2722789D1*
X2859907Y2716853D1*
X2613615Y403064D2*
X2664106D1*
Y297009D1*
X2600915D1*
X2589322Y285451D1*
X2589303Y221783D1*
X2663770Y221795D1*
X2682958Y240946D1*
X2682982Y313640D1*
X2668454Y313652D1*
Y460045D1*
X2587427Y460051D1*
X2587462Y429160D1*
X2613570Y403080D1*
X2491122Y374986D2*
Y392282D1*
X2480462Y392298D1*
Y495295D1*
X2506478D1*
X2506462Y501462D1*
X2502231Y502874D1*
X2498119Y504969D1*
X2495244Y507005D1*
X2489979Y505781D1*
X2483957Y505307D1*
X2477934Y505781D1*
X2472059Y507192D1*
X2467711Y508934D1*
X2467617Y422887D1*
X2466942Y418625D1*
X2465609Y414521D1*
X2463646Y410669D1*
X2463650Y408160D1*
X2465609Y404315D1*
X2466942Y400211D1*
X2467617Y395949D1*
X2467702Y353924D1*
X2484849Y370948D1*
X2488340Y373484D1*
X2490231Y374543D1*
X2478825Y47436D2*
X2478621Y124927D1*
Y221795D1*
X2491144D1*
X2491122Y274551D1*
X2458062Y241617D1*
X2454571Y239080D1*
X2450726Y237121D1*
X2446622Y235787D1*
X2444496Y235365D1*
X2443659Y234518D1*
Y226232D1*
X2426972D1*
X2426990Y224024D1*
X2443659Y224020D1*
Y151429D1*
X2367979D1*
X2270542Y54097D1*
X2267051Y51560D1*
X2263206Y49601D1*
X2259102Y48268D1*
X2256976Y47845D1*
X2299723Y47647D1*
X2478822Y47415D1*
X1108661Y1842312D2*
X1201593D1*
Y1692950D1*
X1099475D1*
Y1842312D1*
X1108661D1*
X966929D2*
X1059861D1*
Y1692950D1*
X957743D1*
Y1842312D1*
X966929D1*
X1104055Y1294777D2*
Y1271639D1*
X1007419D1*
X1007388Y1264316D1*
X1012277Y1267303D1*
X1017858Y1269615D1*
X1023734Y1271026D1*
X1029756Y1271500D1*
X1035778Y1271026D1*
X1041654Y1269615D1*
X1047235Y1267303D1*
X1052386Y1264147D1*
X1056979Y1260223D1*
X1060903Y1255630D1*
X1064059Y1250479D1*
X1066371Y1244898D1*
X1067782Y1239022D1*
X1068256Y1233000D1*
X1067782Y1226978D1*
X1066371Y1221102D1*
X1065093Y1217762D1*
X1124336Y1217759D1*
Y1194470D1*
X1128777Y1194500D1*
X1133126Y1198147D1*
X1138277Y1201303D1*
X1143858Y1203615D1*
X1149734Y1205026D1*
X1155756Y1205500D1*
X1161778Y1205026D1*
X1167654Y1203615D1*
X1173235Y1201303D1*
X1178386Y1198147D1*
X1182979Y1194223D1*
X1186903Y1189630D1*
X1190059Y1184479D1*
X1192371Y1178898D1*
X1193782Y1173022D1*
X1194256Y1167000D1*
X1193782Y1160978D1*
X1192371Y1155102D1*
X1190059Y1149521D1*
X1186903Y1144370D1*
X1182979Y1139777D1*
X1178386Y1135853D1*
X1173235Y1132697D1*
X1167654Y1130385D1*
X1161778Y1128974D1*
X1155756Y1128500D1*
X1149734Y1128974D1*
X1143858Y1130385D1*
X1138277Y1132697D1*
X1133126Y1135853D1*
X1128836Y1139496D1*
X1124357Y1139500D1*
X1124336Y1044774D1*
X1061144D1*
X1045413Y1029199D1*
X1041923Y1026663D1*
X1038077Y1024703D1*
X1033974Y1023370D1*
X1029711Y1022696D1*
X1027546Y1022610D1*
X1026639Y1020461D1*
Y997083D1*
X934289D1*
X934256Y980396D1*
X965049Y949598D1*
X968609Y955630D1*
X972533Y960223D1*
X977126Y964147D1*
X982277Y967303D1*
X987858Y969615D1*
X993734Y971026D1*
X999756Y971500D1*
X1005778Y971026D1*
X1011654Y969615D1*
X1017235Y967303D1*
X1022386Y964147D1*
X1026979Y960223D1*
X1030903Y955630D1*
X1034059Y950479D1*
X1036371Y944898D1*
X1037782Y939022D1*
X1038240Y933413D1*
X1041150Y930497D1*
X1205913Y930415D1*
X1210184Y929738D1*
X1208320Y936012D1*
X1207374Y941979D1*
Y948021D1*
X1208320Y953988D1*
X1210186Y959734D1*
X1212929Y965117D1*
X1216480Y970004D1*
X1220752Y974276D1*
X1225639Y977827D1*
X1231022Y980570D1*
X1236768Y982436D1*
X1242735Y983382D1*
X1248777D1*
X1254744Y982436D1*
X1260490Y980570D1*
X1265873Y977827D1*
X1270760Y974276D1*
X1272676Y972504D1*
X1355812Y972500D1*
X1355816Y1316357D1*
X1274375Y1316391D1*
X1274352Y1294801D1*
X1104058D1*
X2317323Y992441D2*
X2382273D1*
X2382256Y1032580D1*
X2334845Y1080140D1*
X2332308Y1083631D1*
X2330349Y1087476D1*
X2329016Y1091580D1*
X2328340Y1095843D1*
X2328256Y1185593D1*
X2297818Y1216047D1*
X2191677Y1216058D1*
X2191657Y1102341D1*
X2191693Y979656D1*
Y846558D1*
X2196272Y849503D1*
X2200259Y851154D1*
X2204454Y852161D1*
X2208764Y852500D1*
X2239365D1*
X2240892Y861009D1*
Y882432D1*
X2224223Y882449D1*
Y955039D1*
X2250886D1*
X2249320Y960012D1*
X2248374Y965979D1*
Y972021D1*
X2249320Y977988D1*
X2251186Y983734D1*
X2253929Y989117D1*
X2257480Y994004D1*
X2261752Y998276D1*
X2266639Y1001827D1*
X2272022Y1004570D1*
X2277768Y1006436D1*
X2283735Y1007382D1*
X2289777D1*
X2295744Y1006436D1*
X2301490Y1004570D1*
X2306873Y1001827D1*
X2311760Y998276D1*
X2316031Y994004D1*
X2317266Y992437D1*
X1130085Y867633D2*
X1200239D1*
X1192367Y875497D1*
X1039155Y875500D1*
X1055786Y858861D1*
X1120888Y858837D1*
X1120899Y867633D1*
X1130085D1*
X1209238Y858626D2*
Y821449D1*
X1211450Y821945D1*
Y830231D1*
X1291651D1*
X1279366Y842499D1*
X1234598Y842585D1*
X1230336Y843260D1*
X1226232Y844593D1*
X1222387Y846552D1*
X1218896Y849089D1*
X1209217Y858648D1*
X1120899Y723504D2*
Y766421D1*
X974663Y766521D1*
X970400Y767196D1*
X966297Y768529D1*
X962451Y770488D1*
X958961Y773025D1*
X885921Y845944D1*
X879350Y852516D1*
X873734Y852974D1*
X867858Y854385D1*
X862277Y856697D1*
X857126Y859853D1*
X852533Y863777D1*
X848609Y868370D1*
X845453Y873521D1*
X843140Y879102D1*
X841730Y884978D1*
X841256Y890988D1*
Y872396D1*
X990139Y723508D1*
X1120894Y723500D1*
X2759818Y221795D2*
X2806466D1*
X2806493Y457381D1*
X2730941Y532961D1*
X2727626Y527428D1*
X2723702Y522835D1*
X2719109Y518911D1*
X2713958Y515755D1*
X2708377Y513442D1*
X2707003Y512958D1*
X2710848Y510999D1*
X2714339Y508462D1*
X2736295Y486626D1*
X2774509Y486636D1*
Y313652D1*
X2759976D1*
X2759862Y221991D1*
X2522697Y659589D2*
X2520984Y655470D1*
X2518573Y651535D1*
X2516612Y649147D1*
X2519856Y644815D1*
X2521950Y640703D1*
X2523377Y636315D1*
X2524098Y631757D1*
Y627143D1*
X2523377Y622585D1*
X2522484Y619644D1*
X2523827Y614365D1*
X2524189Y609765D1*
X2523827Y605165D1*
X2522484Y599959D1*
X2523827Y594680D1*
X2524189Y590080D1*
X2523827Y585480D1*
X2522484Y580274D1*
X2524083Y579660D1*
X2528570Y580738D1*
X2533169Y581100D1*
X2537769Y580738D1*
X2542975Y579395D1*
X2548255Y580738D1*
X2552854Y581100D1*
X2557454Y580738D1*
X2562660Y579395D1*
X2567940Y580738D1*
X2572539Y581100D1*
X2577139Y580738D1*
X2582345Y579395D1*
X2587625Y580738D1*
X2592224Y581100D1*
X2596824Y580738D1*
X2602030Y579395D1*
X2602644Y580993D1*
X2601567Y585480D1*
X2601205Y590080D1*
X2601567Y594680D1*
X2602909Y599886D1*
X2601567Y605165D1*
X2601205Y609765D1*
X2601567Y614365D1*
X2602909Y619571D1*
X2601567Y624850D1*
X2601205Y629450D1*
X2601567Y634050D1*
X2602909Y639256D1*
X2601567Y644535D1*
X2601205Y649135D1*
X2601567Y653735D1*
X2602909Y658941D1*
X2601311Y659555D1*
X2596824Y658478D1*
X2592224Y658115D1*
X2587625Y658478D1*
X2582419Y659820D1*
X2577139Y658478D1*
X2572539Y658115D1*
X2567940Y658478D1*
X2562734Y659820D1*
X2557454Y658478D1*
X2552854Y658115D1*
X2548255Y658478D1*
X2543049Y659820D1*
X2537769Y658478D1*
X2533169Y658115D1*
X2528570Y658478D1*
X2523364Y659820D1*
X2641315Y530031D2*
X2640953Y525441D1*
X2639875Y520954D1*
X2638110Y516690D1*
X2637189Y515046D1*
X2680446Y515051D1*
X2676362Y517231D1*
X2671475Y520782D1*
X2667203Y525054D1*
X2663652Y529941D1*
X2660909Y535324D1*
X2658995Y541314D1*
X2643077Y540990D1*
X2641319D1*
X2641280Y530041D1*
X2364507Y224020D2*
X2372007D1*
X2371990Y226228D1*
X2355320Y226232D1*
Y272559D1*
X2170303Y272531D1*
X2169882Y269484D1*
X2179060Y269209D1*
X2188165Y268024D1*
X2197109Y265940D1*
X2205801Y262979D1*
X2214156Y259171D1*
X2222092Y254551D1*
X2229530Y249167D1*
X2236398Y243071D1*
X2242626Y236323D1*
X2248154Y228991D1*
X2252927Y221146D1*
X2256896Y212866D1*
X2260025Y204232D1*
X2262282Y195332D1*
X2263643Y186251D1*
X2264097Y177105D1*
X2263640Y167934D1*
X2262277Y158853D1*
X2260017Y149953D1*
X2256886Y141320D1*
X2252913Y133042D1*
X2248139Y125198D1*
X2242609Y117867D1*
X2236379Y111121D1*
X2229510Y105028D1*
X2226210Y102504D1*
X2241278Y102508D1*
X2347539Y208635D1*
X2351030Y211172D1*
X2354883Y213134D1*
X2355320Y215734D1*
Y224020D1*
X2364507D1*
X1934685Y259274D2*
X1932371Y255063D1*
X1927298Y248081D1*
X1922967Y243615D1*
X1932811Y233749D1*
X1960797Y233892D1*
X1954353Y237416D1*
X1948437Y241766D1*
X1943154Y246866D1*
X1938596Y252625D1*
X1934693Y259256D1*
X2117178Y102512D2*
X2109685Y108610D1*
X2103192Y115105D1*
X2097377Y122210D1*
X2092295Y129858D1*
X2087997Y137974D1*
X2084526Y146475D1*
X2081917Y155280D1*
X2080194Y164298D1*
X2079374Y173445D1*
X2079417Y181630D1*
X2058020Y160358D1*
X2054529Y157822D1*
X2050684Y155862D1*
X2046580Y154529D1*
X2042318Y153854D1*
X1939110Y153769D1*
X1856541D1*
X1907769Y102525D1*
X2117190Y102508D1*
X2167164Y269387D2*
X2169882Y269484D1*
X1629159Y1248160D2*
X1812117D1*
Y1063365D1*
X1627322D1*
Y1248160D1*
X1629159D1*
X799302Y3157308D2*
Y3082488D1*
X773789D1*
X773689Y2998157D1*
X773014Y2993895D1*
X771681Y2989791D1*
X769722Y2985946D1*
X767185Y2982455D1*
X757883Y2973154D1*
X754392Y2970617D1*
X750547Y2968657D1*
X746444Y2967324D1*
X742181Y2966650D1*
X638974Y2966564D1*
X586255Y2966505D1*
Y2722887D1*
X862524Y2999189D1*
X862539Y3157295D1*
X799290Y3157291D1*
X702433Y3255472D2*
X864976D1*
X867791Y3260255D1*
X870594Y3263535D1*
X879399Y3272341D1*
X740938Y3272322D1*
Y3378377D1*
X756261D1*
X756278Y3399953D1*
X747483Y3399942D1*
X747367Y3401240D1*
X743058Y3400902D1*
X701189D1*
X701209Y3384232D1*
X628618D1*
Y3435367D1*
X620159Y3435364D1*
X561244Y3376457D1*
X561252Y3255479D1*
X620995Y3255472D1*
X606601Y3269986D1*
X604064Y3273476D1*
X602105Y3277322D1*
X600772Y3281425D1*
X600097Y3285688D1*
X600012Y3293694D1*
X591217Y3293681D1*
Y3382020D1*
X663807D1*
Y3293681D1*
X660542D1*
X685927Y3268201D1*
X688463Y3264710D1*
X690423Y3260865D1*
X691757Y3256753D1*
X693247Y3255472D1*
X702433D1*
X718043Y3082513D2*
X692530Y3082488D1*
X694291Y3075324D1*
X697843Y3070437D1*
X700585Y3065054D1*
X702451Y3059308D1*
X703398Y3053341D1*
Y3047299D1*
X702451Y3041332D1*
X700585Y3035587D1*
X697843Y3030203D1*
X694291Y3025316D1*
X690583Y3021566D1*
X718762Y3021564D1*
X718774Y3082454D1*
X637483Y3082488D2*
X605021D1*
X606782Y3075324D1*
X610333Y3070437D1*
X613076Y3065054D1*
X614942Y3059308D1*
X615888Y3053341D1*
Y3047299D1*
X614942Y3041332D1*
X613076Y3035587D1*
X610333Y3030203D1*
X606782Y3025316D1*
X603073Y3021566D1*
X639386Y3021564D1*
X635740Y3025316D1*
X632189Y3030203D1*
X629446Y3035587D1*
X627580Y3041332D1*
X626634Y3047299D1*
Y3053341D1*
X627580Y3059308D1*
X629446Y3065054D1*
X632189Y3070437D1*
X635740Y3075324D1*
X637512Y3077240D1*
X637516Y3082508D1*
X709738Y3648546D2*
X709101Y3641228D1*
X707623Y3634034D1*
X705324Y3627058D1*
X702236Y3620394D1*
X698399Y3614131D1*
X693864Y3608353D1*
X688692Y3603138D1*
X682953Y3598555D1*
X676722Y3594664D1*
X670084Y3591520D1*
X663127Y3589163D1*
X655945Y3587626D1*
X648634Y3586928D1*
X641290Y3587079D1*
X634013Y3588076D1*
X626900Y3589908D1*
X620046Y3592549D1*
X613543Y3595962D1*
X607478Y3600105D1*
X601932Y3604920D1*
X596978Y3610344D1*
X592684Y3616303D1*
X589108Y3622718D1*
X586295Y3629503D1*
X584285Y3636568D1*
X583104Y3643818D1*
X582769Y3651155D1*
X583282Y3658482D1*
X584639Y3665701D1*
X586820Y3672714D1*
X589797Y3679429D1*
X593528Y3685755D1*
X597965Y3691608D1*
X603049Y3696909D1*
X608710Y3701589D1*
X614875Y3705583D1*
X621459Y3708839D1*
X628375Y3711311D1*
X635530Y3712970D1*
X642829Y3713790D1*
X650175Y3713762D1*
X657467Y3712887D1*
X664609Y3711176D1*
X671507Y3708650D1*
X678067Y3705345D1*
X684201Y3701306D1*
X689827Y3696584D1*
X694870Y3691244D1*
X699264Y3685358D1*
X702948Y3679004D1*
X705874Y3672266D1*
X708003Y3665238D1*
X709304Y3658008D1*
X709764Y3650383D1*
X709738Y3648546D1*
X1174341Y3157308D2*
Y3082488D1*
X1148828D1*
X1148728Y3035661D1*
X1148054Y3031399D1*
X1146720Y3027295D1*
X1144761Y3023450D1*
X1142224Y3019959D1*
X1093961Y2971575D1*
X1237579Y2971618D1*
Y3157319D1*
X1174329Y3157291D1*
X1093781Y3082488D2*
X1061319D1*
X1061304Y3071042D1*
X1064951Y3066699D1*
X1068108Y3061549D1*
X1070420Y3055967D1*
X1071831Y3050092D1*
X1072304Y3044070D1*
X1071831Y3038047D1*
X1070420Y3032172D1*
X1068108Y3026591D1*
X1064951Y3021440D1*
X1061028Y3016846D1*
X1064854Y3020251D1*
X1093806Y3049202D1*
X1093814Y3082495D1*
X1077472Y3255472D2*
X1237576D1*
X1237579Y3272301D1*
X1097226Y3272322D1*
Y3378377D1*
X1112549D1*
X1112566Y3399928D1*
X1103770Y3399942D1*
X1103626Y3402995D1*
X1099522Y3401661D1*
X1095260Y3400987D1*
X1070029Y3400902D1*
X1069997Y3384232D1*
X997407D1*
Y3435367D1*
X963965Y3435364D1*
X936290Y3407717D1*
X936207Y3260685D1*
X935529Y3256415D1*
X939199Y3255472D1*
X983541D1*
X975390Y3263735D1*
X972853Y3267226D1*
X970894Y3271071D1*
X969560Y3275175D1*
X968886Y3279437D1*
X968801Y3293688D1*
X960005Y3293681D1*
Y3382020D1*
X1032596D1*
Y3293681D1*
X1023804D1*
X1028738Y3288049D1*
X1054715Y3261950D1*
X1057252Y3258459D1*
X1058311Y3256568D1*
X1063454Y3255472D1*
X1077472D1*
X1006272Y3082488D2*
X973810D1*
X973795Y3071042D1*
X977442Y3066699D1*
X980598Y3061549D1*
X982911Y3055967D1*
X984322Y3050092D1*
X984795Y3044070D1*
X984322Y3038047D1*
X982911Y3032172D1*
X980598Y3026591D1*
X977442Y3021440D1*
X973518Y3016846D1*
X971862Y3015315D1*
X1008206Y3015314D1*
X1004529Y3019066D1*
X1000978Y3023953D1*
X998235Y3029336D1*
X996369Y3035081D1*
X995423Y3041049D1*
Y3047091D1*
X996369Y3053058D1*
X998235Y3058803D1*
X1000978Y3064186D1*
X1004529Y3069073D1*
X1006301Y3070990D1*
X1006304Y3082501D1*
X1066025Y3648546D2*
X1065388Y3641228D1*
X1063911Y3634034D1*
X1061612Y3627058D1*
X1058524Y3620394D1*
X1054686Y3614131D1*
X1050151Y3608353D1*
X1044979Y3603138D1*
X1039240Y3598555D1*
X1033009Y3594664D1*
X1026371Y3591520D1*
X1019415Y3589163D1*
X1012232Y3587626D1*
X1004921Y3586928D1*
X997577Y3587079D1*
X990301Y3588076D1*
X983188Y3589908D1*
X976333Y3592549D1*
X969831Y3595962D1*
X963765Y3600105D1*
X958219Y3604920D1*
X953265Y3610344D1*
X948971Y3616303D1*
X945395Y3622718D1*
X942583Y3629503D1*
X940572Y3636568D1*
X939391Y3643818D1*
X939056Y3651155D1*
X939570Y3658482D1*
X940927Y3665701D1*
X943108Y3672714D1*
X946084Y3679429D1*
X949815Y3685755D1*
X954252Y3691608D1*
X959336Y3696909D1*
X964997Y3701589D1*
X971163Y3705583D1*
X977747Y3708839D1*
X984663Y3711311D1*
X991818Y3712970D1*
X999117Y3713790D1*
X1006462Y3713762D1*
X1013755Y3712887D1*
X1020896Y3711176D1*
X1027794Y3708650D1*
X1034354Y3705345D1*
X1040488Y3701306D1*
X1046114Y3696584D1*
X1051157Y3691244D1*
X1055551Y3685358D1*
X1059235Y3679004D1*
X1062161Y3672266D1*
X1064290Y3665238D1*
X1065592Y3658008D1*
X1066051Y3650383D1*
X1066025Y3648546D1*
X1530629Y3157308D2*
Y3082488D1*
X1515593D1*
X1570251Y3027815D1*
X1579769Y3027730D1*
X1584031Y3027055D1*
X1588135Y3025722D1*
X1591980Y3023762D1*
X1593782Y3022558D1*
X1593866Y3116043D1*
Y3157274D1*
X1530593Y3157291D1*
X1450068Y3082488D2*
X1411362D1*
X1411341Y3067957D1*
X1482732Y2996571D1*
X1500668Y2996562D1*
X1504976Y3000209D1*
X1510127Y3003365D1*
X1514900Y3005379D1*
X1456690Y3063714D1*
X1454154Y3067205D1*
X1452194Y3071050D1*
X1450861Y3075154D1*
X1450186Y3079416D1*
X1450101Y3081581D1*
X1443126Y3255472D2*
X1593862D1*
X1593866Y3272301D1*
X1453513Y3272322D1*
Y3378377D1*
X1468836D1*
X1468853Y3399959D1*
X1460058Y3399942D1*
Y3400911D1*
X1420034Y3400902D1*
Y3384232D1*
X1347444D1*
Y3435367D1*
X1326451Y3435364D1*
X1292587Y3401475D1*
X1292579Y3255507D1*
X1346071Y3255472D1*
X1325427Y3276236D1*
X1322890Y3279727D1*
X1320930Y3283572D1*
X1319597Y3287676D1*
X1318921Y3291946D1*
X1318328Y3293681D1*
X1310042D1*
Y3382020D1*
X1382633D1*
Y3296711D1*
X1411003Y3268201D1*
X1413539Y3264710D1*
X1415499Y3260865D1*
X1416833Y3256753D1*
X1419741Y3255472D1*
X1443119Y3255437D1*
X1356370Y3082488D2*
X1336348D1*
X1336333Y3064798D1*
X1339980Y3060449D1*
X1343136Y3055298D1*
X1345449Y3049717D1*
X1346860Y3043841D1*
X1347333Y3037819D1*
X1346860Y3031797D1*
X1345449Y3025921D1*
X1343136Y3020340D1*
X1339980Y3015189D1*
X1336056Y3010596D1*
X1331463Y3006672D1*
X1326312Y3003516D1*
X1320731Y3001203D1*
X1314856Y2999793D1*
X1308833Y2999319D1*
X1302811Y2999793D1*
X1296936Y3001203D1*
X1292588Y3002946D1*
X1292638Y2971559D1*
X1429967D1*
X1362930Y3038711D1*
X1360394Y3042202D1*
X1358434Y3046047D1*
X1357101Y3050151D1*
X1356427Y3054413D1*
X1356341Y3082516D1*
X1422312Y3648546D2*
X1421676Y3641228D1*
X1420198Y3634034D1*
X1417899Y3627058D1*
X1414811Y3620394D1*
X1410974Y3614131D1*
X1406438Y3608353D1*
X1401266Y3603138D1*
X1395528Y3598555D1*
X1389297Y3594664D1*
X1382659Y3591520D1*
X1375702Y3589163D1*
X1368520Y3587626D1*
X1361209Y3586928D1*
X1353865Y3587079D1*
X1346588Y3588076D1*
X1339475Y3589908D1*
X1332621Y3592549D1*
X1326118Y3595962D1*
X1320052Y3600105D1*
X1314507Y3604920D1*
X1309552Y3610344D1*
X1305259Y3616303D1*
X1301682Y3622718D1*
X1298870Y3629503D1*
X1296860Y3636568D1*
X1295678Y3643818D1*
X1295344Y3651155D1*
X1295857Y3658482D1*
X1297214Y3665701D1*
X1299395Y3672714D1*
X1302371Y3679429D1*
X1306102Y3685755D1*
X1310539Y3691608D1*
X1315623Y3696909D1*
X1321285Y3701589D1*
X1327450Y3705583D1*
X1334034Y3708839D1*
X1340950Y3711311D1*
X1348105Y3712970D1*
X1355404Y3713790D1*
X1362749Y3713762D1*
X1370042Y3712887D1*
X1377184Y3711176D1*
X1384081Y3708650D1*
X1390642Y3705345D1*
X1396776Y3701306D1*
X1402402Y3696584D1*
X1407445Y3691244D1*
X1411839Y3685358D1*
X1415522Y3679004D1*
X1418449Y3672266D1*
X1420577Y3665238D1*
X1421879Y3658008D1*
X1422339Y3650383D1*
X1422312Y3648546D1*
X1880665Y3157308D2*
Y3082488D1*
X1855152D1*
X1855054Y2985656D1*
X1854378Y2981394D1*
X1853045Y2977290D1*
X1851085Y2973445D1*
X1848549Y2969954D1*
X1826745Y2948151D1*
X1823255Y2945614D1*
X1819409Y2943655D1*
X1815306Y2942322D1*
X1811043Y2941646D1*
X1707836Y2941562D1*
X1648866Y2941503D1*
Y2934075D1*
X1937652Y2934114D1*
Y3157274D1*
X1880630Y3157291D1*
X1783797Y3255472D2*
X1943892D1*
X1943903Y3272301D1*
X1809801Y3272322D1*
Y3378377D1*
X1831367D1*
X1831391Y3399953D1*
X1816345Y3399942D1*
Y3416629D1*
X1776322Y3416612D1*
Y3384232D1*
X1703731D1*
Y3435367D1*
X1657751Y3435364D1*
X1648890Y3426493D1*
X1648866Y3255462D1*
X1701552Y3255472D1*
X1679177Y3285978D1*
X1677218Y3289823D1*
X1676469Y3291857D1*
X1674615Y3293681D1*
X1666329D1*
Y3382020D1*
X1738920D1*
Y3297772D1*
X1743382Y3291837D1*
X1767690Y3255449D1*
X1783797Y3255472D1*
X1799407Y3082513D2*
X1773894Y3082488D1*
X1773879Y3064798D1*
X1777526Y3060449D1*
X1780682Y3055298D1*
X1782995Y3049717D1*
X1784406Y3043841D1*
X1784879Y3037819D1*
X1784406Y3031797D1*
X1782995Y3025921D1*
X1780682Y3020340D1*
X1777526Y3015189D1*
X1773602Y3010596D1*
X1769009Y3006672D1*
X1763858Y3003516D1*
X1758277Y3001203D1*
X1752402Y2999793D1*
X1746379Y2999319D1*
X1740357Y2999793D1*
X1734482Y3001203D1*
X1728900Y3003516D1*
X1723749Y3006672D1*
X1719156Y3010596D1*
X1715232Y3015189D1*
X1712076Y3020340D1*
X1709764Y3025921D1*
X1708353Y3031797D1*
X1707879Y3037819D1*
X1708353Y3043841D1*
X1709764Y3049717D1*
X1712076Y3055298D1*
X1715232Y3060449D1*
X1718875Y3064739D1*
X1718879Y3082495D1*
X1693352Y3082524D1*
X1692621Y3076461D1*
Y3064798D1*
X1696268Y3060449D1*
X1699424Y3055298D1*
X1701736Y3049717D1*
X1703147Y3043841D1*
X1703621Y3037819D1*
X1703147Y3031797D1*
X1701736Y3025921D1*
X1699424Y3020340D1*
X1696268Y3015189D1*
X1692344Y3010596D1*
X1687751Y3006672D1*
X1682600Y3003516D1*
X1677018Y3001203D1*
X1671143Y2999793D1*
X1665121Y2999319D1*
X1659098Y2999793D1*
X1653223Y3001203D1*
X1648875Y3002946D1*
X1648925Y2996562D1*
X1797521D1*
X1800138Y3006186D1*
Y3082512D1*
X1778600Y3648546D2*
X1777963Y3641228D1*
X1776486Y3634034D1*
X1774186Y3627058D1*
X1771098Y3620394D1*
X1767261Y3614131D1*
X1762726Y3608353D1*
X1757554Y3603138D1*
X1751815Y3598555D1*
X1745584Y3594664D1*
X1738946Y3591520D1*
X1731990Y3589163D1*
X1724807Y3587626D1*
X1717496Y3586928D1*
X1710152Y3587079D1*
X1702875Y3588076D1*
X1695762Y3589908D1*
X1688908Y3592549D1*
X1682406Y3595962D1*
X1676340Y3600105D1*
X1670794Y3604920D1*
X1665840Y3610344D1*
X1661546Y3616303D1*
X1657970Y3622718D1*
X1655157Y3629503D1*
X1653147Y3636568D1*
X1651966Y3643818D1*
X1651631Y3651155D1*
X1652144Y3658482D1*
X1653501Y3665701D1*
X1655682Y3672714D1*
X1658659Y3679429D1*
X1662390Y3685755D1*
X1666827Y3691608D1*
X1671911Y3696909D1*
X1677572Y3701589D1*
X1683738Y3705583D1*
X1690322Y3708839D1*
X1697238Y3711311D1*
X1704392Y3712970D1*
X1711692Y3713790D1*
X1719037Y3713762D1*
X1726329Y3712887D1*
X1733471Y3711176D1*
X1740369Y3708650D1*
X1746929Y3705345D1*
X1753063Y3701306D1*
X1758689Y3696584D1*
X1763732Y3691244D1*
X1768126Y3685358D1*
X1771810Y3679004D1*
X1774736Y3672266D1*
X1776865Y3665238D1*
X1778167Y3658008D1*
X1778626Y3650383D1*
X1778600Y3648546D1*
X2236953Y3157308D2*
Y3082488D1*
X2211440D1*
X2211341Y2985656D1*
X2210665Y2981394D1*
X2209332Y2977290D1*
X2207373Y2973445D1*
X2204836Y2969954D1*
X2183033Y2948151D1*
X2179542Y2945614D1*
X2175697Y2943655D1*
X2171593Y2942322D1*
X2167331Y2941647D1*
X2064123Y2941562D1*
X1992652Y2941503D1*
Y2915272D1*
X2300190Y2915362D1*
Y3157274D1*
X2236941Y3157291D1*
X2156392Y3082488D2*
X2123930D1*
X2123916Y3064798D1*
X2127563Y3060449D1*
X2130719Y3055298D1*
X2133031Y3049717D1*
X2134442Y3043841D1*
X2134916Y3037819D1*
X2134442Y3031797D1*
X2133031Y3025921D1*
X2130719Y3020340D1*
X2127563Y3015189D1*
X2123639Y3010596D1*
X2119046Y3006672D1*
X2113895Y3003516D1*
X2108314Y3001203D1*
X2102438Y2999793D1*
X2096416Y2999319D1*
X2090394Y2999793D1*
X2084518Y3001203D1*
X2078937Y3003516D1*
X2073786Y3006672D1*
X2069193Y3010596D1*
X2065269Y3015189D1*
X2062113Y3020340D1*
X2059801Y3025921D1*
X2058390Y3031797D1*
X2057916Y3037819D1*
X2058390Y3043841D1*
X2059801Y3049717D1*
X2062113Y3055298D1*
X2065269Y3060449D1*
X2068912Y3064739D1*
X2068916Y3082495D1*
X2042672Y3082488D1*
X2042657Y3064798D1*
X2046304Y3060449D1*
X2049461Y3055298D1*
X2051773Y3049717D1*
X2053184Y3043841D1*
X2053657Y3037819D1*
X2053184Y3031797D1*
X2051773Y3025921D1*
X2049461Y3020340D1*
X2046304Y3015189D1*
X2042381Y3010596D1*
X2037787Y3006672D1*
X2032636Y3003516D1*
X2027055Y3001203D1*
X2021180Y2999793D1*
X2015157Y2999319D1*
X2009135Y2999793D1*
X2003260Y3001203D1*
X1997678Y3003516D1*
X1992655Y3006587D1*
X1992711Y2996562D1*
X2153795D1*
X2156425Y3006186D1*
Y3082512D1*
X2140084Y3255472D2*
X2300188D1*
X2300190Y3272301D1*
X2166088Y3272322D1*
Y3378377D1*
X2181411D1*
X2181428Y3399959D1*
X2172633Y3399942D1*
Y3400911D1*
X2132639Y3400902D1*
X2132609Y3384232D1*
X2060018D1*
Y3435367D1*
X2026525Y3435364D1*
X2023906Y3425739D1*
X2023820Y3391949D1*
X2023146Y3387686D1*
X2021812Y3383583D1*
X2019853Y3379738D1*
X2017316Y3376247D1*
X1998927Y3357736D1*
X1998903Y3255458D1*
X2046152Y3255472D1*
X2038001Y3263735D1*
X2035465Y3267226D1*
X2033505Y3271071D1*
X2032172Y3275175D1*
X2031496Y3279437D1*
X2031412Y3293688D1*
X2022617Y3293681D1*
Y3382020D1*
X2095207D1*
Y3293681D1*
X2086416D1*
X2091349Y3288049D1*
X2117327Y3261950D1*
X2119864Y3258459D1*
X2120923Y3256568D1*
X2126066Y3255472D1*
X2140084D1*
X2134887Y3648546D2*
X2134251Y3641228D1*
X2132773Y3634034D1*
X2130474Y3627058D1*
X2127386Y3620394D1*
X2123549Y3614131D1*
X2119013Y3608353D1*
X2113841Y3603138D1*
X2108102Y3598555D1*
X2101871Y3594664D1*
X2095234Y3591520D1*
X2088277Y3589163D1*
X2081094Y3587626D1*
X2073783Y3586928D1*
X2066440Y3587079D1*
X2059163Y3588076D1*
X2052050Y3589908D1*
X2045196Y3592549D1*
X2038693Y3595962D1*
X2032627Y3600105D1*
X2027081Y3604920D1*
X2022127Y3610344D1*
X2017833Y3616303D1*
X2014257Y3622718D1*
X2011445Y3629503D1*
X2009434Y3636568D1*
X2008253Y3643818D1*
X2007919Y3651155D1*
X2008432Y3658482D1*
X2009789Y3665701D1*
X2011970Y3672714D1*
X2014946Y3679429D1*
X2018677Y3685755D1*
X2023114Y3691608D1*
X2028198Y3696909D1*
X2033860Y3701589D1*
X2040025Y3705583D1*
X2046609Y3708839D1*
X2053525Y3711311D1*
X2060680Y3712970D1*
X2067979Y3713790D1*
X2075324Y3713762D1*
X2082617Y3712887D1*
X2089759Y3711176D1*
X2096656Y3708650D1*
X2103217Y3705345D1*
X2109350Y3701306D1*
X2114976Y3696584D1*
X2120020Y3691244D1*
X2124413Y3685358D1*
X2128097Y3679004D1*
X2131024Y3672266D1*
X2133152Y3665238D1*
X2134454Y3658008D1*
X2134913Y3650383D1*
X2134887Y3648546D1*
X2605741Y3157308D2*
Y3082488D1*
X2580228D1*
X2580129Y2979406D1*
X2579454Y2975143D1*
X2578121Y2971039D1*
X2576161Y2967194D1*
X2573625Y2963703D1*
X2558072Y2948151D1*
X2554581Y2945614D1*
X2550736Y2943655D1*
X2546633Y2942322D1*
X2542370Y2941647D1*
X2439163Y2941562D1*
X2355190Y2941503D1*
Y2896539D1*
X2641302Y2896551D1*
X2656496Y2911714D1*
X2656478Y3157274D1*
X2605706Y3157291D1*
X2525182Y3082488D2*
X2499686Y3082524D1*
X2492705Y3076461D1*
Y3064798D1*
X2496352Y3060449D1*
X2499508Y3055298D1*
X2501820Y3049717D1*
X2503231Y3043841D1*
X2503705Y3037819D1*
X2503231Y3031797D1*
X2501820Y3025921D1*
X2499508Y3020340D1*
X2496352Y3015189D1*
X2492428Y3010596D1*
X2487835Y3006672D1*
X2482684Y3003516D1*
X2477102Y3001203D1*
X2471227Y2999793D1*
X2465205Y2999319D1*
X2459182Y2999793D1*
X2453307Y3001203D1*
X2447726Y3003516D1*
X2442575Y3006672D1*
X2437982Y3010596D1*
X2434058Y3015189D1*
X2430902Y3020340D1*
X2428589Y3025921D1*
X2427178Y3031797D1*
X2426705Y3037819D1*
X2427178Y3043841D1*
X2428589Y3049717D1*
X2430902Y3055298D1*
X2434058Y3060449D1*
X2437701Y3064739D1*
X2437705Y3082495D1*
X2405210Y3082488D1*
X2405196Y3064798D1*
X2408843Y3060449D1*
X2411999Y3055298D1*
X2414311Y3049717D1*
X2415722Y3043841D1*
X2416196Y3037819D1*
X2415722Y3031797D1*
X2414311Y3025921D1*
X2411999Y3020340D1*
X2408843Y3015189D1*
X2404919Y3010596D1*
X2400325Y3006672D1*
X2395175Y3003516D1*
X2389593Y3001203D1*
X2383718Y2999793D1*
X2377696Y2999319D1*
X2371673Y2999793D1*
X2365798Y3001203D1*
X2360217Y3003516D1*
X2355193Y3006587D1*
X2355249Y2996562D1*
X2525232D1*
X2525214Y3082505D1*
X2518239Y3255472D2*
X2656488D1*
X2656478Y3272301D1*
X2522375Y3272322D1*
Y3378377D1*
X2543942D1*
X2543966Y3399953D1*
X2528920Y3399942D1*
Y3400911D1*
X2488904Y3400902D1*
X2488896Y3384232D1*
X2416306D1*
Y3435367D1*
X2382812Y3435364D1*
X2373966Y3426493D1*
X2373857Y3354445D1*
X2373182Y3350182D1*
X2371849Y3346079D1*
X2369890Y3342234D1*
X2367353Y3338743D1*
X2355205Y3326475D1*
X2355190Y3255496D1*
X2414941Y3255472D1*
X2394289Y3276236D1*
X2391752Y3279727D1*
X2389793Y3283572D1*
X2388459Y3287676D1*
X2387783Y3291946D1*
X2387190Y3293681D1*
X2378904D1*
Y3382020D1*
X2451495D1*
Y3296711D1*
X2486115Y3261950D1*
X2488652Y3258459D1*
X2489711Y3256568D1*
X2494854Y3255472D1*
X2518232Y3255437D1*
X2491175Y3648546D2*
X2490538Y3641228D1*
X2489060Y3634034D1*
X2486761Y3627058D1*
X2483673Y3620394D1*
X2479836Y3614131D1*
X2475301Y3608353D1*
X2470129Y3603138D1*
X2464390Y3598555D1*
X2458159Y3594664D1*
X2451521Y3591520D1*
X2444564Y3589163D1*
X2437382Y3587626D1*
X2430071Y3586928D1*
X2422727Y3587079D1*
X2415450Y3588076D1*
X2408337Y3589908D1*
X2401483Y3592549D1*
X2394980Y3595962D1*
X2388915Y3600105D1*
X2383369Y3604920D1*
X2378415Y3610344D1*
X2374121Y3616303D1*
X2370545Y3622718D1*
X2367732Y3629503D1*
X2365722Y3636568D1*
X2364541Y3643818D1*
X2364206Y3651155D1*
X2364719Y3658482D1*
X2366076Y3665701D1*
X2368257Y3672714D1*
X2371234Y3679429D1*
X2374965Y3685755D1*
X2379402Y3691608D1*
X2384486Y3696909D1*
X2390147Y3701589D1*
X2396312Y3705583D1*
X2402896Y3708839D1*
X2409812Y3711311D1*
X2416967Y3712970D1*
X2424266Y3713790D1*
X2431612Y3713762D1*
X2438904Y3712887D1*
X2446046Y3711176D1*
X2452944Y3708650D1*
X2459504Y3705345D1*
X2465638Y3701306D1*
X2471264Y3696584D1*
X2476307Y3691244D1*
X2480701Y3685358D1*
X2484385Y3679004D1*
X2487311Y3672266D1*
X2489440Y3665238D1*
X2490741Y3658008D1*
X2491201Y3650383D1*
X2491175Y3648546D1*
X2955778Y3157308D2*
Y3082488D1*
X2930265D1*
X2930167Y2985656D1*
X2929491Y2981394D1*
X2928157Y2977290D1*
X2926198Y2973445D1*
X2923661Y2969954D1*
X2901858Y2948151D1*
X2898367Y2945614D1*
X2894522Y2943655D1*
X2890419Y2942322D1*
X2886156Y2941646D1*
X2782949Y2941562D1*
X2711478Y2941503D1*
X2711392Y2898147D1*
X2710718Y2893885D1*
X2709385Y2889781D1*
X2707425Y2885936D1*
X2704888Y2882445D1*
X2703417Y2880853D1*
X2703066Y2877799D1*
X3006514Y2877858D1*
Y3157289D1*
X2955743Y3157291D1*
X2875218Y3082488D2*
X2849723Y3082524D1*
X2848992Y3076461D1*
Y3064798D1*
X2852639Y3060449D1*
X2855795Y3055298D1*
X2858108Y3049717D1*
X2859518Y3043841D1*
X2859992Y3037819D1*
X2859518Y3031797D1*
X2858108Y3025921D1*
X2855795Y3020340D1*
X2852639Y3015189D1*
X2848715Y3010596D1*
X2844122Y3006672D1*
X2838971Y3003516D1*
X2833390Y3001203D1*
X2827514Y2999793D1*
X2821492Y2999319D1*
X2815470Y2999793D1*
X2809594Y3001203D1*
X2804013Y3003516D1*
X2798862Y3006672D1*
X2794269Y3010596D1*
X2790345Y3015189D1*
X2787189Y3020340D1*
X2784877Y3025921D1*
X2783466Y3031797D1*
X2782992Y3037819D1*
X2783466Y3043841D1*
X2784877Y3049717D1*
X2787189Y3055298D1*
X2790345Y3060449D1*
X2793988Y3064739D1*
X2793992Y3082495D1*
X2761497Y3082488D1*
X2761483Y3064798D1*
X2765130Y3060449D1*
X2768286Y3055298D1*
X2770598Y3049717D1*
X2772009Y3043841D1*
X2772483Y3037819D1*
X2772009Y3031797D1*
X2770598Y3025921D1*
X2768286Y3020340D1*
X2765130Y3015189D1*
X2761206Y3010596D1*
X2756613Y3006672D1*
X2751462Y3003516D1*
X2745881Y3001203D1*
X2740005Y2999793D1*
X2733983Y2999319D1*
X2727961Y2999793D1*
X2722085Y3001203D1*
X2716504Y3003516D1*
X2711480Y3006587D1*
X2711537Y2996562D1*
X2872621D1*
X2875251Y3006186D1*
Y3082512D1*
X2874520Y3255472D2*
X3012769D1*
X3012765Y3272301D1*
X2878663Y3272322D1*
Y3378377D1*
X2900230D1*
X2900253Y3399953D1*
X2885207Y3399942D1*
Y3400911D1*
X2845180Y3400906D1*
X2845184Y3384232D1*
X2772593D1*
Y3435367D1*
X2739093Y3435364D1*
X2736480Y3425739D1*
Y3381996D1*
X2807782Y3382020D1*
Y3296710D1*
X2842403Y3261950D1*
X2844940Y3258459D1*
X2845999Y3256568D1*
X2851142Y3255472D1*
X2874520Y3255437D1*
X2744016Y3293681D2*
X2735192D1*
X2735134Y3366857D1*
X2733483Y3362870D1*
X2731228Y3359190D1*
X2728420Y3355903D1*
X2711501Y3338984D1*
X2711478Y3255438D1*
X2771227Y3255472D1*
X2750576Y3276236D1*
X2748039Y3279727D1*
X2746080Y3283572D1*
X2744747Y3287676D1*
X2744071Y3291946D1*
X2847462Y3648546D2*
X2846825Y3641228D1*
X2845348Y3634034D1*
X2843049Y3627058D1*
X2839961Y3620394D1*
X2836123Y3614131D1*
X2831588Y3608353D1*
X2826416Y3603138D1*
X2820677Y3598555D1*
X2814446Y3594664D1*
X2807808Y3591520D1*
X2800852Y3589163D1*
X2793669Y3587626D1*
X2786358Y3586928D1*
X2779014Y3587079D1*
X2771738Y3588076D1*
X2764625Y3589908D1*
X2757770Y3592549D1*
X2751268Y3595962D1*
X2745202Y3600105D1*
X2739656Y3604920D1*
X2734702Y3610344D1*
X2730408Y3616303D1*
X2726832Y3622718D1*
X2724020Y3629503D1*
X2722009Y3636568D1*
X2720828Y3643818D1*
X2720493Y3651155D1*
X2721007Y3658482D1*
X2722364Y3665701D1*
X2724545Y3672714D1*
X2727521Y3679429D1*
X2731252Y3685755D1*
X2735689Y3691608D1*
X2740773Y3696909D1*
X2746434Y3701589D1*
X2752600Y3705583D1*
X2759184Y3708839D1*
X2766100Y3711311D1*
X2773255Y3712970D1*
X2780554Y3713790D1*
X2787899Y3713762D1*
X2795192Y3712887D1*
X2802333Y3711176D1*
X2809231Y3708650D1*
X2815791Y3705345D1*
X2821925Y3701306D1*
X2827551Y3696584D1*
X2832594Y3691244D1*
X2836988Y3685358D1*
X2840672Y3679004D1*
X2843598Y3672266D1*
X2845727Y3665238D1*
X2847029Y3658008D1*
X2847488Y3650383D1*
X2847462Y3648546D1*
X3100303Y3293681D2*
X3091479D1*
X3091421Y3366857D1*
X3089770Y3362870D1*
X3087516Y3359190D1*
X3084707Y3355903D1*
X3067789Y3338984D1*
X3067765Y3255438D1*
X3115014Y3255472D1*
X3106864Y3263735D1*
X3104327Y3267226D1*
X3102367Y3271071D1*
X3101034Y3275175D1*
X3100360Y3279437D1*
X3100274Y3293688D1*
X3137745Y3082488D2*
X3105283D1*
X3105185Y2804387D1*
X3104509Y2800125D1*
X3103176Y2796021D1*
X3101217Y2792176D1*
X3098680Y2788685D1*
X3087903Y2777787D1*
X3122606Y2777789D1*
X3137797Y2792951D1*
X3137778Y3082503D1*
X3203749Y3648546D2*
X3203113Y3641228D1*
X3201635Y3634034D1*
X3199336Y3627058D1*
X3196248Y3620394D1*
X3192411Y3614131D1*
X3187875Y3608353D1*
X3182703Y3603138D1*
X3176965Y3598555D1*
X3170734Y3594664D1*
X3164096Y3591520D1*
X3157139Y3589163D1*
X3149957Y3587626D1*
X3142646Y3586928D1*
X3135302Y3587079D1*
X3128025Y3588076D1*
X3120912Y3589908D1*
X3114058Y3592549D1*
X3107555Y3595962D1*
X3101490Y3600105D1*
X3095944Y3604920D1*
X3090990Y3610344D1*
X3086696Y3616303D1*
X3083119Y3622718D1*
X3080307Y3629503D1*
X3078297Y3636568D1*
X3077115Y3643818D1*
X3076781Y3651155D1*
X3077294Y3658482D1*
X3078651Y3665701D1*
X3080832Y3672714D1*
X3083808Y3679429D1*
X3087539Y3685755D1*
X3091976Y3691608D1*
X3097060Y3696909D1*
X3102722Y3701589D1*
X3108887Y3705583D1*
X3115471Y3708839D1*
X3122387Y3711311D1*
X3129542Y3712970D1*
X3136841Y3713790D1*
X3144186Y3713762D1*
X3151479Y3712887D1*
X3158621Y3711176D1*
X3165518Y3708650D1*
X3172079Y3705345D1*
X3178213Y3701306D1*
X3183839Y3696584D1*
X3188882Y3691244D1*
X3193276Y3685358D1*
X3196959Y3679004D1*
X3199886Y3672266D1*
X3202014Y3665238D1*
X3203316Y3658008D1*
X3203776Y3650383D1*
X3203749Y3648546D1*
X826995Y3378385D2*
X824278Y3382878D1*
X821966Y3388459D1*
X820555Y3394335D1*
X820081Y3400357D1*
X820555Y3406379D1*
X822289Y3413130D1*
X3084988Y888589D2*
X3105585D1*
X3114269Y897282D1*
X3114277Y1092879D1*
X3063963Y1092885D1*
X3068903Y1088421D1*
X3075791Y1081365D1*
X3079343Y1076478D1*
X3082085Y1071094D1*
X3083953Y1065349D1*
X3084898Y1059382D1*
X3085016Y1010429D1*
Y888592D1*
X3253799Y866404D2*
X3336264Y783940D1*
X3336256Y945573D1*
X3256879Y1025106D1*
X3254339Y1028605D1*
X3253783Y1021147D1*
Y866450D1*
X2495206Y507009D2*
X2489979Y505781D1*
X2483957Y505307D1*
X2477934Y505781D1*
X2472059Y507192D1*
X2467711Y508934D1*
X2995655Y2822799D2*
X2765206D1*
X2768286Y2817773D1*
X2770598Y2812192D1*
X2772009Y2806316D1*
X2772483Y2800294D1*
X2772277Y2796534D1*
X3028902Y2796541D1*
X3039661Y2807433D1*
X3033786Y2806022D1*
X3027764Y2805549D1*
X3021741Y2806022D1*
X3015866Y2807433D1*
X3010285Y2809745D1*
X3005134Y2812902D1*
X3000541Y2816825D1*
X2996617Y2821419D1*
X2995692Y2822803D1*
X1968075Y2822799D2*
X1796979D1*
X1800657Y2819047D1*
X1804209Y2814160D1*
X1806951Y2808777D1*
X1808818Y2803031D1*
X1809764Y2797064D1*
X1809676Y2790283D1*
X1935024Y2790290D1*
X1966045Y2821205D1*
X1967747Y2822547D1*
X1673060Y2709031D2*
X1959990D1*
X1967512Y2716531D1*
X1673026Y2716538D1*
X2483227Y844420D2*
X2544277Y783370D1*
X2544256Y804594D1*
X2437950Y910915D1*
X2438841Y905822D1*
X2438925Y852529D1*
X2465913Y852415D1*
X2470176Y851740D1*
X2474280Y850407D1*
X2478125Y848448D1*
X2481615Y845911D1*
X2483207Y844440D1*
X1194638Y720234D2*
X1197583Y716117D1*
X1200325Y710734D1*
X1202192Y704988D1*
X1203138Y699021D1*
Y692979D1*
X1202844Y690505D1*
X1162822Y2031453D2*
X1163234Y2036703D1*
X1164461Y2041815D1*
X1166478Y2046681D1*
X1166522Y2047969D1*
X1152778D1*
X1148549Y2045899D1*
X1142803Y2044033D1*
X1136836Y2043087D1*
X1130794D1*
X1124827Y2044033D1*
X1119081Y2045899D1*
X1113698Y2048642D1*
X1108811Y2052193D1*
X1104539Y2056465D1*
X1100988Y2061352D1*
X1098245Y2066735D1*
X1097522Y2068696D1*
X1093176Y2067260D1*
X1088913Y2066584D1*
X1041147Y2066500D1*
X1005228Y2030581D1*
X1009760Y2027276D1*
X1011676Y2025504D1*
X1157395Y2025500D1*
X1162841Y2030970D1*
X918257Y891390D2*
X988196Y821436D1*
X1015396D1*
X885845Y951140D1*
X883308Y954631D1*
X881349Y958476D1*
X880016Y962580D1*
X879341Y966843D1*
X879243Y997083D1*
X853655D1*
Y1062715D1*
X846735Y1062618D1*
X841266Y1063465D1*
X841374Y894021D1*
X842320Y899988D1*
X844186Y905734D1*
X846929Y911117D1*
X850480Y916004D1*
X854752Y920276D1*
X859639Y923827D1*
X865022Y926570D1*
X870768Y928436D1*
X876735Y929382D1*
X882777D1*
X888744Y928436D1*
X894490Y926570D1*
X899873Y923827D1*
X904760Y920276D1*
X909031Y916004D1*
X912583Y911117D1*
X915325Y905734D1*
X917192Y899988D1*
X918138Y894021D1*
X918240Y891413D1*
X817256Y1887625D2*
Y1346921D1*
X820903Y1342630D1*
X822749Y1339818D1*
X826480Y1345004D1*
X828252Y1346920D1*
X828256Y1898633D1*
X817236Y1887589D1*
X1698924Y3259446D2*
X1688353Y3273542D1*
X1353037Y2430567D2*
X1332970Y2410621D1*
X1331268Y2409278D1*
X1331971Y2409000D1*
X1347437D1*
X1362610Y2424163D1*
X1362592Y2440707D1*
X1359533Y2437062D1*
X1353037Y2430567D1*
X289976Y3201294D2*
D22*
Y3074365D1*
X226512Y3137829D2*
X353441D1*
X289976Y2845007D2*
Y2718077D1*
X226512Y2781542D2*
X353441D1*
X289976Y2488719D2*
Y2361790D1*
X226512Y2425255D2*
X353441D1*
X289976Y2132432D2*
Y2005503D1*
X226512Y2068967D2*
X353441D1*
X289976Y1776144D2*
Y1649215D1*
X226512Y1712680D2*
X353441D1*
X289976Y1419857D2*
Y1292928D1*
X226512Y1356392D2*
X353441D1*
X289976Y1063570D2*
Y936640D1*
X226512Y1000105D2*
X353441D1*
X289976Y707282D2*
Y580353D1*
X226512Y643818D2*
X353441D1*
X3033756Y663000D2*
Y599535D1*
X2970291Y663000D2*
X3097220D1*
X1983904Y283798D2*
X2038865D1*
X1697684Y269467D2*
Y84743D1*
X1605322Y177105D2*
X1697684D1*
X2171699Y269467D2*
Y177105D1*
X2079337D2*
X2264062D1*
X1719719Y1248125D2*
Y1063400D1*
X1627357Y1155762D2*
X1812081D1*
X646264Y3713848D2*
Y3586919D1*
X582799Y3650383D2*
X709728D1*
X1002551Y3713848D2*
Y3586919D1*
X939087Y3650383D2*
X1066016D1*
X1358839Y3713848D2*
Y3586919D1*
X1295374Y3650383D2*
X1422303D1*
X1715126Y3713848D2*
Y3586919D1*
X1651661Y3650383D2*
X1778591D1*
X2071413Y3713848D2*
Y3586919D1*
X2007949Y3650383D2*
X2134878D1*
X2427701Y3713848D2*
Y3586919D1*
X2364236Y3650383D2*
X2491165D1*
X2783988Y3713848D2*
Y3586919D1*
X2720524Y3650383D2*
X2847453D1*
X3140276Y3713848D2*
Y3586919D1*
X3076811Y3650383D2*
X3203740D1*
D23*
X289976Y3137829D3*
Y3287829D3*
Y2781542D3*
Y2931542D3*
Y2425255D3*
Y2575255D3*
Y2068967D3*
Y2218967D3*
Y1712680D3*
Y1862680D3*
Y1356392D3*
Y1506392D3*
Y1000105D3*
Y1150105D3*
Y643818D3*
Y793818D3*
D24*
X1471157Y1956000D3*
X1396354D3*
X2621471Y1956455D3*
X2696274D3*
D25*
X1302583Y1493907D3*
Y1419104D3*
D27*
X2515210Y1237630D3*
Y1048496D3*
D25*
X2702730Y1162622D3*
Y1237425D3*
X2721482Y1556413D3*
Y1631217D3*
D29*
X2277685Y1662675D3*
Y1528816D3*
D27*
X2909001Y1681427D3*
Y1492293D3*
D24*
X3077769Y1668925D3*
X3152572D3*
D30*
X2821492Y850089D3*
X2982909D3*
D24*
X1496353Y75008D3*
X1571156D3*
D23*
X3183756Y663000D3*
X3033756D3*
X3652829Y800084D3*
Y650084D3*
Y1156371D3*
Y1006371D3*
Y1512659D3*
Y1362659D3*
Y1868946D3*
Y1718946D3*
Y2225234D3*
Y2075234D3*
Y2581521D3*
Y2431521D3*
Y2937808D3*
Y2787808D3*
Y3294096D3*
Y3144096D3*
D24*
X1415094Y156266D3*
X1340291D3*
D31*
X2815241Y1281385D3*
Y1231385D3*
Y1181385D3*
Y1131385D3*
X3027840D3*
Y1181385D3*
Y1231385D3*
Y1281385D3*
D24*
X3502814Y656319D3*
X3428010D3*
X3509064Y1012606D3*
X3434261D3*
X3509064Y1362643D3*
X3434261D3*
X3502814Y1712680D3*
X3428010D3*
X3509064Y2075218D3*
X3434261D3*
X3515315Y2425255D3*
X3440512D3*
X3509064Y2775291D3*
X3434261D3*
X3509064Y3137829D3*
X3434261D3*
X414990Y3331600D3*
X489793D3*
X427491Y2962811D3*
X502294D3*
X1571361Y156266D3*
X1496558D3*
X1340087Y75008D3*
X1414890D3*
X427491Y2587772D3*
X502294D3*
X427491Y2225234D3*
X502294D3*
X427491Y1850194D3*
X502294D3*
X427491Y1481406D3*
X502294D3*
X433741Y1112617D3*
X508545D3*
X421240Y750079D3*
X496043D3*
D25*
X1065058Y2231484D3*
Y2156681D3*
D24*
X3077951Y1587923D3*
X3152755D3*
D32*
X533752Y87509D3*
X633752D3*
X733752D3*
X833752D3*
X933752D3*
X1033752D3*
X1133752D3*
X1233752D3*
Y412509D3*
X1133752D3*
X1033752D3*
X933752D3*
X833752D3*
X733752D3*
X633752D3*
X533752D3*
D31*
X1240076Y2681531D3*
Y2631531D3*
Y2581531D3*
Y2531531D3*
Y2481531D3*
Y2431531D3*
Y2381531D3*
Y2331531D3*
Y2281531D3*
Y2231531D3*
Y2181531D3*
Y2131531D3*
Y2081531D3*
Y2031531D3*
X1610155D3*
Y2081531D3*
Y2131531D3*
Y2181531D3*
Y2231531D3*
Y2281531D3*
Y2331531D3*
Y2381531D3*
Y2431531D3*
Y2481531D3*
Y2531531D3*
Y2581531D3*
Y2631531D3*
Y2681531D3*
X2465205D3*
Y2631531D3*
Y2581531D3*
Y2531531D3*
Y2481531D3*
Y2431531D3*
Y2381531D3*
Y2331531D3*
Y2281531D3*
Y2231531D3*
Y2181531D3*
Y2131531D3*
Y2081531D3*
Y2031531D3*
X2835283D3*
Y2081531D3*
Y2131531D3*
Y2181531D3*
Y2231531D3*
Y2281531D3*
Y2331531D3*
Y2381531D3*
Y2431531D3*
Y2481531D3*
Y2531531D3*
Y2581531D3*
Y2631531D3*
Y2681531D3*
D34*
X2446453Y1481406D3*
X2537004D3*
X2627555D3*
D35*
X2537004Y1709752D3*
D37*
X2965257Y987604D3*
Y1062407D3*
X2874706Y1025005D3*
D24*
X2615016Y350037D3*
X2540213D3*
D38*
X2533962Y443797D3*
X2623962D3*
D24*
X2765236Y87509D3*
X2690433D3*
X2602719D3*
X2527916D3*
D39*
X1008802Y1531411D3*
X1150534D3*
Y1767631D3*
X1008802D3*
D40*
X1052556Y1325139D3*
Y1415139D3*
D42*
X896290Y1231379D3*
X971093D3*
X933692Y1321930D3*
D37*
X2358944Y881343D3*
Y956146D3*
X2268392Y918744D3*
X2358944Y750079D3*
Y824882D3*
X2268392Y787480D3*
D24*
X977549Y1137619D3*
X902745D3*
D25*
X808781Y1156371D3*
Y1231175D3*
X1133815Y1343891D3*
Y1418694D3*
X1221324Y1343891D3*
Y1418694D3*
X1071308Y1093865D3*
Y1168668D3*
D37*
X1165068Y831337D3*
Y756534D3*
X1255619Y793936D3*
D24*
X977549Y1050110D3*
X902745D3*
X2765236Y168768D3*
X2690433D3*
X2527711D3*
X2602514D3*
D25*
X2721482Y437546D3*
Y362743D3*
D44*
X2483957Y668820D3*
Y649135D3*
Y629450D3*
Y609765D3*
Y590080D3*
Y570395D3*
D45*
X2513484Y540867D3*
X2533169D3*
X2552854D3*
X2572539D3*
X2592224D3*
X2611909D3*
D44*
X2641437Y570395D3*
Y590080D3*
Y609765D3*
Y629450D3*
Y649135D3*
Y668820D3*
D45*
X2611909Y698348D3*
X2592224D3*
X2572539D3*
X2552854D3*
X2533169D3*
X2513484D3*
D46*
X2562697Y619608D3*
D37*
X2399490Y187724D3*
Y262528D3*
X2308938Y225126D3*
D47*
X1983904Y362538D3*
D48*
X1885479D3*
Y283798D3*
X1983904D3*
D49*
X1697684Y177105D3*
X2171699D3*
D50*
X1408844Y1443902D3*
Y1393902D3*
Y1343902D3*
Y1293902D3*
Y1243902D3*
Y1193902D3*
Y1143902D3*
Y1093903D3*
Y1043903D3*
Y993903D3*
Y943903D3*
Y893903D3*
Y843903D3*
Y793903D3*
X1408719Y743684D3*
Y693684D3*
Y643684D3*
Y593684D3*
Y543684D3*
X2138719D3*
Y593684D3*
Y643684D3*
Y693684D3*
Y743684D3*
X2138665Y793558D3*
Y843558D3*
Y893558D3*
Y943558D3*
Y993558D3*
Y1043558D3*
Y1093558D3*
Y1143558D3*
Y1193558D3*
Y1243558D3*
Y1293558D3*
Y1343558D3*
Y1393558D3*
Y1443558D3*
D51*
X1719719Y1155762D3*
D24*
X2540213Y256277D3*
X2615016D3*
D40*
X2290186Y550058D3*
Y640058D3*
X2365194Y550058D3*
Y640058D3*
D37*
X2399490Y337740D3*
Y412543D3*
X2308938Y375142D3*
D25*
X746274Y3131579D3*
Y3206382D3*
D42*
X783778Y3444112D3*
X858581D3*
X821180Y3534663D3*
X627512Y3337850D3*
X702315D3*
X664913Y3428402D3*
D24*
X790029Y3325349D3*
X864832D3*
D25*
X665016Y3131579D3*
Y3206382D3*
X833783Y3131579D3*
Y3206382D3*
X577507Y3131579D3*
Y3206382D3*
D24*
X640013Y3506618D3*
X714816D3*
D23*
X646264Y3650383D3*
X796264D3*
D25*
X1121314Y3131579D3*
Y3206382D3*
D42*
X1140066Y3444112D3*
X1214869D3*
X1177467Y3534663D3*
X996301Y3337850D3*
X1071104D3*
X1033702Y3428402D3*
D24*
X1146316Y3325349D3*
X1221119D3*
D25*
X1033804Y3131579D3*
Y3206382D3*
X1208823Y3131579D3*
Y3206382D3*
X946295Y3131579D3*
Y3206382D3*
D24*
X1002549Y3506614D3*
X1077352D3*
D23*
X1002551Y3650383D3*
X1152551D3*
D25*
X1477601Y3131579D3*
Y3206382D3*
D42*
X1496353Y3444112D3*
X1571156D3*
X1533755Y3534663D3*
X1346337Y3337850D3*
X1421140D3*
X1383739Y3428402D3*
D24*
X1502604Y3325349D3*
X1577407D3*
D25*
X1390092Y3131579D3*
Y3206382D3*
X1565110Y3131579D3*
Y3206382D3*
X1308833Y3131579D3*
Y3206382D3*
D24*
X1358839Y3506618D3*
X1433642D3*
D23*
X1358839Y3650383D3*
X1508839D3*
D25*
X1827638Y3131579D3*
Y3206382D3*
D42*
X1852640Y3444112D3*
X1927444D3*
X1890042Y3534663D3*
X1702625Y3337850D3*
X1777428D3*
X1740026Y3428402D3*
D24*
X1858891Y3325349D3*
X1933694D3*
D25*
X1746379Y3131579D3*
Y3206382D3*
X1908896Y3131579D3*
Y3206382D3*
X1665121Y3131579D3*
Y3206382D3*
D24*
X1715126Y3506618D3*
X1789929D3*
D23*
X1715126Y3650383D3*
X1865126D3*
D25*
X2183925Y3131579D3*
Y3206382D3*
D42*
X2208928Y3444112D3*
X2283731D3*
X2246329Y3534663D3*
X2058912Y3337850D3*
X2133715D3*
X2096314Y3428402D3*
D24*
X2215178Y3325349D3*
X2289982D3*
D25*
X2096416Y3131579D3*
Y3206382D3*
X2271434Y3131579D3*
Y3206382D3*
X2015157Y3131579D3*
Y3206382D3*
D24*
X2071413Y3506618D3*
X2146217D3*
D23*
X2071413Y3650383D3*
X2221413D3*
D25*
X2552714Y3131579D3*
Y3206382D3*
D42*
X2565215Y3444112D3*
X2640018D3*
X2602617Y3534663D3*
X2415199Y3337850D3*
X2490003D3*
X2452601Y3428402D3*
D24*
X2571466Y3325349D3*
X2646269D3*
D25*
X2465205Y3131579D3*
Y3206382D3*
X2640223Y3131579D3*
Y3206382D3*
X2377696Y3131579D3*
Y3206382D3*
D24*
X2427701Y3506618D3*
X2502504D3*
D23*
X2427701Y3650383D3*
X2577701D3*
D25*
X2902751Y3131579D3*
Y3206382D3*
D42*
X2921503Y3444112D3*
X2996306D3*
X2958904Y3534663D3*
X2771487Y3337850D3*
X2846290D3*
X2808888Y3428402D3*
D24*
X2927753Y3325349D3*
X3002556D3*
D25*
X2821492Y3131579D3*
Y3206382D3*
X2990260Y3131579D3*
Y3206382D3*
X2733983Y3131579D3*
Y3206382D3*
D24*
X2783988Y3506618D3*
X2858791D3*
D23*
X2783988Y3650383D3*
X2933988D3*
D25*
X3259038Y3131579D3*
Y3206382D3*
D42*
X3277790Y3444112D3*
X3352593D3*
X3315192Y3534663D3*
X3127774Y3337850D3*
X3202577D3*
X3165176Y3428402D3*
D24*
X3284041Y3325349D3*
X3358844D3*
D25*
X3165278Y3131579D3*
Y3206382D3*
X3346547Y3131579D3*
Y3206382D3*
X3077769Y3131579D3*
Y3206382D3*
D24*
X3140276Y3506618D3*
X3215079D3*
D23*
X3140276Y3650383D3*
X3290276D3*
M02*
