M48
INCH
T01C0.01
T02C0.0236
T03C0.038
T04C0.0906
T05C0.14
%
T01
X+025418Y+006450
X+025838Y+006450
X+025868Y+005970
X+025418Y+005970
X+024840Y+005438
X+023652Y+004938
X+022478Y+007170
X+022028Y+006900
X+023108Y+008400
X+022868Y+009690
X+025718Y+008940
X+026965Y+005501
X+027777Y+005688
X+027215Y+003036
X+026652Y+002357
X+025527Y+013751
X+027277Y+014236
X+026590Y+018064
X+025777Y+018627
X+029590Y+021190
X+029278Y+021815
X+028215Y+027190
X+027340Y+028003
X+027340Y+030378
X+028215Y+030378
X+029903Y+030441
X+030278Y+028440
X+032590Y+030378
X+033465Y+030378
X+031903Y+032691
X+030340Y+033941
X+028215Y+032941
X+026777Y+033941
X+024652Y+032816
X+023214Y+033941
X+021337Y+032943
X+019589Y+034066
X+017774Y+032878
X+015964Y+034004
X+014211Y+032880
X+012276Y+033941
X+010711Y+032880
X+008586Y+034004
X+007023Y+032878
X+004898Y+032755
X+005775Y+030503
X+006650Y+030503
X+008338Y+030503
X+009463Y+030441
X+010338Y+030441
X+012088Y+030441
X+013088Y+030378
X+015276Y+030816
X+015276Y+029691
X+016651Y+030378
X+017464Y+030378
X+019089Y+030378
X+020152Y+030378
X+020964Y+030378
X+022714Y+030378
X+023777Y+030378
X+024652Y+030378
X+026402Y+030378
X+023402Y+026815
X+023527Y+026315
X+023589Y+025815
X+023714Y+025315
X+023777Y+024815
X+023777Y+024315
X+023839Y+023815
X+023902Y+023315
X+021527Y+026503
X+019777Y+025815
X+017714Y+027940
X+016839Y+024815
X+016901Y+023815
X+016901Y+023315
X+018151Y+021815
X+017776Y+021315
X+016464Y+019877
X+014712Y+020377
X+013964Y+021250
X+013401Y+022815
X+011588Y+024815
X+011588Y+025315
X+011588Y+025815
X+011026Y+026315
X+009463Y+026815
X+005023Y+025317
X+005023Y+021692
X+005023Y+019127
X+008198Y+020490
X+008888Y+019980
X+009848Y+019980
X+011338Y+020815
X+011963Y+019877
X+012463Y+018439
X+013088Y+018127
X+016339Y+017939
X+010688Y+014760
X+009128Y+015900
X+008558Y+013200
X+007898Y+013200
X+007658Y+012780
X+008498Y+011010
X+008798Y+008910
X+009998Y+009330
X+012458Y+009450
X+012968Y+009000
X+011648Y+006960
X+013028Y+006570
X+013418Y+006270
X+013418Y+004590
X+012151Y+002250
X+014678Y+002160
X+011558Y+011670
X+010298Y+012330
X+005085Y+011689
X+004960Y+008063
X+005023Y+015502
X+005023Y+029068
X+015276Y+025315
X+023359Y+014478
X+033903Y+033941
T02
X+017197Y+011558
T03
X+002900Y+031378
X+002900Y+032878
X+002900Y+029315
X+002900Y+027815
X+002900Y+025753
X+002900Y+024253
X+002900Y+022190
X+002900Y+020690
X+002900Y+018627
X+002900Y+017127
X+002900Y+015064
X+002900Y+013564
X+002900Y+011501
X+002900Y+010001
X+002900Y+007938
X+002900Y+006438
X+018855Y+003625
X+018855Y+002838
X+019839Y+002838
X+019839Y+003625
X+030338Y+006630
X+031838Y+006630
X+036528Y+006501
X+036528Y+008001
X+036528Y+010064
X+036528Y+011564
X+036528Y+013627
X+036528Y+015127
X+036528Y+017189
X+036528Y+018689
X+036528Y+020752
X+036528Y+022252
X+036528Y+024315
X+036528Y+025815
X+036528Y+027878
X+036528Y+029378
X+036528Y+031441
X+036528Y+032941
X+032903Y+036504
X+031403Y+036504
X+029340Y+036504
X+027840Y+036504
X+025777Y+036504
X+024277Y+036504
X+022214Y+036504
X+020714Y+036504
X+018651Y+036504
X+017151Y+036504
X+015088Y+036504
X+013588Y+036504
X+011526Y+036504
X+010026Y+036504
X+007963Y+036504
X+006463Y+036504
T04
X+016977Y+001771
X+021717Y+001771
T05
X+037402Y+001969
X+001969Y+001969
X+001969Y+037402
X+037402Y+037402
T00
M30
