  0
SECTION
  2
HEADER
  9
$ACADVER
  1
AC1009
  9
$ANGDIR
  70
0
  9
$CECOLOR
  62
256
  9
$CELTYPE
  6
BYLAYER
  9
$EXTMIN
  10
0.0
  20
0.0
  9
$EXTMAX
  10
3.937
  20
3.937
  9
$FILLMODE
  70
1
  9
$MIRRTEXT
  70
0
  0
ENDSEC
  0
SECTION
  2
TABLES
  0
TABLE
  2
LAYER
  70
17
  0
LAYER
  2
Top_Paste
  70
64
  62
4
  6
CONTINUOUS
  0
ENDTAB
  0
ENDSEC
  0
SECTION
  2
ENTITIES
  0
SOLID
  8
Top_Paste
  10
1.4476
  20
1.9835
  11
1.4947
  21
1.9835
  12
1.4476
  22
1.9285
  13
1.4947
  23
1.9285
  0
SOLID
  8
Top_Paste
  10
1.3728
  20
1.9835
  11
1.4199
  21
1.9835
  12
1.3728
  22
1.9285
  13
1.4199
  23
1.9285
  0
SOLID
  8
Top_Paste
  10
2.5979
  20
1.984
  11
2.6451
  21
1.984
  12
2.5979
  22
1.9289
  13
2.6451
  23
1.9289
  0
SOLID
  8
Top_Paste
  10
2.6727
  20
1.984
  11
2.7199
  21
1.984
  12
2.6727
  22
1.9289
  13
2.7199
  23
1.9289
  0
SOLID
  8
Top_Paste
  10
1.2751
  20
1.5175
  11
1.3301
  21
1.5175
  12
1.2751
  22
1.4703
  13
1.3301
  23
1.4703
  0
SOLID
  8
Top_Paste
  10
1.2751
  20
1.4427
  11
1.3301
  21
1.4427
  12
1.2751
  22
1.3955
  13
1.3301
  23
1.3955
  0
SOLID
  8
Top_Paste
  10
2.4897
  20
1.2917
  11
2.5408
  21
1.2917
  12
2.4897
  22
1.1835
  13
2.5408
  23
1.1835
  0
SOLID
  8
Top_Paste
  10
2.4897
  20
1.1026
  11
2.5408
  21
1.1026
  12
2.4897
  22
0.9944
  13
2.5408
  23
0.9944
  0
SOLID
  8
Top_Paste
  10
2.6752
  20
1.1862
  11
2.7303
  21
1.1862
  12
2.6752
  22
1.139
  13
2.7303
  23
1.139
  0
SOLID
  8
Top_Paste
  10
2.6752
  20
1.261
  11
2.7303
  21
1.261
  12
2.6752
  22
1.2138
  13
2.7303
  23
1.2138
  0
SOLID
  8
Top_Paste
  10
2.694
  20
1.58
  11
2.749
  21
1.58
  12
2.694
  22
1.5328
  13
2.749
  23
1.5328
  0
SOLID
  8
Top_Paste
  10
2.694
  20
1.6548
  11
2.749
  21
1.6548
  12
2.694
  22
1.6076
  13
2.749
  23
1.6076
  0
SOLID
  8
Top_Paste
  10
2.2521
  20
1.705
  11
2.3032
  21
1.705
  12
2.2521
  22
1.6204
  13
2.3032
  23
1.6204
  0
SOLID
  8
Top_Paste
  10
2.2521
  20
1.5711
  11
2.3032
  21
1.5711
  12
2.2521
  22
1.4865
  13
2.3032
  23
1.4865
  0
SOLID
  8
Top_Paste
  10
2.8834
  20
1.7355
  11
2.9346
  21
1.7355
  12
2.8834
  22
1.6273
  13
2.9346
  23
1.6273
  0
SOLID
  8
Top_Paste
  10
2.8834
  20
1.5464
  11
2.9346
  21
1.5464
  12
2.8834
  22
1.4382
  13
2.9346
  23
1.4382
  0
SOLID
  8
Top_Paste
  10
3.0542
  20
1.6965
  11
3.1014
  21
1.6965
  12
3.0542
  22
1.6414
  13
3.1014
  23
1.6414
  0
SOLID
  8
Top_Paste
  10
3.129
  20
1.6965
  11
3.1762
  21
1.6965
  12
3.129
  22
1.6414
  13
3.1762
  23
1.6414
  0
SOLID
  8
Top_Paste
  10
2.792
  20
0.915
  11
2.851
  21
0.915
  12
2.792
  22
0.7852
  13
2.851
  23
0.7852
  0
SOLID
  8
Top_Paste
  10
2.9534
  20
0.915
  11
3.0124
  21
0.915
  12
2.9534
  22
0.7852
  13
3.0124
  23
0.7852
  0
SOLID
  8
Top_Paste
  10
1.4728
  20
0.1025
  11
1.5199
  21
0.1025
  12
1.4728
  22
0.0475
  13
1.5199
  23
0.0475
  0
SOLID
  8
Top_Paste
  10
1.5476
  20
0.1025
  11
1.5947
  21
0.1025
  12
1.5476
  22
0.0475
  13
1.5947
  23
0.0475
  0
SOLID
  8
Top_Paste
  10
1.3915
  20
0.1838
  11
1.4387
  21
0.1838
  12
1.3915
  22
0.1287
  13
1.4387
  23
0.1287
  0
SOLID
  8
Top_Paste
  10
1.3167
  20
0.1838
  11
1.3639
  21
0.1838
  12
1.3167
  22
0.1287
  13
1.3639
  23
0.1287
  0
SOLID
  8
Top_Paste
  10
2.7779
  20
1.2912
  11
2.8526
  21
1.2912
  12
2.7779
  22
1.2716
  13
2.8526
  23
1.2716
  0
SOLID
  8
Top_Paste
  10
2.7779
  20
1.2412
  11
2.8526
  21
1.2412
  12
2.7779
  22
1.2216
  13
2.8526
  23
1.2216
  0
SOLID
  8
Top_Paste
  10
2.7779
  20
1.1912
  11
2.8526
  21
1.1912
  12
2.7779
  22
1.1716
  13
2.8526
  23
1.1716
  0
SOLID
  8
Top_Paste
  10
2.7779
  20
1.1412
  11
2.8526
  21
1.1412
  12
2.7779
  22
1.1216
  13
2.8526
  23
1.1216
  0
SOLID
  8
Top_Paste
  10
2.9905
  20
1.1412
  11
3.0652
  21
1.1412
  12
2.9905
  22
1.1216
  13
3.0652
  23
1.1216
  0
SOLID
  8
Top_Paste
  10
2.9905
  20
1.1912
  11
3.0652
  21
1.1912
  12
2.9905
  22
1.1716
  13
3.0652
  23
1.1716
  0
SOLID
  8
Top_Paste
  10
2.9905
  20
1.2412
  11
3.0652
  21
1.2412
  12
2.9905
  22
1.2216
  13
3.0652
  23
1.2216
  0
SOLID
  8
Top_Paste
  10
2.9905
  20
1.2912
  11
3.0652
  21
1.2912
  12
2.9905
  22
1.2716
  13
3.0652
  23
1.2716
  0
SOLID
  8
Top_Paste
  10
3.4792
  20
0.6838
  11
3.5264
  21
0.6838
  12
3.4792
  22
0.6288
  13
3.5264
  23
0.6288
  0
SOLID
  8
Top_Paste
  10
3.4044
  20
0.6838
  11
3.4516
  21
0.6838
  12
3.4044
  22
0.6288
  13
3.4516
  23
0.6288
  0
SOLID
  8
Top_Paste
  10
3.4855
  20
1.0401
  11
3.5327
  21
1.0401
  12
3.4855
  22
0.9851
  13
3.5327
  23
0.9851
  0
SOLID
  8
Top_Paste
  10
3.4107
  20
1.0401
  11
3.4579
  21
1.0401
  12
3.4107
  22
0.9851
  13
3.4579
  23
0.9851
  0
SOLID
  8
Top_Paste
  10
3.4855
  20
1.3902
  11
3.5327
  21
1.3902
  12
3.4855
  22
1.3351
  13
3.5327
  23
1.3351
  0
SOLID
  8
Top_Paste
  10
3.4107
  20
1.3902
  11
3.4579
  21
1.3902
  12
3.4107
  22
1.3351
  13
3.4579
  23
1.3351
  0
SOLID
  8
Top_Paste
  10
3.4792
  20
1.7402
  11
3.5264
  21
1.7402
  12
3.4792
  22
1.6852
  13
3.5264
  23
1.6852
  0
SOLID
  8
Top_Paste
  10
3.4044
  20
1.7402
  11
3.4516
  21
1.7402
  12
3.4044
  22
1.6852
  13
3.4516
  23
1.6852
  0
SOLID
  8
Top_Paste
  10
3.4855
  20
2.1027
  11
3.5327
  21
2.1027
  12
3.4855
  22
2.0477
  13
3.5327
  23
2.0477
  0
SOLID
  8
Top_Paste
  10
3.4107
  20
2.1027
  11
3.4579
  21
2.1027
  12
3.4107
  22
2.0477
  13
3.4579
  23
2.0477
  0
SOLID
  8
Top_Paste
  10
3.4917
  20
2.4528
  11
3.5389
  21
2.4528
  12
3.4917
  22
2.3977
  13
3.5389
  23
2.3977
  0
SOLID
  8
Top_Paste
  10
3.4169
  20
2.4528
  11
3.4641
  21
2.4528
  12
3.4169
  22
2.3977
  13
3.4641
  23
2.3977
  0
SOLID
  8
Top_Paste
  10
3.4855
  20
2.8028
  11
3.5327
  21
2.8028
  12
3.4855
  22
2.7478
  13
3.5327
  23
2.7478
  0
SOLID
  8
Top_Paste
  10
3.4107
  20
2.8028
  11
3.4579
  21
2.8028
  12
3.4107
  22
2.7478
  13
3.4579
  23
2.7478
  0
SOLID
  8
Top_Paste
  10
3.4855
  20
3.1654
  11
3.5327
  21
3.1654
  12
3.4855
  22
3.1103
  13
3.5327
  23
3.1103
  0
SOLID
  8
Top_Paste
  10
3.4107
  20
3.1654
  11
3.4579
  21
3.1654
  12
3.4107
  22
3.1103
  13
3.4579
  23
3.1103
  0
SOLID
  8
Top_Paste
  10
0.3914
  20
3.3591
  11
0.4386
  21
3.3591
  12
0.3914
  22
3.3041
  13
0.4386
  23
3.3041
  0
SOLID
  8
Top_Paste
  10
0.4662
  20
3.3591
  11
0.5134
  21
3.3591
  12
0.4662
  22
3.3041
  13
0.5134
  23
3.3041
  0
SOLID
  8
Top_Paste
  10
0.4039
  20
2.9903
  11
0.4511
  21
2.9903
  12
0.4039
  22
2.9353
  13
0.4511
  23
2.9353
  0
SOLID
  8
Top_Paste
  10
0.4787
  20
2.9903
  11
0.5259
  21
2.9903
  12
0.4787
  22
2.9353
  13
0.5259
  23
2.9353
  0
SOLID
  8
Top_Paste
  10
1.5478
  20
0.1838
  11
1.595
  21
0.1838
  12
1.5478
  22
0.1287
  13
1.595
  23
0.1287
  0
SOLID
  8
Top_Paste
  10
1.473
  20
0.1838
  11
1.5201
  21
0.1838
  12
1.473
  22
0.1287
  13
1.5201
  23
0.1287
  0
SOLID
  8
Top_Paste
  10
1.3165
  20
0.1025
  11
1.3637
  21
0.1025
  12
1.3165
  22
0.0475
  13
1.3637
  23
0.0475
  0
SOLID
  8
Top_Paste
  10
1.3913
  20
0.1025
  11
1.4385
  21
0.1025
  12
1.3913
  22
0.0475
  13
1.4385
  23
0.0475
  0
SOLID
  8
Top_Paste
  10
0.4039
  20
2.6153
  11
0.4511
  21
2.6153
  12
0.4039
  22
2.5602
  13
0.4511
  23
2.5602
  0
SOLID
  8
Top_Paste
  10
0.4787
  20
2.6153
  11
0.5259
  21
2.6153
  12
0.4787
  22
2.5602
  13
0.5259
  23
2.5602
  0
SOLID
  8
Top_Paste
  10
0.4039
  20
2.2528
  11
0.4511
  21
2.2528
  12
0.4039
  22
2.1977
  13
0.4511
  23
2.1977
  0
SOLID
  8
Top_Paste
  10
0.4787
  20
2.2528
  11
0.5259
  21
2.2528
  12
0.4787
  22
2.1977
  13
0.5259
  23
2.1977
  0
SOLID
  8
Top_Paste
  10
0.4039
  20
1.8777
  11
0.4511
  21
1.8777
  12
0.4039
  22
1.8227
  13
0.4511
  23
1.8227
  0
SOLID
  8
Top_Paste
  10
0.4787
  20
1.8777
  11
0.5259
  21
1.8777
  12
0.4787
  22
1.8227
  13
0.5259
  23
1.8227
  0
SOLID
  8
Top_Paste
  10
0.4039
  20
1.5089
  11
0.4511
  21
1.5089
  12
0.4039
  22
1.4539
  13
0.4511
  23
1.4539
  0
SOLID
  8
Top_Paste
  10
0.4787
  20
1.5089
  11
0.5259
  21
1.5089
  12
0.4787
  22
1.4539
  13
0.5259
  23
1.4539
  0
SOLID
  8
Top_Paste
  10
0.4102
  20
1.1401
  11
0.4573
  21
1.1401
  12
0.4102
  22
1.0851
  13
0.4573
  23
1.0851
  0
SOLID
  8
Top_Paste
  10
0.485
  20
1.1401
  11
0.5321
  21
1.1401
  12
0.485
  22
1.0851
  13
0.5321
  23
1.0851
  0
SOLID
  8
Top_Paste
  10
0.3976
  20
0.7776
  11
0.4448
  21
0.7776
  12
0.3976
  22
0.7226
  13
0.4448
  23
0.7226
  0
SOLID
  8
Top_Paste
  10
0.4725
  20
0.7776
  11
0.5196
  21
0.7776
  12
0.4725
  22
0.7226
  13
0.5196
  23
0.7226
  0
SOLID
  8
Top_Paste
  10
1.0375
  20
2.2551
  11
1.0926
  21
2.2551
  12
1.0375
  22
2.2079
  13
1.0926
  23
2.2079
  0
SOLID
  8
Top_Paste
  10
1.0375
  20
2.1803
  11
1.0926
  21
2.1803
  12
1.0375
  22
2.1331
  13
1.0926
  23
2.1331
  0
SOLID
  8
Top_Paste
  10
3.0544
  20
1.6155
  11
3.1015
  21
1.6155
  12
3.0544
  22
1.5604
  13
3.1015
  23
1.5604
  0
SOLID
  8
Top_Paste
  10
3.1292
  20
1.6155
  11
3.1763
  21
1.6155
  12
3.1292
  22
1.5604
  13
3.1763
  23
1.5604
  0
SOLID
  8
Top_Paste
  10
0.5058
  20
0.133
  11
0.5618
  21
0.133
  12
0.5058
  22
0.042
  13
0.5618
  23
0.042
  0
SOLID
  8
Top_Paste
  10
0.6058
  20
0.133
  11
0.6618
  21
0.133
  12
0.6058
  22
0.042
  13
0.6618
  23
0.042
  0
SOLID
  8
Top_Paste
  10
0.7058
  20
0.133
  11
0.7618
  21
0.133
  12
0.7058
  22
0.042
  13
0.7618
  23
0.042
  0
SOLID
  8
Top_Paste
  10
0.8058
  20
0.133
  11
0.8618
  21
0.133
  12
0.8058
  22
0.042
  13
0.8618
  23
0.042
  0
SOLID
  8
Top_Paste
  10
0.9058
  20
0.133
  11
0.9618
  21
0.133
  12
0.9058
  22
0.042
  13
0.9618
  23
0.042
  0
SOLID
  8
Top_Paste
  10
1.0058
  20
0.133
  11
1.0618
  21
0.133
  12
1.0058
  22
0.042
  13
1.0618
  23
0.042
  0
SOLID
  8
Top_Paste
  10
1.1058
  20
0.133
  11
1.1618
  21
0.133
  12
1.1058
  22
0.042
  13
1.1618
  23
0.042
  0
SOLID
  8
Top_Paste
  10
1.2058
  20
0.133
  11
1.2618
  21
0.133
  12
1.2058
  22
0.042
  13
1.2618
  23
0.042
  0
SOLID
  8
Top_Paste
  10
1.2058
  20
0.458
  11
1.2618
  21
0.458
  12
1.2058
  22
0.367
  13
1.2618
  23
0.367
  0
SOLID
  8
Top_Paste
  10
1.1058
  20
0.458
  11
1.1618
  21
0.458
  12
1.1058
  22
0.367
  13
1.1618
  23
0.367
  0
SOLID
  8
Top_Paste
  10
1.0058
  20
0.458
  11
1.0618
  21
0.458
  12
1.0058
  22
0.367
  13
1.0618
  23
0.367
  0
SOLID
  8
Top_Paste
  10
0.9058
  20
0.458
  11
0.9618
  21
0.458
  12
0.9058
  22
0.367
  13
0.9618
  23
0.367
  0
SOLID
  8
Top_Paste
  10
0.8058
  20
0.458
  11
0.8618
  21
0.458
  12
0.8058
  22
0.367
  13
0.8618
  23
0.367
  0
SOLID
  8
Top_Paste
  10
0.7058
  20
0.458
  11
0.7618
  21
0.458
  12
0.7058
  22
0.367
  13
0.7618
  23
0.367
  0
SOLID
  8
Top_Paste
  10
0.6058
  20
0.458
  11
0.6618
  21
0.458
  12
0.6058
  22
0.367
  13
0.6618
  23
0.367
  0
SOLID
  8
Top_Paste
  10
0.5058
  20
0.458
  11
0.5618
  21
0.458
  12
0.5058
  22
0.367
  13
0.5618
  23
0.367
  0
SOLID
  8
Top_Paste
  10
1.2027
  20
2.6913
  11
1.2774
  21
2.6913
  12
1.2027
  22
2.6717
  13
1.2774
  23
2.6717
  0
SOLID
  8
Top_Paste
  10
1.2027
  20
2.6413
  11
1.2774
  21
2.6413
  12
1.2027
  22
2.6217
  13
1.2774
  23
2.6217
  0
SOLID
  8
Top_Paste
  10
1.2027
  20
2.5913
  11
1.2774
  21
2.5913
  12
1.2027
  22
2.5717
  13
1.2774
  23
2.5717
  0
SOLID
  8
Top_Paste
  10
1.2027
  20
2.5413
  11
1.2774
  21
2.5413
  12
1.2027
  22
2.5217
  13
1.2774
  23
2.5217
  0
SOLID
  8
Top_Paste
  10
1.2027
  20
2.4913
  11
1.2774
  21
2.4913
  12
1.2027
  22
2.4717
  13
1.2774
  23
2.4717
  0
SOLID
  8
Top_Paste
  10
1.2027
  20
2.4413
  11
1.2774
  21
2.4413
  12
1.2027
  22
2.4217
  13
1.2774
  23
2.4217
  0
SOLID
  8
Top_Paste
  10
1.2027
  20
2.3913
  11
1.2774
  21
2.3913
  12
1.2027
  22
2.3717
  13
1.2774
  23
2.3717
  0
SOLID
  8
Top_Paste
  10
1.2027
  20
2.3413
  11
1.2774
  21
2.3413
  12
1.2027
  22
2.3217
  13
1.2774
  23
2.3217
  0
SOLID
  8
Top_Paste
  10
1.2027
  20
2.2913
  11
1.2774
  21
2.2913
  12
1.2027
  22
2.2717
  13
1.2774
  23
2.2717
  0
SOLID
  8
Top_Paste
  10
1.2027
  20
2.2413
  11
1.2774
  21
2.2413
  12
1.2027
  22
2.2217
  13
1.2774
  23
2.2217
  0
SOLID
  8
Top_Paste
  10
1.2027
  20
2.1913
  11
1.2774
  21
2.1913
  12
1.2027
  22
2.1717
  13
1.2774
  23
2.1717
  0
SOLID
  8
Top_Paste
  10
1.2027
  20
2.1413
  11
1.2774
  21
2.1413
  12
1.2027
  22
2.1217
  13
1.2774
  23
2.1217
  0
SOLID
  8
Top_Paste
  10
1.2027
  20
2.0913
  11
1.2774
  21
2.0913
  12
1.2027
  22
2.0717
  13
1.2774
  23
2.0717
  0
SOLID
  8
Top_Paste
  10
1.2027
  20
2.0413
  11
1.2774
  21
2.0413
  12
1.2027
  22
2.0217
  13
1.2774
  23
2.0217
  0
SOLID
  8
Top_Paste
  10
1.5728
  20
2.0413
  11
1.6475
  21
2.0413
  12
1.5728
  22
2.0217
  13
1.6475
  23
2.0217
  0
SOLID
  8
Top_Paste
  10
1.5728
  20
2.0913
  11
1.6475
  21
2.0913
  12
1.5728
  22
2.0717
  13
1.6475
  23
2.0717
  0
SOLID
  8
Top_Paste
  10
1.5728
  20
2.1413
  11
1.6475
  21
2.1413
  12
1.5728
  22
2.1217
  13
1.6475
  23
2.1217
  0
SOLID
  8
Top_Paste
  10
1.5728
  20
2.1913
  11
1.6475
  21
2.1913
  12
1.5728
  22
2.1717
  13
1.6475
  23
2.1717
  0
SOLID
  8
Top_Paste
  10
1.5728
  20
2.2413
  11
1.6475
  21
2.2413
  12
1.5728
  22
2.2217
  13
1.6475
  23
2.2217
  0
SOLID
  8
Top_Paste
  10
1.5728
  20
2.2913
  11
1.6475
  21
2.2913
  12
1.5728
  22
2.2717
  13
1.6475
  23
2.2717
  0
SOLID
  8
Top_Paste
  10
1.5728
  20
2.3413
  11
1.6475
  21
2.3413
  12
1.5728
  22
2.3217
  13
1.6475
  23
2.3217
  0
SOLID
  8
Top_Paste
  10
1.5728
  20
2.3913
  11
1.6475
  21
2.3913
  12
1.5728
  22
2.3717
  13
1.6475
  23
2.3717
  0
SOLID
  8
Top_Paste
  10
1.5728
  20
2.4413
  11
1.6475
  21
2.4413
  12
1.5728
  22
2.4217
  13
1.6475
  23
2.4217
  0
SOLID
  8
Top_Paste
  10
1.5728
  20
2.4913
  11
1.6475
  21
2.4913
  12
1.5728
  22
2.4717
  13
1.6475
  23
2.4717
  0
SOLID
  8
Top_Paste
  10
1.5728
  20
2.5413
  11
1.6475
  21
2.5413
  12
1.5728
  22
2.5217
  13
1.6475
  23
2.5217
  0
SOLID
  8
Top_Paste
  10
1.5728
  20
2.5913
  11
1.6475
  21
2.5913
  12
1.5728
  22
2.5717
  13
1.6475
  23
2.5717
  0
SOLID
  8
Top_Paste
  10
1.5728
  20
2.6413
  11
1.6475
  21
2.6413
  12
1.5728
  22
2.6217
  13
1.6475
  23
2.6217
  0
SOLID
  8
Top_Paste
  10
1.5728
  20
2.6913
  11
1.6475
  21
2.6913
  12
1.5728
  22
2.6717
  13
1.6475
  23
2.6717
  0
SOLID
  8
Top_Paste
  10
2.4278
  20
2.6913
  11
2.5026
  21
2.6913
  12
2.4278
  22
2.6717
  13
2.5026
  23
2.6717
  0
SOLID
  8
Top_Paste
  10
2.4278
  20
2.6413
  11
2.5026
  21
2.6413
  12
2.4278
  22
2.6217
  13
2.5026
  23
2.6217
  0
SOLID
  8
Top_Paste
  10
2.4278
  20
2.5913
  11
2.5026
  21
2.5913
  12
2.4278
  22
2.5717
  13
2.5026
  23
2.5717
  0
SOLID
  8
Top_Paste
  10
2.4278
  20
2.5413
  11
2.5026
  21
2.5413
  12
2.4278
  22
2.5217
  13
2.5026
  23
2.5217
  0
SOLID
  8
Top_Paste
  10
2.4278
  20
2.4913
  11
2.5026
  21
2.4913
  12
2.4278
  22
2.4717
  13
2.5026
  23
2.4717
  0
SOLID
  8
Top_Paste
  10
2.4278
  20
2.4413
  11
2.5026
  21
2.4413
  12
2.4278
  22
2.4217
  13
2.5026
  23
2.4217
  0
SOLID
  8
Top_Paste
  10
2.4278
  20
2.3913
  11
2.5026
  21
2.3913
  12
2.4278
  22
2.3717
  13
2.5026
  23
2.3717
  0
SOLID
  8
Top_Paste
  10
2.4278
  20
2.3413
  11
2.5026
  21
2.3413
  12
2.4278
  22
2.3217
  13
2.5026
  23
2.3217
  0
SOLID
  8
Top_Paste
  10
2.4278
  20
2.2913
  11
2.5026
  21
2.2913
  12
2.4278
  22
2.2717
  13
2.5026
  23
2.2717
  0
SOLID
  8
Top_Paste
  10
2.4278
  20
2.2413
  11
2.5026
  21
2.2413
  12
2.4278
  22
2.2217
  13
2.5026
  23
2.2217
  0
SOLID
  8
Top_Paste
  10
2.4278
  20
2.1913
  11
2.5026
  21
2.1913
  12
2.4278
  22
2.1717
  13
2.5026
  23
2.1717
  0
SOLID
  8
Top_Paste
  10
2.4278
  20
2.1413
  11
2.5026
  21
2.1413
  12
2.4278
  22
2.1217
  13
2.5026
  23
2.1217
  0
SOLID
  8
Top_Paste
  10
2.4278
  20
2.0913
  11
2.5026
  21
2.0913
  12
2.4278
  22
2.0717
  13
2.5026
  23
2.0717
  0
SOLID
  8
Top_Paste
  10
2.4278
  20
2.0413
  11
2.5026
  21
2.0413
  12
2.4278
  22
2.0217
  13
2.5026
  23
2.0217
  0
SOLID
  8
Top_Paste
  10
2.7979
  20
2.0413
  11
2.8727
  21
2.0413
  12
2.7979
  22
2.0217
  13
2.8727
  23
2.0217
  0
SOLID
  8
Top_Paste
  10
2.7979
  20
2.0913
  11
2.8727
  21
2.0913
  12
2.7979
  22
2.0717
  13
2.8727
  23
2.0717
  0
SOLID
  8
Top_Paste
  10
2.7979
  20
2.1413
  11
2.8727
  21
2.1413
  12
2.7979
  22
2.1217
  13
2.8727
  23
2.1217
  0
SOLID
  8
Top_Paste
  10
2.7979
  20
2.1913
  11
2.8727
  21
2.1913
  12
2.7979
  22
2.1717
  13
2.8727
  23
2.1717
  0
SOLID
  8
Top_Paste
  10
2.7979
  20
2.2413
  11
2.8727
  21
2.2413
  12
2.7979
  22
2.2217
  13
2.8727
  23
2.2217
  0
SOLID
  8
Top_Paste
  10
2.7979
  20
2.2913
  11
2.8727
  21
2.2913
  12
2.7979
  22
2.2717
  13
2.8727
  23
2.2717
  0
SOLID
  8
Top_Paste
  10
2.7979
  20
2.3413
  11
2.8727
  21
2.3413
  12
2.7979
  22
2.3217
  13
2.8727
  23
2.3217
  0
SOLID
  8
Top_Paste
  10
2.7979
  20
2.3913
  11
2.8727
  21
2.3913
  12
2.7979
  22
2.3717
  13
2.8727
  23
2.3717
  0
SOLID
  8
Top_Paste
  10
2.7979
  20
2.4413
  11
2.8727
  21
2.4413
  12
2.7979
  22
2.4217
  13
2.8727
  23
2.4217
  0
SOLID
  8
Top_Paste
  10
2.7979
  20
2.4913
  11
2.8727
  21
2.4913
  12
2.7979
  22
2.4717
  13
2.8727
  23
2.4717
  0
SOLID
  8
Top_Paste
  10
2.7979
  20
2.5413
  11
2.8727
  21
2.5413
  12
2.7979
  22
2.5217
  13
2.8727
  23
2.5217
  0
SOLID
  8
Top_Paste
  10
2.7979
  20
2.5913
  11
2.8727
  21
2.5913
  12
2.7979
  22
2.5717
  13
2.8727
  23
2.5717
  0
SOLID
  8
Top_Paste
  10
2.7979
  20
2.6413
  11
2.8727
  21
2.6413
  12
2.7979
  22
2.6217
  13
2.8727
  23
2.6217
  0
SOLID
  8
Top_Paste
  10
2.7979
  20
2.6913
  11
2.8727
  21
2.6913
  12
2.7979
  22
2.6717
  13
2.8727
  23
2.6717
  0
SOLID
  8
Top_Paste
  10
2.4298
  20
1.5217
  11
2.4632
  21
1.5217
  12
2.4298
  22
1.4411
  13
2.4632
  23
1.4411
  0
SOLID
  8
Top_Paste
  10
2.5203
  20
1.5217
  11
2.5537
  21
1.5217
  12
2.5203
  22
1.4411
  13
2.5537
  23
1.4411
  0
SOLID
  8
Top_Paste
  10
2.6109
  20
1.5217
  11
2.6443
  21
1.5217
  12
2.6109
  22
1.4411
  13
2.6443
  23
1.4411
  0
SOLID
  8
Top_Paste
  10
2.475
  20
1.7501
  11
2.599
  21
1.7501
  12
2.475
  22
1.6694
  13
2.599
  23
1.6694
  0
SOLID
  8
Top_Paste
  10
2.9466
  20
0.9984
  11
2.9839
  21
0.9984
  12
2.9466
  22
0.9768
  13
2.9839
  23
0.9768
  0
SOLID
  8
Top_Paste
  10
2.9466
  20
1.0732
  11
2.9839
  21
1.0732
  12
2.9466
  22
1.0516
  13
2.9839
  23
1.0516
  0
SOLID
  8
Top_Paste
  10
2.856
  20
1.0358
  11
2.8934
  21
1.0358
  12
2.856
  22
1.0142
  13
2.8934
  23
1.0142
  0
SOLID
  8
Top_Paste
  10
2.5914
  20
0.3776
  11
2.6386
  21
0.3776
  12
2.5914
  22
0.3225
  13
2.6386
  23
0.3225
  0
SOLID
  8
Top_Paste
  10
2.5166
  20
0.3776
  11
2.5638
  21
0.3776
  12
2.5166
  22
0.3225
  13
2.5638
  23
0.3225
  0
SOLID
  8
Top_Paste
  10
2.506
  20
0.4698
  11
2.562
  21
0.4698
  12
2.506
  22
0.4178
  13
2.562
  23
0.4178
  0
SOLID
  8
Top_Paste
  10
2.596
  20
0.4698
  11
2.652
  21
0.4698
  12
2.596
  22
0.4178
  13
2.652
  23
0.4178
  0
SOLID
  8
Top_Paste
  10
2.7416
  20
0.115
  11
2.7888
  21
0.115
  12
2.7416
  22
0.06
  13
2.7888
  23
0.06
  0
SOLID
  8
Top_Paste
  10
2.6668
  20
0.115
  11
2.714
  21
0.115
  12
2.6668
  22
0.06
  13
2.714
  23
0.06
  0
SOLID
  8
Top_Paste
  10
2.5791
  20
0.115
  11
2.6263
  21
0.115
  12
2.5791
  22
0.06
  13
2.6263
  23
0.06
  0
SOLID
  8
Top_Paste
  10
2.5043
  20
0.115
  11
2.5515
  21
0.115
  12
2.5043
  22
0.06
  13
2.5515
  23
0.06
  0
SOLID
  8
Top_Paste
  10
0.9832
  20
1.5806
  11
1.0344
  21
1.5806
  12
0.9832
  22
1.4822
  13
1.0344
  23
1.4822
  0
SOLID
  8
Top_Paste
  10
1.125
  20
1.5806
  11
1.1761
  21
1.5806
  12
1.125
  22
1.4822
  13
1.1761
  23
1.4822
  0
SOLID
  8
Top_Paste
  10
1.125
  20
1.8168
  11
1.1761
  21
1.8168
  12
1.125
  22
1.7185
  13
1.1761
  23
1.7185
  0
SOLID
  8
Top_Paste
  10
0.9832
  20
1.8168
  11
1.0344
  21
1.8168
  12
0.9832
  22
1.7185
  13
1.0344
  23
1.7185
  0
SOLID
  8
Top_Paste
  10
1.0266
  20
1.3531
  11
1.0786
  21
1.3531
  12
1.0266
  22
1.2971
  13
1.0786
  23
1.2971
  0
SOLID
  8
Top_Paste
  10
1.0266
  20
1.4431
  11
1.0786
  21
1.4431
  12
1.0266
  22
1.3871
  13
1.0786
  23
1.3871
  0
SOLID
  8
Top_Paste
  10
0.8855
  20
1.25
  11
0.9071
  21
1.25
  12
0.8855
  22
1.2127
  13
0.9071
  23
1.2127
  0
SOLID
  8
Top_Paste
  10
0.9603
  20
1.25
  11
0.9819
  21
1.25
  12
0.9603
  22
1.2127
  13
0.9819
  23
1.2127
  0
SOLID
  8
Top_Paste
  10
0.9229
  20
1.3406
  11
0.9445
  21
1.3406
  12
0.9229
  22
1.3033
  13
0.9445
  23
1.3033
  0
SOLID
  8
Top_Paste
  10
2.3403
  20
0.8921
  11
2.3776
  21
0.8921
  12
2.3403
  22
0.8705
  13
2.3776
  23
0.8705
  0
SOLID
  8
Top_Paste
  10
2.3403
  20
0.9669
  11
2.3776
  21
0.9669
  12
2.3403
  22
0.9454
  13
2.3776
  23
0.9454
  0
SOLID
  8
Top_Paste
  10
2.2497
  20
0.9295
  11
2.2871
  21
0.9295
  12
2.2497
  22
0.9079
  13
2.2871
  23
0.9079
  0
SOLID
  8
Top_Paste
  10
2.3403
  20
0.7609
  11
2.3776
  21
0.7609
  12
2.3403
  22
0.7393
  13
2.3776
  23
0.7393
  0
SOLID
  8
Top_Paste
  10
2.3403
  20
0.8357
  11
2.3776
  21
0.8357
  12
2.3403
  22
0.8141
  13
2.3776
  23
0.8141
  0
SOLID
  8
Top_Paste
  10
2.2497
  20
0.7983
  11
2.2871
  21
0.7983
  12
2.2497
  22
0.7767
  13
2.2871
  23
0.7767
  0
SOLID
  8
Top_Paste
  10
0.954
  20
1.1651
  11
1.0011
  21
1.1651
  12
0.954
  22
1.1101
  13
1.0011
  23
1.1101
  0
SOLID
  8
Top_Paste
  10
0.8792
  20
1.1651
  11
0.9263
  21
1.1651
  12
0.8792
  22
1.1101
  13
0.9263
  23
1.1101
  0
SOLID
  8
Top_Paste
  10
0.7813
  20
1.18
  11
0.8363
  21
1.18
  12
0.7813
  22
1.1328
  13
0.8363
  23
1.1328
  0
SOLID
  8
Top_Paste
  10
0.7813
  20
1.2548
  11
0.8363
  21
1.2548
  12
0.7813
  22
1.2076
  13
0.8363
  23
1.2076
  0
SOLID
  8
Top_Paste
  10
1.1063
  20
1.3675
  11
1.1613
  21
1.3675
  12
1.1063
  22
1.3203
  13
1.1613
  23
1.3203
  0
SOLID
  8
Top_Paste
  10
1.1063
  20
1.4423
  11
1.1613
  21
1.4423
  12
1.1063
  22
1.3951
  13
1.1613
  23
1.3951
  0
SOLID
  8
Top_Paste
  10
1.1938
  20
1.3675
  11
1.2489
  21
1.3675
  12
1.1938
  22
1.3203
  13
1.2489
  23
1.3203
  0
SOLID
  8
Top_Paste
  10
1.1938
  20
1.4423
  11
1.2489
  21
1.4423
  12
1.1938
  22
1.3951
  13
1.2489
  23
1.3951
  0
SOLID
  8
Top_Paste
  10
1.0438
  20
1.1175
  11
1.0988
  21
1.1175
  12
1.0438
  22
1.0703
  13
1.0988
  23
1.0703
  0
SOLID
  8
Top_Paste
  10
1.0438
  20
1.1923
  11
1.0988
  21
1.1923
  12
1.0438
  22
1.1451
  13
1.0988
  23
1.1451
  0
SOLID
  8
Top_Paste
  10
1.1464
  20
0.8421
  11
1.1837
  21
0.8421
  12
1.1464
  22
0.8205
  13
1.1837
  23
0.8205
  0
SOLID
  8
Top_Paste
  10
1.1464
  20
0.7673
  11
1.1837
  21
0.7673
  12
1.1464
  22
0.7457
  13
1.1837
  23
0.7457
  0
SOLID
  8
Top_Paste
  10
1.237
  20
0.8047
  11
1.2743
  21
0.8047
  12
1.237
  22
0.7831
  13
1.2743
  23
0.7831
  0
SOLID
  8
Top_Paste
  10
0.954
  20
1.0776
  11
1.0011
  21
1.0776
  12
0.954
  22
1.0226
  13
1.0011
  23
1.0226
  0
SOLID
  8
Top_Paste
  10
0.8792
  20
1.0776
  11
0.9263
  21
1.0776
  12
0.8792
  22
1.0226
  13
0.9263
  23
1.0226
  0
SOLID
  8
Top_Paste
  10
2.7416
  20
0.1963
  11
2.7888
  21
0.1963
  12
2.7416
  22
0.1412
  13
2.7888
  23
0.1412
  0
SOLID
  8
Top_Paste
  10
2.6668
  20
0.1963
  11
2.714
  21
0.1963
  12
2.6668
  22
0.1412
  13
2.714
  23
0.1412
  0
SOLID
  8
Top_Paste
  10
2.5041
  20
0.1963
  11
2.5513
  21
0.1963
  12
2.5041
  22
0.1412
  13
2.5513
  23
0.1412
  0
SOLID
  8
Top_Paste
  10
2.5789
  20
0.1963
  11
2.6261
  21
0.1963
  12
2.5789
  22
0.1412
  13
2.6261
  23
0.1412
  0
SOLID
  8
Top_Paste
  10
2.694
  20
0.4611
  11
2.749
  21
0.4611
  12
2.694
  22
0.414
  13
2.749
  23
0.414
  0
SOLID
  8
Top_Paste
  10
2.694
  20
0.3863
  11
2.749
  21
0.3863
  12
2.694
  22
0.3392
  13
2.749
  23
0.3392
  0
POLYLINE
  8
Top_Paste
  6
CONTINUOUS
  66
1
  70
0
  40
0.0039
  41
0.0039
  0
VERTEX
  8
Top_Paste
  10
2.4712
  20
0.6688
  42
1
  0
VERTEX
  8
Top_Paste
  10
2.4751
  20
0.6688
  42
1
  0
VERTEX
  8
Top_Paste
  10
2.4712
  20
0.6688
  42
1
  0
SEQEND
  0
POLYLINE
  8
Top_Paste
  6
CONTINUOUS
  66
1
  70
0
  40
0.0039
  41
0.0039
  0
VERTEX
  8
Top_Paste
  10
2.4928
  20
0.6688
  42
1
  0
VERTEX
  8
Top_Paste
  10
2.4967
  20
0.6688
  42
1
  0
VERTEX
  8
Top_Paste
  10
2.4928
  20
0.6688
  42
1
  0
SEQEND
  0
SOLID
  8
Top_Paste
  10
2.4731
  20
0.6727
  11
2.4948
  21
0.6727
  12
2.4731
  22
0.6649
  13
2.4948
  23
0.6649
  0
POLYLINE
  8
Top_Paste
  6
CONTINUOUS
  66
1
  70
0
  40
0.0039
  41
0.0039
  0
VERTEX
  8
Top_Paste
  10
2.4712
  20
0.6491
  42
1
  0
VERTEX
  8
Top_Paste
  10
2.4751
  20
0.6491
  42
1
  0
VERTEX
  8
Top_Paste
  10
2.4712
  20
0.6491
  42
1
  0
SEQEND
  0
POLYLINE
  8
Top_Paste
  6
CONTINUOUS
  66
1
  70
0
  40
0.0039
  41
0.0039
  0
VERTEX
  8
Top_Paste
  10
2.4928
  20
0.6491
  42
1
  0
VERTEX
  8
Top_Paste
  10
2.4967
  20
0.6491
  42
1
  0
VERTEX
  8
Top_Paste
  10
2.4928
  20
0.6491
  42
1
  0
SEQEND
  0
SOLID
  8
Top_Paste
  10
2.4731
  20
0.653
  11
2.4948
  21
0.653
  12
2.4731
  22
0.6452
  13
2.4948
  23
0.6452
  0
POLYLINE
  8
Top_Paste
  6
CONTINUOUS
  66
1
  70
0
  40
0.0039
  41
0.0039
  0
VERTEX
  8
Top_Paste
  10
2.4712
  20
0.6295
  42
1
  0
VERTEX
  8
Top_Paste
  10
2.4751
  20
0.6295
  42
1
  0
VERTEX
  8
Top_Paste
  10
2.4712
  20
0.6295
  42
1
  0
SEQEND
  0
POLYLINE
  8
Top_Paste
  6
CONTINUOUS
  66
1
  70
0
  40
0.0039
  41
0.0039
  0
VERTEX
  8
Top_Paste
  10
2.4928
  20
0.6295
  42
1
  0
VERTEX
  8
Top_Paste
  10
2.4967
  20
0.6295
  42
1
  0
VERTEX
  8
Top_Paste
  10
2.4928
  20
0.6295
  42
1
  0
SEQEND
  0
SOLID
  8
Top_Paste
  10
2.4731
  20
0.6334
  11
2.4948
  21
0.6334
  12
2.4731
  22
0.6255
  13
2.4948
  23
0.6255
  0
POLYLINE
  8
Top_Paste
  6
CONTINUOUS
  66
1
  70
0
  40
0.0039
  41
0.0039
  0
VERTEX
  8
Top_Paste
  10
2.4712
  20
0.6098
  42
1
  0
VERTEX
  8
Top_Paste
  10
2.4751
  20
0.6098
  42
1
  0
VERTEX
  8
Top_Paste
  10
2.4712
  20
0.6098
  42
1
  0
SEQEND
  0
POLYLINE
  8
Top_Paste
  6
CONTINUOUS
  66
1
  70
0
  40
0.0039
  41
0.0039
  0
VERTEX
  8
Top_Paste
  10
2.4928
  20
0.6098
  42
1
  0
VERTEX
  8
Top_Paste
  10
2.4967
  20
0.6098
  42
1
  0
VERTEX
  8
Top_Paste
  10
2.4928
  20
0.6098
  42
1
  0
SEQEND
  0
SOLID
  8
Top_Paste
  10
2.4731
  20
0.6137
  11
2.4948
  21
0.6137
  12
2.4731
  22
0.6059
  13
2.4948
  23
0.6059
  0
POLYLINE
  8
Top_Paste
  6
CONTINUOUS
  66
1
  70
0
  40
0.0039
  41
0.0039
  0
VERTEX
  8
Top_Paste
  10
2.4712
  20
0.5901
  42
1
  0
VERTEX
  8
Top_Paste
  10
2.4751
  20
0.5901
  42
1
  0
VERTEX
  8
Top_Paste
  10
2.4712
  20
0.5901
  42
1
  0
SEQEND
  0
POLYLINE
  8
Top_Paste
  6
CONTINUOUS
  66
1
  70
0
  40
0.0039
  41
0.0039
  0
VERTEX
  8
Top_Paste
  10
2.4928
  20
0.5901
  42
1
  0
VERTEX
  8
Top_Paste
  10
2.4967
  20
0.5901
  42
1
  0
VERTEX
  8
Top_Paste
  10
2.4928
  20
0.5901
  42
1
  0
SEQEND
  0
SOLID
  8
Top_Paste
  10
2.4731
  20
0.594
  11
2.4948
  21
0.594
  12
2.4731
  22
0.5862
  13
2.4948
  23
0.5862
  0
POLYLINE
  8
Top_Paste
  6
CONTINUOUS
  66
1
  70
0
  40
0.0039
  41
0.0039
  0
VERTEX
  8
Top_Paste
  10
2.4712
  20
0.5704
  42
1
  0
VERTEX
  8
Top_Paste
  10
2.4751
  20
0.5704
  42
1
  0
VERTEX
  8
Top_Paste
  10
2.4712
  20
0.5704
  42
1
  0
SEQEND
  0
POLYLINE
  8
Top_Paste
  6
CONTINUOUS
  66
1
  70
0
  40
0.0039
  41
0.0039
  0
VERTEX
  8
Top_Paste
  10
2.4928
  20
0.5704
  42
1
  0
VERTEX
  8
Top_Paste
  10
2.4967
  20
0.5704
  42
1
  0
VERTEX
  8
Top_Paste
  10
2.4928
  20
0.5704
  42
1
  0
SEQEND
  0
SOLID
  8
Top_Paste
  10
2.4731
  20
0.5743
  11
2.4948
  21
0.5743
  12
2.4731
  22
0.5665
  13
2.4948
  23
0.5665
  0
POLYLINE
  8
Top_Paste
  6
CONTINUOUS
  66
1
  70
0
  40
0.0039
  41
0.0039
  0
VERTEX
  8
Top_Paste
  10
2.5115
  20
0.5517
  42
1
  0
VERTEX
  8
Top_Paste
  10
2.5154
  20
0.5517
  42
1
  0
VERTEX
  8
Top_Paste
  10
2.5115
  20
0.5517
  42
1
  0
SEQEND
  0
POLYLINE
  8
Top_Paste
  6
CONTINUOUS
  66
1
  70
0
  40
0.0039
  41
0.0039
  0
VERTEX
  8
Top_Paste
  10
2.5115
  20
0.53
  42
1
  0
VERTEX
  8
Top_Paste
  10
2.5154
  20
0.53
  42
1
  0
VERTEX
  8
Top_Paste
  10
2.5115
  20
0.53
  42
1
  0
SEQEND
  0
SOLID
  8
Top_Paste
  10
2.5096
  20
0.5517
  11
2.5174
  21
0.5517
  12
2.5096
  22
0.53
  13
2.5174
  23
0.53
  0
POLYLINE
  8
Top_Paste
  6
CONTINUOUS
  66
1
  70
0
  40
0.0039
  41
0.0039
  0
VERTEX
  8
Top_Paste
  10
2.5312
  20
0.5517
  42
1
  0
VERTEX
  8
Top_Paste
  10
2.5351
  20
0.5517
  42
1
  0
VERTEX
  8
Top_Paste
  10
2.5312
  20
0.5517
  42
1
  0
SEQEND
  0
POLYLINE
  8
Top_Paste
  6
CONTINUOUS
  66
1
  70
0
  40
0.0039
  41
0.0039
  0
VERTEX
  8
Top_Paste
  10
2.5312
  20
0.53
  42
1
  0
VERTEX
  8
Top_Paste
  10
2.5351
  20
0.53
  42
1
  0
VERTEX
  8
Top_Paste
  10
2.5312
  20
0.53
  42
1
  0
SEQEND
  0
SOLID
  8
Top_Paste
  10
2.5293
  20
0.5517
  11
2.5371
  21
0.5517
  12
2.5293
  22
0.53
  13
2.5371
  23
0.53
  0
POLYLINE
  8
Top_Paste
  6
CONTINUOUS
  66
1
  70
0
  40
0.0039
  41
0.0039
  0
VERTEX
  8
Top_Paste
  10
2.5509
  20
0.5517
  42
1
  0
VERTEX
  8
Top_Paste
  10
2.5548
  20
0.5517
  42
1
  0
VERTEX
  8
Top_Paste
  10
2.5509
  20
0.5517
  42
1
  0
SEQEND
  0
POLYLINE
  8
Top_Paste
  6
CONTINUOUS
  66
1
  70
0
  40
0.0039
  41
0.0039
  0
VERTEX
  8
Top_Paste
  10
2.5509
  20
0.53
  42
1
  0
VERTEX
  8
Top_Paste
  10
2.5548
  20
0.53
  42
1
  0
VERTEX
  8
Top_Paste
  10
2.5509
  20
0.53
  42
1
  0
SEQEND
  0
SOLID
  8
Top_Paste
  10
2.5489
  20
0.5517
  11
2.5568
  21
0.5517
  12
2.5489
  22
0.53
  13
2.5568
  23
0.53
  0
POLYLINE
  8
Top_Paste
  6
CONTINUOUS
  66
1
  70
0
  40
0.0039
  41
0.0039
  0
VERTEX
  8
Top_Paste
  10
2.5706
  20
0.5517
  42
1
  0
VERTEX
  8
Top_Paste
  10
2.5745
  20
0.5517
  42
1
  0
VERTEX
  8
Top_Paste
  10
2.5706
  20
0.5517
  42
1
  0
SEQEND
  0
POLYLINE
  8
Top_Paste
  6
CONTINUOUS
  66
1
  70
0
  40
0.0039
  41
0.0039
  0
VERTEX
  8
Top_Paste
  10
2.5706
  20
0.53
  42
1
  0
VERTEX
  8
Top_Paste
  10
2.5745
  20
0.53
  42
1
  0
VERTEX
  8
Top_Paste
  10
2.5706
  20
0.53
  42
1
  0
SEQEND
  0
SOLID
  8
Top_Paste
  10
2.5686
  20
0.5517
  11
2.5764
  21
0.5517
  12
2.5686
  22
0.53
  13
2.5764
  23
0.53
  0
POLYLINE
  8
Top_Paste
  6
CONTINUOUS
  66
1
  70
0
  40
0.0039
  41
0.0039
  0
VERTEX
  8
Top_Paste
  10
2.5903
  20
0.5517
  42
1
  0
VERTEX
  8
Top_Paste
  10
2.5942
  20
0.5517
  42
1
  0
VERTEX
  8
Top_Paste
  10
2.5903
  20
0.5517
  42
1
  0
SEQEND
  0
POLYLINE
  8
Top_Paste
  6
CONTINUOUS
  66
1
  70
0
  40
0.0039
  41
0.0039
  0
VERTEX
  8
Top_Paste
  10
2.5903
  20
0.53
  42
1
  0
VERTEX
  8
Top_Paste
  10
2.5942
  20
0.53
  42
1
  0
VERTEX
  8
Top_Paste
  10
2.5903
  20
0.53
  42
1
  0
SEQEND
  0
SOLID
  8
Top_Paste
  10
2.5883
  20
0.5517
  11
2.5961
  21
0.5517
  12
2.5883
  22
0.53
  13
2.5961
  23
0.53
  0
POLYLINE
  8
Top_Paste
  6
CONTINUOUS
  66
1
  70
0
  40
0.0039
  41
0.0039
  0
VERTEX
  8
Top_Paste
  10
2.61
  20
0.5517
  42
1
  0
VERTEX
  8
Top_Paste
  10
2.6139
  20
0.5517
  42
1
  0
VERTEX
  8
Top_Paste
  10
2.61
  20
0.5517
  42
1
  0
SEQEND
  0
POLYLINE
  8
Top_Paste
  6
CONTINUOUS
  66
1
  70
0
  40
0.0039
  41
0.0039
  0
VERTEX
  8
Top_Paste
  10
2.61
  20
0.53
  42
1
  0
VERTEX
  8
Top_Paste
  10
2.6139
  20
0.53
  42
1
  0
VERTEX
  8
Top_Paste
  10
2.61
  20
0.53
  42
1
  0
SEQEND
  0
SOLID
  8
Top_Paste
  10
2.608
  20
0.5517
  11
2.6158
  21
0.5517
  12
2.608
  22
0.53
  13
2.6158
  23
0.53
  0
POLYLINE
  8
Top_Paste
  6
CONTINUOUS
  66
1
  70
0
  40
0.0039
  41
0.0039
  0
VERTEX
  8
Top_Paste
  10
2.6287
  20
0.5704
  42
1
  0
VERTEX
  8
Top_Paste
  10
2.6326
  20
0.5704
  42
1
  0
VERTEX
  8
Top_Paste
  10
2.6287
  20
0.5704
  42
1
  0
SEQEND
  0
POLYLINE
  8
Top_Paste
  6
CONTINUOUS
  66
1
  70
0
  40
0.0039
  41
0.0039
  0
VERTEX
  8
Top_Paste
  10
2.6503
  20
0.5704
  42
1
  0
VERTEX
  8
Top_Paste
  10
2.6542
  20
0.5704
  42
1
  0
VERTEX
  8
Top_Paste
  10
2.6503
  20
0.5704
  42
1
  0
SEQEND
  0
SOLID
  8
Top_Paste
  10
2.6306
  20
0.5743
  11
2.6523
  21
0.5743
  12
2.6306
  22
0.5665
  13
2.6523
  23
0.5665
  0
POLYLINE
  8
Top_Paste
  6
CONTINUOUS
  66
1
  70
0
  40
0.0039
  41
0.0039
  0
VERTEX
  8
Top_Paste
  10
2.6287
  20
0.5901
  42
1
  0
VERTEX
  8
Top_Paste
  10
2.6326
  20
0.5901
  42
1
  0
VERTEX
  8
Top_Paste
  10
2.6287
  20
0.5901
  42
1
  0
SEQEND
  0
POLYLINE
  8
Top_Paste
  6
CONTINUOUS
  66
1
  70
0
  40
0.0039
  41
0.0039
  0
VERTEX
  8
Top_Paste
  10
2.6503
  20
0.5901
  42
1
  0
VERTEX
  8
Top_Paste
  10
2.6542
  20
0.5901
  42
1
  0
VERTEX
  8
Top_Paste
  10
2.6503
  20
0.5901
  42
1
  0
SEQEND
  0
SOLID
  8
Top_Paste
  10
2.6306
  20
0.594
  11
2.6523
  21
0.594
  12
2.6306
  22
0.5862
  13
2.6523
  23
0.5862
  0
POLYLINE
  8
Top_Paste
  6
CONTINUOUS
  66
1
  70
0
  40
0.0039
  41
0.0039
  0
VERTEX
  8
Top_Paste
  10
2.6287
  20
0.6098
  42
1
  0
VERTEX
  8
Top_Paste
  10
2.6326
  20
0.6098
  42
1
  0
VERTEX
  8
Top_Paste
  10
2.6287
  20
0.6098
  42
1
  0
SEQEND
  0
POLYLINE
  8
Top_Paste
  6
CONTINUOUS
  66
1
  70
0
  40
0.0039
  41
0.0039
  0
VERTEX
  8
Top_Paste
  10
2.6503
  20
0.6098
  42
1
  0
VERTEX
  8
Top_Paste
  10
2.6542
  20
0.6098
  42
1
  0
VERTEX
  8
Top_Paste
  10
2.6503
  20
0.6098
  42
1
  0
SEQEND
  0
SOLID
  8
Top_Paste
  10
2.6306
  20
0.6137
  11
2.6523
  21
0.6137
  12
2.6306
  22
0.6059
  13
2.6523
  23
0.6059
  0
POLYLINE
  8
Top_Paste
  6
CONTINUOUS
  66
1
  70
0
  40
0.0039
  41
0.0039
  0
VERTEX
  8
Top_Paste
  10
2.6287
  20
0.6295
  42
1
  0
VERTEX
  8
Top_Paste
  10
2.6326
  20
0.6295
  42
1
  0
VERTEX
  8
Top_Paste
  10
2.6287
  20
0.6295
  42
1
  0
SEQEND
  0
POLYLINE
  8
Top_Paste
  6
CONTINUOUS
  66
1
  70
0
  40
0.0039
  41
0.0039
  0
VERTEX
  8
Top_Paste
  10
2.6503
  20
0.6295
  42
1
  0
VERTEX
  8
Top_Paste
  10
2.6542
  20
0.6295
  42
1
  0
VERTEX
  8
Top_Paste
  10
2.6503
  20
0.6295
  42
1
  0
SEQEND
  0
SOLID
  8
Top_Paste
  10
2.6306
  20
0.6334
  11
2.6523
  21
0.6334
  12
2.6306
  22
0.6255
  13
2.6523
  23
0.6255
  0
POLYLINE
  8
Top_Paste
  6
CONTINUOUS
  66
1
  70
0
  40
0.0039
  41
0.0039
  0
VERTEX
  8
Top_Paste
  10
2.6287
  20
0.6491
  42
1
  0
VERTEX
  8
Top_Paste
  10
2.6326
  20
0.6491
  42
1
  0
VERTEX
  8
Top_Paste
  10
2.6287
  20
0.6491
  42
1
  0
SEQEND
  0
POLYLINE
  8
Top_Paste
  6
CONTINUOUS
  66
1
  70
0
  40
0.0039
  41
0.0039
  0
VERTEX
  8
Top_Paste
  10
2.6503
  20
0.6491
  42
1
  0
VERTEX
  8
Top_Paste
  10
2.6542
  20
0.6491
  42
1
  0
VERTEX
  8
Top_Paste
  10
2.6503
  20
0.6491
  42
1
  0
SEQEND
  0
SOLID
  8
Top_Paste
  10
2.6306
  20
0.653
  11
2.6523
  21
0.653
  12
2.6306
  22
0.6452
  13
2.6523
  23
0.6452
  0
POLYLINE
  8
Top_Paste
  6
CONTINUOUS
  66
1
  70
0
  40
0.0039
  41
0.0039
  0
VERTEX
  8
Top_Paste
  10
2.6287
  20
0.6688
  42
1
  0
VERTEX
  8
Top_Paste
  10
2.6326
  20
0.6688
  42
1
  0
VERTEX
  8
Top_Paste
  10
2.6287
  20
0.6688
  42
1
  0
SEQEND
  0
POLYLINE
  8
Top_Paste
  6
CONTINUOUS
  66
1
  70
0
  40
0.0039
  41
0.0039
  0
VERTEX
  8
Top_Paste
  10
2.6503
  20
0.6688
  42
1
  0
VERTEX
  8
Top_Paste
  10
2.6542
  20
0.6688
  42
1
  0
VERTEX
  8
Top_Paste
  10
2.6503
  20
0.6688
  42
1
  0
SEQEND
  0
SOLID
  8
Top_Paste
  10
2.6306
  20
0.6727
  11
2.6523
  21
0.6727
  12
2.6306
  22
0.6649
  13
2.6523
  23
0.6649
  0
POLYLINE
  8
Top_Paste
  6
CONTINUOUS
  66
1
  70
0
  40
0.0039
  41
0.0039
  0
VERTEX
  8
Top_Paste
  10
2.61
  20
0.7092
  42
1
  0
VERTEX
  8
Top_Paste
  10
2.6139
  20
0.7092
  42
1
  0
VERTEX
  8
Top_Paste
  10
2.61
  20
0.7092
  42
1
  0
SEQEND
  0
POLYLINE
  8
Top_Paste
  6
CONTINUOUS
  66
1
  70
0
  40
0.0039
  41
0.0039
  0
VERTEX
  8
Top_Paste
  10
2.61
  20
0.6875
  42
1
  0
VERTEX
  8
Top_Paste
  10
2.6139
  20
0.6875
  42
1
  0
VERTEX
  8
Top_Paste
  10
2.61
  20
0.6875
  42
1
  0
SEQEND
  0
SOLID
  8
Top_Paste
  10
2.608
  20
0.7092
  11
2.6158
  21
0.7092
  12
2.608
  22
0.6875
  13
2.6158
  23
0.6875
  0
POLYLINE
  8
Top_Paste
  6
CONTINUOUS
  66
1
  70
0
  40
0.0039
  41
0.0039
  0
VERTEX
  8
Top_Paste
  10
2.5903
  20
0.7092
  42
1
  0
VERTEX
  8
Top_Paste
  10
2.5942
  20
0.7092
  42
1
  0
VERTEX
  8
Top_Paste
  10
2.5903
  20
0.7092
  42
1
  0
SEQEND
  0
POLYLINE
  8
Top_Paste
  6
CONTINUOUS
  66
1
  70
0
  40
0.0039
  41
0.0039
  0
VERTEX
  8
Top_Paste
  10
2.5903
  20
0.6875
  42
1
  0
VERTEX
  8
Top_Paste
  10
2.5942
  20
0.6875
  42
1
  0
VERTEX
  8
Top_Paste
  10
2.5903
  20
0.6875
  42
1
  0
SEQEND
  0
SOLID
  8
Top_Paste
  10
2.5883
  20
0.7092
  11
2.5961
  21
0.7092
  12
2.5883
  22
0.6875
  13
2.5961
  23
0.6875
  0
POLYLINE
  8
Top_Paste
  6
CONTINUOUS
  66
1
  70
0
  40
0.0039
  41
0.0039
  0
VERTEX
  8
Top_Paste
  10
2.5706
  20
0.7092
  42
1
  0
VERTEX
  8
Top_Paste
  10
2.5745
  20
0.7092
  42
1
  0
VERTEX
  8
Top_Paste
  10
2.5706
  20
0.7092
  42
1
  0
SEQEND
  0
POLYLINE
  8
Top_Paste
  6
CONTINUOUS
  66
1
  70
0
  40
0.0039
  41
0.0039
  0
VERTEX
  8
Top_Paste
  10
2.5706
  20
0.6875
  42
1
  0
VERTEX
  8
Top_Paste
  10
2.5745
  20
0.6875
  42
1
  0
VERTEX
  8
Top_Paste
  10
2.5706
  20
0.6875
  42
1
  0
SEQEND
  0
SOLID
  8
Top_Paste
  10
2.5686
  20
0.7092
  11
2.5764
  21
0.7092
  12
2.5686
  22
0.6875
  13
2.5764
  23
0.6875
  0
POLYLINE
  8
Top_Paste
  6
CONTINUOUS
  66
1
  70
0
  40
0.0039
  41
0.0039
  0
VERTEX
  8
Top_Paste
  10
2.5509
  20
0.7092
  42
1
  0
VERTEX
  8
Top_Paste
  10
2.5548
  20
0.7092
  42
1
  0
VERTEX
  8
Top_Paste
  10
2.5509
  20
0.7092
  42
1
  0
SEQEND
  0
POLYLINE
  8
Top_Paste
  6
CONTINUOUS
  66
1
  70
0
  40
0.0039
  41
0.0039
  0
VERTEX
  8
Top_Paste
  10
2.5509
  20
0.6875
  42
1
  0
VERTEX
  8
Top_Paste
  10
2.5548
  20
0.6875
  42
1
  0
VERTEX
  8
Top_Paste
  10
2.5509
  20
0.6875
  42
1
  0
SEQEND
  0
SOLID
  8
Top_Paste
  10
2.5489
  20
0.7092
  11
2.5568
  21
0.7092
  12
2.5489
  22
0.6875
  13
2.5568
  23
0.6875
  0
POLYLINE
  8
Top_Paste
  6
CONTINUOUS
  66
1
  70
0
  40
0.0039
  41
0.0039
  0
VERTEX
  8
Top_Paste
  10
2.5312
  20
0.7092
  42
1
  0
VERTEX
  8
Top_Paste
  10
2.5351
  20
0.7092
  42
1
  0
VERTEX
  8
Top_Paste
  10
2.5312
  20
0.7092
  42
1
  0
SEQEND
  0
POLYLINE
  8
Top_Paste
  6
CONTINUOUS
  66
1
  70
0
  40
0.0039
  41
0.0039
  0
VERTEX
  8
Top_Paste
  10
2.5312
  20
0.6875
  42
1
  0
VERTEX
  8
Top_Paste
  10
2.5351
  20
0.6875
  42
1
  0
VERTEX
  8
Top_Paste
  10
2.5312
  20
0.6875
  42
1
  0
SEQEND
  0
SOLID
  8
Top_Paste
  10
2.5293
  20
0.7092
  11
2.5371
  21
0.7092
  12
2.5293
  22
0.6875
  13
2.5371
  23
0.6875
  0
POLYLINE
  8
Top_Paste
  6
CONTINUOUS
  66
1
  70
0
  40
0.0039
  41
0.0039
  0
VERTEX
  8
Top_Paste
  10
2.5115
  20
0.7092
  42
1
  0
VERTEX
  8
Top_Paste
  10
2.5154
  20
0.7092
  42
1
  0
VERTEX
  8
Top_Paste
  10
2.5115
  20
0.7092
  42
1
  0
SEQEND
  0
POLYLINE
  8
Top_Paste
  6
CONTINUOUS
  66
1
  70
0
  40
0.0039
  41
0.0039
  0
VERTEX
  8
Top_Paste
  10
2.5115
  20
0.6875
  42
1
  0
VERTEX
  8
Top_Paste
  10
2.5154
  20
0.6875
  42
1
  0
VERTEX
  8
Top_Paste
  10
2.5115
  20
0.6875
  42
1
  0
SEQEND
  0
SOLID
  8
Top_Paste
  10
2.5096
  20
0.7092
  11
2.5174
  21
0.7092
  12
2.5096
  22
0.6875
  13
2.5174
  23
0.6875
  0
SOLID
  8
Top_Paste
  10
2.5115
  20
0.6708
  11
2.6138
  21
0.6708
  12
2.5115
  22
0.5685
  13
2.6138
  23
0.5685
  0
SOLID
  8
Top_Paste
  10
2.3808
  20
0.1985
  11
2.4182
  21
0.1985
  12
2.3808
  22
0.1769
  13
2.4182
  23
0.1769
  0
SOLID
  8
Top_Paste
  10
2.3808
  20
0.2733
  11
2.4182
  21
0.2733
  12
2.3808
  22
0.2517
  13
2.4182
  23
0.2517
  0
SOLID
  8
Top_Paste
  10
2.2903
  20
0.2359
  11
2.3276
  21
0.2359
  12
2.2903
  22
0.2143
  13
2.3276
  23
0.2143
  0
SOLID
  8
Top_Paste
  10
1.3813
  20
1.4596
  11
1.4364
  21
1.4596
  12
1.3813
  22
1.4282
  13
1.4364
  23
1.4282
  0
SOLID
  8
Top_Paste
  10
1.3813
  20
1.4096
  11
1.4364
  21
1.4096
  12
1.3813
  22
1.3782
  13
1.4364
  23
1.3782
  0
SOLID
  8
Top_Paste
  10
1.3813
  20
1.3596
  11
1.4364
  21
1.3596
  12
1.3813
  22
1.3282
  13
1.4364
  23
1.3282
  0
SOLID
  8
Top_Paste
  10
1.3813
  20
1.3096
  11
1.4364
  21
1.3096
  12
1.3813
  22
1.2782
  13
1.4364
  23
1.2782
  0
SOLID
  8
Top_Paste
  10
1.3813
  20
1.2596
  11
1.4364
  21
1.2596
  12
1.3813
  22
1.2282
  13
1.4364
  23
1.2282
  0
SOLID
  8
Top_Paste
  10
1.3813
  20
1.2096
  11
1.4364
  21
1.2096
  12
1.3813
  22
1.1782
  13
1.4364
  23
1.1782
  0
SOLID
  8
Top_Paste
  10
1.3813
  20
1.1596
  11
1.4364
  21
1.1596
  12
1.3813
  22
1.1282
  13
1.4364
  23
1.1282
  0
SOLID
  8
Top_Paste
  10
1.3813
  20
1.1096
  11
1.4364
  21
1.1096
  12
1.3813
  22
1.0782
  13
1.4364
  23
1.0782
  0
SOLID
  8
Top_Paste
  10
1.3813
  20
1.0596
  11
1.4364
  21
1.0596
  12
1.3813
  22
1.0282
  13
1.4364
  23
1.0282
  0
SOLID
  8
Top_Paste
  10
1.3813
  20
1.0096
  11
1.4364
  21
1.0096
  12
1.3813
  22
0.9782
  13
1.4364
  23
0.9782
  0
SOLID
  8
Top_Paste
  10
1.3813
  20
0.9596
  11
1.4364
  21
0.9596
  12
1.3813
  22
0.9282
  13
1.4364
  23
0.9282
  0
SOLID
  8
Top_Paste
  10
1.3813
  20
0.9096
  11
1.4364
  21
0.9096
  12
1.3813
  22
0.8782
  13
1.4364
  23
0.8782
  0
SOLID
  8
Top_Paste
  10
1.3813
  20
0.8596
  11
1.4364
  21
0.8596
  12
1.3813
  22
0.8282
  13
1.4364
  23
0.8282
  0
SOLID
  8
Top_Paste
  10
1.3813
  20
0.8096
  11
1.4364
  21
0.8096
  12
1.3813
  22
0.7782
  13
1.4364
  23
0.7782
  0
SOLID
  8
Top_Paste
  10
1.3812
  20
0.7594
  11
1.4362
  21
0.7594
  12
1.3812
  22
0.728
  13
1.4362
  23
0.728
  0
SOLID
  8
Top_Paste
  10
1.3812
  20
0.7094
  11
1.4362
  21
0.7094
  12
1.3812
  22
0.678
  13
1.4362
  23
0.678
  0
SOLID
  8
Top_Paste
  10
1.3812
  20
0.6594
  11
1.4362
  21
0.6594
  12
1.3812
  22
0.628
  13
1.4362
  23
0.628
  0
SOLID
  8
Top_Paste
  10
1.3812
  20
0.6094
  11
1.4362
  21
0.6094
  12
1.3812
  22
0.578
  13
1.4362
  23
0.578
  0
SOLID
  8
Top_Paste
  10
1.3812
  20
0.5594
  11
1.4362
  21
0.5594
  12
1.3812
  22
0.528
  13
1.4362
  23
0.528
  0
SOLID
  8
Top_Paste
  10
2.1112
  20
0.5594
  11
2.1662
  21
0.5594
  12
2.1112
  22
0.528
  13
2.1662
  23
0.528
  0
SOLID
  8
Top_Paste
  10
2.1112
  20
0.6094
  11
2.1662
  21
0.6094
  12
2.1112
  22
0.578
  13
2.1662
  23
0.578
  0
SOLID
  8
Top_Paste
  10
2.1112
  20
0.6594
  11
2.1662
  21
0.6594
  12
2.1112
  22
0.628
  13
2.1662
  23
0.628
  0
SOLID
  8
Top_Paste
  10
2.1112
  20
0.7094
  11
2.1662
  21
0.7094
  12
2.1112
  22
0.678
  13
2.1662
  23
0.678
  0
SOLID
  8
Top_Paste
  10
2.1112
  20
0.7594
  11
2.1662
  21
0.7594
  12
2.1112
  22
0.728
  13
2.1662
  23
0.728
  0
SOLID
  8
Top_Paste
  10
2.1111
  20
0.8093
  11
2.1662
  21
0.8093
  12
2.1111
  22
0.7778
  13
2.1662
  23
0.7778
  0
SOLID
  8
Top_Paste
  10
2.1111
  20
0.8593
  11
2.1662
  21
0.8593
  12
2.1111
  22
0.8278
  13
2.1662
  23
0.8278
  0
SOLID
  8
Top_Paste
  10
2.1111
  20
0.9093
  11
2.1662
  21
0.9093
  12
2.1111
  22
0.8778
  13
2.1662
  23
0.8778
  0
SOLID
  8
Top_Paste
  10
2.1111
  20
0.9593
  11
2.1662
  21
0.9593
  12
2.1111
  22
0.9278
  13
2.1662
  23
0.9278
  0
SOLID
  8
Top_Paste
  10
2.1111
  20
1.0093
  11
2.1662
  21
1.0093
  12
2.1111
  22
0.9778
  13
2.1662
  23
0.9778
  0
SOLID
  8
Top_Paste
  10
2.1111
  20
1.0593
  11
2.1662
  21
1.0593
  12
2.1111
  22
1.0278
  13
2.1662
  23
1.0278
  0
SOLID
  8
Top_Paste
  10
2.1111
  20
1.1093
  11
2.1662
  21
1.1093
  12
2.1111
  22
1.0778
  13
2.1662
  23
1.0778
  0
SOLID
  8
Top_Paste
  10
2.1111
  20
1.1593
  11
2.1662
  21
1.1593
  12
2.1111
  22
1.1278
  13
2.1662
  23
1.1278
  0
SOLID
  8
Top_Paste
  10
2.1111
  20
1.2093
  11
2.1662
  21
1.2093
  12
2.1111
  22
1.1778
  13
2.1662
  23
1.1778
  0
SOLID
  8
Top_Paste
  10
2.1111
  20
1.2593
  11
2.1662
  21
1.2593
  12
2.1111
  22
1.2278
  13
2.1662
  23
1.2278
  0
SOLID
  8
Top_Paste
  10
2.1111
  20
1.3093
  11
2.1662
  21
1.3093
  12
2.1111
  22
1.2778
  13
2.1662
  23
1.2778
  0
SOLID
  8
Top_Paste
  10
2.1111
  20
1.3593
  11
2.1662
  21
1.3593
  12
2.1111
  22
1.3278
  13
2.1662
  23
1.3278
  0
SOLID
  8
Top_Paste
  10
2.1111
  20
1.4093
  11
2.1662
  21
1.4093
  12
2.1111
  22
1.3778
  13
2.1662
  23
1.3778
  0
SOLID
  8
Top_Paste
  10
2.1111
  20
1.4593
  11
2.1662
  21
1.4593
  12
2.1111
  22
1.4278
  13
2.1662
  23
1.4278
  0
SOLID
  8
Top_Paste
  10
2.5166
  20
0.2838
  11
2.5638
  21
0.2838
  12
2.5166
  22
0.2287
  13
2.5638
  23
0.2287
  0
SOLID
  8
Top_Paste
  10
2.5914
  20
0.2838
  11
2.6386
  21
0.2838
  12
2.5914
  22
0.2287
  13
2.6386
  23
0.2287
  0
SOLID
  8
Top_Paste
  10
2.2642
  20
0.5781
  11
2.3162
  21
0.5781
  12
2.2642
  22
0.5221
  13
2.3162
  23
0.5221
  0
SOLID
  8
Top_Paste
  10
2.2642
  20
0.6681
  11
2.3162
  21
0.6681
  12
2.2642
  22
0.6121
  13
2.3162
  23
0.6121
  0
SOLID
  8
Top_Paste
  10
2.3392
  20
0.5781
  11
2.3912
  21
0.5781
  12
2.3392
  22
0.5221
  13
2.3912
  23
0.5221
  0
SOLID
  8
Top_Paste
  10
2.3392
  20
0.6681
  11
2.3912
  21
0.6681
  12
2.3392
  22
0.6121
  13
2.3912
  23
0.6121
  0
SOLID
  8
Top_Paste
  10
2.3808
  20
0.3485
  11
2.4182
  21
0.3485
  12
2.3808
  22
0.3269
  13
2.4182
  23
0.3269
  0
SOLID
  8
Top_Paste
  10
2.3808
  20
0.4233
  11
2.4182
  21
0.4233
  12
2.3808
  22
0.4017
  13
2.4182
  23
0.4017
  0
SOLID
  8
Top_Paste
  10
2.2903
  20
0.3859
  11
2.3276
  21
0.3859
  12
2.2903
  22
0.3643
  13
2.3276
  23
0.3643
  0
SOLID
  8
Top_Paste
  10
0.7187
  20
3.1552
  11
0.7738
  21
3.1552
  12
0.7187
  22
3.108
  13
0.7738
  23
3.108
  0
SOLID
  8
Top_Paste
  10
0.7187
  20
3.23
  11
0.7738
  21
3.23
  12
0.7187
  22
3.1828
  13
0.7738
  23
3.1828
  0
SOLID
  8
Top_Paste
  10
0.773
  20
3.4628
  11
0.7946
  21
3.4628
  12
0.773
  22
3.4254
  13
0.7946
  23
3.4254
  0
SOLID
  8
Top_Paste
  10
0.8478
  20
3.4628
  11
0.8694
  21
3.4628
  12
0.8478
  22
3.4254
  13
0.8694
  23
3.4254
  0
SOLID
  8
Top_Paste
  10
0.8104
  20
3.5533
  11
0.832
  21
3.5533
  12
0.8104
  22
3.516
  13
0.832
  23
3.516
  0
SOLID
  8
Top_Paste
  10
0.6167
  20
3.3565
  11
0.6383
  21
3.3565
  12
0.6167
  22
3.3192
  13
0.6383
  23
3.3192
  0
SOLID
  8
Top_Paste
  10
0.6915
  20
3.3565
  11
0.7131
  21
3.3565
  12
0.6915
  22
3.3192
  13
0.7131
  23
3.3192
  0
SOLID
  8
Top_Paste
  10
0.6541
  20
3.4471
  11
0.6757
  21
3.4471
  12
0.6541
  22
3.4097
  13
0.6757
  23
3.4097
  0
SOLID
  8
Top_Paste
  10
0.7664
  20
3.3529
  11
0.8136
  21
3.3529
  12
0.7664
  22
3.2978
  13
0.8136
  23
3.2978
  0
SOLID
  8
Top_Paste
  10
0.8412
  20
3.3529
  11
0.8884
  21
3.3529
  12
0.8412
  22
3.2978
  13
0.8884
  23
3.2978
  0
SOLID
  8
Top_Paste
  10
0.6375
  20
3.1552
  11
0.6925
  21
3.1552
  12
0.6375
  22
3.108
  13
0.6925
  23
3.108
  0
SOLID
  8
Top_Paste
  10
0.6375
  20
3.23
  11
0.6925
  21
3.23
  12
0.6375
  22
3.1828
  13
0.6925
  23
3.1828
  0
SOLID
  8
Top_Paste
  10
0.8063
  20
3.1552
  11
0.8613
  21
3.1552
  12
0.8063
  22
3.108
  13
0.8613
  23
3.108
  0
SOLID
  8
Top_Paste
  10
0.8063
  20
3.23
  11
0.8613
  21
3.23
  12
0.8063
  22
3.1828
  13
0.8613
  23
3.1828
  0
SOLID
  8
Top_Paste
  10
0.55
  20
3.1552
  11
0.605
  21
3.1552
  12
0.55
  22
3.108
  13
0.605
  23
3.108
  0
SOLID
  8
Top_Paste
  10
0.55
  20
3.23
  11
0.605
  21
3.23
  12
0.55
  22
3.1828
  13
0.605
  23
3.1828
  0
SOLID
  8
Top_Paste
  10
0.6164
  20
3.5341
  11
0.6636
  21
3.5341
  12
0.6164
  22
3.4791
  13
0.6636
  23
3.4791
  0
SOLID
  8
Top_Paste
  10
0.6912
  20
3.5341
  11
0.7384
  21
3.5341
  12
0.6912
  22
3.4791
  13
0.7384
  23
3.4791
  0
SOLID
  8
Top_Paste
  10
1.0938
  20
3.1552
  11
1.1488
  21
3.1552
  12
1.0938
  22
3.108
  13
1.1488
  23
3.108
  0
SOLID
  8
Top_Paste
  10
1.0938
  20
3.23
  11
1.1488
  21
3.23
  12
1.0938
  22
3.1828
  13
1.1488
  23
3.1828
  0
SOLID
  8
Top_Paste
  10
1.1293
  20
3.4628
  11
1.1509
  21
3.4628
  12
1.1293
  22
3.4254
  13
1.1509
  23
3.4254
  0
SOLID
  8
Top_Paste
  10
1.2041
  20
3.4628
  11
1.2257
  21
3.4628
  12
1.2041
  22
3.4254
  13
1.2257
  23
3.4254
  0
SOLID
  8
Top_Paste
  10
1.1667
  20
3.5533
  11
1.1883
  21
3.5533
  12
1.1667
  22
3.516
  13
1.1883
  23
3.516
  0
SOLID
  8
Top_Paste
  10
0.9855
  20
3.3565
  11
1.0071
  21
3.3565
  12
0.9855
  22
3.3192
  13
1.0071
  23
3.3192
  0
SOLID
  8
Top_Paste
  10
1.0603
  20
3.3565
  11
1.0819
  21
3.3565
  12
1.0603
  22
3.3192
  13
1.0819
  23
3.3192
  0
SOLID
  8
Top_Paste
  10
1.0229
  20
3.4471
  11
1.0445
  21
3.4471
  12
1.0229
  22
3.4097
  13
1.0445
  23
3.4097
  0
SOLID
  8
Top_Paste
  10
1.1227
  20
3.3529
  11
1.1699
  21
3.3529
  12
1.1227
  22
3.2978
  13
1.1699
  23
3.2978
  0
SOLID
  8
Top_Paste
  10
1.1975
  20
3.3529
  11
1.2447
  21
3.3529
  12
1.1975
  22
3.2978
  13
1.2447
  23
3.2978
  0
SOLID
  8
Top_Paste
  10
1.0063
  20
3.1552
  11
1.0613
  21
3.1552
  12
1.0063
  22
3.108
  13
1.0613
  23
3.108
  0
SOLID
  8
Top_Paste
  10
1.0063
  20
3.23
  11
1.0613
  21
3.23
  12
1.0063
  22
3.1828
  13
1.0613
  23
3.1828
  0
SOLID
  8
Top_Paste
  10
1.1813
  20
3.1552
  11
1.2364
  21
3.1552
  12
1.1813
  22
3.108
  13
1.2364
  23
3.108
  0
SOLID
  8
Top_Paste
  10
1.1813
  20
3.23
  11
1.2364
  21
3.23
  12
1.1813
  22
3.1828
  13
1.2364
  23
3.1828
  0
SOLID
  8
Top_Paste
  10
0.9188
  20
3.1552
  11
0.9738
  21
3.1552
  12
0.9188
  22
3.108
  13
0.9738
  23
3.108
  0
SOLID
  8
Top_Paste
  10
0.9188
  20
3.23
  11
0.9738
  21
3.23
  12
0.9188
  22
3.1828
  13
0.9738
  23
3.1828
  0
SOLID
  8
Top_Paste
  10
0.979
  20
3.5341
  11
1.0261
  21
3.5341
  12
0.979
  22
3.4791
  13
1.0261
  23
3.4791
  0
SOLID
  8
Top_Paste
  10
1.0538
  20
3.5341
  11
1.1009
  21
3.5341
  12
1.0538
  22
3.4791
  13
1.1009
  23
3.4791
  0
SOLID
  8
Top_Paste
  10
1.4501
  20
3.1552
  11
1.5051
  21
3.1552
  12
1.4501
  22
3.108
  13
1.5051
  23
3.108
  0
SOLID
  8
Top_Paste
  10
1.4501
  20
3.23
  11
1.5051
  21
3.23
  12
1.4501
  22
3.1828
  13
1.5051
  23
3.1828
  0
SOLID
  8
Top_Paste
  10
1.4856
  20
3.4628
  11
1.5071
  21
3.4628
  12
1.4856
  22
3.4254
  13
1.5071
  23
3.4254
  0
SOLID
  8
Top_Paste
  10
1.5604
  20
3.4628
  11
1.582
  21
3.4628
  12
1.5604
  22
3.4254
  13
1.582
  23
3.4254
  0
SOLID
  8
Top_Paste
  10
1.523
  20
3.5533
  11
1.5445
  21
3.5533
  12
1.523
  22
3.516
  13
1.5445
  23
3.516
  0
SOLID
  8
Top_Paste
  10
1.3355
  20
3.3565
  11
1.3571
  21
3.3565
  12
1.3355
  22
3.3192
  13
1.3571
  23
3.3192
  0
SOLID
  8
Top_Paste
  10
1.4103
  20
3.3565
  11
1.4319
  21
3.3565
  12
1.4103
  22
3.3192
  13
1.4319
  23
3.3192
  0
SOLID
  8
Top_Paste
  10
1.3729
  20
3.4471
  11
1.3945
  21
3.4471
  12
1.3729
  22
3.4097
  13
1.3945
  23
3.4097
  0
SOLID
  8
Top_Paste
  10
1.479
  20
3.3529
  11
1.5262
  21
3.3529
  12
1.479
  22
3.2978
  13
1.5262
  23
3.2978
  0
SOLID
  8
Top_Paste
  10
1.5538
  20
3.3529
  11
1.601
  21
3.3529
  12
1.5538
  22
3.2978
  13
1.601
  23
3.2978
  0
SOLID
  8
Top_Paste
  10
1.3626
  20
3.1552
  11
1.4176
  21
3.1552
  12
1.3626
  22
3.108
  13
1.4176
  23
3.108
  0
SOLID
  8
Top_Paste
  10
1.3626
  20
3.23
  11
1.4176
  21
3.23
  12
1.3626
  22
3.1828
  13
1.4176
  23
3.1828
  0
SOLID
  8
Top_Paste
  10
1.5376
  20
3.1552
  11
1.5926
  21
3.1552
  12
1.5376
  22
3.108
  13
1.5926
  23
3.108
  0
SOLID
  8
Top_Paste
  10
1.5376
  20
3.23
  11
1.5926
  21
3.23
  12
1.5376
  22
3.1828
  13
1.5926
  23
3.1828
  0
SOLID
  8
Top_Paste
  10
1.2813
  20
3.1552
  11
1.3364
  21
3.1552
  12
1.2813
  22
3.108
  13
1.3364
  23
3.108
  0
SOLID
  8
Top_Paste
  10
1.2813
  20
3.23
  11
1.3364
  21
3.23
  12
1.2813
  22
3.1828
  13
1.3364
  23
3.1828
  0
SOLID
  8
Top_Paste
  10
1.3352
  20
3.5341
  11
1.3824
  21
3.5341
  12
1.3352
  22
3.4791
  13
1.3824
  23
3.4791
  0
SOLID
  8
Top_Paste
  10
1.4101
  20
3.5341
  11
1.4572
  21
3.5341
  12
1.4101
  22
3.4791
  13
1.4572
  23
3.4791
  0
SOLID
  8
Top_Paste
  10
1.8001
  20
3.1552
  11
1.8552
  21
3.1552
  12
1.8001
  22
3.108
  13
1.8552
  23
3.108
  0
SOLID
  8
Top_Paste
  10
1.8001
  20
3.23
  11
1.8552
  21
3.23
  12
1.8001
  22
3.1828
  13
1.8552
  23
3.1828
  0
SOLID
  8
Top_Paste
  10
1.8418
  20
3.4628
  11
1.8634
  21
3.4628
  12
1.8418
  22
3.4254
  13
1.8634
  23
3.4254
  0
SOLID
  8
Top_Paste
  10
1.9166
  20
3.4628
  11
1.9382
  21
3.4628
  12
1.9166
  22
3.4254
  13
1.9382
  23
3.4254
  0
SOLID
  8
Top_Paste
  10
1.8792
  20
3.5533
  11
1.9008
  21
3.5533
  12
1.8792
  22
3.516
  13
1.9008
  23
3.516
  0
SOLID
  8
Top_Paste
  10
1.6918
  20
3.3565
  11
1.7134
  21
3.3565
  12
1.6918
  22
3.3192
  13
1.7134
  23
3.3192
  0
SOLID
  8
Top_Paste
  10
1.7666
  20
3.3565
  11
1.7882
  21
3.3565
  12
1.7666
  22
3.3192
  13
1.7882
  23
3.3192
  0
SOLID
  8
Top_Paste
  10
1.7292
  20
3.4471
  11
1.7508
  21
3.4471
  12
1.7292
  22
3.4097
  13
1.7508
  23
3.4097
  0
SOLID
  8
Top_Paste
  10
1.8353
  20
3.3529
  11
1.8825
  21
3.3529
  12
1.8353
  22
3.2978
  13
1.8825
  23
3.2978
  0
SOLID
  8
Top_Paste
  10
1.9101
  20
3.3529
  11
1.9573
  21
3.3529
  12
1.9101
  22
3.2978
  13
1.9573
  23
3.2978
  0
SOLID
  8
Top_Paste
  10
1.7189
  20
3.1552
  11
1.7739
  21
3.1552
  12
1.7189
  22
3.108
  13
1.7739
  23
3.108
  0
SOLID
  8
Top_Paste
  10
1.7189
  20
3.23
  11
1.7739
  21
3.23
  12
1.7189
  22
3.1828
  13
1.7739
  23
3.1828
  0
SOLID
  8
Top_Paste
  10
1.8814
  20
3.1552
  11
1.9364
  21
3.1552
  12
1.8814
  22
3.108
  13
1.9364
  23
3.108
  0
SOLID
  8
Top_Paste
  10
1.8814
  20
3.23
  11
1.9364
  21
3.23
  12
1.8814
  22
3.1828
  13
1.9364
  23
3.1828
  0
SOLID
  8
Top_Paste
  10
1.6376
  20
3.1552
  11
1.6926
  21
3.1552
  12
1.6376
  22
3.108
  13
1.6926
  23
3.108
  0
SOLID
  8
Top_Paste
  10
1.6376
  20
3.23
  11
1.6926
  21
3.23
  12
1.6376
  22
3.1828
  13
1.6926
  23
3.1828
  0
SOLID
  8
Top_Paste
  10
1.6915
  20
3.5341
  11
1.7387
  21
3.5341
  12
1.6915
  22
3.4791
  13
1.7387
  23
3.4791
  0
SOLID
  8
Top_Paste
  10
1.7663
  20
3.5341
  11
1.8135
  21
3.5341
  12
1.7663
  22
3.4791
  13
1.8135
  23
3.4791
  0
SOLID
  8
Top_Paste
  10
2.1564
  20
3.1552
  11
2.2115
  21
3.1552
  12
2.1564
  22
3.108
  13
2.2115
  23
3.108
  0
SOLID
  8
Top_Paste
  10
2.1564
  20
3.23
  11
2.2115
  21
3.23
  12
2.1564
  22
3.1828
  13
2.2115
  23
3.1828
  0
SOLID
  8
Top_Paste
  10
2.1981
  20
3.4628
  11
2.2197
  21
3.4628
  12
2.1981
  22
3.4254
  13
2.2197
  23
3.4254
  0
SOLID
  8
Top_Paste
  10
2.2729
  20
3.4628
  11
2.2945
  21
3.4628
  12
2.2729
  22
3.4254
  13
2.2945
  23
3.4254
  0
SOLID
  8
Top_Paste
  10
2.2355
  20
3.5533
  11
2.2571
  21
3.5533
  12
2.2355
  22
3.516
  13
2.2571
  23
3.516
  0
SOLID
  8
Top_Paste
  10
2.0481
  20
3.3565
  11
2.0697
  21
3.3565
  12
2.0481
  22
3.3192
  13
2.0697
  23
3.3192
  0
SOLID
  8
Top_Paste
  10
2.1229
  20
3.3565
  11
2.1445
  21
3.3565
  12
2.1229
  22
3.3192
  13
2.1445
  23
3.3192
  0
SOLID
  8
Top_Paste
  10
2.0855
  20
3.4471
  11
2.1071
  21
3.4471
  12
2.0855
  22
3.4097
  13
2.1071
  23
3.4097
  0
SOLID
  8
Top_Paste
  10
2.1916
  20
3.3529
  11
2.2388
  21
3.3529
  12
2.1916
  22
3.2978
  13
2.2388
  23
3.2978
  0
SOLID
  8
Top_Paste
  10
2.2664
  20
3.3529
  11
2.3136
  21
3.3529
  12
2.2664
  22
3.2978
  13
2.3136
  23
3.2978
  0
SOLID
  8
Top_Paste
  10
2.0689
  20
3.1552
  11
2.1239
  21
3.1552
  12
2.0689
  22
3.108
  13
2.1239
  23
3.108
  0
SOLID
  8
Top_Paste
  10
2.0689
  20
3.23
  11
2.1239
  21
3.23
  12
2.0689
  22
3.1828
  13
2.1239
  23
3.1828
  0
SOLID
  8
Top_Paste
  10
2.2439
  20
3.1552
  11
2.299
  21
3.1552
  12
2.2439
  22
3.108
  13
2.299
  23
3.108
  0
SOLID
  8
Top_Paste
  10
2.2439
  20
3.23
  11
2.299
  21
3.23
  12
2.2439
  22
3.1828
  13
2.299
  23
3.1828
  0
SOLID
  8
Top_Paste
  10
1.9876
  20
3.1552
  11
2.0427
  21
3.1552
  12
1.9876
  22
3.108
  13
2.0427
  23
3.108
  0
SOLID
  8
Top_Paste
  10
1.9876
  20
3.23
  11
2.0427
  21
3.23
  12
1.9876
  22
3.1828
  13
2.0427
  23
3.1828
  0
SOLID
  8
Top_Paste
  10
2.0478
  20
3.5341
  11
2.095
  21
3.5341
  12
2.0478
  22
3.4791
  13
2.095
  23
3.4791
  0
SOLID
  8
Top_Paste
  10
2.1226
  20
3.5341
  11
2.1698
  21
3.5341
  12
2.1226
  22
3.4791
  13
2.1698
  23
3.4791
  0
SOLID
  8
Top_Paste
  10
2.5252
  20
3.1552
  11
2.5802
  21
3.1552
  12
2.5252
  22
3.108
  13
2.5802
  23
3.108
  0
SOLID
  8
Top_Paste
  10
2.5252
  20
3.23
  11
2.5802
  21
3.23
  12
2.5252
  22
3.1828
  13
2.5802
  23
3.1828
  0
SOLID
  8
Top_Paste
  10
2.5544
  20
3.4628
  11
2.576
  21
3.4628
  12
2.5544
  22
3.4254
  13
2.576
  23
3.4254
  0
SOLID
  8
Top_Paste
  10
2.6292
  20
3.4628
  11
2.6508
  21
3.4628
  12
2.6292
  22
3.4254
  13
2.6508
  23
3.4254
  0
SOLID
  8
Top_Paste
  10
2.5918
  20
3.5533
  11
2.6134
  21
3.5533
  12
2.5918
  22
3.516
  13
2.6134
  23
3.516
  0
SOLID
  8
Top_Paste
  10
2.4044
  20
3.3565
  11
2.426
  21
3.3565
  12
2.4044
  22
3.3192
  13
2.426
  23
3.3192
  0
SOLID
  8
Top_Paste
  10
2.4792
  20
3.3565
  11
2.5008
  21
3.3565
  12
2.4792
  22
3.3192
  13
2.5008
  23
3.3192
  0
SOLID
  8
Top_Paste
  10
2.4418
  20
3.4471
  11
2.4634
  21
3.4471
  12
2.4418
  22
3.4097
  13
2.4634
  23
3.4097
  0
SOLID
  8
Top_Paste
  10
2.5479
  20
3.3529
  11
2.5951
  21
3.3529
  12
2.5479
  22
3.2978
  13
2.5951
  23
3.2978
  0
SOLID
  8
Top_Paste
  10
2.6227
  20
3.3529
  11
2.6699
  21
3.3529
  12
2.6227
  22
3.2978
  13
2.6699
  23
3.2978
  0
SOLID
  8
Top_Paste
  10
2.4377
  20
3.1552
  11
2.4927
  21
3.1552
  12
2.4377
  22
3.108
  13
2.4927
  23
3.108
  0
SOLID
  8
Top_Paste
  10
2.4377
  20
3.23
  11
2.4927
  21
3.23
  12
2.4377
  22
3.1828
  13
2.4927
  23
3.1828
  0
SOLID
  8
Top_Paste
  10
2.6127
  20
3.1552
  11
2.6678
  21
3.1552
  12
2.6127
  22
3.108
  13
2.6678
  23
3.108
  0
SOLID
  8
Top_Paste
  10
2.6127
  20
3.23
  11
2.6678
  21
3.23
  12
2.6127
  22
3.1828
  13
2.6678
  23
3.1828
  0
SOLID
  8
Top_Paste
  10
2.3502
  20
3.1552
  11
2.4052
  21
3.1552
  12
2.3502
  22
3.108
  13
2.4052
  23
3.108
  0
SOLID
  8
Top_Paste
  10
2.3502
  20
3.23
  11
2.4052
  21
3.23
  12
2.3502
  22
3.1828
  13
2.4052
  23
3.1828
  0
SOLID
  8
Top_Paste
  10
2.4041
  20
3.5341
  11
2.4513
  21
3.5341
  12
2.4041
  22
3.4791
  13
2.4513
  23
3.4791
  0
SOLID
  8
Top_Paste
  10
2.4789
  20
3.5341
  11
2.5261
  21
3.5341
  12
2.4789
  22
3.4791
  13
2.5261
  23
3.4791
  0
SOLID
  8
Top_Paste
  10
2.8752
  20
3.1552
  11
2.9303
  21
3.1552
  12
2.8752
  22
3.108
  13
2.9303
  23
3.108
  0
SOLID
  8
Top_Paste
  10
2.8752
  20
3.23
  11
2.9303
  21
3.23
  12
2.8752
  22
3.1828
  13
2.9303
  23
3.1828
  0
SOLID
  8
Top_Paste
  10
2.9107
  20
3.4628
  11
2.9323
  21
3.4628
  12
2.9107
  22
3.4254
  13
2.9323
  23
3.4254
  0
SOLID
  8
Top_Paste
  10
2.9855
  20
3.4628
  11
3.0071
  21
3.4628
  12
2.9855
  22
3.4254
  13
3.0071
  23
3.4254
  0
SOLID
  8
Top_Paste
  10
2.9481
  20
3.5533
  11
2.9697
  21
3.5533
  12
2.9481
  22
3.516
  13
2.9697
  23
3.516
  0
SOLID
  8
Top_Paste
  10
2.7607
  20
3.3565
  11
2.7823
  21
3.3565
  12
2.7607
  22
3.3192
  13
2.7823
  23
3.3192
  0
SOLID
  8
Top_Paste
  10
2.8355
  20
3.3565
  11
2.8571
  21
3.3565
  12
2.8355
  22
3.3192
  13
2.8571
  23
3.3192
  0
SOLID
  8
Top_Paste
  10
2.7981
  20
3.4471
  11
2.8197
  21
3.4471
  12
2.7981
  22
3.4097
  13
2.8197
  23
3.4097
  0
SOLID
  8
Top_Paste
  10
2.9042
  20
3.3529
  11
2.9513
  21
3.3529
  12
2.9042
  22
3.2978
  13
2.9513
  23
3.2978
  0
SOLID
  8
Top_Paste
  10
2.979
  20
3.3529
  11
3.0261
  21
3.3529
  12
2.979
  22
3.2978
  13
3.0261
  23
3.2978
  0
SOLID
  8
Top_Paste
  10
2.794
  20
3.1552
  11
2.849
  21
3.1552
  12
2.794
  22
3.108
  13
2.849
  23
3.108
  0
SOLID
  8
Top_Paste
  10
2.794
  20
3.23
  11
2.849
  21
3.23
  12
2.794
  22
3.1828
  13
2.849
  23
3.1828
  0
SOLID
  8
Top_Paste
  10
2.9627
  20
3.1552
  11
3.0178
  21
3.1552
  12
2.9627
  22
3.108
  13
3.0178
  23
3.108
  0
SOLID
  8
Top_Paste
  10
2.9627
  20
3.23
  11
3.0178
  21
3.23
  12
2.9627
  22
3.1828
  13
3.0178
  23
3.1828
  0
SOLID
  8
Top_Paste
  10
2.7065
  20
3.1552
  11
2.7615
  21
3.1552
  12
2.7065
  22
3.108
  13
2.7615
  23
3.108
  0
SOLID
  8
Top_Paste
  10
2.7065
  20
3.23
  11
2.7615
  21
3.23
  12
2.7065
  22
3.1828
  13
2.7615
  23
3.1828
  0
SOLID
  8
Top_Paste
  10
2.7604
  20
3.5341
  11
2.8076
  21
3.5341
  12
2.7604
  22
3.4791
  13
2.8076
  23
3.4791
  0
SOLID
  8
Top_Paste
  10
2.8352
  20
3.5341
  11
2.8824
  21
3.5341
  12
2.8352
  22
3.4791
  13
2.8824
  23
3.4791
  0
SOLID
  8
Top_Paste
  10
3.2315
  20
3.1552
  11
3.2866
  21
3.1552
  12
3.2315
  22
3.108
  13
3.2866
  23
3.108
  0
SOLID
  8
Top_Paste
  10
3.2315
  20
3.23
  11
3.2866
  21
3.23
  12
3.2315
  22
3.1828
  13
3.2866
  23
3.1828
  0
SOLID
  8
Top_Paste
  10
3.267
  20
3.4628
  11
3.2886
  21
3.4628
  12
3.267
  22
3.4254
  13
3.2886
  23
3.4254
  0
SOLID
  8
Top_Paste
  10
3.3418
  20
3.4628
  11
3.3634
  21
3.4628
  12
3.3418
  22
3.4254
  13
3.3634
  23
3.4254
  0
SOLID
  8
Top_Paste
  10
3.3044
  20
3.5533
  11
3.326
  21
3.5533
  12
3.3044
  22
3.516
  13
3.326
  23
3.516
  0
SOLID
  8
Top_Paste
  10
3.117
  20
3.3565
  11
3.1386
  21
3.3565
  12
3.117
  22
3.3192
  13
3.1386
  23
3.3192
  0
SOLID
  8
Top_Paste
  10
3.1918
  20
3.3565
  11
3.2134
  21
3.3565
  12
3.1918
  22
3.3192
  13
3.2134
  23
3.3192
  0
SOLID
  8
Top_Paste
  10
3.1544
  20
3.4471
  11
3.176
  21
3.4471
  12
3.1544
  22
3.4097
  13
3.176
  23
3.4097
  0
SOLID
  8
Top_Paste
  10
3.2605
  20
3.3529
  11
3.3076
  21
3.3529
  12
3.2605
  22
3.2978
  13
3.3076
  23
3.2978
  0
SOLID
  8
Top_Paste
  10
3.3353
  20
3.3529
  11
3.3824
  21
3.3529
  12
3.3353
  22
3.2978
  13
3.3824
  23
3.2978
  0
SOLID
  8
Top_Paste
  10
3.1378
  20
3.1552
  11
3.1928
  21
3.1552
  12
3.1378
  22
3.108
  13
3.1928
  23
3.108
  0
SOLID
  8
Top_Paste
  10
3.1378
  20
3.23
  11
3.1928
  21
3.23
  12
3.1378
  22
3.1828
  13
3.1928
  23
3.1828
  0
SOLID
  8
Top_Paste
  10
3.319
  20
3.1552
  11
3.3741
  21
3.1552
  12
3.319
  22
3.108
  13
3.3741
  23
3.108
  0
SOLID
  8
Top_Paste
  10
3.319
  20
3.23
  11
3.3741
  21
3.23
  12
3.319
  22
3.1828
  13
3.3741
  23
3.1828
  0
SOLID
  8
Top_Paste
  10
3.0502
  20
3.1552
  11
3.1053
  21
3.1552
  12
3.0502
  22
3.108
  13
3.1053
  23
3.108
  0
SOLID
  8
Top_Paste
  10
3.0502
  20
3.23
  11
3.1053
  21
3.23
  12
3.0502
  22
3.1828
  13
3.1053
  23
3.1828
  0
SOLID
  8
Top_Paste
  10
3.1167
  20
3.5341
  11
3.1639
  21
3.5341
  12
3.1167
  22
3.4791
  13
3.1639
  23
3.4791
  0
SOLID
  8
Top_Paste
  10
3.1915
  20
3.5341
  11
3.2387
  21
3.5341
  12
3.1915
  22
3.4791
  13
3.2387
  23
3.4791
  0
ENDSEC
  0
EOF
