M48
INCH
T01C0.01
T02C0.0315
T03C0.0354
T04C0.0394
T05C0.1181
%
T01
X+012564Y+013301
X+014627Y+013988
X+013939Y+015489
X+016377Y+016676
X+015375Y+018114
X+010876Y+016864
X+004813Y+016839
X+003875Y+016051
X+002938Y+020614
X+004625Y+021614
X+003563Y+008675
X+014627Y+012051
X+017880Y+012423
T02
X+003882Y+026552
X+004669Y+026552
X+005457Y+026552
X+006244Y+026552
T03
X+016377Y+026115
X+016377Y+025115
X+016377Y+024115
X+016377Y+023115
X+016377Y+022115
X+016377Y+021115
X+002938Y+014551
X+002938Y+013551
T04
X+005930Y+003050G85X+004946Y+003050
X+007288Y+003739G85X+007288Y+004723
X+006029Y+005412G85X+004848Y+005412
T00
M30
