G04 DipTrace 3.0.0.0*
G04 Bottom.gbr*
%MOIN*%
G04 #@! TF.FileFunction,Copper,L2,Bot*
G04 #@! TF.Part,Single*
%ADD11C,0.006*%
G04 #@! TA.AperFunction,Conductor*
%ADD14C,0.02*%
%ADD15C,0.03937*%
G04 #@! TA.AperFunction,CopperBalancing*
%ADD16C,0.025*%
G04 #@! TA.AperFunction,ComponentPad*
%ADD22R,0.055118X0.055118*%
%ADD23C,0.055118*%
%ADD26C,0.059055*%
%ADD29O,0.177165X0.07874*%
%ADD30O,0.19685X0.07874*%
%ADD31O,0.07874X0.177165*%
%ADD32R,0.059055X0.059055*%
%ADD33C,0.059055*%
G04 #@! TA.AperFunction,ViaPad*
%ADD37C,0.03*%
%FSLAX26Y26*%
G04*
G70*
G90*
G75*
G01*
G04 Bottom*
%LPD*%
X1256382Y1330085D2*
D14*
Y1517605D1*
X1087614Y1686373D1*
X1393896Y1548858D2*
Y1936399D1*
X1168873Y2161423D1*
X462549D1*
X545665Y2655224D2*
D15*
Y2550822D1*
X143765Y2148921D1*
Y1080059D1*
X356287Y867537D1*
X1462654Y1398843D2*
D14*
Y1286331D1*
Y1205072D1*
X1637672Y1667621D2*
Y1355088D1*
X1568915Y1286331D1*
X1462654D1*
X1537457Y1811386D2*
X1612669D1*
X1637672Y1786383D1*
Y1667621D1*
X293781Y2061412D2*
Y1698874D1*
X387541Y1605114D1*
X1637672Y2111470D2*
X1712627D1*
X1743933Y2080164D1*
Y1286331D1*
X1787957Y1242307D1*
X481301Y1683854D2*
Y2017657D1*
X368789Y2130169D1*
Y2298937D1*
X618815Y2548963D1*
Y2649634D1*
X624406Y2655224D1*
D37*
X1256382Y1330085D3*
X1087614Y1686373D3*
X1393896Y1548858D3*
X462549Y2161423D3*
X356287Y867537D3*
X1462654Y1398843D3*
Y1205072D3*
X1637672Y1667621D3*
X1537457Y1811386D3*
X1637672Y1667621D3*
X293781Y2061412D3*
X387541Y1605114D3*
X1787957Y1242307D3*
X481301Y1683854D3*
X300868Y2886634D2*
D16*
X1690399D1*
X297352Y2861765D2*
X948162D1*
X1020350D2*
X1697869D1*
X289149Y2836896D2*
X905780D1*
X1062733D2*
X1707830D1*
X277869Y2812028D2*
X885907D1*
X1082606D2*
X1717743D1*
X266541Y2787159D2*
X875164D1*
X1093299D2*
X1736248D1*
X245985Y2762290D2*
X870868D1*
X1097645D2*
X1754901D1*
X221131Y2737421D2*
X872235D1*
X1096278D2*
X1781707D1*
X195106Y2712552D2*
X879510D1*
X1089002D2*
X1809686D1*
X137049Y2687684D2*
X334637D1*
X441737D2*
X503729D1*
X666297D2*
X894110D1*
X1074403D2*
X1862323D1*
X46278Y2662815D2*
X334637D1*
X441737D2*
X492694D1*
X677381D2*
X921209D1*
X1047303D2*
X1621942D1*
X1653407D2*
X1922723D1*
X46278Y2637946D2*
X334637D1*
X441737D2*
X495135D1*
X674940D2*
X1589227D1*
X1686121D2*
X1922723D1*
X46278Y2613077D2*
X334637D1*
X441737D2*
X499969D1*
X655750D2*
X1582147D1*
X1693153D2*
X1922723D1*
X46278Y2588209D2*
X499969D1*
X654823D2*
X1587518D1*
X1687830D2*
X1922723D1*
X46278Y2563340D2*
X494598D1*
X654823D2*
X1612909D1*
X1662440D2*
X1922723D1*
X46278Y2538471D2*
X469744D1*
X653114D2*
X1589520D1*
X1685828D2*
X1922723D1*
X46278Y2513602D2*
X444891D1*
X633338D2*
X1582196D1*
X1693153D2*
X1922723D1*
X46278Y2488734D2*
X419989D1*
X608485D2*
X1587274D1*
X1688075D2*
X1922723D1*
X46278Y2463865D2*
X395135D1*
X583582D2*
X1611834D1*
X1663514D2*
X1922723D1*
X46278Y2438996D2*
X370282D1*
X558729D2*
X1589862D1*
X1685487D2*
X1922723D1*
X46278Y2414127D2*
X345379D1*
X533875D2*
X1582196D1*
X1693153D2*
X1922723D1*
X46278Y2389259D2*
X320526D1*
X508973D2*
X1587030D1*
X1688319D2*
X1922723D1*
X46278Y2364390D2*
X295672D1*
X484119D2*
X1610760D1*
X1664588D2*
X1922723D1*
X46278Y2339521D2*
X270770D1*
X459266D2*
X1590155D1*
X1685194D2*
X1922723D1*
X46278Y2314652D2*
X245916D1*
X434364D2*
X1582244D1*
X1693104D2*
X1922723D1*
X46278Y2289783D2*
X221063D1*
X409510D2*
X1586786D1*
X1688563D2*
X1922723D1*
X46278Y2264915D2*
X196209D1*
X323328D2*
X332791D1*
X404774D2*
X1609784D1*
X1665565D2*
X1922723D1*
X46278Y2240046D2*
X171307D1*
X298475D2*
X332782D1*
X404774D2*
X1590496D1*
X1684852D2*
X1922723D1*
X46278Y2215177D2*
X146453D1*
X273573D2*
X332782D1*
X404774D2*
X1582293D1*
X1693055D2*
X1922723D1*
X46278Y2190308D2*
X121600D1*
X248719D2*
X332782D1*
X404774D2*
X434588D1*
X1188319D2*
X1586541D1*
X1688807D2*
X1922723D1*
X46278Y2165440D2*
X101385D1*
X223866D2*
X332782D1*
X404774D2*
X421746D1*
X1214735D2*
X1608856D1*
X1666493D2*
X1922723D1*
X46278Y2140571D2*
X98065D1*
X198963D2*
X332782D1*
X408241D2*
X427703D1*
X1239588D2*
X1922723D1*
X46278Y2115702D2*
X98065D1*
X189442D2*
X336053D1*
X433143D2*
X1164715D1*
X1264491D2*
X1922723D1*
X46278Y2090833D2*
X98065D1*
X189442D2*
X266473D1*
X321131D2*
X358270D1*
X457996D2*
X1189569D1*
X1289344D2*
X1922723D1*
X46278Y2065965D2*
X98065D1*
X189442D2*
X253045D1*
X334510D2*
X383123D1*
X482850D2*
X1214471D1*
X1314198D2*
X1922723D1*
X46278Y2041096D2*
X98065D1*
X189442D2*
X257782D1*
X329774D2*
X407977D1*
X507752D2*
X1239325D1*
X1339100D2*
X1922723D1*
X46278Y2016227D2*
X98065D1*
X189442D2*
X257782D1*
X329774D2*
X432830D1*
X517323D2*
X1264178D1*
X1363953D2*
X1922723D1*
X46278Y1991358D2*
X98065D1*
X189442D2*
X257782D1*
X329774D2*
X445282D1*
X517323D2*
X1289080D1*
X1388807D2*
X1922723D1*
X46278Y1966489D2*
X98065D1*
X189442D2*
X257782D1*
X329774D2*
X445282D1*
X517323D2*
X1313934D1*
X1413661D2*
X1922723D1*
X46278Y1941621D2*
X98065D1*
X189442D2*
X257782D1*
X329774D2*
X445282D1*
X517323D2*
X1338787D1*
X1429481D2*
X1922723D1*
X46278Y1916752D2*
X98065D1*
X189442D2*
X257782D1*
X329774D2*
X445282D1*
X517323D2*
X1357879D1*
X1429920D2*
X1922723D1*
X46278Y1891883D2*
X98065D1*
X189442D2*
X257782D1*
X329774D2*
X445282D1*
X517323D2*
X1357879D1*
X1429920D2*
X1922723D1*
X46278Y1867014D2*
X98065D1*
X189442D2*
X257782D1*
X329774D2*
X445282D1*
X517323D2*
X1357879D1*
X1429920D2*
X1922723D1*
X46278Y1842146D2*
X98065D1*
X189442D2*
X257782D1*
X329774D2*
X445282D1*
X517323D2*
X1357879D1*
X1429920D2*
X1511786D1*
X1628455D2*
X1922723D1*
X46278Y1817277D2*
X98065D1*
X189442D2*
X257782D1*
X329774D2*
X445282D1*
X517323D2*
X1357879D1*
X1429920D2*
X1496893D1*
X1656678D2*
X1922723D1*
X46278Y1792408D2*
X98065D1*
X189442D2*
X257782D1*
X329774D2*
X445282D1*
X517323D2*
X1357879D1*
X1429920D2*
X1501483D1*
X1673133D2*
X1922723D1*
X46278Y1767539D2*
X98065D1*
X189442D2*
X257782D1*
X329774D2*
X445282D1*
X517323D2*
X1357879D1*
X1429920D2*
X1601678D1*
X1673670D2*
X1922723D1*
X46278Y1742671D2*
X98065D1*
X189442D2*
X257782D1*
X329774D2*
X445282D1*
X517323D2*
X1357879D1*
X1429920D2*
X1601678D1*
X1673670D2*
X1922723D1*
X46278Y1717802D2*
X98065D1*
X189442D2*
X257782D1*
X329774D2*
X445282D1*
X517323D2*
X1062860D1*
X1112342D2*
X1357879D1*
X1429920D2*
X1601678D1*
X1673670D2*
X1922723D1*
X46278Y1692933D2*
X98065D1*
X189442D2*
X258319D1*
X349598D2*
X441375D1*
X521229D2*
X1047186D1*
X1130946D2*
X1357879D1*
X1429920D2*
X1601678D1*
X1673670D2*
X1922723D1*
X46278Y1668064D2*
X98065D1*
X189442D2*
X274725D1*
X374452D2*
X443670D1*
X518934D2*
X1051239D1*
X1155799D2*
X1357879D1*
X1429920D2*
X1596698D1*
X1678651D2*
X1922723D1*
X46278Y1643196D2*
X98065D1*
X189442D2*
X299578D1*
X399354D2*
X1080926D1*
X1180653D2*
X1357879D1*
X1429920D2*
X1601678D1*
X1673670D2*
X1922723D1*
X46278Y1618327D2*
X98065D1*
X189442D2*
X324432D1*
X426209D2*
X1105780D1*
X1205555D2*
X1357879D1*
X1429920D2*
X1601678D1*
X1673670D2*
X1922723D1*
X46278Y1593458D2*
X98065D1*
X189442D2*
X348358D1*
X426746D2*
X1130633D1*
X1230409D2*
X1357879D1*
X1429920D2*
X1601678D1*
X1673670D2*
X1922723D1*
X46278Y1568589D2*
X98065D1*
X189442D2*
X372869D1*
X402235D2*
X1155536D1*
X1255262D2*
X1357879D1*
X1429920D2*
X1601678D1*
X1673670D2*
X1922723D1*
X46278Y1543720D2*
X98065D1*
X189442D2*
X1180389D1*
X1280164D2*
X1353241D1*
X1434559D2*
X1601678D1*
X1673670D2*
X1922723D1*
X46278Y1518852D2*
X98065D1*
X189442D2*
X1205243D1*
X1292371D2*
X1367254D1*
X1420496D2*
X1601678D1*
X1673670D2*
X1922723D1*
X46278Y1493983D2*
X98065D1*
X189442D2*
X238250D1*
X349305D2*
X1220379D1*
X1292371D2*
X1601678D1*
X1673670D2*
X1922723D1*
X46278Y1469114D2*
X98065D1*
X189442D2*
X238250D1*
X349305D2*
X1220379D1*
X1292371D2*
X1601678D1*
X1673670D2*
X1922723D1*
X46278Y1444245D2*
X98065D1*
X189442D2*
X238250D1*
X349305D2*
X1220379D1*
X1292371D2*
X1601678D1*
X1673670D2*
X1922723D1*
X46278Y1419377D2*
X98065D1*
X189442D2*
X238250D1*
X349305D2*
X1220379D1*
X1292371D2*
X1427606D1*
X1497743D2*
X1601678D1*
X1673670D2*
X1922723D1*
X46278Y1394508D2*
X98065D1*
X189442D2*
X1220379D1*
X1292371D2*
X1421893D1*
X1503407D2*
X1601678D1*
X1673670D2*
X1922723D1*
X46278Y1369639D2*
X98065D1*
X189442D2*
X1220379D1*
X1292371D2*
X1426629D1*
X1498670D2*
X1601678D1*
X1673670D2*
X1922723D1*
X46278Y1344770D2*
X98065D1*
X189442D2*
X1218280D1*
X1294471D2*
X1426629D1*
X1498670D2*
X1577459D1*
X1672059D2*
X1922723D1*
X46278Y1319902D2*
X98065D1*
X189442D2*
X1216766D1*
X1296034D2*
X1426629D1*
X1498670D2*
X1552606D1*
X1652381D2*
X1922723D1*
X46278Y1295033D2*
X98065D1*
X189442D2*
X1237957D1*
X1274793D2*
X1426629D1*
X1627479D2*
X1922723D1*
X46278Y1270164D2*
X98065D1*
X189442D2*
X1426629D1*
X1602625D2*
X1922723D1*
X46278Y1245295D2*
X98065D1*
X189442D2*
X1426629D1*
X1498670D2*
X1922723D1*
X46278Y1220427D2*
X98065D1*
X189442D2*
X1424871D1*
X1500477D2*
X1922723D1*
X46278Y1195558D2*
X98065D1*
X189442D2*
X1422869D1*
X1502479D2*
X1922723D1*
X46278Y1170689D2*
X98065D1*
X189442D2*
X1442840D1*
X1482459D2*
X1922723D1*
X46278Y1145820D2*
X98065D1*
X189442D2*
X1922723D1*
X46278Y1120951D2*
X98065D1*
X189442D2*
X1922723D1*
X46278Y1096083D2*
X98065D1*
X191297D2*
X1922723D1*
X46278Y1071214D2*
X98993D1*
X216200D2*
X1922723D1*
X46278Y1046345D2*
X113885D1*
X241053D2*
X1922723D1*
X46278Y1021476D2*
X138787D1*
X265907D2*
X1922723D1*
X46278Y996608D2*
X163641D1*
X290809D2*
X1922723D1*
X46278Y971739D2*
X188494D1*
X315662D2*
X1922723D1*
X46278Y946870D2*
X213397D1*
X340516D2*
X1922723D1*
X46278Y922001D2*
X238250D1*
X365418D2*
X1922723D1*
X46278Y897133D2*
X263104D1*
X390223D2*
X1922723D1*
X46278Y872264D2*
X288006D1*
X401698D2*
X1922723D1*
X46278Y847395D2*
X312860D1*
X397010D2*
X1922723D1*
X46278Y822526D2*
X1922723D1*
X46278Y797657D2*
X1922723D1*
X46278Y772789D2*
X1922723D1*
X46278Y747920D2*
X1922723D1*
X46278Y723051D2*
X1922723D1*
X46278Y698182D2*
X1922723D1*
X46278Y673314D2*
X1922723D1*
X46278Y648445D2*
X1922723D1*
X46278Y623576D2*
X1922723D1*
X46278Y598707D2*
X456854D1*
X630750D2*
X1922723D1*
X46278Y573839D2*
X428534D1*
X659119D2*
X1922723D1*
X46278Y548970D2*
X419842D1*
X667762D2*
X1922723D1*
X46278Y524101D2*
X421746D1*
X665858D2*
X690741D1*
X766981D2*
X1922723D1*
X46278Y499232D2*
X435418D1*
X652186D2*
X669549D1*
X788172D2*
X1922723D1*
X46278Y474364D2*
X663494D1*
X794178D2*
X1922723D1*
X46278Y449495D2*
X663494D1*
X794227D2*
X1922723D1*
X46278Y424626D2*
X663494D1*
X794227D2*
X1922723D1*
X46278Y399757D2*
X663494D1*
X794227D2*
X1922723D1*
X46278Y374888D2*
X663494D1*
X794227D2*
X1922723D1*
X46278Y350020D2*
X668182D1*
X789491D2*
X1922723D1*
X46278Y325151D2*
X686639D1*
X771082D2*
X1922723D1*
X46278Y300282D2*
X941327D1*
X1027186D2*
X1922723D1*
X89051Y275413D2*
X903241D1*
X1065223D2*
X1916815D1*
X145545Y250545D2*
X884539D1*
X1083973D2*
X1838299D1*
X182215Y225676D2*
X874481D1*
X1093983D2*
X1782000D1*
X209852Y200807D2*
X870770D1*
X1097743D2*
X1761639D1*
X234022Y175938D2*
X872674D1*
X1095838D2*
X1741327D1*
X245496Y151070D2*
X880584D1*
X1087928D2*
X1722528D1*
X256971Y126201D2*
X896063D1*
X1072450D2*
X1711493D1*
X268446Y101332D2*
X925116D1*
X1043397D2*
X1700457D1*
X274744Y76463D2*
X1695575D1*
X279676Y51594D2*
X1692498D1*
X349626Y2706283D2*
X439244D1*
Y2604165D1*
X337126D1*
Y2706283D1*
X349626D1*
X502487Y2628012D2*
X498493Y2635685D1*
X496017Y2643305D1*
X494764Y2651218D1*
Y2659230D1*
X496017Y2667144D1*
X498493Y2674764D1*
X502130Y2681903D1*
X506840Y2688385D1*
X512505Y2694050D1*
X518987Y2698759D1*
X526126Y2702397D1*
X533746Y2704873D1*
X541659Y2706126D1*
X549671D1*
X557585Y2704873D1*
X565205Y2702397D1*
X572344Y2698759D1*
X578826Y2694050D1*
X585024Y2687708D1*
X591245Y2694050D1*
X597727Y2698759D1*
X604866Y2702397D1*
X612486Y2704873D1*
X620399Y2706126D1*
X628412D1*
X636325Y2704873D1*
X643945Y2702397D1*
X651084Y2698759D1*
X657566Y2694050D1*
X663231Y2688385D1*
X667941Y2681903D1*
X671578Y2674764D1*
X674054Y2667144D1*
X675307Y2659230D1*
Y2651218D1*
X674054Y2643305D1*
X671578Y2635685D1*
X667941Y2628546D1*
X663231Y2622064D1*
X657566Y2616399D1*
X652321Y2612516D1*
X652212Y2546335D1*
X650675Y2538611D1*
X647378Y2531460D1*
X642496Y2525268D1*
X402301Y2285073D1*
X402289Y2144005D1*
X506774Y2039414D1*
X511149Y2032866D1*
X513875Y2025478D1*
X514800Y2017647D1*
X514801Y1702863D1*
X517916Y1695751D1*
X519327Y1689877D1*
X519801Y1683854D1*
X519327Y1677832D1*
X517916Y1671957D1*
X515604Y1666376D1*
X512448Y1661225D1*
X508524Y1656631D1*
X503930Y1652707D1*
X498779Y1649551D1*
X493198Y1647239D1*
X487323Y1645828D1*
X481301Y1645354D1*
X475278Y1645828D1*
X469403Y1647239D1*
X463822Y1649551D1*
X458671Y1652707D1*
X454077Y1656631D1*
X450153Y1661225D1*
X446997Y1666376D1*
X444685Y1671957D1*
X443275Y1677832D1*
X442801Y1683854D1*
X443275Y1689877D1*
X444685Y1695751D1*
X447799Y1702765D1*
X447801Y2003825D1*
X343315Y2108413D1*
X338940Y2114961D1*
X336214Y2122349D1*
X335289Y2130180D1*
Y2279339D1*
X186982Y2131066D1*
X186950Y1097994D1*
X389126Y895583D1*
X393109Y890101D1*
X396185Y884063D1*
X398279Y877618D1*
X399339Y870925D1*
Y864148D1*
X398279Y857455D1*
X396185Y851011D1*
X393109Y844973D1*
X389126Y839490D1*
X384334Y834699D1*
X378852Y830715D1*
X372814Y827639D1*
X366369Y825545D1*
X359676Y824485D1*
X352899D1*
X346206Y825545D1*
X339761Y827639D1*
X333723Y830715D1*
X328241Y834699D1*
X263879Y898872D1*
X110927Y1052013D1*
X106944Y1057495D1*
X103867Y1063533D1*
X101773Y1069978D1*
X100713Y1076671D1*
X100580Y1167559D1*
X100713Y2152310D1*
X101773Y2159003D1*
X103867Y2165447D1*
X106944Y2171485D1*
X110927Y2176968D1*
X175100Y2241330D1*
X502448Y2568677D1*
X502480Y2628019D1*
X1690536Y2607309D2*
X1689234Y2599091D1*
X1686663Y2591177D1*
X1682885Y2583763D1*
X1677994Y2577031D1*
X1672111Y2571147D1*
X1665379Y2566256D1*
X1657965Y2562479D1*
X1655294Y2561494D1*
X1661746Y2558718D1*
X1668841Y2554370D1*
X1675168Y2548966D1*
X1680572Y2542639D1*
X1684920Y2535544D1*
X1688104Y2527856D1*
X1690047Y2519765D1*
X1690699Y2511470D1*
X1690047Y2503174D1*
X1688104Y2495083D1*
X1684920Y2487396D1*
X1680572Y2480301D1*
X1675168Y2473974D1*
X1668841Y2468570D1*
X1661746Y2464222D1*
X1655294Y2461494D1*
X1661746Y2458718D1*
X1668841Y2454370D1*
X1675168Y2448966D1*
X1680572Y2442639D1*
X1684920Y2435544D1*
X1688104Y2427856D1*
X1690047Y2419765D1*
X1690699Y2411470D1*
X1690047Y2403174D1*
X1688104Y2395083D1*
X1684920Y2387396D1*
X1680572Y2380301D1*
X1675168Y2373974D1*
X1668841Y2368570D1*
X1661746Y2364222D1*
X1655294Y2361494D1*
X1661746Y2358718D1*
X1668841Y2354370D1*
X1675168Y2348966D1*
X1680572Y2342639D1*
X1684920Y2335544D1*
X1688104Y2327856D1*
X1690047Y2319765D1*
X1690699Y2311470D1*
X1690047Y2303174D1*
X1688104Y2295083D1*
X1684920Y2287396D1*
X1680572Y2280301D1*
X1675168Y2273974D1*
X1668841Y2268570D1*
X1661746Y2264222D1*
X1655294Y2261494D1*
X1661746Y2258718D1*
X1668841Y2254370D1*
X1675168Y2248966D1*
X1680572Y2242639D1*
X1684920Y2235544D1*
X1688104Y2227856D1*
X1690047Y2219765D1*
X1690699Y2211470D1*
X1690047Y2203174D1*
X1688104Y2195083D1*
X1684920Y2187396D1*
X1680572Y2180301D1*
X1675168Y2173974D1*
X1668841Y2168570D1*
X1661746Y2164222D1*
X1654058Y2161038D1*
X1645967Y2159095D1*
X1637672Y2158442D1*
X1629377Y2159095D1*
X1621285Y2161038D1*
X1613598Y2164222D1*
X1606503Y2168570D1*
X1600176Y2173974D1*
X1594772Y2180301D1*
X1590424Y2187396D1*
X1587240Y2195083D1*
X1585297Y2203174D1*
X1584644Y2211470D1*
X1585297Y2219765D1*
X1587240Y2227856D1*
X1590424Y2235544D1*
X1594772Y2242639D1*
X1600176Y2248966D1*
X1606503Y2254370D1*
X1613598Y2258718D1*
X1620050Y2261446D1*
X1613598Y2264222D1*
X1606503Y2268570D1*
X1600176Y2273974D1*
X1594772Y2280301D1*
X1590424Y2287396D1*
X1587240Y2295083D1*
X1585297Y2303174D1*
X1584644Y2311470D1*
X1585297Y2319765D1*
X1587240Y2327856D1*
X1590424Y2335544D1*
X1594772Y2342639D1*
X1600176Y2348966D1*
X1606503Y2354370D1*
X1613598Y2358718D1*
X1620050Y2361446D1*
X1613598Y2364222D1*
X1606503Y2368570D1*
X1600176Y2373974D1*
X1594772Y2380301D1*
X1590424Y2387396D1*
X1587240Y2395083D1*
X1585297Y2403174D1*
X1584644Y2411470D1*
X1585297Y2419765D1*
X1587240Y2427856D1*
X1590424Y2435544D1*
X1594772Y2442639D1*
X1600176Y2448966D1*
X1606503Y2454370D1*
X1613598Y2458718D1*
X1620050Y2461446D1*
X1613598Y2464222D1*
X1606503Y2468570D1*
X1600176Y2473974D1*
X1594772Y2480301D1*
X1590424Y2487396D1*
X1587240Y2495083D1*
X1585297Y2503174D1*
X1584644Y2511470D1*
X1585297Y2519765D1*
X1587240Y2527856D1*
X1590424Y2535544D1*
X1594772Y2542639D1*
X1600176Y2548966D1*
X1606503Y2554370D1*
X1613598Y2558718D1*
X1620050Y2561446D1*
X1613598Y2564222D1*
X1606503Y2568570D1*
X1600176Y2573974D1*
X1594772Y2580301D1*
X1590424Y2587396D1*
X1587240Y2595083D1*
X1585297Y2603174D1*
X1584644Y2611470D1*
X1585297Y2619765D1*
X1587240Y2627856D1*
X1590424Y2635544D1*
X1594772Y2642639D1*
X1600176Y2648966D1*
X1606503Y2654370D1*
X1613598Y2658718D1*
X1621285Y2661902D1*
X1629377Y2663845D1*
X1637672Y2664497D1*
X1645967Y2663845D1*
X1654058Y2661902D1*
X1661746Y2658718D1*
X1668841Y2654370D1*
X1675168Y2648966D1*
X1680572Y2642639D1*
X1684920Y2635544D1*
X1688104Y2627856D1*
X1690047Y2619765D1*
X1690699Y2611470D1*
X1690536Y2607309D1*
X484771Y478329D2*
X474917Y479102D1*
X465324Y481405D1*
X456210Y485181D1*
X447798Y490335D1*
X440296Y496742D1*
X433889Y504244D1*
X428734Y512656D1*
X424959Y521770D1*
X422656Y531363D1*
X421882Y541198D1*
X422656Y551033D1*
X424959Y560626D1*
X428734Y569741D1*
X433889Y578152D1*
X440296Y585654D1*
X447798Y592061D1*
X456210Y597216D1*
X465324Y600991D1*
X474917Y603294D1*
X484771Y604067D1*
X607795Y603874D1*
X617539Y602331D1*
X626922Y599283D1*
X635712Y594804D1*
X643693Y589005D1*
X650669Y582029D1*
X656468Y574048D1*
X660947Y565258D1*
X663995Y555875D1*
X665538Y546131D1*
Y536265D1*
X663995Y526521D1*
X660947Y517139D1*
X656468Y508349D1*
X650669Y500367D1*
X643693Y493391D1*
X635712Y487593D1*
X626922Y483114D1*
X617539Y480065D1*
X607795Y478522D1*
X565362Y478328D1*
X484752Y478377D1*
X665977Y472281D2*
X666750Y482136D1*
X669053Y491728D1*
X672829Y500843D1*
X677983Y509255D1*
X684391Y516756D1*
X691892Y523163D1*
X700304Y528318D1*
X709419Y532094D1*
X719011Y534397D1*
X728846Y535171D1*
X738682Y534397D1*
X748274Y532094D1*
X757389Y528318D1*
X765801Y523163D1*
X773302Y516756D1*
X779709Y509255D1*
X784864Y500843D1*
X788639Y491728D1*
X790943Y482136D1*
X791717Y472300D1*
X791523Y368943D1*
X789979Y359199D1*
X786931Y349816D1*
X782452Y341026D1*
X776653Y333044D1*
X769677Y326069D1*
X761696Y320270D1*
X752906Y315791D1*
X743523Y312742D1*
X733779Y311199D1*
X723914D1*
X714170Y312742D1*
X704787Y315791D1*
X695997Y320270D1*
X688016Y326069D1*
X681040Y333044D1*
X675241Y341026D1*
X670762Y349816D1*
X667713Y359199D1*
X666170Y368943D1*
X665976Y411375D1*
Y472172D1*
X253253Y1508126D2*
X346809D1*
Y1402071D1*
X240753D1*
Y1508126D1*
X253253D1*
X1094966Y188137D2*
X1093941Y179477D1*
X1092240Y170925D1*
X1089873Y162532D1*
X1086855Y154351D1*
X1083204Y146432D1*
X1078943Y138824D1*
X1074099Y131573D1*
X1068700Y124725D1*
X1062781Y118322D1*
X1056377Y112402D1*
X1049529Y107004D1*
X1042279Y102159D1*
X1034671Y97898D1*
X1026751Y94248D1*
X1018570Y91229D1*
X1010178Y88862D1*
X1001625Y87161D1*
X992965Y86136D1*
X984252Y85794D1*
X975539Y86136D1*
X966879Y87161D1*
X958326Y88862D1*
X949934Y91229D1*
X941753Y94248D1*
X933833Y97898D1*
X926225Y102159D1*
X918975Y107004D1*
X912127Y112402D1*
X905723Y118322D1*
X899804Y124725D1*
X894405Y131573D1*
X889561Y138824D1*
X885300Y146432D1*
X881649Y154351D1*
X878631Y162532D1*
X876264Y170925D1*
X874563Y179477D1*
X873538Y188137D1*
X873196Y196850D1*
X873538Y205564D1*
X874563Y214223D1*
X876264Y222776D1*
X878631Y231169D1*
X881649Y239350D1*
X885300Y247269D1*
X889561Y254877D1*
X894405Y262128D1*
X899804Y268976D1*
X905723Y275379D1*
X912127Y281298D1*
X918975Y286697D1*
X926225Y291542D1*
X933833Y295802D1*
X941753Y299453D1*
X949934Y302471D1*
X958326Y304838D1*
X966879Y306540D1*
X975539Y307564D1*
X984252Y307907D1*
X992965Y307564D1*
X1001625Y306540D1*
X1010178Y304838D1*
X1018570Y302471D1*
X1026751Y299453D1*
X1034671Y295802D1*
X1042279Y291542D1*
X1049529Y286697D1*
X1056377Y281298D1*
X1062781Y275379D1*
X1068700Y268976D1*
X1074099Y262128D1*
X1078943Y254877D1*
X1083204Y247269D1*
X1086855Y239350D1*
X1089873Y231169D1*
X1092240Y222776D1*
X1093941Y214223D1*
X1094966Y205564D1*
X1095308Y196850D1*
X1094966Y188137D1*
Y2747192D2*
X1093941Y2738532D1*
X1092240Y2729980D1*
X1089873Y2721587D1*
X1086855Y2713406D1*
X1083204Y2705487D1*
X1078943Y2697879D1*
X1074099Y2690628D1*
X1068700Y2683780D1*
X1062781Y2677377D1*
X1056377Y2671458D1*
X1049529Y2666059D1*
X1042279Y2661214D1*
X1034671Y2656954D1*
X1026751Y2653303D1*
X1018570Y2650285D1*
X1010178Y2647918D1*
X1001625Y2646216D1*
X992965Y2645191D1*
X984252Y2644849D1*
X975539Y2645191D1*
X966879Y2646216D1*
X958326Y2647918D1*
X949934Y2650285D1*
X941753Y2653303D1*
X933833Y2656954D1*
X926225Y2661214D1*
X918975Y2666059D1*
X912127Y2671458D1*
X905723Y2677377D1*
X899804Y2683780D1*
X894405Y2690628D1*
X889561Y2697879D1*
X885300Y2705487D1*
X881649Y2713406D1*
X878631Y2721587D1*
X876264Y2729980D1*
X874563Y2738532D1*
X873538Y2747192D1*
X873196Y2755906D1*
X873538Y2764619D1*
X874563Y2773279D1*
X876264Y2781831D1*
X878631Y2790224D1*
X881649Y2798405D1*
X885300Y2806324D1*
X889561Y2813932D1*
X894405Y2821183D1*
X899804Y2828031D1*
X905723Y2834434D1*
X912127Y2840353D1*
X918975Y2845752D1*
X926225Y2850597D1*
X933833Y2854858D1*
X941753Y2858508D1*
X949934Y2861526D1*
X958326Y2863893D1*
X966879Y2865595D1*
X975539Y2866620D1*
X984252Y2866962D1*
X992965Y2866620D1*
X1001625Y2865595D1*
X1010178Y2863893D1*
X1018570Y2861526D1*
X1026751Y2858508D1*
X1034671Y2854858D1*
X1042279Y2850597D1*
X1049529Y2845752D1*
X1056377Y2840353D1*
X1062781Y2834434D1*
X1068700Y2828031D1*
X1074099Y2821183D1*
X1078943Y2813932D1*
X1083204Y2806324D1*
X1086855Y2798405D1*
X1089873Y2790224D1*
X1092240Y2781831D1*
X1093941Y2773279D1*
X1094966Y2764619D1*
X1095308Y2755906D1*
X1094966Y2747192D1*
X1222882Y1349079D2*
Y1503767D1*
X1077358Y1649253D1*
X1070136Y1652069D1*
X1064984Y1655226D1*
X1060391Y1659149D1*
X1056467Y1663743D1*
X1053310Y1668894D1*
X1050998Y1674476D1*
X1049588Y1680350D1*
X1049114Y1686373D1*
X1049588Y1692395D1*
X1050998Y1698270D1*
X1053310Y1703851D1*
X1056467Y1709002D1*
X1060391Y1713596D1*
X1064984Y1717520D1*
X1070136Y1720676D1*
X1075717Y1722988D1*
X1081591Y1724399D1*
X1087614Y1724873D1*
X1093637Y1724399D1*
X1099511Y1722988D1*
X1105093Y1720676D1*
X1110244Y1717520D1*
X1114838Y1713596D1*
X1118761Y1709002D1*
X1121918Y1703851D1*
X1124675Y1696690D1*
X1281856Y1539362D1*
X1286231Y1532814D1*
X1288956Y1525425D1*
X1289882Y1517595D1*
Y1349099D1*
X1292998Y1341982D1*
X1294408Y1336108D1*
X1294882Y1330085D1*
X1294408Y1324063D1*
X1292998Y1318188D1*
X1290686Y1312607D1*
X1287529Y1307456D1*
X1283606Y1302862D1*
X1279012Y1298938D1*
X1273861Y1295782D1*
X1268279Y1293470D1*
X1262405Y1292059D1*
X1256382Y1291585D1*
X1250359Y1292059D1*
X1244485Y1293470D1*
X1238903Y1295782D1*
X1233752Y1298938D1*
X1229158Y1302862D1*
X1225235Y1307456D1*
X1222078Y1312607D1*
X1219766Y1318188D1*
X1218356Y1324063D1*
X1217882Y1330085D1*
X1218356Y1336108D1*
X1219766Y1341982D1*
X1222880Y1348996D1*
X1360396Y1567852D2*
Y1922540D1*
X1155003Y2127916D1*
X481519Y2127923D1*
X474446Y2124807D1*
X468571Y2123397D1*
X462549Y2122923D1*
X456526Y2123397D1*
X450651Y2124807D1*
X445070Y2127119D1*
X439919Y2130275D1*
X435325Y2134199D1*
X431401Y2138793D1*
X428245Y2143944D1*
X425933Y2149525D1*
X424523Y2155400D1*
X424049Y2161423D1*
X424523Y2167445D1*
X425933Y2173320D1*
X428245Y2178901D1*
X431401Y2184052D1*
X435325Y2188646D1*
X439919Y2192570D1*
X445070Y2195726D1*
X450651Y2198038D1*
X456526Y2199449D1*
X462549Y2199923D1*
X468571Y2199449D1*
X474446Y2198038D1*
X481459Y2194924D1*
X1171501Y2194819D1*
X1179225Y2193283D1*
X1186376Y2189986D1*
X1192568Y2185103D1*
X1419370Y1958155D1*
X1423745Y1951608D1*
X1426471Y1944219D1*
X1427396Y1936389D1*
Y1567795D1*
X1430512Y1560755D1*
X1431922Y1554881D1*
X1432396Y1548858D1*
X1431922Y1542836D1*
X1430512Y1536961D1*
X1428200Y1531380D1*
X1425043Y1526229D1*
X1421120Y1521635D1*
X1416526Y1517711D1*
X1411375Y1514555D1*
X1405793Y1512243D1*
X1399919Y1510832D1*
X1393896Y1510358D1*
X1387874Y1510832D1*
X1381999Y1512243D1*
X1376418Y1514555D1*
X1371267Y1517711D1*
X1366673Y1521635D1*
X1362749Y1526229D1*
X1359593Y1531380D1*
X1357281Y1536961D1*
X1355870Y1542836D1*
X1355396Y1548858D1*
X1355870Y1554881D1*
X1357281Y1560755D1*
X1360395Y1567769D1*
X1496154Y1379848D2*
Y1319790D1*
X1555085Y1319831D1*
X1604164Y1368956D1*
X1604172Y1648691D1*
X1601056Y1655724D1*
X1599646Y1661598D1*
X1599172Y1667621D1*
X1599646Y1673643D1*
X1601056Y1679518D1*
X1604170Y1686531D1*
X1604172Y1772552D1*
X1587669Y1777886D1*
X1556468D1*
X1549354Y1774770D1*
X1543479Y1773360D1*
X1537457Y1772886D1*
X1531434Y1773360D1*
X1525560Y1774770D1*
X1519978Y1777082D1*
X1514827Y1780239D1*
X1510233Y1784162D1*
X1506310Y1788756D1*
X1503153Y1793907D1*
X1500841Y1799489D1*
X1499431Y1805363D1*
X1498957Y1811386D1*
X1499431Y1817409D1*
X1500841Y1823283D1*
X1503153Y1828864D1*
X1506310Y1834016D1*
X1510233Y1838609D1*
X1514827Y1842533D1*
X1519978Y1845690D1*
X1525560Y1848002D1*
X1531434Y1849412D1*
X1537457Y1849886D1*
X1543479Y1849412D1*
X1549354Y1848002D1*
X1556367Y1844888D1*
X1615298Y1844783D1*
X1623021Y1843246D1*
X1630173Y1839949D1*
X1636364Y1835066D1*
X1663146Y1808140D1*
X1667521Y1801592D1*
X1670246Y1794204D1*
X1671172Y1786373D1*
Y1686627D1*
X1674288Y1679518D1*
X1675698Y1673643D1*
X1676172Y1667621D1*
X1675698Y1661598D1*
X1674288Y1655724D1*
X1671174Y1648710D1*
X1671069Y1352460D1*
X1669532Y1344736D1*
X1666235Y1337584D1*
X1661353Y1331393D1*
X1590671Y1260857D1*
X1584123Y1256482D1*
X1576735Y1253756D1*
X1568904Y1252831D1*
X1496112D1*
X1496154Y1224075D1*
X1499269Y1216969D1*
X1500680Y1211095D1*
X1501154Y1205072D1*
X1500680Y1199049D1*
X1499269Y1193175D1*
X1496957Y1187594D1*
X1493801Y1182442D1*
X1489877Y1177849D1*
X1485283Y1173925D1*
X1480132Y1170768D1*
X1474551Y1168457D1*
X1468676Y1167046D1*
X1462654Y1166572D1*
X1456631Y1167046D1*
X1450756Y1168457D1*
X1445175Y1170768D1*
X1440024Y1173925D1*
X1435430Y1177849D1*
X1431506Y1182442D1*
X1428350Y1187594D1*
X1426038Y1193175D1*
X1424628Y1199049D1*
X1424154Y1205072D1*
X1424628Y1211095D1*
X1426038Y1216969D1*
X1429152Y1223983D1*
X1429153Y1379837D1*
X1426038Y1386945D1*
X1424628Y1392820D1*
X1424154Y1398843D1*
X1424628Y1404865D1*
X1426038Y1410740D1*
X1428350Y1416321D1*
X1431506Y1421472D1*
X1435430Y1426066D1*
X1440024Y1429990D1*
X1445175Y1433146D1*
X1450756Y1435458D1*
X1456631Y1436869D1*
X1462654Y1437343D1*
X1468676Y1436869D1*
X1474551Y1435458D1*
X1480132Y1433146D1*
X1485283Y1429990D1*
X1489877Y1426066D1*
X1493801Y1421472D1*
X1496957Y1416321D1*
X1499269Y1410740D1*
X1500680Y1404865D1*
X1501154Y1398843D1*
X1500680Y1392820D1*
X1499269Y1386945D1*
X1496155Y1379932D1*
X327281Y2042418D2*
Y1712730D1*
X397813Y1642219D1*
X405019Y1639418D1*
X410170Y1636261D1*
X414764Y1632338D1*
X418688Y1627744D1*
X421844Y1622593D1*
X424156Y1617011D1*
X425567Y1611137D1*
X426041Y1605114D1*
X425567Y1599091D1*
X424156Y1593217D1*
X421844Y1587636D1*
X418688Y1582484D1*
X414764Y1577891D1*
X410170Y1573967D1*
X405019Y1570810D1*
X399438Y1568498D1*
X393563Y1567088D1*
X387541Y1566614D1*
X381518Y1567088D1*
X375644Y1568498D1*
X370062Y1570810D1*
X364911Y1573967D1*
X360317Y1577891D1*
X356394Y1582484D1*
X353237Y1587636D1*
X350479Y1594797D1*
X268307Y1677117D1*
X263932Y1683665D1*
X261206Y1691054D1*
X260281Y1698884D1*
Y2042478D1*
X257165Y2049515D1*
X255755Y2055389D1*
X255281Y2061412D1*
X255755Y2067435D1*
X257165Y2073309D1*
X259477Y2078891D1*
X262634Y2084042D1*
X266557Y2088636D1*
X271151Y2092559D1*
X276302Y2095716D1*
X281884Y2098028D1*
X287758Y2099438D1*
X293781Y2099912D1*
X299804Y2099438D1*
X305678Y2098028D1*
X311259Y2095716D1*
X316411Y2092559D1*
X321004Y2088636D1*
X324928Y2084042D1*
X328085Y2078891D1*
X330397Y2073309D1*
X331807Y2067435D1*
X332281Y2061412D1*
X331807Y2055389D1*
X330397Y2049515D1*
X327283Y2042501D1*
X1689290Y2911503D2*
X300032D1*
X299905Y2897232D1*
X293225Y2851564D1*
X260965Y2780439D1*
X258865Y2777649D1*
X194867Y2713869D1*
X192444Y2712492D1*
X103077Y2674359D1*
X63796Y2670634D1*
X43713Y2668808D1*
X43753Y283987D1*
X98099Y272946D1*
X162717Y240677D1*
X173920Y230899D1*
X228486Y181583D1*
X230122Y178952D1*
X268306Y95854D1*
X279020Y42478D1*
X1692460Y42449D1*
X1694296Y46136D1*
X1700671Y95927D1*
X1726260Y153788D1*
X1728008Y156627D1*
X1785621Y226800D1*
X1789131Y229007D1*
X1865657Y260781D1*
X1925248Y277034D1*
X1925203Y2673968D1*
X1898244Y2674131D1*
X1895392Y2674939D1*
X1818638Y2707087D1*
X1798202Y2724997D1*
X1759555Y2759475D1*
X1720382Y2811898D1*
X1694495Y2876531D1*
X1689338Y2911495D1*
D22*
X388185Y2655224D3*
D23*
X466925D3*
X545665D3*
X624406D3*
D26*
X1637672Y2611470D3*
Y2511470D3*
Y2411470D3*
Y2311470D3*
Y2211470D3*
Y2111470D3*
D29*
X543807Y304978D3*
D30*
Y541198D3*
D31*
X728846Y423088D3*
D32*
X293781Y1455098D3*
D33*
Y1355098D3*
G04 BoardOutline*
X0Y236220D2*
D11*
Y2716535D1*
X1968504Y236220D2*
Y2716535D1*
X236220Y0D2*
X1732283D1*
X236220Y2952756D2*
X1732283D1*
X0Y236220D2*
G02X236220Y0I12740J-223481D01*
G01*
Y2952756D2*
G02X0Y2716535I-195822J-40399D01*
G01*
X1968504D2*
G02X1732283Y2952756I-15197J221024D01*
G01*
Y0D2*
G02X1968504Y236220I223955J12266D01*
G01*
M02*
