G04 DipTrace 3.0.0.0*
G04 Top.gbr*
%MOIN*%
G04 #@! TF.FileFunction,Copper,L1,Top*
G04 #@! TF.Part,Single*
%ADD11C,0.006*%
G04 #@! TA.AperFunction,Conductor*
%ADD14C,0.02*%
%ADD15C,0.03937*%
G04 #@! TA.AperFunction,CopperBalancing*
%ADD16C,0.025*%
%ADD19R,0.062992X0.124016*%
%ADD20R,0.059055X0.051181*%
%ADD21R,0.051181X0.059055*%
G04 #@! TA.AperFunction,ComponentPad*
%ADD22R,0.055118X0.055118*%
%ADD23C,0.055118*%
%ADD25R,0.15748X0.062992*%
G04 #@! TA.AperFunction,ComponentPad*
%ADD26C,0.059055*%
%ADD27R,0.133858X0.062992*%
%ADD28R,0.102362X0.055118*%
G04 #@! TA.AperFunction,ComponentPad*
%ADD29O,0.177165X0.07874*%
%ADD30O,0.19685X0.07874*%
%ADD31O,0.07874X0.177165*%
%ADD32R,0.059055X0.059055*%
%ADD33C,0.059055*%
%ADD35R,0.07874X0.023622*%
%ADD36R,0.07874X0.125984*%
G04 #@! TA.AperFunction,ViaPad*
%ADD37C,0.03*%
%FSLAX26Y26*%
G04*
G70*
G90*
G75*
G01*
G04 Top*
%LPD*%
X1256382Y1448848D2*
D14*
Y1330085D1*
X1087614Y1686373D2*
X1221215D1*
X1223734Y1683854D1*
X1581416Y1530106D2*
X1462654D1*
X1412648D1*
X1393896Y1548858D1*
X462549Y2161423D2*
X588685D1*
X593812Y2156295D1*
X544945Y873621D2*
D15*
Y956184D1*
X625066Y1036304D1*
X1143870D1*
X1200126Y980049D1*
Y900268D1*
Y873787D1*
Y861286D1*
X1212627Y848785D1*
X1275129D1*
X1275134Y848790D1*
X1200126Y900268D2*
X1273656D1*
X1275134Y898790D1*
X1018857Y873787D2*
X1200126D1*
X356287Y867537D2*
X538861D1*
X544945Y873621D1*
X1275134Y748790D2*
X1206392D1*
X1162622Y705020D1*
Y561255D1*
X1212627Y511249D1*
X1250671D1*
X1343290D1*
X1425150D1*
X1431400Y442587D1*
X1431306Y442492D1*
X1337593D2*
D14*
Y505552D1*
X1343290Y511249D1*
X1243881Y442492D2*
Y504459D1*
X1250671Y511249D1*
X1425150D2*
D15*
X1575165D1*
X1668925D1*
X1762685Y605009D1*
Y961297D1*
X1556413Y1167568D1*
X1462654D1*
X900094D1*
X624043Y1443619D1*
X581311Y1486352D1*
Y1592613D1*
X593812Y1605114D1*
X875092Y1448848D2*
D14*
X629272D1*
X624043Y1443619D1*
X1493888Y617510D2*
X1543912D1*
X1575165Y586257D1*
Y511249D1*
X1462654Y1455303D2*
Y1398843D1*
Y1205072D2*
Y1167568D1*
X1537661Y1667621D2*
X1637672D1*
X1462654Y1811591D2*
X1537457Y1811386D1*
X356492Y2061412D2*
X293781D1*
X387541Y1605114D2*
X593812D1*
X1018857Y680874D2*
X1057218D1*
X1175134Y798790D1*
X1275134D1*
X1018857Y680874D2*
Y548753D1*
X987273Y517169D1*
X768831Y298727D1*
X550058D1*
X543807Y304978D1*
X1431306Y367689D2*
Y279881D1*
X1337593Y273724D1*
X1243881D1*
X1230718D1*
X987273Y517169D1*
X1243881Y367689D2*
Y273724D1*
X1337593Y367689D2*
Y273724D1*
X949895Y1448848D2*
X1067467D1*
X1223734Y1605114D1*
X1181579Y1448848D2*
X1067467D1*
X1431306Y279881D2*
X1725087D1*
X1856445Y411239D1*
Y1105062D1*
X1753577Y1207929D1*
X1681427Y1280080D1*
X1462654D1*
X1337640Y1405093D1*
Y1491207D1*
X1223734Y1605114D1*
X1275134Y798790D2*
X1511354D1*
X206272Y1923898D2*
X131264D1*
X106261Y1898895D1*
Y1786383D1*
Y1355098D1*
Y511249D1*
X312533Y304978D1*
X543807D1*
X206272Y1786383D2*
X106261D1*
X293781Y1355098D2*
X106261D1*
X1581416Y1744661D2*
X1654391D1*
X1712680Y1686373D1*
Y1388374D1*
Y1245486D1*
X1681427Y1280080D1*
X1581416Y1388374D2*
X1712680D1*
X1787957Y1242307D2*
X1753577Y1207929D1*
X466925Y2655224D2*
Y2359570D1*
X106261Y1998906D1*
Y1898895D1*
X412543Y1215541D2*
Y1323835D1*
X375039Y1361339D1*
X300021D1*
X293781Y1355098D1*
X1223734Y1841335D2*
X1342587D1*
X1387646Y1886394D1*
X1462654D1*
X1581416D1*
X1318888Y617510D2*
X1419085D1*
X593812Y1683854D2*
X481301D1*
X293781Y1455098D2*
Y1598864D1*
X387541Y1692623D1*
X437546D1*
X506303Y1761381D1*
X592598D1*
X593812Y1762594D1*
X412543Y1073808D2*
X487551D1*
X518804Y1105062D1*
Y1317584D1*
X381290Y1455098D1*
X293781D1*
X543807Y541198D2*
D15*
Y711066D1*
X544945Y712203D1*
X431295Y1786383D2*
D14*
X481301Y1836388D1*
X588866D1*
X593812Y1841335D1*
X431295Y1923898D2*
X589990D1*
X593812Y1920075D1*
X1275134Y698790D2*
X1218899D1*
X1212627Y692518D1*
Y648969D1*
X1244085Y617510D1*
X593812Y1998815D2*
X493892D1*
X431295Y2061412D1*
X1223734Y1762594D2*
X1336427D1*
X1375144Y1723877D1*
Y1692623D1*
X1400147Y1667621D1*
X1462858D1*
X1223734Y2156295D2*
X1338764D1*
X1418899Y2236430D1*
Y2430201D1*
X1500157Y2511459D1*
X1637661D1*
X1637672Y2511470D1*
X1223734Y2077555D2*
X1416290D1*
X1468904Y2130169D1*
Y2348942D1*
X1531411Y2411449D1*
X1637651D1*
X1637672Y2411470D1*
X356492Y1923898D2*
X281075D1*
X356492Y1786383D2*
X281075D1*
D37*
X1256382Y1330085D3*
X1087614Y1686373D3*
X1393896Y1548858D3*
X462549Y2161423D3*
X356287Y867537D3*
X1462654Y1398843D3*
Y1205072D3*
X1637672Y1667621D3*
X1537457Y1811386D3*
X1637672Y1667621D3*
X293781Y2061412D3*
X387541Y1605114D3*
X1787957Y1242307D3*
X481301Y1683854D3*
X300868Y2886634D2*
D16*
X1690399D1*
X297352Y2861765D2*
X948162D1*
X1020350D2*
X1697869D1*
X289149Y2836896D2*
X905780D1*
X1062733D2*
X1707830D1*
X277869Y2812028D2*
X885907D1*
X1082606D2*
X1717743D1*
X266541Y2787159D2*
X875164D1*
X1093299D2*
X1736248D1*
X245985Y2762290D2*
X870868D1*
X1097645D2*
X1754901D1*
X221131Y2737421D2*
X872235D1*
X1096278D2*
X1781707D1*
X195106Y2712552D2*
X879510D1*
X1089002D2*
X1809686D1*
X137049Y2687684D2*
X334637D1*
X441737D2*
X503729D1*
X666297D2*
X894110D1*
X1074403D2*
X1862323D1*
X46278Y2662815D2*
X334637D1*
X441737D2*
X492694D1*
X677381D2*
X921209D1*
X1047303D2*
X1621942D1*
X1653407D2*
X1922723D1*
X46278Y2637946D2*
X334637D1*
X441737D2*
X495135D1*
X674940D2*
X1589227D1*
X1686121D2*
X1922723D1*
X46278Y2613077D2*
X334637D1*
X441737D2*
X514325D1*
X576991D2*
X593084D1*
X655750D2*
X1582147D1*
X1693153D2*
X1922723D1*
X46278Y2588209D2*
X1587518D1*
X1687830D2*
X1922723D1*
X46278Y2563340D2*
X1612909D1*
X1662440D2*
X1922723D1*
X46278Y2538471D2*
X1477850D1*
X1685828D2*
X1922723D1*
X46278Y2513602D2*
X1452411D1*
X1693153D2*
X1922723D1*
X46278Y2488734D2*
X1427557D1*
X1688075D2*
X1922723D1*
X46278Y2463865D2*
X1402703D1*
X1502430D2*
X1611834D1*
X1663514D2*
X1922723D1*
X46278Y2438996D2*
X1384051D1*
X1477577D2*
X1509832D1*
X1685487D2*
X1922723D1*
X46278Y2414127D2*
X1382879D1*
X1454920D2*
X1484198D1*
X1693153D2*
X1922723D1*
X46278Y2389259D2*
X1382879D1*
X1688319D2*
X1922723D1*
X46278Y2364390D2*
X1382879D1*
X1534217D2*
X1610760D1*
X1664588D2*
X1922723D1*
X46278Y2339521D2*
X1382879D1*
X1509364D2*
X1590155D1*
X1685194D2*
X1922723D1*
X46278Y2314652D2*
X1382879D1*
X1504920D2*
X1582244D1*
X1693104D2*
X1922723D1*
X46278Y2289783D2*
X1382879D1*
X1504920D2*
X1586786D1*
X1688563D2*
X1922723D1*
X46278Y2264915D2*
X1382879D1*
X1504920D2*
X1609784D1*
X1665565D2*
X1922723D1*
X46278Y2240046D2*
X1372625D1*
X1504920D2*
X1590496D1*
X1684852D2*
X1922723D1*
X46278Y2215177D2*
X1347772D1*
X1504920D2*
X1582293D1*
X1693055D2*
X1922723D1*
X46278Y2190308D2*
X434588D1*
X698573D2*
X1119012D1*
X1422645D2*
X1432907D1*
X1504920D2*
X1586541D1*
X1688807D2*
X1922723D1*
X46278Y2165440D2*
X421746D1*
X698573D2*
X1119012D1*
X1397791D2*
X1432928D1*
X1504920D2*
X1608856D1*
X1666493D2*
X1922723D1*
X46278Y2140571D2*
X427703D1*
X698573D2*
X1119012D1*
X1372938D2*
X1429412D1*
X1504920D2*
X1922723D1*
X46278Y2115702D2*
X489080D1*
X698573D2*
X1119012D1*
X1328455D2*
X1404559D1*
X1501600D2*
X1922723D1*
X46278Y2090833D2*
X266473D1*
X698573D2*
X1119012D1*
X1479432D2*
X1922723D1*
X46278Y2065965D2*
X253045D1*
X698573D2*
X1119012D1*
X1454578D2*
X1922723D1*
X46278Y2041096D2*
X258563D1*
X698573D2*
X1119012D1*
X1328455D2*
X1922723D1*
X46278Y2016227D2*
X304901D1*
X698573D2*
X1119012D1*
X1328455D2*
X1922723D1*
X46278Y1991358D2*
X451483D1*
X698573D2*
X1119012D1*
X1328455D2*
X1922723D1*
X46278Y1966489D2*
X229461D1*
X698573D2*
X1119012D1*
X1328455D2*
X1922723D1*
X46278Y1941621D2*
X229461D1*
X698573D2*
X1119012D1*
X1328455D2*
X1922723D1*
X46278Y1916752D2*
X229461D1*
X698573D2*
X1119012D1*
X1328455D2*
X1370965D1*
X1658582D2*
X1740448D1*
X1894813D2*
X1922723D1*
X46278Y1891883D2*
X229461D1*
X698573D2*
X1119012D1*
X1328455D2*
X1343280D1*
X1658582D2*
X1740448D1*
X1894813D2*
X1922723D1*
X46278Y1867014D2*
X465203D1*
X698573D2*
X1119012D1*
X1658582D2*
X1740448D1*
X1894813D2*
X1922723D1*
X46278Y1842146D2*
X437176D1*
X698573D2*
X1119012D1*
X1393250D2*
X1407147D1*
X1658582D2*
X1740448D1*
X1894813D2*
X1922723D1*
X46278Y1817277D2*
X229461D1*
X698573D2*
X1119012D1*
X1368397D2*
X1407147D1*
X1578016D2*
X1922723D1*
X46278Y1792408D2*
X229461D1*
X698573D2*
X1119012D1*
X1354188D2*
X1407147D1*
X1573475D2*
X1740448D1*
X1894813D2*
X1922723D1*
X46278Y1767539D2*
X229461D1*
X698573D2*
X1119012D1*
X1381336D2*
X1407147D1*
X1518202D2*
X1740448D1*
X1894813D2*
X1922723D1*
X46278Y1742671D2*
X229461D1*
X698573D2*
X1119012D1*
X1405360D2*
X1740448D1*
X1894813D2*
X1922723D1*
X46278Y1717802D2*
X362957D1*
X698573D2*
X1062860D1*
X1589246D2*
X1740448D1*
X1894813D2*
X1922723D1*
X46278Y1692933D2*
X337957D1*
X698573D2*
X1047186D1*
X1328455D2*
X1339133D1*
X1669178D2*
X1922723D1*
X46278Y1668064D2*
X313104D1*
X698573D2*
X1051239D1*
X1328455D2*
X1349823D1*
X1678651D2*
X1922723D1*
X46278Y1643196D2*
X288250D1*
X395692D2*
X489080D1*
X698573D2*
X1119012D1*
X1328455D2*
X1374725D1*
X1669911D2*
X1922723D1*
X46278Y1618327D2*
X264032D1*
X698573D2*
X1411248D1*
X1589246D2*
X1922723D1*
X46278Y1593458D2*
X257782D1*
X338270D2*
X348352D1*
X698573D2*
X1922723D1*
X46278Y1568589D2*
X257782D1*
X329774D2*
X372869D1*
X402235D2*
X489080D1*
X698573D2*
X1358319D1*
X1658582D2*
X1740448D1*
X1894813D2*
X1922723D1*
X46278Y1543720D2*
X257782D1*
X329774D2*
X535614D1*
X626991D2*
X1353241D1*
X1658582D2*
X1740448D1*
X1894813D2*
X1922723D1*
X46278Y1518852D2*
X257782D1*
X329774D2*
X535614D1*
X626991D2*
X1367254D1*
X1658582D2*
X1740448D1*
X1894813D2*
X1922723D1*
X46278Y1493983D2*
X238250D1*
X349305D2*
X535614D1*
X637244D2*
X823504D1*
X926698D2*
X1204803D1*
X1307996D2*
X1407147D1*
X1658582D2*
X1740448D1*
X1894813D2*
X1922723D1*
X46278Y1469114D2*
X238250D1*
X417127D2*
X539227D1*
X926698D2*
X1204803D1*
X1307996D2*
X1407147D1*
X1518202D2*
X1922723D1*
X46278Y1444245D2*
X238250D1*
X442030D2*
X559832D1*
X926698D2*
X1204803D1*
X1307996D2*
X1407147D1*
X1518202D2*
X1922723D1*
X46278Y1419377D2*
X238250D1*
X349305D2*
X367157D1*
X466883D2*
X584735D1*
X926698D2*
X1204803D1*
X1307996D2*
X1407147D1*
X1518202D2*
X1740448D1*
X1894813D2*
X1922723D1*
X46278Y1394508D2*
X392010D1*
X491737D2*
X609588D1*
X736707D2*
X1220379D1*
X1292371D2*
X1421893D1*
X1503407D2*
X1740448D1*
X1894813D2*
X1922723D1*
X46278Y1369639D2*
X416864D1*
X516639D2*
X634442D1*
X761610D2*
X1220379D1*
X1292371D2*
X1435077D1*
X1490223D2*
X1740448D1*
X1894813D2*
X1922723D1*
X46278Y1344770D2*
X441766D1*
X541493D2*
X659295D1*
X786463D2*
X1218280D1*
X1294471D2*
X1740448D1*
X1894813D2*
X1922723D1*
X46278Y1319902D2*
X466619D1*
X554725D2*
X684198D1*
X811317D2*
X1216766D1*
X1296034D2*
X1922723D1*
X46278Y1295033D2*
X482782D1*
X554823D2*
X709051D1*
X836219D2*
X1237957D1*
X1274793D2*
X1922723D1*
X46278Y1270164D2*
X482782D1*
X554823D2*
X733905D1*
X861073D2*
X1922723D1*
X46278Y1245295D2*
X99139D1*
X253504D2*
X482782D1*
X554823D2*
X758807D1*
X885926D2*
X1922723D1*
X46278Y1220427D2*
X99139D1*
X253504D2*
X482782D1*
X554823D2*
X783661D1*
X910828D2*
X1424871D1*
X1500477D2*
X1922723D1*
X46278Y1195558D2*
X99139D1*
X253504D2*
X482782D1*
X554823D2*
X808514D1*
X1591981D2*
X1922723D1*
X46278Y1170689D2*
X99139D1*
X253504D2*
X482782D1*
X554823D2*
X833416D1*
X1616883D2*
X1922723D1*
X46278Y1145820D2*
X482782D1*
X554823D2*
X858270D1*
X1641737D2*
X1922723D1*
X46278Y1120951D2*
X99139D1*
X253504D2*
X335369D1*
X554823D2*
X1539471D1*
X1666590D2*
X1922723D1*
X46278Y1096083D2*
X99139D1*
X253504D2*
X335369D1*
X553602D2*
X1564325D1*
X1691493D2*
X1922723D1*
X46278Y1071214D2*
X99139D1*
X253504D2*
X335369D1*
X534852D2*
X597137D1*
X1171815D2*
X1589178D1*
X1716346D2*
X1922723D1*
X46278Y1046345D2*
X99139D1*
X253504D2*
X335369D1*
X509217D2*
X571551D1*
X1197401D2*
X1614080D1*
X1741200D2*
X1922723D1*
X46278Y1021476D2*
X546649D1*
X1222254D2*
X1638934D1*
X1766102D2*
X1922723D1*
X46278Y996608D2*
X521795D1*
X1242518D2*
X1663787D1*
X1790955D2*
X1922723D1*
X46278Y971739D2*
X502166D1*
X624061D2*
X1144842D1*
X1245789D2*
X1688690D1*
X1807069D2*
X1922723D1*
X46278Y946870D2*
X499237D1*
X599207D2*
X961346D1*
X1076356D2*
X1154461D1*
X1245789D2*
X1713543D1*
X1808387D2*
X1922723D1*
X46278Y922001D2*
X452020D1*
X637879D2*
X961346D1*
X1076356D2*
X1154461D1*
X1340516D2*
X1717010D1*
X1808387D2*
X1922723D1*
X46278Y897133D2*
X322332D1*
X637879D2*
X961346D1*
X1340516D2*
X1717010D1*
X1808387D2*
X1922723D1*
X46278Y872264D2*
X310858D1*
X637879D2*
X961346D1*
X1340516D2*
X1717010D1*
X1808387D2*
X1922723D1*
X46278Y847395D2*
X315594D1*
X637879D2*
X961346D1*
X1340516D2*
X1717010D1*
X1808387D2*
X1922723D1*
X46278Y822526D2*
X452020D1*
X637879D2*
X961346D1*
X1076356D2*
X1175311D1*
X1340516D2*
X1717010D1*
X1808387D2*
X1922723D1*
X46278Y797657D2*
X961346D1*
X1076356D2*
X1717010D1*
X1808387D2*
X1922723D1*
X46278Y772789D2*
X1166815D1*
X1340516D2*
X1717010D1*
X1808387D2*
X1922723D1*
X46278Y747920D2*
X452020D1*
X637879D2*
X1141961D1*
X1340516D2*
X1717010D1*
X1808387D2*
X1922723D1*
X46278Y723051D2*
X452020D1*
X637879D2*
X1120868D1*
X1340516D2*
X1717010D1*
X1808387D2*
X1922723D1*
X46278Y698182D2*
X452020D1*
X637879D2*
X1116961D1*
X1340516D2*
X1717010D1*
X1808387D2*
X1922723D1*
X46278Y673314D2*
X452020D1*
X637879D2*
X1116961D1*
X1340516D2*
X1717010D1*
X1808387D2*
X1922723D1*
X46278Y648445D2*
X498114D1*
X589491D2*
X1116961D1*
X1559266D2*
X1717010D1*
X1808387D2*
X1922723D1*
X46278Y623576D2*
X498114D1*
X589491D2*
X1116961D1*
X1587733D2*
X1717010D1*
X1808387D2*
X1922723D1*
X46278Y598707D2*
X456854D1*
X630750D2*
X1116961D1*
X1608778D2*
X1692791D1*
X1807899D2*
X1922723D1*
X46278Y573839D2*
X428534D1*
X659119D2*
X1116961D1*
X1611170D2*
X1667938D1*
X1795106D2*
X1922723D1*
X46278Y548970D2*
X419842D1*
X667762D2*
X1118719D1*
X1770203D2*
X1922723D1*
X46278Y524101D2*
X421746D1*
X665858D2*
X690741D1*
X766981D2*
X1136200D1*
X1745350D2*
X1922723D1*
X46278Y499232D2*
X435418D1*
X652186D2*
X669549D1*
X788172D2*
X1161053D1*
X1720496D2*
X1922723D1*
X46278Y474364D2*
X663494D1*
X794178D2*
X1187664D1*
X1693885D2*
X1922723D1*
X46278Y449495D2*
X663494D1*
X794227D2*
X1188348D1*
X1486854D2*
X1922723D1*
X46278Y424626D2*
X663494D1*
X794227D2*
X1188348D1*
X1486854D2*
X1922723D1*
X46278Y399757D2*
X663494D1*
X794227D2*
X1188348D1*
X1486854D2*
X1922723D1*
X46278Y374888D2*
X663494D1*
X794227D2*
X1922723D1*
X46278Y350020D2*
X668182D1*
X789491D2*
X1922723D1*
X46278Y325151D2*
X686639D1*
X771082D2*
X1922723D1*
X46278Y300282D2*
X941327D1*
X1027186D2*
X1922723D1*
X89051Y275413D2*
X903241D1*
X1065223D2*
X1916815D1*
X145545Y250545D2*
X884539D1*
X1083973D2*
X1838299D1*
X182215Y225676D2*
X874481D1*
X1093983D2*
X1782000D1*
X209852Y200807D2*
X870770D1*
X1097743D2*
X1761639D1*
X234022Y175938D2*
X872674D1*
X1095838D2*
X1741327D1*
X245496Y151070D2*
X880584D1*
X1087928D2*
X1722528D1*
X256971Y126201D2*
X896063D1*
X1072450D2*
X1711493D1*
X268446Y101332D2*
X925116D1*
X1043397D2*
X1700457D1*
X274744Y76463D2*
X1695575D1*
X279676Y51594D2*
X1692498D1*
X976361Y959295D2*
X1073853D1*
Y916961D1*
X1156894Y916973D1*
X1156941Y962133D1*
X1125982Y993119D1*
X642942D1*
X588102Y938268D1*
X588130Y928596D1*
X635374Y928617D1*
Y818625D1*
X454516D1*
Y824338D1*
X352899Y824485D1*
X346206Y825545D1*
X339761Y827639D1*
X333723Y830715D1*
X328241Y834699D1*
X323449Y839490D1*
X319466Y844973D1*
X316390Y851011D1*
X314295Y857455D1*
X313235Y864148D1*
Y870925D1*
X314295Y877618D1*
X316390Y884063D1*
X319466Y890101D1*
X323449Y895583D1*
X328241Y900375D1*
X333723Y904358D1*
X339761Y907435D1*
X346206Y909529D1*
X352899Y910589D1*
X443787Y910722D1*
X454481D1*
X454516Y928617D1*
X501733D1*
X501893Y959572D1*
X502953Y966265D1*
X505047Y972710D1*
X508124Y978748D1*
X512107Y984230D1*
X576280Y1048592D1*
X597019Y1069143D1*
X602501Y1073126D1*
X608539Y1076202D1*
X614984Y1078296D1*
X621677Y1079356D1*
X712566Y1079490D1*
X1147258Y1079356D1*
X1153951Y1078296D1*
X1160396Y1076202D1*
X1166434Y1073126D1*
X1171917Y1069143D1*
X1230662Y1010585D1*
X1235063Y1005432D1*
X1238604Y999654D1*
X1241197Y993393D1*
X1242779Y986804D1*
X1243311Y980049D1*
Y943476D1*
X1277044Y943320D1*
X1283738Y942260D1*
X1290182Y940166D1*
X1296220Y937089D1*
X1299050Y935197D1*
X1312264Y934101D1*
X1338004D1*
Y813479D1*
X1299967D1*
X1294734Y810307D1*
X1288474Y807713D1*
X1281884Y806131D1*
X1275129Y805600D1*
X1209239Y805733D1*
X1202546Y806793D1*
X1196101Y808887D1*
X1190063Y811963D1*
X1184581Y815947D1*
X1169736Y830603D1*
X1073808Y830602D1*
X1073853Y788280D1*
X963861D1*
Y959295D1*
X976361D1*
X1378267Y393402D2*
X1190853D1*
Y473919D1*
X1184581Y478411D1*
X1132086Y530718D1*
X1127685Y535871D1*
X1124144Y541649D1*
X1121550Y547910D1*
X1119969Y554499D1*
X1119437Y561255D1*
X1119570Y708408D1*
X1120630Y715101D1*
X1122724Y721546D1*
X1125801Y727584D1*
X1129784Y733066D1*
X1175856Y779327D1*
X1181009Y783728D1*
X1186787Y787268D1*
X1193047Y789862D1*
X1199637Y791444D1*
X1206392Y791975D1*
X1278522Y791842D1*
X1285215Y790782D1*
X1291660Y788688D1*
X1297698Y785611D1*
X1299956Y784103D1*
X1338004Y784101D1*
Y670554D1*
X1367979Y670538D1*
Y651055D1*
X1370011Y651011D1*
X1369995Y670538D1*
X1542979D1*
Y651056D1*
X1549153Y650598D1*
X1556732Y648461D1*
X1563603Y644613D1*
X1567600Y641199D1*
X1600639Y608014D1*
X1605014Y601466D1*
X1607740Y594078D1*
X1608665Y586247D1*
Y554470D1*
X1650995Y554434D1*
X1719492Y622889D1*
X1719500Y943437D1*
X1538557Y1124351D1*
X896706Y1124516D1*
X890013Y1125576D1*
X883568Y1127670D1*
X877530Y1130747D1*
X872048Y1134730D1*
X807686Y1198904D1*
X548473Y1458305D1*
X544490Y1463788D1*
X541413Y1469825D1*
X539319Y1476270D1*
X538259Y1482963D1*
X538126Y1550072D1*
X491572Y1550118D1*
Y1571651D1*
X406556Y1571614D1*
X399438Y1568498D1*
X393563Y1567088D1*
X387541Y1566614D1*
X381518Y1567088D1*
X375644Y1568498D1*
X370062Y1570810D1*
X364911Y1573967D1*
X360317Y1577891D1*
X356394Y1582484D1*
X353237Y1587636D1*
X350925Y1593217D1*
X349515Y1599091D1*
X349108Y1606825D1*
X327294Y1585001D1*
X327281Y1508092D1*
X346809Y1508126D1*
Y1488643D1*
X383918Y1488495D1*
X391642Y1486959D1*
X398794Y1483662D1*
X404985Y1478779D1*
X544278Y1339341D1*
X548653Y1332793D1*
X551379Y1325404D1*
X552304Y1317574D1*
X552201Y1102433D1*
X550665Y1094710D1*
X547368Y1087558D1*
X542493Y1081373D1*
X509308Y1048335D1*
X502760Y1043960D1*
X495372Y1041234D1*
X487541Y1040309D1*
X487209Y1040308D1*
X487225Y1022749D1*
X337862D1*
Y1124867D1*
X485325D1*
X485304Y1303743D1*
X367402Y1421610D1*
X346769Y1421598D1*
X346809Y1402071D1*
X240754D1*
Y1508126D1*
X260236D1*
X260384Y1601492D1*
X261920Y1609216D1*
X265217Y1616367D1*
X270100Y1622559D1*
X365784Y1718097D1*
X372332Y1722472D1*
X379720Y1725198D1*
X387551Y1726123D1*
X423625D1*
X417886Y1733355D1*
X231984D1*
Y1839411D1*
X436941D1*
X459544Y1861862D1*
X466092Y1866237D1*
X473480Y1868963D1*
X481311Y1869888D1*
X491603D1*
X491572Y1890359D1*
X480370Y1890398D1*
X480386Y1870870D1*
X231984D1*
Y1976925D1*
X468387D1*
X436955Y2008376D1*
X307402Y2008384D1*
Y2025425D1*
X299804Y2023386D1*
X293781Y2022912D1*
X287758Y2023386D1*
X281884Y2024796D1*
X276302Y2027108D1*
X271151Y2030265D1*
X266557Y2034188D1*
X262634Y2038782D1*
X259477Y2043933D1*
X257165Y2049515D1*
X255755Y2055389D1*
X255281Y2061412D1*
X255755Y2067435D1*
X257165Y2073309D1*
X259477Y2078891D1*
X262634Y2084042D1*
X266557Y2088636D1*
X271151Y2092559D1*
X276302Y2095716D1*
X281884Y2098028D1*
X287758Y2099438D1*
X293781Y2099912D1*
X299804Y2099438D1*
X307395Y2097394D1*
X307402Y2114439D1*
X480386D1*
Y2059703D1*
X491547Y2048536D1*
X491572Y2127906D1*
X481507Y2127922D1*
X474446Y2124807D1*
X468571Y2123397D1*
X462549Y2122923D1*
X456526Y2123397D1*
X450651Y2124807D1*
X445070Y2127119D1*
X439919Y2130275D1*
X435325Y2134199D1*
X431401Y2138793D1*
X428245Y2143944D1*
X425933Y2149525D1*
X424523Y2155400D1*
X424049Y2161423D1*
X424523Y2167445D1*
X425933Y2173320D1*
X428245Y2178901D1*
X431401Y2184052D1*
X435325Y2188646D1*
X439919Y2192570D1*
X445070Y2195726D1*
X450651Y2198038D1*
X456526Y2199449D1*
X462549Y2199923D1*
X468571Y2199449D1*
X474446Y2198038D1*
X481459Y2194924D1*
X491601Y2194923D1*
X491572Y2211291D1*
X696053D1*
Y1865079D1*
X696004Y1628858D1*
X696053Y1550118D1*
X624519D1*
X624496Y1504283D1*
X646409Y1482327D1*
X826000Y1482348D1*
X826001Y1501875D1*
X924182D1*
Y1395820D1*
X826001D1*
Y1415303D1*
X713422Y1415348D1*
X917984Y1210752D1*
X1424557Y1210753D1*
X1426038Y1216969D1*
X1428350Y1222551D1*
X1431506Y1227702D1*
X1435430Y1232296D1*
X1440024Y1236219D1*
X1445175Y1239376D1*
X1450756Y1241688D1*
X1456631Y1243098D1*
X1462654Y1243572D1*
X1468676Y1243098D1*
X1474551Y1241688D1*
X1480132Y1239376D1*
X1485283Y1236219D1*
X1489877Y1232296D1*
X1493801Y1227702D1*
X1496957Y1222551D1*
X1499269Y1216969D1*
X1500720Y1210755D1*
X1559802Y1210620D1*
X1566495Y1209560D1*
X1572940Y1207466D1*
X1578978Y1204390D1*
X1584460Y1200406D1*
X1648822Y1136233D1*
X1795523Y989343D1*
X1799506Y983861D1*
X1802583Y977823D1*
X1804677Y971378D1*
X1805737Y964685D1*
X1805870Y873797D1*
X1805737Y601621D1*
X1804677Y594928D1*
X1802583Y588483D1*
X1799506Y582445D1*
X1795523Y576963D1*
X1731350Y512601D1*
X1696972Y478411D1*
X1691489Y474428D1*
X1685451Y471352D1*
X1679007Y469257D1*
X1672313Y468197D1*
X1575165Y468064D1*
X1484296D1*
X1484333Y393402D1*
X1378278Y393450D1*
X349626Y2706283D2*
X439244D1*
Y2604165D1*
X337126D1*
Y2706283D1*
X349626D1*
X585024Y2622741D2*
X578826Y2616399D1*
X572344Y2611689D1*
X565205Y2608052D1*
X557585Y2605576D1*
X549671Y2604323D1*
X541659D1*
X533746Y2605576D1*
X526126Y2608052D1*
X518987Y2611689D1*
X512505Y2616399D1*
X506840Y2622064D1*
X502130Y2628546D1*
X498493Y2635685D1*
X496017Y2643305D1*
X494764Y2651218D1*
Y2659230D1*
X496017Y2667144D1*
X498493Y2674764D1*
X502130Y2681903D1*
X506840Y2688385D1*
X512505Y2694050D1*
X518987Y2698759D1*
X526126Y2702397D1*
X533746Y2704873D1*
X541659Y2706126D1*
X549671D1*
X557585Y2704873D1*
X565205Y2702397D1*
X572344Y2698759D1*
X578826Y2694050D1*
X585024Y2687708D1*
X591245Y2694050D1*
X597727Y2698759D1*
X604866Y2702397D1*
X612486Y2704873D1*
X620399Y2706126D1*
X628412D1*
X636325Y2704873D1*
X643945Y2702397D1*
X651084Y2698759D1*
X657566Y2694050D1*
X663231Y2688385D1*
X667941Y2681903D1*
X671578Y2674764D1*
X674054Y2667144D1*
X675307Y2659230D1*
Y2651218D1*
X674054Y2643305D1*
X671578Y2635685D1*
X667941Y2628546D1*
X663231Y2622064D1*
X657566Y2616399D1*
X651084Y2611689D1*
X643945Y2608052D1*
X636325Y2605576D1*
X628412Y2604323D1*
X620399D1*
X612486Y2605576D1*
X604866Y2608052D1*
X597727Y2611689D1*
X591245Y2616399D1*
X585047Y2622741D1*
X1444787Y564483D2*
X1369995D1*
Y583965D1*
X1367962Y584010D1*
X1367979Y564483D1*
X1220471D1*
X1230482Y554468D1*
X1541702Y554434D1*
X1541665Y564521D1*
X1444798Y564532D1*
X1325974Y1707551D2*
Y1628858D1*
X1121494D1*
X1121215Y1652873D1*
X1106616D1*
X1099511Y1649757D1*
X1093637Y1648347D1*
X1087614Y1647873D1*
X1081591Y1648347D1*
X1075717Y1649757D1*
X1070136Y1652069D1*
X1064984Y1655226D1*
X1060391Y1659149D1*
X1056467Y1663743D1*
X1053310Y1668894D1*
X1050998Y1674476D1*
X1049588Y1680350D1*
X1049114Y1686373D1*
X1049588Y1692395D1*
X1050998Y1698270D1*
X1053310Y1703851D1*
X1056467Y1709002D1*
X1060391Y1713596D1*
X1064984Y1717520D1*
X1070136Y1720676D1*
X1075717Y1722988D1*
X1081591Y1724399D1*
X1087614Y1724873D1*
X1093637Y1724399D1*
X1099511Y1722988D1*
X1106525Y1719874D1*
X1121452Y1719873D1*
X1121494Y1896330D1*
X1121493Y2211291D1*
X1325974D1*
Y2190930D1*
X1385407Y2250314D1*
X1385502Y2432829D1*
X1387039Y2440553D1*
X1390335Y2447704D1*
X1395218Y2453896D1*
X1478401Y2536933D1*
X1484949Y2541308D1*
X1492337Y2544034D1*
X1500168Y2544959D1*
X1596593D1*
X1603233Y2551792D1*
X1609965Y2556683D1*
X1617379Y2560461D1*
X1620050Y2561446D1*
X1613598Y2564222D1*
X1606503Y2568570D1*
X1600176Y2573974D1*
X1594772Y2580301D1*
X1590424Y2587396D1*
X1587240Y2595083D1*
X1585297Y2603174D1*
X1584644Y2611470D1*
X1585297Y2619765D1*
X1587240Y2627856D1*
X1590424Y2635544D1*
X1594772Y2642639D1*
X1600176Y2648966D1*
X1606503Y2654370D1*
X1613598Y2658718D1*
X1621285Y2661902D1*
X1629377Y2663845D1*
X1637672Y2664497D1*
X1645967Y2663845D1*
X1654058Y2661902D1*
X1661746Y2658718D1*
X1668841Y2654370D1*
X1675168Y2648966D1*
X1680572Y2642639D1*
X1684920Y2635544D1*
X1688104Y2627856D1*
X1690047Y2619765D1*
X1690699Y2611470D1*
X1690047Y2603174D1*
X1688104Y2595083D1*
X1684920Y2587396D1*
X1680572Y2580301D1*
X1675168Y2573974D1*
X1668841Y2568570D1*
X1661746Y2564222D1*
X1655294Y2561494D1*
X1661746Y2558718D1*
X1668841Y2554370D1*
X1675168Y2548966D1*
X1680572Y2542639D1*
X1684920Y2535544D1*
X1688104Y2527856D1*
X1690047Y2519765D1*
X1690699Y2511470D1*
X1690047Y2503174D1*
X1688104Y2495083D1*
X1684920Y2487396D1*
X1680572Y2480301D1*
X1675168Y2473974D1*
X1668841Y2468570D1*
X1661746Y2464222D1*
X1655294Y2461494D1*
X1661746Y2458718D1*
X1668841Y2454370D1*
X1675168Y2448966D1*
X1680572Y2442639D1*
X1684920Y2435544D1*
X1688104Y2427856D1*
X1690047Y2419765D1*
X1690699Y2411470D1*
X1690047Y2403174D1*
X1688104Y2395083D1*
X1684920Y2387396D1*
X1680572Y2380301D1*
X1675168Y2373974D1*
X1668841Y2368570D1*
X1661746Y2364222D1*
X1655294Y2361494D1*
X1661746Y2358718D1*
X1668841Y2354370D1*
X1675168Y2348966D1*
X1680572Y2342639D1*
X1684920Y2335544D1*
X1688104Y2327856D1*
X1690047Y2319765D1*
X1690699Y2311470D1*
X1690047Y2303174D1*
X1688104Y2295083D1*
X1684920Y2287396D1*
X1680572Y2280301D1*
X1675168Y2273974D1*
X1668841Y2268570D1*
X1661746Y2264222D1*
X1655294Y2261494D1*
X1661746Y2258718D1*
X1668841Y2254370D1*
X1675168Y2248966D1*
X1680572Y2242639D1*
X1684920Y2235544D1*
X1688104Y2227856D1*
X1690047Y2219765D1*
X1690699Y2211470D1*
X1690047Y2203174D1*
X1688104Y2195083D1*
X1684920Y2187396D1*
X1680572Y2180301D1*
X1675168Y2173974D1*
X1668841Y2168570D1*
X1661746Y2164222D1*
X1654058Y2161038D1*
X1645967Y2159095D1*
X1637672Y2158442D1*
X1629377Y2159095D1*
X1621285Y2161038D1*
X1613598Y2164222D1*
X1606503Y2168570D1*
X1600176Y2173974D1*
X1594772Y2180301D1*
X1590424Y2187396D1*
X1587240Y2195083D1*
X1585297Y2203174D1*
X1584644Y2211470D1*
X1585297Y2219765D1*
X1587240Y2227856D1*
X1590424Y2235544D1*
X1594772Y2242639D1*
X1600176Y2248966D1*
X1606503Y2254370D1*
X1613598Y2258718D1*
X1620050Y2261446D1*
X1613598Y2264222D1*
X1606503Y2268570D1*
X1600176Y2273974D1*
X1594772Y2280301D1*
X1590424Y2287396D1*
X1587240Y2295083D1*
X1585297Y2303174D1*
X1584644Y2311470D1*
X1585297Y2319765D1*
X1587240Y2327856D1*
X1590424Y2335544D1*
X1594772Y2342639D1*
X1600176Y2348966D1*
X1606503Y2354370D1*
X1613598Y2358718D1*
X1620050Y2361446D1*
X1613598Y2364222D1*
X1606503Y2368570D1*
X1600176Y2373974D1*
X1596635Y2377938D1*
X1545317Y2377949D1*
X1502377Y2335038D1*
X1502301Y2127541D1*
X1500765Y2119817D1*
X1497468Y2112666D1*
X1492585Y2106474D1*
X1438047Y2052081D1*
X1431499Y2047706D1*
X1424110Y2044981D1*
X1416280Y2044055D1*
X1326007D1*
X1325974Y1874797D1*
X1336576Y1882700D1*
X1365889Y1911867D1*
X1372437Y1916242D1*
X1379825Y1918968D1*
X1387656Y1919893D1*
X1409667Y1919894D1*
X1409626Y1935484D1*
X1506745D1*
X1506735Y1937453D1*
X1656097D1*
Y1835335D1*
X1567572D1*
X1571760Y1828864D1*
X1574072Y1823283D1*
X1575483Y1817409D1*
X1575957Y1811386D1*
X1575483Y1805363D1*
X1574072Y1799489D1*
X1571760Y1793907D1*
X1568604Y1788756D1*
X1564680Y1784162D1*
X1560086Y1780239D1*
X1554935Y1777082D1*
X1549354Y1774770D1*
X1543479Y1773360D1*
X1537457Y1772886D1*
X1531434Y1773360D1*
X1525560Y1774770D1*
X1518443Y1777942D1*
X1515681Y1773181D1*
Y1762500D1*
X1409626D1*
Y1852879D1*
X1393656Y1845028D1*
X1364343Y1815861D1*
X1357795Y1811486D1*
X1350407Y1808760D1*
X1342576Y1807835D1*
X1325936D1*
X1325974Y1796057D1*
X1339055Y1795991D1*
X1346779Y1794455D1*
X1353930Y1791158D1*
X1360122Y1786275D1*
X1400618Y1745633D1*
X1404993Y1739085D1*
X1407719Y1731697D1*
X1408644Y1723866D1*
Y1706543D1*
X1413768Y1702093D1*
Y1720648D1*
X1586752D1*
Y1701166D1*
X1618667Y1701121D1*
X1625775Y1704236D1*
X1631649Y1705647D1*
X1637672Y1706121D1*
X1643695Y1705647D1*
X1649569Y1704236D1*
X1655151Y1701924D1*
X1660302Y1698768D1*
X1664896Y1694844D1*
X1668819Y1690250D1*
X1671976Y1685099D1*
X1674288Y1679518D1*
X1675698Y1673643D1*
X1676172Y1667621D1*
X1675698Y1661598D1*
X1674288Y1655724D1*
X1671976Y1650142D1*
X1668819Y1644991D1*
X1664896Y1640397D1*
X1660302Y1636474D1*
X1655151Y1633317D1*
X1649569Y1631005D1*
X1643695Y1629595D1*
X1637672Y1629121D1*
X1631649Y1629595D1*
X1625775Y1631005D1*
X1618761Y1634119D1*
X1586744Y1634121D1*
X1586752Y1614593D1*
X1413768D1*
Y1634076D1*
X1397519Y1634224D1*
X1389795Y1635760D1*
X1382643Y1639057D1*
X1376452Y1643940D1*
X1349671Y1670867D1*
X1345296Y1677415D1*
X1342570Y1684803D1*
X1341645Y1692634D1*
X1341644Y1709957D1*
X1325941Y1725704D1*
X1325925Y1707598D1*
X1325974Y2122766D2*
Y2111018D1*
X1402396Y2111055D1*
X1435380Y2144022D1*
X1435404Y2205511D1*
X1360520Y2130822D1*
X1353972Y2126447D1*
X1346584Y2123721D1*
X1338754Y2122796D1*
X1326020Y2122795D1*
X1620050Y2461494D2*
X1613598Y2464222D1*
X1606503Y2468570D1*
X1600176Y2473974D1*
X1596614Y2477964D1*
X1514077Y2477959D1*
X1452410Y2416335D1*
X1452399Y2379859D1*
X1509654Y2436922D1*
X1516202Y2441298D1*
X1523590Y2444023D1*
X1531421Y2444948D1*
X1596596Y2444949D1*
X1603233Y2451792D1*
X1609965Y2456683D1*
X1617379Y2460461D1*
X1620050Y2461446D1*
X467016Y767199D2*
X635374D1*
Y657207D1*
X586985D1*
X586992Y604083D1*
X607795Y603874D1*
X617539Y602331D1*
X626922Y599283D1*
X635712Y594804D1*
X643693Y589005D1*
X650669Y582029D1*
X656468Y574048D1*
X660947Y565258D1*
X663995Y555875D1*
X665538Y546131D1*
Y536265D1*
X663995Y526521D1*
X660947Y517139D1*
X656468Y508349D1*
X650669Y500367D1*
X643693Y493391D1*
X635712Y487593D1*
X626922Y483114D1*
X617539Y480065D1*
X607795Y478522D1*
X565362Y478328D1*
X479819Y478522D1*
X470075Y480065D1*
X460693Y483114D1*
X451902Y487593D1*
X443921Y493391D1*
X436945Y500367D1*
X431146Y508349D1*
X426668Y517139D1*
X423619Y526521D1*
X422076Y536265D1*
Y546131D1*
X423619Y555875D1*
X426668Y565258D1*
X431146Y574048D1*
X436945Y582029D1*
X443921Y589005D1*
X451902Y594804D1*
X460693Y599283D1*
X470075Y602331D1*
X479819Y603874D1*
X500621Y604068D1*
X500622Y657165D1*
X454516Y657207D1*
Y767199D1*
X467016D1*
X1519235Y1581165D2*
X1656097D1*
Y1479047D1*
X1515678D1*
X1515681Y1406213D1*
X1500398D1*
X1501154Y1398843D1*
X1500680Y1392820D1*
X1499269Y1386945D1*
X1496957Y1381364D1*
X1493801Y1376213D1*
X1489877Y1371619D1*
X1485283Y1367695D1*
X1480132Y1364539D1*
X1474551Y1362227D1*
X1468676Y1360817D1*
X1462654Y1360343D1*
X1456631Y1360817D1*
X1450756Y1362227D1*
X1445175Y1364539D1*
X1440024Y1367695D1*
X1435430Y1371619D1*
X1431506Y1376213D1*
X1428350Y1381364D1*
X1426038Y1386945D1*
X1424628Y1392820D1*
X1424154Y1398843D1*
X1424897Y1406220D1*
X1409626Y1406213D1*
Y1496787D1*
X1404828Y1497532D1*
X1397440Y1500257D1*
X1390892Y1504633D1*
X1383608Y1511770D1*
X1376418Y1514555D1*
X1371267Y1517711D1*
X1366673Y1521635D1*
X1362749Y1526229D1*
X1359593Y1531380D1*
X1357281Y1536961D1*
X1355870Y1542836D1*
X1355396Y1548858D1*
X1355870Y1554881D1*
X1357281Y1560755D1*
X1359593Y1566337D1*
X1362749Y1571488D1*
X1366673Y1576082D1*
X1371267Y1580005D1*
X1376418Y1583162D1*
X1381999Y1585474D1*
X1387874Y1586884D1*
X1393896Y1587358D1*
X1399919Y1586884D1*
X1405793Y1585474D1*
X1411375Y1583162D1*
X1417555Y1579194D1*
X1506745Y1579197D1*
X1506735Y1581165D1*
X1519235D1*
X1755455Y1439433D2*
X1892318D1*
Y1337315D1*
X1742955D1*
Y1439433D1*
X1755455D1*
Y1581165D2*
X1892318D1*
Y1479047D1*
X1742955D1*
Y1581165D1*
X1755455D1*
X665977Y472281D2*
X666750Y482136D1*
X669053Y491728D1*
X672829Y500843D1*
X677983Y509255D1*
X684391Y516756D1*
X691892Y523163D1*
X700304Y528318D1*
X709419Y532094D1*
X719011Y534397D1*
X728846Y535171D1*
X738682Y534397D1*
X748274Y532094D1*
X757389Y528318D1*
X765801Y523163D1*
X773302Y516756D1*
X779709Y509255D1*
X784864Y500843D1*
X788639Y491728D1*
X790943Y482136D1*
X791717Y472300D1*
X791523Y368943D1*
X789979Y359199D1*
X786931Y349816D1*
X782452Y341026D1*
X776653Y333044D1*
X769677Y326069D1*
X761696Y320270D1*
X752906Y315791D1*
X743523Y312742D1*
X733779Y311199D1*
X723914D1*
X714170Y312742D1*
X704787Y315791D1*
X695997Y320270D1*
X688016Y326069D1*
X681040Y333044D1*
X675241Y341026D1*
X670762Y349816D1*
X667713Y359199D1*
X666170Y368943D1*
X665977Y411375D1*
Y472172D1*
X1219792Y1501875D2*
X1305473D1*
Y1395820D1*
X1289897D1*
X1289882Y1349092D1*
X1292998Y1341982D1*
X1294408Y1336108D1*
X1294882Y1330085D1*
X1294408Y1324063D1*
X1292998Y1318188D1*
X1290686Y1312607D1*
X1287529Y1307456D1*
X1283606Y1302862D1*
X1279012Y1298938D1*
X1273861Y1295782D1*
X1268279Y1293470D1*
X1262405Y1292059D1*
X1256382Y1291585D1*
X1250359Y1292059D1*
X1244485Y1293470D1*
X1238903Y1295782D1*
X1233752Y1298938D1*
X1229158Y1302862D1*
X1225235Y1307456D1*
X1222078Y1312607D1*
X1219766Y1318188D1*
X1218356Y1324063D1*
X1217882Y1330085D1*
X1218356Y1336108D1*
X1219766Y1341982D1*
X1222880Y1348996D1*
X1222882Y1395857D1*
X1207292Y1395820D1*
Y1501875D1*
X1219792D1*
X1755455Y1795720D2*
X1892318D1*
Y1693602D1*
X1742955D1*
Y1795720D1*
X1755455D1*
Y1937453D2*
X1892318D1*
Y1835335D1*
X1742955D1*
Y1937453D1*
X1755455D1*
X114142Y1266599D2*
X251004D1*
Y1164481D1*
X101642D1*
Y1266599D1*
X114142D1*
Y1124867D2*
X251004D1*
Y1022749D1*
X101642D1*
Y1124867D1*
X114142D1*
X1094966Y188137D2*
X1093941Y179477D1*
X1092240Y170925D1*
X1089873Y162532D1*
X1086855Y154351D1*
X1083204Y146432D1*
X1078943Y138824D1*
X1074099Y131573D1*
X1068700Y124725D1*
X1062781Y118322D1*
X1056377Y112402D1*
X1049529Y107004D1*
X1042279Y102159D1*
X1034671Y97898D1*
X1026751Y94248D1*
X1018570Y91229D1*
X1010178Y88862D1*
X1001625Y87161D1*
X992965Y86136D1*
X984252Y85794D1*
X975539Y86136D1*
X966879Y87161D1*
X958326Y88862D1*
X949934Y91229D1*
X941753Y94248D1*
X933833Y97898D1*
X926225Y102159D1*
X918975Y107004D1*
X912127Y112402D1*
X905723Y118322D1*
X899804Y124725D1*
X894405Y131573D1*
X889561Y138824D1*
X885300Y146432D1*
X881649Y154351D1*
X878631Y162532D1*
X876264Y170925D1*
X874563Y179477D1*
X873538Y188137D1*
X873196Y196850D1*
X873538Y205564D1*
X874563Y214223D1*
X876264Y222776D1*
X878631Y231169D1*
X881649Y239350D1*
X885300Y247269D1*
X889561Y254877D1*
X894405Y262128D1*
X899804Y268976D1*
X905723Y275379D1*
X912127Y281298D1*
X918975Y286697D1*
X926225Y291542D1*
X933833Y295802D1*
X941753Y299453D1*
X949934Y302471D1*
X958326Y304838D1*
X966879Y306540D1*
X975539Y307564D1*
X984252Y307907D1*
X992965Y307564D1*
X1001625Y306540D1*
X1010178Y304838D1*
X1018570Y302471D1*
X1026751Y299453D1*
X1034671Y295802D1*
X1042279Y291542D1*
X1049529Y286697D1*
X1056377Y281298D1*
X1062781Y275379D1*
X1068700Y268976D1*
X1074099Y262128D1*
X1078943Y254877D1*
X1083204Y247269D1*
X1086855Y239350D1*
X1089873Y231169D1*
X1092240Y222776D1*
X1093941Y214223D1*
X1094966Y205564D1*
X1095308Y196850D1*
X1094966Y188137D1*
Y2747192D2*
X1093941Y2738532D1*
X1092240Y2729980D1*
X1089873Y2721587D1*
X1086855Y2713406D1*
X1083204Y2705487D1*
X1078943Y2697879D1*
X1074099Y2690628D1*
X1068700Y2683780D1*
X1062781Y2677377D1*
X1056377Y2671458D1*
X1049529Y2666059D1*
X1042279Y2661214D1*
X1034671Y2656954D1*
X1026751Y2653303D1*
X1018570Y2650285D1*
X1010178Y2647918D1*
X1001625Y2646216D1*
X992965Y2645191D1*
X984252Y2644849D1*
X975539Y2645191D1*
X966879Y2646216D1*
X958326Y2647918D1*
X949934Y2650285D1*
X941753Y2653303D1*
X933833Y2656954D1*
X926225Y2661214D1*
X918975Y2666059D1*
X912127Y2671458D1*
X905723Y2677377D1*
X899804Y2683780D1*
X894405Y2690628D1*
X889561Y2697879D1*
X885300Y2705487D1*
X881649Y2713406D1*
X878631Y2721587D1*
X876264Y2729980D1*
X874563Y2738532D1*
X873538Y2747192D1*
X873196Y2755906D1*
X873538Y2764619D1*
X874563Y2773279D1*
X876264Y2781831D1*
X878631Y2790224D1*
X881649Y2798405D1*
X885300Y2806324D1*
X889561Y2813932D1*
X894405Y2821183D1*
X899804Y2828031D1*
X905723Y2834434D1*
X912127Y2840353D1*
X918975Y2845752D1*
X926225Y2850597D1*
X933833Y2854858D1*
X941753Y2858508D1*
X949934Y2861526D1*
X958326Y2863893D1*
X966879Y2865595D1*
X975539Y2866620D1*
X984252Y2866962D1*
X992965Y2866620D1*
X1001625Y2865595D1*
X1010178Y2863893D1*
X1018570Y2861526D1*
X1026751Y2858508D1*
X1034671Y2854858D1*
X1042279Y2850597D1*
X1049529Y2845752D1*
X1056377Y2840353D1*
X1062781Y2834434D1*
X1068700Y2828031D1*
X1074099Y2821183D1*
X1078943Y2813932D1*
X1083204Y2806324D1*
X1086855Y2798405D1*
X1089873Y2790224D1*
X1092240Y2781831D1*
X1093941Y2773279D1*
X1094966Y2764619D1*
X1095308Y2755906D1*
X1094966Y2747192D1*
X1618761Y1701122D2*
X1625775Y1704236D1*
X1631649Y1705647D1*
X1637672Y1706121D1*
X1643695Y1705647D1*
X1649569Y1704236D1*
X1655151Y1701924D1*
X1660302Y1698768D1*
X1664896Y1694844D1*
X1668819Y1690250D1*
X1671976Y1685099D1*
X1674288Y1679518D1*
X1675698Y1673643D1*
X1676172Y1667621D1*
X1675698Y1661598D1*
X1674288Y1655724D1*
X1671976Y1650142D1*
X1668819Y1644991D1*
X1664896Y1640397D1*
X1660302Y1636474D1*
X1655151Y1633317D1*
X1649569Y1631005D1*
X1643695Y1629595D1*
X1637672Y1629121D1*
X1631649Y1629595D1*
X1625775Y1631005D1*
X1618761Y1634119D1*
X406535Y1638614D2*
X491593D1*
X490288Y1646418D1*
X484321Y1645473D1*
X478280D1*
X472313Y1646418D1*
X466567Y1648285D1*
X461184Y1651028D1*
X456297Y1654579D1*
X452025Y1658851D1*
X449963Y1661509D1*
X442787Y1659536D1*
X437546Y1659123D1*
X401462D1*
X385852Y1643558D1*
X393563Y1643140D1*
X399438Y1641730D1*
X406451Y1638616D1*
X1689290Y2911503D2*
X300032D1*
X299905Y2897232D1*
X293225Y2851564D1*
X260965Y2780439D1*
X258865Y2777649D1*
X194867Y2713869D1*
X192444Y2712492D1*
X103077Y2674359D1*
X63796Y2670634D1*
X43713Y2668808D1*
X43753Y283987D1*
X98099Y272946D1*
X162717Y240677D1*
X173920Y230899D1*
X228486Y181583D1*
X230123Y178952D1*
X268306Y95854D1*
X279020Y42478D1*
X1692460Y42449D1*
X1694297Y46136D1*
X1700672Y95927D1*
X1726260Y153788D1*
X1728008Y156627D1*
X1785621Y226800D1*
X1789131Y229007D1*
X1865657Y260781D1*
X1925248Y277034D1*
X1925203Y2673968D1*
X1898244Y2674131D1*
X1895392Y2674939D1*
X1818638Y2707087D1*
X1798202Y2724997D1*
X1759555Y2759475D1*
X1720382Y2811898D1*
X1694495Y2876531D1*
X1689338Y2911495D1*
D19*
X1018857Y873787D3*
Y680874D3*
D20*
X1337593Y442492D3*
Y367689D3*
X1431306Y442492D3*
Y367689D3*
X1243881Y442492D3*
Y367689D3*
D21*
X875092Y1448848D3*
X949895D3*
D22*
X388185Y2655224D3*
D23*
X466925D3*
X545665D3*
X624406D3*
D21*
X1419085Y617510D3*
X1493888D3*
D25*
X593812Y1605114D3*
Y1683854D3*
Y1762594D3*
Y1841335D3*
Y1920075D3*
Y1998815D3*
Y2077555D3*
Y2156295D3*
X1223734Y1605114D3*
Y1683854D3*
Y1762594D3*
Y1841335D3*
Y1920075D3*
Y1998815D3*
Y2077555D3*
Y2156295D3*
D26*
X1637672Y2611470D3*
Y2511470D3*
Y2411470D3*
Y2311470D3*
Y2211470D3*
Y2111470D3*
D27*
X544945Y873621D3*
Y712203D3*
D28*
X1581416Y1530106D3*
Y1388374D3*
X1817636D3*
Y1530106D3*
D29*
X543807Y304978D3*
D30*
Y541198D3*
D31*
X728846Y423088D3*
D32*
X293781Y1455098D3*
D33*
Y1355098D3*
D21*
X1318888Y617510D3*
X1244085D3*
X431295Y2061412D3*
X356492D3*
X1256382Y1448848D3*
X1181579D3*
X1537661Y1667621D3*
X1462858D3*
D20*
X1462654Y1530106D3*
Y1455303D3*
Y1886394D3*
Y1811591D3*
D28*
X1581416Y1886394D3*
Y1744661D3*
X1817636D3*
Y1886394D3*
D35*
X1275134Y898790D3*
Y848790D3*
Y798790D3*
Y748790D3*
Y698790D3*
D36*
X1511354Y798790D3*
D21*
X431295Y1786383D3*
X356492D3*
X206272Y1923898D3*
X281075D3*
X206272Y1786383D3*
X281075D3*
X431295Y1923898D3*
X356492D3*
D28*
X412543Y1073808D3*
Y1215541D3*
X176323D3*
Y1073808D3*
G04 BoardOutline*
X0Y236220D2*
D11*
Y2716535D1*
X1968504Y236220D2*
Y2716535D1*
X236220Y0D2*
X1732283D1*
X236220Y2952756D2*
X1732283D1*
X0Y236220D2*
G02X236220Y0I12740J-223481D01*
G01*
Y2952756D2*
G02X0Y2716535I-195822J-40399D01*
G01*
X1968504D2*
G02X1732283Y2952756I-15197J221024D01*
G01*
Y0D2*
G02X1968504Y236220I223955J12266D01*
G01*
M02*
