G04 DipTrace 3.0.0.0*
G04 TopMask.gbr*
%MOIN*%
G04 #@! TF.FileFunction,Soldermask,Top*
G04 #@! TF.Part,Single*
%ADD11C,0.006*%
%ADD46C,0.14*%
%ADD51C,0.038*%
%ADD53C,0.067055*%
%ADD55R,0.033591X0.049339*%
%ADD57R,0.049339X0.033591*%
%ADD59R,0.135953X0.092646*%
%ADD61R,0.045402X0.092646*%
%ADD63R,0.068X0.103*%
%ADD65R,0.08674X0.031622*%
%ADD67C,0.098*%
%ADD69C,0.074929*%
%ADD71R,0.074929X0.074929*%
%ADD73R,0.070992X0.141858*%
%ADD75R,0.16548X0.070992*%
%ADD77R,0.063118X0.096583*%
%ADD79R,0.067055X0.059181*%
%ADD81R,0.063118X0.120205*%
%ADD83R,0.059181X0.067055*%
%ADD85C,0.098*%
%FSLAX26Y26*%
G04*
G70*
G90*
G75*
G01*
G04 TopMask*
%LPD*%
D51*
X2052661Y712575D3*
X1296332Y631316D3*
X1433846Y1256382D3*
X1246327D3*
X1633867Y1793938D3*
X1815136Y2181479D3*
X2658975Y1806440D3*
X2927753Y2181479D3*
X1515105Y350037D3*
X1433846Y1256382D3*
X1046306Y1368894D3*
X2552714Y1375144D3*
X3390302Y3394106D3*
X858581Y3400357D3*
X1227575Y3394106D3*
X1596364Y3400357D3*
X1958902Y3406608D3*
X2321440Y3394106D3*
X2677727D3*
X3034014D3*
X858581Y3400357D3*
X1227575Y3394106D3*
X1777633Y2131474D3*
X1340087Y2281490D3*
X1396354Y2125018D3*
X3259038Y3037819D3*
X3027764Y2844049D3*
X665016Y3050320D3*
X1690123Y2331531D3*
X1033804Y3044070D3*
X1690123Y2381531D3*
X1527606Y2531516D3*
Y2969062D3*
X1746379Y3037819D3*
X1683873Y2481531D3*
X2096416Y3037819D3*
X2152672Y2650278D3*
X2465205Y3037819D3*
X1977654Y2581531D3*
X2821492Y3037819D3*
Y2719035D3*
X2577717Y1862696D3*
X2727732Y1423623D3*
X2959007Y2118972D3*
X1471157Y2037714D3*
X1646369Y1987709D3*
X702315Y3287844D3*
X1071104Y3288050D3*
X1421140D3*
X1777428Y3287845D3*
X833783Y3050320D3*
X702315Y3287844D3*
X1208823Y3044070D3*
X2133715Y3294301D3*
X2271434Y3037819D3*
X1527606Y3081573D3*
X2640223Y3037819D3*
X2465205Y3281594D3*
X2990260Y3044070D3*
X2821492Y3294096D3*
X3190281Y3269093D3*
X3346547Y3037819D3*
X2113583Y187520D3*
X1908896Y3037819D3*
X1246327Y1843944D3*
X1196322Y1987709D3*
X1308833Y1812690D3*
X1133815Y2081469D3*
D3*
X489793Y3275549D3*
X2340192Y2681531D3*
X502294Y2906760D3*
X2352693Y2631526D3*
X502294Y2531720D3*
X2358944Y2581521D3*
X502294Y2169182D3*
X2371445Y2531516D3*
X502294Y1912701D3*
X2377696Y2481510D3*
X502294Y1550163D3*
X2377696Y2431505D3*
X508545Y1168873D3*
X2383946Y2381500D3*
X496043Y806335D3*
X2390197Y2331495D3*
X1571361Y350037D3*
Y500052D3*
X2283915Y1112617D3*
X946295Y2681531D3*
X577507Y3050320D3*
X946295Y3044070D3*
X1102556Y2631531D3*
X1308833Y3037819D3*
X1158818Y2581521D3*
X1665121Y3037819D3*
X1158818Y2531516D3*
X2015157Y3037819D3*
X1158818Y2481510D3*
X2377696Y3037819D3*
X1771382Y2794043D3*
X2733983Y3037819D3*
Y2800294D3*
X2283936Y1187625D3*
D85*
X289976Y3137829D3*
Y3287829D3*
Y2781542D3*
Y2931542D3*
Y2425255D3*
Y2575255D3*
Y2068967D3*
Y2218967D3*
Y1712680D3*
Y1862680D3*
Y1356392D3*
Y1506392D3*
Y1000105D3*
Y1150105D3*
Y643818D3*
Y793818D3*
D83*
X1471157Y1956000D3*
X1396354D3*
X2621471Y1956455D3*
X2696274D3*
X1633867Y418794D3*
X1708671D3*
D81*
X2515210Y1237630D3*
Y1048496D3*
D79*
X2702730Y1162622D3*
Y1237425D3*
X2721482Y1556413D3*
Y1631217D3*
D77*
X2277685Y1662675D3*
Y1528816D3*
D81*
X2909001Y1681427D3*
Y1492293D3*
D83*
X3077769Y1668925D3*
X3152572D3*
D75*
X1540108Y637567D3*
Y716307D3*
Y795047D3*
Y873787D3*
Y952528D3*
Y1031268D3*
Y1110008D3*
Y1188748D3*
X2170029Y637567D3*
Y716307D3*
Y795047D3*
Y873787D3*
Y952528D3*
Y1031268D3*
Y1110008D3*
Y1188748D3*
D73*
X2821492Y850089D3*
X2982909D3*
D71*
X1746379Y87509D3*
D69*
X1923545D3*
D67*
X1697167Y185934D3*
X1972757D3*
D85*
X2965257Y662570D3*
X2815257D3*
X3652829Y800084D3*
Y650084D3*
Y1156371D3*
Y1006371D3*
Y1512659D3*
Y1362659D3*
Y1868946D3*
Y1718946D3*
Y2225234D3*
Y2075234D3*
Y2581521D3*
Y2431521D3*
Y2937808D3*
Y2787808D3*
Y3294096D3*
Y3144096D3*
D83*
X2371445Y668820D3*
X2446248D3*
D65*
X2815241Y1281385D3*
Y1231385D3*
Y1181385D3*
Y1131385D3*
X3027840D3*
Y1181385D3*
Y1231385D3*
Y1281385D3*
D83*
X3502814Y656319D3*
X3428010D3*
X3509064Y1012606D3*
X3434261D3*
X3509064Y1362643D3*
X3434261D3*
X3502814Y1712680D3*
X3428010D3*
X3509064Y2075218D3*
X3434261D3*
X3515315Y2425255D3*
X3440512D3*
X3509064Y2775291D3*
X3434261D3*
X3509064Y3137829D3*
X3434261D3*
X1383841Y1187625D3*
X1309038D3*
X1633867Y500052D3*
X1708671D3*
X1383841Y1031358D3*
X1309038D3*
X3077951Y1587923D3*
X3152755D3*
X2446453Y800084D3*
X2371650D3*
X2446453Y587562D3*
X2371650D3*
X414990Y3331600D3*
X489793D3*
X427491Y2962811D3*
X502294D3*
X427491Y2587772D3*
X502294D3*
X427491Y2225234D3*
X502294D3*
X427491Y1850194D3*
X502294D3*
X427491Y1481406D3*
X502294D3*
X433741Y1112617D3*
X508545D3*
X421240Y750079D3*
X496043D3*
X1940150Y500052D3*
X1865346D3*
X2102667D3*
X2027864D3*
D71*
X1390092Y87509D3*
D69*
X1567257D3*
D67*
X1340879Y185934D3*
X1616470D3*
D63*
X533752Y87509D3*
X633752D3*
X733752D3*
X833752D3*
X933752D3*
X1033752D3*
X1133752D3*
X1233752D3*
Y412509D3*
X1133752D3*
X1033752D3*
X933752D3*
X833752D3*
X733752D3*
X633752D3*
X533752D3*
D65*
X1240076Y2681531D3*
Y2631531D3*
Y2581531D3*
Y2531531D3*
Y2481531D3*
Y2431531D3*
Y2381531D3*
Y2331531D3*
Y2281531D3*
Y2231531D3*
Y2181531D3*
Y2131531D3*
Y2081531D3*
Y2031531D3*
X1610155D3*
Y2081531D3*
Y2131531D3*
Y2181531D3*
Y2231531D3*
Y2281531D3*
Y2331531D3*
Y2381531D3*
Y2431531D3*
Y2481531D3*
Y2531531D3*
Y2581531D3*
Y2631531D3*
Y2681531D3*
X2465205D3*
Y2631531D3*
Y2581531D3*
Y2531531D3*
Y2481531D3*
Y2431531D3*
Y2381531D3*
Y2331531D3*
Y2281531D3*
Y2231531D3*
Y2181531D3*
Y2131531D3*
Y2081531D3*
Y2031531D3*
X2835283D3*
Y2081531D3*
Y2131531D3*
Y2181531D3*
Y2231531D3*
Y2281531D3*
Y2331531D3*
Y2381531D3*
Y2431531D3*
Y2481531D3*
Y2531531D3*
Y2581531D3*
Y2631531D3*
Y2681531D3*
D61*
X2446453Y1481406D3*
X2537004D3*
X2627555D3*
D59*
X2537004Y1709752D3*
D57*
X2965257Y987604D3*
Y1062407D3*
X2874706Y1025005D3*
D83*
X2371445Y881343D3*
X2446248D3*
D55*
X627512Y3337850D3*
X702315D3*
X664913Y3428402D3*
X783778Y3444112D3*
X858581D3*
X821180Y3534663D3*
D83*
X790029Y3325349D3*
X864832D3*
D79*
X665016Y3131579D3*
Y3206382D3*
X577507Y3131579D3*
Y3206382D3*
D83*
X640013Y3506618D3*
X714816D3*
D85*
X646264Y3650383D3*
X796264D3*
D79*
X746274Y3131579D3*
Y3206382D3*
X833783Y3131579D3*
Y3206382D3*
D55*
X996301Y3337850D3*
X1071104D3*
X1033702Y3428402D3*
X1140066Y3444112D3*
X1214869D3*
X1177467Y3534663D3*
D83*
X1146316Y3325349D3*
X1221119D3*
D79*
X1033804Y3131579D3*
Y3206382D3*
X946295Y3131579D3*
Y3206382D3*
D83*
X1002549Y3506614D3*
X1077352D3*
D85*
X1002551Y3650383D3*
X1152551D3*
D79*
X1121314Y3131579D3*
Y3206382D3*
X1208823Y3131579D3*
Y3206382D3*
D55*
X1346337Y3337850D3*
X1421140D3*
X1383739Y3428402D3*
X1496353Y3444112D3*
X1571156D3*
X1533755Y3534663D3*
D83*
X1502604Y3325349D3*
X1577407D3*
D79*
X1390092Y3131579D3*
Y3206382D3*
X1308833Y3131579D3*
Y3206382D3*
D83*
X1358839Y3506618D3*
X1433642D3*
D85*
X1358839Y3650383D3*
X1508839D3*
D79*
X1477601Y3131579D3*
Y3206382D3*
X1565110Y3131579D3*
Y3206382D3*
D55*
X1702625Y3337850D3*
X1777428D3*
X1740026Y3428402D3*
X1852640Y3444112D3*
X1927444D3*
X1890042Y3534663D3*
D83*
X1858891Y3325349D3*
X1933694D3*
D79*
X1746379Y3131579D3*
Y3206382D3*
X1665121Y3131579D3*
Y3206382D3*
D83*
X1715126Y3506618D3*
X1789929D3*
D85*
X1715126Y3650383D3*
X1865126D3*
D79*
X1827638Y3131579D3*
Y3206382D3*
X1908896Y3131579D3*
Y3206382D3*
D55*
X2058912Y3337850D3*
X2133715D3*
X2096314Y3428402D3*
X2208928Y3444112D3*
X2283731D3*
X2246329Y3534663D3*
D83*
X2215178Y3325349D3*
X2289982D3*
D79*
X2096416Y3131579D3*
Y3206382D3*
X2015157Y3131579D3*
Y3206382D3*
D83*
X2071413Y3506618D3*
X2146217D3*
D85*
X2071413Y3650383D3*
X2221413D3*
D79*
X2183925Y3131579D3*
Y3206382D3*
X2271434Y3131579D3*
Y3206382D3*
D55*
X2415199Y3337850D3*
X2490003D3*
X2452601Y3428402D3*
X2565215Y3444112D3*
X2640018D3*
X2602617Y3534663D3*
D83*
X2571466Y3325349D3*
X2646269D3*
D79*
X2465205Y3131579D3*
Y3206382D3*
X2377696Y3131579D3*
Y3206382D3*
D83*
X2427701Y3506618D3*
X2502504D3*
D85*
X2427701Y3650383D3*
X2577701D3*
D79*
X2552714Y3131579D3*
Y3206382D3*
X2640223Y3131579D3*
Y3206382D3*
D55*
X2771487Y3337850D3*
X2846290D3*
X2808888Y3428402D3*
X2921503Y3444112D3*
X2996306D3*
X2958904Y3534663D3*
D83*
X2927753Y3325349D3*
X3002556D3*
D79*
X2821492Y3131579D3*
Y3206382D3*
X2733983Y3131579D3*
Y3206382D3*
D83*
X2783988Y3506618D3*
X2858791D3*
D85*
X2783988Y3650383D3*
X2933988D3*
D79*
X2902751Y3131579D3*
Y3206382D3*
X2990260Y3131579D3*
Y3206382D3*
D55*
X3127774Y3337850D3*
X3202577D3*
X3165176Y3428402D3*
X3277790Y3444112D3*
X3352593D3*
X3315192Y3534663D3*
D83*
X3284041Y3325349D3*
X3358844D3*
D79*
X3165278Y3131579D3*
Y3206382D3*
X3077769Y3131579D3*
Y3206382D3*
D83*
X3140276Y3506618D3*
X3215079D3*
D85*
X3140276Y3650383D3*
X3290276D3*
D79*
X3259038Y3131579D3*
Y3206382D3*
X3346547Y3131579D3*
Y3206382D3*
D46*
X3740157Y196850D3*
X196850D3*
Y3740157D3*
X3740157D3*
D53*
X2083915Y93760D3*
X2183915D3*
X2283915D3*
X2383915D3*
X2483915D3*
X2583915D3*
G04 BoardOutline*
X0Y3937008D2*
D11*
Y0D1*
X2671476D1*
Y381290D1*
X3102772D1*
Y0D1*
X3937008D1*
Y3937008D1*
X0D1*
M02*
