G04 DipTrace 3.0.0.0*
G04 Bottom.gbr*
%MOIN*%
G04 #@! TF.FileFunction,Copper,L2,Bot*
G04 #@! TF.Part,Single*
%ADD11C,0.006*%
G04 #@! TA.AperFunction,Conductor*
%ADD14C,0.02*%
%ADD15C,0.01*%
%ADD16C,0.008*%
G04 #@! TA.AperFunction,ViaPad*
%ADD17C,0.03*%
G04 #@! TA.AperFunction,CopperBalancing*
%ADD20C,0.025*%
%ADD21C,0.013*%
G04 #@! TA.AperFunction,ComponentPad*
%ADD23C,0.09*%
%ADD33R,0.066929X0.066929*%
%ADD34C,0.066929*%
%ADD35C,0.09*%
%ADD45C,0.059055*%
%FSLAX26Y26*%
G04*
G70*
G90*
G75*
G01*
G04 Bottom*
%LPD*%
X2052661Y712575D2*
D14*
X2027659D1*
X1796385Y481301D1*
Y312533D1*
X1777633Y293781D1*
X1340087D1*
X1296332Y337535D1*
Y631316D1*
X1433846Y1256382D2*
D15*
X1246327D1*
X1633867Y1793938D2*
Y1837693D1*
X1827638Y2031463D1*
Y2168978D1*
X1815136Y2181479D1*
X2658975Y1806440D2*
X2833993D1*
X3065268Y2037714D1*
Y2131474D1*
X3015262Y2181479D1*
X2927753D1*
X1515105Y350037D2*
D16*
Y1231379D1*
X1490102Y1256382D1*
X1433846D1*
X1046306Y1368894D2*
D17*
X2552714D1*
Y1375144D1*
X3390302Y3394106D2*
Y3219088D1*
Y1931453D1*
X2821492Y1362643D1*
X2565215D1*
X2552714Y1375144D1*
X3390302Y3219088D2*
X3034014D1*
Y3394106D1*
Y3219088D2*
X2677727D1*
Y3394106D1*
Y3219088D2*
X2321440D1*
Y3394106D1*
Y3219088D2*
X1958902D1*
Y3406608D1*
Y3219088D2*
X1596364D1*
Y3400357D1*
Y3219088D2*
X1227575D1*
Y3394106D1*
Y3219088D2*
X858581D1*
Y3400357D1*
X1777633Y2131474D2*
X1546358D1*
X1425986Y2251846D1*
X1396343Y2281490D1*
X1340087D1*
X1396354Y2125018D2*
Y2222215D1*
X1425986Y2251846D1*
X3259038Y3037819D2*
D16*
X3221534D1*
X3027764Y2844049D1*
X665016Y3050320D2*
X690018D1*
X1002551Y2737787D1*
Y2431505D1*
X1102525Y2331531D1*
X1690123D1*
X1033804Y3044070D2*
X1108812D1*
X1146316Y3006566D1*
Y2619025D1*
X1121314Y2594022D1*
X1115063D1*
X1083810Y2562769D1*
Y2437756D1*
X1140034Y2381531D1*
X1690123D1*
X1527606Y2531516D2*
Y2969062D1*
X1746379Y3037819D2*
X1683873Y2975312D1*
Y2481531D1*
X2096416Y3037819D2*
Y2762790D1*
X2152672Y2706534D1*
Y2650278D1*
X2465205Y3037819D2*
Y2806545D1*
X2371445Y2712785D1*
X2296437D1*
X2165184Y2581531D1*
X1977654D1*
X2821492Y3037819D2*
Y2719035D1*
X2577717Y1862696D2*
D17*
X2621471D1*
Y1529885D1*
X2727732Y1423623D1*
X2959007Y2118972D2*
D16*
Y2012711D1*
X2808991Y1862696D1*
X2621471D1*
X1471157Y2037714D2*
X1596364D1*
X1646369Y1987709D1*
X702315Y3287844D2*
D15*
Y3331804D1*
X596259Y3437861D1*
Y3600378D1*
X646264Y3650383D1*
X1071104Y3288050D2*
D16*
Y3425564D1*
X1002551Y3494117D1*
Y3650383D1*
X1421140Y3288050D2*
X1408639D1*
Y3469319D1*
X1358839Y3519119D1*
Y3650383D1*
X1777428Y3287845D2*
X1758881D1*
X1739924Y3306802D1*
Y3538076D1*
X1715126Y3562874D1*
Y3650383D1*
X833783Y3050320D2*
D15*
Y3106576D1*
X702315Y3238045D1*
Y3287844D1*
X1208823Y3044070D2*
Y3125328D1*
X1202572Y3131579D1*
X855235D1*
X833783Y3110127D1*
Y3106576D1*
X2133715Y3294301D2*
D16*
X2108713D1*
X2096211Y3306802D1*
Y3550577D1*
X2071413Y3575375D1*
Y3650383D1*
X2271434Y3037819D2*
D15*
Y3100325D1*
X2240181Y3131579D1*
X2058912D1*
X1527606D1*
Y3081573D1*
Y3131579D2*
X1202572D1*
X2640223Y3037819D2*
Y3112827D1*
X2621471Y3131579D1*
X2240181D1*
X2465205Y3281594D2*
D16*
Y3531621D1*
X2427701Y3569125D1*
Y3650383D1*
X2990260Y3044070D2*
D15*
Y3094075D1*
X2952756Y3131579D1*
X2621471D1*
X2821492Y3294096D2*
D16*
Y3531621D1*
X2783988Y3569125D1*
Y3650383D1*
X3190281Y3269093D2*
Y3512869D1*
X3146526Y3556623D1*
Y3644133D1*
X3140276Y3650383D1*
X3346547Y3037819D2*
D15*
Y3081573D1*
X3296542Y3131579D1*
X2952756D1*
X1390092Y87509D2*
D17*
X702520D1*
X558755Y231274D1*
Y475050D1*
X389987Y643818D1*
X289976D1*
X1972757Y185934D2*
X1754046D1*
X1697167D1*
X1616470D1*
X1396816D1*
X1340879D1*
X1390092Y87509D2*
Y179210D1*
X1396816Y185934D1*
X1746379Y87509D2*
Y178268D1*
X1754046Y185934D1*
X1972757D2*
X2113583Y187520D1*
X1908896Y3037819D2*
D15*
Y3019067D1*
X1927648Y3000315D1*
X2046411D1*
X2058912Y3012816D1*
Y3131579D1*
X1246327Y1843944D2*
D14*
Y1937703D1*
X1196322Y1987709D1*
X1308833Y1812690D2*
X1190071D1*
X1133815Y1868946D1*
Y2081469D1*
X489793Y3275549D2*
D16*
Y3031773D1*
X558755Y2962811D1*
Y2662780D1*
X590008Y2631526D1*
Y2281490D1*
X633762Y2237735D1*
Y2106471D1*
X996301Y1743933D1*
X2058912D1*
X2077664Y1762685D1*
Y2419004D1*
X2340192Y2681531D1*
X502294Y2906760D2*
Y2631731D1*
X546253Y2587772D1*
Y2262738D1*
X596259Y2212732D1*
Y2093970D1*
X977549Y1712680D1*
X2108917D1*
Y2387751D1*
X2352693Y2631526D1*
X502294Y2531720D2*
Y2244190D1*
X558755Y2187730D1*
Y2087719D1*
X965047Y1681427D1*
X2140171D1*
Y2362748D1*
X2358944Y2581521D1*
X502294Y2169182D2*
Y2100425D1*
X952546Y1650173D1*
X2146421D1*
X2171424Y1675176D1*
Y2331495D1*
X2371445Y2531516D1*
X502294Y1912701D2*
X640013D1*
X933794Y1618920D1*
X2158923D1*
X2202677Y1662675D1*
Y2306492D1*
X2377696Y2481510D1*
X502294Y1550163D2*
X952546D1*
X983799Y1581416D1*
X2171424D1*
X2233930Y1643923D1*
Y2287740D1*
X2377696Y2431505D1*
X508545Y1168873D2*
X827533D1*
X940045Y1281385D1*
Y1493907D1*
X996301Y1550163D1*
X2190176D1*
X2265184Y1625171D1*
Y2262738D1*
X2383946Y2381500D1*
X496043Y806335D2*
X615010D1*
X971298Y1162622D1*
Y1475155D1*
X1008802Y1512659D1*
X2208928D1*
X2296437Y1600168D1*
Y2237735D1*
X2390197Y2331495D1*
X1571361Y350037D2*
Y500052D1*
X2283915Y93760D2*
D14*
Y1112617D1*
X946295Y2681531D2*
D16*
X577507Y3050320D1*
X946295Y3044070D2*
X965047D1*
X996301Y3012816D1*
Y2837798D1*
X1077559Y2756539D1*
Y2656529D1*
X1102556Y2631531D1*
X1308833Y3037819D2*
X1321335D1*
Y2744038D1*
X1158818Y2581521D1*
X1665121Y3037819D2*
Y2800294D1*
X1602614Y2737787D1*
Y2437756D1*
X1577612Y2412753D1*
X1152567D1*
X1115063Y2450257D1*
Y2512764D1*
X1133815Y2531516D1*
X1158818D1*
X2015157Y3037819D2*
Y3044070D1*
X1996406Y3062822D1*
X1565110D1*
X1477601Y2975312D1*
Y2631526D1*
X1327585Y2481510D1*
X1158818D1*
X2377696Y3037819D2*
Y2781542D1*
X2346442Y2750289D1*
X2296437D1*
X2158923Y2612774D1*
X1990155D1*
X1808886Y2794043D1*
X1771382D1*
X2733983Y3037819D2*
Y2800294D1*
X2183915Y93760D2*
D14*
Y1087604D1*
X2283936Y1187625D1*
D17*
X2052661Y712575D3*
X1296332Y631316D3*
X1433846Y1256382D3*
X1246327D3*
X1633867Y1793938D3*
X1815136Y2181479D3*
X2658975Y1806440D3*
X2927753Y2181479D3*
X1515105Y350037D3*
X1433846Y1256382D3*
X1046306Y1368894D3*
X2552714Y1375144D3*
X3390302Y3394106D3*
X858581Y3400357D3*
X1227575Y3394106D3*
X1596364Y3400357D3*
X1958902Y3406608D3*
X2321440Y3394106D3*
X2677727D3*
X3034014D3*
X858581Y3400357D3*
X1227575Y3394106D3*
X1777633Y2131474D3*
X1340087Y2281490D3*
X1396354Y2125018D3*
X3259038Y3037819D3*
X3027764Y2844049D3*
X665016Y3050320D3*
X1690123Y2331531D3*
X1033804Y3044070D3*
X1690123Y2381531D3*
X1527606Y2531516D3*
Y2969062D3*
X1746379Y3037819D3*
X1683873Y2481531D3*
X2096416Y3037819D3*
X2152672Y2650278D3*
X2465205Y3037819D3*
X1977654Y2581531D3*
X2821492Y3037819D3*
Y2719035D3*
X2577717Y1862696D3*
X2727732Y1423623D3*
X2959007Y2118972D3*
X1471157Y2037714D3*
X1646369Y1987709D3*
X702315Y3287844D3*
X1071104Y3288050D3*
X1421140D3*
X1777428Y3287845D3*
X833783Y3050320D3*
X702315Y3287844D3*
X1208823Y3044070D3*
X2133715Y3294301D3*
X2271434Y3037819D3*
X1527606Y3081573D3*
X2640223Y3037819D3*
X2465205Y3281594D3*
X2990260Y3044070D3*
X2821492Y3294096D3*
X3190281Y3269093D3*
X3346547Y3037819D3*
X2113583Y187520D3*
X1908896Y3037819D3*
X1246327Y1843944D3*
X1196322Y1987709D3*
X1308833Y1812690D3*
X1133815Y2081469D3*
D3*
X489793Y3275549D3*
X2340192Y2681531D3*
X502294Y2906760D3*
X2352693Y2631526D3*
X502294Y2531720D3*
X2358944Y2581521D3*
X502294Y2169182D3*
X2371445Y2531516D3*
X502294Y1912701D3*
X2377696Y2481510D3*
X502294Y1550163D3*
X2377696Y2431505D3*
X508545Y1168873D3*
X2383946Y2381500D3*
X496043Y806335D3*
X2390197Y2331495D3*
X1571361Y350037D3*
Y500052D3*
X2283915Y1112617D3*
X946295Y2681531D3*
X577507Y3050320D3*
X946295Y3044070D3*
X1102556Y2631531D3*
X1308833Y3037819D3*
X1158818Y2581521D3*
X1665121Y3037819D3*
X1158818Y2531516D3*
X2015157Y3037819D3*
X1158818Y2481510D3*
X2377696Y3037819D3*
X1771382Y2794043D3*
X2733983Y3037819D3*
Y2800294D3*
X2283936Y1187625D3*
X523772Y3869291D2*
D20*
X3425315D1*
X523772Y3844423D2*
X3425315D1*
X523772Y3819554D2*
X3425315D1*
X523772Y3794685D2*
X3425315D1*
X523772Y3769816D2*
X3425315D1*
X523772Y3744948D2*
X3425315D1*
X523772Y3720079D2*
X3425315D1*
X523772Y3695210D2*
X591965D1*
X700579D2*
X741965D1*
X850579D2*
X948264D1*
X1056829D2*
X1098264D1*
X1206829D2*
X1304563D1*
X1413128D2*
X1454563D1*
X1563128D2*
X1660813D1*
X1769426D2*
X1810813D1*
X1919426D2*
X2017112D1*
X2125725D2*
X2167112D1*
X2275725D2*
X2373411D1*
X2481975D2*
X2523411D1*
X2631975D2*
X2729710D1*
X2838274D2*
X2879710D1*
X2988274D2*
X3085960D1*
X3194573D2*
X3235960D1*
X3344573D2*
X3425315D1*
X523772Y3670341D2*
X578245D1*
X714299D2*
X728245D1*
X864299D2*
X934544D1*
X1070598D2*
X1084504D1*
X1220598D2*
X1290794D1*
X1426848D2*
X1440794D1*
X1576848D2*
X1647092D1*
X1783147D2*
X1797096D1*
X1933147D2*
X2003391D1*
X2139446D2*
X2153391D1*
X2289446D2*
X2359690D1*
X2495745D2*
X2509693D1*
X2645745D2*
X2715940D1*
X2851995D2*
X2865940D1*
X3001995D2*
X3072239D1*
X3208294D2*
X3222284D1*
X3358294D2*
X3425315D1*
X523772Y3645472D2*
X575462D1*
X717083D2*
X725462D1*
X867083D2*
X931712D1*
X1073381D2*
X1081751D1*
X1223381D2*
X1288010D1*
X1429680D2*
X1438010D1*
X1579680D2*
X1644309D1*
X1785930D2*
X1794266D1*
X1935930D2*
X2000608D1*
X2142229D2*
X2150608D1*
X2292229D2*
X2356858D1*
X2498528D2*
X2506869D1*
X2648528D2*
X2713157D1*
X2854827D2*
X2863157D1*
X3004827D2*
X3069456D1*
X3211077D2*
X3219457D1*
X3361077D2*
X3425315D1*
X523772Y3620604D2*
X582053D1*
X710442D2*
X732053D1*
X860442D2*
X938352D1*
X1066741D2*
X1088352D1*
X1216741D2*
X1294651D1*
X1423040D2*
X1444651D1*
X1573040D2*
X1650950D1*
X1779338D2*
X1800950D1*
X1929338D2*
X2007249D1*
X2135588D2*
X2157249D1*
X2285588D2*
X2363499D1*
X2491887D2*
X2513499D1*
X2641887D2*
X2719797D1*
X2848186D2*
X2869797D1*
X2998186D2*
X3076096D1*
X3204485D2*
X3226096D1*
X3354485D2*
X3425315D1*
X512932Y3595735D2*
X602463D1*
X690081D2*
X752463D1*
X840081D2*
X958762D1*
X1046331D2*
X1108762D1*
X1196331D2*
X1315061D1*
X1402629D2*
X1465061D1*
X1552629D2*
X1671311D1*
X1758928D2*
X1821311D1*
X1908928D2*
X2027610D1*
X2115227D2*
X2177610D1*
X2265227D2*
X2383909D1*
X2471526D2*
X2533909D1*
X2621526D2*
X2740208D1*
X2827776D2*
X2890208D1*
X2977776D2*
X3096458D1*
X3184075D2*
X3246458D1*
X3334075D2*
X3443040D1*
X491399Y3570866D2*
X3467014D1*
X469817Y3545997D2*
X3491038D1*
X448284Y3521129D2*
X3515061D1*
X426702Y3496260D2*
X3539085D1*
X405169Y3471391D2*
X3563059D1*
X383635Y3446522D2*
X3587083D1*
X362053Y3421654D2*
X823997D1*
X893157D2*
X1198167D1*
X1256975D2*
X1561790D1*
X1630950D2*
X1920969D1*
X1996819D2*
X2292063D1*
X2350823D2*
X2648313D1*
X2707122D2*
X3004612D1*
X3063420D2*
X3360911D1*
X3419719D2*
X3894114D1*
X42473Y3396785D2*
X817600D1*
X899602D2*
X1186692D1*
X1268499D2*
X1555344D1*
X1637346D2*
X1917893D1*
X1999895D2*
X2280540D1*
X2362346D2*
X2636838D1*
X2718645D2*
X2993088D1*
X3074944D2*
X3349387D1*
X3431194D2*
X3894114D1*
X42473Y3371916D2*
X817600D1*
X899602D2*
X1186594D1*
X1268596D2*
X1555344D1*
X1637346D2*
X1917893D1*
X1999895D2*
X2280442D1*
X2362444D2*
X2636741D1*
X2718743D2*
X2992991D1*
X3074993D2*
X3349290D1*
X3431292D2*
X3894114D1*
X42473Y3347047D2*
X253049D1*
X326897D2*
X817600D1*
X899602D2*
X1186594D1*
X1268596D2*
X1555344D1*
X1637346D2*
X1917893D1*
X1999895D2*
X2280442D1*
X2362444D2*
X2636741D1*
X2718743D2*
X2992991D1*
X3074993D2*
X3349290D1*
X3431292D2*
X3606858D1*
X3698772D2*
X3894114D1*
X42473Y3322178D2*
X228196D1*
X351751D2*
X817600D1*
X899602D2*
X1186594D1*
X1268596D2*
X1555344D1*
X1637346D2*
X1917893D1*
X1999895D2*
X2280442D1*
X2362444D2*
X2636741D1*
X2718743D2*
X2992991D1*
X3074993D2*
X3349290D1*
X3431292D2*
X3587864D1*
X3717815D2*
X3894114D1*
X42473Y3297310D2*
X219651D1*
X360295D2*
X455540D1*
X524065D2*
X817600D1*
X899602D2*
X1186594D1*
X1268596D2*
X1555344D1*
X1637346D2*
X1917893D1*
X1999895D2*
X2280442D1*
X2362444D2*
X2636741D1*
X2718743D2*
X2992991D1*
X3074993D2*
X3349290D1*
X3431292D2*
X3581907D1*
X3723772D2*
X3894114D1*
X42473Y3272441D2*
X220725D1*
X359221D2*
X448899D1*
X530657D2*
X817600D1*
X899602D2*
X1186594D1*
X1268596D2*
X1555344D1*
X1637346D2*
X1917893D1*
X1999895D2*
X2280442D1*
X2362444D2*
X2636741D1*
X2718743D2*
X2992991D1*
X3074993D2*
X3349290D1*
X3431292D2*
X3585325D1*
X3720305D2*
X3894114D1*
X42473Y3247572D2*
X232053D1*
X347893D2*
X459788D1*
X519817D2*
X817600D1*
X3431292D2*
X3600071D1*
X3705608D2*
X3894114D1*
X42473Y3222703D2*
X266233D1*
X313713D2*
X459788D1*
X519817D2*
X817600D1*
X3431292D2*
X3894114D1*
X42473Y3197835D2*
X254417D1*
X325530D2*
X459788D1*
X519817D2*
X823997D1*
X3431292D2*
X3607835D1*
X3697795D2*
X3894114D1*
X42473Y3172966D2*
X228684D1*
X351262D2*
X459788D1*
X519817D2*
X3349290D1*
X3431292D2*
X3588206D1*
X3717424D2*
X3894114D1*
X42473Y3148097D2*
X219749D1*
X360198D2*
X459788D1*
X519817D2*
X3349290D1*
X3431292D2*
X3581956D1*
X3723723D2*
X3894114D1*
X42473Y3123228D2*
X220530D1*
X359417D2*
X459788D1*
X519817D2*
X3349290D1*
X3431292D2*
X3585081D1*
X3720549D2*
X3894114D1*
X42473Y3098360D2*
X231467D1*
X348479D2*
X459788D1*
X519817D2*
X3349290D1*
X3431292D2*
X3599338D1*
X3706340D2*
X3894114D1*
X42473Y3073491D2*
X263987D1*
X316008D2*
X459788D1*
X519817D2*
X544260D1*
X610735D2*
X631760D1*
X707317D2*
X918967D1*
X973626D2*
X1006467D1*
X1061126D2*
X1291868D1*
X1325823D2*
X1534397D1*
X2032122D2*
X2079417D1*
X2113420D2*
X2360715D1*
X2394670D2*
X2448215D1*
X2482170D2*
X2717014D1*
X2750969D2*
X2804514D1*
X2838469D2*
X3242063D1*
X3276018D2*
X3349290D1*
X3431292D2*
X3894114D1*
X42473Y3048622D2*
X459788D1*
X519817D2*
X536521D1*
X733098D2*
X905588D1*
X1145647D2*
X1269358D1*
X1349114D2*
X1509544D1*
X2135881D2*
X2338254D1*
X2417131D2*
X2425754D1*
X2504680D2*
X2694553D1*
X2773430D2*
X2782063D1*
X2860930D2*
X3190940D1*
X3298479D2*
X3349290D1*
X3431292D2*
X3894114D1*
X42473Y3023753D2*
X461008D1*
X539202D2*
X547150D1*
X758001D2*
X911106D1*
X1170305D2*
X1270481D1*
X1351311D2*
X1484641D1*
X1567424D2*
X1626780D1*
X1784710D2*
X1976829D1*
X2134758D2*
X2339378D1*
X2416057D2*
X2426878D1*
X2503557D2*
X2695628D1*
X2772307D2*
X2783161D1*
X2859807D2*
X3166087D1*
X3297356D2*
X3349290D1*
X3431292D2*
X3894114D1*
X42473Y2998885D2*
X274924D1*
X305022D2*
X481272D1*
X564055D2*
X587571D1*
X670354D2*
X700071D1*
X782854D2*
X966282D1*
X1026311D2*
X1112620D1*
X1176311D2*
X1291331D1*
X1351311D2*
X1459788D1*
X1554436D2*
X1635129D1*
X1748821D2*
X2066428D1*
X2126409D2*
X2347678D1*
X2407708D2*
X2435227D1*
X2495208D2*
X2703977D1*
X2764006D2*
X2791477D1*
X2851506D2*
X3141233D1*
X3223967D2*
X3349290D1*
X3431292D2*
X3619309D1*
X3686321D2*
X3894114D1*
X42473Y2974016D2*
X233713D1*
X346233D2*
X506174D1*
X586370D2*
X612424D1*
X695208D2*
X724924D1*
X807708D2*
X966282D1*
X1026311D2*
X1116331D1*
X1176311D2*
X1291331D1*
X1351311D2*
X1447581D1*
X1568303D2*
X1635129D1*
X1723967D2*
X2066428D1*
X2126409D2*
X2347678D1*
X2407708D2*
X2435227D1*
X2495208D2*
X2703977D1*
X2764006D2*
X2791477D1*
X2851506D2*
X3116331D1*
X3199114D2*
X3349290D1*
X3431292D2*
X3592161D1*
X3713469D2*
X3894114D1*
X42473Y2949147D2*
X221262D1*
X358684D2*
X528733D1*
X588762D2*
X637278D1*
X720061D2*
X749778D1*
X832561D2*
X966282D1*
X1026311D2*
X1116331D1*
X1176311D2*
X1291331D1*
X1351311D2*
X1447581D1*
X1563079D2*
X1635129D1*
X1713860D2*
X2066428D1*
X2126409D2*
X2347678D1*
X2407708D2*
X2435227D1*
X2495208D2*
X2703977D1*
X2764006D2*
X2791477D1*
X2851506D2*
X3091477D1*
X3174260D2*
X3349290D1*
X3431292D2*
X3582786D1*
X3722893D2*
X3894114D1*
X42473Y2924278D2*
X219358D1*
X360588D2*
X465501D1*
X588762D2*
X662180D1*
X744963D2*
X774680D1*
X857463D2*
X966282D1*
X1026311D2*
X1116331D1*
X1176311D2*
X1291331D1*
X1351311D2*
X1447581D1*
X1557610D2*
X1635129D1*
X1713860D2*
X2066428D1*
X2126409D2*
X2347678D1*
X2407708D2*
X2435227D1*
X2495208D2*
X2703977D1*
X2764006D2*
X2791477D1*
X2851506D2*
X3066624D1*
X3149407D2*
X3349290D1*
X3431292D2*
X3583176D1*
X3722503D2*
X3894114D1*
X42473Y2899409D2*
X226975D1*
X352971D2*
X461985D1*
X588762D2*
X687034D1*
X769817D2*
X799534D1*
X882317D2*
X966282D1*
X1026311D2*
X1116331D1*
X1176311D2*
X1291331D1*
X1351311D2*
X1447581D1*
X1557610D2*
X1635129D1*
X1713860D2*
X2066428D1*
X2126409D2*
X2347678D1*
X2407708D2*
X2435227D1*
X2495208D2*
X2703977D1*
X2764006D2*
X2791477D1*
X2851506D2*
X3041721D1*
X3124504D2*
X3349290D1*
X3431292D2*
X3593626D1*
X3712053D2*
X3894114D1*
X42473Y2874541D2*
X249485D1*
X330462D2*
X472288D1*
X588762D2*
X711887D1*
X794670D2*
X824387D1*
X907170D2*
X966282D1*
X1026311D2*
X1116331D1*
X1176311D2*
X1291331D1*
X1351311D2*
X1447581D1*
X1557610D2*
X1635129D1*
X1713860D2*
X2066428D1*
X2126409D2*
X2347678D1*
X2407708D2*
X2435227D1*
X2495208D2*
X2703977D1*
X2764006D2*
X2791477D1*
X2851506D2*
X3001780D1*
X3099651D2*
X3349290D1*
X3431292D2*
X3624094D1*
X3681585D2*
X3894114D1*
X42473Y2849672D2*
X280344D1*
X299550D2*
X472288D1*
X588762D2*
X736741D1*
X819524D2*
X849290D1*
X932073D2*
X966282D1*
X1026311D2*
X1116331D1*
X1176311D2*
X1291331D1*
X1351311D2*
X1447581D1*
X1557610D2*
X1635129D1*
X1713860D2*
X2066428D1*
X2126409D2*
X2347678D1*
X2407708D2*
X2435227D1*
X2495208D2*
X2703977D1*
X2764006D2*
X2791477D1*
X2851506D2*
X2987180D1*
X3074797D2*
X3349290D1*
X3431292D2*
X3620920D1*
X3684758D2*
X3894114D1*
X42473Y2824803D2*
X234348D1*
X345598D2*
X472288D1*
X588762D2*
X761643D1*
X844426D2*
X874143D1*
X956926D2*
X969598D1*
X1050676D2*
X1116331D1*
X1176311D2*
X1291331D1*
X1351311D2*
X1447581D1*
X1557610D2*
X1635129D1*
X1713860D2*
X1745725D1*
X1797014D2*
X2066428D1*
X2126409D2*
X2347678D1*
X2407708D2*
X2435227D1*
X2495208D2*
X2701780D1*
X2766155D2*
X2791477D1*
X2851506D2*
X2991917D1*
X3063616D2*
X3349290D1*
X3431292D2*
X3592698D1*
X3712981D2*
X3894114D1*
X42473Y2799934D2*
X221506D1*
X358440D2*
X472288D1*
X588762D2*
X786497D1*
X869280D2*
X898997D1*
X981780D2*
X992754D1*
X1075579D2*
X1116331D1*
X1176311D2*
X1291331D1*
X1351311D2*
X1447581D1*
X1557610D2*
X1623362D1*
X1713860D2*
X1730833D1*
X1844378D2*
X2066428D1*
X2126409D2*
X2347678D1*
X2407708D2*
X2417173D1*
X2494378D2*
X2692991D1*
X2774993D2*
X2791477D1*
X2851506D2*
X3349290D1*
X3431292D2*
X3582932D1*
X3722747D2*
X3894114D1*
X42473Y2775066D2*
X219260D1*
X360686D2*
X472288D1*
X588762D2*
X811350D1*
X894133D2*
X923899D1*
X1006682D2*
X1017633D1*
X1100383D2*
X1116331D1*
X1176311D2*
X1291331D1*
X1351311D2*
X1447581D1*
X1557610D2*
X1598508D1*
X1713860D2*
X1735374D1*
X1869231D2*
X2066428D1*
X2126409D2*
X2282004D1*
X2475139D2*
X2702415D1*
X2765569D2*
X2791477D1*
X2851506D2*
X3349290D1*
X3431292D2*
X3583030D1*
X3722649D2*
X3894114D1*
X42473Y2750197D2*
X226585D1*
X353362D2*
X472288D1*
X588762D2*
X836253D1*
X919036D2*
X948753D1*
X1029583D2*
X1042503D1*
X1107561D2*
X1116335D1*
X1176311D2*
X1286106D1*
X1351311D2*
X1447581D1*
X1557610D2*
X1575559D1*
X1713860D2*
X1811350D1*
X1894133D2*
X2069456D1*
X2150383D2*
X2254954D1*
X2450237D2*
X2791477D1*
X2851506D2*
X3349290D1*
X3431292D2*
X3593088D1*
X3712590D2*
X3894114D1*
X42473Y2725328D2*
X248313D1*
X331633D2*
X472288D1*
X588762D2*
X861106D1*
X943889D2*
X972532D1*
X1032561D2*
X1047544D1*
X1107561D2*
X1116335D1*
X1176311D2*
X1261253D1*
X1343987D2*
X1447581D1*
X1557610D2*
X1572636D1*
X1632610D2*
X1653879D1*
X1713860D2*
X1836204D1*
X1918987D2*
X2092503D1*
X2175237D2*
X2230100D1*
X2425383D2*
X2781028D1*
X2861956D2*
X3349290D1*
X3431292D2*
X3622239D1*
X3683391D2*
X3894114D1*
X42473Y2700459D2*
X472288D1*
X588762D2*
X885960D1*
X1032561D2*
X1047544D1*
X1107561D2*
X1116335D1*
X1176311D2*
X1236350D1*
X1319133D2*
X1447581D1*
X1557610D2*
X1572636D1*
X1632610D2*
X1653879D1*
X1713860D2*
X1861057D1*
X1943840D2*
X2117356D1*
X2182659D2*
X2205198D1*
X2400530D2*
X2785276D1*
X2857708D2*
X3349290D1*
X3431292D2*
X3894114D1*
X42473Y2675591D2*
X472288D1*
X588762D2*
X905735D1*
X1032561D2*
X1047544D1*
X1107561D2*
X1116335D1*
X1176311D2*
X1211497D1*
X1294280D2*
X1447581D1*
X1557610D2*
X1572636D1*
X1632610D2*
X1653879D1*
X1713860D2*
X1885960D1*
X1968743D2*
X2121165D1*
X2380754D2*
X3349290D1*
X3431292D2*
X3894114D1*
X42473Y2650722D2*
X472288D1*
X612200D2*
X920725D1*
X1032561D2*
X1048156D1*
X1176311D2*
X1186598D1*
X1269426D2*
X1447581D1*
X1557610D2*
X1572636D1*
X1632610D2*
X1653879D1*
X1713860D2*
X1910813D1*
X1993596D2*
X2111692D1*
X2388567D2*
X3349290D1*
X3431292D2*
X3894114D1*
X42473Y2625853D2*
X241282D1*
X338665D2*
X472922D1*
X620012D2*
X972532D1*
X1032561D2*
X1061985D1*
X1244524D2*
X1430540D1*
X1557610D2*
X1572636D1*
X1632610D2*
X1653879D1*
X1713860D2*
X1935667D1*
X2393254D2*
X3349290D1*
X3431292D2*
X3598118D1*
X3707561D2*
X3894114D1*
X42473Y2600984D2*
X223997D1*
X355950D2*
X491672D1*
X620012D2*
X972532D1*
X1032561D2*
X1076633D1*
X1219670D2*
X1405686D1*
X1488469D2*
X1497599D1*
X1557610D2*
X1572636D1*
X1632610D2*
X1653879D1*
X1713860D2*
X1941917D1*
X2394670D2*
X3349290D1*
X3431292D2*
X3584641D1*
X3720989D2*
X3894114D1*
X42473Y2576115D2*
X218967D1*
X360979D2*
X516233D1*
X620012D2*
X972532D1*
X1032561D2*
X1057249D1*
X1199456D2*
X1380784D1*
X1463567D2*
X1497629D1*
X1557610D2*
X1572636D1*
X1632610D2*
X1653879D1*
X1713860D2*
X1937034D1*
X2399553D2*
X3349290D1*
X3431292D2*
X3582053D1*
X3723626D2*
X3894114D1*
X42473Y2551247D2*
X223313D1*
X356633D2*
X466624D1*
X620012D2*
X972532D1*
X1032561D2*
X1053831D1*
X1194378D2*
X1355930D1*
X1438713D2*
X1492063D1*
X1563176D2*
X1572623D1*
X1632610D2*
X1653879D1*
X1713860D2*
X1951389D1*
X2003948D2*
X2168528D1*
X2407024D2*
X3349290D1*
X3431292D2*
X3588889D1*
X3716790D2*
X3894114D1*
X42473Y2526378D2*
X239475D1*
X340471D2*
X461643D1*
X620012D2*
X972532D1*
X1032561D2*
X1053831D1*
X1199456D2*
X1331077D1*
X1413860D2*
X1486936D1*
X1632610D2*
X1653879D1*
X1713860D2*
X2143626D1*
X2412102D2*
X3349290D1*
X3431292D2*
X3609690D1*
X3695989D2*
X3894114D1*
X42473Y2501509D2*
X472288D1*
X620012D2*
X972532D1*
X1032561D2*
X1053831D1*
X1388958D2*
X1500999D1*
X1554241D2*
X1572629D1*
X1632610D2*
X1648422D1*
X1719280D2*
X2118772D1*
X2413079D2*
X3349290D1*
X3431292D2*
X3894114D1*
X42473Y2476640D2*
X242161D1*
X337786D2*
X472288D1*
X620012D2*
X972532D1*
X1032561D2*
X1053831D1*
X1364104D2*
X1572629D1*
X1632610D2*
X1643186D1*
X1724553D2*
X2093919D1*
X2418401D2*
X3349290D1*
X3431292D2*
X3598801D1*
X3706878D2*
X3894114D1*
X42473Y2451772D2*
X224338D1*
X355657D2*
X472288D1*
X620012D2*
X972532D1*
X1032561D2*
X1053831D1*
X1185784D2*
X1572629D1*
X1632610D2*
X1656956D1*
X1710784D2*
X2069065D1*
X2412932D2*
X3349290D1*
X3431292D2*
X3584885D1*
X3720745D2*
X3894114D1*
X42473Y2426903D2*
X219016D1*
X360979D2*
X472288D1*
X620012D2*
X972922D1*
X1048528D2*
X1056056D1*
X1630364D2*
X2048801D1*
X2418401D2*
X3349290D1*
X3431292D2*
X3582004D1*
X3723674D2*
X3894114D1*
X42473Y2402034D2*
X223020D1*
X356926D2*
X472288D1*
X620012D2*
X990647D1*
X1725188D2*
X2047678D1*
X2419036D2*
X3349290D1*
X3431292D2*
X3588499D1*
X3717180D2*
X3894114D1*
X42473Y2377165D2*
X238694D1*
X341253D2*
X472288D1*
X620012D2*
X1015501D1*
X1730852D2*
X2047678D1*
X2424700D2*
X3349290D1*
X3431292D2*
X3608665D1*
X3697014D2*
X3894114D1*
X42473Y2352297D2*
X472288D1*
X620012D2*
X1040354D1*
X1725042D2*
X2047678D1*
X2425090D2*
X3349290D1*
X3431292D2*
X3894114D1*
X42473Y2327428D2*
X472288D1*
X620012D2*
X1065256D1*
X1730901D2*
X2047678D1*
X2430999D2*
X3349290D1*
X3431292D2*
X3894114D1*
X42473Y2302559D2*
X472288D1*
X620012D2*
X1305344D1*
X1432219D2*
X1662278D1*
X1717962D2*
X2047678D1*
X2418108D2*
X3349290D1*
X3431292D2*
X3894114D1*
X42473Y2277690D2*
X252219D1*
X327727D2*
X472288D1*
X635198D2*
X1299290D1*
X1457073D2*
X2047678D1*
X2377776D2*
X3349290D1*
X3431292D2*
X3606272D1*
X3699358D2*
X3894114D1*
X42473Y2252822D2*
X227903D1*
X352044D2*
X472288D1*
X659270D2*
X1311887D1*
X1481975D2*
X2047678D1*
X2352922D2*
X3349290D1*
X3431292D2*
X3587620D1*
X3718010D2*
X3894114D1*
X42473Y2227953D2*
X219553D1*
X360393D2*
X477610D1*
X663762D2*
X1355784D1*
X1506829D2*
X2047678D1*
X2328069D2*
X3349290D1*
X3431292D2*
X3581907D1*
X3723772D2*
X3894114D1*
X42473Y2203084D2*
X220823D1*
X359124D2*
X481565D1*
X663762D2*
X1355344D1*
X1531682D2*
X1780784D1*
X1849504D2*
X2047678D1*
X2326458D2*
X2893381D1*
X3036370D2*
X3349290D1*
X3431292D2*
X3585520D1*
X3720159D2*
X3894114D1*
X42473Y2178215D2*
X232395D1*
X347551D2*
X462376D1*
X663762D2*
X1355344D1*
X1556585D2*
X1774290D1*
X1857122D2*
X2047678D1*
X2326458D2*
X2886887D1*
X3061321D2*
X3349290D1*
X3431292D2*
X3600510D1*
X3705169D2*
X3894114D1*
X42473Y2153346D2*
X267844D1*
X312151D2*
X464719D1*
X663762D2*
X1355344D1*
X1437346D2*
X1467551D1*
X1858635D2*
X2047678D1*
X2326458D2*
X2898948D1*
X3086223D2*
X3349290D1*
X3431292D2*
X3894114D1*
X42473Y2128478D2*
X253538D1*
X326409D2*
X472288D1*
X663762D2*
X1355344D1*
X1437346D2*
X1492405D1*
X1858635D2*
X2047678D1*
X2326458D2*
X3025462D1*
X3096282D2*
X3349290D1*
X3431292D2*
X3607249D1*
X3698430D2*
X3894114D1*
X42473Y2103609D2*
X228391D1*
X351555D2*
X472288D1*
X678020D2*
X1099827D1*
X1167815D2*
X1361838D1*
X1430852D2*
X1517307D1*
X1858635D2*
X2047678D1*
X2326458D2*
X3034251D1*
X3096282D2*
X3349290D1*
X3431292D2*
X3587962D1*
X3717669D2*
X3894114D1*
X42473Y2078740D2*
X219700D1*
X360295D2*
X482590D1*
X702874D2*
X1092893D1*
X1174700D2*
X1796653D1*
X1858635D2*
X2047678D1*
X2326458D2*
X3034251D1*
X3096282D2*
X3349290D1*
X3431292D2*
X3581907D1*
X3723723D2*
X3894114D1*
X42473Y2053871D2*
X220676D1*
X359270D2*
X507444D1*
X727776D2*
X1097825D1*
X1169817D2*
X1796653D1*
X1858635D2*
X2047678D1*
X2326458D2*
X3034251D1*
X3096282D2*
X3349290D1*
X3431292D2*
X3585227D1*
X3720403D2*
X3894114D1*
X42473Y2029003D2*
X231858D1*
X348088D2*
X532346D1*
X752629D2*
X1097825D1*
X1169817D2*
X1782395D1*
X1858538D2*
X2047678D1*
X2326458D2*
X3013743D1*
X3094915D2*
X3349290D1*
X3431292D2*
X3599778D1*
X3705852D2*
X3894114D1*
X42473Y2004134D2*
X265354D1*
X314592D2*
X557200D1*
X777483D2*
X1097825D1*
X1233635D2*
X1757493D1*
X1843108D2*
X2047678D1*
X2326458D2*
X2988889D1*
X3074504D2*
X3349290D1*
X3431292D2*
X3894114D1*
X42473Y1979265D2*
X582053D1*
X802337D2*
X1097825D1*
X1254631D2*
X1732639D1*
X1818254D2*
X2047678D1*
X2326458D2*
X2964036D1*
X3049602D2*
X3349290D1*
X3431292D2*
X3894114D1*
X42473Y1954396D2*
X606956D1*
X827239D2*
X1097825D1*
X1277874D2*
X1707786D1*
X1793352D2*
X2047678D1*
X2326458D2*
X2939133D1*
X3024749D2*
X3349290D1*
X3431292D2*
X3894114D1*
X42473Y1929528D2*
X272532D1*
X307415D2*
X465159D1*
X852092D2*
X1097825D1*
X1169817D2*
X1204612D1*
X1282317D2*
X1682883D1*
X1768499D2*
X2047678D1*
X2326458D2*
X2914280D1*
X2999895D2*
X3331419D1*
X3431243D2*
X3618381D1*
X3687297D2*
X3894114D1*
X42473Y1904659D2*
X233323D1*
X346624D2*
X462131D1*
X876946D2*
X1097825D1*
X1169817D2*
X1210325D1*
X1282317D2*
X1658030D1*
X1743645D2*
X2047678D1*
X2326458D2*
X2889426D1*
X2975042D2*
X3306565D1*
X3420452D2*
X3591868D1*
X3713762D2*
X3894114D1*
X42473Y1879790D2*
X221165D1*
X358782D2*
X479807D1*
X524749D2*
X631516D1*
X901848D2*
X1097825D1*
X1172844D2*
X1210325D1*
X1282317D2*
X1633176D1*
X1718792D2*
X2047678D1*
X2326458D2*
X2864524D1*
X2950139D2*
X3281712D1*
X3395598D2*
X3582688D1*
X3722942D2*
X3894114D1*
X42473Y1854921D2*
X219407D1*
X360540D2*
X656419D1*
X926702D2*
X1100901D1*
X1197698D2*
X1206932D1*
X1285735D2*
X1608665D1*
X1693889D2*
X2047678D1*
X2326458D2*
X2839670D1*
X2925286D2*
X3256809D1*
X3370696D2*
X3583274D1*
X3722356D2*
X3894114D1*
X42473Y1830052D2*
X227268D1*
X352727D2*
X681272D1*
X951555D2*
X1122825D1*
X1345696D2*
X1602854D1*
X1669036D2*
X2047678D1*
X2326458D2*
X2626047D1*
X2900432D2*
X3231956D1*
X3345842D2*
X3593919D1*
X3711712D2*
X3894114D1*
X42473Y1805184D2*
X250217D1*
X329729D2*
X706126D1*
X976458D2*
X1147678D1*
X1349114D2*
X1594553D1*
X1673186D2*
X2047678D1*
X2326458D2*
X2617991D1*
X2875530D2*
X3207102D1*
X3320989D2*
X3625315D1*
X3680364D2*
X3894114D1*
X42473Y1780315D2*
X276633D1*
X303355D2*
X731028D1*
X1001311D2*
X1178977D1*
X1332170D2*
X1595335D1*
X1672356D2*
X2047678D1*
X2326458D2*
X2628196D1*
X2847893D2*
X3182200D1*
X3296135D2*
X3619895D1*
X3685784D2*
X3894114D1*
X42473Y1755446D2*
X233958D1*
X345989D2*
X755881D1*
X2326458D2*
X3157346D1*
X3271233D2*
X3592356D1*
X3713274D2*
X3894114D1*
X42473Y1730577D2*
X221360D1*
X358587D2*
X780735D1*
X2326458D2*
X3132493D1*
X3246379D2*
X3582835D1*
X3722844D2*
X3894114D1*
X42473Y1705709D2*
X219309D1*
X360637D2*
X805637D1*
X2326458D2*
X3107590D1*
X3221526D2*
X3583128D1*
X3722551D2*
X3894114D1*
X42473Y1680840D2*
X226829D1*
X353118D2*
X830491D1*
X2326458D2*
X3082737D1*
X3196624D2*
X3593430D1*
X3712249D2*
X3894114D1*
X42473Y1655971D2*
X249045D1*
X330901D2*
X855344D1*
X2326458D2*
X3057883D1*
X3171770D2*
X3623362D1*
X3682268D2*
X3894114D1*
X42473Y1631102D2*
X880198D1*
X2326458D2*
X3032981D1*
X3146917D2*
X3894114D1*
X42473Y1606234D2*
X905100D1*
X2326458D2*
X3008128D1*
X3122014D2*
X3894114D1*
X42473Y1581365D2*
X477219D1*
X527337D2*
X942356D1*
X2318987D2*
X2983274D1*
X3097161D2*
X3894114D1*
X42473Y1556496D2*
X240745D1*
X339202D2*
X461838D1*
X2294133D2*
X2958420D1*
X3072307D2*
X3597678D1*
X3707952D2*
X3894114D1*
X42473Y1531627D2*
X223801D1*
X356145D2*
X466038D1*
X2269280D2*
X2933518D1*
X3047405D2*
X3584495D1*
X3721135D2*
X3894114D1*
X42473Y1506759D2*
X218967D1*
X360979D2*
X913254D1*
X2244426D2*
X2908665D1*
X3022551D2*
X3582102D1*
X3723577D2*
X3894114D1*
X42473Y1481890D2*
X223508D1*
X356438D2*
X910032D1*
X1019426D2*
X2883811D1*
X2997698D2*
X3589133D1*
X3716545D2*
X3894114D1*
X42473Y1457021D2*
X240012D1*
X339983D2*
X910032D1*
X1001311D2*
X2858909D1*
X2972795D2*
X3610374D1*
X3695305D2*
X3894114D1*
X42473Y1432152D2*
X910032D1*
X1001311D2*
X2834055D1*
X2947942D2*
X3894114D1*
X42473Y1407283D2*
X241624D1*
X338323D2*
X910032D1*
X1001311D2*
X1040891D1*
X2576409D2*
X2809202D1*
X2923088D2*
X3598362D1*
X3707317D2*
X3894114D1*
X42473Y1382415D2*
X224094D1*
X355852D2*
X910032D1*
X2898235D2*
X3584739D1*
X3720940D2*
X3894114D1*
X42473Y1357546D2*
X218967D1*
X360979D2*
X910032D1*
X2873333D2*
X3582004D1*
X3723626D2*
X3894114D1*
X42473Y1332677D2*
X223215D1*
X356731D2*
X910032D1*
X1001311D2*
X1030735D1*
X2848186D2*
X3588743D1*
X3716936D2*
X3894114D1*
X42473Y1307808D2*
X239182D1*
X340764D2*
X910032D1*
X1001311D2*
X3609299D1*
X3696379D2*
X3894114D1*
X42473Y1282940D2*
X900217D1*
X1001311D2*
X1215940D1*
X1499749D2*
X3894114D1*
X42473Y1258071D2*
X875364D1*
X1001311D2*
X1205344D1*
X1529827D2*
X3894114D1*
X42473Y1233202D2*
X850462D1*
X933245D2*
X941259D1*
X1001311D2*
X1213108D1*
X1545061D2*
X3894114D1*
X42473Y1208333D2*
X251389D1*
X328557D2*
X825608D1*
X908391D2*
X941282D1*
X1001311D2*
X1485081D1*
X1545110D2*
X2248997D1*
X2318889D2*
X3605686D1*
X3699944D2*
X3894114D1*
X42473Y1183465D2*
X227659D1*
X352288D2*
X470432D1*
X883538D2*
X941282D1*
X1001311D2*
X1485081D1*
X1545110D2*
X2229905D1*
X2324700D2*
X3587424D1*
X3718254D2*
X3894114D1*
X42473Y1158596D2*
X219504D1*
X360442D2*
X468919D1*
X858635D2*
X925901D1*
X1001018D2*
X1485081D1*
X1545110D2*
X2205051D1*
X2311712D2*
X3581858D1*
X3723772D2*
X3894114D1*
X42473Y1133727D2*
X220969D1*
X358977D2*
X490305D1*
X526751D2*
X900999D1*
X983782D2*
X1485081D1*
X1545110D2*
X2180149D1*
X2318596D2*
X3585667D1*
X3719963D2*
X3894114D1*
X42473Y1108858D2*
X232786D1*
X347161D2*
X876145D1*
X958928D2*
X1485081D1*
X1545110D2*
X2155540D1*
X2324749D2*
X3600999D1*
X3704680D2*
X3894114D1*
X42473Y1083989D2*
X269553D1*
X310393D2*
X851292D1*
X934075D2*
X1485081D1*
X1545110D2*
X2147922D1*
X2230169D2*
X2247868D1*
X2319915D2*
X3894114D1*
X42473Y1059121D2*
X252708D1*
X327239D2*
X826389D1*
X909172D2*
X1485081D1*
X1545110D2*
X2147922D1*
X2219915D2*
X2247922D1*
X2319915D2*
X3606614D1*
X3699016D2*
X3894114D1*
X42473Y1034252D2*
X228098D1*
X351848D2*
X801536D1*
X884319D2*
X1485081D1*
X1545110D2*
X2147922D1*
X2219915D2*
X2247922D1*
X2319915D2*
X3587766D1*
X3717913D2*
X3894114D1*
X42473Y1009383D2*
X219602D1*
X360344D2*
X776682D1*
X859465D2*
X1485081D1*
X1545110D2*
X2147922D1*
X2219915D2*
X2247922D1*
X2319915D2*
X3581907D1*
X3723772D2*
X3894114D1*
X42473Y984514D2*
X220774D1*
X359172D2*
X751780D1*
X834563D2*
X1485081D1*
X1545110D2*
X2147922D1*
X2219915D2*
X2247922D1*
X2319915D2*
X3585422D1*
X3720256D2*
X3894114D1*
X42473Y959646D2*
X232200D1*
X347747D2*
X726926D1*
X809710D2*
X1485081D1*
X1545110D2*
X2147922D1*
X2219915D2*
X2247922D1*
X2319915D2*
X3600217D1*
X3705413D2*
X3894114D1*
X42473Y934777D2*
X266868D1*
X313079D2*
X702073D1*
X784856D2*
X1485081D1*
X1545110D2*
X2147922D1*
X2219915D2*
X2247922D1*
X2319915D2*
X3894114D1*
X42473Y909908D2*
X677170D1*
X759954D2*
X1485081D1*
X1545110D2*
X2147922D1*
X2219915D2*
X2247922D1*
X2319915D2*
X3894114D1*
X42473Y885039D2*
X652317D1*
X735100D2*
X1485081D1*
X1545110D2*
X2147922D1*
X2219915D2*
X2247922D1*
X2319915D2*
X3894114D1*
X42473Y860171D2*
X270481D1*
X309514D2*
X627463D1*
X710247D2*
X1485081D1*
X1545110D2*
X2147922D1*
X2219915D2*
X2247922D1*
X2319915D2*
X3617454D1*
X3688225D2*
X3894114D1*
X42473Y835302D2*
X232981D1*
X346965D2*
X468186D1*
X523919D2*
X602610D1*
X685393D2*
X1485081D1*
X1545110D2*
X2147922D1*
X2219915D2*
X2247922D1*
X2319915D2*
X3591575D1*
X3714104D2*
X3894114D1*
X42473Y810433D2*
X221018D1*
X358928D2*
X455247D1*
X660491D2*
X1485081D1*
X1545110D2*
X2147922D1*
X2219915D2*
X2247922D1*
X2319915D2*
X3582639D1*
X3723040D2*
X3894114D1*
X42473Y785564D2*
X219456D1*
X360491D2*
X461106D1*
X635540D2*
X1485081D1*
X1545110D2*
X2147922D1*
X2219915D2*
X2247922D1*
X2319915D2*
X3583372D1*
X3722258D2*
X3894114D1*
X42473Y760696D2*
X227512D1*
X352434D2*
X1485081D1*
X1545110D2*
X2147922D1*
X2219915D2*
X2247922D1*
X2319915D2*
X3594309D1*
X3711370D2*
X3894114D1*
X42473Y735827D2*
X250999D1*
X328948D2*
X1485081D1*
X1545110D2*
X2001047D1*
X2085833D2*
X2147922D1*
X2219915D2*
X2247922D1*
X2319915D2*
X3626585D1*
X3679045D2*
X3894114D1*
X42473Y710958D2*
X273899D1*
X306047D2*
X1485081D1*
X1545110D2*
X1976145D1*
X2093645D2*
X2147922D1*
X2219915D2*
X2247922D1*
X2319915D2*
X2764280D1*
X2866253D2*
X2914280D1*
X3016253D2*
X3618919D1*
X3686760D2*
X3894114D1*
X42473Y686089D2*
X233567D1*
X346379D2*
X1485081D1*
X1545110D2*
X1951292D1*
X2083098D2*
X2147922D1*
X2219915D2*
X2247922D1*
X2319915D2*
X2748411D1*
X2882073D2*
X2898385D1*
X3032073D2*
X3592063D1*
X3713616D2*
X3894114D1*
X42473Y661220D2*
X221213D1*
X358733D2*
X1269602D1*
X1323088D2*
X1485081D1*
X1545110D2*
X1926438D1*
X2026165D2*
X2147922D1*
X2219915D2*
X2247922D1*
X2319915D2*
X2744260D1*
X2886223D2*
X2894280D1*
X3036223D2*
X3582737D1*
X3722942D2*
X3894114D1*
X42473Y636352D2*
X219407D1*
X360588D2*
X1255686D1*
X1337004D2*
X1485081D1*
X1545110D2*
X1901536D1*
X2001311D2*
X2147922D1*
X2219915D2*
X2247922D1*
X2319915D2*
X2749485D1*
X2881047D2*
X2899435D1*
X3031047D2*
X3583225D1*
X3722454D2*
X3894114D1*
X42473Y611483D2*
X227073D1*
X352874D2*
X1260325D1*
X1332317D2*
X1485081D1*
X1545110D2*
X1876682D1*
X1976458D2*
X2147922D1*
X2219915D2*
X2247922D1*
X2319915D2*
X2767112D1*
X2863372D2*
X2917112D1*
X3013372D2*
X3593723D1*
X3711907D2*
X3894114D1*
X42473Y586614D2*
X249778D1*
X330169D2*
X1260325D1*
X1332317D2*
X1485081D1*
X1545110D2*
X1851829D1*
X1951555D2*
X2147922D1*
X2219915D2*
X2247922D1*
X2319915D2*
X3624583D1*
X3681096D2*
X3894114D1*
X42473Y561745D2*
X1260325D1*
X1332317D2*
X1485081D1*
X1545110D2*
X1826975D1*
X1926702D2*
X2147922D1*
X2219915D2*
X2247922D1*
X2319915D2*
X3894114D1*
X42473Y536877D2*
X1260325D1*
X1332317D2*
X1485081D1*
X1545110D2*
X1557606D1*
X1585100D2*
X1802073D1*
X1901848D2*
X2147922D1*
X2219915D2*
X2247922D1*
X2319915D2*
X3894114D1*
X328606Y512008D2*
X1260325D1*
X1332317D2*
X1485081D1*
X1610442D2*
X1777219D1*
X1876946D2*
X2147922D1*
X2219915D2*
X2247922D1*
X2319915D2*
X3606565D1*
X362151Y487139D2*
X1260325D1*
X1332317D2*
X1485081D1*
X1610149D2*
X1760911D1*
X1852092D2*
X2147922D1*
X2219915D2*
X2247922D1*
X2319915D2*
X3585422D1*
X395745Y462270D2*
X1260325D1*
X1332317D2*
X1485081D1*
X1601360D2*
X1760374D1*
X1832366D2*
X2147922D1*
X2219915D2*
X2247922D1*
X2319915D2*
X3564231D1*
X429290Y437402D2*
X1260325D1*
X1332317D2*
X1485081D1*
X1601360D2*
X1760374D1*
X1832366D2*
X2147922D1*
X2219915D2*
X2247922D1*
X2319915D2*
X3543040D1*
X462883Y412533D2*
X1260325D1*
X1332317D2*
X1485081D1*
X1601360D2*
X1760374D1*
X1832366D2*
X2147922D1*
X2219915D2*
X2247922D1*
X2319915D2*
X2625217D1*
X3149016D2*
X3521848D1*
X496477Y387664D2*
X1260325D1*
X1332317D2*
X1485081D1*
X1601360D2*
X1760374D1*
X1832366D2*
X2147922D1*
X2219915D2*
X2247922D1*
X2319915D2*
X2625217D1*
X3149016D2*
X3500657D1*
X504973Y362795D2*
X1260325D1*
X1332317D2*
X1476292D1*
X1610198D2*
X1760374D1*
X1832366D2*
X2147922D1*
X2219915D2*
X2247922D1*
X2319915D2*
X2625217D1*
X3149016D2*
X3479465D1*
X504973Y337927D2*
X1260325D1*
X1345794D2*
X1476047D1*
X1610393D2*
X1760374D1*
X1832366D2*
X2147922D1*
X2219915D2*
X2247922D1*
X2319915D2*
X2625217D1*
X3149016D2*
X3458274D1*
X504973Y313058D2*
X1270920D1*
X1832366D2*
X2147922D1*
X2219915D2*
X2247922D1*
X2319915D2*
X2625217D1*
X3149016D2*
X3456565D1*
X504973Y288189D2*
X1295823D1*
X1821917D2*
X2147922D1*
X2219915D2*
X2247922D1*
X2319915D2*
X2625217D1*
X3149016D2*
X3456565D1*
X504973Y263320D2*
X1323655D1*
X1794085D2*
X2147922D1*
X2219915D2*
X2247922D1*
X2319915D2*
X2625217D1*
X3149016D2*
X3456565D1*
X504973Y238451D2*
X1294407D1*
X1387346D2*
X1569993D1*
X1743645D2*
X1926292D1*
X2019231D2*
X2147922D1*
X2219915D2*
X2247922D1*
X2319915D2*
X2625217D1*
X3149016D2*
X3456565D1*
X504973Y213583D2*
X1275706D1*
X1406047D2*
X1551292D1*
X1762346D2*
X1907590D1*
X2037932D2*
X2147922D1*
X2219915D2*
X2247922D1*
X2319915D2*
X2625217D1*
X3149016D2*
X3456565D1*
X504973Y188714D2*
X1269944D1*
X1411809D2*
X1545530D1*
X1768108D2*
X1901829D1*
X2043694D2*
X2147922D1*
X2219915D2*
X2247922D1*
X2319915D2*
X2625217D1*
X3149016D2*
X3456565D1*
X504973Y163845D2*
X1273557D1*
X1408196D2*
X1549143D1*
X1764495D2*
X1905393D1*
X2040081D2*
X2147922D1*
X2219915D2*
X2247922D1*
X2319915D2*
X2625217D1*
X3149016D2*
X3456565D1*
X504973Y138976D2*
X1288499D1*
X1449553D2*
X1540354D1*
X1805852D2*
X1896653D1*
X2025139D2*
X2053733D1*
X2114104D2*
X2147922D1*
X2219915D2*
X2247922D1*
X2319915D2*
X2353733D1*
X2414104D2*
X2453733D1*
X2514104D2*
X2553733D1*
X2614104D2*
X2625217D1*
X3149016D2*
X3456565D1*
X504973Y114108D2*
X1330637D1*
X1449553D2*
X1514378D1*
X1620110D2*
X1686936D1*
X1805852D2*
X1870676D1*
X1976409D2*
X2032444D1*
X3149016D2*
X3456565D1*
X504973Y89239D2*
X1330637D1*
X1449553D2*
X1507835D1*
X1626702D2*
X1686936D1*
X1805852D2*
X1864085D1*
X1983001D2*
X2028587D1*
X3149016D2*
X3456565D1*
X504973Y64370D2*
X1330637D1*
X1449553D2*
X1512717D1*
X1621819D2*
X1686936D1*
X1805852D2*
X1868967D1*
X1978118D2*
X2037278D1*
X3149016D2*
X3456565D1*
X3149016Y39501D2*
X3456565D1*
X358431Y3135330D2*
X357339Y3125399D1*
X354814Y3115732D1*
X350910Y3106535D1*
X345710Y3098004D1*
X339323Y3090320D1*
X331888Y3083647D1*
X323560Y3078127D1*
X314518Y3073877D1*
X304954Y3070987D1*
X295071Y3069519D1*
X285080Y3069505D1*
X275193Y3070944D1*
X265621Y3073806D1*
X256566Y3078030D1*
X248223Y3083526D1*
X240768Y3090177D1*
X234359Y3097842D1*
X229134Y3106358D1*
X225203Y3115543D1*
X222650Y3125203D1*
X221530Y3135131D1*
X221865Y3145116D1*
X223650Y3154947D1*
X226845Y3164413D1*
X231384Y3173314D1*
X237169Y3181460D1*
X244077Y3188678D1*
X251962Y3194813D1*
X260656Y3199737D1*
X269974Y3203344D1*
X279716Y3205557D1*
X289678Y3206329D1*
X299645Y3205644D1*
X309407Y3203516D1*
X318756Y3199990D1*
X327492Y3195143D1*
X335430Y3189076D1*
X342401Y3181919D1*
X348257Y3173824D1*
X352873Y3164963D1*
X356151Y3155525D1*
X358022Y3145710D1*
X358431Y3135330D1*
X358265Y3282455D2*
X356584Y3271838D1*
X353262Y3261616D1*
X348382Y3252038D1*
X342064Y3243342D1*
X334464Y3235742D1*
X325768Y3229424D1*
X316190Y3224544D1*
X305967Y3221222D1*
X295351Y3219541D1*
X284602D1*
X273985Y3221222D1*
X263763Y3224544D1*
X254185Y3229424D1*
X245489Y3235742D1*
X237889Y3243342D1*
X231571Y3252038D1*
X226691Y3261616D1*
X223369Y3271838D1*
X221688Y3282455D1*
Y3293204D1*
X223369Y3303820D1*
X226691Y3314043D1*
X231571Y3323621D1*
X237889Y3332317D1*
X245489Y3339917D1*
X254185Y3346235D1*
X263763Y3351115D1*
X273985Y3354437D1*
X284602Y3356118D1*
X295351D1*
X305967Y3354437D1*
X316190Y3351115D1*
X325768Y3346235D1*
X334464Y3339917D1*
X342064Y3332317D1*
X348382Y3323621D1*
X353262Y3314043D1*
X356584Y3303820D1*
X358265Y3293204D1*
Y3282455D1*
X358431Y2779043D2*
X357339Y2769111D1*
X354814Y2759444D1*
X350910Y2750248D1*
X345710Y2741717D1*
X339323Y2734033D1*
X331888Y2727360D1*
X323560Y2721839D1*
X314518Y2717589D1*
X304954Y2714699D1*
X295071Y2713232D1*
X285080Y2713217D1*
X275193Y2714656D1*
X265621Y2717518D1*
X256566Y2721742D1*
X248223Y2727238D1*
X240768Y2733890D1*
X234359Y2741555D1*
X229134Y2750071D1*
X225203Y2759256D1*
X222650Y2768916D1*
X221530Y2778844D1*
X221865Y2788829D1*
X223650Y2798660D1*
X226845Y2808126D1*
X231384Y2817027D1*
X237169Y2825172D1*
X244077Y2832390D1*
X251962Y2838526D1*
X260656Y2843450D1*
X269974Y2847056D1*
X279716Y2849269D1*
X289678Y2850041D1*
X299645Y2849356D1*
X309407Y2847228D1*
X318756Y2843703D1*
X327492Y2838855D1*
X335430Y2832788D1*
X342401Y2825631D1*
X348257Y2817536D1*
X352873Y2808675D1*
X356151Y2799237D1*
X358022Y2789423D1*
X358431Y2779043D1*
X358265Y2926168D2*
X356584Y2915551D1*
X353262Y2905328D1*
X348382Y2895751D1*
X342064Y2887055D1*
X334464Y2879454D1*
X325768Y2873136D1*
X316190Y2868256D1*
X305967Y2864935D1*
X295351Y2863253D1*
X284602D1*
X273985Y2864935D1*
X263763Y2868256D1*
X254185Y2873136D1*
X245489Y2879454D1*
X237889Y2887055D1*
X231571Y2895751D1*
X226691Y2905328D1*
X223369Y2915551D1*
X221688Y2926168D1*
Y2936916D1*
X223369Y2947533D1*
X226691Y2957756D1*
X231571Y2967333D1*
X237889Y2976029D1*
X245489Y2983630D1*
X254185Y2989948D1*
X263763Y2994828D1*
X273985Y2998149D1*
X284602Y2999831D1*
X295351D1*
X305967Y2998149D1*
X316190Y2994828D1*
X325768Y2989948D1*
X334464Y2983630D1*
X342064Y2976029D1*
X348382Y2967333D1*
X353262Y2957756D1*
X356584Y2947533D1*
X358265Y2936916D1*
Y2926168D1*
X358431Y2422755D2*
X357339Y2412824D1*
X354814Y2403157D1*
X350910Y2393960D1*
X345710Y2385429D1*
X339323Y2377746D1*
X331888Y2371072D1*
X323560Y2365552D1*
X314518Y2361302D1*
X304954Y2358412D1*
X295071Y2356944D1*
X285080Y2356930D1*
X275193Y2358369D1*
X265621Y2361231D1*
X256566Y2365455D1*
X248223Y2370951D1*
X240768Y2377602D1*
X234359Y2385267D1*
X229134Y2393783D1*
X225203Y2402969D1*
X222650Y2412628D1*
X221530Y2422556D1*
X221865Y2432542D1*
X223650Y2442372D1*
X226845Y2451838D1*
X231384Y2460739D1*
X237169Y2468885D1*
X244077Y2476103D1*
X251962Y2482239D1*
X260656Y2487162D1*
X269974Y2490769D1*
X279716Y2492982D1*
X289678Y2493754D1*
X299645Y2493069D1*
X309407Y2490941D1*
X318756Y2487416D1*
X327492Y2482568D1*
X335430Y2476501D1*
X342401Y2469344D1*
X348257Y2461249D1*
X352873Y2452388D1*
X356151Y2442950D1*
X358022Y2433135D1*
X358431Y2422755D1*
X358265Y2569880D2*
X356584Y2559264D1*
X353262Y2549041D1*
X348382Y2539463D1*
X342064Y2530767D1*
X334464Y2523167D1*
X325768Y2516849D1*
X316190Y2511969D1*
X305967Y2508647D1*
X295351Y2506966D1*
X284602D1*
X273985Y2508647D1*
X263763Y2511969D1*
X254185Y2516849D1*
X245489Y2523167D1*
X237889Y2530767D1*
X231571Y2539463D1*
X226691Y2549041D1*
X223369Y2559264D1*
X221688Y2569880D1*
Y2580629D1*
X223369Y2591246D1*
X226691Y2601468D1*
X231571Y2611046D1*
X237889Y2619742D1*
X245489Y2627342D1*
X254185Y2633660D1*
X263763Y2638540D1*
X273985Y2641862D1*
X284602Y2643543D1*
X295351D1*
X305967Y2641862D1*
X316190Y2638540D1*
X325768Y2633660D1*
X334464Y2627342D1*
X342064Y2619742D1*
X348382Y2611046D1*
X353262Y2601468D1*
X356584Y2591246D1*
X358265Y2580629D1*
Y2569880D1*
X358431Y2066468D2*
X357339Y2056536D1*
X354814Y2046870D1*
X350910Y2037673D1*
X345710Y2029142D1*
X339323Y2021458D1*
X331888Y2014785D1*
X323560Y2009265D1*
X314518Y2005014D1*
X304954Y2002125D1*
X295071Y2000657D1*
X285080Y2000642D1*
X275193Y2002081D1*
X265621Y2004943D1*
X256566Y2009167D1*
X248223Y2014663D1*
X240768Y2021315D1*
X234359Y2028980D1*
X229134Y2037496D1*
X225203Y2046681D1*
X222650Y2056341D1*
X221530Y2066269D1*
X221865Y2076254D1*
X223650Y2086085D1*
X226845Y2095551D1*
X231384Y2104452D1*
X237169Y2112598D1*
X244077Y2119815D1*
X251962Y2125951D1*
X260656Y2130875D1*
X269974Y2134482D1*
X279716Y2136694D1*
X289678Y2137467D1*
X299645Y2136781D1*
X309407Y2134654D1*
X318756Y2131128D1*
X327492Y2126281D1*
X335430Y2120214D1*
X342401Y2113056D1*
X348257Y2104961D1*
X352873Y2096101D1*
X356151Y2086662D1*
X358022Y2076848D1*
X358431Y2066468D1*
X358265Y2213593D2*
X356584Y2202976D1*
X353262Y2192753D1*
X348382Y2183176D1*
X342064Y2174480D1*
X334464Y2166879D1*
X325768Y2160561D1*
X316190Y2155681D1*
X305967Y2152360D1*
X295351Y2150678D1*
X284602D1*
X273985Y2152360D1*
X263763Y2155681D1*
X254185Y2160561D1*
X245489Y2166879D1*
X237889Y2174480D1*
X231571Y2183176D1*
X226691Y2192753D1*
X223369Y2202976D1*
X221688Y2213593D1*
Y2224342D1*
X223369Y2234958D1*
X226691Y2245181D1*
X231571Y2254758D1*
X237889Y2263454D1*
X245489Y2271055D1*
X254185Y2277373D1*
X263763Y2282253D1*
X273985Y2285575D1*
X284602Y2287256D1*
X295351D1*
X305967Y2285575D1*
X316190Y2282253D1*
X325768Y2277373D1*
X334464Y2271055D1*
X342064Y2263454D1*
X348382Y2254758D1*
X353262Y2245181D1*
X356584Y2234958D1*
X358265Y2224342D1*
Y2213593D1*
X358431Y1710180D2*
X357339Y1700249D1*
X354814Y1690582D1*
X350910Y1681385D1*
X345710Y1672854D1*
X339323Y1665171D1*
X331888Y1658498D1*
X323560Y1652977D1*
X314518Y1648727D1*
X304954Y1645837D1*
X295071Y1644370D1*
X285080Y1644355D1*
X275193Y1645794D1*
X265621Y1648656D1*
X256566Y1652880D1*
X248223Y1658376D1*
X240768Y1665027D1*
X234359Y1672693D1*
X229134Y1681208D1*
X225203Y1690394D1*
X222650Y1700053D1*
X221530Y1709981D1*
X221865Y1719967D1*
X223650Y1729797D1*
X226845Y1739264D1*
X231384Y1748164D1*
X237169Y1756310D1*
X244077Y1763528D1*
X251962Y1769664D1*
X260656Y1774588D1*
X269974Y1778194D1*
X279716Y1780407D1*
X289678Y1781179D1*
X299645Y1780494D1*
X309407Y1778366D1*
X318756Y1774841D1*
X327492Y1769993D1*
X335430Y1763926D1*
X342401Y1756769D1*
X348257Y1748674D1*
X352873Y1739813D1*
X356151Y1730375D1*
X358022Y1720560D1*
X358431Y1710180D1*
X358265Y1857305D2*
X356584Y1846689D1*
X353262Y1836466D1*
X348382Y1826889D1*
X342064Y1818193D1*
X334464Y1810592D1*
X325768Y1804274D1*
X316190Y1799394D1*
X305967Y1796072D1*
X295351Y1794391D1*
X284602D1*
X273985Y1796072D1*
X263763Y1799394D1*
X254185Y1804274D1*
X245489Y1810592D1*
X237889Y1818193D1*
X231571Y1826889D1*
X226691Y1836466D1*
X223369Y1846689D1*
X221688Y1857305D1*
Y1868054D1*
X223369Y1878671D1*
X226691Y1888894D1*
X231571Y1898471D1*
X237889Y1907167D1*
X245489Y1914768D1*
X254185Y1921086D1*
X263763Y1925966D1*
X273985Y1929287D1*
X284602Y1930969D1*
X295351D1*
X305967Y1929287D1*
X316190Y1925966D1*
X325768Y1921086D1*
X334464Y1914768D1*
X342064Y1907167D1*
X348382Y1898471D1*
X353262Y1888894D1*
X356584Y1878671D1*
X358265Y1868054D1*
Y1857305D1*
X358431Y1353893D2*
X357339Y1343962D1*
X354814Y1334295D1*
X350910Y1325098D1*
X345710Y1316567D1*
X339323Y1308883D1*
X331888Y1302210D1*
X323560Y1296690D1*
X314518Y1292440D1*
X304954Y1289550D1*
X295071Y1288082D1*
X285080Y1288068D1*
X275193Y1289507D1*
X265621Y1292369D1*
X256566Y1296593D1*
X248223Y1302089D1*
X240768Y1308740D1*
X234359Y1316405D1*
X229134Y1324921D1*
X225203Y1334106D1*
X222650Y1343766D1*
X221530Y1353694D1*
X221865Y1363679D1*
X223650Y1373510D1*
X226845Y1382976D1*
X231384Y1391877D1*
X237169Y1400023D1*
X244077Y1407241D1*
X251962Y1413376D1*
X260656Y1418300D1*
X269974Y1421907D1*
X279716Y1424120D1*
X289678Y1424892D1*
X299645Y1424207D1*
X309407Y1422079D1*
X318756Y1418553D1*
X327492Y1413706D1*
X335430Y1407639D1*
X342401Y1400482D1*
X348257Y1392387D1*
X352873Y1383526D1*
X356151Y1374088D1*
X358022Y1364273D1*
X358431Y1353893D1*
X358265Y1501018D2*
X356584Y1490401D1*
X353262Y1480179D1*
X348382Y1470601D1*
X342064Y1461905D1*
X334464Y1454305D1*
X325768Y1447987D1*
X316190Y1443107D1*
X305967Y1439785D1*
X295351Y1438104D1*
X284602D1*
X273985Y1439785D1*
X263763Y1443107D1*
X254185Y1447987D1*
X245489Y1454305D1*
X237889Y1461905D1*
X231571Y1470601D1*
X226691Y1480179D1*
X223369Y1490401D1*
X221688Y1501018D1*
Y1511767D1*
X223369Y1522383D1*
X226691Y1532606D1*
X231571Y1542184D1*
X237889Y1550880D1*
X245489Y1558480D1*
X254185Y1564798D1*
X263763Y1569678D1*
X273985Y1573000D1*
X284602Y1574681D1*
X295351D1*
X305967Y1573000D1*
X316190Y1569678D1*
X325768Y1564798D1*
X334464Y1558480D1*
X342064Y1550880D1*
X348382Y1542184D1*
X353262Y1532606D1*
X356584Y1522383D1*
X358265Y1511767D1*
Y1501018D1*
X358431Y997606D2*
X357339Y987674D1*
X354814Y978007D1*
X350910Y968811D1*
X345710Y960280D1*
X339323Y952596D1*
X331888Y945923D1*
X323560Y940402D1*
X314518Y936152D1*
X304954Y933262D1*
X295071Y931795D1*
X285080Y931780D1*
X275193Y933219D1*
X265621Y936081D1*
X256566Y940305D1*
X248223Y945801D1*
X240768Y952453D1*
X234359Y960118D1*
X229134Y968634D1*
X225203Y977819D1*
X222650Y987479D1*
X221530Y997407D1*
X221865Y1007392D1*
X223650Y1017223D1*
X226845Y1026689D1*
X231384Y1035590D1*
X237169Y1043735D1*
X244077Y1050953D1*
X251962Y1057089D1*
X260656Y1062013D1*
X269974Y1065619D1*
X279716Y1067832D1*
X289678Y1068604D1*
X299645Y1067919D1*
X309407Y1065791D1*
X318756Y1062266D1*
X327492Y1057418D1*
X335430Y1051351D1*
X342401Y1044194D1*
X348257Y1036099D1*
X352873Y1027238D1*
X356151Y1017800D1*
X358022Y1007986D1*
X358431Y997606D1*
X358265Y1144731D2*
X356584Y1134114D1*
X353262Y1123891D1*
X348382Y1114314D1*
X342064Y1105618D1*
X334464Y1098017D1*
X325768Y1091699D1*
X316190Y1086819D1*
X305967Y1083498D1*
X295351Y1081816D1*
X284602D1*
X273985Y1083498D1*
X263763Y1086819D1*
X254185Y1091699D1*
X245489Y1098017D1*
X237889Y1105618D1*
X231571Y1114314D1*
X226691Y1123891D1*
X223369Y1134114D1*
X221688Y1144731D1*
Y1155479D1*
X223369Y1166096D1*
X226691Y1176319D1*
X231571Y1185896D1*
X237889Y1194592D1*
X245489Y1202193D1*
X254185Y1208511D1*
X263763Y1213391D1*
X273985Y1216712D1*
X284602Y1218394D1*
X295351D1*
X305967Y1216712D1*
X316190Y1213391D1*
X325768Y1208511D1*
X334464Y1202193D1*
X342064Y1194592D1*
X348382Y1185896D1*
X353262Y1176319D1*
X356584Y1166096D1*
X358265Y1155479D1*
Y1144731D1*
X358431Y641318D2*
X357339Y631387D1*
X354814Y621720D1*
X350910Y612523D1*
X345710Y603992D1*
X339323Y596309D1*
X331888Y589635D1*
X323560Y584115D1*
X314518Y579865D1*
X304954Y576975D1*
X295071Y575507D1*
X285080Y575493D1*
X275193Y576932D1*
X265621Y579794D1*
X256566Y584018D1*
X248223Y589514D1*
X240768Y596165D1*
X234359Y603830D1*
X229134Y612346D1*
X225203Y621532D1*
X222650Y631191D1*
X221530Y641119D1*
X221865Y651105D1*
X223650Y660935D1*
X226845Y670401D1*
X231384Y679302D1*
X237169Y687448D1*
X244077Y694666D1*
X251962Y700802D1*
X260656Y705725D1*
X269974Y709332D1*
X279716Y711545D1*
X289678Y712317D1*
X299645Y711632D1*
X309407Y709504D1*
X318756Y705979D1*
X327492Y701131D1*
X335430Y695064D1*
X342401Y687907D1*
X348257Y679812D1*
X352873Y670951D1*
X356151Y661513D1*
X358022Y651698D1*
X358431Y641318D1*
X358265Y788443D2*
X356584Y777827D1*
X353262Y767604D1*
X348382Y758026D1*
X342064Y749330D1*
X334464Y741730D1*
X325768Y735412D1*
X316190Y730532D1*
X305967Y727210D1*
X295351Y725529D1*
X284602D1*
X273985Y727210D1*
X263763Y730532D1*
X254185Y735412D1*
X245489Y741730D1*
X237889Y749330D1*
X231571Y758026D1*
X226691Y767604D1*
X223369Y777827D1*
X221688Y788443D1*
Y799192D1*
X223369Y809809D1*
X226691Y820031D1*
X231571Y829609D1*
X237889Y838305D1*
X245489Y845905D1*
X254185Y852223D1*
X263763Y857103D1*
X273985Y860425D1*
X284602Y862106D1*
X295351D1*
X305967Y860425D1*
X316190Y857103D1*
X325768Y852223D1*
X334464Y845905D1*
X342064Y838305D1*
X348382Y829609D1*
X353262Y820031D1*
X356584Y809809D1*
X358265Y799192D1*
Y788443D1*
X1751690Y144474D2*
X1803344D1*
Y50011D1*
X1880671Y50004D1*
X1874974Y57745D1*
X1870916Y65710D1*
X1868154Y74211D1*
X1866756Y83040D1*
Y91979D1*
X1868154Y100807D1*
X1870916Y109309D1*
X1874974Y117273D1*
X1880228Y124505D1*
X1886549Y130825D1*
X1893781Y136079D1*
X1901745Y140138D1*
X1910247Y142900D1*
X1918433Y144222D1*
X1913104Y152264D1*
X1908840Y161300D1*
X1905937Y170860D1*
X1904454Y180740D1*
X1904425Y190731D1*
X1905850Y200620D1*
X1908698Y210197D1*
X1912909Y219257D1*
X1918393Y227609D1*
X1925033Y235074D1*
X1932689Y241493D1*
X1941198Y246731D1*
X1950377Y250675D1*
X1960033Y253242D1*
X1969959Y254377D1*
X1979945Y254056D1*
X1989778Y252286D1*
X1999249Y249104D1*
X2008157Y244578D1*
X2016311Y238805D1*
X2023539Y231907D1*
X2029686Y224031D1*
X2034622Y215345D1*
X2038242Y206032D1*
X2040470Y196293D1*
X2041257Y185934D1*
X2040529Y175970D1*
X2038358Y166217D1*
X2034792Y156884D1*
X2029906Y148169D1*
X2023805Y140258D1*
X2016618Y133318D1*
X2008497Y127497D1*
X1999616Y122920D1*
X1990164Y119683D1*
X1980341Y117856D1*
X1972007Y117449D1*
X1976173Y109309D1*
X1978935Y100807D1*
X1980334Y91979D1*
Y83040D1*
X1978935Y74211D1*
X1976173Y65710D1*
X1972115Y57745D1*
X1966398Y50013D1*
X2053913Y50004D1*
X2046419Y56264D1*
X2041015Y62591D1*
X2036667Y69686D1*
X2033482Y77373D1*
X2031540Y85465D1*
X2030887Y93760D1*
X2031540Y102055D1*
X2033482Y110146D1*
X2036667Y117834D1*
X2041015Y124929D1*
X2046419Y131256D1*
X2052746Y136660D1*
X2059841Y141008D1*
X2067528Y144192D1*
X2075619Y146135D1*
X2083915Y146787D1*
X2092210Y146135D1*
X2100301Y144192D1*
X2107989Y141008D1*
X2115084Y136660D1*
X2121411Y131256D1*
X2126815Y124929D1*
X2131163Y117834D1*
X2133891Y111382D1*
X2136667Y117834D1*
X2141015Y124929D1*
X2146419Y131256D1*
X2150408Y134817D1*
X2150518Y1090232D1*
X2152054Y1097956D1*
X2155351Y1105107D1*
X2160234Y1111299D1*
X2246854Y1197919D1*
X2249632Y1205103D1*
X2252789Y1210254D1*
X2256712Y1214848D1*
X2261306Y1218772D1*
X2266457Y1221928D1*
X2272039Y1224240D1*
X2277913Y1225651D1*
X2283936Y1226125D1*
X2289958Y1225651D1*
X2295833Y1224240D1*
X2301414Y1221928D1*
X2306565Y1218772D1*
X2311159Y1214848D1*
X2315083Y1210254D1*
X2318239Y1205103D1*
X2320551Y1199522D1*
X2321962Y1193647D1*
X2322436Y1187625D1*
X2321962Y1181602D1*
X2320551Y1175728D1*
X2318239Y1170146D1*
X2315083Y1164995D1*
X2311159Y1160401D1*
X2306565Y1156478D1*
X2301414Y1153321D1*
X2294253Y1150563D1*
X2295812Y1149232D1*
X2301393Y1146921D1*
X2306544Y1143764D1*
X2311138Y1139840D1*
X2315062Y1135247D1*
X2318218Y1130095D1*
X2320530Y1124514D1*
X2321941Y1118640D1*
X2322415Y1112617D1*
X2321941Y1106594D1*
X2320530Y1100720D1*
X2317416Y1093706D1*
X2317415Y134834D1*
X2324237Y128198D1*
X2329128Y121467D1*
X2332906Y114053D1*
X2333891Y111382D1*
X2336667Y117834D1*
X2341015Y124929D1*
X2346419Y131256D1*
X2352746Y136660D1*
X2359841Y141008D1*
X2367528Y144192D1*
X2375619Y146135D1*
X2383915Y146787D1*
X2392210Y146135D1*
X2400301Y144192D1*
X2407989Y141008D1*
X2415084Y136660D1*
X2421411Y131256D1*
X2426815Y124929D1*
X2431163Y117834D1*
X2433891Y111382D1*
X2436667Y117834D1*
X2441015Y124929D1*
X2446419Y131256D1*
X2452746Y136660D1*
X2459841Y141008D1*
X2467528Y144192D1*
X2475619Y146135D1*
X2483915Y146787D1*
X2492210Y146135D1*
X2500301Y144192D1*
X2507989Y141008D1*
X2515084Y136660D1*
X2521411Y131256D1*
X2526815Y124929D1*
X2531163Y117834D1*
X2533891Y111382D1*
X2537092Y118650D1*
X2541068Y125002D1*
X2545900Y130730D1*
X2551491Y135720D1*
X2557730Y139871D1*
X2564491Y143102D1*
X2571641Y145347D1*
X2579035Y146562D1*
X2586527Y146723D1*
X2593967Y145826D1*
X2601206Y143889D1*
X2608100Y140951D1*
X2614511Y137070D1*
X2620310Y132325D1*
X2625383Y126809D1*
X2627719Y123619D1*
X2627877Y414499D1*
X2629085Y418218D1*
X2631384Y421382D1*
X2634548Y423681D1*
X2638268Y424889D1*
X2677723Y425043D1*
X3135980Y424889D1*
X3139700Y423681D1*
X3142864Y421382D1*
X3145163Y418218D1*
X3146371Y414499D1*
X3146525Y375043D1*
Y37494D1*
X3459074Y37503D1*
X3459214Y333240D1*
X3460423Y336960D1*
X3462045Y339391D1*
X3607195Y509547D1*
X3610527Y511595D1*
X3614329Y512513D1*
X3896624Y512553D1*
X3896606Y3425394D1*
X3613370Y3425515D1*
X3609651Y3426723D1*
X3606333Y3429178D1*
X3430067Y3611961D1*
X3428353Y3615476D1*
X3427807Y3619130D1*
Y3894179D1*
X521215Y3894160D1*
X521095Y3610924D1*
X519887Y3607204D1*
X518195Y3604693D1*
X354281Y3415796D1*
X350932Y3413777D1*
X347213Y3412898D1*
X39933Y3412860D1*
X39949Y512518D1*
X323185Y512399D1*
X326905Y511190D1*
X348759Y495216D1*
X498917Y383796D1*
X501187Y380611D1*
X502361Y376881D1*
X502497Y325039D1*
Y49991D1*
X1333113Y50004D1*
X1333127Y117879D1*
X1323665Y119633D1*
X1314204Y122842D1*
X1305310Y127393D1*
X1297172Y133190D1*
X1289964Y140109D1*
X1283840Y148003D1*
X1278929Y156704D1*
X1275336Y166027D1*
X1273137Y175773D1*
X1272380Y185735D1*
X1273079Y195702D1*
X1275221Y205461D1*
X1278760Y214804D1*
X1283620Y223533D1*
X1289699Y231463D1*
X1296866Y238423D1*
X1304970Y244268D1*
X1313837Y248871D1*
X1323280Y252135D1*
X1333097Y253991D1*
X1343080Y254399D1*
X1353016Y253351D1*
X1362694Y250868D1*
X1371908Y247004D1*
X1380461Y241841D1*
X1388173Y235488D1*
X1394878Y228081D1*
X1400435Y219778D1*
X1404724Y210755D1*
X1407656Y201203D1*
X1409167Y191327D1*
X1409197Y180939D1*
X1407743Y171054D1*
X1404868Y161486D1*
X1400631Y152438D1*
X1395396Y144470D1*
X1447056Y144474D1*
Y50011D1*
X1524421Y50004D1*
X1518687Y57745D1*
X1514629Y65710D1*
X1511867Y74211D1*
X1510468Y83040D1*
Y91979D1*
X1511867Y100807D1*
X1514629Y109309D1*
X1518687Y117273D1*
X1523941Y124505D1*
X1530262Y130825D1*
X1537493Y136079D1*
X1545458Y140138D1*
X1553959Y142900D1*
X1562146Y144222D1*
X1556816Y152264D1*
X1552553Y161300D1*
X1549649Y170860D1*
X1548167Y180740D1*
X1548138Y190731D1*
X1549563Y200620D1*
X1552411Y210197D1*
X1556621Y219257D1*
X1562105Y227609D1*
X1568746Y235074D1*
X1576402Y241493D1*
X1584910Y246731D1*
X1594090Y250675D1*
X1603746Y253242D1*
X1613672Y254377D1*
X1623658Y254056D1*
X1633491Y252286D1*
X1642962Y249104D1*
X1651869Y244578D1*
X1656815Y241279D1*
X1665607Y246731D1*
X1674787Y250675D1*
X1684442Y253242D1*
X1694369Y254377D1*
X1704355Y254056D1*
X1714188Y252286D1*
X1723659Y249104D1*
X1732566Y244578D1*
X1740720Y238805D1*
X1747948Y231907D1*
X1754095Y224031D1*
X1759032Y215345D1*
X1762652Y206032D1*
X1764879Y196293D1*
X1765667Y185934D1*
X1764938Y175970D1*
X1762768Y166217D1*
X1759202Y156884D1*
X1754316Y148169D1*
X1751683Y144470D1*
X1689415Y50007D2*
Y117879D1*
X1679953Y119633D1*
X1670491Y122842D1*
X1661597Y127393D1*
X1656834Y130579D1*
X1647853Y125046D1*
X1638662Y121129D1*
X1628998Y118590D1*
X1619069Y117484D1*
X1615827Y117273D1*
X1619886Y109309D1*
X1622648Y100807D1*
X1624046Y91979D1*
Y83040D1*
X1622648Y74211D1*
X1619886Y65710D1*
X1615827Y57745D1*
X1610111Y50013D1*
X1689460Y50004D1*
X3033546Y657195D2*
X3031865Y646579D1*
X3028543Y636356D1*
X3023663Y626778D1*
X3017345Y618082D1*
X3009744Y610482D1*
X3001048Y604164D1*
X2991471Y599284D1*
X2981248Y595962D1*
X2970632Y594281D1*
X2959883D1*
X2949266Y595962D1*
X2939043Y599284D1*
X2929466Y604164D1*
X2920770Y610482D1*
X2913169Y618082D1*
X2906851Y626778D1*
X2901971Y636356D1*
X2898650Y646579D1*
X2896968Y657195D1*
Y667944D1*
X2898650Y678561D1*
X2901971Y688783D1*
X2906851Y698361D1*
X2913169Y707057D1*
X2920770Y714657D1*
X2929466Y720975D1*
X2939043Y725855D1*
X2949266Y729177D1*
X2959883Y730858D1*
X2970632D1*
X2981248Y729177D1*
X2991471Y725855D1*
X3001048Y720975D1*
X3009744Y714657D1*
X3017345Y707057D1*
X3023663Y698361D1*
X3028543Y688783D1*
X3031865Y678561D1*
X3033546Y667944D1*
Y657195D1*
X2883712Y660070D2*
X2882620Y650139D1*
X2880095Y640472D1*
X2876191Y631275D1*
X2870990Y622744D1*
X2864604Y615060D1*
X2857168Y608387D1*
X2848841Y602867D1*
X2839799Y598617D1*
X2830235Y595727D1*
X2820352Y594259D1*
X2810361Y594245D1*
X2800474Y595684D1*
X2790902Y598546D1*
X2781847Y602770D1*
X2773504Y608266D1*
X2766048Y614917D1*
X2759640Y622582D1*
X2754415Y631098D1*
X2750484Y640284D1*
X2747931Y649943D1*
X2746810Y659871D1*
X2747146Y669857D1*
X2748930Y679687D1*
X2752126Y689153D1*
X2756665Y698054D1*
X2762450Y706200D1*
X2769358Y713418D1*
X2777243Y719554D1*
X2785937Y724477D1*
X2795254Y728084D1*
X2804997Y730297D1*
X2814959Y731069D1*
X2824926Y730384D1*
X2834688Y728256D1*
X2844037Y724731D1*
X2852773Y719883D1*
X2860711Y713816D1*
X2867682Y706659D1*
X2873538Y698564D1*
X2878154Y689703D1*
X2881432Y680265D1*
X2883302Y670450D1*
X2883712Y660070D1*
X3721118Y794710D2*
X3719437Y784093D1*
X3716115Y773870D1*
X3711235Y764293D1*
X3704917Y755597D1*
X3697317Y747996D1*
X3688621Y741678D1*
X3679043Y736798D1*
X3668820Y733477D1*
X3658204Y731795D1*
X3647455D1*
X3636838Y733477D1*
X3626616Y736798D1*
X3617038Y741678D1*
X3608342Y747996D1*
X3600742Y755597D1*
X3594424Y764293D1*
X3589544Y773870D1*
X3586222Y784093D1*
X3584541Y794710D1*
Y805458D1*
X3586222Y816075D1*
X3589544Y826298D1*
X3594424Y835875D1*
X3600742Y844571D1*
X3608342Y852172D1*
X3617038Y858490D1*
X3626616Y863370D1*
X3636838Y866691D1*
X3647455Y868373D1*
X3658204D1*
X3668820Y866691D1*
X3679043Y863370D1*
X3688621Y858490D1*
X3697317Y852172D1*
X3704917Y844571D1*
X3711235Y835875D1*
X3716115Y826298D1*
X3719437Y816075D1*
X3721118Y805458D1*
Y794710D1*
Y644710D2*
X3719437Y634093D1*
X3716115Y623870D1*
X3711235Y614293D1*
X3704917Y605597D1*
X3697317Y597996D1*
X3688621Y591678D1*
X3679043Y586798D1*
X3668820Y583477D1*
X3658204Y581795D1*
X3647455D1*
X3636838Y583477D1*
X3626616Y586798D1*
X3617038Y591678D1*
X3608342Y597996D1*
X3600742Y605597D1*
X3594424Y614293D1*
X3589544Y623870D1*
X3586222Y634093D1*
X3584541Y644710D1*
Y655458D1*
X3586222Y666075D1*
X3589544Y676298D1*
X3594424Y685875D1*
X3600742Y694571D1*
X3608342Y702172D1*
X3617038Y708490D1*
X3626616Y713370D1*
X3636838Y716691D1*
X3647455Y718373D1*
X3658204D1*
X3668820Y716691D1*
X3679043Y713370D1*
X3688621Y708490D1*
X3697317Y702172D1*
X3704917Y694571D1*
X3711235Y685875D1*
X3716115Y676298D1*
X3719437Y666075D1*
X3721118Y655458D1*
Y644710D1*
Y1150997D2*
X3719437Y1140380D1*
X3716115Y1130158D1*
X3711235Y1120580D1*
X3704917Y1111884D1*
X3697317Y1104284D1*
X3688621Y1097966D1*
X3679043Y1093086D1*
X3668820Y1089764D1*
X3658204Y1088083D1*
X3647455D1*
X3636838Y1089764D1*
X3626616Y1093086D1*
X3617038Y1097966D1*
X3608342Y1104284D1*
X3600742Y1111884D1*
X3594424Y1120580D1*
X3589544Y1130158D1*
X3586222Y1140380D1*
X3584541Y1150997D1*
Y1161746D1*
X3586222Y1172362D1*
X3589544Y1182585D1*
X3594424Y1192163D1*
X3600742Y1200859D1*
X3608342Y1208459D1*
X3617038Y1214777D1*
X3626616Y1219657D1*
X3636838Y1222979D1*
X3647455Y1224660D1*
X3658204D1*
X3668820Y1222979D1*
X3679043Y1219657D1*
X3688621Y1214777D1*
X3697317Y1208459D1*
X3704917Y1200859D1*
X3711235Y1192163D1*
X3716115Y1182585D1*
X3719437Y1172362D1*
X3721118Y1161746D1*
Y1150997D1*
Y1000997D2*
X3719437Y990380D1*
X3716115Y980158D1*
X3711235Y970580D1*
X3704917Y961884D1*
X3697317Y954284D1*
X3688621Y947966D1*
X3679043Y943086D1*
X3668820Y939764D1*
X3658204Y938083D1*
X3647455D1*
X3636838Y939764D1*
X3626616Y943086D1*
X3617038Y947966D1*
X3608342Y954284D1*
X3600742Y961884D1*
X3594424Y970580D1*
X3589544Y980158D1*
X3586222Y990380D1*
X3584541Y1000997D1*
Y1011746D1*
X3586222Y1022362D1*
X3589544Y1032585D1*
X3594424Y1042163D1*
X3600742Y1050859D1*
X3608342Y1058459D1*
X3617038Y1064777D1*
X3626616Y1069657D1*
X3636838Y1072979D1*
X3647455Y1074660D1*
X3658204D1*
X3668820Y1072979D1*
X3679043Y1069657D1*
X3688621Y1064777D1*
X3697317Y1058459D1*
X3704917Y1050859D1*
X3711235Y1042163D1*
X3716115Y1032585D1*
X3719437Y1022362D1*
X3721118Y1011746D1*
Y1000997D1*
Y1507284D2*
X3719437Y1496668D1*
X3716115Y1486445D1*
X3711235Y1476868D1*
X3704917Y1468172D1*
X3697317Y1460571D1*
X3688621Y1454253D1*
X3679043Y1449373D1*
X3668820Y1446051D1*
X3658204Y1444370D1*
X3647455D1*
X3636838Y1446051D1*
X3626616Y1449373D1*
X3617038Y1454253D1*
X3608342Y1460571D1*
X3600742Y1468172D1*
X3594424Y1476868D1*
X3589544Y1486445D1*
X3586222Y1496668D1*
X3584541Y1507284D1*
Y1518033D1*
X3586222Y1528650D1*
X3589544Y1538873D1*
X3594424Y1548450D1*
X3600742Y1557146D1*
X3608342Y1564747D1*
X3617038Y1571065D1*
X3626616Y1575945D1*
X3636838Y1579266D1*
X3647455Y1580948D1*
X3658204D1*
X3668820Y1579266D1*
X3679043Y1575945D1*
X3688621Y1571065D1*
X3697317Y1564747D1*
X3704917Y1557146D1*
X3711235Y1548450D1*
X3716115Y1538873D1*
X3719437Y1528650D1*
X3721118Y1518033D1*
Y1507284D1*
Y1357284D2*
X3719437Y1346668D1*
X3716115Y1336445D1*
X3711235Y1326868D1*
X3704917Y1318172D1*
X3697317Y1310571D1*
X3688621Y1304253D1*
X3679043Y1299373D1*
X3668820Y1296051D1*
X3658204Y1294370D1*
X3647455D1*
X3636838Y1296051D1*
X3626616Y1299373D1*
X3617038Y1304253D1*
X3608342Y1310571D1*
X3600742Y1318172D1*
X3594424Y1326868D1*
X3589544Y1336445D1*
X3586222Y1346668D1*
X3584541Y1357284D1*
Y1368033D1*
X3586222Y1378650D1*
X3589544Y1388873D1*
X3594424Y1398450D1*
X3600742Y1407146D1*
X3608342Y1414747D1*
X3617038Y1421065D1*
X3626616Y1425945D1*
X3636838Y1429266D1*
X3647455Y1430948D1*
X3658204D1*
X3668820Y1429266D1*
X3679043Y1425945D1*
X3688621Y1421065D1*
X3697317Y1414747D1*
X3704917Y1407146D1*
X3711235Y1398450D1*
X3716115Y1388873D1*
X3719437Y1378650D1*
X3721118Y1368033D1*
Y1357284D1*
Y1863572D2*
X3719437Y1852955D1*
X3716115Y1842732D1*
X3711235Y1833155D1*
X3704917Y1824459D1*
X3697317Y1816858D1*
X3688621Y1810540D1*
X3679043Y1805660D1*
X3668820Y1802339D1*
X3658204Y1800657D1*
X3647455D1*
X3636838Y1802339D1*
X3626616Y1805660D1*
X3617038Y1810540D1*
X3608342Y1816858D1*
X3600742Y1824459D1*
X3594424Y1833155D1*
X3589544Y1842732D1*
X3586222Y1852955D1*
X3584541Y1863572D1*
Y1874321D1*
X3586222Y1884937D1*
X3589544Y1895160D1*
X3594424Y1904737D1*
X3600742Y1913433D1*
X3608342Y1921034D1*
X3617038Y1927352D1*
X3626616Y1932232D1*
X3636838Y1935554D1*
X3647455Y1937235D1*
X3658204D1*
X3668820Y1935554D1*
X3679043Y1932232D1*
X3688621Y1927352D1*
X3697317Y1921034D1*
X3704917Y1913433D1*
X3711235Y1904737D1*
X3716115Y1895160D1*
X3719437Y1884937D1*
X3721118Y1874321D1*
Y1863572D1*
Y1713572D2*
X3719437Y1702955D1*
X3716115Y1692732D1*
X3711235Y1683155D1*
X3704917Y1674459D1*
X3697317Y1666858D1*
X3688621Y1660540D1*
X3679043Y1655660D1*
X3668820Y1652339D1*
X3658204Y1650657D1*
X3647455D1*
X3636838Y1652339D1*
X3626616Y1655660D1*
X3617038Y1660540D1*
X3608342Y1666858D1*
X3600742Y1674459D1*
X3594424Y1683155D1*
X3589544Y1692732D1*
X3586222Y1702955D1*
X3584541Y1713572D1*
Y1724321D1*
X3586222Y1734937D1*
X3589544Y1745160D1*
X3594424Y1754737D1*
X3600742Y1763433D1*
X3608342Y1771034D1*
X3617038Y1777352D1*
X3626616Y1782232D1*
X3636838Y1785554D1*
X3647455Y1787235D1*
X3658204D1*
X3668820Y1785554D1*
X3679043Y1782232D1*
X3688621Y1777352D1*
X3697317Y1771034D1*
X3704917Y1763433D1*
X3711235Y1754737D1*
X3716115Y1745160D1*
X3719437Y1734937D1*
X3721118Y1724321D1*
Y1713572D1*
Y2219859D2*
X3719437Y2209243D1*
X3716115Y2199020D1*
X3711235Y2189442D1*
X3704917Y2180746D1*
X3697317Y2173146D1*
X3688621Y2166828D1*
X3679043Y2161948D1*
X3668820Y2158626D1*
X3658204Y2156945D1*
X3647455D1*
X3636838Y2158626D1*
X3626616Y2161948D1*
X3617038Y2166828D1*
X3608342Y2173146D1*
X3600742Y2180746D1*
X3594424Y2189442D1*
X3589544Y2199020D1*
X3586222Y2209243D1*
X3584541Y2219859D1*
Y2230608D1*
X3586222Y2241225D1*
X3589544Y2251447D1*
X3594424Y2261025D1*
X3600742Y2269721D1*
X3608342Y2277321D1*
X3617038Y2283639D1*
X3626616Y2288519D1*
X3636838Y2291841D1*
X3647455Y2293522D1*
X3658204D1*
X3668820Y2291841D1*
X3679043Y2288519D1*
X3688621Y2283639D1*
X3697317Y2277321D1*
X3704917Y2269721D1*
X3711235Y2261025D1*
X3716115Y2251447D1*
X3719437Y2241225D1*
X3721118Y2230608D1*
Y2219859D1*
Y2069859D2*
X3719437Y2059243D1*
X3716115Y2049020D1*
X3711235Y2039442D1*
X3704917Y2030746D1*
X3697317Y2023146D1*
X3688621Y2016828D1*
X3679043Y2011948D1*
X3668820Y2008626D1*
X3658204Y2006945D1*
X3647455D1*
X3636838Y2008626D1*
X3626616Y2011948D1*
X3617038Y2016828D1*
X3608342Y2023146D1*
X3600742Y2030746D1*
X3594424Y2039442D1*
X3589544Y2049020D1*
X3586222Y2059243D1*
X3584541Y2069859D1*
Y2080608D1*
X3586222Y2091225D1*
X3589544Y2101447D1*
X3594424Y2111025D1*
X3600742Y2119721D1*
X3608342Y2127321D1*
X3617038Y2133639D1*
X3626616Y2138519D1*
X3636838Y2141841D1*
X3647455Y2143522D1*
X3658204D1*
X3668820Y2141841D1*
X3679043Y2138519D1*
X3688621Y2133639D1*
X3697317Y2127321D1*
X3704917Y2119721D1*
X3711235Y2111025D1*
X3716115Y2101447D1*
X3719437Y2091225D1*
X3721118Y2080608D1*
Y2069859D1*
Y2576147D2*
X3719437Y2565530D1*
X3716115Y2555307D1*
X3711235Y2545730D1*
X3704917Y2537034D1*
X3697317Y2529433D1*
X3688621Y2523115D1*
X3679043Y2518235D1*
X3668820Y2514914D1*
X3658204Y2513232D1*
X3647455D1*
X3636838Y2514914D1*
X3626616Y2518235D1*
X3617038Y2523115D1*
X3608342Y2529433D1*
X3600742Y2537034D1*
X3594424Y2545730D1*
X3589544Y2555307D1*
X3586222Y2565530D1*
X3584541Y2576147D1*
Y2586895D1*
X3586222Y2597512D1*
X3589544Y2607735D1*
X3594424Y2617312D1*
X3600742Y2626008D1*
X3608342Y2633609D1*
X3617038Y2639927D1*
X3626616Y2644807D1*
X3636838Y2648128D1*
X3647455Y2649810D1*
X3658204D1*
X3668820Y2648128D1*
X3679043Y2644807D1*
X3688621Y2639927D1*
X3697317Y2633609D1*
X3704917Y2626008D1*
X3711235Y2617312D1*
X3716115Y2607735D1*
X3719437Y2597512D1*
X3721118Y2586895D1*
Y2576147D1*
Y2426147D2*
X3719437Y2415530D1*
X3716115Y2405307D1*
X3711235Y2395730D1*
X3704917Y2387034D1*
X3697317Y2379433D1*
X3688621Y2373115D1*
X3679043Y2368235D1*
X3668820Y2364914D1*
X3658204Y2363232D1*
X3647455D1*
X3636838Y2364914D1*
X3626616Y2368235D1*
X3617038Y2373115D1*
X3608342Y2379433D1*
X3600742Y2387034D1*
X3594424Y2395730D1*
X3589544Y2405307D1*
X3586222Y2415530D1*
X3584541Y2426147D1*
Y2436895D1*
X3586222Y2447512D1*
X3589544Y2457735D1*
X3594424Y2467312D1*
X3600742Y2476008D1*
X3608342Y2483609D1*
X3617038Y2489927D1*
X3626616Y2494807D1*
X3636838Y2498128D1*
X3647455Y2499810D1*
X3658204D1*
X3668820Y2498128D1*
X3679043Y2494807D1*
X3688621Y2489927D1*
X3697317Y2483609D1*
X3704917Y2476008D1*
X3711235Y2467312D1*
X3716115Y2457735D1*
X3719437Y2447512D1*
X3721118Y2436895D1*
Y2426147D1*
Y2932434D2*
X3719437Y2921817D1*
X3716115Y2911595D1*
X3711235Y2902017D1*
X3704917Y2893321D1*
X3697317Y2885721D1*
X3688621Y2879403D1*
X3679043Y2874523D1*
X3668820Y2871201D1*
X3658204Y2869520D1*
X3647455D1*
X3636838Y2871201D1*
X3626616Y2874523D1*
X3617038Y2879403D1*
X3608342Y2885721D1*
X3600742Y2893321D1*
X3594424Y2902017D1*
X3589544Y2911595D1*
X3586222Y2921817D1*
X3584541Y2932434D1*
Y2943183D1*
X3586222Y2953799D1*
X3589544Y2964022D1*
X3594424Y2973600D1*
X3600742Y2982296D1*
X3608342Y2989896D1*
X3617038Y2996214D1*
X3626616Y3001094D1*
X3636838Y3004416D1*
X3647455Y3006097D1*
X3658204D1*
X3668820Y3004416D1*
X3679043Y3001094D1*
X3688621Y2996214D1*
X3697317Y2989896D1*
X3704917Y2982296D1*
X3711235Y2973600D1*
X3716115Y2964022D1*
X3719437Y2953799D1*
X3721118Y2943183D1*
Y2932434D1*
Y2782434D2*
X3719437Y2771817D1*
X3716115Y2761595D1*
X3711235Y2752017D1*
X3704917Y2743321D1*
X3697317Y2735721D1*
X3688621Y2729403D1*
X3679043Y2724523D1*
X3668820Y2721201D1*
X3658204Y2719520D1*
X3647455D1*
X3636838Y2721201D1*
X3626616Y2724523D1*
X3617038Y2729403D1*
X3608342Y2735721D1*
X3600742Y2743321D1*
X3594424Y2752017D1*
X3589544Y2761595D1*
X3586222Y2771817D1*
X3584541Y2782434D1*
Y2793183D1*
X3586222Y2803799D1*
X3589544Y2814022D1*
X3594424Y2823600D1*
X3600742Y2832296D1*
X3608342Y2839896D1*
X3617038Y2846214D1*
X3626616Y2851094D1*
X3636838Y2854416D1*
X3647455Y2856097D1*
X3658204D1*
X3668820Y2854416D1*
X3679043Y2851094D1*
X3688621Y2846214D1*
X3697317Y2839896D1*
X3704917Y2832296D1*
X3711235Y2823600D1*
X3716115Y2814022D1*
X3719437Y2803799D1*
X3721118Y2793183D1*
Y2782434D1*
Y3288721D2*
X3719437Y3278105D1*
X3716115Y3267882D1*
X3711235Y3258305D1*
X3704917Y3249609D1*
X3697317Y3242008D1*
X3688621Y3235690D1*
X3679043Y3230810D1*
X3668820Y3227488D1*
X3658204Y3225807D1*
X3647455D1*
X3636838Y3227488D1*
X3626616Y3230810D1*
X3617038Y3235690D1*
X3608342Y3242008D1*
X3600742Y3249609D1*
X3594424Y3258305D1*
X3589544Y3267882D1*
X3586222Y3278105D1*
X3584541Y3288721D1*
Y3299470D1*
X3586222Y3310087D1*
X3589544Y3320310D1*
X3594424Y3329887D1*
X3600742Y3338583D1*
X3608342Y3346184D1*
X3617038Y3352502D1*
X3626616Y3357382D1*
X3636838Y3360703D1*
X3647455Y3362385D1*
X3658204D1*
X3668820Y3360703D1*
X3679043Y3357382D1*
X3688621Y3352502D1*
X3697317Y3346184D1*
X3704917Y3338583D1*
X3711235Y3329887D1*
X3716115Y3320310D1*
X3719437Y3310087D1*
X3721118Y3299470D1*
Y3288721D1*
Y3138721D2*
X3719437Y3128105D1*
X3716115Y3117882D1*
X3711235Y3108305D1*
X3704917Y3099609D1*
X3697317Y3092008D1*
X3688621Y3085690D1*
X3679043Y3080810D1*
X3668820Y3077488D1*
X3658204Y3075807D1*
X3647455D1*
X3636838Y3077488D1*
X3626616Y3080810D1*
X3617038Y3085690D1*
X3608342Y3092008D1*
X3600742Y3099609D1*
X3594424Y3108305D1*
X3589544Y3117882D1*
X3586222Y3128105D1*
X3584541Y3138721D1*
Y3149470D1*
X3586222Y3160087D1*
X3589544Y3170310D1*
X3594424Y3179887D1*
X3600742Y3188583D1*
X3608342Y3196184D1*
X3617038Y3202502D1*
X3626616Y3207382D1*
X3636838Y3210703D1*
X3647455Y3212385D1*
X3658204D1*
X3668820Y3210703D1*
X3679043Y3207382D1*
X3688621Y3202502D1*
X3697317Y3196184D1*
X3704917Y3188583D1*
X3711235Y3179887D1*
X3716115Y3170310D1*
X3719437Y3160087D1*
X3721118Y3149470D1*
Y3138721D1*
X714718Y3647884D2*
X713626Y3637952D1*
X711102Y3628286D1*
X707197Y3619089D1*
X701997Y3610558D1*
X695611Y3602874D1*
X688175Y3596201D1*
X679847Y3590681D1*
X670805Y3586430D1*
X661241Y3583541D1*
X651359Y3582073D1*
X641368Y3582058D1*
X631481Y3583497D1*
X621908Y3586359D1*
X612854Y3590583D1*
X604510Y3596079D1*
X597055Y3602731D1*
X590647Y3610396D1*
X585421Y3618912D1*
X581490Y3628097D1*
X578938Y3637757D1*
X577817Y3647685D1*
X578152Y3657670D1*
X579937Y3667501D1*
X583133Y3676967D1*
X587671Y3685868D1*
X593456Y3694014D1*
X600365Y3701231D1*
X608250Y3707367D1*
X616943Y3712291D1*
X626261Y3715898D1*
X636004Y3718110D1*
X645965Y3718883D1*
X655933Y3718197D1*
X665695Y3716070D1*
X675043Y3712544D1*
X683779Y3707697D1*
X691718Y3701630D1*
X698689Y3694472D1*
X704545Y3686377D1*
X709161Y3677517D1*
X712439Y3668078D1*
X714309Y3658264D1*
X714718Y3647884D1*
X864553Y3645009D2*
X862871Y3634392D1*
X859550Y3624169D1*
X854670Y3614592D1*
X848352Y3605896D1*
X840751Y3598295D1*
X832055Y3591977D1*
X822478Y3587097D1*
X812255Y3583776D1*
X801638Y3582094D1*
X790889D1*
X780273Y3583776D1*
X770050Y3587097D1*
X760473Y3591977D1*
X751777Y3598295D1*
X744176Y3605896D1*
X737858Y3614592D1*
X732978Y3624169D1*
X729656Y3634392D1*
X727975Y3645009D1*
Y3655758D1*
X729656Y3666374D1*
X732978Y3676597D1*
X737858Y3686174D1*
X744176Y3694870D1*
X751777Y3702471D1*
X760473Y3708789D1*
X770050Y3713669D1*
X780273Y3716991D1*
X790889Y3718672D1*
X801638D1*
X812255Y3716991D1*
X822478Y3713669D1*
X832055Y3708789D1*
X840751Y3702471D1*
X848352Y3694870D1*
X854670Y3686174D1*
X859550Y3676597D1*
X862871Y3666374D1*
X864553Y3655758D1*
Y3645009D1*
X1071006Y3647884D2*
X1069914Y3637952D1*
X1067389Y3628286D1*
X1063485Y3619089D1*
X1058284Y3610558D1*
X1051898Y3602874D1*
X1044462Y3596201D1*
X1036135Y3590681D1*
X1027093Y3586430D1*
X1017529Y3583541D1*
X1007646Y3582073D1*
X997655Y3582058D1*
X987768Y3583497D1*
X978196Y3586359D1*
X969141Y3590583D1*
X960798Y3596079D1*
X953342Y3602731D1*
X946934Y3610396D1*
X941709Y3618912D1*
X937778Y3628097D1*
X935225Y3637757D1*
X934104Y3647685D1*
X934440Y3657670D1*
X936224Y3667501D1*
X939420Y3676967D1*
X943959Y3685868D1*
X949744Y3694014D1*
X956652Y3701231D1*
X964537Y3707367D1*
X973231Y3712291D1*
X982548Y3715898D1*
X992291Y3718110D1*
X1002253Y3718883D1*
X1012220Y3718197D1*
X1021982Y3716070D1*
X1031331Y3712544D1*
X1040067Y3707697D1*
X1048005Y3701630D1*
X1054976Y3694472D1*
X1060832Y3686377D1*
X1065448Y3677517D1*
X1068726Y3668078D1*
X1070596Y3658264D1*
X1071006Y3647884D1*
X1220840Y3645009D2*
X1219159Y3634392D1*
X1215837Y3624169D1*
X1210957Y3614592D1*
X1204639Y3605896D1*
X1197038Y3598295D1*
X1188342Y3591977D1*
X1178765Y3587097D1*
X1168542Y3583776D1*
X1157926Y3582094D1*
X1147177D1*
X1136560Y3583776D1*
X1126337Y3587097D1*
X1116760Y3591977D1*
X1108064Y3598295D1*
X1100463Y3605896D1*
X1094145Y3614592D1*
X1089265Y3624169D1*
X1085944Y3634392D1*
X1084262Y3645009D1*
Y3655758D1*
X1085944Y3666374D1*
X1089265Y3676597D1*
X1094145Y3686174D1*
X1100463Y3694870D1*
X1108064Y3702471D1*
X1116760Y3708789D1*
X1126337Y3713669D1*
X1136560Y3716991D1*
X1147177Y3718672D1*
X1157926D1*
X1168542Y3716991D1*
X1178765Y3713669D1*
X1188342Y3708789D1*
X1197038Y3702471D1*
X1204639Y3694870D1*
X1210957Y3686174D1*
X1215837Y3676597D1*
X1219159Y3666374D1*
X1220840Y3655758D1*
Y3645009D1*
X1427293Y3647884D2*
X1426201Y3637952D1*
X1423676Y3628286D1*
X1419772Y3619089D1*
X1414572Y3610558D1*
X1408186Y3602874D1*
X1400750Y3596201D1*
X1392422Y3590681D1*
X1383380Y3586430D1*
X1373816Y3583541D1*
X1363933Y3582073D1*
X1353942Y3582058D1*
X1344055Y3583497D1*
X1334483Y3586359D1*
X1325429Y3590583D1*
X1317085Y3596079D1*
X1309630Y3602731D1*
X1303221Y3610396D1*
X1297996Y3618912D1*
X1294065Y3628097D1*
X1291512Y3637757D1*
X1290392Y3647685D1*
X1290727Y3657670D1*
X1292512Y3667501D1*
X1295707Y3676967D1*
X1300246Y3685868D1*
X1306031Y3694014D1*
X1312940Y3701231D1*
X1320825Y3707367D1*
X1329518Y3712291D1*
X1338836Y3715898D1*
X1348579Y3718110D1*
X1358540Y3718883D1*
X1368508Y3718197D1*
X1378269Y3716070D1*
X1387618Y3712544D1*
X1396354Y3707697D1*
X1404292Y3701630D1*
X1411264Y3694472D1*
X1417120Y3686377D1*
X1421736Y3677517D1*
X1425014Y3668078D1*
X1426884Y3658264D1*
X1427293Y3647884D1*
X1577127Y3645009D2*
X1575446Y3634392D1*
X1572124Y3624169D1*
X1567244Y3614592D1*
X1560926Y3605896D1*
X1553326Y3598295D1*
X1544630Y3591977D1*
X1535052Y3587097D1*
X1524830Y3583776D1*
X1514213Y3582094D1*
X1503464D1*
X1492848Y3583776D1*
X1482625Y3587097D1*
X1473047Y3591977D1*
X1464351Y3598295D1*
X1456751Y3605896D1*
X1450433Y3614592D1*
X1445553Y3624169D1*
X1442231Y3634392D1*
X1440550Y3645009D1*
Y3655758D1*
X1442231Y3666374D1*
X1445553Y3676597D1*
X1450433Y3686174D1*
X1456751Y3694870D1*
X1464351Y3702471D1*
X1473047Y3708789D1*
X1482625Y3713669D1*
X1492848Y3716991D1*
X1503464Y3718672D1*
X1514213D1*
X1524830Y3716991D1*
X1535052Y3713669D1*
X1544630Y3708789D1*
X1553326Y3702471D1*
X1560926Y3694870D1*
X1567244Y3686174D1*
X1572124Y3676597D1*
X1575446Y3666374D1*
X1577127Y3655758D1*
Y3645009D1*
X1783580Y3647884D2*
X1782489Y3637952D1*
X1779964Y3628286D1*
X1776060Y3619089D1*
X1770859Y3610558D1*
X1764473Y3602874D1*
X1757037Y3596201D1*
X1748710Y3590681D1*
X1739668Y3586430D1*
X1730104Y3583541D1*
X1720221Y3582073D1*
X1710230Y3582058D1*
X1700343Y3583497D1*
X1690770Y3586359D1*
X1681716Y3590583D1*
X1673372Y3596079D1*
X1665917Y3602731D1*
X1659509Y3610396D1*
X1654284Y3618912D1*
X1650353Y3628097D1*
X1647800Y3637757D1*
X1646679Y3647685D1*
X1647015Y3657670D1*
X1648799Y3667501D1*
X1651995Y3676967D1*
X1656533Y3685868D1*
X1662318Y3694014D1*
X1669227Y3701231D1*
X1677112Y3707367D1*
X1685806Y3712291D1*
X1695123Y3715898D1*
X1704866Y3718110D1*
X1714827Y3718883D1*
X1724795Y3718197D1*
X1734557Y3716070D1*
X1743905Y3712544D1*
X1752642Y3707697D1*
X1760580Y3701630D1*
X1767551Y3694472D1*
X1773407Y3686377D1*
X1778023Y3677517D1*
X1781301Y3668078D1*
X1783171Y3658264D1*
X1783580Y3647884D1*
X1933415Y3645009D2*
X1931733Y3634392D1*
X1928412Y3624169D1*
X1923532Y3614592D1*
X1917214Y3605896D1*
X1909613Y3598295D1*
X1900917Y3591977D1*
X1891340Y3587097D1*
X1881117Y3583776D1*
X1870500Y3582094D1*
X1859752D1*
X1849135Y3583776D1*
X1838912Y3587097D1*
X1829335Y3591977D1*
X1820639Y3598295D1*
X1813038Y3605896D1*
X1806720Y3614592D1*
X1801840Y3624169D1*
X1798519Y3634392D1*
X1796837Y3645009D1*
Y3655758D1*
X1798519Y3666374D1*
X1801840Y3676597D1*
X1806720Y3686174D1*
X1813038Y3694870D1*
X1820639Y3702471D1*
X1829335Y3708789D1*
X1838912Y3713669D1*
X1849135Y3716991D1*
X1859752Y3718672D1*
X1870500D1*
X1881117Y3716991D1*
X1891340Y3713669D1*
X1900917Y3708789D1*
X1909613Y3702471D1*
X1917214Y3694870D1*
X1923532Y3686174D1*
X1928412Y3676597D1*
X1931733Y3666374D1*
X1933415Y3655758D1*
Y3645009D1*
X2139868Y3647884D2*
X2138776Y3637952D1*
X2136251Y3628286D1*
X2132347Y3619089D1*
X2127147Y3610558D1*
X2120761Y3602874D1*
X2113325Y3596201D1*
X2104997Y3590681D1*
X2095955Y3586430D1*
X2086391Y3583541D1*
X2076508Y3582073D1*
X2066517Y3582058D1*
X2056630Y3583497D1*
X2047058Y3586359D1*
X2038003Y3590583D1*
X2029660Y3596079D1*
X2022205Y3602731D1*
X2015796Y3610396D1*
X2010571Y3618912D1*
X2006640Y3628097D1*
X2004087Y3637757D1*
X2002967Y3647685D1*
X2003302Y3657670D1*
X2005087Y3667501D1*
X2008282Y3676967D1*
X2012821Y3685868D1*
X2018606Y3694014D1*
X2025514Y3701231D1*
X2033399Y3707367D1*
X2042093Y3712291D1*
X2051411Y3715898D1*
X2061153Y3718110D1*
X2071115Y3718883D1*
X2081082Y3718197D1*
X2090844Y3716070D1*
X2100193Y3712544D1*
X2108929Y3707697D1*
X2116867Y3701630D1*
X2123838Y3694472D1*
X2129694Y3686377D1*
X2134310Y3677517D1*
X2137588Y3668078D1*
X2139459Y3658264D1*
X2139868Y3647884D1*
X2289702Y3645009D2*
X2288021Y3634392D1*
X2284699Y3624169D1*
X2279819Y3614592D1*
X2273501Y3605896D1*
X2265901Y3598295D1*
X2257205Y3591977D1*
X2247627Y3587097D1*
X2237404Y3583776D1*
X2226788Y3582094D1*
X2216039D1*
X2205422Y3583776D1*
X2195200Y3587097D1*
X2185622Y3591977D1*
X2176926Y3598295D1*
X2169326Y3605896D1*
X2163008Y3614592D1*
X2158128Y3624169D1*
X2154806Y3634392D1*
X2153125Y3645009D1*
Y3655758D1*
X2154806Y3666374D1*
X2158128Y3676597D1*
X2163008Y3686174D1*
X2169326Y3694870D1*
X2176926Y3702471D1*
X2185622Y3708789D1*
X2195200Y3713669D1*
X2205422Y3716991D1*
X2216039Y3718672D1*
X2226788D1*
X2237404Y3716991D1*
X2247627Y3713669D1*
X2257205Y3708789D1*
X2265901Y3702471D1*
X2273501Y3694870D1*
X2279819Y3686174D1*
X2284699Y3676597D1*
X2288021Y3666374D1*
X2289702Y3655758D1*
Y3645009D1*
X2496155Y3647884D2*
X2495063Y3637952D1*
X2492539Y3628286D1*
X2488634Y3619089D1*
X2483434Y3610558D1*
X2477048Y3602874D1*
X2469612Y3596201D1*
X2461284Y3590681D1*
X2452242Y3586430D1*
X2442678Y3583541D1*
X2432796Y3582073D1*
X2422805Y3582058D1*
X2412918Y3583497D1*
X2403345Y3586359D1*
X2394291Y3590583D1*
X2385947Y3596079D1*
X2378492Y3602731D1*
X2372084Y3610396D1*
X2366858Y3618912D1*
X2362927Y3628097D1*
X2360375Y3637757D1*
X2359254Y3647685D1*
X2359589Y3657670D1*
X2361374Y3667501D1*
X2364570Y3676967D1*
X2369108Y3685868D1*
X2374893Y3694014D1*
X2381802Y3701231D1*
X2389687Y3707367D1*
X2398380Y3712291D1*
X2407698Y3715898D1*
X2417441Y3718110D1*
X2427402Y3718883D1*
X2437370Y3718197D1*
X2447132Y3716070D1*
X2456480Y3712544D1*
X2465216Y3707697D1*
X2473155Y3701630D1*
X2480126Y3694472D1*
X2485982Y3686377D1*
X2490598Y3677517D1*
X2493876Y3668078D1*
X2495746Y3658264D1*
X2496155Y3647884D1*
X2645990Y3645009D2*
X2644308Y3634392D1*
X2640987Y3624169D1*
X2636107Y3614592D1*
X2629789Y3605896D1*
X2622188Y3598295D1*
X2613492Y3591977D1*
X2603915Y3587097D1*
X2593692Y3583776D1*
X2583075Y3582094D1*
X2572326D1*
X2561710Y3583776D1*
X2551487Y3587097D1*
X2541910Y3591977D1*
X2533214Y3598295D1*
X2525613Y3605896D1*
X2519295Y3614592D1*
X2514415Y3624169D1*
X2511093Y3634392D1*
X2509412Y3645009D1*
Y3655758D1*
X2511093Y3666374D1*
X2514415Y3676597D1*
X2519295Y3686174D1*
X2525613Y3694870D1*
X2533214Y3702471D1*
X2541910Y3708789D1*
X2551487Y3713669D1*
X2561710Y3716991D1*
X2572326Y3718672D1*
X2583075D1*
X2593692Y3716991D1*
X2603915Y3713669D1*
X2613492Y3708789D1*
X2622188Y3702471D1*
X2629789Y3694870D1*
X2636107Y3686174D1*
X2640987Y3676597D1*
X2644308Y3666374D1*
X2645990Y3655758D1*
Y3645009D1*
X2852443Y3647884D2*
X2851351Y3637952D1*
X2848826Y3628286D1*
X2844922Y3619089D1*
X2839721Y3610558D1*
X2833335Y3602874D1*
X2825899Y3596201D1*
X2817572Y3590681D1*
X2808530Y3586430D1*
X2798966Y3583541D1*
X2789083Y3582073D1*
X2779092Y3582058D1*
X2769205Y3583497D1*
X2759633Y3586359D1*
X2750578Y3590583D1*
X2742235Y3596079D1*
X2734779Y3602731D1*
X2728371Y3610396D1*
X2723146Y3618912D1*
X2719215Y3628097D1*
X2716662Y3637757D1*
X2715541Y3647685D1*
X2715877Y3657670D1*
X2717661Y3667501D1*
X2720857Y3676967D1*
X2725396Y3685868D1*
X2731181Y3694014D1*
X2738089Y3701231D1*
X2745974Y3707367D1*
X2754668Y3712291D1*
X2763985Y3715898D1*
X2773728Y3718110D1*
X2783690Y3718883D1*
X2793657Y3718197D1*
X2803419Y3716070D1*
X2812768Y3712544D1*
X2821504Y3707697D1*
X2829442Y3701630D1*
X2836413Y3694472D1*
X2842269Y3686377D1*
X2846885Y3677517D1*
X2850163Y3668078D1*
X2852033Y3658264D1*
X2852443Y3647884D1*
X3002277Y3645009D2*
X3000596Y3634392D1*
X2997274Y3624169D1*
X2992394Y3614592D1*
X2986076Y3605896D1*
X2978475Y3598295D1*
X2969779Y3591977D1*
X2960202Y3587097D1*
X2949979Y3583776D1*
X2939363Y3582094D1*
X2928614D1*
X2917997Y3583776D1*
X2907774Y3587097D1*
X2898197Y3591977D1*
X2889501Y3598295D1*
X2881900Y3605896D1*
X2875582Y3614592D1*
X2870702Y3624169D1*
X2867381Y3634392D1*
X2865699Y3645009D1*
Y3655758D1*
X2867381Y3666374D1*
X2870702Y3676597D1*
X2875582Y3686174D1*
X2881900Y3694870D1*
X2889501Y3702471D1*
X2898197Y3708789D1*
X2907774Y3713669D1*
X2917997Y3716991D1*
X2928614Y3718672D1*
X2939363D1*
X2949979Y3716991D1*
X2960202Y3713669D1*
X2969779Y3708789D1*
X2978475Y3702471D1*
X2986076Y3694870D1*
X2992394Y3686174D1*
X2997274Y3676597D1*
X3000596Y3666374D1*
X3002277Y3655758D1*
Y3645009D1*
X3208730Y3647884D2*
X3207638Y3637952D1*
X3205113Y3628286D1*
X3201209Y3619089D1*
X3196009Y3610558D1*
X3189623Y3602874D1*
X3182187Y3596201D1*
X3173859Y3590681D1*
X3164817Y3586430D1*
X3155253Y3583541D1*
X3145370Y3582073D1*
X3135379Y3582058D1*
X3125492Y3583497D1*
X3115920Y3586359D1*
X3106866Y3590583D1*
X3098522Y3596079D1*
X3091067Y3602731D1*
X3084658Y3610396D1*
X3079433Y3618912D1*
X3075502Y3628097D1*
X3072949Y3637757D1*
X3071829Y3647685D1*
X3072164Y3657670D1*
X3073949Y3667501D1*
X3077144Y3676967D1*
X3081683Y3685868D1*
X3087468Y3694014D1*
X3094377Y3701231D1*
X3102262Y3707367D1*
X3110955Y3712291D1*
X3120273Y3715898D1*
X3130016Y3718110D1*
X3139977Y3718883D1*
X3149945Y3718197D1*
X3159706Y3716070D1*
X3169055Y3712544D1*
X3177791Y3707697D1*
X3185729Y3701630D1*
X3192701Y3694472D1*
X3198557Y3686377D1*
X3203173Y3677517D1*
X3206451Y3668078D1*
X3208321Y3658264D1*
X3208730Y3647884D1*
X3358564Y3645009D2*
X3356883Y3634392D1*
X3353561Y3624169D1*
X3348681Y3614592D1*
X3342363Y3605896D1*
X3334763Y3598295D1*
X3326067Y3591977D1*
X3316489Y3587097D1*
X3306267Y3583776D1*
X3295650Y3582094D1*
X3284901D1*
X3274285Y3583776D1*
X3264062Y3587097D1*
X3254484Y3591977D1*
X3245788Y3598295D1*
X3238188Y3605896D1*
X3231870Y3614592D1*
X3226990Y3624169D1*
X3223668Y3634392D1*
X3221987Y3645009D1*
Y3655758D1*
X3223668Y3666374D1*
X3226990Y3676597D1*
X3231870Y3686174D1*
X3238188Y3694870D1*
X3245788Y3702471D1*
X3254484Y3708789D1*
X3264062Y3713669D1*
X3274285Y3716991D1*
X3284901Y3718672D1*
X3295650D1*
X3306267Y3716991D1*
X3316489Y3713669D1*
X3326067Y3708789D1*
X3334763Y3702471D1*
X3342363Y3694870D1*
X3348681Y3686174D1*
X3353561Y3676597D1*
X3356883Y3666374D1*
X3358564Y3655758D1*
Y3645009D1*
X2217421Y134817D2*
X2224237Y128198D1*
X2229128Y121467D1*
X2232906Y114053D1*
X2233891Y111382D1*
X2236667Y117834D1*
X2241015Y124929D1*
X2246419Y131256D1*
X2250408Y134817D1*
X2250415Y1093613D1*
X2247299Y1100720D1*
X2246661Y1102981D1*
X2217406Y1073718D1*
X2217415Y134820D1*
X2039021Y676561D2*
X1829858Y467398D1*
X1829781Y309904D1*
X1828245Y302181D1*
X1824948Y295029D1*
X1820065Y288838D1*
X1799389Y268307D1*
X1792841Y263932D1*
X1785453Y261206D1*
X1777622Y260281D1*
X1337458Y260384D1*
X1329735Y261920D1*
X1322583Y265217D1*
X1316392Y270100D1*
X1270858Y315779D1*
X1266483Y322327D1*
X1263758Y329715D1*
X1262832Y337546D1*
Y612389D1*
X1259716Y619419D1*
X1258306Y625294D1*
X1257832Y631316D1*
X1258306Y637339D1*
X1259716Y643213D1*
X1262028Y648795D1*
X1265185Y653946D1*
X1269108Y658540D1*
X1273702Y662463D1*
X1278853Y665620D1*
X1284435Y667932D1*
X1290309Y669342D1*
X1296332Y669816D1*
X1302355Y669342D1*
X1308229Y667932D1*
X1313811Y665620D1*
X1318962Y662463D1*
X1323556Y658540D1*
X1327479Y653946D1*
X1330636Y648795D1*
X1332948Y643213D1*
X1334358Y637339D1*
X1334832Y631316D1*
X1334358Y625294D1*
X1332948Y619419D1*
X1329834Y612406D1*
X1329832Y351385D1*
X1353960Y327284D1*
X1483958Y327407D1*
X1480801Y332558D1*
X1478489Y338140D1*
X1477079Y344014D1*
X1476605Y350037D1*
X1477079Y356059D1*
X1478489Y361934D1*
X1480801Y367515D1*
X1483958Y372666D1*
X1487601Y376957D1*
X1487605Y1220007D1*
X1478707Y1228886D1*
X1460757Y1228882D1*
X1456476Y1225235D1*
X1451325Y1222078D1*
X1445744Y1219766D1*
X1439869Y1218356D1*
X1433846Y1217882D1*
X1427824Y1218356D1*
X1421949Y1219766D1*
X1416368Y1222078D1*
X1411217Y1225235D1*
X1408002Y1227884D1*
X1272177Y1227882D1*
X1266443Y1223555D1*
X1261060Y1220813D1*
X1255314Y1218946D1*
X1249347Y1218001D1*
X1243306D1*
X1237339Y1218946D1*
X1231593Y1220813D1*
X1226211Y1223555D1*
X1221323Y1227106D1*
X1217051Y1231378D1*
X1213500Y1236266D1*
X1210757Y1241649D1*
X1208891Y1247394D1*
X1207945Y1253361D1*
Y1259403D1*
X1208891Y1265370D1*
X1210757Y1271115D1*
X1213500Y1276498D1*
X1217051Y1281386D1*
X1221323Y1285658D1*
X1226211Y1289209D1*
X1231593Y1291951D1*
X1237339Y1293818D1*
X1243306Y1294763D1*
X1249347D1*
X1255314Y1293818D1*
X1261060Y1291951D1*
X1266443Y1289209D1*
X1272172Y1284880D1*
X1407997Y1284882D1*
X1413730Y1289209D1*
X1419113Y1291951D1*
X1424859Y1293818D1*
X1430826Y1294763D1*
X1436867D1*
X1442834Y1293818D1*
X1448580Y1291951D1*
X1453963Y1289209D1*
X1458850Y1285658D1*
X1460767Y1283886D1*
X1492260Y1283797D1*
X1498600Y1282536D1*
X1504471Y1279830D1*
X1509548Y1275827D1*
X1536016Y1249239D1*
X1539608Y1243864D1*
X1541845Y1237799D1*
X1542605Y1231379D1*
Y525666D1*
X1548731Y531200D1*
X1553882Y534356D1*
X1559464Y536668D1*
X1565338Y538078D1*
X1571361Y538552D1*
X1577384Y538078D1*
X1583258Y536668D1*
X1588840Y534356D1*
X1593991Y531200D1*
X1598585Y527276D1*
X1602508Y522682D1*
X1605665Y517531D1*
X1607977Y511950D1*
X1609387Y506075D1*
X1609861Y500052D1*
X1609387Y494030D1*
X1607977Y488155D1*
X1605665Y482574D1*
X1602508Y477423D1*
X1598865Y473132D1*
X1598861Y376957D1*
X1602508Y372666D1*
X1605665Y367515D1*
X1607977Y361934D1*
X1609387Y356059D1*
X1609861Y350037D1*
X1609387Y344014D1*
X1607977Y338140D1*
X1605665Y332558D1*
X1602587Y327281D1*
X1762889D1*
X1762988Y483929D1*
X1764524Y491653D1*
X1767821Y498804D1*
X1772704Y504996D1*
X2005902Y738048D1*
X2012450Y742424D1*
X2019838Y745149D1*
X2027669Y746074D1*
X2033665Y746075D1*
X2040764Y749190D1*
X2046639Y750601D1*
X2052661Y751075D1*
X2058684Y750601D1*
X2064559Y749190D1*
X2070140Y746879D1*
X2075291Y743722D1*
X2079885Y739798D1*
X2083809Y735205D1*
X2086965Y730053D1*
X2089277Y724472D1*
X2090687Y718598D1*
X2091161Y712575D1*
X2090687Y706552D1*
X2089277Y700678D1*
X2086965Y695096D1*
X2083809Y689945D1*
X2079885Y685351D1*
X2075291Y681428D1*
X2070140Y678271D1*
X2064559Y675959D1*
X2058684Y674549D1*
X2052661Y674075D1*
X2046639Y674549D1*
X2039047Y676593D1*
X1605367Y1819866D2*
X1605718Y1842151D1*
X1607537Y1848599D1*
X1610810Y1854445D1*
X1613715Y1857846D1*
X1799158Y2043288D1*
X1799138Y2099578D1*
X1792366Y2095904D1*
X1786620Y2094037D1*
X1780653Y2093092D1*
X1652633Y2092974D1*
X1543338Y2093092D1*
X1537371Y2094037D1*
X1531625Y2095904D1*
X1526242Y2098647D1*
X1521354Y2102198D1*
X1434855Y2188530D1*
X1434736Y2121998D1*
X1433791Y2116031D1*
X1431924Y2110285D1*
X1429181Y2104902D1*
X1425630Y2100015D1*
X1421358Y2095743D1*
X1416471Y2092192D1*
X1411088Y2089449D1*
X1405342Y2087582D1*
X1399375Y2086637D1*
X1393334D1*
X1387367Y2087582D1*
X1381621Y2089449D1*
X1376238Y2092192D1*
X1371351Y2095743D1*
X1367079Y2100015D1*
X1363528Y2104902D1*
X1360785Y2110285D1*
X1358918Y2116031D1*
X1357973Y2121998D1*
X1357854Y2222215D1*
X1358328Y2228238D1*
X1359739Y2234112D1*
X1362050Y2239694D1*
X1363534Y2242341D1*
X1358843Y2242989D1*
X1337066Y2243108D1*
X1331099Y2244053D1*
X1325353Y2245920D1*
X1319970Y2248663D1*
X1315083Y2252214D1*
X1310811Y2256486D1*
X1307260Y2261373D1*
X1304517Y2266756D1*
X1302650Y2272502D1*
X1301705Y2278469D1*
Y2284510D1*
X1302650Y2290477D1*
X1304517Y2296223D1*
X1307266Y2301616D1*
X1302623Y2304031D1*
X1100367Y2304116D1*
X1094027Y2305377D1*
X1088156Y2308084D1*
X1083079Y2312086D1*
X981640Y2413645D1*
X978048Y2419020D1*
X975811Y2425085D1*
X975051Y2431505D1*
Y2655968D1*
X971299Y2652256D1*
X966411Y2648705D1*
X961029Y2645962D1*
X955283Y2644095D1*
X949316Y2643150D1*
X943275D1*
X937308Y2644095D1*
X931562Y2645962D1*
X926179Y2648705D1*
X921292Y2652256D1*
X917020Y2656528D1*
X913469Y2661415D1*
X910726Y2666798D1*
X908859Y2672544D1*
X907914Y2678511D1*
X907812Y2681119D1*
X577129Y3011807D1*
X571484Y3012294D1*
X565609Y3013705D1*
X560028Y3016016D1*
X554877Y3019173D1*
X550283Y3023097D1*
X546359Y3027690D1*
X543203Y3032842D1*
X540891Y3038423D1*
X539481Y3044297D1*
X539007Y3050320D1*
X539481Y3056343D1*
X540891Y3062217D1*
X543203Y3067799D1*
X546359Y3072950D1*
X550283Y3077544D1*
X554877Y3081467D1*
X560028Y3084624D1*
X565609Y3086936D1*
X571484Y3088346D1*
X577507Y3088820D1*
X583529Y3088346D1*
X589404Y3086936D1*
X594985Y3084624D1*
X600136Y3081467D1*
X604730Y3077544D1*
X608654Y3072950D1*
X611810Y3067799D1*
X614122Y3062217D1*
X615533Y3056343D1*
X615990Y3050733D1*
X626516Y3050320D1*
X626990Y3056343D1*
X628400Y3062217D1*
X630712Y3067799D1*
X633869Y3072950D1*
X637792Y3077544D1*
X642386Y3081467D1*
X647537Y3084624D1*
X653119Y3086936D1*
X658993Y3088346D1*
X665016Y3088820D1*
X671038Y3088346D1*
X676913Y3086936D1*
X682494Y3084624D1*
X687645Y3081467D1*
X692176Y3077736D1*
X698516Y3076474D1*
X704387Y3073768D1*
X709464Y3069766D1*
X1023462Y2755647D1*
X1027054Y2750272D1*
X1029291Y2744207D1*
X1030051Y2737787D1*
Y2442914D1*
X1113941Y2359006D1*
X1123870Y2359283D1*
X1120589Y2362086D1*
X1062899Y2419896D1*
X1059307Y2425271D1*
X1057069Y2431336D1*
X1056310Y2437756D1*
X1056394Y2564927D1*
X1057656Y2571267D1*
X1060362Y2577138D1*
X1064364Y2582214D1*
X1081455Y2599305D1*
X1075333Y2604308D1*
X1071409Y2608902D1*
X1068253Y2614053D1*
X1065941Y2619634D1*
X1064530Y2625509D1*
X1064073Y2631119D1*
X1055311Y2640365D1*
X1052152Y2646005D1*
X1050398Y2652227D1*
X1050059Y2656529D1*
Y2745152D1*
X975389Y2819938D1*
X971798Y2825313D1*
X969560Y2831378D1*
X968800Y2837798D1*
Y3001421D1*
X961491Y3008735D1*
X955283Y3006633D1*
X949316Y3005688D1*
X943275D1*
X937308Y3006633D1*
X931562Y3008500D1*
X926179Y3011243D1*
X921292Y3014794D1*
X917020Y3019066D1*
X913469Y3023953D1*
X910726Y3029336D1*
X908859Y3035082D1*
X907914Y3041049D1*
Y3047090D1*
X908859Y3053057D1*
X910726Y3058803D1*
X913469Y3064186D1*
X917020Y3069073D1*
X921292Y3073345D1*
X926179Y3076896D1*
X931562Y3079639D1*
X937308Y3081506D1*
X943275Y3082451D1*
X949316D1*
X955283Y3081506D1*
X961029Y3079639D1*
X966411Y3076896D1*
X971299Y3073345D1*
X974986Y3069706D1*
X979416Y3067517D1*
X984493Y3063515D1*
X996128Y3051880D1*
X998235Y3058803D1*
X1000978Y3064186D1*
X1004529Y3069073D1*
X1008801Y3073345D1*
X1013688Y3076896D1*
X1019071Y3079639D1*
X1024817Y3081506D1*
X1030784Y3082451D1*
X1036825D1*
X1042792Y3081506D1*
X1048538Y3079639D1*
X1053921Y3076896D1*
X1058808Y3073345D1*
X1060725Y3071574D1*
X1110970Y3071485D1*
X1117310Y3070224D1*
X1123181Y3067517D1*
X1128258Y3063515D1*
X1167227Y3024425D1*
X1170819Y3019050D1*
X1173056Y3012985D1*
X1173816Y3006566D1*
Y2635423D1*
X1293810Y2755404D1*
X1293835Y3002388D1*
X1288717Y3004992D1*
X1283830Y3008543D1*
X1279558Y3012815D1*
X1276007Y3017703D1*
X1273264Y3023086D1*
X1271397Y3028831D1*
X1270452Y3034798D1*
Y3040840D1*
X1271397Y3046807D1*
X1273264Y3052552D1*
X1276007Y3057935D1*
X1279558Y3062823D1*
X1283830Y3067095D1*
X1288717Y3070646D1*
X1294100Y3073388D1*
X1299846Y3075255D1*
X1305813Y3076200D1*
X1311854D1*
X1317821Y3075255D1*
X1323567Y3073388D1*
X1328950Y3070646D1*
X1333837Y3067095D1*
X1338109Y3062823D1*
X1341660Y3057935D1*
X1345837Y3050304D1*
X1348075Y3044239D1*
X1348835Y3037819D1*
X1348750Y2741880D1*
X1347489Y2735540D1*
X1344782Y2729669D1*
X1340780Y2724593D1*
X1197322Y2581134D1*
X1196844Y2575498D1*
X1195433Y2569624D1*
X1193121Y2564042D1*
X1189965Y2558891D1*
X1188101Y2556527D1*
X1191644Y2551632D1*
X1194387Y2546249D1*
X1196254Y2540503D1*
X1197199Y2534536D1*
Y2528495D1*
X1196254Y2522528D1*
X1194387Y2516782D1*
X1191644Y2511400D1*
X1190050Y2509014D1*
X1316191Y2509011D1*
X1450132Y2642948D1*
X1450186Y2977470D1*
X1451447Y2983810D1*
X1454153Y2989681D1*
X1458156Y2994758D1*
X1547250Y3083733D1*
X1552625Y3087324D1*
X1558690Y3089562D1*
X1565110Y3090322D1*
X1998563Y3090237D1*
X2004903Y3088976D1*
X2010774Y3086269D1*
X2015851Y3082267D1*
X2022515Y3075603D1*
X2029891Y3073388D1*
X2035274Y3070646D1*
X2040161Y3067095D1*
X2044433Y3062823D1*
X2047984Y3057935D1*
X2050727Y3052552D1*
X2052594Y3046807D1*
X2053539Y3040840D1*
Y3034798D1*
X2052594Y3028831D1*
X2050727Y3023086D1*
X2047984Y3017703D1*
X2044433Y3012815D1*
X2040161Y3008543D1*
X2035274Y3004992D1*
X2029891Y3002250D1*
X2024145Y3000383D1*
X2018178Y2999438D1*
X2012137D1*
X2006170Y3000383D1*
X2000424Y3002250D1*
X1995041Y3004992D1*
X1990154Y3008543D1*
X1985882Y3012815D1*
X1982331Y3017703D1*
X1979588Y3023086D1*
X1977721Y3028831D1*
X1976755Y3035329D1*
X1784833Y3035321D1*
X1783816Y3028831D1*
X1781949Y3023086D1*
X1779206Y3017703D1*
X1775655Y3012815D1*
X1771383Y3008543D1*
X1766495Y3004992D1*
X1761113Y3002250D1*
X1755367Y3000383D1*
X1749400Y2999438D1*
X1746792Y2999335D1*
X1711376Y2963925D1*
X1711373Y2508467D1*
X1715020Y2504161D1*
X1718176Y2499010D1*
X1720488Y2493429D1*
X1721899Y2487554D1*
X1722373Y2481531D1*
X1721899Y2475509D1*
X1720488Y2469634D1*
X1718176Y2464053D1*
X1715020Y2458902D1*
X1711096Y2454308D1*
X1706502Y2450384D1*
X1701351Y2447228D1*
X1695770Y2444916D1*
X1689895Y2443505D1*
X1683873Y2443031D1*
X1677850Y2443505D1*
X1671976Y2444916D1*
X1666394Y2447228D1*
X1661243Y2450384D1*
X1656649Y2454308D1*
X1652726Y2458902D1*
X1649569Y2464053D1*
X1647257Y2469634D1*
X1645847Y2475509D1*
X1645373Y2481531D1*
X1645847Y2487554D1*
X1647257Y2493429D1*
X1649569Y2499010D1*
X1652726Y2504161D1*
X1656369Y2508452D1*
X1656373Y2752674D1*
X1630118Y2726400D1*
X1630030Y2435598D1*
X1628768Y2429258D1*
X1626062Y2423387D1*
X1622060Y2418310D1*
X1612772Y2409023D1*
X1663227Y2409032D1*
X1667494Y2412679D1*
X1672645Y2415835D1*
X1678226Y2418147D1*
X1684101Y2419557D1*
X1690123Y2420031D1*
X1696146Y2419557D1*
X1702021Y2418147D1*
X1707602Y2415835D1*
X1712753Y2412679D1*
X1717347Y2408755D1*
X1721271Y2404161D1*
X1724427Y2399010D1*
X1726739Y2393429D1*
X1728149Y2387554D1*
X1728623Y2381531D1*
X1728149Y2375509D1*
X1726739Y2369634D1*
X1724427Y2364053D1*
X1721271Y2358902D1*
X1719406Y2356537D1*
X1722950Y2351648D1*
X1725693Y2346265D1*
X1727560Y2340519D1*
X1728505Y2334552D1*
Y2328511D1*
X1727560Y2322544D1*
X1725693Y2316798D1*
X1722950Y2311415D1*
X1719399Y2306528D1*
X1715127Y2302256D1*
X1710240Y2298705D1*
X1704857Y2295962D1*
X1699111Y2294095D1*
X1693144Y2293150D1*
X1687103D1*
X1681136Y2294095D1*
X1675390Y2295962D1*
X1670007Y2298705D1*
X1665120Y2302256D1*
X1663203Y2304027D1*
X1428258Y2304031D1*
X1562279Y2170000D1*
X1777644Y2169973D1*
X1777110Y2175456D1*
X1776636Y2181479D1*
X1777110Y2187502D1*
X1778521Y2193376D1*
X1780833Y2198958D1*
X1783989Y2204109D1*
X1787913Y2208703D1*
X1792507Y2212626D1*
X1797658Y2215783D1*
X1803239Y2218095D1*
X1809114Y2219505D1*
X1815136Y2219979D1*
X1821159Y2219505D1*
X1827034Y2218095D1*
X1832615Y2215783D1*
X1837766Y2212626D1*
X1842360Y2208703D1*
X1846284Y2204109D1*
X1849440Y2198958D1*
X1851752Y2193376D1*
X1853162Y2187502D1*
X1853606Y2180712D1*
X1855350Y2175631D1*
X1856138Y2168978D1*
X1856050Y2029227D1*
X1854743Y2022656D1*
X1851938Y2016572D1*
X1847790Y2011311D1*
X1662348Y1825868D1*
X1662368Y1819871D1*
X1666694Y1814055D1*
X1669437Y1808672D1*
X1671304Y1802926D1*
X1672249Y1796959D1*
Y1790918D1*
X1671304Y1784951D1*
X1669437Y1779205D1*
X1666694Y1773822D1*
X1665100Y1771436D1*
X2047521Y1771433D1*
X2050135Y1774047D1*
X2050249Y2421162D1*
X2051510Y2427502D1*
X2054216Y2433373D1*
X2058219Y2438449D1*
X2175708Y2556125D1*
X2169486Y2554370D1*
X2165184Y2554031D1*
X2004588D1*
X2000283Y2550384D1*
X1995132Y2547228D1*
X1989551Y2544916D1*
X1983676Y2543505D1*
X1977654Y2543031D1*
X1971631Y2543505D1*
X1965756Y2544916D1*
X1960175Y2547228D1*
X1955024Y2550384D1*
X1950430Y2554308D1*
X1946506Y2558902D1*
X1943350Y2564053D1*
X1941038Y2569634D1*
X1939628Y2575509D1*
X1939154Y2581531D1*
X1939628Y2587554D1*
X1941038Y2593429D1*
X1943350Y2599010D1*
X1946506Y2604161D1*
X1950430Y2608755D1*
X1952974Y2611063D1*
X1797903Y2766135D1*
X1791498Y2761217D1*
X1786115Y2758474D1*
X1780370Y2756607D1*
X1774403Y2755662D1*
X1768361D1*
X1762394Y2756607D1*
X1756649Y2758474D1*
X1751266Y2761217D1*
X1746378Y2764768D1*
X1742106Y2769040D1*
X1738555Y2773927D1*
X1735813Y2779310D1*
X1733946Y2785056D1*
X1733001Y2791023D1*
Y2797064D1*
X1733946Y2803031D1*
X1735813Y2808777D1*
X1738555Y2814160D1*
X1742106Y2819047D1*
X1746378Y2823319D1*
X1751266Y2826870D1*
X1756649Y2829613D1*
X1762394Y2831480D1*
X1768361Y2832425D1*
X1774403D1*
X1780370Y2831480D1*
X1786115Y2829613D1*
X1791498Y2826870D1*
X1796386Y2823319D1*
X1798302Y2821547D1*
X1813188Y2821205D1*
X1819410Y2819450D1*
X1825050Y2816291D1*
X1828331Y2813489D1*
X2001552Y2640268D1*
X2115497Y2640274D1*
X2114291Y2647258D1*
Y2653299D1*
X2115236Y2659266D1*
X2117103Y2665012D1*
X2119845Y2670394D1*
X2123396Y2675282D1*
X2125168Y2677198D1*
X2125172Y2695151D1*
X2075505Y2744930D1*
X2071913Y2750305D1*
X2069676Y2756370D1*
X2068916Y2762790D1*
Y3010886D1*
X2065269Y3015189D1*
X2062112Y3020340D1*
X2059800Y3025922D1*
X2058390Y3031796D1*
X2057916Y3037819D1*
X2058390Y3043842D1*
X2059800Y3049716D1*
X2062112Y3055298D1*
X2065269Y3060449D1*
X2069192Y3065043D1*
X2073786Y3068966D1*
X2078937Y3072123D1*
X2084519Y3074435D1*
X2090393Y3075845D1*
X2096416Y3076319D1*
X2102439Y3075845D1*
X2108313Y3074435D1*
X2113895Y3072123D1*
X2119046Y3068966D1*
X2123640Y3065043D1*
X2127563Y3060449D1*
X2130720Y3055298D1*
X2133032Y3049716D1*
X2134442Y3043842D1*
X2134916Y3037819D1*
X2134442Y3031796D1*
X2133032Y3025922D1*
X2130720Y3020340D1*
X2127563Y3015189D1*
X2123920Y3010899D1*
X2123916Y2774196D1*
X2173583Y2724394D1*
X2177175Y2719019D1*
X2179412Y2712954D1*
X2180172Y2706534D1*
Y2677188D1*
X2182203Y2674957D1*
X2278577Y2771200D1*
X2283952Y2774791D1*
X2290017Y2777029D1*
X2296437Y2777789D1*
X2335060D1*
X2350164Y2792902D1*
X2350195Y3010888D1*
X2346548Y3015189D1*
X2343392Y3020340D1*
X2341080Y3025922D1*
X2339670Y3031796D1*
X2339196Y3037819D1*
X2339670Y3043842D1*
X2341080Y3049716D1*
X2343392Y3055298D1*
X2346548Y3060449D1*
X2350472Y3065043D1*
X2355066Y3068966D1*
X2360217Y3072123D1*
X2365798Y3074435D1*
X2371673Y3075845D1*
X2377696Y3076319D1*
X2383718Y3075845D1*
X2389593Y3074435D1*
X2395174Y3072123D1*
X2400325Y3068966D1*
X2404919Y3065043D1*
X2408843Y3060449D1*
X2411999Y3055298D1*
X2414311Y3049716D1*
X2415722Y3043842D1*
X2416196Y3037819D1*
X2415722Y3031796D1*
X2414311Y3025922D1*
X2411999Y3020340D1*
X2408843Y3015189D1*
X2405200Y3010899D1*
X2405196Y2785441D1*
X2437729Y2817960D1*
X2437705Y3010890D1*
X2434058Y3015189D1*
X2430901Y3020340D1*
X2428589Y3025922D1*
X2427179Y3031796D1*
X2426705Y3037819D1*
X2427179Y3043842D1*
X2428589Y3049716D1*
X2430901Y3055298D1*
X2434058Y3060449D1*
X2437981Y3065043D1*
X2442575Y3068966D1*
X2447726Y3072123D1*
X2453308Y3074435D1*
X2459182Y3075845D1*
X2465205Y3076319D1*
X2471227Y3075845D1*
X2477102Y3074435D1*
X2482683Y3072123D1*
X2487834Y3068966D1*
X2492428Y3065043D1*
X2496352Y3060449D1*
X2499508Y3055298D1*
X2501820Y3049716D1*
X2503231Y3043842D1*
X2503705Y3037819D1*
X2503231Y3031796D1*
X2501820Y3025922D1*
X2499508Y3020340D1*
X2496352Y3015189D1*
X2492709Y3010899D1*
X2492620Y2804387D1*
X2491359Y2798047D1*
X2488652Y2792176D1*
X2484650Y2787099D1*
X2389305Y2691874D1*
X2383930Y2688282D1*
X2379935Y2686628D1*
X2378573Y2684552D1*
Y2678511D1*
X2377628Y2672544D1*
X2375761Y2666798D1*
X2374178Y2663486D1*
X2379917Y2658750D1*
X2383840Y2654156D1*
X2386997Y2649005D1*
X2389309Y2643423D1*
X2390719Y2637549D1*
X2391193Y2631526D1*
X2390719Y2625504D1*
X2389309Y2619629D1*
X2386997Y2614048D1*
X2384686Y2610163D1*
X2390091Y2604151D1*
X2393247Y2599000D1*
X2395559Y2593418D1*
X2396970Y2587544D1*
X2397444Y2581521D1*
X2396970Y2575498D1*
X2395559Y2569624D1*
X2392930Y2563476D1*
X2398668Y2558739D1*
X2402592Y2554145D1*
X2405749Y2548994D1*
X2408061Y2543413D1*
X2409471Y2537538D1*
X2409945Y2531516D1*
X2409471Y2525493D1*
X2408061Y2519619D1*
X2405749Y2514037D1*
X2403438Y2510153D1*
X2408843Y2504140D1*
X2411999Y2498989D1*
X2414311Y2493408D1*
X2415722Y2487533D1*
X2416196Y2481510D1*
X2415722Y2475488D1*
X2414311Y2469613D1*
X2411999Y2464032D1*
X2408843Y2458881D1*
X2406978Y2456516D1*
X2410522Y2451621D1*
X2413265Y2446239D1*
X2415132Y2440493D1*
X2416077Y2434526D1*
Y2428485D1*
X2415132Y2422518D1*
X2413265Y2416772D1*
X2409689Y2410142D1*
X2415093Y2404130D1*
X2418250Y2398979D1*
X2420562Y2393397D1*
X2421972Y2387523D1*
X2422446Y2381500D1*
X2421972Y2375477D1*
X2420562Y2369603D1*
X2418250Y2364021D1*
X2415940Y2360137D1*
X2421344Y2354124D1*
X2424501Y2348973D1*
X2426813Y2343392D1*
X2428223Y2337517D1*
X2428697Y2331495D1*
X2428223Y2325472D1*
X2426813Y2319598D1*
X2424501Y2314016D1*
X2421344Y2308865D1*
X2417420Y2304271D1*
X2412827Y2300348D1*
X2407675Y2297191D1*
X2402094Y2294879D1*
X2396220Y2293469D1*
X2390610Y2293011D1*
X2323913Y2226320D1*
X2323852Y1598010D1*
X2322591Y1591670D1*
X2319885Y1585799D1*
X2315882Y1580723D1*
X2226788Y1491748D1*
X2221413Y1488156D1*
X2215348Y1485919D1*
X2208928Y1485159D1*
X1020207D1*
X998796Y1463762D1*
X998713Y1160464D1*
X997452Y1154124D1*
X994746Y1148253D1*
X990743Y1143177D1*
X632870Y785423D1*
X627495Y781832D1*
X621430Y779594D1*
X615010Y778835D1*
X522969D1*
X518673Y775187D1*
X513522Y772031D1*
X507940Y769719D1*
X502066Y768309D1*
X496043Y767835D1*
X490021Y768309D1*
X484146Y769719D1*
X478565Y772031D1*
X473414Y775187D1*
X468820Y779111D1*
X464896Y783705D1*
X461740Y788856D1*
X459428Y794437D1*
X458017Y800312D1*
X457543Y806335D1*
X458017Y812357D1*
X459428Y818232D1*
X461740Y823813D1*
X464896Y828964D1*
X468820Y833558D1*
X473414Y837482D1*
X478565Y840638D1*
X484146Y842950D1*
X490021Y844361D1*
X496043Y844835D1*
X502066Y844361D1*
X507940Y842950D1*
X513522Y840638D1*
X518673Y837482D1*
X522963Y833839D1*
X603612Y833835D1*
X943767Y1173982D1*
X943798Y1246265D1*
X845393Y1147961D1*
X840018Y1144370D1*
X833953Y1142132D1*
X827533Y1141373D1*
X535492D1*
X531174Y1137726D1*
X526023Y1134569D1*
X520442Y1132257D1*
X514567Y1130847D1*
X508545Y1130373D1*
X502522Y1130847D1*
X496647Y1132257D1*
X491066Y1134569D1*
X485915Y1137726D1*
X481321Y1141649D1*
X477397Y1146243D1*
X474241Y1151394D1*
X471929Y1156976D1*
X470519Y1162850D1*
X470045Y1168873D1*
X470519Y1174895D1*
X471929Y1180770D1*
X474241Y1186351D1*
X477397Y1191502D1*
X481321Y1196096D1*
X485915Y1200020D1*
X491066Y1203176D1*
X496647Y1205488D1*
X502522Y1206899D1*
X508545Y1207373D1*
X514567Y1206899D1*
X520442Y1205488D1*
X526023Y1203176D1*
X531174Y1200020D1*
X535465Y1196377D1*
X816113Y1196373D1*
X912531Y1292761D1*
X912629Y1496064D1*
X913890Y1502405D1*
X916597Y1508276D1*
X920599Y1513352D1*
X929887Y1522640D1*
X529255Y1522663D1*
X524924Y1519016D1*
X519773Y1515859D1*
X514191Y1513547D1*
X508317Y1512137D1*
X502294Y1511663D1*
X496271Y1512137D1*
X490397Y1513547D1*
X484815Y1515859D1*
X479664Y1519016D1*
X475070Y1522939D1*
X471147Y1527533D1*
X467990Y1532684D1*
X465678Y1538266D1*
X464268Y1544140D1*
X463794Y1550163D1*
X464268Y1556185D1*
X465678Y1562060D1*
X467990Y1567641D1*
X471147Y1572792D1*
X475070Y1577386D1*
X479664Y1581310D1*
X484815Y1584466D1*
X490397Y1586778D1*
X496271Y1588189D1*
X502294Y1588663D1*
X508317Y1588189D1*
X514191Y1586778D1*
X519773Y1584466D1*
X524924Y1581310D1*
X529214Y1577667D1*
X941112Y1577663D1*
X954887Y1591395D1*
X931636Y1591505D1*
X925296Y1592766D1*
X919425Y1595472D1*
X914348Y1599474D1*
X628640Y1885183D1*
X529222Y1885201D1*
X524924Y1881554D1*
X519773Y1878397D1*
X514191Y1876085D1*
X508317Y1874675D1*
X502294Y1874201D1*
X496271Y1874675D1*
X490397Y1876085D1*
X484815Y1878397D1*
X479664Y1881554D1*
X475070Y1885477D1*
X471147Y1890071D1*
X467990Y1895222D1*
X465678Y1900804D1*
X464268Y1906678D1*
X463794Y1912701D1*
X464268Y1918724D1*
X465678Y1924598D1*
X467990Y1930179D1*
X471147Y1935331D1*
X475070Y1939924D1*
X479664Y1943848D1*
X484815Y1947005D1*
X490397Y1949316D1*
X496271Y1950727D1*
X502294Y1951201D1*
X508317Y1950727D1*
X514191Y1949316D1*
X519773Y1947005D1*
X524924Y1943848D1*
X529214Y1940205D1*
X623632Y1940201D1*
X481383Y2082565D1*
X477791Y2087940D1*
X475554Y2094005D1*
X474794Y2100425D1*
Y2142271D1*
X471147Y2146553D1*
X467990Y2151704D1*
X465678Y2157285D1*
X464268Y2163160D1*
X463794Y2169182D1*
X464268Y2175205D1*
X465678Y2181080D1*
X467990Y2186661D1*
X471147Y2191812D1*
X475070Y2196406D1*
X479664Y2200330D1*
X484815Y2203486D1*
X490397Y2205798D1*
X496271Y2207208D1*
X499993Y2207592D1*
X480046Y2228026D1*
X476887Y2233666D1*
X475132Y2239888D1*
X474794Y2244190D1*
Y2504786D1*
X471147Y2509091D1*
X467990Y2514242D1*
X465678Y2519823D1*
X464268Y2525698D1*
X463794Y2531720D1*
X464268Y2537743D1*
X465678Y2543618D1*
X467990Y2549199D1*
X471147Y2554350D1*
X475070Y2558944D1*
X479664Y2562868D1*
X484815Y2566024D1*
X490397Y2568336D1*
X496271Y2569746D1*
X502294Y2570220D1*
X508317Y2569746D1*
X514191Y2568336D1*
X518754Y2566494D1*
X518753Y2576361D1*
X481383Y2613871D1*
X477791Y2619246D1*
X475554Y2625311D1*
X474794Y2631731D1*
Y2879827D1*
X471147Y2884130D1*
X467990Y2889281D1*
X465678Y2894863D1*
X464268Y2900737D1*
X463794Y2906760D1*
X464268Y2912783D1*
X465678Y2918657D1*
X467990Y2924238D1*
X471147Y2929390D1*
X475070Y2933983D1*
X479664Y2937907D1*
X484815Y2941064D1*
X490397Y2943376D1*
X496271Y2944786D1*
X502294Y2945260D1*
X508317Y2944786D1*
X514191Y2943376D1*
X519773Y2941064D1*
X524924Y2937907D1*
X529518Y2933983D1*
X531257Y2932102D1*
X531255Y2951403D1*
X468881Y3013913D1*
X465290Y3019288D1*
X463052Y3025353D1*
X462293Y3031773D1*
Y3248619D1*
X458645Y3252919D1*
X455489Y3258070D1*
X453177Y3263651D1*
X451767Y3269526D1*
X451293Y3275549D1*
X451767Y3281571D1*
X453177Y3287446D1*
X455489Y3293027D1*
X458645Y3298178D1*
X462569Y3302772D1*
X467163Y3306696D1*
X472314Y3309852D1*
X477895Y3312164D1*
X483770Y3313575D1*
X489793Y3314049D1*
X495815Y3313575D1*
X501690Y3312164D1*
X507271Y3309852D1*
X512422Y3306696D1*
X517016Y3302772D1*
X520940Y3298178D1*
X524096Y3293027D1*
X526408Y3287446D1*
X527819Y3281571D1*
X528293Y3275549D1*
X527819Y3269526D1*
X526408Y3263651D1*
X524096Y3258070D1*
X520940Y3252919D1*
X517297Y3248628D1*
X517293Y3043176D1*
X579666Y2980671D1*
X583257Y2975296D1*
X585495Y2969231D1*
X586255Y2962811D1*
Y2674188D1*
X610919Y2649386D1*
X614511Y2644011D1*
X616748Y2637946D1*
X617508Y2631526D1*
Y2292903D1*
X654674Y2255595D1*
X658265Y2250220D1*
X660503Y2244155D1*
X661263Y2237735D1*
Y2117862D1*
X1007694Y1771431D1*
X1602599Y1771433D1*
X1599564Y1776460D1*
X1597252Y1782041D1*
X1595841Y1787916D1*
X1595367Y1793938D1*
X1595841Y1799961D1*
X1597252Y1805835D1*
X1599564Y1811417D1*
X1602720Y1816568D1*
X1605369Y1819783D1*
X1605718Y1842151D1*
X1607537Y1848599D1*
X1610810Y1854445D1*
X1613715Y1857846D1*
X2684903Y1834940D2*
X2822207D1*
X3036780Y2049531D1*
X3036768Y2119696D1*
X3003441Y2152995D1*
X2953593Y2152979D1*
X2947869Y2148652D1*
X2942487Y2145910D1*
X2936741Y2144043D1*
X2930774Y2143098D1*
X2924733D1*
X2918766Y2144043D1*
X2913020Y2145910D1*
X2907637Y2148652D1*
X2902750Y2152203D1*
X2898478Y2156475D1*
X2894927Y2161363D1*
X2892184Y2166746D1*
X2890317Y2172491D1*
X2889372Y2178458D1*
Y2184500D1*
X2890317Y2190467D1*
X2892184Y2196212D1*
X2894927Y2201595D1*
X2898478Y2206483D1*
X2902750Y2210755D1*
X2907637Y2214306D1*
X2913020Y2217048D1*
X2918766Y2218915D1*
X2924733Y2219860D1*
X2930774D1*
X2936741Y2218915D1*
X2942487Y2217048D1*
X2947869Y2214306D1*
X2953598Y2209977D1*
X3017499Y2209891D1*
X3024069Y2208584D1*
X3030154Y2205779D1*
X3035415Y2201632D1*
X3086939Y2149983D1*
X3090662Y2144413D1*
X3092980Y2138127D1*
X3093768Y2131474D1*
X3093680Y2035478D1*
X3092373Y2028907D1*
X3089568Y2022823D1*
X3085420Y2017561D1*
X2852503Y1784768D1*
X2846932Y1781046D1*
X2840647Y1778727D1*
X2833993Y1777940D1*
X2684824D1*
X2679091Y1773613D1*
X2673708Y1770870D1*
X2667963Y1769003D1*
X2661996Y1768058D1*
X2655954D1*
X2649987Y1769003D1*
X2644242Y1770870D1*
X2638859Y1773613D1*
X2633971Y1777164D1*
X2629699Y1781436D1*
X2626148Y1786323D1*
X2623406Y1791706D1*
X2621539Y1797452D1*
X2620594Y1803419D1*
Y1809460D1*
X2621539Y1815427D1*
X2623406Y1821173D1*
X2626148Y1826556D1*
X2629699Y1831443D1*
X2633971Y1835715D1*
X2638859Y1839266D1*
X2644242Y1842009D1*
X2649987Y1843876D1*
X2655954Y1844821D1*
X2661996D1*
X2667963Y1843876D1*
X2673708Y1842009D1*
X2679091Y1839266D1*
X2684820Y1834938D1*
X1058806Y1407394D2*
X2531706D1*
X2537981Y1410714D1*
X2543726Y1412581D1*
X2549693Y1413526D1*
X2555735D1*
X2561702Y1412581D1*
X2567447Y1410714D1*
X2572830Y1407971D1*
X2577718Y1404420D1*
X2581142Y1401163D1*
X2805498Y1401143D1*
X3351771Y1947369D1*
X3351802Y3180623D1*
X855561Y3180707D1*
X849594Y3181652D1*
X843848Y3183519D1*
X838465Y3186261D1*
X833578Y3189812D1*
X829306Y3194084D1*
X825755Y3198972D1*
X823012Y3204355D1*
X821145Y3210100D1*
X820200Y3216067D1*
X820081Y3344088D1*
X820200Y3403378D1*
X821145Y3409345D1*
X823012Y3415090D1*
X825755Y3420473D1*
X829306Y3425361D1*
X833578Y3429633D1*
X838465Y3433184D1*
X843848Y3435926D1*
X849594Y3437793D1*
X855561Y3438738D1*
X861602D1*
X867569Y3437793D1*
X873315Y3435926D1*
X878698Y3433184D1*
X883585Y3429633D1*
X887857Y3425361D1*
X891408Y3420473D1*
X894151Y3415090D1*
X896018Y3409345D1*
X896963Y3403378D1*
X897081Y3275357D1*
Y3257632D1*
X1189099Y3257588D1*
X1189193Y3397127D1*
X1190139Y3403094D1*
X1192005Y3408840D1*
X1194748Y3414223D1*
X1198299Y3419110D1*
X1202571Y3423382D1*
X1207459Y3426933D1*
X1212841Y3429676D1*
X1218587Y3431543D1*
X1224554Y3432488D1*
X1230595D1*
X1236562Y3431543D1*
X1242308Y3429676D1*
X1247691Y3426933D1*
X1252579Y3423382D1*
X1256850Y3419110D1*
X1260401Y3414223D1*
X1263144Y3408840D1*
X1265011Y3403094D1*
X1265956Y3397127D1*
X1266075Y3269106D1*
Y3257632D1*
Y3269106D1*
Y3257632D1*
X1557897Y3257588D1*
X1557982Y3403378D1*
X1558927Y3409345D1*
X1560794Y3415090D1*
X1563537Y3420473D1*
X1567088Y3425361D1*
X1571360Y3429633D1*
X1576247Y3433184D1*
X1581630Y3435926D1*
X1587376Y3437793D1*
X1593343Y3438738D1*
X1599384D1*
X1605351Y3437793D1*
X1611097Y3435926D1*
X1616480Y3433184D1*
X1621367Y3429633D1*
X1625639Y3425361D1*
X1629190Y3420473D1*
X1631933Y3415090D1*
X1633800Y3409345D1*
X1634745Y3403378D1*
X1634864Y3275357D1*
Y3257632D1*
X1920436Y3257588D1*
X1920520Y3409628D1*
X1921465Y3415595D1*
X1923332Y3421341D1*
X1926075Y3426724D1*
X1929626Y3431611D1*
X1933898Y3435883D1*
X1938785Y3439434D1*
X1944168Y3442177D1*
X1949914Y3444044D1*
X1955881Y3444989D1*
X1961922D1*
X1967889Y3444044D1*
X1973635Y3442177D1*
X1979018Y3439434D1*
X1983905Y3435883D1*
X1988177Y3431611D1*
X1991728Y3426724D1*
X1994471Y3421341D1*
X1996338Y3415595D1*
X1997283Y3409628D1*
X1997402Y3281608D1*
Y3257633D1*
X2282974Y3257588D1*
X2283058Y3397127D1*
X2284003Y3403094D1*
X2285870Y3408840D1*
X2288613Y3414223D1*
X2292164Y3419110D1*
X2296436Y3423382D1*
X2301323Y3426933D1*
X2306706Y3429676D1*
X2312452Y3431543D1*
X2318419Y3432488D1*
X2324460D1*
X2330427Y3431543D1*
X2336173Y3429676D1*
X2341556Y3426933D1*
X2346443Y3423382D1*
X2350715Y3419110D1*
X2354266Y3414223D1*
X2357009Y3408840D1*
X2358876Y3403094D1*
X2359821Y3397127D1*
X2359940Y3269106D1*
Y3257632D1*
Y3269106D1*
Y3257632D1*
X2639262Y3257588D1*
X2639346Y3397127D1*
X2640291Y3403094D1*
X2642158Y3408840D1*
X2644900Y3414223D1*
X2648451Y3419110D1*
X2652723Y3423382D1*
X2657611Y3426933D1*
X2662994Y3429676D1*
X2668739Y3431543D1*
X2674706Y3432488D1*
X2680748D1*
X2686715Y3431543D1*
X2692460Y3429676D1*
X2697843Y3426933D1*
X2702731Y3423382D1*
X2707003Y3419110D1*
X2710554Y3414223D1*
X2713296Y3408840D1*
X2715163Y3403094D1*
X2716108Y3397127D1*
X2716227Y3269106D1*
Y3257632D1*
Y3269106D1*
Y3257632D1*
X2995549Y3257588D1*
X2995633Y3397127D1*
X2996578Y3403094D1*
X2998445Y3408840D1*
X3001188Y3414223D1*
X3004739Y3419110D1*
X3009011Y3423382D1*
X3013898Y3426933D1*
X3019281Y3429676D1*
X3025027Y3431543D1*
X3030994Y3432488D1*
X3037035D1*
X3043002Y3431543D1*
X3048748Y3429676D1*
X3054131Y3426933D1*
X3059018Y3423382D1*
X3063290Y3419110D1*
X3066841Y3414223D1*
X3069584Y3408840D1*
X3071451Y3403094D1*
X3072396Y3397127D1*
X3072515Y3269106D1*
Y3257632D1*
Y3269106D1*
Y3257632D1*
X3351837Y3257588D1*
X3351920Y3397127D1*
X3352866Y3403094D1*
X3354732Y3408840D1*
X3357475Y3414223D1*
X3361026Y3419110D1*
X3365298Y3423382D1*
X3370186Y3426933D1*
X3375569Y3429676D1*
X3381314Y3431543D1*
X3387281Y3432488D1*
X3393323D1*
X3399289Y3431543D1*
X3405035Y3429676D1*
X3410418Y3426933D1*
X3415306Y3423382D1*
X3419577Y3419110D1*
X3423129Y3414223D1*
X3425871Y3408840D1*
X3427738Y3403094D1*
X3428683Y3397127D1*
X3428802Y3269106D1*
X3428683Y1928432D1*
X3427738Y1922465D1*
X3425871Y1916719D1*
X3423129Y1911337D1*
X3419577Y1906449D1*
X3329137Y1815841D1*
X2846496Y1333367D1*
X2841608Y1329816D1*
X2836225Y1327074D1*
X2830480Y1325207D1*
X2824513Y1324262D1*
X2696492Y1324143D1*
X2562195Y1324262D1*
X2556228Y1325207D1*
X2550482Y1327074D1*
X2545089Y1329823D1*
X2540214Y1330394D1*
X1043285Y1330512D1*
X1037318Y1331457D1*
X1031572Y1333324D1*
X1026190Y1336067D1*
X1021302Y1339618D1*
X1017030Y1343890D1*
X1013479Y1348777D1*
X1010736Y1354160D1*
X1008870Y1359906D1*
X1007924Y1365873D1*
Y1371914D1*
X1008870Y1377881D1*
X1010736Y1383627D1*
X1013479Y1389010D1*
X1017030Y1393897D1*
X1021302Y1398169D1*
X1026190Y1401720D1*
X1031572Y1404463D1*
X1037318Y1406330D1*
X1043285Y1407275D1*
X1058806Y1407394D1*
X3232521Y3009914D2*
X3066240Y2843634D1*
X3065790Y2838026D1*
X3064379Y2832151D1*
X3062068Y2826570D1*
X3058911Y2821419D1*
X3054987Y2816825D1*
X3050394Y2812901D1*
X3045242Y2809745D1*
X3039661Y2807433D1*
X3033787Y2806023D1*
X3027764Y2805549D1*
X3021741Y2806023D1*
X3015867Y2807433D1*
X3010285Y2809745D1*
X3005134Y2812901D1*
X3000540Y2816825D1*
X2996617Y2821419D1*
X2993460Y2826570D1*
X2991148Y2832151D1*
X2989738Y2838026D1*
X2989264Y2844049D1*
X2989738Y2850071D1*
X2991148Y2855946D1*
X2993460Y2861527D1*
X2996617Y2866678D1*
X3000540Y2871272D1*
X3005134Y2875196D1*
X3010285Y2878352D1*
X3015867Y2880664D1*
X3021741Y2882075D1*
X3027351Y2882532D1*
X3203674Y3058730D1*
X3209049Y3062322D1*
X3215114Y3064559D1*
X3221534Y3065319D1*
X3232130D1*
X3236408Y3068966D1*
X3241559Y3072123D1*
X3247141Y3074435D1*
X3253015Y3075845D1*
X3259038Y3076319D1*
X3265061Y3075845D1*
X3270935Y3074435D1*
X3276517Y3072123D1*
X3281668Y3068966D1*
X3286262Y3065043D1*
X3290185Y3060449D1*
X3293342Y3055298D1*
X3295654Y3049716D1*
X3297064Y3043842D1*
X3297538Y3037819D1*
X3297064Y3031796D1*
X3295654Y3025922D1*
X3293342Y3020340D1*
X3290185Y3015189D1*
X3286262Y3010595D1*
X3281668Y3006672D1*
X3276517Y3003515D1*
X3270935Y3001203D1*
X3265061Y2999793D1*
X3259038Y2999319D1*
X3253015Y2999793D1*
X3247141Y3001203D1*
X3241559Y3003515D1*
X3236408Y3006672D1*
X3232534Y3009930D1*
X975061Y2726387D2*
X684415Y3017032D1*
X676913Y3013705D1*
X671038Y3012294D1*
X665016Y3011820D1*
X658993Y3012294D1*
X652952Y3013766D1*
X946673Y2720045D1*
X952318Y2719557D1*
X958192Y2718147D1*
X963774Y2715835D1*
X968925Y2712679D1*
X975050Y2707099D1*
X975051Y2726378D1*
X1097435Y3016570D2*
X1060717D1*
X1056434Y3012922D1*
X1051283Y3009766D1*
X1045702Y3007454D1*
X1039827Y3006044D1*
X1033804Y3005570D1*
X1027782Y3006044D1*
X1023805Y3006919D1*
X1023801Y2849193D1*
X1098470Y2774399D1*
X1102062Y2769024D1*
X1104299Y2762959D1*
X1105059Y2756539D1*
Y2669967D1*
X1111544Y2668968D1*
X1118823Y2666394D1*
X1118816Y2995148D1*
X1097420Y3016571D1*
X1500106Y2558420D2*
X1499849Y2615362D1*
X1497047Y2612081D1*
X1345445Y2460599D1*
X1340070Y2457008D1*
X1334005Y2454770D1*
X1327585Y2454010D1*
X1185740D1*
X1181447Y2450363D1*
X1176296Y2447207D1*
X1170715Y2444895D1*
X1164840Y2443484D1*
X1161118Y2443101D1*
X1165067Y2440253D1*
X1566190D1*
X1575119Y2449151D1*
X1575199Y2739945D1*
X1576460Y2746285D1*
X1579166Y2752156D1*
X1583169Y2757233D1*
X1637617Y2811682D1*
X1637621Y3010890D1*
X1633974Y3015189D1*
X1630817Y3020340D1*
X1628505Y3025922D1*
X1627095Y3031796D1*
X1626719Y3035329D1*
X1576532Y3035321D1*
X1544746Y3003567D1*
X1550236Y3000209D1*
X1554830Y2996285D1*
X1558753Y2991691D1*
X1561910Y2986540D1*
X1564222Y2980959D1*
X1565632Y2975084D1*
X1566106Y2969062D1*
X1565632Y2963039D1*
X1564222Y2957165D1*
X1561910Y2951583D1*
X1558753Y2946432D1*
X1555110Y2942142D1*
X1555106Y2558466D1*
X1558753Y2554145D1*
X1561910Y2548994D1*
X1564222Y2543413D1*
X1565632Y2537538D1*
X1566106Y2531516D1*
X1565632Y2525493D1*
X1564222Y2519619D1*
X1561910Y2514037D1*
X1558753Y2508886D1*
X1554830Y2504292D1*
X1550236Y2500369D1*
X1545085Y2497212D1*
X1539503Y2494900D1*
X1533629Y2493490D1*
X1527606Y2493016D1*
X1521584Y2493490D1*
X1515709Y2494900D1*
X1510128Y2497212D1*
X1504977Y2500369D1*
X1500383Y2504292D1*
X1496459Y2508886D1*
X1493303Y2514037D1*
X1490991Y2519619D1*
X1489580Y2525493D1*
X1489106Y2531516D1*
X1489580Y2537538D1*
X1490991Y2543413D1*
X1493303Y2548994D1*
X1496459Y2554145D1*
X1500102Y2558436D1*
X2848992Y3010915D2*
Y2745973D1*
X2852639Y2741665D1*
X2855796Y2736514D1*
X2858108Y2730933D1*
X2859518Y2725058D1*
X2859992Y2719035D1*
X2859518Y2713013D1*
X2858108Y2707138D1*
X2855796Y2701557D1*
X2852639Y2696406D1*
X2848716Y2691812D1*
X2844122Y2687888D1*
X2838971Y2684732D1*
X2833389Y2682420D1*
X2827515Y2681009D1*
X2821492Y2680535D1*
X2815469Y2681009D1*
X2809595Y2682420D1*
X2804013Y2684732D1*
X2798862Y2687888D1*
X2794269Y2691812D1*
X2790345Y2696406D1*
X2787188Y2701557D1*
X2784876Y2707138D1*
X2783466Y2713013D1*
X2782992Y2719035D1*
X2783466Y2725058D1*
X2784876Y2730933D1*
X2787188Y2736514D1*
X2790345Y2741665D1*
X2793988Y2745956D1*
X2793992Y3010881D1*
X2790345Y3015189D1*
X2787188Y3020340D1*
X2784876Y3025922D1*
X2783466Y3031796D1*
X2782992Y3037819D1*
X2783466Y3043842D1*
X2784876Y3049716D1*
X2787188Y3055298D1*
X2790345Y3060449D1*
X2794269Y3065043D1*
X2798862Y3068966D1*
X2804013Y3072123D1*
X2809595Y3074435D1*
X2815469Y3075845D1*
X2821492Y3076319D1*
X2827515Y3075845D1*
X2833389Y3074435D1*
X2838971Y3072123D1*
X2844122Y3068966D1*
X2848716Y3065043D1*
X2852639Y3060449D1*
X2855796Y3055298D1*
X2858108Y3049716D1*
X2859518Y3043842D1*
X2859992Y3037819D1*
X2859518Y3031796D1*
X2858108Y3025922D1*
X2855796Y3020340D1*
X2852639Y3015189D1*
X2848996Y3010899D1*
X1212827Y1862938D2*
Y1923875D1*
X1186075Y1950579D1*
X1178843Y1953405D1*
X1173692Y1956562D1*
X1169098Y1960485D1*
X1167310Y1962419D1*
X1167315Y1882787D1*
X1203941Y1846196D1*
X1207945Y1846964D1*
X1208891Y1852931D1*
X1210757Y1858677D1*
X1212825Y1862854D1*
X1279827Y1925203D2*
Y1862948D1*
X1282942Y1855841D1*
X1284353Y1849966D1*
X1284738Y1846197D1*
X1291355Y1846994D1*
X1296936Y1849306D1*
X1302811Y1850716D1*
X1308833Y1851190D1*
X1314856Y1850716D1*
X1320730Y1849306D1*
X1326312Y1846994D1*
X1331463Y1843837D1*
X1336057Y1839914D1*
X1339980Y1835320D1*
X1343137Y1830169D1*
X1345449Y1824587D1*
X1346859Y1818713D1*
X1347333Y1812690D1*
X1346859Y1806668D1*
X1345449Y1800793D1*
X1343137Y1795212D1*
X1339980Y1790061D1*
X1336057Y1785467D1*
X1331463Y1781543D1*
X1326312Y1778387D1*
X1320730Y1776075D1*
X1314856Y1774664D1*
X1308833Y1774190D1*
X1302811Y1774664D1*
X1296936Y1776075D1*
X1289923Y1779189D1*
X1187442Y1779294D1*
X1179719Y1780830D1*
X1172567Y1784127D1*
X1166376Y1789010D1*
X1108341Y1847190D1*
X1103966Y1853738D1*
X1101241Y1861126D1*
X1100315Y1868956D1*
Y2062452D1*
X1097199Y2069571D1*
X1095789Y2075446D1*
X1095315Y2081469D1*
X1095789Y2087491D1*
X1097199Y2093366D1*
X1099511Y2098947D1*
X1102668Y2104098D1*
X1106591Y2108692D1*
X1111185Y2112616D1*
X1116336Y2115772D1*
X1121918Y2118084D1*
X1127792Y2119495D1*
X1133815Y2119969D1*
X1139838Y2119495D1*
X1145712Y2118084D1*
X1151294Y2115772D1*
X1156445Y2112616D1*
X1161039Y2108692D1*
X1164962Y2104098D1*
X1168119Y2098947D1*
X1170431Y2093366D1*
X1171841Y2087491D1*
X1172315Y2081469D1*
X1171841Y2075446D1*
X1170431Y2069571D1*
X1167317Y2062558D1*
X1167315Y2013060D1*
X1173692Y2018856D1*
X1178843Y2022012D1*
X1184424Y2024324D1*
X1190299Y2025735D1*
X1196322Y2026209D1*
X1202344Y2025735D1*
X1208219Y2024324D1*
X1213800Y2022012D1*
X1218951Y2018856D1*
X1223545Y2014932D1*
X1227469Y2010338D1*
X1230625Y2005187D1*
X1233383Y1998026D1*
X1271800Y1959460D1*
X1276175Y1952912D1*
X1278901Y1945524D1*
X1279826Y1937693D1*
X1279827Y1925203D1*
X1100313Y2062558D2*
X1097199Y2069571D1*
X1095789Y2075446D1*
X1095315Y2081469D1*
X1095789Y2087491D1*
X1097199Y2093366D1*
X1099511Y2098947D1*
X1102668Y2104098D1*
X1106591Y2108692D1*
X1111185Y2112616D1*
X1116336Y2115772D1*
X1121918Y2118084D1*
X1127792Y2119495D1*
X1133815Y2119969D1*
X1139838Y2119495D1*
X1145712Y2118084D1*
X1151294Y2115772D1*
X1156445Y2112616D1*
X1161039Y2108692D1*
X1164962Y2104098D1*
X1168119Y2098947D1*
X1170431Y2093366D1*
X1171841Y2087491D1*
X1172315Y2081469D1*
X1171841Y2075446D1*
X1170431Y2069571D1*
X1167317Y2062558D1*
X531255Y2675280D2*
Y2881383D1*
X529794Y2869260D1*
Y2643137D1*
X562506Y2610410D1*
X562508Y2620113D1*
X537843Y2644920D1*
X534252Y2650295D1*
X532014Y2656360D1*
X531255Y2662780D1*
Y2675280D1*
X2761483Y3010915D2*
Y2827223D1*
X2765130Y2822924D1*
X2768287Y2817773D1*
X2770599Y2812191D1*
X2772009Y2806317D1*
X2772483Y2800294D1*
X2772009Y2794271D1*
X2770599Y2788397D1*
X2768287Y2782815D1*
X2765130Y2777664D1*
X2761207Y2773070D1*
X2756613Y2769147D1*
X2751462Y2765990D1*
X2745880Y2763678D1*
X2740006Y2762268D1*
X2733983Y2761794D1*
X2727960Y2762268D1*
X2722086Y2763678D1*
X2716504Y2765990D1*
X2711353Y2769147D1*
X2706759Y2773070D1*
X2702836Y2777664D1*
X2699679Y2782815D1*
X2697367Y2788397D1*
X2695957Y2794271D1*
X2695483Y2800294D1*
X2695957Y2806317D1*
X2697367Y2812191D1*
X2699679Y2817773D1*
X2702836Y2822924D1*
X2706479Y2827214D1*
X2706483Y3010890D1*
X2702836Y3015189D1*
X2699679Y3020340D1*
X2697367Y3025922D1*
X2695957Y3031796D1*
X2695483Y3037819D1*
X2695957Y3043842D1*
X2697367Y3049716D1*
X2699679Y3055298D1*
X2702836Y3060449D1*
X2706759Y3065043D1*
X2711353Y3068966D1*
X2716504Y3072123D1*
X2722086Y3074435D1*
X2727960Y3075845D1*
X2733983Y3076319D1*
X2740006Y3075845D1*
X2745880Y3074435D1*
X2751462Y3072123D1*
X2756613Y3068966D1*
X2761207Y3065043D1*
X2765130Y3060449D1*
X2768287Y3055298D1*
X2770599Y3049716D1*
X2772009Y3043842D1*
X2772483Y3037819D1*
X2772009Y3031796D1*
X2770599Y3025922D1*
X2768287Y3020340D1*
X2765130Y3015189D1*
X2761487Y3010899D1*
X289976Y3206281D2*
D21*
Y3069378D1*
X221525Y3137829D2*
X358428D1*
X289976Y2849993D2*
Y2713091D1*
X221525Y2781542D2*
X358428D1*
X289976Y2493706D2*
Y2356803D1*
X221525Y2425255D2*
X358428D1*
X289976Y2137418D2*
Y2000516D1*
X221525Y2068967D2*
X358428D1*
X289976Y1781131D2*
Y1644229D1*
X221525Y1712680D2*
X358428D1*
X289976Y1424844D2*
Y1287941D1*
X221525Y1356392D2*
X358428D1*
X289976Y1068556D2*
Y931654D1*
X221525Y1000105D2*
X358428D1*
X289976Y712269D2*
Y575366D1*
X221525Y643818D2*
X358428D1*
X1746379Y144425D2*
Y87509D1*
X1689464D2*
X1803295D1*
X1697167Y254386D2*
Y117483D1*
Y185934D2*
X1765618D1*
X1972757Y254386D2*
Y117483D1*
X1904306Y185934D2*
X2041208D1*
X2815257Y731021D2*
Y594118D1*
X2746806Y662570D2*
X2883708D1*
X1390092Y144425D2*
Y87509D1*
X1333176D2*
X1447008D1*
X1340879Y254386D2*
Y117483D1*
X1272428Y185934D2*
X1409330D1*
X1616470Y254386D2*
Y117483D1*
X1548019Y185934D2*
X1616470D1*
X646264Y3718834D2*
Y3581932D1*
X577813Y3650383D2*
X714715D1*
X1002551Y3718834D2*
Y3581932D1*
X934100Y3650383D2*
X1071002D1*
X1358839Y3718834D2*
Y3581932D1*
X1290387Y3650383D2*
X1427290D1*
X1715126Y3718834D2*
Y3581932D1*
X1646675Y3650383D2*
X1783577D1*
X2071413Y3718834D2*
Y3581932D1*
X2002962Y3650383D2*
X2139865D1*
X2427701Y3718834D2*
Y3581932D1*
X2359250Y3650383D2*
X2496152D1*
X2783988Y3718834D2*
Y3581932D1*
X2715537Y3650383D2*
X2852439D1*
X3140276Y3718834D2*
Y3581932D1*
X3071824Y3650383D2*
X3208727D1*
X2583915Y146739D2*
Y93760D1*
D23*
X289976Y3137829D3*
Y3287829D3*
Y2781542D3*
Y2931542D3*
Y2425255D3*
Y2575255D3*
Y2068967D3*
Y2218967D3*
Y1712680D3*
Y1862680D3*
Y1356392D3*
Y1506392D3*
Y1000105D3*
Y1150105D3*
Y643818D3*
Y793818D3*
D33*
X1746379Y87509D3*
D34*
X1923545D3*
D35*
X1697167Y185934D3*
X1972757D3*
D23*
X2965257Y662570D3*
X2815257D3*
X3652829Y800084D3*
Y650084D3*
Y1156371D3*
Y1006371D3*
Y1512659D3*
Y1362659D3*
Y1868946D3*
Y1718946D3*
Y2225234D3*
Y2075234D3*
Y2581521D3*
Y2431521D3*
Y2937808D3*
Y2787808D3*
Y3294096D3*
Y3144096D3*
D33*
X1390092Y87509D3*
D34*
X1567257D3*
D35*
X1340879Y185934D3*
X1616470D3*
D23*
X646264Y3650383D3*
X796264D3*
X1002551D3*
X1152551D3*
X1358839D3*
X1508839D3*
X1715126D3*
X1865126D3*
X2071413D3*
X2221413D3*
X2427701D3*
X2577701D3*
X2783988D3*
X2933988D3*
X3140276D3*
X3290276D3*
D45*
X2083915Y93760D3*
X2183915D3*
X2283915D3*
X2383915D3*
X2483915D3*
X2583915D3*
G04 BoardOutline*
X0Y3937008D2*
D11*
Y0D1*
X2671476D1*
Y381290D1*
X3102772D1*
Y0D1*
X3937008D1*
Y3937008D1*
X0D1*
M02*
