G04 DipTrace 3.0.0.0*
G04 TopSilk.gbr*
%MOIN*%
G04 #@! TF.FileFunction,Legend,Top*
G04 #@! TF.Part,Single*
%ADD10C,0.009843*%
%ADD11C,0.006*%
%ADD25C,0.02362*%
%ADD28C,0.023616*%
%ADD30C,0.07874*%
%ADD38C,0.015403*%
%ADD41C,0.015422*%
%ADD43C,0.015404*%
%ADD87C,0.006176*%
%ADD88C,0.009264*%
%ADD89C,0.015439*%
%ADD90C,0.012351*%
%FSLAX26Y26*%
G04*
G70*
G90*
G75*
G01*
G04 TopSilk*
%LPD*%
X-37525Y3037829D2*
D10*
X327489D1*
Y3387829D1*
X-37525D1*
Y3037829D1*
Y2681542D2*
X327489D1*
Y3031542D1*
X-37525D1*
Y2681542D1*
Y2325255D2*
X327489D1*
Y2675255D1*
X-37525D1*
Y2325255D1*
Y1968967D2*
X327489D1*
Y2318967D1*
X-37525D1*
Y1968967D1*
Y1612680D2*
X327489D1*
Y1962680D1*
X-37525D1*
Y1612680D1*
Y1256392D2*
X327489D1*
Y1606392D1*
X-37525D1*
Y1256392D1*
Y900105D2*
X327489D1*
Y1250105D1*
X-37525D1*
Y900105D1*
Y543818D2*
X327489D1*
Y893818D1*
X-37525D1*
Y543818D1*
X2645131Y1013156D2*
X2558526D1*
X2645131D2*
Y1229664D1*
X2601815Y1272959D2*
X2645131Y1229664D1*
X2601815Y1272959D2*
X2558526D1*
X2471894Y1013156D2*
X2385289D1*
Y1229664D1*
X2428604Y1272959D2*
X2385289Y1229664D1*
X2471894Y1272959D2*
X2428604D1*
D25*
X2566386Y1296614D3*
X2362331Y1511106D2*
D10*
X2320990D1*
X2362331D2*
Y1650843D1*
X2332806Y1680382D2*
X2362331Y1650843D1*
X2332806Y1680382D2*
X2320990D1*
X2234380Y1511106D2*
X2193039D1*
Y1650843D1*
X2222564Y1680382D2*
X2193039Y1650843D1*
X2234380Y1680382D2*
X2222564D1*
D28*
X2328870Y1702044D3*
X3038923Y1456953D2*
D10*
X2952317D1*
X3038923D2*
Y1673461D1*
X2995607Y1716756D2*
X3038923Y1673461D1*
X2995607Y1716756D2*
X2952317D1*
X2865686Y1456953D2*
X2779080D1*
Y1673461D1*
X2822396Y1716756D2*
X2779080Y1673461D1*
X2865686Y1716756D2*
X2822396D1*
D25*
X2960177Y1740410D3*
X1540108Y1424969D2*
D10*
Y1267504D1*
X2170029Y1424969D2*
Y1267504D1*
X1540108Y1424969D2*
X2170029D1*
Y558827D2*
X1540108D1*
D30*
X1658218Y1306870D3*
G36*
X1776328Y1346236D2*
X2091289D1*
Y1267504D1*
X1776328D1*
Y1346236D1*
G37*
X2864702Y787096D2*
D10*
X2939700D1*
X2864702Y913083D2*
X2939700D1*
X1972748Y244990D2*
Y235159D1*
Y142610D2*
Y132820D1*
Y244990D2*
X1962908D1*
Y235159D1*
X1712905Y14696D2*
X1957019D1*
X1697176Y244990D2*
Y235159D1*
Y244990D2*
X1707015D1*
Y235159D1*
X1697176Y142610D2*
Y132820D1*
X1957019Y14696D2*
Y56016D1*
Y117076D2*
Y132820D1*
X1972748D1*
X1697176D2*
X1712905D1*
Y35356D2*
Y14696D1*
X1707015Y142610D2*
Y134738D1*
X1962908Y142610D2*
Y134738D1*
X1712905Y132820D2*
X1957019D1*
X1764112Y-154617D2*
X1905812D1*
Y14696D1*
X1764112Y-154617D2*
Y14696D1*
X1834962Y-86684D2*
Y-9959D1*
Y-7961D2*
X1825123Y-27622D1*
X1834962Y-7961D2*
X1844801Y-27622D1*
X1834962Y-92638D2*
X1825123Y-70939D1*
X1834962Y-92638D2*
X1844801Y-70939D1*
X3065257Y335068D2*
X2715257D1*
Y700082D1*
X3065257D1*
Y335068D1*
X3980331Y900084D2*
X3615317D1*
Y550084D1*
X3980331D1*
Y900084D1*
Y1256371D2*
X3615317D1*
Y906371D1*
X3980331D1*
Y1256371D1*
Y1612659D2*
X3615317D1*
Y1262659D1*
X3980331D1*
Y1612659D1*
Y1968946D2*
X3615317D1*
Y1618946D1*
X3980331D1*
Y1968946D1*
Y2325234D2*
X3615317D1*
Y1975234D1*
X3980331D1*
Y2325234D1*
Y2681521D2*
X3615317D1*
Y2331521D1*
X3980331D1*
Y2681521D1*
Y3037808D2*
X3615317D1*
Y2687808D1*
X3980331D1*
Y3037808D1*
Y3394096D2*
X3615317D1*
Y3044096D1*
X3980331D1*
Y3394096D1*
X2870352Y1304812D2*
Y1107957D1*
X2972729Y1304812D2*
Y1107957D1*
X2870352D2*
X2972729D1*
X2901846Y1304812D2*
X2870352D1*
X2941235D2*
X2972729D1*
X2901846D2*
G03X2941235Y1304812I19694J9D01*
G01*
X1616460Y244990D2*
Y235159D1*
Y142610D2*
Y132820D1*
Y244990D2*
X1606621D1*
Y235159D1*
X1356618Y14696D2*
X1600731D1*
X1340889Y244990D2*
Y235159D1*
Y244990D2*
X1350728D1*
Y235159D1*
X1340889Y142610D2*
Y132820D1*
X1600731Y14696D2*
Y56016D1*
Y117076D2*
Y132820D1*
X1616460D1*
X1340889D2*
X1356618D1*
Y35356D2*
Y14696D1*
X1350728Y142610D2*
Y134738D1*
X1606621Y142610D2*
Y134738D1*
X1356618Y132820D2*
X1600731D1*
X1407824Y-154617D2*
X1549525D1*
Y14696D1*
X1407824Y-154617D2*
Y14696D1*
X1478675Y-86684D2*
Y-9959D1*
Y-7961D2*
X1468835Y-27622D1*
X1478675Y-7961D2*
X1488514Y-27622D1*
X1478675Y-92638D2*
X1468835Y-70939D1*
X1478675Y-92638D2*
X1488514Y-70939D1*
X483752Y487509D2*
X1283752D1*
Y12509D1*
X483752D1*
Y487509D1*
X1299132Y2714780D2*
Y1998283D1*
X1551099Y2714780D2*
Y1998283D1*
X1299132D2*
X1551099D1*
X1299132Y2714780D2*
X1393608D1*
X1456623D2*
X1551099D1*
X1393608D2*
G03X1456623Y2714780I31507J53D01*
G01*
X2524261D2*
Y1998283D1*
X2776228Y2714780D2*
Y1998283D1*
X2524261D2*
X2776228D1*
X2524261Y2714780D2*
X2618737D1*
X2681751D2*
X2776228D1*
X2618737D2*
G03X2681751Y2714780I31507J53D01*
G01*
D38*
X2408124Y1451211D3*
X2407084Y1540461D2*
D10*
X2666914D1*
X2407084Y1650697D2*
X2666914D1*
Y1540461D2*
Y1650697D1*
X2407084Y1540461D2*
Y1650697D1*
D41*
X2979966Y956755D3*
X2929824Y965955D2*
D10*
Y1084060D1*
X2910139D1*
Y965955D1*
X2929824D1*
D43*
X596663Y3323141D3*
X605864Y3373283D2*
D10*
X723969D1*
Y3392969D1*
X605864D1*
Y3373283D1*
D43*
X752929Y3429403D3*
X762130Y3479545D2*
D10*
X880235D1*
Y3499230D1*
X762130D1*
Y3479545D1*
X546264Y3977885D2*
X896264D1*
Y3612870D1*
X546264D1*
Y3977885D1*
D43*
X965452Y3323141D3*
X974652Y3373283D2*
D10*
X1092757D1*
Y3392969D1*
X974652D1*
Y3373283D1*
D43*
X1109217Y3429403D3*
X1118417Y3479545D2*
D10*
X1236522D1*
Y3499230D1*
X1118417D1*
Y3479545D1*
X902551Y3977885D2*
X1252551D1*
Y3612870D1*
X902551D1*
Y3977885D1*
D43*
X1315488Y3323141D3*
X1324689Y3373283D2*
D10*
X1442794D1*
Y3392969D1*
X1324689D1*
Y3373283D1*
D43*
X1465504Y3429403D3*
X1474705Y3479545D2*
D10*
X1592810D1*
Y3499230D1*
X1474705D1*
Y3479545D1*
X1258839Y3977885D2*
X1608839D1*
Y3612870D1*
X1258839D1*
Y3977885D1*
D43*
X1671776Y3323141D3*
X1680976Y3373283D2*
D10*
X1799081D1*
Y3392969D1*
X1680976D1*
Y3373283D1*
D43*
X1821791Y3429403D3*
X1830992Y3479545D2*
D10*
X1949097D1*
Y3499230D1*
X1830992D1*
Y3479545D1*
X1615126Y3977885D2*
X1965126D1*
Y3612870D1*
X1615126D1*
Y3977885D1*
D43*
X2028063Y3323141D3*
X2037264Y3373283D2*
D10*
X2155369D1*
Y3392969D1*
X2037264D1*
Y3373283D1*
D43*
X2178079Y3429403D3*
X2187280Y3479545D2*
D10*
X2305385D1*
Y3499230D1*
X2187280D1*
Y3479545D1*
X1971413Y3977885D2*
X2321413D1*
Y3612870D1*
X1971413D1*
Y3977885D1*
D43*
X2384350Y3323141D3*
X2393551Y3373283D2*
D10*
X2511656D1*
Y3392969D1*
X2393551D1*
Y3373283D1*
D43*
X2534366Y3429403D3*
X2543567Y3479545D2*
D10*
X2661672D1*
Y3499230D1*
X2543567D1*
Y3479545D1*
X2327701Y3977885D2*
X2677701D1*
Y3612870D1*
X2327701D1*
Y3977885D1*
D43*
X2740638Y3323141D3*
X2749839Y3373283D2*
D10*
X2867944D1*
Y3392969D1*
X2749839D1*
Y3373283D1*
D43*
X2890654Y3429403D3*
X2899854Y3479545D2*
D10*
X3017959D1*
Y3499230D1*
X2899854D1*
Y3479545D1*
X2683988Y3977885D2*
X3033988D1*
Y3612870D1*
X2683988D1*
Y3977885D1*
D43*
X3096925Y3323141D3*
X3106126Y3373283D2*
D10*
X3224231D1*
Y3392969D1*
X3106126D1*
Y3373283D1*
D43*
X3246941Y3429403D3*
X3256142Y3479545D2*
D10*
X3374247D1*
Y3499230D1*
X3256142D1*
Y3479545D1*
X3040276Y3977885D2*
X3390276D1*
Y3612870D1*
X3040276D1*
Y3977885D1*
X2033928Y143748D2*
X2633934D1*
Y43782D1*
X2033928D1*
Y143748D1*
X348543Y3149313D2*
D87*
X388735D1*
Y3166557D1*
X386790Y3172305D1*
X384889Y3174206D1*
X381086Y3176108D1*
X375338D1*
X371491Y3174206D1*
X369590Y3172305D1*
X367689Y3166557D1*
X365743Y3172305D1*
X363842Y3174206D1*
X360039Y3176108D1*
X356193D1*
X352390Y3174206D1*
X350445Y3172305D1*
X348543Y3166557D1*
Y3149313D1*
X367689D2*
Y3166557D1*
X348543Y3188459D2*
X377239D1*
X382987Y3190360D1*
X386790Y3194207D1*
X388735Y3199955D1*
Y3203758D1*
X386790Y3209506D1*
X382987Y3213352D1*
X377239Y3215254D1*
X348543D1*
Y3241002D2*
X388735D1*
X348543Y3227605D2*
Y3254400D1*
X356237Y3266751D2*
X354291Y3270598D1*
X348588Y3276346D1*
X388735D1*
X348543Y2784426D2*
X388735D1*
Y2801670D1*
X386790Y2807418D1*
X384889Y2809319D1*
X381086Y2811220D1*
X375338D1*
X371491Y2809319D1*
X369590Y2807418D1*
X367689Y2801670D1*
X365743Y2807418D1*
X363842Y2809319D1*
X360039Y2811220D1*
X356193D1*
X352390Y2809319D1*
X350445Y2807418D1*
X348543Y2801670D1*
Y2784426D1*
X367689D2*
Y2801670D1*
X348543Y2823572D2*
X377239D1*
X382987Y2825473D1*
X386790Y2829320D1*
X388735Y2835068D1*
Y2838870D1*
X386790Y2844618D1*
X382987Y2848465D1*
X377239Y2850366D1*
X348543D1*
Y2876115D2*
X388735D1*
X348543Y2862718D2*
Y2889512D1*
X358138Y2903809D2*
X356237D1*
X352390Y2905711D1*
X350489Y2907612D1*
X348588Y2911459D1*
Y2919108D1*
X350489Y2922910D1*
X352390Y2924812D1*
X356237Y2926757D1*
X360039D1*
X363886Y2924812D1*
X369590Y2921009D1*
X388735Y2901864D1*
Y2928658D1*
X348543Y2428138D2*
X388735D1*
Y2445382D1*
X386790Y2451130D1*
X384889Y2453032D1*
X381086Y2454933D1*
X375338D1*
X371491Y2453032D1*
X369590Y2451130D1*
X367689Y2445382D1*
X365743Y2451130D1*
X363842Y2453032D1*
X360039Y2454933D1*
X356193D1*
X352390Y2453032D1*
X350445Y2451130D1*
X348543Y2445382D1*
Y2428138D1*
X367689D2*
Y2445382D1*
X348543Y2467284D2*
X377239D1*
X382987Y2469186D1*
X386790Y2473032D1*
X388735Y2478780D1*
Y2482583D1*
X386790Y2488331D1*
X382987Y2492178D1*
X377239Y2494079D1*
X348543D1*
Y2519828D2*
X388735D1*
X348543Y2506430D2*
Y2533225D1*
X348588Y2549423D2*
Y2570426D1*
X363886Y2558974D1*
Y2564722D1*
X365787Y2568524D1*
X367689Y2570426D1*
X373437Y2572371D1*
X377239D1*
X382987Y2570426D1*
X386834Y2566623D1*
X388735Y2560875D1*
Y2555127D1*
X386834Y2549423D1*
X384889Y2547522D1*
X381086Y2545576D1*
X348543Y2070900D2*
X388735D1*
Y2088144D1*
X386790Y2093892D1*
X384889Y2095794D1*
X381086Y2097695D1*
X375338D1*
X371491Y2095794D1*
X369590Y2093892D1*
X367689Y2088144D1*
X365743Y2093892D1*
X363842Y2095794D1*
X360039Y2097695D1*
X356193D1*
X352390Y2095794D1*
X350445Y2093892D1*
X348543Y2088144D1*
Y2070900D1*
X367689D2*
Y2088144D1*
X348543Y2110046D2*
X377239D1*
X382987Y2111947D1*
X386790Y2115794D1*
X388735Y2121542D1*
Y2125345D1*
X386790Y2131093D1*
X382987Y2134940D1*
X377239Y2136841D1*
X348543D1*
Y2162590D2*
X388735D1*
X348543Y2149192D2*
Y2175987D1*
X388735Y2207484D2*
X348588D1*
X375338Y2188338D1*
Y2217034D1*
X348543Y1715563D2*
X388735D1*
Y1732808D1*
X386790Y1738556D1*
X384889Y1740457D1*
X381086Y1742358D1*
X375338D1*
X371491Y1740457D1*
X369590Y1738556D1*
X367689Y1732808D1*
X365743Y1738556D1*
X363842Y1740457D1*
X360039Y1742358D1*
X356193D1*
X352390Y1740457D1*
X350445Y1738556D1*
X348543Y1732808D1*
Y1715563D1*
X367689D2*
Y1732808D1*
X348543Y1754710D2*
X377239Y1754709D1*
X382987Y1756611D1*
X386790Y1760457D1*
X388735Y1766205D1*
Y1770008D1*
X386790Y1775756D1*
X382987Y1779603D1*
X377239Y1781504D1*
X348543D1*
Y1807253D2*
X388735D1*
X348543Y1793856D2*
Y1820650D1*
X348588Y1855949D2*
Y1836848D1*
X365787Y1834947D1*
X363886Y1836848D1*
X361941Y1842596D1*
Y1848300D1*
X363886Y1854048D1*
X367689Y1857895D1*
X373437Y1859796D1*
X377239D1*
X382987Y1857895D1*
X386834Y1854048D1*
X388735Y1848300D1*
Y1842596D1*
X386834Y1836848D1*
X384889Y1834947D1*
X381086Y1833002D1*
X348543Y1360249D2*
X388735D1*
Y1377493D1*
X386790Y1383241D1*
X384889Y1385142D1*
X381086Y1387043D1*
X375338D1*
X371491Y1385142D1*
X369590Y1383241D1*
X367689Y1377493D1*
X365743Y1383241D1*
X363842Y1385142D1*
X360039Y1387043D1*
X356193D1*
X352390Y1385142D1*
X350445Y1383241D1*
X348543Y1377493D1*
Y1360249D1*
X367689D2*
Y1377493D1*
X348543Y1399395D2*
X377239D1*
X382987Y1401296D1*
X386790Y1405143D1*
X388735Y1410891D1*
Y1414693D1*
X386790Y1420441D1*
X382987Y1424288D1*
X377239Y1426189D1*
X348543D1*
Y1451938D2*
X388735D1*
X348543Y1438541D2*
Y1465336D1*
X354291Y1500635D2*
X350489Y1498734D1*
X348588Y1492986D1*
Y1489183D1*
X350489Y1483435D1*
X356237Y1479588D1*
X365787Y1477687D1*
X375338D1*
X382987Y1479588D1*
X386834Y1483435D1*
X388735Y1489183D1*
Y1491084D1*
X386834Y1496788D1*
X382987Y1500635D1*
X377239Y1502536D1*
X375338D1*
X369590Y1500635D1*
X365787Y1496788D1*
X363886Y1491084D1*
Y1489183D1*
X365787Y1483435D1*
X369590Y1479588D1*
X375338Y1477687D1*
X348543Y1002989D2*
X388735D1*
Y1020233D1*
X386790Y1025981D1*
X384889Y1027882D1*
X381086Y1029783D1*
X375338D1*
X371491Y1027882D1*
X369590Y1025981D1*
X367689Y1020233D1*
X365743Y1025981D1*
X363842Y1027882D1*
X360039Y1029783D1*
X356193D1*
X352390Y1027882D1*
X350445Y1025981D1*
X348543Y1020233D1*
Y1002989D1*
X367689D2*
Y1020233D1*
X348543Y1042135D2*
X377239D1*
X382987Y1044036D1*
X386790Y1047883D1*
X388735Y1053631D1*
Y1057433D1*
X386790Y1063181D1*
X382987Y1067028D1*
X377239Y1068929D1*
X348543D1*
Y1094678D2*
X388735D1*
X348543Y1081281D2*
Y1108075D1*
X388735Y1128076D2*
X348588Y1147221D1*
Y1120427D1*
X348543Y646723D2*
X388735D1*
Y663967D1*
X386790Y669715D1*
X384889Y671617D1*
X381086Y673518D1*
X375338D1*
X371491Y671617D1*
X369590Y669715D1*
X367689Y663967D1*
X365743Y669715D1*
X363842Y671617D1*
X360039Y673518D1*
X356193D1*
X352390Y671617D1*
X350445Y669715D1*
X348543Y663967D1*
Y646723D1*
X367689D2*
Y663967D1*
X348543Y685869D2*
X377239D1*
X382987Y687771D1*
X386790Y691617D1*
X388735Y697365D1*
Y701168D1*
X386790Y706916D1*
X382987Y710763D1*
X377239Y712664D1*
X348543D1*
Y738413D2*
X388735D1*
X348543Y725015D2*
Y751810D1*
X348588Y773712D2*
X350489Y768008D1*
X354291Y766063D1*
X358138D1*
X361941Y768008D1*
X363886Y771811D1*
X365787Y779460D1*
X367689Y785208D1*
X371535Y789011D1*
X375338Y790912D1*
X381086D1*
X384889Y789011D1*
X386834Y787109D1*
X388735Y781361D1*
Y773712D1*
X386834Y768008D1*
X384889Y766063D1*
X381086Y764161D1*
X375338D1*
X371535Y766063D1*
X367689Y769910D1*
X365787Y775613D1*
X363886Y783263D1*
X361941Y787109D1*
X358138Y789011D1*
X354291D1*
X350489Y787109D1*
X348588Y781361D1*
Y773712D1*
X1437131Y1903355D2*
X1435230Y1907157D1*
X1431383Y1911004D1*
X1427580Y1912905D1*
X1419931D1*
X1416084Y1911004D1*
X1412282Y1907157D1*
X1410336Y1903355D1*
X1408435Y1897607D1*
Y1888012D1*
X1410336Y1882308D1*
X1412282Y1878462D1*
X1416084Y1874659D1*
X1419931Y1872713D1*
X1427580D1*
X1431383Y1874659D1*
X1435230Y1878462D1*
X1437131Y1882308D1*
X1449482Y1905212D2*
X1453329Y1907157D1*
X1459077Y1912861D1*
Y1872713D1*
X2653648Y1903810D2*
X2651746Y1907613D1*
X2647900Y1911460D1*
X2644097Y1913361D1*
X2636448D1*
X2632601Y1911460D1*
X2628798Y1907613D1*
X2626853Y1903810D1*
X2624952Y1898062D1*
Y1888467D1*
X2626853Y1882764D1*
X2628798Y1878917D1*
X2632601Y1875114D1*
X2636448Y1873169D1*
X2644097D1*
X2647900Y1875114D1*
X2651746Y1878917D1*
X2653648Y1882764D1*
X2667945Y1903766D2*
Y1905667D1*
X2669846Y1909514D1*
X2671747Y1911415D1*
X2675594Y1913317D1*
X2683243D1*
X2687046Y1911415D1*
X2688947Y1909514D1*
X2690892Y1905667D1*
Y1901865D1*
X2688947Y1898018D1*
X2685144Y1892314D1*
X2665999Y1873169D1*
X2692794D1*
X1666044Y366149D2*
X1664143Y369951D1*
X1660296Y373798D1*
X1656493Y375699D1*
X1648844D1*
X1644997Y373798D1*
X1641195Y369951D1*
X1639249Y366149D1*
X1637348Y360401D1*
Y350806D1*
X1639249Y345102D1*
X1641195Y341255D1*
X1644997Y337453D1*
X1648844Y335507D1*
X1656493D1*
X1660296Y337453D1*
X1664143Y341255D1*
X1666044Y345102D1*
X1682242Y375655D2*
X1703245D1*
X1691793Y360357D1*
X1697541D1*
X1701343Y358455D1*
X1703245Y356554D1*
X1705190Y350806D1*
Y347004D1*
X1703245Y341255D1*
X1699442Y337409D1*
X1693694Y335507D1*
X1687946D1*
X1682242Y337409D1*
X1680341Y339354D1*
X1678395Y343157D1*
X2509034Y1357445D2*
X2507133Y1361248D1*
X2503286Y1365095D1*
X2499484Y1366996D1*
X2491834D1*
X2487988Y1365095D1*
X2484185Y1361248D1*
X2482240Y1357445D1*
X2480338Y1351697D1*
Y1342102D1*
X2482240Y1336399D1*
X2484185Y1332552D1*
X2487988Y1328749D1*
X2491834Y1326804D1*
X2499484D1*
X2503286Y1328749D1*
X2507133Y1332552D1*
X2509034Y1336399D1*
X2540531Y1326804D2*
Y1366952D1*
X2521386Y1340201D1*
X2550082D1*
X2697505Y1312044D2*
X2695603Y1315846D1*
X2691757Y1319693D1*
X2687954Y1321594D1*
X2680305D1*
X2676458Y1319693D1*
X2672655Y1315846D1*
X2670710Y1312044D1*
X2668809Y1306296D1*
Y1296701D1*
X2670710Y1290997D1*
X2672655Y1287150D1*
X2676458Y1283348D1*
X2680305Y1281402D1*
X2687954D1*
X2691757Y1283348D1*
X2695603Y1287150D1*
X2697505Y1290997D1*
X2732804Y1321550D2*
X2713703D1*
X2711801Y1304350D1*
X2713703Y1306251D1*
X2719451Y1308197D1*
X2725155D1*
X2730903Y1306251D1*
X2734749Y1302449D1*
X2736651Y1296701D1*
Y1292898D1*
X2734749Y1287150D1*
X2730903Y1283303D1*
X2725155Y1281402D1*
X2719451D1*
X2713703Y1283303D1*
X2711801Y1285249D1*
X2709856Y1289052D1*
X2717229Y1705835D2*
X2715328Y1709638D1*
X2711481Y1713484D1*
X2707679Y1715386D1*
X2700029D1*
X2696183Y1713484D1*
X2692380Y1709638D1*
X2690435Y1705835D1*
X2688533Y1700087D1*
Y1690492D1*
X2690435Y1684788D1*
X2692380Y1680942D1*
X2696183Y1677139D1*
X2700029Y1675194D1*
X2707679D1*
X2711481Y1677139D1*
X2715328Y1680942D1*
X2717229Y1684788D1*
X2752529Y1709638D2*
X2750627Y1713440D1*
X2744879Y1715341D1*
X2741077D1*
X2735329Y1713440D1*
X2731482Y1707692D1*
X2729581Y1698141D1*
Y1688591D1*
X2731482Y1680942D1*
X2735329Y1677095D1*
X2741077Y1675194D1*
X2742978D1*
X2748682Y1677095D1*
X2752529Y1680942D1*
X2754430Y1686690D1*
Y1688591D1*
X2752529Y1694339D1*
X2748682Y1698141D1*
X2742978Y1700043D1*
X2741077D1*
X2735329Y1698141D1*
X2731482Y1694339D1*
X2729581Y1688591D1*
X2272460Y1762894D2*
X2270559Y1766697D1*
X2266712Y1770543D1*
X2262909Y1772445D1*
X2255260D1*
X2251413Y1770543D1*
X2247611Y1766697D1*
X2245665Y1762894D1*
X2243764Y1757146D1*
Y1747551D1*
X2245665Y1741847D1*
X2247611Y1738001D1*
X2251413Y1734198D1*
X2255260Y1732253D1*
X2262909D1*
X2266712Y1734198D1*
X2270559Y1738001D1*
X2272460Y1741847D1*
X2292461Y1732253D2*
X2311606Y1772400D1*
X2284811D1*
X2903798Y1801242D2*
X2901897Y1805044D1*
X2898050Y1808891D1*
X2894248Y1810792D1*
X2886598D1*
X2882752Y1808891D1*
X2878949Y1805044D1*
X2877004Y1801242D1*
X2875102Y1795494D1*
Y1785899D1*
X2877004Y1780195D1*
X2878949Y1776348D1*
X2882752Y1772546D1*
X2886598Y1770600D1*
X2894248D1*
X2898050Y1772546D1*
X2901897Y1776348D1*
X2903798Y1780195D1*
X2925700Y1810748D2*
X2919997Y1808847D1*
X2918051Y1805044D1*
Y1801198D1*
X2919997Y1797395D1*
X2923799Y1795450D1*
X2931448Y1793548D1*
X2937196Y1791647D1*
X2940999Y1787800D1*
X2942900Y1783998D1*
Y1778250D1*
X2940999Y1774447D1*
X2939098Y1772502D1*
X2933350Y1770600D1*
X2925700D1*
X2919997Y1772502D1*
X2918051Y1774447D1*
X2916150Y1778250D1*
Y1783998D1*
X2918051Y1787800D1*
X2921898Y1791647D1*
X2927602Y1793548D1*
X2935251Y1795450D1*
X2939098Y1797395D1*
X2940999Y1801198D1*
Y1805044D1*
X2939098Y1808847D1*
X2933350Y1810748D1*
X2925700D1*
X3090800Y1757031D2*
Y1716839D1*
X3104198D1*
X3109946Y1718785D1*
X3113792Y1722587D1*
X3115694Y1726434D1*
X3117595Y1732138D1*
Y1741733D1*
X3115694Y1747481D1*
X3113792Y1751283D1*
X3109946Y1755130D1*
X3104198Y1757031D1*
X3090800D1*
X3129946Y1749338D2*
X3133793Y1751283D1*
X3139541Y1756987D1*
Y1716839D1*
X1817374Y1483547D2*
X1792524D1*
Y1443355D1*
X1817374D1*
X1792524Y1464402D2*
X1807823D1*
X1856520Y1477799D2*
X1852717Y1481646D1*
X1846969Y1483547D1*
X1839320D1*
X1833572Y1481646D1*
X1829725Y1477799D1*
Y1473996D1*
X1831671Y1470150D1*
X1833572Y1468248D1*
X1837374Y1466347D1*
X1848870Y1462500D1*
X1852717Y1460599D1*
X1854618Y1458654D1*
X1856520Y1454851D1*
Y1449103D1*
X1852717Y1445300D1*
X1846969Y1443355D1*
X1839320D1*
X1833572Y1445300D1*
X1829725Y1449103D1*
X1868871Y1462500D2*
X1886115D1*
X1891819Y1464402D1*
X1893765Y1466347D1*
X1895666Y1470150D1*
Y1475898D1*
X1893765Y1479700D1*
X1891819Y1481646D1*
X1886115Y1483547D1*
X1868871D1*
Y1443355D1*
X1908017Y1475853D2*
X1911864Y1477799D1*
X1917612Y1483503D1*
Y1443355D1*
X2903674Y769593D2*
X2878781D1*
Y729401D1*
Y750448D2*
X2894080D1*
X2916026Y761900D2*
X2919873Y763845D1*
X2925621Y769549D1*
Y729401D1*
X2656679Y519919D2*
X2687276D1*
X2693024Y518017D1*
X2694925Y516072D1*
X2696871Y512269D1*
Y508423D1*
X2694925Y504620D1*
X2693024Y502719D1*
X2687276Y500773D1*
X2683473D1*
X2664372Y532270D2*
X2662427Y536117D1*
X2656723Y541865D1*
X2696871D1*
X3549251Y664464D2*
X3589443D1*
Y687412D1*
X3549251Y724612D2*
Y699763D1*
X3589443D1*
Y724612D1*
X3568396Y699763D2*
Y715062D1*
X3549251Y736964D2*
X3589443D1*
Y750361D1*
X3587497Y756109D1*
X3583695Y759956D1*
X3579848Y761857D1*
X3574144Y763758D1*
X3564550D1*
X3558802Y761857D1*
X3554999Y759956D1*
X3551152Y756109D1*
X3549251Y750361D1*
Y736964D1*
X3556945Y776110D2*
X3554999Y779956D1*
X3549295Y785704D1*
X3589443D1*
X3549251Y1012151D2*
X3589443D1*
Y1035099D1*
X3549251Y1072300D2*
Y1047450D1*
X3589443D1*
Y1072300D1*
X3568396Y1047450D2*
Y1062749D1*
X3549251Y1084651D2*
X3589443D1*
Y1098048D1*
X3587497Y1103796D1*
X3583695Y1107643D1*
X3579848Y1109544D1*
X3574144Y1111446D1*
X3564550D1*
X3558802Y1109544D1*
X3554999Y1107643D1*
X3551152Y1103796D1*
X3549251Y1098048D1*
Y1084651D1*
X3558846Y1125743D2*
X3556945D1*
X3553098Y1127644D1*
X3551196Y1129545D1*
X3549295Y1133392D1*
Y1141041D1*
X3551196Y1144844D1*
X3553098Y1146745D1*
X3556944Y1148690D1*
X3560747D1*
X3564594Y1146745D1*
X3570298Y1142942D1*
X3589443Y1123797D1*
Y1150592D1*
X3549251Y1368439D2*
X3589443D1*
Y1391386D1*
X3549251Y1428587D2*
Y1403738D1*
X3589443D1*
Y1428587D1*
X3568396Y1403738D2*
Y1419036D1*
X3549251Y1440938D2*
X3589443D1*
Y1454336D1*
X3587497Y1460084D1*
X3583695Y1463930D1*
X3579848Y1465832D1*
X3574144Y1467733D1*
X3564550D1*
X3558802Y1465832D1*
X3554999Y1463931D1*
X3551152Y1460084D1*
X3549251Y1454336D1*
Y1440938D1*
X3549295Y1483931D2*
Y1504934D1*
X3564594Y1493482D1*
Y1499230D1*
X3566495Y1503032D1*
X3568396Y1504934D1*
X3574144Y1506879D1*
X3577947D1*
X3583695Y1504934D1*
X3587542Y1501131D1*
X3589443Y1495383D1*
Y1489635D1*
X3587542Y1483931D1*
X3585596Y1482030D1*
X3581794Y1480084D1*
X3549251Y1723775D2*
X3589443D1*
Y1746723D1*
X3549251Y1783924D2*
Y1759075D1*
X3589443D1*
Y1783924D1*
X3568396Y1759075D2*
Y1774373D1*
X3549251Y1796275D2*
X3589443D1*
Y1809672D1*
X3587497Y1815421D1*
X3583695Y1819267D1*
X3579848Y1821169D1*
X3574144Y1823070D1*
X3564550D1*
X3558802Y1821169D1*
X3554999Y1819267D1*
X3551152Y1815421D1*
X3549251Y1809673D1*
Y1796275D1*
X3589443Y1854567D2*
X3549295D1*
X3576046Y1835421D1*
Y1864117D1*
X3549251Y2081013D2*
X3589443D1*
Y2103961D1*
X3549251Y2141162D2*
Y2116313D1*
X3589443D1*
Y2141162D1*
X3568396Y2116313D2*
Y2131611D1*
X3549251Y2153513D2*
X3589443D1*
Y2166911D1*
X3587497Y2172659D1*
X3583695Y2176505D1*
X3579848Y2178407D1*
X3574144Y2180308D1*
X3564550D1*
X3558802Y2178407D1*
X3554999Y2176505D1*
X3551152Y2172659D1*
X3549251Y2166911D1*
Y2153513D1*
X3549295Y2215607D2*
Y2196506D1*
X3566495Y2194605D1*
X3564594Y2196506D1*
X3562648Y2202254D1*
Y2207958D1*
X3564594Y2213706D1*
X3568396Y2217553D1*
X3574144Y2219454D1*
X3577947D1*
X3583695Y2217553D1*
X3587542Y2213706D1*
X3589443Y2207958D1*
Y2202254D1*
X3587542Y2196506D1*
X3585596Y2194605D1*
X3581794Y2192659D1*
X3549251Y2438274D2*
X3589443D1*
Y2461221D1*
X3549251Y2498422D2*
Y2473573D1*
X3589443D1*
Y2498422D1*
X3568396Y2473573D2*
Y2488871D1*
X3549251Y2510773D2*
X3589443D1*
Y2524171D1*
X3587497Y2529919D1*
X3583695Y2533765D1*
X3579848Y2535667D1*
X3574144Y2537568D1*
X3564550D1*
X3558802Y2535667D1*
X3554999Y2533765D1*
X3551152Y2529919D1*
X3549251Y2524171D1*
Y2510773D1*
X3554999Y2572867D2*
X3551196Y2570966D1*
X3549295Y2565218D1*
Y2561415D1*
X3551196Y2555667D1*
X3556945Y2551821D1*
X3566495Y2549919D1*
X3576046D1*
X3583695Y2551821D1*
X3587542Y2555667D1*
X3589443Y2561415D1*
Y2563317D1*
X3587542Y2569021D1*
X3583695Y2572867D1*
X3577947Y2574769D1*
X3576046D1*
X3570298Y2572867D1*
X3566495Y2569021D1*
X3564594Y2563317D1*
Y2561415D1*
X3566495Y2555667D1*
X3570298Y2551821D1*
X3576046Y2549919D1*
X3549251Y2793588D2*
X3589443D1*
Y2816536D1*
X3549251Y2853737D2*
Y2828887D1*
X3589443D1*
Y2853737D1*
X3568396Y2828887D2*
Y2844186D1*
X3549251Y2866088D2*
X3589443D1*
Y2879485D1*
X3587497Y2885233D1*
X3583695Y2889080D1*
X3579848Y2890981D1*
X3574144Y2892883D1*
X3564550D1*
X3558802Y2890981D1*
X3554999Y2889080D1*
X3551152Y2885233D1*
X3549251Y2879485D1*
Y2866088D1*
X3589443Y2912883D2*
X3549295Y2932029D1*
Y2905234D1*
X3549251Y3149898D2*
X3589443D1*
Y3172846D1*
X3549251Y3210046D2*
Y3185197D1*
X3589443D1*
Y3210046D1*
X3568396Y3185197D2*
Y3200496D1*
X3549251Y3222398D2*
X3589443Y3222397D1*
Y3235795D1*
X3587497Y3241543D1*
X3583695Y3245390D1*
X3579848Y3247291D1*
X3574144Y3249192D1*
X3564550D1*
X3558802Y3247291D1*
X3554999Y3245390D1*
X3551152Y3241543D1*
X3549251Y3235795D1*
Y3222398D1*
X3549295Y3271094D2*
X3551196Y3265390D1*
X3554999Y3263445D1*
X3558846D1*
X3562648Y3265390D1*
X3564594Y3269193D1*
X3566495Y3276842D1*
X3568396Y3282590D1*
X3572243Y3286393D1*
X3576046Y3288294D1*
X3581794D1*
X3585596Y3286393D1*
X3587542Y3284491D1*
X3589443Y3278743D1*
Y3271094D1*
X3587542Y3265390D1*
X3585596Y3263445D1*
X3581794Y3261544D1*
X3576046D1*
X3572243Y3263445D1*
X3568396Y3267292D1*
X3566495Y3272995D1*
X3564594Y3280645D1*
X3562648Y3284491D1*
X3558846Y3286393D1*
X3554999D1*
X3551196Y3284491D1*
X3549295Y3278743D1*
Y3271094D1*
X2363503Y716734D2*
Y756926D1*
X2348204Y716734D1*
X2332905Y756926D1*
Y716734D1*
X2387350Y756926D2*
X2383547Y755069D1*
X2379701Y751222D1*
X2377799Y747376D1*
X2375854Y741628D1*
Y732077D1*
X2377799Y726329D1*
X2379701Y722526D1*
X2383547Y718680D1*
X2387350Y716778D1*
X2394999D1*
X2398846Y718680D1*
X2402649Y722526D1*
X2404550Y726329D1*
X2406495Y732077D1*
Y741628D1*
X2404550Y747376D1*
X2402649Y751222D1*
X2398846Y755069D1*
X2394999Y756926D1*
X2387350D1*
X2393098Y724428D2*
X2404550Y712932D1*
X2432244Y756926D2*
Y716734D1*
X2418847Y756926D2*
X2445641D1*
X2471390D2*
Y716734D1*
X2457993Y756926D2*
X2484788D1*
X2906743Y1363390D2*
X2902940Y1361533D1*
X2899094Y1357686D1*
X2897192Y1353840D1*
X2895247Y1348092D1*
Y1338541D1*
X2897192Y1332793D1*
X2899094Y1328990D1*
X2902940Y1325144D1*
X2906743Y1323242D1*
X2914392D1*
X2918239Y1325144D1*
X2922042Y1328990D1*
X2923943Y1332793D1*
X2925888Y1338541D1*
Y1348092D1*
X2923943Y1353840D1*
X2922042Y1357686D1*
X2918239Y1361533D1*
X2914392Y1363390D1*
X2906743D1*
X2912491Y1330892D2*
X2923943Y1319396D1*
X2938240Y1355697D2*
X2942086Y1357642D1*
X2947834Y1363346D1*
Y1323198D1*
X3441042Y594079D2*
X3458242D1*
X3463990Y596025D1*
X3465935Y597926D1*
X3467836Y601728D1*
Y605575D1*
X3465935Y609378D1*
X3463990Y611323D1*
X3458242Y613224D1*
X3441042D1*
Y573032D1*
X3454439Y594079D2*
X3467836Y573032D1*
X3480188Y605531D2*
X3484034Y607476D1*
X3489783Y613180D1*
Y573032D1*
X3438692Y950366D2*
X3455892D1*
X3461640Y952312D1*
X3463586Y954213D1*
X3465487Y958016D1*
Y961862D1*
X3463586Y965665D1*
X3461640Y967611D1*
X3455892Y969512D1*
X3438692D1*
Y929320D1*
X3452090Y950366D2*
X3465487Y929320D1*
X3479784Y959917D2*
Y961818D1*
X3481685Y965665D1*
X3483586Y967566D1*
X3487433Y969468D1*
X3495083D1*
X3498885Y967566D1*
X3500786Y965665D1*
X3502732Y961818D1*
Y958016D1*
X3500786Y954169D1*
X3496984Y948465D1*
X3477838Y929320D1*
X3504633D1*
X3438692Y1300403D2*
X3455892D1*
X3461640Y1302349D1*
X3463586Y1304250D1*
X3465487Y1308052D1*
Y1311899D1*
X3463586Y1315702D1*
X3461640Y1317647D1*
X3455892Y1319549D1*
X3438692D1*
Y1279357D1*
X3452090Y1300403D2*
X3465487Y1279357D1*
X3481685Y1319504D2*
X3502688D1*
X3491236Y1304206D1*
X3496984D1*
X3500786Y1302304D1*
X3502688Y1300403D1*
X3504633Y1294655D1*
Y1290853D1*
X3502688Y1285105D1*
X3498885Y1281258D1*
X3493137Y1279357D1*
X3487389D1*
X3481685Y1281258D1*
X3479784Y1283203D1*
X3477838Y1287006D1*
X3431491Y1650440D2*
X3448691D1*
X3454439Y1652385D1*
X3456384Y1654287D1*
X3458286Y1658089D1*
Y1661936D1*
X3456384Y1665739D1*
X3454439Y1667684D1*
X3448691Y1669585D1*
X3431491D1*
Y1629393D1*
X3444888Y1650440D2*
X3458286Y1629393D1*
X3489783D2*
Y1669541D1*
X3470637Y1642791D1*
X3499333D1*
X3438692Y2012978D2*
X3455892D1*
X3461640Y2014923D1*
X3463586Y2016825D1*
X3465487Y2020627D1*
Y2024474D1*
X3463586Y2028277D1*
X3461640Y2030222D1*
X3455892Y2032123D1*
X3438692D1*
Y1991931D1*
X3452090Y2012978D2*
X3465487Y1991931D1*
X3500786Y2032079D2*
X3481685D1*
X3479784Y2014879D1*
X3481685Y2016781D1*
X3487433Y2018726D1*
X3493137D1*
X3498885Y2016781D1*
X3502732Y2012978D1*
X3504633Y2007230D1*
Y2003427D1*
X3502732Y1997679D1*
X3498885Y1993833D1*
X3493137Y1991931D1*
X3487433D1*
X3481685Y1993833D1*
X3479784Y1995778D1*
X3477838Y1999581D1*
X3445916Y2363015D2*
X3463116D1*
X3468864Y2364960D1*
X3470809Y2366861D1*
X3472710Y2370664D1*
Y2374511D1*
X3470809Y2378313D1*
X3468864Y2380259D1*
X3463116Y2382160D1*
X3445916D1*
Y2341968D1*
X3459313Y2363015D2*
X3472710Y2341968D1*
X3508010Y2376412D2*
X3506108Y2380215D1*
X3500360Y2382116D1*
X3496558D1*
X3490810Y2380215D1*
X3486963Y2374467D1*
X3485062Y2364916D1*
Y2355365D1*
X3486963Y2347716D1*
X3490810Y2343869D1*
X3496558Y2341968D1*
X3498459D1*
X3504163Y2343869D1*
X3508010Y2347716D1*
X3509911Y2353464D1*
Y2355365D1*
X3508010Y2361113D1*
X3504163Y2364916D1*
X3498459Y2366817D1*
X3496558D1*
X3490810Y2364916D1*
X3486963Y2361113D1*
X3485062Y2355365D1*
X3438692Y2713051D2*
X3455892D1*
X3461640Y2714997D1*
X3463586Y2716898D1*
X3465487Y2720701D1*
Y2724548D1*
X3463586Y2728350D1*
X3461640Y2730296D1*
X3455892Y2732197D1*
X3438692D1*
Y2692005D1*
X3452090Y2713051D2*
X3465487Y2692005D1*
X3485488D2*
X3504633Y2732153D1*
X3477838D1*
X3438714Y3075590D2*
X3455914D1*
X3461662Y3077535D1*
X3463608Y3079436D1*
X3465509Y3083239D1*
Y3087086D1*
X3463608Y3090888D1*
X3461662Y3092834D1*
X3455914Y3094735D1*
X3438714D1*
Y3054543D1*
X3452112Y3075590D2*
X3465509Y3054543D1*
X3487411Y3094691D2*
X3481707Y3092789D1*
X3479762Y3088987D1*
Y3085140D1*
X3481707Y3081338D1*
X3485510Y3079392D1*
X3493159Y3077491D1*
X3498907Y3075590D1*
X3502710Y3071743D1*
X3504611Y3067940D1*
Y3062192D1*
X3502710Y3058390D1*
X3500808Y3056444D1*
X3495060Y3054543D1*
X3487411D1*
X3481707Y3056444D1*
X3479762Y3058390D1*
X3477861Y3062192D1*
Y3067940D1*
X3479762Y3071743D1*
X3483609Y3075590D1*
X3489312Y3077491D1*
X3496962Y3079392D1*
X3500808Y3081338D1*
X3502710Y3085140D1*
Y3088987D1*
X3500808Y3092789D1*
X3495060Y3094691D1*
X3487411D1*
X1311096Y1256585D2*
X1328296D1*
X1334044Y1258531D1*
X1335990Y1260432D1*
X1337891Y1264235D1*
Y1268081D1*
X1335990Y1271884D1*
X1334044Y1273829D1*
X1328296Y1275731D1*
X1311096D1*
Y1235539D1*
X1324493Y1256585D2*
X1337891Y1235539D1*
X1350242Y1268037D2*
X1354089Y1269983D1*
X1359837Y1275686D1*
Y1235539D1*
X1372188Y1268037D2*
X1376035Y1269983D1*
X1381783Y1275686D1*
Y1235539D1*
X1766973Y456109D2*
X1766974Y473309D1*
X1765028Y479057D1*
X1763127Y481003D1*
X1759324Y482904D1*
X1755477D1*
X1751675Y481003D1*
X1749729Y479057D1*
X1747828Y473309D1*
Y456109D1*
X1788020D1*
X1766974Y469506D2*
X1788020Y482904D1*
X1755522Y495255D2*
X1753576Y499102D1*
X1747872Y504850D1*
X1788020D1*
X1757423Y519147D2*
X1755522D1*
X1751675Y521048D1*
X1749774Y522949D1*
X1747872Y526796D1*
Y534445D1*
X1749774Y538248D1*
X1751675Y540149D1*
X1755522Y542095D1*
X1759324D1*
X1763171Y540149D1*
X1768875Y536347D1*
X1788020Y517201D1*
Y543996D1*
X1303469Y1100319D2*
X1320669D1*
X1326417Y1102264D1*
X1328362Y1104166D1*
X1330264Y1107968D1*
Y1111815D1*
X1328362Y1115618D1*
X1326417Y1117563D1*
X1320669Y1119464D1*
X1303469D1*
Y1079272D1*
X1316866Y1100319D2*
X1330264Y1079272D1*
X1342615Y1111771D2*
X1346462Y1113716D1*
X1352210Y1119420D1*
Y1079272D1*
X1387509Y1113716D2*
X1385608Y1117519D1*
X1379860Y1119420D1*
X1376057D1*
X1370309Y1117519D1*
X1366462Y1111771D1*
X1364561Y1102220D1*
Y1092670D1*
X1366462Y1085020D1*
X1370309Y1081174D1*
X1376057Y1079272D1*
X1377959D1*
X1383662Y1081174D1*
X1387509Y1085020D1*
X1389410Y1090768D1*
Y1092670D1*
X1387509Y1098418D1*
X1383662Y1102220D1*
X1377959Y1104121D1*
X1376057D1*
X1370309Y1102220D1*
X1366462Y1098418D1*
X1364561Y1092670D1*
X3061859Y1525683D2*
X3079059D1*
X3084807Y1527628D1*
X3086752Y1529529D1*
X3088654Y1533332D1*
Y1537179D1*
X3086752Y1540981D1*
X3084807Y1542927D1*
X3079059Y1544828D1*
X3061859D1*
Y1504636D1*
X3075256Y1525683D2*
X3088654Y1504636D1*
X3102951Y1535233D2*
Y1537135D1*
X3104852Y1540981D1*
X3106753Y1542883D1*
X3110600Y1544784D1*
X3118249D1*
X3122052Y1542883D1*
X3123953Y1540981D1*
X3125898Y1537135D1*
Y1533332D1*
X3123953Y1529485D1*
X3120150Y1523781D1*
X3101005Y1504636D1*
X3127800D1*
X3159296D2*
Y1544784D1*
X3140151Y1518033D1*
X3168847D1*
X1859755Y437813D2*
X1876955D1*
X1882703Y439758D1*
X1884649Y441659D1*
X1886550Y445462D1*
Y449309D1*
X1884649Y453111D1*
X1882703Y455057D1*
X1876955Y456958D1*
X1859755D1*
Y416766D1*
X1873153Y437813D2*
X1886550Y416766D1*
X1898901Y449264D2*
X1902748Y451210D1*
X1908496Y456914D1*
Y416766D1*
X1945741Y443561D2*
X1943795Y437813D1*
X1939993Y433966D1*
X1934245Y432065D1*
X1932344D1*
X1926595Y433966D1*
X1922793Y437813D1*
X1920847Y443561D1*
Y445462D1*
X1922793Y451210D1*
X1926595Y455012D1*
X1932344Y456914D1*
X1934245D1*
X1939993Y455012D1*
X1943795Y451210D1*
X1945741Y443561D1*
Y433966D1*
X1943795Y424415D1*
X1939993Y418667D1*
X1934245Y416766D1*
X1930442D1*
X1924694Y418667D1*
X1922793Y422514D1*
X2012722Y437813D2*
X2029922D1*
X2035670Y439758D1*
X2037615Y441659D1*
X2039516Y445462D1*
Y449309D1*
X2037615Y453111D1*
X2035670Y455057D1*
X2029922Y456958D1*
X2012722D1*
Y416766D1*
X2026119Y437813D2*
X2039516Y416766D1*
X2053813Y447363D2*
Y449264D1*
X2055715Y453111D1*
X2057616Y455012D1*
X2061463Y456914D1*
X2069112D1*
X2072914Y455012D1*
X2074816Y453111D1*
X2076761Y449264D1*
Y445462D1*
X2074816Y441615D1*
X2071013Y435911D1*
X2051868Y416766D1*
X2078662D1*
X2094861Y456914D2*
X2115863D1*
X2104411Y441615D1*
X2110159D1*
X2113962Y439714D1*
X2115863Y437813D1*
X2117808Y432065D1*
Y428262D1*
X2115863Y422514D1*
X2112060Y418667D1*
X2106312Y416766D1*
X2100564D1*
X2094861Y418667D1*
X2092959Y420613D1*
X2091014Y424415D1*
X1426131Y284423D2*
X1443331D1*
X1449079Y286368D1*
X1451025Y288269D1*
X1452926Y292072D1*
Y295919D1*
X1451025Y299721D1*
X1449079Y301667D1*
X1443331Y303568D1*
X1426131D1*
Y263376D1*
X1439528Y284423D2*
X1452926Y263376D1*
X1492072Y297820D2*
X1488269Y301667D1*
X1482521Y303568D1*
X1474872D1*
X1469124Y301667D1*
X1465277Y297820D1*
Y294017D1*
X1467223Y290171D1*
X1469124Y288269D1*
X1472927Y286368D1*
X1484423Y282521D1*
X1488269Y280620D1*
X1490171Y278675D1*
X1492072Y274872D1*
Y269124D1*
X1488269Y265321D1*
X1482521Y263376D1*
X1474872D1*
X1469124Y265321D1*
X1465277Y269124D1*
X1517821Y303568D2*
Y263376D1*
X1504423Y303568D2*
X1531218D1*
X886176Y540340D2*
X882374Y544186D1*
X876626Y546088D1*
X868976D1*
X863228Y544186D1*
X859382Y540340D1*
Y536537D1*
X861327Y532690D1*
X863228Y530789D1*
X867031Y528888D1*
X878527Y525041D1*
X882374Y523140D1*
X884275Y521194D1*
X886176Y517392D1*
Y511644D1*
X882374Y507841D1*
X876626Y505896D1*
X868976D1*
X863228Y507841D1*
X859382Y511644D1*
X898528Y538394D2*
X902374Y540340D1*
X908122Y546043D1*
Y505896D1*
X1400745Y2773359D2*
Y2744663D1*
X1402646Y2738915D1*
X1406493Y2735112D1*
X1412241Y2733167D1*
X1416044D1*
X1421792Y2735112D1*
X1425638Y2738915D1*
X1427540Y2744663D1*
Y2773359D1*
X1439891Y2765665D2*
X1443738Y2767611D1*
X1449486Y2773314D1*
Y2733167D1*
X2617274Y2773359D2*
Y2744663D1*
X2619175Y2738915D1*
X2623022Y2735112D1*
X2628770Y2733167D1*
X2632572D1*
X2638320Y2735112D1*
X2642167Y2738915D1*
X2644068Y2744663D1*
Y2773359D1*
X2658365Y2763764D2*
Y2765665D1*
X2660267Y2769512D1*
X2662168Y2771413D1*
X2666015Y2773314D1*
X2673664D1*
X2677466Y2771413D1*
X2679368Y2769512D1*
X2681313Y2765665D1*
Y2761863D1*
X2679368Y2758016D1*
X2675565Y2752312D1*
X2656420Y2733167D1*
X2683214D1*
X2500698Y1810653D2*
Y1781957D1*
X2502599Y1776209D1*
X2506446Y1772407D1*
X2512194Y1770461D1*
X2515996D1*
X2521744Y1772407D1*
X2525591Y1776209D1*
X2527492Y1781957D1*
Y1810653D1*
X2543690Y1810609D2*
X2564693D1*
X2553241Y1795310D1*
X2558989D1*
X2562792Y1793409D1*
X2564693Y1791508D1*
X2566638Y1785760D1*
Y1781957D1*
X2564693Y1776209D1*
X2560890Y1772363D1*
X2555142Y1770461D1*
X2549394D1*
X2543690Y1772363D1*
X2541789Y1774308D1*
X2539844Y1778111D1*
X2811928Y991741D2*
Y963046D1*
X2813829Y957297D1*
X2817676Y953495D1*
X2823424Y951549D1*
X2827227D1*
X2832975Y953495D1*
X2836821Y957297D1*
X2838723Y963046D1*
Y991741D1*
X2870220Y951549D2*
Y991697D1*
X2851074Y964947D1*
X2879770D1*
X2358727Y969449D2*
X2368322Y929257D1*
X2377873Y969449D1*
X2387423Y929257D1*
X2397018Y969449D1*
X2409369D2*
Y929257D1*
X2446614Y969449D2*
X2421721D1*
Y929257D1*
Y950303D2*
X2437019D1*
X2458966Y969449D2*
Y929257D1*
X737192Y3263109D2*
X754392D1*
X760140Y3265055D1*
X762086Y3266956D1*
X763987Y3270759D1*
Y3274605D1*
X762086Y3278408D1*
X760140Y3280353D1*
X754392Y3282255D1*
X737192D1*
Y3242063D1*
X750590Y3263109D2*
X763987Y3242063D1*
X776339Y3274561D2*
X780185Y3276507D1*
X785933Y3282210D1*
Y3242063D1*
X809781Y3282210D2*
X804033Y3280309D1*
X800186Y3274561D1*
X798285Y3265010D1*
Y3259262D1*
X800186Y3249712D1*
X804033Y3243964D1*
X809781Y3242063D1*
X813583D1*
X819331Y3243964D1*
X823134Y3249712D1*
X825079Y3259262D1*
Y3265010D1*
X823134Y3274561D1*
X819331Y3280309D1*
X813583Y3282210D1*
X809781D1*
X823134Y3274561D2*
X800186Y3249712D1*
X837431Y3274561D2*
X841278Y3276507D1*
X847026Y3282210D1*
Y3242063D1*
X859377Y3235430D2*
X895722D1*
X908074Y3274561D2*
X911920Y3276507D1*
X917668Y3282210D1*
Y3242063D1*
X658562Y2888874D2*
Y2906073D1*
X656616Y2911821D1*
X654715Y2913767D1*
X650912Y2915668D1*
X647066D1*
X643263Y2913767D1*
X641318Y2911821D1*
X639416Y2906073D1*
Y2888874D1*
X679608D1*
X658562Y2902271D2*
X679608Y2915668D1*
X647110Y2928020D2*
X645164Y2931866D1*
X639461Y2937614D1*
X679608D1*
X639461Y2961462D2*
X641362Y2955714D1*
X647110Y2951867D1*
X656660Y2949966D1*
X662408D1*
X671959Y2951867D1*
X677707Y2955714D1*
X679608Y2961462D1*
Y2965264D1*
X677707Y2971012D1*
X671959Y2974815D1*
X662408Y2976760D1*
X656660D1*
X647110Y2974815D1*
X641362Y2971012D1*
X639461Y2965264D1*
Y2961462D1*
X647110Y2974815D2*
X671959Y2951867D1*
X649011Y2991057D2*
X647110D1*
X643263Y2992958D1*
X641362Y2994860D1*
X639461Y2998707D1*
Y3006356D1*
X641362Y3010158D1*
X643263Y3012060D1*
X647110Y3014005D1*
X650912D1*
X654759Y3012060D1*
X660463Y3008257D1*
X679608Y2989112D1*
Y3015906D1*
X686241Y3028258D2*
Y3064603D1*
X647110Y3076954D2*
X645164Y3080801D1*
X639461Y3086549D1*
X679608D1*
X571052Y2887923D2*
X571053Y2905123D1*
X569107Y2910871D1*
X567206Y2912816D1*
X563403Y2914718D1*
X559556D1*
X555754Y2912816D1*
X553808Y2910871D1*
X551907Y2905123D1*
Y2887923D1*
X592099D1*
X571053Y2901320D2*
X592099Y2914717D1*
X559601Y2927069D2*
X557655Y2930916D1*
X551951Y2936664D1*
X592099D1*
X551951Y2960511D2*
X553853Y2954763D1*
X559601Y2950916D1*
X569151Y2949015D1*
X574899D1*
X584450Y2950916D1*
X590198Y2954763D1*
X592099Y2960511D1*
Y2964314D1*
X590198Y2970062D1*
X584450Y2973864D1*
X574899Y2975810D1*
X569151D1*
X559601Y2973864D1*
X553853Y2970062D1*
X551951Y2964314D1*
Y2960511D1*
X559601Y2973864D2*
X584450Y2950916D1*
X592099Y3007306D2*
X551951D1*
X578702Y2988161D1*
Y3016857D1*
X598731Y3029208D2*
Y3065554D1*
X559601Y3077905D2*
X557655Y3081752D1*
X551951Y3087500D1*
X592099D1*
X568739Y3401530D2*
Y3418730D1*
X566793Y3424478D1*
X564892Y3426423D1*
X561090Y3428324D1*
X557243D1*
X553440Y3426423D1*
X551495Y3424478D1*
X549593Y3418730D1*
Y3401530D1*
X589785D1*
X568739Y3414927D2*
X589786Y3428324D1*
X557287Y3440676D2*
X555342Y3444522D1*
X549638Y3450270D1*
X589785D1*
X549638Y3474118D2*
X551539Y3468370D1*
X557287Y3464523D1*
X566838Y3462622D1*
X572586D1*
X582136Y3464523D1*
X587884Y3468370D1*
X589785Y3474118D1*
Y3477920D1*
X587884Y3483668D1*
X582136Y3487471D1*
X572586Y3489416D1*
X566838D1*
X557287Y3487471D1*
X551539Y3483668D1*
X549638Y3477920D1*
Y3474118D1*
X557287Y3487471D2*
X582136Y3464523D1*
X549638Y3524716D2*
Y3505615D1*
X566838Y3503713D1*
X564936Y3505615D1*
X562991Y3511363D1*
Y3517066D1*
X564936Y3522815D1*
X568739Y3526661D1*
X574487Y3528563D1*
X578289D1*
X584037Y3526661D1*
X587884Y3522815D1*
X589785Y3517066D1*
Y3511363D1*
X587884Y3505615D1*
X585939Y3503713D1*
X582136Y3501768D1*
X596418Y3540914D2*
Y3577259D1*
X557287Y3589611D2*
X555342Y3593457D1*
X549638Y3599205D1*
X589785D1*
X653943Y3598570D2*
X650140Y3602416D1*
X644392Y3604318D1*
X636743D1*
X630995Y3602416D1*
X627148Y3598570D1*
Y3594767D1*
X629094Y3590920D1*
X630995Y3589019D1*
X634798Y3587118D1*
X646294Y3583271D1*
X650140Y3581370D1*
X652042Y3579424D1*
X653943Y3575622D1*
Y3569874D1*
X650140Y3566071D1*
X644392Y3564126D1*
X636743D1*
X630995Y3566071D1*
X627148Y3569874D1*
X693089Y3598570D2*
X689286Y3602416D1*
X683538Y3604318D1*
X675889D1*
X670141Y3602416D1*
X666294Y3598570D1*
Y3594767D1*
X668240Y3590920D1*
X670141Y3589019D1*
X673944Y3587118D1*
X685440Y3583271D1*
X689286Y3581370D1*
X691188Y3579424D1*
X693089Y3575622D1*
Y3569874D1*
X689286Y3566071D1*
X683538Y3564126D1*
X675889D1*
X670141Y3566071D1*
X666294Y3569874D1*
X705440Y3585172D2*
X722640D1*
X728388Y3587118D1*
X730334Y3589019D1*
X732235Y3592821D1*
Y3596668D1*
X730334Y3600471D1*
X728388Y3602416D1*
X722640Y3604318D1*
X705440D1*
Y3564126D1*
X718838Y3585172D2*
X732235Y3564126D1*
X744587Y3557493D2*
X780932D1*
X793283Y3596624D2*
X797130Y3598570D1*
X802878Y3604273D1*
Y3564126D1*
X730225Y2931941D2*
X726423Y2930040D1*
X722576Y2926193D1*
X720675Y2922391D1*
Y2914741D1*
X722576Y2910895D1*
X726423Y2907092D1*
X730225Y2905147D1*
X735973Y2903245D1*
X745568D1*
X751272Y2905147D1*
X755119Y2907092D1*
X758921Y2910895D1*
X760867Y2914741D1*
Y2922391D1*
X758921Y2926193D1*
X755119Y2930040D1*
X751272Y2931941D1*
X760867Y2974890D2*
X720675D1*
X760867Y2959591D1*
X720675Y2944293D1*
X760867D1*
X720675Y2987241D2*
X760867D1*
Y3000639D1*
X758921Y3006387D1*
X755119Y3010233D1*
X751272Y3012135D1*
X745568Y3014036D1*
X735973D1*
X730225Y3012135D1*
X726423Y3010233D1*
X722576Y3006387D1*
X720675Y3000639D1*
Y2987241D1*
X767499Y3026387D2*
Y3062732D1*
X728368Y3075084D2*
X726423Y3078931D1*
X720719Y3084679D1*
X760867D1*
X827266Y2888874D2*
Y2906073D1*
X825321Y2911821D1*
X823419Y2913767D1*
X819617Y2915668D1*
X815770D1*
X811968Y2913767D1*
X810022Y2911821D1*
X808121Y2906073D1*
Y2888874D1*
X848313D1*
X827266Y2902271D2*
X848313Y2915668D1*
X815814Y2928020D2*
X813869Y2931866D1*
X808165Y2937614D1*
X848313D1*
X808165Y2961462D2*
X810066Y2955714D1*
X815814Y2951867D1*
X825365Y2949966D1*
X831113D1*
X840664Y2951867D1*
X846412Y2955714D1*
X848313Y2961462D1*
Y2965264D1*
X846412Y2971012D1*
X840663Y2974815D1*
X831113Y2976760D1*
X825365D1*
X815814Y2974815D1*
X810066Y2971012D1*
X808165Y2965264D1*
Y2961462D1*
X815814Y2974815D2*
X840664Y2951867D1*
X808165Y2992958D2*
Y3013961D1*
X823464Y3002509D1*
Y3008257D1*
X825365Y3012060D1*
X827266Y3013961D1*
X833014Y3015906D1*
X836817D1*
X842565Y3013961D1*
X846412Y3010158D1*
X848313Y3004410D1*
Y2998662D1*
X846412Y2992958D1*
X844466Y2991057D1*
X840663Y2989112D1*
X854945Y3028258D2*
Y3064603D1*
X815814Y3076954D2*
X813869Y3080801D1*
X808165Y3086549D1*
X848313D1*
X1084880Y3263109D2*
X1102080D1*
X1107828Y3265055D1*
X1109773Y3266956D1*
X1111675Y3270759D1*
Y3274605D1*
X1109773Y3278408D1*
X1107828Y3280353D1*
X1102080Y3282255D1*
X1084880D1*
Y3242063D1*
X1098277Y3263109D2*
X1111675Y3242063D1*
X1124026Y3274561D2*
X1127873Y3276507D1*
X1133621Y3282210D1*
Y3242063D1*
X1157468Y3282210D2*
X1151720Y3280309D1*
X1147873Y3274561D1*
X1145972Y3265010D1*
Y3259262D1*
X1147873Y3249712D1*
X1151720Y3243964D1*
X1157468Y3242063D1*
X1161271D1*
X1167019Y3243964D1*
X1170821Y3249712D1*
X1172767Y3259262D1*
Y3265010D1*
X1170821Y3274561D1*
X1167019Y3280309D1*
X1161271Y3282210D1*
X1157468D1*
X1170821Y3274561D2*
X1147873Y3249712D1*
X1185118Y3274561D2*
X1188965Y3276507D1*
X1194713Y3282210D1*
Y3242063D1*
X1207064Y3235430D2*
X1243410D1*
X1257707Y3272660D2*
Y3274561D1*
X1259608Y3278408D1*
X1261509Y3280309D1*
X1265356Y3282210D1*
X1273005D1*
X1276808Y3280309D1*
X1278709Y3278408D1*
X1280654Y3274561D1*
Y3270759D1*
X1278709Y3266912D1*
X1274906Y3261208D1*
X1255761Y3242063D1*
X1282556D1*
X1033538Y2880274D2*
Y2897473D1*
X1031592Y2903221D1*
X1029691Y2905167D1*
X1025889Y2907068D1*
X1022042D1*
X1018239Y2905167D1*
X1016294Y2903221D1*
X1014392Y2897473D1*
Y2880274D1*
X1054584D1*
X1033538Y2893671D2*
X1054584Y2907068D1*
X1022086Y2919420D2*
X1020141Y2923266D1*
X1014437Y2929014D1*
X1054584D1*
X1014437Y2952862D2*
X1016338Y2947114D1*
X1022086Y2943267D1*
X1031637Y2941366D1*
X1037385D1*
X1046935Y2943267D1*
X1052683Y2947114D1*
X1054584Y2952862D1*
Y2956664D1*
X1052683Y2962412D1*
X1046935Y2966215D1*
X1037385Y2968160D1*
X1031637D1*
X1022086Y2966215D1*
X1016338Y2962412D1*
X1014437Y2956664D1*
Y2952862D1*
X1022086Y2966215D2*
X1046935Y2943267D1*
X1023987Y2982457D2*
X1022086D1*
X1018239Y2984359D1*
X1016338Y2986260D1*
X1014437Y2990107D1*
Y2997756D1*
X1016338Y3001558D1*
X1018239Y3003460D1*
X1022086Y3005405D1*
X1025889D1*
X1029735Y3003460D1*
X1035439Y2999657D1*
X1054584Y2980512D1*
Y3007306D1*
X1061217Y3019658D2*
Y3056003D1*
X1023987Y3070300D2*
X1022086D1*
X1018239Y3072201D1*
X1016338Y3074103D1*
X1014437Y3077949D1*
Y3085599D1*
X1016338Y3089401D1*
X1018239Y3091302D1*
X1022086Y3093248D1*
X1025889D1*
X1029735Y3091302D1*
X1035439Y3087500D1*
X1054584Y3068354D1*
Y3095149D1*
X946092Y2879323D2*
Y2896523D1*
X944146Y2902271D1*
X942245Y2904216D1*
X938443Y2906118D1*
X934596D1*
X930793Y2904216D1*
X928848Y2902271D1*
X926947Y2896523D1*
X926946Y2879323D1*
X967138D1*
X946092Y2892720D2*
X967139Y2906118D1*
X934640Y2918469D2*
X932695Y2922316D1*
X926991Y2928064D1*
X967139D1*
X926991Y2951911D2*
X928892Y2946163D1*
X934640Y2942316D1*
X944191Y2940415D1*
X949939D1*
X959489Y2942316D1*
X965237Y2946163D1*
X967139Y2951911D1*
Y2955714D1*
X965237Y2961462D1*
X959489Y2965264D1*
X949939Y2967210D1*
X944191D1*
X934640Y2965264D1*
X928892Y2961462D1*
X926991Y2955714D1*
Y2951911D1*
X934640Y2965264D2*
X959489Y2942316D1*
X967138Y2998706D2*
X926991Y2998707D1*
X953741Y2979561D1*
Y3008257D1*
X973771Y3020608D2*
Y3056954D1*
X936541Y3071251D2*
X934640D1*
X930793Y3073152D1*
X928892Y3075053D1*
X926991Y3078900D1*
Y3086549D1*
X928892Y3090352D1*
X930793Y3092253D1*
X934640Y3094199D1*
X938443D1*
X942289Y3092253D1*
X947993Y3088450D1*
X967138Y3069305D1*
Y3096100D1*
X931274Y3386675D2*
Y3403875D1*
X929329Y3409623D1*
X927428Y3411569D1*
X923625Y3413470D1*
X919778D1*
X915976Y3411569D1*
X914030Y3409623D1*
X912129Y3403875D1*
Y3386675D1*
X952321D1*
X931274Y3400072D2*
X952321Y3413470D1*
X919822Y3425821D2*
X917877Y3429668D1*
X912173Y3435416D1*
X952321D1*
X912173Y3459263D2*
X914074Y3453515D1*
X919822Y3449669D1*
X929373Y3447767D1*
X935121D1*
X944672Y3449669D1*
X950420Y3453515D1*
X952321Y3459263D1*
Y3463066D1*
X950420Y3468814D1*
X944672Y3472616D1*
X935121Y3474562D1*
X929373D1*
X919822Y3472616D1*
X914074Y3468814D1*
X912173Y3463066D1*
Y3459263D1*
X919822Y3472616D2*
X944672Y3449669D1*
X912173Y3509861D2*
Y3490760D1*
X929373Y3488859D1*
X927472Y3490760D1*
X925526Y3496508D1*
Y3502212D1*
X927472Y3507960D1*
X931274Y3511807D1*
X937022Y3513708D1*
X940825D1*
X946573Y3511807D1*
X950420Y3507960D1*
X952321Y3502212D1*
Y3496508D1*
X950420Y3490760D1*
X948474Y3488859D1*
X944672Y3486913D1*
X958953Y3526059D2*
Y3562405D1*
X921724Y3576702D2*
X919822D1*
X915976Y3578603D1*
X914074Y3580504D1*
X912173Y3584351D1*
Y3592000D1*
X914074Y3595803D1*
X915976Y3597704D1*
X919822Y3599649D1*
X923625D1*
X927472Y3597704D1*
X933176Y3593901D1*
X952321Y3574756D1*
Y3601551D1*
X1014132Y3598570D2*
X1010329Y3602416D1*
X1004581Y3604318D1*
X996932D1*
X991184Y3602416D1*
X987337Y3598570D1*
Y3594767D1*
X989283Y3590920D1*
X991184Y3589019D1*
X994986Y3587118D1*
X1006482Y3583271D1*
X1010329Y3581370D1*
X1012230Y3579424D1*
X1014132Y3575622D1*
Y3569874D1*
X1010329Y3566071D1*
X1004581Y3564126D1*
X996932D1*
X991184Y3566071D1*
X987337Y3569874D1*
X1053278Y3598570D2*
X1049475Y3602416D1*
X1043727Y3604318D1*
X1036078D1*
X1030330Y3602416D1*
X1026483Y3598570D1*
Y3594767D1*
X1028429Y3590920D1*
X1030330Y3589019D1*
X1034132Y3587118D1*
X1045629Y3583271D1*
X1049475Y3581370D1*
X1051377Y3579424D1*
X1053278Y3575622D1*
Y3569874D1*
X1049475Y3566071D1*
X1043727Y3564126D1*
X1036078D1*
X1030330Y3566071D1*
X1026483Y3569874D1*
X1065629Y3585172D2*
X1082829D1*
X1088577Y3587118D1*
X1090523Y3589019D1*
X1092424Y3592821D1*
Y3596668D1*
X1090523Y3600471D1*
X1088577Y3602416D1*
X1082829Y3604318D1*
X1065629D1*
Y3564126D1*
X1079027Y3585172D2*
X1092424Y3564126D1*
X1104775Y3557493D2*
X1141121D1*
X1155417Y3594723D2*
Y3596624D1*
X1157319Y3600471D1*
X1159220Y3602372D1*
X1163067Y3604273D1*
X1170716D1*
X1174519Y3602372D1*
X1176420Y3600471D1*
X1178365Y3596624D1*
Y3592821D1*
X1176420Y3588975D1*
X1172617Y3583271D1*
X1153472Y3564126D1*
X1180267D1*
X1111515Y2923341D2*
X1107713Y2921440D1*
X1103866Y2917593D1*
X1101965Y2913791D1*
Y2906141D1*
X1103866Y2902295D1*
X1107713Y2898492D1*
X1111515Y2896547D1*
X1117263Y2894645D1*
X1126858D1*
X1132562Y2896547D1*
X1136409Y2898492D1*
X1140211Y2902295D1*
X1142157Y2906141D1*
Y2913791D1*
X1140211Y2917593D1*
X1136409Y2921440D1*
X1132562Y2923341D1*
X1142157Y2966290D2*
X1101965D1*
X1142157Y2950991D1*
X1101965Y2935693D1*
X1142157D1*
X1101965Y2978641D2*
X1142157D1*
Y2992039D1*
X1140211Y2997787D1*
X1136409Y3001633D1*
X1132562Y3003535D1*
X1126858Y3005436D1*
X1117263D1*
X1111515Y3003535D1*
X1107713Y3001633D1*
X1103866Y2997787D1*
X1101965Y2992039D1*
Y2978641D1*
X1148789Y3017787D2*
Y3054133D1*
X1111560Y3068429D2*
X1109658D1*
X1105812Y3070331D1*
X1103910Y3072232D1*
X1102009Y3076079D1*
Y3083728D1*
X1103910Y3087531D1*
X1105812Y3089432D1*
X1109658Y3091377D1*
X1113461D1*
X1117308Y3089432D1*
X1123012Y3085629D1*
X1142157Y3066484D1*
Y3093279D1*
X1208619Y2880274D2*
Y2897473D1*
X1206674Y2903221D1*
X1204773Y2905167D1*
X1200970Y2907068D1*
X1197123D1*
X1193321Y2905167D1*
X1191375Y2903221D1*
X1189474Y2897473D1*
Y2880274D1*
X1229666D1*
X1208619Y2893671D2*
X1229666Y2907068D1*
X1197168Y2919420D2*
X1195222Y2923266D1*
X1189518Y2929014D1*
X1229666D1*
X1189518Y2952862D2*
X1191420Y2947114D1*
X1197168Y2943267D1*
X1206718Y2941366D1*
X1212466D1*
X1222017Y2943267D1*
X1227765Y2947114D1*
X1229666Y2952862D1*
Y2956664D1*
X1227765Y2962412D1*
X1222017Y2966215D1*
X1212466Y2968160D1*
X1206718D1*
X1197168Y2966215D1*
X1191420Y2962412D1*
X1189518Y2956664D1*
Y2952862D1*
X1197168Y2966215D2*
X1222017Y2943267D1*
X1189518Y2984359D2*
Y3005361D1*
X1204817Y2993909D1*
Y2999657D1*
X1206718Y3003460D1*
X1208619Y3005361D1*
X1214367Y3007306D1*
X1218170D1*
X1223918Y3005361D1*
X1227765Y3001558D1*
X1229666Y2995810D1*
Y2990062D1*
X1227765Y2984359D1*
X1225819Y2982457D1*
X1222017Y2980512D1*
X1236298Y3019658D2*
Y3056003D1*
X1199069Y3070300D2*
X1197168D1*
X1193321Y3072201D1*
X1191420Y3074103D1*
X1189518Y3077949D1*
Y3085599D1*
X1191420Y3089401D1*
X1193321Y3091302D1*
X1197168Y3093248D1*
X1200970D1*
X1204817Y3091302D1*
X1210521Y3087500D1*
X1229666Y3068354D1*
Y3095149D1*
X1441167Y3263109D2*
X1458367D1*
X1464115Y3265055D1*
X1466061Y3266956D1*
X1467962Y3270759D1*
Y3274605D1*
X1466061Y3278408D1*
X1464115Y3280353D1*
X1458367Y3282255D1*
X1441167D1*
Y3242063D1*
X1454565Y3263109D2*
X1467962Y3242063D1*
X1480313Y3274561D2*
X1484160Y3276507D1*
X1489908Y3282210D1*
Y3242063D1*
X1513756Y3282210D2*
X1508008Y3280309D1*
X1504161Y3274561D1*
X1502260Y3265010D1*
Y3259262D1*
X1504161Y3249712D1*
X1508008Y3243964D1*
X1513756Y3242063D1*
X1517558D1*
X1523306Y3243964D1*
X1527109Y3249712D1*
X1529054Y3259262D1*
Y3265010D1*
X1527109Y3274561D1*
X1523306Y3280309D1*
X1517558Y3282210D1*
X1513756D1*
X1527109Y3274561D2*
X1504161Y3249712D1*
X1541406Y3274561D2*
X1545252Y3276507D1*
X1551000Y3282210D1*
Y3242063D1*
X1563352Y3235430D2*
X1599697D1*
X1615895Y3282210D2*
X1636898D1*
X1625446Y3266912D1*
X1631194D1*
X1634996Y3265010D1*
X1636898Y3263109D1*
X1638843Y3257361D1*
Y3253559D1*
X1636898Y3247811D1*
X1633095Y3243964D1*
X1627347Y3242063D1*
X1621599D1*
X1615895Y3243964D1*
X1613994Y3245909D1*
X1612048Y3249712D1*
X1389825Y2880274D2*
Y2897473D1*
X1387880Y2903221D1*
X1385978Y2905167D1*
X1382176Y2907068D1*
X1378329D1*
X1374527Y2905167D1*
X1372581Y2903221D1*
X1370680Y2897473D1*
Y2880274D1*
X1410872D1*
X1389825Y2893671D2*
X1410872Y2907068D1*
X1378373Y2919420D2*
X1376428Y2923266D1*
X1370724Y2929014D1*
X1410872D1*
X1370724Y2952862D2*
X1372625Y2947114D1*
X1378373Y2943267D1*
X1387924Y2941366D1*
X1393672D1*
X1403223Y2943267D1*
X1408971Y2947114D1*
X1410872Y2952862D1*
Y2956664D1*
X1408971Y2962412D1*
X1403223Y2966215D1*
X1393672Y2968160D1*
X1387924D1*
X1378373Y2966215D1*
X1372625Y2962412D1*
X1370724Y2956664D1*
Y2952862D1*
X1378373Y2966215D2*
X1403223Y2943267D1*
X1380275Y2982457D2*
X1378373D1*
X1374527Y2984359D1*
X1372625Y2986260D1*
X1370724Y2990107D1*
Y2997756D1*
X1372625Y3001558D1*
X1374527Y3003460D1*
X1378373Y3005405D1*
X1382176D1*
X1386023Y3003460D1*
X1391726Y2999657D1*
X1410872Y2980512D1*
Y3007306D1*
X1417504Y3019658D2*
Y3056003D1*
X1370724Y3072201D2*
Y3093204D1*
X1386023Y3081752D1*
Y3087500D1*
X1387924Y3091302D1*
X1389825Y3093204D1*
X1395573Y3095149D1*
X1399376D1*
X1405124Y3093204D1*
X1408971Y3089401D1*
X1410872Y3083653D1*
Y3077905D1*
X1408971Y3072201D1*
X1407025Y3070300D1*
X1403223Y3068354D1*
X1308630Y2873072D2*
Y2890272D1*
X1306684Y2896020D1*
X1304783Y2897966D1*
X1300981Y2899867D1*
X1297134D1*
X1293331Y2897966D1*
X1291386Y2896020D1*
X1289485Y2890272D1*
Y2873072D1*
X1329677D1*
X1308630Y2886470D2*
X1329677Y2899867D1*
X1297178Y2912218D2*
X1295233Y2916065D1*
X1289529Y2921813D1*
X1329677D1*
X1289529Y2945661D2*
X1291430Y2939912D1*
X1297178Y2936066D1*
X1306729Y2934164D1*
X1312477D1*
X1322027Y2936066D1*
X1327775Y2939912D1*
X1329677Y2945660D1*
Y2949463D1*
X1327775Y2955211D1*
X1322027Y2959014D1*
X1312477Y2960959D1*
X1306729D1*
X1297178Y2959014D1*
X1291430Y2955211D1*
X1289529Y2949463D1*
Y2945661D1*
X1297178Y2959014D2*
X1322027Y2936066D1*
X1329677Y2992456D2*
X1289529D1*
X1316279Y2973310D1*
Y3002006D1*
X1336309Y3014358D2*
Y3050703D1*
X1289529Y3066901D2*
Y3087904D1*
X1304827Y3076452D1*
Y3082200D1*
X1306729Y3086002D1*
X1308630Y3087904D1*
X1314378Y3089849D1*
X1318180D1*
X1323929Y3087904D1*
X1327775Y3084101D1*
X1329677Y3078353D1*
Y3072605D1*
X1327775Y3066901D1*
X1325830Y3065000D1*
X1322027Y3063054D1*
X1287564Y3386679D2*
Y3403879D1*
X1285619Y3409627D1*
X1283718Y3411572D1*
X1279915Y3413474D1*
X1276068D1*
X1272266Y3411572D1*
X1270320Y3409627D1*
X1268419Y3403879D1*
Y3386679D1*
X1308611D1*
X1287564Y3400076D2*
X1308611Y3413474D1*
X1276112Y3425825D2*
X1274167Y3429672D1*
X1268463Y3435420D1*
X1308611D1*
X1268463Y3459267D2*
X1270364Y3453519D1*
X1276112Y3449673D1*
X1285663Y3447771D1*
X1291411D1*
X1300962Y3449672D1*
X1306710Y3453519D1*
X1308611Y3459267D1*
Y3463070D1*
X1306710Y3468818D1*
X1300962Y3472620D1*
X1291411Y3474566D1*
X1285663D1*
X1276112Y3472620D1*
X1270364Y3468818D1*
X1268463Y3463070D1*
Y3459267D1*
X1276112Y3472620D2*
X1300962Y3449672D1*
X1268463Y3509865D2*
Y3490764D1*
X1285663Y3488863D1*
X1283762Y3490764D1*
X1281816Y3496512D1*
Y3502216D1*
X1283762Y3507964D1*
X1287564Y3511811D1*
X1293312Y3513712D1*
X1297115D1*
X1302863Y3511811D1*
X1306710Y3507964D1*
X1308611Y3502216D1*
Y3496512D1*
X1306710Y3490764D1*
X1304764Y3488863D1*
X1300962Y3486917D1*
X1315243Y3526063D2*
Y3562409D1*
X1268463Y3578607D2*
Y3599609D1*
X1283762Y3588157D1*
Y3593905D1*
X1285663Y3597708D1*
X1287564Y3599609D1*
X1293312Y3601555D1*
X1297115D1*
X1302863Y3599609D1*
X1306710Y3595807D1*
X1308611Y3590059D1*
Y3584311D1*
X1306710Y3578607D1*
X1304764Y3576705D1*
X1300962Y3574760D1*
X1364168Y3598570D2*
X1360366Y3602416D1*
X1354618Y3604318D1*
X1346969D1*
X1341221Y3602416D1*
X1337374Y3598570D1*
Y3594767D1*
X1339319Y3590920D1*
X1341221Y3589019D1*
X1345023Y3587118D1*
X1356519Y3583271D1*
X1360366Y3581370D1*
X1362267Y3579424D1*
X1364168Y3575622D1*
Y3569874D1*
X1360366Y3566071D1*
X1354618Y3564126D1*
X1346969D1*
X1341221Y3566071D1*
X1337374Y3569874D1*
X1403315Y3598570D2*
X1399512Y3602416D1*
X1393764Y3604318D1*
X1386115D1*
X1380367Y3602416D1*
X1376520Y3598570D1*
Y3594767D1*
X1378465Y3590920D1*
X1380367Y3589019D1*
X1384169Y3587118D1*
X1395665Y3583271D1*
X1399512Y3581370D1*
X1401413Y3579424D1*
X1403315Y3575622D1*
Y3569874D1*
X1399512Y3566071D1*
X1393764Y3564126D1*
X1386115D1*
X1380367Y3566071D1*
X1376520Y3569874D1*
X1415666Y3585172D2*
X1432866D1*
X1438614Y3587118D1*
X1440559Y3589019D1*
X1442461Y3592821D1*
Y3596668D1*
X1440559Y3600471D1*
X1438614Y3602416D1*
X1432866Y3604318D1*
X1415666D1*
Y3564126D1*
X1429063Y3585172D2*
X1442461Y3564126D1*
X1454812Y3557493D2*
X1491157D1*
X1507355Y3604273D2*
X1528358D1*
X1516906Y3588975D1*
X1522654D1*
X1526457Y3587073D1*
X1528358Y3585172D1*
X1530303Y3579424D1*
Y3575622D1*
X1528358Y3569874D1*
X1524555Y3566027D1*
X1518807Y3564126D1*
X1513059D1*
X1507355Y3566027D1*
X1505454Y3567972D1*
X1503509Y3571775D1*
X1467803Y2923341D2*
X1464000Y2921440D1*
X1460154Y2917593D1*
X1458252Y2913791D1*
Y2906141D1*
X1460154Y2902295D1*
X1464000Y2898492D1*
X1467803Y2896547D1*
X1473551Y2894645D1*
X1483146D1*
X1488849Y2896547D1*
X1492696Y2898492D1*
X1496499Y2902295D1*
X1498444Y2906141D1*
Y2913791D1*
X1496499Y2917593D1*
X1492696Y2921440D1*
X1488850Y2923341D1*
X1498444Y2966290D2*
X1458252D1*
X1498444Y2950991D1*
X1458252Y2935693D1*
X1498444D1*
X1458252Y2978641D2*
X1498444D1*
Y2992039D1*
X1496499Y2997787D1*
X1492696Y3001633D1*
X1488849Y3003535D1*
X1483146Y3005436D1*
X1473551D1*
X1467803Y3003535D1*
X1464000Y3001633D1*
X1460154Y2997787D1*
X1458252Y2992039D1*
Y2978641D1*
X1505077Y3017787D2*
Y3054133D1*
X1458297Y3070331D2*
X1458296Y3091333D1*
X1473595Y3079881D1*
Y3085629D1*
X1475496Y3089432D1*
X1477398Y3091333D1*
X1483146Y3093279D1*
X1486948D1*
X1492696Y3091333D1*
X1496543Y3087531D1*
X1498444Y3081783D1*
Y3076035D1*
X1496543Y3070331D1*
X1494598Y3068429D1*
X1490795Y3066484D1*
X1564907Y2880274D2*
Y2897473D1*
X1562961Y2903221D1*
X1561060Y2905167D1*
X1557258Y2907068D1*
X1553411D1*
X1549608Y2905167D1*
X1547663Y2903221D1*
X1545761Y2897473D1*
Y2880274D1*
X1585953D1*
X1564907Y2893671D2*
X1585953Y2907068D1*
X1553455Y2919420D2*
X1551510Y2923266D1*
X1545806Y2929014D1*
X1585953D1*
X1545806Y2952862D2*
X1547707Y2947114D1*
X1553455Y2943267D1*
X1563006Y2941366D1*
X1568754D1*
X1578304Y2943267D1*
X1584052Y2947114D1*
X1585953Y2952862D1*
Y2956664D1*
X1584052Y2962412D1*
X1578304Y2966215D1*
X1568754Y2968160D1*
X1563006D1*
X1553455Y2966215D1*
X1547707Y2962412D1*
X1545806Y2956664D1*
Y2952862D1*
X1553455Y2966215D2*
X1578304Y2943267D1*
X1545806Y2984359D2*
Y3005361D1*
X1561104Y2993909D1*
Y2999657D1*
X1563006Y3003460D1*
X1564907Y3005361D1*
X1570655Y3007306D1*
X1574457D1*
X1580205Y3005361D1*
X1584052Y3001558D1*
X1585953Y2995810D1*
Y2990062D1*
X1584052Y2984359D1*
X1582107Y2982457D1*
X1578304Y2980512D1*
X1592586Y3019658D2*
Y3056003D1*
X1545806Y3072201D2*
Y3093204D1*
X1561104Y3081752D1*
Y3087500D1*
X1563006Y3091302D1*
X1564907Y3093204D1*
X1570655Y3095149D1*
X1574457D1*
X1580205Y3093204D1*
X1584052Y3089401D1*
X1585953Y3083653D1*
Y3077905D1*
X1584052Y3072201D1*
X1582107Y3070300D1*
X1578304Y3068354D1*
X1796504Y3263109D2*
X1813704D1*
X1819452Y3265055D1*
X1821398Y3266956D1*
X1823299Y3270759D1*
Y3274605D1*
X1821398Y3278408D1*
X1819452Y3280353D1*
X1813704Y3282255D1*
X1796504D1*
Y3242063D1*
X1809901Y3263109D2*
X1823299Y3242063D1*
X1835650Y3274561D2*
X1839497Y3276507D1*
X1845245Y3282210D1*
Y3242063D1*
X1869092Y3282210D2*
X1863344Y3280309D1*
X1859498Y3274561D1*
X1857596Y3265010D1*
Y3259262D1*
X1859498Y3249712D1*
X1863344Y3243964D1*
X1869092Y3242063D1*
X1872895D1*
X1878643Y3243964D1*
X1882446Y3249712D1*
X1884391Y3259262D1*
Y3265010D1*
X1882446Y3274561D1*
X1878643Y3280309D1*
X1872895Y3282210D1*
X1869092D1*
X1882446Y3274561D2*
X1859498Y3249712D1*
X1896742Y3274561D2*
X1900589Y3276507D1*
X1906337Y3282210D1*
Y3242063D1*
X1918689Y3235430D2*
X1955034D1*
X1986531Y3242063D2*
Y3282210D1*
X1967385Y3255460D1*
X1996081D1*
X1746113Y2879323D2*
Y2896523D1*
X1744167Y2902271D1*
X1742266Y2904216D1*
X1738463Y2906118D1*
X1734617D1*
X1730814Y2904216D1*
X1728869Y2902271D1*
X1726967Y2896523D1*
Y2879323D1*
X1767159D1*
X1746113Y2892720D2*
X1767159Y2906118D1*
X1734661Y2918469D2*
X1732715Y2922316D1*
X1727011Y2928064D1*
X1767159D1*
X1727011Y2951911D2*
X1728913Y2946163D1*
X1734661Y2942316D1*
X1744211Y2940415D1*
X1749959D1*
X1759510Y2942316D1*
X1765258Y2946163D1*
X1767159Y2951911D1*
Y2955714D1*
X1765258Y2961462D1*
X1759510Y2965264D1*
X1749959Y2967210D1*
X1744211D1*
X1734661Y2965264D1*
X1728913Y2961462D1*
X1727011Y2955714D1*
Y2951911D1*
X1734661Y2965264D2*
X1759510Y2942316D1*
X1736562Y2981507D2*
X1734661D1*
X1730814Y2983408D1*
X1728913Y2985309D1*
X1727011Y2989156D1*
Y2996805D1*
X1728913Y3000608D1*
X1730814Y3002509D1*
X1734661Y3004455D1*
X1738463D1*
X1742310Y3002509D1*
X1748014Y2998706D1*
X1767159Y2979561D1*
Y3006356D1*
X1773792Y3018707D2*
Y3055052D1*
X1767159Y3086549D2*
X1727011D1*
X1753762Y3067404D1*
Y3096100D1*
X1664917Y2878372D2*
Y2895572D1*
X1662972Y2901320D1*
X1661071Y2903266D1*
X1657268Y2905167D1*
X1653421D1*
X1649619Y2903266D1*
X1647673Y2901320D1*
X1645772Y2895572D1*
Y2878372D1*
X1685964D1*
X1664917Y2891770D2*
X1685964Y2905167D1*
X1653466Y2917518D2*
X1651520Y2921365D1*
X1645816Y2927113D1*
X1685964D1*
X1645816Y2950961D2*
X1647717Y2945213D1*
X1653466Y2941366D1*
X1663016Y2939464D1*
X1668764D1*
X1678315Y2941366D1*
X1684063Y2945212D1*
X1685964Y2950960D1*
Y2954763D1*
X1684063Y2960511D1*
X1678315Y2964314D1*
X1668764Y2966259D1*
X1663016D1*
X1653466Y2964314D1*
X1647717Y2960511D1*
X1645816Y2954763D1*
Y2950961D1*
X1653466Y2964314D2*
X1678315Y2941366D1*
X1685964Y2997756D2*
X1645816D1*
X1672567Y2978610D1*
Y3007306D1*
X1692596Y3019658D2*
Y3056003D1*
X1685964Y3087500D2*
X1645816D1*
X1672567Y3068354D1*
Y3097050D1*
X1650102Y3379478D2*
Y3396678D1*
X1648157Y3402426D1*
X1646256Y3404371D1*
X1642453Y3406272D1*
X1638606D1*
X1634804Y3404371D1*
X1632858Y3402426D1*
X1630957Y3396678D1*
Y3379478D1*
X1671149D1*
X1650102Y3392875D2*
X1671149Y3406272D1*
X1638651Y3418624D2*
X1636705Y3422471D1*
X1631001Y3428219D1*
X1671149D1*
X1631001Y3452066D2*
X1632903Y3446318D1*
X1638651Y3442471D1*
X1648201Y3440570D1*
X1653949D1*
X1663500Y3442471D1*
X1669248Y3446318D1*
X1671149Y3452066D1*
Y3455869D1*
X1669248Y3461617D1*
X1663500Y3465419D1*
X1653949Y3467365D1*
X1648201D1*
X1638651Y3465419D1*
X1632903Y3461617D1*
X1631001Y3455869D1*
Y3452066D1*
X1638651Y3465419D2*
X1663500Y3442471D1*
X1631001Y3502664D2*
Y3483563D1*
X1648201Y3481661D1*
X1646300Y3483563D1*
X1644354Y3489311D1*
Y3495015D1*
X1646300Y3500763D1*
X1650102Y3504609D1*
X1655850Y3506511D1*
X1659653D1*
X1665401Y3504609D1*
X1669248Y3500763D1*
X1671149Y3495015D1*
Y3489311D1*
X1669248Y3483563D1*
X1667302Y3481661D1*
X1663500Y3479716D1*
X1677781Y3518862D2*
Y3555207D1*
X1671149Y3586704D2*
X1631001D1*
X1657752Y3567559D1*
Y3596255D1*
X1725756Y3598570D2*
X1721953Y3602416D1*
X1716205Y3604318D1*
X1708556D1*
X1702808Y3602416D1*
X1698961Y3598570D1*
Y3594767D1*
X1700907Y3590920D1*
X1702808Y3589019D1*
X1706611Y3587118D1*
X1718107Y3583271D1*
X1721953Y3581370D1*
X1723855Y3579424D1*
X1725756Y3575622D1*
Y3569874D1*
X1721953Y3566071D1*
X1716205Y3564126D1*
X1708556D1*
X1702808Y3566071D1*
X1698961Y3569874D1*
X1764902Y3598570D2*
X1761099Y3602416D1*
X1755351Y3604318D1*
X1747702D1*
X1741954Y3602416D1*
X1738107Y3598570D1*
Y3594767D1*
X1740053Y3590920D1*
X1741954Y3589019D1*
X1745757Y3587118D1*
X1757253Y3583271D1*
X1761099Y3581370D1*
X1763001Y3579424D1*
X1764902Y3575622D1*
Y3569874D1*
X1761099Y3566071D1*
X1755351Y3564126D1*
X1747702D1*
X1741954Y3566071D1*
X1738107Y3569874D1*
X1777253Y3585172D2*
X1794453D1*
X1800201Y3587118D1*
X1802147Y3589019D1*
X1804048Y3592821D1*
Y3596668D1*
X1802147Y3600471D1*
X1800201Y3602416D1*
X1794453Y3604318D1*
X1777253D1*
Y3564126D1*
X1790651Y3585172D2*
X1804048Y3564126D1*
X1816399Y3557493D2*
X1852745D1*
X1884241Y3564126D2*
Y3604273D1*
X1865096Y3577523D1*
X1893792D1*
X1817840Y2922391D2*
X1814037Y2920489D1*
X1810190Y2916643D1*
X1808289Y2912840D1*
Y2905191D1*
X1810190Y2901344D1*
X1814037Y2897542D1*
X1817840Y2895596D1*
X1823588Y2893695D1*
X1833182D1*
X1838886Y2895596D1*
X1842733Y2897542D1*
X1846536Y2901344D1*
X1848481Y2905191D1*
Y2912840D1*
X1846536Y2916643D1*
X1842733Y2920489D1*
X1838886Y2922391D1*
X1848481Y2965339D2*
X1808289D1*
X1848481Y2950041D1*
X1808289Y2934742D1*
X1848481D1*
X1808289Y2977691D2*
X1848481D1*
Y2991088D1*
X1846536Y2996836D1*
X1842733Y3000683D1*
X1838886Y3002584D1*
X1833182Y3004485D1*
X1823588D1*
X1817840Y3002584D1*
X1814037Y3000683D1*
X1810190Y2996836D1*
X1808289Y2991088D1*
Y2977691D1*
X1855113Y3016837D2*
Y3053182D1*
X1848481Y3084679D2*
X1808333D1*
X1835084Y3065533D1*
Y3094229D1*
X1908693Y2879323D2*
Y2896523D1*
X1906747Y2902271D1*
X1904846Y2904216D1*
X1901044Y2906118D1*
X1897197D1*
X1893394Y2904216D1*
X1891449Y2902271D1*
X1889548Y2896523D1*
Y2879323D1*
X1929740D1*
X1908693Y2892720D2*
X1929740Y2906118D1*
X1897241Y2918469D2*
X1895296Y2922316D1*
X1889592Y2928064D1*
X1929740D1*
X1889592Y2951911D2*
X1891493Y2946163D1*
X1897241Y2942316D1*
X1906792Y2940415D1*
X1912540D1*
X1922090Y2942316D1*
X1927838Y2946163D1*
X1929740Y2951911D1*
Y2955714D1*
X1927838Y2961462D1*
X1922090Y2965264D1*
X1912540Y2967210D1*
X1906792D1*
X1897241Y2965264D1*
X1891493Y2961462D1*
X1889592Y2955714D1*
Y2951911D1*
X1897241Y2965264D2*
X1922090Y2942316D1*
X1889592Y2983408D2*
Y3004410D1*
X1904890Y2992958D1*
Y2998707D1*
X1906792Y3002509D1*
X1908693Y3004410D1*
X1914441Y3006356D1*
X1918243D1*
X1923992Y3004410D1*
X1927838Y3000608D1*
X1929740Y2994860D1*
Y2989112D1*
X1927838Y2983408D1*
X1925893Y2981507D1*
X1922090Y2979561D1*
X1936372Y3018707D2*
Y3055052D1*
X1929740Y3086549D2*
X1889592D1*
X1916342Y3067404D1*
Y3096100D1*
X2153742Y3263109D2*
X2170942D1*
X2176690Y3265055D1*
X2178636Y3266956D1*
X2180537Y3270759D1*
Y3274605D1*
X2178636Y3278408D1*
X2176690Y3280353D1*
X2170942Y3282255D1*
X2153742D1*
Y3242063D1*
X2167139Y3263109D2*
X2180537Y3242063D1*
X2192888Y3274561D2*
X2196735Y3276507D1*
X2202483Y3282210D1*
Y3242063D1*
X2226330Y3282210D2*
X2220582Y3280309D1*
X2216736Y3274561D1*
X2214834Y3265010D1*
Y3259262D1*
X2216736Y3249712D1*
X2220582Y3243964D1*
X2226330Y3242063D1*
X2230133D1*
X2235881Y3243964D1*
X2239684Y3249712D1*
X2241629Y3259262D1*
Y3265010D1*
X2239684Y3274561D1*
X2235881Y3280309D1*
X2230133Y3282210D1*
X2226330D1*
X2239684Y3274561D2*
X2216736Y3249712D1*
X2253980Y3274561D2*
X2257827Y3276507D1*
X2263575Y3282210D1*
Y3242063D1*
X2275927Y3235430D2*
X2312272D1*
X2347571Y3282210D2*
X2328470D1*
X2326569Y3265010D1*
X2328470Y3266912D1*
X2334218Y3268857D1*
X2339922D1*
X2345670Y3266912D1*
X2349517Y3263109D1*
X2351418Y3257361D1*
Y3253559D1*
X2349517Y3247811D1*
X2345670Y3243964D1*
X2339922Y3242063D1*
X2334218D1*
X2328470Y3243964D1*
X2326569Y3245909D1*
X2324623Y3249712D1*
X2096149Y2880274D2*
Y2897473D1*
X2094204Y2903221D1*
X2092303Y2905167D1*
X2088500Y2907068D1*
X2084653D1*
X2080851Y2905167D1*
X2078905Y2903221D1*
X2077004Y2897473D1*
Y2880274D1*
X2117196D1*
X2096149Y2893671D2*
X2117196Y2907068D1*
X2084698Y2919420D2*
X2082752Y2923266D1*
X2077048Y2929014D1*
X2117196D1*
X2077048Y2952862D2*
X2078950Y2947114D1*
X2084698Y2943267D1*
X2094248Y2941366D1*
X2099996D1*
X2109547Y2943267D1*
X2115295Y2947114D1*
X2117196Y2952862D1*
Y2956664D1*
X2115295Y2962412D1*
X2109547Y2966215D1*
X2099996Y2968160D1*
X2094248D1*
X2084698Y2966215D1*
X2078950Y2962412D1*
X2077048Y2956664D1*
Y2952862D1*
X2084698Y2966215D2*
X2109547Y2943267D1*
X2086599Y2982457D2*
X2084698D1*
X2080851Y2984359D1*
X2078950Y2986260D1*
X2077048Y2990107D1*
Y2997756D1*
X2078949Y3001558D1*
X2080851Y3003460D1*
X2084698Y3005405D1*
X2088500D1*
X2092347Y3003460D1*
X2098051Y2999657D1*
X2117196Y2980512D1*
Y3007306D1*
X2123828Y3019658D2*
Y3056003D1*
X2077048Y3091302D2*
Y3072201D1*
X2094248Y3070300D1*
X2092347Y3072201D1*
X2090401Y3077949D1*
Y3083653D1*
X2092347Y3089401D1*
X2096149Y3093248D1*
X2101897Y3095149D1*
X2105700D1*
X2111448Y3093248D1*
X2115295Y3089401D1*
X2117196Y3083653D1*
Y3077949D1*
X2115295Y3072201D1*
X2113349Y3070300D1*
X2109547Y3068354D1*
X2014954Y2879323D2*
Y2896523D1*
X2013009Y2902271D1*
X2011107Y2904216D1*
X2007305Y2906118D1*
X2003458D1*
X1999655Y2904216D1*
X1997710Y2902271D1*
X1995809Y2896523D1*
Y2879323D1*
X2036001D1*
X2014954Y2892720D2*
X2036001Y2906118D1*
X2003502Y2918469D2*
X2001557Y2922316D1*
X1995853Y2928064D1*
X2036001D1*
X1995853Y2951911D2*
X1997754Y2946163D1*
X2003502Y2942316D1*
X2013053Y2940415D1*
X2018801D1*
X2028351Y2942316D1*
X2034099Y2946163D1*
X2036001Y2951911D1*
Y2955714D1*
X2034099Y2961462D1*
X2028351Y2965264D1*
X2018801Y2967210D1*
X2013053D1*
X2003502Y2965264D1*
X1997754Y2961462D1*
X1995853Y2955714D1*
Y2951911D1*
X2003502Y2965264D2*
X2028351Y2942316D1*
X2036001Y2998706D2*
X1995853Y2998707D1*
X2022603Y2979561D1*
Y3008257D1*
X2042633Y3020608D2*
Y3056954D1*
X1995853Y3092253D2*
Y3073152D1*
X2013053Y3071251D1*
X2011152Y3073152D1*
X2009206Y3078900D1*
Y3084604D1*
X2011152Y3090352D1*
X2014954Y3094199D1*
X2020702Y3096100D1*
X2024505D1*
X2030253Y3094199D1*
X2034099Y3090352D1*
X2036001Y3084604D1*
Y3078900D1*
X2034099Y3073152D1*
X2032154Y3071251D1*
X2028351Y3069305D1*
X2006390Y3380428D2*
Y3397628D1*
X2004444Y3403376D1*
X2002543Y3405322D1*
X1998740Y3407223D1*
X1994894D1*
X1991091Y3405322D1*
X1989146Y3403376D1*
X1987244Y3397628D1*
Y3380428D1*
X2027436D1*
X2006390Y3393826D2*
X2027436Y3407223D1*
X1994938Y3419574D2*
X1992992Y3423421D1*
X1987289Y3429169D1*
X2027436D1*
X1987289Y3453017D2*
X1989190Y3447269D1*
X1994938Y3443422D1*
X2004489Y3441521D1*
X2010237D1*
X2019787Y3443422D1*
X2025535Y3447269D1*
X2027436Y3453017D1*
Y3456819D1*
X2025535Y3462567D1*
X2019787Y3466370D1*
X2010237Y3468315D1*
X2004489D1*
X1994938Y3466370D1*
X1989190Y3462567D1*
X1987289Y3456819D1*
Y3453017D1*
X1994938Y3466370D2*
X2019787Y3443422D1*
X1987289Y3503615D2*
Y3484513D1*
X2004489Y3482612D1*
X2002587Y3484513D1*
X2000642Y3490261D1*
Y3495965D1*
X2002587Y3501713D1*
X2006390Y3505560D1*
X2012138Y3507461D1*
X2015940D1*
X2021688Y3505560D1*
X2025535Y3501713D1*
X2027436Y3495965D1*
Y3490261D1*
X2025535Y3484513D1*
X2023590Y3482612D1*
X2019787Y3480667D1*
X2034069Y3519813D2*
Y3556158D1*
X1987289Y3591457D2*
Y3572356D1*
X2004488Y3570455D1*
X2002587Y3572356D1*
X2000642Y3578104D1*
Y3583808D1*
X2002587Y3589556D1*
X2006390Y3593403D1*
X2012138Y3595304D1*
X2015940D1*
X2021688Y3593403D1*
X2025535Y3589556D1*
X2027436Y3583808D1*
Y3578104D1*
X2025535Y3572356D1*
X2023590Y3570455D1*
X2019787Y3568509D1*
X2082994Y3598570D2*
X2079191Y3602416D1*
X2073443Y3604318D1*
X2065794D1*
X2060046Y3602416D1*
X2056199Y3598570D1*
Y3594767D1*
X2058145Y3590920D1*
X2060046Y3589019D1*
X2063849Y3587118D1*
X2075345Y3583271D1*
X2079191Y3581370D1*
X2081093Y3579424D1*
X2082994Y3575622D1*
Y3569874D1*
X2079191Y3566071D1*
X2073443Y3564126D1*
X2065794D1*
X2060046Y3566071D1*
X2056199Y3569874D1*
X2122140Y3598570D2*
X2118337Y3602416D1*
X2112589Y3604318D1*
X2104940D1*
X2099192Y3602416D1*
X2095345Y3598570D1*
Y3594767D1*
X2097291Y3590920D1*
X2099192Y3589019D1*
X2102995Y3587118D1*
X2114491Y3583271D1*
X2118337Y3581370D1*
X2120239Y3579424D1*
X2122140Y3575622D1*
Y3569874D1*
X2118337Y3566071D1*
X2112589Y3564126D1*
X2104940D1*
X2099192Y3566071D1*
X2095345Y3569874D1*
X2134491Y3585172D2*
X2151691D1*
X2157439Y3587118D1*
X2159385Y3589019D1*
X2161286Y3592821D1*
Y3596668D1*
X2159385Y3600471D1*
X2157439Y3602416D1*
X2151691Y3604318D1*
X2134491D1*
Y3564126D1*
X2147889Y3585172D2*
X2161286Y3564126D1*
X2173637Y3557493D2*
X2209983D1*
X2245282Y3604273D2*
X2226181D1*
X2224280Y3587073D1*
X2226181Y3588975D1*
X2231929Y3590920D1*
X2237633D1*
X2243381Y3588975D1*
X2247228Y3585172D1*
X2249129Y3579424D1*
Y3575622D1*
X2247228Y3569874D1*
X2243381Y3566027D1*
X2237633Y3564126D1*
X2231929D1*
X2226181Y3566027D1*
X2224280Y3567972D1*
X2222334Y3571775D1*
X2174127Y2923341D2*
X2170324Y2921440D1*
X2166478Y2917593D1*
X2164576Y2913791D1*
Y2906141D1*
X2166478Y2902295D1*
X2170324Y2898492D1*
X2174127Y2896547D1*
X2179875Y2894645D1*
X2189470D1*
X2195174Y2896547D1*
X2199020Y2898492D1*
X2202823Y2902295D1*
X2204768Y2906141D1*
Y2913791D1*
X2202823Y2917593D1*
X2199020Y2921440D1*
X2195174Y2923341D1*
X2204768Y2966290D2*
X2164576D1*
X2204768Y2950991D1*
X2164576Y2935693D1*
X2204768D1*
X2164576Y2978641D2*
X2204768D1*
Y2992039D1*
X2202823Y2997787D1*
X2199020Y3001633D1*
X2195174Y3003535D1*
X2189470Y3005436D1*
X2179875D1*
X2174127Y3003535D1*
X2170324Y3001633D1*
X2166478Y2997787D1*
X2164576Y2992039D1*
Y2978641D1*
X2211401Y3017787D2*
Y3054133D1*
X2164621Y3089432D2*
Y3070331D1*
X2181821Y3068429D1*
X2179919Y3070331D1*
X2177974Y3076079D1*
Y3081783D1*
X2179919Y3087531D1*
X2183722Y3091377D1*
X2189470Y3093279D1*
X2193272D1*
X2199020Y3091377D1*
X2202867Y3087531D1*
X2204768Y3081783D1*
Y3076079D1*
X2202867Y3070331D1*
X2200922Y3068429D1*
X2197119Y3066484D1*
X2271231Y2880274D2*
Y2897473D1*
X2269286Y2903221D1*
X2267384Y2905167D1*
X2263582Y2907068D1*
X2259735D1*
X2255932Y2905167D1*
X2253987Y2903221D1*
X2252086Y2897473D1*
Y2880274D1*
X2292278D1*
X2271231Y2893671D2*
X2292278Y2907068D1*
X2259779Y2919420D2*
X2257834Y2923266D1*
X2252130Y2929014D1*
X2292278D1*
X2252130Y2952862D2*
X2254031Y2947114D1*
X2259779Y2943267D1*
X2269330Y2941366D1*
X2275078D1*
X2284628Y2943267D1*
X2290376Y2947114D1*
X2292278Y2952862D1*
Y2956664D1*
X2290376Y2962412D1*
X2284628Y2966215D1*
X2275078Y2968160D1*
X2269330D1*
X2259779Y2966215D1*
X2254031Y2962412D1*
X2252130Y2956664D1*
Y2952862D1*
X2259779Y2966215D2*
X2284628Y2943267D1*
X2252130Y2984359D2*
Y3005361D1*
X2267428Y2993909D1*
Y2999657D1*
X2269330Y3003460D1*
X2271231Y3005361D1*
X2276979Y3007306D1*
X2280782D1*
X2286530Y3005361D1*
X2290376Y3001558D1*
X2292278Y2995810D1*
Y2990062D1*
X2290376Y2984359D1*
X2288431Y2982457D1*
X2284628Y2980512D1*
X2298910Y3019658D2*
Y3056003D1*
X2252130Y3091302D2*
Y3072201D1*
X2269330Y3070300D1*
X2267428Y3072201D1*
X2265483Y3077949D1*
Y3083653D1*
X2267428Y3089401D1*
X2271231Y3093248D1*
X2276979Y3095149D1*
X2280782D1*
X2286530Y3093248D1*
X2290376Y3089401D1*
X2292278Y3083653D1*
Y3077949D1*
X2290376Y3072201D1*
X2288431Y3070300D1*
X2284628Y3068354D1*
X2511002Y3263109D2*
X2528202D1*
X2533950Y3265055D1*
X2535896Y3266956D1*
X2537797Y3270759D1*
Y3274605D1*
X2535896Y3278408D1*
X2533950Y3280353D1*
X2528202Y3282255D1*
X2511002D1*
Y3242063D1*
X2524400Y3263109D2*
X2537797Y3242063D1*
X2550148Y3274561D2*
X2553995Y3276507D1*
X2559743Y3282210D1*
Y3242063D1*
X2583591Y3282210D2*
X2577843Y3280309D1*
X2573996Y3274561D1*
X2572095Y3265010D1*
Y3259262D1*
X2573996Y3249712D1*
X2577843Y3243964D1*
X2583591Y3242063D1*
X2587393D1*
X2593141Y3243964D1*
X2596944Y3249712D1*
X2598889Y3259262D1*
Y3265010D1*
X2596944Y3274561D1*
X2593141Y3280309D1*
X2587393Y3282210D1*
X2583591D1*
X2596944Y3274561D2*
X2573996Y3249712D1*
X2611241Y3274561D2*
X2615087Y3276507D1*
X2620835Y3282210D1*
Y3242063D1*
X2633187Y3235430D2*
X2669532D1*
X2704831Y3276507D2*
X2702930Y3280309D1*
X2697182Y3282210D1*
X2693380D1*
X2687631Y3280309D1*
X2683785Y3274561D1*
X2681883Y3265010D1*
Y3255460D1*
X2683785Y3247811D1*
X2687631Y3243964D1*
X2693380Y3242063D1*
X2695281D1*
X2700985Y3243964D1*
X2704831Y3247811D1*
X2706733Y3253559D1*
Y3255460D1*
X2704831Y3261208D1*
X2700985Y3265010D1*
X2695281Y3266912D1*
X2693380D1*
X2687631Y3265010D1*
X2683785Y3261208D1*
X2681883Y3255460D1*
X2464938Y2881246D2*
Y2898446D1*
X2462993Y2904194D1*
X2461091Y2906140D1*
X2457289Y2908041D1*
X2453442D1*
X2449639Y2906140D1*
X2447694Y2904194D1*
X2445793Y2898446D1*
Y2881246D1*
X2485985D1*
X2464938Y2894644D2*
X2485985Y2908041D1*
X2453486Y2920392D2*
X2451541Y2924239D1*
X2445837Y2929987D1*
X2485985D1*
X2445837Y2953835D2*
X2447738Y2948087D1*
X2453486Y2944240D1*
X2463037Y2942338D1*
X2468785D1*
X2478335Y2944240D1*
X2484083Y2948086D1*
X2485985Y2953835D1*
Y2957637D1*
X2484083Y2963385D1*
X2478335Y2967188D1*
X2468785Y2969133D1*
X2463037D1*
X2453486Y2967188D1*
X2447738Y2963385D1*
X2445837Y2957637D1*
Y2953835D1*
X2453486Y2967188D2*
X2478335Y2944240D1*
X2455388Y2983430D2*
X2453486D1*
X2449639Y2985331D1*
X2447738Y2987233D1*
X2445837Y2991079D1*
Y2998729D1*
X2447738Y3002531D1*
X2449639Y3004432D1*
X2453486Y3006378D1*
X2457289D1*
X2461136Y3004432D1*
X2466839Y3000630D1*
X2485985Y2981485D1*
Y3008279D1*
X2492617Y3020631D2*
Y3056976D1*
X2451541Y3092275D2*
X2447738Y3090374D1*
X2445837Y3084626D1*
Y3080823D1*
X2447738Y3075075D1*
X2453486Y3071228D1*
X2463037Y3069327D1*
X2472587D1*
X2480237Y3071228D1*
X2484083Y3075075D1*
X2485985Y3080823D1*
Y3082725D1*
X2484083Y3088428D1*
X2480237Y3092275D1*
X2474489Y3094176D1*
X2472587D1*
X2466839Y3092275D1*
X2463037Y3088428D1*
X2461136Y3082725D1*
Y3080823D1*
X2463037Y3075075D1*
X2466839Y3071228D1*
X2472587Y3069327D1*
X2377492Y2880296D2*
Y2897496D1*
X2375547Y2903244D1*
X2373645Y2905189D1*
X2369843Y2907090D1*
X2365996D1*
X2362194Y2905189D1*
X2360248Y2903244D1*
X2358347Y2897496D1*
Y2880296D1*
X2398539D1*
X2377492Y2893693D2*
X2398539Y2907090D1*
X2366040Y2919442D2*
X2364095Y2923288D1*
X2358391Y2929036D1*
X2398539D1*
X2358391Y2952884D2*
X2360292Y2947136D1*
X2366040Y2943289D1*
X2375591Y2941388D1*
X2381339D1*
X2390889Y2943289D1*
X2396638Y2947136D1*
X2398539Y2952884D1*
Y2956686D1*
X2396637Y2962434D1*
X2390889Y2966237D1*
X2381339Y2968182D1*
X2375591D1*
X2366040Y2966237D1*
X2360292Y2962434D1*
X2358391Y2956686D1*
Y2952884D1*
X2366040Y2966237D2*
X2390889Y2943289D1*
X2398539Y2999679D2*
X2358391D1*
X2385141Y2980534D1*
Y3009230D1*
X2405171Y3021581D2*
Y3057926D1*
X2364095Y3093226D2*
X2360292Y3091324D1*
X2358391Y3085576D1*
Y3081774D1*
X2360292Y3076026D1*
X2366040Y3072179D1*
X2375591Y3070278D1*
X2385141D1*
X2392791Y3072179D1*
X2396637Y3076026D1*
X2398539Y3081774D1*
Y3083675D1*
X2396637Y3089379D1*
X2392791Y3093226D1*
X2387043Y3095127D1*
X2385141D1*
X2379393Y3093226D1*
X2375591Y3089379D1*
X2373690Y3083675D1*
Y3081774D1*
X2375591Y3076026D1*
X2379393Y3072179D1*
X2385141Y3070278D1*
X2362677Y3387652D2*
Y3404852D1*
X2360732Y3410600D1*
X2358830Y3412545D1*
X2355028Y3414446D1*
X2351181D1*
X2347379Y3412545D1*
X2345433Y3410600D1*
X2343532Y3404852D1*
Y3387652D1*
X2383724D1*
X2362677Y3401049D2*
X2383724Y3414446D1*
X2351225Y3426798D2*
X2349280Y3430645D1*
X2343576Y3436393D1*
X2383724D1*
X2343576Y3460240D2*
X2345477Y3454492D1*
X2351225Y3450645D1*
X2360776Y3448744D1*
X2366524D1*
X2376075Y3450645D1*
X2381823Y3454492D1*
X2383724Y3460240D1*
Y3464043D1*
X2381823Y3469791D1*
X2376075Y3473593D1*
X2366524Y3475539D1*
X2360776D1*
X2351225Y3473593D1*
X2345477Y3469791D1*
X2343576Y3464043D1*
Y3460240D1*
X2351225Y3473593D2*
X2376075Y3450645D1*
X2343576Y3510838D2*
Y3491737D1*
X2360776Y3489836D1*
X2358875Y3491737D1*
X2356929Y3497485D1*
Y3503189D1*
X2358875Y3508937D1*
X2362677Y3512783D1*
X2368425Y3514685D1*
X2372228D1*
X2377976Y3512783D1*
X2381823Y3508937D1*
X2383724Y3503189D1*
Y3497485D1*
X2381823Y3491737D1*
X2379877Y3489836D1*
X2376075Y3487890D1*
X2390356Y3527036D2*
Y3563381D1*
X2349280Y3598681D2*
X2345477Y3596779D1*
X2343576Y3591031D1*
Y3587229D1*
X2345477Y3581481D1*
X2351225Y3577634D1*
X2360776Y3575733D1*
X2370326D1*
X2377976Y3577634D1*
X2381823Y3581481D1*
X2383724Y3587229D1*
Y3589130D1*
X2381823Y3594834D1*
X2377976Y3598681D1*
X2372228Y3600582D1*
X2370326D1*
X2364578Y3598681D1*
X2360776Y3594834D1*
X2358875Y3589130D1*
Y3587229D1*
X2360776Y3581481D1*
X2364578Y3577634D1*
X2370326Y3575733D1*
X2440254Y3598570D2*
X2436452Y3602416D1*
X2430704Y3604318D1*
X2423054D1*
X2417306Y3602416D1*
X2413459Y3598570D1*
Y3594767D1*
X2415405Y3590920D1*
X2417306Y3589019D1*
X2421109Y3587118D1*
X2432605Y3583271D1*
X2436452Y3581370D1*
X2438353Y3579424D1*
X2440254Y3575622D1*
Y3569874D1*
X2436452Y3566071D1*
X2430704Y3564126D1*
X2423054D1*
X2417306Y3566071D1*
X2413459Y3569874D1*
X2479400Y3598570D2*
X2475598Y3602416D1*
X2469850Y3604318D1*
X2462200D1*
X2456452Y3602416D1*
X2452605Y3598570D1*
Y3594767D1*
X2454551Y3590920D1*
X2456452Y3589019D1*
X2460255Y3587118D1*
X2471751Y3583271D1*
X2475598Y3581370D1*
X2477499Y3579424D1*
X2479400Y3575622D1*
Y3569874D1*
X2475598Y3566071D1*
X2469850Y3564126D1*
X2462200D1*
X2456452Y3566071D1*
X2452605Y3569874D1*
X2491752Y3585172D2*
X2508951D1*
X2514699Y3587118D1*
X2516645Y3589019D1*
X2518546Y3592821D1*
Y3596668D1*
X2516645Y3600471D1*
X2514699Y3602416D1*
X2508951Y3604318D1*
X2491752D1*
Y3564126D1*
X2505149Y3585172D2*
X2518546Y3564126D1*
X2530898Y3557493D2*
X2567243D1*
X2602542Y3598570D2*
X2600641Y3602372D1*
X2594893Y3604273D1*
X2591090D1*
X2585342Y3602372D1*
X2581496Y3596624D1*
X2579594Y3587073D1*
Y3577523D1*
X2581496Y3569874D1*
X2585342Y3566027D1*
X2591090Y3564126D1*
X2592992D1*
X2598695Y3566027D1*
X2602542Y3569874D1*
X2604443Y3575622D1*
Y3577523D1*
X2602542Y3583271D1*
X2598695Y3587073D1*
X2592992Y3588975D1*
X2591090D1*
X2585342Y3587073D1*
X2581496Y3583271D1*
X2579594Y3577523D1*
X2536665Y2924314D2*
X2532863Y2922413D1*
X2529016Y2918566D1*
X2527114Y2914764D1*
Y2907114D1*
X2529016Y2903267D1*
X2532862Y2899465D1*
X2536665Y2897519D1*
X2542413Y2895618D1*
X2552008D1*
X2557712Y2897519D1*
X2561558Y2899465D1*
X2565361Y2903267D1*
X2567307Y2907114D1*
Y2914763D1*
X2565361Y2918566D1*
X2561558Y2922413D1*
X2557712Y2924314D1*
X2567306Y2967263D2*
X2527115D1*
X2567306Y2951964D1*
X2527115Y2936665D1*
X2567307D1*
X2527115Y2979614D2*
X2567306D1*
Y2993011D1*
X2565361Y2998759D1*
X2561558Y3002606D1*
X2557712Y3004507D1*
X2552008Y3006409D1*
X2542413D1*
X2536665Y3004507D1*
X2532863Y3002606D1*
X2529016Y2998759D1*
X2527115Y2993011D1*
Y2979614D1*
X2573939Y3018760D2*
Y3055105D1*
X2532863Y3090405D2*
X2529060Y3088503D1*
X2527159Y3082755D1*
Y3078953D1*
X2529060Y3073205D1*
X2534808Y3069358D1*
X2544359Y3067457D1*
X2553909D1*
X2561558Y3069358D1*
X2565405Y3073205D1*
X2567306Y3078953D1*
Y3080854D1*
X2565405Y3086558D1*
X2561558Y3090405D1*
X2555810Y3092306D1*
X2553909D1*
X2548161Y3090405D1*
X2544359Y3086558D1*
X2542457Y3080854D1*
Y3078953D1*
X2544359Y3073205D1*
X2548161Y3069358D1*
X2553909Y3067457D1*
X2640020Y2881246D2*
Y2898446D1*
X2638074Y2904194D1*
X2636173Y2906140D1*
X2632370Y2908041D1*
X2628524D1*
X2624721Y2906140D1*
X2622776Y2904194D1*
X2620874Y2898446D1*
Y2881246D1*
X2661066D1*
X2640020Y2894644D2*
X2661066Y2908041D1*
X2628568Y2920392D2*
X2626622Y2924239D1*
X2620919Y2929987D1*
X2661066D1*
X2620919Y2953835D2*
X2622820Y2948087D1*
X2628568Y2944240D1*
X2638118Y2942338D1*
X2643866D1*
X2653417Y2944240D1*
X2659165Y2948086D1*
X2661066Y2953835D1*
Y2957637D1*
X2659165Y2963385D1*
X2653417Y2967188D1*
X2643866Y2969133D1*
X2638118D1*
X2628568Y2967188D1*
X2622820Y2963385D1*
X2620919Y2957637D1*
Y2953835D1*
X2628568Y2967188D2*
X2653417Y2944240D1*
X2620919Y2985331D2*
Y3006334D1*
X2636217Y2994882D1*
Y3000630D1*
X2638118Y3004432D1*
X2640020Y3006334D1*
X2645768Y3008279D1*
X2649570D1*
X2655318Y3006334D1*
X2659165Y3002531D1*
X2661066Y2996783D1*
Y2991035D1*
X2659165Y2985331D1*
X2657220Y2983430D1*
X2653417Y2981485D1*
X2667699Y3020631D2*
Y3056976D1*
X2626622Y3092275D2*
X2622820Y3090374D1*
X2620919Y3084626D1*
Y3080823D1*
X2622820Y3075075D1*
X2628568Y3071228D1*
X2638118Y3069327D1*
X2647669D1*
X2655318Y3071228D1*
X2659165Y3075075D1*
X2661066Y3080823D1*
Y3082725D1*
X2659165Y3088428D1*
X2655318Y3092275D1*
X2649570Y3094176D1*
X2647669D1*
X2641921Y3092275D1*
X2638118Y3088428D1*
X2636217Y3082725D1*
Y3080823D1*
X2638118Y3075075D1*
X2641921Y3071228D1*
X2647669Y3069327D1*
X2866317Y3263109D2*
X2883517D1*
X2889265Y3265055D1*
X2891210Y3266956D1*
X2893112Y3270759D1*
Y3274605D1*
X2891210Y3278408D1*
X2889265Y3280353D1*
X2883517Y3282255D1*
X2866317D1*
Y3242063D1*
X2879714Y3263109D2*
X2893112Y3242063D1*
X2905463Y3274561D2*
X2909310Y3276507D1*
X2915058Y3282210D1*
Y3242063D1*
X2938905Y3282210D2*
X2933157Y3280309D1*
X2929310Y3274561D1*
X2927409Y3265010D1*
Y3259262D1*
X2929310Y3249712D1*
X2933157Y3243964D1*
X2938905Y3242063D1*
X2942708D1*
X2948456Y3243964D1*
X2952258Y3249712D1*
X2954204Y3259262D1*
Y3265010D1*
X2952258Y3274561D1*
X2948456Y3280309D1*
X2942708Y3282210D1*
X2938905D1*
X2952258Y3274561D2*
X2929310Y3249712D1*
X2966555Y3274561D2*
X2970402Y3276507D1*
X2976150Y3282210D1*
Y3242063D1*
X2988501Y3235430D2*
X3024847D1*
X3044847Y3242063D2*
X3063993Y3282210D1*
X3037198D1*
X2821225Y2880274D2*
Y2897473D1*
X2819280Y2903221D1*
X2817379Y2905167D1*
X2813576Y2907068D1*
X2809729D1*
X2805927Y2905167D1*
X2803981Y2903221D1*
X2802080Y2897473D1*
Y2880274D1*
X2842272D1*
X2821225Y2893671D2*
X2842272Y2907068D1*
X2809774Y2919420D2*
X2807828Y2923266D1*
X2802124Y2929014D1*
X2842272D1*
X2802124Y2952862D2*
X2804026Y2947114D1*
X2809774Y2943267D1*
X2819324Y2941366D1*
X2825072D1*
X2834623Y2943267D1*
X2840371Y2947114D1*
X2842272Y2952862D1*
Y2956664D1*
X2840371Y2962412D1*
X2834623Y2966215D1*
X2825072Y2968160D1*
X2819324D1*
X2809774Y2966215D1*
X2804026Y2962412D1*
X2802124Y2956664D1*
Y2952862D1*
X2809774Y2966215D2*
X2834623Y2943267D1*
X2811675Y2982457D2*
X2809774D1*
X2805927Y2984359D1*
X2804026Y2986260D1*
X2802124Y2990107D1*
Y2997756D1*
X2804026Y3001558D1*
X2805927Y3003460D1*
X2809774Y3005405D1*
X2813576D1*
X2817423Y3003460D1*
X2823127Y2999657D1*
X2842272Y2980512D1*
Y3007306D1*
X2848904Y3019658D2*
Y3056003D1*
X2842272Y3076004D2*
X2802124Y3095149D1*
Y3068354D1*
X2733780Y2879323D2*
Y2896523D1*
X2731834Y2902271D1*
X2729933Y2904216D1*
X2726130Y2906118D1*
X2722283D1*
X2718481Y2904216D1*
X2716535Y2902271D1*
X2714634Y2896523D1*
Y2879323D1*
X2754826D1*
X2733780Y2892720D2*
X2754826Y2906118D1*
X2722328Y2918469D2*
X2720382Y2922316D1*
X2714678Y2928064D1*
X2754826D1*
X2714678Y2951911D2*
X2716580Y2946163D1*
X2722328Y2942316D1*
X2731878Y2940415D1*
X2737626D1*
X2747177Y2942316D1*
X2752925Y2946163D1*
X2754826Y2951911D1*
Y2955714D1*
X2752925Y2961462D1*
X2747177Y2965264D1*
X2737626Y2967210D1*
X2731878D1*
X2722328Y2965264D1*
X2716580Y2961462D1*
X2714678Y2955714D1*
Y2951911D1*
X2722328Y2965264D2*
X2747177Y2942316D1*
X2754826Y2998706D2*
X2714678Y2998707D1*
X2741429Y2979561D1*
Y3008257D1*
X2761458Y3020608D2*
Y3056954D1*
X2754826Y3076954D2*
X2714678Y3096100D1*
Y3069305D1*
X2712714Y3380428D2*
Y3397628D1*
X2710768Y3403376D1*
X2708867Y3405322D1*
X2705065Y3407223D1*
X2701218D1*
X2697415Y3405322D1*
X2695470Y3403376D1*
X2693569Y3397628D1*
Y3380428D1*
X2733761D1*
X2712714Y3393826D2*
X2733761Y3407223D1*
X2701262Y3419574D2*
X2699317Y3423421D1*
X2693613Y3429169D1*
X2733761D1*
X2693613Y3453017D2*
X2695514Y3447269D1*
X2701262Y3443422D1*
X2710813Y3441521D1*
X2716561D1*
X2726111Y3443422D1*
X2731859Y3447269D1*
X2733761Y3453017D1*
Y3456819D1*
X2731859Y3462567D1*
X2726111Y3466370D1*
X2716561Y3468315D1*
X2710813D1*
X2701262Y3466370D1*
X2695514Y3462567D1*
X2693613Y3456819D1*
Y3453017D1*
X2701262Y3466370D2*
X2726111Y3443422D1*
X2693613Y3503615D2*
Y3484513D1*
X2710813Y3482612D1*
X2708911Y3484513D1*
X2706966Y3490261D1*
Y3495965D1*
X2708911Y3501713D1*
X2712714Y3505560D1*
X2718462Y3507461D1*
X2722264D1*
X2728013Y3505560D1*
X2731859Y3501713D1*
X2733761Y3495965D1*
Y3490261D1*
X2731859Y3484513D1*
X2729914Y3482612D1*
X2726111Y3480667D1*
X2740393Y3519813D2*
Y3556158D1*
X2733761Y3576159D2*
X2693613Y3595304D1*
Y3568509D1*
X2801819Y3598570D2*
X2798017Y3602416D1*
X2792269Y3604318D1*
X2784620D1*
X2778872Y3602416D1*
X2775025Y3598570D1*
Y3594767D1*
X2776970Y3590920D1*
X2778872Y3589019D1*
X2782674Y3587118D1*
X2794170Y3583271D1*
X2798017Y3581370D1*
X2799918Y3579424D1*
X2801819Y3575622D1*
Y3569874D1*
X2798017Y3566071D1*
X2792269Y3564126D1*
X2784620D1*
X2778872Y3566071D1*
X2775025Y3569874D1*
X2840965Y3598570D2*
X2837163Y3602416D1*
X2831415Y3604318D1*
X2823766D1*
X2818018Y3602416D1*
X2814171Y3598570D1*
Y3594767D1*
X2816116Y3590920D1*
X2818018Y3589019D1*
X2821820Y3587118D1*
X2833316Y3583271D1*
X2837163Y3581370D1*
X2839064Y3579424D1*
X2840965Y3575622D1*
Y3569874D1*
X2837163Y3566071D1*
X2831415Y3564126D1*
X2823766D1*
X2818018Y3566071D1*
X2814171Y3569874D1*
X2853317Y3585172D2*
X2870517D1*
X2876265Y3587118D1*
X2878210Y3589019D1*
X2880112Y3592821D1*
Y3596668D1*
X2878210Y3600471D1*
X2876265Y3602416D1*
X2870517Y3604318D1*
X2853317D1*
Y3564126D1*
X2866714Y3585172D2*
X2880112Y3564126D1*
X2892463Y3557493D2*
X2928808D1*
X2948809Y3564126D2*
X2967954Y3604273D1*
X2941160D1*
X2892952Y2923341D2*
X2889150Y2921440D1*
X2885303Y2917593D1*
X2883402Y2913791D1*
Y2906141D1*
X2885303Y2902295D1*
X2889150Y2898492D1*
X2892952Y2896547D1*
X2898700Y2894645D1*
X2908295D1*
X2913999Y2896547D1*
X2917846Y2898492D1*
X2921648Y2902295D1*
X2923594Y2906141D1*
Y2913791D1*
X2921648Y2917593D1*
X2917846Y2921440D1*
X2913999Y2923341D1*
X2923594Y2966290D2*
X2883402D1*
X2923594Y2950991D1*
X2883402Y2935693D1*
X2923594D1*
X2883402Y2978641D2*
X2923594D1*
Y2992039D1*
X2921648Y2997787D1*
X2917846Y3001633D1*
X2913999Y3003535D1*
X2908295Y3005436D1*
X2898701D1*
X2892952Y3003535D1*
X2889150Y3001633D1*
X2885303Y2997787D1*
X2883402Y2992039D1*
Y2978641D1*
X2930226Y3017787D2*
Y3054133D1*
X2923594Y3074133D2*
X2883446Y3093279D1*
Y3066484D1*
X2990056Y2880274D2*
Y2897473D1*
X2988111Y2903221D1*
X2986210Y2905167D1*
X2982407Y2907068D1*
X2978560D1*
X2974758Y2905167D1*
X2972812Y2903221D1*
X2970911Y2897473D1*
Y2880274D1*
X3011103D1*
X2990056Y2893671D2*
X3011103Y2907068D1*
X2978605Y2919420D2*
X2976659Y2923266D1*
X2970955Y2929014D1*
X3011103D1*
X2970955Y2952862D2*
X2972857Y2947114D1*
X2978605Y2943267D1*
X2988155Y2941366D1*
X2993903D1*
X3003454Y2943267D1*
X3009202Y2947114D1*
X3011103Y2952862D1*
Y2956664D1*
X3009202Y2962412D1*
X3003454Y2966215D1*
X2993903Y2968160D1*
X2988155D1*
X2978605Y2966215D1*
X2972857Y2962412D1*
X2970955Y2956664D1*
Y2952862D1*
X2978605Y2966215D2*
X3003454Y2943267D1*
X2970955Y2984359D2*
Y3005361D1*
X2986254Y2993909D1*
Y2999657D1*
X2988155Y3003460D1*
X2990056Y3005361D1*
X2995804Y3007306D1*
X2999607D1*
X3005355Y3005361D1*
X3009202Y3001558D1*
X3011103Y2995810D1*
Y2990062D1*
X3009202Y2984359D1*
X3007256Y2982457D1*
X3003454Y2980512D1*
X3017735Y3019658D2*
Y3056003D1*
X3011103Y3076004D2*
X2970955Y3095149D1*
Y3068354D1*
X3253880Y3263109D2*
X3271080D1*
X3276828Y3265055D1*
X3278773Y3266956D1*
X3280674Y3270759D1*
Y3274605D1*
X3278773Y3278408D1*
X3276828Y3280353D1*
X3271080Y3282255D1*
X3253880D1*
Y3242063D1*
X3267277Y3263109D2*
X3280674Y3242063D1*
X3293026Y3274561D2*
X3296873Y3276507D1*
X3302621Y3282210D1*
Y3242063D1*
X3326468Y3282210D2*
X3320720Y3280309D1*
X3316873Y3274561D1*
X3314972Y3265010D1*
Y3259262D1*
X3316873Y3249712D1*
X3320720Y3243964D1*
X3326468Y3242063D1*
X3330271D1*
X3336019Y3243964D1*
X3339821Y3249712D1*
X3341767Y3259262D1*
Y3265010D1*
X3339821Y3274561D1*
X3336019Y3280309D1*
X3330271Y3282210D1*
X3326468D1*
X3339821Y3274561D2*
X3316873Y3249712D1*
X3354118Y3274561D2*
X3357965Y3276507D1*
X3363713Y3282210D1*
Y3242063D1*
X3376064Y3235430D2*
X3412409D1*
X3434311Y3282210D2*
X3428608Y3280309D1*
X3426662Y3276507D1*
Y3272660D1*
X3428608Y3268857D1*
X3432410Y3266912D1*
X3440059Y3265010D1*
X3445808Y3263109D1*
X3449610Y3259262D1*
X3451511Y3255460D1*
Y3249712D1*
X3449610Y3245909D1*
X3447709Y3243964D1*
X3441961Y3242063D1*
X3434311D1*
X3428608Y3243964D1*
X3426662Y3245909D1*
X3424761Y3249712D1*
Y3255460D1*
X3426662Y3259262D1*
X3430509Y3263109D1*
X3436213Y3265010D1*
X3443862Y3266912D1*
X3447709Y3268857D1*
X3449610Y3272660D1*
Y3276507D1*
X3447709Y3280309D1*
X3441961Y3282210D1*
X3434311D1*
X3165012Y2880296D2*
Y2897496D1*
X3163066Y2903244D1*
X3161165Y2905189D1*
X3157362Y2907090D1*
X3153516D1*
X3149713Y2905189D1*
X3147767Y2903244D1*
X3145866Y2897496D1*
Y2880296D1*
X3186058D1*
X3165012Y2893693D2*
X3186058Y2907090D1*
X3153560Y2919442D2*
X3151614Y2923288D1*
X3145910Y2929036D1*
X3186058D1*
X3145910Y2952884D2*
X3147812Y2947136D1*
X3153560Y2943289D1*
X3163110Y2941388D1*
X3168858D1*
X3178409Y2943289D1*
X3184157Y2947136D1*
X3186058Y2952884D1*
Y2956686D1*
X3184157Y2962434D1*
X3178409Y2966237D1*
X3168858Y2968182D1*
X3163110D1*
X3153560Y2966237D1*
X3147812Y2962434D1*
X3145910Y2956686D1*
Y2952884D1*
X3153560Y2966237D2*
X3178409Y2943289D1*
X3155461Y2982479D2*
X3153560D1*
X3149713Y2984381D1*
X3147812Y2986282D1*
X3145910Y2990129D1*
Y2997778D1*
X3147812Y3001581D1*
X3149713Y3003482D1*
X3153560Y3005427D1*
X3157362D1*
X3161209Y3003482D1*
X3166913Y2999679D1*
X3186058Y2980534D1*
Y3007329D1*
X3192691Y3019680D2*
Y3056025D1*
X3145910Y3077927D2*
X3147812Y3072223D1*
X3151614Y3070278D1*
X3155461D1*
X3159264Y3072223D1*
X3161209Y3076026D1*
X3163110Y3083675D1*
X3165012Y3089423D1*
X3168858Y3093226D1*
X3172661Y3095127D1*
X3178409D1*
X3182211Y3093226D1*
X3184157Y3091324D1*
X3186058Y3085576D1*
Y3077927D1*
X3184157Y3072223D1*
X3182211Y3070278D1*
X3178409Y3068377D1*
X3172661D1*
X3168858Y3070278D1*
X3165012Y3074125D1*
X3163110Y3079828D1*
X3161209Y3087478D1*
X3159264Y3091324D1*
X3155461Y3093226D1*
X3151614D1*
X3147812Y3091324D1*
X3145910Y3085576D1*
Y3077927D1*
X3077566Y2879345D2*
Y2896545D1*
X3075620Y2902293D1*
X3073719Y2904238D1*
X3069916Y2906140D1*
X3066070D1*
X3062267Y2904238D1*
X3060322Y2902293D1*
X3058420Y2896545D1*
Y2879345D1*
X3098612D1*
X3077566Y2892742D2*
X3098612Y2906140D1*
X3066114Y2918491D2*
X3064168Y2922338D1*
X3058465Y2928086D1*
X3098612D1*
X3058465Y2951933D2*
X3060366Y2946185D1*
X3066114Y2942338D1*
X3075664Y2940437D1*
X3081412D1*
X3090963Y2942338D1*
X3096711Y2946185D1*
X3098612Y2951933D1*
Y2955736D1*
X3096711Y2961484D1*
X3090963Y2965286D1*
X3081412Y2967232D1*
X3075664D1*
X3066114Y2965286D1*
X3060366Y2961484D1*
X3058465Y2955736D1*
Y2951933D1*
X3066114Y2965286D2*
X3090963Y2942338D1*
X3098612Y2998729D2*
X3058464D1*
X3085215Y2979583D1*
Y3008279D1*
X3105245Y3020631D2*
Y3056976D1*
X3058464Y3078878D2*
X3060366Y3073174D1*
X3064168Y3071228D1*
X3068015D1*
X3071818Y3073174D1*
X3073763Y3076977D1*
X3075664Y3084626D1*
X3077566Y3090374D1*
X3081412Y3094176D1*
X3085215Y3096078D1*
X3090963D1*
X3094765Y3094176D1*
X3096711Y3092275D1*
X3098612Y3086527D1*
Y3078878D1*
X3096711Y3073174D1*
X3094765Y3071228D1*
X3090963Y3069327D1*
X3085215D1*
X3081412Y3071228D1*
X3077566Y3075075D1*
X3075664Y3080779D1*
X3073763Y3088428D1*
X3071818Y3092275D1*
X3068015Y3094176D1*
X3064168D1*
X3060366Y3092275D1*
X3058464Y3086527D1*
Y3078878D1*
X3069001Y3380451D2*
Y3397650D1*
X3067056Y3403398D1*
X3065155Y3405344D1*
X3061352Y3407245D1*
X3057505D1*
X3053703Y3405344D1*
X3051757Y3403398D1*
X3049856Y3397650D1*
Y3380451D1*
X3090048D1*
X3069001Y3393848D2*
X3090048Y3407245D1*
X3057550Y3419597D2*
X3055604Y3423443D1*
X3049900Y3429191D1*
X3090048D1*
X3049900Y3453039D2*
X3051801Y3447291D1*
X3057550Y3443444D1*
X3067100Y3441543D1*
X3072848D1*
X3082399Y3443444D1*
X3088147Y3447291D1*
X3090048Y3453039D1*
Y3456841D1*
X3088147Y3462589D1*
X3082399Y3466392D1*
X3072848Y3468337D1*
X3067100D1*
X3057549Y3466392D1*
X3051801Y3462589D1*
X3049900Y3456841D1*
Y3453039D1*
X3057549Y3466392D2*
X3082399Y3443444D1*
X3049900Y3503637D2*
Y3484536D1*
X3067100Y3482634D1*
X3065199Y3484535D1*
X3063253Y3490284D1*
Y3495987D1*
X3065199Y3501735D1*
X3069001Y3505582D1*
X3074749Y3507483D1*
X3078552D1*
X3084300Y3505582D1*
X3088147Y3501735D1*
X3090048Y3495987D1*
Y3490284D1*
X3088147Y3484535D1*
X3086201Y3482634D1*
X3082399Y3480689D1*
X3096680Y3519835D2*
Y3556180D1*
X3049900Y3578082D2*
X3051801Y3572378D1*
X3055604Y3570433D1*
X3059451D1*
X3063253Y3572378D1*
X3065199Y3576181D1*
X3067100Y3583830D1*
X3069001Y3589578D1*
X3072848Y3593381D1*
X3076651Y3595282D1*
X3082399D1*
X3086201Y3593381D1*
X3088147Y3591479D1*
X3090048Y3585731D1*
Y3578082D1*
X3088147Y3572378D1*
X3086201Y3570433D1*
X3082399Y3568531D1*
X3076651D1*
X3072848Y3570433D1*
X3069001Y3574279D1*
X3067100Y3579983D1*
X3065199Y3587633D1*
X3063253Y3591479D1*
X3059451Y3593381D1*
X3055604D1*
X3051801Y3591479D1*
X3049900Y3585731D1*
Y3578082D1*
X3151878Y3598570D2*
X3148076Y3602416D1*
X3142328Y3604318D1*
X3134678D1*
X3128930Y3602416D1*
X3125084Y3598570D1*
Y3594767D1*
X3127029Y3590920D1*
X3128930Y3589019D1*
X3132733Y3587118D1*
X3144229Y3583271D1*
X3148076Y3581370D1*
X3149977Y3579424D1*
X3151878Y3575622D1*
Y3569874D1*
X3148076Y3566071D1*
X3142328Y3564126D1*
X3134678D1*
X3128930Y3566071D1*
X3125084Y3569874D1*
X3191024Y3598570D2*
X3187222Y3602416D1*
X3181474Y3604318D1*
X3173824D1*
X3168076Y3602416D1*
X3164230Y3598570D1*
Y3594767D1*
X3166175Y3590920D1*
X3168076Y3589019D1*
X3171879Y3587118D1*
X3183375Y3583271D1*
X3187222Y3581370D1*
X3189123Y3579424D1*
X3191024Y3575622D1*
Y3569874D1*
X3187222Y3566071D1*
X3181474Y3564126D1*
X3173824D1*
X3168076Y3566071D1*
X3164230Y3569874D1*
X3203376Y3585172D2*
X3220576D1*
X3226324Y3587118D1*
X3228269Y3589019D1*
X3230170Y3592821D1*
Y3596668D1*
X3228269Y3600471D1*
X3226324Y3602416D1*
X3220576Y3604318D1*
X3203376D1*
Y3564126D1*
X3216773Y3585172D2*
X3230170Y3564126D1*
X3242522Y3557493D2*
X3278867D1*
X3300769Y3604273D2*
X3295065Y3602372D1*
X3293120Y3598570D1*
Y3594723D1*
X3295065Y3590920D1*
X3298868Y3588975D1*
X3306517Y3587073D1*
X3312265Y3585172D1*
X3316068Y3581325D1*
X3317969Y3577523D1*
Y3571775D1*
X3316068Y3567972D1*
X3314166Y3566027D1*
X3308418Y3564126D1*
X3300769D1*
X3295065Y3566027D1*
X3293120Y3567972D1*
X3291218Y3571775D1*
Y3577523D1*
X3293120Y3581325D1*
X3296966Y3585172D1*
X3302670Y3587073D1*
X3310320Y3588975D1*
X3314166Y3590920D1*
X3316068Y3594723D1*
Y3598570D1*
X3314166Y3602372D1*
X3308418Y3604273D1*
X3300769D1*
X3249240Y2923363D2*
X3245437Y2921462D1*
X3241591Y2917615D1*
X3239689Y2913813D1*
Y2906164D1*
X3241591Y2902317D1*
X3245437Y2898514D1*
X3249240Y2896569D1*
X3254988Y2894668D1*
X3264583D1*
X3270286Y2896569D1*
X3274133Y2898514D1*
X3277936Y2902317D1*
X3279881Y2906164D1*
Y2913813D1*
X3277936Y2917615D1*
X3274133Y2921462D1*
X3270287Y2923363D1*
X3279881Y2966312D2*
X3239689D1*
X3279881Y2951013D1*
X3239689Y2935715D1*
X3279881D1*
X3239689Y2978663D2*
X3279881D1*
Y2992061D1*
X3277936Y2997809D1*
X3274133Y3001655D1*
X3270286Y3003557D1*
X3264583Y3005458D1*
X3254988D1*
X3249240Y3003557D1*
X3245437Y3001655D1*
X3241591Y2997809D1*
X3239689Y2992061D1*
Y2978663D1*
X3286514Y3017809D2*
Y3054155D1*
X3239734Y3076057D2*
X3241635Y3070353D1*
X3245437Y3068407D1*
X3249284D1*
X3253087Y3070353D1*
X3255032Y3074155D1*
X3256933Y3081805D1*
X3258835Y3087553D1*
X3262681Y3091355D1*
X3266484Y3093257D1*
X3272232D1*
X3276035Y3091355D1*
X3277980Y3089454D1*
X3279881Y3083706D1*
Y3076057D1*
X3277980Y3070353D1*
X3276035Y3068407D1*
X3272232Y3066506D1*
X3266484D1*
X3262681Y3068407D1*
X3258835Y3072254D1*
X3256933Y3077958D1*
X3255032Y3085607D1*
X3253087Y3089454D1*
X3249284Y3091355D1*
X3245437D1*
X3241635Y3089454D1*
X3239734Y3083706D1*
Y3076057D1*
X3346344Y2880296D2*
Y2897496D1*
X3344398Y2903244D1*
X3342497Y2905189D1*
X3338695Y2907090D1*
X3334848D1*
X3331045Y2905189D1*
X3329100Y2903244D1*
X3327198Y2897496D1*
Y2880296D1*
X3367390D1*
X3346344Y2893693D2*
X3367391Y2907090D1*
X3334892Y2919442D2*
X3332947Y2923288D1*
X3327243Y2929036D1*
X3367390D1*
X3327243Y2952884D2*
X3329144Y2947136D1*
X3334892Y2943289D1*
X3344443Y2941388D1*
X3350191D1*
X3359741Y2943289D1*
X3365489Y2947136D1*
X3367390Y2952884D1*
Y2956686D1*
X3365489Y2962434D1*
X3359741Y2966237D1*
X3350191Y2968182D1*
X3344443D1*
X3334892Y2966237D1*
X3329144Y2962434D1*
X3327243Y2956686D1*
Y2952884D1*
X3334892Y2966237D2*
X3359741Y2943289D1*
X3327243Y2984381D2*
Y3005383D1*
X3342541Y2993931D1*
Y2999679D1*
X3344443Y3003482D1*
X3346344Y3005383D1*
X3352092Y3007329D1*
X3355894D1*
X3361642Y3005383D1*
X3365489Y3001581D1*
X3367390Y2995832D1*
Y2990084D1*
X3365489Y2984381D1*
X3363544Y2982479D1*
X3359741Y2980534D1*
X3374023Y3019680D2*
Y3056025D1*
X3327243Y3077927D2*
X3329144Y3072223D1*
X3332947Y3070278D1*
X3336793D1*
X3340596Y3072223D1*
X3342541Y3076026D1*
X3344443Y3083675D1*
X3346344Y3089423D1*
X3350191Y3093226D1*
X3353993Y3095127D1*
X3359741D1*
X3363544Y3093226D1*
X3365489Y3091324D1*
X3367390Y3085576D1*
Y3077927D1*
X3365489Y3072223D1*
X3363544Y3070278D1*
X3359741Y3068377D1*
X3353993D1*
X3350191Y3070278D1*
X3346344Y3074125D1*
X3344443Y3079828D1*
X3342541Y3087478D1*
X3340596Y3091324D1*
X3336793Y3093226D1*
X3332947D1*
X3329144Y3091324D1*
X3327243Y3085576D1*
Y3077927D1*
X850245Y3602154D2*
D88*
Y3550489D1*
X824445Y3576288D2*
X876111D1*
X1225285Y3602154D2*
Y3550489D1*
X1199485Y3576288D2*
X1251151D1*
X1587823Y3602154D2*
Y3550489D1*
X1562023Y3576288D2*
X1613689D1*
X1931609Y3595904D2*
Y3544238D1*
X1905809Y3570038D2*
X1957475D1*
X2281646Y3602154D2*
Y3550489D1*
X2255846Y3576288D2*
X2307512D1*
X2637933Y3602154D2*
Y3550489D1*
X2612133Y3576288D2*
X2663799D1*
X2994220Y3602154D2*
Y3550489D1*
X2968420Y3576288D2*
X3020086D1*
X3394262Y3570901D2*
Y3519235D1*
X3368462Y3545035D2*
X3420128D1*
X3544278Y3370880D2*
Y3319214D1*
X3518478Y3345014D2*
X3570144D1*
X3544278Y3008342D2*
Y2956676D1*
X3518478Y2982476D2*
X3570144D1*
X3550529Y2658305D2*
Y2606639D1*
X3524729Y2632439D2*
X3576395D1*
X3544278Y2295767D2*
Y2244101D1*
X3518478Y2269901D2*
X3570144D1*
X3544278Y1939480D2*
Y1887814D1*
X3518478Y1913614D2*
X3570144D1*
X3544278Y1576942D2*
Y1525276D1*
X3518478Y1551076D2*
X3570144D1*
X3550529Y1214404D2*
Y1162738D1*
X3524729Y1188538D2*
X3576395D1*
X3544278Y851866D2*
Y800200D1*
X3518478Y826000D2*
X3570144D1*
X3094231Y789359D2*
Y737693D1*
X3068431Y763493D2*
X3120097D1*
X700386Y965478D2*
D89*
X599906D1*
X700386Y927231D1*
X599906Y888985D1*
X700386D1*
X599906Y996356D2*
X604659Y1001109D1*
X599906Y1005973D1*
X595042Y1001110D1*
X599906Y996356D1*
X633399Y1001109D2*
X700386D1*
X599906Y1036852D2*
X700386D1*
X633399Y1067730D2*
X700386Y1086853D1*
X633399Y1105977D1*
X700386Y1125100D1*
X633399Y1144223D1*
Y1232471D2*
X700386D1*
X647769D2*
X638152Y1222965D1*
X633399Y1213348D1*
Y1199089D1*
X638152Y1189472D1*
X647769Y1179965D1*
X662139Y1175102D1*
X671645D1*
X686016Y1179965D1*
X695522Y1189472D1*
X700386Y1199089D1*
Y1213348D1*
X695522Y1222965D1*
X686016Y1232471D1*
X633399Y1263350D2*
X681262D1*
X695522Y1268103D1*
X700386Y1277720D1*
Y1292090D1*
X695522Y1301596D1*
X681262Y1315967D1*
X633399D2*
X700386D1*
X599906Y1346845D2*
X700386D1*
X633399Y1394708D2*
X681262Y1346845D1*
X662139Y1365968D2*
X700386Y1399462D1*
X662139Y1430340D2*
Y1487710D1*
X652522D1*
X642905Y1482957D1*
X638152Y1478204D1*
X633399Y1468587D1*
Y1454217D1*
X638152Y1444710D1*
X647769Y1435093D1*
X662139Y1430340D1*
X671645D1*
X686016Y1435093D1*
X695522Y1444710D1*
X700386Y1454217D1*
Y1468587D1*
X695522Y1478204D1*
X686016Y1487710D1*
X662139Y1518588D2*
Y1575958D1*
X652522D1*
X642905Y1571205D1*
X638152Y1566452D1*
X633399Y1556835D1*
Y1542465D1*
X638152Y1532958D1*
X647769Y1523342D1*
X662139Y1518588D1*
X671645D1*
X686016Y1523342D1*
X695522Y1532958D1*
X700386Y1542465D1*
Y1556835D1*
X695522Y1566452D1*
X686016Y1575958D1*
X700386Y1780532D2*
X599906D1*
X700386Y1742285D1*
X599906Y1704039D1*
X700386D1*
X633399Y1868780D2*
X700386D1*
X647769D2*
X638152Y1859274D1*
X633399Y1849657D1*
Y1835397D1*
X638152Y1825780D1*
X647769Y1816274D1*
X662139Y1811410D1*
X671645D1*
X686016Y1816274D1*
X695522Y1825780D1*
X700386Y1835397D1*
Y1849657D1*
X695522Y1859274D1*
X686016Y1868780D1*
X599906Y1899658D2*
X700386D1*
X633399Y1947522D2*
X681262Y1899658D1*
X662139Y1918782D2*
X700386Y1952275D1*
X662139Y1983153D2*
Y2040523D1*
X652522D1*
X642905Y2035770D1*
X638152Y2031017D1*
X633399Y2021400D1*
Y2007030D1*
X638152Y1997524D1*
X647769Y1987907D1*
X662139Y1983153D1*
X671645D1*
X686016Y1987907D1*
X695522Y1997524D1*
X700386Y2007030D1*
Y2021400D1*
X695522Y2031017D1*
X686016Y2040523D1*
X633399Y2071402D2*
X700386D1*
X662139D2*
X647769Y2076265D1*
X638152Y2085772D1*
X633399Y2095389D1*
Y2109759D1*
X647769Y2193254D2*
X638152Y2188501D1*
X633399Y2174131D1*
Y2159761D1*
X638152Y2145390D1*
X647769Y2140637D1*
X657275Y2145390D1*
X662139Y2155007D1*
X666892Y2178884D1*
X671645Y2188501D1*
X681262Y2193254D1*
X686016D1*
X695522Y2188501D1*
X700386Y2174131D1*
Y2159761D1*
X695522Y2145390D1*
X686016Y2140637D1*
X633399Y2224132D2*
X733879D1*
X647769D2*
X638263Y2233749D1*
X633399Y2243256D1*
Y2257626D1*
X638263Y2267243D1*
X647769Y2276749D1*
X662139Y2281613D1*
X671756D1*
X686016Y2276749D1*
X695632Y2267243D1*
X700386Y2257626D1*
Y2243256D1*
X695632Y2233749D1*
X686016Y2224132D1*
X633399Y2369861D2*
X700386D1*
X647769D2*
X638152Y2360355D1*
X633399Y2350738D1*
Y2336478D1*
X638152Y2326861D1*
X647769Y2317355D1*
X662139Y2312491D1*
X671645D1*
X686016Y2317355D1*
X695522Y2326861D1*
X700386Y2336478D1*
Y2350738D1*
X695522Y2360355D1*
X686016Y2369861D1*
X647769Y2458220D2*
X638152Y2448603D1*
X633399Y2438986D1*
Y2424726D1*
X638152Y2415110D1*
X647769Y2405603D1*
X662139Y2400739D1*
X671645D1*
X686016Y2405603D1*
X695522Y2415110D1*
X700386Y2424726D1*
Y2438986D1*
X695522Y2448603D1*
X686016Y2458220D1*
X662139Y2489098D2*
Y2546468D1*
X652522D1*
X642905Y2541715D1*
X638152Y2536962D1*
X633399Y2527345D1*
Y2512975D1*
X638152Y2503468D1*
X647769Y2493851D1*
X662139Y2489098D1*
X671645D1*
X686016Y2493851D1*
X695522Y2503468D1*
X700386Y2512975D1*
Y2527345D1*
X695522Y2536962D1*
X686016Y2546468D1*
X861741Y966639D2*
X761261D1*
X861741Y928393D1*
X761261Y890146D1*
X861741D1*
X794755Y1054887D2*
X861741D1*
X809125D2*
X799508Y1045381D1*
X794755Y1035764D1*
Y1021505D1*
X799508Y1011888D1*
X809125Y1002381D1*
X823495Y997518D1*
X833001D1*
X847371Y1002381D1*
X856878Y1011888D1*
X861741Y1021505D1*
Y1035764D1*
X856878Y1045381D1*
X847371Y1054887D1*
X809125Y1138383D2*
X799508Y1133629D1*
X794755Y1119259D1*
Y1104889D1*
X799508Y1090519D1*
X809125Y1085766D1*
X818631Y1090519D1*
X823495Y1100136D1*
X828248Y1124012D1*
X833001Y1133629D1*
X842618Y1138383D1*
X847371D1*
X856878Y1133629D1*
X861741Y1119259D1*
Y1104889D1*
X856878Y1090519D1*
X847371Y1085766D1*
X761261Y1183631D2*
X842618D1*
X856878Y1188384D1*
X861741Y1198001D1*
Y1207508D1*
X794755Y1169261D2*
Y1202754D1*
X823495Y1238386D2*
Y1295756D1*
X813878D1*
X804261Y1291003D1*
X799508Y1286249D1*
X794755Y1276633D1*
Y1262262D1*
X799508Y1252756D1*
X809125Y1243139D1*
X823495Y1238386D1*
X833001D1*
X847371Y1243139D1*
X856878Y1252756D1*
X861741Y1262262D1*
Y1276633D1*
X856878Y1286249D1*
X847371Y1295756D1*
X794755Y1326634D2*
X861741D1*
X823495D2*
X809125Y1331498D1*
X799508Y1341004D1*
X794755Y1350621D1*
Y1364991D1*
X761261Y1493072D2*
X861741D1*
Y1550442D1*
X761261Y1581320D2*
X766014Y1586073D1*
X761261Y1590937D1*
X756398Y1586073D1*
X761261Y1581320D1*
X794755Y1586073D2*
X861741D1*
X799508Y1679185D2*
X876111D1*
X890371Y1674432D1*
X895235Y1669679D1*
X899988Y1660062D1*
Y1645692D1*
X895235Y1636186D1*
X813878Y1679185D2*
X804371Y1669679D1*
X799508Y1660062D1*
Y1645692D1*
X804371Y1636186D1*
X813878Y1626569D1*
X828248Y1621815D1*
X837865D1*
X852124Y1626569D1*
X861741Y1636186D1*
X866494Y1645692D1*
Y1660062D1*
X861741Y1669679D1*
X852124Y1679185D1*
X761261Y1710064D2*
X861741D1*
X813878D2*
X799508Y1724434D1*
X794755Y1734051D1*
Y1748421D1*
X799508Y1757927D1*
X813878Y1762680D1*
X861741D1*
X761261Y1807929D2*
X842618D1*
X856878Y1812682D1*
X861741Y1822299D1*
Y1831805D1*
X794755Y1793559D2*
Y1827052D1*
X761261Y1862684D2*
X766014Y1867437D1*
X761261Y1872301D1*
X756398Y1867437D1*
X761261Y1862684D1*
X794755Y1867437D2*
X861741D1*
X794755Y1903179D2*
X861741D1*
X813878D2*
X799508Y1917549D1*
X794755Y1927166D1*
Y1941426D1*
X799508Y1951043D1*
X813878Y1955796D1*
X861741D1*
X799508Y2044044D2*
X876111D1*
X890371Y2039291D1*
X895235Y2034538D1*
X899988Y2024921D1*
Y2010551D1*
X895235Y2001044D1*
X813878Y2044044D2*
X804371Y2034538D1*
X799508Y2024921D1*
Y2010551D1*
X804371Y2001044D1*
X813878Y1991427D1*
X828248Y1986674D1*
X837865D1*
X852124Y1991427D1*
X861741Y2001044D1*
X866494Y2010551D1*
Y2024921D1*
X861741Y2034538D1*
X852124Y2044044D1*
X785138Y2243864D2*
X775631Y2239111D1*
X766014Y2229494D1*
X761261Y2219988D1*
Y2200865D1*
X766014Y2191248D1*
X775631Y2181741D1*
X785138Y2176878D1*
X799508Y2172124D1*
X823495D1*
X837754Y2176878D1*
X847371Y2181741D1*
X856878Y2191248D1*
X861741Y2200865D1*
Y2219988D1*
X856878Y2229494D1*
X847371Y2239111D1*
X837754Y2243864D1*
X794755Y2298619D2*
X799508Y2289113D1*
X809125Y2279496D1*
X823495Y2274743D1*
X833001D1*
X847371Y2279496D1*
X856878Y2289113D1*
X861741Y2298619D1*
Y2312989D1*
X856878Y2322606D1*
X847371Y2332113D1*
X833001Y2336976D1*
X823495D1*
X809125Y2332113D1*
X799508Y2322606D1*
X794755Y2312989D1*
Y2298619D1*
Y2367855D2*
X861741D1*
X813878D2*
X799508Y2382225D1*
X794755Y2391842D1*
Y2406101D1*
X799508Y2415718D1*
X813878Y2420471D1*
X861741D1*
X761261Y2465720D2*
X842618D1*
X856878Y2470473D1*
X861741Y2480090D1*
Y2489596D1*
X794755Y2451350D2*
Y2484843D1*
Y2520475D2*
X861741D1*
X823495D2*
X809125Y2525339D1*
X799508Y2534845D1*
X794755Y2544462D1*
Y2558832D1*
Y2613587D2*
X799508Y2604081D1*
X809125Y2594464D1*
X823495Y2589710D1*
X833001D1*
X847371Y2594464D1*
X856878Y2604081D1*
X861741Y2613587D1*
Y2627957D1*
X856878Y2637574D1*
X847371Y2647080D1*
X833001Y2651944D1*
X823495D1*
X809125Y2647080D1*
X799508Y2637574D1*
X794755Y2627957D1*
Y2613587D1*
X761261Y2682822D2*
X861741D1*
X937644Y888016D2*
D88*
X997932D1*
X966362D2*
X960592Y893787D1*
X957740Y899490D1*
Y908112D1*
X960592Y913816D1*
X966362Y919586D1*
X974985Y922438D1*
X980688D1*
X989310Y919586D1*
X995014Y913816D1*
X997932Y908112D1*
Y899490D1*
X995014Y893787D1*
X989310Y888016D1*
X957740Y943884D2*
X997932Y961061D1*
X1009406Y955357D1*
X1015177Y949587D1*
X1018028Y943883D1*
Y940965D1*
X957740Y978305D2*
X997932Y961061D1*
X966362Y1055154D2*
Y1080953D1*
X963444Y1089575D1*
X960592Y1092494D1*
X954889Y1095346D1*
X949118D1*
X943415Y1092494D1*
X940496Y1089575D1*
X937644Y1080953D1*
Y1055154D1*
X997932D1*
X966362Y1075250D2*
X997932Y1095346D1*
X957740Y1128199D2*
X960592Y1122495D1*
X966362Y1116725D1*
X974985Y1113873D1*
X980688D1*
X989310Y1116725D1*
X995014Y1122495D1*
X997932Y1128199D1*
Y1136821D1*
X995014Y1142591D1*
X989310Y1148295D1*
X980688Y1151213D1*
X974985D1*
X966362Y1148295D1*
X960592Y1142591D1*
X957740Y1136821D1*
Y1128199D1*
Y1172658D2*
X997932Y1189836D1*
X1009406Y1184132D1*
X1015176Y1178362D1*
X1018028Y1172658D1*
Y1169740D1*
X957740Y1207080D2*
X997932Y1189836D1*
X966362Y1260095D2*
X960592Y1254325D1*
X957740Y1248555D1*
Y1239999D1*
X960592Y1234229D1*
X966362Y1228525D1*
X974985Y1225607D1*
X980688D1*
X989310Y1228525D1*
X995014Y1234229D1*
X997932Y1239999D1*
Y1248555D1*
X995014Y1254325D1*
X989310Y1260095D1*
X974985Y1278622D2*
Y1313044D1*
X969214D1*
X963444Y1310192D1*
X960592Y1307340D1*
X957740Y1301570D1*
Y1292948D1*
X960592Y1287244D1*
X966362Y1281474D1*
X974985Y1278622D1*
X980688D1*
X989310Y1281474D1*
X995014Y1287244D1*
X997932Y1292948D1*
Y1301570D1*
X995014Y1307340D1*
X989310Y1313044D1*
X969214Y1389892D2*
Y1415759D1*
X966362Y1424314D1*
X963444Y1427233D1*
X957740Y1430085D1*
X949118D1*
X943415Y1427233D1*
X940496Y1424314D1*
X937644Y1415759D1*
Y1389892D1*
X997932D1*
X937644Y1448612D2*
X940496Y1451464D1*
X937644Y1454382D1*
X934726Y1451464D1*
X937644Y1448612D1*
X957740Y1451464D2*
X997932D1*
X957740Y1472909D2*
X1018028D1*
X966362D2*
X960659Y1478679D1*
X957740Y1484383D1*
Y1493005D1*
X960659Y1498775D1*
X966362Y1504479D1*
X974984Y1507397D1*
X980755D1*
X989310Y1504479D1*
X995080Y1498775D1*
X997932Y1493005D1*
Y1484383D1*
X995080Y1478679D1*
X989310Y1472909D1*
X937644Y1525924D2*
X997932D1*
X957740Y1554642D2*
X986458Y1525924D1*
X974984Y1537398D2*
X997932Y1557494D1*
X937644Y1576021D2*
X940496Y1578873D1*
X937644Y1581791D1*
X934726Y1578873D1*
X937644Y1576021D1*
X957740Y1578873D2*
X997932D1*
X957740Y1600318D2*
X997932D1*
X969214D2*
X960592Y1608940D1*
X957740Y1614711D1*
Y1623266D1*
X960592Y1629036D1*
X969214Y1631888D1*
X997932D1*
X966362Y1681985D2*
X960592Y1679134D1*
X957740Y1670511D1*
Y1661889D1*
X960592Y1653267D1*
X966362Y1650415D1*
X972066Y1653267D1*
X974984Y1659038D1*
X977836Y1673363D1*
X980688Y1679134D1*
X986458Y1681985D1*
X989310D1*
X995014Y1679134D1*
X997932Y1670511D1*
Y1661889D1*
X995014Y1653267D1*
X989310Y1650415D1*
X2047466Y177968D2*
X2107754D1*
Y198064D1*
X2104836Y206686D1*
X2099132Y212456D1*
X2093362Y215308D1*
X2084806Y218160D1*
X2070414D1*
X2061792Y215308D1*
X2056088Y212456D1*
X2050318Y206686D1*
X2047466Y198064D1*
Y177968D1*
Y256783D2*
X2107754D1*
X2047466Y236687D2*
Y276879D1*
X2076184Y295406D2*
Y321206D1*
X2073266Y329828D1*
X2070414Y332746D1*
X2064710Y335598D1*
X2058940D1*
X2053236Y332746D1*
X2050318Y329828D1*
X2047466Y321206D1*
Y295406D1*
X2107754D1*
X2076184Y315502D2*
X2107754Y335598D1*
X2147457Y198064D2*
X2207745D1*
X2147457Y177968D2*
Y218160D1*
Y236687D2*
X2207745Y276879D1*
X2147457D2*
X2207745Y236687D1*
X2177634Y295406D2*
Y328568D1*
X2147457Y364339D2*
X2150309Y358569D1*
X2156079Y352865D1*
X2161783Y349947D1*
X2170405Y347095D1*
X2184797D1*
X2193353Y349947D1*
X2199123Y352865D1*
X2204827Y358569D1*
X2207745Y364339D1*
Y375813D1*
X2204827Y381517D1*
X2199123Y387287D1*
X2193353Y390139D1*
X2184797Y392991D1*
X2170405D1*
X2161783Y390139D1*
X2156079Y387287D1*
X2150309Y381517D1*
X2147457Y375813D1*
Y364339D1*
X2276166Y177968D2*
Y203768D1*
X2273247Y212390D1*
X2270396Y215308D1*
X2264692Y218160D1*
X2258922D1*
X2253218Y215308D1*
X2250299Y212390D1*
X2247448Y203768D1*
Y177968D1*
X2307736D1*
X2276166Y198064D2*
X2307736Y218160D1*
X2247448Y236687D2*
X2307736Y276879D1*
X2247448D2*
X2307736Y236687D1*
X2277625Y295406D2*
Y328568D1*
X2247448Y347095D2*
X2307736D1*
X2347505Y183738D2*
Y215242D1*
X2370453Y198064D1*
Y206686D1*
X2373305Y212390D1*
X2376156Y215242D1*
X2384779Y218160D1*
X2390482D1*
X2399104Y215242D1*
X2404875Y209538D1*
X2407726Y200916D1*
Y192294D1*
X2404874Y183738D1*
X2401956Y180886D1*
X2396252Y177968D1*
X2347438Y236687D2*
X2407726Y259635D1*
X2347438Y282583D1*
X2347505Y306880D2*
Y338384D1*
X2370453Y321206D1*
Y329828D1*
X2373305Y335532D1*
X2376156Y338384D1*
X2384778Y341302D1*
X2390482D1*
X2399104Y338384D1*
X2404874Y332680D1*
X2407726Y324058D1*
Y315436D1*
X2404874Y306880D1*
X2401956Y304028D1*
X2396252Y301110D1*
X2461817Y221012D2*
X2456113Y218160D1*
X2450343Y212390D1*
X2447491Y206686D1*
Y195212D1*
X2450343Y189442D1*
X2456113Y183738D1*
X2461817Y180820D1*
X2470439Y177968D1*
X2484831D1*
X2493387Y180820D1*
X2499157Y183738D1*
X2504861Y189442D1*
X2507779Y195212D1*
Y206686D1*
X2504861Y212390D1*
X2499157Y218160D1*
X2493387Y221012D1*
X2447491Y259635D2*
X2507779D1*
X2447491Y239539D2*
Y279731D1*
X2456113Y338450D2*
X2450343Y332746D1*
X2447491Y324124D1*
Y312650D1*
X2450343Y304028D1*
X2456113Y298258D1*
X2461817D1*
X2467587Y301176D1*
X2470439Y304028D1*
X2473291Y309732D1*
X2479061Y326976D1*
X2481913Y332746D1*
X2484831Y335598D1*
X2490535Y338450D1*
X2499157D1*
X2504861Y332746D1*
X2507779Y324124D1*
Y312650D1*
X2504861Y304028D1*
X2499157Y298258D1*
X2561808Y221012D2*
X2556104Y218160D1*
X2550334Y212390D1*
X2547482Y206686D1*
Y195212D1*
X2550334Y189442D1*
X2556104Y183738D1*
X2561808Y180820D1*
X2570430Y177968D1*
X2584822D1*
X2593377Y180820D1*
X2599148Y183738D1*
X2604851Y189442D1*
X2607770Y195212D1*
Y206686D1*
X2604852Y212390D1*
X2599148Y218160D1*
X2593378Y221012D1*
X2584822D1*
Y206686D1*
X2547482Y279731D2*
X2607770D1*
X2547482Y239539D1*
X2607770D1*
X2547482Y298258D2*
X2607770D1*
Y318354D1*
X2604851Y326976D1*
X2599148Y332746D1*
X2593378Y335598D1*
X2584822Y338450D1*
X2570430D1*
X2561808Y335598D1*
X2556104Y332746D1*
X2550334Y326976D1*
X2547482Y318354D1*
Y298258D1*
X1816139Y674291D2*
D90*
Y624593D1*
X1896523D1*
Y674291D1*
X1854430Y624593D2*
Y655190D1*
X1827635Y752584D2*
X1819942Y744978D1*
X1816139Y733482D1*
Y718184D1*
X1819942Y706688D1*
X1827635Y698994D1*
X1835240D1*
X1842934Y702885D1*
X1846736Y706688D1*
X1850539Y714293D1*
X1858232Y737285D1*
X1862035Y744978D1*
X1865926Y748781D1*
X1873531Y752584D1*
X1885027D1*
X1892632Y744978D1*
X1896523Y733482D1*
Y718184D1*
X1892632Y706688D1*
X1885027Y698994D1*
X1858232Y777286D2*
Y811775D1*
X1854430Y823182D1*
X1850539Y827073D1*
X1842934Y830876D1*
X1831438D1*
X1823833Y827073D1*
X1819942Y823182D1*
X1816139Y811775D1*
Y777286D1*
X1896523D1*
X1816228Y874680D2*
X1820030Y863272D1*
X1827635Y859381D1*
X1835329D1*
X1842934Y863272D1*
X1846825Y870877D1*
X1850627Y886176D1*
X1854430Y897672D1*
X1862123Y905277D1*
X1869729Y909079D1*
X1881225D1*
X1888830Y905277D1*
X1892721Y901474D1*
X1896523Y889978D1*
Y874680D1*
X1892721Y863272D1*
X1888830Y859381D1*
X1881225Y855578D1*
X1869729D1*
X1862123Y859381D1*
X1854430Y867075D1*
X1850627Y878482D1*
X1846825Y893781D1*
X1842934Y901474D1*
X1835329Y905277D1*
X1827635D1*
X1820030Y901474D1*
X1816228Y889978D1*
Y874680D1*
X1835329Y937673D2*
X1831526D1*
X1823833Y941476D1*
X1820030Y945278D1*
X1816228Y952972D1*
Y968270D1*
X1820030Y975875D1*
X1823833Y979678D1*
X1831526Y983569D1*
X1839131D1*
X1846825Y979678D1*
X1858232Y972073D1*
X1896523Y933782D1*
Y987371D1*
X1827635Y1057970D2*
X1820030Y1054168D1*
X1816228Y1042672D1*
Y1035066D1*
X1820030Y1023570D1*
X1831526Y1015877D1*
X1850627Y1012074D1*
X1869729D1*
X1885027Y1015877D1*
X1892721Y1023570D1*
X1896523Y1035066D1*
Y1038869D1*
X1892721Y1050277D1*
X1885027Y1057970D1*
X1873531Y1061773D1*
X1869729D1*
X1858232Y1057970D1*
X1850627Y1050277D1*
X1846825Y1038869D1*
Y1035066D1*
X1850627Y1023570D1*
X1858232Y1015877D1*
X1869729Y1012074D1*
X1827635Y1132371D2*
X1820030Y1128569D1*
X1816228Y1117073D1*
Y1109468D1*
X1820030Y1097972D1*
X1831526Y1090278D1*
X1850627Y1086475D1*
X1869729D1*
X1885027Y1090278D1*
X1892721Y1097972D1*
X1896523Y1109468D1*
Y1113270D1*
X1892721Y1124678D1*
X1885027Y1132371D1*
X1873531Y1136174D1*
X1869729D1*
X1858232Y1132371D1*
X1850627Y1124678D1*
X1846825Y1113270D1*
Y1109468D1*
X1850627Y1097972D1*
X1858232Y1090278D1*
X1869729Y1086475D1*
G04 BoardOutline*
X0Y3937008D2*
D11*
Y0D1*
X2671476D1*
Y381290D1*
X3102772D1*
Y0D1*
X3937008D1*
Y3937008D1*
X0D1*
M02*
