G04 DipTrace 3.0.0.0*
G04 BottomMask.gbr*
%MOIN*%
G04 #@! TF.FileFunction,Soldermask,Bot*
G04 #@! TF.Part,Single*
%ADD11C,0.006*%
%ADD46C,0.14*%
%ADD51C,0.038*%
%ADD53C,0.067055*%
%ADD67C,0.098*%
%ADD69C,0.074929*%
%ADD71R,0.074929X0.074929*%
%ADD85C,0.098*%
%FSLAX26Y26*%
G04*
G70*
G90*
G75*
G01*
G04 BotMask*
%LPD*%
D51*
X2052661Y712575D3*
X1296332Y631316D3*
X1433846Y1256382D3*
X1246327D3*
X1633867Y1793938D3*
X1815136Y2181479D3*
X2658975Y1806440D3*
X2927753Y2181479D3*
X1515105Y350037D3*
X1433846Y1256382D3*
X1046306Y1368894D3*
X2552714Y1375144D3*
X3390302Y3394106D3*
X858581Y3400357D3*
X1227575Y3394106D3*
X1596364Y3400357D3*
X1958902Y3406608D3*
X2321440Y3394106D3*
X2677727D3*
X3034014D3*
X858581Y3400357D3*
X1227575Y3394106D3*
X1777633Y2131474D3*
X1340087Y2281490D3*
X1396354Y2125018D3*
X3259038Y3037819D3*
X3027764Y2844049D3*
X665016Y3050320D3*
X1690123Y2331531D3*
X1033804Y3044070D3*
X1690123Y2381531D3*
X1527606Y2531516D3*
Y2969062D3*
X1746379Y3037819D3*
X1683873Y2481531D3*
X2096416Y3037819D3*
X2152672Y2650278D3*
X2465205Y3037819D3*
X1977654Y2581531D3*
X2821492Y3037819D3*
Y2719035D3*
X2577717Y1862696D3*
X2727732Y1423623D3*
X2959007Y2118972D3*
X1471157Y2037714D3*
X1646369Y1987709D3*
X702315Y3287844D3*
X1071104Y3288050D3*
X1421140D3*
X1777428Y3287845D3*
X833783Y3050320D3*
X702315Y3287844D3*
X1208823Y3044070D3*
X2133715Y3294301D3*
X2271434Y3037819D3*
X1527606Y3081573D3*
X2640223Y3037819D3*
X2465205Y3281594D3*
X2990260Y3044070D3*
X2821492Y3294096D3*
X3190281Y3269093D3*
X3346547Y3037819D3*
X2113583Y187520D3*
X1908896Y3037819D3*
X1246327Y1843944D3*
X1196322Y1987709D3*
X1308833Y1812690D3*
X1133815Y2081469D3*
D3*
X489793Y3275549D3*
X2340192Y2681531D3*
X502294Y2906760D3*
X2352693Y2631526D3*
X502294Y2531720D3*
X2358944Y2581521D3*
X502294Y2169182D3*
X2371445Y2531516D3*
X502294Y1912701D3*
X2377696Y2481510D3*
X502294Y1550163D3*
X2377696Y2431505D3*
X508545Y1168873D3*
X2383946Y2381500D3*
X496043Y806335D3*
X2390197Y2331495D3*
X1571361Y350037D3*
Y500052D3*
X2283915Y1112617D3*
X946295Y2681531D3*
X577507Y3050320D3*
X946295Y3044070D3*
X1102556Y2631531D3*
X1308833Y3037819D3*
X1158818Y2581521D3*
X1665121Y3037819D3*
X1158818Y2531516D3*
X2015157Y3037819D3*
X1158818Y2481510D3*
X2377696Y3037819D3*
X1771382Y2794043D3*
X2733983Y3037819D3*
Y2800294D3*
X2283936Y1187625D3*
D85*
X289976Y3137829D3*
Y3287829D3*
Y2781542D3*
Y2931542D3*
Y2425255D3*
Y2575255D3*
Y2068967D3*
Y2218967D3*
Y1712680D3*
Y1862680D3*
Y1356392D3*
Y1506392D3*
Y1000105D3*
Y1150105D3*
Y643818D3*
Y793818D3*
D71*
X1746379Y87509D3*
D69*
X1923545D3*
D67*
X1697167Y185934D3*
X1972757D3*
D85*
X2965257Y662570D3*
X2815257D3*
X3652829Y800084D3*
Y650084D3*
Y1156371D3*
Y1006371D3*
Y1512659D3*
Y1362659D3*
Y1868946D3*
Y1718946D3*
Y2225234D3*
Y2075234D3*
Y2581521D3*
Y2431521D3*
Y2937808D3*
Y2787808D3*
Y3294096D3*
Y3144096D3*
D71*
X1390092Y87509D3*
D69*
X1567257D3*
D67*
X1340879Y185934D3*
X1616470D3*
D85*
X646264Y3650383D3*
X796264D3*
X1002551D3*
X1152551D3*
X1358839D3*
X1508839D3*
X1715126D3*
X1865126D3*
X2071413D3*
X2221413D3*
X2427701D3*
X2577701D3*
X2783988D3*
X2933988D3*
X3140276D3*
X3290276D3*
D46*
X3740157Y196850D3*
X196850D3*
Y3740157D3*
X3740157D3*
D53*
X2083915Y93760D3*
X2183915D3*
X2283915D3*
X2383915D3*
X2483915D3*
X2583915D3*
G04 BoardOutline*
X0Y3937008D2*
D11*
Y0D1*
X2671476D1*
Y381290D1*
X3102772D1*
Y0D1*
X3937008D1*
Y3937008D1*
X0D1*
M02*
