M48
INCH
T01C0.01
T02C0.0354
T03C0.0394
T04C0.045
T05C0.0512
T06C0.14
%
T01
X+020527Y+007126
X+022839Y+011126
X+022839Y+011876
X+025527Y+013751
X+027277Y+014236
X+026590Y+018064
X+025777Y+018627
X+029590Y+021190
X+029278Y+021815
X+028215Y+027190
X+027340Y+028003
X+027340Y+030378
X+028215Y+030378
X+029903Y+030441
X+030278Y+028440
X+032590Y+030378
X+033465Y+030378
X+031903Y+032691
X+030340Y+033941
X+028215Y+032941
X+026777Y+033941
X+024652Y+032816
X+023214Y+033941
X+021337Y+032943
X+019589Y+034066
X+017774Y+032878
X+015964Y+034004
X+014211Y+032880
X+012276Y+033941
X+010711Y+032880
X+008586Y+034004
X+007023Y+032878
X+004898Y+032755
X+005775Y+030503
X+006650Y+030503
X+008338Y+030503
X+009463Y+030441
X+010338Y+030441
X+012088Y+030441
X+013088Y+030378
X+015276Y+030816
X+015276Y+029691
X+016651Y+030378
X+017464Y+030378
X+019089Y+030378
X+020152Y+030378
X+020964Y+030378
X+022714Y+030378
X+023777Y+030378
X+024652Y+030378
X+026402Y+030378
X+023402Y+026815
X+023527Y+026315
X+023589Y+025815
X+023714Y+025315
X+023777Y+024815
X+023777Y+024315
X+023839Y+023815
X+023902Y+023315
X+021527Y+026503
X+019777Y+025815
X+017714Y+027940
X+016839Y+024815
X+016901Y+023815
X+016901Y+023315
X+018151Y+021815
X+017776Y+021315
X+016464Y+019877
X+014712Y+020377
X+013964Y+021250
X+013401Y+022815
X+011588Y+024815
X+011588Y+025315
X+011588Y+025815
X+011026Y+026315
X+009463Y+026815
X+005023Y+025317
X+005023Y+021692
X+005023Y+019127
X+005023Y+015502
X+005085Y+011689
X+004960Y+008063
X+010463Y+013689
X+012463Y+012564
X+014338Y+012564
X+013088Y+018127
X+012463Y+018439
X+011963Y+019877
X+011338Y+020815
X+016339Y+017939
X+015276Y+025315
X+005023Y+029068
X+012963Y+006313
X+015714Y+005001
X+015714Y+003500
X+015151Y+003500
X+021136Y+001875
X+033903Y+033941
T02
X+020839Y+000938
X+021839Y+000938
X+022839Y+000938
X+023839Y+000938
X+024839Y+000938
X+025839Y+000938
T03
X+017464Y+000875
X+019235Y+000875
X+015673Y+000875
X+013901Y+000875
T04
X+002900Y+031378
X+002900Y+032878
X+002900Y+029315
X+002900Y+027815
X+002900Y+025753
X+002900Y+024253
X+002900Y+022190
X+002900Y+020690
X+002900Y+018627
X+002900Y+017127
X+002900Y+015064
X+002900Y+013564
X+002900Y+011501
X+002900Y+010001
X+002900Y+007938
X+002900Y+006438
X+028153Y+006626
X+029653Y+006626
X+036528Y+006501
X+036528Y+008001
X+036528Y+010064
X+036528Y+011564
X+036528Y+013627
X+036528Y+015127
X+036528Y+017189
X+036528Y+018689
X+036528Y+020752
X+036528Y+022252
X+036528Y+024315
X+036528Y+025815
X+036528Y+027878
X+036528Y+029378
X+036528Y+031441
X+036528Y+032941
X+032903Y+036504
X+031403Y+036504
X+029340Y+036504
X+027840Y+036504
X+025777Y+036504
X+024277Y+036504
X+022214Y+036504
X+020714Y+036504
X+018651Y+036504
X+017151Y+036504
X+015088Y+036504
X+013588Y+036504
X+011526Y+036504
X+010026Y+036504
X+007963Y+036504
X+006463Y+036504
T05
X+016972Y+001859
X+016165Y+001859
X+013409Y+001859
X+019728Y+001859
T00
M30
