G04 DipTrace 3.0.0.0*
G04 Top.gbr*
%MOIN*%
G04 #@! TF.FileFunction,Copper,L1,Top*
G04 #@! TF.Part,Single*
%ADD11C,0.006*%
G04 #@! TA.AperFunction,Conductor*
%ADD14C,0.02*%
%ADD15C,0.01*%
%ADD16C,0.008*%
G04 #@! TA.AperFunction,ViaPad*
%ADD17C,0.03*%
G04 #@! TA.AperFunction,Conductor*
%ADD18C,0.023622*%
%ADD19C,0.025591*%
G04 #@! TA.AperFunction,CopperBalancing*
%ADD20C,0.025*%
%ADD21C,0.013*%
G04 #@! TA.AperFunction,ComponentPad*
%ADD23C,0.09*%
%ADD24R,0.051181X0.059055*%
%ADD26R,0.055118X0.112205*%
%ADD27R,0.059055X0.051181*%
%ADD29R,0.055118X0.088583*%
%ADD31R,0.15748X0.062992*%
%ADD32R,0.062992X0.133858*%
G04 #@! TA.AperFunction,ComponentPad*
%ADD33R,0.066929X0.066929*%
%ADD34C,0.066929*%
%ADD35C,0.09*%
%ADD36R,0.07874X0.023622*%
%ADD37R,0.06X0.095*%
%ADD39R,0.037402X0.084646*%
%ADD40R,0.127953X0.084646*%
%ADD42R,0.041339X0.025591*%
%ADD44R,0.025591X0.041339*%
G04 #@! TA.AperFunction,ComponentPad*
%ADD45C,0.059055*%
%FSLAX26Y26*%
G04*
G70*
G90*
G75*
G01*
G04 Top*
%LPD*%
X2170029Y716307D2*
D14*
X2056394D1*
X2052661Y712575D1*
X1296332Y631316D2*
X1246327D1*
X1090060Y787583D1*
Y2150226D1*
X1121314Y2181479D1*
X1240024D1*
X1240076Y2181531D1*
X1446295D1*
X1521356Y2106471D1*
Y1950205D1*
X1552609Y1918951D1*
X2265184D1*
X2290186Y1943954D1*
Y2131474D1*
X2340192Y2181479D1*
X2465152D1*
X2465205Y2181531D1*
X2027864Y500052D2*
Y687777D1*
X2052661Y712575D1*
X1540108Y1188748D2*
D15*
X1538984Y1187625D1*
X1433846D1*
Y1256382D1*
X1246327D2*
Y1406398D1*
X1633867Y1793938D1*
X1815136Y2181479D2*
X1610207D1*
X1610155Y2181531D1*
X1433846Y1187625D2*
X1385667Y1185799D1*
X1383841Y1187625D1*
X1633867Y1793938D2*
Y1800189D1*
X2652724D1*
X2658975Y1806440D1*
X2927753Y2181479D2*
X2835336D1*
X2835283Y2181531D1*
X1567257Y87509D2*
D16*
X1552609D1*
X1515105Y125013D1*
Y350037D1*
X2702730Y1237425D2*
D17*
Y1318888D1*
X2657091Y1364528D1*
X2627722Y1393896D1*
Y1481239D1*
X2627555Y1481406D1*
X2515210Y1237630D2*
X2530193D1*
X2657091Y1364528D1*
X533752Y87509D2*
Y175018D1*
X558755Y200021D1*
X633752D1*
X733752D1*
X833752D1*
X933752D1*
X1033752D1*
X1133752D1*
X1208823D1*
X1240076Y168768D1*
Y93833D1*
X1233752Y87509D1*
X633752D2*
Y200021D1*
X733752Y87509D2*
Y200021D1*
X833752Y87509D2*
Y200021D1*
X933752Y87509D2*
Y200021D1*
X1033752Y87509D2*
Y200021D1*
X1133752Y87509D2*
Y200021D1*
X1208823D2*
X1214774Y194070D1*
Y268479D1*
X1240076Y293781D1*
X1283831D1*
X1315084Y325034D1*
Y493802D1*
X1046306Y762580D1*
Y1368894D1*
X2552714Y1375144D2*
X2634957D1*
X2627722Y1393896D1*
X3352593Y3444112D2*
D16*
X3358844Y3432007D1*
Y3394106D1*
X3390302D1*
X858581Y3400357D2*
Y3444112D1*
X1214869D2*
Y3394106D1*
X1227575D1*
X1571156Y3444112D2*
Y3406812D1*
X1577612Y3400357D1*
X1596364D1*
X1927444Y3444112D2*
Y3406608D1*
X1958902D1*
X2283731Y3444112D2*
Y3425564D1*
X2290186Y3412858D1*
Y3394106D1*
X2321440D1*
X2640018Y3444112D2*
Y3413063D1*
X2646269Y3406812D1*
X2658975Y3394106D1*
X2677727D1*
X2996306Y3444112D2*
Y3406812D1*
X3002556Y3400562D1*
X3009012Y3394106D1*
X3034014D1*
X2815241Y1281385D2*
D17*
Y1231385D1*
Y1181385D1*
Y1231385D2*
D3*
X864832Y3325349D2*
D16*
Y3375559D1*
X858581Y3381810D1*
Y3400357D1*
X1221119Y3325349D2*
Y3394106D1*
X1227575D1*
X1577407Y3325349D2*
X1577612Y3400357D1*
X1933694Y3325349D2*
Y3400357D1*
X1927444Y3406608D1*
X2289982Y3325349D2*
X2290186Y3394106D1*
X2646269Y3325349D2*
Y3406812D1*
X3358844Y3325349D2*
Y3394106D1*
X2815241Y1281385D2*
D18*
Y1331390D1*
D17*
X2727732D1*
X2702730Y1318888D1*
X3002556Y3325349D2*
D16*
Y3400562D1*
X2982909Y850089D2*
D17*
X3051723D1*
X3121524D1*
X3152777Y881343D1*
Y1131385D1*
Y1176827D1*
Y1231385D1*
Y1262633D1*
X3134025Y1281385D1*
X3082210D1*
D18*
X3027840D1*
Y1231385D2*
D17*
X3152777D1*
X3027840Y1181385D2*
D18*
X3082210D1*
D17*
X3148219D1*
X3152777Y1176827D1*
X3027840Y1131385D2*
X3152777D1*
X2965257Y987604D2*
D19*
X3000927D1*
D17*
X3040265D1*
X3046516Y981353D1*
Y855297D1*
X3051723Y850089D1*
X2965257Y1062407D2*
D19*
X3000927D1*
D17*
X3040470D1*
X3046516Y1056361D1*
Y981353D1*
X2277685Y1662675D2*
Y1718930D1*
X2327690Y1768936D1*
X2537004D1*
X2696274D1*
X2721482D1*
X2899234D1*
X3052766D1*
X3084020Y1737682D1*
Y1675176D1*
X3077769Y1668925D1*
X2909001Y1681427D2*
Y1759168D1*
X2899234Y1768936D1*
X2721482Y1631217D2*
Y1768936D1*
X2537004Y1709752D2*
Y1768936D1*
Y1481406D2*
Y1709752D1*
X1708671Y418794D2*
Y500052D1*
Y625270D1*
X1696374Y637567D1*
X1540108D1*
X1309038Y1031358D2*
Y1187625D1*
Y1369098D1*
X1371340Y1431400D1*
X1933899D1*
Y1506408D1*
X2196427Y1768936D1*
X2327690D1*
X1708671Y625270D2*
Y987399D1*
X1933899Y1212627D1*
Y1431400D1*
X3652829Y800084D2*
X3665331D1*
X3752840Y712575D1*
Y575060D1*
X3671581Y493802D1*
X3352798D1*
X3215283Y631316D1*
Y1737682D1*
X3184030Y1768936D1*
X3057194D1*
X3084020Y1737682D1*
X3752840Y712575D2*
X3761324Y704091D1*
Y1156371D1*
Y1478266D1*
Y1868946D1*
Y2225234D1*
Y2581521D1*
Y2937808D1*
Y3185601D1*
X3652829Y3294096D1*
Y2937808D2*
X3761324D1*
X3652829Y2581521D2*
X3761324D1*
X3652829Y2225234D2*
X3761324D1*
X3652829Y1868946D2*
X3761324D1*
X3652829Y1512659D2*
X3726932D1*
X3761324Y1478266D1*
X3652829Y1156371D2*
X3761324D1*
X2465205Y2281531D2*
D18*
X2519575D1*
D17*
X2646432D1*
X2696479Y2231484D1*
Y2031531D1*
Y1956660D1*
X2696274Y1956455D1*
Y1768936D1*
X2835283Y2031531D2*
X2696479D1*
X2465205Y2281531D2*
D18*
X2410835D1*
D17*
X2308980D1*
X2158923Y2131474D1*
X1777633D1*
X1340087Y2281490D2*
X1240118D1*
D18*
X1240076Y2281531D1*
X1396354Y1956000D2*
D17*
Y2125018D1*
X1865346Y500052D2*
D16*
X1708671D1*
X533752Y412509D2*
Y618815D1*
X558755Y643818D1*
Y2994064D1*
X533752Y3019067D1*
Y3206382D1*
Y3387856D1*
X608760Y3462864D1*
X696269D1*
X714816Y3481411D1*
Y3506618D1*
Y3543917D1*
X765026Y3594127D1*
Y3619146D1*
X796264Y3650383D1*
X821180Y3534663D2*
Y3537974D1*
X765026Y3594127D1*
X746274Y3131579D2*
Y3000315D1*
X740024Y2994064D1*
X558755D1*
X577507Y3206382D2*
X533752D1*
X1077352Y3506614D2*
X1152551Y3581814D1*
Y3650383D1*
X1177467Y3534663D2*
Y3553501D1*
X1149155Y3581814D1*
X1152551D1*
X633752Y412509D2*
Y600052D1*
X808781Y775081D1*
Y2744038D1*
X890039Y2825297D1*
Y2987814D1*
Y3206382D1*
Y3244091D1*
X908791Y3262843D1*
Y3419109D1*
X952546Y3462864D1*
X1058807D1*
X1071308Y3475365D1*
Y3500571D1*
X1077352Y3506614D1*
X946295Y3206382D2*
X890039D1*
X1121314Y3131579D2*
Y3037819D1*
X1071308Y2987814D1*
X890039D1*
X733752Y412509D2*
Y631295D1*
X827533Y725076D1*
Y2737787D1*
X896290Y2806545D1*
X1246327D1*
X1265079Y2825297D1*
Y2944059D1*
Y3206382D1*
Y3412858D1*
X1315084Y3462864D1*
X1440097D1*
X1446348Y3469114D1*
Y3493912D1*
X1433642Y3506618D1*
X1489898Y3562874D1*
X1502400D1*
X1508839Y3569312D1*
Y3650383D1*
X1533755Y3534663D2*
Y3548934D1*
X1519815Y3562874D1*
X1502400D1*
X1308833Y3206382D2*
X1265079D1*
X1477601Y3131579D2*
Y3081573D1*
X1558860Y3000315D1*
X1577612D1*
X1590113Y2987814D1*
Y2956560D1*
X1577612Y2944059D1*
X1265079D1*
X833752Y412509D2*
Y525024D1*
X846285Y537556D1*
Y2731537D1*
X902541Y2787793D1*
X1308833D1*
X1440097Y2919056D1*
X1608865D1*
X1621366Y2931558D1*
Y2969062D1*
Y3206382D1*
Y3437861D1*
X1646369Y3462864D1*
X1783883D1*
X1790134Y3469114D1*
Y3481615D1*
X1783883Y3487866D1*
Y3506618D1*
X1789929D1*
Y3512664D1*
X1845488Y3568223D1*
X1858891Y3581626D1*
Y3644148D1*
X1865126Y3650383D1*
X1890042Y3534663D2*
X1879049D1*
X1845488Y3568223D1*
X1665121Y3206382D2*
X1621366D1*
X1827638Y3131579D2*
Y2987814D1*
X1808886Y2969062D1*
X1621366D1*
X933752Y412509D2*
Y443839D1*
X865037Y512554D1*
Y2725286D1*
X908791Y2769041D1*
X1321335D1*
X1452598Y2900304D1*
X1958902D1*
X1965152Y2906555D1*
Y2969062D1*
Y3206382D1*
X1971403D1*
Y3369104D1*
X1996406Y3394106D1*
Y3444112D1*
X2015157Y3462864D1*
X2140171D1*
X2146217Y3468909D1*
Y3506618D1*
X2217907Y3578104D1*
X2227680Y3587877D1*
Y3644117D1*
X2221413Y3650383D1*
X2246329Y3534663D2*
Y3549681D1*
X2217907Y3578104D1*
X2015157Y3206382D2*
X1971403D1*
X2183925Y3131579D2*
Y2987814D1*
X2165173Y2969062D1*
X1965152D1*
X1033752Y412509D2*
Y481353D1*
X983799Y531306D1*
X902541D1*
X883789Y550058D1*
Y2719035D1*
X915042Y2750289D1*
X1333836D1*
X1458849Y2875302D1*
X2327690D1*
Y2969062D1*
Y3206382D1*
Y3337850D1*
X2346442Y3356602D1*
Y3437861D1*
X2371445Y3462864D1*
X2496458D1*
X2508959Y3475365D1*
Y3506618D1*
X2502504D1*
Y3543917D1*
X2508959Y3550373D1*
X2602719D1*
Y3556623D1*
X2599510Y3553415D1*
X2602719Y3556623D2*
Y3575375D1*
X2583967Y3594127D1*
Y3644117D1*
X2577701Y3650383D1*
X2602617Y3534663D2*
X2599510D1*
Y3553415D1*
X2377696Y3206382D2*
X2327690D1*
X2552714Y3131579D2*
Y2981563D1*
X2540213Y2969062D1*
X2327690D1*
X1133752Y412509D2*
Y512617D1*
X1083810Y562559D1*
X915042D1*
X902541Y575060D1*
Y2712785D1*
X921293Y2731537D1*
X1346337D1*
X1465100Y2850299D1*
X2633972D1*
X2683978Y2900304D1*
Y2969062D1*
Y3206382D1*
Y3350352D1*
X2708980Y3375354D1*
Y3444112D1*
X2727732Y3462864D1*
X2846495D1*
X2858791Y3475160D1*
Y3506618D1*
Y3537667D1*
X2883999Y3562874D1*
X2933988D1*
Y3650383D1*
X2958904Y3534663D2*
Y3556726D1*
X2952756Y3562874D1*
X2933988D1*
X2733983Y3206382D2*
X2683978D1*
X2902751Y3131579D2*
Y2987814D1*
X2883999Y2969062D1*
X2683978D1*
X1233752Y412509D2*
Y487625D1*
X1127564Y593812D1*
X940045D1*
X921293Y612564D1*
Y2700283D1*
X933794Y2712785D1*
X1358839D1*
X1471350Y2825297D1*
X3009012D1*
X3027764Y2844049D1*
X3034014Y2850299D1*
Y3206382D1*
X3040265D1*
Y3350352D1*
X3065268Y3375354D1*
Y3425360D1*
X3102772Y3462864D1*
X3196531D1*
X3209033Y3475365D1*
Y3506618D1*
X3215079D1*
Y3562669D1*
X3227785Y3575375D1*
X3315294D1*
X3309043Y3581626D1*
X3290276D1*
Y3650383D1*
X3315192Y3534663D2*
X3315294Y3575375D1*
X3077769Y3206382D2*
X3040265D1*
X3259038Y3131579D2*
Y3037819D1*
X665016Y3131579D2*
Y3050320D1*
X1690123Y2331531D2*
X1610155D1*
X1033804Y3131579D2*
Y3044070D1*
X1690123Y2381531D2*
X1610155D1*
Y2431531D2*
X1540081D1*
X1527606Y2444007D1*
Y2531516D1*
Y2969062D2*
X1471350D1*
X1383841Y3056571D1*
Y3131579D1*
X1390092D1*
X1746379D2*
Y3037819D1*
X1683873Y2481531D2*
X1610155D1*
X2096416Y3131579D2*
Y3037819D1*
X2152672Y2650278D2*
Y2587772D1*
X2096432Y2531531D1*
X1610155D1*
X2465205Y3131579D2*
Y3037819D1*
X1977654Y2581531D2*
X1610155D1*
X2821492Y3131579D2*
Y3037819D1*
Y2719035D2*
X2052661D1*
X1965152Y2631526D1*
X1610160D1*
X1610155Y2631531D1*
Y2681531D2*
X1971403D1*
X2040160Y2750289D1*
X3134025D1*
X3165278Y2781542D1*
Y3131579D1*
X2815257Y662570D2*
D17*
X2815241D1*
X2708980Y768831D1*
Y943849D1*
Y948644D1*
Y1025123D1*
X2815241Y1131385D1*
X2708980Y943849D2*
X2700388Y935257D1*
X2545467D1*
X2533909Y946815D1*
X2515210Y965514D1*
Y1048496D1*
X2526097D1*
X2633972Y1156371D1*
X2696479D1*
X2702730Y1162622D1*
X2446453Y1481406D2*
Y1369150D1*
Y1117253D1*
X2515210Y1048496D1*
X2277685Y1528816D2*
Y1437651D1*
X2333941Y1381395D1*
X2434207D1*
X2446453Y1369150D1*
X3077951Y1587923D2*
Y1419081D1*
X3065268Y1406398D1*
X3015262D1*
X2909001D1*
X2744958D1*
X2727732Y1423623D1*
X2715231Y1436125D1*
Y1550163D1*
X2721482Y1556413D1*
X2909001Y1492293D2*
Y1406398D1*
X2815241Y1131385D2*
Y1131369D1*
X2877748D1*
X2921503Y1175123D1*
Y1312638D1*
X3015262Y1406398D1*
X1390092Y87509D2*
D16*
Y300031D1*
X1508854Y418794D1*
X1633867D1*
X2465205Y2231531D2*
D17*
X2571419D1*
X2615220Y2187730D1*
Y1962706D1*
X2621471Y1956455D1*
X2596469D1*
X2577717Y1937703D1*
Y1862696D1*
X2835283Y2081531D2*
D16*
X2909064D1*
X2921503Y2093970D1*
Y2118972D1*
X2909001Y2131474D1*
X2835341D1*
X2835283Y2131531D1*
X2921503Y2118972D2*
X2959007D1*
X2170029Y637567D2*
D17*
X2271434D1*
X2283936Y625066D1*
Y500052D1*
X2327690Y443797D1*
X2533909D1*
Y587562D1*
Y800084D1*
Y946815D1*
X2446453Y587562D2*
D16*
X2533909D1*
X2446453Y800084D2*
X2533909D1*
X289976Y643818D2*
X177465D1*
Y1000105D1*
Y1356392D1*
Y1712680D1*
Y2068967D1*
Y2425255D1*
Y2805373D1*
Y3125328D1*
X183110Y3130974D1*
X227470Y3175333D1*
X252472D1*
X289976Y3137829D1*
Y2781542D2*
X201295D1*
X177465Y2805373D1*
X289976Y2425255D2*
X177465D1*
X289976Y2068967D2*
X177465D1*
X289976Y1712680D2*
X177465D1*
X289976Y1356392D2*
X177465D1*
X289976Y1000105D2*
X177465D1*
X1610155Y2131531D2*
D17*
X1690066D1*
X1702625Y2118972D1*
Y2082199D1*
Y2074987D1*
Y2043965D1*
X1690123Y2031463D1*
X1646369D1*
X1610223D1*
X1610155Y2031531D1*
Y2081531D2*
D16*
X1696080D1*
X1702625Y2074987D1*
Y2082199D2*
D17*
X2172155D1*
X2321487Y2231531D1*
X2465205D1*
X1240076D2*
X1452551D1*
X1552609Y2131474D1*
X1610097D1*
X1610155Y2131531D1*
X1471157Y1956000D2*
D16*
Y2037714D1*
X1646369Y1987709D2*
Y2031463D1*
X640013Y3506618D2*
Y3656634D1*
X646264Y3650383D1*
X1002549Y3506614D2*
Y3525373D1*
X1002551Y3525375D1*
Y3650383D1*
X1358839Y3506618D2*
Y3650383D1*
X1715126Y3506618D2*
Y3650383D1*
X2071413Y3506618D2*
Y3650383D1*
X2427701Y3506618D2*
Y3606629D1*
X2446453Y3625381D1*
Y3631631D1*
X2427701Y3650383D1*
X2783988Y3506618D2*
Y3650383D1*
X3140276Y3506618D2*
Y3650383D1*
X183110Y3130974D2*
Y3374749D1*
X227470Y3419109D1*
X414990D1*
X646264Y3650383D1*
Y3706639D1*
X677517Y3737892D1*
X1002551D1*
X1358839D1*
X1715126D1*
X2071413D1*
X2427701D1*
X2783988D1*
X3052766D1*
X3140276Y3650383D1*
X2783988D2*
Y3737892D1*
X2427701Y3650383D2*
Y3737892D1*
X2071413Y3650383D2*
Y3737892D1*
X1715126Y3650383D2*
Y3737892D1*
X1358839Y3650383D2*
Y3737892D1*
X1002551Y3650383D2*
Y3737892D1*
X702315Y3337850D2*
D15*
Y3287844D1*
X1071104Y3337850D2*
D16*
Y3288050D1*
X1421140Y3337850D2*
Y3288050D1*
X1777428Y3337850D2*
Y3287845D1*
X833783Y3131579D2*
D15*
Y3050320D1*
X1208823Y3131579D2*
Y3044070D1*
X2133715Y3337850D2*
D16*
Y3294301D1*
X2271434Y3131579D2*
D15*
Y3037819D1*
X1565110Y3131579D2*
X1527606Y3081573D1*
X2640223Y3131579D2*
Y3037819D1*
X2490003Y3337850D2*
D16*
Y3306392D1*
X2465205Y3281594D1*
X2990260Y3131579D2*
D15*
Y3044070D1*
X2846290Y3337850D2*
D16*
Y3318894D1*
X2821492Y3294096D1*
X3202577Y3337850D2*
Y3281390D1*
X3190281Y3269093D1*
X3346547Y3131579D2*
D15*
Y3037819D1*
X2102667Y500052D2*
D16*
X2283936D1*
X2874706Y1025005D2*
D19*
X2839037D1*
D17*
X2785341D1*
X2708980Y948644D1*
X2583915Y93760D2*
Y187520D1*
Y393791D1*
X2533909Y443797D1*
X2113583Y187520D2*
X2583915D1*
X1908896Y3131579D2*
D15*
Y3037819D1*
X3502814Y656319D2*
D14*
X3646594D1*
X3652829Y650084D1*
X3509064Y1012606D2*
X3646594D1*
X3652829Y1006371D1*
X3509064Y1362643D2*
X3652814D1*
X3652829Y1362659D1*
X3502814Y1712680D2*
X3646563D1*
X3652829Y1718946D1*
X3509064Y2075218D2*
X3652814D1*
X3652829Y2075234D1*
X3515315Y2425255D2*
X3646563D1*
X3652829Y2431521D1*
X3509064Y2775291D2*
X3640312D1*
X3652829Y2787808D1*
X1540108Y795047D2*
X1220110D1*
X1158818Y856340D1*
Y2018962D1*
X1171319Y2031463D1*
X1196322D1*
X1240008D1*
X1240076Y2031531D1*
X2465205D2*
X2409017D1*
X2390197Y2012711D1*
Y1881448D1*
X2333941Y1825192D1*
X1377591D1*
X1321335Y1768936D1*
X1296332D1*
X1246327Y1818941D1*
Y1843944D1*
X1196322Y1987709D2*
Y2031463D1*
X2465205Y2081531D2*
X2384009D1*
X2358944Y2056466D1*
Y1900199D1*
X2315189Y1856445D1*
X1352588D1*
X1308833Y1812690D1*
X1133815Y2081469D2*
X1240013D1*
X1240076Y2081531D1*
X1540108Y716307D2*
X1236344D1*
X1127564Y825087D1*
Y2075218D1*
X1133815Y2081469D1*
X3652829Y3144096D2*
X3640344D1*
X3634077Y3137829D1*
X3509064D1*
X489793Y3331600D2*
D16*
Y3275549D1*
X2340192Y2681531D2*
X2465205D1*
X3152572Y1668925D2*
D14*
Y1588105D1*
X3152755Y1587923D1*
X2821492Y850089D2*
D17*
Y806335D1*
X2965257Y662570D1*
X2835283Y2331531D2*
D16*
X3171492D1*
X3277790Y2225234D1*
Y700073D1*
X3321545Y656319D1*
X3428010D1*
X2835283Y2381531D2*
X3171497D1*
X3309043Y2243986D1*
Y1068862D1*
X3365299Y1012606D1*
X3434261D1*
X2835283Y2431531D2*
X3184004D1*
X3340297Y2275239D1*
Y1412648D1*
X3390302Y1362643D1*
X3434261D1*
X2835283Y2481531D2*
X3196510D1*
X3377801Y2300241D1*
Y1762685D1*
X3427806Y1712680D1*
X3428010D1*
X2835283Y2531531D2*
X3202766D1*
X3409054Y2325244D1*
Y2100220D1*
X3434056Y2075218D1*
X3434261D1*
X2835283Y2581531D2*
X3277780D1*
X3434056Y2425255D1*
X3440512D1*
X2835283Y2631531D2*
X3115278D1*
X3259038Y2775291D1*
X3434261D1*
Y3137829D2*
Y3019272D1*
X3096521Y2681531D1*
X2835283D1*
X289976Y3287829D2*
D14*
X371219D1*
X414990Y3331600D1*
X289976Y2931542D2*
X396222D1*
X427491Y2962811D1*
X289976Y2575255D2*
X414974D1*
X427491Y2587772D1*
X289976Y2218967D2*
X421224D1*
X427491Y2225234D1*
X289976Y1862680D2*
X415005D1*
X427491Y1850194D1*
X289976Y1506392D2*
X402504D1*
X427491Y1481406D1*
X289976Y1150105D2*
X396253D1*
X433741Y1112617D1*
X289976Y793818D2*
X377501D1*
X421240Y750079D1*
X1383841Y1031358D2*
X1540017D1*
X1540108Y1031268D1*
X2371650Y800084D2*
D16*
Y806744D1*
X2446248Y881343D1*
X2371650Y587562D2*
Y594222D1*
X2446248Y668820D1*
X2371445Y881343D2*
D14*
Y962601D1*
X2302688Y1031358D1*
X2170119D1*
X2170029Y1031268D1*
X2371445Y668820D2*
X2340192D1*
X2308938Y700073D1*
Y943849D1*
X2296437Y956350D1*
X2173852D1*
X2170029Y952528D1*
X502294Y2962811D2*
D16*
Y2906760D1*
X2352693Y2631526D2*
X2465199D1*
X2465205Y2631531D1*
X502294Y2587772D2*
Y2531720D1*
X2358944Y2581521D2*
X2465194D1*
X2465205Y2581531D1*
X502294Y2225234D2*
Y2169182D1*
X2371445Y2531516D2*
X2465189D1*
X2465205Y2531531D1*
X502294Y1850194D2*
Y1912701D1*
X2377696Y2481510D2*
X2465184D1*
X2465205Y2481531D1*
X502294Y1481406D2*
Y1550163D1*
X2377696Y2431505D2*
X2465178D1*
X2465205Y2431531D1*
X508545Y1112617D2*
Y1168873D1*
X2383946Y2381500D2*
X2465173D1*
X2465205Y2381531D1*
X496043Y750079D2*
Y806335D1*
X2390197Y2331495D2*
X2465168D1*
X2465205Y2331531D1*
X1940150Y500052D2*
Y687572D1*
X2046411Y793833D1*
X2168815D1*
X2170029Y795047D1*
X1923545Y87509D2*
X1877643D1*
X1852640Y112512D1*
Y325034D1*
X1846390Y331285D1*
X1590113D1*
X1571361Y350037D1*
Y500052D2*
X1633867D1*
X790029Y3325349D2*
X783778D1*
Y3444112D1*
X664913Y3428402D2*
X743066D1*
X758776Y3444112D1*
X783778D1*
X1033702Y3428402D2*
X1093102D1*
X1108812Y3444112D1*
X1140066D1*
X1146316Y3325349D2*
X1140066Y3369104D1*
Y3444112D1*
X1383739Y3428402D2*
X1480643D1*
X1496353Y3444112D1*
Y3331600D1*
X1502604Y3325349D1*
X1858891D2*
Y3444112D1*
Y3431610D1*
X1852640Y3444112D1*
X1740026Y3428402D2*
X1765131Y3444112D1*
X1858891D1*
X2208928D2*
Y3431610D1*
X2202677Y3425360D1*
X2208928Y3431610D2*
Y3331600D1*
X2215178Y3325349D1*
X2096314Y3428402D2*
X2199635D1*
X2202677Y3425360D1*
X2452601Y3428402D2*
X2555756D1*
X2565215Y3437861D1*
Y3444112D1*
Y3437861D2*
Y3419109D1*
X2571466Y3412858D1*
Y3325349D1*
X2927753D2*
Y3428413D1*
X2921503D1*
Y3444112D1*
X2808888Y3428402D2*
X2921503Y3428413D1*
X3284041Y3325349D2*
Y3428402D1*
Y3437861D1*
X3277790Y3444112D1*
X3165176Y3428402D2*
X3284041D1*
X746274Y3206382D2*
X833783D1*
X1208823D2*
X1121314D1*
X1477601D2*
X1565110D1*
X1908896D2*
X1827638D1*
X2183925D2*
X2271434D1*
X2552714D2*
X2640223D1*
X2902751D2*
X2990260D1*
X3259038D2*
X3346547D1*
X665016D2*
Y3250341D1*
X627512Y3287845D1*
Y3337850D1*
X1033804Y3206382D2*
Y3244091D1*
X996301Y3281594D1*
Y3337850D1*
X1390092Y3206382D2*
Y3250341D1*
X1346337Y3294096D1*
Y3337850D1*
X1746379Y3206382D2*
Y3237840D1*
X1721377Y3275344D1*
X1702625Y3300346D1*
Y3337850D1*
X2096416Y3206382D2*
Y3244091D1*
X2058912Y3281594D1*
Y3337850D1*
X2465205Y3206382D2*
Y3244091D1*
X2415199Y3294096D1*
Y3337850D1*
X2821492Y3206382D2*
Y3244091D1*
X2771487Y3294096D1*
Y3337850D1*
X3165278Y3206382D2*
Y3244091D1*
X3127774Y3281594D1*
Y3337850D1*
X2283915Y1112617D2*
D14*
X2172638D1*
X2170029Y1110008D1*
X1540108Y873787D2*
X1210127D1*
X1196322Y887593D1*
Y1843944D1*
X1240076Y1887698D1*
X1340087D1*
Y2118972D1*
X1327585Y2131474D1*
X1240134D1*
X1240076Y2131531D1*
X2465205D2*
X2371503D1*
X2321440Y2081469D1*
Y1912701D1*
X2296437Y1887698D1*
X1340087D1*
X1240076Y2681531D2*
D16*
X946295D1*
X577507Y3050320D2*
Y3131579D1*
X946295D2*
Y3044070D1*
X1102556Y2631531D2*
X1240076D1*
X1308833Y3131579D2*
Y3037819D1*
X1158818Y2581521D2*
X1240066D1*
X1240076Y2581531D1*
X1665121Y3131579D2*
Y3037819D1*
X1158818Y2531516D2*
X1240060D1*
X1240076Y2531531D1*
X2015157Y3131579D2*
Y3037819D1*
X1158818Y2481510D2*
X1240055D1*
X1240076Y2481531D1*
X2377696Y3131579D2*
Y3037819D1*
X1771382Y2794043D2*
Y2787793D1*
X1465100D1*
X1340087Y2662780D1*
Y2456508D1*
X1315110Y2431531D1*
X1240076D1*
X2733983Y3131579D2*
Y3037819D1*
Y2800294D2*
X1983904D1*
X1946400Y2762790D1*
X1483852D1*
X1390092Y2669030D1*
Y2412753D1*
X1358839Y2381500D1*
X1240108D1*
X1240076Y2381531D1*
Y2331531D2*
X1383878D1*
X1440097Y2387751D1*
Y2644028D1*
X1540108Y2744038D1*
X1971403D1*
X1996406Y2769041D1*
X3040265D1*
X3077769Y2806545D1*
Y3131579D1*
X2283936Y1187625D2*
D14*
X2171152D1*
X2170029Y1188748D1*
D17*
X2052661Y712575D3*
X1296332Y631316D3*
X1433846Y1256382D3*
X1246327D3*
X1633867Y1793938D3*
X1815136Y2181479D3*
X2658975Y1806440D3*
X2927753Y2181479D3*
X1515105Y350037D3*
X1433846Y1256382D3*
X1046306Y1368894D3*
X2552714Y1375144D3*
X3390302Y3394106D3*
X858581Y3400357D3*
X1227575Y3394106D3*
X1596364Y3400357D3*
X1958902Y3406608D3*
X2321440Y3394106D3*
X2677727D3*
X3034014D3*
X858581Y3400357D3*
X1227575Y3394106D3*
X1777633Y2131474D3*
X1340087Y2281490D3*
X1396354Y2125018D3*
X3259038Y3037819D3*
X3027764Y2844049D3*
X665016Y3050320D3*
X1690123Y2331531D3*
X1033804Y3044070D3*
X1690123Y2381531D3*
X1527606Y2531516D3*
Y2969062D3*
X1746379Y3037819D3*
X1683873Y2481531D3*
X2096416Y3037819D3*
X2152672Y2650278D3*
X2465205Y3037819D3*
X1977654Y2581531D3*
X2821492Y3037819D3*
Y2719035D3*
X2577717Y1862696D3*
X2727732Y1423623D3*
X2959007Y2118972D3*
X1471157Y2037714D3*
X1646369Y1987709D3*
X702315Y3287844D3*
X1071104Y3288050D3*
X1421140D3*
X1777428Y3287845D3*
X833783Y3050320D3*
X702315Y3287844D3*
X1208823Y3044070D3*
X2133715Y3294301D3*
X2271434Y3037819D3*
X1527606Y3081573D3*
X2640223Y3037819D3*
X2465205Y3281594D3*
X2990260Y3044070D3*
X2821492Y3294096D3*
X3190281Y3269093D3*
X3346547Y3037819D3*
X2113583Y187520D3*
X1908896Y3037819D3*
X1246327Y1843944D3*
X1196322Y1987709D3*
X1308833Y1812690D3*
X1133815Y2081469D3*
D3*
X489793Y3275549D3*
X2340192Y2681531D3*
X502294Y2906760D3*
X2352693Y2631526D3*
X502294Y2531720D3*
X2358944Y2581521D3*
X502294Y2169182D3*
X2371445Y2531516D3*
X502294Y1912701D3*
X2377696Y2481510D3*
X502294Y1550163D3*
X2377696Y2431505D3*
X508545Y1168873D3*
X2383946Y2381500D3*
X496043Y806335D3*
X2390197Y2331495D3*
X1571361Y350037D3*
Y500052D3*
X2283915Y1112617D3*
X946295Y2681531D3*
X577507Y3050320D3*
X946295Y3044070D3*
X1102556Y2631531D3*
X1308833Y3037819D3*
X1158818Y2581521D3*
X1665121Y3037819D3*
X1158818Y2531516D3*
X2015157Y3037819D3*
X1158818Y2481510D3*
X2377696Y3037819D3*
X1771382Y2794043D3*
X2733983Y3037819D3*
Y2800294D3*
X2283936Y1187625D3*
X523772Y3869291D2*
D20*
X3425315D1*
X523772Y3844423D2*
X3425315D1*
X523772Y3819554D2*
X3425315D1*
X523772Y3794685D2*
X3425315D1*
X523772Y3769816D2*
X3425315D1*
X523772Y3744948D2*
X3425315D1*
X523772Y3720079D2*
X3425315D1*
X523772Y3695210D2*
X591965D1*
X700579D2*
X741965D1*
X850579D2*
X948264D1*
X1056829D2*
X1098264D1*
X1206829D2*
X1304563D1*
X1413128D2*
X1454563D1*
X1563128D2*
X1660813D1*
X1769426D2*
X1810813D1*
X1919426D2*
X2017112D1*
X2125725D2*
X2167112D1*
X2275725D2*
X2373411D1*
X2481975D2*
X2523411D1*
X2631975D2*
X2729710D1*
X2838274D2*
X2879710D1*
X2988274D2*
X3085960D1*
X3194573D2*
X3235960D1*
X3344573D2*
X3425315D1*
X523772Y3670341D2*
X578245D1*
X714299D2*
X728245D1*
X864299D2*
X934544D1*
X1070598D2*
X1084504D1*
X1220598D2*
X1290794D1*
X1426848D2*
X1440794D1*
X1576848D2*
X1647092D1*
X1783147D2*
X1797096D1*
X1933147D2*
X2003391D1*
X2139446D2*
X2153391D1*
X2289446D2*
X2359690D1*
X2495745D2*
X2509693D1*
X2645745D2*
X2715940D1*
X2851995D2*
X2865940D1*
X3001995D2*
X3072239D1*
X3208294D2*
X3222284D1*
X3358294D2*
X3425315D1*
X523772Y3645472D2*
X575462D1*
X717083D2*
X725462D1*
X867083D2*
X931712D1*
X1073381D2*
X1081751D1*
X1223381D2*
X1288010D1*
X1429680D2*
X1438010D1*
X1579680D2*
X1644309D1*
X1785930D2*
X1794266D1*
X1935930D2*
X2000608D1*
X2142229D2*
X2150608D1*
X2292229D2*
X2356858D1*
X2498528D2*
X2506869D1*
X2648528D2*
X2713157D1*
X2854827D2*
X2863157D1*
X3004827D2*
X3069456D1*
X3211077D2*
X3219457D1*
X3361077D2*
X3425315D1*
X523772Y3620604D2*
X582053D1*
X710442D2*
X732053D1*
X860442D2*
X938352D1*
X1066741D2*
X1088352D1*
X1216741D2*
X1294651D1*
X1423040D2*
X1444651D1*
X1573040D2*
X1650950D1*
X1779338D2*
X1800950D1*
X1929338D2*
X2007249D1*
X2135588D2*
X2157249D1*
X2285588D2*
X2363499D1*
X2491887D2*
X2513499D1*
X2641887D2*
X2719797D1*
X2848186D2*
X2869797D1*
X2998186D2*
X3076096D1*
X3204485D2*
X3226096D1*
X3354485D2*
X3425315D1*
X512932Y3595735D2*
X602463D1*
X690081D2*
X725266D1*
X840081D2*
X958762D1*
X1046331D2*
X1108762D1*
X1196331D2*
X1315061D1*
X1402629D2*
X1465061D1*
X1552629D2*
X1671311D1*
X1758928D2*
X1821311D1*
X1908928D2*
X2027610D1*
X2115227D2*
X2177610D1*
X2265227D2*
X2383909D1*
X2471526D2*
X2533909D1*
X2623772D2*
X2740208D1*
X2827776D2*
X2890208D1*
X2977776D2*
X3096458D1*
X3184075D2*
X3206809D1*
X3336321D2*
X3443040D1*
X491399Y3570866D2*
X700364D1*
X859954D2*
X1100217D1*
X1216253D2*
X1456516D1*
X1572551D2*
X1806760D1*
X1928850D2*
X2169212D1*
X2285149D2*
X2488108D1*
X2641399D2*
X2850608D1*
X2997698D2*
X3186350D1*
X3353997D2*
X3467014D1*
X469817Y3545997D2*
X663206D1*
X859954D2*
X1025754D1*
X1216253D2*
X1382053D1*
X1572551D2*
X1738352D1*
X1928850D2*
X2094602D1*
X2285149D2*
X2450901D1*
X2641399D2*
X2807200D1*
X2997698D2*
X3163499D1*
X3266692D2*
X3276389D1*
X3353997D2*
X3491038D1*
X448284Y3521129D2*
X663206D1*
X766399D2*
X782395D1*
X859954D2*
X1025754D1*
X1216253D2*
X1382053D1*
X1572551D2*
X1738352D1*
X1841497D2*
X1851194D1*
X1928850D2*
X2094602D1*
X2285149D2*
X2450901D1*
X2554094D2*
X2563840D1*
X2641399D2*
X2807200D1*
X2910393D2*
X2920098D1*
X2997698D2*
X3163499D1*
X3266692D2*
X3276389D1*
X3353997D2*
X3515061D1*
X426702Y3496260D2*
X663206D1*
X766399D2*
X782395D1*
X859954D2*
X1025754D1*
X1128948D2*
X1138694D1*
X1216253D2*
X1382053D1*
X1485247D2*
X1494985D1*
X1572551D2*
X1738352D1*
X1841497D2*
X1851243D1*
X1928850D2*
X2094602D1*
X2197795D2*
X2207497D1*
X2285149D2*
X2450901D1*
X2554094D2*
X2563840D1*
X2641399D2*
X2807200D1*
X2910393D2*
X2920098D1*
X2997698D2*
X3163499D1*
X3266692D2*
X3276389D1*
X3353997D2*
X3539085D1*
X405169Y3471391D2*
X575901D1*
X897356D2*
X919700D1*
X1253655D2*
X1282200D1*
X1966253D2*
X1982297D1*
X2322503D2*
X2338596D1*
X2678801D2*
X2694846D1*
X3035100D2*
X3069895D1*
X3391399D2*
X3563059D1*
X383635Y3446522D2*
X551047D1*
X3035100D2*
X3045025D1*
X3391399D2*
X3587083D1*
X362053Y3421654D2*
X526145D1*
X608928D2*
X626096D1*
X952727D2*
X994895D1*
X1315276D2*
X1344944D1*
X1651360D2*
X1701243D1*
X2026409D2*
X2057542D1*
X2376458D2*
X2413792D1*
X2738958D2*
X2770090D1*
X3102971D2*
X3126389D1*
X3419719D2*
X3894114D1*
X42522Y3396785D2*
X505247D1*
X584075D2*
X626096D1*
X703704D2*
X753782D1*
X938811D2*
X994895D1*
X1072503D2*
X1110081D1*
X1170061D2*
X1184869D1*
X1295061D2*
X1344944D1*
X1422551D2*
X1466331D1*
X1526360D2*
X1543040D1*
X1651360D2*
X1701243D1*
X1778801D2*
X1828879D1*
X1888909D2*
X1899228D1*
X2026409D2*
X2057542D1*
X2135100D2*
X2178928D1*
X2238909D2*
X2260178D1*
X2376458D2*
X2413792D1*
X2491399D2*
X2541477D1*
X2601458D2*
X2615354D1*
X2738958D2*
X2770090D1*
X2847698D2*
X2897776D1*
X2957756D2*
X2968230D1*
X3095256D2*
X3126389D1*
X3203948D2*
X3254026D1*
X3314055D2*
X3328831D1*
X3431194D2*
X3894114D1*
X42571Y3371916D2*
X363401D1*
X563762D2*
X588694D1*
X666301D2*
X738450D1*
X938811D2*
X957493D1*
X1035100D2*
X1094749D1*
X1295061D2*
X1307508D1*
X1385149D2*
X1450999D1*
X1651360D2*
X1663840D1*
X1741399D2*
X1807297D1*
X2097698D2*
X2163596D1*
X2453997D2*
X2519895D1*
X2810295D2*
X2876145D1*
X3166545D2*
X3232444D1*
X3424260D2*
X3894114D1*
X42620Y3347047D2*
X253049D1*
X326897D2*
X363401D1*
X563762D2*
X588694D1*
X666301D2*
X738450D1*
X938811D2*
X957493D1*
X1035100D2*
X1094749D1*
X1295061D2*
X1307508D1*
X1385149D2*
X1450999D1*
X1651360D2*
X1663840D1*
X1741399D2*
X1807297D1*
X2001409D2*
X2020139D1*
X2097698D2*
X2163596D1*
X2453997D2*
X2519895D1*
X2722063D2*
X2732711D1*
X2810295D2*
X2876145D1*
X3078362D2*
X3088987D1*
X3166545D2*
X3232444D1*
X3410442D2*
X3606858D1*
X3698772D2*
X3894114D1*
X42669Y3322178D2*
X228196D1*
X563762D2*
X588694D1*
X666301D2*
X738450D1*
X938811D2*
X957493D1*
X1035100D2*
X1094749D1*
X1295061D2*
X1307508D1*
X1385149D2*
X1450999D1*
X1651360D2*
X1663840D1*
X1741399D2*
X1807297D1*
X2001409D2*
X2020139D1*
X2097698D2*
X2163596D1*
X2357708D2*
X2376389D1*
X2453997D2*
X2519895D1*
X2713958D2*
X2732688D1*
X2810295D2*
X2876145D1*
X3070256D2*
X3088987D1*
X3166545D2*
X3232444D1*
X3410442D2*
X3587864D1*
X3717815D2*
X3894114D1*
X42717Y3297310D2*
X219651D1*
X563762D2*
X588694D1*
X666301D2*
X738450D1*
X938811D2*
X957493D1*
X1035100D2*
X1094749D1*
X1295061D2*
X1307508D1*
X1385149D2*
X1450999D1*
X1651360D2*
X1663840D1*
X1741790D2*
X1807297D1*
X2001409D2*
X2020139D1*
X2097698D2*
X2163596D1*
X2357708D2*
X2376389D1*
X2453997D2*
X2519895D1*
X2713958D2*
X2732688D1*
X2810295D2*
X2876145D1*
X3070256D2*
X3088987D1*
X3166545D2*
X3232444D1*
X3410442D2*
X3581907D1*
X3723772D2*
X3894114D1*
X42766Y3272441D2*
X220725D1*
X405706D2*
X448899D1*
X563762D2*
X602219D1*
X684319D2*
X738450D1*
X938811D2*
X967844D1*
X1046868D2*
X1094749D1*
X1295061D2*
X1326585D1*
X1409368D2*
X1450999D1*
X1651360D2*
X1686692D1*
X1758879D2*
X1807297D1*
X2001409D2*
X2030491D1*
X2109465D2*
X2163596D1*
X2357708D2*
X2395481D1*
X2478264D2*
X2519895D1*
X2713958D2*
X2751731D1*
X2834514D2*
X2876145D1*
X3070256D2*
X3099338D1*
X3178313D2*
X3232444D1*
X3410442D2*
X3585325D1*
X3731438D2*
X3894114D1*
X42815Y3247572D2*
X232053D1*
X347893D2*
X460862D1*
X3402092D2*
X3600071D1*
X3756292D2*
X3894114D1*
X42864Y3222703D2*
X266233D1*
X313713D2*
X503733D1*
X3402092D2*
X3667258D1*
X3781145D2*
X3894114D1*
X42913Y3197835D2*
X254417D1*
X325530D2*
X503733D1*
X3402092D2*
X3607835D1*
X3800335D2*
X3894114D1*
X43010Y3172966D2*
X228684D1*
X351262D2*
X503733D1*
X3560637D2*
X3588206D1*
X3802337D2*
X3894114D1*
X43059Y3148097D2*
X219749D1*
X360198D2*
X503733D1*
X801799D2*
X860032D1*
X1176848D2*
X1235081D1*
X1533147D2*
X1591379D1*
X1883147D2*
X1935129D1*
X2239446D2*
X2297678D1*
X2608245D2*
X2653977D1*
X2958294D2*
X3004026D1*
X3314544D2*
X3382688D1*
X3802337D2*
X3894114D1*
X43108Y3123228D2*
X220530D1*
X359417D2*
X503733D1*
X801799D2*
X860032D1*
X1176848D2*
X1235081D1*
X1533147D2*
X1591379D1*
X1883147D2*
X1935129D1*
X2239446D2*
X2297678D1*
X2608245D2*
X2653977D1*
X2958294D2*
X3004026D1*
X3314544D2*
X3382688D1*
X3802337D2*
X3894114D1*
X43157Y3098360D2*
X231467D1*
X348479D2*
X503733D1*
X801799D2*
X860032D1*
X1176848D2*
X1235081D1*
X1533147D2*
X1591379D1*
X1883147D2*
X1935129D1*
X2239446D2*
X2297678D1*
X2608245D2*
X2653977D1*
X2958294D2*
X3004026D1*
X3314544D2*
X3382688D1*
X3560637D2*
X3599338D1*
X3706340D2*
X3720292D1*
X3802337D2*
X3894114D1*
X43206Y3073491D2*
X263987D1*
X316008D2*
X503733D1*
X610735D2*
X631760D1*
X698284D2*
X716282D1*
X776262D2*
X860032D1*
X976311D2*
X1003782D1*
X1063811D2*
X1091331D1*
X1151311D2*
X1235081D1*
X1338811D2*
X1353831D1*
X1413860D2*
X1448801D1*
X1527092D2*
X1591379D1*
X1695110D2*
X1716379D1*
X1776360D2*
X1797629D1*
X1857659D2*
X1935129D1*
X2045159D2*
X2066428D1*
X2126409D2*
X2153928D1*
X2213909D2*
X2297678D1*
X2407708D2*
X2435227D1*
X2495208D2*
X2522727D1*
X2582708D2*
X2653977D1*
X2764006D2*
X2791477D1*
X2851506D2*
X2872727D1*
X2932756D2*
X3004026D1*
X3107756D2*
X3135276D1*
X3195256D2*
X3229026D1*
X3289055D2*
X3404270D1*
X3464251D2*
X3720335D1*
X3802337D2*
X3894114D1*
X43254Y3048622D2*
X503733D1*
X705999D2*
X716295D1*
X776262D2*
X860032D1*
X1074553D2*
X1090745D1*
X1151311D2*
X1235081D1*
X1433196D2*
X1469163D1*
X1551946D2*
X1591379D1*
X1785833D2*
X1797671D1*
X1857659D2*
X1935129D1*
X2135881D2*
X2153928D1*
X2213909D2*
X2297678D1*
X2417131D2*
X2425754D1*
X2504680D2*
X2522727D1*
X2582708D2*
X2653977D1*
X2773430D2*
X2782063D1*
X2860930D2*
X2872757D1*
X2932756D2*
X3004026D1*
X3107756D2*
X3135276D1*
X3195256D2*
X3219602D1*
X3298479D2*
X3404270D1*
X3464251D2*
X3720335D1*
X3802337D2*
X3894114D1*
X43303Y3023753D2*
X503733D1*
X607854D2*
X634641D1*
X695403D2*
X716282D1*
X776262D2*
X860032D1*
X981487D2*
X998620D1*
X1147454D2*
X1235081D1*
X1347161D2*
X1375266D1*
X1458049D2*
X1494016D1*
X1784710D2*
X1797617D1*
X1857659D2*
X1935129D1*
X2134758D2*
X2153928D1*
X2213909D2*
X2297678D1*
X2416057D2*
X2426878D1*
X2503557D2*
X2522727D1*
X2582708D2*
X2653977D1*
X2772307D2*
X2783161D1*
X2859807D2*
X2872785D1*
X2932756D2*
X3004026D1*
X3107756D2*
X3135276D1*
X3195256D2*
X3220676D1*
X3297356D2*
X3397337D1*
X3464251D2*
X3720335D1*
X3802337D2*
X3894114D1*
X43352Y2998885D2*
X274924D1*
X305022D2*
X375901D1*
X776213D2*
X860032D1*
X1123772D2*
X1235081D1*
X1295061D2*
X1400120D1*
X1482903D2*
X1500754D1*
X1651360D2*
X1797337D1*
X1857659D2*
X1935129D1*
X1995159D2*
X2153587D1*
X2213909D2*
X2297678D1*
X2357708D2*
X2522727D1*
X2582708D2*
X2653977D1*
X2713958D2*
X2872434D1*
X2932756D2*
X3004026D1*
X3107756D2*
X3135276D1*
X3195256D2*
X3372483D1*
X3455266D2*
X3619309D1*
X3686321D2*
X3720335D1*
X3802337D2*
X3894114D1*
X43401Y2974016D2*
X233713D1*
X346233D2*
X375901D1*
X761370D2*
X860032D1*
X1098919D2*
X1235081D1*
X1295061D2*
X1425022D1*
X1853948D2*
X1935129D1*
X2210198D2*
X2297678D1*
X2581682D2*
X2653977D1*
X2929045D2*
X3004026D1*
X3107756D2*
X3135276D1*
X3195256D2*
X3347629D1*
X3430413D2*
X3592161D1*
X3802337D2*
X3894114D1*
X43450Y2949147D2*
X221262D1*
X588762D2*
X860032D1*
X920061D2*
X1235081D1*
X1830364D2*
X1935129D1*
X2186614D2*
X2297678D1*
X2561663D2*
X2653977D1*
X2905462D2*
X3004026D1*
X3107756D2*
X3135276D1*
X3195256D2*
X3322727D1*
X3405510D2*
X3582786D1*
X3802337D2*
X3894114D1*
X43499Y2924278D2*
X219358D1*
X588762D2*
X860032D1*
X920061D2*
X1235081D1*
X1995159D2*
X2297678D1*
X2357708D2*
X2653977D1*
X2713958D2*
X3004026D1*
X3107756D2*
X3135276D1*
X3195256D2*
X3297874D1*
X3380657D2*
X3583176D1*
X3802337D2*
X3894114D1*
X43596Y2899409D2*
X226975D1*
X408196D2*
X461985D1*
X588762D2*
X860032D1*
X920061D2*
X1235081D1*
X1295061D2*
X1379075D1*
X2357708D2*
X2641672D1*
X2713958D2*
X3004026D1*
X3107756D2*
X3135276D1*
X3195256D2*
X3273020D1*
X3355803D2*
X3593626D1*
X3802337D2*
X3894114D1*
X43645Y2874541D2*
X249485D1*
X330462D2*
X478733D1*
X588762D2*
X860032D1*
X920061D2*
X1235081D1*
X1295061D2*
X1354172D1*
X2699602D2*
X3001780D1*
X3107756D2*
X3135276D1*
X3195256D2*
X3248118D1*
X3330901D2*
X3624094D1*
X3681585D2*
X3720335D1*
X3802337D2*
X3894114D1*
X43694Y2849672D2*
X280344D1*
X299550D2*
X528733D1*
X588762D2*
X860032D1*
X920061D2*
X1235081D1*
X1295061D2*
X1329319D1*
X3107756D2*
X3135276D1*
X3195256D2*
X3223264D1*
X3306047D2*
X3620920D1*
X3684758D2*
X3720335D1*
X3802337D2*
X3894114D1*
X43743Y2824803D2*
X234348D1*
X345598D2*
X528733D1*
X588762D2*
X848167D1*
X1295061D2*
X1304447D1*
X3107756D2*
X3135276D1*
X3281194D2*
X3382688D1*
X3560637D2*
X3592698D1*
X3802337D2*
X3894114D1*
X43792Y2799934D2*
X221506D1*
X358440D2*
X528733D1*
X588762D2*
X823264D1*
X3106975D2*
X3135276D1*
X3802337D2*
X3894114D1*
X43840Y2775066D2*
X219260D1*
X360686D2*
X528733D1*
X588762D2*
X798411D1*
X3802337D2*
X3894114D1*
X43889Y2750197D2*
X226585D1*
X353362D2*
X528733D1*
X588762D2*
X779465D1*
X3712590D2*
X3720304D1*
X3802337D2*
X3894114D1*
X43938Y2725328D2*
X248313D1*
X331633D2*
X528733D1*
X588762D2*
X778782D1*
X3250481D2*
X3382688D1*
X3560637D2*
X3622239D1*
X3683391D2*
X3720335D1*
X3802337D2*
X3894114D1*
X43987Y2700459D2*
X528733D1*
X588762D2*
X778782D1*
X3225579D2*
X3720335D1*
X3802337D2*
X3894114D1*
X44036Y2675591D2*
X528733D1*
X588762D2*
X778782D1*
X1305462D2*
X1313231D1*
X1513030D2*
X1544797D1*
X2050628D2*
X2121165D1*
X2184172D2*
X2299631D1*
X2530559D2*
X2769895D1*
X3200725D2*
X3720335D1*
X3802337D2*
X3894114D1*
X44085Y2650722D2*
X528733D1*
X588762D2*
X778782D1*
X971868D2*
X1066672D1*
X1488176D2*
X1544797D1*
X2025725D2*
X2111692D1*
X2193645D2*
X2314622D1*
X2530559D2*
X2769895D1*
X3175872D2*
X3720335D1*
X3802337D2*
X3894114D1*
X44133Y2625853D2*
X241282D1*
X338665D2*
X375901D1*
X588762D2*
X778782D1*
X951311D2*
X1061985D1*
X1470110D2*
X1544797D1*
X2000872D2*
X2120432D1*
X2184954D2*
X2312131D1*
X2530559D2*
X2769895D1*
X3150969D2*
X3598118D1*
X3707561D2*
X3720358D1*
X3802337D2*
X3894114D1*
X44231Y2600984D2*
X223997D1*
X588762D2*
X778782D1*
X951311D2*
X1076633D1*
X1470110D2*
X1544797D1*
X2013372D2*
X2122678D1*
X2182659D2*
X2323215D1*
X2530559D2*
X2769895D1*
X3299700D2*
X3584641D1*
X3802337D2*
X3894114D1*
X44280Y2576115D2*
X218967D1*
X588762D2*
X778782D1*
X951311D2*
X1118186D1*
X1470110D2*
X1544797D1*
X2018254D2*
X2099631D1*
X2180071D2*
X2318333D1*
X2530559D2*
X2769895D1*
X3324602D2*
X3582053D1*
X3802337D2*
X3894114D1*
X44329Y2551247D2*
X223313D1*
X588762D2*
X778782D1*
X951311D2*
X1123264D1*
X1470110D2*
X1492063D1*
X2157561D2*
X2332639D1*
X2530559D2*
X2769895D1*
X3224456D2*
X3266672D1*
X3349456D2*
X3588889D1*
X3802337D2*
X3894114D1*
X44378Y2526378D2*
X239475D1*
X340471D2*
X461643D1*
X588762D2*
X778782D1*
X951311D2*
X1118186D1*
X1470110D2*
X1486969D1*
X2132659D2*
X2330784D1*
X2530559D2*
X2769895D1*
X3249309D2*
X3291526D1*
X3374309D2*
X3609690D1*
X3695989D2*
X3720335D1*
X3802337D2*
X3894114D1*
X44426Y2501509D2*
X475950D1*
X588762D2*
X778782D1*
X951311D2*
X1123411D1*
X1470110D2*
X1497629D1*
X1719280D2*
X2342307D1*
X2530559D2*
X2769895D1*
X3274163D2*
X3316428D1*
X3399212D2*
X3720335D1*
X3802337D2*
X3894114D1*
X44475Y2476640D2*
X242161D1*
X337786D2*
X528733D1*
X588762D2*
X778782D1*
X951311D2*
X1118137D1*
X1470110D2*
X1497629D1*
X1724553D2*
X2336985D1*
X2530559D2*
X2769895D1*
X3299065D2*
X3341282D1*
X3566887D2*
X3598801D1*
X3706878D2*
X3720308D1*
X3802337D2*
X3894114D1*
X44524Y2451772D2*
X224338D1*
X355657D2*
X528733D1*
X588762D2*
X778782D1*
X951311D2*
X1131858D1*
X1470110D2*
X1497629D1*
X1710784D2*
X2342454D1*
X2530559D2*
X2769895D1*
X3323919D2*
X3366135D1*
X3802337D2*
X3894114D1*
X44573Y2426903D2*
X219016D1*
X360979D2*
X528733D1*
X588762D2*
X778782D1*
X951311D2*
X1174729D1*
X1470110D2*
X1503587D1*
X1675530D2*
X2336985D1*
X2530559D2*
X2769895D1*
X3348772D2*
X3388938D1*
X3802337D2*
X3894114D1*
X44622Y2402034D2*
X223020D1*
X356926D2*
X528733D1*
X588762D2*
X778782D1*
X951311D2*
X1174729D1*
X1470110D2*
X1544797D1*
X1725188D2*
X2348899D1*
X2530559D2*
X2769895D1*
X3373674D2*
X3388938D1*
X3802337D2*
X3894114D1*
X44670Y2377165D2*
X238694D1*
X341253D2*
X528733D1*
X588762D2*
X778782D1*
X951311D2*
X1174729D1*
X1467962D2*
X1544797D1*
X1730852D2*
X2343186D1*
X2530559D2*
X2769895D1*
X3566887D2*
X3608665D1*
X3697014D2*
X3720335D1*
X3802337D2*
X3894114D1*
X44719Y2352297D2*
X528733D1*
X588762D2*
X778782D1*
X951311D2*
X1174729D1*
X1446038D2*
X1544797D1*
X1725042D2*
X2355295D1*
X2530559D2*
X2769895D1*
X3423381D2*
X3720335D1*
X3802337D2*
X3894114D1*
X44817Y2327428D2*
X528733D1*
X588762D2*
X778782D1*
X951311D2*
X1174729D1*
X1421184D2*
X1544797D1*
X1730901D2*
X2349436D1*
X2530559D2*
X2769895D1*
X3438958D2*
X3720335D1*
X3802337D2*
X3894114D1*
X44866Y2302559D2*
X528733D1*
X588762D2*
X778782D1*
X951311D2*
X1174729D1*
X1374797D2*
X1544797D1*
X1717962D2*
X2273069D1*
X2682366D2*
X2769895D1*
X2900676D2*
X3159055D1*
X3439055D2*
X3720335D1*
X3802337D2*
X3894114D1*
X44915Y2277690D2*
X252219D1*
X327727D2*
X375901D1*
X588762D2*
X778782D1*
X951311D2*
X1174729D1*
X1380901D2*
X1544797D1*
X1675530D2*
X2248215D1*
X2707219D2*
X2769895D1*
X2900676D2*
X3183958D1*
X3439055D2*
X3606272D1*
X3699358D2*
X3720335D1*
X3802337D2*
X3894114D1*
X44963Y2252822D2*
X227903D1*
X352044D2*
X375901D1*
X588762D2*
X778782D1*
X951311D2*
X1174729D1*
X1368303D2*
X1544797D1*
X1675530D2*
X2223313D1*
X2731047D2*
X2769895D1*
X2900676D2*
X3208811D1*
X3439055D2*
X3587620D1*
X3802337D2*
X3894114D1*
X45012Y2227953D2*
X219553D1*
X588762D2*
X778782D1*
X951311D2*
X1544797D1*
X1675530D2*
X2198460D1*
X2312346D2*
X2643040D1*
X2737493D2*
X2769895D1*
X2900676D2*
X3233665D1*
X3439055D2*
X3581907D1*
X3802337D2*
X3894114D1*
X45061Y2203084D2*
X220823D1*
X588762D2*
X778782D1*
X951311D2*
X1093040D1*
X1474602D2*
X1544797D1*
X1849504D2*
X2173606D1*
X2287493D2*
X2311936D1*
X2530559D2*
X2655491D1*
X2737493D2*
X2769895D1*
X2962102D2*
X3247776D1*
X3439055D2*
X3585520D1*
X3802337D2*
X3894114D1*
X45110Y2178215D2*
X232395D1*
X347551D2*
X375901D1*
X588762D2*
X778782D1*
X951311D2*
X1068186D1*
X1499504D2*
X1544797D1*
X1855999D2*
X2148704D1*
X2262590D2*
X2287034D1*
X2530559D2*
X2655491D1*
X2737493D2*
X2769895D1*
X2968596D2*
X3247776D1*
X3439055D2*
X3600510D1*
X3705169D2*
X3720351D1*
X3802337D2*
X3894114D1*
X45159Y2153346D2*
X267844D1*
X312151D2*
X464719D1*
X588762D2*
X778782D1*
X951311D2*
X1054221D1*
X1524358D2*
X1544797D1*
X2237737D2*
X2262327D1*
X2530559D2*
X2655491D1*
X2737493D2*
X2769895D1*
X2956536D2*
X3247776D1*
X3439055D2*
X3720335D1*
X3802337D2*
X3894114D1*
X45208Y2128478D2*
X253538D1*
X326409D2*
X528733D1*
X588762D2*
X778782D1*
X951311D2*
X1054075D1*
X1126067D2*
X1174729D1*
X1437200D2*
X1449498D1*
X1549114D2*
X1736741D1*
X2212883D2*
X2254172D1*
X2530559D2*
X2655491D1*
X2737493D2*
X3247776D1*
X3439055D2*
X3607249D1*
X3698430D2*
X3720335D1*
X3802337D2*
X3894114D1*
X45256Y2103609D2*
X228391D1*
X351555D2*
X528733D1*
X588762D2*
X778782D1*
X951311D2*
X1054075D1*
X1437346D2*
X1474338D1*
X1557366D2*
X1748557D1*
X2187981D2*
X2254172D1*
X2530559D2*
X2655491D1*
X2737493D2*
X3247776D1*
X3802337D2*
X3894114D1*
X45305Y2078740D2*
X219700D1*
X360295D2*
X528733D1*
X588762D2*
X778782D1*
X951311D2*
X1054075D1*
X1437346D2*
X1485374D1*
X1557366D2*
X2254172D1*
X2530559D2*
X2655491D1*
X2737493D2*
X3247776D1*
X3802337D2*
X3894114D1*
X45403Y2053871D2*
X220676D1*
X359270D2*
X528733D1*
X588762D2*
X778782D1*
X951311D2*
X1054075D1*
X1437346D2*
X1485374D1*
X1557366D2*
X2254172D1*
X2530559D2*
X2655491D1*
X2900676D2*
X3247776D1*
X3802337D2*
X3894114D1*
X45452Y2029003D2*
X231858D1*
X348088D2*
X528733D1*
X588762D2*
X778782D1*
X951311D2*
X1054075D1*
X1437346D2*
X1485374D1*
X1557366D2*
X2254172D1*
X2530559D2*
X2655491D1*
X2900676D2*
X3247776D1*
X3560637D2*
X3599778D1*
X3705852D2*
X3720289D1*
X3802337D2*
X3894114D1*
X45501Y2004134D2*
X265354D1*
X314592D2*
X528733D1*
X588762D2*
X778782D1*
X951311D2*
X1054075D1*
X1447942D2*
X1485374D1*
X1557366D2*
X2254172D1*
X2530559D2*
X2644700D1*
X2900676D2*
X3247776D1*
X3407805D2*
X3720335D1*
X3802337D2*
X3894114D1*
X45549Y1979265D2*
X528733D1*
X588762D2*
X778782D1*
X951311D2*
X1054075D1*
X1236370D2*
X1304075D1*
X1447942D2*
X1485374D1*
X1557366D2*
X2254172D1*
X2426213D2*
X2644700D1*
X2747844D2*
X3247776D1*
X3407805D2*
X3720335D1*
X3802337D2*
X3894114D1*
X45598Y1954396D2*
X528733D1*
X588762D2*
X778782D1*
X951311D2*
X1054075D1*
X1218108D2*
X1304075D1*
X1447942D2*
X1485374D1*
X1567034D2*
X2250754D1*
X2426213D2*
X2644700D1*
X2747844D2*
X3247776D1*
X3407805D2*
X3720335D1*
X3802337D2*
X3894114D1*
X45647Y1929528D2*
X272532D1*
X307415D2*
X465159D1*
X588762D2*
X778782D1*
X951311D2*
X1054075D1*
X1194817D2*
X1304075D1*
X1447942D2*
X1492503D1*
X2426213D2*
X2644700D1*
X2747844D2*
X3247776D1*
X3407805D2*
X3618381D1*
X3687297D2*
X3720335D1*
X3802337D2*
X3894114D1*
X45696Y1904659D2*
X233323D1*
X346624D2*
X462131D1*
X588762D2*
X778782D1*
X951311D2*
X1054075D1*
X1194817D2*
X1207189D1*
X2426213D2*
X2644700D1*
X2747844D2*
X3247776D1*
X3407805D2*
X3591868D1*
X3802337D2*
X3894114D1*
X45745Y1879790D2*
X221165D1*
X588762D2*
X778782D1*
X951311D2*
X1054075D1*
X2426165D2*
X2655295D1*
X2737297D2*
X3247776D1*
X3407805D2*
X3582688D1*
X3802337D2*
X3894114D1*
X45794Y1854921D2*
X219407D1*
X588762D2*
X778782D1*
X951311D2*
X1054075D1*
X2413567D2*
X2655295D1*
X2737297D2*
X3247776D1*
X3407805D2*
X3583274D1*
X3802337D2*
X3894114D1*
X45842Y1830052D2*
X227268D1*
X588762D2*
X778782D1*
X951311D2*
X1054075D1*
X2388665D2*
X2626047D1*
X2737297D2*
X3247776D1*
X3407805D2*
X3593919D1*
X3711712D2*
X3720354D1*
X3802337D2*
X3894114D1*
X45891Y1805184D2*
X250217D1*
X329729D2*
X375901D1*
X588762D2*
X778782D1*
X951311D2*
X1054075D1*
X3199504D2*
X3247776D1*
X3407805D2*
X3625315D1*
X3680364D2*
X3720335D1*
X3802337D2*
X3894114D1*
X45940Y1780315D2*
X276633D1*
X303355D2*
X528733D1*
X588762D2*
X778782D1*
X951311D2*
X1054075D1*
X1382610D2*
X1577415D1*
X3229583D2*
X3247776D1*
X3407805D2*
X3619895D1*
X3685784D2*
X3720335D1*
X3802337D2*
X3894114D1*
X46038Y1755446D2*
X233958D1*
X345989D2*
X528733D1*
X588762D2*
X778782D1*
X951311D2*
X1054075D1*
X1232317D2*
X1259934D1*
X1357708D2*
X1552561D1*
X1638176D2*
X2125999D1*
X3554387D2*
X3592356D1*
X3802337D2*
X3894114D1*
X46087Y1730577D2*
X221360D1*
X358587D2*
X528733D1*
X588762D2*
X778782D1*
X951311D2*
X1054075D1*
X1232317D2*
X1527708D1*
X1613323D2*
X2101145D1*
X3802337D2*
X3894114D1*
X46135Y1705709D2*
X219309D1*
X360637D2*
X528733D1*
X588762D2*
X778782D1*
X951311D2*
X1054075D1*
X1232317D2*
X1502854D1*
X1588420D2*
X2076243D1*
X2190129D2*
X2224143D1*
X2331243D2*
X2447044D1*
X2626995D2*
X2680491D1*
X2762493D2*
X2855442D1*
X2962542D2*
X3026194D1*
X3802337D2*
X3894114D1*
X46184Y1680840D2*
X226829D1*
X353118D2*
X528733D1*
X588762D2*
X778782D1*
X951311D2*
X1054075D1*
X1232317D2*
X1477952D1*
X1563567D2*
X2051389D1*
X2165276D2*
X2224143D1*
X2331243D2*
X2447044D1*
X2626995D2*
X2680491D1*
X2762493D2*
X2855442D1*
X2962542D2*
X3026194D1*
X3712249D2*
X3720351D1*
X3802337D2*
X3894114D1*
X46233Y1655971D2*
X249045D1*
X330901D2*
X528733D1*
X588762D2*
X778782D1*
X951311D2*
X1054075D1*
X1232317D2*
X1453098D1*
X1538713D2*
X2026536D1*
X2140422D2*
X2224143D1*
X2331243D2*
X2447044D1*
X2626995D2*
X2665940D1*
X2776995D2*
X2855442D1*
X2962542D2*
X3026194D1*
X3370305D2*
X3623362D1*
X3682268D2*
X3720335D1*
X3802337D2*
X3894114D1*
X46282Y1631102D2*
X528733D1*
X588762D2*
X778782D1*
X951311D2*
X1054075D1*
X1232317D2*
X1428245D1*
X1513860D2*
X2001633D1*
X2115520D2*
X2224143D1*
X2331243D2*
X2496018D1*
X2578020D2*
X2665940D1*
X2776995D2*
X2855442D1*
X2962542D2*
X3026194D1*
X3370305D2*
X3720335D1*
X3802337D2*
X3894114D1*
X46331Y1606234D2*
X528733D1*
X588762D2*
X778782D1*
X951311D2*
X1054075D1*
X1232317D2*
X1403342D1*
X1488958D2*
X1976780D1*
X2090667D2*
X2224143D1*
X2331243D2*
X2496018D1*
X2578020D2*
X2665940D1*
X2776995D2*
X2855442D1*
X2962542D2*
X3101145D1*
X3370305D2*
X3720335D1*
X3802337D2*
X3894114D1*
X46379Y1581365D2*
X477219D1*
X588762D2*
X778782D1*
X951311D2*
X1054075D1*
X1232317D2*
X1378489D1*
X1464104D2*
X1951926D1*
X2065813D2*
X2496018D1*
X2578020D2*
X3101145D1*
X3370305D2*
X3720335D1*
X3802337D2*
X3894114D1*
X46428Y1556496D2*
X240745D1*
X339202D2*
X461838D1*
X588762D2*
X778782D1*
X951311D2*
X1054075D1*
X1232317D2*
X1353635D1*
X1439251D2*
X1927024D1*
X2040911D2*
X2496018D1*
X2578020D2*
X3101145D1*
X3370305D2*
X3597678D1*
X3707952D2*
X3720352D1*
X3802337D2*
X3894114D1*
X46477Y1531627D2*
X223801D1*
X588762D2*
X778782D1*
X951311D2*
X1054075D1*
X1232317D2*
X1328733D1*
X1414348D2*
X1902317D1*
X2016057D2*
X2492307D1*
X2672258D2*
X3174290D1*
X3370305D2*
X3584495D1*
X3802337D2*
X3894114D1*
X46526Y1506759D2*
X218967D1*
X588762D2*
X778782D1*
X951311D2*
X1054075D1*
X1232317D2*
X1303879D1*
X1389495D2*
X1892893D1*
X1991204D2*
X2492307D1*
X2672258D2*
X3174290D1*
X3370305D2*
X3582102D1*
X3802337D2*
X3894114D1*
X46624Y1481890D2*
X223508D1*
X588762D2*
X778782D1*
X951311D2*
X1054075D1*
X1232317D2*
X1279026D1*
X1364641D2*
X1892893D1*
X1974895D2*
X2492307D1*
X2672258D2*
X3174290D1*
X3370305D2*
X3589133D1*
X3802337D2*
X3894114D1*
X46672Y1457021D2*
X240012D1*
X339983D2*
X375901D1*
X588762D2*
X778782D1*
X951311D2*
X1054075D1*
X1232317D2*
X1254124D1*
X1974895D2*
X2492307D1*
X2672258D2*
X3174290D1*
X3370305D2*
X3610374D1*
X3695305D2*
X3720335D1*
X3802337D2*
X3894114D1*
X46721Y1432152D2*
X375901D1*
X588762D2*
X778782D1*
X951311D2*
X1054075D1*
X1974895D2*
X2492307D1*
X2672258D2*
X3174290D1*
X3370305D2*
X3720335D1*
X3802337D2*
X3894114D1*
X46770Y1407283D2*
X241624D1*
X338323D2*
X528733D1*
X588762D2*
X778782D1*
X951311D2*
X1054075D1*
X1974895D2*
X2529026D1*
X2671282D2*
X3174290D1*
X3560637D2*
X3598362D1*
X3707317D2*
X3720308D1*
X3802337D2*
X3894114D1*
X46819Y1382415D2*
X224094D1*
X355852D2*
X528733D1*
X588762D2*
X778782D1*
X951311D2*
X1007737D1*
X1379290D2*
X1892893D1*
X1974895D2*
X2512424D1*
X2696135D2*
X3174290D1*
X3802337D2*
X3894114D1*
X46868Y1357546D2*
X218967D1*
X360979D2*
X528733D1*
X588762D2*
X778782D1*
X951311D2*
X1005295D1*
X1354436D2*
X1892893D1*
X1974895D2*
X2515989D1*
X2845989D2*
X3174290D1*
X3339055D2*
X3354026D1*
X3802337D2*
X3894114D1*
X46917Y1332677D2*
X223215D1*
X356731D2*
X528733D1*
X588762D2*
X778782D1*
X951311D2*
X1005295D1*
X1350042D2*
X1892893D1*
X1974895D2*
X2568284D1*
X2856243D2*
X3174290D1*
X3339055D2*
X3382688D1*
X3802337D2*
X3894114D1*
X46965Y1307808D2*
X239182D1*
X340764D2*
X528733D1*
X588762D2*
X778782D1*
X951311D2*
X1005295D1*
X1350042D2*
X1892893D1*
X1974895D2*
X2461643D1*
X2880608D2*
X2962473D1*
X3164544D2*
X3174257D1*
X3339055D2*
X3609299D1*
X3696379D2*
X3720335D1*
X3802337D2*
X3894114D1*
X47014Y1282940D2*
X528733D1*
X588762D2*
X778782D1*
X951311D2*
X1005295D1*
X1350042D2*
X1403489D1*
X1464202D2*
X1892893D1*
X1974895D2*
X2461643D1*
X2632463D2*
X2647182D1*
X2880608D2*
X2962473D1*
X3339055D2*
X3720335D1*
X3802337D2*
X3894114D1*
X47063Y1258071D2*
X528733D1*
X588762D2*
X778782D1*
X951311D2*
X1005295D1*
X1350042D2*
X1392893D1*
X1474797D2*
X1892893D1*
X1974895D2*
X2461643D1*
X2607561D2*
X2647190D1*
X2880608D2*
X2962473D1*
X3339055D2*
X3720335D1*
X3802337D2*
X3894114D1*
X47112Y1233202D2*
X528733D1*
X588762D2*
X778782D1*
X951311D2*
X1005295D1*
X1644866D2*
X1892893D1*
X1974895D2*
X2065305D1*
X2274749D2*
X2461643D1*
X2582708D2*
X2647190D1*
X2880608D2*
X2962473D1*
X3339055D2*
X3720335D1*
X3802337D2*
X3894114D1*
X47210Y1208333D2*
X251389D1*
X328557D2*
X528733D1*
X588762D2*
X778782D1*
X951311D2*
X1005295D1*
X1232317D2*
X1257444D1*
X1644866D2*
X1872678D1*
X1974651D2*
X2065305D1*
X2318889D2*
X2461643D1*
X2568792D2*
X2647190D1*
X2880608D2*
X2962473D1*
X3339055D2*
X3605686D1*
X3699944D2*
X3720335D1*
X3802337D2*
X3894114D1*
X47258Y1183465D2*
X227659D1*
X401799D2*
X470432D1*
X588762D2*
X778782D1*
X951311D2*
X1005295D1*
X1232317D2*
X1257444D1*
X1644866D2*
X1847776D1*
X1961663D2*
X2065305D1*
X2324700D2*
X2461643D1*
X2568792D2*
X2749876D1*
X2880608D2*
X2962473D1*
X3339055D2*
X3587424D1*
X3802337D2*
X3894114D1*
X47307Y1158596D2*
X219504D1*
X588762D2*
X778782D1*
X951311D2*
X1005295D1*
X1232317D2*
X1257444D1*
X1644866D2*
X1822922D1*
X1936809D2*
X2065305D1*
X2311712D2*
X2461643D1*
X2568792D2*
X2749876D1*
X2880608D2*
X2962473D1*
X3339055D2*
X3581858D1*
X3802337D2*
X3894114D1*
X47356Y1133727D2*
X220969D1*
X588762D2*
X778782D1*
X951311D2*
X1005295D1*
X1232317D2*
X1268040D1*
X1350042D2*
X1435374D1*
X1644866D2*
X1798069D1*
X1911956D2*
X2065305D1*
X2318596D2*
X2962473D1*
X3339055D2*
X3585667D1*
X3802337D2*
X3894114D1*
X47405Y1108858D2*
X232786D1*
X347161D2*
X382151D1*
X588762D2*
X778782D1*
X951311D2*
X1005295D1*
X1232317D2*
X1268040D1*
X1350042D2*
X1435374D1*
X1644866D2*
X1773167D1*
X1887053D2*
X2065305D1*
X2324749D2*
X2962473D1*
X3339055D2*
X3600999D1*
X3704680D2*
X3720335D1*
X3802337D2*
X3894114D1*
X47454Y1083989D2*
X269553D1*
X310393D2*
X382151D1*
X588762D2*
X778782D1*
X951311D2*
X1005295D1*
X1232317D2*
X1257444D1*
X1644866D2*
X1748313D1*
X1862200D2*
X2065305D1*
X2312151D2*
X2918577D1*
X3075823D2*
X3111790D1*
X3339055D2*
X3720335D1*
X3802337D2*
X3894114D1*
X47503Y1059121D2*
X252708D1*
X327239D2*
X528733D1*
X588762D2*
X778782D1*
X951311D2*
X1005295D1*
X1232317D2*
X1257444D1*
X1644866D2*
X1723460D1*
X1837346D2*
X2065305D1*
X2323919D2*
X2918577D1*
X3087395D2*
X3111790D1*
X3360198D2*
X3382688D1*
X3560637D2*
X3606614D1*
X3699016D2*
X3720335D1*
X3802337D2*
X3894114D1*
X47551Y1034252D2*
X228098D1*
X351848D2*
X528733D1*
X588762D2*
X778782D1*
X951311D2*
X1005295D1*
X1232317D2*
X1257444D1*
X1644866D2*
X1698557D1*
X1812493D2*
X2065305D1*
X2349651D2*
X2918577D1*
X3087493D2*
X3111790D1*
X3802337D2*
X3894114D1*
X47600Y1009383D2*
X219602D1*
X360344D2*
X528733D1*
X588762D2*
X778782D1*
X951311D2*
X1005295D1*
X1232317D2*
X1257444D1*
X1644866D2*
X1674583D1*
X1787590D2*
X2065305D1*
X2374553D2*
X2918577D1*
X3087493D2*
X3111790D1*
X3307805D2*
X3327122D1*
X3802337D2*
X3894114D1*
X47649Y984514D2*
X220774D1*
X359172D2*
X528733D1*
X588762D2*
X778782D1*
X951311D2*
X1005295D1*
X1232317D2*
X1257444D1*
X1644866D2*
X1667649D1*
X1762737D2*
X2065305D1*
X2399260D2*
X2918577D1*
X3087493D2*
X3111790D1*
X3307805D2*
X3382688D1*
X3802337D2*
X3894114D1*
X47698Y959646D2*
X232200D1*
X347747D2*
X528733D1*
X588762D2*
X778782D1*
X951311D2*
X1005295D1*
X1232317D2*
X1435374D1*
X1644866D2*
X1667649D1*
X1749651D2*
X2065305D1*
X2407463D2*
X2918577D1*
X3087493D2*
X3111790D1*
X3307805D2*
X3382688D1*
X3560637D2*
X3600217D1*
X3705413D2*
X3720300D1*
X3802337D2*
X3894114D1*
X47747Y934777D2*
X266868D1*
X313079D2*
X528733D1*
X588762D2*
X778782D1*
X951311D2*
X1005295D1*
X1232317D2*
X1435374D1*
X1644866D2*
X1667649D1*
X1749651D2*
X2065305D1*
X2407463D2*
X2763987D1*
X2878997D2*
X2925413D1*
X3087493D2*
X3111790D1*
X3307805D2*
X3720335D1*
X3802337D2*
X3894114D1*
X47844Y909908D2*
X528733D1*
X588762D2*
X778782D1*
X951311D2*
X1005295D1*
X1232317D2*
X1435374D1*
X1644866D2*
X1667649D1*
X1749651D2*
X2065305D1*
X2497844D2*
X2763987D1*
X2878997D2*
X2925413D1*
X3087493D2*
X3111790D1*
X3307805D2*
X3720335D1*
X3802337D2*
X3894114D1*
X47893Y885039D2*
X528733D1*
X588762D2*
X778782D1*
X951311D2*
X1005295D1*
X1644866D2*
X1667649D1*
X1749651D2*
X2065305D1*
X2497844D2*
X2763987D1*
X2878997D2*
X2925413D1*
X3307805D2*
X3720335D1*
X3802337D2*
X3894114D1*
X47942Y860171D2*
X270481D1*
X309514D2*
X528733D1*
X588762D2*
X778782D1*
X951311D2*
X1005295D1*
X1644866D2*
X1667649D1*
X1749651D2*
X2065305D1*
X2497844D2*
X2763987D1*
X2878997D2*
X2925413D1*
X3307805D2*
X3617454D1*
X3688225D2*
X3720335D1*
X3802337D2*
X3894114D1*
X47991Y835302D2*
X232981D1*
X346965D2*
X468186D1*
X588762D2*
X778782D1*
X951311D2*
X1005295D1*
X1229729D2*
X1435374D1*
X1644866D2*
X1667649D1*
X1749651D2*
X2065305D1*
X2497844D2*
X2763987D1*
X2878997D2*
X2925413D1*
X3163665D2*
X3174281D1*
X3307805D2*
X3591575D1*
X3802337D2*
X3894114D1*
X48040Y810433D2*
X221018D1*
X410784D2*
X455247D1*
X588762D2*
X778782D1*
X951311D2*
X1005295D1*
X1644866D2*
X1667649D1*
X1749651D2*
X2021604D1*
X2423235D2*
X2763987D1*
X2878997D2*
X2925413D1*
X3040422D2*
X3174290D1*
X3307805D2*
X3582639D1*
X3802337D2*
X3894114D1*
X48088Y785564D2*
X219456D1*
X588762D2*
X777854D1*
X951311D2*
X1005295D1*
X1644866D2*
X1667649D1*
X1749651D2*
X1996751D1*
X2423235D2*
X2763987D1*
X2899212D2*
X2925413D1*
X3040422D2*
X3174290D1*
X3307805D2*
X3583372D1*
X3802337D2*
X3894114D1*
X48137Y760696D2*
X227512D1*
X588762D2*
X753001D1*
X951311D2*
X1005344D1*
X1241838D2*
X1435374D1*
X1644866D2*
X1667649D1*
X1749651D2*
X1971897D1*
X2423235D2*
X2763987D1*
X3040422D2*
X3174290D1*
X3307805D2*
X3594309D1*
X3802337D2*
X3894114D1*
X48186Y735827D2*
X250999D1*
X328948D2*
X369651D1*
X588762D2*
X728147D1*
X951311D2*
X1016135D1*
X1644866D2*
X1667649D1*
X1749651D2*
X1946995D1*
X2344915D2*
X2835032D1*
X2948967D2*
X3174290D1*
X3307805D2*
X3626585D1*
X3802337D2*
X3894114D1*
X48235Y710958D2*
X273899D1*
X306047D2*
X369651D1*
X588762D2*
X703245D1*
X951311D2*
X1040989D1*
X1644866D2*
X1667649D1*
X1749651D2*
X1922141D1*
X2497844D2*
X2764280D1*
X3016253D2*
X3174290D1*
X3308294D2*
X3618919D1*
X3686760D2*
X3697498D1*
X3802337D2*
X3894114D1*
X48284Y686089D2*
X233567D1*
X346379D2*
X528733D1*
X588762D2*
X678391D1*
X951311D2*
X1065842D1*
X1644866D2*
X1667649D1*
X1749651D2*
X1910129D1*
X1980071D2*
X1991834D1*
X2497844D2*
X2748411D1*
X3032073D2*
X3174290D1*
X3333147D2*
X3376438D1*
X3797844D2*
X3894114D1*
X48333Y661220D2*
X221213D1*
X358733D2*
X528733D1*
X588762D2*
X653538D1*
X805071D2*
X816251D1*
X951311D2*
X1090696D1*
X1323088D2*
X1435374D1*
X1749651D2*
X1910129D1*
X1970159D2*
X1991868D1*
X2063860D2*
X2297922D1*
X2497844D2*
X2744260D1*
X2886223D2*
X2894280D1*
X3036223D2*
X3174290D1*
X3256292D2*
X3275266D1*
X3793840D2*
X3894114D1*
X48430Y636352D2*
X219407D1*
X360588D2*
X510081D1*
X587737D2*
X628684D1*
X780217D2*
X816282D1*
X951311D2*
X1115598D1*
X1337004D2*
X1435374D1*
X1749651D2*
X1910129D1*
X1970159D2*
X1991868D1*
X2063860D2*
X2319846D1*
X2497844D2*
X2749485D1*
X2881047D2*
X2899435D1*
X3031047D2*
X3174290D1*
X3267180D2*
X3300120D1*
X3793840D2*
X3894114D1*
X48479Y611483D2*
X227073D1*
X352874D2*
X503733D1*
X567815D2*
X606223D1*
X686565D2*
X703733D1*
X763762D2*
X816282D1*
X1331829D2*
X1435374D1*
X1749651D2*
X1910129D1*
X1970159D2*
X1991868D1*
X2063860D2*
X2320042D1*
X2430315D2*
X2767112D1*
X2863372D2*
X2917112D1*
X3013372D2*
X3179807D1*
X3292083D2*
X3376438D1*
X3554387D2*
X3593723D1*
X3793840D2*
X3894114D1*
X48528Y586614D2*
X249778D1*
X330169D2*
X503733D1*
X563762D2*
X603733D1*
X663762D2*
X703733D1*
X763762D2*
X816282D1*
X1279241D2*
X1435374D1*
X1644866D2*
X1667649D1*
X1749651D2*
X1910129D1*
X1970159D2*
X1991868D1*
X2063860D2*
X2320042D1*
X2423235D2*
X3203049D1*
X3316936D2*
X3624583D1*
X3681096D2*
X3707444D1*
X3793840D2*
X3894114D1*
X48577Y561745D2*
X503733D1*
X563762D2*
X603733D1*
X663762D2*
X703733D1*
X763762D2*
X816282D1*
X1304094D2*
X1667649D1*
X1749651D2*
X1910129D1*
X1970159D2*
X1991868D1*
X2063860D2*
X2320042D1*
X2423235D2*
X3227903D1*
X3341790D2*
X3682590D1*
X3791448D2*
X3894114D1*
X48626Y536877D2*
X503733D1*
X563762D2*
X603733D1*
X663762D2*
X703733D1*
X763762D2*
X806419D1*
X1328948D2*
X1557639D1*
X1760247D2*
X1813743D1*
X2079436D2*
X2320042D1*
X2423235D2*
X3252756D1*
X3366692D2*
X3657688D1*
X3771624D2*
X3894114D1*
X328606Y512008D2*
X503733D1*
X563762D2*
X603733D1*
X663762D2*
X703733D1*
X763762D2*
X803733D1*
X1044475D2*
X1092991D1*
X1351506D2*
X1532249D1*
X2079436D2*
X3277659D1*
X362151Y487139D2*
X503733D1*
X563762D2*
X603733D1*
X663762D2*
X703733D1*
X763762D2*
X803733D1*
X931829D2*
X986594D1*
X1063128D2*
X1103733D1*
X1163762D2*
X1192844D1*
X1356096D2*
X1532590D1*
X2079436D2*
X3302512D1*
X395745Y462270D2*
X477756D1*
X1356096D2*
X1561448D1*
X1760247D2*
X1813743D1*
X2079436D2*
X3328196D1*
X429290Y437402D2*
X477756D1*
X1356096D2*
X1657102D1*
X1760247D2*
X3543040D1*
X462883Y412533D2*
X477756D1*
X1356096D2*
X1657102D1*
X1760247D2*
X2625217D1*
X3149016D2*
X3521848D1*
X1356096Y387664D2*
X1504465D1*
X1525748D2*
X1560715D1*
X1582024D2*
X1657102D1*
X1760247D2*
X2625217D1*
X3149016D2*
X3500657D1*
X1356096Y362795D2*
X1476292D1*
X1610198D2*
X2625217D1*
X3149016D2*
X3479465D1*
X504973Y337927D2*
X1271018D1*
X1356096D2*
X1476047D1*
X1879436D2*
X2625217D1*
X3149016D2*
X3458274D1*
X504973Y313058D2*
X1202415D1*
X1354192D2*
X1485081D1*
X1545110D2*
X1558129D1*
X1882659D2*
X2625217D1*
X3149016D2*
X3456565D1*
X504973Y288189D2*
X1179221D1*
X1335198D2*
X1485081D1*
X1545110D2*
X1822629D1*
X1882659D2*
X2625217D1*
X3149016D2*
X3456565D1*
X504973Y263320D2*
X1173753D1*
X1309856D2*
X1485081D1*
X1545110D2*
X1822629D1*
X1882659D2*
X2625217D1*
X3149016D2*
X3456565D1*
X504973Y238451D2*
X553928D1*
X1255754D2*
X1294407D1*
X1387346D2*
X1485081D1*
X1545110D2*
X1569993D1*
X1743645D2*
X1822629D1*
X1882659D2*
X1926292D1*
X2019231D2*
X2625217D1*
X3149016D2*
X3456565D1*
X504973Y213583D2*
X515339D1*
X1255754D2*
X1275706D1*
X1406047D2*
X1485081D1*
X1762346D2*
X1822629D1*
X1882659D2*
X1907590D1*
X2037932D2*
X2625217D1*
X3149016D2*
X3456565D1*
X1411809Y188714D2*
X1485081D1*
X1768108D2*
X1822629D1*
X1882659D2*
X1901829D1*
X2043694D2*
X2625217D1*
X3149016D2*
X3456565D1*
X1408196Y163845D2*
X1485081D1*
X1764495D2*
X1822629D1*
X1882659D2*
X1905393D1*
X2040081D2*
X2625217D1*
X3149016D2*
X3456565D1*
X1449553Y138976D2*
X1485081D1*
X1805852D2*
X1822643D1*
X1882659D2*
X1896597D1*
X2025139D2*
X2053733D1*
X2114104D2*
X2153733D1*
X2214104D2*
X2253733D1*
X2314104D2*
X2353733D1*
X2414104D2*
X2453733D1*
X2514104D2*
X2553733D1*
X2614104D2*
X2625217D1*
X3149016D2*
X3456565D1*
X1289739Y114108D2*
X1330637D1*
X1449553D2*
X1487376D1*
X1620110D2*
X1686936D1*
X1805852D2*
X1822643D1*
X1976409D2*
X2032444D1*
X3149016D2*
X3456565D1*
X1289739Y89239D2*
X1330637D1*
X1449553D2*
X1507835D1*
X1626702D2*
X1686936D1*
X1805852D2*
X1834544D1*
X1983001D2*
X2028587D1*
X3149016D2*
X3456565D1*
X1289739Y64370D2*
X1330637D1*
X1449553D2*
X1512717D1*
X1621819D2*
X1686936D1*
X1805852D2*
X1860276D1*
X1978118D2*
X2037278D1*
X3149016D2*
X3456565D1*
X3149016Y39501D2*
X3456565D1*
X358431Y3135330D2*
X357339Y3125399D1*
X354814Y3115732D1*
X350910Y3106535D1*
X345710Y3098004D1*
X339323Y3090320D1*
X331888Y3083647D1*
X323560Y3078127D1*
X314518Y3073877D1*
X304954Y3070987D1*
X295071Y3069519D1*
X285080Y3069505D1*
X275193Y3070944D1*
X265621Y3073806D1*
X256566Y3078030D1*
X248223Y3083526D1*
X240768Y3090177D1*
X234359Y3097842D1*
X229134Y3106358D1*
X225203Y3115543D1*
X222650Y3125203D1*
X221530Y3135131D1*
X221865Y3145116D1*
X223650Y3154947D1*
X226845Y3164413D1*
X231384Y3173314D1*
X237169Y3181460D1*
X244077Y3188678D1*
X251962Y3194813D1*
X260656Y3199737D1*
X269974Y3203344D1*
X279716Y3205557D1*
X289678Y3206329D1*
X299645Y3205644D1*
X309407Y3203516D1*
X318756Y3199990D1*
X327492Y3195143D1*
X335430Y3189076D1*
X342401Y3181919D1*
X348257Y3173824D1*
X352873Y3164963D1*
X356151Y3155525D1*
X358022Y3145710D1*
X358431Y3135330D1*
X349665Y3254330D2*
X345394Y3247566D1*
X338413Y3239393D1*
X330240Y3232412D1*
X321075Y3226795D1*
X311144Y3222682D1*
X300692Y3220173D1*
X289976Y3219329D1*
X279261Y3220173D1*
X268809Y3222682D1*
X258878Y3226795D1*
X249713Y3232412D1*
X241540Y3239393D1*
X234559Y3247566D1*
X228942Y3256731D1*
X224829Y3266662D1*
X222320Y3277114D1*
X221476Y3287829D1*
X222320Y3298545D1*
X224829Y3308997D1*
X228942Y3318928D1*
X234559Y3328093D1*
X241540Y3336266D1*
X249713Y3343247D1*
X258878Y3348863D1*
X268809Y3352977D1*
X279261Y3355486D1*
X289976Y3356329D1*
X300692Y3355486D1*
X311144Y3352977D1*
X321075Y3348863D1*
X330240Y3343247D1*
X338413Y3336266D1*
X345394Y3328093D1*
X349665Y3321329D1*
X357310D1*
X365865Y3329851D1*
X365899Y3384627D1*
X506278D1*
X506590Y3392158D1*
X508345Y3398379D1*
X511504Y3404020D1*
X514306Y3407301D1*
X590900Y3483775D1*
X596275Y3487366D1*
X602340Y3489604D1*
X608760Y3490364D1*
X665742D1*
X665726Y3559645D1*
X692240D1*
X695371Y3563363D1*
X737528Y3605520D1*
X737526Y3615172D1*
X732978Y3624169D1*
X729656Y3634392D1*
X727975Y3645009D1*
Y3655758D1*
X729656Y3666374D1*
X732978Y3676597D1*
X737858Y3686174D1*
X744176Y3694870D1*
X751777Y3702471D1*
X760473Y3708789D1*
X770050Y3713669D1*
X780273Y3716991D1*
X790889Y3718672D1*
X801638D1*
X812255Y3716991D1*
X822478Y3713669D1*
X832055Y3708789D1*
X840751Y3702471D1*
X848352Y3694870D1*
X854670Y3686174D1*
X859550Y3676597D1*
X862871Y3666374D1*
X864553Y3655758D1*
Y3645009D1*
X862871Y3634392D1*
X859550Y3624169D1*
X854670Y3614592D1*
X848352Y3605896D1*
X840751Y3598295D1*
X832055Y3591977D1*
X822478Y3587097D1*
X813812Y3584215D1*
X822385Y3578832D1*
X857475D1*
Y3490493D1*
X784885D1*
Y3535366D1*
X765032Y3555230D1*
X763907Y3547145D1*
Y3488307D1*
X820074Y3488281D1*
Y3399942D1*
X811236D1*
X811278Y3378340D1*
X826925Y3378376D1*
X823012Y3385624D1*
X821145Y3391369D1*
X820200Y3397336D1*
Y3403378D1*
X821145Y3409345D1*
X822289Y3413129D1*
X822286Y3488281D1*
X894877D1*
Y3444091D1*
X934686Y3483775D1*
X940061Y3487366D1*
X946126Y3489604D1*
X952546Y3490364D1*
X1028278D1*
X1028261Y3559642D1*
X1091494D1*
X1121263Y3589416D1*
X1112288Y3594966D1*
X1104114Y3601946D1*
X1097134Y3610120D1*
X1091517Y3619285D1*
X1087404Y3629216D1*
X1084895Y3639667D1*
X1084051Y3650383D1*
X1084895Y3661099D1*
X1087404Y3671551D1*
X1091517Y3681482D1*
X1097134Y3690646D1*
X1104114Y3698820D1*
X1112288Y3705801D1*
X1121453Y3711417D1*
X1131384Y3715531D1*
X1141835Y3718040D1*
X1152551Y3718883D1*
X1163267Y3718040D1*
X1173719Y3715531D1*
X1183650Y3711417D1*
X1192814Y3705801D1*
X1200988Y3698820D1*
X1207969Y3690646D1*
X1213585Y3681482D1*
X1217699Y3671551D1*
X1220208Y3661099D1*
X1221051Y3650383D1*
X1220208Y3639667D1*
X1217699Y3629216D1*
X1213585Y3619285D1*
X1207969Y3610120D1*
X1200988Y3601946D1*
X1192814Y3594966D1*
X1183650Y3589349D1*
X1181493Y3588355D1*
X1191172Y3578832D1*
X1213763D1*
Y3490493D1*
X1141172D1*
Y3531558D1*
X1126456Y3516827D1*
X1126442Y3488304D1*
X1176361Y3488281D1*
Y3399942D1*
X1167523D1*
X1167566Y3378340D1*
X1192278Y3378377D1*
X1189462Y3383582D1*
X1187707Y3389804D1*
X1187369Y3399917D1*
Y3394115D1*
X1178574Y3399942D1*
Y3488281D1*
X1251164D1*
Y3437841D1*
X1297224Y3483775D1*
X1302599Y3487366D1*
X1308664Y3489604D1*
X1315084Y3490364D1*
X1384566D1*
X1384551Y3559646D1*
X1447784D1*
X1472038Y3583785D1*
X1477413Y3587377D1*
X1479382Y3588284D1*
X1468575Y3594966D1*
X1460402Y3601946D1*
X1453421Y3610120D1*
X1447805Y3619285D1*
X1443691Y3629216D1*
X1441182Y3639667D1*
X1440339Y3650383D1*
X1441182Y3661099D1*
X1443691Y3671551D1*
X1447805Y3681482D1*
X1453421Y3690646D1*
X1460402Y3698820D1*
X1468575Y3705801D1*
X1477740Y3711417D1*
X1487671Y3715531D1*
X1498123Y3718040D1*
X1508839Y3718883D1*
X1519554Y3718040D1*
X1530006Y3715531D1*
X1539937Y3711417D1*
X1549102Y3705801D1*
X1557275Y3698820D1*
X1564256Y3690646D1*
X1569873Y3681482D1*
X1573986Y3671551D1*
X1576495Y3661099D1*
X1577339Y3650383D1*
X1576495Y3639667D1*
X1573986Y3629216D1*
X1569873Y3619285D1*
X1564256Y3610120D1*
X1557275Y3601946D1*
X1549102Y3594966D1*
X1539937Y3589349D1*
X1536331Y3587687D1*
X1537675Y3583785D1*
X1542748Y3578832D1*
X1570050D1*
Y3490493D1*
X1497459D1*
Y3531558D1*
X1482723Y3516808D1*
X1482732Y3488308D1*
X1532649Y3488281D1*
Y3399942D1*
X1523811D1*
X1523853Y3378340D1*
X1550067Y3378377D1*
X1550081Y3389145D1*
X1546653Y3394328D1*
X1545000Y3398322D1*
X1534861Y3399942D1*
Y3488281D1*
X1607452D1*
Y3462841D1*
X1630205Y3485112D1*
X1635845Y3488270D1*
X1642067Y3490025D1*
X1646369Y3490364D1*
X1740851D1*
X1740839Y3559646D1*
X1798016D1*
X1826049Y3587674D1*
X1829335Y3591977D1*
X1820639Y3598295D1*
X1813038Y3605896D1*
X1806720Y3614592D1*
X1801840Y3624169D1*
X1798519Y3634392D1*
X1796837Y3645009D1*
Y3655758D1*
X1798519Y3666374D1*
X1801840Y3676597D1*
X1806720Y3686174D1*
X1813038Y3694870D1*
X1820639Y3702471D1*
X1829335Y3708789D1*
X1838912Y3713669D1*
X1849135Y3716991D1*
X1859752Y3718672D1*
X1870500D1*
X1881117Y3716991D1*
X1891340Y3713669D1*
X1900917Y3708789D1*
X1909613Y3702471D1*
X1917214Y3694870D1*
X1923532Y3686174D1*
X1928412Y3676597D1*
X1931733Y3666374D1*
X1933415Y3655758D1*
Y3645009D1*
X1931733Y3634392D1*
X1928412Y3624169D1*
X1923532Y3614592D1*
X1917214Y3605896D1*
X1909613Y3598295D1*
X1900917Y3591977D1*
X1891340Y3587097D1*
X1886392Y3585272D1*
X1886305Y3579460D1*
X1891247Y3578832D1*
X1926338D1*
Y3490493D1*
X1853747D1*
Y3521108D1*
X1845482Y3529339D1*
X1839020Y3522146D1*
Y3488308D1*
X1888936Y3488281D1*
Y3399942D1*
X1891149D1*
Y3488281D1*
X1963739D1*
Y3444775D1*
X1968901Y3443759D1*
X1969665Y3450531D1*
X1971903Y3456596D1*
X1975494Y3461971D1*
X1997298Y3483775D1*
X2002673Y3487366D1*
X2008738Y3489604D1*
X2015157Y3490364D1*
X2097140D1*
X2097126Y3559645D1*
X2160456D1*
X2190246Y3589357D1*
X2181150Y3594966D1*
X2172977Y3601946D1*
X2165996Y3610120D1*
X2160379Y3619285D1*
X2156266Y3629216D1*
X2153757Y3639667D1*
X2152913Y3650383D1*
X2153757Y3661099D1*
X2156266Y3671551D1*
X2160379Y3681482D1*
X2165996Y3690646D1*
X2172977Y3698820D1*
X2181150Y3705801D1*
X2190315Y3711417D1*
X2200246Y3715531D1*
X2210698Y3718040D1*
X2221413Y3718883D1*
X2232129Y3718040D1*
X2242581Y3715531D1*
X2252512Y3711417D1*
X2261677Y3705801D1*
X2269850Y3698820D1*
X2276831Y3690646D1*
X2282447Y3681482D1*
X2286561Y3671551D1*
X2289070Y3661099D1*
X2289913Y3650383D1*
X2289070Y3639667D1*
X2286561Y3629216D1*
X2282447Y3619285D1*
X2276831Y3610120D1*
X2269850Y3601946D1*
X2261677Y3594966D1*
X2255170Y3590838D1*
X2254841Y3583575D1*
X2254418Y3581449D1*
X2255030Y3579872D1*
X2256100Y3578801D1*
X2282625Y3578832D1*
Y3490493D1*
X2210034D1*
Y3531460D1*
X2195315Y3516741D1*
X2195307Y3488308D1*
X2245223Y3488281D1*
Y3399942D1*
X2236385D1*
X2236428Y3378339D1*
X2262642Y3378376D1*
X2262686Y3394164D1*
X2257526Y3399942D1*
X2247436D1*
Y3488281D1*
X2320026D1*
X2320288Y3446359D1*
X2322995Y3452230D1*
X2326997Y3457306D1*
X2353585Y3483775D1*
X2358960Y3487366D1*
X2365025Y3489604D1*
X2371445Y3490364D1*
X2453427D1*
X2453414Y3559646D1*
X2479927D1*
X2483058Y3563363D1*
X2492795Y3572621D1*
X2498435Y3575779D1*
X2504657Y3577534D1*
X2508959Y3577873D1*
X2561719Y3577963D1*
X2558558Y3583611D1*
X2556533Y3585236D1*
X2546602Y3589349D1*
X2537437Y3594966D1*
X2529264Y3601946D1*
X2522283Y3610120D1*
X2516667Y3619285D1*
X2512553Y3629216D1*
X2510044Y3639667D1*
X2509201Y3650383D1*
X2510044Y3661099D1*
X2512553Y3671551D1*
X2516667Y3681482D1*
X2522283Y3690646D1*
X2529264Y3698820D1*
X2537437Y3705801D1*
X2546602Y3711417D1*
X2556533Y3715531D1*
X2566985Y3718040D1*
X2577701Y3718883D1*
X2588417Y3718040D1*
X2598868Y3715531D1*
X2608799Y3711417D1*
X2617964Y3705801D1*
X2626138Y3698820D1*
X2633118Y3690646D1*
X2638735Y3681482D1*
X2642848Y3671551D1*
X2645357Y3661099D1*
X2646201Y3650383D1*
X2645357Y3639667D1*
X2642848Y3629216D1*
X2638735Y3619285D1*
X2633118Y3610120D1*
X2626138Y3601946D1*
X2620225Y3596748D1*
X2624967Y3591540D1*
X2628126Y3585899D1*
X2629882Y3579669D1*
X2638912Y3578832D1*
Y3490493D1*
X2566322D1*
Y3522866D1*
X2551596Y3522873D1*
X2551595Y3488308D1*
X2601511Y3488281D1*
Y3399942D1*
X2603723D1*
Y3488281D1*
X2676314D1*
Y3432568D1*
X2681486Y3432400D1*
X2681819Y3448413D1*
X2683574Y3454635D1*
X2686732Y3460276D1*
X2689535Y3463557D1*
X2711568Y3485112D1*
X2717208Y3488270D1*
X2723430Y3490025D1*
X2727732Y3490364D1*
X2809715D1*
X2809701Y3559646D1*
X2841879D1*
X2866139Y3583785D1*
X2871514Y3587377D1*
X2877579Y3589614D1*
X2883999Y3590374D1*
X2900942D1*
X2893725Y3594966D1*
X2885551Y3601946D1*
X2878571Y3610120D1*
X2872954Y3619285D1*
X2868841Y3629216D1*
X2866332Y3639667D1*
X2865488Y3650383D1*
X2866332Y3661099D1*
X2868841Y3671551D1*
X2872954Y3681482D1*
X2878571Y3690646D1*
X2885551Y3698820D1*
X2893725Y3705801D1*
X2902890Y3711417D1*
X2912821Y3715531D1*
X2923272Y3718040D1*
X2933988Y3718883D1*
X2944704Y3718040D1*
X2955156Y3715531D1*
X2965087Y3711417D1*
X2974251Y3705801D1*
X2982425Y3698820D1*
X2989406Y3690646D1*
X2995022Y3681482D1*
X2999136Y3671551D1*
X3001645Y3661099D1*
X3002488Y3650383D1*
X3001645Y3639667D1*
X2999136Y3629216D1*
X2995022Y3619285D1*
X2989406Y3610120D1*
X2982425Y3601946D1*
X2974251Y3594966D1*
X2965087Y3589349D1*
X2963280Y3588281D1*
X2968920Y3585122D1*
X2975676Y3578845D1*
X2972207Y3582313D1*
X2985109Y3578832D1*
X2995200D1*
Y3490493D1*
X2922609D1*
Y3535366D1*
X2907865Y3535374D1*
X2907882Y3488308D1*
X2957798Y3488281D1*
Y3399942D1*
X2960011D1*
Y3488281D1*
X3032601D1*
Y3432568D1*
X3038665Y3432295D1*
X3040765Y3437844D1*
X3044356Y3443219D1*
X3084912Y3483775D1*
X3090287Y3487366D1*
X3096352Y3489604D1*
X3102772Y3490364D1*
X3166004D1*
X3165988Y3559645D1*
X3187619D1*
X3187917Y3566971D1*
X3189672Y3573193D1*
X3192831Y3578833D1*
X3195633Y3582115D1*
X3211621Y3597623D1*
X3217261Y3600782D1*
X3223483Y3602537D1*
X3227785Y3602875D1*
X3240920D1*
X3234858Y3610120D1*
X3229242Y3619285D1*
X3225128Y3629216D1*
X3222619Y3639667D1*
X3221776Y3650383D1*
X3222619Y3661099D1*
X3225128Y3671551D1*
X3229242Y3681482D1*
X3234858Y3690646D1*
X3241839Y3698820D1*
X3250012Y3705801D1*
X3259177Y3711417D1*
X3269108Y3715531D1*
X3279560Y3718040D1*
X3290276Y3718883D1*
X3300991Y3718040D1*
X3311443Y3715531D1*
X3321374Y3711417D1*
X3330539Y3705801D1*
X3338712Y3698820D1*
X3345693Y3690646D1*
X3351310Y3681482D1*
X3355423Y3671551D1*
X3357932Y3661099D1*
X3358776Y3650383D1*
X3357932Y3639667D1*
X3355423Y3629216D1*
X3351310Y3619285D1*
X3345693Y3610120D1*
X3338712Y3601946D1*
X3332799Y3596748D1*
X3337542Y3591540D1*
X3340701Y3585899D1*
X3342457Y3579669D1*
X3351487Y3578832D1*
Y3490493D1*
X3278897D1*
Y3547866D1*
X3264171Y3547875D1*
X3264170Y3488307D1*
X3314085Y3488281D1*
Y3399942D1*
X3316298D1*
Y3488281D1*
X3388889D1*
Y3432568D1*
X3396325Y3432132D1*
X3402199Y3430722D1*
X3407780Y3428410D1*
X3412932Y3425253D1*
X3417525Y3421330D1*
X3421449Y3416736D1*
X3424606Y3411585D1*
X3426918Y3406003D1*
X3428328Y3400129D1*
X3428802Y3394106D1*
X3428328Y3388084D1*
X3426918Y3382209D1*
X3424606Y3376628D1*
X3421449Y3371477D1*
X3417525Y3366883D1*
X3412932Y3362959D1*
X3407935Y3359889D1*
Y3272321D1*
X3234950D1*
Y3378376D1*
X3256581D1*
X3256541Y3399910D1*
X3241495Y3399942D1*
Y3400870D1*
X3201472Y3400902D1*
X3201471Y3384232D1*
X3128881D1*
Y3435355D1*
X3114158Y3435363D1*
X3092766Y3413967D1*
X3092768Y3382049D1*
X3164070Y3382020D1*
Y3293681D1*
X3155232D1*
X3156059Y3292201D1*
X3186189Y3261950D1*
X3189784Y3256568D1*
X3199751Y3255472D1*
X3399575D1*
Y3190873D1*
X3558155Y3190857D1*
Y3171374D1*
X3589973Y3171329D1*
X3594424Y3179887D1*
X3600742Y3188583D1*
X3608342Y3196184D1*
X3617038Y3202502D1*
X3626616Y3207382D1*
X3636838Y3210703D1*
X3647455Y3212385D1*
X3658204D1*
X3668820Y3210703D1*
X3679043Y3207382D1*
X3688621Y3202502D1*
X3692691Y3199782D1*
X3665634Y3226844D1*
X3658204Y3225807D1*
X3647455D1*
X3636838Y3227488D1*
X3626616Y3230810D1*
X3617038Y3235690D1*
X3608342Y3242008D1*
X3600742Y3249609D1*
X3594424Y3258305D1*
X3589544Y3267882D1*
X3586222Y3278105D1*
X3584541Y3288721D1*
Y3299470D1*
X3586222Y3310087D1*
X3589544Y3320310D1*
X3594424Y3329887D1*
X3600742Y3338583D1*
X3608342Y3346184D1*
X3617038Y3352502D1*
X3626616Y3357382D1*
X3636838Y3360703D1*
X3647455Y3362385D1*
X3658204D1*
X3668820Y3360703D1*
X3679043Y3357382D1*
X3688621Y3352502D1*
X3697317Y3346184D1*
X3704917Y3338583D1*
X3711235Y3329887D1*
X3716115Y3320310D1*
X3719437Y3310087D1*
X3721118Y3299470D1*
Y3288721D1*
X3720072Y3281299D1*
X3790600Y3210605D1*
X3794151Y3205717D1*
X3796894Y3200334D1*
X3798760Y3194589D1*
X3799706Y3188622D1*
X3799824Y3060601D1*
X3799706Y701070D1*
X3798760Y695103D1*
X3796894Y689357D1*
X3794151Y683974D1*
X3792464Y681452D1*
X3791340Y675075D1*
X3791221Y572040D1*
X3790276Y566073D1*
X3788409Y560327D1*
X3785667Y554944D1*
X3782116Y550057D1*
X3744812Y512585D1*
X3896624Y512553D1*
X3896606Y3425394D1*
X3613370Y3425515D1*
X3609651Y3426723D1*
X3606333Y3429178D1*
X3430067Y3611961D1*
X3428353Y3615476D1*
X3427807Y3619130D1*
Y3894179D1*
X521215Y3894160D1*
X521095Y3610924D1*
X519887Y3607204D1*
X518195Y3604693D1*
X354281Y3415796D1*
X350932Y3413777D1*
X347213Y3412898D1*
X39933Y3412860D1*
X46199Y512553D1*
X323185Y512399D1*
X326905Y511190D1*
X348759Y495216D1*
X480239Y397823D1*
X480252Y483509D1*
X506278D1*
X506337Y620973D1*
X507598Y627313D1*
X510304Y633184D1*
X514306Y638260D1*
X531259Y655213D1*
X531254Y697089D1*
X372150Y697051D1*
Y751787D1*
X363612Y760330D1*
X349718Y760318D1*
X345394Y753554D1*
X338413Y745381D1*
X330240Y738400D1*
X321075Y732784D1*
X311144Y728670D1*
X300692Y726161D1*
X289976Y725318D1*
X279261Y726161D1*
X268809Y728670D1*
X258878Y732784D1*
X249713Y738400D1*
X241540Y745381D1*
X234559Y753554D1*
X228942Y762719D1*
X224829Y772650D1*
X222320Y783102D1*
X221476Y793818D1*
X222320Y804533D1*
X224829Y814985D1*
X228942Y824916D1*
X234559Y834081D1*
X241540Y842254D1*
X249713Y849235D1*
X258878Y854852D1*
X268809Y858965D1*
X279261Y861474D1*
X289976Y862318D1*
X300692Y861474D1*
X311144Y858965D1*
X321075Y854852D1*
X330240Y849235D1*
X338413Y842254D1*
X345394Y834081D1*
X349665Y827317D1*
X380130Y827214D1*
X387853Y825678D1*
X395005Y822381D1*
X401196Y817498D1*
X415587Y803108D1*
X457662Y803314D1*
Y809355D1*
X458607Y815322D1*
X460474Y821068D1*
X463217Y826451D1*
X466768Y831338D1*
X471040Y835610D1*
X475927Y839161D1*
X481310Y841904D1*
X487056Y843771D1*
X493023Y844716D1*
X499064D1*
X505031Y843771D1*
X510777Y841904D1*
X516160Y839161D1*
X521047Y835610D1*
X525319Y831338D1*
X528870Y826451D1*
X531252Y821851D1*
X531254Y1059589D1*
X384651D1*
Y1114325D1*
X382397Y1116585D1*
X349720Y1116605D1*
X345394Y1109842D1*
X338413Y1101668D1*
X330240Y1094687D1*
X321075Y1089071D1*
X311144Y1084958D1*
X300692Y1082448D1*
X289976Y1081605D1*
X279261Y1082448D1*
X268809Y1084958D1*
X258878Y1089071D1*
X249713Y1094687D1*
X241540Y1101668D1*
X234559Y1109842D1*
X228942Y1119007D1*
X224829Y1128937D1*
X222320Y1139389D1*
X221476Y1150105D1*
X222320Y1160821D1*
X224829Y1171273D1*
X228942Y1181203D1*
X234559Y1190368D1*
X241540Y1198542D1*
X249713Y1205523D1*
X258878Y1211139D1*
X268809Y1215252D1*
X279261Y1217762D1*
X289976Y1218605D1*
X300692Y1217762D1*
X311144Y1215252D1*
X321075Y1211139D1*
X330240Y1205523D1*
X338413Y1198542D1*
X345394Y1190368D1*
X349665Y1183605D1*
X398882Y1183502D1*
X406605Y1181965D1*
X413757Y1178668D1*
X419948Y1173786D1*
X428124Y1165610D1*
X470163Y1165852D1*
Y1171893D1*
X471108Y1177860D1*
X472975Y1183606D1*
X475718Y1188989D1*
X479269Y1193876D1*
X483541Y1198148D1*
X488428Y1201699D1*
X493811Y1204442D1*
X499557Y1206309D1*
X505524Y1207254D1*
X511565D1*
X517532Y1206309D1*
X523278Y1204442D1*
X528661Y1201699D1*
X531258Y1199954D1*
X531254Y1428339D1*
X378400Y1428378D1*
Y1472860D1*
X349721Y1472892D1*
X345394Y1466129D1*
X338413Y1457956D1*
X330240Y1450975D1*
X321075Y1445358D1*
X311144Y1441245D1*
X300692Y1438736D1*
X289976Y1437892D1*
X279261Y1438736D1*
X268809Y1441245D1*
X258878Y1445358D1*
X249713Y1450975D1*
X241540Y1457956D1*
X234559Y1466129D1*
X228942Y1475294D1*
X224829Y1485225D1*
X222320Y1495677D1*
X221476Y1506392D1*
X222320Y1517108D1*
X224829Y1527560D1*
X228942Y1537491D1*
X234559Y1546656D1*
X241540Y1554829D1*
X249713Y1561810D1*
X258878Y1567426D1*
X268809Y1571540D1*
X279261Y1574049D1*
X289976Y1574892D1*
X300692Y1574049D1*
X311144Y1571540D1*
X321075Y1567426D1*
X330240Y1561810D1*
X338413Y1554829D1*
X345394Y1546656D1*
X349665Y1539892D1*
X405132Y1539789D1*
X412856Y1538253D1*
X420016Y1534950D1*
X428400Y1534433D1*
X467194D1*
X464858Y1541175D1*
X463913Y1547142D1*
Y1553183D1*
X464858Y1559150D1*
X466725Y1564896D1*
X469467Y1570279D1*
X473018Y1575166D1*
X477290Y1579438D1*
X482178Y1582989D1*
X487561Y1585732D1*
X493306Y1587599D1*
X499273Y1588544D1*
X505315D1*
X511282Y1587599D1*
X517027Y1585732D1*
X522410Y1582989D1*
X527298Y1579438D1*
X531257Y1575505D1*
X531254Y1797187D1*
X378400Y1797167D1*
Y1829149D1*
X349722Y1829180D1*
X345394Y1822417D1*
X338413Y1814243D1*
X330240Y1807262D1*
X321075Y1801646D1*
X311144Y1797532D1*
X300692Y1795023D1*
X289976Y1794180D1*
X279261Y1795023D1*
X268809Y1797532D1*
X258878Y1801646D1*
X249713Y1807262D1*
X241540Y1814243D1*
X234559Y1822417D1*
X228942Y1831581D1*
X224829Y1841512D1*
X222320Y1851964D1*
X221476Y1862680D1*
X222320Y1873396D1*
X224829Y1883847D1*
X228942Y1893778D1*
X234559Y1902943D1*
X241540Y1911117D1*
X249713Y1918097D1*
X258878Y1923714D1*
X268809Y1927827D1*
X279261Y1930336D1*
X289976Y1931180D1*
X300692Y1930336D1*
X311144Y1927827D1*
X321075Y1923714D1*
X330240Y1918097D1*
X338413Y1911117D1*
X345394Y1902943D1*
X349665Y1896180D1*
X378404D1*
X378400Y1903222D1*
X464973D1*
X463913Y1909680D1*
Y1915721D1*
X464858Y1921688D1*
X466725Y1927434D1*
X469467Y1932817D1*
X473018Y1937705D1*
X477290Y1941976D1*
X482178Y1945527D1*
X487561Y1948270D1*
X493306Y1950137D1*
X499273Y1951082D1*
X505315D1*
X511282Y1950137D1*
X517027Y1948270D1*
X522410Y1945527D1*
X527298Y1941976D1*
X531257Y1938043D1*
X531254Y2143769D1*
X524924Y2138035D1*
X519773Y2134879D1*
X514191Y2132567D1*
X508317Y2131156D1*
X502294Y2130682D1*
X496271Y2131156D1*
X490397Y2132567D1*
X484815Y2134879D1*
X479664Y2138035D1*
X475070Y2141959D1*
X471147Y2146553D1*
X467990Y2151704D1*
X465678Y2157285D1*
X464268Y2163160D1*
X463794Y2169182D1*
X463885Y2172206D1*
X378400D1*
Y2185438D1*
X349691Y2185467D1*
X345394Y2178704D1*
X338413Y2170530D1*
X330240Y2163550D1*
X321075Y2157933D1*
X311144Y2153820D1*
X300692Y2151311D1*
X289976Y2150467D1*
X279261Y2151311D1*
X268809Y2153820D1*
X258878Y2157933D1*
X249713Y2163550D1*
X241540Y2170530D1*
X234559Y2178704D1*
X228942Y2187869D1*
X224829Y2197800D1*
X222320Y2208251D1*
X221476Y2218967D1*
X222320Y2229683D1*
X224829Y2240135D1*
X228942Y2250066D1*
X234559Y2259230D1*
X241540Y2267404D1*
X249713Y2274385D1*
X258878Y2280001D1*
X268809Y2284115D1*
X279261Y2286624D1*
X289976Y2287467D1*
X300692Y2286624D1*
X311144Y2284115D1*
X321075Y2280001D1*
X330240Y2274385D1*
X338413Y2267404D1*
X345394Y2259230D1*
X349665Y2252467D1*
X378404D1*
X378400Y2278261D1*
X531280D1*
X531254Y2506366D1*
X527298Y2502445D1*
X522410Y2498894D1*
X517027Y2496151D1*
X511282Y2494284D1*
X505315Y2493339D1*
X499273D1*
X493306Y2494284D1*
X487561Y2496151D1*
X482178Y2498894D1*
X477290Y2502445D1*
X473018Y2506717D1*
X469467Y2511604D1*
X466725Y2516987D1*
X464858Y2522733D1*
X463913Y2528700D1*
X463885Y2534744D1*
X378400D1*
Y2541726D1*
X349691Y2541754D1*
X345394Y2534991D1*
X338413Y2526818D1*
X330240Y2519837D1*
X321075Y2514221D1*
X311144Y2510107D1*
X300692Y2507598D1*
X289976Y2506755D1*
X279261Y2507598D1*
X268809Y2510107D1*
X258878Y2514221D1*
X249713Y2519837D1*
X241540Y2526818D1*
X234559Y2534991D1*
X228942Y2544156D1*
X224829Y2554087D1*
X222320Y2564539D1*
X221476Y2575255D1*
X222320Y2585970D1*
X224829Y2596422D1*
X228942Y2606353D1*
X234559Y2615518D1*
X241540Y2623691D1*
X249713Y2630672D1*
X258878Y2636289D1*
X268809Y2640402D1*
X279261Y2642911D1*
X289976Y2643755D1*
X300692Y2642911D1*
X311144Y2640402D1*
X321075Y2636289D1*
X330240Y2630672D1*
X338413Y2623691D1*
X345394Y2615518D1*
X349665Y2608754D1*
X378404Y2608755D1*
X378400Y2640799D1*
X531280D1*
X531254Y2881366D1*
X524924Y2875613D1*
X519773Y2872456D1*
X514191Y2870144D1*
X508317Y2868734D1*
X502294Y2868260D1*
X496271Y2868734D1*
X490397Y2870144D1*
X484815Y2872456D1*
X479664Y2875613D1*
X475070Y2879536D1*
X471147Y2884130D1*
X467990Y2889281D1*
X465678Y2894863D1*
X464268Y2900737D1*
X463794Y2906760D1*
X463885Y2909783D1*
X421845D1*
X415913Y2904440D1*
X409042Y2900592D1*
X401462Y2898454D1*
X396222Y2898042D1*
X349689D1*
X345394Y2891279D1*
X338413Y2883105D1*
X330240Y2876124D1*
X321075Y2870508D1*
X311144Y2866395D1*
X300692Y2863885D1*
X289976Y2863042D1*
X279261Y2863885D1*
X268809Y2866395D1*
X258878Y2870508D1*
X249713Y2876124D1*
X241540Y2883105D1*
X234559Y2891279D1*
X228942Y2900444D1*
X224829Y2910374D1*
X222320Y2920826D1*
X221476Y2931542D1*
X222320Y2942258D1*
X224829Y2952710D1*
X228942Y2962640D1*
X234559Y2971805D1*
X241540Y2979979D1*
X249713Y2986960D1*
X258878Y2992576D1*
X268809Y2996689D1*
X279261Y2999199D1*
X289976Y3000042D1*
X300692Y2999199D1*
X311144Y2996689D1*
X321075Y2992576D1*
X330240Y2986960D1*
X338413Y2979979D1*
X345394Y2971805D1*
X349665Y2965042D1*
X378404D1*
X378400Y3015839D1*
X506475D1*
X506252Y3031567D1*
Y3240708D1*
X498780Y3238112D1*
X492813Y3237167D1*
X486772D1*
X480805Y3238112D1*
X475059Y3239979D1*
X469676Y3242722D1*
X464789Y3246273D1*
X460517Y3250545D1*
X456966Y3255432D1*
X454223Y3260815D1*
X452356Y3266561D1*
X451411Y3272528D1*
X451383Y3278572D1*
X409344D1*
X392976Y3262356D1*
X386428Y3257981D1*
X379040Y3255255D1*
X371209Y3254330D1*
X349686Y3254329D1*
X358431Y2779043D2*
X357339Y2769111D1*
X354814Y2759444D1*
X350910Y2750248D1*
X345710Y2741717D1*
X339323Y2734033D1*
X331888Y2727360D1*
X323560Y2721839D1*
X314518Y2717589D1*
X304954Y2714699D1*
X295071Y2713232D1*
X285080Y2713217D1*
X275193Y2714656D1*
X265621Y2717518D1*
X256566Y2721742D1*
X248223Y2727238D1*
X240768Y2733890D1*
X234359Y2741555D1*
X229134Y2750071D1*
X225203Y2759256D1*
X222650Y2768916D1*
X221530Y2778844D1*
X221865Y2788829D1*
X223650Y2798660D1*
X226845Y2808126D1*
X231384Y2817027D1*
X237169Y2825172D1*
X244077Y2832390D1*
X251962Y2838526D1*
X260656Y2843450D1*
X269974Y2847056D1*
X279716Y2849269D1*
X289678Y2850041D1*
X299645Y2849356D1*
X309407Y2847228D1*
X318756Y2843703D1*
X327492Y2838855D1*
X335430Y2832788D1*
X342401Y2825631D1*
X348257Y2817536D1*
X352873Y2808675D1*
X356151Y2799237D1*
X358022Y2789423D1*
X358431Y2779043D1*
Y2422755D2*
X357339Y2412824D1*
X354814Y2403157D1*
X350910Y2393960D1*
X345710Y2385429D1*
X339323Y2377746D1*
X331888Y2371072D1*
X323560Y2365552D1*
X314518Y2361302D1*
X304954Y2358412D1*
X295071Y2356944D1*
X285080Y2356930D1*
X275193Y2358369D1*
X265621Y2361231D1*
X256566Y2365455D1*
X248223Y2370951D1*
X240768Y2377602D1*
X234359Y2385267D1*
X229134Y2393783D1*
X225203Y2402969D1*
X222650Y2412628D1*
X221530Y2422556D1*
X221865Y2432542D1*
X223650Y2442372D1*
X226845Y2451838D1*
X231384Y2460739D1*
X237169Y2468885D1*
X244077Y2476103D1*
X251962Y2482239D1*
X260656Y2487162D1*
X269974Y2490769D1*
X279716Y2492982D1*
X289678Y2493754D1*
X299645Y2493069D1*
X309407Y2490941D1*
X318756Y2487416D1*
X327492Y2482568D1*
X335430Y2476501D1*
X342401Y2469344D1*
X348257Y2461249D1*
X352873Y2452388D1*
X356151Y2442950D1*
X358022Y2433135D1*
X358431Y2422755D1*
Y2066468D2*
X357339Y2056536D1*
X354814Y2046870D1*
X350910Y2037673D1*
X345710Y2029142D1*
X339323Y2021458D1*
X331888Y2014785D1*
X323560Y2009265D1*
X314518Y2005014D1*
X304954Y2002125D1*
X295071Y2000657D1*
X285080Y2000642D1*
X275193Y2002081D1*
X265621Y2004943D1*
X256566Y2009167D1*
X248223Y2014663D1*
X240768Y2021315D1*
X234359Y2028980D1*
X229134Y2037496D1*
X225203Y2046681D1*
X222650Y2056341D1*
X221530Y2066269D1*
X221865Y2076254D1*
X223650Y2086085D1*
X226845Y2095551D1*
X231384Y2104452D1*
X237169Y2112598D1*
X244077Y2119815D1*
X251962Y2125951D1*
X260656Y2130875D1*
X269974Y2134482D1*
X279716Y2136694D1*
X289678Y2137467D1*
X299645Y2136781D1*
X309407Y2134654D1*
X318756Y2131128D1*
X327492Y2126281D1*
X335430Y2120214D1*
X342401Y2113056D1*
X348257Y2104961D1*
X352873Y2096101D1*
X356151Y2086662D1*
X358022Y2076848D1*
X358431Y2066468D1*
Y1710180D2*
X357339Y1700249D1*
X354814Y1690582D1*
X350910Y1681385D1*
X345710Y1672854D1*
X339323Y1665171D1*
X331888Y1658498D1*
X323560Y1652977D1*
X314518Y1648727D1*
X304954Y1645837D1*
X295071Y1644370D1*
X285080Y1644355D1*
X275193Y1645794D1*
X265621Y1648656D1*
X256566Y1652880D1*
X248223Y1658376D1*
X240768Y1665027D1*
X234359Y1672693D1*
X229134Y1681208D1*
X225203Y1690394D1*
X222650Y1700053D1*
X221530Y1709981D1*
X221865Y1719967D1*
X223650Y1729797D1*
X226845Y1739264D1*
X231384Y1748164D1*
X237169Y1756310D1*
X244077Y1763528D1*
X251962Y1769664D1*
X260656Y1774588D1*
X269974Y1778194D1*
X279716Y1780407D1*
X289678Y1781179D1*
X299645Y1780494D1*
X309407Y1778366D1*
X318756Y1774841D1*
X327492Y1769993D1*
X335430Y1763926D1*
X342401Y1756769D1*
X348257Y1748674D1*
X352873Y1739813D1*
X356151Y1730375D1*
X358022Y1720560D1*
X358431Y1710180D1*
Y1353893D2*
X357339Y1343962D1*
X354814Y1334295D1*
X350910Y1325098D1*
X345710Y1316567D1*
X339323Y1308883D1*
X331888Y1302210D1*
X323560Y1296690D1*
X314518Y1292440D1*
X304954Y1289550D1*
X295071Y1288082D1*
X285080Y1288068D1*
X275193Y1289507D1*
X265621Y1292369D1*
X256566Y1296593D1*
X248223Y1302089D1*
X240768Y1308740D1*
X234359Y1316405D1*
X229134Y1324921D1*
X225203Y1334106D1*
X222650Y1343766D1*
X221530Y1353694D1*
X221865Y1363679D1*
X223650Y1373510D1*
X226845Y1382976D1*
X231384Y1391877D1*
X237169Y1400023D1*
X244077Y1407241D1*
X251962Y1413376D1*
X260656Y1418300D1*
X269974Y1421907D1*
X279716Y1424120D1*
X289678Y1424892D1*
X299645Y1424207D1*
X309407Y1422079D1*
X318756Y1418553D1*
X327492Y1413706D1*
X335430Y1407639D1*
X342401Y1400482D1*
X348257Y1392387D1*
X352873Y1383526D1*
X356151Y1374088D1*
X358022Y1364273D1*
X358431Y1353893D1*
Y997606D2*
X357339Y987674D1*
X354814Y978007D1*
X350910Y968811D1*
X345710Y960280D1*
X339323Y952596D1*
X331888Y945923D1*
X323560Y940402D1*
X314518Y936152D1*
X304954Y933262D1*
X295071Y931795D1*
X285080Y931780D1*
X275193Y933219D1*
X265621Y936081D1*
X256566Y940305D1*
X248223Y945801D1*
X240768Y952453D1*
X234359Y960118D1*
X229134Y968634D1*
X225203Y977819D1*
X222650Y987479D1*
X221530Y997407D1*
X221865Y1007392D1*
X223650Y1017223D1*
X226845Y1026689D1*
X231384Y1035590D1*
X237169Y1043735D1*
X244077Y1050953D1*
X251962Y1057089D1*
X260656Y1062013D1*
X269974Y1065619D1*
X279716Y1067832D1*
X289678Y1068604D1*
X299645Y1067919D1*
X309407Y1065791D1*
X318756Y1062266D1*
X327492Y1057418D1*
X335430Y1051351D1*
X342401Y1044194D1*
X348257Y1036099D1*
X352873Y1027238D1*
X356151Y1017800D1*
X358022Y1007986D1*
X358431Y997606D1*
Y641318D2*
X357339Y631387D1*
X354814Y621720D1*
X350910Y612523D1*
X345710Y603992D1*
X339323Y596309D1*
X331888Y589635D1*
X323560Y584115D1*
X314518Y579865D1*
X304954Y576975D1*
X295071Y575507D1*
X285080Y575493D1*
X275193Y576932D1*
X265621Y579794D1*
X256566Y584018D1*
X248223Y589514D1*
X240768Y596165D1*
X234359Y603830D1*
X229134Y612346D1*
X225203Y621532D1*
X222650Y631191D1*
X221530Y641119D1*
X221865Y651105D1*
X223650Y660935D1*
X226845Y670401D1*
X231384Y679302D1*
X237169Y687448D1*
X244077Y694666D1*
X251962Y700802D1*
X260656Y705725D1*
X269974Y709332D1*
X279716Y711545D1*
X289678Y712317D1*
X299645Y711632D1*
X309407Y709504D1*
X318756Y705979D1*
X327492Y701131D1*
X335430Y695064D1*
X342401Y687907D1*
X348257Y679812D1*
X352873Y670951D1*
X356151Y661513D1*
X358022Y651698D1*
X358431Y641318D1*
X1434889Y2009028D2*
X1445445D1*
Y1921186D1*
X1503026Y1921198D1*
X1495882Y1928448D1*
X1491507Y1934996D1*
X1488781Y1942384D1*
X1487856Y1950215D1*
Y2092636D1*
X1432447Y2148004D1*
X1429181Y2145135D1*
X1431924Y2139752D1*
X1433791Y2134006D1*
X1434736Y2128039D1*
X1434854Y2009052D1*
X2745365Y1993028D2*
Y1903428D1*
X2734769D1*
X2734774Y1807481D1*
X3187051Y1807317D1*
X3193018Y1806372D1*
X3198764Y1804505D1*
X3204146Y1801762D1*
X3209034Y1798211D1*
X3242507Y1764906D1*
X3246431Y1760312D1*
X3249592Y1755150D1*
X3250290Y1762573D1*
Y2213794D1*
X3160116Y2304017D1*
X2898201Y2304031D1*
X2898154Y2209958D1*
X2902750Y2210755D1*
X2907637Y2214306D1*
X2913020Y2217048D1*
X2918766Y2218915D1*
X2924733Y2219860D1*
X2930774D1*
X2936741Y2218915D1*
X2942487Y2217048D1*
X2947869Y2214306D1*
X2952757Y2210755D1*
X2957029Y2206483D1*
X2960580Y2201595D1*
X2963323Y2196212D1*
X2965190Y2190467D1*
X2966135Y2184500D1*
Y2178458D1*
X2965190Y2172491D1*
X2963323Y2166746D1*
X2960580Y2161363D1*
X2957029Y2156475D1*
X2952757Y2152203D1*
X2947869Y2148652D1*
X2942487Y2145910D1*
X2936741Y2144043D1*
X2930774Y2143098D1*
X2924733D1*
X2918766Y2144043D1*
X2913020Y2145910D1*
X2907637Y2148652D1*
X2901908Y2152981D1*
X2898154Y2146220D1*
X2772414D1*
Y2366842D1*
X2772462Y2516842D1*
X2772413Y2658720D1*
Y2691582D1*
X2528084Y2691535D1*
X2528075Y2320016D1*
X2649452Y2319913D1*
X2655419Y2318968D1*
X2661165Y2317101D1*
X2666548Y2314358D1*
X2671436Y2310807D1*
X2723703Y2258708D1*
X2727626Y2254114D1*
X2730783Y2248963D1*
X2733095Y2243381D1*
X2734505Y2237507D1*
X2734979Y2231484D1*
Y2070010D1*
X2838304Y2069913D1*
X2844271Y2068968D1*
X2850585Y2066839D1*
X2898154Y2066842D1*
Y1996220D1*
X2850017Y1995962D1*
X2844271Y1994095D1*
X2838304Y1993150D1*
X2745391Y1993031D1*
X2657740Y1903428D2*
X2647184D1*
Y2009483D1*
X2657975D1*
X2657979Y2215565D1*
X2630482Y2243034D1*
X2516554Y2243150D1*
X2510587Y2244095D1*
X2504273Y2246224D1*
X2425568Y2245962D1*
X2419822Y2244095D1*
X2413855Y2243150D1*
X2324946Y2243031D1*
X2183926Y2102198D1*
X2179039Y2098647D1*
X2173656Y2095904D1*
X2167910Y2094037D1*
X2161943Y2093092D1*
X2033923Y2092974D1*
X1774612Y2093092D1*
X1768645Y2094037D1*
X1762899Y2095904D1*
X1757516Y2098647D1*
X1752629Y2102198D1*
X1748357Y2106470D1*
X1744806Y2111358D1*
X1742063Y2116740D1*
X1740196Y2122486D1*
X1739251Y2128453D1*
Y2134494D1*
X1740196Y2140461D1*
X1742063Y2146207D1*
X1744812Y2151600D1*
X1740136Y2152979D1*
X1672998D1*
X1673025Y2146220D1*
X1547285D1*
Y2366842D1*
Y2403984D1*
X1535779Y2404370D1*
X1529558Y2406125D1*
X1523917Y2409283D1*
X1520636Y2412086D1*
X1505358Y2427842D1*
X1502200Y2433483D1*
X1500445Y2439705D1*
X1500106Y2444007D1*
Y2504602D1*
X1496459Y2508886D1*
X1493303Y2514037D1*
X1490991Y2519619D1*
X1489580Y2525493D1*
X1489106Y2531516D1*
X1489580Y2537538D1*
X1490991Y2543413D1*
X1493303Y2548994D1*
X1496459Y2554145D1*
X1500383Y2558739D1*
X1504977Y2562663D1*
X1510128Y2565819D1*
X1515709Y2568131D1*
X1521584Y2569542D1*
X1527606Y2570016D1*
X1533629Y2569542D1*
X1539503Y2568131D1*
X1545085Y2565819D1*
X1547279Y2564591D1*
X1547285Y2712305D1*
X1467609Y2632648D1*
X1467512Y2385593D1*
X1466251Y2379253D1*
X1463545Y2373382D1*
X1459543Y2368305D1*
X1401738Y2310620D1*
X1396363Y2307029D1*
X1390298Y2304791D1*
X1383878Y2304031D1*
X1371329D1*
X1374390Y2298968D1*
X1376702Y2293387D1*
X1378113Y2287512D1*
X1378587Y2281490D1*
X1378113Y2275467D1*
X1376702Y2269592D1*
X1374390Y2264011D1*
X1371234Y2258860D1*
X1367310Y2254266D1*
X1362716Y2250342D1*
X1357565Y2247186D1*
X1351984Y2244874D1*
X1346109Y2243463D1*
X1340087Y2242989D1*
X1237097Y2243108D1*
X1231130Y2244053D1*
X1224731Y2246222D1*
X1177206Y2246220D1*
Y2447734D1*
X1170715Y2444895D1*
X1164840Y2443484D1*
X1158818Y2443010D1*
X1152795Y2443484D1*
X1146920Y2444895D1*
X1141339Y2447207D1*
X1136188Y2450363D1*
X1131594Y2454287D1*
X1127670Y2458881D1*
X1124514Y2464032D1*
X1122202Y2469613D1*
X1120792Y2475488D1*
X1120318Y2481510D1*
X1120792Y2487533D1*
X1122202Y2493408D1*
X1124514Y2498989D1*
X1127670Y2504140D1*
X1129535Y2506505D1*
X1125991Y2511400D1*
X1123248Y2516782D1*
X1121381Y2522528D1*
X1120436Y2528495D1*
Y2534536D1*
X1121381Y2540503D1*
X1123248Y2546249D1*
X1125991Y2551632D1*
X1129535Y2556510D1*
X1125991Y2561405D1*
X1123248Y2566788D1*
X1121381Y2572533D1*
X1120436Y2578500D1*
Y2584542D1*
X1121381Y2590509D1*
X1123248Y2596254D1*
X1125186Y2600384D1*
X1120035Y2597228D1*
X1114454Y2594916D1*
X1108579Y2593505D1*
X1102556Y2593031D1*
X1096534Y2593505D1*
X1090659Y2594916D1*
X1085078Y2597228D1*
X1079927Y2600384D1*
X1075333Y2604308D1*
X1071409Y2608902D1*
X1068253Y2614053D1*
X1065941Y2619634D1*
X1064530Y2625509D1*
X1064056Y2631531D1*
X1064530Y2637554D1*
X1065941Y2643429D1*
X1068253Y2649010D1*
X1071324Y2654034D1*
X973230Y2654031D1*
X968925Y2650384D1*
X963774Y2647228D1*
X958192Y2644916D1*
X952318Y2643505D1*
X948785Y2643129D1*
X948793Y623965D1*
X951407Y621341D1*
X1129722Y621228D1*
X1131875Y620972D1*
X1128761Y625677D1*
X1017030Y737576D1*
X1013479Y742464D1*
X1010736Y747847D1*
X1008870Y753592D1*
X1007924Y759559D1*
X1007806Y887580D1*
X1007924Y1371914D1*
X1008870Y1377881D1*
X1010736Y1383627D1*
X1013479Y1389010D1*
X1017030Y1393897D1*
X1021302Y1398169D1*
X1026190Y1401720D1*
X1031572Y1404463D1*
X1037318Y1406330D1*
X1043285Y1407275D1*
X1049326D1*
X1055305Y1406327D1*
X1056560Y1412583D1*
X1056664Y2152854D1*
X1058200Y2160578D1*
X1061497Y2167729D1*
X1066380Y2173921D1*
X1099557Y2206953D1*
X1106105Y2211328D1*
X1113493Y2214053D1*
X1121324Y2214979D1*
X1177222D1*
X1177206Y2216842D1*
X1302946D1*
Y2215036D1*
X1448924Y2214928D1*
X1456647Y2213392D1*
X1463799Y2210095D1*
X1469990Y2205212D1*
X1546829Y2128228D1*
X1551204Y2121680D1*
X1553930Y2114292D1*
X1554855Y2106461D1*
X1554856Y1964039D1*
X1566485Y1952452D1*
X2251291D1*
X2256686Y1968954D1*
X2256790Y2134102D1*
X2258326Y2141826D1*
X2261623Y2148978D1*
X2266506Y2155169D1*
X2318435Y2206953D1*
X2324983Y2211328D1*
X2332371Y2214054D1*
X2340202Y2214979D1*
X2402350D1*
X2402335Y2216842D1*
X2528075D1*
Y1996220D1*
X2423729D1*
X2423594Y1878819D1*
X2422057Y1871095D1*
X2418760Y1863944D1*
X2413877Y1857752D1*
X2384848Y1828722D1*
X2627569Y1828689D1*
X2631751Y1833663D1*
X2636345Y1837587D1*
X2641496Y1840743D1*
X2647078Y1843055D1*
X2652952Y1844466D1*
X2657783Y1844893D1*
X2657774Y1903457D1*
X1757761Y447066D2*
Y365766D1*
X1659580D1*
Y447065D1*
X1584777Y447025D1*
Y463968D1*
X1577384Y462026D1*
X1571361Y461552D1*
X1565338Y462026D1*
X1559464Y463437D1*
X1553882Y465749D1*
X1548731Y468905D1*
X1544137Y472829D1*
X1540214Y477423D1*
X1537057Y482574D1*
X1534745Y488155D1*
X1533335Y494030D1*
X1532861Y500052D1*
X1533335Y506075D1*
X1534745Y511950D1*
X1537057Y517531D1*
X1540214Y522682D1*
X1544137Y527276D1*
X1548731Y531200D1*
X1553882Y534356D1*
X1559464Y536668D1*
X1565338Y538078D1*
X1571361Y538552D1*
X1577384Y538078D1*
X1584776Y536108D1*
X1584777Y553080D1*
X1670178D1*
X1670171Y599027D1*
X1642321Y599067D1*
X1642348Y582571D1*
X1437868D1*
Y682844D1*
X1242207Y682807D1*
X1260176Y664843D1*
X1277333Y664816D1*
X1284435Y667932D1*
X1290309Y669342D1*
X1296332Y669816D1*
X1302355Y669342D1*
X1308229Y667932D1*
X1313811Y665620D1*
X1318962Y662463D1*
X1323556Y658540D1*
X1327479Y653946D1*
X1330636Y648795D1*
X1332948Y643213D1*
X1334358Y637339D1*
X1334832Y631316D1*
X1334358Y625294D1*
X1332948Y619419D1*
X1330636Y613838D1*
X1327479Y608687D1*
X1323556Y604093D1*
X1318962Y600169D1*
X1313811Y597013D1*
X1308229Y594701D1*
X1302355Y593290D1*
X1296332Y592816D1*
X1290309Y593290D1*
X1284435Y594701D1*
X1277421Y597815D1*
X1265521Y597816D1*
X1344360Y518806D1*
X1347911Y513918D1*
X1350653Y508535D1*
X1352520Y502789D1*
X1353465Y496823D1*
X1353584Y368802D1*
X1353465Y322013D1*
X1352520Y316046D1*
X1350653Y310301D1*
X1347911Y304918D1*
X1344360Y300030D1*
X1311054Y266557D1*
X1306461Y262634D1*
X1301309Y259477D1*
X1295728Y257165D1*
X1289853Y255755D1*
X1283831Y255281D1*
X1256048D1*
X1253274Y243479D1*
Y210032D1*
X1269352Y193772D1*
X1271230Y191388D1*
X1272547Y190731D1*
X1273972Y200620D1*
X1276820Y210197D1*
X1281031Y219257D1*
X1286515Y227609D1*
X1293156Y235074D1*
X1300811Y241493D1*
X1309320Y246731D1*
X1318499Y250675D1*
X1328155Y253242D1*
X1338081Y254377D1*
X1348067Y254056D1*
X1357900Y252286D1*
X1367371Y249104D1*
X1376279Y244578D1*
X1384433Y238805D1*
X1391661Y231907D1*
X1397808Y224031D1*
X1402744Y215345D1*
X1406365Y206032D1*
X1408592Y196293D1*
X1409379Y185934D1*
X1408651Y175970D1*
X1406480Y166217D1*
X1402914Y156884D1*
X1398029Y148169D1*
X1395628Y144473D1*
X1447057D1*
Y50011D1*
X1524421Y50004D1*
X1518687Y57745D1*
X1514629Y65710D1*
X1511867Y74211D1*
X1510468Y83040D1*
X1510422Y90809D1*
X1492857Y108849D1*
X1489698Y114489D1*
X1487943Y120711D1*
X1487605Y125013D1*
Y323109D1*
X1483958Y327407D1*
X1480801Y332558D1*
X1478489Y338140D1*
X1477079Y344014D1*
X1476605Y350037D1*
X1477079Y356059D1*
X1478489Y361934D1*
X1480801Y367515D1*
X1483958Y372666D1*
X1487881Y377260D1*
X1492475Y381184D1*
X1497626Y384340D1*
X1503208Y386652D1*
X1509082Y388063D1*
X1515105Y388537D1*
X1521128Y388063D1*
X1527002Y386652D1*
X1532584Y384340D1*
X1537735Y381184D1*
X1543218Y376298D1*
X1548731Y381184D1*
X1553882Y384340D1*
X1559464Y386652D1*
X1565338Y388063D1*
X1571361Y388537D1*
X1577384Y388063D1*
X1583258Y386652D1*
X1588840Y384340D1*
X1593991Y381184D1*
X1598585Y377260D1*
X1602508Y372666D1*
X1605665Y367515D1*
X1607977Y361934D1*
X1608846Y358781D1*
X1848547Y358700D1*
X1854888Y357439D1*
X1860759Y354733D1*
X1865835Y350730D1*
X1874889Y341198D1*
X1878047Y335558D1*
X1879802Y329336D1*
X1880141Y325034D1*
X1880228Y124505D1*
X1886549Y130825D1*
X1893781Y136079D1*
X1901745Y140138D1*
X1910247Y142900D1*
X1918433Y144222D1*
X1913104Y152264D1*
X1908840Y161300D1*
X1905937Y170860D1*
X1904454Y180740D1*
X1904425Y190731D1*
X1905850Y200620D1*
X1908698Y210197D1*
X1912909Y219257D1*
X1918393Y227609D1*
X1925033Y235074D1*
X1932689Y241493D1*
X1941198Y246731D1*
X1950377Y250675D1*
X1960033Y253242D1*
X1969959Y254377D1*
X1979945Y254056D1*
X1989778Y252286D1*
X1999249Y249104D1*
X2008157Y244578D1*
X2016311Y238805D1*
X2023539Y231907D1*
X2029686Y224031D1*
X2034622Y215345D1*
X2038242Y206032D1*
X2040470Y196293D1*
X2041257Y185934D1*
X2040529Y175970D1*
X2038358Y166217D1*
X2034792Y156884D1*
X2029906Y148169D1*
X2023805Y140258D1*
X2016618Y133318D1*
X2008497Y127497D1*
X1999616Y122920D1*
X1990164Y119683D1*
X1980341Y117856D1*
X1972007Y117449D1*
X1976173Y109309D1*
X1978935Y100807D1*
X1980334Y91979D1*
Y83040D1*
X1978935Y74211D1*
X1976173Y65710D1*
X1972115Y57745D1*
X1966398Y50013D1*
X2053913Y50004D1*
X2046419Y56264D1*
X2041015Y62591D1*
X2036667Y69686D1*
X2033482Y77373D1*
X2031540Y85465D1*
X2030887Y93760D1*
X2031540Y102055D1*
X2033482Y110146D1*
X2036667Y117834D1*
X2041015Y124929D1*
X2046419Y131256D1*
X2052746Y136660D1*
X2059841Y141008D1*
X2067528Y144192D1*
X2075619Y146135D1*
X2083915Y146787D1*
X2092210Y146135D1*
X2100301Y144192D1*
X2107989Y141008D1*
X2115084Y136660D1*
X2121411Y131256D1*
X2126815Y124929D1*
X2131163Y117834D1*
X2133891Y111382D1*
X2136667Y117834D1*
X2141015Y124929D1*
X2146419Y131256D1*
X2152746Y136660D1*
X2159841Y141008D1*
X2167528Y144192D1*
X2175619Y146135D1*
X2183915Y146787D1*
X2192210Y146135D1*
X2200301Y144192D1*
X2207989Y141008D1*
X2215084Y136660D1*
X2221411Y131256D1*
X2226815Y124929D1*
X2231163Y117834D1*
X2233891Y111382D1*
X2236667Y117834D1*
X2241015Y124929D1*
X2246419Y131256D1*
X2252746Y136660D1*
X2259841Y141008D1*
X2267528Y144192D1*
X2275619Y146135D1*
X2283915Y146787D1*
X2292210Y146135D1*
X2300301Y144192D1*
X2307989Y141008D1*
X2315084Y136660D1*
X2321411Y131256D1*
X2326815Y124929D1*
X2331163Y117834D1*
X2333891Y111382D1*
X2336667Y117834D1*
X2341015Y124929D1*
X2346419Y131256D1*
X2352746Y136660D1*
X2359841Y141008D1*
X2367528Y144192D1*
X2375619Y146135D1*
X2383915Y146787D1*
X2392210Y146135D1*
X2400301Y144192D1*
X2407989Y141008D1*
X2415084Y136660D1*
X2421411Y131256D1*
X2426815Y124929D1*
X2431163Y117834D1*
X2433891Y111382D1*
X2436667Y117834D1*
X2441015Y124929D1*
X2446419Y131256D1*
X2452746Y136660D1*
X2459841Y141008D1*
X2467528Y144192D1*
X2475619Y146135D1*
X2483915Y146787D1*
X2492210Y146135D1*
X2500301Y144192D1*
X2507989Y141008D1*
X2515084Y136660D1*
X2521411Y131256D1*
X2526815Y124929D1*
X2531163Y117834D1*
X2533891Y111382D1*
X2537092Y118650D1*
X2541068Y125002D1*
X2545900Y130730D1*
X2551491Y135720D1*
X2557730Y139871D1*
X2564491Y143102D1*
X2571641Y145347D1*
X2579035Y146562D1*
X2586527Y146723D1*
X2593967Y145826D1*
X2601206Y143889D1*
X2608100Y140951D1*
X2614511Y137070D1*
X2620310Y132325D1*
X2625383Y126809D1*
X2627719Y123619D1*
X2627877Y414499D1*
X2629085Y418218D1*
X2631384Y421382D1*
X2634548Y423681D1*
X2638268Y424889D1*
X2677723Y425043D1*
X3135980Y424889D1*
X3139700Y423681D1*
X3142864Y421382D1*
X3145163Y418218D1*
X3146371Y414499D1*
X3146525Y375043D1*
Y37494D1*
X3459074Y37503D1*
X3459214Y333240D1*
X3460423Y336960D1*
X3462045Y339391D1*
X3560803Y455324D1*
X3349777Y455420D1*
X3343810Y456365D1*
X3338065Y458232D1*
X3332682Y460975D1*
X3327794Y464526D1*
X3237186Y554966D1*
X3186008Y606312D1*
X3182457Y611200D1*
X3179714Y616583D1*
X3177847Y622329D1*
X3176902Y628296D1*
X3176783Y756316D1*
Y850896D1*
X3146527Y820814D1*
X3141640Y817263D1*
X3136257Y814520D1*
X3130511Y812653D1*
X3124544Y811708D1*
X3037905Y811589D1*
X3037906Y759660D1*
X2927913D1*
Y940518D1*
X3008040D1*
X3008016Y949095D1*
X2997906Y949222D1*
X2991939Y950167D1*
X2989018Y950992D1*
X2946927Y951308D1*
X2921088D1*
Y1023899D1*
X2988060D1*
X2989041Y1024223D1*
X2989018Y1025795D1*
X2971927Y1026111D1*
X2921088D1*
Y1098702D1*
X2964984D1*
X2965019Y1266695D1*
X2964970Y1316695D1*
X3067477Y1316954D1*
X3073222Y1318821D1*
X3079189Y1319766D1*
X3134025Y1319885D1*
X3140048Y1319411D1*
X3145922Y1318000D1*
X3151504Y1315688D1*
X3156655Y1312532D1*
X3161249Y1308608D1*
X3176751Y1293106D1*
X3176783Y1534881D1*
X3103664Y1534895D1*
X3103482Y1615946D1*
X3028679Y1615897D1*
Y1721953D1*
X3045329D1*
X3036805Y1730450D1*
X2960042Y1730436D1*
X2960060Y1601824D1*
X2857942D1*
Y1730388D1*
X2760025Y1730436D1*
X2759982Y1680313D1*
X2774509Y1680307D1*
Y1582126D1*
X2668454D1*
Y1680307D1*
X2682956D1*
X2682981Y1730484D1*
X2624448Y1730436D1*
X2624480Y1643929D1*
X2575506D1*
X2575504Y1547203D1*
X2579205Y1547228D1*
Y1415583D1*
X2494803D1*
Y1547228D1*
X2498465D1*
X2498504Y1643954D1*
X2449528Y1643929D1*
X2449504Y1730436D1*
X2343596D1*
X2328777Y1715575D1*
X2328744Y1594883D1*
X2226626D1*
Y1730424D1*
X2212407Y1730436D1*
X1972399Y1490461D1*
X1972280Y1209607D1*
X1971335Y1203640D1*
X1969468Y1197894D1*
X1966726Y1192511D1*
X1963175Y1187623D1*
X1872734Y1097015D1*
X1747161Y971442D1*
X1747171Y553054D1*
X1757761Y553080D1*
Y527543D1*
X1816239Y527553D1*
X1816256Y553080D1*
X1912690D1*
X1912734Y689730D1*
X1913995Y696070D1*
X1916702Y701941D1*
X1920704Y707018D1*
X2028551Y814745D1*
X2033926Y818336D1*
X2039991Y820574D1*
X2046411Y821333D1*
X2067749D1*
X2067789Y1086264D1*
Y1243744D1*
X2272269D1*
Y1224359D1*
X2280915Y1226006D1*
X2286956D1*
X2292923Y1225061D1*
X2298669Y1223194D1*
X2304052Y1220451D1*
X2308939Y1216900D1*
X2313211Y1212628D1*
X2316762Y1207741D1*
X2319505Y1202358D1*
X2321372Y1196612D1*
X2322317Y1190645D1*
Y1184604D1*
X2321372Y1178637D1*
X2319505Y1172891D1*
X2316762Y1167508D1*
X2313211Y1162621D1*
X2308939Y1158349D1*
X2304052Y1154798D1*
X2298669Y1152055D1*
X2292611Y1150126D1*
X2298648Y1148186D1*
X2304031Y1145443D1*
X2308918Y1141892D1*
X2313190Y1137621D1*
X2316741Y1132733D1*
X2319484Y1127350D1*
X2321351Y1121604D1*
X2322296Y1115637D1*
Y1109596D1*
X2321351Y1103629D1*
X2319484Y1097883D1*
X2316741Y1092501D1*
X2313190Y1087613D1*
X2308918Y1083341D1*
X2304031Y1079790D1*
X2298648Y1077047D1*
X2292902Y1075181D1*
X2286935Y1074235D1*
X2280894D1*
X2274927Y1075181D1*
X2272279Y1075927D1*
X2272269Y1064887D1*
X2305316Y1064755D1*
X2313040Y1063219D1*
X2320191Y1059922D1*
X2326383Y1055039D1*
X2396919Y984358D1*
X2401294Y977810D1*
X2404019Y970421D1*
X2404945Y962591D1*
Y934330D1*
X2495339Y934370D1*
Y828315D1*
X2432106D1*
X2420774Y816978D1*
X2420740Y747056D1*
X2342469D1*
X2342438Y721828D1*
X2495339Y721848D1*
Y615793D1*
X2432106D1*
X2420774Y604455D1*
X2420740Y534534D1*
X2322559D1*
X2322354Y640451D1*
X2316503Y645132D1*
X2283465Y678317D1*
X2279089Y684865D1*
X2276364Y692253D1*
X2275439Y700084D1*
X2275438Y922876D1*
X2272269Y920024D1*
Y661311D1*
X2067789D1*
Y677180D1*
X2062979Y675514D1*
X2061364Y662777D1*
Y553060D1*
X2076954Y553080D1*
Y447025D1*
X1816256D1*
Y472562D1*
X1757778Y472552D1*
X1757713Y447025D1*
X2476651Y1317232D2*
X2555313D1*
X2574750Y1336635D1*
X2549693Y1336763D1*
X2543726Y1337708D1*
X2537981Y1339575D1*
X2532598Y1342318D1*
X2527710Y1345869D1*
X2523438Y1350141D1*
X2519887Y1355028D1*
X2517145Y1360411D1*
X2515278Y1366157D1*
X2514333Y1372124D1*
Y1378165D1*
X2515278Y1384132D1*
X2517145Y1389878D1*
X2519887Y1395261D1*
X2523438Y1400148D1*
X2527710Y1404420D1*
X2532598Y1407971D1*
X2537981Y1410714D1*
X2543726Y1412581D1*
X2549693Y1413526D1*
X2589189Y1413644D1*
X2585354Y1415583D1*
Y1547228D1*
X2669756D1*
Y1415583D1*
X2666191D1*
X2672623Y1403442D1*
X2710515Y1365825D1*
X2716113Y1368095D1*
X2721998Y1369460D1*
X2727732Y1369890D1*
X2818262Y1369771D1*
X2824229Y1368826D1*
X2829975Y1366959D1*
X2835358Y1364216D1*
X2840245Y1360665D1*
X2844517Y1356394D1*
X2848068Y1351506D1*
X2850811Y1346123D1*
X2852678Y1340377D1*
X2853623Y1334410D1*
Y1328369D1*
X2852678Y1322402D1*
X2850823Y1316690D1*
X2878112Y1316695D1*
Y1146073D1*
X2829975Y1145815D1*
X2824229Y1143948D1*
X2818262Y1143003D1*
X2812221D1*
X2806254Y1143948D1*
X2799940Y1146077D1*
X2752372Y1146073D1*
Y1188310D1*
X2649702Y1188335D1*
Y1286516D1*
X2664204D1*
X2664230Y1302904D1*
X2657103Y1310067D1*
X2566267Y1219257D1*
X2566269Y1158027D1*
X2464151D1*
Y1317232D1*
X2476651D1*
X1642348Y740004D2*
Y676039D1*
X1670137Y676067D1*
X1670289Y990420D1*
X1671234Y996387D1*
X1673101Y1002132D1*
X1675844Y1007515D1*
X1679395Y1012403D1*
X1769835Y1103011D1*
X1895409Y1228585D1*
X1895399Y1392852D1*
X1387268Y1392900D1*
X1347568Y1353181D1*
X1347538Y1240632D1*
X1398667Y1240652D1*
X1396410Y1247394D1*
X1395465Y1253361D1*
Y1259403D1*
X1396410Y1265370D1*
X1398277Y1271115D1*
X1401020Y1276498D1*
X1404571Y1281386D1*
X1408843Y1285658D1*
X1413730Y1289209D1*
X1419113Y1291951D1*
X1424859Y1293818D1*
X1430826Y1294763D1*
X1436867D1*
X1442834Y1293818D1*
X1448580Y1291951D1*
X1453963Y1289209D1*
X1458850Y1285658D1*
X1463122Y1281386D1*
X1466673Y1276498D1*
X1469416Y1271115D1*
X1471283Y1265370D1*
X1472228Y1259403D1*
Y1253361D1*
X1471283Y1247394D1*
X1470188Y1243742D1*
X1642348Y1243744D1*
Y897531D1*
X1642299Y740051D1*
X1437868Y749836D2*
Y761584D1*
X1238496Y761547D1*
X1250240Y749787D1*
X1437858Y749807D1*
X1437868Y828576D2*
Y840324D1*
X1222285Y840287D1*
X1233985Y828549D1*
X1437835Y828547D1*
X1437868Y907317D2*
Y997883D1*
X1432932Y996886D1*
Y978330D1*
X1259948D1*
Y1084386D1*
X1270543D1*
X1270538Y1134630D1*
X1259948Y1134597D1*
Y1220388D1*
X1252349Y1218356D1*
X1246327Y1217882D1*
X1240304Y1218356D1*
X1234430Y1219766D1*
X1229824Y1221628D1*
X1229822Y907274D1*
X1437910Y907288D1*
X1437868Y1086310D2*
Y1159110D1*
X1432932Y1153152D1*
Y1134597D1*
X1347533D1*
X1347538Y1084353D1*
X1432932Y1084386D1*
X2778996Y940518D2*
X2876488D1*
Y805801D1*
X2952400Y729875D1*
X2959883Y730858D1*
X2970632D1*
X2981248Y729177D1*
X2991471Y725855D1*
X3001048Y720975D1*
X3009744Y714657D1*
X3017345Y707057D1*
X3023663Y698361D1*
X3028543Y688783D1*
X3031865Y678561D1*
X3033546Y667944D1*
Y657195D1*
X3031865Y646579D1*
X3028543Y636356D1*
X3023663Y626778D1*
X3017345Y618082D1*
X3009744Y610482D1*
X3001048Y604164D1*
X2991471Y599284D1*
X2981248Y595962D1*
X2970632Y594281D1*
X2959883D1*
X2949266Y595962D1*
X2939043Y599284D1*
X2929466Y604164D1*
X2920770Y610482D1*
X2913169Y618082D1*
X2906851Y626778D1*
X2901971Y636356D1*
X2898650Y646579D1*
X2896968Y657195D1*
Y667944D1*
X2898015Y675367D1*
X2871017Y702362D1*
X2876008Y694218D1*
X2879966Y685044D1*
X2882546Y675392D1*
X2883696Y665467D1*
X2883347Y655085D1*
X2881534Y645259D1*
X2878311Y635802D1*
X2873746Y626915D1*
X2867938Y618786D1*
X2861008Y611588D1*
X2853105Y605475D1*
X2844397Y600577D1*
X2835070Y596997D1*
X2825320Y594813D1*
X2815357Y594070D1*
X2805391Y594784D1*
X2795636Y596940D1*
X2786297Y600492D1*
X2777575Y605365D1*
X2769655Y611455D1*
X2762704Y618633D1*
X2756872Y626745D1*
X2752282Y635619D1*
X2749031Y645067D1*
X2747189Y654887D1*
X2746796Y664870D1*
X2747859Y674804D1*
X2750355Y684479D1*
X2754233Y693687D1*
X2759408Y702233D1*
X2765772Y709935D1*
X2773189Y716630D1*
X2781500Y722174D1*
X2790530Y726451D1*
X2800085Y729368D1*
X2809964Y730865D1*
X2819955Y730908D1*
X2829846Y729498D1*
X2839427Y726664D1*
X2848493Y722466D1*
X2855083Y718296D1*
X2813703Y759676D1*
X2766496Y759660D1*
Y940518D1*
X2778996D1*
X1751690Y144474D2*
X1803344D1*
Y50011D1*
X1880671Y50004D1*
X1874974Y57745D1*
X1873341Y60348D1*
X1867119Y62102D1*
X1861479Y65261D1*
X1858198Y68064D1*
X1831729Y94652D1*
X1828138Y100027D1*
X1825900Y106092D1*
X1825140Y112512D1*
Y303772D1*
X1587955Y303870D1*
X1581615Y305131D1*
X1575744Y307837D1*
X1572247Y310379D1*
X1568340Y311655D1*
X1562373Y312601D1*
X1556628Y314467D1*
X1551245Y317210D1*
X1546357Y320761D1*
X1543248Y323776D1*
X1542605Y312537D1*
Y138855D1*
X1549654Y141686D1*
X1558346Y143772D1*
X1562146Y144222D1*
X1556816Y152264D1*
X1552553Y161300D1*
X1549649Y170860D1*
X1548167Y180740D1*
X1548138Y190731D1*
X1549563Y200620D1*
X1552411Y210197D1*
X1556621Y219257D1*
X1562105Y227609D1*
X1568746Y235074D1*
X1576402Y241493D1*
X1584910Y246731D1*
X1594090Y250675D1*
X1603746Y253242D1*
X1613672Y254377D1*
X1623658Y254056D1*
X1633491Y252286D1*
X1642962Y249104D1*
X1651869Y244578D1*
X1656815Y241279D1*
X1665607Y246731D1*
X1674787Y250675D1*
X1684442Y253242D1*
X1694369Y254377D1*
X1704355Y254056D1*
X1714188Y252286D1*
X1723659Y249104D1*
X1732566Y244578D1*
X1740720Y238805D1*
X1747948Y231907D1*
X1754095Y224031D1*
X1759032Y215345D1*
X1762652Y206032D1*
X1764879Y196293D1*
X1765667Y185934D1*
X1764938Y175970D1*
X1762768Y166217D1*
X1759202Y156884D1*
X1754316Y148169D1*
X1751683Y144470D1*
X1689415Y50007D2*
Y117878D1*
X1679953Y119633D1*
X1670491Y122842D1*
X1661597Y127393D1*
X1656834Y130579D1*
X1647853Y125046D1*
X1638662Y121129D1*
X1628998Y118590D1*
X1619069Y117484D1*
X1615827Y117273D1*
X1619886Y109309D1*
X1622648Y100807D1*
X1624046Y91979D1*
Y83040D1*
X1622648Y74211D1*
X1619886Y65710D1*
X1615827Y57745D1*
X1610111Y50013D1*
X1689460Y50004D1*
X3675475Y735482D2*
X3668820Y733477D1*
X3658204Y731795D1*
X3647455D1*
X3636838Y733477D1*
X3626616Y736798D1*
X3617038Y741678D1*
X3608342Y747996D1*
X3600742Y755597D1*
X3594424Y764293D1*
X3589544Y773870D1*
X3586222Y784093D1*
X3584541Y794710D1*
Y805458D1*
X3586222Y816075D1*
X3589544Y826298D1*
X3594424Y835875D1*
X3600742Y844571D1*
X3608342Y852172D1*
X3617038Y858490D1*
X3626616Y863370D1*
X3636838Y866691D1*
X3647455Y868373D1*
X3658204D1*
X3668820Y866691D1*
X3679043Y863370D1*
X3688621Y858490D1*
X3697317Y852172D1*
X3704917Y844571D1*
X3711235Y835875D1*
X3716115Y826298D1*
X3719437Y816075D1*
X3721118Y805458D1*
X3721271Y798593D1*
X3722824Y804091D1*
Y1117909D1*
X3709518Y1117871D1*
X3704917Y1111884D1*
X3697317Y1104284D1*
X3688621Y1097966D1*
X3679043Y1093086D1*
X3668820Y1089764D1*
X3658204Y1088083D1*
X3647455D1*
X3636838Y1089764D1*
X3626616Y1093086D1*
X3617038Y1097966D1*
X3608342Y1104284D1*
X3600742Y1111884D1*
X3594424Y1120580D1*
X3589544Y1130158D1*
X3586222Y1140380D1*
X3584541Y1150997D1*
Y1161746D1*
X3586222Y1172362D1*
X3589544Y1182585D1*
X3594424Y1192163D1*
X3600742Y1200859D1*
X3608342Y1208459D1*
X3617038Y1214777D1*
X3626616Y1219657D1*
X3636838Y1222979D1*
X3647455Y1224660D1*
X3658204D1*
X3668820Y1222979D1*
X3679043Y1219657D1*
X3688621Y1214777D1*
X3697317Y1208459D1*
X3704917Y1200859D1*
X3709426Y1194870D1*
X3722800Y1194872D1*
X3722824Y1462280D1*
X3711002Y1474141D1*
X3708247Y1472396D1*
X3701266Y1464222D1*
X3693093Y1457241D1*
X3683928Y1451625D1*
X3673997Y1447511D1*
X3663545Y1445002D1*
X3652829Y1444159D1*
X3642114Y1445002D1*
X3631662Y1447511D1*
X3621731Y1451625D1*
X3612566Y1457241D1*
X3604393Y1464222D1*
X3597412Y1472396D1*
X3591795Y1481560D1*
X3587682Y1491491D1*
X3585173Y1501943D1*
X3584329Y1512659D1*
X3585173Y1523375D1*
X3587682Y1533826D1*
X3591795Y1543757D1*
X3597412Y1552922D1*
X3604393Y1561096D1*
X3612566Y1568076D1*
X3621731Y1573693D1*
X3631662Y1577806D1*
X3642114Y1580315D1*
X3652829Y1581159D1*
X3663545Y1580315D1*
X3673997Y1577806D1*
X3683928Y1573693D1*
X3693093Y1568076D1*
X3701266Y1561096D1*
X3708247Y1552922D1*
X3709426Y1551158D1*
X3722807Y1551159D1*
X3722824Y1830464D1*
X3709518Y1830446D1*
X3704917Y1824459D1*
X3697317Y1816858D1*
X3688621Y1810540D1*
X3679043Y1805660D1*
X3668820Y1802339D1*
X3658204Y1800657D1*
X3647455D1*
X3636838Y1802339D1*
X3626616Y1805660D1*
X3617038Y1810540D1*
X3608342Y1816858D1*
X3600742Y1824459D1*
X3594424Y1833155D1*
X3589544Y1842732D1*
X3586222Y1852955D1*
X3584541Y1863572D1*
Y1874321D1*
X3586222Y1884937D1*
X3589544Y1895160D1*
X3594424Y1904737D1*
X3600742Y1913433D1*
X3608342Y1921034D1*
X3617038Y1927352D1*
X3626616Y1932232D1*
X3636838Y1935554D1*
X3647455Y1937235D1*
X3658204D1*
X3668820Y1935554D1*
X3679043Y1932232D1*
X3688621Y1927352D1*
X3697317Y1921034D1*
X3704917Y1913433D1*
X3709426Y1907445D1*
X3722800Y1907446D1*
X3722824Y2186768D1*
X3709518Y2186733D1*
X3704917Y2180746D1*
X3697317Y2173146D1*
X3688621Y2166828D1*
X3679043Y2161948D1*
X3668820Y2158626D1*
X3658204Y2156945D1*
X3647455D1*
X3636838Y2158626D1*
X3626616Y2161948D1*
X3617038Y2166828D1*
X3608342Y2173146D1*
X3600742Y2180746D1*
X3594424Y2189442D1*
X3589544Y2199020D1*
X3586222Y2209243D1*
X3584541Y2219859D1*
Y2230608D1*
X3586222Y2241225D1*
X3589544Y2251447D1*
X3594424Y2261025D1*
X3600742Y2269721D1*
X3608342Y2277321D1*
X3617038Y2283639D1*
X3626616Y2288519D1*
X3636838Y2291841D1*
X3647455Y2293522D1*
X3658204D1*
X3668820Y2291841D1*
X3679043Y2288519D1*
X3688621Y2283639D1*
X3697317Y2277321D1*
X3704917Y2269721D1*
X3709426Y2263732D1*
X3722800Y2263734D1*
X3722824Y2543056D1*
X3709518Y2543021D1*
X3704917Y2537034D1*
X3697317Y2529433D1*
X3688621Y2523115D1*
X3679043Y2518235D1*
X3668820Y2514914D1*
X3658204Y2513232D1*
X3647455D1*
X3636838Y2514914D1*
X3626616Y2518235D1*
X3617038Y2523115D1*
X3608342Y2529433D1*
X3600742Y2537034D1*
X3594424Y2545730D1*
X3589544Y2555307D1*
X3586222Y2565530D1*
X3584541Y2576147D1*
Y2586895D1*
X3586222Y2597512D1*
X3589544Y2607735D1*
X3594424Y2617312D1*
X3600742Y2626008D1*
X3608342Y2633609D1*
X3617038Y2639927D1*
X3626616Y2644807D1*
X3636838Y2648128D1*
X3647455Y2649810D1*
X3658204D1*
X3668820Y2648128D1*
X3679043Y2644807D1*
X3688621Y2639927D1*
X3697317Y2633609D1*
X3704917Y2626008D1*
X3709426Y2620020D1*
X3722800Y2620021D1*
X3722824Y2899343D1*
X3709518Y2899308D1*
X3704917Y2893321D1*
X3697317Y2885721D1*
X3688621Y2879403D1*
X3679043Y2874523D1*
X3668820Y2871201D1*
X3658204Y2869520D1*
X3647455D1*
X3636838Y2871201D1*
X3626616Y2874523D1*
X3617038Y2879403D1*
X3608342Y2885721D1*
X3600742Y2893321D1*
X3594424Y2902017D1*
X3589544Y2911595D1*
X3586222Y2921817D1*
X3584541Y2932434D1*
Y2943183D1*
X3586222Y2953799D1*
X3589544Y2964022D1*
X3594424Y2973600D1*
X3600742Y2982296D1*
X3608342Y2989896D1*
X3617038Y2996214D1*
X3626616Y3001094D1*
X3636838Y3004416D1*
X3647455Y3006097D1*
X3658204D1*
X3668820Y3004416D1*
X3679043Y3001094D1*
X3688621Y2996214D1*
X3697317Y2989896D1*
X3704917Y2982296D1*
X3709426Y2976307D1*
X3722800Y2976309D1*
X3722824Y3169693D1*
X3717977Y3165263D1*
X3720486Y3154812D1*
X3721329Y3144096D1*
X3720486Y3133380D1*
X3717977Y3122928D1*
X3713863Y3112997D1*
X3708247Y3103833D1*
X3701266Y3095659D1*
X3693093Y3088678D1*
X3683928Y3083062D1*
X3673997Y3078948D1*
X3663545Y3076439D1*
X3652829Y3075596D1*
X3642114Y3076439D1*
X3631662Y3078948D1*
X3621731Y3083062D1*
X3612566Y3088678D1*
X3604393Y3095659D1*
X3597073Y3104339D1*
X3558150Y3104329D1*
X3558155Y3084802D1*
X3461721D1*
X3461676Y3017114D1*
X3460415Y3010774D1*
X3457709Y3004903D1*
X3453707Y2999826D1*
X3256880Y2802707D1*
X3385161Y2802791D1*
X3385171Y2828319D1*
X3558155D1*
Y2808836D1*
X3587682Y2808976D1*
X3591795Y2818907D1*
X3597412Y2828072D1*
X3604393Y2836245D1*
X3612566Y2843226D1*
X3621731Y2848842D1*
X3631662Y2852956D1*
X3642114Y2855465D1*
X3652829Y2856308D1*
X3663545Y2855465D1*
X3673997Y2852956D1*
X3683928Y2848842D1*
X3693093Y2843226D1*
X3701266Y2836245D1*
X3708247Y2828072D1*
X3713863Y2818907D1*
X3717977Y2808976D1*
X3720486Y2798524D1*
X3721329Y2787808D1*
X3720486Y2777093D1*
X3717977Y2766641D1*
X3713863Y2756710D1*
X3708247Y2747545D1*
X3701266Y2739372D1*
X3693093Y2732391D1*
X3683928Y2726774D1*
X3673997Y2722661D1*
X3663545Y2720152D1*
X3652829Y2719308D1*
X3642114Y2720152D1*
X3631662Y2722661D1*
X3621731Y2726774D1*
X3612566Y2732391D1*
X3604393Y2739372D1*
X3602153Y2741794D1*
X3558135Y2741791D1*
X3558155Y2722264D1*
X3385171D1*
Y2747801D1*
X3270443Y2747791D1*
X3133138Y2610620D1*
X3131435Y2609279D1*
X3160283Y2609032D1*
X3279937Y2608947D1*
X3286277Y2607686D1*
X3292148Y2604979D1*
X3297225Y2600977D1*
X3419898Y2478304D1*
X3564406Y2478282D1*
Y2458800D1*
X3589973Y2458755D1*
X3594424Y2467312D1*
X3600742Y2476008D1*
X3608342Y2483609D1*
X3617038Y2489927D1*
X3626616Y2494807D1*
X3636838Y2498128D1*
X3647455Y2499810D1*
X3658204D1*
X3668820Y2498128D1*
X3679043Y2494807D1*
X3688621Y2489927D1*
X3697317Y2483609D1*
X3704917Y2476008D1*
X3711235Y2467312D1*
X3716115Y2457735D1*
X3719437Y2447512D1*
X3721118Y2436895D1*
Y2426147D1*
X3719437Y2415530D1*
X3716115Y2405307D1*
X3711235Y2395730D1*
X3704917Y2387034D1*
X3697317Y2379433D1*
X3688621Y2373115D1*
X3679043Y2368235D1*
X3668820Y2364914D1*
X3658204Y2363232D1*
X3647455D1*
X3636838Y2364914D1*
X3626616Y2368235D1*
X3617038Y2373115D1*
X3608342Y2379433D1*
X3600742Y2387034D1*
X3597073Y2391764D1*
X3564385Y2391755D1*
X3564406Y2372227D1*
X3400976D1*
X3429965Y2343104D1*
X3433557Y2337729D1*
X3435794Y2331664D1*
X3436554Y2325244D1*
Y2128223D1*
X3558155Y2128245D1*
Y2108763D1*
X3593098Y2108718D1*
X3597412Y2115497D1*
X3604393Y2123670D1*
X3612566Y2130651D1*
X3621731Y2136268D1*
X3631662Y2140381D1*
X3642114Y2142890D1*
X3652829Y2143734D1*
X3663545Y2142890D1*
X3673997Y2140381D1*
X3683928Y2136268D1*
X3693093Y2130651D1*
X3701266Y2123670D1*
X3708247Y2115497D1*
X3713863Y2106332D1*
X3717977Y2096401D1*
X3720486Y2085949D1*
X3721329Y2075234D1*
X3720486Y2064518D1*
X3717977Y2054066D1*
X3713863Y2044135D1*
X3708247Y2034970D1*
X3701266Y2026797D1*
X3693093Y2019816D1*
X3683928Y2014200D1*
X3673997Y2010086D1*
X3663545Y2007577D1*
X3652829Y2006734D1*
X3642114Y2007577D1*
X3631662Y2010086D1*
X3621731Y2014200D1*
X3612566Y2019816D1*
X3604393Y2026797D1*
X3597412Y2034970D1*
X3593140Y2041734D1*
X3558136Y2041718D1*
X3558155Y2022190D1*
X3405276D1*
X3405301Y1774118D1*
X3413646Y1765730D1*
X3551904Y1765707D1*
Y1746225D1*
X3589972Y1746180D1*
X3594424Y1754737D1*
X3600742Y1763433D1*
X3608342Y1771034D1*
X3617038Y1777352D1*
X3626616Y1782232D1*
X3636838Y1785554D1*
X3647455Y1787235D1*
X3658204D1*
X3668820Y1785554D1*
X3679043Y1782232D1*
X3688621Y1777352D1*
X3697317Y1771034D1*
X3704917Y1763433D1*
X3711235Y1754737D1*
X3716115Y1745160D1*
X3719437Y1734937D1*
X3721118Y1724321D1*
Y1713572D1*
X3719437Y1702955D1*
X3716115Y1692732D1*
X3711235Y1683155D1*
X3704917Y1674459D1*
X3697317Y1666858D1*
X3688621Y1660540D1*
X3679043Y1655660D1*
X3668820Y1652339D1*
X3658204Y1650657D1*
X3647455D1*
X3636838Y1652339D1*
X3626616Y1655660D1*
X3617038Y1660540D1*
X3608342Y1666858D1*
X3600742Y1674459D1*
X3597073Y1679190D1*
X3551885Y1679180D1*
X3551904Y1659652D1*
X3378920D1*
Y1722689D1*
X3367791Y1733803D1*
X3367797Y1424018D1*
X3385188Y1406648D1*
X3385171Y1415671D1*
X3558155D1*
Y1396188D1*
X3593098Y1396143D1*
X3597412Y1402922D1*
X3604393Y1411096D1*
X3612566Y1418076D1*
X3621731Y1423693D1*
X3631662Y1427806D1*
X3642114Y1430315D1*
X3652829Y1431159D1*
X3663545Y1430315D1*
X3673997Y1427806D1*
X3683928Y1423693D1*
X3693093Y1418076D1*
X3701266Y1411096D1*
X3708247Y1402922D1*
X3713863Y1393757D1*
X3717977Y1383826D1*
X3720486Y1373375D1*
X3721329Y1362659D1*
X3720486Y1351943D1*
X3717977Y1341491D1*
X3713863Y1331560D1*
X3708247Y1322396D1*
X3701266Y1314222D1*
X3693093Y1307241D1*
X3683928Y1301625D1*
X3673997Y1297511D1*
X3663545Y1295002D1*
X3652829Y1294159D1*
X3642114Y1295002D1*
X3631662Y1297511D1*
X3621731Y1301625D1*
X3612566Y1307241D1*
X3604393Y1314222D1*
X3597412Y1322396D1*
X3593140Y1329159D1*
X3558136Y1329143D1*
X3558155Y1309615D1*
X3385171D1*
Y1335641D1*
X3379778Y1337236D1*
X3374138Y1340395D1*
X3370856Y1343198D1*
X3336571Y1377483D1*
X3336543Y1080265D1*
X3376723Y1040074D1*
X3385172Y1040106D1*
X3385171Y1065634D1*
X3558155D1*
Y1046151D1*
X3597004Y1046106D1*
X3604393Y1054808D1*
X3612566Y1061789D1*
X3621731Y1067405D1*
X3631662Y1071519D1*
X3642114Y1074028D1*
X3652829Y1074871D1*
X3663545Y1074028D1*
X3673997Y1071519D1*
X3683928Y1067405D1*
X3693093Y1061789D1*
X3701266Y1054808D1*
X3708247Y1046635D1*
X3713863Y1037470D1*
X3717977Y1027539D1*
X3720486Y1017087D1*
X3721329Y1006371D1*
X3720486Y995656D1*
X3717977Y985204D1*
X3713863Y975273D1*
X3708247Y966108D1*
X3701266Y957935D1*
X3693093Y950954D1*
X3683928Y945337D1*
X3673997Y941224D1*
X3663545Y938715D1*
X3652829Y937871D1*
X3642114Y938715D1*
X3631662Y941224D1*
X3621731Y945337D1*
X3612566Y950954D1*
X3604393Y957935D1*
X3597412Y966108D1*
X3591795Y975273D1*
X3590027Y979108D1*
X3558167Y979106D1*
X3558155Y959578D1*
X3385171D1*
Y985116D1*
X3363142Y985191D1*
X3356801Y986452D1*
X3350930Y989159D1*
X3345854Y993161D1*
X3305285Y1033730D1*
X3305290Y711513D1*
X3332952Y683803D1*
X3378918Y683819D1*
X3378920Y709346D1*
X3551904D1*
Y689864D1*
X3597003Y689819D1*
X3604393Y698521D1*
X3612566Y705502D1*
X3621731Y711118D1*
X3631662Y715231D1*
X3642114Y717741D1*
X3652829Y718584D1*
X3663545Y717741D1*
X3673997Y715231D1*
X3683928Y711118D1*
X3693093Y705502D1*
X3701266Y698521D1*
X3708247Y690347D1*
X3713863Y681182D1*
X3714347Y680133D1*
X3714340Y696594D1*
X3675518Y735449D1*
X3714347Y620035D2*
X3711235Y614293D1*
X3704917Y605597D1*
X3697317Y597996D1*
X3688621Y591678D1*
X3679043Y586798D1*
X3668820Y583477D1*
X3658204Y581795D1*
X3647455D1*
X3636838Y583477D1*
X3626616Y586798D1*
X3617038Y591678D1*
X3608342Y597996D1*
X3600742Y605597D1*
X3594424Y614293D1*
X3590027Y622821D1*
X3551917Y622819D1*
X3551904Y603291D1*
X3378920D1*
Y628828D1*
X3319387Y628904D1*
X3313047Y630165D1*
X3307176Y632871D1*
X3302099Y636873D1*
X3256879Y682214D1*
X3254338Y685712D1*
X3253783Y662682D1*
Y647302D1*
X3368771Y532276D1*
X3655679Y532302D1*
X3714343Y591011D1*
X3714340Y619933D1*
X3391421Y2381748D2*
Y2429014D1*
X3266388Y2554032D1*
X3218931Y2553780D1*
X3222212Y2550977D1*
X3391427Y2381762D1*
X3406741Y3084802D2*
X3385171D1*
Y3157311D1*
X3312026Y3157291D1*
X3312066Y3082488D1*
X3286529D1*
X3286538Y3064733D1*
X3290185Y3060449D1*
X3293342Y3055298D1*
X3295654Y3049716D1*
X3297064Y3043842D1*
X3297538Y3037819D1*
X3297064Y3031796D1*
X3295654Y3025922D1*
X3293342Y3020340D1*
X3290185Y3015189D1*
X3286262Y3010595D1*
X3281668Y3006672D1*
X3276517Y3003515D1*
X3270935Y3001203D1*
X3265061Y2999793D1*
X3259038Y2999319D1*
X3253015Y2999793D1*
X3247141Y3001203D1*
X3241559Y3003515D1*
X3236408Y3006672D1*
X3231814Y3010595D1*
X3227891Y3015189D1*
X3224734Y3020340D1*
X3222422Y3025922D1*
X3221012Y3031796D1*
X3220538Y3037819D1*
X3221012Y3043842D1*
X3222422Y3049716D1*
X3224734Y3055298D1*
X3227891Y3060449D1*
X3231534Y3064739D1*
X3231538Y3082497D1*
X3192769Y3082488D1*
X3192778Y2816686D1*
X3406771Y3030672D1*
X3406761Y3084848D1*
X1967671Y553080D2*
X1994349D1*
X1994467Y690405D1*
X1996003Y698129D1*
X1999300Y705281D1*
X2004183Y711472D1*
X2015535Y722824D1*
X2016107Y724638D1*
X1967628Y676159D1*
X1967650Y553051D1*
X1333128Y50007D2*
Y117878D1*
X1323665Y119633D1*
X1314204Y122842D1*
X1305310Y127393D1*
X1297172Y133190D1*
X1289964Y140109D1*
X1287254Y143329D1*
X1287252Y49964D1*
X1333113Y50004D1*
X1192752Y483509D2*
X1198953D1*
X1159159Y523141D1*
X1160913Y516919D1*
X1161252Y512617D1*
Y483466D1*
X1192752Y483509D1*
X1276559Y341509D2*
X502535D1*
X502605Y197648D1*
X506537Y202250D1*
X533751Y229297D1*
X538638Y232848D1*
X544021Y235590D1*
X549767Y237457D1*
X555734Y238402D1*
X683752Y238521D1*
X1176281D1*
X1176393Y271500D1*
X1177338Y277467D1*
X1179205Y283212D1*
X1181948Y288595D1*
X1185499Y293483D1*
X1215072Y323057D1*
X1219960Y326608D1*
X1225343Y329350D1*
X1231088Y331217D1*
X1237055Y332162D1*
X1267859Y332281D1*
X1276598Y340995D1*
X1092752Y483509D2*
X1106277D1*
X1106252Y501230D1*
X1072426Y535052D1*
X1018917Y535059D1*
X1054663Y499213D1*
X1058255Y493838D1*
X1060492Y487773D1*
X1061168Y483502D1*
X1092752Y483509D1*
X980252Y483491D2*
X992703Y483509D1*
X972426Y503788D1*
X912657Y503806D1*
X932992Y483489D1*
X980203Y483509D1*
X792752D2*
X806278D1*
X806337Y527181D1*
X807598Y533522D1*
X810304Y539392D1*
X814307Y544469D1*
X818778Y548940D1*
X818785Y677449D1*
X761249Y619901D1*
X761252Y483493D1*
X792752Y483509D1*
X692752D2*
X706278D1*
X706338Y633461D1*
X686805Y614214D1*
X661221Y588630D1*
X661252Y483500D1*
X692752Y483509D1*
X592752D2*
X606278D1*
X606337Y602210D1*
X607598Y608551D1*
X610304Y614421D1*
X614306Y619498D1*
X781312Y786504D1*
X781365Y2746196D1*
X782627Y2752536D1*
X785333Y2758407D1*
X789335Y2763484D1*
X862566Y2836715D1*
X862539Y3157296D1*
X799262Y3157291D1*
X799302Y3082488D1*
X773765D1*
X773690Y2998157D1*
X772428Y2991817D1*
X769722Y2985946D1*
X765720Y2980869D1*
X756188Y2971816D1*
X750547Y2968658D1*
X744326Y2966903D1*
X740024Y2966564D1*
X586264D1*
X586170Y641660D1*
X584909Y635320D1*
X582202Y629449D1*
X578200Y624372D1*
X561247Y607419D1*
X561252Y483512D1*
X592752Y483509D1*
X1302946Y2685250D2*
X1302947Y2459079D1*
X1304504Y2459816D1*
X1312617Y2467930D1*
X1312671Y2664937D1*
X1313932Y2671278D1*
X1316639Y2677148D1*
X1320641Y2682225D1*
X1323714Y2685298D1*
X1302930Y2685285D1*
X1177209Y2146220D2*
X1177206Y2148027D1*
Y2146269D1*
X1165024Y2147979D1*
X1135190D1*
X1123561Y2136350D1*
X1123560Y2118536D1*
X1130794Y2119850D1*
X1136836D1*
X1142803Y2118905D1*
X1148548Y2117038D1*
X1152726Y2114970D1*
X1177223Y2114969D1*
X1177206Y2146220D1*
X1302946Y2097946D2*
Y1996220D1*
X1233854D1*
X1234703Y1990729D1*
Y1984688D1*
X1233758Y1978721D1*
X1231891Y1972975D1*
X1229148Y1967592D1*
X1225597Y1962705D1*
X1221325Y1958433D1*
X1216438Y1954882D1*
X1211055Y1952139D1*
X1205309Y1950272D1*
X1199342Y1949327D1*
X1192328Y1949443D1*
X1192318Y1887272D1*
X1218320Y1913172D1*
X1224867Y1917547D1*
X1232256Y1920273D1*
X1240086Y1921198D1*
X1306629D1*
X1306586Y2098001D1*
X1673025Y2246188D2*
Y2209958D1*
X1789260Y2209979D1*
X1795020Y2214306D1*
X1800403Y2217048D1*
X1806149Y2218915D1*
X1812116Y2219860D1*
X1818157D1*
X1824124Y2218915D1*
X1829870Y2217048D1*
X1835253Y2214306D1*
X1840140Y2210755D1*
X1844412Y2206483D1*
X1847963Y2201595D1*
X1850706Y2196212D1*
X1852573Y2190467D1*
X1853518Y2184500D1*
Y2178458D1*
X1852573Y2172491D1*
X1851864Y2169980D1*
X2143013Y2169974D1*
X2283977Y2310807D1*
X2288864Y2314358D1*
X2294247Y2317101D1*
X2299993Y2318968D1*
X2305960Y2319913D1*
X2353463Y2320032D1*
X2352171Y2325472D1*
X2351697Y2331495D1*
X2352171Y2337517D1*
X2353581Y2343392D1*
X2355893Y2348973D1*
X2358203Y2352858D1*
X2352799Y2358870D1*
X2349642Y2364021D1*
X2347331Y2369603D1*
X2345920Y2375477D1*
X2345446Y2381500D1*
X2345920Y2387523D1*
X2347331Y2393397D1*
X2349642Y2398979D1*
X2351953Y2402863D1*
X2346548Y2408876D1*
X2343392Y2414027D1*
X2341080Y2419608D1*
X2339670Y2425483D1*
X2339196Y2431505D1*
X2339670Y2437528D1*
X2341080Y2443402D1*
X2343392Y2448984D1*
X2346548Y2454135D1*
X2348413Y2456500D1*
X2344869Y2461394D1*
X2342126Y2466777D1*
X2340259Y2472523D1*
X2339314Y2478490D1*
Y2484531D1*
X2340259Y2490498D1*
X2342126Y2496244D1*
X2345702Y2502874D1*
X2340298Y2508886D1*
X2337141Y2514037D1*
X2334829Y2519619D1*
X2333419Y2525493D1*
X2332945Y2531516D1*
X2333419Y2537538D1*
X2334829Y2543413D1*
X2337458Y2549561D1*
X2331720Y2554297D1*
X2327796Y2558891D1*
X2324640Y2564042D1*
X2322328Y2569624D1*
X2320918Y2575498D1*
X2320444Y2581521D1*
X2320918Y2587544D1*
X2322328Y2593418D1*
X2324640Y2599000D1*
X2326950Y2602884D1*
X2321546Y2608897D1*
X2318389Y2614048D1*
X2316077Y2619629D1*
X2314667Y2625504D1*
X2314193Y2631526D1*
X2314667Y2637549D1*
X2316077Y2643423D1*
X2318707Y2649572D1*
X2312968Y2654308D1*
X2309044Y2658902D1*
X2305888Y2664053D1*
X2303576Y2669634D1*
X2302166Y2675509D1*
X2301692Y2681531D1*
X2302166Y2687554D1*
X2303041Y2691531D1*
X2064021Y2691535D1*
X1990412Y2617895D1*
X1997770Y2614358D1*
X2002657Y2610807D1*
X2006929Y2606535D1*
X2010480Y2601648D1*
X2013223Y2596265D1*
X2015090Y2590519D1*
X2016035Y2584552D1*
Y2578511D1*
X2015090Y2572544D1*
X2013223Y2566798D1*
X2010480Y2561415D1*
X2008886Y2559029D1*
X2085008Y2559032D1*
X2125151Y2599142D1*
X2125172Y2623367D1*
X2121525Y2627648D1*
X2118368Y2632800D1*
X2116056Y2638381D1*
X2114646Y2644255D1*
X2114172Y2650278D1*
X2114646Y2656301D1*
X2116056Y2662175D1*
X2118368Y2667757D1*
X2121525Y2672908D1*
X2125448Y2677502D1*
X2130042Y2681425D1*
X2135193Y2684582D1*
X2140775Y2686894D1*
X2146649Y2688304D1*
X2152672Y2688778D1*
X2158695Y2688304D1*
X2164569Y2686894D1*
X2170151Y2684582D1*
X2175302Y2681425D1*
X2179896Y2677502D1*
X2183819Y2672908D1*
X2186976Y2667757D1*
X2189288Y2662175D1*
X2190698Y2656301D1*
X2191172Y2650278D1*
X2190698Y2644255D1*
X2189288Y2638381D1*
X2186976Y2632800D1*
X2183819Y2627648D1*
X2180176Y2623358D1*
X2180087Y2585614D1*
X2178826Y2579274D1*
X2176120Y2573403D1*
X2172111Y2568320D1*
X2114292Y2510620D1*
X2108916Y2507029D1*
X2102852Y2504791D1*
X2096432Y2504031D1*
X1715133D1*
X1718176Y2499010D1*
X1720488Y2493429D1*
X1721899Y2487554D1*
X1722373Y2481531D1*
X1721899Y2475509D1*
X1720488Y2469634D1*
X1718176Y2464053D1*
X1715020Y2458902D1*
X1711096Y2454308D1*
X1706502Y2450384D1*
X1701351Y2447228D1*
X1695770Y2444916D1*
X1689895Y2443505D1*
X1683873Y2443031D1*
X1677850Y2443505D1*
X1673033Y2444618D1*
X1673025Y2416012D1*
X1678226Y2418147D1*
X1684101Y2419557D1*
X1690123Y2420031D1*
X1696146Y2419557D1*
X1702021Y2418147D1*
X1707602Y2415835D1*
X1712753Y2412679D1*
X1717347Y2408755D1*
X1721271Y2404161D1*
X1724427Y2399010D1*
X1726739Y2393429D1*
X1728149Y2387554D1*
X1728623Y2381531D1*
X1728149Y2375509D1*
X1726739Y2369634D1*
X1724427Y2364053D1*
X1721271Y2358902D1*
X1719406Y2356537D1*
X1722950Y2351648D1*
X1725693Y2346265D1*
X1727560Y2340519D1*
X1728505Y2334552D1*
Y2328511D1*
X1727560Y2322544D1*
X1725693Y2316798D1*
X1722950Y2311415D1*
X1719399Y2306528D1*
X1715127Y2302256D1*
X1710240Y2298705D1*
X1704857Y2295962D1*
X1699111Y2294095D1*
X1693144Y2293150D1*
X1687103D1*
X1681136Y2294095D1*
X1675390Y2295962D1*
X1673020Y2297055D1*
X1672976Y2246220D1*
X2859962Y2716843D2*
X2898154D1*
Y2709079D1*
X3085137Y2709032D1*
X3098862Y2722763D1*
X2859855Y2722789D1*
X2859906Y2716853D1*
X603717Y3382020D2*
X663807D1*
Y3293681D1*
X660536D1*
X685927Y3268201D1*
X689518Y3262826D1*
X691758Y3256753D1*
X693247Y3255472D1*
X864984D1*
X867791Y3260255D1*
X870594Y3263536D1*
X879398Y3272340D1*
X740939Y3272321D1*
Y3378376D1*
X756319D1*
X756278Y3399910D1*
X747483Y3399942D1*
X747368Y3401240D1*
X743066Y3400902D1*
X701220D1*
X701209Y3384232D1*
X628618D1*
Y3435355D1*
X620146Y3435363D1*
X561258Y3376471D1*
X561252Y3255483D1*
X621022Y3255472D1*
X606601Y3269985D1*
X603009Y3275360D1*
X600772Y3281425D1*
X600012Y3287845D1*
Y3293656D1*
X591217Y3293681D1*
Y3382020D1*
X603717D1*
X693288Y3082488D2*
X692516Y3081579D1*
Y3077233D1*
X696163Y3072950D1*
X699319Y3067799D1*
X701631Y3062217D1*
X703042Y3056343D1*
X703516Y3050320D1*
X703042Y3044297D1*
X701631Y3038423D1*
X699319Y3032842D1*
X696163Y3027690D1*
X690583Y3021566D1*
X718764Y3021564D1*
X718774Y3082493D1*
X693247Y3082488D1*
X637526D2*
X604997D1*
X605007Y3077233D1*
X608654Y3072950D1*
X611810Y3067799D1*
X614122Y3062217D1*
X615533Y3056343D1*
X616007Y3050320D1*
X615533Y3044297D1*
X614122Y3038423D1*
X611810Y3032842D1*
X608654Y3027690D1*
X603074Y3021566D1*
X639370Y3021564D1*
X633869Y3027690D1*
X630712Y3032842D1*
X628400Y3038423D1*
X626990Y3044297D1*
X626516Y3050320D1*
X626990Y3056343D1*
X628400Y3062217D1*
X630712Y3067799D1*
X633869Y3072950D1*
X637512Y3077240D1*
X714718Y3647884D2*
X713626Y3637952D1*
X711102Y3628286D1*
X707197Y3619089D1*
X701997Y3610558D1*
X695611Y3602874D1*
X688175Y3596201D1*
X679847Y3590681D1*
X670805Y3586430D1*
X661241Y3583541D1*
X651359Y3582073D1*
X641368Y3582058D1*
X631481Y3583497D1*
X621908Y3586359D1*
X612854Y3590583D1*
X604510Y3596079D1*
X597055Y3602731D1*
X590647Y3610396D1*
X585421Y3618912D1*
X581490Y3628097D1*
X578938Y3637757D1*
X577817Y3647685D1*
X578152Y3657670D1*
X579937Y3667501D1*
X583133Y3676967D1*
X587671Y3685868D1*
X593456Y3694014D1*
X600365Y3701231D1*
X608250Y3707367D1*
X616943Y3712291D1*
X626261Y3715898D1*
X636004Y3718110D1*
X645965Y3718883D1*
X655933Y3718197D1*
X665695Y3716070D1*
X675043Y3712544D1*
X683779Y3707697D1*
X691718Y3701630D1*
X698689Y3694472D1*
X704545Y3686377D1*
X709161Y3677517D1*
X712439Y3668078D1*
X714309Y3658264D1*
X714718Y3647884D1*
X972505Y3382020D2*
X1032596D1*
Y3293681D1*
X1023758D1*
X1024585Y3292201D1*
X1054716Y3261950D1*
X1058311Y3256568D1*
X1068277Y3255472D1*
X1237583D1*
X1237579Y3272349D1*
X1097226Y3272321D1*
Y3378377D1*
X1112607D1*
X1112566Y3399914D1*
X1103770Y3399942D1*
X1103626Y3402995D1*
X1097404Y3401240D1*
X1093102Y3400902D1*
X1070007D1*
X1069997Y3384232D1*
X997407D1*
Y3435355D1*
X963934Y3435363D1*
X936275Y3407702D1*
X936207Y3260685D1*
X935529Y3256415D1*
X943268Y3255472D1*
X983560D1*
X974052Y3265430D1*
X970894Y3271071D1*
X969139Y3277293D1*
X968800Y3281594D1*
Y3293655D1*
X960005Y3293681D1*
Y3382020D1*
X972505D1*
X1068326Y3082488D2*
X1061295D1*
X1061305Y3070983D1*
X1064952Y3066699D1*
X1068108Y3061548D1*
X1070420Y3055967D1*
X1071830Y3050092D1*
X1072304Y3044070D1*
X1071830Y3038047D1*
X1070420Y3032172D1*
X1068108Y3026591D1*
X1064952Y3021440D1*
X1059372Y3015315D1*
X1060702Y3016098D1*
X1093813Y3049209D1*
X1093814Y3082497D1*
X1068286Y3082537D1*
X1006315Y3082488D2*
X973786D1*
X973795Y3070983D1*
X977442Y3066699D1*
X980599Y3061548D1*
X982911Y3055967D1*
X984321Y3050092D1*
X984795Y3044070D1*
X984321Y3038047D1*
X982911Y3032172D1*
X980599Y3026591D1*
X977442Y3021440D1*
X971863Y3015315D1*
X1008252Y3015314D1*
X1004529Y3019066D1*
X1000978Y3023953D1*
X998235Y3029336D1*
X996368Y3035082D1*
X995423Y3041049D1*
Y3047090D1*
X996368Y3053057D1*
X998235Y3058803D1*
X1000978Y3064186D1*
X1004529Y3069073D1*
X1006300Y3070990D1*
X1006304Y3082497D1*
X1071006Y3647884D2*
X1069914Y3637952D1*
X1067389Y3628286D1*
X1063485Y3619089D1*
X1058284Y3610558D1*
X1051898Y3602874D1*
X1044462Y3596201D1*
X1036135Y3590681D1*
X1027093Y3586430D1*
X1017529Y3583541D1*
X1007646Y3582073D1*
X997655Y3582058D1*
X987768Y3583497D1*
X978196Y3586359D1*
X969141Y3590583D1*
X960798Y3596079D1*
X953342Y3602731D1*
X946934Y3610396D1*
X941709Y3618912D1*
X937778Y3628097D1*
X935225Y3637757D1*
X934104Y3647685D1*
X934440Y3657670D1*
X936224Y3667501D1*
X939420Y3676967D1*
X943959Y3685868D1*
X949744Y3694014D1*
X956652Y3701231D1*
X964537Y3707367D1*
X973231Y3712291D1*
X982548Y3715898D1*
X992291Y3718110D1*
X1002253Y3718883D1*
X1012220Y3718197D1*
X1021982Y3716070D1*
X1031331Y3712544D1*
X1040067Y3707697D1*
X1048005Y3701630D1*
X1054976Y3694472D1*
X1060832Y3686377D1*
X1065448Y3677517D1*
X1068726Y3668078D1*
X1070596Y3658264D1*
X1071006Y3647884D1*
X1174341Y3157280D2*
Y3082488D1*
X1148804D1*
X1148729Y3035661D1*
X1147468Y3029321D1*
X1144761Y3023450D1*
X1140759Y3018373D1*
X1089168Y2966902D1*
X1083793Y2963311D1*
X1077728Y2961073D1*
X1071308Y2960314D1*
X917549D1*
X917539Y2834054D1*
X1234913Y2834045D1*
X1237550Y2836659D1*
X1237579Y3157291D1*
X1174302D1*
X1322542Y3382019D2*
X1382633D1*
Y3296717D1*
X1411003Y3268201D1*
X1414595Y3262826D1*
X1416834Y3256753D1*
X1424564Y3255472D1*
X1593870D1*
X1593866Y3272349D1*
X1453513Y3272322D1*
Y3378377D1*
X1468894D1*
X1468853Y3399910D1*
X1460058Y3399942D1*
Y3400870D1*
X1420047Y3400901D1*
X1420034Y3384232D1*
X1347444D1*
Y3435355D1*
X1326474Y3435363D1*
X1292579Y3401468D1*
Y3255485D1*
X1346098Y3255472D1*
X1325426Y3276236D1*
X1321834Y3281611D1*
X1319597Y3287676D1*
X1318922Y3291947D1*
X1310042Y3293681D1*
Y3382019D1*
X1322542D1*
X1424614Y3082488D2*
X1411332D1*
X1411341Y3067956D1*
X1482733Y2996570D1*
X1500696Y2996562D1*
X1504977Y3000209D1*
X1510128Y3003365D1*
X1514900Y3005379D1*
X1456690Y3063714D1*
X1453098Y3069089D1*
X1450861Y3075154D1*
X1450101Y3081573D1*
Y3082501D1*
X1424574Y3082537D1*
X1356343Y3082488D2*
X1336324D1*
X1336333Y3064733D1*
X1339980Y3060449D1*
X1343137Y3055298D1*
X1345449Y3049716D1*
X1346859Y3043842D1*
X1347333Y3037819D1*
X1346859Y3031796D1*
X1345449Y3025922D1*
X1343137Y3020340D1*
X1339980Y3015189D1*
X1336057Y3010595D1*
X1331463Y3006672D1*
X1326312Y3003515D1*
X1320730Y3001203D1*
X1314856Y2999793D1*
X1308833Y2999319D1*
X1302811Y2999793D1*
X1296936Y3001203D1*
X1292588Y3002947D1*
X1292579Y2971567D1*
X1429971Y2971559D1*
X1362930Y3038711D1*
X1359338Y3044086D1*
X1357101Y3050151D1*
X1356341Y3056571D1*
Y3082499D1*
X1427293Y3647884D2*
X1426201Y3637952D1*
X1423676Y3628286D1*
X1419772Y3619089D1*
X1414572Y3610558D1*
X1408186Y3602874D1*
X1400750Y3596201D1*
X1392422Y3590681D1*
X1383380Y3586430D1*
X1373816Y3583541D1*
X1363933Y3582073D1*
X1353942Y3582058D1*
X1344055Y3583497D1*
X1334483Y3586359D1*
X1325429Y3590583D1*
X1317085Y3596079D1*
X1309630Y3602731D1*
X1303221Y3610396D1*
X1297996Y3618912D1*
X1294065Y3628097D1*
X1291512Y3637757D1*
X1290392Y3647685D1*
X1290727Y3657670D1*
X1292512Y3667501D1*
X1295707Y3676967D1*
X1300246Y3685868D1*
X1306031Y3694014D1*
X1312940Y3701231D1*
X1320825Y3707367D1*
X1329518Y3712291D1*
X1338836Y3715898D1*
X1348579Y3718110D1*
X1358540Y3718883D1*
X1368508Y3718197D1*
X1378269Y3716070D1*
X1387618Y3712544D1*
X1396354Y3707697D1*
X1404292Y3701630D1*
X1411264Y3694472D1*
X1417120Y3686377D1*
X1421736Y3677517D1*
X1425014Y3668078D1*
X1426884Y3658264D1*
X1427293Y3647884D1*
X1530629Y3157280D2*
Y3082488D1*
X1515541D1*
X1570278Y3027788D1*
X1581914Y3027477D1*
X1588135Y3025722D1*
X1593782Y3022558D1*
X1593866Y3157294D1*
X1530589Y3157291D1*
X1678830Y3382020D2*
X1738920D1*
Y3297791D1*
X1751192Y3280198D1*
X1767669Y3255482D1*
X1943906Y3255472D1*
X1943903Y3272349D1*
X1809801Y3272321D1*
Y3378376D1*
X1831432D1*
X1831391Y3399910D1*
X1816345Y3399942D1*
Y3416592D1*
X1776323Y3416612D1*
X1776322Y3384232D1*
X1703731D1*
Y3435355D1*
X1657760Y3435363D1*
X1648862Y3426465D1*
X1648866Y3255488D1*
X1701595Y3255472D1*
X1679398Y3285623D1*
X1676602Y3291452D1*
X1675983Y3293530D1*
X1666330Y3293681D1*
Y3382020D1*
X1678830D1*
X1799407Y3082530D2*
X1773870Y3082488D1*
X1773879Y3064733D1*
X1777526Y3060449D1*
X1780683Y3055298D1*
X1782995Y3049716D1*
X1784405Y3043842D1*
X1784879Y3037819D1*
X1784405Y3031796D1*
X1782995Y3025922D1*
X1780683Y3020340D1*
X1777526Y3015189D1*
X1773603Y3010595D1*
X1769009Y3006672D1*
X1763858Y3003515D1*
X1758276Y3001203D1*
X1752402Y2999793D1*
X1746379Y2999319D1*
X1740357Y2999793D1*
X1734482Y3001203D1*
X1728901Y3003515D1*
X1723750Y3006672D1*
X1719156Y3010595D1*
X1715232Y3015189D1*
X1712076Y3020340D1*
X1709764Y3025922D1*
X1708353Y3031796D1*
X1707879Y3037819D1*
X1708353Y3043842D1*
X1709764Y3049716D1*
X1712076Y3055298D1*
X1715232Y3060449D1*
X1718875Y3064739D1*
X1718879Y3082497D1*
X1692611Y3082488D1*
X1692621Y3064733D1*
X1696268Y3060449D1*
X1699424Y3055298D1*
X1701736Y3049716D1*
X1703147Y3043842D1*
X1703621Y3037819D1*
X1703147Y3031796D1*
X1701736Y3025922D1*
X1699424Y3020340D1*
X1696268Y3015189D1*
X1692344Y3010595D1*
X1687750Y3006672D1*
X1682599Y3003515D1*
X1677018Y3001203D1*
X1671143Y2999793D1*
X1665121Y2999319D1*
X1659098Y2999793D1*
X1653224Y3001203D1*
X1648875Y3002947D1*
X1658866Y2996562D1*
X1797489D1*
X1800109Y2999176D1*
X1800138Y3082491D1*
X1783580Y3647884D2*
X1782489Y3637952D1*
X1779964Y3628286D1*
X1776060Y3619089D1*
X1770859Y3610558D1*
X1764473Y3602874D1*
X1757037Y3596201D1*
X1748710Y3590681D1*
X1739668Y3586430D1*
X1730104Y3583541D1*
X1720221Y3582073D1*
X1710230Y3582058D1*
X1700343Y3583497D1*
X1690770Y3586359D1*
X1681716Y3590583D1*
X1673372Y3596079D1*
X1665917Y3602731D1*
X1659509Y3610396D1*
X1654284Y3618912D1*
X1650353Y3628097D1*
X1647800Y3637757D1*
X1646679Y3647685D1*
X1647015Y3657670D1*
X1648799Y3667501D1*
X1651995Y3676967D1*
X1656533Y3685868D1*
X1662318Y3694014D1*
X1669227Y3701231D1*
X1677112Y3707367D1*
X1685806Y3712291D1*
X1695123Y3715898D1*
X1704866Y3718110D1*
X1714827Y3718883D1*
X1724795Y3718197D1*
X1734557Y3716070D1*
X1743905Y3712544D1*
X1752642Y3707697D1*
X1760580Y3701630D1*
X1767551Y3694472D1*
X1773407Y3686377D1*
X1778023Y3677517D1*
X1781301Y3668078D1*
X1783171Y3658264D1*
X1783580Y3647884D1*
X1880665Y3157281D2*
Y3082488D1*
X1855128D1*
X1855053Y2985656D1*
X1853792Y2979316D1*
X1851085Y2973445D1*
X1847083Y2968368D1*
X1825050Y2946814D1*
X1819410Y2943655D1*
X1813188Y2941900D1*
X1808886Y2941562D1*
X1648876D1*
X1648780Y2929392D1*
X1652598Y2927805D1*
X1937608D1*
X1937652Y3157294D1*
X1880625Y3157291D1*
X2035117Y3382020D2*
X2095207D1*
Y3293681D1*
X2086370D1*
X2087196Y3292201D1*
X2117327Y3261950D1*
X2120922Y3256568D1*
X2130889Y3255472D1*
X2300194D1*
X2300190Y3272349D1*
X2166088Y3272321D1*
Y3378376D1*
X2181469D1*
X2181428Y3399910D1*
X2172633Y3399942D1*
Y3400870D1*
X2132594Y3400902D1*
X2132609Y3384232D1*
X2060018D1*
Y3435355D1*
X2026548Y3435363D1*
X2023934Y3432749D1*
X2023821Y3391949D1*
X2022560Y3385608D1*
X2019853Y3379738D1*
X2015851Y3374661D1*
X1998898Y3357708D1*
X1998903Y3255481D1*
X2046172Y3255472D1*
X2036664Y3265430D1*
X2033505Y3271071D1*
X2031751Y3277293D1*
X2031412Y3281594D1*
Y3293655D1*
X2022617Y3293681D1*
Y3382020D1*
X2035117D1*
X2130938Y3082488D2*
X2123907D1*
X2123916Y3064733D1*
X2127563Y3060449D1*
X2130720Y3055298D1*
X2133032Y3049716D1*
X2134442Y3043842D1*
X2134916Y3037819D1*
X2134442Y3031796D1*
X2133032Y3025922D1*
X2130720Y3020340D1*
X2127563Y3015189D1*
X2123640Y3010595D1*
X2119046Y3006672D1*
X2113895Y3003515D1*
X2108313Y3001203D1*
X2102439Y2999793D1*
X2096416Y2999319D1*
X2090393Y2999793D1*
X2084519Y3001203D1*
X2078937Y3003515D1*
X2073786Y3006672D1*
X2069192Y3010595D1*
X2065269Y3015189D1*
X2062112Y3020340D1*
X2059800Y3025922D1*
X2058390Y3031796D1*
X2057916Y3037819D1*
X2058390Y3043842D1*
X2059800Y3049716D1*
X2062112Y3055298D1*
X2065269Y3060449D1*
X2068912Y3064739D1*
X2068916Y3082497D1*
X2042648Y3082488D1*
X2042658Y3064733D1*
X2046305Y3060449D1*
X2049461Y3055298D1*
X2051773Y3049716D1*
X2053183Y3043842D1*
X2053657Y3037819D1*
X2053183Y3031796D1*
X2051773Y3025922D1*
X2049461Y3020340D1*
X2046305Y3015189D1*
X2042381Y3010595D1*
X2037787Y3006672D1*
X2032636Y3003515D1*
X2027055Y3001203D1*
X2021180Y2999793D1*
X2015157Y2999319D1*
X2009135Y2999793D1*
X2003260Y3001203D1*
X1997679Y3003515D1*
X1992652Y3006382D1*
Y2996567D1*
X2153775Y2996562D1*
X2156396Y2999176D1*
X2156425Y3082491D1*
X2130898Y3082537D1*
X2139868Y3647884D2*
X2138776Y3637952D1*
X2136251Y3628286D1*
X2132347Y3619089D1*
X2127147Y3610558D1*
X2120761Y3602874D1*
X2113325Y3596201D1*
X2104997Y3590681D1*
X2095955Y3586430D1*
X2086391Y3583541D1*
X2076508Y3582073D1*
X2066517Y3582058D1*
X2056630Y3583497D1*
X2047058Y3586359D1*
X2038003Y3590583D1*
X2029660Y3596079D1*
X2022205Y3602731D1*
X2015796Y3610396D1*
X2010571Y3618912D1*
X2006640Y3628097D1*
X2004087Y3637757D1*
X2002967Y3647685D1*
X2003302Y3657670D1*
X2005087Y3667501D1*
X2008282Y3676967D1*
X2012821Y3685868D1*
X2018606Y3694014D1*
X2025514Y3701231D1*
X2033399Y3707367D1*
X2042093Y3712291D1*
X2051411Y3715898D1*
X2061153Y3718110D1*
X2071115Y3718883D1*
X2081082Y3718197D1*
X2090844Y3716070D1*
X2100193Y3712544D1*
X2108929Y3707697D1*
X2116867Y3701630D1*
X2123838Y3694472D1*
X2129694Y3686377D1*
X2134310Y3677517D1*
X2137588Y3668078D1*
X2139459Y3658264D1*
X2139868Y3647884D1*
X2236953Y3157280D2*
Y3082488D1*
X2211416D1*
X2211341Y2985656D1*
X2210079Y2979316D1*
X2207373Y2973445D1*
X2203371Y2968368D1*
X2181337Y2946814D1*
X2175697Y2943655D1*
X2169475Y2941900D1*
X2165173Y2941562D1*
X1992663D1*
X1992567Y2904389D1*
X1996349Y2902802D1*
X2300207D1*
X2300190Y3157294D1*
X2236913Y3157291D1*
X2391405Y3382019D2*
X2451495D1*
Y3296717D1*
X2486116Y3261950D1*
X2489711Y3256568D1*
X2499677Y3255472D1*
X2656483D1*
X2656478Y3272349D1*
X2522375Y3272321D1*
Y3378377D1*
X2544006D1*
X2543966Y3399910D1*
X2528920Y3399942D1*
Y3400870D1*
X2488910Y3400902D1*
X2488896Y3384232D1*
X2416306D1*
Y3435355D1*
X2382835Y3435363D1*
X2373938Y3426465D1*
X2373858Y3354445D1*
X2372596Y3348104D1*
X2369890Y3342234D1*
X2365888Y3337157D1*
X2355219Y3326488D1*
X2355190Y3255477D1*
X2414960Y3255472D1*
X2394288Y3276236D1*
X2390697Y3281611D1*
X2388459Y3287676D1*
X2387784Y3291947D1*
X2378905Y3293681D1*
Y3382019D1*
X2391405D1*
X2499727Y3082488D2*
X2492695D1*
X2492705Y3064733D1*
X2496352Y3060449D1*
X2499508Y3055298D1*
X2501820Y3049716D1*
X2503231Y3043842D1*
X2503705Y3037819D1*
X2503231Y3031796D1*
X2501820Y3025922D1*
X2499508Y3020340D1*
X2496352Y3015189D1*
X2492428Y3010595D1*
X2487834Y3006672D1*
X2482683Y3003515D1*
X2477102Y3001203D1*
X2471227Y2999793D1*
X2465205Y2999319D1*
X2459182Y2999793D1*
X2453308Y3001203D1*
X2447726Y3003515D1*
X2442575Y3006672D1*
X2437981Y3010595D1*
X2434058Y3015189D1*
X2430901Y3020340D1*
X2428589Y3025922D1*
X2427179Y3031796D1*
X2426705Y3037819D1*
X2427179Y3043842D1*
X2428589Y3049716D1*
X2430901Y3055298D1*
X2434058Y3060449D1*
X2437701Y3064739D1*
X2437705Y3082497D1*
X2405186Y3082488D1*
X2405196Y3064733D1*
X2408843Y3060449D1*
X2411999Y3055298D1*
X2414311Y3049716D1*
X2415722Y3043842D1*
X2416196Y3037819D1*
X2415722Y3031796D1*
X2414311Y3025922D1*
X2411999Y3020340D1*
X2408843Y3015189D1*
X2404919Y3010595D1*
X2400325Y3006672D1*
X2395174Y3003515D1*
X2389593Y3001203D1*
X2383718Y2999793D1*
X2377696Y2999319D1*
X2371673Y2999793D1*
X2365798Y3001203D1*
X2360217Y3003515D1*
X2355190Y3006382D1*
Y2996567D1*
X2525200Y2996562D1*
X2525214Y3082491D1*
X2499687Y3082537D1*
X2496155Y3647884D2*
X2495063Y3637952D1*
X2492539Y3628286D1*
X2488634Y3619089D1*
X2483434Y3610558D1*
X2477048Y3602874D1*
X2469612Y3596201D1*
X2461284Y3590681D1*
X2452242Y3586430D1*
X2442678Y3583541D1*
X2432796Y3582073D1*
X2422805Y3582058D1*
X2412918Y3583497D1*
X2403345Y3586359D1*
X2394291Y3590583D1*
X2385947Y3596079D1*
X2378492Y3602731D1*
X2372084Y3610396D1*
X2366858Y3618912D1*
X2362927Y3628097D1*
X2360375Y3637757D1*
X2359254Y3647685D1*
X2359589Y3657670D1*
X2361374Y3667501D1*
X2364570Y3676967D1*
X2369108Y3685868D1*
X2374893Y3694014D1*
X2381802Y3701231D1*
X2389687Y3707367D1*
X2398380Y3712291D1*
X2407698Y3715898D1*
X2417441Y3718110D1*
X2427402Y3718883D1*
X2437370Y3718197D1*
X2447132Y3716070D1*
X2456480Y3712544D1*
X2465216Y3707697D1*
X2473155Y3701630D1*
X2480126Y3694472D1*
X2485982Y3686377D1*
X2490598Y3677517D1*
X2493876Y3668078D1*
X2495746Y3658264D1*
X2496155Y3647884D1*
X2605742Y3157280D2*
Y3082488D1*
X2580205D1*
X2580129Y2979405D1*
X2578868Y2973065D1*
X2576162Y2967194D1*
X2572159Y2962118D1*
X2556377Y2946814D1*
X2550736Y2943655D1*
X2544515Y2941900D1*
X2540213Y2941562D1*
X2355203D1*
X2355190Y2877820D1*
X2622570Y2877799D1*
X2656477Y2911695D1*
X2656478Y3157294D1*
X2605702Y3157291D1*
X2736510Y3382019D2*
X2807782D1*
Y3296717D1*
X2842403Y3261950D1*
X2845998Y3256568D1*
X2855965Y3255472D1*
X3012770D1*
X3012765Y3272349D1*
X2878663Y3272321D1*
Y3378376D1*
X2900294D1*
X2900253Y3399910D1*
X2885208Y3399942D1*
Y3400870D1*
X2845187Y3400905D1*
X2845184Y3384232D1*
X2772593D1*
Y3435355D1*
X2739122Y3435363D1*
X2736509Y3432749D1*
X2736480Y3382051D1*
X2735134Y3366856D1*
X2732428Y3360986D1*
X2728426Y3355909D1*
X2711473Y3338956D1*
X2711478Y3255479D1*
X2771248Y3255472D1*
X2750576Y3276236D1*
X2746984Y3281611D1*
X2744747Y3287676D1*
X2744071Y3291947D1*
X2735192Y3293681D1*
X2735134Y3366856D1*
X2732428Y3360986D1*
X2728420Y3355903D1*
X2849764Y3082488D2*
X2848992Y3081579D1*
Y3064733D1*
X2852639Y3060449D1*
X2855796Y3055298D1*
X2858108Y3049716D1*
X2859518Y3043842D1*
X2859992Y3037819D1*
X2859518Y3031796D1*
X2858108Y3025922D1*
X2855796Y3020340D1*
X2852639Y3015189D1*
X2848716Y3010595D1*
X2844122Y3006672D1*
X2838971Y3003515D1*
X2833389Y3001203D1*
X2827515Y2999793D1*
X2821492Y2999319D1*
X2815469Y2999793D1*
X2809595Y3001203D1*
X2804013Y3003515D1*
X2798862Y3006672D1*
X2794269Y3010595D1*
X2790345Y3015189D1*
X2787188Y3020340D1*
X2784876Y3025922D1*
X2783466Y3031796D1*
X2782992Y3037819D1*
X2783466Y3043842D1*
X2784876Y3049716D1*
X2787188Y3055298D1*
X2790345Y3060449D1*
X2793988Y3064739D1*
X2793992Y3082497D1*
X2761473Y3082488D1*
X2761483Y3064733D1*
X2765130Y3060449D1*
X2768287Y3055298D1*
X2770599Y3049716D1*
X2772009Y3043842D1*
X2772483Y3037819D1*
X2772009Y3031796D1*
X2770599Y3025922D1*
X2768287Y3020340D1*
X2765130Y3015189D1*
X2761207Y3010595D1*
X2756613Y3006672D1*
X2751462Y3003515D1*
X2745880Y3001203D1*
X2740006Y2999793D1*
X2733983Y2999319D1*
X2727960Y2999793D1*
X2722086Y3001203D1*
X2716504Y3003515D1*
X2711478Y3006382D1*
Y2996567D1*
X2872601Y2996562D1*
X2875222Y2999176D1*
X2875251Y3082491D1*
X2849723Y3082488D1*
X2852443Y3647884D2*
X2851351Y3637952D1*
X2848826Y3628286D1*
X2844922Y3619089D1*
X2839721Y3610558D1*
X2833335Y3602874D1*
X2825899Y3596201D1*
X2817572Y3590681D1*
X2808530Y3586430D1*
X2798966Y3583541D1*
X2789083Y3582073D1*
X2779092Y3582058D1*
X2769205Y3583497D1*
X2759633Y3586359D1*
X2750578Y3590583D1*
X2742235Y3596079D1*
X2734779Y3602731D1*
X2728371Y3610396D1*
X2723146Y3618912D1*
X2719215Y3628097D1*
X2716662Y3637757D1*
X2715541Y3647685D1*
X2715877Y3657670D1*
X2717661Y3667501D1*
X2720857Y3676967D1*
X2725396Y3685868D1*
X2731181Y3694014D1*
X2738089Y3701231D1*
X2745974Y3707367D1*
X2754668Y3712291D1*
X2763985Y3715898D1*
X2773728Y3718110D1*
X2783690Y3718883D1*
X2793657Y3718197D1*
X2803419Y3716070D1*
X2812768Y3712544D1*
X2821504Y3707697D1*
X2829442Y3701630D1*
X2836413Y3694472D1*
X2842269Y3686377D1*
X2846885Y3677517D1*
X2850163Y3668078D1*
X2852033Y3658264D1*
X2852443Y3647884D1*
X2955778Y3157281D2*
Y3082488D1*
X2930241D1*
X2930166Y2985656D1*
X2928905Y2979316D1*
X2926198Y2973445D1*
X2922196Y2968368D1*
X2900163Y2946814D1*
X2894523Y2943655D1*
X2888301Y2941900D1*
X2883999Y2941562D1*
X2711489D1*
X2711393Y2898147D1*
X2710132Y2891806D1*
X2707425Y2885936D1*
X2703423Y2880859D1*
X2675353Y2852789D1*
X2990328Y2853036D1*
X2992194Y2858782D1*
X2994937Y2864165D1*
X2998488Y2869052D1*
X3002760Y2873324D1*
X3006518Y2876121D1*
X3006514Y3157282D1*
X2955739Y3157291D1*
X3100269Y3293681D2*
X3091479D1*
X3091422Y3366856D1*
X3088715Y3360986D1*
X3084713Y3355909D1*
X3067761Y3338956D1*
X3067765Y3255479D1*
X3115034Y3255472D1*
X3105526Y3265430D1*
X3102368Y3271071D1*
X3100613Y3277293D1*
X3100274Y3281594D1*
Y3293655D1*
X3137788Y3082488D2*
X3105260D1*
X3105184Y2804387D1*
X3103923Y2798047D1*
X3101217Y2792176D1*
X3097215Y2787099D1*
X3087927Y2777811D1*
X3122631Y2777789D1*
X3137747Y2792902D1*
X3137778Y3082470D1*
X3208730Y3647884D2*
X3207638Y3637952D1*
X3205113Y3628286D1*
X3201209Y3619089D1*
X3196009Y3610558D1*
X3189623Y3602874D1*
X3182187Y3596201D1*
X3173859Y3590681D1*
X3164817Y3586430D1*
X3155253Y3583541D1*
X3145370Y3582073D1*
X3135379Y3582058D1*
X3125492Y3583497D1*
X3115920Y3586359D1*
X3106866Y3590583D1*
X3098522Y3596079D1*
X3091067Y3602731D1*
X3084658Y3610396D1*
X3079433Y3618912D1*
X3075502Y3628097D1*
X3072949Y3637757D1*
X3071829Y3647685D1*
X3072164Y3657670D1*
X3073949Y3667501D1*
X3077144Y3676967D1*
X3081683Y3685868D1*
X3087468Y3694014D1*
X3094377Y3701231D1*
X3102262Y3707367D1*
X3110955Y3712291D1*
X3120273Y3715898D1*
X3130016Y3718110D1*
X3139977Y3718883D1*
X3149945Y3718197D1*
X3159706Y3716070D1*
X3169055Y3712544D1*
X3177791Y3707697D1*
X3185729Y3701630D1*
X3192701Y3694472D1*
X3198557Y3686377D1*
X3203173Y3677517D1*
X3206451Y3668078D1*
X3208321Y3658264D1*
X3208730Y3647884D1*
X1274827Y1394630D2*
Y1386720D1*
X1277891Y1391728D1*
X1281814Y1396322D1*
X1346336Y1460676D1*
X1351224Y1464227D1*
X1356607Y1466970D1*
X1362352Y1468837D1*
X1368319Y1469782D1*
X1496340Y1469900D1*
X1895412D1*
X1895518Y1509429D1*
X1896463Y1515396D1*
X1898330Y1521141D1*
X1901072Y1526524D1*
X1904623Y1531412D1*
X1995064Y1622020D1*
X2144737Y1771693D1*
X1665273Y1771689D1*
X1661091Y1766715D1*
X1656497Y1762791D1*
X1651346Y1759635D1*
X1645765Y1757323D1*
X1639890Y1755912D1*
X1635744Y1755512D1*
X1274813Y1394579D1*
X1277891Y1391728D1*
X1281814Y1396322D1*
X1229800Y1430176D2*
X1591294Y1791670D1*
X1391509Y1791691D1*
X1343091Y1743462D1*
X1336543Y1739087D1*
X1329155Y1736361D1*
X1321324Y1735436D1*
X1293704Y1735539D1*
X1285980Y1737075D1*
X1278828Y1740372D1*
X1272637Y1745255D1*
X1229796Y1788095D1*
X1229822Y1430223D1*
X1398737Y1240651D2*
X1396410Y1247394D1*
X1395465Y1253361D1*
Y1259403D1*
X1396410Y1265370D1*
X1398277Y1271115D1*
X1401020Y1276498D1*
X1404571Y1281386D1*
X1408843Y1285658D1*
X1413730Y1289209D1*
X1419113Y1291951D1*
X1424859Y1293818D1*
X1430826Y1294763D1*
X1436867D1*
X1442834Y1293818D1*
X1448580Y1291951D1*
X1453963Y1289209D1*
X1458850Y1285658D1*
X1463122Y1281386D1*
X1466673Y1276498D1*
X1469416Y1271115D1*
X1471283Y1265370D1*
X1472228Y1259403D1*
Y1253361D1*
X1471283Y1247394D1*
X1470188Y1243742D1*
X3084975Y888589D2*
X3105581D1*
X3114291Y897304D1*
X3114277Y1092915D1*
X3063959Y1092884D1*
X3071724Y1085600D1*
X3077663Y1078991D1*
X3080820Y1073840D1*
X3083131Y1068258D1*
X3084542Y1062384D1*
X3085016Y1056361D1*
Y888628D1*
X1292579Y2916569D2*
X1292494Y2823139D1*
X1291230Y2816791D1*
X1298227Y2816077D1*
X1398734Y2916584D1*
X1292602Y2916559D1*
X1942557Y2797797D2*
X1809744D1*
X1809676Y2790284D1*
X1934975Y2790290D1*
X1942526Y2797807D1*
X1672997Y2709032D2*
X1960008D1*
X1967529Y2716549D1*
X1673014Y2716538D1*
X289976Y3206281D2*
D21*
Y3069378D1*
X221525Y3137829D2*
X358428D1*
X289976Y2849993D2*
Y2713091D1*
X221525Y2781542D2*
X358428D1*
X289976Y2493706D2*
Y2356803D1*
X221525Y2425255D2*
X358428D1*
X289976Y2137418D2*
Y2000516D1*
X221525Y2068967D2*
X358428D1*
X289976Y1781131D2*
Y1644229D1*
X221525Y1712680D2*
X358428D1*
X289976Y1424844D2*
Y1287941D1*
X221525Y1356392D2*
X358428D1*
X289976Y1068556D2*
Y931654D1*
X221525Y1000105D2*
X358428D1*
X289976Y712269D2*
Y575366D1*
X221525Y643818D2*
X358428D1*
X1746379Y144425D2*
Y87509D1*
X1689464D2*
X1803295D1*
X1697167Y254386D2*
Y117483D1*
Y185934D2*
X1765618D1*
X1972757Y254386D2*
Y117483D1*
X1904306Y185934D2*
X2041208D1*
X2815257Y731021D2*
Y594118D1*
X2746806Y662570D2*
X2883708D1*
X1390092Y144425D2*
Y87509D1*
X1333176D2*
X1447008D1*
X1340879Y254386D2*
Y117483D1*
X1272428Y185934D2*
X1409330D1*
X1616470Y254386D2*
Y117483D1*
X1548019Y185934D2*
X1616470D1*
X646264Y3718834D2*
Y3581932D1*
X577813Y3650383D2*
X714715D1*
X1002551Y3718834D2*
Y3581932D1*
X934100Y3650383D2*
X1071002D1*
X1358839Y3718834D2*
Y3581932D1*
X1290387Y3650383D2*
X1427290D1*
X1715126Y3718834D2*
Y3581932D1*
X1646675Y3650383D2*
X1783577D1*
X2071413Y3718834D2*
Y3581932D1*
X2002962Y3650383D2*
X2139865D1*
X2427701Y3718834D2*
Y3581932D1*
X2359250Y3650383D2*
X2496152D1*
X2783988Y3718834D2*
Y3581932D1*
X2715537Y3650383D2*
X2852439D1*
X3140276Y3718834D2*
Y3581932D1*
X3071824Y3650383D2*
X3208727D1*
X2583915Y146739D2*
Y93760D1*
D23*
X289976Y3137829D3*
Y3287829D3*
Y2781542D3*
Y2931542D3*
Y2425255D3*
Y2575255D3*
Y2068967D3*
Y2218967D3*
Y1712680D3*
Y1862680D3*
Y1356392D3*
Y1506392D3*
Y1000105D3*
Y1150105D3*
Y643818D3*
Y793818D3*
D24*
X1471157Y1956000D3*
X1396354D3*
X2621471Y1956455D3*
X2696274D3*
X1633867Y418794D3*
X1708671D3*
D26*
X2515210Y1237630D3*
Y1048496D3*
D27*
X2702730Y1162622D3*
Y1237425D3*
X2721482Y1556413D3*
Y1631217D3*
D29*
X2277685Y1662675D3*
Y1528816D3*
D26*
X2909001Y1681427D3*
Y1492293D3*
D24*
X3077769Y1668925D3*
X3152572D3*
D31*
X1540108Y637567D3*
Y716307D3*
Y795047D3*
Y873787D3*
Y952528D3*
Y1031268D3*
Y1110008D3*
Y1188748D3*
X2170029Y637567D3*
Y716307D3*
Y795047D3*
Y873787D3*
Y952528D3*
Y1031268D3*
Y1110008D3*
Y1188748D3*
D32*
X2821492Y850089D3*
X2982909D3*
D33*
X1746379Y87509D3*
D34*
X1923545D3*
D35*
X1697167Y185934D3*
X1972757D3*
D23*
X2965257Y662570D3*
X2815257D3*
X3652829Y800084D3*
Y650084D3*
Y1156371D3*
Y1006371D3*
Y1512659D3*
Y1362659D3*
Y1868946D3*
Y1718946D3*
Y2225234D3*
Y2075234D3*
Y2581521D3*
Y2431521D3*
Y2937808D3*
Y2787808D3*
Y3294096D3*
Y3144096D3*
D24*
X2371445Y668820D3*
X2446248D3*
D36*
X2815241Y1281385D3*
Y1231385D3*
Y1181385D3*
Y1131385D3*
X3027840D3*
Y1181385D3*
Y1231385D3*
Y1281385D3*
D24*
X3502814Y656319D3*
X3428010D3*
X3509064Y1012606D3*
X3434261D3*
X3509064Y1362643D3*
X3434261D3*
X3502814Y1712680D3*
X3428010D3*
X3509064Y2075218D3*
X3434261D3*
X3515315Y2425255D3*
X3440512D3*
X3509064Y2775291D3*
X3434261D3*
X3509064Y3137829D3*
X3434261D3*
X1383841Y1187625D3*
X1309038D3*
X1633867Y500052D3*
X1708671D3*
X1383841Y1031358D3*
X1309038D3*
X3077951Y1587923D3*
X3152755D3*
X2446453Y800084D3*
X2371650D3*
X2446453Y587562D3*
X2371650D3*
X414990Y3331600D3*
X489793D3*
X427491Y2962811D3*
X502294D3*
X427491Y2587772D3*
X502294D3*
X427491Y2225234D3*
X502294D3*
X427491Y1850194D3*
X502294D3*
X427491Y1481406D3*
X502294D3*
X433741Y1112617D3*
X508545D3*
X421240Y750079D3*
X496043D3*
X1940150Y500052D3*
X1865346D3*
X2102667D3*
X2027864D3*
D33*
X1390092Y87509D3*
D34*
X1567257D3*
D35*
X1340879Y185934D3*
X1616470D3*
D37*
X533752Y87509D3*
X633752D3*
X733752D3*
X833752D3*
X933752D3*
X1033752D3*
X1133752D3*
X1233752D3*
Y412509D3*
X1133752D3*
X1033752D3*
X933752D3*
X833752D3*
X733752D3*
X633752D3*
X533752D3*
D36*
X1240076Y2681531D3*
Y2631531D3*
Y2581531D3*
Y2531531D3*
Y2481531D3*
Y2431531D3*
Y2381531D3*
Y2331531D3*
Y2281531D3*
Y2231531D3*
Y2181531D3*
Y2131531D3*
Y2081531D3*
Y2031531D3*
X1610155D3*
Y2081531D3*
Y2131531D3*
Y2181531D3*
Y2231531D3*
Y2281531D3*
Y2331531D3*
Y2381531D3*
Y2431531D3*
Y2481531D3*
Y2531531D3*
Y2581531D3*
Y2631531D3*
Y2681531D3*
X2465205D3*
Y2631531D3*
Y2581531D3*
Y2531531D3*
Y2481531D3*
Y2431531D3*
Y2381531D3*
Y2331531D3*
Y2281531D3*
Y2231531D3*
Y2181531D3*
Y2131531D3*
Y2081531D3*
Y2031531D3*
X2835283D3*
Y2081531D3*
Y2131531D3*
Y2181531D3*
Y2231531D3*
Y2281531D3*
Y2331531D3*
Y2381531D3*
Y2431531D3*
Y2481531D3*
Y2531531D3*
Y2581531D3*
Y2631531D3*
Y2681531D3*
D39*
X2446453Y1481406D3*
X2537004D3*
X2627555D3*
D40*
X2537004Y1709752D3*
D42*
X2965257Y987604D3*
Y1062407D3*
X2874706Y1025005D3*
D24*
X2371445Y881343D3*
X2446248D3*
D44*
X627512Y3337850D3*
X702315D3*
X664913Y3428402D3*
X783778Y3444112D3*
X858581D3*
X821180Y3534663D3*
D24*
X790029Y3325349D3*
X864832D3*
D27*
X665016Y3131579D3*
Y3206382D3*
X577507Y3131579D3*
Y3206382D3*
D24*
X640013Y3506618D3*
X714816D3*
D23*
X646264Y3650383D3*
X796264D3*
D27*
X746274Y3131579D3*
Y3206382D3*
X833783Y3131579D3*
Y3206382D3*
D44*
X996301Y3337850D3*
X1071104D3*
X1033702Y3428402D3*
X1140066Y3444112D3*
X1214869D3*
X1177467Y3534663D3*
D24*
X1146316Y3325349D3*
X1221119D3*
D27*
X1033804Y3131579D3*
Y3206382D3*
X946295Y3131579D3*
Y3206382D3*
D24*
X1002549Y3506614D3*
X1077352D3*
D23*
X1002551Y3650383D3*
X1152551D3*
D27*
X1121314Y3131579D3*
Y3206382D3*
X1208823Y3131579D3*
Y3206382D3*
D44*
X1346337Y3337850D3*
X1421140D3*
X1383739Y3428402D3*
X1496353Y3444112D3*
X1571156D3*
X1533755Y3534663D3*
D24*
X1502604Y3325349D3*
X1577407D3*
D27*
X1390092Y3131579D3*
Y3206382D3*
X1308833Y3131579D3*
Y3206382D3*
D24*
X1358839Y3506618D3*
X1433642D3*
D23*
X1358839Y3650383D3*
X1508839D3*
D27*
X1477601Y3131579D3*
Y3206382D3*
X1565110Y3131579D3*
Y3206382D3*
D44*
X1702625Y3337850D3*
X1777428D3*
X1740026Y3428402D3*
X1852640Y3444112D3*
X1927444D3*
X1890042Y3534663D3*
D24*
X1858891Y3325349D3*
X1933694D3*
D27*
X1746379Y3131579D3*
Y3206382D3*
X1665121Y3131579D3*
Y3206382D3*
D24*
X1715126Y3506618D3*
X1789929D3*
D23*
X1715126Y3650383D3*
X1865126D3*
D27*
X1827638Y3131579D3*
Y3206382D3*
X1908896Y3131579D3*
Y3206382D3*
D44*
X2058912Y3337850D3*
X2133715D3*
X2096314Y3428402D3*
X2208928Y3444112D3*
X2283731D3*
X2246329Y3534663D3*
D24*
X2215178Y3325349D3*
X2289982D3*
D27*
X2096416Y3131579D3*
Y3206382D3*
X2015157Y3131579D3*
Y3206382D3*
D24*
X2071413Y3506618D3*
X2146217D3*
D23*
X2071413Y3650383D3*
X2221413D3*
D27*
X2183925Y3131579D3*
Y3206382D3*
X2271434Y3131579D3*
Y3206382D3*
D44*
X2415199Y3337850D3*
X2490003D3*
X2452601Y3428402D3*
X2565215Y3444112D3*
X2640018D3*
X2602617Y3534663D3*
D24*
X2571466Y3325349D3*
X2646269D3*
D27*
X2465205Y3131579D3*
Y3206382D3*
X2377696Y3131579D3*
Y3206382D3*
D24*
X2427701Y3506618D3*
X2502504D3*
D23*
X2427701Y3650383D3*
X2577701D3*
D27*
X2552714Y3131579D3*
Y3206382D3*
X2640223Y3131579D3*
Y3206382D3*
D44*
X2771487Y3337850D3*
X2846290D3*
X2808888Y3428402D3*
X2921503Y3444112D3*
X2996306D3*
X2958904Y3534663D3*
D24*
X2927753Y3325349D3*
X3002556D3*
D27*
X2821492Y3131579D3*
Y3206382D3*
X2733983Y3131579D3*
Y3206382D3*
D24*
X2783988Y3506618D3*
X2858791D3*
D23*
X2783988Y3650383D3*
X2933988D3*
D27*
X2902751Y3131579D3*
Y3206382D3*
X2990260Y3131579D3*
Y3206382D3*
D44*
X3127774Y3337850D3*
X3202577D3*
X3165176Y3428402D3*
X3277790Y3444112D3*
X3352593D3*
X3315192Y3534663D3*
D24*
X3284041Y3325349D3*
X3358844D3*
D27*
X3165278Y3131579D3*
Y3206382D3*
X3077769Y3131579D3*
Y3206382D3*
D24*
X3140276Y3506618D3*
X3215079D3*
D23*
X3140276Y3650383D3*
X3290276D3*
D27*
X3259038Y3131579D3*
Y3206382D3*
X3346547Y3131579D3*
Y3206382D3*
D45*
X2083915Y93760D3*
X2183915D3*
X2283915D3*
X2383915D3*
X2483915D3*
X2583915D3*
G04 BoardOutline*
X0Y3937008D2*
D11*
Y0D1*
X2671476D1*
Y381290D1*
X3102772D1*
Y0D1*
X3937008D1*
Y3937008D1*
X0D1*
M02*
