  0
SECTION
  2
HEADER
  9
$ACADVER
  1
AC1009
  9
$ANGDIR
  70
0
  9
$CECOLOR
  62
256
  9
$CELTYPE
  6
BYLAYER
  9
$EXTMIN
  10
0.0
  20
0.0
  9
$EXTMAX
  10
3.937
  20
3.937
  9
$FILLMODE
  70
1
  9
$MIRRTEXT
  70
0
  0
ENDSEC
  0
SECTION
  2
TABLES
  0
TABLE
  2
LAYER
  70
17
  0
LAYER
  2
Top_Paste
  70
64
  62
4
  6
CONTINUOUS
  0
ENDTAB
  0
ENDSEC
  0
SECTION
  2
ENTITIES
  0
SOLID
  8
Top_Paste
  10
1.4496
  20
1.9815
  11
1.4927
  21
1.9815
  12
1.4496
  22
1.9305
  13
1.4927
  23
1.9305
  0
SOLID
  8
Top_Paste
  10
1.3748
  20
1.9815
  11
1.4179
  21
1.9815
  12
1.3748
  22
1.9305
  13
1.4179
  23
1.9305
  0
SOLID
  8
Top_Paste
  10
2.5999
  20
1.982
  11
2.6431
  21
1.982
  12
2.5999
  22
1.9309
  13
2.6431
  23
1.9309
  0
SOLID
  8
Top_Paste
  10
2.6747
  20
1.982
  11
2.7179
  21
1.982
  12
2.6747
  22
1.9309
  13
2.7179
  23
1.9309
  0
SOLID
  8
Top_Paste
  10
1.6123
  20
0.4443
  11
1.6555
  21
0.4443
  12
1.6123
  22
0.3933
  13
1.6555
  23
0.3933
  0
SOLID
  8
Top_Paste
  10
1.6871
  20
0.4443
  11
1.7303
  21
0.4443
  12
1.6871
  22
0.3933
  13
1.7303
  23
0.3933
  0
SOLID
  8
Top_Paste
  10
2.4917
  20
1.2897
  11
2.5388
  21
1.2897
  12
2.4917
  22
1.1855
  13
2.5388
  23
1.1855
  0
SOLID
  8
Top_Paste
  10
2.4917
  20
1.1006
  11
2.5388
  21
1.1006
  12
2.4917
  22
0.9964
  13
2.5388
  23
0.9964
  0
SOLID
  8
Top_Paste
  10
2.6772
  20
1.1842
  11
2.7283
  21
1.1842
  12
2.6772
  22
1.141
  13
2.7283
  23
1.141
  0
SOLID
  8
Top_Paste
  10
2.6772
  20
1.259
  11
2.7283
  21
1.259
  12
2.6772
  22
1.2158
  13
2.7283
  23
1.2158
  0
SOLID
  8
Top_Paste
  10
2.696
  20
1.578
  11
2.747
  21
1.578
  12
2.696
  22
1.5348
  13
2.747
  23
1.5348
  0
SOLID
  8
Top_Paste
  10
2.696
  20
1.6528
  11
2.747
  21
1.6528
  12
2.696
  22
1.6096
  13
2.747
  23
1.6096
  0
SOLID
  8
Top_Paste
  10
2.2541
  20
1.703
  11
2.3012
  21
1.703
  12
2.2541
  22
1.6224
  13
2.3012
  23
1.6224
  0
SOLID
  8
Top_Paste
  10
2.2541
  20
1.5691
  11
2.3012
  21
1.5691
  12
2.2541
  22
1.4885
  13
2.3012
  23
1.4885
  0
SOLID
  8
Top_Paste
  10
2.8854
  20
1.7335
  11
2.9326
  21
1.7335
  12
2.8854
  22
1.6293
  13
2.9326
  23
1.6293
  0
SOLID
  8
Top_Paste
  10
2.8854
  20
1.5444
  11
2.9326
  21
1.5444
  12
2.8854
  22
1.4402
  13
2.9326
  23
1.4402
  0
SOLID
  8
Top_Paste
  10
3.0562
  20
1.6945
  11
3.0994
  21
1.6945
  12
3.0562
  22
1.6434
  13
3.0994
  23
1.6434
  0
SOLID
  8
Top_Paste
  10
3.131
  20
1.6945
  11
3.1742
  21
1.6945
  12
3.131
  22
1.6434
  13
3.1742
  23
1.6434
  0
SOLID
  8
Top_Paste
  10
1.4654
  20
0.6651
  11
1.6148
  21
0.6651
  12
1.4654
  22
0.6101
  13
1.6148
  23
0.6101
  0
SOLID
  8
Top_Paste
  10
1.4654
  20
0.7438
  11
1.6148
  21
0.7438
  12
1.4654
  22
0.6888
  13
1.6148
  23
0.6888
  0
SOLID
  8
Top_Paste
  10
1.4654
  20
0.8225
  11
1.6148
  21
0.8225
  12
1.4654
  22
0.7676
  13
1.6148
  23
0.7676
  0
SOLID
  8
Top_Paste
  10
1.4654
  20
0.9013
  11
1.6148
  21
0.9013
  12
1.4654
  22
0.8463
  13
1.6148
  23
0.8463
  0
SOLID
  8
Top_Paste
  10
1.4654
  20
0.98
  11
1.6148
  21
0.98
  12
1.4654
  22
0.925
  13
1.6148
  23
0.925
  0
SOLID
  8
Top_Paste
  10
1.4654
  20
1.0588
  11
1.6148
  21
1.0588
  12
1.4654
  22
1.0038
  13
1.6148
  23
1.0038
  0
SOLID
  8
Top_Paste
  10
1.4654
  20
1.1375
  11
1.6148
  21
1.1375
  12
1.4654
  22
1.0825
  13
1.6148
  23
1.0825
  0
SOLID
  8
Top_Paste
  10
1.4654
  20
1.2162
  11
1.6148
  21
1.2162
  12
1.4654
  22
1.1613
  13
1.6148
  23
1.1613
  0
SOLID
  8
Top_Paste
  10
2.0953
  20
0.6651
  11
2.2448
  21
0.6651
  12
2.0953
  22
0.6101
  13
2.2448
  23
0.6101
  0
SOLID
  8
Top_Paste
  10
2.0953
  20
0.7438
  11
2.2448
  21
0.7438
  12
2.0953
  22
0.6888
  13
2.2448
  23
0.6888
  0
SOLID
  8
Top_Paste
  10
2.0953
  20
0.8225
  11
2.2448
  21
0.8225
  12
2.0953
  22
0.7676
  13
2.2448
  23
0.7676
  0
SOLID
  8
Top_Paste
  10
2.0953
  20
0.9013
  11
2.2448
  21
0.9013
  12
2.0953
  22
0.8463
  13
2.2448
  23
0.8463
  0
SOLID
  8
Top_Paste
  10
2.0953
  20
0.98
  11
2.2448
  21
0.98
  12
2.0953
  22
0.925
  13
2.2448
  23
0.925
  0
SOLID
  8
Top_Paste
  10
2.0953
  20
1.0588
  11
2.2448
  21
1.0588
  12
2.0953
  22
1.0038
  13
2.2448
  23
1.0038
  0
SOLID
  8
Top_Paste
  10
2.0953
  20
1.1375
  11
2.2448
  21
1.1375
  12
2.0953
  22
1.0825
  13
2.2448
  23
1.0825
  0
SOLID
  8
Top_Paste
  10
2.0953
  20
1.2162
  11
2.2448
  21
1.2162
  12
2.0953
  22
1.1613
  13
2.2448
  23
1.1613
  0
SOLID
  8
Top_Paste
  10
2.794
  20
0.913
  11
2.849
  21
0.913
  12
2.794
  22
0.7872
  13
2.849
  23
0.7872
  0
SOLID
  8
Top_Paste
  10
2.9554
  20
0.913
  11
3.0104
  21
0.913
  12
2.9554
  22
0.7872
  13
3.0104
  23
0.7872
  0
SOLID
  8
Top_Paste
  10
2.3499
  20
0.6943
  11
2.393
  21
0.6943
  12
2.3499
  22
0.6433
  13
2.393
  23
0.6433
  0
SOLID
  8
Top_Paste
  10
2.4247
  20
0.6943
  11
2.4678
  21
0.6943
  12
2.4247
  22
0.6433
  13
2.4678
  23
0.6433
  0
SOLID
  8
Top_Paste
  10
2.7799
  20
1.2892
  11
2.8506
  21
1.2892
  12
2.7799
  22
1.2736
  13
2.8506
  23
1.2736
  0
SOLID
  8
Top_Paste
  10
2.7799
  20
1.2392
  11
2.8506
  21
1.2392
  12
2.7799
  22
1.2236
  13
2.8506
  23
1.2236
  0
SOLID
  8
Top_Paste
  10
2.7799
  20
1.1892
  11
2.8506
  21
1.1892
  12
2.7799
  22
1.1736
  13
2.8506
  23
1.1736
  0
SOLID
  8
Top_Paste
  10
2.7799
  20
1.1392
  11
2.8506
  21
1.1392
  12
2.7799
  22
1.1236
  13
2.8506
  23
1.1236
  0
SOLID
  8
Top_Paste
  10
2.9925
  20
1.1392
  11
3.0632
  21
1.1392
  12
2.9925
  22
1.1236
  13
3.0632
  23
1.1236
  0
SOLID
  8
Top_Paste
  10
2.9925
  20
1.1892
  11
3.0632
  21
1.1892
  12
2.9925
  22
1.1736
  13
3.0632
  23
1.1736
  0
SOLID
  8
Top_Paste
  10
2.9925
  20
1.2392
  11
3.0632
  21
1.2392
  12
2.9925
  22
1.2236
  13
3.0632
  23
1.2236
  0
SOLID
  8
Top_Paste
  10
2.9925
  20
1.2892
  11
3.0632
  21
1.2892
  12
2.9925
  22
1.2736
  13
3.0632
  23
1.2736
  0
SOLID
  8
Top_Paste
  10
3.4812
  20
0.6818
  11
3.5244
  21
0.6818
  12
3.4812
  22
0.6308
  13
3.5244
  23
0.6308
  0
SOLID
  8
Top_Paste
  10
3.4064
  20
0.6818
  11
3.4496
  21
0.6818
  12
3.4064
  22
0.6308
  13
3.4496
  23
0.6308
  0
SOLID
  8
Top_Paste
  10
3.4875
  20
1.0381
  11
3.5307
  21
1.0381
  12
3.4875
  22
0.9871
  13
3.5307
  23
0.9871
  0
SOLID
  8
Top_Paste
  10
3.4127
  20
1.0381
  11
3.4559
  21
1.0381
  12
3.4127
  22
0.9871
  13
3.4559
  23
0.9871
  0
SOLID
  8
Top_Paste
  10
3.4875
  20
1.3882
  11
3.5307
  21
1.3882
  12
3.4875
  22
1.3371
  13
3.5307
  23
1.3371
  0
SOLID
  8
Top_Paste
  10
3.4127
  20
1.3882
  11
3.4559
  21
1.3882
  12
3.4127
  22
1.3371
  13
3.4559
  23
1.3371
  0
SOLID
  8
Top_Paste
  10
3.4812
  20
1.7382
  11
3.5244
  21
1.7382
  12
3.4812
  22
1.6872
  13
3.5244
  23
1.6872
  0
SOLID
  8
Top_Paste
  10
3.4064
  20
1.7382
  11
3.4496
  21
1.7382
  12
3.4064
  22
1.6872
  13
3.4496
  23
1.6872
  0
SOLID
  8
Top_Paste
  10
3.4875
  20
2.1007
  11
3.5307
  21
2.1007
  12
3.4875
  22
2.0497
  13
3.5307
  23
2.0497
  0
SOLID
  8
Top_Paste
  10
3.4127
  20
2.1007
  11
3.4559
  21
2.1007
  12
3.4127
  22
2.0497
  13
3.4559
  23
2.0497
  0
SOLID
  8
Top_Paste
  10
3.4937
  20
2.4508
  11
3.5369
  21
2.4508
  12
3.4937
  22
2.3997
  13
3.5369
  23
2.3997
  0
SOLID
  8
Top_Paste
  10
3.4189
  20
2.4508
  11
3.4621
  21
2.4508
  12
3.4189
  22
2.3997
  13
3.4621
  23
2.3997
  0
SOLID
  8
Top_Paste
  10
3.4875
  20
2.8008
  11
3.5307
  21
2.8008
  12
3.4875
  22
2.7498
  13
3.5307
  23
2.7498
  0
SOLID
  8
Top_Paste
  10
3.4127
  20
2.8008
  11
3.4559
  21
2.8008
  12
3.4127
  22
2.7498
  13
3.4559
  23
2.7498
  0
SOLID
  8
Top_Paste
  10
3.4875
  20
3.1634
  11
3.5307
  21
3.1634
  12
3.4875
  22
3.1123
  13
3.5307
  23
3.1123
  0
SOLID
  8
Top_Paste
  10
3.4127
  20
3.1634
  11
3.4559
  21
3.1634
  12
3.4127
  22
3.1123
  13
3.4559
  23
3.1123
  0
SOLID
  8
Top_Paste
  10
1.3623
  20
1.2132
  11
1.4054
  21
1.2132
  12
1.3623
  22
1.1621
  13
1.4054
  23
1.1621
  0
SOLID
  8
Top_Paste
  10
1.2874
  20
1.2132
  11
1.3306
  21
1.2132
  12
1.2874
  22
1.1621
  13
1.3306
  23
1.1621
  0
SOLID
  8
Top_Paste
  10
1.6123
  20
0.5256
  11
1.6555
  21
0.5256
  12
1.6123
  22
0.4745
  13
1.6555
  23
0.4745
  0
SOLID
  8
Top_Paste
  10
1.6871
  20
0.5256
  11
1.7303
  21
0.5256
  12
1.6871
  22
0.4745
  13
1.7303
  23
0.4745
  0
SOLID
  8
Top_Paste
  10
1.3623
  20
1.0569
  11
1.4054
  21
1.0569
  12
1.3623
  22
1.0058
  13
1.4054
  23
1.0058
  0
SOLID
  8
Top_Paste
  10
1.2874
  20
1.0569
  11
1.3306
  21
1.0569
  12
1.2874
  22
1.0058
  13
1.3306
  23
1.0058
  0
SOLID
  8
Top_Paste
  10
3.0564
  20
1.6135
  11
3.0995
  21
1.6135
  12
3.0564
  22
1.5624
  13
3.0995
  23
1.5624
  0
SOLID
  8
Top_Paste
  10
3.1312
  20
1.6135
  11
3.1743
  21
1.6135
  12
3.1312
  22
1.5624
  13
3.1743
  23
1.5624
  0
SOLID
  8
Top_Paste
  10
2.4249
  20
0.8256
  11
2.468
  21
0.8256
  12
2.4249
  22
0.7746
  13
2.468
  23
0.7746
  0
SOLID
  8
Top_Paste
  10
2.3501
  20
0.8256
  11
2.3932
  21
0.8256
  12
2.3501
  22
0.7746
  13
2.3932
  23
0.7746
  0
SOLID
  8
Top_Paste
  10
2.4249
  20
0.6131
  11
2.468
  21
0.6131
  12
2.4249
  22
0.562
  13
2.468
  23
0.562
  0
SOLID
  8
Top_Paste
  10
2.3501
  20
0.6131
  11
2.3932
  21
0.6131
  12
2.3501
  22
0.562
  13
2.3932
  23
0.562
  0
SOLID
  8
Top_Paste
  10
0.3934
  20
3.3571
  11
0.4366
  21
3.3571
  12
0.3934
  22
3.3061
  13
0.4366
  23
3.3061
  0
SOLID
  8
Top_Paste
  10
0.4682
  20
3.3571
  11
0.5114
  21
3.3571
  12
0.4682
  22
3.3061
  13
0.5114
  23
3.3061
  0
SOLID
  8
Top_Paste
  10
0.4059
  20
2.9883
  11
0.4491
  21
2.9883
  12
0.4059
  22
2.9373
  13
0.4491
  23
2.9373
  0
SOLID
  8
Top_Paste
  10
0.4807
  20
2.9883
  11
0.5239
  21
2.9883
  12
0.4807
  22
2.9373
  13
0.5239
  23
2.9373
  0
SOLID
  8
Top_Paste
  10
0.4059
  20
2.6133
  11
0.4491
  21
2.6133
  12
0.4059
  22
2.5622
  13
0.4491
  23
2.5622
  0
SOLID
  8
Top_Paste
  10
0.4807
  20
2.6133
  11
0.5239
  21
2.6133
  12
0.4807
  22
2.5622
  13
0.5239
  23
2.5622
  0
SOLID
  8
Top_Paste
  10
0.4059
  20
2.2508
  11
0.4491
  21
2.2508
  12
0.4059
  22
2.1997
  13
0.4491
  23
2.1997
  0
SOLID
  8
Top_Paste
  10
0.4807
  20
2.2508
  11
0.5239
  21
2.2508
  12
0.4807
  22
2.1997
  13
0.5239
  23
2.1997
  0
SOLID
  8
Top_Paste
  10
0.4059
  20
1.8757
  11
0.4491
  21
1.8757
  12
0.4059
  22
1.8247
  13
0.4491
  23
1.8247
  0
SOLID
  8
Top_Paste
  10
0.4807
  20
1.8757
  11
0.5239
  21
1.8757
  12
0.4807
  22
1.8247
  13
0.5239
  23
1.8247
  0
SOLID
  8
Top_Paste
  10
0.4059
  20
1.5069
  11
0.4491
  21
1.5069
  12
0.4059
  22
1.4559
  13
0.4491
  23
1.4559
  0
SOLID
  8
Top_Paste
  10
0.4807
  20
1.5069
  11
0.5239
  21
1.5069
  12
0.4807
  22
1.4559
  13
0.5239
  23
1.4559
  0
SOLID
  8
Top_Paste
  10
0.4122
  20
1.1381
  11
0.4553
  21
1.1381
  12
0.4122
  22
1.0871
  13
0.4553
  23
1.0871
  0
SOLID
  8
Top_Paste
  10
0.487
  20
1.1381
  11
0.5301
  21
1.1381
  12
0.487
  22
1.0871
  13
0.5301
  23
1.0871
  0
SOLID
  8
Top_Paste
  10
0.3996
  20
0.7756
  11
0.4428
  21
0.7756
  12
0.3996
  22
0.7246
  13
0.4428
  23
0.7246
  0
SOLID
  8
Top_Paste
  10
0.4745
  20
0.7756
  11
0.5176
  21
0.7756
  12
0.4745
  22
0.7246
  13
0.5176
  23
0.7246
  0
SOLID
  8
Top_Paste
  10
1.9186
  20
0.5256
  11
1.9617
  21
0.5256
  12
1.9186
  22
0.4745
  13
1.9617
  23
0.4745
  0
SOLID
  8
Top_Paste
  10
1.8438
  20
0.5256
  11
1.8869
  21
0.5256
  12
1.8438
  22
0.4745
  13
1.8869
  23
0.4745
  0
SOLID
  8
Top_Paste
  10
2.0811
  20
0.5256
  11
2.1243
  21
0.5256
  12
2.0811
  22
0.4745
  13
2.1243
  23
0.4745
  0
SOLID
  8
Top_Paste
  10
2.0063
  20
0.5256
  11
2.0495
  21
0.5256
  12
2.0063
  22
0.4745
  13
2.0495
  23
0.4745
  0
SOLID
  8
Top_Paste
  10
0.5078
  20
0.131
  11
0.5598
  21
0.131
  12
0.5078
  22
0.044
  13
0.5598
  23
0.044
  0
SOLID
  8
Top_Paste
  10
0.6078
  20
0.131
  11
0.6598
  21
0.131
  12
0.6078
  22
0.044
  13
0.6598
  23
0.044
  0
SOLID
  8
Top_Paste
  10
0.7078
  20
0.131
  11
0.7598
  21
0.131
  12
0.7078
  22
0.044
  13
0.7598
  23
0.044
  0
SOLID
  8
Top_Paste
  10
0.8078
  20
0.131
  11
0.8598
  21
0.131
  12
0.8078
  22
0.044
  13
0.8598
  23
0.044
  0
SOLID
  8
Top_Paste
  10
0.9078
  20
0.131
  11
0.9598
  21
0.131
  12
0.9078
  22
0.044
  13
0.9598
  23
0.044
  0
SOLID
  8
Top_Paste
  10
1.0078
  20
0.131
  11
1.0598
  21
0.131
  12
1.0078
  22
0.044
  13
1.0598
  23
0.044
  0
SOLID
  8
Top_Paste
  10
1.1078
  20
0.131
  11
1.1598
  21
0.131
  12
1.1078
  22
0.044
  13
1.1598
  23
0.044
  0
SOLID
  8
Top_Paste
  10
1.2078
  20
0.131
  11
1.2598
  21
0.131
  12
1.2078
  22
0.044
  13
1.2598
  23
0.044
  0
SOLID
  8
Top_Paste
  10
1.2078
  20
0.456
  11
1.2598
  21
0.456
  12
1.2078
  22
0.369
  13
1.2598
  23
0.369
  0
SOLID
  8
Top_Paste
  10
1.1078
  20
0.456
  11
1.1598
  21
0.456
  12
1.1078
  22
0.369
  13
1.1598
  23
0.369
  0
SOLID
  8
Top_Paste
  10
1.0078
  20
0.456
  11
1.0598
  21
0.456
  12
1.0078
  22
0.369
  13
1.0598
  23
0.369
  0
SOLID
  8
Top_Paste
  10
0.9078
  20
0.456
  11
0.9598
  21
0.456
  12
0.9078
  22
0.369
  13
0.9598
  23
0.369
  0
SOLID
  8
Top_Paste
  10
0.8078
  20
0.456
  11
0.8598
  21
0.456
  12
0.8078
  22
0.369
  13
0.8598
  23
0.369
  0
SOLID
  8
Top_Paste
  10
0.7078
  20
0.456
  11
0.7598
  21
0.456
  12
0.7078
  22
0.369
  13
0.7598
  23
0.369
  0
SOLID
  8
Top_Paste
  10
0.6078
  20
0.456
  11
0.6598
  21
0.456
  12
0.6078
  22
0.369
  13
0.6598
  23
0.369
  0
SOLID
  8
Top_Paste
  10
0.5078
  20
0.456
  11
0.5598
  21
0.456
  12
0.5078
  22
0.369
  13
0.5598
  23
0.369
  0
SOLID
  8
Top_Paste
  10
1.2047
  20
2.6893
  11
1.2754
  21
2.6893
  12
1.2047
  22
2.6737
  13
1.2754
  23
2.6737
  0
SOLID
  8
Top_Paste
  10
1.2047
  20
2.6393
  11
1.2754
  21
2.6393
  12
1.2047
  22
2.6237
  13
1.2754
  23
2.6237
  0
SOLID
  8
Top_Paste
  10
1.2047
  20
2.5893
  11
1.2754
  21
2.5893
  12
1.2047
  22
2.5737
  13
1.2754
  23
2.5737
  0
SOLID
  8
Top_Paste
  10
1.2047
  20
2.5393
  11
1.2754
  21
2.5393
  12
1.2047
  22
2.5237
  13
1.2754
  23
2.5237
  0
SOLID
  8
Top_Paste
  10
1.2047
  20
2.4893
  11
1.2754
  21
2.4893
  12
1.2047
  22
2.4737
  13
1.2754
  23
2.4737
  0
SOLID
  8
Top_Paste
  10
1.2047
  20
2.4393
  11
1.2754
  21
2.4393
  12
1.2047
  22
2.4237
  13
1.2754
  23
2.4237
  0
SOLID
  8
Top_Paste
  10
1.2047
  20
2.3893
  11
1.2754
  21
2.3893
  12
1.2047
  22
2.3737
  13
1.2754
  23
2.3737
  0
SOLID
  8
Top_Paste
  10
1.2047
  20
2.3393
  11
1.2754
  21
2.3393
  12
1.2047
  22
2.3237
  13
1.2754
  23
2.3237
  0
SOLID
  8
Top_Paste
  10
1.2047
  20
2.2893
  11
1.2754
  21
2.2893
  12
1.2047
  22
2.2737
  13
1.2754
  23
2.2737
  0
SOLID
  8
Top_Paste
  10
1.2047
  20
2.2393
  11
1.2754
  21
2.2393
  12
1.2047
  22
2.2237
  13
1.2754
  23
2.2237
  0
SOLID
  8
Top_Paste
  10
1.2047
  20
2.1893
  11
1.2754
  21
2.1893
  12
1.2047
  22
2.1737
  13
1.2754
  23
2.1737
  0
SOLID
  8
Top_Paste
  10
1.2047
  20
2.1393
  11
1.2754
  21
2.1393
  12
1.2047
  22
2.1237
  13
1.2754
  23
2.1237
  0
SOLID
  8
Top_Paste
  10
1.2047
  20
2.0893
  11
1.2754
  21
2.0893
  12
1.2047
  22
2.0737
  13
1.2754
  23
2.0737
  0
SOLID
  8
Top_Paste
  10
1.2047
  20
2.0393
  11
1.2754
  21
2.0393
  12
1.2047
  22
2.0237
  13
1.2754
  23
2.0237
  0
SOLID
  8
Top_Paste
  10
1.5748
  20
2.0393
  11
1.6455
  21
2.0393
  12
1.5748
  22
2.0237
  13
1.6455
  23
2.0237
  0
SOLID
  8
Top_Paste
  10
1.5748
  20
2.0893
  11
1.6455
  21
2.0893
  12
1.5748
  22
2.0737
  13
1.6455
  23
2.0737
  0
SOLID
  8
Top_Paste
  10
1.5748
  20
2.1393
  11
1.6455
  21
2.1393
  12
1.5748
  22
2.1237
  13
1.6455
  23
2.1237
  0
SOLID
  8
Top_Paste
  10
1.5748
  20
2.1893
  11
1.6455
  21
2.1893
  12
1.5748
  22
2.1737
  13
1.6455
  23
2.1737
  0
SOLID
  8
Top_Paste
  10
1.5748
  20
2.2393
  11
1.6455
  21
2.2393
  12
1.5748
  22
2.2237
  13
1.6455
  23
2.2237
  0
SOLID
  8
Top_Paste
  10
1.5748
  20
2.2893
  11
1.6455
  21
2.2893
  12
1.5748
  22
2.2737
  13
1.6455
  23
2.2737
  0
SOLID
  8
Top_Paste
  10
1.5748
  20
2.3393
  11
1.6455
  21
2.3393
  12
1.5748
  22
2.3237
  13
1.6455
  23
2.3237
  0
SOLID
  8
Top_Paste
  10
1.5748
  20
2.3893
  11
1.6455
  21
2.3893
  12
1.5748
  22
2.3737
  13
1.6455
  23
2.3737
  0
SOLID
  8
Top_Paste
  10
1.5748
  20
2.4393
  11
1.6455
  21
2.4393
  12
1.5748
  22
2.4237
  13
1.6455
  23
2.4237
  0
SOLID
  8
Top_Paste
  10
1.5748
  20
2.4893
  11
1.6455
  21
2.4893
  12
1.5748
  22
2.4737
  13
1.6455
  23
2.4737
  0
SOLID
  8
Top_Paste
  10
1.5748
  20
2.5393
  11
1.6455
  21
2.5393
  12
1.5748
  22
2.5237
  13
1.6455
  23
2.5237
  0
SOLID
  8
Top_Paste
  10
1.5748
  20
2.5893
  11
1.6455
  21
2.5893
  12
1.5748
  22
2.5737
  13
1.6455
  23
2.5737
  0
SOLID
  8
Top_Paste
  10
1.5748
  20
2.6393
  11
1.6455
  21
2.6393
  12
1.5748
  22
2.6237
  13
1.6455
  23
2.6237
  0
SOLID
  8
Top_Paste
  10
1.5748
  20
2.6893
  11
1.6455
  21
2.6893
  12
1.5748
  22
2.6737
  13
1.6455
  23
2.6737
  0
SOLID
  8
Top_Paste
  10
2.4298
  20
2.6893
  11
2.5006
  21
2.6893
  12
2.4298
  22
2.6737
  13
2.5006
  23
2.6737
  0
SOLID
  8
Top_Paste
  10
2.4298
  20
2.6393
  11
2.5006
  21
2.6393
  12
2.4298
  22
2.6237
  13
2.5006
  23
2.6237
  0
SOLID
  8
Top_Paste
  10
2.4298
  20
2.5893
  11
2.5006
  21
2.5893
  12
2.4298
  22
2.5737
  13
2.5006
  23
2.5737
  0
SOLID
  8
Top_Paste
  10
2.4298
  20
2.5393
  11
2.5006
  21
2.5393
  12
2.4298
  22
2.5237
  13
2.5006
  23
2.5237
  0
SOLID
  8
Top_Paste
  10
2.4298
  20
2.4893
  11
2.5006
  21
2.4893
  12
2.4298
  22
2.4737
  13
2.5006
  23
2.4737
  0
SOLID
  8
Top_Paste
  10
2.4298
  20
2.4393
  11
2.5006
  21
2.4393
  12
2.4298
  22
2.4237
  13
2.5006
  23
2.4237
  0
SOLID
  8
Top_Paste
  10
2.4298
  20
2.3893
  11
2.5006
  21
2.3893
  12
2.4298
  22
2.3737
  13
2.5006
  23
2.3737
  0
SOLID
  8
Top_Paste
  10
2.4298
  20
2.3393
  11
2.5006
  21
2.3393
  12
2.4298
  22
2.3237
  13
2.5006
  23
2.3237
  0
SOLID
  8
Top_Paste
  10
2.4298
  20
2.2893
  11
2.5006
  21
2.2893
  12
2.4298
  22
2.2737
  13
2.5006
  23
2.2737
  0
SOLID
  8
Top_Paste
  10
2.4298
  20
2.2393
  11
2.5006
  21
2.2393
  12
2.4298
  22
2.2237
  13
2.5006
  23
2.2237
  0
SOLID
  8
Top_Paste
  10
2.4298
  20
2.1893
  11
2.5006
  21
2.1893
  12
2.4298
  22
2.1737
  13
2.5006
  23
2.1737
  0
SOLID
  8
Top_Paste
  10
2.4298
  20
2.1393
  11
2.5006
  21
2.1393
  12
2.4298
  22
2.1237
  13
2.5006
  23
2.1237
  0
SOLID
  8
Top_Paste
  10
2.4298
  20
2.0893
  11
2.5006
  21
2.0893
  12
2.4298
  22
2.0737
  13
2.5006
  23
2.0737
  0
SOLID
  8
Top_Paste
  10
2.4298
  20
2.0393
  11
2.5006
  21
2.0393
  12
2.4298
  22
2.0237
  13
2.5006
  23
2.0237
  0
SOLID
  8
Top_Paste
  10
2.7999
  20
2.0393
  11
2.8707
  21
2.0393
  12
2.7999
  22
2.0237
  13
2.8707
  23
2.0237
  0
SOLID
  8
Top_Paste
  10
2.7999
  20
2.0893
  11
2.8707
  21
2.0893
  12
2.7999
  22
2.0737
  13
2.8707
  23
2.0737
  0
SOLID
  8
Top_Paste
  10
2.7999
  20
2.1393
  11
2.8707
  21
2.1393
  12
2.7999
  22
2.1237
  13
2.8707
  23
2.1237
  0
SOLID
  8
Top_Paste
  10
2.7999
  20
2.1893
  11
2.8707
  21
2.1893
  12
2.7999
  22
2.1737
  13
2.8707
  23
2.1737
  0
SOLID
  8
Top_Paste
  10
2.7999
  20
2.2393
  11
2.8707
  21
2.2393
  12
2.7999
  22
2.2237
  13
2.8707
  23
2.2237
  0
SOLID
  8
Top_Paste
  10
2.7999
  20
2.2893
  11
2.8707
  21
2.2893
  12
2.7999
  22
2.2737
  13
2.8707
  23
2.2737
  0
SOLID
  8
Top_Paste
  10
2.7999
  20
2.3393
  11
2.8707
  21
2.3393
  12
2.7999
  22
2.3237
  13
2.8707
  23
2.3237
  0
SOLID
  8
Top_Paste
  10
2.7999
  20
2.3893
  11
2.8707
  21
2.3893
  12
2.7999
  22
2.3737
  13
2.8707
  23
2.3737
  0
SOLID
  8
Top_Paste
  10
2.7999
  20
2.4393
  11
2.8707
  21
2.4393
  12
2.7999
  22
2.4237
  13
2.8707
  23
2.4237
  0
SOLID
  8
Top_Paste
  10
2.7999
  20
2.4893
  11
2.8707
  21
2.4893
  12
2.7999
  22
2.4737
  13
2.8707
  23
2.4737
  0
SOLID
  8
Top_Paste
  10
2.7999
  20
2.5393
  11
2.8707
  21
2.5393
  12
2.7999
  22
2.5237
  13
2.8707
  23
2.5237
  0
SOLID
  8
Top_Paste
  10
2.7999
  20
2.5893
  11
2.8707
  21
2.5893
  12
2.7999
  22
2.5737
  13
2.8707
  23
2.5737
  0
SOLID
  8
Top_Paste
  10
2.7999
  20
2.6393
  11
2.8707
  21
2.6393
  12
2.7999
  22
2.6237
  13
2.8707
  23
2.6237
  0
SOLID
  8
Top_Paste
  10
2.7999
  20
2.6893
  11
2.8707
  21
2.6893
  12
2.7999
  22
2.6737
  13
2.8707
  23
2.6737
  0
SOLID
  8
Top_Paste
  10
2.4318
  20
1.5197
  11
2.4612
  21
1.5197
  12
2.4318
  22
1.4431
  13
2.4612
  23
1.4431
  0
SOLID
  8
Top_Paste
  10
2.5223
  20
1.5197
  11
2.5517
  21
1.5197
  12
2.5223
  22
1.4431
  13
2.5517
  23
1.4431
  0
SOLID
  8
Top_Paste
  10
2.6129
  20
1.5197
  11
2.6423
  21
1.5197
  12
2.6129
  22
1.4431
  13
2.6423
  23
1.4431
  0
SOLID
  8
Top_Paste
  10
2.477
  20
1.7481
  11
2.597
  21
1.7481
  12
2.477
  22
1.6714
  13
2.597
  23
1.6714
  0
SOLID
  8
Top_Paste
  10
2.9486
  20
0.9964
  11
2.9819
  21
0.9964
  12
2.9486
  22
0.9788
  13
2.9819
  23
0.9788
  0
SOLID
  8
Top_Paste
  10
2.9486
  20
1.0712
  11
2.9819
  21
1.0712
  12
2.9486
  22
1.0536
  13
2.9819
  23
1.0536
  0
SOLID
  8
Top_Paste
  10
2.858
  20
1.0338
  11
2.8914
  21
1.0338
  12
2.858
  22
1.0162
  13
2.8914
  23
1.0162
  0
SOLID
  8
Top_Paste
  10
2.3499
  20
0.9069
  11
2.393
  21
0.9069
  12
2.3499
  22
0.8558
  13
2.393
  23
0.8558
  0
SOLID
  8
Top_Paste
  10
2.4247
  20
0.9069
  11
2.4678
  21
0.9069
  12
2.4247
  22
0.8558
  13
2.4678
  23
0.8558
  0
SOLID
  8
Top_Paste
  10
0.6187
  20
3.3545
  11
0.6363
  21
3.3545
  12
0.6187
  22
3.3212
  13
0.6363
  23
3.3212
  0
SOLID
  8
Top_Paste
  10
0.6935
  20
3.3545
  11
0.7111
  21
3.3545
  12
0.6935
  22
3.3212
  13
0.7111
  23
3.3212
  0
SOLID
  8
Top_Paste
  10
0.6561
  20
3.4451
  11
0.6737
  21
3.4451
  12
0.6561
  22
3.4117
  13
0.6737
  23
3.4117
  0
SOLID
  8
Top_Paste
  10
0.775
  20
3.4608
  11
0.7926
  21
3.4608
  12
0.775
  22
3.4274
  13
0.7926
  23
3.4274
  0
SOLID
  8
Top_Paste
  10
0.8498
  20
3.4608
  11
0.8674
  21
3.4608
  12
0.8498
  22
3.4274
  13
0.8674
  23
3.4274
  0
SOLID
  8
Top_Paste
  10
0.8124
  20
3.5513
  11
0.83
  21
3.5513
  12
0.8124
  22
3.518
  13
0.83
  23
3.518
  0
SOLID
  8
Top_Paste
  10
0.7684
  20
3.3509
  11
0.8116
  21
3.3509
  12
0.7684
  22
3.2998
  13
0.8116
  23
3.2998
  0
SOLID
  8
Top_Paste
  10
0.8432
  20
3.3509
  11
0.8864
  21
3.3509
  12
0.8432
  22
3.2998
  13
0.8864
  23
3.2998
  0
SOLID
  8
Top_Paste
  10
0.6395
  20
3.1532
  11
0.6905
  21
3.1532
  12
0.6395
  22
3.11
  13
0.6905
  23
3.11
  0
SOLID
  8
Top_Paste
  10
0.6395
  20
3.228
  11
0.6905
  21
3.228
  12
0.6395
  22
3.1848
  13
0.6905
  23
3.1848
  0
SOLID
  8
Top_Paste
  10
0.552
  20
3.1532
  11
0.603
  21
3.1532
  12
0.552
  22
3.11
  13
0.603
  23
3.11
  0
SOLID
  8
Top_Paste
  10
0.552
  20
3.228
  11
0.603
  21
3.228
  12
0.552
  22
3.1848
  13
0.603
  23
3.1848
  0
SOLID
  8
Top_Paste
  10
0.6184
  20
3.5321
  11
0.6616
  21
3.5321
  12
0.6184
  22
3.4811
  13
0.6616
  23
3.4811
  0
SOLID
  8
Top_Paste
  10
0.6932
  20
3.5321
  11
0.7364
  21
3.5321
  12
0.6932
  22
3.4811
  13
0.7364
  23
3.4811
  0
SOLID
  8
Top_Paste
  10
0.7207
  20
3.1532
  11
0.7718
  21
3.1532
  12
0.7207
  22
3.11
  13
0.7718
  23
3.11
  0
SOLID
  8
Top_Paste
  10
0.7207
  20
3.228
  11
0.7718
  21
3.228
  12
0.7207
  22
3.1848
  13
0.7718
  23
3.1848
  0
SOLID
  8
Top_Paste
  10
0.8083
  20
3.1532
  11
0.8593
  21
3.1532
  12
0.8083
  22
3.11
  13
0.8593
  23
3.11
  0
SOLID
  8
Top_Paste
  10
0.8083
  20
3.228
  11
0.8593
  21
3.228
  12
0.8083
  22
3.1848
  13
0.8593
  23
3.1848
  0
SOLID
  8
Top_Paste
  10
0.9875
  20
3.3545
  11
1.0051
  21
3.3545
  12
0.9875
  22
3.3212
  13
1.0051
  23
3.3212
  0
SOLID
  8
Top_Paste
  10
1.0623
  20
3.3545
  11
1.0799
  21
3.3545
  12
1.0623
  22
3.3212
  13
1.0799
  23
3.3212
  0
SOLID
  8
Top_Paste
  10
1.0249
  20
3.4451
  11
1.0425
  21
3.4451
  12
1.0249
  22
3.4117
  13
1.0425
  23
3.4117
  0
SOLID
  8
Top_Paste
  10
1.1313
  20
3.4608
  11
1.1489
  21
3.4608
  12
1.1313
  22
3.4274
  13
1.1489
  23
3.4274
  0
SOLID
  8
Top_Paste
  10
1.2061
  20
3.4608
  11
1.2237
  21
3.4608
  12
1.2061
  22
3.4274
  13
1.2237
  23
3.4274
  0
SOLID
  8
Top_Paste
  10
1.1687
  20
3.5513
  11
1.1863
  21
3.5513
  12
1.1687
  22
3.518
  13
1.1863
  23
3.518
  0
SOLID
  8
Top_Paste
  10
1.1247
  20
3.3509
  11
1.1679
  21
3.3509
  12
1.1247
  22
3.2998
  13
1.1679
  23
3.2998
  0
SOLID
  8
Top_Paste
  10
1.1995
  20
3.3509
  11
1.2427
  21
3.3509
  12
1.1995
  22
3.2998
  13
1.2427
  23
3.2998
  0
SOLID
  8
Top_Paste
  10
1.0083
  20
3.1532
  11
1.0593
  21
3.1532
  12
1.0083
  22
3.11
  13
1.0593
  23
3.11
  0
SOLID
  8
Top_Paste
  10
1.0083
  20
3.228
  11
1.0593
  21
3.228
  12
1.0083
  22
3.1848
  13
1.0593
  23
3.1848
  0
SOLID
  8
Top_Paste
  10
0.9208
  20
3.1532
  11
0.9718
  21
3.1532
  12
0.9208
  22
3.11
  13
0.9718
  23
3.11
  0
SOLID
  8
Top_Paste
  10
0.9208
  20
3.228
  11
0.9718
  21
3.228
  12
0.9208
  22
3.1848
  13
0.9718
  23
3.1848
  0
SOLID
  8
Top_Paste
  10
0.981
  20
3.5321
  11
1.0241
  21
3.5321
  12
0.981
  22
3.4811
  13
1.0241
  23
3.4811
  0
SOLID
  8
Top_Paste
  10
1.0558
  20
3.5321
  11
1.0989
  21
3.5321
  12
1.0558
  22
3.4811
  13
1.0989
  23
3.4811
  0
SOLID
  8
Top_Paste
  10
1.0958
  20
3.1532
  11
1.1468
  21
3.1532
  12
1.0958
  22
3.11
  13
1.1468
  23
3.11
  0
SOLID
  8
Top_Paste
  10
1.0958
  20
3.228
  11
1.1468
  21
3.228
  12
1.0958
  22
3.1848
  13
1.1468
  23
3.1848
  0
SOLID
  8
Top_Paste
  10
1.1833
  20
3.1532
  11
1.2344
  21
3.1532
  12
1.1833
  22
3.11
  13
1.2344
  23
3.11
  0
SOLID
  8
Top_Paste
  10
1.1833
  20
3.228
  11
1.2344
  21
3.228
  12
1.1833
  22
3.1848
  13
1.2344
  23
3.1848
  0
SOLID
  8
Top_Paste
  10
1.3375
  20
3.3545
  11
1.3551
  21
3.3545
  12
1.3375
  22
3.3212
  13
1.3551
  23
3.3212
  0
SOLID
  8
Top_Paste
  10
1.4123
  20
3.3545
  11
1.4299
  21
3.3545
  12
1.4123
  22
3.3212
  13
1.4299
  23
3.3212
  0
SOLID
  8
Top_Paste
  10
1.3749
  20
3.4451
  11
1.3925
  21
3.4451
  12
1.3749
  22
3.4117
  13
1.3925
  23
3.4117
  0
SOLID
  8
Top_Paste
  10
1.4876
  20
3.4608
  11
1.5051
  21
3.4608
  12
1.4876
  22
3.4274
  13
1.5051
  23
3.4274
  0
SOLID
  8
Top_Paste
  10
1.5624
  20
3.4608
  11
1.58
  21
3.4608
  12
1.5624
  22
3.4274
  13
1.58
  23
3.4274
  0
SOLID
  8
Top_Paste
  10
1.525
  20
3.5513
  11
1.5425
  21
3.5513
  12
1.525
  22
3.518
  13
1.5425
  23
3.518
  0
SOLID
  8
Top_Paste
  10
1.481
  20
3.3509
  11
1.5242
  21
3.3509
  12
1.481
  22
3.2998
  13
1.5242
  23
3.2998
  0
SOLID
  8
Top_Paste
  10
1.5558
  20
3.3509
  11
1.599
  21
3.3509
  12
1.5558
  22
3.2998
  13
1.599
  23
3.2998
  0
SOLID
  8
Top_Paste
  10
1.3646
  20
3.1532
  11
1.4156
  21
3.1532
  12
1.3646
  22
3.11
  13
1.4156
  23
3.11
  0
SOLID
  8
Top_Paste
  10
1.3646
  20
3.228
  11
1.4156
  21
3.228
  12
1.3646
  22
3.1848
  13
1.4156
  23
3.1848
  0
SOLID
  8
Top_Paste
  10
1.2833
  20
3.1532
  11
1.3344
  21
3.1532
  12
1.2833
  22
3.11
  13
1.3344
  23
3.11
  0
SOLID
  8
Top_Paste
  10
1.2833
  20
3.228
  11
1.3344
  21
3.228
  12
1.2833
  22
3.1848
  13
1.3344
  23
3.1848
  0
SOLID
  8
Top_Paste
  10
1.3372
  20
3.5321
  11
1.3804
  21
3.5321
  12
1.3372
  22
3.4811
  13
1.3804
  23
3.4811
  0
SOLID
  8
Top_Paste
  10
1.4121
  20
3.5321
  11
1.4552
  21
3.5321
  12
1.4121
  22
3.4811
  13
1.4552
  23
3.4811
  0
SOLID
  8
Top_Paste
  10
1.4521
  20
3.1532
  11
1.5031
  21
3.1532
  12
1.4521
  22
3.11
  13
1.5031
  23
3.11
  0
SOLID
  8
Top_Paste
  10
1.4521
  20
3.228
  11
1.5031
  21
3.228
  12
1.4521
  22
3.1848
  13
1.5031
  23
3.1848
  0
SOLID
  8
Top_Paste
  10
1.5396
  20
3.1532
  11
1.5906
  21
3.1532
  12
1.5396
  22
3.11
  13
1.5906
  23
3.11
  0
SOLID
  8
Top_Paste
  10
1.5396
  20
3.228
  11
1.5906
  21
3.228
  12
1.5396
  22
3.1848
  13
1.5906
  23
3.1848
  0
SOLID
  8
Top_Paste
  10
1.6938
  20
3.3545
  11
1.7114
  21
3.3545
  12
1.6938
  22
3.3212
  13
1.7114
  23
3.3212
  0
SOLID
  8
Top_Paste
  10
1.7686
  20
3.3545
  11
1.7862
  21
3.3545
  12
1.7686
  22
3.3212
  13
1.7862
  23
3.3212
  0
SOLID
  8
Top_Paste
  10
1.7312
  20
3.4451
  11
1.7488
  21
3.4451
  12
1.7312
  22
3.4117
  13
1.7488
  23
3.4117
  0
SOLID
  8
Top_Paste
  10
1.8438
  20
3.4608
  11
1.8614
  21
3.4608
  12
1.8438
  22
3.4274
  13
1.8614
  23
3.4274
  0
SOLID
  8
Top_Paste
  10
1.9186
  20
3.4608
  11
1.9362
  21
3.4608
  12
1.9186
  22
3.4274
  13
1.9362
  23
3.4274
  0
SOLID
  8
Top_Paste
  10
1.8812
  20
3.5513
  11
1.8988
  21
3.5513
  12
1.8812
  22
3.518
  13
1.8988
  23
3.518
  0
SOLID
  8
Top_Paste
  10
1.8373
  20
3.3509
  11
1.8805
  21
3.3509
  12
1.8373
  22
3.2998
  13
1.8805
  23
3.2998
  0
SOLID
  8
Top_Paste
  10
1.9121
  20
3.3509
  11
1.9553
  21
3.3509
  12
1.9121
  22
3.2998
  13
1.9553
  23
3.2998
  0
SOLID
  8
Top_Paste
  10
1.7209
  20
3.1532
  11
1.7719
  21
3.1532
  12
1.7209
  22
3.11
  13
1.7719
  23
3.11
  0
SOLID
  8
Top_Paste
  10
1.7209
  20
3.228
  11
1.7719
  21
3.228
  12
1.7209
  22
3.1848
  13
1.7719
  23
3.1848
  0
SOLID
  8
Top_Paste
  10
1.6396
  20
3.1532
  11
1.6906
  21
3.1532
  12
1.6396
  22
3.11
  13
1.6906
  23
3.11
  0
SOLID
  8
Top_Paste
  10
1.6396
  20
3.228
  11
1.6906
  21
3.228
  12
1.6396
  22
3.1848
  13
1.6906
  23
3.1848
  0
SOLID
  8
Top_Paste
  10
1.6935
  20
3.5321
  11
1.7367
  21
3.5321
  12
1.6935
  22
3.4811
  13
1.7367
  23
3.4811
  0
SOLID
  8
Top_Paste
  10
1.7683
  20
3.5321
  11
1.8115
  21
3.5321
  12
1.7683
  22
3.4811
  13
1.8115
  23
3.4811
  0
SOLID
  8
Top_Paste
  10
1.8021
  20
3.1532
  11
1.8532
  21
3.1532
  12
1.8021
  22
3.11
  13
1.8532
  23
3.11
  0
SOLID
  8
Top_Paste
  10
1.8021
  20
3.228
  11
1.8532
  21
3.228
  12
1.8021
  22
3.1848
  13
1.8532
  23
3.1848
  0
SOLID
  8
Top_Paste
  10
1.8834
  20
3.1532
  11
1.9344
  21
3.1532
  12
1.8834
  22
3.11
  13
1.9344
  23
3.11
  0
SOLID
  8
Top_Paste
  10
1.8834
  20
3.228
  11
1.9344
  21
3.228
  12
1.8834
  22
3.1848
  13
1.9344
  23
3.1848
  0
SOLID
  8
Top_Paste
  10
2.0501
  20
3.3545
  11
2.0677
  21
3.3545
  12
2.0501
  22
3.3212
  13
2.0677
  23
3.3212
  0
SOLID
  8
Top_Paste
  10
2.1249
  20
3.3545
  11
2.1425
  21
3.3545
  12
2.1249
  22
3.3212
  13
2.1425
  23
3.3212
  0
SOLID
  8
Top_Paste
  10
2.0875
  20
3.4451
  11
2.1051
  21
3.4451
  12
2.0875
  22
3.4117
  13
2.1051
  23
3.4117
  0
SOLID
  8
Top_Paste
  10
2.2001
  20
3.4608
  11
2.2177
  21
3.4608
  12
2.2001
  22
3.4274
  13
2.2177
  23
3.4274
  0
SOLID
  8
Top_Paste
  10
2.2749
  20
3.4608
  11
2.2925
  21
3.4608
  12
2.2749
  22
3.4274
  13
2.2925
  23
3.4274
  0
SOLID
  8
Top_Paste
  10
2.2375
  20
3.5513
  11
2.2551
  21
3.5513
  12
2.2375
  22
3.518
  13
2.2551
  23
3.518
  0
SOLID
  8
Top_Paste
  10
2.1936
  20
3.3509
  11
2.2368
  21
3.3509
  12
2.1936
  22
3.2998
  13
2.2368
  23
3.2998
  0
SOLID
  8
Top_Paste
  10
2.2684
  20
3.3509
  11
2.3116
  21
3.3509
  12
2.2684
  22
3.2998
  13
2.3116
  23
3.2998
  0
SOLID
  8
Top_Paste
  10
2.0709
  20
3.1532
  11
2.1219
  21
3.1532
  12
2.0709
  22
3.11
  13
2.1219
  23
3.11
  0
SOLID
  8
Top_Paste
  10
2.0709
  20
3.228
  11
2.1219
  21
3.228
  12
2.0709
  22
3.1848
  13
2.1219
  23
3.1848
  0
SOLID
  8
Top_Paste
  10
1.9896
  20
3.1532
  11
2.0407
  21
3.1532
  12
1.9896
  22
3.11
  13
2.0407
  23
3.11
  0
SOLID
  8
Top_Paste
  10
1.9896
  20
3.228
  11
2.0407
  21
3.228
  12
1.9896
  22
3.1848
  13
2.0407
  23
3.1848
  0
SOLID
  8
Top_Paste
  10
2.0498
  20
3.5321
  11
2.093
  21
3.5321
  12
2.0498
  22
3.4811
  13
2.093
  23
3.4811
  0
SOLID
  8
Top_Paste
  10
2.1246
  20
3.5321
  11
2.1678
  21
3.5321
  12
2.1246
  22
3.4811
  13
2.1678
  23
3.4811
  0
SOLID
  8
Top_Paste
  10
2.1584
  20
3.1532
  11
2.2095
  21
3.1532
  12
2.1584
  22
3.11
  13
2.2095
  23
3.11
  0
SOLID
  8
Top_Paste
  10
2.1584
  20
3.228
  11
2.2095
  21
3.228
  12
2.1584
  22
3.1848
  13
2.2095
  23
3.1848
  0
SOLID
  8
Top_Paste
  10
2.2459
  20
3.1532
  11
2.297
  21
3.1532
  12
2.2459
  22
3.11
  13
2.297
  23
3.11
  0
SOLID
  8
Top_Paste
  10
2.2459
  20
3.228
  11
2.297
  21
3.228
  12
2.2459
  22
3.1848
  13
2.297
  23
3.1848
  0
SOLID
  8
Top_Paste
  10
2.4064
  20
3.3545
  11
2.424
  21
3.3545
  12
2.4064
  22
3.3212
  13
2.424
  23
3.3212
  0
SOLID
  8
Top_Paste
  10
2.4812
  20
3.3545
  11
2.4988
  21
3.3545
  12
2.4812
  22
3.3212
  13
2.4988
  23
3.3212
  0
SOLID
  8
Top_Paste
  10
2.4438
  20
3.4451
  11
2.4614
  21
3.4451
  12
2.4438
  22
3.4117
  13
2.4614
  23
3.4117
  0
SOLID
  8
Top_Paste
  10
2.5564
  20
3.4608
  11
2.574
  21
3.4608
  12
2.5564
  22
3.4274
  13
2.574
  23
3.4274
  0
SOLID
  8
Top_Paste
  10
2.6312
  20
3.4608
  11
2.6488
  21
3.4608
  12
2.6312
  22
3.4274
  13
2.6488
  23
3.4274
  0
SOLID
  8
Top_Paste
  10
2.5938
  20
3.5513
  11
2.6114
  21
3.5513
  12
2.5938
  22
3.518
  13
2.6114
  23
3.518
  0
SOLID
  8
Top_Paste
  10
2.5499
  20
3.3509
  11
2.5931
  21
3.3509
  12
2.5499
  22
3.2998
  13
2.5931
  23
3.2998
  0
SOLID
  8
Top_Paste
  10
2.6247
  20
3.3509
  11
2.6679
  21
3.3509
  12
2.6247
  22
3.2998
  13
2.6679
  23
3.2998
  0
SOLID
  8
Top_Paste
  10
2.4397
  20
3.1532
  11
2.4907
  21
3.1532
  12
2.4397
  22
3.11
  13
2.4907
  23
3.11
  0
SOLID
  8
Top_Paste
  10
2.4397
  20
3.228
  11
2.4907
  21
3.228
  12
2.4397
  22
3.1848
  13
2.4907
  23
3.1848
  0
SOLID
  8
Top_Paste
  10
2.3522
  20
3.1532
  11
2.4032
  21
3.1532
  12
2.3522
  22
3.11
  13
2.4032
  23
3.11
  0
SOLID
  8
Top_Paste
  10
2.3522
  20
3.228
  11
2.4032
  21
3.228
  12
2.3522
  22
3.1848
  13
2.4032
  23
3.1848
  0
SOLID
  8
Top_Paste
  10
2.4061
  20
3.5321
  11
2.4493
  21
3.5321
  12
2.4061
  22
3.4811
  13
2.4493
  23
3.4811
  0
SOLID
  8
Top_Paste
  10
2.4809
  20
3.5321
  11
2.5241
  21
3.5321
  12
2.4809
  22
3.4811
  13
2.5241
  23
3.4811
  0
SOLID
  8
Top_Paste
  10
2.5272
  20
3.1532
  11
2.5782
  21
3.1532
  12
2.5272
  22
3.11
  13
2.5782
  23
3.11
  0
SOLID
  8
Top_Paste
  10
2.5272
  20
3.228
  11
2.5782
  21
3.228
  12
2.5272
  22
3.1848
  13
2.5782
  23
3.1848
  0
SOLID
  8
Top_Paste
  10
2.6147
  20
3.1532
  11
2.6658
  21
3.1532
  12
2.6147
  22
3.11
  13
2.6658
  23
3.11
  0
SOLID
  8
Top_Paste
  10
2.6147
  20
3.228
  11
2.6658
  21
3.228
  12
2.6147
  22
3.1848
  13
2.6658
  23
3.1848
  0
SOLID
  8
Top_Paste
  10
2.7627
  20
3.3545
  11
2.7803
  21
3.3545
  12
2.7627
  22
3.3212
  13
2.7803
  23
3.3212
  0
SOLID
  8
Top_Paste
  10
2.8375
  20
3.3545
  11
2.8551
  21
3.3545
  12
2.8375
  22
3.3212
  13
2.8551
  23
3.3212
  0
SOLID
  8
Top_Paste
  10
2.8001
  20
3.4451
  11
2.8177
  21
3.4451
  12
2.8001
  22
3.4117
  13
2.8177
  23
3.4117
  0
SOLID
  8
Top_Paste
  10
2.9127
  20
3.4608
  11
2.9303
  21
3.4608
  12
2.9127
  22
3.4274
  13
2.9303
  23
3.4274
  0
SOLID
  8
Top_Paste
  10
2.9875
  20
3.4608
  11
3.0051
  21
3.4608
  12
2.9875
  22
3.4274
  13
3.0051
  23
3.4274
  0
SOLID
  8
Top_Paste
  10
2.9501
  20
3.5513
  11
2.9677
  21
3.5513
  12
2.9501
  22
3.518
  13
2.9677
  23
3.518
  0
SOLID
  8
Top_Paste
  10
2.9062
  20
3.3509
  11
2.9493
  21
3.3509
  12
2.9062
  22
3.2998
  13
2.9493
  23
3.2998
  0
SOLID
  8
Top_Paste
  10
2.981
  20
3.3509
  11
3.0241
  21
3.3509
  12
2.981
  22
3.2998
  13
3.0241
  23
3.2998
  0
SOLID
  8
Top_Paste
  10
2.796
  20
3.1532
  11
2.847
  21
3.1532
  12
2.796
  22
3.11
  13
2.847
  23
3.11
  0
SOLID
  8
Top_Paste
  10
2.796
  20
3.228
  11
2.847
  21
3.228
  12
2.796
  22
3.1848
  13
2.847
  23
3.1848
  0
SOLID
  8
Top_Paste
  10
2.7085
  20
3.1532
  11
2.7595
  21
3.1532
  12
2.7085
  22
3.11
  13
2.7595
  23
3.11
  0
SOLID
  8
Top_Paste
  10
2.7085
  20
3.228
  11
2.7595
  21
3.228
  12
2.7085
  22
3.1848
  13
2.7595
  23
3.1848
  0
SOLID
  8
Top_Paste
  10
2.7624
  20
3.5321
  11
2.8056
  21
3.5321
  12
2.7624
  22
3.4811
  13
2.8056
  23
3.4811
  0
SOLID
  8
Top_Paste
  10
2.8372
  20
3.5321
  11
2.8804
  21
3.5321
  12
2.8372
  22
3.4811
  13
2.8804
  23
3.4811
  0
SOLID
  8
Top_Paste
  10
2.8772
  20
3.1532
  11
2.9283
  21
3.1532
  12
2.8772
  22
3.11
  13
2.9283
  23
3.11
  0
SOLID
  8
Top_Paste
  10
2.8772
  20
3.228
  11
2.9283
  21
3.228
  12
2.8772
  22
3.1848
  13
2.9283
  23
3.1848
  0
SOLID
  8
Top_Paste
  10
2.9647
  20
3.1532
  11
3.0158
  21
3.1532
  12
2.9647
  22
3.11
  13
3.0158
  23
3.11
  0
SOLID
  8
Top_Paste
  10
2.9647
  20
3.228
  11
3.0158
  21
3.228
  12
2.9647
  22
3.1848
  13
3.0158
  23
3.1848
  0
SOLID
  8
Top_Paste
  10
3.119
  20
3.3545
  11
3.1366
  21
3.3545
  12
3.119
  22
3.3212
  13
3.1366
  23
3.3212
  0
SOLID
  8
Top_Paste
  10
3.1938
  20
3.3545
  11
3.2114
  21
3.3545
  12
3.1938
  22
3.3212
  13
3.2114
  23
3.3212
  0
SOLID
  8
Top_Paste
  10
3.1564
  20
3.4451
  11
3.174
  21
3.4451
  12
3.1564
  22
3.4117
  13
3.174
  23
3.4117
  0
SOLID
  8
Top_Paste
  10
3.269
  20
3.4608
  11
3.2866
  21
3.4608
  12
3.269
  22
3.4274
  13
3.2866
  23
3.4274
  0
SOLID
  8
Top_Paste
  10
3.3438
  20
3.4608
  11
3.3614
  21
3.4608
  12
3.3438
  22
3.4274
  13
3.3614
  23
3.4274
  0
SOLID
  8
Top_Paste
  10
3.3064
  20
3.5513
  11
3.324
  21
3.5513
  12
3.3064
  22
3.518
  13
3.324
  23
3.518
  0
SOLID
  8
Top_Paste
  10
3.2625
  20
3.3509
  11
3.3056
  21
3.3509
  12
3.2625
  22
3.2998
  13
3.3056
  23
3.2998
  0
SOLID
  8
Top_Paste
  10
3.3373
  20
3.3509
  11
3.3804
  21
3.3509
  12
3.3373
  22
3.2998
  13
3.3804
  23
3.2998
  0
SOLID
  8
Top_Paste
  10
3.1398
  20
3.1532
  11
3.1908
  21
3.1532
  12
3.1398
  22
3.11
  13
3.1908
  23
3.11
  0
SOLID
  8
Top_Paste
  10
3.1398
  20
3.228
  11
3.1908
  21
3.228
  12
3.1398
  22
3.1848
  13
3.1908
  23
3.1848
  0
SOLID
  8
Top_Paste
  10
3.0522
  20
3.1532
  11
3.1033
  21
3.1532
  12
3.0522
  22
3.11
  13
3.1033
  23
3.11
  0
SOLID
  8
Top_Paste
  10
3.0522
  20
3.228
  11
3.1033
  21
3.228
  12
3.0522
  22
3.1848
  13
3.1033
  23
3.1848
  0
SOLID
  8
Top_Paste
  10
3.1187
  20
3.5321
  11
3.1619
  21
3.5321
  12
3.1187
  22
3.4811
  13
3.1619
  23
3.4811
  0
SOLID
  8
Top_Paste
  10
3.1935
  20
3.5321
  11
3.2367
  21
3.5321
  12
3.1935
  22
3.4811
  13
3.2367
  23
3.4811
  0
SOLID
  8
Top_Paste
  10
3.2335
  20
3.1532
  11
3.2846
  21
3.1532
  12
3.2335
  22
3.11
  13
3.2846
  23
3.11
  0
SOLID
  8
Top_Paste
  10
3.2335
  20
3.228
  11
3.2846
  21
3.228
  12
3.2335
  22
3.1848
  13
3.2846
  23
3.1848
  0
SOLID
  8
Top_Paste
  10
3.321
  20
3.1532
  11
3.3721
  21
3.1532
  12
3.321
  22
3.11
  13
3.3721
  23
3.11
  0
SOLID
  8
Top_Paste
  10
3.321
  20
3.228
  11
3.3721
  21
3.228
  12
3.321
  22
3.1848
  13
3.3721
  23
3.1848
  0
ENDSEC
  0
EOF
