  0
SECTION
  2
HEADER
  9
$ACADVER
  1
AC1009
  9
$ANGDIR
  70
0
  9
$CECOLOR
  62
256
  9
$CELTYPE
  6
BYLAYER
  9
$EXTMIN
  10
0.0
  20
0.0
  9
$EXTMAX
  10
50.0
  20
75.0
  9
$FILLMODE
  70
1
  9
$MIRRTEXT
  70
0
  0
ENDSEC
  0
SECTION
  2
TABLES
  0
TABLE
  2
LAYER
  70
17
  0
LAYER
  2
Top_Paste
  70
64
  62
4
  6
CONTINUOUS
  0
ENDTAB
  0
ENDSEC
  0
SECTION
  2
ENTITIES
  0
SOLID
  8
Top_Paste
  10
25.1806
  20
23.6676
  11
26.5774
  21
23.6676
  12
25.1806
  22
20.7208
  13
26.5774
  23
20.7208
  0
SOLID
  8
Top_Paste
  10
25.1806
  20
18.7676
  11
26.5774
  21
18.7676
  12
25.1806
  22
15.8208
  13
26.5774
  23
15.8208
  0
SOLID
  8
Top_Paste
  10
33.3265
  20
11.7877
  11
34.6233
  21
11.7877
  12
33.3265
  22
10.6909
  13
34.6233
  23
10.6909
  0
SOLID
  8
Top_Paste
  10
33.3265
  20
9.8877
  11
34.6233
  21
9.8877
  12
33.3265
  22
8.7909
  13
34.6233
  23
8.7909
  0
SOLID
  8
Top_Paste
  10
35.7068
  20
11.7877
  11
37.0036
  21
11.7877
  12
35.7068
  22
10.6909
  13
37.0036
  23
10.6909
  0
SOLID
  8
Top_Paste
  10
35.7068
  20
9.8877
  11
37.0036
  21
9.8877
  12
35.7068
  22
8.7909
  13
37.0036
  23
8.7909
  0
SOLID
  8
Top_Paste
  10
30.9462
  20
11.7877
  11
32.243
  21
11.7877
  12
30.9462
  22
10.6909
  13
32.243
  23
10.6909
  0
SOLID
  8
Top_Paste
  10
30.9462
  20
9.8877
  11
32.243
  21
9.8877
  12
30.9462
  22
8.7909
  13
32.243
  23
8.7909
  0
SOLID
  8
Top_Paste
  10
21.6789
  20
37.4491
  11
22.7757
  21
37.4491
  12
21.6789
  22
36.1523
  13
22.7757
  23
36.1523
  0
SOLID
  8
Top_Paste
  10
23.5789
  20
37.4491
  11
24.6757
  21
37.4491
  12
23.5789
  22
36.1523
  13
24.6757
  23
36.1523
  0
SOLID
  8
Top_Paste
  10
35.4964
  20
16.3332
  11
36.5932
  21
16.3332
  12
35.4964
  22
15.0364
  13
36.5932
  23
15.0364
  0
SOLID
  8
Top_Paste
  10
37.3964
  20
16.3332
  11
38.4932
  21
16.3332
  12
37.3964
  22
15.0364
  13
38.4932
  23
15.0364
  0
SOLID
  8
Top_Paste
  10
13.1844
  20
41.4683
  11
16.9812
  21
41.4683
  12
13.1844
  22
40.0715
  13
16.9812
  23
40.0715
  0
SOLID
  8
Top_Paste
  10
13.1844
  20
43.4683
  11
16.9812
  21
43.4683
  12
13.1844
  22
42.0715
  13
16.9812
  23
42.0715
  0
SOLID
  8
Top_Paste
  10
13.1844
  20
45.4683
  11
16.9812
  21
45.4683
  12
13.1844
  22
44.0715
  13
16.9812
  23
44.0715
  0
SOLID
  8
Top_Paste
  10
13.1844
  20
47.4683
  11
16.9812
  21
47.4683
  12
13.1844
  22
46.0715
  13
16.9812
  23
46.0715
  0
SOLID
  8
Top_Paste
  10
13.1844
  20
49.4683
  11
16.9812
  21
49.4683
  12
13.1844
  22
48.0715
  13
16.9812
  23
48.0715
  0
SOLID
  8
Top_Paste
  10
13.1844
  20
51.4683
  11
16.9812
  21
51.4683
  12
13.1844
  22
50.0715
  13
16.9812
  23
50.0715
  0
SOLID
  8
Top_Paste
  10
13.1844
  20
53.4683
  11
16.9812
  21
53.4683
  12
13.1844
  22
52.0715
  13
16.9812
  23
52.0715
  0
SOLID
  8
Top_Paste
  10
13.1844
  20
55.4683
  11
16.9812
  21
55.4683
  12
13.1844
  22
54.0715
  13
16.9812
  23
54.0715
  0
SOLID
  8
Top_Paste
  10
29.1844
  20
41.4683
  11
32.9812
  21
41.4683
  12
29.1844
  22
40.0715
  13
32.9812
  23
40.0715
  0
SOLID
  8
Top_Paste
  10
29.1844
  20
43.4683
  11
32.9812
  21
43.4683
  12
29.1844
  22
42.0715
  13
32.9812
  23
42.0715
  0
SOLID
  8
Top_Paste
  10
29.1844
  20
45.4683
  11
32.9812
  21
45.4683
  12
29.1844
  22
44.0715
  13
32.9812
  23
44.0715
  0
SOLID
  8
Top_Paste
  10
29.1844
  20
47.4683
  11
32.9812
  21
47.4683
  12
29.1844
  22
46.0715
  13
32.9812
  23
46.0715
  0
SOLID
  8
Top_Paste
  10
29.1844
  20
49.4683
  11
32.9812
  21
49.4683
  12
29.1844
  22
48.0715
  13
32.9812
  23
48.0715
  0
SOLID
  8
Top_Paste
  10
29.1844
  20
51.4683
  11
32.9812
  21
51.4683
  12
29.1844
  22
50.0715
  13
32.9812
  23
50.0715
  0
SOLID
  8
Top_Paste
  10
29.1844
  20
53.4683
  11
32.9812
  21
53.4683
  12
29.1844
  22
52.0715
  13
32.9812
  23
52.0715
  0
SOLID
  8
Top_Paste
  10
29.1844
  20
55.4683
  11
32.9812
  21
55.4683
  12
29.1844
  22
54.0715
  13
32.9812
  23
54.0715
  0
SOLID
  8
Top_Paste
  10
12.2432
  20
22.8884
  11
15.44
  21
22.8884
  12
12.2432
  22
21.4916
  13
15.44
  23
21.4916
  0
SOLID
  8
Top_Paste
  10
12.2432
  20
18.7884
  11
15.44
  21
18.7884
  12
12.2432
  22
17.3916
  13
15.44
  23
17.3916
  0
SOLID
  8
Top_Paste
  10
38.9696
  20
39.4631
  11
41.3664
  21
39.4631
  12
38.9696
  22
38.2663
  13
41.3664
  23
38.2663
  0
SOLID
  8
Top_Paste
  10
38.9696
  20
35.8631
  11
41.3664
  21
35.8631
  12
38.9696
  22
34.6663
  13
41.3664
  23
34.6663
  0
SOLID
  8
Top_Paste
  10
44.9696
  20
35.8631
  11
47.3664
  21
35.8631
  12
44.9696
  22
34.6663
  13
47.3664
  23
34.6663
  0
SOLID
  8
Top_Paste
  10
44.9696
  20
39.4631
  11
47.3664
  21
39.4631
  12
44.9696
  22
38.2663
  13
47.3664
  23
38.2663
  0
SOLID
  8
Top_Paste
  10
32.9514
  20
16.3332
  11
34.0482
  21
16.3332
  12
32.9514
  22
15.0364
  13
34.0482
  23
15.0364
  0
SOLID
  8
Top_Paste
  10
31.0514
  20
16.3332
  11
32.1482
  21
16.3332
  12
31.0514
  22
15.0364
  13
32.1482
  23
15.0364
  0
SOLID
  8
Top_Paste
  10
10.4065
  20
53.0083
  11
11.5033
  21
53.0083
  12
10.4065
  22
51.7115
  13
11.5033
  23
51.7115
  0
SOLID
  8
Top_Paste
  10
8.5065
  20
53.0083
  11
9.6033
  21
53.0083
  12
8.5065
  22
51.7115
  13
9.6033
  23
51.7115
  0
SOLID
  8
Top_Paste
  10
31.3637
  20
37.4491
  11
32.4605
  21
37.4491
  12
31.3637
  22
36.1523
  13
32.4605
  23
36.1523
  0
SOLID
  8
Top_Paste
  10
29.4637
  20
37.4491
  11
30.5605
  21
37.4491
  12
29.4637
  22
36.1523
  13
30.5605
  23
36.1523
  0
SOLID
  8
Top_Paste
  10
38.5082
  20
43.006
  11
39.605
  21
43.006
  12
38.5082
  22
41.7092
  13
39.605
  23
41.7092
  0
SOLID
  8
Top_Paste
  10
36.6082
  20
43.006
  11
37.705
  21
43.006
  12
36.6082
  22
41.7092
  13
37.705
  23
41.7092
  0
SOLID
  8
Top_Paste
  10
36.503
  20
39.4131
  11
37.7998
  21
39.4131
  12
36.503
  22
38.3163
  13
37.7998
  23
38.3163
  0
SOLID
  8
Top_Paste
  10
36.503
  20
37.5131
  11
37.7998
  21
37.5131
  12
36.503
  22
36.4163
  13
37.7998
  23
36.4163
  0
SOLID
  8
Top_Paste
  10
36.503
  20
48.4628
  11
37.7998
  21
48.4628
  12
36.503
  22
47.366
  13
37.7998
  23
47.366
  0
SOLID
  8
Top_Paste
  10
36.503
  20
46.5628
  11
37.7998
  21
46.5628
  12
36.503
  22
45.466
  13
37.7998
  23
45.466
  0
SOLID
  8
Top_Paste
  10
38.9696
  20
48.5128
  11
41.3664
  21
48.5128
  12
38.9696
  22
47.316
  13
41.3664
  23
47.316
  0
SOLID
  8
Top_Paste
  10
38.9696
  20
44.9128
  11
41.3664
  21
44.9128
  12
38.9696
  22
43.716
  13
41.3664
  23
43.716
  0
SOLID
  8
Top_Paste
  10
44.9696
  20
44.9128
  11
47.3664
  21
44.9128
  12
44.9696
  22
43.716
  13
47.3664
  23
43.716
  0
SOLID
  8
Top_Paste
  10
44.9696
  20
48.5128
  11
47.3664
  21
48.5128
  12
44.9696
  22
47.316
  13
47.3664
  23
47.316
  0
SOLID
  8
Top_Paste
  10
31.49
  20
23.0277
  11
33.2868
  21
23.0277
  12
31.49
  22
22.6309
  13
33.2868
  23
22.6309
  0
SOLID
  8
Top_Paste
  10
31.49
  20
21.7577
  11
33.2868
  21
21.7577
  12
31.49
  22
21.3609
  13
33.2868
  23
21.3609
  0
SOLID
  8
Top_Paste
  10
31.49
  20
20.4877
  11
33.2868
  21
20.4877
  12
31.49
  22
20.0909
  13
33.2868
  23
20.0909
  0
SOLID
  8
Top_Paste
  10
31.49
  20
19.2177
  11
33.2868
  21
19.2177
  12
31.49
  22
18.8209
  13
33.2868
  23
18.8209
  0
SOLID
  8
Top_Paste
  10
31.49
  20
17.9477
  11
33.2868
  21
17.9477
  12
31.49
  22
17.5509
  13
33.2868
  23
17.5509
  0
SOLID
  8
Top_Paste
  10
37.49
  20
21.7877
  11
39.2868
  21
21.7877
  12
37.49
  22
18.7909
  13
39.2868
  23
18.7909
  0
SOLID
  8
Top_Paste
  10
10.4065
  20
46.0225
  11
11.5033
  21
46.0225
  12
10.4065
  22
44.7257
  13
11.5033
  23
44.7257
  0
SOLID
  8
Top_Paste
  10
8.5065
  20
46.0225
  11
9.6033
  21
46.0225
  12
8.5065
  22
44.7257
  13
9.6033
  23
44.7257
  0
SOLID
  8
Top_Paste
  10
4.6909
  20
49.5154
  11
5.7877
  21
49.5154
  12
4.6909
  22
48.2186
  13
5.7877
  23
48.2186
  0
SOLID
  8
Top_Paste
  10
6.5909
  20
49.5154
  11
7.6877
  21
49.5154
  12
6.5909
  22
48.2186
  13
7.6877
  23
48.2186
  0
SOLID
  8
Top_Paste
  10
4.6909
  20
46.0225
  11
5.7877
  21
46.0225
  12
4.6909
  22
44.7257
  13
5.7877
  23
44.7257
  0
SOLID
  8
Top_Paste
  10
6.5909
  20
46.0225
  11
7.6877
  21
46.0225
  12
6.5909
  22
44.7257
  13
7.6877
  23
44.7257
  0
SOLID
  8
Top_Paste
  10
10.4065
  20
49.5154
  11
11.5033
  21
49.5154
  12
10.4065
  22
48.2186
  13
11.5033
  23
48.2186
  0
SOLID
  8
Top_Paste
  10
8.5065
  20
49.5154
  11
9.6033
  21
49.5154
  12
8.5065
  22
48.2186
  13
9.6033
  23
48.2186
  0
SOLID
  8
Top_Paste
  10
9.2802
  20
27.8731
  11
11.677
  21
27.8731
  12
9.2802
  22
26.6763
  13
11.677
  23
26.6763
  0
SOLID
  8
Top_Paste
  10
9.2802
  20
31.4731
  11
11.677
  21
31.4731
  12
9.2802
  22
30.2763
  13
11.677
  23
30.2763
  0
SOLID
  8
Top_Paste
  10
3.2802
  20
31.4731
  11
5.677
  21
31.4731
  12
3.2802
  22
30.2763
  13
5.677
  23
30.2763
  0
SOLID
  8
Top_Paste
  10
3.2802
  20
27.8731
  11
5.677
  21
27.8731
  12
3.2802
  22
26.6763
  13
5.677
  23
26.6763
  0
ENDSEC
  0
EOF
